<svg xmlns="http://www.w3.org/2000/svg" xmlns:xlink="http://www.w3.org/1999/xlink" width="700" height="700" viewBox="0 0 700 700">
  <defs>
    <clipPath id="clip-ONE-STOP_서비스">
      <rect width="700" height="700"/>
    </clipPath>
  </defs>
  <g id="ONE-STOP_서비스" data-name="ONE-STOP 서비스" clip-path="url(#clip-ONE-STOP_서비스)">
    <rect width="700" height="700" fill="#fff"/>
    <g id="Group_12" data-name="Group 12" transform="translate(-24 15)">
      <g id="Group_11" data-name="Group 11" transform="translate(124 325.238)">
        <path id="Path_22" data-name="Path 22" d="M1501.992,1180.333q-.247-76.918-.492-153.833h55.832c50.686,24,70.914,34.232,74.077,36.671a14.118,14.118,0,0,0,5.346,2.647,14.424,14.424,0,0,0,6.684,0c2.363-.516,11.643-.8,31.378-.719,12.952.054,30.959.279,54.729.719,10.739,1.845,19.432,9.268,22.018,18.873,3.359,12.48-4.061,31.021-18.086,36.356q-49.083.066-98.165.131,39.253-.064,78.506-.131h19.659c66.627-34.721,109.706-57.527,129.384-62.909,12.925-3.536,22.15-2.274,25.95-1.573a51.459,51.459,0,0,1,23.591,11.009c11.1,9.513,14.625,17.266,15.727,21.835l-238.688,128.177a71.989,71.989,0,0,1-34.6,4.718l-127-42.07Z" transform="translate(-1433.86 -980.206)" fill="none" stroke="#2777ff" stroke-linecap="round" stroke-linejoin="round" stroke-miterlimit="10" stroke-width="15"/>
        <g id="Rectangle_29" data-name="Rectangle 29" transform="translate(0 -0.238)" fill="none" stroke="#2777ff" stroke-width="15">
          <rect width="75" height="235" stroke="none"/>
          <rect x="7.5" y="7.5" width="60" height="220" fill="none"/>
        </g>
      </g>
      <g id="Polygon_1" data-name="Polygon 1" transform="translate(230 102)" fill="none">
        <path d="M146.047,27.276a15,15,0,0,1,26.906,0l30.8,62.45a15,15,0,0,0,11.669,8.259l70.6,8.454a15,15,0,0,1,8.21,26.079L243.327,178a15,15,0,0,0-4.712,14.141l13.262,66.006A15,15,0,0,1,230.2,274.382l-63.737-33.427a15,15,0,0,0-13.933,0L88.8,274.382a15,15,0,0,1-21.673-16.239l13.262-66.006A15,15,0,0,0,75.673,178l-50.9-45.479a15,15,0,0,1,8.21-26.079l70.6-8.454a15,15,0,0,0,11.669-8.259Z" stroke="none"/>
        <path d="M 159.4999389648438 33.91119384765625 L 159.4999389648438 33.9112548828125 L 128.6991271972656 96.36149597167969 C 124.1952819824219 105.4935455322266 115.4705352783203 111.6682586669922 105.3604888916016 112.8788452148438 L 34.763671875 121.3325958251953 L 85.6669921875 166.8112030029297 C 93.567138671875 173.8694000244141 97.17843627929688 184.7062072753906 95.09158325195312 195.0925598144531 L 81.82943725585938 261.0982971191406 L 145.5665283203125 227.6716918945312 C 149.8476867675781 225.4264526367188 154.6658325195312 224.2397003173828 159.4999847412109 224.2397003173828 C 164.3343353271484 224.2397003173828 169.1525421142578 225.4265441894531 173.4334869384766 227.6717529296875 L 237.1703338623047 261.0983581542969 L 223.9082946777344 195.0925598144531 C 221.8214416503906 184.7062072753906 225.4327392578125 173.8694000244141 233.3328857421875 166.8112030029297 L 284.2362976074219 121.3325500488281 L 213.6392822265625 112.8788452148438 C 203.5292816162109 111.6681518554688 194.8046264648438 105.4934539794922 190.3007354736328 96.36155700683594 L 159.5846405029297 33.92144775390625 C 159.5763397216797 33.91860961914062 159.5448913574219 33.91119384765625 159.4999389648438 33.91119384765625 M 159.4999542236328 18.91119384765625 C 164.8511199951172 18.91119384765625 170.2022857666016 21.69955444335938 172.9527282714844 27.2762451171875 L 203.7535400390625 89.72660827636719 C 205.9969329833984 94.27525329589844 210.3870239257812 97.3822021484375 215.4228363037109 97.98524475097656 L 286.0197448730469 106.4389495849609 C 298.8410949707031 107.9742584228516 303.859619140625 123.9151000976562 294.2300720214844 132.5184478759766 L 243.3266906738281 177.9971008300781 C 239.3594818115234 181.54150390625 237.5664367675781 186.9220581054688 238.6143798828125 192.1377563476562 L 251.8764343261719 258.1435546875 C 254.363037109375 270.5195922851562 241.3828125 280.2452392578125 230.2035827636719 274.3822937011719 L 166.4667358398438 240.9557495117188 C 162.1040344238281 238.6676940917969 156.8959808349609 238.6677093505859 152.5332794189453 240.9557037353516 L 88.79618835449219 274.3822937011719 C 77.61686706542969 280.2452697753906 64.63676452636719 270.5195922851562 67.12333679199219 258.1434936523438 L 80.38548278808594 192.1377563476562 C 81.43344116210938 186.9220581054688 79.640380859375 181.54150390625 75.67318725585938 177.9971008300781 L 24.7698974609375 132.5184478759766 C 15.14031982421875 123.9151000976562 20.15887451171875 107.9742584228516 32.980224609375 106.4389495849609 L 103.5770416259766 97.98524475097656 C 108.6128387451172 97.38224792480469 113.0029296875 94.27529907226562 115.246337890625 89.72660827636719 L 146.0471801757812 27.2762451171875 C 148.7976379394531 21.69955444335938 154.1488037109375 18.91119384765625 159.4999542236328 18.91119384765625 Z" stroke="none" fill="#2777ff"/>
      </g>
      <path id="Path_23" data-name="Path 23" d="M12.4,1.382l3.757-11.409h17.9L37.74,1.382h11L31.66-48.078H18.475L1.328,1.382Zm6.353-19.4L24.9-36.943h.342l6.217,18.923Zm45.5-30.059H54.136V1.382H64.246Zm17.967,0H72.1V1.382H82.213Z" transform="translate(343.853 280.729)" fill="none"/>
      <g id="Polygon_2" data-name="Polygon 2" transform="translate(470 233)" fill="none">
        <path d="M68.524,18.273a10,10,0,0,1,17.951,0L98.357,42.463a10,10,0,0,0,7.782,5.52l26.949,3.24a10,10,0,0,1,5.484,17.372L119.367,85.824a10,10,0,0,0-3.128,9.406l5.037,25.172a10,10,0,0,1-14.465,10.81L82.159,118.231a10,10,0,0,0-9.319,0L48.189,131.212A10,10,0,0,1,33.724,120.4L38.761,95.23a10,10,0,0,0-3.128-9.406L16.428,68.595a10,10,0,0,1,5.484-17.372l26.949-3.24a10,10,0,0,0,7.782-5.52Z" stroke="none"/>
        <path d="M 77.5 27.2186279296875 L 67.41380310058594 47.75302886962891 C 64.11733245849609 54.46426391601562 57.71723937988281 59.00385284423828 50.29359436035156 59.89644622802734 L 27.72672271728516 62.60984039306641 L 43.64650726318359 76.89150238037109 C 49.41041564941406 82.06235504150391 52.04718780517578 89.99132537841797 50.52783203125 97.58415222167969 L 46.31513977050781 118.6369247436523 L 67.24921417236328 107.6130294799805 C 73.54548645019531 104.2974014282227 81.45450592041016 104.2973937988281 87.75071716308594 107.6130065917969 L 108.74072265625 118.916015625 L 104.4721527099609 97.58418273925781 C 102.9528045654297 89.99129486083984 105.589599609375 82.06229400634766 111.3535385131836 76.89147186279297 L 127.2732696533203 62.60984039306641 L 104.7063293457031 59.89644622802734 C 97.28271484375 59.00379943847656 90.88265228271484 54.46417999267578 87.58621215820312 47.75299835205078 L 77.5 27.2186279296875 M 77.49999237060547 12.68220520019531 C 81.0723876953125 12.68220520019531 84.644775390625 14.54595947265625 86.47568511962891 18.27347564697266 L 98.35704040527344 42.46250152587891 C 99.84950256347656 45.50099945068359 102.7778930664062 47.57811737060547 106.1389465332031 47.98226928710938 L 133.0881500244141 51.22258758544922 C 141.6234130859375 52.24885559082031 144.9712066650391 62.85405731201172 138.5720977783203 68.59473419189453 L 119.3668060302734 85.8238525390625 C 116.7343292236328 88.18544006347656 115.5449829101562 91.76185607910156 116.2388916015625 95.2296142578125 L 121.2759475708008 120.4019470214844 C 122.9280395507812 128.6580657958984 114.2608489990234 135.1353454589844 106.810920715332 131.2122344970703 L 82.15941619873047 118.2307968139648 C 79.24298095703125 116.6949996948242 75.75703430175781 116.6950073242188 72.84056854248047 118.2307968139648 L 48.18912506103516 131.2122344970703 C 40.73920440673828 135.1353759765625 32.07199859619141 128.6580963134766 33.72406768798828 120.401969909668 L 38.76109313964844 95.2296142578125 C 39.45500946044922 91.76185607910156 38.26565551757812 88.18544006347656 35.63321685791016 85.8238525390625 L 16.42788696289062 68.59473419189453 C 10.02880859375 62.85405731201172 13.37660217285156 52.24885559082031 21.911865234375 51.22258758544922 L 48.86106872558594 47.98226928710938 C 52.22209930419922 47.57814788818359 55.15050506591797 45.50102996826172 56.64297485351562 42.46253204345703 L 68.52429962158203 18.27347564697266 C 70.35520172119141 14.54597473144531 73.92759704589844 12.68220520019531 77.49999237060547 12.68220520019531 Z" stroke="none" fill="#2777ff"/>
      </g>
    </g>
  </g>
</svg>
