<svg xmlns="http://www.w3.org/2000/svg" xmlns:xlink="http://www.w3.org/1999/xlink" width="700" height="700" viewBox="0 0 700 700">
  <defs>
    <clipPath id="clip-무료_짐_보관_서비스">
      <rect width="700" height="700"/>
    </clipPath>
  </defs>
  <g id="무료_짐_보관_서비스" data-name="무료 짐 보관 서비스" clip-path="url(#clip-무료_짐_보관_서비스)">
    <rect width="700" height="700" fill="#fff"/>
    <g id="Group_6" data-name="Group 6" transform="translate(-73.5 -87.031)">
      <rect id="Rectangle_5" data-name="Rectangle 5" width="257.955" height="357.028" rx="19.25" transform="translate(409.349 299.411)" fill="none" stroke="#2777ff" stroke-miterlimit="10" stroke-width="15"/>
      <path id="Rectangle_6" data-name="Rectangle 6" d="M18.952,0H68.776A18.952,18.952,0,0,1,87.728,18.952v94.064a0,0,0,0,1,0,0H0a0,0,0,0,1,0,0V18.952A18.952,18.952,0,0,1,18.952,0Z" transform="translate(495.216 186.395)" fill="none" stroke="#2777ff" stroke-miterlimit="10" stroke-width="15"/>
      <path id="Path_20" data-name="Path 20" d="M354.565,1921.6q.707-19.014,1.416-38.03.963-2.13,2.042-4.182v0a39.77,39.77,0,0,1,13.45-14.295h58.415a33.2,33.2,0,0,1,13.835,13.848,34.7,34.7,0,0,1,1.555,3.407l.078,37.579" transform="translate(139.058 -1678.701)" fill="none" stroke="#2777ff" stroke-miterlimit="10" stroke-width="30"/>
      <rect id="Rectangle_9" data-name="Rectangle 9" width="34.224" height="42.056" rx="11.833" transform="translate(473.013 658.556)" fill="none" stroke="#2777ff" stroke-miterlimit="10" stroke-width="15"/>
      <rect id="Rectangle_10" data-name="Rectangle 10" width="34.224" height="42.056" rx="11.833" transform="translate(587.921 656.439)" fill="none" stroke="#2777ff" stroke-miterlimit="10" stroke-width="15"/>
      <g id="Group_7" data-name="Group 7" transform="translate(180 368.369)">
        <rect id="Rectangle_7" data-name="Rectangle 7" width="257.955" height="284.162" rx="19.25" transform="translate(0 48.082)" fill="#fff" stroke="#2777ff" stroke-miterlimit="10" stroke-width="15"/>
        <rect id="Rectangle_8" data-name="Rectangle 8" width="257.955" height="101.586" rx="19.25" transform="translate(0.38 48.082)" fill="#fff" stroke="#2777ff" stroke-miterlimit="10" stroke-width="15"/>
        <path id="Path_21" data-name="Path 21" d="M208.64,2028.065c0-25.441,13.4-46.064,29.926-46.064s29.928,20.624,29.928,46.064" transform="translate(-109.209 -1982)" fill="#fff" stroke="#2777ff" stroke-miterlimit="10" stroke-width="15"/>
        <rect id="Rectangle_11" data-name="Rectangle 11" width="28.439" height="122.554" rx="4.75" transform="translate(48.797 48.082)" fill="#fff" stroke="#2777ff" stroke-miterlimit="10" stroke-width="15"/>
        <rect id="Rectangle_12" data-name="Rectangle 12" width="28.439" height="122.554" rx="4.75" transform="translate(180.762 48.082)" fill="#fff" stroke="#2777ff" stroke-miterlimit="10" stroke-width="15"/>
        <rect id="Rectangle_13" data-name="Rectangle 13" width="58.566" height="25.065" rx="4.75" transform="translate(33.712 172.653)" fill="#fff" stroke="#2777ff" stroke-miterlimit="10" stroke-width="15"/>
        <rect id="Rectangle_14" data-name="Rectangle 14" width="58.566" height="25.065" rx="4.75" transform="translate(165.677 172.653)" fill="#fff" stroke="#2777ff" stroke-miterlimit="10" stroke-width="15"/>
        <rect id="Rectangle_15" data-name="Rectangle 15" width="160.404" height="52.98" rx="12" transform="translate(48.776 231.303)" fill="#fff" stroke="#2777ff" stroke-miterlimit="10" stroke-width="15"/>
      </g>
      <g id="Group_5" data-name="Group 5" transform="translate(464.095 359.783)">
        <line id="Line_1" data-name="Line 1" y2="250.503" transform="translate(0 0)" fill="none" stroke="#2777ff" stroke-linecap="round" stroke-linejoin="round" stroke-width="15"/>
        <line id="Line_2" data-name="Line 2" y2="250.503" transform="translate(51.576 0)" fill="none" stroke="#2777ff" stroke-linecap="round" stroke-linejoin="round" stroke-width="15"/>
        <line id="Line_3" data-name="Line 3" y2="250.503" transform="translate(96.886 0)" fill="none" stroke="#2777ff" stroke-linecap="round" stroke-linejoin="round" stroke-width="15"/>
        <line id="Line_4" data-name="Line 4" y2="250.503" transform="translate(148.463 0)" fill="none" stroke="#2777ff" stroke-linecap="round" stroke-linejoin="round" stroke-width="15"/>
      </g>
    </g>
    <g id="Group_10" data-name="Group 10" transform="translate(-518.397 -138.72) rotate(-24)">
      <g id="Group_9" data-name="Group 9">
        <rect id="Rectangle_28" data-name="Rectangle 28" width="201" height="88" rx="22" transform="translate(431 542)" fill="#2777ff"/>
      </g>
      <text id="FREE" transform="translate(453 610)" fill="#fff" font-size="66" font-family="Pretendard-Bold, Pretendard" font-weight="700"><tspan x="0" y="0">FREE</tspan></text>
    </g>
  </g>
</svg>
