<svg width="800" height="109" viewBox="0 0 800 109" fill="none" xmlns="http://www.w3.org/2000/svg">
<g clip-path="url(#clip0_12136_18644)">
<mask id="mask0_12136_18644" style="mask-type:luminance" maskUnits="userSpaceOnUse" x="0" y="0" width="800" height="109">
<path d="M800 0H0V109H800V0Z" fill="white"/>
</mask>
<g mask="url(#mask0_12136_18644)">
<path d="M124.358 46.252H148.83V50.28H124.358V46.252ZM124.358 36.79H129.412V48.076H124.358V36.79ZM120.558 54.156H152.364V58.222H120.558V54.156ZM127.778 55.6H132.832V70.382H127.778V55.6ZM140.052 55.6H145.106V70.382H140.052V55.6ZM162.621 47.088H167.675V53.586H162.621V47.088ZM175.009 47.088H180.025V53.586H175.009V47.088ZM171.399 35.802C179.151 35.802 184.129 38.424 184.129 42.68C184.129 46.974 179.151 49.596 171.399 49.596C163.647 49.596 158.669 46.974 158.669 42.68C158.669 38.424 163.647 35.802 171.399 35.802ZM171.399 39.716C166.573 39.716 163.875 40.666 163.875 42.68C163.875 44.694 166.573 45.682 171.399 45.682C176.187 45.682 178.923 44.694 178.923 42.68C178.923 40.666 176.187 39.716 171.399 39.716ZM155.477 52.484H187.283V56.474H155.477V52.484ZM159.011 58.868H183.445V70.382H178.391V62.858H159.011V58.868ZM214.961 42.376H224.537V46.442H214.961V42.376ZM214.961 53.282H224.537V57.348H214.961V53.282ZM208.881 37.626C214.125 37.626 217.963 42.49 217.963 50.166C217.963 57.918 214.125 62.782 208.881 62.782C203.599 62.782 199.799 57.918 199.799 50.166C199.799 42.49 203.599 37.626 208.881 37.626ZM208.881 42.224C206.335 42.224 204.587 44.998 204.587 50.166C204.587 55.41 206.335 58.222 208.881 58.222C211.465 58.222 213.175 55.41 213.175 50.166C213.175 44.998 211.465 42.224 208.881 42.224ZM223.739 35.156H228.755V70.458H223.739V35.156ZM259.38 35.194H264.168V57.234H259.38V35.194ZM255.086 43.858H260.71V47.962H255.086V43.858ZM252.084 35.878H256.796V56.094H252.084V35.878ZM234.034 38.804H251.096V42.68H234.034V38.804ZM242.622 43.82C247.03 43.82 250.222 46.328 250.222 49.976C250.222 53.624 247.03 56.094 242.622 56.094C238.214 56.094 235.022 53.624 235.022 49.976C235.022 46.328 238.214 43.82 242.622 43.82ZM242.622 47.43C240.76 47.43 239.506 48.342 239.506 49.976C239.506 51.61 240.76 52.522 242.622 52.522C244.446 52.522 245.7 51.61 245.7 49.976C245.7 48.342 244.446 47.43 242.622 47.43ZM240.076 35.536H245.054V41.464H240.076V35.536ZM252.274 57.614C259.798 57.614 264.358 59.894 264.358 63.998C264.358 68.064 259.798 70.382 252.274 70.382C244.712 70.382 240.152 68.064 240.152 63.998C240.152 59.894 244.712 57.614 252.274 57.614ZM252.274 61.376C247.562 61.376 245.206 62.174 245.206 63.998C245.206 65.784 247.562 66.62 252.274 66.62C256.948 66.62 259.304 65.784 259.304 63.998C259.304 62.174 256.948 61.376 252.274 61.376ZM302.182 35.194H307.274V53.206H302.182V35.194ZM283.448 54.612H307.274V64.112H288.502V68.368H283.524V60.502H302.258V58.488H283.448V54.612ZM283.524 66.24H308.224V70.154H283.524V66.24ZM279.458 37.322H298.42V41.198H279.458V37.322ZM279.04 52.598L278.546 48.608C284.702 48.608 292.91 48.494 299.712 47.658L299.978 51.268C293.024 52.408 285.12 52.56 279.04 52.598ZM282.232 39.07H287.058V50.584H282.232V39.07ZM290.744 39.07H295.646V50.584H290.744V39.07ZM326.157 36.22H330.603V37.854C330.603 44.618 325.283 50.356 316.049 51.724L314.073 47.658C322.167 46.594 326.157 41.996 326.157 37.854V36.22ZM327.107 36.22H331.515V37.854C331.515 41.958 335.543 46.594 343.599 47.658L341.661 51.724C332.427 50.356 327.107 44.618 327.107 37.854V36.22ZM326.195 57.5H331.211V70.382H326.195V57.5ZM312.933 54.308H344.739V58.412H312.933V54.308ZM366.071 37.626C371.429 37.626 375.305 42.49 375.305 50.166C375.305 57.918 371.429 62.782 366.071 62.782C360.713 62.782 356.837 57.918 356.837 50.166C356.837 42.49 360.713 37.626 366.071 37.626ZM366.071 42.224C363.449 42.224 361.701 44.998 361.701 50.166C361.701 55.41 363.449 58.222 366.071 58.222C368.693 58.222 370.479 55.41 370.479 50.166C370.479 44.998 368.693 42.224 366.071 42.224ZM379.143 35.194H384.235V70.382H379.143V35.194ZM383.095 48.456H389.327V52.636H383.095V48.456ZM415.734 35.156H420.826V70.458H415.734V35.156ZM401.864 37.626C407.184 37.626 411.098 42.49 411.098 50.166C411.098 57.918 407.184 62.782 401.864 62.782C396.544 62.782 392.63 57.918 392.63 50.166C392.63 42.49 396.544 37.626 401.864 37.626ZM401.864 42.224C399.242 42.224 397.456 44.998 397.456 50.166C397.456 55.41 399.242 58.222 401.864 58.222C404.486 58.222 406.234 55.41 406.234 50.166C406.234 44.998 404.486 42.224 401.864 42.224ZM441.419 43.668H446.777V47.696H441.419V43.668ZM427.929 50.85H430.323C435.339 50.85 438.569 50.774 442.407 50.128L442.863 54.042C438.873 54.764 435.529 54.84 430.323 54.84H427.929V50.85ZM427.929 37.284H441.191V41.274H432.793V53.168H427.929V37.284ZM431.349 44.048H439.899V47.886H431.349V44.048ZM451.755 35.194H456.543V56.17H451.755V35.194ZM444.877 35.726H449.589V55.904H444.877V35.726ZM432.717 57.576H456.543V70.002H432.717V57.576ZM451.603 61.528H437.695V66.012H451.603V61.528ZM469.664 62.7244L469.496 64.4041C469.364 65.7479 469.109 67.0865 468.732 68.4201C468.366 69.7638 467.979 70.9804 467.572 72.0696C467.175 73.1589 466.854 74.014 466.61 74.6349H462.395C462.548 74.0343 462.757 73.1945 463.021 72.1154C463.286 71.0465 463.536 69.8453 463.77 68.5117C464.004 67.1781 464.151 65.8191 464.213 64.4347L464.289 62.7244H469.664ZM485.239 33.374H490.872V38.577H498.913V33.374H504.589V52.681H485.239V33.374ZM490.872 42.963V48.209H498.913V42.963H490.872ZM489.152 56.637H516.328V70.827H510.566V61.152H489.152V56.637ZM510.566 31.009H516.328V54.788H510.566V31.009ZM531.719 33.804C537.008 33.804 540.405 39.265 540.405 48.252C540.405 57.282 537.008 62.743 531.719 62.743C526.473 62.743 523.119 57.282 523.119 48.252C523.119 39.265 526.473 33.804 531.719 33.804ZM531.719 39.179C529.569 39.179 528.322 42.189 528.322 48.252C528.322 54.358 529.569 57.325 531.719 57.325C533.912 57.325 535.159 54.358 535.159 48.252C535.159 42.189 533.912 39.179 531.719 39.179ZM551.542 31.009H557.003V70.827H551.542V31.009ZM546.769 46.188H553.348V50.789H546.769V46.188ZM542.813 31.611H548.188V69.021H542.813V31.611ZM565.47 32.084H595.14V36.341H565.47V32.084ZM565.771 41.415H594.839V45.672H565.771V41.415ZM570.544 33.761H576.263V44.167H570.544V33.761ZM584.347 33.761H590.066V44.167H584.347V33.761ZM562.331 47.736H598.322V52.208H562.331V47.736ZM566.459 54.401H593.979V64.291H572.135V67.989H566.502V60.464H588.346V58.486H566.459V54.401ZM566.502 66.398H595.011V70.569H566.502V66.398ZM630.655 31.009H636.116V70.827H630.655V31.009ZM625.882 46.274H632.461V50.918H625.882V46.274ZM622.27 31.697H627.602V68.935H622.27V31.697ZM602.189 35.481H620.378V40.039H602.189V35.481ZM602.103 61.797L601.501 57.153C606.446 57.153 614.745 57.024 620.679 56.207L621.066 60.335C614.96 61.668 606.962 61.797 602.103 61.797ZM604.683 38.405H609.8V58.357H604.683V38.405ZM612.767 38.405H617.884V58.357H612.767V38.405ZM656.237 33.288H661.225V36.169C661.225 44.812 655.076 52.466 644.756 54.487L642.305 49.757C651.292 48.209 656.237 41.888 656.237 36.169V33.288ZM657.398 33.288H662.343V36.169C662.343 42.017 667.245 48.209 676.275 49.757L673.824 54.487C663.504 52.466 657.398 44.941 657.398 36.169V33.288ZM641.488 61.324H677.522V65.968H641.488V61.324Z" fill="white"/>
<path d="M123.892 16.028H125.419C129.009 16.028 131.482 15.942 134.406 15.426L134.599 16.888C131.589 17.404 129.052 17.5115 125.419 17.5115H123.892V16.028ZM123.892 4.504H132.944V5.9875H125.677V16.544H123.892V4.504ZM125.225 9.9435H132.514V11.384H125.225V9.9435ZM136.212 2.741H138.018V22.177H136.212V2.741ZM137.588 10.5455H141.2V12.0505H137.588V10.5455ZM143.95 4.633H152.894V17.2965H143.95V4.633ZM151.152 6.0735H145.691V15.856H151.152V6.0735ZM156.957 2.7195H158.742V22.1985H156.957V2.7195ZM170.415 4.074H171.963V5.5575C171.963 9.793 168.028 13.0825 164.137 13.964L163.341 12.4805C166.76 11.8355 170.415 8.8685 170.415 5.5575V4.074ZM170.737 4.074H172.285V5.5575C172.285 8.89 175.962 11.8355 179.359 12.4805L178.563 13.964C174.693 13.0825 170.737 9.8145 170.737 5.5575V4.074ZM162.632 18.092H180.24V19.554H162.632V18.092ZM189.145 4.6545H190.843V9.3845H194.928V4.6545H196.584V17.2965H189.145V4.6545ZM190.843 10.825V15.8345H194.928V10.825H190.843ZM203.249 2.741H204.969V22.177H203.249V2.741ZM196.283 10.1155H200.024V11.599H196.283V10.1155ZM199.4 3.1495H201.099V21.2095H199.4V3.1495ZM216.018 4.074H217.566V5.5575C217.566 9.793 213.632 13.0825 209.74 13.964L208.945 12.4805C212.363 11.8355 216.018 8.8685 216.018 5.5575V4.074ZM216.341 4.074H217.889V5.5575C217.889 8.89 221.565 11.8355 224.962 12.4805L224.167 13.964C220.297 13.0825 216.341 9.8145 216.341 5.5575V4.074ZM208.235 18.092H225.844V19.554H208.235V18.092ZM230.271 13.2115H243.622V14.652H230.271V13.2115ZM228.013 18.1995H245.622V19.683H228.013V18.1995ZM230.271 4.3965H243.407V5.8585H232.077V13.663H230.271V4.3965ZM231.496 8.7395H242.999V10.1585H231.496V8.7395ZM261.751 6.3745H265.492V7.858H261.751V6.3745ZM257.859 3.558H259.257V5.5145C259.257 8.5245 257.623 11.6205 254.806 12.932L253.839 11.5775C256.376 10.438 257.859 7.8365 257.859 5.5145V3.558ZM258.203 3.558H259.579V5.6005C259.579 7.815 260.977 10.0295 263.363 10.997L262.439 12.373C259.665 11.212 258.203 8.4815 258.203 5.6005V3.558ZM268.502 2.7625H270.2V13.104H268.502V2.7625ZM264.696 3.1065H266.395V12.932H264.696V3.1065ZM257.386 13.9855H270.2V18.522H259.192V21.3815H257.429V17.189H268.48V15.4045H257.386V13.9855ZM257.429 20.543H270.953V21.962H257.429V20.543ZM287.807 2.7195H289.591V22.1985H287.807V2.7195ZM284.109 10.2015H288.237V11.6635H284.109V10.2015ZM274.326 16.0495H275.81C279.25 16.0495 281.679 15.942 284.539 15.426L284.711 16.9095C281.787 17.4255 279.314 17.5545 275.81 17.5545H274.326V16.0495ZM274.283 4.547H282.969V11.3625H276.089V16.501H274.326V9.9005H281.206V6.009H274.283V4.547ZM312.66 4.86364V20.5H310.827L302.307 8.22301H302.154V20.5H300.261V4.86364H302.093L310.644 17.1712H310.797V4.86364H312.66ZM320.969 20.7443C319.91 20.7443 318.981 20.4924 318.182 19.9885C317.388 19.4846 316.767 18.7796 316.319 17.8736C315.876 16.9676 315.655 15.9089 315.655 14.6974C315.655 13.4759 315.876 12.4095 316.319 11.4984C316.767 10.5873 317.388 9.87979 318.182 9.37589C318.981 8.87198 319.91 8.62003 320.969 8.62003C322.027 8.62003 322.954 8.87198 323.748 9.37589C324.547 9.87979 325.168 10.5873 325.611 11.4984C326.058 12.4095 326.282 13.4759 326.282 14.6974C326.282 15.9089 326.058 16.9676 325.611 17.8736C325.168 18.7796 324.547 19.4846 323.748 19.9885C322.954 20.4924 322.027 20.7443 320.969 20.7443ZM320.969 19.1257C321.773 19.1257 322.434 18.9196 322.954 18.5073C323.473 18.095 323.857 17.5529 324.106 16.881C324.356 16.2092 324.481 15.4813 324.481 14.6974C324.481 13.9136 324.356 13.1832 324.106 12.5062C323.857 11.8292 323.473 11.2821 322.954 10.8647C322.434 10.4473 321.773 10.2386 320.969 10.2386C320.164 10.2386 319.503 10.4473 318.983 10.8647C318.464 11.2821 318.08 11.8292 317.831 12.5062C317.581 13.1832 317.456 13.9136 317.456 14.6974C317.456 15.4813 317.581 16.2092 317.831 16.881C318.08 17.5529 318.464 18.095 318.983 18.5073C319.503 18.9196 320.164 19.1257 320.969 19.1257ZM330.346 20.6222C329.969 20.6222 329.646 20.4873 329.377 20.2175C329.107 19.9477 328.972 19.6245 328.972 19.2479C328.972 18.8712 329.107 18.548 329.377 18.2782C329.646 18.0085 329.969 17.8736 330.346 17.8736C330.723 17.8736 331.046 18.0085 331.316 18.2782C331.586 18.548 331.72 18.8712 331.72 19.2479C331.72 19.4973 331.657 19.7263 331.53 19.935C331.407 20.1437 331.242 20.3117 331.033 20.4389C330.83 20.5611 330.601 20.6222 330.346 20.6222ZM338.552 4.86364V20.5H336.658V6.84872H336.567L332.749 9.38352V7.45952L336.658 4.86364H338.552Z" fill="white"/>
<path d="M148.036 98.736H149.548V102.264H148.036V98.736ZM148.036 93.012H149.242V93.372C149.242 96.216 147.388 98.412 144.652 99.276L143.968 98.106C146.38 97.386 148.036 95.568 148.036 93.372V93.012ZM148.324 93.012H149.53V93.372C149.53 95.478 151.24 97.242 153.634 97.944L152.95 99.096C150.214 98.286 148.324 96.126 148.324 93.372V93.012ZM144.346 92.256H153.292V93.462H144.346V92.256ZM148.036 90.24H149.548V92.778H148.036V90.24ZM155.146 90.114H156.64V106.422H155.146V90.114ZM143.68 103.074L143.464 101.814C146.434 101.814 150.538 101.796 154.084 101.256L154.21 102.354C150.556 103.038 146.578 103.056 143.68 103.074ZM172.317 90.132H173.757V106.404H172.317V90.132ZM169.563 96.648H172.695V97.89H169.563V96.648ZM168.627 90.492H170.031V105.576H168.627V90.492ZM160.527 101.148H161.589C163.965 101.148 165.585 101.058 167.475 100.662L167.619 101.904C165.675 102.318 164.037 102.39 161.589 102.39H160.527V101.148ZM160.527 92.112H166.575V93.336H162.003V101.706H160.527V92.112ZM186.373 105.179C185.836 105.17 185.3 105.068 184.763 104.872C184.226 104.676 183.736 104.346 183.292 103.881C182.849 103.413 182.493 102.78 182.225 101.983C181.956 101.182 181.822 100.176 181.822 98.9659C181.822 97.8068 181.931 96.7798 182.148 95.8849C182.366 94.9858 182.681 94.2294 183.094 93.6158C183.508 92.9979 184.006 92.5291 184.59 92.2095C185.178 91.8899 185.841 91.7301 186.578 91.7301C187.311 91.7301 187.963 91.8771 188.534 92.1712C189.109 92.4609 189.578 92.8658 189.94 93.3857C190.302 93.9055 190.537 94.5043 190.643 95.1818H189.084C188.939 94.5937 188.657 94.1058 188.24 93.718C187.822 93.3303 187.268 93.1364 186.578 93.1364C185.564 93.1364 184.765 93.5774 184.181 94.4595C183.601 95.3416 183.309 96.5795 183.305 98.1733H183.407C183.646 97.8111 183.93 97.5021 184.258 97.2464C184.59 96.9865 184.956 96.7862 185.357 96.6456C185.758 96.505 186.182 96.4347 186.629 96.4347C187.379 96.4347 188.065 96.6222 188.687 96.9972C189.309 97.3679 189.808 97.8814 190.183 98.5376C190.558 99.1896 190.746 99.9375 190.746 100.781C190.746 101.591 190.564 102.332 190.202 103.006C189.84 103.675 189.331 104.207 188.675 104.604C188.023 104.996 187.255 105.188 186.373 105.179ZM186.373 103.773C186.91 103.773 187.392 103.638 187.818 103.37C188.248 103.102 188.587 102.741 188.834 102.29C189.086 101.838 189.211 101.335 189.211 100.781C189.211 100.24 189.09 99.7479 188.847 99.3047C188.608 98.8572 188.278 98.5014 187.856 98.2372C187.439 97.973 186.961 97.8409 186.425 97.8409C186.02 97.8409 185.643 97.9219 185.293 98.0838C184.944 98.2415 184.637 98.4588 184.373 98.7358C184.113 99.0128 183.908 99.3303 183.759 99.6882C183.61 100.042 183.535 100.415 183.535 100.807C183.535 101.327 183.657 101.812 183.9 102.264C184.147 102.716 184.483 103.08 184.91 103.357C185.34 103.634 185.828 103.773 186.373 103.773ZM197.35 105.179C196.6 105.179 195.925 105.03 195.324 104.732C194.723 104.433 194.241 104.024 193.879 103.504C193.517 102.984 193.319 102.392 193.285 101.727H194.819C194.879 102.32 195.147 102.81 195.624 103.197C196.106 103.581 196.681 103.773 197.35 103.773C197.887 103.773 198.364 103.647 198.782 103.396C199.204 103.144 199.534 102.799 199.773 102.36C200.016 101.917 200.137 101.416 200.137 100.858C200.137 100.287 200.011 99.7777 199.76 99.3303C199.513 98.8786 199.172 98.5227 198.737 98.2628C198.303 98.0028 197.806 97.8707 197.248 97.8665C196.847 97.8622 196.436 97.924 196.014 98.0518C195.592 98.1754 195.245 98.3352 194.972 98.5312L193.489 98.3523L194.282 91.9091H201.083V93.3153H195.612L195.151 97.1761H195.228C195.496 96.9631 195.833 96.7862 196.238 96.6456C196.643 96.505 197.065 96.4347 197.504 96.4347C198.305 96.4347 199.018 96.6264 199.645 97.0099C200.276 97.3892 200.77 97.9091 201.128 98.5696C201.49 99.2301 201.671 99.9844 201.671 100.832C201.671 101.668 201.484 102.413 201.109 103.07C200.738 103.722 200.227 104.237 199.575 104.616C198.923 104.991 198.181 105.179 197.35 105.179ZM210.884 102.545V101.855C210.884 101.378 210.982 100.941 211.178 100.545C211.378 100.144 211.668 99.8246 212.047 99.5859C212.431 99.343 212.895 99.2216 213.441 99.2216C213.994 99.2216 214.459 99.343 214.834 99.5859C215.209 99.8246 215.492 100.144 215.684 100.545C215.876 100.941 215.972 101.378 215.972 101.855V102.545C215.972 103.023 215.874 103.462 215.678 103.862C215.486 104.259 215.2 104.578 214.821 104.821C214.446 105.06 213.986 105.179 213.441 105.179C212.887 105.179 212.42 105.06 212.041 104.821C211.661 104.578 211.374 104.259 211.178 103.862C210.982 103.462 210.884 103.023 210.884 102.545ZM212.188 101.855V102.545C212.188 102.942 212.281 103.298 212.469 103.613C212.656 103.924 212.98 104.08 213.441 104.08C213.888 104.08 214.203 103.924 214.387 103.613C214.574 103.298 214.668 102.942 214.668 102.545V101.855C214.668 101.459 214.578 101.105 214.399 100.794C214.22 100.479 213.901 100.321 213.441 100.321C212.993 100.321 212.671 100.479 212.475 100.794C212.284 101.105 212.188 101.459 212.188 101.855ZM204.364 95.054V94.3636C204.364 93.8864 204.462 93.4496 204.658 93.0533C204.858 92.6527 205.148 92.3331 205.527 92.0945C205.911 91.8516 206.375 91.7301 206.921 91.7301C207.475 91.7301 207.939 91.8516 208.314 92.0945C208.689 92.3331 208.972 92.6527 209.164 93.0533C209.356 93.4496 209.452 93.8864 209.452 94.3636V95.054C209.452 95.5312 209.354 95.9702 209.158 96.3707C208.966 96.767 208.681 97.0866 208.301 97.3295C207.926 97.5682 207.466 97.6875 206.921 97.6875C206.367 97.6875 205.9 97.5682 205.521 97.3295C205.142 97.0866 204.854 96.767 204.658 96.3707C204.462 95.9702 204.364 95.5312 204.364 95.054ZM205.668 94.3636V95.054C205.668 95.4503 205.762 95.8061 205.949 96.1214C206.137 96.4325 206.46 96.5881 206.921 96.5881C207.368 96.5881 207.683 96.4325 207.867 96.1214C208.054 95.8061 208.148 95.4503 208.148 95.054V94.3636C208.148 93.9673 208.058 93.6136 207.879 93.3026C207.7 92.9872 207.381 92.8295 206.921 92.8295C206.473 92.8295 206.151 92.9872 205.955 93.3026C205.764 93.6136 205.668 93.9673 205.668 94.3636ZM204.85 105L213.85 91.9091H215.307L206.307 105H204.85ZM234.567 90.078H236.061V99.06H234.567V90.078ZM235.431 93.984H238.473V95.244H235.431V93.984ZM225.729 99.888H236.061V103.524H227.241V105.504H225.765V102.444H234.603V101.022H225.729V99.888ZM225.765 105.072H236.655V106.224H225.765V105.072ZM223.479 91.59H233.091V92.76H223.479V91.59ZM228.285 93.48C230.625 93.48 232.173 94.506 232.173 96.162C232.173 97.8 230.625 98.808 228.285 98.808C225.909 98.808 224.379 97.8 224.379 96.162C224.379 94.506 225.909 93.48 228.285 93.48ZM228.285 94.578C226.773 94.578 225.801 95.19 225.801 96.162C225.801 97.116 226.773 97.728 228.285 97.728C229.779 97.728 230.751 97.116 230.751 96.162C230.751 95.19 229.779 94.578 228.285 94.578ZM227.529 89.952H229.023V92.4H227.529V89.952ZM251.827 90.15H253.339V102.03H251.827V90.15ZM242.881 104.82H253.825V106.044H242.881V104.82ZM242.881 100.806H244.357V105.234H242.881V100.806ZM244.609 91.266C247.039 91.266 248.839 92.922 248.839 95.28C248.839 97.62 247.039 99.294 244.609 99.294C242.179 99.294 240.361 97.62 240.361 95.28C240.361 92.922 242.179 91.266 244.609 91.266ZM244.609 92.562C243.025 92.562 241.819 93.678 241.819 95.28C241.819 96.864 243.025 97.98 244.609 97.98C246.193 97.98 247.399 96.864 247.399 95.28C247.399 93.678 246.193 92.562 244.609 92.562ZM274.006 90.132H275.446V106.404H274.006V90.132ZM271.018 90.474H272.422V105.594H271.018V90.474ZM268.768 95.64H271.666V96.846H268.768V95.64ZM268.642 99.366H271.558V100.572H268.642V99.366ZM261.586 92.922H269.596V94.128H261.586V92.922ZM265.564 95.244C267.544 95.244 268.984 96.774 268.984 99.006C268.984 101.22 267.544 102.768 265.564 102.768C263.602 102.768 262.162 101.22 262.162 99.006C262.162 96.774 263.602 95.244 265.564 95.244ZM265.564 96.504C264.358 96.504 263.476 97.53 263.476 99.006C263.476 100.464 264.358 101.49 265.564 101.49C266.788 101.49 267.652 100.464 267.652 99.006C267.652 97.53 266.788 96.504 265.564 96.504ZM264.844 90.546H266.32V93.606H264.844V90.546ZM278.865 97.908H279.909C282.465 97.908 283.977 97.854 285.795 97.494L285.939 98.718C284.067 99.078 282.519 99.15 279.909 99.15H278.865V97.908ZM278.865 91.32H285.165V92.544H280.305V98.574H278.865V91.32ZM279.855 94.56H284.967V95.73H279.855V94.56ZM290.457 90.132H291.879V99.996H290.457V90.132ZM287.829 94.38H290.907V95.604H287.829V94.38ZM286.875 90.438H288.279V99.906H286.875V90.438ZM280.971 100.86H291.879V106.404H290.403V102.084H280.971V100.86Z" fill="white"/>
<path d="M130.562 92.792H123V106.681H137.12V98.656" stroke="white" stroke-width="1.8"/>
<path d="M125.315 96.8022L129.944 102.202L139.744 90.3193" stroke="white" stroke-width="1.8"/>
</g>
</g>
<defs>
<clipPath id="clip0_12136_18644">
<rect width="800" height="109" fill="white"/>
</clipPath>
</defs>
</svg>
