<svg width="345" height="47" viewBox="0 0 345 47" fill="none" xmlns="http://www.w3.org/2000/svg">
<g clip-path="url(#clip0_12136_18656)">
<mask id="mask0_12136_18656" style="mask-type:luminance" maskUnits="userSpaceOnUse" x="0" y="0" width="345" height="47">
<path d="M345 0H0V47H345V0Z" fill="white"/>
</mask>
<g mask="url(#mask0_12136_18656)">
<path d="M90.551 24.159H97.635V25.325H90.551V24.159ZM90.551 21.42H92.014V24.687H90.551V21.42ZM89.451 26.447H98.658V27.624H89.451V26.447ZM91.541 26.865H93.004V31.144H91.541V26.865ZM95.094 26.865H96.557V31.144H95.094V26.865ZM101.627 24.401H103.09V26.282H101.627V24.401ZM105.213 24.401H106.665V26.282H105.213V24.401ZM104.168 21.134C106.412 21.134 107.853 21.893 107.853 23.125C107.853 24.368 106.412 25.127 104.168 25.127C101.924 25.127 100.483 24.368 100.483 23.125C100.483 21.893 101.924 21.134 104.168 21.134ZM104.168 22.267C102.771 22.267 101.99 22.542 101.99 23.125C101.99 23.708 102.771 23.994 104.168 23.994C105.554 23.994 106.346 23.708 106.346 23.125C106.346 22.542 105.554 22.267 104.168 22.267ZM99.5591 25.963H108.766V27.118H99.5591V25.963ZM100.582 27.811H107.655V31.144H106.192V28.966H100.582V27.811ZM116.778 23.037H119.55V24.214H116.778V23.037ZM116.778 26.194H119.55V27.371H116.778V26.194ZM115.018 21.662C116.536 21.662 117.647 23.07 117.647 25.292C117.647 27.536 116.536 28.944 115.018 28.944C113.489 28.944 112.389 27.536 112.389 25.292C112.389 23.07 113.489 21.662 115.018 21.662ZM115.018 22.993C114.281 22.993 113.775 23.796 113.775 25.292C113.775 26.81 114.281 27.624 115.018 27.624C115.766 27.624 116.261 26.81 116.261 25.292C116.261 23.796 115.766 22.993 115.018 22.993ZM119.319 20.947H120.771V31.166H119.319V20.947ZM129.636 20.958H131.022V27.338H129.636V20.958ZM128.393 23.466H130.021V24.654H128.393V23.466ZM127.524 21.156H128.888V27.008H127.524V21.156ZM122.299 22.003H127.238V23.125H122.299V22.003ZM124.785 23.455C126.061 23.455 126.985 24.181 126.985 25.237C126.985 26.293 126.061 27.008 124.785 27.008C123.509 27.008 122.585 26.293 122.585 25.237C122.585 24.181 123.509 23.455 124.785 23.455ZM124.785 24.5C124.246 24.5 123.883 24.764 123.883 25.237C123.883 25.71 124.246 25.974 124.785 25.974C125.313 25.974 125.676 25.71 125.676 25.237C125.676 24.764 125.313 24.5 124.785 24.5ZM124.048 21.057H125.489V22.773H124.048V21.057ZM127.579 27.448C129.757 27.448 131.077 28.108 131.077 29.296C131.077 30.473 129.757 31.144 127.579 31.144C125.39 31.144 124.07 30.473 124.07 29.296C124.07 28.108 125.39 27.448 127.579 27.448ZM127.579 28.537C126.215 28.537 125.533 28.768 125.533 29.296C125.533 29.813 126.215 30.055 127.579 30.055C128.932 30.055 129.614 29.813 129.614 29.296C129.614 28.768 128.932 28.537 127.579 28.537ZM142.026 20.958H143.5V26.172H142.026V20.958ZM136.603 26.579H143.5V29.329H138.066V30.561H136.625V28.284H142.048V27.701H136.603V26.579ZM136.625 29.945H143.775V31.078H136.625V29.945ZM135.448 21.574H140.937V22.696H135.448V21.574ZM135.327 25.996L135.184 24.841C136.966 24.841 139.342 24.808 141.311 24.566L141.388 25.611C139.375 25.941 137.087 25.985 135.327 25.996ZM136.251 22.08H137.648V25.413H136.251V22.08ZM138.715 22.08H140.134V25.413H138.715V22.08ZM148.967 21.255H150.254V21.728C150.254 23.686 148.714 25.347 146.041 25.743L145.469 24.566C147.812 24.258 148.967 22.927 148.967 21.728V21.255ZM149.242 21.255H150.518V21.728C150.518 22.916 151.684 24.258 154.016 24.566L153.455 25.743C150.782 25.347 149.242 23.686 149.242 21.728V21.255ZM148.978 27.415H150.43V31.144H148.978V27.415ZM145.139 26.491H154.346V27.679H145.139V26.491ZM160.521 21.662C162.072 21.662 163.194 23.07 163.194 25.292C163.194 27.536 162.072 28.944 160.521 28.944C158.97 28.944 157.848 27.536 157.848 25.292C157.848 23.07 158.97 21.662 160.521 21.662ZM160.521 22.993C159.762 22.993 159.256 23.796 159.256 25.292C159.256 26.81 159.762 27.624 160.521 27.624C161.28 27.624 161.797 26.81 161.797 25.292C161.797 23.796 161.28 22.993 160.521 22.993ZM164.305 20.958H165.779V31.144H164.305V20.958ZM165.449 24.797H167.253V26.007H165.449V24.797ZM174.897 20.947H176.371V31.166H174.897V20.947ZM170.882 21.662C172.422 21.662 173.555 23.07 173.555 25.292C173.555 27.536 172.422 28.944 170.882 28.944C169.342 28.944 168.209 27.536 168.209 25.292C168.209 23.07 169.342 21.662 170.882 21.662ZM170.882 22.993C170.123 22.993 169.606 23.796 169.606 25.292C169.606 26.81 170.123 27.624 170.882 27.624C171.641 27.624 172.147 26.81 172.147 25.292C172.147 23.796 171.641 22.993 170.882 22.993ZM182.332 23.411H183.883V24.577H182.332V23.411ZM178.427 25.49H179.12C180.572 25.49 181.507 25.468 182.618 25.281L182.75 26.414C181.595 26.623 180.627 26.645 179.12 26.645H178.427V25.49ZM178.427 21.563H182.266V22.718H179.835V26.161H178.427V21.563ZM179.417 23.521H181.892V24.632H179.417V23.521ZM185.324 20.958H186.71V27.03H185.324V20.958ZM183.333 21.112H184.697V26.953H183.333V21.112ZM179.813 27.437H186.71V31.034H179.813V27.437ZM185.28 28.581H181.254V29.879H185.28V28.581ZM191.307 28.5741L191.244 29.1991C191.195 29.6991 191.1 30.1972 190.96 30.6934C190.824 31.1934 190.68 31.6461 190.528 32.0514C190.38 32.4567 190.261 32.7749 190.17 33.0059H188.602C188.659 32.7825 188.736 32.47 188.835 32.0684C188.933 31.6707 189.026 31.2238 189.113 30.7275C189.2 30.2313 189.255 29.7256 189.278 29.2105L189.307 28.5741H191.307ZM196.841 19.999H198.544V21.572H200.975V19.999H202.691V25.836H196.841V19.999ZM198.544 22.898V24.484H200.975V22.898H198.544ZM198.024 27.032H206.24V31.322H204.498V28.397H198.024V27.032ZM204.498 19.284H206.24V26.473H204.498V19.284ZM210.893 20.129C212.492 20.129 213.519 21.78 213.519 24.497C213.519 27.227 212.492 28.878 210.893 28.878C209.307 28.878 208.293 27.227 208.293 24.497C208.293 21.78 209.307 20.129 210.893 20.129ZM210.893 21.754C210.243 21.754 209.866 22.664 209.866 24.497C209.866 26.343 210.243 27.24 210.893 27.24C211.556 27.24 211.933 26.343 211.933 24.497C211.933 22.664 211.556 21.754 210.893 21.754ZM216.886 19.284H218.537V31.322H216.886V19.284ZM215.443 23.873H217.432V25.264H215.443V23.873ZM214.247 19.466H215.872V30.776H214.247V19.466ZM221.097 19.609H230.067V20.896H221.097V19.609ZM221.188 22.43H229.976V23.717H221.188V22.43ZM222.631 20.116H224.36V23.262H222.631V20.116ZM226.804 20.116H228.533V23.262H226.804V20.116ZM220.148 24.341H231.029V25.693H220.148V24.341ZM221.396 26.356H229.716V29.346H223.112V30.464H221.409V28.189H228.013V27.591H221.396V26.356ZM221.409 29.983H230.028V31.244H221.409V29.983ZM240.804 19.284H242.455V31.322H240.804V19.284ZM239.361 23.899H241.35V25.303H239.361V23.899ZM238.269 19.492H239.881V30.75H238.269V19.492ZM232.198 20.636H237.697V22.014H232.198V20.636ZM232.172 28.592L231.99 27.188C233.485 27.188 235.994 27.149 237.788 26.902L237.905 28.15C236.059 28.553 233.641 28.592 232.172 28.592ZM232.952 21.52H234.499V27.552H232.952V21.52ZM235.396 21.52H236.943V27.552H235.396V21.52ZM248.538 19.973H250.046V20.844C250.046 23.457 248.187 25.771 245.067 26.382L244.326 24.952C247.043 24.484 248.538 22.573 248.538 20.844V19.973ZM248.889 19.973H250.384V20.844C250.384 22.612 251.866 24.484 254.596 24.952L253.855 26.382C250.735 25.771 248.889 23.496 248.889 20.844V19.973ZM244.079 28.449H254.973V29.853H244.079V28.449Z" fill="white"/>
<path d="M90.616 7.70904H91.113C92.282 7.70904 93.087 7.68104 94.039 7.51304L94.102 7.98904C93.122 8.15704 92.296 8.19204 91.113 8.19204H90.616V7.70904ZM90.616 3.95704H93.563V4.44004H91.197V7.87704H90.616V3.95704ZM91.05 5.72804H93.423V6.19704H91.05V5.72804ZM94.627 3.38304H95.215V9.71104H94.627V3.38304ZM95.075 5.92404H96.251V6.41404H95.075V5.92404ZM97.1465 3.99904H100.058V8.12204H97.1465V3.99904ZM99.4915 4.46804H97.7135V7.65304H99.4915V4.46804ZM101.381 3.37604H101.962V9.71804H101.381V3.37604ZM105.763 3.81704H106.267V4.30004C106.267 5.67904 104.986 6.75004 103.719 7.03704L103.46 6.55404C104.573 6.34404 105.763 5.37804 105.763 4.30004V3.81704ZM105.868 3.81704H106.372V4.30004C106.372 5.38504 107.569 6.34404 108.675 6.55404L108.416 7.03704C107.156 6.75004 105.868 5.68604 105.868 4.30004V3.81704ZM103.229 8.38104H108.962V8.85704H103.229V8.38104ZM111.861 4.00604H112.414V5.54604H113.744V4.00604H114.283V8.12204H111.861V4.00604ZM112.414 6.01504V7.64604H113.744V6.01504H112.414ZM116.453 3.38304H117.013V9.71104H116.453V3.38304ZM114.185 5.78404H115.403V6.26704H114.185V5.78404ZM115.2 3.51604H115.753V9.39604H115.2V3.51604ZM120.611 3.81704H121.115V4.30004C121.115 5.67904 119.834 6.75004 118.567 7.03704L118.308 6.55404C119.421 6.34404 120.611 5.37804 120.611 4.30004V3.81704ZM120.716 3.81704H121.22V4.30004C121.22 5.38504 122.417 6.34404 123.523 6.55404L123.264 7.03704C122.004 6.75004 120.716 5.68604 120.716 4.30004V3.81704ZM118.077 8.38104H123.81V8.85704H118.077V8.38104ZM125.251 6.79204H129.598V7.26104H125.251V6.79204ZM124.516 8.41604H130.249V8.89904H124.516V8.41604ZM125.251 3.92204H129.528V4.39804H125.839V6.93904H125.251V3.92204ZM125.65 5.33604H129.395V5.79804H125.65V5.33604ZM135.5 4.56604H136.718V5.04904H135.5V4.56604ZM134.233 3.64904H134.688V4.28604C134.688 5.26604 134.156 6.27404 133.239 6.70104L132.924 6.26004C133.75 5.88904 134.233 5.04204 134.233 4.28604V3.64904ZM134.345 3.64904H134.793V4.31404C134.793 5.03504 135.248 5.75604 136.025 6.07104L135.724 6.51904C134.821 6.14104 134.345 5.25204 134.345 4.31404V3.64904ZM137.698 3.39004H138.251V6.75704H137.698V3.39004ZM136.459 3.50204H137.012V6.70104H136.459V3.50204ZM134.079 7.04404H138.251V8.52104H134.667V9.45204H134.093V8.08704H137.691V7.50604H134.079V7.04404ZM134.093 9.17904H138.496V9.64104H134.093V9.17904ZM143.984 3.37604H144.565V9.71804H143.984V3.37604ZM142.78 5.81204H144.124V6.28804H142.78V5.81204ZM139.595 7.71604H140.078C141.198 7.71604 141.989 7.68104 142.92 7.51304L142.976 7.99604C142.024 8.16404 141.219 8.20604 140.078 8.20604H139.595V7.71604ZM139.581 3.97104H142.409V6.19004H140.169V7.86304H139.595V5.71404H141.835V4.44704H139.581V3.97104ZM152.075 4.07413V9.16504H151.479L148.705 5.16788H148.655V9.16504H148.038V4.07413H148.635L151.419 8.08123H151.469V4.07413H152.075ZM154.78 9.24458C154.436 9.24458 154.133 9.16255 153.873 8.99849C153.615 8.83443 153.412 8.60491 153.267 8.30993C153.122 8.01494 153.05 7.67025 153.05 7.27583C153.05 6.87811 153.122 6.53092 153.267 6.23429C153.412 5.93765 153.615 5.7073 153.873 5.54324C154.133 5.37917 154.436 5.29714 154.78 5.29714C155.125 5.29714 155.427 5.37917 155.685 5.54324C155.945 5.7073 156.148 5.93765 156.292 6.23429C156.438 6.53092 156.511 6.87811 156.511 7.27583C156.511 7.67025 156.438 8.01494 156.292 8.30993C156.148 8.60491 155.945 8.83443 155.685 8.99849C155.427 9.16255 155.125 9.24458 154.78 9.24458ZM154.78 8.7176C155.042 8.7176 155.258 8.65048 155.427 8.51625C155.596 8.38201 155.721 8.20552 155.802 7.98677C155.883 7.76802 155.924 7.53104 155.924 7.27583C155.924 7.02063 155.883 6.78282 155.802 6.56241C155.721 6.342 155.596 6.16386 155.427 6.02797C155.258 5.89207 155.042 5.82413 154.78 5.82413C154.519 5.82413 154.303 5.89207 154.134 6.02797C153.965 6.16386 153.84 6.342 153.759 6.56241C153.678 6.78282 153.637 7.02063 153.637 7.27583C153.637 7.53104 153.678 7.76802 153.759 7.98677C153.84 8.20552 153.965 8.38201 154.134 8.51625C154.303 8.65048 154.519 8.7176 154.78 8.7176ZM157.834 9.20481C157.711 9.20481 157.606 9.1609 157.518 9.07306C157.43 8.98523 157.386 8.88 157.386 8.75737C157.386 8.63474 157.43 8.5295 157.518 8.44167C157.606 8.35384 157.711 8.30993 157.834 8.30993C157.956 8.30993 158.061 8.35384 158.149 8.44167C158.237 8.5295 158.281 8.63474 158.281 8.75737C158.281 8.83857 158.26 8.91315 158.219 8.98109C158.179 9.04904 158.125 9.10372 158.057 9.14515C157.991 9.18493 157.916 9.20481 157.834 9.20481ZM160.505 4.07413V9.16504H159.889V4.72044H159.859L158.616 5.54572V4.9193L159.889 4.07413H160.505Z" fill="white"/>
<path d="M100.319 40.8288H100.865V42.1028H100.319V40.8288ZM100.319 38.7618H100.755V38.8918C100.755 39.9188 100.085 40.7118 99.097 41.0238L98.85 40.6013C99.721 40.3413 100.319 39.6848 100.319 38.8918V38.7618ZM100.423 38.7618H100.859V38.8918C100.859 39.6523 101.476 40.2893 102.341 40.5428L102.094 40.9588C101.106 40.6663 100.423 39.8863 100.423 38.8918V38.7618ZM98.9865 38.4888H102.217V38.9243H98.9865V38.4888ZM100.319 37.7608H100.865V38.6773H100.319V37.7608ZM102.887 37.7153H103.426V43.6043H102.887V37.7153ZM98.746 42.3953L98.668 41.9403C99.7405 41.9403 101.223 41.9338 102.503 41.7388L102.549 42.1353C101.229 42.3823 99.7925 42.3888 98.746 42.3953ZM109.087 37.7218H109.607V43.5978H109.087V37.7218ZM108.093 40.0748H109.224V40.5233H108.093V40.0748ZM107.755 37.8518H108.262V43.2988H107.755V37.8518ZM104.83 41.6998H105.213C106.071 41.6998 106.656 41.6673 107.339 41.5243L107.391 41.9728C106.689 42.1223 106.097 42.1483 105.213 42.1483H104.83V41.6998ZM104.83 38.4368H107.014V38.8788H105.363V41.9013H104.83V38.4368ZM114.163 43.1555C113.969 43.1524 113.775 43.1154 113.581 43.0447C113.388 42.9739 113.211 42.8546 113.051 42.6869C112.89 42.5176 112.762 42.2891 112.665 42.0013C112.568 41.712 112.52 41.3489 112.52 40.9118C112.52 40.4933 112.559 40.1224 112.637 39.7993C112.716 39.4746 112.83 39.2014 112.979 38.9798C113.128 38.7567 113.308 38.5874 113.519 38.472C113.731 38.3566 113.971 38.2989 114.237 38.2989C114.502 38.2989 114.737 38.352 114.943 38.4582C115.151 38.5628 115.32 38.709 115.451 38.8968C115.582 39.0845 115.667 39.3007 115.705 39.5454H115.142C115.089 39.333 114.988 39.1568 114.837 39.0168C114.686 38.8767 114.486 38.8067 114.237 38.8067C113.871 38.8067 113.582 38.966 113.371 39.2845C113.162 39.6031 113.057 40.0501 113.055 40.6256H113.092C113.178 40.4948 113.281 40.3833 113.399 40.2909C113.519 40.1971 113.651 40.1247 113.796 40.074C113.941 40.0232 114.094 39.9978 114.255 39.9978C114.526 39.9978 114.774 40.0655 114.999 40.2009C115.223 40.3348 115.403 40.5202 115.539 40.7572C115.674 40.9926 115.742 41.2627 115.742 41.5674C115.742 41.8598 115.677 42.1275 115.546 42.3706C115.415 42.6122 115.231 42.8046 114.994 42.9477C114.759 43.0893 114.482 43.1585 114.163 43.1555ZM114.163 42.6476C114.357 42.6476 114.531 42.5992 114.685 42.5022C114.84 42.4053 114.962 42.2752 115.052 42.1121C115.143 41.949 115.188 41.7674 115.188 41.5674C115.188 41.372 115.144 41.1942 115.056 41.0342C114.97 40.8726 114.851 40.7441 114.699 40.6487C114.548 40.5533 114.375 40.5056 114.182 40.5056C114.035 40.5056 113.899 40.5348 113.773 40.5933C113.647 40.6502 113.536 40.7287 113.441 40.8287C113.347 40.9288 113.273 41.0434 113.219 41.1727C113.165 41.3004 113.138 41.435 113.138 41.5766C113.138 41.7644 113.182 41.9398 113.27 42.1029C113.359 42.266 113.481 42.3976 113.634 42.4976C113.79 42.5976 113.966 42.6476 114.163 42.6476ZM118.127 43.1555C117.856 43.1555 117.612 43.1016 117.395 42.9939C117.178 42.8862 117.004 42.7384 116.874 42.5507C116.743 42.363 116.671 42.1491 116.659 41.909H117.213C117.234 42.1229 117.331 42.2999 117.504 42.4399C117.678 42.5784 117.885 42.6476 118.127 42.6476C118.321 42.6476 118.493 42.6022 118.644 42.5115C118.796 42.4207 118.916 42.296 119.002 42.1375C119.089 41.9775 119.133 41.7967 119.133 41.5951C119.133 41.3889 119.088 41.205 118.997 41.0434C118.908 40.8803 118.785 40.7518 118.628 40.6579C118.471 40.5641 118.292 40.5164 118.09 40.5148C117.945 40.5133 117.797 40.5356 117.644 40.5818C117.492 40.6264 117.367 40.6841 117.268 40.7549L116.733 40.6903L117.019 38.3635H119.475V38.8714H117.499L117.333 40.2655H117.361C117.458 40.1886 117.579 40.1247 117.725 40.074C117.871 40.0232 118.024 39.9978 118.182 39.9978C118.472 39.9978 118.729 40.067 118.956 40.2055C119.183 40.3425 119.362 40.5302 119.491 40.7687C119.622 41.0073 119.687 41.2796 119.687 41.5858C119.687 41.8875 119.62 42.1568 119.484 42.3937C119.35 42.6292 119.166 42.8154 118.93 42.9523C118.695 43.0877 118.427 43.1555 118.127 43.1555ZM123.014 42.2045V41.9552C123.014 41.7828 123.049 41.6251 123.12 41.482C123.193 41.3373 123.297 41.2219 123.434 41.1357C123.573 41.048 123.74 41.0042 123.937 41.0042C124.137 41.0042 124.305 41.048 124.441 41.1357C124.576 41.2219 124.678 41.3373 124.748 41.482C124.817 41.6251 124.851 41.7828 124.851 41.9552V42.2045C124.851 42.3768 124.816 42.5353 124.745 42.68C124.676 42.8231 124.573 42.9385 124.436 43.0262C124.3 43.1124 124.134 43.1555 123.937 43.1555C123.737 43.1555 123.569 43.1124 123.432 43.0262C123.295 42.9385 123.191 42.8231 123.12 42.68C123.049 42.5353 123.014 42.3768 123.014 42.2045ZM123.485 41.9552V42.2045C123.485 42.3476 123.519 42.4761 123.586 42.5899C123.654 42.7023 123.771 42.7584 123.937 42.7584C124.099 42.7584 124.213 42.7023 124.279 42.5899C124.347 42.4761 124.38 42.3476 124.38 42.2045V41.9552C124.38 41.8121 124.348 41.6843 124.284 41.572C124.219 41.4581 124.104 41.4012 123.937 41.4012C123.776 41.4012 123.66 41.4581 123.589 41.572C123.52 41.6843 123.485 41.8121 123.485 41.9552ZM120.66 39.4992V39.2499C120.66 39.0776 120.695 38.9198 120.766 38.7767C120.838 38.6321 120.943 38.5167 121.08 38.4305C121.218 38.3428 121.386 38.2989 121.583 38.2989C121.783 38.2989 121.951 38.3428 122.086 38.4305C122.222 38.5167 122.324 38.6321 122.393 38.7767C122.462 38.9198 122.497 39.0776 122.497 39.2499V39.4992C122.497 39.6715 122.462 39.83 122.391 39.9747C122.322 40.1178 122.218 40.2332 122.081 40.3209C121.946 40.4071 121.78 40.4502 121.583 40.4502C121.383 40.4502 121.214 40.4071 121.077 40.3209C120.94 40.2332 120.837 40.1178 120.766 39.9747C120.695 39.83 120.66 39.6715 120.66 39.4992ZM121.13 39.2499V39.4992C121.13 39.6423 121.164 39.7708 121.232 39.8847C121.3 39.997 121.417 40.0532 121.583 40.0532C121.744 40.0532 121.858 39.997 121.925 39.8847C121.992 39.7708 122.026 39.6423 122.026 39.4992V39.2499C122.026 39.1068 121.994 38.9791 121.929 38.8667C121.865 38.7529 121.749 38.6959 121.583 38.6959C121.421 38.6959 121.305 38.7529 121.234 38.8667C121.165 38.9791 121.13 39.1068 121.13 39.2499ZM120.835 43.0908L124.085 38.3635H124.611L121.361 43.0908H120.835ZM131.566 37.7023H132.106V40.9458H131.566V37.7023ZM131.878 39.1128H132.977V39.5678H131.878V39.1128ZM128.375 41.2448H132.106V42.5578H128.921V43.2728H128.388V42.1678H131.579V41.6543H128.375V41.2448ZM128.388 43.1168H132.32V43.5328H128.388V43.1168ZM127.562 38.2483H131.033V38.6708H127.562V38.2483ZM129.298 38.9308C130.143 38.9308 130.702 39.3013 130.702 39.8993C130.702 40.4908 130.143 40.8548 129.298 40.8548C128.44 40.8548 127.887 40.4908 127.887 39.8993C127.887 39.3013 128.44 38.9308 129.298 38.9308ZM129.298 39.3273C128.752 39.3273 128.401 39.5483 128.401 39.8993C128.401 40.2438 128.752 40.4648 129.298 40.4648C129.837 40.4648 130.188 40.2438 130.188 39.8993C130.188 39.5483 129.837 39.3273 129.298 39.3273ZM129.025 37.6568H129.564V38.5408H129.025V37.6568ZM137.799 37.7283H138.345V42.0183H137.799V37.7283ZM134.569 43.0258H138.521V43.4678H134.569V43.0258ZM134.569 41.5763H135.102V43.1753H134.569V41.5763ZM135.193 38.1313C136.07 38.1313 136.72 38.7293 136.72 39.5808C136.72 40.4258 136.07 41.0303 135.193 41.0303C134.315 41.0303 133.659 40.4258 133.659 39.5808C133.659 38.7293 134.315 38.1313 135.193 38.1313ZM135.193 38.5993C134.621 38.5993 134.185 39.0023 134.185 39.5808C134.185 40.1528 134.621 40.5558 135.193 40.5558C135.765 40.5558 136.2 40.1528 136.2 39.5808C136.2 39.0023 135.765 38.5993 135.193 38.5993ZM145.808 37.7218H146.328V43.5978H145.808V37.7218ZM144.729 37.8453H145.236V43.3053H144.729V37.8453ZM143.917 39.7108H144.963V40.1463H143.917V39.7108ZM143.871 41.0563H144.924V41.4918H143.871V41.0563ZM141.323 38.7293H144.216V39.1648H141.323V38.7293ZM142.76 39.5678C143.475 39.5678 143.995 40.1203 143.995 40.9263C143.995 41.7258 143.475 42.2848 142.76 42.2848C142.051 42.2848 141.531 41.7258 141.531 40.9263C141.531 40.1203 142.051 39.5678 142.76 39.5678ZM142.76 40.0228C142.324 40.0228 142.006 40.3933 142.006 40.9263C142.006 41.4528 142.324 41.8233 142.76 41.8233C143.202 41.8233 143.514 41.4528 143.514 40.9263C143.514 40.3933 143.202 40.0228 142.76 40.0228ZM142.5 37.8713H143.033V38.9763H142.5V37.8713ZM147.563 40.5298H147.94C148.863 40.5298 149.409 40.5103 150.065 40.3803L150.117 40.8223C149.441 40.9523 148.882 40.9783 147.94 40.9783H147.563V40.5298ZM147.563 38.1508H149.838V38.5928H148.083V40.7703H147.563V38.1508ZM147.92 39.3208H149.766V39.7433H147.92V39.3208ZM151.749 37.7218H152.262V41.2838H151.749V37.7218ZM150.8 39.2558H151.911V39.6978H150.8V39.2558ZM150.455 37.8323H150.962V41.2513H150.455V37.8323ZM148.323 41.5958H152.262V43.5978H151.729V42.0378H148.323V41.5958Z" fill="white"/>
<path d="M93.5848 38.5703H90.5848V44.0803H96.1849V40.8972" stroke="white"/>
<path d="M91.5042 40.1602L93.3412 42.3022L97.2279 37.5894" stroke="white"/>
</g>
</g>
<defs>
<clipPath id="clip0_12136_18656">
<rect width="345" height="47" fill="white"/>
</clipPath>
</defs>
</svg>
