<svg width="800" height="109" viewBox="0 0 800 109" fill="none" xmlns="http://www.w3.org/2000/svg">
<g clip-path="url(#clip0_12137_18877)">
<mask id="mask0_12137_18877" style="mask-type:luminance" maskUnits="userSpaceOnUse" x="0" y="0" width="800" height="109">
<path d="M800 0H0V109H800V0Z" fill="white"/>
</mask>
<g mask="url(#mask0_12137_18877)">
<path d="M112.016 37.156H117.108V72.458H112.016V37.156ZM115.968 50.19H122.2V54.332H115.968V50.19ZM90.888 59.804H93.852C99.78 59.804 104.454 59.614 109.622 58.702L110.116 62.882C104.796 63.832 99.97 63.984 93.852 63.984H90.888V59.804ZM90.888 40.424H107.304V44.49H95.904V61.818H90.888V40.424ZM150.621 41.526H156.701V45.63H150.621V41.526ZM150.621 49.164H156.701V53.268H150.621V49.164ZM134.281 39.094C139.715 39.094 143.857 42.666 143.857 47.644C143.857 52.584 139.715 56.156 134.281 56.156C128.847 56.156 124.705 52.584 124.705 47.644C124.705 42.666 128.847 39.094 134.281 39.094ZM134.281 43.312C131.621 43.312 129.645 44.946 129.645 47.644C129.645 50.38 131.621 51.938 134.281 51.938C136.941 51.938 138.917 50.38 138.917 47.644C138.917 44.946 136.941 43.312 134.281 43.312ZM147.125 37.194H152.179V57.714H147.125V37.194ZM140.703 58.474C147.961 58.474 152.597 61.096 152.597 65.428C152.597 69.798 147.961 72.382 140.703 72.382C133.407 72.382 128.771 69.798 128.771 65.428C128.771 61.096 133.407 58.474 140.703 58.474ZM140.703 62.464C136.219 62.464 133.787 63.414 133.787 65.428C133.787 67.48 136.219 68.43 140.703 68.43C145.187 68.43 147.581 67.48 147.581 65.428C147.581 63.414 145.187 62.464 140.703 62.464ZM182.082 37.232H187.136V63.528H182.082V37.232ZM185.692 47.948H191.81V52.09H185.692V47.948ZM159.434 40.88H180.144V44.832H159.434V40.88ZM169.808 46.086C174.862 46.086 178.434 48.86 178.434 52.888C178.434 56.916 174.862 59.652 169.808 59.652C164.716 59.652 161.144 56.916 161.144 52.888C161.144 48.86 164.716 46.086 169.808 46.086ZM169.808 49.924C167.566 49.924 166.008 50.988 166.008 52.888C166.008 54.788 167.566 55.814 169.808 55.814C172.05 55.814 173.608 54.788 173.608 52.888C173.608 50.988 172.05 49.924 169.808 49.924ZM167.262 37.156H172.316V42.818H167.262V37.156ZM164.45 67.746H188.39V71.774H164.45V67.746ZM164.45 61.552H169.504V69.494H164.45V61.552ZM207.471 36.492H232.54V41.05H207.471V36.492ZM203.429 63.453H239.42V68.14H203.429V63.453ZM230.132 36.492H235.765V41.093C235.765 46.898 235.765 52.402 233.916 61.088L228.283 60.572C230.132 52.531 230.132 46.726 230.132 41.093V36.492ZM231.336 47.414V51.628L206.998 52.832L206.31 48.231L231.336 47.414ZM247.071 34.256H274.849V46.124H252.962V52.187H247.157V41.867H269.044V38.814H247.071V34.256ZM247.157 49.392H275.838V53.907H247.157V49.392ZM242.943 56.831H279.02V61.432H242.943V56.831ZM258.036 58.508H263.755V72.913H258.036V58.508ZM282.542 63.41H318.576V68.054H282.542V63.41ZM297.506 38.513H302.322V40.792C302.322 49.134 296.302 55.842 286.154 57.691L283.918 53.133C292.776 51.757 297.506 46.296 297.506 40.792V38.513ZM298.667 38.513H303.483V40.792C303.483 46.296 308.213 51.585 317.286 52.918L315.093 57.476C304.773 55.67 298.667 49.134 298.667 40.792V38.513ZM285.509 36.32H315.48V40.878H285.509V36.32ZM329.76 55.016H334.814V63.338H329.76V55.016ZM332.23 39.246C337.664 39.246 341.806 42.856 341.806 47.91C341.806 52.964 337.664 56.574 332.23 56.574C326.758 56.574 322.654 52.964 322.654 47.91C322.654 42.856 326.758 39.246 332.23 39.246ZM332.23 43.54C329.57 43.54 327.594 45.136 327.594 47.91C327.594 50.646 329.57 52.28 332.23 52.28C334.89 52.28 336.866 50.646 336.866 47.91C336.866 45.136 334.89 43.54 332.23 43.54ZM344.58 37.194H349.634V72.382H344.58V37.194ZM348.076 50.95H354.27V55.168H348.076V50.95ZM322.084 65.39L321.476 61.324C327.556 61.286 335.764 61.324 342.756 60.374L343.136 64.06C335.84 65.428 328.012 65.428 322.084 65.39ZM374.196 39.892H378.3V45.022C378.3 54.066 375.184 62.236 368.192 65.466L365.19 61.286C371.308 58.626 374.196 51.862 374.196 45.022V39.892ZM375.184 39.892H379.288V45.022C379.288 51.52 382.062 57.98 388.066 60.564L385.102 64.63C378.3 61.514 375.184 53.686 375.184 45.022V39.892ZM389.738 37.156H394.83V72.458H389.738V37.156ZM425.873 37.194H430.699V72.382H425.873V37.194ZM421.275 50.76H427.127V54.788H421.275V50.76ZM418.007 37.802H422.719V70.71H418.007V37.802ZM401.933 41.07H406.987V61.4H401.933V41.07ZM401.933 59.5H404.365C407.747 59.5 411.699 59.31 416.069 58.474L416.563 62.806C411.965 63.642 407.937 63.832 404.365 63.832H401.933V59.5ZM435.522 52.964H467.404V56.65H435.522V52.964ZM439.094 58.398H463.604V66.758H444.186V69.76H439.17V63.566H458.626V61.818H439.094V58.398ZM439.17 68.696H464.592V72.116H439.17V68.696ZM439.436 37.802H463.528V46.086H444.49V48.974H439.474V42.932H458.55V41.184H439.436V37.802ZM439.474 47.91H464.174V51.33H439.474V47.91ZM480.49 49.962H483.416C490.75 49.962 494.74 49.734 499.186 48.822L499.718 52.736C495.196 53.762 490.94 53.914 483.416 53.914H480.49V49.962ZM480.49 39.018H496.222V42.97H485.506V52.166H480.49V39.018ZM501.922 37.194H506.976V54.674H501.922V37.194ZM505.57 43.806H511.65V47.91H505.57V43.806ZM483.72 56.118H506.976V65.846H488.812V70.064H483.796V62.122H501.998V60.07H483.72V56.118ZM483.796 68.012H508.002V72.002H483.796V68.012ZM538.475 37.156H543.529V72.458H538.475V37.156ZM516.131 60.146H519.247C525.479 60.146 530.457 59.918 536.043 58.968L536.537 63.034C530.837 64.06 525.669 64.25 519.247 64.25H516.131V60.146ZM516.093 40.158H532.699V53.762H521.261V61.666H516.131V49.772H527.531V44.186H516.093V40.158ZM553.14 46.694H577.536V50.684H553.14V46.694ZM549.188 54.332H581.07V58.36H549.188V54.332ZM553.14 38.448H558.156V48.67H553.14V38.448ZM552.798 67.594H577.726V71.622H552.798V67.594ZM552.798 61.172H557.852V68.658H552.798V61.172ZM595.161 35.374H600.794V40.577H608.835V35.374H614.511V54.681H595.161V35.374ZM600.794 44.963V50.209H608.835V44.963H600.794ZM599.074 58.637H626.25V72.827H620.488V63.152H599.074V58.637ZM620.488 33.009H626.25V56.788H620.488V33.009ZM660.432 32.966H666.108V72.913H660.432V32.966ZM651.402 46.984H662.066V51.585H651.402V46.984ZM634.159 36.105H639.835V45.737H647.661V36.105H653.294V63.539H634.159V36.105ZM639.835 50.166V58.938H647.661V50.166H639.835ZM687.045 35.288H692.033V38.169C692.033 46.812 685.884 54.466 675.564 56.487L673.113 51.757C682.1 50.209 687.045 43.888 687.045 38.169V35.288ZM688.206 35.288H693.151V38.169C693.151 44.017 698.053 50.209 707.083 51.757L704.632 56.487C694.312 54.466 688.206 46.941 688.206 38.169V35.288ZM672.296 63.324H708.33V67.968H672.296V63.324Z" fill="white"/>
<path d="M89.8275 15.8775H91.096C94.1705 15.8775 95.998 15.813 98.1695 15.383L98.363 16.8665C96.1055 17.318 94.2135 17.3825 91.096 17.3825H89.8275V15.8775ZM89.8275 4.9555H97.4815V6.4175H91.526V16.4365H89.8275V4.9555ZM91.01 10.094H97.1805V11.5345H91.01V10.094ZM103.867 2.741H105.587V22.177H103.867V2.741ZM100.793 10.524H104.512V12.0075H100.793V10.524ZM99.5885 3.1495H101.287V21.2095H99.5885V3.1495ZM119.861 6.2025H124.032V7.6645H119.861V6.2025ZM119.861 9.6855H124.032V11.1475H119.861V9.6855ZM109.412 4.203H119.646V5.665H109.412V4.203ZM109.09 13.577L108.896 12.072C112.078 12.072 116.615 12.029 120.248 11.599L120.356 12.932C116.615 13.534 112.25 13.577 109.09 13.577ZM111.347 5.3425H113.067V12.5665H111.347V5.3425ZM115.991 5.3425H117.711V12.5665H115.991V5.3425ZM123.043 2.741H124.828V14.738H123.043V2.741ZM118.442 15.125C122.463 15.125 124.914 16.3935 124.914 18.6295C124.914 20.8655 122.463 22.134 118.442 22.134C114.4 22.134 111.949 20.8655 111.949 18.6295C111.949 16.3935 114.4 15.125 118.442 15.125ZM118.442 16.5225C115.497 16.5225 113.734 17.2965 113.734 18.6295C113.734 19.9625 115.497 20.758 118.442 20.758C121.388 20.758 123.151 19.9625 123.151 18.6295C123.151 17.2965 121.388 16.5225 118.442 16.5225ZM143.166 5.6435H146.541V7.127H143.166V5.6435ZM143.166 9.7715H146.541V11.255H143.166V9.7715ZM134.05 3.8805C136.974 3.8805 139.124 5.7725 139.124 8.4815C139.124 11.169 136.974 13.0395 134.05 13.0395C131.126 13.0395 128.976 11.169 128.976 8.4815C128.976 5.7725 131.126 3.8805 134.05 3.8805ZM134.05 5.3855C132.115 5.3855 130.717 6.654 130.717 8.4815C130.717 10.309 132.115 11.556 134.05 11.556C135.985 11.556 137.382 10.309 137.382 8.4815C137.382 6.654 135.985 5.3855 134.05 5.3855ZM141.919 2.741H143.703V14.2435H141.919V2.741ZM137.511 14.867C141.467 14.867 143.897 16.2215 143.897 18.5005C143.897 20.801 141.467 22.134 137.511 22.134C133.555 22.134 131.126 20.801 131.126 18.5005C131.126 16.2215 133.555 14.867 137.511 14.867ZM137.511 16.3075C134.63 16.3075 132.867 17.103 132.867 18.5005C132.867 19.898 134.63 20.715 137.511 20.715C140.392 20.715 142.155 19.898 142.155 18.5005C142.155 17.103 140.392 16.3075 137.511 16.3075ZM156.279 10.2875H159.955V11.771H156.279V10.2875ZM163.202 2.741H164.922V22.177H163.202V2.741ZM159.353 3.1495H161.052V21.2095H159.353V3.1495ZM152.774 4.3535C155.29 4.3535 156.924 6.955 156.924 11.126C156.924 15.297 155.29 17.8985 152.774 17.8985C150.259 17.8985 148.646 15.297 148.646 11.126C148.646 6.955 150.259 4.3535 152.774 4.3535ZM152.774 6.009C151.248 6.009 150.28 7.987 150.28 11.126C150.28 14.265 151.248 16.243 152.774 16.243C154.322 16.243 155.29 14.265 155.29 11.126C155.29 7.987 154.322 6.009 152.774 6.009ZM177.885 9.32H183.303V10.782H177.885V9.32ZM173.198 4.418H174.66V7.8795C174.66 12.244 172.359 16.415 169.285 18.0705L168.145 16.6515C171.005 15.2325 173.198 11.4915 173.198 7.8795V4.418ZM173.542 4.418H174.982V7.8795C174.982 11.427 177.175 14.953 179.992 16.286L178.938 17.7265C175.799 16.1355 173.542 12.1365 173.542 7.8795V4.418ZM182.421 2.7195H184.184V22.1985H182.421V2.7195ZM193.992 11.0185H211.557V12.459H193.992V11.0185ZM196.12 14.2005H209.321V18.651H197.926V21.016H196.163V17.3395H207.558V15.5765H196.12V14.2005ZM196.163 20.586H209.902V21.962H196.163V20.586ZM201.753 4.074H203.323V4.6975C203.323 7.686 199.668 9.6425 195.518 10.0295L194.938 8.675C198.528 8.3525 201.753 6.783 201.753 4.6975V4.074ZM202.269 4.074H203.817V4.6975C203.817 6.783 207.042 8.3525 210.633 8.675L210.052 10.0295C205.924 9.6425 202.269 7.686 202.269 4.6975V4.074ZM195.604 3.472H209.988V4.891H195.604V3.472ZM227.939 2.741H229.723V22.177H227.939V2.741ZM222.241 4.8265H224.004C224.004 10.4595 221.467 15.383 214.974 18.565L214.028 17.1245C219.64 14.4155 222.241 10.2875 222.241 5.1275V4.8265ZM214.91 4.8265H223.015V6.2885H214.91V4.8265ZM235.935 8.5675H249.136V10.0295H235.935V8.5675ZM233.549 12.631H251.179V14.093H233.549V12.631ZM235.935 3.4505H237.698V9.2985H235.935V3.4505ZM235.806 20.242H249.244V21.704H235.806V20.242ZM235.806 16.028H237.569V20.629H235.806V16.028ZM261.631 3.7515H274.144V5.2135H261.631V3.7515ZM259.395 10.911H277.004V12.373H259.395V10.911ZM272.983 3.7515H274.725V5.192C274.725 6.8475 274.725 8.7395 274.08 11.427L272.338 11.341C272.983 8.675 272.983 6.8045 272.983 5.192V3.7515ZM261.545 15.0175H274.789V21.919H261.545V15.0175ZM273.048 16.4365H263.287V20.4785H273.048V16.4365ZM279.152 12.674H296.761V14.136H279.152V12.674ZM287.193 13.577H288.978V18.049H287.193V13.577ZM281.41 3.644H294.482V10.481H281.41V3.644ZM292.719 5.0845H283.151V9.0405H292.719V5.0845ZM281.388 20.285H294.804V21.747H281.388V20.285ZM281.388 16.1785H283.151V20.801H281.388V16.1785ZM300.758 4.676H313.271V6.1595H300.758V4.676ZM298.952 17.9845H316.517V19.468H298.952V17.9845ZM303.252 11.556H305.015V18.522H303.252V11.556ZM312.69 4.676H314.453V6.826C314.453 9.2985 314.453 11.8355 313.787 15.469L312.002 15.254C312.69 11.814 312.69 9.234 312.69 6.826V4.676ZM308.046 11.556H309.809V18.522H308.046V11.556Z" fill="white"/>
<path d="M115.138 100.256H116.416C119.422 100.256 121.492 100.184 123.94 99.752L124.102 100.976C121.582 101.408 119.458 101.498 116.416 101.498H115.138V100.256ZM115.138 90.608H122.716V91.85H116.632V100.688H115.138V90.608ZM116.254 95.162H122.356V96.368H116.254V95.162ZM125.452 89.132H126.964V105.404H125.452V89.132ZM126.604 95.666H129.628V96.926H126.604V95.666ZM131.931 90.716H139.419V101.318H131.931V90.716ZM137.961 91.922H133.389V100.112H137.961V91.922ZM142.821 89.114H144.315V105.422H142.821V89.114ZM154.088 90.248H155.384V91.49C155.384 95.036 152.09 97.79 148.832 98.528L148.166 97.286C151.028 96.746 154.088 94.262 154.088 91.49V90.248ZM154.358 90.248H155.654V91.49C155.654 94.28 158.732 96.746 161.576 97.286L160.91 98.528C157.67 97.79 154.358 95.054 154.358 91.49V90.248ZM147.572 101.984H162.314V103.208H147.572V101.984ZM164.13 102.164H178.872V103.406H164.13V102.164ZM170.718 98.672H172.212V102.686H170.718V98.672ZM165.912 90.338H177.054V95.27H167.442V98.528H165.966V94.064H175.578V91.544H165.912V90.338ZM165.966 97.898H177.432V99.122H165.966V97.898ZM197.631 89.132H199.125V101.246H197.631V89.132ZM186.219 90.446H194.787V91.67H186.219V90.446ZM185.949 98.798L185.787 97.52C188.451 97.52 192.249 97.484 195.291 97.124L195.381 98.24C192.249 98.744 188.595 98.798 185.949 98.798ZM187.839 91.49H189.279V97.736H187.839V91.49ZM191.727 91.49H193.167V97.736H191.727V91.49ZM194.931 92.21H198.423V93.434H194.931V92.21ZM194.931 95.324H198.423V96.548H194.931V95.324ZM188.721 103.82H199.557V105.044H188.721V103.82ZM188.721 100.256H190.215V104.594H188.721V100.256ZM214.154 89.114H215.648V105.422H214.154V89.114ZM203.246 100.256H204.596C207.314 100.256 209.744 100.148 212.624 99.68L212.786 100.904C209.834 101.39 207.386 101.498 204.596 101.498H203.246V100.256ZM203.21 90.644H210.734V96.458H204.74V100.724H203.246V95.234H209.222V91.868H203.21V90.644ZM229.993 89.15H231.487V101.354H229.993V89.15ZM231.019 94.478H233.899V95.738H231.019V94.478ZM218.905 91.112H228.517V92.318H218.905V91.112ZM223.711 93.218C226.015 93.218 227.599 94.424 227.599 96.26C227.599 98.078 226.015 99.284 223.711 99.284C221.389 99.284 219.805 98.078 219.805 96.26C219.805 94.424 221.389 93.218 223.711 93.218ZM223.711 94.388C222.235 94.388 221.227 95.126 221.227 96.26C221.227 97.376 222.235 98.114 223.711 98.114C225.169 98.114 226.177 97.376 226.177 96.26C226.177 95.126 225.169 94.388 223.711 94.388ZM222.955 89.132H224.449V91.742H222.955V89.132ZM221.353 103.82H232.225V105.044H221.353V103.82ZM221.353 100.382H222.847V104.342H221.353V100.382ZM247.816 92.75H252.73V93.992H247.816V92.75ZM247.816 97.898H252.73V99.14H247.816V97.898ZM244.828 90.374C247.186 90.374 248.878 92.588 248.878 96.044C248.878 99.518 247.186 101.732 244.828 101.732C242.452 101.732 240.778 99.518 240.778 96.044C240.778 92.588 242.452 90.374 244.828 90.374ZM244.828 91.724C243.262 91.724 242.182 93.416 242.182 96.044C242.182 98.69 243.262 100.418 244.828 100.418C246.394 100.418 247.474 98.69 247.474 96.044C247.474 93.416 246.394 91.724 244.828 91.724ZM252.406 89.114H253.882V105.422H252.406V89.114ZM269.324 89.132H270.746V99.428H269.324V89.132ZM266.678 93.542H269.756V94.784H266.678V93.542ZM265.85 89.456H267.254V98.852H265.85V89.456ZM256.958 91.076H265.202V92.264H256.958V91.076ZM261.098 93.092C263.132 93.092 264.554 94.208 264.554 95.882C264.554 97.574 263.132 98.672 261.098 98.672C259.046 98.672 257.624 97.574 257.624 95.882C257.624 94.208 259.046 93.092 261.098 93.092ZM261.098 94.208C259.82 94.208 258.956 94.874 258.956 95.882C258.956 96.908 259.82 97.556 261.098 97.556C262.358 97.556 263.222 96.908 263.222 95.882C263.222 94.874 262.358 94.208 261.098 94.208ZM260.36 89.258H261.818V91.742H260.36V89.258ZM265.418 99.716C268.802 99.716 270.836 100.724 270.836 102.542C270.836 104.342 268.802 105.368 265.418 105.368C261.998 105.368 259.982 104.342 259.982 102.542C259.982 100.724 261.998 99.716 265.418 99.716ZM265.418 100.868C262.916 100.868 261.458 101.462 261.458 102.542C261.458 103.622 262.916 104.234 265.418 104.234C267.884 104.234 269.36 103.622 269.36 102.542C269.36 101.462 267.884 100.868 265.418 100.868Z" fill="white"/>
<path d="M96.562 91.792H89V105.681H103.12V97.656" stroke="white" stroke-width="1.8"/>
<path d="M91.3154 95.8022L95.9443 101.202L105.744 89.3193" stroke="white" stroke-width="1.8"/>
</g>
</g>
<defs>
<clipPath id="clip0_12137_18877">
<rect width="800" height="109" fill="white"/>
</clipPath>
</defs>
</svg>
