<svg width="345" height="47" viewBox="0 0 345 47" fill="none" xmlns="http://www.w3.org/2000/svg">
<g clip-path="url(#clip0_12137_18890)">
<mask id="mask0_12137_18890" style="mask-type:luminance" maskUnits="userSpaceOnUse" x="0" y="0" width="345" height="47">
<path d="M345 0H0V47H345V0Z" fill="white"/>
</mask>
<g mask="url(#mask0_12137_18890)">
<path d="M86.952 18.782H88.426V29.001H86.952V18.782ZM88.096 22.555H89.9V23.754H88.096V22.555ZM80.836 25.338H81.694C83.41 25.338 84.763 25.283 86.259 25.019L86.402 26.229C84.862 26.504 83.465 26.548 81.694 26.548H80.836V25.338ZM80.836 19.728H85.588V20.905H82.288V25.921H80.836V19.728ZM98.1271 20.047H99.8871V21.235H98.1271V20.047ZM98.1271 22.258H99.8871V23.446H98.1271V22.258ZM93.3971 19.343C94.9701 19.343 96.1691 20.377 96.1691 21.818C96.1691 23.248 94.9701 24.282 93.3971 24.282C91.8241 24.282 90.6251 23.248 90.6251 21.818C90.6251 20.377 91.8241 19.343 93.3971 19.343ZM93.3971 20.564C92.6271 20.564 92.0551 21.037 92.0551 21.818C92.0551 22.61 92.6271 23.061 93.3971 23.061C94.1671 23.061 94.7391 22.61 94.7391 21.818C94.7391 21.037 94.1671 20.564 93.3971 20.564ZM97.1151 18.793H98.5781V24.733H97.1151V18.793ZM95.2561 24.953C97.3571 24.953 98.6991 25.712 98.6991 26.966C98.6991 28.231 97.3571 28.979 95.2561 28.979C93.1441 28.979 91.8021 28.231 91.8021 26.966C91.8021 25.712 93.1441 24.953 95.2561 24.953ZM95.2561 26.108C93.9581 26.108 93.2541 26.383 93.2541 26.966C93.2541 27.56 93.9581 27.835 95.2561 27.835C96.5541 27.835 97.2471 27.56 97.2471 26.966C97.2471 26.383 96.5541 26.108 95.2561 26.108ZM107.234 18.804H108.697V26.416H107.234V18.804ZM108.279 21.906H110.05V23.105H108.279V21.906ZM100.678 19.86H106.673V21.004H100.678V19.86ZM103.681 21.367C105.144 21.367 106.178 22.17 106.178 23.336C106.178 24.502 105.144 25.294 103.681 25.294C102.207 25.294 101.173 24.502 101.173 23.336C101.173 22.17 102.207 21.367 103.681 21.367ZM103.681 22.478C103.032 22.478 102.581 22.786 102.581 23.336C102.581 23.886 103.032 24.183 103.681 24.183C104.33 24.183 104.781 23.886 104.781 23.336C104.781 22.786 104.33 22.478 103.681 22.478ZM102.944 18.782H104.407V20.421H102.944V18.782ZM102.13 27.637H109.06V28.803H102.13V27.637ZM102.13 25.844H103.593V28.143H102.13V25.844ZM114.658 18.172H122.237V19.55H114.658V18.172ZM113.436 26.323H124.317V27.74H113.436V26.323ZM121.509 18.172H123.212V19.563C123.212 21.318 123.212 22.982 122.653 25.608L120.95 25.452C121.509 23.021 121.509 21.266 121.509 19.563V18.172ZM121.873 21.474V22.748L114.515 23.112L114.307 21.721L121.873 21.474ZM126.63 17.496H135.028V21.084H128.411V22.917H126.656V19.797H133.273V18.874H126.63V17.496ZM126.656 22.072H135.327V23.437H126.656V22.072ZM125.382 24.321H136.289V25.712H125.382V24.321ZM129.945 24.828H131.674V29.183H129.945V24.828ZM137.354 26.31H148.248V27.714H137.354V26.31ZM141.878 18.783H143.334V19.472C143.334 21.994 141.514 24.022 138.446 24.581L137.77 23.203C140.448 22.787 141.878 21.136 141.878 19.472V18.783ZM142.229 18.783H143.685V19.472C143.685 21.136 145.115 22.735 147.858 23.138L147.195 24.516C144.075 23.97 142.229 21.994 142.229 19.472V18.783ZM138.251 18.12H147.312V19.498H138.251V18.12ZM151.508 23.952H152.971V26.361H151.508V23.952ZM152.223 19.387C153.796 19.387 154.995 20.432 154.995 21.895C154.995 23.358 153.796 24.403 152.223 24.403C150.639 24.403 149.451 23.358 149.451 21.895C149.451 20.432 150.639 19.387 152.223 19.387ZM152.223 20.63C151.453 20.63 150.881 21.092 150.881 21.895C150.881 22.687 151.453 23.16 152.223 23.16C152.993 23.16 153.565 22.687 153.565 21.895C153.565 21.092 152.993 20.63 152.223 20.63ZM155.798 18.793H157.261V28.979H155.798V18.793ZM156.81 22.775H158.603V23.996H156.81V22.775ZM149.286 26.955L149.11 25.778C150.87 25.767 153.246 25.778 155.27 25.503L155.38 26.57C153.268 26.966 151.002 26.966 149.286 26.955ZM164.371 19.574H165.559V21.059C165.559 23.677 164.657 26.042 162.633 26.977L161.764 25.767C163.535 24.997 164.371 23.039 164.371 21.059V19.574ZM164.657 19.574H165.845V21.059C165.845 22.94 166.648 24.81 168.386 25.558L167.528 26.735C165.559 25.833 164.657 23.567 164.657 21.059V19.574ZM168.87 18.782H170.344V29.001H168.87V18.782ZM179.33 18.793H180.727V28.979H179.33V18.793ZM177.999 22.72H179.693V23.886H177.999V22.72ZM177.053 18.969H178.417V28.495H177.053V18.969ZM172.4 19.915H173.863V25.8H172.4V19.915ZM172.4 25.25H173.104C174.083 25.25 175.227 25.195 176.492 24.953L176.635 26.207C175.304 26.449 174.138 26.504 173.104 26.504H172.4V25.25ZM182.124 23.358H191.353V24.425H182.124V23.358ZM183.158 24.931H190.253V27.351H184.632V28.22H183.18V26.427H188.812V25.921H183.158V24.931ZM183.18 27.912H190.539V28.902H183.18V27.912ZM183.257 18.969H190.231V21.367H184.72V22.203H183.268V20.454H188.79V19.948H183.257V18.969ZM183.268 21.895H190.418V22.885H183.268V21.895ZM195.141 22.489H195.988C198.111 22.489 199.266 22.423 200.553 22.159L200.707 23.292C199.398 23.589 198.166 23.633 195.988 23.633H195.141V22.489ZM195.141 19.321H199.695V20.465H196.593V23.127H195.141V19.321ZM201.345 18.793H202.808V23.853H201.345V18.793ZM202.401 20.707H204.161V21.895H202.401V20.707ZM196.076 24.271H202.808V27.087H197.55V28.308H196.098V26.009H201.367V25.415H196.076V24.271ZM196.098 27.714H203.105V28.869H196.098V27.714ZM211.926 18.782H213.389V29.001H211.926V18.782ZM205.458 25.437H206.36C208.164 25.437 209.605 25.371 211.222 25.096L211.365 26.273C209.715 26.57 208.219 26.625 206.36 26.625H205.458V25.437ZM205.447 19.651H210.254V23.589H206.943V25.877H205.458V22.434H208.758V20.817H205.447V19.651ZM216.171 21.543H223.233V22.698H216.171V21.543ZM215.027 23.754H224.256V24.92H215.027V23.754ZM216.171 19.156H217.623V22.115H216.171V19.156ZM216.072 27.593H223.288V28.759H216.072V27.593ZM216.072 25.734H217.535V27.901H216.072V25.734ZM228.383 17.834H230.086V19.407H232.517V17.834H234.233V23.671H228.383V17.834ZM230.086 20.733V22.319H232.517V20.733H230.086ZM229.566 24.867H237.782V29.157H236.04V26.232H229.566V24.867ZM236.04 17.119H237.782V24.308H236.04V17.119ZM248.116 17.106H249.832V29.183H248.116V17.106ZM245.386 21.344H248.61V22.735H245.386V21.344ZM240.173 18.055H241.889V20.967H244.255V18.055H245.958V26.349H240.173V18.055ZM241.889 22.306V24.958H244.255V22.306H241.889ZM256.162 17.808H257.67V18.679C257.67 21.292 255.811 23.606 252.691 24.217L251.95 22.787C254.667 22.319 256.162 20.408 256.162 18.679V17.808ZM256.513 17.808H258.008V18.679C258.008 20.447 259.49 22.319 262.22 22.787L261.479 24.217C258.359 23.606 256.513 21.331 256.513 18.679V17.808ZM251.703 26.284H262.597V27.688H251.703V26.284Z" fill="white"/>
<path d="M81.595 7.495H82.008C83.009 7.495 83.604 7.474 84.311 7.334L84.374 7.817C83.639 7.964 83.023 7.985 82.008 7.985H81.595V7.495ZM81.595 3.939H84.087V4.415H82.148V7.677H81.595V3.939ZM81.98 5.612H83.989V6.081H81.98V5.612ZM86.166 3.218H86.726V9.546H86.166V3.218ZM85.165 5.752H86.376V6.235H85.165V5.752ZM84.773 3.351H85.326V9.231H84.773V3.351ZM91.3735 4.345H92.7315V4.821H91.3735V4.345ZM91.3735 5.479H92.7315V5.955H91.3735V5.479ZM87.9715 3.694H91.3035V4.17H87.9715V3.694ZM87.8665 6.746L87.8035 6.256C88.8395 6.256 90.3165 6.242 91.4995 6.102L91.5345 6.536C90.3165 6.732 88.8955 6.746 87.8665 6.746ZM88.6015 4.065H89.1615V6.417H88.6015V4.065ZM90.1135 4.065H90.6735V6.417H90.1135V4.065ZM92.4095 3.218H92.9905V7.124H92.4095V3.218ZM90.9115 7.25C92.2205 7.25 93.0185 7.663 93.0185 8.391C93.0185 9.119 92.2205 9.532 90.9115 9.532C89.5955 9.532 88.7975 9.119 88.7975 8.391C88.7975 7.663 89.5955 7.25 90.9115 7.25ZM90.9115 7.705C89.9525 7.705 89.3785 7.957 89.3785 8.391C89.3785 8.825 89.9525 9.084 90.9115 9.084C91.8705 9.084 92.4445 8.825 92.4445 8.391C92.4445 7.957 91.8705 7.705 90.9115 7.705ZM98.9609 4.163H100.06V4.646H98.9609V4.163ZM98.9609 5.507H100.06V5.99H98.9609V5.507ZM95.9929 3.589C96.9449 3.589 97.6449 4.205 97.6449 5.087C97.6449 5.962 96.9449 6.571 95.9929 6.571C95.0409 6.571 94.3409 5.962 94.3409 5.087C94.3409 4.205 95.0409 3.589 95.9929 3.589ZM95.9929 4.079C95.3629 4.079 94.9079 4.492 94.9079 5.087C94.9079 5.682 95.3629 6.088 95.9929 6.088C96.6229 6.088 97.0779 5.682 97.0779 5.087C97.0779 4.492 96.6229 4.079 95.9929 4.079ZM98.5549 3.218H99.1359V6.963H98.5549V3.218ZM97.1199 7.166C98.4079 7.166 99.1989 7.607 99.1989 8.349C99.1989 9.098 98.4079 9.532 97.1199 9.532C95.8319 9.532 95.0409 9.098 95.0409 8.349C95.0409 7.607 95.8319 7.166 97.1199 7.166ZM97.1199 7.635C96.1819 7.635 95.6079 7.894 95.6079 8.349C95.6079 8.804 96.1819 9.07 97.1199 9.07C98.0579 9.07 98.6319 8.804 98.6319 8.349C98.6319 7.894 98.0579 7.635 97.1199 7.635ZM103.23 5.675H104.427V6.158H103.23V5.675ZM105.484 3.218H106.044V9.546H105.484V3.218ZM104.231 3.351H104.784V9.231H104.231V3.351ZM102.089 3.743C102.908 3.743 103.44 4.59 103.44 5.948C103.44 7.306 102.908 8.153 102.089 8.153C101.27 8.153 100.745 7.306 100.745 5.948C100.745 4.59 101.27 3.743 102.089 3.743ZM102.089 4.282C101.592 4.282 101.277 4.926 101.277 5.948C101.277 6.97 101.592 7.614 102.089 7.614C102.593 7.614 102.908 6.97 102.908 5.948C102.908 4.926 102.593 4.282 102.089 4.282ZM110.265 5.36H112.029V5.836H110.265V5.36ZM108.739 3.764H109.215V4.891C109.215 6.312 108.466 7.67 107.465 8.209L107.094 7.747C108.025 7.285 108.739 6.067 108.739 4.891V3.764ZM108.851 3.764H109.32V4.891C109.32 6.046 110.034 7.194 110.951 7.628L110.608 8.097C109.586 7.579 108.851 6.277 108.851 4.891V3.764ZM111.742 3.211H112.316V9.553H111.742V3.211ZM115.509 5.913H121.228V6.382H115.509V5.913ZM116.202 6.949H120.5V8.398H116.79V9.168H116.216V7.971H119.926V7.397H116.202V6.949ZM116.216 9.028H120.689V9.476H116.216V9.028ZM118.036 3.652H118.547V3.855C118.547 4.828 117.357 5.465 116.006 5.591L115.817 5.15C116.986 5.045 118.036 4.534 118.036 3.855V3.652ZM118.204 3.652H118.708V3.855C118.708 4.534 119.758 5.045 120.927 5.15L120.738 5.591C119.394 5.465 118.204 4.828 118.204 3.855V3.652ZM116.034 3.456H120.717V3.918H116.034V3.456ZM126.561 3.218H127.142V9.546H126.561V3.218ZM124.706 3.897H125.28C125.28 5.731 124.454 7.334 122.34 8.37L122.032 7.901C123.859 7.019 124.706 5.675 124.706 3.995V3.897ZM122.319 3.897H124.958V4.373H122.319V3.897ZM129.165 5.115H133.463V5.591H129.165V5.115ZM128.388 6.438H134.128V6.914H128.388V6.438ZM129.165 3.449H129.739V5.353H129.165V3.449ZM129.123 8.916H133.498V9.392H129.123V8.916ZM129.123 7.544H129.697V9.042H129.123V7.544ZM137.531 3.547H141.605V4.023H137.531V3.547ZM136.803 5.878H142.536V6.354H136.803V5.878ZM141.227 3.547H141.794V4.016C141.794 4.555 141.794 5.171 141.584 6.046L141.017 6.018C141.227 5.15 141.227 4.541 141.227 4.016V3.547ZM137.503 7.215H141.815V9.462H137.503V7.215ZM141.248 7.677H138.07V8.993H141.248V7.677ZM143.236 6.452H148.969V6.928H143.236V6.452ZM145.854 6.746H146.435V8.202H145.854V6.746ZM143.971 3.512H148.227V5.738H143.971V3.512ZM147.653 3.981H144.538V5.269H147.653V3.981ZM143.964 8.93H148.332V9.406H143.964V8.93ZM143.964 7.593H144.538V9.098H143.964V7.593ZM150.27 3.848H154.344V4.331H150.27V3.848ZM149.682 8.181H155.401V8.664H149.682V8.181ZM151.082 6.088H151.656V8.356H151.082V6.088ZM154.155 3.848H154.729V4.548C154.729 5.353 154.729 6.179 154.512 7.362L153.931 7.292C154.155 6.172 154.155 5.332 154.155 4.548V3.848ZM152.643 6.088H153.217V8.356H152.643V6.088Z" fill="white"/>
<path d="M89.889 41.5738H90.3505C91.436 41.5738 92.1835 41.5478 93.0675 41.3918L93.126 41.8338C92.216 41.9898 91.449 42.0223 90.3505 42.0223H89.889V41.5738ZM89.889 38.0898H92.6255V38.5383H90.4285V41.7298H89.889V38.0898ZM90.292 39.7343H92.4955V40.1698H90.292V39.7343ZM93.6135 37.5568H94.1595V43.4328H93.6135V37.5568ZM94.0295 39.9163H95.1215V40.3713H94.0295V39.9163ZM95.953 38.1288H98.657V41.9573H95.953V38.1288ZM98.1305 38.5643H96.4795V41.5218H98.1305V38.5643ZM99.8855 37.5503H100.425V43.4393H99.8855V37.5503ZM103.954 37.9598H104.422V38.4083C104.422 39.6888 103.233 40.6833 102.056 40.9498L101.816 40.5013C102.849 40.3063 103.954 39.4093 103.954 38.4083V37.9598ZM104.052 37.9598H104.52V38.4083C104.52 39.4158 105.631 40.3063 106.658 40.5013L106.418 40.9498C105.248 40.6833 104.052 39.6953 104.052 38.4083V37.9598ZM101.601 42.1978H106.925V42.6398H101.601V42.1978ZM107.58 42.2628H112.904V42.7113H107.58V42.2628ZM109.959 41.0018H110.499V42.4513H109.959V41.0018ZM108.224 37.9923H112.247V39.7733H108.776V40.9498H108.243V39.3378H111.714V38.4278H108.224V37.9923ZM108.243 40.7223H112.384V41.1643H108.243V40.7223ZM119.678 37.5568H120.218V41.9313H119.678V37.5568ZM115.557 38.0313H118.651V38.4733H115.557V38.0313ZM115.46 41.0473L115.401 40.5858C116.363 40.5858 117.735 40.5728 118.833 40.4428L118.866 40.8458C117.735 41.0278 116.415 41.0473 115.46 41.0473ZM116.142 38.4083H116.662V40.6638H116.142V38.4083ZM117.546 38.4083H118.066V40.6638H117.546V38.4083ZM118.703 38.6683H119.964V39.1103H118.703V38.6683ZM118.703 39.7928H119.964V40.2348H118.703V39.7928ZM116.461 42.8608H120.374V43.3028H116.461V42.8608ZM116.461 41.5738H117V43.1403H116.461V41.5738ZM125.645 37.5503H126.184V43.4393H125.645V37.5503ZM121.706 41.5738H122.193C123.175 41.5738 124.052 41.5348 125.092 41.3658L125.151 41.8078C124.085 41.9833 123.201 42.0223 122.193 42.0223H121.706V41.5738ZM121.693 38.1028H124.41V40.2023H122.245V41.7428H121.706V39.7603H123.864V38.5448H121.693V38.1028ZM131.364 37.5633H131.904V41.9703H131.364V37.5633ZM131.735 39.4873H132.775V39.9423H131.735V39.4873ZM127.36 38.2718H130.831V38.7073H127.36V38.2718ZM129.096 39.0323C129.928 39.0323 130.5 39.4678 130.5 40.1308C130.5 40.7873 129.928 41.2228 129.096 41.2228C128.257 41.2228 127.685 40.7873 127.685 40.1308C127.685 39.4678 128.257 39.0323 129.096 39.0323ZM129.096 39.4548C128.563 39.4548 128.199 39.7213 128.199 40.1308C128.199 40.5338 128.563 40.8003 129.096 40.8003C129.622 40.8003 129.986 40.5338 129.986 40.1308C129.986 39.7213 129.622 39.4548 129.096 39.4548ZM128.823 37.5568H129.362V38.4993H128.823V37.5568ZM128.244 42.8608H132.17V43.3028H128.244V42.8608ZM128.244 41.6193H128.784V43.0493H128.244V41.6193ZM137.8 38.8633H139.575V39.3118H137.8V38.8633ZM137.8 40.7223H139.575V41.1708H137.8V40.7223ZM136.721 38.0053C137.573 38.0053 138.184 38.8048 138.184 40.0528C138.184 41.3073 137.573 42.1068 136.721 42.1068C135.863 42.1068 135.259 41.3073 135.259 40.0528C135.259 38.8048 135.863 38.0053 136.721 38.0053ZM136.721 38.4928C136.156 38.4928 135.766 39.1038 135.766 40.0528C135.766 41.0083 136.156 41.6323 136.721 41.6323C137.287 41.6323 137.677 41.0083 137.677 40.0528C137.677 39.1038 137.287 38.4928 136.721 38.4928ZM139.458 37.5503H139.991V43.4393H139.458V37.5503ZM145.567 37.5568H146.081V41.2748H145.567V37.5568ZM144.612 39.1493H145.723V39.5978H144.612V39.1493ZM144.313 37.6738H144.82V41.0668H144.313V37.6738ZM141.102 38.2588H144.079V38.6878H141.102V38.2588ZM142.597 38.9868C143.331 38.9868 143.845 39.3898 143.845 39.9943C143.845 40.6053 143.331 41.0018 142.597 41.0018C141.856 41.0018 141.342 40.6053 141.342 39.9943C141.342 39.3898 141.856 38.9868 142.597 38.9868ZM142.597 39.3898C142.135 39.3898 141.823 39.6303 141.823 39.9943C141.823 40.3648 142.135 40.5988 142.597 40.5988C143.052 40.5988 143.364 40.3648 143.364 39.9943C143.364 39.6303 143.052 39.3898 142.597 39.3898ZM142.33 37.6023H142.857V38.4993H142.33V37.6023ZM144.157 41.3788C145.379 41.3788 146.113 41.7428 146.113 42.3993C146.113 43.0493 145.379 43.4198 144.157 43.4198C142.922 43.4198 142.194 43.0493 142.194 42.3993C142.194 41.7428 142.922 41.3788 144.157 41.3788ZM144.157 41.7948C143.253 41.7948 142.727 42.0093 142.727 42.3993C142.727 42.7893 143.253 43.0103 144.157 43.0103C145.047 43.0103 145.58 42.7893 145.58 42.3993C145.58 42.0093 145.047 41.7948 144.157 41.7948Z" fill="white"/>
<path d="M84.5848 38.4043H81.5848V43.9143H87.1849V40.7312" stroke="white"/>
<path d="M82.5043 39.9946L84.3412 42.1367L88.2279 37.4238" stroke="white"/>
</g>
</g>
<defs>
<clipPath id="clip0_12137_18890">
<rect width="345" height="47" fill="white"/>
</clipPath>
</defs>
</svg>
