<svg width="347" height="48" viewBox="0 0 347 48" fill="none" xmlns="http://www.w3.org/2000/svg">
<mask id="mask0_46_50" style="mask-type:luminance" maskUnits="userSpaceOnUse" x="1" y="0" width="345" height="48">
<path d="M346 0.5H1V47.5H346V0.5Z" fill="white"/>
</mask>
<g mask="url(#mask0_46_50)">
<mask id="mask1_46_50" style="mask-type:luminance" maskUnits="userSpaceOnUse" x="1" y="0" width="345" height="48">
<path d="M346 0.5H1V47.5H346V0.5Z" fill="white"/>
</mask>
<g mask="url(#mask1_46_50)">
<path d="M97.033 27.243H107.927V28.647H97.033V27.243ZM101.596 24.669H103.325V27.581H101.596V24.669ZM98.177 18.767H99.893V20.613H105.028V18.767H106.744V25.033H98.177V18.767ZM99.893 21.965V23.655H105.028V21.965H99.893ZM113.451 18.689H114.959V19.56C114.959 22.173 113.1 24.487 109.98 25.098L109.239 23.668C111.956 23.2 113.451 21.289 113.451 19.56V18.689ZM113.802 18.689H115.297V19.56C115.297 21.328 116.779 23.2 119.509 23.668L118.768 25.098C115.648 24.487 113.802 22.212 113.802 19.56V18.689ZM108.992 27.165H119.886V28.569H108.992V27.165ZM127.282 21.263H129.505V22.628H127.282V21.263ZM129.284 18H131.013V26.892H129.284V18ZM123.057 28.452H131.286V29.83H123.057V28.452ZM123.057 26.138H124.799V29.414H123.057V26.138ZM121.497 23.902H122.433C124.604 23.902 125.878 23.863 127.373 23.616L127.516 24.968C126.008 25.254 124.656 25.293 122.433 25.293H121.497V23.902ZM121.497 18.91H126.97V20.288H123.213V24.045H121.497V18.91ZM122.693 21.393H126.593V22.732H122.693V21.393ZM139.917 21.753H142.689V22.93H139.917V21.753ZM139.917 24.91H142.689V26.087H139.917V24.91ZM138.157 20.378C139.675 20.378 140.786 21.786 140.786 24.008C140.786 26.252 139.675 27.66 138.157 27.66C136.628 27.66 135.528 26.252 135.528 24.008C135.528 21.786 136.628 20.378 138.157 20.378ZM138.157 21.709C137.42 21.709 136.914 22.512 136.914 24.008C136.914 25.526 137.42 26.34 138.157 26.34C138.905 26.34 139.4 25.526 139.4 24.008C139.4 22.512 138.905 21.709 138.157 21.709ZM142.458 19.663H143.91V29.882H142.458V19.663ZM152.775 19.674H154.161V26.054H152.775V19.674ZM151.532 22.182H153.16V23.37H151.532V22.182ZM150.663 19.872H152.027V25.724H150.663V19.872ZM145.438 20.719H150.377V21.841H145.438V20.719ZM147.924 22.171C149.2 22.171 150.124 22.897 150.124 23.953C150.124 25.009 149.2 25.724 147.924 25.724C146.648 25.724 145.724 25.009 145.724 23.953C145.724 22.897 146.648 22.171 147.924 22.171ZM147.924 23.216C147.385 23.216 147.022 23.48 147.022 23.953C147.022 24.426 147.385 24.69 147.924 24.69C148.452 24.69 148.815 24.426 148.815 23.953C148.815 23.48 148.452 23.216 147.924 23.216ZM147.187 19.773H148.628V21.489H147.187V19.773ZM150.718 26.164C152.896 26.164 154.216 26.824 154.216 28.012C154.216 29.189 152.896 29.86 150.718 29.86C148.529 29.86 147.209 29.189 147.209 28.012C147.209 26.824 148.529 26.164 150.718 26.164ZM150.718 27.253C149.354 27.253 148.672 27.484 148.672 28.012C148.672 28.529 149.354 28.771 150.718 28.771C152.071 28.771 152.753 28.529 152.753 28.012C152.753 27.484 152.071 27.253 150.718 27.253ZM158.879 20.345C160.485 20.345 161.684 21.39 161.684 22.853C161.684 24.327 160.485 25.372 158.879 25.372C157.284 25.372 156.063 24.327 156.063 22.853C156.063 21.39 157.284 20.345 158.879 20.345ZM158.879 21.599C158.098 21.599 157.504 22.061 157.504 22.853C157.504 23.656 158.098 24.118 158.879 24.118C159.66 24.118 160.254 23.656 160.254 22.853C160.254 22.061 159.66 21.599 158.879 21.599ZM162.641 19.663H164.104V29.882H162.641V19.663ZM155.821 27.814L155.645 26.637C157.438 26.637 159.935 26.615 162.08 26.296L162.19 27.352C159.979 27.792 157.581 27.814 155.821 27.814ZM170.752 20.455H171.94V21.94C171.94 24.558 171.038 26.923 169.014 27.858L168.145 26.648C169.916 25.878 170.752 23.92 170.752 21.94V20.455ZM171.038 20.455H172.226V21.94C172.226 23.821 173.029 25.691 174.767 26.439L173.909 27.616C171.94 26.714 171.038 24.448 171.038 21.94V20.455ZM175.251 19.663H176.725V29.882H175.251V19.663ZM180.651 20.719H181.85V21.357C181.85 23.282 180.937 25.009 178.99 25.636L178.231 24.503C179.936 23.953 180.651 22.633 180.651 21.357V20.719ZM180.948 20.719H182.136V21.357C182.136 22.556 182.829 23.799 184.479 24.327L183.731 25.46C181.828 24.844 180.948 23.183 180.948 21.357V20.719ZM178.627 20.268H184.127V21.434H178.627V20.268ZM184.941 19.674H186.404V25.812H184.941V19.674ZM185.997 22.138H187.757V23.337H185.997V22.138ZM179.606 26.252H186.404V29.86H184.941V27.429H179.606V26.252ZM192.458 28.881L190.825 22.881H192.509L193.438 26.9122H193.493L194.462 22.881H196.114L197.099 26.8888H197.149L198.063 22.881H199.743L198.114 28.881H196.353L195.321 25.1076H195.247L194.216 28.881H192.458ZM200.631 28.881V22.881H202.295V28.881H200.631ZM201.467 22.1076C201.219 22.1076 201.007 22.0255 200.83 21.8615C200.656 21.6948 200.568 21.4956 200.568 21.2638C200.568 21.0347 200.656 20.838 200.83 20.674C201.007 20.5073 201.219 20.424 201.467 20.424C201.714 20.424 201.925 20.5073 202.1 20.674C202.277 20.838 202.365 21.0347 202.365 21.2638C202.365 21.4956 202.277 21.6948 202.1 21.8615C201.925 22.0255 201.714 22.1076 201.467 22.1076ZM206.819 22.881V24.131H203.206V22.881H206.819ZM204.026 21.4435H205.69V27.0372C205.69 27.1909 205.714 27.3107 205.761 27.3966C205.808 27.48 205.873 27.5386 205.956 27.5724C206.042 27.6063 206.141 27.6232 206.253 27.6232C206.331 27.6232 206.409 27.6167 206.487 27.6037C206.565 27.588 206.625 27.5763 206.667 27.5685L206.929 28.8068C206.845 28.8328 206.728 28.8628 206.577 28.8966C206.426 28.9331 206.243 28.9552 206.026 28.963C205.625 28.9787 205.274 28.9253 204.972 28.8029C204.672 28.6805 204.439 28.4904 204.272 28.2326C204.106 27.9747 204.024 27.6492 204.026 27.256V21.4435ZM209.696 25.4123V28.881H208.032V20.881H209.649V23.9396H209.72C209.855 23.5854 210.074 23.3081 210.376 23.1076C210.678 22.9044 211.057 22.8029 211.513 22.8029C211.929 22.8029 212.293 22.894 212.603 23.0763C212.915 23.256 213.157 23.5151 213.329 23.8537C213.504 24.1896 213.59 24.5919 213.587 25.0607V28.881H211.923V25.3576C211.925 24.9878 211.832 24.7 211.642 24.4943C211.454 24.2886 211.191 24.1857 210.853 24.1857C210.626 24.1857 210.425 24.2339 210.251 24.3302C210.079 24.4266 209.944 24.5672 209.845 24.7521C209.748 24.9344 209.699 25.1544 209.696 25.4123ZM215.869 28.9826C215.611 28.9826 215.39 28.8914 215.205 28.7091C215.023 28.5242 214.932 28.3029 214.932 28.0451C214.932 27.7899 215.023 27.5711 215.205 27.3888C215.39 27.2065 215.611 27.1154 215.869 27.1154C216.119 27.1154 216.338 27.2065 216.525 27.3888C216.713 27.5711 216.807 27.7899 216.807 28.0451C216.807 28.2169 216.762 28.3745 216.674 28.5177C216.588 28.6583 216.475 28.7716 216.334 28.8576C216.193 28.9409 216.038 28.9826 215.869 28.9826ZM218.345 26.373H219.203C220.919 26.373 222.228 26.351 223.746 26.109L223.878 27.275C222.338 27.517 220.952 27.561 219.203 27.561H218.345V26.373ZM218.345 20.521H223.13V21.709H219.819V26.758H218.345V20.521ZM219.467 23.348H222.987V24.492H219.467V23.348ZM224.461 19.674H225.935V29.86H224.461V19.674ZM225.605 23.535H227.409V24.745H225.605V23.535ZM228.574 20.587H233.469V27.44H228.574V20.587ZM232.039 21.731H230.015V26.285H232.039V21.731ZM235.053 19.663H236.527V29.882H235.053V19.663ZM241.971 20.257H243.247V20.994C243.247 23.205 241.674 25.163 239.034 25.68L238.407 24.47C240.706 24.074 241.971 22.457 241.971 20.994V20.257ZM242.268 20.257H243.533V20.994C243.533 22.49 244.787 24.074 247.097 24.47L246.47 25.68C243.83 25.163 242.268 23.238 242.268 20.994V20.257ZM238.198 27.429H247.416V28.617H238.198V27.429Z" fill="white"/>
</g>
</g>
</svg>
