<svg width="345" height="47" viewBox="0 0 345 47" fill="none" xmlns="http://www.w3.org/2000/svg">
<g clip-path="url(#clip0_5_3)">
<mask id="mask0_5_3" style="mask-type:luminance" maskUnits="userSpaceOnUse" x="0" y="0" width="345" height="47">
<path d="M345 0H0V47H345V0Z" fill="white"/>
</mask>
<g mask="url(#mask0_5_3)">
<path d="M92.938 3.848H97.012V4.331H92.938V3.848ZM92.35 8.181H98.069V8.664H92.35V8.181ZM93.75 6.088H94.324V8.356H93.75V6.088ZM96.823 3.848H97.397V4.548C97.397 5.353 97.397 6.179 97.18 7.362L96.599 7.292C96.823 6.172 96.823 5.332 96.823 4.548V3.848ZM95.311 6.088H95.885V8.356H95.311V6.088ZM100.294 6.494H100.875V7.74H100.294V6.494ZM102.422 6.487H102.996V7.74H102.422V6.487ZM98.7825 6.263H104.501V6.739H98.7825V6.263ZM99.4195 7.53H103.794V9.546H103.213V7.999H99.4195V7.53ZM101.645 3.365C103.01 3.365 103.871 3.82 103.871 4.576C103.871 5.332 103.01 5.787 101.645 5.787C100.273 5.787 99.4195 5.332 99.4195 4.576C99.4195 3.82 100.273 3.365 101.645 3.365ZM101.645 3.827C100.637 3.827 100.014 4.1 100.014 4.576C100.014 5.045 100.637 5.325 101.645 5.325C102.646 5.325 103.276 5.045 103.276 4.576C103.276 4.1 102.646 3.827 101.645 3.827ZM107.28 3.673C108.267 3.673 108.974 4.282 108.974 5.164C108.974 6.053 108.267 6.662 107.28 6.662C106.293 6.662 105.579 6.053 105.579 5.164C105.579 4.282 106.293 3.673 107.28 3.673ZM107.28 4.177C106.622 4.177 106.146 4.576 106.146 5.164C106.146 5.752 106.622 6.158 107.28 6.158C107.931 6.158 108.407 5.752 108.407 5.164C108.407 4.576 107.931 4.177 107.28 4.177ZM109.8 3.211H110.381V9.553H109.8V3.211ZM105.341 8.167L105.257 7.684C106.412 7.684 108.008 7.677 109.387 7.46L109.436 7.887C108.015 8.16 106.468 8.167 105.341 8.167ZM114.358 6.172H118.705V6.648H114.358V6.172ZM113.637 8.265H119.37V8.755H113.637V8.265ZM116.199 6.375H116.78V8.461H116.199V6.375ZM114.358 3.722H118.642V4.198H114.939V6.382H114.358V3.722ZM121.743 3.764H122.219V4.898C122.219 6.354 121.435 7.705 120.399 8.23L120.042 7.754C120.98 7.306 121.743 6.095 121.743 4.898V3.764ZM121.841 3.764H122.317V4.898C122.317 6.053 123.073 7.215 124.011 7.649L123.661 8.111C122.632 7.607 121.841 6.305 121.841 4.898V3.764ZM124.669 3.211H125.25V9.553H124.669V3.211ZM129.078 5.675H130.275V6.158H129.078V5.675ZM131.332 3.218H131.892V9.546H131.332V3.218ZM130.079 3.351H130.632V9.231H130.079V3.351ZM127.937 3.743C128.756 3.743 129.288 4.59 129.288 5.948C129.288 7.306 128.756 8.153 127.937 8.153C127.118 8.153 126.593 7.306 126.593 5.948C126.593 4.59 127.118 3.743 127.937 3.743ZM127.937 4.282C127.44 4.282 127.125 4.926 127.125 5.948C127.125 6.97 127.44 7.614 127.937 7.614C128.441 7.614 128.756 6.97 128.756 5.948C128.756 4.926 128.441 4.282 127.937 4.282ZM136.112 5.36H137.876V5.836H136.112V5.36ZM134.586 3.764H135.062V4.891C135.062 6.312 134.313 7.67 133.312 8.209L132.941 7.747C133.872 7.285 134.586 6.067 134.586 4.891V3.764ZM134.698 3.764H135.167V4.891C135.167 6.046 135.881 7.194 136.798 7.628L136.455 8.097C135.433 7.579 134.698 6.277 134.698 4.891V3.764ZM137.589 3.211H138.163V9.553H137.589V3.211ZM141.623 3.785H144.528V6.718H141.623V3.785ZM143.961 4.254H142.19V6.249H143.961V4.254ZM145.69 3.211H146.271V7.852H145.69V3.211ZM146.089 5.143H147.209V5.626H146.089V5.143ZM142.33 8.93H146.558V9.406H142.33V8.93ZM142.33 7.411H142.911V9.133H142.33V7.411ZM152.507 5.738H153.676V6.228H152.507V5.738ZM152.08 3.211H152.668V9.546H152.08V3.211ZM148.048 3.834H148.629V7.754H148.048V3.834ZM148.048 7.453H148.552C149.49 7.453 150.449 7.39 151.492 7.173L151.562 7.656C150.484 7.88 149.511 7.943 148.552 7.943H148.048V7.453ZM154.243 8.258H159.976V8.741H154.243V8.258ZM156.805 6.746H157.386V8.398H156.805V6.746ZM154.915 3.666H155.489V4.793H158.716V3.666H159.29V6.9H154.915V3.666ZM155.489 5.262V6.424H158.716V5.262H155.489ZM161.452 5.115H165.75V5.591H161.452V5.115ZM160.675 6.438H166.415V6.914H160.675V6.438ZM161.452 3.449H162.026V5.353H161.452V3.449ZM161.41 8.916H165.785V9.392H161.41V8.916ZM161.41 7.544H161.984V9.042H161.41V7.544ZM173.416 3.218H173.997V7.033H173.416V3.218ZM173.836 4.856H174.935V5.346H173.836V4.856ZM169.888 7.369H173.997V9.546H173.416V7.845H169.888V7.369ZM169.349 3.61H169.923V4.597H171.708V3.61H172.275V6.606H169.349V3.61ZM169.923 5.059V6.144H171.708V5.059H169.923ZM178.092 6.207H178.666V7.18H178.092V6.207ZM175.523 5.885H181.242V6.354H175.523V5.885ZM176.265 3.428H180.5V5.353H176.265V3.428ZM179.933 3.89H176.839V4.891H179.933V3.89ZM176.216 6.97H180.514V8.391H176.804V9.161H176.23V7.971H179.94V7.418H176.216V6.97ZM176.23 9.021H180.703V9.476H176.23V9.021ZM182.305 3.708H185.105V4.184H182.305V3.708ZM183.257 5.122H183.831V6.704H183.257V5.122ZM184.874 3.708H185.448V4.044C185.448 4.457 185.448 5.087 185.28 5.92L184.713 5.857C184.874 5.024 184.874 4.45 184.874 4.044V3.708ZM186.309 3.218H186.89V7.985H186.309V3.218ZM186.624 5.276H187.793V5.759H186.624V5.276ZM182.893 8.93H187.093V9.406H182.893V8.93ZM182.893 7.544H183.467V9.077H182.893V7.544ZM181.983 6.977L181.92 6.501C183.047 6.501 184.601 6.473 185.882 6.298L185.924 6.718C184.608 6.949 183.096 6.977 181.983 6.977Z" fill="white"/>
<path d="M102.202 38.0055C103.067 38.0055 103.678 38.805 103.678 40.053C103.678 41.3075 103.067 42.107 102.202 42.107C101.338 42.107 100.727 41.3075 100.727 40.053C100.727 38.805 101.338 38.0055 102.202 38.0055ZM102.202 38.493C101.63 38.493 101.24 39.104 101.24 40.053C101.24 41.0085 101.63 41.6325 102.202 41.6325C102.768 41.6325 103.164 41.0085 103.164 40.053C103.164 39.104 102.768 38.493 102.202 38.493ZM104.614 37.557H105.16V43.433H104.614V37.557ZM105.03 39.9035H106.122V40.3585H105.03V39.9035ZM110.885 37.5505H111.425V43.4395H110.885V37.5505ZM108.324 38.0055C109.195 38.0055 109.819 38.805 109.819 40.053C109.819 41.3075 109.195 42.107 108.324 42.107C107.46 42.107 106.836 41.3075 106.836 40.053C106.836 38.805 107.46 38.0055 108.324 38.0055ZM108.324 38.493C107.752 38.493 107.349 39.104 107.349 40.053C107.349 41.0085 107.752 41.6325 108.324 41.6325C108.903 41.6325 109.299 41.0085 109.299 40.053C109.299 39.104 108.903 38.493 108.324 38.493ZM114.083 40.521H114.622V41.925H114.083V40.521ZM114.349 37.934C115.253 37.934 115.903 38.4995 115.903 39.3185C115.903 40.1375 115.253 40.703 114.349 40.703C113.446 40.703 112.796 40.1375 112.796 39.3185C112.796 38.4995 113.446 37.934 114.349 37.934ZM114.349 38.3955C113.751 38.3955 113.322 38.7725 113.322 39.3185C113.322 39.8645 113.751 40.2415 114.349 40.2415C114.947 40.2415 115.376 39.8645 115.376 39.3185C115.376 38.7725 114.947 38.3955 114.349 38.3955ZM116.572 37.557H117.112V43.433H116.572V37.557ZM116.956 39.975H118.041V40.43H116.956V39.975ZM112.607 42.1655L112.529 41.717C113.589 41.7105 115.006 41.704 116.202 41.5415L116.247 41.9445C115.006 42.1525 113.634 42.1655 112.607 42.1655ZM124.426 37.557H124.965V41.093H124.426V37.557ZM124.816 39.117H125.836V39.5655H124.816V39.117ZM121.273 41.4245H124.965V43.355H121.273V41.4245ZM124.439 41.86H121.8V42.9195H124.439V41.86ZM120.422 38.1745H123.893V38.6165H120.422V38.1745ZM122.157 38.9025C122.996 38.9025 123.561 39.3185 123.561 39.9555C123.561 40.5925 122.996 40.9955 122.157 40.9955C121.312 40.9955 120.747 40.5925 120.747 39.9555C120.747 39.3185 121.312 38.9025 122.157 38.9025ZM122.157 39.3185C121.618 39.3185 121.26 39.5655 121.26 39.9555C121.26 40.339 121.618 40.586 122.157 40.586C122.684 40.586 123.048 40.339 123.048 39.9555C123.048 39.5655 122.684 39.3185 122.157 39.3185ZM121.884 37.505H122.424V38.402H121.884V37.505ZM127.37 38.259H127.825C127.825 39.52 127.656 40.9045 126.817 42.0485L126.395 41.8015C127.201 40.755 127.37 39.5265 127.37 38.298V38.259ZM126.518 38.259H127.636V38.7075H126.518V38.259ZM128.663 38.259H129.125C129.125 39.5005 129.047 41.1515 128.124 42.4255L127.695 42.1785C128.592 41.0085 128.663 39.481 128.663 38.3045V38.259ZM128.02 38.259H128.949V38.7075H128.02V38.259ZM130.88 37.557H131.4V43.433H130.88V37.557ZM128.852 39.8645H129.905V40.3065H128.852V39.8645ZM129.794 37.7065H130.301V43.134H129.794V37.7065ZM136.346 37.5505H136.885V43.4395H136.346V37.5505ZM136.755 39.8905H137.847V40.3455H136.755V39.8905ZM132.602 41.574H133.07C134.175 41.574 134.942 41.535 135.832 41.366L135.891 41.8145C134.974 41.977 134.194 42.0225 133.07 42.0225H132.602V41.574ZM132.589 38.103H135.247V40.209H133.135V41.756H132.602V39.767H134.714V38.545H132.589V38.103ZM141.162 38.5905H142.806V39.0325H141.162V38.5905ZM141.162 39.845H142.819V40.2935H141.162V39.845ZM138.614 38.064H141.298V40.82H138.614V38.064ZM140.765 38.4995H139.14V40.3845H140.765V38.4995ZM142.637 37.5635H143.177V41.8535H142.637V37.5635ZM139.4 42.861H143.32V43.303H139.4V42.861ZM139.4 41.4635H139.94V43.0625H139.4V41.4635ZM146.447 41.535H146.896C147.988 41.535 148.69 41.509 149.509 41.353L149.567 41.795C148.722 41.951 148.014 41.99 146.896 41.99H146.447V41.535ZM146.447 38.116H149.119V38.558H146.98V41.704H146.447V38.116ZM150.458 37.557H150.997V43.446H150.458V37.557ZM148.774 39.6825H150.679V40.131H148.774V39.6825ZM156.341 39.299H156.874V40.196H156.341V39.299ZM156.263 37.9145H156.738V38.0965C156.738 38.9805 155.646 39.546 154.411 39.663L154.235 39.2535C155.295 39.169 156.263 38.714 156.263 38.0965V37.9145ZM156.497 37.9145H156.965V38.0965C156.965 38.7075 157.934 39.169 158.993 39.2535L158.818 39.663C157.589 39.546 156.497 38.9805 156.497 38.0965V37.9145ZM154.443 37.739H158.792V38.1615H154.443V37.739ZM154.45 41.2035H158.779V41.6325H154.45V41.2035ZM153.956 39.9945H159.286V40.43H153.956V39.9945ZM156.614 41.9185C157.745 41.9185 158.376 42.185 158.376 42.692C158.376 43.2055 157.745 43.4655 156.614 43.4655C155.483 43.4655 154.846 43.2055 154.846 42.692C154.846 42.185 155.483 41.9185 156.614 41.9185ZM156.614 42.289C155.834 42.289 155.399 42.4255 155.399 42.692C155.399 42.9585 155.834 43.095 156.614 43.095C157.388 43.095 157.83 42.9585 157.83 42.692C157.83 42.4255 157.388 42.289 156.614 42.289ZM156.348 40.664H156.881V41.4765H156.348V40.664ZM159.935 40.6445H165.246V41.0865H159.935V40.6445ZM160.624 42.861H164.661V43.303H160.624V42.861ZM160.624 41.6H161.164V42.9975H160.624V41.6ZM162.594 37.752C163.848 37.752 164.661 38.194 164.661 38.9285C164.661 39.6565 163.848 40.0985 162.594 40.0985C161.333 40.0985 160.527 39.6565 160.527 38.9285C160.527 38.194 161.333 37.752 162.594 37.752ZM162.594 38.194C161.671 38.194 161.079 38.467 161.079 38.9285C161.079 39.39 161.671 39.663 162.594 39.663C163.517 39.663 164.108 39.39 164.108 38.9285C164.108 38.467 163.517 38.194 162.594 38.194Z" fill="white"/>
<path d="M95.5848 38.405H92.5848V43.915H98.1849V40.7319" stroke="white"/>
<path d="M93.5042 39.9949L95.3412 42.137L99.2279 37.4241" stroke="white"/>
<path d="M91.451 26.614H100.669V27.802H91.451V26.614ZM95.312 24.436H96.775V26.9H95.312V24.436ZM92.419 19.442H93.871V21.004H98.216V19.442H99.668V24.744H92.419V19.442ZM93.871 22.148V23.578H98.216V22.148H93.871ZM105.343 19.376H106.619V20.113C106.619 22.324 105.046 24.282 102.406 24.799L101.779 23.589C104.078 23.193 105.343 21.576 105.343 20.113V19.376ZM105.64 19.376H106.905V20.113C106.905 21.609 108.159 23.193 110.469 23.589L109.842 24.799C107.202 24.282 105.64 22.357 105.64 20.113V19.376ZM101.57 26.548H110.788V27.736H101.57V26.548ZM117.046 21.554H118.927V22.709H117.046V21.554ZM118.74 18.793H120.203V26.317H118.74V18.793ZM113.471 27.637H120.434V28.803H113.471V27.637ZM113.471 25.679H114.945V28.451H113.471V25.679ZM112.151 23.787H112.943C114.78 23.787 115.858 23.754 117.123 23.545L117.244 24.689C115.968 24.931 114.824 24.964 112.943 24.964H112.151V23.787ZM112.151 19.563H116.782V20.729H113.603V23.908H112.151V19.563ZM113.163 21.664H116.463V22.797H113.163V21.664ZM124.93 18.315H130.117V19.68H124.93V18.315ZM126.477 21.76H128.18V25.842H126.477V21.76ZM129.428 18.315H131.131V19.29C131.131 20.46 131.131 21.916 130.806 23.918L129.116 23.762C129.428 21.838 129.428 20.447 129.428 19.29V18.315ZM132.158 17.119H133.887V29.157H132.158V17.119ZM133.38 21.955H135.499V23.385H133.38V21.955ZM124.475 26.726L124.319 25.335C126.438 25.335 129.246 25.296 131.612 24.997L131.703 26.258C129.272 26.674 126.568 26.726 124.475 26.726ZM136.382 18.172H143.467V19.537H136.382V18.172ZM139.931 19.914C141.66 19.914 142.882 20.811 142.882 22.137C142.882 23.463 141.66 24.347 139.931 24.347C138.189 24.347 136.967 23.463 136.967 22.137C136.967 20.811 138.189 19.914 139.931 19.914ZM139.931 21.214C139.151 21.214 138.631 21.526 138.631 22.137C138.631 22.735 139.151 23.047 139.931 23.047C140.698 23.047 141.231 22.735 141.231 22.137C141.231 21.526 140.698 21.214 139.931 21.214ZM144.13 17.119H145.859V24.672H144.13V17.119ZM145.378 20.226H147.458V21.63H145.378V20.226ZM137.825 25.166H145.859V29.157H144.13V26.544H137.825V25.166ZM139.06 17.054H140.789V18.952H139.06V17.054ZM159.098 17.119H160.827V24.334H159.098V17.119ZM160.346 20.044H162.426V21.461H160.346V20.044ZM152.793 24.867H160.827V29.157H159.098V26.245H152.793V24.867ZM151.701 17.873H153.417V19.459H155.77V17.873H157.486V23.723H151.701V17.873ZM153.417 20.785V22.371H155.77V20.785H153.417ZM167.872 22.904H169.601V24.581H167.872V22.904ZM163.309 21.89H174.19V23.242H163.309V21.89ZM164.648 17.47H172.812V21.253H164.648V17.47ZM171.109 18.809H166.351V19.927H171.109V18.809ZM164.557 23.996H172.877V27.09H166.273V28.156H164.57V25.894H171.174V25.283H164.557V23.996ZM164.57 27.779H173.189V29.079H164.57V27.779ZM175.801 17.99H180.949V19.381H175.801V17.99ZM177.283 20.798H178.999V23.814H177.283V20.798ZM180.273 17.99H181.976V18.744C181.976 19.589 181.976 20.785 181.69 22.28L180.013 22.098C180.273 20.616 180.273 19.576 180.273 18.744V17.99ZM183.146 17.119H184.888V26.128H183.146V17.119ZM184.199 20.785H186.318V22.202H184.199V20.785ZM176.854 27.571H185.265V28.949H176.854V27.571ZM176.854 25.322H178.583V28H176.854V25.322ZM175.255 24.516L175.099 23.151C177.179 23.151 180.078 23.112 182.496 22.774L182.6 23.996C180.117 24.464 177.322 24.516 175.255 24.516ZM189.629 26.7074L189.578 27.2152C189.538 27.6214 189.462 28.0262 189.348 28.4293C189.237 28.8356 189.12 29.2034 188.997 29.5327C188.877 29.862 188.78 30.1205 188.706 30.3082H187.432C187.478 30.1267 187.541 29.8728 187.621 29.5465C187.701 29.2234 187.777 28.8602 187.847 28.457C187.918 28.0539 187.963 27.643 187.981 27.2244L188.004 26.7074H189.629ZM196.951 17.951C198.784 17.951 200.11 19.615 200.11 22.241C200.11 24.893 198.784 26.557 196.951 26.557C195.118 26.557 193.792 24.893 193.792 22.241C193.792 19.615 195.118 17.951 196.951 17.951ZM196.951 19.524C196.054 19.524 195.456 20.473 195.456 22.241C195.456 24.035 196.054 24.997 196.951 24.997C197.848 24.997 198.459 24.035 198.459 22.241C198.459 20.473 197.848 19.524 196.951 19.524ZM201.423 17.119H203.165V29.157H201.423V17.119ZM202.775 21.656H204.907V23.086H202.775V21.656ZM214.123 20.382V21.695L206.765 22.059L206.557 20.603L214.123 20.382ZM206.96 17.782H214.5V19.147H206.96V17.782ZM205.699 23.476H216.58V24.867H205.699V23.476ZM210.262 24.581H211.991V29.144H210.262V24.581ZM213.72 17.782H215.384V18.861C215.384 20.187 215.384 21.669 214.916 23.827L213.239 23.632C213.72 21.604 213.72 20.148 213.72 18.861V17.782ZM220.869 17.951C222.702 17.951 224.028 19.615 224.028 22.241C224.028 24.893 222.702 26.557 220.869 26.557C219.036 26.557 217.71 24.893 217.71 22.241C217.71 19.615 219.036 17.951 220.869 17.951ZM220.869 19.524C219.972 19.524 219.374 20.473 219.374 22.241C219.374 24.035 219.972 24.997 220.869 24.997C221.766 24.997 222.377 24.035 222.377 22.241C222.377 20.473 221.766 19.524 220.869 19.524ZM225.341 17.119H227.083V29.157H225.341V17.119ZM226.693 21.656H228.825V23.086H226.693V21.656ZM237.898 17.106H239.627V29.183H237.898V17.106ZM230.254 24.971H231.32C233.452 24.971 235.155 24.893 237.066 24.568L237.235 25.959C235.285 26.31 233.517 26.375 231.32 26.375H230.254V24.971ZM230.241 18.133H235.922V22.787H232.009V25.491H230.254V21.422H234.154V19.511H230.241V18.133ZM246.139 23.385H247.868V25.296H246.139V23.385ZM247.01 17.288C249.662 17.288 251.365 18.159 251.365 19.615C251.365 21.058 249.662 21.916 247.01 21.916C244.358 21.916 242.655 21.058 242.655 19.615C242.655 18.159 244.358 17.288 247.01 17.288ZM247.01 18.601C245.359 18.601 244.436 18.939 244.436 19.615C244.436 20.278 245.359 20.603 247.01 20.603C248.648 20.603 249.584 20.278 249.584 19.615C249.584 18.939 248.648 18.601 247.01 18.601ZM242.824 24.919H251.144V29.027H242.824V24.919ZM249.454 26.284H244.527V27.662H249.454V26.284ZM241.563 22.527H252.444V23.905H241.563V22.527Z" fill="white"/>
</g>
</g>
<defs>
<clipPath id="clip0_5_3">
<rect width="345" height="47" fill="white"/>
</clipPath>
</defs>
</svg>
