<svg width="345" height="47" viewBox="0 0 345 47" fill="none" xmlns="http://www.w3.org/2000/svg">
<g clip-path="url(#clip0_5_32)">
<mask id="mask0_5_32" style="mask-type:luminance" maskUnits="userSpaceOnUse" x="0" y="0" width="345" height="47">
<path d="M345 0H0V47H345V0Z" fill="white"/>
</mask>
<g mask="url(#mask0_5_32)">
<path d="M93.673 3.596H94.135V4.443C94.135 5.395 93.596 6.396 92.665 6.823L92.35 6.368C93.176 5.997 93.673 5.164 93.673 4.443V3.596ZM93.764 3.596H94.226V4.443C94.226 5.164 94.695 5.885 95.507 6.214L95.199 6.662C94.282 6.277 93.764 5.388 93.764 4.443V3.596ZM97.124 3.225H97.677V7.047H97.124V3.225ZM96.102 4.863H97.299V5.346H96.102V4.863ZM95.766 3.33H96.319V7.012H95.766V3.33ZM93.435 7.39H97.677V9.546H97.103V7.866H93.435V7.39ZM103.115 3.218H103.696V6.802H103.115V3.218ZM103.535 4.758H104.634V5.241H103.535V4.758ZM101.365 3.624H101.981C101.981 5.22 100.868 6.368 99.0065 6.872L98.7825 6.41C100.42 5.962 101.365 5.045 101.365 3.883V3.624ZM99.0555 3.624H101.687V4.093H99.0555V3.624ZM99.7135 7.103H103.696V9.462H99.7135V7.103ZM103.122 7.572H100.287V8.986H103.122V7.572ZM106.804 7.11H107.252V7.453C107.252 8.279 106.734 9.112 105.824 9.462L105.53 9.028C106.328 8.741 106.804 8.062 106.804 7.453V7.11ZM106.93 7.11H107.364V7.453C107.364 8.09 107.742 8.769 108.498 9.077L108.253 9.518C107.343 9.161 106.93 8.293 106.93 7.453V7.11ZM109.142 7.11H109.576V7.453C109.576 8.195 109.156 9.133 108.253 9.518L108.008 9.077C108.757 8.734 109.142 7.999 109.142 7.453V7.11ZM109.261 7.11H109.709V7.453C109.709 8.104 110.178 8.755 110.983 9.028L110.689 9.462C109.765 9.126 109.261 8.328 109.261 7.453V7.11ZM109.828 3.225H110.416V6.837H109.828V3.225ZM107.021 3.589C107.98 3.589 108.666 4.191 108.666 5.066C108.666 5.941 107.98 6.536 107.021 6.536C106.062 6.536 105.369 5.941 105.369 5.066C105.369 4.191 106.062 3.589 107.021 3.589ZM107.021 4.072C106.391 4.072 105.936 4.478 105.936 5.066C105.936 5.654 106.391 6.053 107.021 6.053C107.651 6.053 108.106 5.654 108.106 5.066C108.106 4.478 107.651 4.072 107.021 4.072ZM112.438 5.115H116.736V5.591H112.438V5.115ZM111.661 6.438H117.401V6.914H111.661V6.438ZM112.438 3.449H113.012V5.353H112.438V3.449ZM112.396 8.916H116.771V9.392H112.396V8.916ZM112.396 7.544H112.97V9.042H112.396V7.544ZM120.077 8.258H125.81V8.741H120.077V8.258ZM122.639 6.746H123.22V8.398H122.639V6.746ZM120.749 3.666H121.323V4.793H124.55V3.666H125.124V6.9H120.749V3.666ZM121.323 5.262V6.424H124.55V5.262H121.323ZM129.05 3.652H129.554V4.135C129.554 5.514 128.273 6.585 127.006 6.872L126.747 6.389C127.86 6.179 129.05 5.213 129.05 4.135V3.652ZM129.155 3.652H129.659V4.135C129.659 5.22 130.856 6.179 131.962 6.389L131.703 6.872C130.443 6.585 129.155 5.521 129.155 4.135V3.652ZM126.516 8.216H132.249V8.692H126.516V8.216ZM136.364 5.003H137.687V5.472H136.364V5.003ZM137.575 3.218H138.156V7.922H137.575V3.218ZM134.11 8.93H138.324V9.406H134.11V8.93ZM134.11 7.523H134.691V9.21H134.11V7.523ZM133.27 6.445H133.732C134.943 6.445 135.615 6.417 136.427 6.277L136.483 6.746C135.657 6.9 134.964 6.921 133.732 6.921H133.27V6.445ZM133.27 3.708H136.105V4.184H133.844V6.522H133.27V3.708ZM133.655 5.052H135.93V5.514H133.655V5.052ZM143.03 3.764H143.506V4.898C143.506 6.354 142.722 7.705 141.686 8.23L141.329 7.754C142.267 7.306 143.03 6.095 143.03 4.898V3.764ZM143.128 3.764H143.604V4.898C143.604 6.053 144.36 7.215 145.298 7.649L144.948 8.111C143.919 7.607 143.128 6.305 143.128 4.898V3.764ZM145.956 3.211H146.537V9.553H145.956V3.211ZM152.605 3.218H153.165V9.546H152.605V3.218ZM151.541 5.794H152.759V6.27H151.541V5.794ZM151.17 3.358H151.716V9.224H151.17V3.358ZM148.104 3.981H148.685V7.635H148.104V3.981ZM148.104 7.404H148.51C149.161 7.404 149.889 7.362 150.715 7.201L150.778 7.705C149.917 7.873 149.189 7.908 148.51 7.908H148.104V7.404ZM154.236 6.158H159.976V6.599H154.236V6.158ZM154.915 7.11H159.255V8.461H155.51V9.203H154.936V8.062H158.688V7.523H154.915V7.11ZM154.936 9.049H159.458V9.469H154.936V9.049ZM154.964 3.4H159.234V4.716H155.552V5.402H154.978V4.324H158.667V3.813H154.964V3.4ZM154.978 5.262H159.353V5.682H154.978V5.262ZM167.271 3.218H167.852V7.929H167.271V3.218ZM162.833 3.729H166.165V4.205H162.833V3.729ZM162.728 6.977L162.665 6.48C163.701 6.48 165.178 6.466 166.361 6.326L166.396 6.76C165.178 6.956 163.757 6.977 162.728 6.977ZM163.463 4.135H164.023V6.564H163.463V4.135ZM164.975 4.135H165.535V6.564H164.975V4.135ZM166.221 4.415H167.579V4.891H166.221V4.415ZM166.221 5.626H167.579V6.102H166.221V5.626ZM163.806 8.93H168.02V9.406H163.806V8.93ZM163.806 7.544H164.387V9.231H163.806V7.544ZM173.374 3.218H173.955V9.546H173.374V3.218ZM173.815 5.815H174.991V6.305H173.815V5.815ZM169.055 4.226H172.786V4.702H169.055V4.226ZM170.945 5.227C171.841 5.227 172.485 5.829 172.485 6.683C172.485 7.537 171.841 8.139 170.945 8.139C170.056 8.139 169.405 7.537 169.405 6.683C169.405 5.829 170.056 5.227 170.945 5.227ZM170.945 5.71C170.371 5.71 169.958 6.109 169.958 6.683C169.958 7.25 170.371 7.656 170.945 7.656C171.519 7.656 171.932 7.25 171.932 6.683C171.932 6.109 171.519 5.71 170.945 5.71ZM170.644 3.295H171.225V4.443H170.644V3.295ZM180.346 3.218H180.906V9.546H180.346V3.218ZM177.602 5.801H179.198V6.27H177.602V5.801ZM179.03 3.379H179.576V9.224H179.03V3.379ZM177.679 4.016H178.239C178.239 5.675 177.574 7.166 175.866 8.181L175.523 7.768C177.014 6.872 177.679 5.612 177.679 4.121V4.016ZM175.803 4.016H177.896V4.492H175.803V4.016ZM186.507 6.102H187.081V7.236H186.507V6.102ZM184.694 4.898H188.978V5.367H184.694V4.898ZM184.694 3.463H188.908V3.932H185.268V5.15H184.694V3.463ZM183.931 5.871H189.65V6.347H183.931V5.871ZM184.624 6.963H188.922V8.391H185.212V9.154H184.638V7.964H188.348V7.411H184.624V6.963ZM184.638 9.021H189.111V9.476H184.638V9.021ZM194.997 3.211H195.578V9.553H194.997V3.211ZM193.793 5.647H195.137V6.123H193.793V5.647ZM190.608 7.551H191.091C192.211 7.551 193.002 7.516 193.933 7.348L193.989 7.831C193.037 7.999 192.232 8.041 191.091 8.041H190.608V7.551ZM190.594 3.806H193.422V6.025H191.182V7.698H190.608V5.549H192.848V4.282H190.594V3.806ZM196.817 8.258H202.55V8.741H196.817V8.258ZM199.379 6.746H199.96V8.398H199.379V6.746ZM197.489 3.666H198.063V4.793H201.29V3.666H201.864V6.9H197.489V3.666ZM198.063 5.262V6.424H201.29V5.262H198.063ZM204.817 4.121H205.279V5.15C205.279 6.466 204.474 7.824 203.487 8.328L203.151 7.866C204.054 7.425 204.817 6.221 204.817 5.15V4.121ZM204.922 4.121H205.384V5.15C205.384 6.151 206.098 7.278 207.015 7.712L206.686 8.174C205.685 7.677 204.922 6.403 204.922 5.15V4.121ZM203.375 3.862H206.784V4.352H203.375V3.862ZM207.533 3.218H208.121V9.546H207.533V3.218ZM207.981 5.773H209.157V6.263H207.981V5.773ZM210.658 3.90909L210.608 7.56818H210.032L209.982 3.90909H210.658ZM210.32 9.03977C210.198 9.03977 210.092 8.99586 210.004 8.90803C209.917 8.82019 209.873 8.71496 209.873 8.59233C209.873 8.4697 209.917 8.36446 210.004 8.27663C210.092 8.1888 210.198 8.14489 210.32 8.14489C210.443 8.14489 210.548 8.1888 210.636 8.27663C210.724 8.36446 210.768 8.4697 210.768 8.59233C210.768 8.67353 210.747 8.74811 210.705 8.81605C210.666 8.884 210.612 8.93868 210.544 8.98011C210.478 9.01989 210.403 9.03977 210.32 9.03977Z" fill="white"/>
<path d="M102.189 38.064H102.631V39.117C102.631 40.469 101.903 41.7235 100.941 42.211L100.61 41.769C101.481 41.353 102.189 40.2285 102.189 39.117V38.064ZM102.28 38.064H102.722V39.117C102.722 40.1895 103.424 41.2685 104.295 41.6715L103.97 42.1005C103.015 41.6325 102.28 40.4235 102.28 39.117V38.064ZM104.906 37.5505H105.446V43.4395H104.906V37.5505ZM111.08 37.557H111.6V43.433H111.08V37.557ZM110.092 39.949H111.223V40.391H110.092V39.949ZM109.748 37.687H110.255V43.134H109.748V37.687ZM106.901 38.2655H107.44V41.6585H106.901V38.2655ZM106.901 41.444H107.278C107.882 41.444 108.558 41.405 109.325 41.2555L109.384 41.7235C108.584 41.8795 107.908 41.912 107.278 41.912H106.901V41.444ZM114.423 41.1125H119.746V41.561H114.423V41.1125ZM116.815 41.2425H117.348V43.4395H116.815V41.2425ZM115.131 40.0725H119.155V40.5145H115.131V40.0725ZM115.131 37.83H119.09V38.2655H115.664V40.2025H115.131V37.83ZM115.508 38.9415H118.947V39.364H115.508V38.9415ZM121.975 38.0055C122.827 38.0055 123.438 38.805 123.438 40.053C123.438 41.3075 122.827 42.107 121.975 42.107C121.117 42.107 120.513 41.3075 120.513 40.053C120.513 38.805 121.117 38.0055 121.975 38.0055ZM121.975 38.493C121.41 38.493 121.026 39.104 121.026 40.053C121.026 41.0085 121.41 41.6325 121.975 41.6325C122.541 41.6325 122.924 41.0085 122.924 40.053C122.924 39.104 122.541 38.493 121.975 38.493ZM124.712 37.5505H125.245V43.4395H124.712V37.5505ZM123.262 39.793H124.946V40.235H123.262V39.793ZM127.058 40.3H131.094V40.742H127.058V40.3ZM126.388 42.2435H131.712V42.6985H126.388V42.2435ZM128.767 40.4885H129.307V42.4255H128.767V40.4885ZM127.058 38.025H131.036V38.467H127.597V40.495H127.058V38.025ZM134.443 41.574H134.904C135.99 41.574 136.737 41.548 137.621 41.392L137.68 41.834C136.77 41.99 136.003 42.0225 134.904 42.0225H134.443V41.574ZM134.443 38.09H137.179V38.5385H134.982V41.73H134.443V38.09ZM134.846 39.7345H137.049V40.17H134.846V39.7345ZM138.167 37.557H138.713V43.433H138.167V37.557ZM138.583 39.9165H139.675V40.3715H138.583V39.9165ZM140.507 38.129H143.211V41.9575H140.507V38.129ZM142.684 38.5645H141.033V41.522H142.684V38.5645ZM144.439 37.5505H144.979V43.4395H144.439V37.5505ZM148.508 37.96H148.976V38.4085C148.976 39.689 147.786 40.6835 146.61 40.95L146.369 40.5015C147.403 40.3065 148.508 39.4095 148.508 38.4085V37.96ZM148.605 37.96H149.073V38.4085C149.073 39.416 150.185 40.3065 151.212 40.5015L150.971 40.95C149.801 40.6835 148.605 39.6955 148.605 38.4085V37.96ZM146.155 42.198H151.478V42.64H146.155V42.198ZM153.616 40.521H154.156V41.925H153.616V40.521ZM153.883 37.934C154.786 37.934 155.436 38.4995 155.436 39.3185C155.436 40.1375 154.786 40.703 153.883 40.703C152.979 40.703 152.329 40.1375 152.329 39.3185C152.329 38.4995 152.979 37.934 153.883 37.934ZM153.883 38.3955C153.285 38.3955 152.856 38.7725 152.856 39.3185C152.856 39.8645 153.285 40.2415 153.883 40.2415C154.481 40.2415 154.91 39.8645 154.91 39.3185C154.91 38.7725 154.481 38.3955 153.883 38.3955ZM156.106 37.557H156.645V43.433H156.106V37.557ZM156.489 39.975H157.575V40.43H156.489V39.975ZM152.141 42.1655L152.063 41.717C153.122 41.7105 154.539 41.704 155.735 41.5415L155.781 41.9445C154.539 42.1525 153.168 42.1655 152.141 42.1655ZM163.959 37.557H164.498V41.093H163.959V37.557ZM164.349 39.117H165.369V39.5655H164.349V39.117ZM160.806 41.4245H164.498V43.355H160.806V41.4245ZM163.972 41.86H161.333V42.9195H163.972V41.86ZM159.955 38.1745H163.426V38.6165H159.955V38.1745ZM161.69 38.9025C162.529 38.9025 163.094 39.3185 163.094 39.9555C163.094 40.5925 162.529 40.9955 161.69 40.9955C160.845 40.9955 160.28 40.5925 160.28 39.9555C160.28 39.3185 160.845 38.9025 161.69 38.9025ZM161.69 39.3185C161.151 39.3185 160.793 39.5655 160.793 39.9555C160.793 40.339 161.151 40.586 161.69 40.586C162.217 40.586 162.581 40.339 162.581 39.9555C162.581 39.5655 162.217 39.3185 161.69 39.3185ZM161.417 37.505H161.957V38.402H161.417V37.505ZM166.903 38.259H167.358C167.358 39.52 167.189 40.9045 166.35 42.0485L165.928 41.8015C166.734 40.755 166.903 39.5265 166.903 38.298V38.259ZM166.051 38.259H167.169V38.7075H166.051V38.259ZM168.196 38.259H168.658C168.658 39.5005 168.58 41.1515 167.657 42.4255L167.228 42.1785C168.125 41.0085 168.196 39.481 168.196 38.3045V38.259ZM167.553 38.259H168.482V38.7075H167.553V38.259ZM170.413 37.557H170.933V43.433H170.413V37.557ZM168.385 39.8645H169.438V40.3065H168.385V39.8645ZM169.327 37.7065H169.834V43.134H169.327V37.7065Z" fill="white"/>
<path d="M95.5848 38.405H92.5848V43.915H98.1849V40.7319" stroke="white"/>
<path d="M93.5042 39.9949L95.3412 42.137L99.2279 37.4241" stroke="white"/>
<path d="M92.573 19.145H99.03V20.289H92.573V19.145ZM98.15 19.145H99.591V20.047C99.591 20.938 99.591 21.895 99.327 23.094L97.886 22.962C98.15 21.785 98.15 20.927 98.15 20.047V19.145ZM98.59 20.861V21.862L92.452 22.104L92.287 20.993L98.59 20.861ZM91.462 22.72H100.636V23.864H91.462V22.72ZM92.452 24.458H99.646V27.153H93.915V28.253H92.463V26.119H98.194V25.558H92.452V24.458ZM92.463 27.758H99.987V28.869H92.463V27.758ZM101.834 25.525H102.549C103.759 25.525 104.826 25.503 106.08 25.305L106.19 26.482C104.892 26.702 103.792 26.735 102.549 26.735H101.834V25.525ZM101.823 19.783H105.684V23.721H103.253V25.965H101.834V22.566H104.265V20.949H101.823V19.783ZM108.918 18.793H110.304V28.979H108.918V18.793ZM107.554 22.643H109.248V23.809H107.554V22.643ZM106.641 18.969H107.994V28.495H106.641V18.969ZM114.065 19.255H115.275V20.234C115.275 22.159 114.34 23.908 112.349 24.546L111.634 23.391C113.35 22.841 114.065 21.521 114.065 20.234V19.255ZM114.362 19.255H115.561V20.234C115.561 21.488 116.265 22.72 117.926 23.226L117.211 24.37C115.264 23.754 114.362 22.126 114.362 20.234V19.255ZM113.196 25.316H120.148V28.979H118.674V26.482H113.196V25.316ZM118.674 18.793H120.148V24.865H118.674V18.793ZM128.353 18.804H129.816V26.416H128.353V18.804ZM129.398 21.906H131.169V23.105H129.398V21.906ZM121.797 19.86H127.792V21.004H121.797V19.86ZM124.8 21.367C126.263 21.367 127.297 22.17 127.297 23.336C127.297 24.502 126.263 25.294 124.8 25.294C123.326 25.294 122.292 24.502 122.292 23.336C122.292 22.17 123.326 21.367 124.8 21.367ZM124.8 22.478C124.151 22.478 123.7 22.786 123.7 23.336C123.7 23.886 124.151 24.183 124.8 24.183C125.449 24.183 125.9 23.886 125.9 23.336C125.9 22.786 125.449 22.478 124.8 22.478ZM124.063 18.782H125.526V20.421H124.063V18.782ZM123.249 27.637H130.179V28.803H123.249V27.637ZM123.249 25.844H124.712V28.143H123.249V25.844ZM135.829 23.32H144.292V24.672H135.829V23.32ZM134.555 26.375H145.449V27.779H134.555V26.375ZM135.829 17.99H144.188V19.381H137.584V23.697H135.829V17.99ZM137.051 20.642H143.915V21.981H137.051V20.642ZM146.501 22.566H157.408V23.814H146.501V22.566ZM147.723 24.386H156.108V27.246H149.465V28.273H147.749V26.154H154.405V25.556H147.723V24.386ZM147.749 27.909H156.446V29.079H147.749V27.909ZM147.84 17.314H156.082V20.148H149.569V21.136H147.853V19.069H154.379V18.471H147.84V17.314ZM147.853 20.772H156.303V21.942H147.853V20.772ZM151.09 21.396H152.819V23.112H151.09V21.396ZM166.754 17.106H168.483V29.183H166.754V17.106ZM159.11 24.971H160.176C162.308 24.971 164.011 24.893 165.922 24.568L166.091 25.959C164.141 26.31 162.373 26.375 160.176 26.375H159.11V24.971ZM159.097 18.133H164.778V22.787H160.865V25.491H159.11V21.422H163.01V19.511H159.097V18.133ZM172.372 26.9062L172.329 27.3359C172.295 27.6797 172.23 28.0221 172.134 28.3633C172.04 28.707 171.941 29.0182 171.837 29.2969C171.735 29.5755 171.653 29.7943 171.591 29.9531H170.513C170.552 29.7995 170.605 29.5846 170.673 29.3086C170.741 29.0352 170.804 28.7279 170.864 28.3867C170.924 28.0456 170.962 27.6979 170.978 27.3437L170.997 26.9062H172.372ZM176.048 28V26.7812L178.896 24.1445C179.138 23.9102 179.341 23.6992 179.505 23.5117C179.672 23.3242 179.798 23.1406 179.884 22.9609C179.97 22.7786 180.013 22.582 180.013 22.3711C180.013 22.1367 179.959 21.9349 179.853 21.7656C179.746 21.5937 179.6 21.4622 179.415 21.3711C179.23 21.2773 179.021 21.2305 178.786 21.2305C178.541 21.2305 178.328 21.2799 178.146 21.3789C177.963 21.4779 177.823 21.6198 177.724 21.8047C177.625 21.9896 177.575 22.2096 177.575 22.4648H175.97C175.97 21.9414 176.088 21.487 176.325 21.1016C176.562 20.7161 176.894 20.418 177.321 20.207C177.748 19.9961 178.241 19.8906 178.798 19.8906C179.371 19.8906 179.869 19.9922 180.294 20.1953C180.721 20.3958 181.053 20.6745 181.29 21.0312C181.527 21.388 181.646 21.7969 181.646 22.2578C181.646 22.5599 181.586 22.8581 181.466 23.1523C181.349 23.4466 181.139 23.7734 180.837 24.1328C180.535 24.4896 180.109 24.918 179.56 25.418L178.392 26.5625V26.6172H181.751V28H176.048ZM182.768 23.82H191.975V24.975H182.768V23.82ZM186.64 18.826H188.092V20.322H186.64V18.826ZM186.552 20.388H187.839V20.586C187.839 22.126 186.365 23.215 183.582 23.402L183.153 22.302C185.606 22.159 186.552 21.356 186.552 20.586V20.388ZM186.893 20.388H188.18V20.586C188.18 21.356 189.126 22.159 191.579 22.302L191.15 23.402C188.367 23.215 186.893 22.126 186.893 20.586V20.388ZM183.648 19.706H191.095V20.839H183.648V19.706ZM187.355 25.525C189.577 25.525 190.886 26.141 190.886 27.252C190.886 28.374 189.577 28.979 187.355 28.979C185.133 28.979 183.813 28.374 183.813 27.252C183.813 26.141 185.133 25.525 187.355 25.525ZM187.355 26.603C185.969 26.603 185.298 26.79 185.298 27.252C185.298 27.703 185.969 27.901 187.355 27.901C188.73 27.901 189.412 27.703 189.412 27.252C189.412 26.79 188.73 26.603 187.355 26.603ZM202.528 18.782H203.98V29.001H202.528V18.782ZM200.218 22.368H202.946V23.545H200.218V22.368ZM195.807 19.585H197.259V22.049H199.261V19.585H200.702V26.603H195.807V19.585ZM197.259 23.182V25.426H199.261V23.182H197.259ZM209.336 19.376H210.612V20.113C210.612 22.324 209.039 24.282 206.399 24.799L205.772 23.589C208.071 23.193 209.336 21.576 209.336 20.113V19.376ZM209.633 19.376H210.898V20.113C210.898 21.609 212.152 23.193 214.462 23.589L213.835 24.799C211.195 24.282 209.633 22.357 209.633 20.113V19.376ZM205.563 26.548H214.781V27.736H205.563V26.548ZM218.908 17.834H220.611V19.407H223.042V17.834H224.758V23.671H218.908V17.834ZM220.611 20.733V22.319H223.042V20.733H220.611ZM220.091 24.867H228.307V29.157H226.565V26.232H220.091V24.867ZM226.565 17.119H228.307V24.308H226.565V17.119ZM238.641 17.106H240.357V29.183H238.641V17.106ZM235.911 21.344H239.135V22.735H235.911V21.344ZM230.698 18.055H232.414V20.967H234.78V18.055H236.483V26.349H230.698V18.055ZM232.414 22.306V24.958H234.78V22.306H232.414ZM246.687 17.808H248.195V18.679C248.195 21.292 246.336 23.606 243.216 24.217L242.475 22.787C245.192 22.319 246.687 20.408 246.687 18.679V17.808ZM247.038 17.808H248.533V18.679C248.533 20.447 250.015 22.319 252.745 22.787L252.004 24.217C248.884 23.606 247.038 21.331 247.038 18.679V17.808ZM242.228 26.284H253.122V27.688H242.228V26.284Z" fill="white"/>
<path d="M120.25 23C120.802 23 121.25 22.5523 121.25 22C121.25 21.4477 120.802 21 120.25 21C119.698 21 119.25 21.4477 119.25 22C119.25 22.5523 119.698 23 120.25 23Z" fill="white"/>
</g>
</g>
<defs>
<clipPath id="clip0_5_32">
<rect width="345" height="47" fill="white"/>
</clipPath>
</defs>
</svg>
