<svg width="800" height="109" viewBox="0 0 800 109" fill="none" xmlns="http://www.w3.org/2000/svg">
<g clip-path="url(#clip0_6_100)">
<mask id="mask0_6_100" style="mask-type:luminance" maskUnits="userSpaceOnUse" x="0" y="0" width="800" height="109">
<path d="M800 0H0V109H800V0Z" fill="white"/>
</mask>
<g mask="url(#mask0_6_100)">
<path d="M134.208 37.194H138.996V72.382H134.208V37.194ZM129.99 50.684H135.842V54.788H129.99V50.684ZM126.646 37.726H131.358V70.786H126.646V37.726ZM114.79 42.666H118.628V45.782C118.628 54.484 116.728 62.16 110.876 65.694L107.836 61.818C113.118 58.778 114.79 52.546 114.79 45.782V42.666ZM115.816 42.666H119.692V45.782C119.692 51.976 121.478 57.828 126.722 60.564L123.834 64.402C117.906 61.21 115.816 53.952 115.816 45.782V42.666ZM108.976 40.766H124.974V44.832H108.976V40.766ZM143.477 40.272H164.187V44.262H143.477V40.272ZM153.851 45.364C158.905 45.364 162.477 47.986 162.477 51.862C162.477 55.738 158.905 58.322 153.851 58.322C148.759 58.322 145.187 55.738 145.187 51.862C145.187 47.986 148.759 45.364 153.851 45.364ZM153.851 49.164C151.571 49.164 150.051 50.076 150.051 51.862C150.051 53.61 151.571 54.522 153.851 54.522C156.093 54.522 157.651 53.61 157.651 51.862C157.651 50.076 156.093 49.164 153.851 49.164ZM166.125 37.194H171.179V59.272H166.125V37.194ZM169.773 46.276H175.853V50.38H169.773V46.276ZM147.695 60.716H171.179V72.382H166.125V64.744H147.695V60.716ZM151.305 37.004H156.359V42.552H151.305V37.004ZM184.78 39.322H188.732V43.388C188.732 49.354 186.338 55.32 180.6 57.752L177.94 53.838C182.842 51.672 184.78 47.34 184.78 43.388V39.322ZM185.692 39.322H189.644V43.388C189.644 47.15 191.544 50.95 196.18 52.774L193.482 56.612C188.01 54.446 185.692 49.126 185.692 43.388V39.322ZM203.628 37.232H208.416V58.702H203.628V37.232ZM199.41 45.744H204.996V49.81H199.41V45.744ZM196.18 37.878H200.892V57.6H196.18V37.878ZM196.484 59.196C203.856 59.196 208.606 61.666 208.606 65.808C208.606 69.912 203.856 72.382 196.484 72.382C189.074 72.382 184.4 69.912 184.4 65.808C184.4 61.666 189.074 59.196 196.484 59.196ZM196.484 62.996C191.962 62.996 189.416 63.946 189.416 65.808C189.416 67.67 191.962 68.582 196.484 68.582C201.006 68.582 203.514 67.67 203.514 65.808C203.514 63.946 201.006 62.996 196.484 62.996ZM214.873 40.69H230.035V44.68H214.873V40.69ZM219.395 50.76H224.373V62.692H219.395V50.76ZM228.021 40.69H232.999V43.54C232.999 46.96 232.999 51.216 232.049 57.068L227.109 56.612C228.021 50.988 228.021 46.922 228.021 43.54V40.69ZM236.001 37.194H241.055V72.382H236.001V37.194ZM239.573 51.33H245.767V55.51H239.573V51.33ZM213.543 65.276L213.087 61.21C219.281 61.21 227.489 61.096 234.405 60.222L234.671 63.908C227.565 65.124 219.661 65.276 213.543 65.276ZM279.791 37.194H284.845V58.398H279.791V37.194ZM283.439 45.858H289.519V50H283.439V45.858ZM261.969 59.918H284.845V72.002H261.969V59.918ZM279.905 63.908H266.947V68.012H279.905V63.908ZM257.143 40.348H277.853V44.338H257.143V40.348ZM267.517 45.364C272.609 45.364 276.143 47.948 276.143 51.71C276.143 55.51 272.609 58.018 267.517 58.018C262.387 58.018 258.853 55.51 258.853 51.71C258.853 47.948 262.387 45.364 267.517 45.364ZM267.517 49.126C265.237 49.126 263.717 50 263.717 51.71C263.717 53.42 265.237 54.332 267.517 54.332C269.759 54.332 271.317 53.42 271.317 51.71C271.317 50 269.759 49.126 267.517 49.126ZM264.971 36.966H270.025V42.514H264.971V36.966ZM296.394 41.184H300.65C300.65 50.114 299.814 57.98 295.444 64.972L291.568 62.882C295.672 56.422 296.394 50.304 296.394 41.602V41.184ZM292.708 41.184H299.092V45.25H292.708V41.184ZM304.26 41.184H308.516C308.516 50.38 307.984 59.158 303.272 66.682L299.396 64.554C303.88 57.562 304.26 50.418 304.26 41.64V41.184ZM301.714 41.184H307.11V45.25H301.714V41.184ZM317.826 37.194H322.652V72.382H317.826V37.194ZM306.806 50.38H311.784V54.446H306.806V50.38ZM311.024 37.954H315.736V70.824H311.024V37.954ZM349.629 37.194H354.645V72.382H349.629V37.194ZM353.505 50.912H359.737V55.13H353.505V50.912ZM326.905 42.4H347.387V46.428H326.905V42.4ZM337.203 48.404C342.333 48.404 346.133 51.9 346.133 56.802C346.133 61.704 342.333 65.2 337.203 65.2C332.073 65.2 328.273 61.704 328.273 56.802C328.273 51.9 332.073 48.404 337.203 48.404ZM337.203 52.508C334.809 52.508 333.099 54.104 333.099 56.802C333.099 59.5 334.809 61.096 337.203 61.096C339.597 61.096 341.307 59.5 341.307 56.802C341.307 54.104 339.597 52.508 337.203 52.508ZM334.657 37.764H339.711V43.92H334.657V37.764ZM365.966 46.694H390.362V50.684H365.966V46.694ZM362.014 54.332H393.896V58.36H362.014V54.332ZM365.966 38.448H370.982V48.67H365.966V38.448ZM365.624 67.594H390.552V71.622H365.624V67.594ZM365.624 61.172H370.678V68.658H365.624V61.172ZM417.787 35.761C423.85 35.761 428.236 41.265 428.236 49.951C428.236 58.723 423.85 64.227 417.787 64.227C411.724 64.227 407.338 58.723 407.338 49.951C407.338 41.265 411.724 35.761 417.787 35.761ZM417.787 40.964C414.82 40.964 412.842 44.103 412.842 49.951C412.842 55.885 414.82 59.067 417.787 59.067C420.754 59.067 422.775 55.885 422.775 49.951C422.775 44.103 420.754 40.964 417.787 40.964ZM432.579 33.009H438.341V72.827H432.579V33.009ZM437.051 48.016H444.103V52.746H437.051V48.016ZM473.985 32.966H479.747V72.913H473.985V32.966ZM458.29 35.761C464.31 35.761 468.739 41.265 468.739 49.951C468.739 58.723 464.31 64.227 458.29 64.227C452.27 64.227 447.841 58.723 447.841 49.951C447.841 41.265 452.27 35.761 458.29 35.761ZM458.29 40.964C455.323 40.964 453.302 44.103 453.302 49.951C453.302 55.885 455.323 59.067 458.29 59.067C461.257 59.067 463.235 55.885 463.235 49.951C463.235 44.103 461.257 40.964 458.29 40.964ZM513.542 32.966H519.304V72.913H513.542V32.966ZM488.215 36.148H493.891V45.823H502.104V36.148H507.78V63.625H488.215V36.148ZM493.891 50.252V59.024H502.104V50.252H493.891ZM553.227 32.966H558.946V72.913H553.227V32.966ZM527.943 58.981H531.469C538.521 58.981 544.154 58.723 550.475 57.648L551.034 62.249C544.584 63.41 538.736 63.625 531.469 63.625H527.943V58.981ZM527.9 36.363H546.691V51.757H533.748V60.701H527.943V47.242H540.843V40.921H527.9V36.363ZM569.048 36.664H594.289V41.179H569.048V36.664ZM565.393 62.98H601.384V67.624H565.393V62.98ZM591.279 36.664H596.955V41.394C596.955 46.984 596.955 52.402 595.536 60.572L589.817 60.099C591.279 52.445 591.279 46.769 591.279 41.394V36.664ZM614.859 56.616H650.893V61.26H614.859V56.616ZM629.995 58.25H635.671V72.87H629.995V58.25ZM619.331 49.22H647.152V53.735H619.331V49.22ZM619.331 34.6H646.722V39.072H624.964V50.295H619.331V34.6ZM623.373 41.953H645.862V46.296H623.373V41.953ZM665.337 35.761C671.271 35.761 675.614 41.265 675.614 49.951C675.614 58.723 671.271 64.227 665.337 64.227C659.36 64.227 655.06 58.723 655.06 49.951C655.06 41.265 659.36 35.761 665.337 35.761ZM665.337 40.964C662.456 40.964 660.521 44.103 660.521 49.951C660.521 55.885 662.456 59.067 665.337 59.067C668.261 59.067 670.153 55.885 670.153 49.951C670.153 44.103 668.261 40.964 665.337 40.964ZM682.15 32.966H687.826V72.913H682.15V32.966ZM673.937 47.328H684.558V51.929H673.937V47.328Z" fill="white"/>
<path d="M115.729 9.6855H119.449V11.169H115.729V9.6855ZM112.096 4.5685H113.493V8.2665C113.493 12.33 111.795 16.2645 108.957 18.006L107.839 16.6515C110.505 15.082 112.096 11.599 112.096 8.2665V4.5685ZM112.44 4.5685H113.816V8.202C113.816 11.3195 115.278 14.6305 117.836 16.1785L116.804 17.576C114.009 15.856 112.44 11.986 112.44 8.202V4.5685ZM122.867 2.741H124.587V22.177H122.867V2.741ZM118.933 3.1495H120.61V21.2095H118.933V3.1495ZM135.378 8.1375H139.7V9.578H135.378V8.1375ZM135.228 13.018H139.657V14.4585H135.228V13.018ZM142.645 2.741H144.365V22.177H142.645V2.741ZM138.754 3.2355H140.431V21.188H138.754V3.2355ZM134.411 5.192H136.131C136.131 10.2875 134.088 14.867 128.864 17.9845L127.832 16.716C132.368 13.964 134.411 10.094 134.411 5.5145V5.192ZM128.692 5.192H135.12V6.654H128.692V5.192ZM159.226 13.018H161.032V17.232H159.226V13.018ZM159.226 6.181H160.666V6.611C160.666 10.008 158.452 12.631 155.184 13.663L154.367 12.2655C157.248 11.4055 159.226 9.234 159.226 6.611V6.181ZM159.57 6.181H161.01V6.611C161.01 9.1265 163.053 11.2335 165.912 12.072L165.095 13.448C161.827 12.4805 159.57 9.9005 159.57 6.611V6.181ZM154.818 5.278H165.504V6.7185H154.818V5.278ZM159.226 2.87H161.032V5.9015H159.226V2.87ZM167.718 2.7195H169.503V22.1985H167.718V2.7195ZM154.023 18.1995L153.765 16.6945C157.312 16.6945 162.214 16.673 166.45 16.028L166.6 17.3395C162.236 18.1565 157.484 18.178 154.023 18.1995ZM175.306 4.676H187.819V6.1595H175.306V4.676ZM173.457 17.9845H191.022V19.468H173.457V17.9845ZM180.272 11.04H182.057V18.7155H180.272V11.04ZM187.152 4.676H188.915V6.611C188.915 9.019 188.915 11.685 188.206 15.6195L186.421 15.383C187.152 11.6635 187.152 8.933 187.152 6.611V4.676ZM199.535 4.1385C202.566 4.1385 204.738 6.009 204.738 8.718C204.738 11.4485 202.566 13.319 199.535 13.319C196.503 13.319 194.31 11.4485 194.31 8.718C194.31 6.009 196.503 4.1385 199.535 4.1385ZM199.535 5.6865C197.514 5.6865 196.052 6.912 196.052 8.718C196.052 10.524 197.514 11.771 199.535 11.771C201.534 11.771 202.996 10.524 202.996 8.718C202.996 6.912 201.534 5.6865 199.535 5.6865ZM207.275 2.7195H209.059V22.1985H207.275V2.7195ZM193.579 17.9415L193.321 16.458C196.869 16.458 201.771 16.4365 206.006 15.77L206.157 17.0815C201.792 17.92 197.041 17.9415 193.579 17.9415ZM228.327 5.88H233.938V7.342H228.327V5.88ZM228.327 9.75H233.981V11.1905H228.327V9.75ZM233.25 2.741H235.035V14.2435H233.25V2.741ZM219.942 4.203H228.821V12.846H219.942V4.203ZM227.058 5.6435H221.683V11.427H227.058V5.6435ZM228.649 14.8025C232.648 14.8025 235.121 16.157 235.121 18.479C235.121 20.801 232.648 22.134 228.649 22.134C224.629 22.134 222.156 20.801 222.156 18.479C222.156 16.157 224.629 14.8025 228.649 14.8025ZM228.649 16.2215C225.725 16.2215 223.941 17.06 223.941 18.479C223.941 19.898 225.725 20.7365 228.649 20.7365C231.573 20.7365 233.358 19.898 233.358 18.479C233.358 17.06 231.573 16.2215 228.649 16.2215ZM238.817 12.674H256.426V14.136H238.817V12.674ZM246.858 13.577H248.643V18.049H246.858V13.577ZM241.075 3.644H254.147V10.481H241.075V3.644ZM252.384 5.0845H242.816V9.0405H252.384V5.0845ZM241.053 20.285H254.469V21.747H241.053V20.285ZM241.053 16.1785H242.816V20.801H241.053V16.1785ZM273.387 2.741H275.107V22.177H273.387V2.741ZM270.098 10.524H273.839V12.0075H270.098V10.524ZM268.98 3.171H270.657V21.188H268.98V3.171ZM259.305 15.899H260.573C263.411 15.899 265.346 15.7915 267.604 15.3185L267.776 16.802C265.454 17.2965 263.497 17.3825 260.573 17.3825H259.305V15.899ZM259.305 5.106H266.529V6.568H261.068V16.5655H259.305V5.106ZM281.657 18.3622L281.535 19.1868C281.448 19.767 281.316 20.388 281.138 21.0497C280.965 21.7114 280.784 22.3349 280.596 22.9203C280.407 23.5056 280.252 23.9714 280.13 24.3175H278.756C278.822 23.9917 278.908 23.5616 279.015 23.0272C279.122 22.4927 279.229 21.8946 279.336 21.233C279.448 20.5763 279.54 19.9045 279.611 19.2173L279.702 18.3622H281.657ZM303.626 2.741H305.411V22.177H303.626V2.741ZM304.981 10.7175H308.593V12.2225H304.981V10.7175ZM290.361 5.837H301.82V7.299H290.361V5.837ZM296.166 8.9115C298.918 8.9115 300.896 10.7605 300.896 13.3835C300.896 16.0065 298.918 17.8555 296.166 17.8555C293.435 17.8555 291.436 16.0065 291.436 13.3835C291.436 10.7605 293.435 8.9115 296.166 8.9115ZM296.166 10.395C294.403 10.395 293.134 11.6205 293.134 13.3835C293.134 15.125 294.403 16.372 296.166 16.372C297.929 16.372 299.197 15.125 299.197 13.3835C299.197 11.6205 297.929 10.395 296.166 10.395ZM295.241 2.9775H297.026V6.5035H295.241V2.9775ZM324.479 2.7195H326.242V22.1985H324.479V2.7195ZM319.341 9.9435H324.995V11.4055H319.341V9.9435ZM311.02 4.2675H312.783V9.32H318.18V4.2675H319.943V17.318H311.02V4.2675ZM312.783 10.739V15.8345H318.18V10.739H312.783ZM332.239 12.0505H345.591V13.5125H332.239V12.0505ZM330.025 18.0705H347.633V19.554H330.025V18.0705ZM332.239 4.5255H345.397V6.009H334.024V12.6955H332.239V4.5255ZM354.705 12.545H356.49V17.189H354.705V12.545ZM355.587 3.988C358.575 3.988 360.725 5.8585 360.725 8.5675C360.725 11.2765 358.575 13.147 355.587 13.147C352.598 13.147 350.448 11.2765 350.448 8.5675C350.448 5.8585 352.598 3.988 355.587 3.988ZM355.587 5.5145C353.609 5.5145 352.19 6.7615 352.19 8.5675C352.19 10.3735 353.609 11.6205 355.587 11.6205C357.565 11.6205 358.984 10.3735 358.984 8.5675C358.984 6.7615 357.565 5.5145 355.587 5.5145ZM362.94 2.741H364.724V22.177H362.94V2.741ZM364.208 10.739H367.799V12.244H364.208V10.739ZM349.825 17.9845L349.567 16.501C353.071 16.4795 357.758 16.458 361.714 15.9205L361.865 17.2535C357.758 17.9415 353.222 17.9845 349.825 17.9845ZM376.447 4.86364H378.707L384.021 17.843H384.204L389.518 4.86364H391.778V20.5H390.006V8.62003H389.854L384.967 20.5H383.257L378.371 8.62003H378.218V20.5H376.447V4.86364ZM397.468 4.86364V20.5H395.574V4.86364H397.468ZM400.409 6.54332V4.86364H412.136V6.54332H407.219V20.5H405.326V6.54332H400.409Z" fill="white"/>
<path d="M129.076 100.256H130.354C133.36 100.256 135.43 100.184 137.878 99.752L138.04 100.976C135.52 101.408 133.396 101.498 130.354 101.498H129.076V100.256ZM129.076 90.608H136.654V91.85H130.57V100.688H129.076V90.608ZM130.192 95.162H136.294V96.368H130.192V95.162ZM139.39 89.132H140.902V105.404H139.39V89.132ZM140.542 95.666H143.566V96.926H140.542V95.666ZM145.869 90.716H153.357V101.318H145.869V90.716ZM151.899 91.922H147.327V100.112H151.899V91.922ZM156.759 89.114H158.253V105.422H156.759V89.114ZM168.025 90.248H169.321V91.49C169.321 95.036 166.027 97.79 162.769 98.528L162.103 97.286C164.965 96.746 168.025 94.262 168.025 91.49V90.248ZM168.295 90.248H169.591V91.49C169.591 94.28 172.669 96.746 175.513 97.286L174.847 98.528C171.607 97.79 168.295 95.054 168.295 91.49V90.248ZM161.509 101.984H176.251V103.208H161.509V101.984ZM184.656 95.45H187.734V96.692H184.656V95.45ZM190.452 89.132H191.892V105.404H190.452V89.132ZM187.23 89.474H188.652V104.594H187.23V89.474ZM181.722 90.482C183.828 90.482 185.196 92.66 185.196 96.152C185.196 99.644 183.828 101.822 181.722 101.822C179.616 101.822 178.266 99.644 178.266 96.152C178.266 92.66 179.616 90.482 181.722 90.482ZM181.722 91.868C180.444 91.868 179.634 93.524 179.634 96.152C179.634 98.78 180.444 100.436 181.722 100.436C183.018 100.436 183.828 98.78 183.828 96.152C183.828 93.524 183.018 91.868 181.722 91.868ZM202.744 94.64H207.28V95.864H202.744V94.64ZM198.82 90.536H200.044V93.434C200.044 97.088 198.118 100.58 195.544 101.966L194.59 100.778C196.984 99.59 198.82 96.458 198.82 93.434V90.536ZM199.108 90.536H200.314V93.434C200.314 96.404 202.15 99.356 204.508 100.472L203.626 101.678C200.998 100.346 199.108 96.998 199.108 93.434V90.536ZM206.542 89.114H208.018V105.422H206.542V89.114ZM217.165 90.716H224.653V101.318H217.165V90.716ZM223.195 91.922H218.623V100.112H223.195V91.922ZM228.055 89.114H229.549V105.422H228.055V89.114ZM233.328 100.274H234.408C236.388 100.274 238.188 100.202 240.384 99.824L240.51 101.066C238.26 101.462 236.424 101.516 234.408 101.516H233.328V100.274ZM233.292 90.896H239.394V96.62H234.786V100.742H233.328V95.396H237.936V92.12H233.292V90.896ZM245.172 89.132H246.612V105.404H245.172V89.132ZM242.418 95.558H245.55V96.782H242.418V95.558ZM241.482 89.492H242.886V104.576H241.482V89.492ZM249.347 96.692H264.107V97.826H249.347V96.692ZM251.093 99.14H262.253V102.614H252.623V104.522H251.147V101.588H260.795V100.202H251.093V99.14ZM251.147 104.126H262.775V105.206H251.147V104.126ZM251.219 89.6H262.199V92.984H252.731V94.748H251.255V91.976H260.741V90.662H251.219V89.6ZM251.255 94.388H262.505V95.468H251.255V94.388ZM275.036 91.814H276.26V92.516C276.26 95.288 274.424 97.538 271.688 98.402L270.986 97.232C273.398 96.494 275.036 94.64 275.036 92.516V91.814ZM275.306 91.814H276.53V92.516C276.53 94.46 278.114 96.224 280.508 96.926L279.806 98.078C277.088 97.268 275.306 95.108 275.306 92.516V91.814ZM271.436 91.022H280.112V92.228H271.436V91.022ZM275.036 89.06H276.53V91.526H275.036V89.06ZM282.11 89.132H283.604V98.582H282.11V89.132ZM283.19 93.146H286.016V94.388H283.19V93.146ZM277.772 99.932H279.05V100.364C279.05 102.92 276.35 104.81 273.164 105.35L272.588 104.198C275.396 103.766 277.772 102.182 277.772 100.364V99.932ZM278.06 99.932H279.338V100.364C279.338 102.146 281.75 103.766 284.504 104.216L283.946 105.368C280.76 104.828 278.06 102.866 278.06 100.364V99.932ZM273.218 99.464H283.892V100.67H273.218V99.464ZM298.542 89.114H300.054V105.422H298.542V89.114ZM299.694 95.54H302.718V96.8H299.694V95.54ZM288.228 100.112H289.506C292.512 100.112 294.618 100.004 297.048 99.554L297.21 100.814C294.708 101.282 292.566 101.372 289.506 101.372H288.228V100.112ZM288.228 90.698H295.788V91.922H289.704V100.67H288.228V90.698Z" fill="white"/>
<path d="M115.562 91.792H108V105.681H122.12V97.656" stroke="white" stroke-width="1.8"/>
<path d="M110.315 95.802L114.944 101.202L124.744 89.3191" stroke="white" stroke-width="1.8"/>
</g>
</g>
<defs>
<clipPath id="clip0_6_100">
<rect width="800" height="109" fill="white"/>
</clipPath>
</defs>
</svg>
