<svg width="346" height="48" viewBox="0 0 346 48" fill="none" xmlns="http://www.w3.org/2000/svg">
<g clip-path="url(#clip0_14_2)">
<mask id="mask0_14_2" style="mask-type:luminance" maskUnits="userSpaceOnUse" x="0" y="0" width="346" height="48">
<path d="M345.5 0.5H0.5V47.5H345.5V0.5Z" fill="white"/>
</mask>
<g mask="url(#mask0_14_2)">
<path d="M84.95 20.657H87.964V21.834H84.95V20.657ZM84.95 22.868H87.964V24.045H84.95V22.868ZM82.024 25.783H88.965V29.479H87.502V26.938H82.024V25.783ZM87.502 19.293H88.965V25.321H87.502V19.293ZM83.256 19.821C84.774 19.821 85.94 20.877 85.94 22.34C85.94 23.814 84.774 24.87 83.256 24.87C81.727 24.87 80.561 23.814 80.561 22.34C80.561 20.877 81.727 19.821 83.256 19.821ZM83.256 21.064C82.508 21.064 81.958 21.537 81.958 22.34C81.958 23.154 82.508 23.627 83.256 23.627C83.993 23.627 84.554 23.154 84.554 22.34C84.554 21.537 83.993 21.064 83.256 21.064ZM92.8471 20.074H94.0351V21.559C94.0351 24.078 93.1551 26.443 91.2301 27.389L90.3501 26.212C92.0661 25.409 92.8471 23.451 92.8471 21.559V20.074ZM93.1441 20.074H94.3101V21.559C94.3101 23.385 95.0361 25.244 96.6641 26.036L95.7841 27.202C93.9471 26.267 93.1441 24.001 93.1441 21.559V20.074ZM97.0711 19.293H98.5451V29.479H97.0711V19.293ZM98.2151 23.209H100.019V24.43H98.2151V23.209ZM102.966 24.452H104.429V26.861H102.966V24.452ZM103.681 19.887C105.254 19.887 106.453 20.932 106.453 22.395C106.453 23.858 105.254 24.903 103.681 24.903C102.097 24.903 100.909 23.858 100.909 22.395C100.909 20.932 102.097 19.887 103.681 19.887ZM103.681 21.13C102.911 21.13 102.339 21.592 102.339 22.395C102.339 23.187 102.911 23.66 103.681 23.66C104.451 23.66 105.023 23.187 105.023 22.395C105.023 21.592 104.451 21.13 103.681 21.13ZM107.256 19.293H108.719V29.479H107.256V19.293ZM108.268 23.275H110.061V24.496H108.268V23.275ZM100.744 27.455L100.568 26.278C102.328 26.267 104.704 26.278 106.728 26.003L106.838 27.07C104.726 27.466 102.46 27.466 100.744 27.455ZM113.343 24.32H122.561V25.486H113.343V24.32ZM117.336 25.057H118.81V27.202H117.336V25.057ZM114.476 19.722H121.395V23.506H114.476V19.722ZM119.954 20.866H115.906V22.362H119.954V20.866ZM114.41 28.137H121.549V29.303H114.41V28.137ZM114.41 26.344H115.862V28.522H114.41V26.344ZM125.816 25.321H127.279V26.971H125.816V25.321ZM130.095 19.293H131.569V29.479H130.095V19.293ZM131.052 23.429H132.845V24.639H131.052V23.429ZM123.528 27.785L123.352 26.608C125.112 26.608 127.532 26.597 129.589 26.311L129.699 27.367C127.554 27.785 125.244 27.785 123.528 27.785ZM123.539 20.415H129.534V21.559H123.539V20.415ZM126.553 21.966C128.005 21.966 129.039 22.736 129.039 23.869C129.039 25.013 128.005 25.783 126.553 25.783C125.09 25.783 124.067 25.013 124.067 23.869C124.067 22.736 125.09 21.966 126.553 21.966ZM126.553 23.066C125.882 23.066 125.453 23.352 125.453 23.869C125.453 24.397 125.882 24.683 126.553 24.683C127.213 24.683 127.653 24.397 127.653 23.869C127.653 23.352 127.213 23.066 126.553 23.066ZM125.816 19.348H127.279V21.273H125.816V19.348ZM136.86 19.964C138.466 19.964 139.665 21.009 139.665 22.472C139.665 23.946 138.466 24.991 136.86 24.991C135.265 24.991 134.044 23.946 134.044 22.472C134.044 21.009 135.265 19.964 136.86 19.964ZM136.86 21.218C136.079 21.218 135.485 21.68 135.485 22.472C135.485 23.275 136.079 23.737 136.86 23.737C137.641 23.737 138.235 23.275 138.235 22.472C138.235 21.68 137.641 21.218 136.86 21.218ZM140.622 19.282H142.085V29.501H140.622V19.282ZM133.802 27.433L133.626 26.256C135.419 26.256 137.916 26.234 140.061 25.915L140.171 26.971C137.96 27.411 135.562 27.433 133.802 27.433ZM147.325 23.836H154.486V25.002H147.325V23.836ZM146.258 27.136H155.476V28.335H146.258V27.136ZM150.119 24.364H151.582V27.521H150.119V24.364ZM147.325 19.986H154.409V21.163H148.788V24.342H147.325V19.986ZM158.852 20.074H160.04V21.559C160.04 24.177 159.138 26.542 157.114 27.477L156.245 26.267C158.016 25.497 158.852 23.539 158.852 21.559V20.074ZM159.138 20.074H160.326V21.559C160.326 23.44 161.129 25.31 162.867 26.058L162.009 27.235C160.04 26.333 159.138 24.067 159.138 21.559V20.074ZM163.351 19.282H164.825V29.501H163.351V19.282ZM169.042 27.114H178.26V28.302H169.042V27.114ZM172.903 24.936H174.366V27.4H172.903V24.936ZM170.01 19.942H171.462V21.504H175.807V19.942H177.259V25.244H170.01V19.942ZM171.462 22.648V24.078H175.807V22.648H171.462ZM182.934 19.876H184.21V20.613C184.21 22.824 182.637 24.782 179.997 25.299L179.37 24.089C181.669 23.693 182.934 22.076 182.934 20.613V19.876ZM183.231 19.876H184.496V20.613C184.496 22.109 185.75 23.693 188.06 24.089L187.433 25.299C184.793 24.782 183.231 22.857 183.231 20.613V19.876ZM179.161 27.048H188.379V28.236H179.161V27.048ZM194.637 22.054H196.518V23.209H194.637V22.054ZM196.331 19.293H197.794V26.817H196.331V19.293ZM191.062 28.137H198.025V29.303H191.062V28.137ZM191.062 26.179H192.536V28.951H191.062V26.179ZM189.742 24.287H190.534C192.371 24.287 193.449 24.254 194.714 24.045L194.835 25.189C193.559 25.431 192.415 25.464 190.534 25.464H189.742V24.287ZM189.742 20.063H194.373V21.229H191.194V24.408H189.742V20.063ZM190.754 22.164H194.054V23.297H190.754V22.164ZM201.421 27.4062L201.378 27.8359C201.344 28.1797 201.279 28.5221 201.183 28.8633C201.089 29.207 200.99 29.5182 200.886 29.7969C200.784 30.0755 200.702 30.2943 200.64 30.4531H199.562C199.601 30.2995 199.654 30.0846 199.722 29.8086C199.789 29.5352 199.853 29.2279 199.913 28.8867C199.973 28.5456 200.011 28.1979 200.026 27.8437L200.046 27.4062H201.421ZM205.579 18.334H207.282V19.907H209.713V18.334H211.429V24.171H205.579V18.334ZM207.282 21.233V22.819H209.713V21.233H207.282ZM206.762 25.367H214.978V29.657H213.236V26.732H206.762V25.367ZM213.236 17.619H214.978V24.808H213.236V17.619ZM219.631 18.464C221.23 18.464 222.257 20.115 222.257 22.832C222.257 25.562 221.23 27.213 219.631 27.213C218.045 27.213 217.031 25.562 217.031 22.832C217.031 20.115 218.045 18.464 219.631 18.464ZM219.631 20.089C218.981 20.089 218.604 20.999 218.604 22.832C218.604 24.678 218.981 25.575 219.631 25.575C220.294 25.575 220.671 24.678 220.671 22.832C220.671 20.999 220.294 20.089 219.631 20.089ZM225.624 17.619H227.275V29.657H225.624V17.619ZM224.181 22.208H226.17V23.599H224.181V22.208ZM222.985 17.801H224.61V29.111H222.985V17.801ZM229.835 17.944H238.805V19.231H229.835V17.944ZM229.926 20.765H238.714V22.052H229.926V20.765ZM231.369 18.451H233.098V21.597H231.369V18.451ZM235.542 18.451H237.271V21.597H235.542V18.451ZM228.886 22.676H239.767V24.028H228.886V22.676ZM230.134 24.691H238.454V27.681H231.85V28.799H230.147V26.524H236.751V25.926H230.134V24.691ZM230.147 28.318H238.766V29.579H230.147V28.318ZM249.542 17.619H251.193V29.657H249.542V17.619ZM248.099 22.234H250.088V23.638H248.099V22.234ZM247.007 17.827H248.619V29.085H247.007V17.827ZM240.936 18.971H246.435V20.349H240.936V18.971ZM240.91 26.927L240.728 25.523C242.223 25.523 244.732 25.484 246.526 25.237L246.643 26.485C244.797 26.888 242.379 26.927 240.91 26.927ZM241.69 19.855H243.237V25.887H241.69V19.855ZM244.134 19.855H245.681V25.887H244.134V19.855ZM257.276 18.308H258.784V19.179C258.784 21.792 256.925 24.106 253.805 24.717L253.064 23.287C255.781 22.819 257.276 20.908 257.276 19.179V18.308ZM257.627 18.308H259.122V19.179C259.122 20.947 260.604 22.819 263.334 23.287L262.593 24.717C259.473 24.106 257.627 21.831 257.627 19.179V18.308ZM252.817 26.784H263.711V28.188H252.817V26.784Z" fill="white"/>
<path d="M81.707 4.334H84.619V8.457H81.707V4.334ZM84.052 4.803H82.274V7.988H84.052V4.803ZM85.942 3.711H86.523V10.053H85.942V3.711ZM88.5175 4.012H92.5915V4.488H88.5175V4.012ZM87.7895 6.28H93.5225V6.756H87.7895V6.28ZM90.3585 6.602H90.9325V8.093H90.3585V6.602ZM92.2135 4.012H92.7805V4.481C92.7805 5.006 92.7805 5.643 92.5705 6.511L92.0035 6.441C92.2135 5.594 92.2135 4.992 92.2135 4.481V4.012ZM88.3845 7.904H92.8225V10.046H92.2415V8.38H88.3845V7.904ZM96.2799 4.173C97.2669 4.173 97.9739 4.782 97.9739 5.664C97.9739 6.553 97.2669 7.162 96.2799 7.162C95.2929 7.162 94.5789 6.553 94.5789 5.664C94.5789 4.782 95.2929 4.173 96.2799 4.173ZM96.2799 4.677C95.6219 4.677 95.1459 5.076 95.1459 5.664C95.1459 6.252 95.6219 6.658 96.2799 6.658C96.9309 6.658 97.4069 6.252 97.4069 5.664C97.4069 5.076 96.9309 4.677 96.2799 4.677ZM98.7999 3.711H99.3809V10.053H98.7999V3.711ZM94.3409 8.667L94.2569 8.184C95.4119 8.184 97.0079 8.177 98.3869 7.96L98.4359 8.387C97.0149 8.66 95.4679 8.667 94.3409 8.667ZM104.177 3.928H104.653V4.432C104.653 5.622 103.96 6.574 102.882 6.952L102.595 6.483C103.554 6.168 104.177 5.37 104.177 4.432V3.928ZM104.282 3.928H104.751V4.418C104.751 5.272 105.374 6.014 106.305 6.308L106.004 6.763C104.968 6.406 104.282 5.524 104.282 4.418V3.928ZM106.963 3.718H107.544V7.015H106.963V3.718ZM107.292 5.097H108.475V5.58H107.292V5.097ZM103.526 7.309H107.544V8.828H104.114V9.773H103.54V8.387H106.977V7.771H103.526V7.309ZM103.54 9.514H107.775V9.976H103.54V9.514ZM110.757 4.201C111.688 4.201 112.346 5.062 112.346 6.406C112.346 7.757 111.688 8.618 110.757 8.618C109.826 8.618 109.168 7.757 109.168 6.406C109.168 5.062 109.826 4.201 110.757 4.201ZM110.757 4.726C110.141 4.726 109.721 5.384 109.721 6.406C109.721 7.435 110.141 8.107 110.757 8.107C111.366 8.107 111.793 7.435 111.793 6.406C111.793 5.384 111.366 4.726 110.757 4.726ZM113.354 3.718H113.942V10.046H113.354V3.718ZM113.802 6.245H114.978V6.735H113.802V6.245ZM120.054 6.91H120.628V8.002H120.054V6.91ZM118.178 7.876H122.497V9.962H118.178V7.876ZM121.93 8.345H118.752V9.493H121.93V8.345ZM117.478 6.63H123.197V7.106H117.478V6.63ZM120.047 3.781H120.544V4.061C120.544 5.167 119.319 5.965 118.017 6.161L117.807 5.699C118.941 5.552 120.047 4.866 120.047 4.061V3.781ZM120.138 3.781H120.635V4.061C120.635 4.852 121.755 5.552 122.875 5.699L122.658 6.161C121.37 5.965 120.138 5.153 120.138 4.061V3.781ZM125.681 3.991H126.164V4.376C126.164 5.419 125.443 6.231 124.365 6.553L124.085 6.091C125.044 5.832 125.681 5.153 125.681 4.376V3.991ZM125.793 3.991H126.276V4.376C126.276 5.104 126.899 5.713 127.844 5.944L127.578 6.399C126.5 6.119 125.793 5.37 125.793 4.376V3.991ZM125.73 7.246H126.311V9.85H125.73V7.246ZM128.53 3.718H129.104V10.053H128.53V3.718ZM123.987 7.596L123.91 7.106C125.093 7.106 126.696 7.092 128.082 6.896L128.124 7.323C126.703 7.575 125.149 7.596 123.987 7.596ZM131.134 5.615H135.432V6.091H131.134V5.615ZM130.357 6.938H136.097V7.414H130.357V6.938ZM131.134 3.949H131.708V5.853H131.134V3.949ZM131.092 9.416H135.467V9.892H131.092V9.416ZM131.092 8.044H131.666V9.542H131.092V8.044ZM141.649 4.649H143.581V5.125H141.649V4.649ZM141.649 6.063H143.581V6.546H141.649V6.063ZM139.752 7.799H143.973V10.046H143.392V8.268H139.752V7.799ZM143.392 3.718H143.973V7.449H143.392V3.718ZM140.494 4.068C141.425 4.068 142.125 4.698 142.125 5.594C142.125 6.49 141.425 7.113 140.494 7.113C139.556 7.113 138.863 6.49 138.863 5.594C138.863 4.698 139.556 4.068 140.494 4.068ZM140.494 4.565C139.878 4.565 139.423 4.992 139.423 5.594C139.423 6.196 139.878 6.616 140.494 6.616C141.11 6.616 141.572 6.196 141.572 5.594C141.572 4.992 141.11 4.565 140.494 4.565ZM146.758 4.264H147.234V5.398C147.234 6.798 146.478 8.163 145.477 8.695L145.12 8.233C146.037 7.771 146.758 6.553 146.758 5.398V4.264ZM146.863 4.264H147.332V5.398C147.332 6.511 148.039 7.666 148.935 8.114L148.578 8.576C147.598 8.051 146.863 6.756 146.863 5.398V4.264ZM149.488 3.718H150.076V10.046H149.488V3.718ZM149.936 6.28H151.112V6.77H149.936V6.28ZM151.644 6.658H157.384V7.099H151.644V6.658ZM152.323 7.61H156.663V8.961H152.918V9.703H152.344V8.562H156.096V8.023H152.323V7.61ZM152.344 9.549H156.866V9.969H152.344V9.549ZM152.372 3.9H156.642V5.216H152.96V5.902H152.386V4.824H156.075V4.313H152.372V3.9ZM152.386 5.762H156.761V6.182H152.386V5.762ZM160.318 4.285H163.223V7.218H160.318V4.285ZM162.656 4.754H160.885V6.749H162.656V4.754ZM164.385 3.711H164.966V8.352H164.385V3.711ZM164.784 5.643H165.904V6.126H164.784V5.643ZM161.025 9.43H165.253V9.906H161.025V9.43ZM161.025 7.911H161.606V9.633H161.025V7.911ZM171.202 6.238H172.371V6.728H171.202V6.238ZM170.775 3.711H171.363V10.046H170.775V3.711ZM166.743 4.334H167.324V8.254H166.743V4.334ZM166.743 7.953H167.247C168.185 7.953 169.144 7.89 170.187 7.673L170.257 8.156C169.179 8.38 168.206 8.443 167.247 8.443H166.743V7.953ZM177.215 3.711H177.803V10.053H177.215V3.711ZM177.663 6.21H178.839V6.7H177.663V6.21ZM173.204 7.988H173.701C174.87 7.988 175.689 7.946 176.634 7.771L176.697 8.261C175.724 8.443 174.891 8.478 173.701 8.478H173.204V7.988ZM173.204 4.327H176.144V4.803H173.778V8.205H173.204V4.327Z" fill="white"/>
<path d="M89.8894 43.426V38.6987H92.7424V39.2065H90.4619V40.8038H92.5947V41.3116H90.4619V42.9182H92.7794V43.426H89.8894ZM95.7316 40.8085V41.3163H93.6634V40.8085H95.7316ZM96.887 42.074H97.355C98.4535 42.074 99.2205 42.0415 100.124 41.892L100.176 42.3275C99.253 42.49 98.473 42.5225 97.355 42.5225H96.887V42.074ZM96.887 38.59H99.734V39.0385H97.42V42.23H96.887V38.59ZM97.29 40.2345H99.5195V40.67H97.29V40.2345ZM100.794 38.057H101.333V43.933H100.794V38.057ZM104.635 39.7795H105.928V40.215H104.635V39.7795ZM106.955 38.057H107.469V42.048H106.955V38.057ZM105.792 38.161H106.305V41.5215H105.792V38.161ZM105.233 41.7035H105.694V41.892C105.694 42.945 104.622 43.7055 103.439 43.9135L103.231 43.4845C104.271 43.322 105.233 42.672 105.233 41.892V41.7035ZM105.304 41.7035H105.772V41.892C105.772 42.672 106.741 43.322 107.774 43.4845L107.566 43.9135C106.383 43.7055 105.304 42.945 105.304 41.892V41.7035ZM104.57 38.551H105.096C105.096 39.994 104.466 41.151 102.808 41.8725L102.542 41.476C104.011 40.852 104.57 39.89 104.57 38.694V38.551ZM102.815 38.551H104.758V38.993H102.815V38.551ZM104.518 39.656V40.033L102.626 40.2345L102.542 39.786L104.518 39.656ZM111.127 38.4275C112.349 38.4275 113.259 39.0775 113.259 40.0525C113.259 41.034 112.349 41.6775 111.127 41.6775C109.905 41.6775 108.989 41.034 108.989 40.0525C108.989 39.0775 109.905 38.4275 111.127 38.4275ZM111.127 38.8695C110.198 38.8695 109.509 39.344 109.509 40.0525C109.509 40.7545 110.198 41.2355 111.127 41.2355C112.057 41.2355 112.746 40.7545 112.746 40.0525C112.746 39.344 112.057 38.8695 111.127 38.8695ZM108.475 42.7045H113.799V43.1595H108.475V42.7045ZM114.455 42.763H119.778V43.2115H114.455V42.763ZM116.834 41.502H117.373V42.9515H116.834V41.502ZM115.098 38.4925H119.122V40.2735H115.651V41.45H115.118V39.838H118.589V38.928H115.098V38.4925ZM115.118 41.2225H119.258V41.6645H115.118V41.2225ZM124.024 40.787H124.557V41.892H124.024V40.787ZM123.179 41.723H123.719V42.3535H126.507V41.723H127.04V43.855H123.179V41.723ZM123.719 42.776V43.4195H126.507V42.776H123.719ZM126.501 38.057H127.04V41.4305H126.501V38.057ZM122.341 41.073L122.269 40.631C123.368 40.631 124.83 40.6245 126.111 40.4555L126.15 40.8455C124.837 41.0665 123.413 41.073 122.341 41.073ZM123.953 38.2H124.388V38.4925C124.388 39.344 123.745 40.0135 122.763 40.2605L122.523 39.851C123.381 39.643 123.953 39.11 123.953 38.4925V38.2ZM124.07 38.2H124.512V38.4925C124.512 39.0905 125.09 39.5845 125.929 39.76L125.701 40.176C124.726 39.9485 124.07 39.318 124.07 38.4925V38.2ZM128.801 38.642H132.584V39.0905H128.801V38.642ZM128.242 42.6655H133.553V43.114H128.242V42.6655ZM130.303 40.566H130.842V42.8865H130.303V40.566ZM132.383 38.642H132.916V39.227C132.916 39.955 132.916 40.761 132.701 41.9505L132.162 41.879C132.383 40.7545 132.383 39.929 132.383 39.227V38.642ZM140.34 38.057H140.879V42.4315H140.34V38.057ZM136.219 38.5315H139.313V38.9735H136.219V38.5315ZM136.121 41.5475L136.063 41.086C137.025 41.086 138.396 41.073 139.495 40.943L139.527 41.346C138.396 41.528 137.077 41.5475 136.121 41.5475ZM136.804 38.9085H137.324V41.164H136.804V38.9085ZM138.208 38.9085H138.728V41.164H138.208V38.9085ZM139.365 39.1685H140.626V39.6105H139.365V39.1685ZM139.365 40.293H140.626V40.735H139.365V40.293ZM137.122 43.361H141.035V43.803H137.122V43.361ZM137.122 42.074H137.662V43.6405H137.122V42.074ZM146.306 38.0505H146.846V43.9395H146.306V38.0505ZM142.367 42.074H142.855C143.836 42.074 144.714 42.035 145.754 41.866L145.812 42.308C144.746 42.4835 143.862 42.5225 142.855 42.5225H142.367V42.074ZM142.354 38.603H145.071V40.7025H142.907V42.243H142.367V40.2605H144.525V39.045H142.354V38.603ZM151.987 38.057H152.526V43.933H151.987V38.057ZM152.396 40.4685H153.488V40.9235H152.396V40.4685ZM147.976 38.993H151.441V39.435H147.976V38.993ZM149.731 39.9225C150.563 39.9225 151.161 40.4815 151.161 41.2745C151.161 42.0675 150.563 42.6265 149.731 42.6265C148.906 42.6265 148.301 42.0675 148.301 41.2745C148.301 40.4815 148.906 39.9225 149.731 39.9225ZM149.731 40.371C149.198 40.371 148.815 40.7415 148.815 41.2745C148.815 41.801 149.198 42.178 149.731 42.178C150.264 42.178 150.648 41.801 150.648 41.2745C150.648 40.7415 150.264 40.371 149.731 40.371ZM149.452 38.1285H149.991V39.1945H149.452V38.1285ZM158.46 38.057H158.98V43.933H158.46V38.057ZM155.912 40.4555H157.394V40.891H155.912V40.4555ZM157.238 38.2065H157.745V43.634H157.238V38.2065ZM155.984 38.798H156.504C156.504 40.3385 155.886 41.723 154.3 42.6655L153.982 42.282C155.366 41.45 155.984 40.28 155.984 38.8955V38.798ZM154.242 38.798H156.185V39.24H154.242V38.798Z" fill="white"/>
<path d="M84.5848 38.905H81.5848V44.415H87.1849V41.2319" stroke="white"/>
<path d="M82.5042 40.4949L84.3412 42.637L88.2279 37.9241" stroke="white"/>
</g>
</g>
<defs>
<clipPath id="clip0_14_2">
<rect width="345" height="47" fill="white" transform="translate(0.5 0.5)"/>
</clipPath>
</defs>
</svg>
