<svg width="801" height="110" viewBox="0 0 801 110" fill="none" xmlns="http://www.w3.org/2000/svg">
<g clip-path="url(#clip0_14_15)">
<mask id="mask0_14_15" style="mask-type:luminance" maskUnits="userSpaceOnUse" x="0" y="0" width="801" height="110">
<path d="M800.5 0.5H0.5V109.5H800.5V0.5Z" fill="white"/>
</mask>
<g mask="url(#mask0_14_15)">
<path d="M104.1 42.406H114.512V46.472H104.1V42.406ZM104.1 50.044H114.512V54.11H104.1V50.044ZM93.992 60.114H117.97V72.882H112.916V64.104H93.992V60.114ZM112.916 37.694H117.97V58.518H112.916V37.694ZM98.248 39.518C103.492 39.518 107.52 43.166 107.52 48.22C107.52 53.312 103.492 56.96 98.248 56.96C92.966 56.96 88.938 53.312 88.938 48.22C88.938 43.166 92.966 39.518 98.248 39.518ZM98.248 43.812C95.664 43.812 93.764 45.446 93.764 48.22C93.764 51.032 95.664 52.666 98.248 52.666C100.794 52.666 102.732 51.032 102.732 48.22C102.732 45.446 100.794 43.812 98.248 43.812ZM131.381 40.392H135.485V45.522C135.485 54.224 132.445 62.394 125.795 65.662L122.755 61.596C128.683 58.822 131.381 52.058 131.381 45.522V40.392ZM132.407 40.392H136.435V45.522C136.435 51.83 138.943 58.252 144.567 60.988L141.527 65.016C135.181 61.786 132.407 53.958 132.407 45.522V40.392ZM145.973 37.694H151.065V72.882H145.973V37.694ZM149.925 51.222H156.157V55.44H149.925V51.222ZM166.338 55.516H171.392V63.838H166.338V55.516ZM168.808 39.746C174.242 39.746 178.384 43.356 178.384 48.41C178.384 53.464 174.242 57.074 168.808 57.074C163.336 57.074 159.232 53.464 159.232 48.41C159.232 43.356 163.336 39.746 168.808 39.746ZM168.808 44.04C166.148 44.04 164.172 45.636 164.172 48.41C164.172 51.146 166.148 52.78 168.808 52.78C171.468 52.78 173.444 51.146 173.444 48.41C173.444 45.636 171.468 44.04 168.808 44.04ZM181.158 37.694H186.212V72.882H181.158V37.694ZM184.654 51.45H190.848V55.668H184.654V51.45ZM158.662 65.89L158.054 61.824C164.134 61.786 172.342 61.824 179.334 60.874L179.714 64.56C172.418 65.928 164.59 65.928 158.662 65.89ZM202.186 55.06H234.03V59.088H202.186V55.06ZM215.98 57.606H221.072V65.016H215.98V57.606ZM206.1 39.176H230.002V52.248H206.1V39.176ZM225.024 43.128H211.04V48.296H225.024V43.128ZM205.872 68.246H230.534V72.274H205.872V68.246ZM205.872 62.052H210.888V69.576H205.872V62.052ZM245.275 58.518H250.329V64.218H245.275V58.518ZM260.057 37.694H265.149V72.882H260.057V37.694ZM263.363 51.982H269.557V56.162H263.363V51.982ZM237.371 67.03L236.763 62.964C242.843 62.964 251.203 62.926 258.309 61.938L258.689 65.586C251.279 67.03 243.299 67.03 237.371 67.03ZM237.409 41.57H258.119V45.522H237.409V41.57ZM247.821 46.928C252.837 46.928 256.409 49.588 256.409 53.502C256.409 57.454 252.837 60.114 247.821 60.114C242.767 60.114 239.233 57.454 239.233 53.502C239.233 49.588 242.767 46.928 247.821 46.928ZM247.821 50.728C245.503 50.728 244.021 51.716 244.021 53.502C244.021 55.326 245.503 56.314 247.821 56.314C250.101 56.314 251.621 55.326 251.621 53.502C251.621 51.716 250.101 50.728 247.821 50.728ZM245.275 37.884H250.329V44.534H245.275V37.884ZM283.424 40.012C288.972 40.012 293.114 43.622 293.114 48.676C293.114 53.768 288.972 57.378 283.424 57.378C277.914 57.378 273.696 53.768 273.696 48.676C273.696 43.622 277.914 40.012 283.424 40.012ZM283.424 44.344C280.726 44.344 278.674 45.94 278.674 48.676C278.674 51.45 280.726 53.046 283.424 53.046C286.122 53.046 288.174 51.45 288.174 48.676C288.174 45.94 286.122 44.344 283.424 44.344ZM296.42 37.656H301.474V72.958H296.42V37.656ZM272.86 65.814L272.252 61.748C278.446 61.748 287.072 61.672 294.482 60.57L294.862 64.218C287.224 65.738 278.94 65.814 272.86 65.814ZM319.576 53.388H344.314V57.416H319.576V53.388ZM315.89 64.788H347.734V68.93H315.89V64.788ZM329.228 55.212H334.282V66.118H329.228V55.212ZM319.576 40.088H344.048V44.154H324.63V55.136H319.576V40.088ZM359.397 40.392H363.501V45.522C363.501 54.566 360.385 62.736 353.393 65.966L350.391 61.786C356.509 59.126 359.397 52.362 359.397 45.522V40.392ZM360.385 40.392H364.489V45.522C364.489 52.02 367.263 58.48 373.267 61.064L370.303 65.13C363.501 62.014 360.385 54.186 360.385 45.522V40.392ZM374.939 37.656H380.031V72.958H374.939V37.656ZM394.599 64.712H426.443V68.816H394.599V64.712ZM407.937 57.188H412.991V65.7H407.937V57.188ZM397.943 39.936H402.959V45.332H417.969V39.936H422.985V58.252H397.943V39.936ZM402.959 49.284V54.224H417.969V49.284H402.959ZM442.59 39.708H446.998V42.254C446.998 49.892 441.564 56.656 432.444 58.442L430.278 54.262C438.22 52.894 442.59 47.308 442.59 42.254V39.708ZM443.616 39.708H447.986V42.254C447.986 47.422 452.318 52.894 460.298 54.262L458.132 58.442C449.012 56.656 443.616 50.006 443.616 42.254V39.708ZM429.556 64.484H461.4V68.588H429.556V64.484ZM483.019 47.232H489.517V51.222H483.019V47.232ZM488.871 37.694H493.925V63.686H488.871V37.694ZM470.669 68.246H494.723V72.274H470.669V68.246ZM470.669 61.482H475.761V71.058H470.669V61.482ZM466.109 54.946H468.845C475.191 54.946 478.915 54.832 483.285 54.11L483.703 58.062C479.295 58.898 475.343 59.012 468.845 59.012H466.109V54.946ZM466.109 40.354H482.107V44.382H471.125V55.364H466.109V40.354ZM469.605 47.612H481.005V51.526H469.605V47.612ZM506.454 65.7216L506.306 67.206C506.189 68.3935 505.964 69.5765 505.631 70.755C505.307 71.9425 504.965 73.0175 504.605 73.9801C504.254 74.9427 503.971 75.6984 503.755 76.2472H500.031C500.166 75.7164 500.35 74.9742 500.584 74.0206C500.818 73.076 501.038 72.0144 501.245 70.8359C501.452 69.6574 501.583 68.4564 501.637 67.233L501.704 65.7216H506.454ZM520.653 35.874H526.286V41.077H534.327V35.874H540.003V55.181H520.653V35.874ZM526.286 45.463V50.709H534.327V45.463H526.286ZM524.566 59.137H551.742V73.327H545.98V63.652H524.566V59.137ZM545.98 33.509H551.742V57.288H545.98V33.509ZM567.133 36.304C572.422 36.304 575.819 41.765 575.819 50.752C575.819 59.782 572.422 65.243 567.133 65.243C561.887 65.243 558.533 59.782 558.533 50.752C558.533 41.765 561.887 36.304 567.133 36.304ZM567.133 41.679C564.983 41.679 563.736 44.689 563.736 50.752C563.736 56.858 564.983 59.825 567.133 59.825C569.326 59.825 570.573 56.858 570.573 50.752C570.573 44.689 569.326 41.679 567.133 41.679ZM586.956 33.509H592.417V73.327H586.956V33.509ZM582.183 48.688H588.762V53.289H582.183V48.688ZM578.227 34.111H583.602V71.521H578.227V34.111ZM600.884 34.584H630.554V38.841H600.884V34.584ZM601.185 43.915H630.253V48.172H601.185V43.915ZM605.958 36.261H611.677V46.667H605.958V36.261ZM619.761 36.261H625.48V46.667H619.761V36.261ZM597.745 50.236H633.736V54.708H597.745V50.236ZM601.873 56.901H629.393V66.791H607.549V70.489H601.916V62.964H623.76V60.986H601.873V56.901ZM601.916 68.898H630.425V73.069H601.916V68.898ZM666.069 33.509H671.53V73.327H666.069V33.509ZM661.296 48.774H667.875V53.418H661.296V48.774ZM657.684 34.197H663.016V71.435H657.684V34.197ZM637.603 37.981H655.792V42.539H637.603V37.981ZM637.517 64.297L636.915 59.653C641.86 59.653 650.159 59.524 656.093 58.707L656.48 62.835C650.374 64.168 642.376 64.297 637.517 64.297ZM640.097 40.905H645.214V60.857H640.097V40.905ZM648.181 40.905H653.298V60.857H648.181V40.905ZM691.651 35.788H696.639V38.669C696.639 47.312 690.49 54.966 680.17 56.987L677.719 52.257C686.706 50.709 691.651 44.388 691.651 38.669V35.788ZM692.812 35.788H697.757V38.669C697.757 44.517 702.659 50.709 711.689 52.257L709.238 56.987C698.918 54.966 692.812 47.441 692.812 38.669V35.788ZM676.902 63.824H712.936V68.468H676.902V63.824Z" fill="white"/>
<path d="M89.1715 5.133H98.1155V17.7965H89.1715V5.133ZM96.374 6.5735H90.913V16.356H96.374V6.5735ZM102.179 3.2195H103.964V22.6985H102.179V3.2195ZM110.089 4.144H122.602V5.606H110.089V4.144ZM107.853 11.11H125.462V12.572H107.853V11.11ZM115.744 12.099H117.507V16.6785H115.744V12.099ZM121.441 4.144H123.183V5.5845C123.183 7.197 123.183 9.1535 122.538 11.8195L120.796 11.6045C121.441 9.003 121.441 7.154 121.441 5.5845V4.144ZM109.681 16.098H123.312V22.677H121.527V17.56H109.681V16.098ZM133.931 4.6385C136.963 4.6385 139.134 6.509 139.134 9.218C139.134 11.9485 136.963 13.819 133.931 13.819C130.9 13.819 128.707 11.9485 128.707 9.218C128.707 6.509 130.9 4.6385 133.931 4.6385ZM133.931 6.1865C131.91 6.1865 130.448 7.412 130.448 9.218C130.448 11.024 131.91 12.271 133.931 12.271C135.931 12.271 137.393 11.024 137.393 9.218C137.393 7.412 135.931 6.1865 133.931 6.1865ZM141.671 3.2195H143.456V22.6985H141.671V3.2195ZM127.976 18.4415L127.718 16.958C131.265 16.958 136.167 16.9365 140.403 16.27L140.553 17.5815C136.189 18.42 131.437 18.4415 127.976 18.4415ZM162.293 6.1005H168.227V7.5625H162.293V6.1005ZM162.293 10.4435H168.227V11.927H162.293V10.4435ZM156.467 15.7755H169.431V22.677H167.647V17.216H156.467V15.7755ZM167.647 3.241H169.431V14.7005H167.647V3.241ZM158.746 4.316C161.605 4.316 163.755 6.251 163.755 9.003C163.755 11.755 161.605 13.6685 158.746 13.6685C155.865 13.6685 153.736 11.755 153.736 9.003C153.736 6.251 155.865 4.316 158.746 4.316ZM158.746 5.8425C156.854 5.8425 155.456 7.154 155.456 9.003C155.456 10.852 156.854 12.142 158.746 12.142C160.638 12.142 162.057 10.852 162.057 9.003C162.057 7.154 160.638 5.8425 158.746 5.8425ZM177.987 4.918H179.449V8.401C179.449 12.701 177.127 16.8935 174.052 18.5275L172.956 17.1085C175.772 15.6895 177.987 11.9485 177.987 8.401V4.918ZM178.309 4.918H179.75V8.401C179.75 11.8195 181.921 15.367 184.673 16.743L183.577 18.162C180.567 16.5495 178.309 12.572 178.309 8.401V4.918ZM186.372 3.241H188.178V22.677H186.372V3.241ZM187.748 11.11H191.36V12.615H187.748V11.11ZM192.992 12.271H210.622V13.6255H192.992V12.271ZM195.077 15.195H208.407V19.3445H196.905V21.6235H195.142V18.119H206.666V16.4635H195.077V15.195ZM195.142 21.1505H209.031V22.4405H195.142V21.1505ZM195.228 3.8H208.343V7.842H197.034V9.949H195.271V6.638H206.601V5.0685H195.228V3.8ZM195.271 9.519H208.708V10.809H195.271V9.519ZM219.634 4.9825H228.557V13.991H219.634V4.9825ZM226.815 6.423H221.376V12.5505H226.815V6.423ZM232.126 3.2195H233.91V17.474H232.126V3.2195ZM233.351 9.1535H236.791V10.637H233.351V9.1535ZM221.806 20.785H234.792V22.247H221.806V20.785ZM221.806 16.1195H223.59V21.4085H221.806V16.1195ZM253.065 10.981H256.655V12.486H253.065V10.981ZM251.753 3.2195H253.559V22.677H251.753V3.2195ZM239.369 5.133H241.154V17.173H239.369V5.133ZM239.369 16.2485H240.917C243.798 16.2485 246.744 16.055 249.947 15.3885L250.162 16.872C246.851 17.56 243.863 17.7535 240.917 17.7535H239.369V16.2485ZM271.532 3.2195H273.338V22.6985H271.532V3.2195ZM272.908 10.895H276.52V12.4H272.908V10.895ZM259.212 16.356H260.739C264.329 16.356 266.845 16.227 269.747 15.6895L269.941 17.1945C266.952 17.7535 264.394 17.861 260.739 17.861H259.212V16.356ZM259.212 5.1115H268.242V6.5735H260.975V17.0225H259.212V5.1115Z" fill="white"/>
<path d="M109.077 104.5V91.4091H116.978V92.8153H110.662V97.2386H116.569V98.6449H110.662V103.094H117.08V104.5H109.077ZM125.255 97.2514V98.6577H119.528V97.2514H125.255ZM128.455 100.756H129.751C132.793 100.756 134.917 100.666 137.419 100.252L137.563 101.458C135.007 101.908 132.847 101.998 129.751 101.998H128.455V100.756ZM128.455 91.108H136.339V92.35H129.931V101.188H128.455V91.108ZM129.571 95.662H135.745V96.868H129.571V95.662ZM139.273 89.632H140.767V105.904H139.273V89.632ZM149.91 94.402H153.492V95.608H149.91V94.402ZM156.336 89.632H157.758V100.684H156.336V89.632ZM153.114 89.92H154.536V99.226H153.114V89.92ZM151.566 99.73H152.844V100.252C152.844 103.168 149.874 105.274 146.598 105.85L146.022 104.662C148.902 104.212 151.566 102.412 151.566 100.252V99.73ZM151.764 99.73H153.06V100.252C153.06 102.412 155.742 104.212 158.604 104.662L158.028 105.85C154.752 105.274 151.764 103.168 151.764 100.252V99.73ZM149.73 91H151.188C151.188 94.996 149.442 98.2 144.852 100.198L144.114 99.1C148.182 97.372 149.73 94.708 149.73 91.396V91ZM144.87 91H150.252V92.224H144.87V91ZM149.586 94.06V95.104L144.348 95.662L144.114 94.42L149.586 94.06ZM167.89 90.658C171.274 90.658 173.794 92.458 173.794 95.158C173.794 97.876 171.274 99.658 167.89 99.658C164.506 99.658 161.968 97.876 161.968 95.158C161.968 92.458 164.506 90.658 167.89 90.658ZM167.89 91.882C165.316 91.882 163.408 93.196 163.408 95.158C163.408 97.102 165.316 98.434 167.89 98.434C170.464 98.434 172.372 97.102 172.372 95.158C172.372 93.196 170.464 91.882 167.89 91.882ZM160.546 102.502H175.288V103.762H160.546V102.502ZM177.105 102.664H191.847V103.906H177.105V102.664ZM183.693 99.172H185.187V103.186H183.693V99.172ZM178.887 90.838H190.029V95.77H180.417V99.028H178.941V94.564H188.553V92.044H178.887V90.838ZM178.941 98.398H190.407V99.622H178.941V98.398ZM203.604 97.192H205.08V100.252H203.604V97.192ZM201.264 99.784H202.758V101.53H210.48V99.784H211.956V105.688H201.264V99.784ZM202.758 102.7V104.482H210.48V102.7H202.758ZM210.462 89.632H211.956V98.974H210.462V89.632ZM198.942 97.984L198.744 96.76C201.786 96.76 205.836 96.742 209.382 96.274L209.49 97.354C205.854 97.966 201.912 97.984 198.942 97.984ZM203.406 90.028H204.612V90.838C204.612 93.196 202.83 95.05 200.112 95.734L199.446 94.6C201.822 94.024 203.406 92.548 203.406 90.838V90.028ZM203.73 90.028H204.954V90.838C204.954 92.494 206.556 93.862 208.878 94.348L208.248 95.5C205.548 94.87 203.73 93.124 203.73 90.838V90.028ZM216.833 91.252H227.309V92.494H216.833V91.252ZM215.285 102.394H229.991V103.636H215.285V102.394ZM220.991 96.58H222.485V103.006H220.991V96.58ZM226.751 91.252H228.227V92.872C228.227 94.888 228.227 97.12 227.633 100.414L226.139 100.216C226.751 97.102 226.751 94.816 226.751 92.872V91.252ZM248.786 89.632H250.28V101.746H248.786V89.632ZM237.374 90.946H245.942V92.17H237.374V90.946ZM237.104 99.298L236.942 98.02C239.606 98.02 243.404 97.984 246.446 97.624L246.536 98.74C243.404 99.244 239.75 99.298 237.104 99.298ZM238.994 91.99H240.434V98.236H238.994V91.99ZM242.882 91.99H244.322V98.236H242.882V91.99ZM246.086 92.71H249.578V93.934H246.086V92.71ZM246.086 95.824H249.578V97.048H246.086V95.824ZM239.876 104.32H250.712V105.544H239.876V104.32ZM239.876 100.756H241.37V105.094H239.876V100.756ZM265.308 89.614H266.802V105.922H265.308V89.614ZM254.4 100.756H255.75C258.468 100.756 260.898 100.648 263.778 100.18L263.94 101.404C260.988 101.89 258.54 101.998 255.75 101.998H254.4V100.756ZM254.364 91.144H261.888V96.958H255.894V101.224H254.4V95.734H260.376V92.368H254.364V91.144ZM281.039 89.632H282.533V105.904H281.039V89.632ZM282.173 96.31H285.197V97.57H282.173V96.31ZM269.933 92.224H279.527V93.448H269.933V92.224ZM274.793 94.798C277.097 94.798 278.753 96.346 278.753 98.542C278.753 100.738 277.097 102.286 274.793 102.286C272.507 102.286 270.833 100.738 270.833 98.542C270.833 96.346 272.507 94.798 274.793 94.798ZM274.793 96.04C273.317 96.04 272.255 97.066 272.255 98.542C272.255 100 273.317 101.044 274.793 101.044C276.269 101.044 277.331 100 277.331 98.542C277.331 97.066 276.269 96.04 274.793 96.04ZM274.019 89.83H275.513V92.782H274.019V89.83ZM298.965 89.632H300.405V105.904H298.965V89.632ZM291.909 96.274H296.013V97.48H291.909V96.274ZM295.581 90.046H296.985V105.076H295.581V90.046ZM292.107 91.684H293.547C293.547 95.95 291.837 99.784 287.445 102.394L286.563 101.332C290.397 99.028 292.107 95.788 292.107 91.954V91.684ZM287.283 91.684H292.665V92.908H287.283V91.684Z" fill="white"/>
<path d="M95.562 92.292H88V106.181H102.12V98.156" stroke="white" stroke-width="1.8"/>
<path d="M90.3154 96.302L94.9443 101.702L104.744 89.8191" stroke="white" stroke-width="1.8"/>
</g>
</g>
<defs>
<clipPath id="clip0_14_15">
<rect width="800" height="109" fill="white" transform="translate(0.5 0.5)"/>
</clipPath>
</defs>
</svg>
