<svg width="800" height="109" viewBox="0 0 800 109" fill="none" xmlns="http://www.w3.org/2000/svg">
<g clip-path="url(#clip0_5_19)">
<mask id="mask0_5_19" style="mask-type:luminance" maskUnits="userSpaceOnUse" x="0" y="0" width="800" height="109">
<path d="M800 0H0V109H800V0Z" fill="white"/>
</mask>
<g mask="url(#mask0_5_19)">
<path d="M131.558 64.212H163.402V68.316H131.558V64.212ZM144.896 56.688H149.95V65.2H144.896V56.688ZM134.902 39.436H139.918V44.832H154.928V39.436H159.944V57.752H134.902V39.436ZM139.918 48.784V53.724H154.928V48.784H139.918ZM179.549 39.208H183.957V41.754C183.957 49.392 178.523 56.156 169.403 57.942L167.237 53.762C175.179 52.394 179.549 46.808 179.549 41.754V39.208ZM180.575 39.208H184.945V41.754C184.945 46.922 189.277 52.394 197.257 53.762L195.091 57.942C185.971 56.156 180.575 49.506 180.575 41.754V39.208ZM166.515 63.984H198.359V68.088H166.515V63.984ZM219.978 46.732H226.476V50.722H219.978V46.732ZM225.83 37.194H230.884V63.186H225.83V37.194ZM207.628 67.746H231.682V71.774H207.628V67.746ZM207.628 60.982H212.72V70.558H207.628V60.982ZM203.068 54.446H205.804C212.15 54.446 215.874 54.332 220.244 53.61L220.662 57.562C216.254 58.398 212.302 58.512 205.804 58.512H203.068V54.446ZM203.068 39.854H219.066V43.882H208.084V54.864H203.068V39.854ZM206.564 47.112H217.964V51.026H206.564V47.112ZM247.063 36.965H264.22V41.48H247.063V36.965ZM252.18 48.36H257.813V61.862H252.18V48.36ZM261.941 36.965H267.574V40.19C267.574 44.06 267.574 48.876 266.499 55.498L260.909 54.982C261.941 48.618 261.941 44.017 261.941 40.19V36.965ZM270.971 33.009H276.69V72.827H270.971V33.009ZM275.013 49.005H282.022V53.735H275.013V49.005ZM245.558 64.786L245.042 60.185C252.051 60.185 261.339 60.056 269.165 59.067L269.466 63.238C261.425 64.614 252.481 64.786 245.558 64.786ZM284.943 36.492H308.378V41.007H284.943V36.492ZM296.682 42.254C302.401 42.254 306.443 45.221 306.443 49.607C306.443 53.993 302.401 56.917 296.682 56.917C290.92 56.917 286.878 53.993 286.878 49.607C286.878 45.221 290.92 42.254 296.682 42.254ZM296.682 46.554C294.102 46.554 292.382 47.586 292.382 49.607C292.382 51.585 294.102 52.617 296.682 52.617C299.219 52.617 300.982 51.585 300.982 49.607C300.982 47.586 299.219 46.554 296.682 46.554ZM310.571 33.009H316.29V57.992H310.571V33.009ZM314.699 43.286H321.579V47.93H314.699V43.286ZM289.716 59.626H316.29V72.827H310.571V64.184H289.716V59.626ZM293.801 32.794H299.52V39.072H293.801V32.794ZM360.079 33.009H365.798V56.874H360.079V33.009ZM364.207 42.684H371.087V47.371H364.207V42.684ZM339.224 58.637H365.798V72.827H360.079V63.195H339.224V58.637ZM335.612 35.503H341.288V40.749H349.071V35.503H354.747V54.853H335.612V35.503ZM341.288 45.135V50.381H349.071V45.135H341.288ZM389.101 52.144H394.82V57.691H389.101V52.144ZM374.008 48.79H409.999V53.262H374.008V48.79ZM378.437 34.17H405.441V46.683H378.437V34.17ZM399.808 38.599H384.07V42.297H399.808V38.599ZM378.136 55.756H405.656V65.99H383.812V69.516H378.179V62.034H400.023V60.013H378.136V55.756ZM378.179 68.269H406.688V72.569H378.179V68.269ZM415.328 35.89H432.356V40.491H415.328V35.89ZM420.23 45.178H425.906V55.154H420.23V45.178ZM430.12 35.89H435.753V38.384C435.753 41.179 435.753 45.135 434.807 50.08L429.26 49.478C430.12 44.576 430.12 41.136 430.12 38.384V35.89ZM439.623 33.009H445.385V62.808H439.623V33.009ZM443.106 45.135H450.115V49.822H443.106V45.135ZM418.811 67.581H446.632V72.139H418.811V67.581ZM418.811 60.142H424.53V69H418.811V60.142ZM413.522 57.476L413.006 52.961C419.886 52.961 429.475 52.832 437.473 51.714L437.817 55.756C429.604 57.304 420.359 57.476 413.522 57.476ZM459.943 65.2216L459.795 66.706C459.678 67.8935 459.453 69.0765 459.12 70.255C458.796 71.4425 458.454 72.5175 458.095 73.4801C457.744 74.4427 457.46 75.1984 457.244 75.7472H453.52C453.655 75.2164 453.839 74.4742 454.073 73.5206C454.307 72.576 454.528 71.5144 454.734 70.3359C454.941 69.1574 455.072 67.9564 455.126 66.733L455.193 65.2216H459.943ZM482.785 35.761C488.848 35.761 493.234 41.265 493.234 49.951C493.234 58.723 488.848 64.227 482.785 64.227C476.722 64.227 472.336 58.723 472.336 49.951C472.336 41.265 476.722 35.761 482.785 35.761ZM482.785 40.964C479.818 40.964 477.84 44.103 477.84 49.951C477.84 55.885 479.818 59.067 482.785 59.067C485.752 59.067 487.773 55.885 487.773 49.951C487.773 44.103 485.752 40.964 482.785 40.964ZM497.577 33.009H503.339V72.827H497.577V33.009ZM502.049 48.016H509.101V52.746H502.049V48.016ZM539.585 43.802V48.145L515.247 49.349L514.559 44.533L539.585 43.802ZM515.892 35.202H540.832V39.717H515.892V35.202ZM511.721 54.036H547.712V58.637H511.721V54.036ZM526.814 57.691H532.533V72.784H526.814V57.691ZM538.252 35.202H543.756V38.771C543.756 43.157 543.756 48.059 542.208 55.197L536.661 54.552C538.252 47.844 538.252 43.028 538.252 38.771V35.202ZM561.899 35.761C567.962 35.761 572.348 41.265 572.348 49.951C572.348 58.723 567.962 64.227 561.899 64.227C555.836 64.227 551.45 58.723 551.45 49.951C551.45 41.265 555.836 35.761 561.899 35.761ZM561.899 40.964C558.932 40.964 556.954 44.103 556.954 49.951C556.954 55.885 558.932 59.067 561.899 59.067C564.866 59.067 566.887 55.885 566.887 49.951C566.887 44.103 564.866 40.964 561.899 40.964ZM576.691 33.009H582.453V72.827H576.691V33.009ZM581.163 48.016H588.215V52.746H581.163V48.016ZM618.225 32.966H623.944V72.913H618.225V32.966ZM592.941 58.981H596.467C603.519 58.981 609.152 58.723 615.473 57.648L616.032 62.249C609.582 63.41 603.734 63.625 596.467 63.625H592.941V58.981ZM592.898 36.363H611.689V51.757H598.746V60.701H592.941V47.242H605.841V40.921H592.898V36.363ZM645.484 53.735H651.203V60.056H645.484V53.735ZM648.365 33.568C657.137 33.568 662.77 36.449 662.77 41.265C662.77 46.038 657.137 48.876 648.365 48.876C639.593 48.876 633.96 46.038 633.96 41.265C633.96 36.449 639.593 33.568 648.365 33.568ZM648.365 37.911C642.904 37.911 639.851 39.029 639.851 41.265C639.851 43.458 642.904 44.533 648.365 44.533C653.783 44.533 656.879 43.458 656.879 41.265C656.879 39.029 653.783 37.911 648.365 37.911ZM634.519 58.809H662.039V72.397H634.519V58.809ZM656.449 63.324H640.152V67.882H656.449V63.324ZM630.348 50.897H666.339V55.455H630.348V50.897Z" fill="white"/>
<path d="M132.881 4.676H145.394V6.1595H132.881V4.676ZM131.075 17.9845H148.641V19.468H131.075V17.9845ZM135.375 11.556H137.138V18.522H135.375V11.556ZM144.814 4.676H146.577V6.826C146.577 9.2985 146.577 11.8355 145.91 15.469L144.126 15.254C144.814 11.814 144.814 9.234 144.814 6.826V4.676ZM140.17 11.556H141.933V18.522H140.17V11.556ZM155.476 12.803H157.26V16.63H155.476V12.803ZM162.012 12.7815H163.775V16.63H162.012V12.7815ZM150.832 12.0935H168.397V13.5555H150.832V12.0935ZM152.788 15.985H166.226V22.177H164.441V17.4255H152.788V15.985ZM159.625 3.1925C163.818 3.1925 166.462 4.59 166.462 6.912C166.462 9.234 163.818 10.6315 159.625 10.6315C155.411 10.6315 152.788 9.234 152.788 6.912C152.788 4.59 155.411 3.1925 159.625 3.1925ZM159.625 4.6115C156.529 4.6115 154.616 5.45 154.616 6.912C154.616 8.3525 156.529 9.2125 159.625 9.2125C162.7 9.2125 164.635 8.3525 164.635 6.912C164.635 5.45 162.7 4.6115 159.625 4.6115ZM176.931 4.1385C179.963 4.1385 182.134 6.009 182.134 8.718C182.134 11.4485 179.963 13.319 176.931 13.319C173.9 13.319 171.707 11.4485 171.707 8.718C171.707 6.009 173.9 4.1385 176.931 4.1385ZM176.931 5.6865C174.91 5.6865 173.448 6.912 173.448 8.718C173.448 10.524 174.91 11.771 176.931 11.771C178.931 11.771 180.393 10.524 180.393 8.718C180.393 6.912 178.931 5.6865 176.931 5.6865ZM184.671 2.7195H186.456V22.1985H184.671V2.7195ZM170.976 17.9415L170.718 16.458C174.265 16.458 179.167 16.4365 183.403 15.77L183.553 17.0815C179.189 17.92 174.437 17.9415 170.976 17.9415ZM198.671 11.814H212.023V13.276H198.671V11.814ZM196.457 18.2425H214.065V19.7475H196.457V18.2425ZM204.326 12.4375H206.11V18.8445H204.326V12.4375ZM198.671 4.289H211.829V5.751H200.456V12.459H198.671V4.289ZM221.352 4.418H222.814V7.901C222.814 12.373 220.406 16.5225 217.224 18.135L216.128 16.673C219.009 15.297 221.352 11.5775 221.352 7.901V4.418ZM221.653 4.418H223.115V7.901C223.115 11.4485 225.437 15.0175 228.318 16.3505L227.243 17.7695C224.083 16.2215 221.653 12.2225 221.653 7.901V4.418ZM230.339 2.7195H232.124V22.1985H230.339V2.7195ZM243.882 10.2875H247.559V11.771H243.882V10.2875ZM250.805 2.741H252.525V22.177H250.805V2.741ZM246.957 3.1495H248.655V21.2095H246.957V3.1495ZM240.378 4.3535C242.893 4.3535 244.527 6.955 244.527 11.126C244.527 15.297 242.893 17.8985 240.378 17.8985C237.862 17.8985 236.25 15.297 236.25 11.126C236.25 6.955 237.862 4.3535 240.378 4.3535ZM240.378 6.009C238.851 6.009 237.884 7.987 237.884 11.126C237.884 14.265 238.851 16.243 240.378 16.243C241.926 16.243 242.893 14.265 242.893 11.126C242.893 7.987 241.926 6.009 240.378 6.009ZM265.488 9.32H270.906V10.782H265.488V9.32ZM260.801 4.418H262.263V7.8795C262.263 12.244 259.963 16.415 256.888 18.0705L255.749 16.6515C258.608 15.2325 260.801 11.4915 260.801 7.8795V4.418ZM261.145 4.418H262.586V7.8795C262.586 11.427 264.779 14.953 267.595 16.286L266.542 17.7265C263.403 16.1355 261.145 12.1365 261.145 7.8795V4.418ZM270.025 2.7195H271.788V22.1985H270.025V2.7195ZM282.412 4.4825H291.335V13.491H282.412V4.4825ZM289.593 5.923H284.154V12.0505H289.593V5.923ZM294.904 2.7195H296.688V16.974H294.904V2.7195ZM296.129 8.6535H299.569V10.137H296.129V8.6535ZM284.584 20.285H297.57V21.747H284.584V20.285ZM284.584 15.6195H286.368V20.9085H284.584V15.6195ZM315.843 10.481H319.434V11.986H315.843V10.481ZM314.532 2.7195H316.338V22.177H314.532V2.7195ZM302.148 4.633H303.932V16.673H302.148V4.633ZM302.148 15.7485H303.696C306.577 15.7485 309.522 15.555 312.726 14.8885L312.941 16.372C309.63 17.06 306.641 17.2535 303.696 17.2535H302.148V15.7485ZM321.174 18.221H338.782V19.7045H321.174V18.221ZM329.043 13.577H330.827V18.651H329.043V13.577ZM323.238 4.117H325.001V7.5785H334.912V4.117H336.675V14.05H323.238V4.117ZM325.001 9.019V12.588H334.912V9.019H325.001ZM343.317 8.5675H356.518V10.0295H343.317V8.5675ZM340.93 12.631H358.56V14.093H340.93V12.631ZM343.317 3.4505H345.08V9.2985H343.317V3.4505ZM343.188 20.242H356.625V21.704H343.188V20.242ZM343.188 16.028H344.951V20.629H343.188V16.028ZM380.064 2.741H381.849V14.4585H380.064V2.741ZM381.354 7.772H384.73V9.277H381.354V7.772ZM369.228 15.4905H381.849V22.177H380.064V16.9525H369.228V15.4905ZM367.573 3.945H369.336V6.9765H374.818V3.945H376.56V13.147H367.573V3.945ZM369.336 8.3955V11.728H374.818V8.3955H369.336ZM394.424 11.9215H396.187V14.91H394.424V11.9215ZM386.534 10.9325H404.099V12.373H386.534V10.9325ZM388.813 3.386H401.82V9.2985H388.813V3.386ZM400.079 4.805H390.576V7.8795H400.079V4.805ZM388.662 14.265H401.863V18.6295H390.468V20.9945H388.705V17.3395H400.1V15.641H388.662V14.265ZM388.705 20.5645H402.444V21.962H388.705V20.5645ZM407.366 4.246H415.966V5.708H407.366V4.246ZM410.29 8.589H412.053V13.448H410.29V8.589ZM415.256 4.246H417.019V5.278C417.019 6.5465 417.019 8.4815 416.503 11.04L414.762 10.8465C415.256 8.288 415.256 6.525 415.256 5.278V4.246ZM419.664 2.741H421.448V17.3825H419.664V2.741ZM420.631 9.062H424.222V10.5455H420.631V9.062ZM409.172 20.285H422.072V21.747H409.172V20.285ZM409.172 16.028H410.935V20.7365H409.172V16.028ZM406.377 14.2865L406.183 12.8245C409.645 12.8245 414.418 12.7385 418.352 12.201L418.481 13.491C414.439 14.2005 409.795 14.2865 406.377 14.2865Z" fill="white"/>
<path d="M155.712 90.374C158.106 90.374 159.798 92.588 159.798 96.044C159.798 99.518 158.106 101.732 155.712 101.732C153.318 101.732 151.626 99.518 151.626 96.044C151.626 92.588 153.318 90.374 155.712 90.374ZM155.712 91.724C154.128 91.724 153.048 93.416 153.048 96.044C153.048 98.69 154.128 100.418 155.712 100.418C157.278 100.418 158.376 98.69 158.376 96.044C158.376 93.416 157.278 91.724 155.712 91.724ZM162.39 89.132H163.902V105.404H162.39V89.132ZM163.542 95.63H166.566V96.89H163.542V95.63ZM179.759 89.114H181.253V105.422H179.759V89.114ZM172.667 90.374C175.079 90.374 176.807 92.588 176.807 96.044C176.807 99.518 175.079 101.732 172.667 101.732C170.273 101.732 168.545 99.518 168.545 96.044C168.545 92.588 170.273 90.374 172.667 90.374ZM172.667 91.724C171.083 91.724 169.967 93.416 169.967 96.044C169.967 98.69 171.083 100.418 172.667 100.418C174.269 100.418 175.367 98.69 175.367 96.044C175.367 93.416 174.269 91.724 172.667 91.724ZM188.613 97.34H190.107V101.228H188.613V97.34ZM189.351 90.176C191.853 90.176 193.653 91.742 193.653 94.01C193.653 96.278 191.853 97.844 189.351 97.844C186.849 97.844 185.049 96.278 185.049 94.01C185.049 91.742 186.849 90.176 189.351 90.176ZM189.351 91.454C187.695 91.454 186.507 92.498 186.507 94.01C186.507 95.522 187.695 96.566 189.351 96.566C191.007 96.566 192.195 95.522 192.195 94.01C192.195 92.498 191.007 91.454 189.351 91.454ZM195.507 89.132H197.001V105.404H195.507V89.132ZM196.569 95.828H199.575V97.088H196.569V95.828ZM184.527 101.894L184.311 100.652C187.245 100.634 191.169 100.616 194.481 100.166L194.607 101.282C191.169 101.858 187.371 101.894 184.527 101.894ZM217.254 89.132H218.748V98.924H217.254V89.132ZM218.334 93.452H221.16V94.694H218.334V93.452ZM208.524 99.842H218.748V105.188H208.524V99.842ZM217.29 101.048H209.982V103.982H217.29V101.048ZM206.166 90.842H215.778V92.066H206.166V90.842ZM210.972 92.858C213.294 92.858 214.86 94.01 214.86 95.774C214.86 97.538 213.294 98.654 210.972 98.654C208.632 98.654 207.066 97.538 207.066 95.774C207.066 94.01 208.632 92.858 210.972 92.858ZM210.972 94.01C209.478 94.01 208.488 94.694 208.488 95.774C208.488 96.836 209.478 97.52 210.972 97.52C212.43 97.52 213.438 96.836 213.438 95.774C213.438 94.694 212.43 94.01 210.972 94.01ZM210.216 88.988H211.71V91.472H210.216V88.988ZM225.407 91.076H226.667C226.667 94.568 226.199 98.402 223.877 101.57L222.707 100.886C224.939 97.988 225.407 94.586 225.407 91.184V91.076ZM223.049 91.076H226.145V92.318H223.049V91.076ZM228.989 91.076H230.267C230.267 94.514 230.051 99.086 227.495 102.614L226.307 101.93C228.791 98.69 228.989 94.46 228.989 91.202V91.076ZM227.207 91.076H229.781V92.318H227.207V91.076ZM235.127 89.132H236.567V105.404H235.127V89.132ZM229.511 95.522H232.427V96.746H229.511V95.522ZM232.121 89.546H233.525V104.576H232.121V89.546ZM250.263 89.114H251.757V105.422H250.263V89.114ZM251.397 95.594H254.421V96.854H251.397V95.594ZM239.895 100.256H241.191C244.251 100.256 246.375 100.148 248.841 99.68L249.003 100.922C246.465 101.372 244.305 101.498 241.191 101.498H239.895V100.256ZM239.859 90.644H247.221V96.476H241.371V100.76H239.895V95.252H245.745V91.868H239.859V90.644ZM263.6 91.994H268.154V93.218H263.6V91.994ZM263.6 95.468H268.19V96.71H263.6V95.468ZM256.544 90.536H263.978V98.168H256.544V90.536ZM262.502 91.742H258.002V96.962H262.502V91.742ZM267.686 89.15H269.18V101.03H267.686V89.15ZM258.722 103.82H269.576V105.044H258.722V103.82ZM258.722 99.95H260.216V104.378H258.722V99.95ZM278.237 100.148H279.479C282.503 100.148 284.447 100.076 286.715 99.644L286.877 100.868C284.537 101.3 282.575 101.408 279.479 101.408H278.237V100.148ZM278.237 90.68H285.635V91.904H279.713V100.616H278.237V90.68ZM289.343 89.132H290.837V105.44H289.343V89.132ZM284.681 95.018H289.955V96.26H284.681V95.018ZM305.636 93.956H307.112V96.44H305.636V93.956ZM305.42 90.122H306.734V90.626C306.734 93.074 303.71 94.64 300.29 94.964L299.804 93.83C302.738 93.596 305.42 92.336 305.42 90.626V90.122ZM306.068 90.122H307.364V90.626C307.364 92.318 310.046 93.596 312.98 93.83L312.494 94.964C309.092 94.64 306.068 93.074 306.068 90.626V90.122ZM300.38 89.636H312.422V90.806H300.38V89.636ZM300.398 99.23H312.386V100.418H300.398V99.23ZM299.03 95.882H313.79V97.088H299.03V95.882ZM306.392 101.21C309.524 101.21 311.27 101.948 311.27 103.352C311.27 104.774 309.524 105.494 306.392 105.494C303.26 105.494 301.496 104.774 301.496 103.352C301.496 101.948 303.26 101.21 306.392 101.21ZM306.392 102.236C304.232 102.236 303.026 102.614 303.026 103.352C303.026 104.09 304.232 104.468 306.392 104.468C308.534 104.468 309.758 104.09 309.758 103.352C309.758 102.614 308.534 102.236 306.392 102.236ZM305.654 97.736H307.13V99.986H305.654V97.736ZM315.589 97.682H330.295V98.906H315.589V97.682ZM317.497 103.82H328.675V105.044H317.497V103.82ZM317.497 100.328H318.991V104.198H317.497V100.328ZM322.951 89.672C326.425 89.672 328.675 90.896 328.675 92.93C328.675 94.946 326.425 96.17 322.951 96.17C319.459 96.17 317.227 94.946 317.227 92.93C317.227 90.896 319.459 89.672 322.951 89.672ZM322.951 90.896C320.395 90.896 318.757 91.652 318.757 92.93C318.757 94.208 320.395 94.964 322.951 94.964C325.507 94.964 327.145 94.208 327.145 92.93C327.145 91.652 325.507 90.896 322.951 90.896Z" fill="white"/>
<path d="M138.562 91.792H131V105.681H145.12V97.656" stroke="white" stroke-width="1.8"/>
<path d="M133.315 95.802L137.944 101.202L147.744 89.3191" stroke="white" stroke-width="1.8"/>
</g>
</g>
<defs>
<clipPath id="clip0_5_19">
<rect width="800" height="109" fill="white"/>
</clipPath>
</defs>
</svg>
