<svg width="346" height="48" viewBox="0 0 346 48" fill="none" xmlns="http://www.w3.org/2000/svg">
<g clip-path="url(#clip0_93_54)">
<mask id="mask0_93_54" style="mask-type:luminance" maskUnits="userSpaceOnUse" x="0" y="0" width="346" height="48">
<path d="M345.5 0.5H0.5V47.5H345.5V0.5Z" fill="white"/>
</mask>
<g mask="url(#mask0_93_54)">
<path d="M98.836 26.157H99.694C101.41 26.157 102.719 26.135 104.237 25.893L104.369 27.059C102.829 27.301 101.443 27.345 99.694 27.345H98.836V26.157ZM98.836 20.305H103.621V21.493H100.31V26.542H98.836V20.305ZM99.958 23.132H103.478V24.276H99.958V23.132ZM104.952 19.458H106.426V29.644H104.952V19.458ZM106.096 23.319H107.9V24.529H106.096V23.319ZM109.065 20.371H113.96V27.224H109.065V20.371ZM112.53 21.515H110.506V26.069H112.53V21.515ZM115.544 19.447H117.018V29.666H115.544V19.447ZM122.462 20.041H123.738V20.778C123.738 22.989 122.165 24.947 119.525 25.464L118.898 24.254C121.197 23.858 122.462 22.241 122.462 20.778V20.041ZM122.759 20.041H124.024V20.778C124.024 22.274 125.278 23.858 127.588 24.254L126.961 25.464C124.321 24.947 122.759 23.022 122.759 20.778V20.041ZM118.689 27.213H127.907V28.401H118.689V27.213ZM132.075 20.129C133.681 20.129 134.88 21.174 134.88 22.637C134.88 24.111 133.681 25.156 132.075 25.156C130.48 25.156 129.259 24.111 129.259 22.637C129.259 21.174 130.48 20.129 132.075 20.129ZM132.075 21.383C131.294 21.383 130.7 21.845 130.7 22.637C130.7 23.44 131.294 23.902 132.075 23.902C132.856 23.902 133.45 23.44 133.45 22.637C133.45 21.845 132.856 21.383 132.075 21.383ZM135.837 19.447H137.3V29.666H135.837V19.447ZM129.017 27.598L128.841 26.421C130.634 26.421 133.131 26.399 135.276 26.08L135.386 27.136C133.175 27.576 130.777 27.598 129.017 27.598ZM143.717 19.81H144.905V20.459C144.905 22.395 144.003 24.067 142.034 24.683L141.33 23.517C143.013 23.011 143.717 21.768 143.717 20.459V19.81ZM144.014 19.81H145.191V20.426C145.191 21.669 145.873 22.824 147.501 23.297L146.764 24.43C144.872 23.847 144.014 22.285 144.014 20.426V19.81ZM148.018 19.458H149.481V24.683H148.018V19.458ZM148.887 21.438H150.823V22.637H148.887V21.438ZM142.749 25.079H149.481V27.829H144.223V29.072H142.771V26.773H148.04V26.201H142.749V25.079ZM142.771 28.445H149.778V29.578H142.771V28.445ZM154.31 20.162C155.861 20.162 156.983 21.57 156.983 23.792C156.983 26.036 155.861 27.444 154.31 27.444C152.759 27.444 151.637 26.036 151.637 23.792C151.637 21.57 152.759 20.162 154.31 20.162ZM154.31 21.493C153.551 21.493 153.045 22.296 153.045 23.792C153.045 25.31 153.551 26.124 154.31 26.124C155.069 26.124 155.586 25.31 155.586 23.792C155.586 22.296 155.069 21.493 154.31 21.493ZM158.094 19.458H159.568V29.644H158.094V19.458ZM159.238 23.297H161.042V24.507H159.238V23.297ZM163.989 25.64H165.089V25.981C165.089 27.521 164.407 28.929 162.812 29.501L162.097 28.434C163.428 27.983 163.989 26.971 163.989 25.981V25.64ZM164.363 25.64H165.408V25.981C165.408 26.971 165.903 28.005 167.146 28.522L166.563 29.6C164.946 28.995 164.363 27.477 164.363 25.981V25.64ZM167.707 25.64H168.752V25.981C168.752 27.389 168.147 28.973 166.563 29.6L165.958 28.522C167.201 27.961 167.707 26.883 167.707 25.981V25.64ZM168.048 25.64H169.148V25.981C169.148 27.037 169.698 28.016 171.04 28.434L170.325 29.501C168.708 28.951 168.048 27.587 168.048 25.981V25.64ZM168.697 19.469H170.171V25.222H168.697V19.469ZM164.627 19.986C166.211 19.986 167.388 20.998 167.388 22.428C167.388 23.847 166.211 24.859 164.627 24.859C163.043 24.859 161.855 23.847 161.855 22.428C161.855 20.998 163.043 19.986 164.627 19.986ZM164.627 21.196C163.857 21.196 163.285 21.647 163.285 22.428C163.285 23.198 163.857 23.649 164.627 23.649C165.397 23.649 165.958 23.198 165.958 22.428C165.958 21.647 165.397 21.196 164.627 21.196ZM172.964 22.208H180.026V23.363H172.964V22.208ZM171.82 24.419H181.049V25.585H171.82V24.419ZM172.964 19.821H174.416V22.78H172.964V19.821ZM172.865 28.258H180.081V29.424H172.865V28.258ZM172.865 26.399H174.328V28.566H172.865V26.399ZM184.578 27.027H195.472V28.431H184.578V27.027ZM189.141 24.453H190.87V27.365H189.141V24.453ZM185.722 18.551H187.438V20.397H192.573V18.551H194.289V24.817H185.722V18.551ZM187.438 21.749V23.439H192.573V21.749H187.438ZM200.996 18.473H202.504V19.344C202.504 21.957 200.645 24.271 197.525 24.882L196.784 23.452C199.501 22.984 200.996 21.073 200.996 19.344V18.473ZM201.347 18.473H202.842V19.344C202.842 21.112 204.324 22.984 207.054 23.452L206.313 24.882C203.193 24.271 201.347 21.996 201.347 19.344V18.473ZM196.537 26.949H207.431V28.353H196.537V26.949ZM214.827 21.047H217.05V22.412H214.827V21.047ZM216.829 17.784H218.558V26.676H216.829V17.784ZM210.602 28.236H218.831V29.614H210.602V28.236ZM210.602 25.922H212.344V29.198H210.602V25.922ZM209.042 23.686H209.978C212.149 23.686 213.423 23.647 214.918 23.4L215.061 24.752C213.553 25.038 212.201 25.077 209.978 25.077H209.042V23.686ZM209.042 18.694H214.515V20.072H210.758V23.829H209.042V18.694ZM210.238 21.177H214.138V22.516H210.238V21.177ZM229.977 20.696H232.265V22.1H229.977V20.696ZM231.797 17.784H233.526V24.934H231.797V17.784ZM229.444 25.194C231.992 25.194 233.565 26.065 233.565 27.521C233.565 28.99 231.992 29.835 229.444 29.835C226.896 29.835 225.323 28.99 225.323 27.521C225.323 26.065 226.896 25.194 229.444 25.194ZM229.444 26.507C227.884 26.507 227.052 26.832 227.052 27.521C227.052 28.197 227.884 28.522 229.444 28.522C231.017 28.522 231.849 28.197 231.849 27.521C231.849 26.832 231.017 26.507 229.444 26.507ZM226.233 18.993H227.637V19.747C227.637 22.048 226.571 24.154 224.27 24.934L223.386 23.569C225.375 22.893 226.233 21.294 226.233 19.747V18.993ZM226.597 18.993H227.988V19.747C227.988 21.164 228.807 22.633 230.705 23.27L229.86 24.635C227.624 23.894 226.597 21.892 226.597 19.747V18.993ZM223.854 18.512H230.328V19.89H223.854V18.512ZM235.423 27.027H246.317V28.431H235.423V27.027ZM239.986 24.453H241.715V27.365H239.986V24.453ZM236.567 18.551H238.283V20.397H243.418V18.551H245.134V24.817H236.567V18.551ZM238.283 21.749V23.439H243.418V21.749H238.283Z" fill="white"/>
<path d="M99.35 8.92301H105.083V9.40601H99.35V8.92301ZM101.912 7.41101H102.493V9.06301H101.912V7.41101ZM100.022 4.33101H100.596V5.45801H103.823V4.33101H104.397V7.56501H100.022V4.33101ZM100.596 5.92701V7.08901H103.823V5.92701H100.596ZM108.323 4.31701H108.827V4.80001C108.827 6.17901 107.546 7.25001 106.279 7.53701L106.02 7.05401C107.133 6.84401 108.323 5.87801 108.323 4.80001V4.31701ZM108.428 4.31701H108.932V4.80001C108.932 5.88501 110.129 6.84401 111.235 7.05401L110.976 7.53701C109.716 7.25001 108.428 6.18601 108.428 4.80001V4.31701ZM105.789 8.88101H111.522V9.35701H105.789V8.88101ZM115.638 5.66801H116.961V6.13701H115.638V5.66801ZM116.849 3.88301H117.43V8.58701H116.849V3.88301ZM113.384 9.59501H117.598V10.071H113.384V9.59501ZM113.384 8.18801H113.965V9.87501H113.384V8.18801ZM112.544 7.11001H113.006C114.217 7.11001 114.889 7.08201 115.701 6.94201L115.757 7.41101C114.931 7.56501 114.238 7.58601 113.006 7.58601H112.544V7.11001ZM112.544 4.37301H115.379V4.84901H113.118V7.18701H112.544V4.37301ZM112.929 5.71701H115.204V6.17901H112.929V5.71701ZM123.486 5.29001H125.397V5.77301H123.486V5.29001ZM123.486 7.29201H125.397V7.77501H123.486V7.29201ZM122.324 4.36601C123.241 4.36601 123.899 5.22701 123.899 6.57101C123.899 7.92201 123.241 8.78301 122.324 8.78301C121.4 8.78301 120.749 7.92201 120.749 6.57101C120.749 5.22701 121.4 4.36601 122.324 4.36601ZM122.324 4.89101C121.715 4.89101 121.295 5.54901 121.295 6.57101C121.295 7.60001 121.715 8.27201 122.324 8.27201C122.933 8.27201 123.353 7.60001 123.353 6.57101C123.353 5.54901 122.933 4.89101 122.324 4.89101ZM125.271 3.87601H125.845V10.218H125.271V3.87601ZM131.851 3.88301H132.404V7.88701H131.851V3.88301ZM130.822 5.59801H132.019V6.08101H130.822V5.59801ZM130.5 4.00901H131.046V7.66301H130.5V4.00901ZM127.042 4.63901H130.248V5.10101H127.042V4.63901ZM128.652 5.42301C129.443 5.42301 129.996 5.85701 129.996 6.50801C129.996 7.16601 129.443 7.59301 128.652 7.59301C127.854 7.59301 127.301 7.16601 127.301 6.50801C127.301 5.85701 127.854 5.42301 128.652 5.42301ZM128.652 5.85701C128.155 5.85701 127.819 6.11601 127.819 6.50801C127.819 6.90701 128.155 7.15901 128.652 7.15901C129.142 7.15901 129.478 6.90701 129.478 6.50801C129.478 6.11601 129.142 5.85701 128.652 5.85701ZM128.365 3.93201H128.932V4.89801H128.365V3.93201ZM130.332 7.99901C131.648 7.99901 132.439 8.39101 132.439 9.09801C132.439 9.79801 131.648 10.197 130.332 10.197C129.002 10.197 128.218 9.79801 128.218 9.09801C128.218 8.39101 129.002 7.99901 130.332 7.99901ZM130.332 8.44701C129.359 8.44701 128.792 8.67801 128.792 9.09801C128.792 9.51801 129.359 9.75601 130.332 9.75601C131.291 9.75601 131.865 9.51801 131.865 9.09801C131.865 8.67801 131.291 8.44701 130.332 8.44701ZM136.213 4.15601H140.287V4.62501H136.213V4.15601ZM135.485 6.41001H141.218V6.88601H135.485V6.41001ZM138.047 6.74601H138.628V8.05501H138.047V6.74601ZM139.909 4.15601H140.476V4.61101C140.476 5.12901 140.476 5.76601 140.266 6.62701L139.699 6.55701C139.909 5.71701 139.909 5.11501 139.909 4.61101V4.15601ZM138.334 7.85901C139.699 7.85901 140.532 8.28601 140.532 9.03501C140.532 9.77701 139.699 10.204 138.334 10.204C136.969 10.204 136.143 9.77701 136.143 9.03501C136.143 8.28601 136.969 7.85901 138.334 7.85901ZM138.334 8.33501C137.333 8.33501 136.724 8.58701 136.724 9.03501C136.724 9.47601 137.333 9.73501 138.334 9.73501C139.342 9.73501 139.944 9.47601 139.944 9.03501C139.944 8.58701 139.342 8.33501 138.334 8.33501ZM142.652 4.21201H146.726V4.68801H142.652V4.21201ZM141.924 6.54301H147.657V7.01901H141.924V6.54301ZM146.348 4.21201H146.915V4.68101C146.915 5.22001 146.915 5.83601 146.705 6.71101L146.138 6.68301C146.348 5.81501 146.348 5.20601 146.348 4.68101V4.21201ZM142.624 7.88001H146.936V10.127H142.624V7.88001ZM146.369 8.34201H143.191V9.65801H146.369V8.34201ZM152.69 3.89001H153.271V8.63601H152.69V3.89001ZM153.089 5.96201H154.209V6.45201H153.089V5.96201ZM148.378 4.65301H152.116V5.12201H148.378V4.65301ZM150.247 5.47201C151.143 5.47201 151.759 5.94101 151.759 6.65501C151.759 7.36201 151.143 7.83101 150.247 7.83101C149.344 7.83101 148.728 7.36201 148.728 6.65501C148.728 5.94101 149.344 5.47201 150.247 5.47201ZM150.247 5.92701C149.673 5.92701 149.281 6.21401 149.281 6.65501C149.281 7.08901 149.673 7.37601 150.247 7.37601C150.814 7.37601 151.206 7.08901 151.206 6.65501C151.206 6.21401 150.814 5.92701 150.247 5.92701ZM149.953 3.88301H150.534V4.89801H149.953V3.88301ZM149.33 9.59501H153.558V10.071H149.33V9.59501ZM149.33 8.25801H149.911V9.79801H149.33V8.25801ZM161.392 3.88301H161.973V8.16701H161.392V3.88301ZM160.034 5.66801H161.511V6.14401H160.034V5.66801ZM159.404 4.38001H160.013C160.013 6.01801 158.935 7.18001 157.122 7.76801L156.877 7.30601C158.48 6.80201 159.404 5.85001 159.404 4.61101V4.38001ZM157.178 4.38001H159.817V4.85601H157.178V4.38001ZM159.642 7.62101H160.139V7.90801C160.139 9.11901 159.033 9.93801 157.766 10.197L157.535 9.73501C158.655 9.53201 159.642 8.83201 159.642 7.90801V7.62101ZM159.726 7.62101H160.223V7.90801C160.223 8.81801 161.196 9.51801 162.323 9.72101L162.078 10.183C160.818 9.93101 159.726 9.11201 159.726 7.90801V7.62101ZM167.803 3.87601H168.384V10.218H167.803V3.87601ZM165.045 4.36601C165.983 4.36601 166.655 5.22701 166.655 6.57101C166.655 7.92201 165.983 8.78301 165.045 8.78301C164.114 8.78301 163.442 7.92201 163.442 6.57101C163.442 5.22701 164.114 4.36601 165.045 4.36601ZM165.045 4.89101C164.429 4.89101 163.995 5.54901 163.995 6.57101C163.995 7.60001 164.429 8.27201 165.045 8.27201C165.668 8.27201 166.095 7.60001 166.095 6.57101C166.095 5.54901 165.668 4.89101 165.045 4.89101ZM176.254 3.88301H176.835V10.225H176.254V3.88301ZM174.308 5.96901H176.443V6.44501H174.308V5.96901ZM171.963 4.59001H172.537V8.51001H171.963V4.59001ZM171.963 8.20201H172.453C173.433 8.20201 174.308 8.14601 175.281 7.94301L175.351 8.43301C174.343 8.62901 173.454 8.69201 172.453 8.69201H171.963V8.20201ZM178.052 7.55801H183.792V8.03401H178.052V7.55801ZM180.614 7.84501H181.188V10.211H180.614V7.84501ZM178.78 4.23301H183.05V6.70401H178.78V4.23301ZM182.483 4.70201H179.354V6.23501H182.483V4.70201ZM190.793 3.88301H191.374V7.11001H190.793V3.88301ZM191.122 5.30401H192.312V5.78701H191.122V5.30401ZM186.726 4.29601H189.631V6.87901H186.726V4.29601ZM189.064 4.76501H187.293V6.41701H189.064V4.76501ZM187.125 9.56701H187.426C187.804 9.56701 188.413 9.53201 188.952 9.35001L189.05 9.81901C188.441 10.015 187.86 10.043 187.426 10.043H187.125V9.56701ZM187.125 7.69101H187.692V9.69301H187.125V7.69101ZM188.819 7.75401H191.997V8.18801H188.819V7.75401ZM190.415 8.41901C191.101 8.41901 191.584 8.76901 191.584 9.30801C191.584 9.86101 191.101 10.204 190.415 10.204C189.722 10.204 189.239 9.86101 189.239 9.30801C189.239 8.76901 189.722 8.41901 190.415 8.41901ZM190.415 8.83201C190.023 8.83201 189.757 9.02101 189.757 9.30801C189.757 9.60201 190.023 9.79101 190.415 9.79101C190.793 9.79101 191.066 9.60201 191.066 9.30801C191.066 9.02101 190.793 8.83201 190.415 8.83201ZM190.128 7.20101H190.695V8.06201H190.128V7.20101ZM195.763 3.98801C197.156 3.98801 197.989 4.38001 197.989 5.08701C197.989 5.79401 197.156 6.18601 195.763 6.18601C194.363 6.18601 193.537 5.79401 193.537 5.08701C193.537 4.38001 194.363 3.98801 195.763 3.98801ZM195.763 4.42901C194.727 4.42901 194.132 4.66701 194.132 5.08701C194.132 5.50701 194.727 5.74501 195.763 5.74501C196.792 5.74501 197.387 5.50701 197.387 5.08701C197.387 4.66701 196.792 4.42901 195.763 4.42901ZM192.9 6.60601H198.619V7.07501H192.9V6.60601ZM193.593 7.61401H197.891V9.04201H194.181V9.81201H193.607V8.62201H197.317V8.06201H193.593V7.61401ZM193.607 9.68601H198.08V10.141H193.607V9.68601ZM204.934 4.01601H205.473V9.89601H204.934V4.01601ZM205.249 6.45901H206.418V6.93501H205.249V6.45901ZM201.497 8.08301H201.749C201.994 8.08301 202.407 8.07601 202.897 7.95701L202.946 8.44001C202.421 8.56601 202.015 8.56601 201.749 8.56601H201.497V8.08301ZM201.497 4.67401H202.848V5.15001H202.036V8.35601H201.497V4.67401ZM203.121 8.08301H203.387C203.723 8.08301 204.164 8.06901 204.647 7.93601L204.703 8.41901C204.185 8.55901 203.751 8.56601 203.387 8.56601H203.121V8.08301ZM203.121 4.67401H204.514V5.15001H203.653V8.33501H203.121V4.67401ZM206.215 3.88301H206.768V10.211H206.215V3.88301Z" fill="white"/>
<path d="M111.906 38.2155H112.446V44.1045H111.906V38.2155ZM109.345 38.6705C110.216 38.6705 110.84 39.47 110.84 40.718C110.84 41.9725 110.216 42.772 109.345 42.772C108.481 42.772 107.857 41.9725 107.857 40.718C107.857 39.47 108.481 38.6705 109.345 38.6705ZM109.345 39.158C108.773 39.158 108.37 39.769 108.37 40.718C108.37 41.6735 108.773 42.2975 109.345 42.2975C109.924 42.2975 110.32 41.6735 110.32 40.718C110.32 39.769 109.924 39.158 109.345 39.158ZM118.055 38.222H118.568V42.681H118.055V38.222ZM115.994 39.925H117.106V40.367H115.994V39.925ZM116.937 38.339H117.45V42.512H116.937V38.339ZM113.882 38.69H114.389V39.678H115.643V38.69H116.157V41.5695H113.882V38.69ZM114.389 40.107V41.134H115.643V40.107H114.389ZM114.74 43.526H118.75V43.968H114.74V43.526ZM114.74 42.083H115.279V43.7665H114.74V42.083ZM120.284 41.3875H124.32V41.823H120.284V41.3875ZM119.601 42.8955H124.925V43.344H119.601V42.8955ZM120.284 38.7225H124.255V39.1645H120.83V41.524H120.284V38.7225ZM120.654 40.0355H124.132V40.4645H120.654V40.0355ZM125.58 42.928H130.904V43.3765H125.58V42.928ZM127.959 41.667H128.499V43.1165H127.959V41.667ZM126.224 38.6575H130.247V40.4385H126.776V41.615H126.243V40.003H129.714V39.093H126.224V38.6575ZM126.243 41.3875H130.384V41.8295H126.243V41.3875ZM133.694 38.5795H134.22V39.4895H135.91V38.5795H136.443V41.355H133.694V38.5795ZM134.22 39.9185V40.926H135.91V39.9185H134.22ZM134.279 42.1025H138.205V44.098H137.659V42.538H134.279V42.1025ZM137.659 38.222H138.205V41.7775H137.659V38.222ZM140.687 38.7095C141.448 38.7095 141.942 39.496 141.942 40.757C141.942 42.018 141.448 42.8045 140.687 42.8045C139.927 42.8045 139.439 42.018 139.439 40.757C139.439 39.496 139.927 38.7095 140.687 38.7095ZM140.687 39.21C140.226 39.21 139.933 39.808 139.933 40.757C139.933 41.706 140.226 42.304 140.687 42.304C141.149 42.304 141.441 41.706 141.441 40.757C141.441 39.808 141.149 39.21 140.687 39.21ZM143.84 38.222H144.36V44.098H143.84V38.222ZM142.91 40.549H144.035V40.991H142.91V40.549ZM142.54 38.3455H143.053V43.8055H142.54V38.3455ZM145.835 38.3975H150.151V38.82H145.835V38.3975ZM145.861 39.938H150.125V40.354H145.861V39.938ZM146.725 38.56H147.265V40.211H146.725V38.56ZM148.727 38.56H149.26V40.211H148.727V38.56ZM145.341 40.8415H150.651V41.277H145.341V40.8415ZM145.984 41.7905H149.975V43.0775H146.53V43.786H145.997V42.694H149.442V42.1935H145.984V41.7905ZM145.997 43.6235H150.151V44.033H145.997V43.6235ZM155.799 38.222H156.319V44.098H155.799V38.222ZM154.869 40.5815H155.994V41.03H154.869V40.5815ZM154.525 38.352H155.032V43.799H154.525V38.352ZM151.379 38.9565H154.096V39.3985H151.379V38.9565ZM151.327 42.655L151.262 42.2C152.035 42.2 153.309 42.174 154.206 42.057L154.245 42.4535C153.316 42.629 152.094 42.655 151.327 42.655ZM151.879 39.2425H152.373V42.317H151.879V39.2425ZM153.101 39.2425H153.595V42.317H153.101V39.2425ZM159.659 38.625H160.127V39.0735C160.127 40.354 158.938 41.3485 157.761 41.615L157.521 41.1665C158.554 40.9715 159.659 40.0745 159.659 39.0735V38.625ZM159.757 38.625H160.225V39.0735C160.225 40.081 161.336 40.9715 162.363 41.1665L162.123 41.615C160.953 41.3485 159.757 40.3605 159.757 39.0735V38.625ZM157.306 42.863H162.63V43.305H157.306V42.863ZM169.131 38.2025H169.67V41.446H169.131V38.2025ZM169.443 39.613H170.541V40.068H169.443V39.613ZM165.939 41.745H169.67V43.058H166.485V43.773H165.952V42.668H169.144V42.1545H165.939V41.745ZM165.952 43.617H169.885V44.033H165.952V43.617ZM165.127 38.7485H168.598V39.171H165.127V38.7485ZM166.862 39.431C167.707 39.431 168.266 39.8015 168.266 40.3995C168.266 40.991 167.707 41.355 166.862 41.355C166.004 41.355 165.452 40.991 165.452 40.3995C165.452 39.8015 166.004 39.431 166.862 39.431ZM166.862 39.8275C166.316 39.8275 165.965 40.0485 165.965 40.3995C165.965 40.744 166.316 40.965 166.862 40.965C167.402 40.965 167.753 40.744 167.753 40.3995C167.753 40.0485 167.402 39.8275 166.862 39.8275ZM166.589 38.157H167.129V39.041H166.589V38.157ZM175.364 38.2285H175.91V42.5185H175.364V38.2285ZM172.133 43.526H176.085V43.968H172.133V43.526ZM172.133 42.0765H172.666V43.6755H172.133V42.0765ZM172.757 38.6315C173.635 38.6315 174.285 39.2295 174.285 40.081C174.285 40.926 173.635 41.5305 172.757 41.5305C171.88 41.5305 171.223 40.926 171.223 40.081C171.223 39.2295 171.88 38.6315 172.757 38.6315ZM172.757 39.0995C172.185 39.0995 171.75 39.5025 171.75 40.081C171.75 40.653 172.185 41.056 172.757 41.056C173.329 41.056 173.765 40.653 173.765 40.081C173.765 39.5025 173.329 39.0995 172.757 39.0995ZM182.918 38.222H183.457V41.6605H182.918V38.222ZM183.308 39.6325H184.328V40.0875H183.308V39.6325ZM179.141 38.547H179.674V39.444H181.332V38.547H181.858V41.29H179.141V38.547ZM179.674 39.873V40.8545H181.332V39.873H179.674ZM179.785 41.979H183.503V42.4145H180.324V43.89H179.785V41.979ZM179.785 43.578H183.62V44.02H179.785V43.578ZM187.532 38.5925C188.754 38.5925 189.664 39.2425 189.664 40.2175C189.664 41.199 188.754 41.8425 187.532 41.8425C186.31 41.8425 185.394 41.199 185.394 40.2175C185.394 39.2425 186.31 38.5925 187.532 38.5925ZM187.532 39.0345C186.603 39.0345 185.914 39.509 185.914 40.2175C185.914 40.9195 186.603 41.4005 187.532 41.4005C188.462 41.4005 189.151 40.9195 189.151 40.2175C189.151 39.509 188.462 39.0345 187.532 39.0345ZM184.88 42.8695H190.204V43.3245H184.88V42.8695ZM193.174 40.3215H194.298V40.77H193.174V40.3215ZM192.075 38.7745H192.498V39.8925C192.498 41.121 191.984 42.3105 191.126 42.837L190.788 42.4275C191.594 41.953 192.075 40.9 192.075 39.8925V38.7745ZM192.179 38.7745H192.595V39.873C192.595 40.8155 193.037 41.8165 193.811 42.2845L193.499 42.707C192.654 42.187 192.179 41.017 192.179 39.873V38.7745ZM195.332 38.222H195.852V44.098H195.332V38.222ZM194.142 38.3455H194.649V43.8055H194.142V38.3455ZM198.139 41.2445H198.672V43.006H198.139V41.2445ZM200.31 41.2445H200.85V43.006H200.31V41.2445ZM196.839 42.902H202.163V43.3505H196.839V42.902ZM199.491 38.5925C200.733 38.5925 201.623 39.184 201.623 40.107C201.623 41.0235 200.733 41.615 199.491 41.615C198.243 41.615 197.353 41.0235 197.353 40.107C197.353 39.184 198.243 38.5925 199.491 38.5925ZM199.491 39.0215C198.549 39.0215 197.873 39.4505 197.873 40.107C197.873 40.757 198.549 41.186 199.491 41.186C200.434 41.186 201.103 40.757 201.103 40.107C201.103 39.4505 200.434 39.0215 199.491 39.0215ZM203.713 38.8637L203.666 42.2615H203.131L203.085 38.8637H203.713ZM203.399 43.6279C203.285 43.6279 203.187 43.5872 203.105 43.5056C203.024 43.424 202.983 43.3263 202.983 43.2125C202.983 43.0986 203.024 43.0009 203.105 42.9193C203.187 42.8377 203.285 42.797 203.399 42.797C203.512 42.797 203.61 42.8377 203.692 42.9193C203.773 43.0009 203.814 43.0986 203.814 43.2125C203.814 43.2879 203.795 43.3571 203.756 43.4202C203.719 43.4833 203.669 43.5341 203.606 43.5725C203.545 43.6095 203.476 43.6279 203.399 43.6279Z" fill="white"/>
<path d="M102.585 39.07H99.5848V44.58H105.185V41.3969" stroke="white"/>
<path d="M100.504 40.6599L102.341 42.802L106.228 38.0891" stroke="white"/>
</g>
</g>
<defs>
<clipPath id="clip0_93_54">
<rect width="345" height="47" fill="white" transform="translate(0.5 0.5)"/>
</clipPath>
</defs>
</svg>
