<svg width="345" height="47" viewBox="0 0 345 47" fill="none" xmlns="http://www.w3.org/2000/svg">
<g clip-path="url(#clip0_6_87)">
<mask id="mask0_6_87" style="mask-type:luminance" maskUnits="userSpaceOnUse" x="0" y="0" width="345" height="47">
<path d="M345 0H0V47H345V0Z" fill="white"/>
</mask>
<g mask="url(#mask0_6_87)">
<path d="M93.876 18.793H95.262V28.979H93.876V18.793ZM92.655 22.698H94.349V23.886H92.655V22.698ZM91.687 18.947H93.051V28.517H91.687V18.947ZM88.255 20.377H89.366V21.279C89.366 23.798 88.816 26.02 87.122 27.043L86.242 25.921C87.771 25.041 88.255 23.237 88.255 21.279V20.377ZM88.552 20.377H89.674V21.279C89.674 23.072 90.191 24.766 91.709 25.558L90.873 26.669C89.157 25.745 88.552 23.644 88.552 21.279V20.377ZM86.572 19.827H91.203V21.004H86.572V19.827ZM96.5591 19.684H102.554V20.839H96.5591V19.684ZM99.5621 21.158C101.025 21.158 102.059 21.917 102.059 23.039C102.059 24.161 101.025 24.909 99.5621 24.909C98.0881 24.909 97.0541 24.161 97.0541 23.039C97.0541 21.917 98.0881 21.158 99.5621 21.158ZM99.5621 22.258C98.9021 22.258 98.4621 22.522 98.4621 23.039C98.4621 23.545 98.9021 23.809 99.5621 23.809C100.211 23.809 100.662 23.545 100.662 23.039C100.662 22.522 100.211 22.258 99.5621 22.258ZM103.115 18.793H104.578V25.184H103.115V18.793ZM104.171 21.422H105.931V22.61H104.171V21.422ZM97.7801 25.602H104.578V28.979H103.115V26.768H97.7801V25.602ZM98.8251 18.738H100.288V20.344H98.8251V18.738ZM108.515 19.409H109.659V20.586C109.659 22.313 108.966 24.04 107.305 24.744L106.535 23.611C107.954 22.984 108.515 21.73 108.515 20.586V19.409ZM108.779 19.409H109.923V20.586C109.923 21.675 110.473 22.775 111.815 23.303L111.034 24.414C109.45 23.787 108.779 22.247 108.779 20.586V19.409ZM113.971 18.804H115.357V25.019H113.971V18.804ZM112.75 21.268H114.367V22.445H112.75V21.268ZM111.815 18.991H113.179V24.7H111.815V18.991ZM111.903 25.162C114.037 25.162 115.412 25.877 115.412 27.076C115.412 28.264 114.037 28.979 111.903 28.979C109.758 28.979 108.405 28.264 108.405 27.076C108.405 25.877 109.758 25.162 111.903 25.162ZM111.903 26.262C110.594 26.262 109.857 26.537 109.857 27.076C109.857 27.615 110.594 27.879 111.903 27.879C113.212 27.879 113.938 27.615 113.938 27.076C113.938 26.537 113.212 26.262 111.903 26.262ZM117.226 19.805H121.615V20.96H117.226V19.805ZM118.535 22.72H119.976V26.174H118.535V22.72ZM121.032 19.805H122.473V20.63C122.473 21.62 122.473 22.852 122.198 24.546L120.768 24.414C121.032 22.786 121.032 21.609 121.032 20.63V19.805ZM123.342 18.793H124.805V28.979H123.342V18.793ZM124.376 22.885H126.169V24.095H124.376V22.885ZM116.841 26.922L116.709 25.745C118.502 25.745 120.878 25.712 122.88 25.459L122.957 26.526C120.9 26.878 118.612 26.922 116.841 26.922ZM136.018 18.793H137.481V24.931H136.018V18.793ZM137.074 21.301H138.834V22.5H137.074V21.301ZM130.859 25.371H137.481V28.869H130.859V25.371ZM136.051 26.526H132.3V27.714H136.051V26.526ZM129.462 19.706H135.457V20.861H129.462V19.706ZM132.465 21.158C133.939 21.158 134.962 21.906 134.962 22.995C134.962 24.095 133.939 24.821 132.465 24.821C130.98 24.821 129.957 24.095 129.957 22.995C129.957 21.906 130.98 21.158 132.465 21.158ZM132.465 22.247C131.805 22.247 131.365 22.5 131.365 22.995C131.365 23.49 131.805 23.754 132.465 23.754C133.114 23.754 133.565 23.49 133.565 22.995C133.565 22.5 133.114 22.247 132.465 22.247ZM131.728 18.727H133.191V20.333H131.728V18.727ZM140.825 19.948H142.057C142.057 22.533 141.815 24.81 140.55 26.834L139.428 26.229C140.616 24.359 140.825 22.588 140.825 20.069V19.948ZM139.758 19.948H141.606V21.125H139.758V19.948ZM143.102 19.948H144.334C144.334 22.61 144.18 25.151 142.816 27.329L141.694 26.713C142.992 24.689 143.102 22.621 143.102 20.08V19.948ZM142.365 19.948H143.927V21.125H142.365V19.948ZM147.029 18.793H148.426V28.979H147.029V18.793ZM143.839 22.61H145.28V23.787H143.839V22.61ZM145.06 19.013H146.424V28.528H145.06V19.013ZM156.235 18.793H157.687V28.979H156.235V18.793ZM157.357 22.764H159.161V23.985H157.357V22.764ZM149.657 20.3H155.586V21.466H149.657V20.3ZM152.638 22.038C154.123 22.038 155.223 23.05 155.223 24.469C155.223 25.888 154.123 26.9 152.638 26.9C151.153 26.9 150.053 25.888 150.053 24.469C150.053 23.05 151.153 22.038 152.638 22.038ZM152.638 23.226C151.945 23.226 151.45 23.688 151.45 24.469C151.45 25.25 151.945 25.712 152.638 25.712C153.331 25.712 153.826 25.25 153.826 24.469C153.826 23.688 153.331 23.226 152.638 23.226ZM151.901 18.958H153.364V20.74H151.901V18.958ZM160.964 21.543H168.026V22.698H160.964V21.543ZM159.82 23.754H169.049V24.92H159.82V23.754ZM160.964 19.156H162.416V22.115H160.964V19.156ZM160.865 27.593H168.081V28.759H160.865V27.593ZM160.865 25.734H162.328V27.901H160.865V25.734ZM175.789 17.951C177.622 17.951 178.948 19.615 178.948 22.241C178.948 24.893 177.622 26.557 175.789 26.557C173.956 26.557 172.63 24.893 172.63 22.241C172.63 19.615 173.956 17.951 175.789 17.951ZM175.789 19.524C174.892 19.524 174.294 20.473 174.294 22.241C174.294 24.035 174.892 24.997 175.789 24.997C176.686 24.997 177.297 24.035 177.297 22.241C177.297 20.473 176.686 19.524 175.789 19.524ZM180.261 17.119H182.003V29.157H180.261V17.119ZM181.613 21.656H183.745V23.086H181.613V21.656ZM192.779 17.106H194.521V29.183H192.779V17.106ZM188.034 17.951C189.854 17.951 191.193 19.615 191.193 22.241C191.193 24.893 189.854 26.557 188.034 26.557C186.214 26.557 184.875 24.893 184.875 22.241C184.875 19.615 186.214 17.951 188.034 17.951ZM188.034 19.524C187.137 19.524 186.526 20.473 186.526 22.241C186.526 24.035 187.137 24.997 188.034 24.997C188.931 24.997 189.529 24.035 189.529 22.241C189.529 20.473 188.931 19.524 188.034 19.524ZM204.738 17.106H206.48V29.183H204.738V17.106ZM197.081 18.068H198.797V20.993H201.28V18.068H202.996V26.375H197.081V18.068ZM198.797 22.332V24.984H201.28V22.332H198.797ZM216.736 17.106H218.465V29.183H216.736V17.106ZM209.092 24.971H210.158C212.29 24.971 213.993 24.893 215.904 24.568L216.073 25.959C214.123 26.31 212.355 26.375 210.158 26.375H209.092V24.971ZM209.079 18.133H214.76V22.787H210.847V25.491H209.092V21.422H212.992V19.511H209.079V18.133ZM221.519 18.224H229.15V19.589H221.519V18.224ZM220.414 26.18H231.295V27.584H220.414V26.18ZM228.24 18.224H229.956V19.654C229.956 21.344 229.956 22.982 229.527 25.452L227.798 25.309C228.24 22.995 228.24 21.279 228.24 19.654V18.224ZM235.369 24.256H246.263V25.66H235.369V24.256ZM239.945 24.75H241.661V29.17H239.945V24.75ZM236.721 22.02H245.132V23.385H236.721V22.02ZM236.721 17.6H245.002V18.952H238.424V22.345H236.721V17.6ZM237.943 19.823H244.742V21.136H237.943V19.823ZM250.63 17.951C252.424 17.951 253.737 19.615 253.737 22.241C253.737 24.893 252.424 26.557 250.63 26.557C248.823 26.557 247.523 24.893 247.523 22.241C247.523 19.615 248.823 17.951 250.63 17.951ZM250.63 19.524C249.759 19.524 249.174 20.473 249.174 22.241C249.174 24.035 249.759 24.997 250.63 24.997C251.514 24.997 252.086 24.035 252.086 22.241C252.086 20.473 251.514 19.524 250.63 19.524ZM255.713 17.106H257.429V29.183H255.713V17.106ZM253.23 21.448H256.441V22.839H253.23V21.448Z" fill="white"/>
<path d="M89.842 5.479H91.053V5.962H89.842V5.479ZM88.659 3.813H89.114V5.017C89.114 6.34 88.561 7.621 87.637 8.188L87.273 7.747C88.141 7.236 88.659 6.102 88.659 5.017V3.813ZM88.771 3.813H89.219V4.996C89.219 6.011 89.695 7.089 90.528 7.593L90.192 8.048C89.282 7.488 88.771 6.228 88.771 4.996V3.813ZM92.166 3.218H92.726V9.546H92.166V3.218ZM90.885 3.351H91.431V9.231H90.885V3.351ZM96.2395 4.975H97.6465V5.444H96.2395V4.975ZM96.1905 6.564H97.6325V7.033H96.1905V6.564ZM98.6055 3.218H99.1655V9.546H98.6055V3.218ZM97.3385 3.379H97.8845V9.224H97.3385V3.379ZM95.9245 4.016H96.4845C96.4845 5.675 95.8195 7.166 94.1185 8.181L93.7825 7.768C95.2595 6.872 95.9245 5.612 95.9245 4.121V4.016ZM94.0625 4.016H96.1555V4.492H94.0625V4.016ZM104.004 6.564H104.592V7.936H104.004V6.564ZM104.004 4.338H104.473V4.478C104.473 5.584 103.752 6.438 102.688 6.774L102.422 6.319C103.36 6.039 104.004 5.332 104.004 4.478V4.338ZM104.116 4.338H104.585V4.478C104.585 5.297 105.25 5.983 106.181 6.256L105.915 6.704C104.851 6.389 104.116 5.549 104.116 4.478V4.338ZM102.569 4.044H106.048V4.513H102.569V4.044ZM104.004 3.26H104.592V4.247H104.004V3.26ZM106.769 3.211H107.35V9.553H106.769V3.211ZM102.31 8.251L102.226 7.761C103.381 7.761 104.977 7.754 106.356 7.544L106.405 7.971C104.984 8.237 103.437 8.244 102.31 8.251ZM109.239 3.848H113.313V4.331H109.239V3.848ZM108.637 8.181H114.356V8.664H108.637V8.181ZM110.856 5.92H111.437V8.419H110.856V5.92ZM113.096 3.848H113.67V4.478C113.67 5.262 113.67 6.13 113.439 7.411L112.858 7.334C113.096 6.123 113.096 5.234 113.096 4.478V3.848ZM117.128 3.673C118.115 3.673 118.822 4.282 118.822 5.164C118.822 6.053 118.115 6.662 117.128 6.662C116.141 6.662 115.427 6.053 115.427 5.164C115.427 4.282 116.141 3.673 117.128 3.673ZM117.128 4.177C116.47 4.177 115.994 4.576 115.994 5.164C115.994 5.752 116.47 6.158 117.128 6.158C117.779 6.158 118.255 5.752 118.255 5.164C118.255 4.576 117.779 4.177 117.128 4.177ZM119.648 3.211H120.229V9.553H119.648V3.211ZM115.189 8.167L115.105 7.684C116.26 7.684 117.856 7.677 119.235 7.46L119.284 7.887C117.863 8.16 116.316 8.167 115.189 8.167ZM126.502 4.24H128.329V4.716H126.502V4.24ZM126.502 5.5H128.343V5.969H126.502V5.5ZM128.105 3.218H128.686V6.963H128.105V3.218ZM123.772 3.694H126.663V6.508H123.772V3.694ZM126.089 4.163H124.339V6.046H126.089V4.163ZM126.607 7.145C127.909 7.145 128.714 7.586 128.714 8.342C128.714 9.098 127.909 9.532 126.607 9.532C125.298 9.532 124.493 9.098 124.493 8.342C124.493 7.586 125.298 7.145 126.607 7.145ZM126.607 7.607C125.655 7.607 125.074 7.88 125.074 8.342C125.074 8.804 125.655 9.077 126.607 9.077C127.559 9.077 128.14 8.804 128.14 8.342C128.14 7.88 127.559 7.607 126.607 7.607ZM129.917 6.452H135.65V6.928H129.917V6.452ZM132.535 6.746H133.116V8.202H132.535V6.746ZM130.652 3.512H134.908V5.738H130.652V3.512ZM134.334 3.981H131.219V5.269H134.334V3.981ZM130.645 8.93H135.013V9.406H130.645V8.93ZM130.645 7.593H131.219V9.098H130.645V7.593ZM141.173 3.218H141.733V9.546H141.173V3.218ZM140.102 5.752H141.32V6.235H140.102V5.752ZM139.738 3.358H140.284V9.224H139.738V3.358ZM136.588 7.502H137.001C137.925 7.502 138.555 7.467 139.29 7.313L139.346 7.796C138.59 7.957 137.953 7.985 137.001 7.985H136.588V7.502ZM136.588 3.988H138.94V4.464H137.162V7.719H136.588V3.988ZM143.865 8.30398L143.825 8.57244C143.797 8.76136 143.754 8.96354 143.696 9.17898C143.64 9.39441 143.581 9.59742 143.52 9.788C143.458 9.97857 143.408 10.1302 143.368 10.2429H142.92C142.942 10.1368 142.97 9.9968 143.005 9.8228C143.04 9.64879 143.075 9.45407 143.109 9.23864C143.146 9.02486 143.176 8.80611 143.199 8.58239L143.229 8.30398H143.865ZM151.018 3.218H151.599V9.546H151.018V3.218ZM151.459 5.815H152.635V6.305H151.459V5.815ZM146.699 4.226H150.43V4.702H146.699V4.226ZM148.589 5.227C149.485 5.227 150.129 5.829 150.129 6.683C150.129 7.537 149.485 8.139 148.589 8.139C147.7 8.139 147.049 7.537 147.049 6.683C147.049 5.829 147.7 5.227 148.589 5.227ZM148.589 5.71C148.015 5.71 147.602 6.109 147.602 6.683C147.602 7.25 148.015 7.656 148.589 7.656C149.163 7.656 149.576 7.25 149.576 6.683C149.576 6.109 149.163 5.71 148.589 5.71ZM148.288 3.295H148.869V4.443H148.288V3.295ZM157.807 3.211H158.381V9.553H157.807V3.211ZM156.134 5.563H157.975V6.039H156.134V5.563ZM153.425 3.715H153.999V5.36H155.756V3.715H156.33V7.964H153.425V3.715ZM153.999 5.822V7.481H155.756V5.822H153.999ZM160.334 6.249H164.681V6.725H160.334V6.249ZM159.613 8.209H165.346V8.692H159.613V8.209ZM160.334 3.799H164.618V4.282H160.915V6.459H160.334V3.799ZM167.648 6.41H168.229V7.922H167.648V6.41ZM167.935 3.624C168.908 3.624 169.608 4.233 169.608 5.115C169.608 5.997 168.908 6.606 167.935 6.606C166.962 6.606 166.262 5.997 166.262 5.115C166.262 4.233 166.962 3.624 167.935 3.624ZM167.935 4.121C167.291 4.121 166.829 4.527 166.829 5.115C166.829 5.703 167.291 6.109 167.935 6.109C168.579 6.109 169.041 5.703 169.041 5.115C169.041 4.527 168.579 4.121 167.935 4.121ZM170.329 3.218H170.91V9.546H170.329V3.218ZM170.742 5.822H171.911V6.312H170.742V5.822ZM166.059 8.181L165.975 7.698C167.116 7.691 168.642 7.684 169.93 7.509L169.979 7.943C168.642 8.167 167.165 8.181 166.059 8.181ZM174.727 3.90909H175.463L177.193 8.13494H177.252L178.983 3.90909H179.718V9H179.142V5.1321H179.092L177.501 9H176.944L175.353 5.1321H175.304V9H174.727V3.90909ZM181.571 3.90909V9H180.954V3.90909H181.571ZM182.528 4.45597V3.90909H186.347V4.45597H184.746V9H184.129V4.45597H182.528Z" fill="white"/>
<path d="M95.889 41.574H96.3505C97.436 41.574 98.1835 41.548 99.0675 41.392L99.126 41.834C98.216 41.99 97.449 42.0225 96.3505 42.0225H95.889V41.574ZM95.889 38.09H98.6255V38.5385H96.4285V41.73H95.889V38.09ZM96.292 39.7345H98.4955V40.17H96.292V39.7345ZM99.6135 37.557H100.16V43.433H99.6135V37.557ZM100.03 39.9165H101.122V40.3715H100.03V39.9165ZM101.953 38.129H104.657V41.9575H101.953V38.129ZM104.13 38.5645H102.479V41.522H104.13V38.5645ZM105.885 37.5505H106.425V43.4395H105.885V37.5505ZM109.954 37.96H110.422V38.4085C110.422 39.689 109.232 40.6835 108.056 40.95L107.815 40.5015C108.849 40.3065 109.954 39.4095 109.954 38.4085V37.96ZM110.051 37.96H110.519V38.4085C110.519 39.416 111.631 40.3065 112.658 40.5015L112.417 40.95C111.247 40.6835 110.051 39.6955 110.051 38.4085V37.96ZM107.601 42.198H112.924V42.64H107.601V42.198ZM115.959 39.8385H117.071V40.287H115.959V39.8385ZM118.052 37.557H118.572V43.433H118.052V37.557ZM116.889 37.6805H117.402V43.1405H116.889V37.6805ZM114.9 38.0445C115.66 38.0445 116.154 38.831 116.154 40.092C116.154 41.353 115.66 42.1395 114.9 42.1395C114.139 42.1395 113.652 41.353 113.652 40.092C113.652 38.831 114.139 38.0445 114.9 38.0445ZM114.9 38.545C114.438 38.545 114.146 39.143 114.146 40.092C114.146 41.041 114.438 41.639 114.9 41.639C115.368 41.639 115.66 41.041 115.66 40.092C115.66 39.143 115.368 38.545 114.9 38.545ZM122.491 39.546H124.129V39.988H122.491V39.546ZM121.074 38.064H121.516V39.1105C121.516 40.43 120.821 41.691 119.891 42.1915L119.547 41.7625C120.411 41.3335 121.074 40.2025 121.074 39.1105V38.064ZM121.178 38.064H121.614V39.1105C121.614 40.183 122.277 41.249 123.128 41.652L122.81 42.0875C121.861 41.6065 121.178 40.3975 121.178 39.1105V38.064ZM123.863 37.5505H124.396V43.4395H123.863V37.5505ZM127.699 38.129H130.403V41.9575H127.699V38.129ZM129.877 38.5645H128.226V41.522H129.877V38.5645ZM131.632 37.5505H132.171V43.4395H131.632V37.5505ZM133.536 41.5805H133.926C134.641 41.5805 135.291 41.5545 136.084 41.418L136.129 41.8665C135.317 42.0095 134.654 42.029 133.926 42.029H133.536V41.5805ZM133.523 38.194H135.726V40.261H134.062V41.7495H133.536V39.819H135.2V38.636H133.523V38.194ZM137.813 37.557H138.333V43.433H137.813V37.557ZM136.818 39.8775H137.949V40.3195H136.818V39.8775ZM136.48 37.687H136.987V43.134H136.48V37.687ZM139.32 40.287H144.65V40.6965H139.32V40.287ZM139.951 41.171H143.981V42.4255H140.503V43.1145H139.97V42.055H143.454V41.5545H139.951V41.171ZM139.97 42.9715H144.169V43.3615H139.97V42.9715ZM139.996 37.726H143.961V38.948H140.542V39.585H140.009V38.584H143.435V38.1095H139.996V37.726ZM140.009 39.455H144.072V39.845H140.009V39.455ZM148.597 38.5255H149.039V38.779C149.039 39.78 148.376 40.5925 147.388 40.9045L147.134 40.482C148.005 40.2155 148.597 39.546 148.597 38.779V38.5255ZM148.694 38.5255H149.136V38.779C149.136 39.481 149.708 40.118 150.573 40.3715L150.319 40.7875C149.338 40.495 148.694 39.715 148.694 38.779V38.5255ZM147.297 38.2395H150.43V38.675H147.297V38.2395ZM148.597 37.531H149.136V38.4215H148.597V37.531ZM151.151 37.557H151.691V40.9695H151.151V37.557ZM151.541 39.0065H152.562V39.455H151.541V39.0065ZM149.585 41.457H150.046V41.613C150.046 42.536 149.071 43.2185 147.921 43.4135L147.713 42.9975C148.727 42.8415 149.585 42.2695 149.585 41.613V41.457ZM149.689 41.457H150.15V41.613C150.15 42.2565 151.021 42.8415 152.016 43.004L151.814 43.42C150.664 43.225 149.689 42.5165 149.689 41.613V41.457ZM147.94 41.288H151.795V41.7235H147.94V41.288ZM157.085 37.5505H157.631V43.4395H157.085V37.5505ZM157.501 39.871H158.593V40.326H157.501V39.871ZM153.361 41.522H153.822C154.908 41.522 155.668 41.483 156.546 41.3205L156.604 41.7755C155.701 41.9445 154.927 41.977 153.822 41.977H153.361V41.522ZM153.361 38.1225H156.091V38.5645H153.894V41.7235H153.361V38.1225Z" fill="white"/>
<path d="M90.5848 38.405H87.5848V43.915H93.1849V40.7319" stroke="white"/>
<path d="M88.5042 39.9949L90.3412 42.137L94.2279 37.4241" stroke="white"/>
</g>
</g>
<defs>
<clipPath id="clip0_6_87">
<rect width="345" height="47" fill="white"/>
</clipPath>
</defs>
</svg>
