<svg width="800" height="109" viewBox="0 0 800 109" fill="none" xmlns="http://www.w3.org/2000/svg">
<g clip-path="url(#clip0_5_48)">
<mask id="mask0_5_48" style="mask-type:luminance" maskUnits="userSpaceOnUse" x="0" y="0" width="800" height="109">
<path d="M800 0H0V109H800V0Z" fill="white"/>
</mask>
<g mask="url(#mask0_5_48)">
<path d="M129.434 38.41H151.74V42.362H129.434V38.41ZM148.7 38.41H153.678V41.526C153.678 44.604 153.678 47.91 152.766 52.052L147.788 51.596C148.7 47.53 148.7 44.566 148.7 41.526V38.41ZM150.22 44.338V47.796L129.016 48.632L128.446 44.794L150.22 44.338ZM125.596 50.76H157.288V54.712H125.596V50.76ZM129.016 56.764H153.868V66.074H134.07V69.874H129.054V62.502H148.852V60.564H129.016V56.764ZM129.054 68.164H155.046V72.002H129.054V68.164ZM161.427 60.45H163.897C168.077 60.45 171.763 60.374 176.095 59.69L176.475 63.756C171.991 64.516 168.191 64.63 163.897 64.63H161.427V60.45ZM161.389 40.614H174.727V54.218H166.329V61.97H161.427V50.228H169.825V44.642H161.389V40.614ZM185.899 37.194H190.687V72.382H185.899V37.194ZM181.187 50.494H187.039V54.522H181.187V50.494ZM178.033 37.802H182.707V70.71H178.033V37.802ZM203.68 38.79H207.86V42.172C207.86 48.822 204.63 54.864 197.752 57.068L195.282 53.078C201.21 51.178 203.68 46.618 203.68 42.172V38.79ZM204.706 38.79H208.848V42.172C208.848 46.504 211.28 50.76 217.018 52.508L214.548 56.46C207.822 54.332 204.706 48.708 204.706 42.172V38.79ZM200.678 59.728H224.694V72.382H219.602V63.756H200.678V59.728ZM219.602 37.194H224.694V58.17H219.602V37.194ZM253.039 37.232H258.093V63.528H253.039V37.232ZM256.649 47.948H262.767V52.09H256.649V47.948ZM230.391 40.88H251.101V44.832H230.391V40.88ZM240.765 46.086C245.819 46.086 249.391 48.86 249.391 52.888C249.391 56.916 245.819 59.652 240.765 59.652C235.673 59.652 232.101 56.916 232.101 52.888C232.101 48.86 235.673 46.086 240.765 46.086ZM240.765 49.924C238.523 49.924 236.965 50.988 236.965 52.888C236.965 54.788 238.523 55.814 240.765 55.814C243.007 55.814 244.565 54.788 244.565 52.888C244.565 50.988 243.007 49.924 240.765 49.924ZM238.219 37.156H243.273V42.818H238.219V37.156ZM235.407 67.746H259.347V71.774H235.407V67.746ZM235.407 61.552H240.461V69.494H235.407V61.552ZM278.6 53.52H306.593V57.992H278.6V53.52ZM274.386 63.625H310.42V68.269H274.386V63.625ZM278.6 35.89H306.249V40.491H284.405V54.767H278.6V35.89ZM282.642 44.662H305.346V49.091H282.642V44.662ZM313.9 51.026H349.977V55.154H313.9V51.026ZM317.942 57.046H345.677V66.506H323.704V69.903H318.028V62.894H340.044V60.916H317.942V57.046ZM318.028 68.699H346.795V72.569H318.028V68.699ZM318.329 33.654H345.591V43.028H324.048V46.296H318.372V39.459H339.958V37.481H318.329V33.654ZM318.372 45.092H346.322V48.962H318.372V45.092ZM329.079 47.156H334.798V52.832H329.079V47.156ZM380.89 32.966H386.609V72.913H380.89V32.966ZM355.606 58.981H359.132C366.184 58.981 371.817 58.723 378.138 57.648L378.697 62.249C372.247 63.41 366.399 63.625 359.132 63.625H355.606V58.981ZM355.563 36.363H374.354V51.757H361.411V60.701H355.606V47.242H368.506V40.921H355.563V36.363ZM399.835 65.2216L399.686 66.706C399.569 67.8935 399.345 69.0765 399.012 70.255C398.688 71.4425 398.346 72.5175 397.986 73.4801C397.635 74.4427 397.352 75.1984 397.136 75.7472H393.412C393.547 75.2164 393.731 74.4742 393.965 73.5206C394.199 72.576 394.419 71.5144 394.626 70.3359C394.833 69.1574 394.963 67.9564 395.017 66.733L395.085 65.2216H399.835ZM412.533 69V64.7898L422.37 55.6811C423.207 54.8714 423.909 54.1428 424.475 53.495C425.051 52.8473 425.488 52.2131 425.784 51.5923C426.081 50.9626 426.23 50.2834 426.23 49.5547C426.23 48.745 426.045 48.0478 425.676 47.4631C425.308 46.8693 424.804 46.415 424.165 46.1001C423.526 45.7763 422.802 45.6143 421.993 45.6143C421.147 45.6143 420.409 45.7853 419.779 46.1271C419.15 46.469 418.664 46.9593 418.322 47.598C417.98 48.2367 417.809 48.9969 417.809 49.8785H412.263C412.263 48.0703 412.672 46.5005 413.491 45.169C414.31 43.8376 415.457 42.8075 416.932 42.0788C418.408 41.3501 420.108 40.9858 422.033 40.9858C424.012 40.9858 425.735 41.3366 427.201 42.0384C428.677 42.7311 429.824 43.6937 430.642 44.9261C431.461 46.1586 431.87 47.571 431.87 49.1634C431.87 50.2069 431.663 51.237 431.25 52.2536C430.845 53.2701 430.121 54.3991 429.077 55.6406C428.033 56.8731 426.563 58.353 424.664 60.0803L420.63 64.0341V64.223H432.235V69H412.533ZM435.749 54.56H467.555V58.55H435.749V54.56ZM449.125 37.308H454.141V42.476H449.125V37.308ZM448.821 42.704H453.267V43.388C453.267 48.708 448.175 52.47 438.561 53.116L437.079 49.316C445.553 48.822 448.821 46.048 448.821 43.388V42.704ZM449.999 42.704H454.445V43.388C454.445 46.048 457.713 48.822 466.187 49.316L464.705 53.116C455.091 52.47 449.999 48.708 449.999 43.388V42.704ZM438.789 40.348H464.515V44.262H438.789V40.348ZM451.595 60.45C459.271 60.45 463.793 62.578 463.793 66.416C463.793 70.292 459.271 72.382 451.595 72.382C443.919 72.382 439.359 70.292 439.359 66.416C439.359 62.578 443.919 60.45 451.595 60.45ZM451.595 64.174C446.807 64.174 444.489 64.82 444.489 66.416C444.489 67.974 446.807 68.658 451.595 68.658C456.345 68.658 458.701 67.974 458.701 66.416C458.701 64.82 456.345 64.174 451.595 64.174ZM504.01 37.156H509.026V72.458H504.01V37.156ZM496.03 49.544H505.454V53.61H496.03V49.544ZM480.792 39.93H485.808V48.442H492.724V39.93H497.702V64.174H480.792V39.93ZM485.808 52.356V60.108H492.724V52.356H485.808ZM527.53 39.208H531.938V41.754C531.938 49.392 526.504 56.156 517.384 57.942L515.218 53.762C523.16 52.394 527.53 46.808 527.53 41.754V39.208ZM528.556 39.208H532.926V41.754C532.926 46.922 537.258 52.394 545.238 53.762L543.072 57.942C533.952 56.156 528.556 49.506 528.556 41.754V39.208ZM514.496 63.984H546.34V68.088H514.496V63.984ZM560.43 35.374H566.063V40.577H574.104V35.374H579.78V54.681H560.43V35.374ZM566.063 44.963V50.209H574.104V44.963H566.063ZM564.343 58.637H591.519V72.827H585.757V63.152H564.343V58.637ZM585.757 33.009H591.519V56.788H585.757V33.009ZM625.701 32.966H631.377V72.913H625.701V32.966ZM616.671 46.984H627.335V51.585H616.671V46.984ZM599.428 36.105H605.104V45.737H612.93V36.105H618.563V63.539H599.428V36.105ZM605.104 50.166V58.938H612.93V50.166H605.104ZM652.315 35.288H657.303V38.169C657.303 46.812 651.154 54.466 640.834 56.487L638.383 51.757C647.37 50.209 652.315 43.888 652.315 38.169V35.288ZM653.476 35.288H658.421V38.169C658.421 44.017 663.323 50.209 672.353 51.757L669.902 56.487C659.582 54.466 653.476 46.941 653.476 38.169V35.288ZM637.566 63.324H673.6V67.968H637.566V63.324Z" fill="white"/>
<path d="M129.139 3.902H130.558V6.5035C130.558 9.4275 128.902 12.502 126.043 13.8135L125.075 12.416C127.612 11.2765 129.139 8.718 129.139 6.5035V3.902ZM129.418 3.902H130.837V6.5035C130.837 8.718 132.278 10.9325 134.772 11.943L133.826 13.319C131.009 12.1365 129.418 9.406 129.418 6.5035V3.902ZM139.738 2.7625H141.437V14.5015H139.738V2.7625ZM136.599 7.7935H140.276V9.277H136.599V7.7935ZM135.567 3.085H137.266V14.394H135.567V3.085ZM128.408 15.555H141.437V22.177H139.674V17.017H128.408V15.555ZM158.14 2.741H159.925V13.749H158.14V2.741ZM159.43 7.471H162.806V8.9545H159.43V7.471ZM152.765 3.988H154.657C154.657 8.89 151.239 12.416 145.52 13.964L144.832 12.545C149.863 11.169 152.765 8.3525 152.765 4.7835V3.988ZM145.67 3.988H153.754V5.4285H145.67V3.988ZM147.691 14.6735H159.925V21.919H147.691V14.6735ZM158.162 16.114H149.454V20.457H158.162V16.114ZM169.469 14.695H170.845V15.7485C170.845 18.2855 169.254 20.844 166.459 21.919L165.556 20.586C168.007 19.7045 169.469 17.619 169.469 15.7485V14.695ZM169.856 14.695H171.189V15.7485C171.189 17.705 172.35 19.7905 174.672 20.7365L173.92 22.091C171.125 20.9945 169.856 18.3285 169.856 15.7485V14.695ZM176.65 14.695H177.983V15.7485C177.983 18.0275 176.693 20.9085 173.92 22.091L173.167 20.7365C175.468 19.683 176.65 17.4255 176.65 15.7485V14.695ZM177.016 14.695H178.392V15.7485C178.392 17.748 179.832 19.7475 182.305 20.586L181.402 21.919C178.564 20.887 177.016 18.436 177.016 15.7485V14.695ZM178.757 2.7625H180.563V13.8565H178.757V2.7625ZM170.136 3.8805C173.081 3.8805 175.188 5.7295 175.188 8.417C175.188 11.1045 173.081 12.932 170.136 12.932C167.19 12.932 165.062 11.1045 165.062 8.417C165.062 5.7295 167.19 3.8805 170.136 3.8805ZM170.136 5.364C168.201 5.364 166.803 6.611 166.803 8.417C166.803 10.223 168.201 11.4485 170.136 11.4485C172.071 11.4485 173.468 10.223 173.468 8.417C173.468 6.611 172.071 5.364 170.136 5.364ZM186.775 8.5675H199.976V10.0295H186.775V8.5675ZM184.388 12.631H202.018V14.093H184.388V12.631ZM186.775 3.4505H188.538V9.2985H186.775V3.4505ZM186.646 20.242H200.083V21.704H186.646V20.242ZM186.646 16.028H188.409V20.629H186.646V16.028ZM210.235 18.221H227.844V19.7045H210.235V18.221ZM218.104 13.577H219.889V18.651H218.104V13.577ZM212.299 4.117H214.062V7.5785H223.974V4.117H225.737V14.05H212.299V4.117ZM214.062 9.019V12.588H223.974V9.019H214.062ZM237.796 4.074H239.344V5.5575C239.344 9.793 235.41 13.0825 231.518 13.964L230.723 12.4805C234.141 11.8355 237.796 8.8685 237.796 5.5575V4.074ZM238.119 4.074H239.667V5.5575C239.667 8.89 243.343 11.8355 246.74 12.4805L245.945 13.964C242.075 13.0825 238.119 9.8145 238.119 5.5575V4.074ZM230.013 18.092H247.622V19.554H230.013V18.092ZM260.262 8.2235H264.326V9.664H260.262V8.2235ZM263.982 2.741H265.766V17.189H263.982V2.741ZM253.339 20.285H266.282V21.747H253.339V20.285ZM253.339 15.9635H255.124V21.145H253.339V15.9635ZM250.759 12.6525H252.178C255.898 12.6525 257.962 12.5665 260.456 12.1365L260.628 13.577C258.091 14.05 255.962 14.1145 252.178 14.1145H250.759V12.6525ZM250.759 4.246H259.467V5.708H252.522V12.889H250.759V4.246ZM251.942 8.374H258.929V9.793H251.942V8.374ZM280.734 4.418H282.196V7.901C282.196 12.373 279.788 16.5225 276.606 18.135L275.509 16.673C278.39 15.297 280.734 11.5775 280.734 7.901V4.418ZM281.035 4.418H282.497V7.901C282.497 11.4485 284.819 15.0175 287.7 16.3505L286.625 17.7695C283.464 16.2215 281.035 12.2225 281.035 7.901V4.418ZM289.721 2.7195H291.505V22.1985H289.721V2.7195ZM310.144 2.741H311.864V22.177H310.144V2.741ZM306.876 10.653H310.617V12.115H306.876V10.653ZM305.737 3.171H307.414V21.188H305.737V3.171ZM296.32 5.0845H298.104V16.3075H296.32V5.0845ZM296.32 15.598H297.567C299.566 15.598 301.802 15.469 304.339 14.9745L304.533 16.5225C301.888 17.0385 299.652 17.146 297.567 17.146H296.32V15.598ZM315.152 11.771H332.782V13.1255H315.152V11.771ZM317.238 14.695H330.568V18.8445H319.065V21.1235H317.302V17.619H328.826V15.9635H317.238V14.695ZM317.302 20.6505H331.191V21.9405H317.302V20.6505ZM317.388 3.3H330.503V7.342H319.194V9.449H317.431V6.138H328.762V4.5685H317.388V3.3ZM317.431 9.019H330.869V10.309H317.431V9.019ZM355.189 2.741H356.973V17.2105H355.189V2.741ZM341.558 4.3105H351.792V5.7725H341.558V4.3105ZM341.235 14.2865L341.042 12.76C344.224 12.76 348.76 12.717 352.394 12.287L352.501 13.62C348.76 14.222 344.396 14.2865 341.235 14.2865ZM343.493 5.5575H345.213V13.018H343.493V5.5575ZM348.137 5.5575H349.857V13.018H348.137V5.5575ZM351.964 6.4175H356.135V7.8795H351.964V6.4175ZM351.964 10.137H356.135V11.599H351.964V10.137ZM344.546 20.285H357.489V21.747H344.546V20.285ZM344.546 16.028H346.331V21.2095H344.546V16.028ZM373.935 2.741H375.72V22.177H373.935V2.741ZM375.29 10.7175H378.902V12.2225H375.29V10.7175ZM360.67 5.837H372.129V7.299H360.67V5.837ZM366.475 8.9115C369.227 8.9115 371.205 10.7605 371.205 13.3835C371.205 16.0065 369.227 17.8555 366.475 17.8555C363.744 17.8555 361.745 16.0065 361.745 13.3835C361.745 10.7605 363.744 8.9115 366.475 8.9115ZM366.475 10.395C364.712 10.395 363.443 11.6205 363.443 13.3835C363.443 15.125 364.712 16.372 366.475 16.372C368.238 16.372 369.506 15.125 369.506 13.3835C369.506 11.6205 368.238 10.395 366.475 10.395ZM365.55 2.9775H367.335V6.5035H365.55V2.9775ZM395.347 2.741H397.067V22.177H395.347V2.741ZM386.919 10.6745H391.821V12.115H386.919V10.6745ZM391.305 3.2355H392.982V21.188H391.305V3.2355ZM387.156 5.192H388.876C388.876 10.2875 386.833 14.867 381.587 17.9845L380.534 16.716C385.113 13.964 387.156 10.094 387.156 5.5145V5.192ZM381.394 5.192H387.822V6.654H381.394V5.192ZM414.271 11.599H416.034V15.082H414.271V11.599ZM408.703 7.901H421.861V9.3415H408.703V7.901ZM408.703 3.4935H421.646V4.934H410.466V8.675H408.703V3.4935ZM406.359 10.8895H423.925V12.3515H406.359V10.8895ZM408.488 14.2435H421.689V18.6295H410.294V20.973H408.531V17.318H419.926V15.6195H408.488V14.2435ZM408.531 20.5645H422.269V21.962H408.531V20.5645ZM440.349 2.7195H442.133V22.1985H440.349V2.7195ZM436.651 10.2015H440.779V11.6635H436.651V10.2015ZM426.868 16.0495H428.352C431.792 16.0495 434.221 15.942 437.081 15.426L437.253 16.9095C434.329 17.4255 431.856 17.5545 428.352 17.5545H426.868V16.0495ZM426.825 4.547H435.511V11.3625H428.631V16.501H426.868V9.9005H433.748V6.009H426.825V4.547ZM445.937 18.221H463.546V19.7045H445.937V18.221ZM453.806 13.577H455.591V18.651H453.806V13.577ZM448.001 4.117H449.764V7.5785H459.676V4.117H461.439V14.05H448.001V4.117ZM449.764 9.019V12.588H459.676V9.019H449.764ZM470.51 5.5145H471.929V8.675C471.929 12.717 469.457 16.888 466.425 18.436L465.393 17.017C468.167 15.6625 470.51 11.9645 470.51 8.675V5.5145ZM470.833 5.5145H472.252V8.675C472.252 11.7495 474.445 15.211 477.261 16.544L476.251 17.963C473.176 16.4365 470.833 12.5235 470.833 8.675V5.5145ZM466.081 4.719H476.552V6.224H466.081V4.719ZM478.852 2.741H480.658V22.177H478.852V2.741ZM480.228 10.5885H483.84V12.0935H480.228V10.5885ZM488.45 4.86364L488.297 16.1023H486.526L486.373 4.86364H488.45ZM487.412 20.6222C487.035 20.6222 486.712 20.4873 486.442 20.2175C486.172 19.9477 486.038 19.6245 486.038 19.2479C486.038 18.8712 486.172 18.548 486.442 18.2782C486.712 18.0085 487.035 17.8736 487.412 17.8736C487.789 17.8736 488.112 18.0085 488.381 18.2782C488.651 18.548 488.786 18.8712 488.786 19.2479C488.786 19.4973 488.723 19.7263 488.595 19.935C488.473 20.1437 488.308 20.3117 488.099 20.4389C487.895 20.5611 487.666 20.6222 487.412 20.6222Z" fill="white"/>
<path d="M149.676 90.536H150.9V93.452C150.9 97.196 148.884 100.67 146.22 102.02L145.302 100.796C147.714 99.644 149.676 96.53 149.676 93.452V90.536ZM149.928 90.536H151.152V93.452C151.152 96.422 153.096 99.41 155.508 100.526L154.608 101.714C151.962 100.418 149.928 97.07 149.928 93.452V90.536ZM157.2 89.114H158.694V105.422H157.2V89.114ZM174.299 89.132H175.739V105.404H174.299V89.132ZM171.563 95.756H174.695V96.98H171.563V95.756ZM170.609 89.492H172.013V104.576H170.609V89.492ZM162.725 91.094H164.219V100.49H162.725V91.094ZM162.725 99.896H163.769C165.443 99.896 167.315 99.788 169.439 99.374L169.601 100.67C167.387 101.102 165.515 101.192 163.769 101.192H162.725V99.896ZM183.554 98.978H198.296V100.22H183.554V98.978ZM190.178 99.338H191.654V105.422H190.178V99.338ZM185.516 96.098H196.658V97.322H185.516V96.098ZM185.516 89.888H196.478V91.094H186.992V96.458H185.516V89.888ZM186.56 92.966H196.082V94.136H186.56V92.966ZM204.468 90.374C206.826 90.374 208.518 92.588 208.518 96.044C208.518 99.518 206.826 101.732 204.468 101.732C202.092 101.732 200.418 99.518 200.418 96.044C200.418 92.588 202.092 90.374 204.468 90.374ZM204.468 91.724C202.902 91.724 201.84 93.416 201.84 96.044C201.84 98.69 202.902 100.418 204.468 100.418C206.034 100.418 207.096 98.69 207.096 96.044C207.096 93.416 206.034 91.724 204.468 91.724ZM212.046 89.114H213.522V105.422H212.046V89.114ZM208.032 95.324H212.694V96.548H208.032V95.324ZM218.543 96.728H229.721V97.952H218.543V96.728ZM216.689 102.11H231.431V103.37H216.689V102.11ZM223.277 97.25H224.771V102.614H223.277V97.25ZM218.543 90.428H229.559V91.652H220.037V97.268H218.543V90.428ZM238.994 100.256H240.272C243.278 100.256 245.348 100.184 247.796 99.752L247.958 100.976C245.438 101.408 243.314 101.498 240.272 101.498H238.994V100.256ZM238.994 90.608H246.572V91.85H240.488V100.688H238.994V90.608ZM240.11 95.162H246.212V96.368H240.11V95.162ZM249.308 89.132H250.82V105.404H249.308V89.132ZM250.46 95.666H253.484V96.926H250.46V95.666ZM255.787 90.716H263.275V101.318H255.787V90.716ZM261.817 91.922H257.245V100.112H261.817V91.922ZM266.677 89.114H268.171V105.422H266.677V89.114ZM277.943 90.248H279.239V91.49C279.239 95.036 275.945 97.79 272.687 98.528L272.021 97.286C274.883 96.746 277.943 94.262 277.943 91.49V90.248ZM278.213 90.248H279.509V91.49C279.509 94.28 282.587 96.746 285.431 97.286L284.765 98.528C281.525 97.79 278.213 95.054 278.213 91.49V90.248ZM271.427 101.984H286.169V103.208H271.427V101.984ZM292.09 97.34H293.584V101.228H292.09V97.34ZM292.828 90.176C295.33 90.176 297.13 91.742 297.13 94.01C297.13 96.278 295.33 97.844 292.828 97.844C290.326 97.844 288.526 96.278 288.526 94.01C288.526 91.742 290.326 90.176 292.828 90.176ZM292.828 91.454C291.172 91.454 289.984 92.498 289.984 94.01C289.984 95.522 291.172 96.566 292.828 96.566C294.484 96.566 295.672 95.522 295.672 94.01C295.672 92.498 294.484 91.454 292.828 91.454ZM298.984 89.132H300.478V105.404H298.984V89.132ZM300.046 95.828H303.052V97.088H300.046V95.828ZM288.004 101.894L287.788 100.652C290.722 100.634 294.646 100.616 297.958 100.166L298.084 101.282C294.646 101.858 290.848 101.894 288.004 101.894ZM320.731 89.132H322.225V98.924H320.731V89.132ZM321.811 93.452H324.637V94.694H321.811V93.452ZM312.001 99.842H322.225V105.188H312.001V99.842ZM320.767 101.048H313.459V103.982H320.767V101.048ZM309.643 90.842H319.255V92.066H309.643V90.842ZM314.449 92.858C316.771 92.858 318.337 94.01 318.337 95.774C318.337 97.538 316.771 98.654 314.449 98.654C312.109 98.654 310.543 97.538 310.543 95.774C310.543 94.01 312.109 92.858 314.449 92.858ZM314.449 94.01C312.955 94.01 311.965 94.694 311.965 95.774C311.965 96.836 312.955 97.52 314.449 97.52C315.907 97.52 316.915 96.836 316.915 95.774C316.915 94.694 315.907 94.01 314.449 94.01ZM313.693 88.988H315.187V91.472H313.693V88.988ZM328.883 91.076H330.143C330.143 94.568 329.675 98.402 327.353 101.57L326.183 100.886C328.415 97.988 328.883 94.586 328.883 91.184V91.076ZM326.525 91.076H329.621V92.318H326.525V91.076ZM332.465 91.076H333.743C333.743 94.514 333.527 99.086 330.971 102.614L329.783 101.93C332.267 98.69 332.465 94.46 332.465 91.202V91.076ZM330.683 91.076H333.257V92.318H330.683V91.076ZM338.603 89.132H340.043V105.404H338.603V89.132ZM332.987 95.522H335.903V96.746H332.987V95.522ZM335.597 89.546H337.001V104.576H335.597V89.546Z" fill="white"/>
<path d="M132.562 91.792H125V105.681H139.12V97.656" stroke="white" stroke-width="1.8"/>
<path d="M127.315 95.802L131.944 101.202L141.744 89.3191" stroke="white" stroke-width="1.8"/>
</g>
</g>
<defs>
<clipPath id="clip0_5_48">
<rect width="800" height="109" fill="white"/>
</clipPath>
</defs>
</svg>
