<svg width="346" height="48" viewBox="0 0 346 48" fill="none" xmlns="http://www.w3.org/2000/svg">
<g clip-path="url(#clip0_6_302)">
<mask id="mask0_6_302" style="mask-type:luminance" maskUnits="userSpaceOnUse" x="0" y="0" width="345" height="48">
<path d="M345 0.5H0V47.5H345V0.5Z" fill="white"/>
</mask>
<g mask="url(#mask0_6_302)">
<path d="M85.35 8.758H91.083V9.241H85.35V8.758ZM87.912 7.246H88.493V8.898H87.912V7.246ZM86.022 4.166H86.596V5.293H89.823V4.166H90.397V7.4H86.022V4.166ZM86.596 5.762V6.924H89.823V5.762H86.596ZM94.3235 4.152H94.8275V4.635C94.8275 6.014 93.5465 7.085 92.2795 7.372L92.0205 6.889C93.1335 6.679 94.3235 5.713 94.3235 4.635V4.152ZM94.4285 4.152H94.9325V4.635C94.9325 5.72 96.1295 6.679 97.2355 6.889L96.9765 7.372C95.7165 7.085 94.4285 6.021 94.4285 4.635V4.152ZM91.7895 8.716H97.5225V9.192H91.7895V8.716ZM101.638 5.503H102.961V5.972H101.638V5.503ZM102.849 3.718H103.43V8.422H102.849V3.718ZM99.3839 9.43H103.598V9.906H99.3839V9.43ZM99.3839 8.023H99.9649V9.71H99.3839V8.023ZM98.5439 6.945H99.0059C100.217 6.945 100.889 6.917 101.701 6.777L101.757 7.246C100.931 7.4 100.238 7.421 99.0059 7.421H98.5439V6.945ZM98.5439 4.208H101.379V4.684H99.1179V7.022H98.5439V4.208ZM98.9289 5.552H101.204V6.014H98.9289V5.552ZM106.719 4.173C107.706 4.173 108.413 4.782 108.413 5.664C108.413 6.553 107.706 7.162 106.719 7.162C105.732 7.162 105.018 6.553 105.018 5.664C105.018 4.782 105.732 4.173 106.719 4.173ZM106.719 4.677C106.061 4.677 105.585 5.076 105.585 5.664C105.585 6.252 106.061 6.658 106.719 6.658C107.37 6.658 107.846 6.252 107.846 5.664C107.846 5.076 107.37 4.677 106.719 4.677ZM109.239 3.711H109.82V10.053H109.239V3.711ZM104.78 8.667L104.696 8.184C105.851 8.184 107.447 8.177 108.826 7.96L108.875 8.387C107.454 8.66 105.907 8.667 104.78 8.667ZM116.094 4.74H117.921V5.216H116.094V4.74ZM116.094 6H117.935V6.469H116.094V6ZM117.697 3.718H118.278V7.463H117.697V3.718ZM113.364 4.194H116.255V7.008H113.364V4.194ZM115.681 4.663H113.931V6.546H115.681V4.663ZM116.199 7.645C117.501 7.645 118.306 8.086 118.306 8.842C118.306 9.598 117.501 10.032 116.199 10.032C114.89 10.032 114.085 9.598 114.085 8.842C114.085 8.086 114.89 7.645 116.199 7.645ZM116.199 8.107C115.247 8.107 114.666 8.38 114.666 8.842C114.666 9.304 115.247 9.577 116.199 9.577C117.151 9.577 117.732 9.304 117.732 8.842C117.732 8.38 117.151 8.107 116.199 8.107ZM119.516 8.744H125.249V9.227H119.516V8.744ZM122.064 7.211H122.638V8.905H122.064V7.211ZM122.05 4.138H122.554V4.628C122.554 5.979 121.259 7.022 119.985 7.288L119.74 6.805C120.853 6.602 122.05 5.671 122.05 4.628V4.138ZM122.155 4.138H122.659V4.628C122.659 5.678 123.863 6.602 124.976 6.805L124.724 7.288C123.45 7.022 122.155 5.979 122.155 4.628V4.138ZM125.948 6.658H131.688V7.099H125.948V6.658ZM126.627 7.61H130.967V8.961H127.222V9.703H126.648V8.562H130.4V8.023H126.627V7.61ZM126.648 9.549H131.17V9.969H126.648V9.549ZM126.676 3.9H130.946V5.216H127.264V5.902H126.69V4.824H130.379V4.313H126.676V3.9ZM126.69 5.762H131.065V6.182H126.69V5.762ZM138.69 3.725H139.271V8.471H138.69V3.725ZM139.089 5.797H140.209V6.287H139.089V5.797ZM134.378 4.488H138.116V4.957H134.378V4.488ZM136.247 5.307C137.143 5.307 137.759 5.776 137.759 6.49C137.759 7.197 137.143 7.666 136.247 7.666C135.344 7.666 134.728 7.197 134.728 6.49C134.728 5.776 135.344 5.307 136.247 5.307ZM136.247 5.762C135.673 5.762 135.281 6.049 135.281 6.49C135.281 6.924 135.673 7.211 136.247 7.211C136.814 7.211 137.206 6.924 137.206 6.49C137.206 6.049 136.814 5.762 136.247 5.762ZM135.953 3.718H136.534V4.733H135.953V3.718ZM135.33 9.43H139.558V9.906H135.33V9.43ZM135.33 8.093H135.911V9.633H135.33V8.093ZM141.58 5.636H145.878V6.098H141.58V5.636ZM141.58 3.956H142.154V5.825H141.58V3.956ZM140.803 6.84H146.522V7.316H140.803V6.84ZM143.421 7.148H143.995V8.618H143.421V7.148ZM141.531 9.43H145.913V9.906H141.531V9.43ZM141.531 8.058H142.105V9.654H141.531V8.058ZM149.805 6.175H151.002V6.658H149.805V6.175ZM152.059 3.718H152.619V10.046H152.059V3.718ZM150.806 3.851H151.359V9.731H150.806V3.851ZM148.664 4.243C149.483 4.243 150.015 5.09 150.015 6.448C150.015 7.806 149.483 8.653 148.664 8.653C147.845 8.653 147.32 7.806 147.32 6.448C147.32 5.09 147.845 4.243 148.664 4.243ZM148.664 4.782C148.167 4.782 147.852 5.426 147.852 6.448C147.852 7.47 148.167 8.114 148.664 8.114C149.168 8.114 149.483 7.47 149.483 6.448C149.483 5.426 149.168 4.782 148.664 4.782Z" fill="white"/>
<path d="M96.593 39.4545H98.1725V39.903H96.593V39.4545ZM95.241 38.3235C96.1185 38.3235 96.7555 38.8825 96.7555 39.6885C96.7555 40.4945 96.1185 41.047 95.241 41.047C94.3635 41.047 93.7265 40.4945 93.7265 39.6885C93.7265 38.8825 94.3635 38.3235 95.241 38.3235ZM95.241 38.7785C94.6625 38.7785 94.2465 39.149 94.2465 39.6885C94.2465 40.2215 94.6625 40.5985 95.241 40.5985C95.8195 40.5985 96.2355 40.2215 96.2355 39.6885C96.2355 39.149 95.8195 38.7785 95.241 38.7785ZM97.932 38.057H98.4715V41.2095H97.932V38.057ZM94.708 41.502H95.2475V42.243H97.9385V41.502H98.4715V43.855H94.708V41.502ZM95.2475 42.672V43.4195H97.9385V42.672H95.2475ZM102.013 40.3775H103.125V40.8195H102.013V40.3775ZM100.817 39.5585H101.233V39.864C101.233 41.034 100.746 42.217 99.888 42.7305L99.5695 42.321C100.362 41.8595 100.817 40.826 100.817 39.864V39.5585ZM100.915 39.5585H101.331V39.864C101.331 40.8 101.799 41.7685 102.592 42.1975L102.286 42.6005C101.422 42.1195 100.915 41.008 100.915 39.864V39.5585ZM99.732 39.136H102.416V39.5845H99.732V39.136ZM100.817 38.265H101.337V39.4805H100.817V38.265ZM104.087 38.057H104.607V43.933H104.087V38.057ZM102.91 38.1935H103.417V43.634H102.91V38.1935ZM107.083 41.021H107.622V42.425H107.083V41.021ZM107.349 38.434C108.253 38.434 108.903 38.9995 108.903 39.8185C108.903 40.6375 108.253 41.203 107.349 41.203C106.446 41.203 105.796 40.6375 105.796 39.8185C105.796 38.9995 106.446 38.434 107.349 38.434ZM107.349 38.8955C106.751 38.8955 106.322 39.2725 106.322 39.8185C106.322 40.3645 106.751 40.7415 107.349 40.7415C107.947 40.7415 108.376 40.3645 108.376 39.8185C108.376 39.2725 107.947 38.8955 107.349 38.8955ZM109.572 38.057H110.112V43.933H109.572V38.057ZM109.956 40.475H111.041V40.93H109.956V40.475ZM105.607 42.6655L105.529 42.217C106.589 42.2105 108.006 42.204 109.202 42.0415L109.247 42.4445C108.006 42.6525 106.634 42.6655 105.607 42.6655ZM113.485 38.4795C114.401 38.4795 115.058 39.045 115.058 39.864C115.058 40.6895 114.401 41.255 113.485 41.255C112.568 41.255 111.905 40.6895 111.905 39.864C111.905 39.045 112.568 38.4795 113.485 38.4795ZM113.485 38.9475C112.874 38.9475 112.432 39.318 112.432 39.864C112.432 40.41 112.874 40.787 113.485 40.787C114.089 40.787 114.531 40.41 114.531 39.864C114.531 39.318 114.089 38.9475 113.485 38.9475ZM115.825 38.0505H116.364V43.9395H115.825V38.0505ZM111.684 42.6525L111.606 42.204C112.679 42.204 114.161 42.1975 115.441 41.996L115.487 42.3925C114.167 42.646 112.731 42.6525 111.684 42.6525ZM122.021 41.762C123.269 41.762 124.068 42.1715 124.068 42.8475C124.068 43.517 123.269 43.92 122.021 43.92C120.766 43.92 119.973 43.517 119.973 42.8475C119.973 42.1715 120.766 41.762 122.021 41.762ZM122.021 42.1845C121.098 42.1845 120.506 42.438 120.506 42.8475C120.506 43.2505 121.098 43.504 122.021 43.504C122.944 43.504 123.529 43.2505 123.529 42.8475C123.529 42.438 122.944 42.1845 122.021 42.1845ZM120.019 38.3495H123.802V38.7915H120.019V38.3495ZM119.388 40.7935H124.692V41.229H119.388V40.7935ZM121.566 39.6625H122.099V40.917H121.566V39.6625ZM123.49 38.3495H124.016V38.85C124.016 39.3245 124.016 39.799 123.86 40.41L123.327 40.345C123.49 39.7405 123.49 39.3115 123.49 38.85V38.3495ZM126.895 38.3365H127.344V38.9085C127.344 40.02 126.681 40.9755 125.686 41.3525L125.413 40.9235C126.304 40.5985 126.895 39.786 126.895 38.9085V38.3365ZM126.993 38.3365H127.435V38.9085C127.435 39.7535 128.039 40.514 128.91 40.8195L128.637 41.242C127.656 40.8845 126.993 39.9875 126.993 38.9085V38.3365ZM126.258 41.892H130.184V43.933H129.638V42.334H126.258V41.892ZM129.638 38.057H130.184V41.593H129.638V38.057ZM135.45 39.6885H136.757V40.124H135.45V39.6885ZM135.405 41.164H136.744V41.5995H135.405V41.164ZM137.647 38.057H138.167V43.933H137.647V38.057ZM136.471 38.2065H136.978V43.634H136.471V38.2065ZM135.158 38.798H135.678C135.678 40.3385 135.06 41.723 133.481 42.6655L133.169 42.282C134.54 41.45 135.158 40.28 135.158 38.8955V38.798ZM133.429 38.798H135.372V39.24H133.429V38.798ZM143.549 38.9475H144.569V39.4025H143.549V38.9475ZM143.549 40.2085H144.569V40.657H143.549V40.2085ZM143.172 38.057H143.711V41.5475H143.172V38.057ZM139.896 41.827H143.711V43.933H143.172V42.2625H139.896V41.827ZM140.793 38.4015C141.677 38.4015 142.327 38.9735 142.327 39.799C142.327 40.618 141.677 41.1835 140.793 41.1835C139.909 41.1835 139.259 40.618 139.259 39.799C139.259 38.9735 139.909 38.4015 140.793 38.4015ZM140.793 38.863C140.208 38.863 139.785 39.24 139.785 39.799C139.785 40.3515 140.208 40.735 140.793 40.735C141.378 40.735 141.8 40.3515 141.8 39.799C141.8 39.24 141.378 38.863 140.793 38.863Z" fill="white"/>
<path d="M88.5848 38.905H85.5848V44.415H91.1849V41.2319" stroke="white"/>
<path d="M86.5042 40.4949L88.3412 42.637L92.2279 37.9241" stroke="white"/>
<path d="M86.728 20.866H87.905V21.229C87.905 22.835 86.959 24.21 84.979 24.661L84.352 23.539C86.002 23.176 86.728 22.208 86.728 21.229V20.866ZM87.014 20.866H88.191V21.229C88.191 22.131 88.917 23.033 90.534 23.374L89.918 24.485C87.96 24.067 87.014 22.747 87.014 21.229V20.866ZM84.726 20.162H90.193V21.317H84.726V20.162ZM86.728 19.26H88.191V20.778H86.728V19.26ZM90.996 19.293H92.459V24.573H90.996V19.293ZM91.865 21.328H93.801V22.516H91.865V21.328ZM85.727 24.991H92.459V27.708H87.201V28.929H85.749V26.674H91.018V26.102H85.727V24.991ZM85.749 28.302H92.756V29.413H85.749V28.302ZM98.3431 19.876H99.6191V20.613C99.6191 22.824 98.0461 24.782 95.4061 25.299L94.7791 24.089C97.0781 23.693 98.3431 22.076 98.3431 20.613V19.876ZM98.6401 19.876H99.9051V20.613C99.9051 22.109 101.159 23.693 103.469 24.089L102.842 25.299C100.202 24.782 98.6401 22.857 98.6401 20.613V19.876ZM94.5701 27.048H103.788V28.236H94.5701V27.048ZM111.234 19.293H112.697V25.189H111.234V19.293ZM112.29 21.669H114.05V22.868H112.29V21.669ZM108.319 19.953H109.892C109.892 22.692 108.198 24.595 105.195 25.431L104.601 24.265C107.054 23.594 108.319 22.263 108.319 20.69V19.953ZM105.085 19.953H109.21V21.13H105.085V19.953ZM109.397 25.321C111.454 25.321 112.807 26.124 112.807 27.4C112.807 28.687 111.454 29.49 109.397 29.49C107.34 29.49 105.965 28.687 105.965 27.4C105.965 26.124 107.34 25.321 109.397 25.321ZM109.397 26.454C108.154 26.454 107.417 26.784 107.417 27.4C107.417 28.027 108.154 28.357 109.397 28.357C110.64 28.357 111.377 28.027 111.377 27.4C111.377 26.784 110.64 26.454 109.397 26.454ZM116.83 27.4062L116.787 27.8359C116.753 28.1797 116.688 28.5221 116.592 28.8633C116.498 29.207 116.399 29.5182 116.295 29.7969C116.193 30.0755 116.111 30.2943 116.049 30.4531H114.971C115.01 30.2995 115.063 30.0846 115.131 29.8086C115.199 29.5352 115.262 29.2279 115.322 28.8867C115.382 28.5456 115.42 28.1979 115.436 27.8437L115.455 27.4062H116.83ZM127.656 19.293H129.042V29.479H127.656V19.293ZM126.292 23.209H127.986V24.386H126.292V23.209ZM125.379 19.469H126.732V28.995H125.379V19.469ZM120.583 25.981H121.298C122.552 25.981 123.597 25.937 124.807 25.717L124.917 26.905C123.685 27.147 122.607 27.18 121.298 27.18H120.583V25.981ZM120.583 20.47H124.345V21.647H122.035V26.553H120.583V20.47ZM135.554 22.472H138.238V23.649H135.554V22.472ZM132.782 20.074H133.97V21.548C133.97 24.111 133.101 26.476 131.187 27.433L130.274 26.256C132.012 25.453 132.782 23.484 132.782 21.548V20.074ZM133.09 20.074H134.256V21.548C134.256 23.484 134.993 25.343 136.676 26.091L135.807 27.257C133.893 26.333 133.09 24.089 133.09 21.548V20.074ZM137.512 19.282H138.964V29.501H137.512V19.282ZM148.104 20.547H149.864V21.735H148.104V20.547ZM148.104 22.758H149.864V23.946H148.104V22.758ZM143.374 19.843C144.947 19.843 146.146 20.877 146.146 22.318C146.146 23.748 144.947 24.782 143.374 24.782C141.801 24.782 140.602 23.748 140.602 22.318C140.602 20.877 141.801 19.843 143.374 19.843ZM143.374 21.064C142.604 21.064 142.032 21.537 142.032 22.318C142.032 23.11 142.604 23.561 143.374 23.561C144.144 23.561 144.716 23.11 144.716 22.318C144.716 21.537 144.144 21.064 143.374 21.064ZM147.092 19.293H148.555V25.233H147.092V19.293ZM145.233 25.453C147.334 25.453 148.676 26.212 148.676 27.466C148.676 28.731 147.334 29.479 145.233 29.479C143.121 29.479 141.779 28.731 141.779 27.466C141.779 26.212 143.121 25.453 145.233 25.453ZM145.233 26.608C143.935 26.608 143.231 26.883 143.231 27.466C143.231 28.06 143.935 28.335 145.233 28.335C146.531 28.335 147.224 28.06 147.224 27.466C147.224 26.883 146.531 26.608 145.233 26.608ZM155.264 19.436C157.585 19.436 158.949 20.052 158.949 21.174C158.949 22.296 157.585 22.912 155.264 22.912C152.932 22.912 151.579 22.296 151.579 21.174C151.579 20.052 152.932 19.436 155.264 19.436ZM155.264 20.503C153.79 20.503 153.097 20.723 153.097 21.174C153.097 21.647 153.79 21.845 155.264 21.845C156.738 21.845 157.431 21.647 157.431 21.174C157.431 20.723 156.738 20.503 155.264 20.503ZM150.655 23.385H159.862V24.54H150.655V23.385ZM151.711 25.112H158.751V27.73H153.163V28.632H151.722V26.718H157.31V26.201H151.711V25.112ZM151.722 28.313H159.015V29.413H151.722V28.313ZM163.617 20.129H168.468V25.046H163.617V20.129ZM167.027 21.284H165.058V23.891H167.027V21.284ZM169.876 19.293H171.339V26.718H169.876V19.293ZM170.921 22.23H172.692V23.429H170.921V22.23ZM164.772 28.137H171.702V29.303H164.772V28.137ZM164.772 25.992H166.235V28.72H164.772V25.992ZM181.04 23.143H182.833V24.342H181.04V23.143ZM179.951 19.282H181.425V29.468H179.951V19.282ZM173.747 20.261H175.21V26.586H173.747V20.261ZM173.747 25.772H174.627C176.079 25.772 177.652 25.673 179.291 25.343L179.445 26.542C177.762 26.894 176.123 26.982 174.627 26.982H173.747V25.772ZM190.07 19.282H191.544V29.501H190.07V19.282ZM191.214 23.055H193.018V24.254H191.214V23.055ZM183.954 25.838H184.812C186.528 25.838 187.881 25.783 189.377 25.519L189.52 26.729C187.98 27.004 186.583 27.048 184.812 27.048H183.954V25.838ZM183.954 20.228H188.706V21.405H185.406V26.421H183.954V20.228ZM195.71 27.4062L195.667 27.8359C195.633 28.1797 195.568 28.5221 195.472 28.8633C195.378 29.207 195.279 29.5182 195.175 29.7969C195.073 30.0755 194.991 30.2943 194.929 30.4531H193.851C193.89 30.2995 193.943 30.0846 194.011 29.8086C194.078 29.5352 194.142 29.2279 194.202 28.8867C194.262 28.5456 194.3 28.1979 194.315 27.8437L194.335 27.4062H195.71ZM206.979 17.619H208.695V29.657H206.979V17.619ZM208.305 22.312H210.437V23.755H208.305V22.312ZM199.205 19.4H206.212V20.778H199.205V19.4ZM202.728 21.454C204.483 21.454 205.783 22.65 205.783 24.327C205.783 26.004 204.483 27.2 202.728 27.2C200.973 27.2 199.673 26.004 199.673 24.327C199.673 22.65 200.973 21.454 202.728 21.454ZM202.728 22.858C201.909 22.858 201.324 23.404 201.324 24.327C201.324 25.25 201.909 25.796 202.728 25.796C203.547 25.796 204.132 25.25 204.132 24.327C204.132 23.404 203.547 22.858 202.728 22.858ZM201.857 17.814H203.586V19.92H201.857V17.814ZM219.601 17.606H221.317V29.683H219.601V17.606ZM216.871 21.844H220.095V23.235H216.871V21.844ZM211.658 18.555H213.374V21.467H215.74V18.555H217.443V26.849H211.658V18.555ZM213.374 22.806V25.458H215.74V22.806H213.374ZM227.419 18.672H234.998V20.05H227.419V18.672ZM226.197 26.823H237.078V28.24H226.197V26.823ZM234.27 18.672H235.973V20.063C235.973 21.818 235.973 23.482 235.414 26.108L233.711 25.952C234.27 23.521 234.27 21.766 234.27 20.063V18.672ZM234.634 21.974V23.248L227.276 23.612L227.068 22.221L234.634 21.974ZM239.391 17.996H247.789V21.584H241.172V23.417H239.417V20.297H246.034V19.374H239.391V17.996ZM239.417 22.572H248.088V23.937H239.417V22.572ZM238.143 24.821H249.05V26.212H238.143V24.821ZM242.706 25.328H244.435V29.683H242.706V25.328ZM250.115 26.81H261.009V28.214H250.115V26.81ZM254.639 19.283H256.095V19.972C256.095 22.494 254.275 24.522 251.207 25.081L250.531 23.703C253.209 23.287 254.639 21.636 254.639 19.972V19.283ZM254.99 19.283H256.446V19.972C256.446 21.636 257.876 23.235 260.619 23.638L259.956 25.016C256.836 24.47 254.99 22.494 254.99 19.972V19.283ZM251.012 18.62H260.073V19.998H251.012V18.62Z" fill="white"/>
</g>
</g>
<defs>
<clipPath id="clip0_6_302">
<rect width="345" height="47" fill="white" transform="translate(0.5 0.5)"/>
</clipPath>
</defs>
</svg>
