<svg width="802" height="110" viewBox="0 0 802 110" fill="none" xmlns="http://www.w3.org/2000/svg">
<mask id="mask0_46_62" style="mask-type:luminance" maskUnits="userSpaceOnUse" x="1" y="0" width="800" height="110">
<path d="M801 0.5H1V109.5H801V0.5Z" fill="white"/>
</mask>
<g mask="url(#mask0_46_62)">
<mask id="mask1_46_62" style="mask-type:luminance" maskUnits="userSpaceOnUse" x="1" y="0" width="800" height="110">
<path d="M801 0.5H1V109.5H801V0.5Z" fill="white"/>
</mask>
<g mask="url(#mask1_46_62)">
<path d="M111.263 65.573H147.297V70.217H111.263V65.573ZM126.356 57.059H132.075V66.691H126.356V57.059ZM115.047 37.537H120.723V43.643H137.708V37.537H143.384V58.263H115.047V37.537ZM120.723 48.115V53.705H137.708V48.115H120.723ZM165.569 37.279H170.557V40.16C170.557 48.803 164.408 56.457 154.088 58.478L151.637 53.748C160.624 52.2 165.569 45.879 165.569 40.16V37.279ZM166.73 37.279H171.675V40.16C171.675 46.008 176.577 52.2 185.607 53.748L183.156 58.478C172.836 56.457 166.73 48.932 166.73 40.16V37.279ZM150.82 65.315H186.854V69.959H150.82V65.315ZM211.317 45.793H218.67V50.308H211.317V45.793ZM217.939 35H223.658V64.412H217.939V35ZM197.342 69.572H224.561V74.13H197.342V69.572ZM197.342 61.918H203.104V72.754H197.342V61.918ZM192.182 54.522H195.278C202.459 54.522 206.673 54.393 211.618 53.576L212.091 58.048C207.103 58.994 202.631 59.123 195.278 59.123H192.182V54.522ZM192.182 38.01H210.285V42.568H197.858V54.995H192.182V38.01ZM196.138 46.223H209.038V50.652H196.138V46.223ZM254.217 46.367H263.793V50.433H254.217V46.367ZM254.217 57.273H263.793V61.339H254.217V57.273ZM248.137 41.617C253.381 41.617 257.219 46.481 257.219 54.157C257.219 61.909 253.381 66.773 248.137 66.773C242.855 66.773 239.055 61.909 239.055 54.157C239.055 46.481 242.855 41.617 248.137 41.617ZM248.137 46.215C245.591 46.215 243.843 48.989 243.843 54.157C243.843 59.401 245.591 62.213 248.137 62.213C250.721 62.213 252.431 59.401 252.431 54.157C252.431 48.989 250.721 46.215 248.137 46.215ZM262.995 39.147H268.011V74.449H262.995V39.147ZM298.636 39.185H303.424V61.225H298.636V39.185ZM294.342 47.849H299.966V51.953H294.342V47.849ZM291.34 39.869H296.052V60.085H291.34V39.869ZM273.29 42.795H290.352V46.671H273.29V42.795ZM281.878 47.811C286.286 47.811 289.478 50.319 289.478 53.967C289.478 57.615 286.286 60.085 281.878 60.085C277.47 60.085 274.278 57.615 274.278 53.967C274.278 50.319 277.47 47.811 281.878 47.811ZM281.878 51.421C280.016 51.421 278.762 52.333 278.762 53.967C278.762 55.601 280.016 56.513 281.878 56.513C283.702 56.513 284.956 55.601 284.956 53.967C284.956 52.333 283.702 51.421 281.878 51.421ZM279.332 39.527H284.31V45.455H279.332V39.527ZM291.53 61.605C299.054 61.605 303.614 63.885 303.614 67.989C303.614 72.055 299.054 74.373 291.53 74.373C283.968 74.373 279.408 72.055 279.408 67.989C279.408 63.885 283.968 61.605 291.53 61.605ZM291.53 65.367C286.818 65.367 284.462 66.165 284.462 67.989C284.462 69.775 286.818 70.611 291.53 70.611C296.204 70.611 298.56 69.775 298.56 67.989C298.56 66.165 296.204 65.367 291.53 65.367ZM319.723 41.503C325.271 41.503 329.413 45.113 329.413 50.167C329.413 55.259 325.271 58.869 319.723 58.869C314.213 58.869 309.995 55.259 309.995 50.167C309.995 45.113 314.213 41.503 319.723 41.503ZM319.723 45.835C317.025 45.835 314.973 47.431 314.973 50.167C314.973 52.941 317.025 54.537 319.723 54.537C322.421 54.537 324.473 52.941 324.473 50.167C324.473 47.431 322.421 45.835 319.723 45.835ZM332.719 39.147H337.773V74.449H332.719V39.147ZM309.159 67.305L308.551 63.239C314.745 63.239 323.371 63.163 330.781 62.061L331.161 65.709C323.523 67.229 315.239 67.305 309.159 67.305ZM360.739 41.883H364.843V47.013C364.843 56.057 361.727 64.227 354.735 67.457L351.733 63.277C357.851 60.617 360.739 53.853 360.739 47.013V41.883ZM361.727 41.883H365.831V47.013C365.831 53.511 368.605 59.971 374.609 62.555L371.645 66.621C364.843 63.505 361.727 55.677 361.727 47.013V41.883ZM376.281 39.147H381.373V74.449H376.281V39.147ZM394.936 42.795H399.078V44.999C399.078 51.649 395.924 57.615 389.198 59.781L386.576 55.867C392.466 53.967 394.936 49.407 394.936 44.999V42.795ZM395.962 42.795H400.066V44.999C400.066 49.141 402.46 53.435 408.16 55.259L405.576 59.173C399.002 57.045 395.962 51.307 395.962 44.999V42.795ZM387.944 41.237H406.944V45.265H387.944V41.237ZM409.756 39.185H414.81V60.389H409.756V39.185ZM413.404 47.697H419.484V51.839H413.404V47.697ZM391.326 61.909H414.81V74.373H409.756V65.975H391.326V61.909ZM435.723 70.991L430.082 50.2637H435.898L439.11 64.1899H439.299L442.645 50.2637H448.353L451.754 64.1089H451.929L455.087 50.2637H460.89L455.262 70.991H449.176L445.614 57.9555H445.358L441.795 70.991H435.723ZM463.956 70.991V50.2637H469.705V70.991H463.956ZM466.844 47.5919C465.989 47.5919 465.256 47.3085 464.644 46.7417C464.042 46.166 463.74 45.4777 463.74 44.6771C463.74 43.8854 464.042 43.2062 464.644 42.6394C465.256 42.0637 465.989 41.7758 466.844 41.7758C467.699 41.7758 468.427 42.0637 469.03 42.6394C469.642 43.2062 469.948 43.8854 469.948 44.6771C469.948 45.4777 469.642 46.166 469.03 46.7417C468.427 47.3085 467.699 47.5919 466.844 47.5919ZM485.335 50.2637V54.5819H472.852V50.2637H485.335ZM475.686 45.2978H481.435V64.6217C481.435 65.1525 481.516 65.5663 481.678 65.8632C481.839 66.151 482.064 66.3535 482.352 66.4704C482.649 66.5874 482.991 66.6458 483.378 66.6458C483.648 66.6458 483.918 66.6233 484.188 66.5784C484.457 66.5244 484.664 66.4839 484.808 66.4569L485.712 70.7346C485.424 70.8246 485.02 70.928 484.498 71.045C483.976 71.1709 483.342 71.2474 482.595 71.2744C481.21 71.3284 479.995 71.1439 478.952 70.7211C477.917 70.2983 477.112 69.6416 476.536 68.7509C475.96 67.8603 475.677 66.7358 475.686 65.3774V45.2978ZM495.273 59.008V70.991H489.525V43.3546H495.111V53.9207H495.354C495.822 52.6972 496.578 51.7391 497.621 51.0464C498.665 50.3447 499.974 49.9938 501.548 49.9938C502.987 49.9938 504.242 50.3087 505.313 50.9384C506.392 51.5592 507.229 52.4543 507.823 53.6238C508.426 54.7843 508.722 56.1742 508.713 57.7936V70.991H502.965V58.8191C502.974 57.5417 502.65 56.5476 501.993 55.8369C501.346 55.1262 500.437 54.7708 499.267 54.7708C498.485 54.7708 497.792 54.9373 497.189 55.2701C496.596 55.603 496.128 56.0888 495.786 56.7275C495.453 57.3572 495.282 58.1174 495.273 59.008ZM516.597 71.3419C515.707 71.3419 514.942 71.027 514.303 70.3972C513.674 69.7585 513.359 68.9938 513.359 68.1032C513.359 67.2216 513.674 66.4659 514.303 65.8362C514.942 65.2064 515.707 64.8916 516.597 64.8916C517.461 64.8916 518.217 65.2064 518.865 65.8362C519.512 66.4659 519.836 67.2216 519.836 68.1032C519.836 68.697 519.683 69.2412 519.377 69.736C519.08 70.2218 518.689 70.6132 518.203 70.91C517.718 71.1979 517.182 71.3419 516.597 71.3419ZM525.15 62.327H528.114C534.042 62.327 538.564 62.251 543.808 61.415L544.264 65.443C538.944 66.279 534.156 66.431 528.114 66.431H525.15V62.327ZM525.15 42.111H541.68V46.215H530.242V63.657H525.15V42.111ZM529.026 51.877H541.186V55.829H529.026V51.877ZM546.278 39.185H551.37V74.373H546.278V39.185ZM550.23 52.523H556.462V56.703H550.23V52.523ZM560.487 42.339H577.397V66.013H560.487V42.339ZM572.457 46.291H565.465V62.023H572.457V46.291ZM582.869 39.147H587.961V74.449H582.869V39.147ZM606.768 41.199H611.176V43.745C611.176 51.383 605.742 58.147 596.622 59.933L594.456 55.753C602.398 54.385 606.768 48.799 606.768 43.745V41.199ZM607.794 41.199H612.164V43.745C612.164 48.913 616.496 54.385 624.476 55.753L622.31 59.933C613.19 58.147 607.794 51.497 607.794 43.745V41.199ZM593.734 65.975H625.578V70.079H593.734V65.975Z" fill="white"/>
</g>
</g>
</svg>
