<svg width="801" height="110" viewBox="0 0 801 110" fill="none" xmlns="http://www.w3.org/2000/svg">
<g clip-path="url(#clip0_93_67)">
<mask id="mask0_93_67" style="mask-type:luminance" maskUnits="userSpaceOnUse" x="0" y="0" width="801" height="110">
<path d="M800.5 0.5H0.5V109.5H800.5V0.5Z" fill="white"/>
</mask>
<g mask="url(#mask0_93_67)">
<path d="M150.888 58.836H153.852C159.78 58.836 164.302 58.76 169.546 57.924L170.002 61.952C164.682 62.788 159.894 62.94 153.852 62.94H150.888V58.836ZM150.888 38.62H167.418V42.724H155.98V60.166H150.888V38.62ZM154.764 48.386H166.924V52.338H154.764V48.386ZM172.016 35.694H177.108V70.882H172.016V35.694ZM175.968 49.032H182.2V53.212H175.968V49.032ZM186.225 38.848H203.135V62.522H186.225V38.848ZM198.195 42.8H191.203V58.532H198.195V42.8ZM208.607 35.656H213.699V70.958H208.607V35.656ZM232.506 37.708H236.914V40.254C236.914 47.892 231.48 54.656 222.36 56.442L220.194 52.262C228.136 50.894 232.506 45.308 232.506 40.254V37.708ZM233.532 37.708H237.902V40.254C237.902 45.422 242.234 50.894 250.214 52.262L248.048 56.442C238.928 54.656 233.532 48.006 233.532 40.254V37.708ZM219.472 62.484H251.316V66.588H219.472V62.484ZM265.715 38.012C271.263 38.012 275.405 41.622 275.405 46.676C275.405 51.768 271.263 55.378 265.715 55.378C260.205 55.378 255.987 51.768 255.987 46.676C255.987 41.622 260.205 38.012 265.715 38.012ZM265.715 42.344C263.017 42.344 260.965 43.94 260.965 46.676C260.965 49.45 263.017 51.046 265.715 51.046C268.413 51.046 270.465 49.45 270.465 46.676C270.465 43.94 268.413 42.344 265.715 42.344ZM278.711 35.656H283.765V70.958H278.711V35.656ZM255.151 63.814L254.543 59.748C260.737 59.748 269.363 59.672 276.773 58.57L277.153 62.218C269.515 63.738 261.231 63.814 255.151 63.814ZM305.933 36.91H310.037V39.152C310.037 45.84 306.921 51.616 300.119 53.744L297.687 49.716C303.501 47.968 305.933 43.674 305.933 39.152V36.91ZM306.959 36.91H311.025V39.038C311.025 43.332 313.381 47.322 319.005 48.956L316.459 52.87C309.923 50.856 306.959 45.46 306.959 39.038V36.91ZM320.791 35.694H325.845V53.744H320.791V35.694ZM323.793 42.534H330.481V46.676H323.793V42.534ZM302.589 55.112H325.845V64.612H307.681V68.906H302.665V60.964H320.867V58.988H302.589V55.112ZM302.665 66.74H326.871V70.654H302.665V66.74ZM342.524 38.126C347.882 38.126 351.758 42.99 351.758 50.666C351.758 58.418 347.882 63.282 342.524 63.282C337.166 63.282 333.29 58.418 333.29 50.666C333.29 42.99 337.166 38.126 342.524 38.126ZM342.524 42.724C339.902 42.724 338.154 45.498 338.154 50.666C338.154 55.91 339.902 58.722 342.524 58.722C345.146 58.722 346.932 55.91 346.932 50.666C346.932 45.498 345.146 42.724 342.524 42.724ZM355.596 35.694H360.688V70.882H355.596V35.694ZM359.548 48.956H365.78V53.136H359.548V48.956ZM375.961 57.05H379.761V58.228C379.761 63.548 377.405 68.412 371.895 70.388L369.425 66.702C374.023 65.144 375.961 61.648 375.961 58.228V57.05ZM377.253 57.05H380.863V58.228C380.863 61.648 382.573 65.22 386.867 67.006L384.853 70.73C379.267 68.64 377.253 63.396 377.253 58.228V57.05ZM388.805 57.05H392.415V58.228C392.415 63.092 390.325 68.564 384.853 70.73L382.763 67.006C387.057 65.068 388.805 61.344 388.805 58.228V57.05ZM389.983 57.05H393.783V58.228C393.783 61.876 395.683 65.258 400.319 66.702L397.849 70.388C392.263 68.488 389.983 63.776 389.983 58.228V57.05ZM392.225 35.732H397.317V55.606H392.225V35.732ZM378.165 37.518C383.637 37.518 387.703 41.014 387.703 45.954C387.703 50.856 383.637 54.352 378.165 54.352C372.693 54.352 368.589 50.856 368.589 45.954C368.589 41.014 372.693 37.518 378.165 37.518ZM378.165 41.698C375.505 41.698 373.529 43.256 373.529 45.954C373.529 48.614 375.505 50.172 378.165 50.172C380.825 50.172 382.763 48.614 382.763 45.954C382.763 43.256 380.825 41.698 378.165 41.698ZM406.966 45.194H431.362V49.184H406.966V45.194ZM403.014 52.832H434.896V56.86H403.014V52.832ZM406.966 36.948H411.982V47.17H406.966V36.948ZM406.624 66.094H431.552V70.122H406.624V66.094ZM406.624 59.672H411.678V67.158H406.624V59.672ZM447.009 62.082H483.043V66.726H447.009V62.082ZM462.102 53.568H467.821V63.2H462.102V53.568ZM450.793 34.046H456.469V40.152H473.454V34.046H479.13V54.772H450.793V34.046ZM456.469 44.624V50.214H473.454V44.624H456.469ZM501.315 33.788H506.303V36.669C506.303 45.312 500.154 52.966 489.834 54.987L487.383 50.257C496.37 48.709 501.315 42.388 501.315 36.669V33.788ZM502.476 33.788H507.421V36.669C507.421 42.517 512.323 48.709 521.353 50.257L518.902 54.987C508.582 52.966 502.476 45.441 502.476 36.669V33.788ZM486.566 61.824H522.6V66.468H486.566V61.824ZM547.063 42.302H554.416V46.817H547.063V42.302ZM553.685 31.509H559.404V60.921H553.685V31.509ZM533.088 66.081H560.307V70.639H533.088V66.081ZM533.088 58.427H538.85V69.263H533.088V58.427ZM527.928 51.031H531.024C538.205 51.031 542.419 50.902 547.364 50.085L547.837 54.557C542.849 55.503 538.377 55.632 531.024 55.632H527.928V51.031ZM527.928 34.519H546.031V39.077H533.604V51.504H527.928V34.519ZM531.884 42.732H544.784V47.161H531.884V42.732ZM597.174 41.141H604.742V45.785H597.174V41.141ZM603.194 31.509H608.913V55.159H603.194V31.509ZM595.411 56.019C603.839 56.019 609.042 58.9 609.042 63.716C609.042 68.575 603.839 71.37 595.411 71.37C586.983 71.37 581.78 68.575 581.78 63.716C581.78 58.9 586.983 56.019 595.411 56.019ZM595.411 60.362C590.251 60.362 587.499 61.437 587.499 63.716C587.499 65.952 590.251 67.027 595.411 67.027C600.614 67.027 603.366 65.952 603.366 63.716C603.366 61.437 600.614 60.362 595.411 60.362ZM584.79 35.508H589.434V38.002C589.434 45.613 585.908 52.579 578.297 55.159L575.373 50.644C581.952 48.408 584.79 43.119 584.79 38.002V35.508ZM585.994 35.508H590.595V38.002C590.595 42.689 593.304 47.548 599.582 49.655L596.787 54.17C589.391 51.719 585.994 45.097 585.994 38.002V35.508ZM576.921 33.917H598.335V38.475H576.921V33.917ZM615.188 62.082H651.222V66.726H615.188V62.082ZM630.281 53.568H636V63.2H630.281V53.568ZM618.972 34.046H624.648V40.152H641.633V34.046H647.309V54.772H618.972V34.046ZM624.648 44.624V50.214H641.633V44.624H624.648Z" fill="white"/>
<path d="M152.075 18.721H169.684V20.2045H152.075V18.721ZM159.944 14.077H161.729V19.151H159.944V14.077ZM154.139 4.617H155.902V8.0785H165.814V4.617H167.577V14.55H154.139V4.617ZM155.902 9.519V13.088H165.814V9.519H155.902ZM179.636 4.574H181.184V6.0575C181.184 10.293 177.25 13.5825 173.358 14.464L172.563 12.9805C175.981 12.3355 179.636 9.3685 179.636 6.0575V4.574ZM179.959 4.574H181.507V6.0575C181.507 9.39 185.183 12.3355 188.58 12.9805L187.785 14.464C183.915 13.5825 179.959 10.3145 179.959 6.0575V4.574ZM171.853 18.592H189.462V20.054H171.853V18.592ZM202.102 8.7235H206.166V10.164H202.102V8.7235ZM205.822 3.241H207.606V17.689H205.822V3.241ZM195.179 20.785H208.122V22.247H195.179V20.785ZM195.179 16.4635H196.964V21.645H195.179V16.4635ZM192.599 13.1525H194.018C197.738 13.1525 199.802 13.0665 202.296 12.6365L202.468 14.077C199.931 14.55 197.802 14.6145 194.018 14.6145H192.599V13.1525ZM192.599 4.746H201.307V6.208H194.362V13.389H192.599V4.746ZM193.782 8.874H200.769V10.293H193.782V8.874ZM226.207 7.5625H232.077V9.046H226.207V7.5625ZM226.207 13.7115H232.077V15.195H226.207V13.7115ZM222.638 4.7245C225.455 4.7245 227.476 7.369 227.476 11.497C227.476 15.6465 225.455 18.291 222.638 18.291C219.8 18.291 217.801 15.6465 217.801 11.497C217.801 7.369 219.8 4.7245 222.638 4.7245ZM222.638 6.337C220.768 6.337 219.478 8.358 219.478 11.497C219.478 14.6575 220.768 16.7215 222.638 16.7215C224.509 16.7215 225.799 14.6575 225.799 11.497C225.799 8.358 224.509 6.337 222.638 6.337ZM231.69 3.2195H233.453V22.6985H231.69V3.2195ZM251.898 3.241H253.597V15.539H251.898V3.241ZM248.738 8.5085H252.414V9.992H248.738V8.5085ZM247.749 3.628H249.426V14.851H247.749V3.628ZM237.128 5.563H246.975V6.982H237.128V5.563ZM242.073 7.971C244.502 7.971 246.201 9.304 246.201 11.3035C246.201 13.3245 244.502 14.636 242.073 14.636C239.622 14.636 237.923 13.3245 237.923 11.3035C237.923 9.304 239.622 7.971 242.073 7.971ZM242.073 9.304C240.546 9.304 239.514 10.0995 239.514 11.3035C239.514 12.529 240.546 13.303 242.073 13.303C243.578 13.303 244.61 12.529 244.61 11.3035C244.61 10.0995 243.578 9.304 242.073 9.304ZM241.191 3.3915H242.933V6.3585H241.191V3.3915ZM247.233 15.883C251.275 15.883 253.704 17.087 253.704 19.2585C253.704 21.4085 251.275 22.634 247.233 22.634C243.148 22.634 240.74 21.4085 240.74 19.2585C240.74 17.087 243.148 15.883 247.233 15.883ZM247.233 17.259C244.244 17.259 242.503 17.9685 242.503 19.2585C242.503 20.5485 244.244 21.2795 247.233 21.2795C250.178 21.2795 251.941 20.5485 251.941 19.2585C251.941 17.9685 250.178 17.259 247.233 17.259ZM265.296 4.0795H277.809V5.52H265.296V4.0795ZM263.06 11.0025H280.669V12.4645H263.06V11.0025ZM270.929 12.0345H272.714V16.055H270.929V12.0345ZM276.648 4.0795H278.39V5.477C278.39 7.068 278.39 9.0245 277.745 11.669L276.003 11.454C276.648 8.874 276.648 7.025 276.648 5.477V4.0795ZM271.811 15.453C276.003 15.453 278.562 16.7645 278.562 19.065C278.562 21.344 276.003 22.6555 271.811 22.6555C267.618 22.6555 265.081 21.344 265.081 19.065C265.081 16.7645 267.618 15.453 271.811 15.453ZM271.811 16.915C268.736 16.915 266.866 17.689 266.866 19.065C266.866 20.4195 268.736 21.215 271.811 21.215C274.907 21.215 276.756 20.4195 276.756 19.065C276.756 17.689 274.907 16.915 271.811 16.915ZM285.075 4.2515H297.588V5.7135H285.075V4.2515ZM282.839 11.411H300.447V12.873H282.839V11.411ZM296.427 4.2515H298.168V5.692C298.168 7.3475 298.168 9.2395 297.523 11.927L295.782 11.841C296.427 9.175 296.427 7.3045 296.427 5.692V4.2515ZM284.989 15.5175H298.233V22.419H284.989V15.5175ZM296.491 16.9365H286.73V20.9785H296.491V16.9365ZM315.904 3.2625H317.688V17.8395H315.904V3.2625ZM317.129 9.6265H320.569V11.1315H317.129V9.6265ZM302.66 5.606H314.141V7.0465H302.66V5.606ZM308.4 8.1215C311.152 8.1215 313.044 9.562 313.044 11.755C313.044 13.9265 311.152 15.367 308.4 15.367C305.627 15.367 303.735 13.9265 303.735 11.755C303.735 9.562 305.627 8.1215 308.4 8.1215ZM308.4 9.519C306.637 9.519 305.433 10.4005 305.433 11.755C305.433 13.088 306.637 13.9695 308.4 13.9695C310.142 13.9695 311.346 13.088 311.346 11.755C311.346 10.4005 310.142 9.519 308.4 9.519ZM307.497 3.241H309.282V6.3585H307.497V3.241ZM305.584 20.785H318.57V22.247H305.584V20.785ZM305.584 16.6785H307.368V21.4085H305.584V16.6785ZM342.632 3.241H344.417V16.399H342.632V3.241ZM338.461 8.7235H342.998V10.1855H338.461V8.7235ZM336.526 4.7675H338.397C338.397 9.7985 335.086 13.3675 329.517 15.1735L328.765 13.7545C333.688 12.2065 336.526 9.2825 336.526 5.477V4.7675ZM329.689 4.7675H337.795V6.2295H329.689V4.7675ZM337.257 14.722H338.784V15.6035C338.784 19.323 335.387 21.8385 331.495 22.634L330.786 21.215C334.226 20.5915 337.257 18.4415 337.257 15.6035V14.722ZM337.515 14.722H339.042V15.6035C339.042 18.3985 342.03 20.5485 345.492 21.172L344.739 22.591C340.869 21.817 337.515 19.3015 337.515 15.6035V14.722ZM362.325 3.2195H364.109V22.6985H362.325V3.2195ZM353.854 4.7245C356.735 4.7245 358.799 7.369 358.799 11.497C358.799 15.6465 356.735 18.291 353.854 18.291C350.994 18.291 348.93 15.6465 348.93 11.497C348.93 7.369 350.994 4.7245 353.854 4.7245ZM353.854 6.337C351.962 6.337 350.629 8.358 350.629 11.497C350.629 14.6575 351.962 16.7215 353.854 16.7215C355.767 16.7215 357.079 14.6575 357.079 11.497C357.079 8.358 355.767 6.337 353.854 6.337ZM388.279 3.241H390.063V22.72H388.279V3.241ZM382.302 9.648H388.859V11.11H382.302V9.648ZM375.099 5.4125H376.862V17.4525H375.099V5.4125ZM375.099 16.5065H376.604C379.614 16.5065 382.302 16.3345 385.29 15.711L385.505 17.216C382.409 17.818 379.679 18.0115 376.604 18.0115H375.099V16.5065ZM393.803 14.5285H411.433V15.9905H393.803V14.5285ZM401.672 15.41H403.435V22.677H401.672V15.41ZM396.039 4.316H409.154V11.9055H396.039V4.316ZM407.412 5.7565H397.802V10.465H407.412V5.7565ZM432.936 3.241H434.721V13.1525H432.936V3.241ZM433.947 7.6055H437.602V9.089H433.947V7.6055ZM420.445 4.5095H429.367V12.443H420.445V4.5095ZM427.626 5.95H422.186V11.024H427.626V5.95ZM421.67 20.699H422.595C423.756 20.699 425.626 20.5915 427.282 20.0325L427.583 21.473C425.712 22.075 423.928 22.161 422.595 22.161H421.67V20.699ZM421.67 14.937H423.412V21.086H421.67V14.937ZM426.873 15.1305H436.634V16.4635H426.873V15.1305ZM431.775 17.173C433.882 17.173 435.366 18.248 435.366 19.9035C435.366 21.602 433.882 22.6555 431.775 22.6555C429.647 22.6555 428.163 21.602 428.163 19.9035C428.163 18.248 429.647 17.173 431.775 17.173ZM431.775 18.4415C430.571 18.4415 429.754 19.022 429.754 19.9035C429.754 20.8065 430.571 21.387 431.775 21.387C432.936 21.387 433.775 20.8065 433.775 19.9035C433.775 19.022 432.936 18.4415 431.775 18.4415ZM430.894 13.432H432.635V16.0765H430.894V13.432ZM448.2 3.5635C452.478 3.5635 455.037 4.7675 455.037 6.939C455.037 9.1105 452.478 10.3145 448.2 10.3145C443.9 10.3145 441.363 9.1105 441.363 6.939C441.363 4.7675 443.9 3.5635 448.2 3.5635ZM448.2 4.918C445.018 4.918 443.19 5.649 443.19 6.939C443.19 8.229 445.018 8.96 448.2 8.96C451.36 8.96 453.188 8.229 453.188 6.939C453.188 5.649 451.36 4.918 448.2 4.918ZM439.406 11.6045H456.972V13.045H439.406V11.6045ZM441.535 14.7005H454.736V19.0865H443.341V21.4515H441.578V17.7965H452.973V16.0765H441.535V14.7005ZM441.578 21.0645H455.316V22.462H441.578V21.0645ZM476.368 3.6495H478.024V21.7095H476.368V3.6495ZM477.336 11.153H480.926V12.615H477.336V11.153ZM465.812 16.141H466.586C467.338 16.141 468.607 16.1195 470.112 15.754L470.262 17.2375C468.65 17.6245 467.403 17.6245 466.586 17.6245H465.812V16.141ZM465.812 5.6705H469.961V7.1325H467.467V16.9795H465.812V5.6705ZM470.8 16.141H471.617C472.649 16.141 474.003 16.098 475.487 15.6895L475.659 17.173C474.068 17.603 472.735 17.6245 471.617 17.6245H470.8V16.141ZM470.8 5.6705H475.078V7.1325H472.434V16.915H470.8V5.6705ZM480.303 3.241H482.001V22.677H480.303V3.241Z" fill="white"/>
<path d="M184.2 90.614H185.694V106.922H184.2V90.614ZM177.108 91.874C179.52 91.874 181.248 94.088 181.248 97.544C181.248 101.018 179.52 103.232 177.108 103.232C174.714 103.232 172.986 101.018 172.986 97.544C172.986 94.088 174.714 91.874 177.108 91.874ZM177.108 93.224C175.524 93.224 174.408 94.916 174.408 97.544C174.408 100.19 175.524 101.918 177.108 101.918C178.71 101.918 179.808 100.19 179.808 97.544C179.808 94.916 178.71 93.224 177.108 93.224ZM201.227 90.632H202.649V102.98H201.227V90.632ZM195.521 95.348H198.599V96.572H195.521V95.348ZM198.131 90.956H199.553V102.512H198.131V90.956ZM189.671 91.928H191.075V94.664H194.549V91.928H195.971V99.902H189.671V91.928ZM191.075 95.852V98.696H194.549V95.852H191.075ZM192.047 105.32H203.153V106.544H192.047V105.32ZM192.047 101.324H193.541V105.986H192.047V101.324ZM207.399 99.398H218.577V100.604H207.399V99.398ZM205.509 103.574H220.251V104.816H205.509V103.574ZM207.399 92.018H218.397V93.242H208.911V99.776H207.399V92.018ZM208.425 95.654H218.055V96.842H208.425V95.654ZM222.068 103.664H236.81V104.906H222.068V103.664ZM228.656 100.172H230.15V104.186H228.656V100.172ZM223.85 91.838H234.992V96.77H225.38V100.028H223.904V95.564H233.516V93.044H223.85V91.838ZM223.904 99.398H235.37V100.622H223.904V99.398ZM244.535 91.622H245.993V94.142H250.673V91.622H252.149V99.308H244.535V91.622ZM245.993 95.33V98.12H250.673V95.33H245.993ZM246.155 101.378H257.027V106.904H255.515V102.584H246.155V101.378ZM255.515 90.632H257.027V100.478H255.515V90.632ZM263.901 91.982C266.007 91.982 267.375 94.16 267.375 97.652C267.375 101.144 266.007 103.322 263.901 103.322C261.795 103.322 260.445 101.144 260.445 97.652C260.445 94.16 261.795 91.982 263.901 91.982ZM263.901 93.368C262.623 93.368 261.813 95.024 261.813 97.652C261.813 100.28 262.623 101.936 263.901 101.936C265.179 101.936 265.989 100.28 265.989 97.652C265.989 95.024 265.179 93.368 263.901 93.368ZM272.631 90.632H274.071V106.904H272.631V90.632ZM270.057 97.076H273.171V98.3H270.057V97.076ZM269.031 90.974H270.453V106.094H269.031V90.974ZM278.156 91.118H290.108V92.288H278.156V91.118ZM278.228 95.384H290.036V96.536H278.228V95.384ZM280.622 91.568H282.116V96.14H280.622V91.568ZM286.166 91.568H287.642V96.14H286.166V91.568ZM276.788 97.886H291.494V99.092H276.788V97.886ZM278.57 100.514H289.622V104.078H280.082V106.04H278.606V103.016H288.146V101.63H278.57V100.514ZM278.606 105.59H290.108V106.724H278.606V105.59ZM305.749 90.632H307.189V106.904H305.749V90.632ZM303.175 97.166H306.289V98.408H303.175V97.166ZM302.221 90.992H303.625V106.076H302.221V90.992ZM293.509 92.666H301.033V93.89H293.509V92.666ZM293.365 102.908L293.185 101.648C295.327 101.648 298.855 101.576 301.339 101.252L301.447 102.35C298.873 102.836 295.489 102.908 293.365 102.908ZM294.895 93.458H296.263V101.972H294.895V93.458ZM298.279 93.458H299.647V101.972H298.279V93.458ZM316.439 91.748H317.735V92.99C317.735 96.536 314.441 99.29 311.183 100.028L310.517 98.786C313.379 98.246 316.439 95.762 316.439 92.99V91.748ZM316.709 91.748H318.005V92.99C318.005 95.78 321.083 98.246 323.927 98.786L323.261 100.028C320.021 99.29 316.709 96.554 316.709 92.99V91.748ZM309.923 103.484H324.665V104.708H309.923V103.484ZM342.668 90.578H344.162V99.56H342.668V90.578ZM343.532 94.484H346.574V95.744H343.532V94.484ZM333.83 100.388H344.162V104.024H335.342V106.004H333.866V102.944H342.704V101.522H333.83V100.388ZM333.866 105.572H344.756V106.724H333.866V105.572ZM331.58 92.09H341.192V93.26H331.58V92.09ZM336.386 93.98C338.726 93.98 340.274 95.006 340.274 96.662C340.274 98.3 338.726 99.308 336.386 99.308C334.01 99.308 332.48 98.3 332.48 96.662C332.48 95.006 334.01 93.98 336.386 93.98ZM336.386 95.078C334.874 95.078 333.902 95.69 333.902 96.662C333.902 97.616 334.874 98.228 336.386 98.228C337.88 98.228 338.852 97.616 338.852 96.662C338.852 95.69 337.88 95.078 336.386 95.078ZM335.63 90.452H337.124V92.9H335.63V90.452ZM359.929 90.65H361.441V102.53H359.929V90.65ZM350.983 105.32H361.927V106.544H350.983V105.32ZM350.983 101.306H352.459V105.734H350.983V101.306ZM352.711 91.766C355.141 91.766 356.941 93.422 356.941 95.78C356.941 98.12 355.141 99.794 352.711 99.794C350.281 99.794 348.463 98.12 348.463 95.78C348.463 93.422 350.281 91.766 352.711 91.766ZM352.711 93.062C351.127 93.062 349.921 94.178 349.921 95.78C349.921 97.364 351.127 98.48 352.711 98.48C354.295 98.48 355.501 97.364 355.501 95.78C355.501 94.178 354.295 93.062 352.711 93.062ZM380.848 90.632H382.342V100.154H380.848V90.632ZM381.928 94.538H384.754V95.798H381.928V94.538ZM370.39 91.532H371.866V94.016H376.456V91.532H377.914V99.128H370.39V91.532ZM371.866 95.204V97.922H376.456V95.204H371.866ZM372.172 101.036H382.468V102.242H373.666V106.328H372.172V101.036ZM372.172 105.464H382.792V106.688H372.172V105.464ZM393.627 91.658C397.011 91.658 399.531 93.458 399.531 96.158C399.531 98.876 397.011 100.658 393.627 100.658C390.243 100.658 387.705 98.876 387.705 96.158C387.705 93.458 390.243 91.658 393.627 91.658ZM393.627 92.882C391.053 92.882 389.145 94.196 389.145 96.158C389.145 98.102 391.053 99.434 393.627 99.434C396.201 99.434 398.109 98.102 398.109 96.158C398.109 94.196 396.201 92.882 393.627 92.882ZM386.283 103.502H401.025V104.762H386.283V103.502ZM409.249 96.446H412.363V97.688H409.249V96.446ZM406.207 92.162H407.377V95.258C407.377 98.66 405.955 101.954 403.579 103.412L402.643 102.278C404.875 100.964 406.207 98.048 406.207 95.258V92.162ZM406.495 92.162H407.647V95.204C407.647 97.814 408.871 100.586 411.013 101.882L410.149 103.052C407.809 101.612 406.495 98.372 406.495 95.204V92.162ZM415.225 90.632H416.665V106.904H415.225V90.632ZM411.931 90.974H413.335V106.094H411.931V90.974ZM423 99.002H424.476V103.88H423V99.002ZM429.012 99.002H430.506V103.88H429.012V99.002ZM419.4 103.592H434.142V104.834H419.4V103.592ZM426.744 91.658C430.182 91.658 432.648 93.296 432.648 95.852C432.648 98.39 430.182 100.028 426.744 100.028C423.288 100.028 420.822 98.39 420.822 95.852C420.822 93.296 423.288 91.658 426.744 91.658ZM426.744 92.846C424.134 92.846 422.262 94.034 422.262 95.852C422.262 97.652 424.134 98.84 426.744 98.84C429.354 98.84 431.208 97.652 431.208 95.852C431.208 94.034 429.354 92.846 426.744 92.846ZM438.433 92.4091L438.306 101.818H436.823L436.695 92.4091H438.433ZM437.564 105.602C437.249 105.602 436.978 105.489 436.752 105.263C436.526 105.038 436.414 104.767 436.414 104.452C436.414 104.136 436.526 103.866 436.752 103.64C436.978 103.414 437.249 103.301 437.564 103.301C437.879 103.301 438.15 103.414 438.376 103.64C438.602 103.866 438.715 104.136 438.715 104.452C438.715 104.661 438.661 104.852 438.555 105.027C438.453 105.202 438.314 105.342 438.139 105.449C437.969 105.551 437.777 105.602 437.564 105.602Z" fill="white"/>
<path d="M159.562 93.292H152V107.181H166.12V99.156" stroke="white" stroke-width="1.8"/>
<path d="M154.315 97.302L158.944 102.702L168.744 90.8191" stroke="white" stroke-width="1.8"/>
</g>
</g>
<defs>
<clipPath id="clip0_93_67">
<rect width="800" height="109" fill="white" transform="translate(0.5 0.5)"/>
</clipPath>
</defs>
</svg>
