<svg width="801" height="110" viewBox="0 0 801 110" fill="none" xmlns="http://www.w3.org/2000/svg">
<g clip-path="url(#clip0_6_318)">
<mask id="mask0_6_318" style="mask-type:luminance" maskUnits="userSpaceOnUse" x="0" y="0" width="801" height="110">
<path d="M800.5 0.5H0.5V109.5H800.5V0.5Z" fill="white"/>
</mask>
<g mask="url(#mask0_6_318)">
<path d="M112.424 43.128H116.49V44.382C116.49 49.93 113.222 54.68 106.382 56.238L104.216 52.362C109.916 51.108 112.424 47.764 112.424 44.382V43.128ZM113.412 43.128H117.478V44.382C117.478 47.498 119.986 50.614 125.572 51.792L123.444 55.63C116.68 54.186 113.412 49.626 113.412 44.382V43.128ZM105.508 40.696H124.394V44.686H105.508V40.696ZM112.424 37.58H117.478V42.824H112.424V37.58ZM127.168 37.694H132.222V55.934H127.168V37.694ZM130.17 44.724H136.858V48.828H130.17V44.724ZM108.966 57.378H132.222V66.764H114.058V70.982H109.042V63.192H127.244V61.216H108.966V57.378ZM109.042 68.816H133.248V72.654H109.042V68.816ZM152.549 39.708H156.957V42.254C156.957 49.892 151.523 56.656 142.403 58.442L140.237 54.262C148.179 52.894 152.549 47.308 152.549 42.254V39.708ZM153.575 39.708H157.945V42.254C157.945 47.422 162.277 52.894 170.257 54.262L168.091 58.442C158.971 56.656 153.575 50.006 153.575 42.254V39.708ZM139.515 64.484H171.359V68.588H139.515V64.484ZM197.082 37.694H202.136V58.062H197.082V37.694ZM200.73 45.902H206.81V50.044H200.73V45.902ZM187.012 39.974H192.446C192.446 49.436 186.594 56.01 176.22 58.898L174.168 54.87C182.642 52.552 187.012 47.954 187.012 42.52V39.974ZM175.84 39.974H190.09V44.04H175.84V39.974ZM190.736 58.518C197.842 58.518 202.516 61.292 202.516 65.7C202.516 70.146 197.842 72.92 190.736 72.92C183.63 72.92 178.88 70.146 178.88 65.7C178.88 61.292 183.63 58.518 190.736 58.518ZM190.736 62.432C186.442 62.432 183.896 63.572 183.896 65.7C183.896 67.866 186.442 69.006 190.736 69.006C195.03 69.006 197.576 67.866 197.576 65.7C197.576 63.572 195.03 62.432 190.736 62.432ZM216.413 65.7216L216.265 67.206C216.148 68.3935 215.923 69.5765 215.59 70.755C215.266 71.9425 214.924 73.0175 214.564 73.9801C214.213 74.9427 213.93 75.6984 213.714 76.2472H209.99C210.125 75.7164 210.309 74.9742 210.543 74.0206C210.777 73.076 210.997 72.0144 211.204 70.8359C211.411 69.6574 211.542 68.4564 211.596 67.233L211.663 65.7216H216.413ZM253.813 37.694H258.601V72.882H253.813V37.694ZM249.101 51.222H254.953V55.288H249.101V51.222ZM245.947 38.302H250.621V71.21H245.947V38.302ZM229.379 60.798H231.849C236.181 60.798 239.791 60.646 243.971 59.886L244.351 63.99C240.095 64.826 236.371 64.94 231.849 64.94H229.379V60.798ZM229.379 41.76H242.375V45.826H234.395V62.774H229.379V41.76ZM281.094 48.676H290.366V52.742H281.094V48.676ZM271.518 40.392H275.622V45.484C275.622 54.338 272.62 62.508 266.008 65.814L262.854 61.748C268.858 58.974 271.518 52.172 271.518 45.484V40.392ZM272.582 40.392H276.61V45.484C276.61 52.172 279.156 58.594 284.97 61.178L281.968 65.206C275.356 62.014 272.582 54.262 272.582 45.484V40.392ZM287.858 37.656H292.874V72.958H287.858V37.656ZM324.449 42.026H330.529V46.13H324.449V42.026ZM324.449 49.664H330.529V53.768H324.449V49.664ZM308.109 39.594C313.543 39.594 317.685 43.166 317.685 48.144C317.685 53.084 313.543 56.656 308.109 56.656C302.675 56.656 298.533 53.084 298.533 48.144C298.533 43.166 302.675 39.594 308.109 39.594ZM308.109 43.812C305.449 43.812 303.473 45.446 303.473 48.144C303.473 50.88 305.449 52.438 308.109 52.438C310.769 52.438 312.745 50.88 312.745 48.144C312.745 45.446 310.769 43.812 308.109 43.812ZM320.953 37.694H326.007V58.214H320.953V37.694ZM314.531 58.974C321.789 58.974 326.425 61.596 326.425 65.928C326.425 70.298 321.789 72.882 314.531 72.882C307.235 72.882 302.599 70.298 302.599 65.928C302.599 61.596 307.235 58.974 314.531 58.974ZM314.531 62.964C310.047 62.964 307.615 63.914 307.615 65.928C307.615 67.98 310.047 68.93 314.531 68.93C319.015 68.93 321.409 67.98 321.409 65.928C321.409 63.914 319.015 62.964 314.531 62.964ZM349.184 38.188C357.202 38.188 361.914 40.316 361.914 44.192C361.914 48.068 357.202 50.196 349.184 50.196C341.128 50.196 336.454 48.068 336.454 44.192C336.454 40.316 341.128 38.188 349.184 38.188ZM349.184 41.874C344.092 41.874 341.698 42.634 341.698 44.192C341.698 45.826 344.092 46.51 349.184 46.51C354.276 46.51 356.67 45.826 356.67 44.192C356.67 42.634 354.276 41.874 349.184 41.874ZM333.262 51.83H365.068V55.82H333.262V51.83ZM336.91 57.796H361.23V66.84H341.926V69.956H336.948V63.344H356.252V61.558H336.91V57.796ZM336.948 68.854H362.142V72.654H336.948V68.854ZM378.04 40.582H394.798V57.568H378.04V40.582ZM389.82 44.572H383.018V53.578H389.82V44.572ZM399.662 37.694H404.716V63.344H399.662V37.694ZM403.272 47.84H409.39V51.982H403.272V47.84ZM382.03 68.246H405.97V72.274H382.03V68.246ZM382.03 60.836H387.084V70.26H382.03V60.836ZM438.229 50.994H444.423V55.136H438.229V50.994ZM434.467 37.656H439.559V72.844H434.467V37.656ZM413.035 41.038H418.089V62.888H413.035V41.038ZM413.035 60.076H416.075C421.091 60.076 426.525 59.734 432.187 58.594L432.719 62.736C426.905 63.952 421.243 64.256 416.075 64.256H413.035V60.076ZM469.424 37.656H474.516V72.958H469.424V37.656ZM473.376 50.69H479.608V54.832H473.376V50.69ZM448.296 60.304H451.26C457.188 60.304 461.862 60.114 467.03 59.202L467.524 63.382C462.204 64.332 457.378 64.484 451.26 64.484H448.296V60.304ZM448.296 40.924H464.712V44.99H453.312V62.318H448.296V40.924ZM488.907 65.7216L488.759 67.206C488.642 68.3935 488.417 69.5765 488.084 70.755C487.76 71.9425 487.418 73.0175 487.058 73.9801C486.708 74.9427 486.424 75.6984 486.208 76.2472H482.484C482.619 75.7164 482.803 74.9742 483.037 74.0206C483.271 73.076 483.491 72.0144 483.698 70.8359C483.905 69.6574 484.036 68.4564 484.09 67.233L484.157 65.7216H488.907ZM526.627 33.509H532.303V73.327H526.627V33.509ZM531.013 49.032H538.065V53.805H531.013V49.032ZM500.913 39.4H524.09V43.958H500.913V39.4ZM512.566 46.194C518.371 46.194 522.671 50.15 522.671 55.697C522.671 61.244 518.371 65.2 512.566 65.2C506.761 65.2 502.461 61.244 502.461 55.697C502.461 50.15 506.761 46.194 512.566 46.194ZM512.566 50.838C509.857 50.838 507.922 52.644 507.922 55.697C507.922 58.75 509.857 60.556 512.566 60.556C515.275 60.556 517.21 58.75 517.21 55.697C517.21 52.644 515.275 50.838 512.566 50.838ZM509.685 34.154H515.404V41.12H509.685V34.154ZM568.377 33.466H574.053V73.413H568.377V33.466ZM559.347 47.484H570.011V52.085H559.347V47.484ZM542.104 36.605H547.78V46.237H555.606V36.605H561.239V64.039H542.104V36.605ZM547.78 50.666V59.438H555.606V50.666H547.78ZM594.236 36.992H619.305V41.55H594.236V36.992ZM590.194 63.953H626.185V68.64H590.194V63.953ZM616.897 36.992H622.53V41.593C622.53 47.398 622.53 52.902 620.681 61.588L615.048 61.072C616.897 53.031 616.897 47.226 616.897 41.593V36.992ZM618.101 47.914V52.128L593.763 53.332L593.075 48.731L618.101 47.914ZM633.835 34.756H661.613V46.624H639.726V52.687H633.921V42.367H655.808V39.314H633.835V34.756ZM633.921 49.892H662.602V54.407H633.921V49.892ZM629.707 57.331H665.784V61.932H629.707V57.331ZM644.8 59.008H650.519V73.413H644.8V59.008ZM669.307 63.91H705.341V68.554H669.307V63.91ZM684.271 39.013H689.087V41.292C689.087 49.634 683.067 56.342 672.919 58.191L670.683 53.633C679.541 52.257 684.271 46.796 684.271 41.292V39.013ZM685.432 39.013H690.248V41.292C690.248 46.796 694.978 52.085 704.051 53.418L701.858 57.976C691.538 56.17 685.432 49.634 685.432 41.292V39.013ZM672.274 36.82H702.245V41.378H672.274V36.82Z" fill="white"/>
<path d="M104.075 18.721H121.684V20.2045H104.075V18.721ZM111.944 14.077H113.729V19.151H111.944V14.077ZM106.139 4.617H107.902V8.0785H117.814V4.617H119.577V14.55H106.139V4.617ZM107.902 9.519V13.088H117.814V9.519H107.902ZM131.636 4.574H133.184V6.0575C133.184 10.293 129.25 13.5825 125.358 14.464L124.563 12.9805C127.981 12.3355 131.636 9.3685 131.636 6.0575V4.574ZM131.959 4.574H133.507V6.0575C133.507 9.39 137.183 12.3355 140.58 12.9805L139.785 14.464C135.915 13.5825 131.959 10.3145 131.959 6.0575V4.574ZM123.853 18.592H141.462V20.054H123.853V18.592ZM154.102 8.7235H158.166V10.164H154.102V8.7235ZM157.822 3.241H159.606V17.689H157.822V3.241ZM147.179 20.785H160.122V22.247H147.179V20.785ZM147.179 16.4635H148.964V21.645H147.179V16.4635ZM144.599 13.1525H146.018C149.738 13.1525 151.802 13.0665 154.296 12.6365L154.468 14.077C151.931 14.55 149.802 14.6145 146.018 14.6145H144.599V13.1525ZM144.599 4.746H153.307V6.208H146.362V13.389H144.599V4.746ZM145.782 8.874H152.769V10.293H145.782V8.874ZM169.709 4.6385C172.741 4.6385 174.912 6.509 174.912 9.218C174.912 11.9485 172.741 13.819 169.709 13.819C166.678 13.819 164.485 11.9485 164.485 9.218C164.485 6.509 166.678 4.6385 169.709 4.6385ZM169.709 6.1865C167.688 6.1865 166.226 7.412 166.226 9.218C166.226 11.024 167.688 12.271 169.709 12.271C171.709 12.271 173.171 11.024 173.171 9.218C173.171 7.412 171.709 6.1865 169.709 6.1865ZM177.449 3.2195H179.234V22.6985H177.449V3.2195ZM163.754 18.4415L163.496 16.958C167.043 16.958 171.945 16.9365 176.181 16.27L176.331 17.5815C171.967 18.42 167.215 18.4415 163.754 18.4415ZM198.502 6.38H204.113V7.842H198.502V6.38ZM198.502 10.25H204.156V11.6905H198.502V10.25ZM203.425 3.241H205.21V14.7435H203.425V3.241ZM190.117 4.703H198.996V13.346H190.117V4.703ZM197.233 6.1435H191.858V11.927H197.233V6.1435ZM198.824 15.3025C202.823 15.3025 205.296 16.657 205.296 18.979C205.296 21.301 202.823 22.634 198.824 22.634C194.804 22.634 192.331 21.301 192.331 18.979C192.331 16.657 194.804 15.3025 198.824 15.3025ZM198.824 16.7215C195.9 16.7215 194.116 17.56 194.116 18.979C194.116 20.398 195.9 21.2365 198.824 21.2365C201.748 21.2365 203.533 20.398 203.533 18.979C203.533 17.56 201.748 16.7215 198.824 16.7215ZM209.013 18.678H226.622V20.1615H209.013V18.678ZM216.839 13.9695H218.602V19.1725H216.839V13.9695ZM216.796 4.531H218.344V6.036C218.344 10.1855 214.367 13.389 210.454 14.206L209.701 12.7225C213.12 12.099 216.796 9.2395 216.796 6.036V4.531ZM217.119 4.531H218.667V6.036C218.667 9.261 222.365 12.099 225.783 12.7225L225.009 14.206C221.096 13.389 217.119 10.1855 217.119 6.036V4.531ZM228.77 12.271H246.4V13.6255H228.77V12.271ZM230.856 15.195H244.186V19.3445H232.683V21.6235H230.92V18.119H242.444V16.4635H230.856V15.195ZM230.92 21.1505H244.809V22.4405H230.92V21.1505ZM231.006 3.8H244.121V7.842H232.812V9.949H231.049V6.638H242.38V5.0685H231.006V3.8ZM231.049 9.519H244.487V10.809H231.049V9.519ZM267.904 3.2625H269.688V17.8395H267.904V3.2625ZM269.129 9.6265H272.569V11.1315H269.129V9.6265ZM254.66 5.606H266.141V7.0465H254.66V5.606ZM260.4 8.1215C263.152 8.1215 265.044 9.562 265.044 11.755C265.044 13.9265 263.152 15.367 260.4 15.367C257.627 15.367 255.735 13.9265 255.735 11.755C255.735 9.562 257.627 8.1215 260.4 8.1215ZM260.4 9.519C258.637 9.519 257.433 10.4005 257.433 11.755C257.433 13.088 258.637 13.9695 260.4 13.9695C262.142 13.9695 263.346 13.088 263.346 11.755C263.346 10.4005 262.142 9.519 260.4 9.519ZM259.497 3.241H261.282V6.3585H259.497V3.241ZM257.584 20.785H270.57V22.247H257.584V20.785ZM257.584 16.6785H259.368V21.4085H257.584V16.6785ZM276.782 9.132H289.983V10.551H276.782V9.132ZM276.782 3.972H278.545V9.7125H276.782V3.972ZM274.395 12.83H291.961V14.292H274.395V12.83ZM282.436 13.776H284.199V18.291H282.436V13.776ZM276.631 20.785H290.09V22.247H276.631V20.785ZM276.631 16.571H278.394V21.473H276.631V16.571ZM302.043 10.7875H305.719V12.271H302.043V10.7875ZM308.966 3.241H310.686V22.677H308.966V3.241ZM305.117 3.6495H306.816V21.7095H305.117V3.6495ZM298.538 4.8535C301.054 4.8535 302.688 7.455 302.688 11.626C302.688 15.797 301.054 18.3985 298.538 18.3985C296.023 18.3985 294.41 15.797 294.41 11.626C294.41 7.455 296.023 4.8535 298.538 4.8535ZM298.538 6.509C297.012 6.509 296.044 8.487 296.044 11.626C296.044 14.765 297.012 16.743 298.538 16.743C300.086 16.743 301.054 14.765 301.054 11.626C301.054 8.487 300.086 6.509 298.538 6.509Z" fill="white"/>
<path d="M132.564 93.502H136.938V94.744H132.564V93.502ZM128.82 90.37C131.25 90.37 133.014 91.918 133.014 94.15C133.014 96.382 131.25 97.912 128.82 97.912C126.39 97.912 124.626 96.382 124.626 94.15C124.626 91.918 126.39 90.37 128.82 90.37ZM128.82 91.63C127.218 91.63 126.066 92.656 126.066 94.15C126.066 95.626 127.218 96.67 128.82 96.67C130.422 96.67 131.574 95.626 131.574 94.15C131.574 92.656 130.422 91.63 128.82 91.63ZM136.272 89.632H137.766V98.362H136.272V89.632ZM127.344 99.172H128.838V101.224H136.29V99.172H137.766V105.688H127.344V99.172ZM128.838 102.412V104.482H136.29V102.412H128.838ZM147.575 96.058H150.653V97.282H147.575V96.058ZM144.263 93.79H145.415V94.636C145.415 97.876 144.065 101.152 141.689 102.574L140.807 101.44C143.003 100.162 144.263 97.3 144.263 94.636V93.79ZM144.533 93.79H145.685V94.636C145.685 97.228 146.981 99.91 149.177 101.098L148.331 102.214C145.937 100.882 144.533 97.804 144.533 94.636V93.79ZM141.257 92.62H148.691V93.862H141.257V92.62ZM144.263 90.208H145.703V93.574H144.263V90.208ZM153.317 89.632H154.757V105.904H153.317V89.632ZM150.059 90.01H151.463V105.076H150.059V90.01ZM161.613 97.84H163.107V101.728H161.613V97.84ZM162.351 90.676C164.853 90.676 166.653 92.242 166.653 94.51C166.653 96.778 164.853 98.344 162.351 98.344C159.849 98.344 158.049 96.778 158.049 94.51C158.049 92.242 159.849 90.676 162.351 90.676ZM162.351 91.954C160.695 91.954 159.507 92.998 159.507 94.51C159.507 96.022 160.695 97.066 162.351 97.066C164.007 97.066 165.195 96.022 165.195 94.51C165.195 92.998 164.007 91.954 162.351 91.954ZM168.507 89.632H170.001V105.904H168.507V89.632ZM169.569 96.328H172.575V97.588H169.569V96.328ZM157.527 102.394L157.311 101.152C160.245 101.134 164.169 101.116 167.481 100.666L167.607 101.782C164.169 102.358 160.371 102.394 157.527 102.394ZM179.342 90.802C181.88 90.802 183.698 92.368 183.698 94.636C183.698 96.922 181.88 98.488 179.342 98.488C176.804 98.488 174.968 96.922 174.968 94.636C174.968 92.368 176.804 90.802 179.342 90.802ZM179.342 92.098C177.65 92.098 176.426 93.124 176.426 94.636C176.426 96.148 177.65 97.192 179.342 97.192C181.016 97.192 182.24 96.148 182.24 94.636C182.24 93.124 181.016 92.098 179.342 92.098ZM185.822 89.614H187.316V105.922H185.822V89.614ZM174.356 102.358L174.14 101.116C177.11 101.116 181.214 101.098 184.76 100.54L184.886 101.638C181.232 102.34 177.254 102.358 174.356 102.358ZM202.979 99.892C206.435 99.892 208.649 101.026 208.649 102.898C208.649 104.752 206.435 105.868 202.979 105.868C199.505 105.868 197.309 104.752 197.309 102.898C197.309 101.026 199.505 99.892 202.979 99.892ZM202.979 101.062C200.423 101.062 198.785 101.764 198.785 102.898C198.785 104.014 200.423 104.716 202.979 104.716C205.535 104.716 207.155 104.014 207.155 102.898C207.155 101.764 205.535 101.062 202.979 101.062ZM197.435 90.442H207.911V91.666H197.435V90.442ZM195.689 97.21H210.377V98.416H195.689V97.21ZM201.719 94.078H203.195V97.552H201.719V94.078ZM207.047 90.442H208.505V91.828C208.505 93.142 208.505 94.456 208.073 96.148L206.597 95.968C207.047 94.294 207.047 93.106 207.047 91.828V90.442ZM216.477 90.406H217.719V91.99C217.719 95.068 215.883 97.714 213.129 98.758L212.373 97.57C214.839 96.67 216.477 94.42 216.477 91.99V90.406ZM216.747 90.406H217.971V91.99C217.971 94.33 219.645 96.436 222.057 97.282L221.301 98.452C218.583 97.462 216.747 94.978 216.747 91.99V90.406ZM214.713 100.252H225.585V105.904H224.073V101.476H214.713V100.252ZM224.073 89.632H225.585V99.424H224.073V89.632ZM240.169 94.15H243.787V95.356H240.169V94.15ZM240.043 98.236H243.751V99.442H240.043V98.236ZM246.253 89.632H247.693V105.904H246.253V89.632ZM242.995 90.046H244.399V105.076H242.995V90.046ZM239.359 91.684H240.799C240.799 95.95 239.089 99.784 234.715 102.394L233.851 101.332C237.649 99.028 239.359 95.788 239.359 91.954V91.684ZM234.571 91.684H239.953V92.908H234.571V91.684ZM262.595 92.098H265.421V93.358H262.595V92.098ZM262.595 95.59H265.421V96.832H262.595V95.59ZM261.551 89.632H263.045V99.298H261.551V89.632ZM252.479 100.072H263.045V105.904H261.551V101.278H252.479V100.072ZM254.963 90.586C257.411 90.586 259.211 92.17 259.211 94.456C259.211 96.724 257.411 98.29 254.963 98.29C252.515 98.29 250.715 96.724 250.715 94.456C250.715 92.17 252.515 90.586 254.963 90.586ZM254.963 91.864C253.343 91.864 252.173 92.908 252.173 94.456C252.173 95.986 253.343 97.048 254.963 97.048C256.583 97.048 257.753 95.986 257.753 94.456C257.753 92.908 256.583 91.864 254.963 91.864Z" fill="white"/>
<path d="M111.562 92.292H104V106.181H118.12V98.156" stroke="white" stroke-width="1.8"/>
<path d="M106.315 96.302L110.944 101.702L120.744 89.8191" stroke="white" stroke-width="1.8"/>
</g>
</g>
<defs>
<clipPath id="clip0_6_318">
<rect width="800" height="109" fill="white" transform="translate(0.5 0.5)"/>
</clipPath>
</defs>
</svg>
