<svg xmlns="http://www.w3.org/2000/svg" xmlns:xlink="http://www.w3.org/1999/xlink" width="345" height="47" viewBox="0 0 345 47">
  <defs>
    <clipPath id="clip-Activity_banner_f_mobile">
      <rect width="345" height="47"/>
    </clipPath>
  </defs>
  <g id="Activity_banner_f_mobile" clip-path="url(#clip-Activity_banner_f_mobile)">
    <g id="Group_40" data-name="Group 40" transform="translate(27)">
      <g id="Group_9" data-name="Group 9" transform="translate(67.9 27.53)">
        <path id="Path_1" data-name="Path 1" d="M424.776,215.885H421.5v4.959h4.344v-2.705" transform="translate(-421.497 -215.68)" fill="none" stroke="#fff" stroke-width="0.7"/>
        <path id="Path_2" data-name="Path 2" d="M423.668,217.475l1.025,1.352,3.156-3.361" transform="translate(-422.603 -215.467)" fill="none" stroke="#fff" stroke-width="0.7"/>
      </g>
      <g id="Group_24" data-name="Group 24" transform="translate(67.9 33.65)">
        <path id="Path_1-2" data-name="Path 1" d="M424.776,215.885H421.5v4.959h4.344v-2.705" transform="translate(-421.497 -215.68)" fill="none" stroke="#fff" stroke-width="0.7"/>
        <path id="Path_2-2" data-name="Path 2" d="M423.668,217.475l1.025,1.352,3.156-3.361" transform="translate(-422.603 -215.467)" fill="none" stroke="#fff" stroke-width="0.7"/>
      </g>
      <g id="Group_39" data-name="Group 39">
        <g id="Group_38" data-name="Group 38">
          <path id="Path_13" data-name="Path 13" d="M3.8-10.558H.971V-6.5h.483a16.578,16.578,0,0,0,2.837-.188L4.231-7.2a15.631,15.631,0,0,1-2.616.188V-8.365H3.681v-.51H1.615v-1.16H3.8Zm.959,5.48H5.4V-8.183h.966V-8.72H5.4v-2.368H4.761Zm5.024-5.433H6.967V-6.56H9.784ZM7.6-7.077v-2.931h1.57v2.931Zm3.374,2.012h.637v-6.023h-.637ZM15.6-10.236v-.456h-.671v.456a2.534,2.534,0,0,1-2.18,2.113l.282.53a3.266,3.266,0,0,0,2.24-1.684A3.213,3.213,0,0,0,17.5-7.593l.3-.53A2.529,2.529,0,0,1,15.6-10.236ZM12.547-5.869h5.5V-6.4h-5.5Zm11.087-5.219h-.61v6.01h.61Zm-5.1,2.6c0,1.3.51,2.123,1.295,2.12.745,0,1.244-.724,1.3-1.9H21.8v2.9h.61v-5.6H21.8v2.187h-.681c-.074-1.127-.567-1.821-1.3-1.818C19.04-10.608,18.53-9.793,18.53-8.492Zm.59,0c0-.959.272-1.519.7-1.516s.718.557.718,1.516-.275,1.519-.718,1.516S19.12-7.536,19.12-8.492Zm7.425-1.067v-1.026H25.9v1.026a3.083,3.083,0,0,1-1.556,2.717l.4.516A3.213,3.213,0,0,0,26.23-8.281,3.067,3.067,0,0,0,27.692-6.44l.389-.51A2.891,2.891,0,0,1,26.545-9.559Zm.872.986h1.342v3.508h.631v-6.023h-.631v2H27.417Zm9.51-2.515H36.3V-8h.631ZM31.97-8.532l.322.5a2.512,2.512,0,0,0,1.526-1.425,2.424,2.424,0,0,0,1.5,1.311l.315-.5a1.969,1.969,0,0,1-1.5-1.824v-.463h-.651v.463A2.1,2.1,0,0,1,31.97-8.532ZM32.983-7.2H36.3v.516H33v1.549h4.132v-.51H33.62V-6.2h3.314v-1.5H32.983Zm7.089-2.354v-1.026h-.644v1.026a3.025,3.025,0,0,1-1.61,2.717l.389.537a3.2,3.2,0,0,0,1.553-1.959A3.1,3.1,0,0,0,41.28-6.44l.382-.5A2.914,2.914,0,0,1,40.073-9.559Zm2.133,4.494h.637v-6.023h-.637Zm6.3-6.023H47.86v4.367H48.5V-8.78h.872v-.53H48.5Zm-4.729,3.2.268.51c1.757-.533,2.831-1.677,2.831-3.253H44.03v.53h2.15C46.055-9.112,45.183-8.311,43.775-7.888Zm.912,2.683h4.065v-.516H45.331V-7.171h-.644Zm7.747-5.52c-1.258,0-2.217.667-2.214,1.677s.956,1.68,2.214,1.677,2.22-.661,2.22-1.677S53.695-10.726,52.434-10.726ZM49.7-5.856h5.5v-.53H49.7Zm1.134-3.193c0-.7.681-1.164,1.6-1.16s1.6.463,1.6,1.16S53.353-7.9,52.434-7.9,50.827-8.348,50.831-9.049ZM61.113-6.332H58.665V-7.385h1.918v-.523H56.914v-.879h3.528v-1.878H56.27v.523h3.542V-9.3H56.284v1.912h1.751v1.053H55.613V-5.8h5.5Zm7.243-4.756h-.61v6.01h.61Zm-5.1,2.6c0,1.3.51,2.123,1.295,2.12a1.219,1.219,0,0,0,1.127-.939h.872v1.938h.6v-5.6h-.6v1.3H65.67a1.21,1.21,0,0,0-1.124-.932C63.762-10.608,63.252-9.793,63.252-8.492Zm.584,0c0-.959.265-1.519.711-1.516s.724.557.724,1.516-.282,1.519-.724,1.516S63.832-7.536,63.835-8.492ZM65.8-9.156h.741v1.321H65.8a4.026,4.026,0,0,0,.05-.657A4.111,4.111,0,0,0,65.8-9.156Zm8.87-1.053h-.852v-.879h-.637v3.562h.637v-.859h.852v-.537h-.852v-.765h.852Zm-5.48.906a1.462,1.462,0,0,0,1.6,1.435,1.474,1.474,0,0,0,1.6-1.435,1.477,1.477,0,0,0-1.6-1.435A1.466,1.466,0,0,0,69.194-9.3Zm.624,0a.891.891,0,0,1,.973-.892.9.9,0,0,1,.979.892.9.9,0,0,1-.979.892A.884.884,0,0,1,69.818-9.3Zm.034,2.562h3.334v1.663h.637v-2.18H69.852ZM79.7-11.088h-.631v6.01H79.7V-8.123h.966v-.53H79.7ZM74.982-9.626h3.562v-.523H77.1v-.859h-.637v.859H74.982Zm.309,1.838a1.4,1.4,0,0,0,1.5,1.4,1.4,1.4,0,0,0,1.5-1.4,1.4,1.4,0,0,0-1.5-1.4A1.4,1.4,0,0,0,75.291-7.788Zm.61,0a.845.845,0,0,1,.885-.872.851.851,0,0,1,.885.872.834.834,0,0,1-.885.865A.829.829,0,0,1,75.9-7.788Zm7.123-1.529v-.637h1.308v-.53H81.039v.53h1.355v.637a3.047,3.047,0,0,1-1.576,2.589l.376.5a3.285,3.285,0,0,0,1.523-1.939A3.074,3.074,0,0,0,84.2-6.379l.362-.5A2.838,2.838,0,0,1,83.024-9.317Zm1.952,4.239h.637V-8.17h.966v-.537h-.966v-2.381h-.637ZM87.954-10.5h-.785l.06,3.454h.664Zm-.865,4.427a.478.478,0,0,0,.476.476.485.485,0,0,0,.476-.476.482.482,0,0,0-.476-.476A.476.476,0,0,0,87.089-6.077Z" transform="translate(67.029 12.088)" fill="#fff"/>
          <path id="Path_10" data-name="Path 10" d="M1.908-9.265A1.242,1.242,0,0,0,.539-8.053,1.249,1.249,0,0,0,1.908-6.83a1.273,1.273,0,0,0,1.337-1H4.262V-6.7h.553V-9.5H4.262v1.218H3.242A1.269,1.269,0,0,0,1.908-9.265ZM1.069-8.053A.758.758,0,0,1,1.908-8.8a.755.755,0,0,1,.827.752.762.762,0,0,1-.827.757A.766.766,0,0,1,1.069-8.053Zm.344,3.705h3.4v-2.1H4.262v.606h-2.3v-.606H1.413ZM1.961-4.8v-.606h2.3V-4.8ZM9.985-9.5H9.461v5.22h.524Zm-4.5,3.711.315.4A3.839,3.839,0,0,0,7.341-6.964H8.36V-4.54h.524V-9.37H8.36v1.963H7.533a4.415,4.415,0,0,0,.233-1.451H5.727V-8.4H7.215A3.245,3.245,0,0,1,5.482-5.793Zm11.162-.763H11.867V-6.1h1.188v1.818h.571V-6.1h1.247v1.818h.559V-6.1h1.212Zm-4.259-1.6c0,.7.754,1.136,1.858,1.13s1.861-.434,1.858-1.13-.754-1.153-1.858-1.153S12.389-8.857,12.386-8.152Zm.571,0c0-.44.513-.708,1.287-.711s1.29.271,1.293.711-.516.693-1.293.693S12.954-7.724,12.957-8.152Zm5.433-1.177a1.245,1.245,0,0,0-1.375,1.171,1.235,1.235,0,0,0,1.375,1.165,1.235,1.235,0,0,0,1.369-1.165A1.245,1.245,0,0,0,18.389-9.329Zm-.833,1.171a.738.738,0,0,1,.833-.7.741.741,0,0,1,.833.7.749.749,0,0,1-.833.717A.746.746,0,0,1,17.556-8.158Zm.251,1.992H20.69v.46H17.824v1.357h3.589v-.443H18.36v-.5h2.878V-6.609H17.807Zm2.878-.682h.553V-9.5h-.553Zm4.952.623c-1.119,0-1.835.358-1.835.967s.717.964,1.835.961,1.844-.355,1.847-.961S26.767-6.224,25.637-6.224Zm-2.348-.431h4.748V-7.1h-2.3v-.979h-.542V-7.1h-1.9Zm.553-2.15h3.053a4.688,4.688,0,0,1-.14,1.322l.542.058a4.7,4.7,0,0,0,.146-1.387v-.437h-3.6Zm.513,3.548c-.006-.344.492-.545,1.282-.548s1.293.2,1.3.548-.5.533-1.3.536S24.349-4.919,24.355-5.257Zm8.736-1.3H28.314V-6.1H29.5v1.818h.571V-6.1H31.32v1.818h.559V-6.1h1.212Zm-4.259-1.6c0,.7.754,1.136,1.858,1.13s1.861-.434,1.858-1.13-.754-1.153-1.858-1.153S28.835-8.857,28.832-8.152Zm.571,0c0-.44.513-.708,1.287-.711s1.29.271,1.293.711-.516.693-1.293.693S29.4-7.724,29.4-8.152Zm7.207-.023v-.891H36.05v.891a2.627,2.627,0,0,1-1.4,2.359l.338.466a2.781,2.781,0,0,0,1.349-1.7,2.69,2.69,0,0,0,1.32,1.585L37.99-5.9A2.53,2.53,0,0,1,36.609-8.176Zm1.853,3.9h.553V-9.5h-.553ZM42.38-8.764v-.4H41.8v.4A2.2,2.2,0,0,1,39.9-6.929l.245.46a2.837,2.837,0,0,0,1.946-1.462,2.79,2.79,0,0,0,1.94,1.462l.256-.46A2.2,2.2,0,0,1,42.38-8.764ZM39.729-4.972h4.777v-.46H39.729Zm7.256-4.2H45v2.517h.338a9.559,9.559,0,0,0,1.922-.134l-.052-.437a9.251,9.251,0,0,1-1.678.128v-.623h1.253v-.431H45.529v-.565h1.456ZM45.727-4.348h3.49V-6.137h-3.49ZM46.28-4.8v-.9h2.394v.9Zm.74-2.965h.647V-6.41h.524V-9.417h-.524v1.206H47.02ZM48.692-6.37h.524V-9.5h-.524Zm3.487-2.82c-1.092,0-1.925.58-1.922,1.456s.83,1.459,1.922,1.456,1.928-.574,1.928-1.456S53.274-9.189,52.179-9.189ZM49.8-4.96h4.777v-.46H49.8Zm.985-2.773c0-.606.591-1.011,1.392-1.008s1.389.4,1.392,1.008-.594,1-1.392,1S50.784-7.124,50.786-7.733Zm8.829,2.359H57.489v-.915h1.666v-.454H55.968v-.763h3.064V-9.137H55.409v.454h3.076v.734H55.421v1.66h1.52v.915h-2.1v.466h4.777Zm5.7-4.13H64.76v3.082h.559v-1.3h.752v-.454h-.752ZM61.433-6.8h.414A11.552,11.552,0,0,0,64.3-6.97l-.052-.449a10.957,10.957,0,0,1-2.266.169V-8.671h1.783v-.449h-2.33Zm.443,1.491c0,.644.676,1.017,1.754,1.014s1.73-.37,1.73-1.014S64.7-6.32,63.629-6.323,61.876-5.947,61.876-5.309Zm.548,0c0-.361.451-.568,1.206-.565s1.2.2,1.2.565-.46.574-1.2.571S62.421-4.948,62.424-5.309Zm5.3-4.02a1.245,1.245,0,0,0-1.375,1.171,1.235,1.235,0,0,0,1.375,1.165A1.235,1.235,0,0,0,69.1-8.158,1.245,1.245,0,0,0,67.728-9.329Zm-.833,1.171a.738.738,0,0,1,.833-.7.741.741,0,0,1,.833.7.749.749,0,0,1-.833.717A.746.746,0,0,1,66.895-8.158Zm.25,1.992h2.884v.46H67.163v1.357h3.589v-.443H67.7v-.5h2.878V-6.609H67.145Zm2.878-.682h.553V-9.5h-.553ZM77.113-9.5h-.53v5.22h.53ZM72.68-7.249c0,1.133.443,1.844,1.124,1.841a1.059,1.059,0,0,0,.979-.816h.757V-4.54h.524V-9.4H75.54v1.13h-.76a1.051,1.051,0,0,0-.976-.81C73.123-9.087,72.68-8.38,72.68-7.249Zm.507,0c0-.833.23-1.32.618-1.317s.629.484.629,1.317-.245,1.32-.629,1.317S73.184-6.419,73.187-7.249Zm1.71-.577h.644v1.148H74.9a3.5,3.5,0,0,0,.044-.571A3.571,3.571,0,0,0,74.9-7.826Zm7.6-.915h-.74V-9.5h-.553V-6.41h.553v-.746h.74v-.466h-.74v-.664h.74Zm-4.76.786a1.27,1.27,0,0,0,1.387,1.247,1.28,1.28,0,0,0,1.392-1.247A1.283,1.283,0,0,0,79.126-9.2,1.273,1.273,0,0,0,77.74-7.954Zm.542,0a.774.774,0,0,1,.845-.775.784.784,0,0,1,.851.775.777.777,0,0,1-.851.775A.768.768,0,0,1,78.281-7.954Zm.029,2.225h2.9v1.445h.553V-6.177H78.31ZM88.1-9.5h-.553V-4.29H88.1V-6.964h.81v-.46H88.1Zm-4.06,3.822.309.431a3.928,3.928,0,0,0,2.389-3.705H84.3v.46h1.87A3.446,3.446,0,0,1,84.037-5.682Zm9.248-2.412H90.25V-9.411H89.7v1.765h3.583ZM89.068-6.638h4.765v-.454H89.068Zm.565,1.375c0,.612.679.955,1.812.955s1.8-.344,1.8-.955-.676-.952-1.8-.95S89.633-5.872,89.633-5.263Zm.559,0c0-.338.454-.516,1.253-.518s1.247.181,1.247.518-.46.527-1.247.53S90.189-4.928,90.192-5.263Z" transform="translate(74.266 37.054)" fill="#fff"/>
          <path id="Path_9" data-name="Path 9" d="M.867-4.779H3.535v-.553H1.508V-6.62H3.372v-.548H1.508V-8.444h2V-9H.867ZM5.991-7.156H4.121v.536h1.87Zm.134-1.287H7.442v3.664h.641V-8.444H9.393V-9H6.125ZM9.874-4.779H10.5V-7.943H9.874ZM9.792-8.8a.384.384,0,0,0,.4.367.378.378,0,0,0,.39-.367.38.38,0,0,0-.39-.367A.386.386,0,0,0,9.792-8.8Zm2.683,4.084a1.207,1.207,0,0,0,1.3-1.066h-.606a.665.665,0,0,1-.693.536c-.521,0-.856-.425-.856-1.119,0-.673.344-1.1.856-1.1a.678.678,0,0,1,.693.548h.606a1.214,1.214,0,0,0-1.311-1.066A1.475,1.475,0,0,0,11-6.346,1.467,1.467,0,0,0,12.475-4.715Zm1.768-.064h.623V-5.9l.3-.3,1.075,1.421H17L15.639-6.585l1.279-1.357h-.746L14.919-6.609h-.052V-9h-.623Zm4.276.064a1.259,1.259,0,0,0,1.322-.856h-.629a.739.739,0,0,1-.687.344.866.866,0,0,1-.891-.944h2.249v-.221a1.386,1.386,0,0,0-1.4-1.59,1.476,1.476,0,0,0-1.462,1.643A1.46,1.46,0,0,0,18.52-4.715Zm-.883-1.922a.845.845,0,0,1,.848-.833.773.773,0,0,1,.786.833Zm4.224-1.3h-.647V-8.7H20.6v.757H20.13v.5H20.6v1.864a.829.829,0,0,0,.92.845,2.947,2.947,0,0,0,.39-.023V-5.3c-.087.009-.224.017-.315.017-.2,0-.376-.067-.379-.425V-7.447h.647Zm2.677-1.247c-1.092,0-1.925.58-1.922,1.456s.83,1.459,1.922,1.456,1.928-.574,1.928-1.456S25.633-9.189,24.538-9.189ZM22.161-4.96h4.777v-.46H22.161Zm.985-2.773c0-.606.591-1.011,1.392-1.008s1.389.4,1.392,1.008-.594,1-1.392,1S23.142-7.124,23.145-7.733Zm8.829,2.359H29.848v-.915h1.666v-.454H28.327v-.763h3.064V-9.137H27.768v.454h3.076v.734H27.78v1.66H29.3v.915H27.2v.466h4.777ZM38.051-9.5h-.53v2.068h-.676V-9.4h-.507v4.847h.507V-6.981h.676v2.7h.53ZM33.745-5.537h.35a9.2,9.2,0,0,0,1.928-.157l-.041-.454a8.563,8.563,0,0,1-1.684.14V-8.426h1.4v-.449H33.745Zm9.2-3.967h-.559v5.22h.559ZM38.659-5.682l.291.449a3.861,3.861,0,0,0,2.441-3.711H38.91V-8.5h1.922A3.363,3.363,0,0,1,38.659-5.682ZM48.4-7.36h-4.76v.443h2.1v.466H44.214v.414h3.041v.425H44.22v1.276h3.728v-.425H44.762v-.454H47.8V-6.451H46.294v-.466H48.4ZM43.888-8l.175.419a2.591,2.591,0,0,0,1.957-.9,2.6,2.6,0,0,0,1.963.9L48.164-8c-.95-.079-1.7-.446-1.809-.9h1.622v-.437h-3.9V-8.9h1.6C45.572-8.438,44.832-8.074,43.888-8Zm7.241,1.55h-.518v2.1h1.847v-2.1h-.513v.606H51.13ZM50.093-8.077a1.239,1.239,0,0,0,1.369,1.212,1.264,1.264,0,0,0,1.337-.99h1.017v1.119h.553V-9.5h-.553V-8.31H52.8a1.27,1.27,0,0,0-1.334-.973A1.239,1.239,0,0,0,50.093-8.077Zm.53,0a.756.756,0,0,1,.839-.746.752.752,0,0,1,.827.746.765.765,0,0,1-.827.763A.769.769,0,0,1,50.623-8.077Zm.507,3.3V-5.42h.816v.641Zm1.357.052.28.419a1.722,1.722,0,0,0,.926-.935,1.615,1.615,0,0,0,.944.935l.285-.419a1.378,1.378,0,0,1-.95-1.328V-6.48h-.548v.425A1.445,1.445,0,0,1,52.487-4.727ZM59.376-9.5h-.553v5.231h.553Zm-4.142,2.22c0,1.127.562,1.838,1.352,1.835s1.346-.708,1.346-1.835-.571-1.826-1.346-1.829S55.234-8.4,55.234-7.284Zm.536,0c0-.819.329-1.331.816-1.334s.81.516.81,1.334-.332,1.34-.81,1.34S55.767-6.454,55.77-7.284ZM65.493-9.5H64.94v5.22h.553V-7.016h.839v-.466h-.839ZM61.625-5.525H64.1V-9.067h-.548v1.34H62.172v-1.34h-.548Zm.548-.454V-7.29h1.381v1.311Zm9.068.606H69.114v-.915H70.78v-.454H67.593v-.763h3.064V-9.137H67.034v.454H70.11v.734H67.046v1.66h1.52v.915h-2.1v.466H71.24ZM77.165-9.5h-.553v2.8h.553ZM72.941-8.053a1.258,1.258,0,0,0,1.392,1.206A1.253,1.253,0,0,0,75.72-8.053a1.257,1.257,0,0,0-1.387-1.212A1.263,1.263,0,0,0,72.941-8.053Zm.542,0a.764.764,0,0,1,.851-.746.764.764,0,0,1,.845.746.767.767,0,0,1-.845.752A.767.767,0,0,1,73.483-8.053Zm.268,3.705h3.414v-2.1h-.548v.588H74.293v-.588h-.542Zm.542-.454v-.623h2.324V-4.8Zm5.4-3.74v-.14h1.124v-.449H78v.449h1.148v.146a1.8,1.8,0,0,1-1.311,1.666l.285.443a2.147,2.147,0,0,0,1.311-1.241,2.036,2.036,0,0,0,1.258,1.078l.262-.431A1.634,1.634,0,0,1,79.7-8.543ZM78.537-5.275c0,.62.667.982,1.754.979s1.73-.358,1.73-.979-.655-.97-1.73-.967S78.537-5.886,78.537-5.275Zm.553,0c0-.341.446-.533,1.2-.53s1.191.189,1.188.53-.44.545-1.188.542S79.088-4.925,79.09-5.275Zm2.33-1.1h.553V-7.756h.757v-.454h-.757V-9.5h-.553ZM88.313-9.5h-.553V-4.29h.553V-6.964h.81v-.46h-.81Zm-4.06,3.822.309.431a3.928,3.928,0,0,0,2.389-3.705H84.514v.46h1.87A3.446,3.446,0,0,1,84.252-5.682ZM93.5-8.094H90.465V-9.411h-.548v1.765H93.5ZM89.283-6.638h4.765v-.454H89.283Zm.565,1.375c0,.612.679.955,1.812.955s1.8-.344,1.8-.955-.676-.952-1.8-.95S89.848-5.872,89.848-5.263Zm.559,0c0-.338.454-.516,1.253-.518s1.247.181,1.247.518-.46.527-1.247.53S90.4-4.928,90.407-5.263Z" transform="translate(74.101 43.104)" fill="#fff"/>
          <g id="Group_32" data-name="Group 32" transform="translate(513.658 7926.161)">
            <path id="Path_23" data-name="Path 23" d="M4.008-18.065v-1.266h-1.5v1.266A3.483,3.483,0,0,1,.342-14.8l.82,1.194a3.96,3.96,0,0,0,2.123-2.171,3.622,3.622,0,0,0,1.954,1.881l.832-1.182A3.1,3.1,0,0,1,4.008-18.065ZM9.93-19.959H8.471v2.665H7.554v-2.5H6.119v6.416H7.554v-2.665h.917v2.726H9.93Zm0,7.128H2.344v1.23H8.4V-9H9.93Zm9.284-7.14H17.67v11h1.544V-14.64H20.83v-1.254H19.214Zm-3.075,1.013h-5.15v7.321h.929a27.972,27.972,0,0,0,5.138-.326l-.169-1.29a25.51,25.51,0,0,1-4.366.35v-4.812h3.618Zm14.506,4.921H20.6v1.23H30.645Zm-.977,3.618H23.409V-12.2H21.865v3.015h7.8Zm-.241-9.3h-7.6v1.182h6.054v.748h-6.03v3.039h7.779v-1.158H23.384v-.784h6.042ZM41.8-16.509H35.645v-2.967H34.113v4.2H41.8Zm1.11,2.472H32.9v1.23h2.316V-9h1.544v-3.811h2.3V-9h1.556v-3.811h2.291Zm5.051-5.753c-2.424,0-4,.832-4,2.159a1.854,1.854,0,0,0,1.254,1.652v1.411H42.951v1.206h10.01v-1.206h-2.3v-1.387a1.89,1.89,0,0,0,1.29-1.676C51.936-18.958,50.392-19.79,47.956-19.79Zm0,1.206c1.52-.012,2.4.3,2.4.953s-.88.965-2.4.965-2.412-.326-2.4-.965C45.544-18.282,46.425-18.6,47.956-18.584Zm3.787,5.994H44.061v1.206h6.151V-9h1.532Zm-4.981-1.978v-.977a9.2,9.2,0,0,0,1.194.072,8.892,8.892,0,0,0,1.17-.072v.977Zm17.736-5.4h-1.52V-16.1H60.941v-3.027H59.433v2.665H57.178v-2.665H55.646v7.55h5.295v-3.28h2.038v5.885H64.5Zm-7.321,7.164v-2.448h2.255v2.448Zm13.891-5.717v-.8h-1.64v.8c-.012,1.592-1.447,3.317-3.883,3.751l.663,1.278a5.719,5.719,0,0,0,4.052-2.87,5.576,5.576,0,0,0,4.04,2.87l.675-1.278C72.492-15.195,71.069-16.919,71.069-18.523Zm4.269,6.911H65.292v1.266H75.338ZM87.611-13.47H77.565v1.254H81.81V-9h1.52v-3.22h4.281Zm-1.073-2.014h-6.2v-.832h5.849V-17.5H80.338v-.82h6.078v-1.206H78.831v5.258h7.707ZM90.66-19.2c-1.664,0-2.858,1.52-2.846,3.908-.012,2.412,1.182,3.92,2.846,3.92,1.532,0,2.659-1.29,2.822-3.4h1.893v5.8h1.52v-11h-1.52V-16H93.47C93.247-17.975,92.143-19.2,90.66-19.2Zm0,1.387c.832,0,1.375.892,1.375,2.521s-.543,2.521-1.375,2.521-1.387-.88-1.375-2.521C89.273-16.919,89.84-17.812,90.66-17.812ZM100-11H98.292l-.6,3.437h1.278Z" transform="translate(-447 -7895.222)" fill="#fff"/>
            <path id="Path_24" data-name="Path 24" d="M8.863-25.088H2.256v9.743H3.434a30.92,30.92,0,0,0,6.416-.446l-.207-1.64A29.958,29.958,0,0,1,4.31-17v-6.432H8.863Zm4.951-1.274H11.792v5.015H8.146v1.656h3.646v7.848h2.022Zm14.882,0H26.69v14.519H28.7v-7.371h2.133v-1.672H28.7Zm-4.139,1.21h-6.7v1.64h4.68v2.372H17.87v5.922H19.1a36.278,36.278,0,0,0,6.75-.494l-.175-1.624a33.855,33.855,0,0,1-5.779.43v-2.627h4.664Zm17.853-1.21H40.356v14.519h2.054Zm-7.864,1.019c-2.229,0-3.853,2.006-3.837,5.158-.016,3.184,1.608,5.174,3.837,5.174,2.181,0,3.8-1.99,3.8-5.174C38.35-23.337,36.726-25.342,34.545-25.342Zm0,1.831c1.1,0,1.847,1.178,1.847,3.327,0,2.165-.748,3.327-1.847,3.327-1.13,0-1.879-1.162-1.879-3.327C32.667-22.334,33.415-23.512,34.545-23.512ZM55.1-19.659H46.858v-3.853h8.135v-1.64H44.852v7.116H55.1Zm1.449,4.346H43.292v1.672H56.553Z" transform="translate(-347.194 -7891)" fill="#fff"/>
          </g>
        </g>
      </g>
    </g>
  </g>
</svg>
