<svg xmlns="http://www.w3.org/2000/svg" xmlns:xlink="http://www.w3.org/1999/xlink" width="689" height="94" viewBox="0 0 689 94">
  <defs>
    <clipPath id="clip-Activity_banner_f_pc_">
      <rect width="689" height="94"/>
    </clipPath>
  </defs>
  <g id="Activity_banner_f_pc_" data-name="Activity_banner_f_pc " clip-path="url(#clip-Activity_banner_f_pc_)">
    <g id="Group_37" data-name="Group 37" transform="translate(8.658)">
      <g id="Group_23" data-name="Group 23" transform="translate(5078 8025)">
        <g id="Group_8" data-name="Group 8" transform="translate(-5320 -8183)">
          <path id="Path_18" data-name="Path 18" d="M6.74-10.008H.971v8.271h.984a33.789,33.789,0,0,0,5.783-.383L7.615-3.172a31.86,31.86,0,0,1-5.332.383V-5.537H6.494V-6.576H2.283V-8.941H6.74ZM8.7,1.162h1.3v-6.33h1.969V-6.262H9.994v-4.826H8.7ZM18.935-9.912H13.192v8.053h5.742Zm-4.457,7V-8.887h3.2v5.975Zm6.877,4.1h1.3V-11.088h-1.3ZM30.787-9.352v-.93H29.42v.93c-.007,2-2.119,3.869-4.443,4.307l.574,1.08A6.658,6.658,0,0,0,30.117-7.4,6.548,6.548,0,0,0,34.67-3.965l.6-1.08C32.913-5.469,30.787-7.355,30.787-9.352Zm-6.221,8.9H35.777v-1.08H24.566Zm22.6-10.637H45.921V1.162h1.244ZM36.761-5.8c0,2.659,1.039,4.327,2.639,4.32,1.518.007,2.536-1.477,2.652-3.869h1.381V.561h1.244V-10.855H43.433V-6.4H42.045C41.895-8.7,40.89-10.11,39.4-10.1,37.8-10.11,36.761-8.449,36.761-5.8Zm1.2,0c0-1.955.554-3.1,1.436-3.09.9-.007,1.463,1.135,1.463,3.09S40.3-2.7,39.4-2.707C38.518-2.7,37.964-3.849,37.964-5.8ZM53.1-7.971v-2.092H51.785v2.092a6.283,6.283,0,0,1-3.172,5.537l.82,1.053a6.548,6.548,0,0,0,3.021-3.985,6.251,6.251,0,0,0,2.98,3.753l.793-1.039A5.892,5.892,0,0,1,53.1-7.971Zm1.777,2.01h2.734v7.15h1.285V-11.088H57.609v4.074H54.875ZM74.26-11.088H72.975v6.3H74.26Zm-10.1,5.209.656,1.025a5.119,5.119,0,0,0,3.11-2.905,4.94,4.94,0,0,0,3.056,2.673L71.621-6.1a4.013,4.013,0,0,1-3.049-3.719v-.943H67.246v.943A4.271,4.271,0,0,1,64.156-5.879Zm2.064,2.707h6.768v1.053H66.262V1.039h8.422V0H67.519V-1.135h6.754V-4.2H66.221Zm14.45-4.8v-2.092H79.358v2.092a6.166,6.166,0,0,1-3.281,5.537L76.87-1.34a6.526,6.526,0,0,0,3.165-3.992,6.313,6.313,0,0,0,3.1,3.719l.779-1.025A5.939,5.939,0,0,1,80.671-7.971Zm4.348,9.16h1.3V-11.088h-1.3ZM97.855-11.088H96.543v8.9h1.313v-4.2h1.777v-1.08H97.855ZM88.217-4.566l.547,1.039c3.582-1.087,5.77-3.418,5.77-6.631h-5.8v1.08h4.382C92.865-7.062,91.088-5.428,88.217-4.566ZM90.076.9h8.285V-.15H91.389V-3.1H90.076Zm15.79-11.252c-2.563,0-4.519,1.36-4.512,3.418s1.948,3.425,4.512,3.418,4.525-1.347,4.525-3.418S108.436-10.35,105.866-10.35ZM100.288-.424H111.5V-1.5H100.288ZM102.6-6.932c-.007-1.422,1.388-2.372,3.268-2.365s3.261.943,3.268,2.365-1.395,2.352-3.268,2.352S102.592-5.5,102.6-6.932Zm20.958,5.537h-4.99V-3.541h3.91V-4.607H115V-6.4h7.191v-3.828h-8.5V-9.16H120.9v1.723h-7.191v3.9h3.568v2.146h-4.936V-.3h11.211Zm14.764-9.693h-1.244V1.162h1.244ZM127.916-5.8c0,2.659,1.039,4.327,2.639,4.32a2.485,2.485,0,0,0,2.3-1.914h1.777V.561h1.23V-10.855h-1.23V-8.2h-1.784a2.466,2.466,0,0,0-2.29-1.9C128.955-10.11,127.916-8.449,127.916-5.8Zm1.189,0c-.007-1.955.54-3.1,1.449-3.09s1.477,1.135,1.477,3.09-.574,3.1-1.477,3.09S129.1-3.849,129.105-5.8Zm4.013-1.354h1.511v2.693h-1.511a8.207,8.207,0,0,0,.1-1.34A8.379,8.379,0,0,0,133.118-7.15ZM151.2-9.3h-1.736v-1.791h-1.3v7.26h1.3v-1.75H151.2V-6.672h-1.736V-8.23H151.2Zm-11.17,1.846a2.98,2.98,0,0,0,3.254,2.926,3,3,0,0,0,3.268-2.926,3.011,3.011,0,0,0-3.268-2.926A2.988,2.988,0,0,0,140.028-7.451Zm1.271,0a1.817,1.817,0,0,1,1.982-1.818,1.839,1.839,0,0,1,2,1.818,1.824,1.824,0,0,1-2,1.818A1.8,1.8,0,0,1,141.3-7.451Zm.068,5.223h6.795V1.162h1.3V-3.281h-8.094Zm20.069-8.859h-1.285V1.162h1.285V-5.045h1.969v-1.08h-1.969Zm-9.611,2.98h7.26V-9.174h-2.939v-1.75h-1.3v1.75h-3.021Zm.629,3.746A2.851,2.851,0,0,0,155.5-1.5a2.859,2.859,0,0,0,3.049-2.857A2.852,2.852,0,0,0,155.5-7.205,2.845,2.845,0,0,0,152.455-4.361Zm1.244,0a1.723,1.723,0,0,1,1.8-1.777,1.735,1.735,0,0,1,1.8,1.777A1.7,1.7,0,0,1,155.5-2.6,1.69,1.69,0,0,1,153.7-4.361Zm14.519-3.117v-1.3h2.666v-1.08h-6.713v1.08h2.762v1.3A6.211,6.211,0,0,1,163.72-2.2l.766,1.025a6.7,6.7,0,0,0,3.1-3.951A6.265,6.265,0,0,0,170.61-1.49l.738-1.012A5.784,5.784,0,0,1,168.218-7.479ZM172.2,1.162h1.3v-6.3h1.969V-6.234H173.5v-4.854h-1.3ZM178.266-9.9h-1.6l.123,7.041h1.354ZM176.5-.875a.974.974,0,0,0,.971.971.988.988,0,0,0,.971-.971.983.983,0,0,0-.971-.971A.97.97,0,0,0,176.5-.875Z" transform="translate(421 173)" fill="#fff"/>
          <path id="Path_15" data-name="Path 15" d="M3.293-9.023A2.5,2.5,0,0,0,.539-6.586,2.512,2.512,0,0,0,3.293-4.125,2.561,2.561,0,0,0,5.982-6.141H8.027v2.273H9.141V-9.5H8.027v2.449H5.977A2.552,2.552,0,0,0,3.293-9.023ZM1.605-6.586A1.526,1.526,0,0,1,3.293-8.1,1.518,1.518,0,0,1,4.957-6.586,1.533,1.533,0,0,1,3.293-5.062,1.541,1.541,0,0,1,1.605-6.586ZM2.3.867H9.141v-4.23H8.027v1.219H3.4V-3.363H2.3ZM3.4-.047V-1.266H8.027V-.047ZM19.541-9.5H18.487V1h1.055ZM10.483-2.039l.633.8a7.722,7.722,0,0,0,3.105-3.152h2.051V.48h1.055V-9.234H16.272v3.949H14.608A8.881,8.881,0,0,0,15.076-8.2h-4.1v.914h2.994A6.528,6.528,0,0,1,10.483-2.039ZM32.936-3.574H23.327v.914h2.391V1h1.148V-2.66h2.508V1H30.5V-2.66h2.437ZM24.37-6.785c.006,1.4,1.518,2.285,3.738,2.273,2.221.012,3.744-.873,3.738-2.273.006-1.418-1.518-2.32-3.738-2.32S24.376-8.2,24.37-6.785Zm1.148,0c-.006-.885,1.031-1.424,2.59-1.43s2.6.545,2.6,1.43c-.006.861-1.037,1.395-2.6,1.395S25.512-5.924,25.518-6.785ZM36.446-9.152A2.5,2.5,0,0,0,33.681-6.8a2.485,2.485,0,0,0,2.766,2.344A2.484,2.484,0,0,0,39.2-6.8,2.5,2.5,0,0,0,36.446-9.152ZM34.77-6.8a1.484,1.484,0,0,1,1.676-1.418A1.49,1.49,0,0,1,38.122-6.8a1.506,1.506,0,0,1-1.676,1.441A1.5,1.5,0,0,1,34.77-6.8Zm.5,4.008h5.8v.926H35.31V.867h7.219V-.023H36.388V-1.031h5.789V-3.68h-6.9ZM41.063-4.16h1.113V-9.5H41.063Zm9.961,1.254c-2.25,0-3.691.721-3.691,1.945S48.775.979,51.025.973C53.3.979,54.734.258,54.74-.961S53.3-2.906,51.025-2.906ZM46.3-3.773h9.551v-.9H51.224V-6.645h-1.09v1.969H46.3ZM47.415-8.1h6.141a9.43,9.43,0,0,1-.281,2.66l1.09.117a9.454,9.454,0,0,0,.293-2.789v-.879H47.415ZM48.447-.961c-.012-.691.99-1.1,2.578-1.1,1.605.006,2.6.41,2.613,1.1C53.626-.281,52.63.111,51.025.117,49.437.111,48.435-.281,48.447-.961ZM66.019-3.574H56.41v.914H58.8V1h1.148V-2.66h2.508V1h1.125V-2.66h2.438ZM57.453-6.785c.006,1.4,1.518,2.285,3.738,2.273,2.221.012,3.744-.873,3.738-2.273.006-1.418-1.518-2.32-3.738-2.32S57.459-8.2,57.453-6.785Zm1.148,0c-.006-.885,1.031-1.424,2.59-1.43s2.6.545,2.6,1.43c-.006.861-1.037,1.395-2.6,1.395S58.6-5.924,58.6-6.785Zm14.5-.047V-8.625H71.973v1.793A5.285,5.285,0,0,1,69.16-2.086l.68.938A5.594,5.594,0,0,0,72.553-4.57a5.411,5.411,0,0,0,2.654,3.188l.668-.879A5.09,5.09,0,0,1,73.1-6.832ZM76.824,1.02h1.113V-9.5H76.824Zm7.881-9.035v-.8H83.534v.8C83.528-6.3,81.717-4.7,79.725-4.324l.492.926A5.706,5.706,0,0,0,84.131-6.34a5.613,5.613,0,0,0,3.9,2.941l.516-.926C86.528-4.687,84.705-6.3,84.705-8.016ZM79.373-.387h9.609v-.926H79.373Zm14.6-8.449h-4v5.063h.68a19.229,19.229,0,0,0,3.867-.27l-.105-.879a18.609,18.609,0,0,1-3.375.258V-5.918h2.52v-.867H91.04V-7.922h2.93ZM91.438.867h7.02v-3.6h-7.02Zm1.113-.9V-1.852h4.816V-.035ZM94.04-6h1.3v2.719H96.4V-9.328H95.34V-6.9h-1.3ZM97.4-3.2h1.055V-9.5H97.4Zm7.014-5.672c-2.2,0-3.873,1.166-3.867,2.93s1.67,2.936,3.867,2.93,3.879-1.154,3.879-2.93S106.62-8.871,104.417-8.871ZM99.636-.363h9.609v-.926H99.636Zm1.98-5.578c-.006-1.219,1.189-2.033,2.8-2.027s2.795.809,2.8,2.027-1.2,2.016-2.8,2.016S101.61-4.717,101.616-5.941ZM119.376-1.2H115.1v-1.84h3.352v-.914h-6.41V-5.484H118.2V-8.766h-7.289v.914H117.1v1.477h-6.164v3.34H114V-1.2h-4.23v.938h9.609ZM130.849-9.5h-1.125v6.2h1.125V-5.93h1.512v-.914h-1.512Zm-7.816,5.438h.832a23.239,23.239,0,0,0,4.934-.34l-.105-.9a22.042,22.042,0,0,1-4.559.34V-7.828h3.586v-.9h-4.687Zm.891,3c0,1.295,1.359,2.045,3.527,2.039,2.145.006,3.48-.744,3.48-2.039S129.6-3.1,127.451-3.105C125.283-3.1,123.923-2.35,123.923-1.066Zm1.1,0c-.006-.727.908-1.143,2.426-1.137,1.488-.006,2.408.41,2.414,1.137S128.939.088,127.451.082C125.933.088,125.019-.34,125.025-1.066ZM135.7-9.152A2.5,2.5,0,0,0,132.93-6.8,2.485,2.485,0,0,0,135.7-4.453,2.484,2.484,0,0,0,138.449-6.8,2.5,2.5,0,0,0,135.7-9.152ZM134.019-6.8A1.484,1.484,0,0,1,135.7-8.215,1.49,1.49,0,0,1,137.371-6.8,1.506,1.506,0,0,1,135.7-5.355,1.5,1.5,0,0,1,134.019-6.8Zm.5,4.008h5.8v.926h-5.766V.867h7.219V-.023h-6.141V-1.031h5.789V-3.68h-6.9Zm5.789-1.371h1.113V-9.5h-1.113ZM154.575-9.5h-1.066V1h1.066Zm-8.918,4.535c0,2.279.891,3.709,2.262,3.7a2.13,2.13,0,0,0,1.969-1.641h1.523V.48h1.055V-9.3H151.41v2.273h-1.529a2.113,2.113,0,0,0-1.963-1.629C146.547-8.666,145.657-7.242,145.657-4.969Zm1.02,0c-.006-1.676.463-2.654,1.242-2.648s1.266.973,1.266,2.648-.492,2.654-1.266,2.648S146.67-3.3,146.676-4.969Zm3.439-1.16h1.295V-3.82h-1.295a7.034,7.034,0,0,0,.088-1.148A7.182,7.182,0,0,0,150.116-6.129Zm15.293-1.84H163.92V-9.5h-1.113v6.223h1.113v-1.5h1.488v-.937H163.92V-7.055h1.488Zm-9.574,1.582a2.554,2.554,0,0,0,2.789,2.508,2.574,2.574,0,0,0,2.8-2.508,2.581,2.581,0,0,0-2.8-2.508A2.561,2.561,0,0,0,155.835-6.387Zm1.09,0a1.557,1.557,0,0,1,1.7-1.559,1.577,1.577,0,0,1,1.711,1.559,1.563,1.563,0,0,1-1.711,1.559A1.544,1.544,0,0,1,156.924-6.387Zm.059,4.477h5.824V1h1.113V-2.812h-6.937ZM176.671-9.5h-1.113V.984h1.113V-4.395H178.3V-5.32h-1.629ZM168.5-1.816l.621.867a7.9,7.9,0,0,0,4.8-7.453h-4.9v.926h3.762C172.564-5.027,171.134-3.129,168.5-1.816Zm18.6-4.852H181V-9.316h-1.1v3.551h7.207Zm-8.484,2.93h9.586v-.914h-9.586Zm1.137,2.766c0,1.23,1.365,1.922,3.645,1.922,2.262,0,3.615-.691,3.621-1.922s-1.359-1.916-3.621-1.91C181.124-2.889,179.759-2.2,179.759-.973Zm1.125,0c-.006-.68.914-1.037,2.52-1.043,1.582.006,2.508.363,2.508,1.043S184.986.088,183.4.094C181.8.088,180.878-.3,180.884-.973Z" transform="translate(435 225)" fill="#fff"/>
          <path id="Path_14" data-name="Path 14" d="M.867,0H6.234V-1.113H2.156V-3.7h3.75V-4.8H2.156V-7.371H6.188V-8.484H.867ZM11.174-4.781H7.412V-3.7h3.762Zm.27-2.59h2.648V0h1.289V-7.371h2.637V-8.484H11.444ZM18.985,0h1.254V-6.363H18.985Zm-.164-8.086a.772.772,0,0,0,.8.738.761.761,0,0,0,.785-.738.765.765,0,0,0-.785-.738A.776.776,0,0,0,18.821-8.086Zm5.4,8.215a2.427,2.427,0,0,0,2.613-2.145H25.612A1.337,1.337,0,0,1,24.218-.937c-1.049.006-1.723-.855-1.723-2.25,0-1.354.691-2.209,1.723-2.215a1.364,1.364,0,0,1,1.395,1.1h1.219a2.442,2.442,0,0,0-2.637-2.145,2.967,2.967,0,0,0-2.953,3.293A2.951,2.951,0,0,0,24.218.129ZM27.775,0h1.254V-2.262l.6-.6L31.794,0h1.535L30.581-3.633l2.572-2.73h-1.5L29.134-3.68h-.105v-4.8H27.775Zm8.6.129a2.534,2.534,0,0,0,2.66-1.723H37.771A1.487,1.487,0,0,1,36.388-.9,1.743,1.743,0,0,1,34.6-2.8h4.523v-.445c0-2.3-1.377-3.2-2.824-3.2-1.775,0-2.947,1.348-2.941,3.3A2.938,2.938,0,0,0,36.376.129ZM34.6-3.738a1.7,1.7,0,0,1,1.705-1.676,1.555,1.555,0,0,1,1.582,1.676Zm8.5-2.625H41.8V-7.887H40.554v1.523h-.937v1h.938v3.75a1.667,1.667,0,0,0,1.852,1.7,5.927,5.927,0,0,0,.785-.047v-1.09c-.176.018-.451.035-.633.035-.4-.006-.756-.135-.762-.855V-5.367h1.3Zm5.385-2.508c-2.2,0-3.873,1.166-3.867,2.93s1.67,2.936,3.867,2.93,3.879-1.154,3.879-2.93S50.685-8.871,48.482-8.871ZM43.7-.363H53.31v-.926H43.7Zm1.98-5.578c-.006-1.219,1.189-2.033,2.8-2.027s2.795.809,2.8,2.027-1.2,2.016-2.8,2.016S45.676-4.717,45.682-5.941ZM63.442-1.2H59.164v-1.84h3.352v-.914h-6.41V-5.484H62.27V-8.766H54.981v.914h6.188v1.477H55v3.34h3.059V-1.2h-4.23v.938h9.609ZM75.665-9.5H74.6v4.16H73.239V-9.293h-1.02V.457h1.02V-4.43H74.6V1h1.066ZM67-1.523h.7a18.5,18.5,0,0,0,3.879-.316L71.5-2.754a17.226,17.226,0,0,1-3.387.281V-7.336h2.824v-.9H67ZM85.515-9.5H84.39V1h1.125ZM76.89-1.816l.586.9c3.6-1.729,4.91-4.389,4.91-7.465H77.393v.891h3.867C81.044-5.039,79.679-3.146,76.89-1.816Zm19.6-3.375H86.915V-4.3h4.23v.938H88.064v.832h6.117v.855H88.075V.891h7.5V.035h-6.41V-.879h6.117V-3.363H92.247V-4.3h4.242ZM87.407-6.469l.352.844A5.212,5.212,0,0,0,91.7-7.441c.633,1,2.145,1.646,3.949,1.816l.363-.844c-1.91-.158-3.416-.9-3.639-1.816h3.264v-.879h-7.84v.879h3.229C90.794-7.359,89.306-6.627,87.407-6.469Zm14.567,3.117h-1.043V.867h3.715V-3.352h-1.031v1.219h-1.641ZM99.888-6.633A2.492,2.492,0,0,0,102.642-4.2a2.544,2.544,0,0,0,2.689-1.992h2.045v2.25h1.113V-9.5h-1.113v2.4h-2.051a2.555,2.555,0,0,0-2.684-1.957A2.493,2.493,0,0,0,99.888-6.633Zm1.066,0a1.52,1.52,0,0,1,1.688-1.5,1.512,1.512,0,0,1,1.664,1.5A1.539,1.539,0,0,1,102.642-5.1,1.546,1.546,0,0,1,100.955-6.633ZM101.974,0V-1.289h1.641V0Zm2.73.105.563.844A3.465,3.465,0,0,0,107.13-.932a3.249,3.249,0,0,0,1.9,1.881L109.6.105a2.772,2.772,0,0,1-1.91-2.672v-.855h-1.1v.855A2.906,2.906,0,0,1,104.7.105ZM118.562-9.5h-1.113V1.02h1.113ZM110.23-5.039c0,2.268,1.131,3.7,2.719,3.691,1.559.006,2.707-1.424,2.707-3.691,0-2.244-1.148-3.674-2.707-3.68C111.361-8.713,110.23-7.283,110.23-5.039Zm1.078,0c-.006-1.646.662-2.678,1.641-2.684.961.006,1.629,1.037,1.629,2.684,0,1.67-.668,2.7-1.629,2.7C111.971-2.344,111.3-3.369,111.308-5.039ZM130.868-9.5h-1.113V1h1.113V-4.5h1.688v-.937h-1.687Zm-7.781,8h4.98V-8.625h-1.1v2.7h-2.777v-2.7h-1.1Zm1.1-.914V-5.051h2.777v2.637ZM142.428-1.2h-4.277v-1.84H141.5v-.914h-6.41V-5.484h6.164V-8.766h-7.289v.914h6.188v1.477h-6.164v3.34h3.059V-1.2h-4.23v.938h9.609ZM154.347-9.5h-1.113v5.637h1.113Zm-8.5,2.918a2.531,2.531,0,0,0,2.8,2.426,2.521,2.521,0,0,0,2.789-2.426,2.529,2.529,0,0,0-2.789-2.437A2.54,2.54,0,0,0,145.851-6.586Zm1.09,0a1.538,1.538,0,0,1,1.711-1.5,1.537,1.537,0,0,1,1.7,1.5,1.542,1.542,0,0,1-1.7,1.512A1.543,1.543,0,0,1,146.94-6.586ZM147.48.867h6.867v-4.23h-1.1V-2.18h-4.676V-3.363h-1.09Zm1.09-.914V-1.3h4.676V-.047ZM159.439-7.57v-.281H161.7v-.9h-5.684v.9h2.309v.293a3.611,3.611,0,0,1-2.637,3.352l.574.891a4.318,4.318,0,0,0,2.637-2.5,4.1,4.1,0,0,0,2.531,2.168l.527-.867A3.287,3.287,0,0,1,159.439-7.57ZM157.107-1c0,1.248,1.342,1.975,3.527,1.969,2.162.006,3.48-.721,3.48-1.969,0-1.23-1.318-1.951-3.48-1.945C158.449-2.947,157.107-2.227,157.107-1Zm1.113,0c-.006-.686.9-1.072,2.414-1.066s2.4.381,2.391,1.066c.006.7-.885,1.1-2.391,1.09S158.214-.293,158.22-1Zm4.688-2.2h1.113V-5.988h1.523V-6.9h-1.523V-9.5h-1.113Zm13.864-6.3h-1.113V.984h1.113V-4.395H178.4V-5.32h-1.629ZM168.6-1.816l.621.867a7.9,7.9,0,0,0,4.8-7.453h-4.9v.926h3.762C172.664-5.027,171.234-3.129,168.6-1.816Zm18.6-4.852H181.1V-9.316H180v3.551h7.207Zm-8.484,2.93h9.586v-.914h-9.586Zm1.137,2.766c0,1.23,1.365,1.922,3.645,1.922,2.262,0,3.615-.691,3.621-1.922s-1.359-1.916-3.621-1.91C181.225-2.889,179.859-2.2,179.859-.973Zm1.125,0c-.006-.68.914-1.037,2.52-1.043,1.582.006,2.508.363,2.508,1.043S185.086.088,183.5.094C181.9.088,180.979-.3,180.984-.973Z" transform="translate(435 238)" fill="#fff"/>
        </g>
        <g id="Group_9" data-name="Group 9" transform="translate(-5320 -8182.467)">
          <path id="Path_1" data-name="Path 1" d="M428.178,215.885H421.5V225.99h8.853v-5.512" fill="none" stroke="#fff" stroke-width="1"/>
          <path id="Path_2" data-name="Path 2" d="M423.668,219.559l2.088,2.756,6.431-6.848" fill="none" stroke="#fff" stroke-width="1"/>
        </g>
        <g id="Group_10" data-name="Group 10" transform="translate(-5320 -8170)">
          <path id="Path_1-2" data-name="Path 1" d="M428.178,215.885H421.5V225.99h8.853v-5.512" fill="none" stroke="#fff" stroke-width="1"/>
          <path id="Path_2-2" data-name="Path 2" d="M423.668,219.559l2.088,2.756,6.431-6.848" fill="none" stroke="#fff" stroke-width="1"/>
        </g>
      </g>
      <g id="Group_31" data-name="Group 31" transform="translate(625 7940)">
        <path id="Path_23" data-name="Path 23" d="M7.764-16.113v-2.563H4.736v2.563A7.05,7.05,0,0,1,.342-9.5L2-7.08a8.017,8.017,0,0,0,4.3-4.395,7.332,7.332,0,0,0,3.955,3.809l1.685-2.393A6.27,6.27,0,0,1,7.764-16.113Zm11.987-3.833H16.8v5.4H14.941V-19.6H12.036V-6.616h2.905v-5.4H16.8v5.518h2.954Zm0,14.429H4.395v2.49H16.65V2.246h3.1ZM38.545-19.971H35.42V2.295h3.125V-9.18h3.271v-2.539H38.545ZM32.319-17.92H21.895V-3.1h1.88a56.624,56.624,0,0,0,10.4-.659l-.342-2.612A51.64,51.64,0,0,1,25-5.664v-9.741h7.324ZM61.685-7.959H41.348v2.49H61.685ZM59.707-.635H47.036V-4.248H43.911v6.1h15.8Zm-.488-18.823H43.838v2.393H56.094v1.514H43.887V-9.4H59.634v-2.344H46.987V-13.33H59.219Zm25.039,6.494H71.807V-18.97h-3.1v8.5H84.258Zm2.246,5H66.24v2.49h4.688V2.246h3.125V-5.469h4.663V2.246h3.149V-5.469H86.5ZM96.729-19.6c-4.907,0-8.105,1.685-8.105,4.37a3.753,3.753,0,0,0,2.539,3.345v2.856H86.6v2.441H106.86V-9.033H102.2v-2.808c1.66-.757,2.6-1.929,2.612-3.394C104.785-17.92,101.66-19.6,96.729-19.6Zm0,2.441c3.076-.024,4.858.61,4.858,1.929,0,1.294-1.782,1.953-4.858,1.953-3.1,0-4.883-.659-4.858-1.953C91.846-16.553,93.628-17.187,96.729-17.163Zm7.666,12.134H88.843v2.441h12.451V2.246h3.1Zm-10.083-4v-1.978a18.634,18.634,0,0,0,2.417.146,18,18,0,0,0,2.368-.146v1.978Zm35.9-10.937h-3.076v7.837h-4.126v-6.128h-3.052v5.4H115.4v-5.4h-3.1V-2.979h10.718V-9.619h4.126V2.295h3.076ZM115.4-5.469v-4.956h4.565v4.956Zm28.12-11.572v-1.611H140.2v1.611c-.024,3.223-2.93,6.714-7.861,7.593l1.343,2.588a11.578,11.578,0,0,0,8.2-5.811,11.288,11.288,0,0,0,8.179,5.811l1.367-2.588C146.4-10.3,143.516-13.794,143.516-17.041Zm8.643,13.989H131.821V-.488h20.337ZM177-6.812H156.665v2.539h8.594V2.246h3.076V-4.272H177Zm-2.173-4.077H162.28v-1.685h11.841v-2.393H162.28v-1.66h12.3v-2.441H159.229V-8.423h15.6Zm8.345-7.52c-3.369,0-5.786,3.076-5.762,7.91-.024,4.883,2.393,7.935,5.762,7.935,3.1,0,5.383-2.612,5.713-6.885h3.833V2.295H195.8V-19.971H192.72v8.032h-3.857C188.411-15.93,186.177-18.408,183.174-18.408Zm0,2.808c1.685,0,2.783,1.807,2.783,5.1,0,3.32-1.1,5.1-2.783,5.1-1.66,0-2.808-1.782-2.783-5.1C180.366-13.794,181.514-15.6,183.174-15.6ZM202.09-1.807h-3.467L197.4,5.151h2.588Z" transform="translate(-447 -7893)" fill="#fff"/>
        <path id="Path_24" data-name="Path 24" d="M15.63-23.783H2.256V-4.061H4.641a62.592,62.592,0,0,0,12.987-.9l-.419-3.319a60.646,60.646,0,0,1-10.8.87v-13.02H15.63Zm10.022-2.578H21.56V-16.21H14.18v3.352h7.38V3.029h4.093Zm30.126,0H51.718V3.029h4.061V-11.892H60.1v-3.384H55.779ZM47.4-23.912H33.832v3.319h9.475v4.8H33.865V-3.8h2.481a73.439,73.439,0,0,0,13.664-1l-.354-3.287a68.532,68.532,0,0,1-11.7.87v-5.317H47.4Zm36.139-2.449H79.382V3.029h4.157ZM67.619-24.3c-4.512,0-7.8,4.061-7.767,10.441C59.82-7.412,63.108-3.384,67.619-3.384c4.415,0,7.7-4.028,7.7-10.474C75.321-20.238,72.034-24.3,67.619-24.3Zm0,3.706c2.224,0,3.738,2.385,3.738,6.735,0,4.383-1.515,6.735-3.738,6.735-2.288,0-3.8-2.353-3.8-6.735C63.817-18.208,65.331-20.593,67.619-20.593Zm41.618,7.8H92.544v-7.8h16.468v-3.319H88.483V-9.507h20.754ZM112.17-4H85.325V-.612H112.17Z" transform="translate(-243 -7891)" fill="#fff"/>
      </g>
    </g>
  </g>
</svg>
