<svg width="346" height="48" viewBox="0 0 346 48" fill="none" xmlns="http://www.w3.org/2000/svg">
<mask id="mask0_68_46" style="mask-type:luminance" maskUnits="userSpaceOnUse" x="0" y="0" width="346" height="48">
<path d="M345.5 0.5H0.5V47.5H345.5V0.5Z" fill="white"/>
</mask>
<g mask="url(#mask0_68_46)">
<mask id="mask1_68_46" style="mask-type:luminance" maskUnits="userSpaceOnUse" x="0" y="0" width="346" height="48">
<path d="M345.5 0.5H0.5V47.5H345.5V0.5Z" fill="white"/>
</mask>
<g mask="url(#mask1_68_46)">
<path d="M68.1591 3.71794H68.7191V10.0459H68.1591V3.71794ZM67.0881 6.25194H68.3061V6.73494H67.0881V6.25194ZM66.7241 3.85794H67.2701V9.72394H66.7241V3.85794ZM63.5741 8.00194H63.9871C64.9111 8.00194 65.5411 7.96694 66.2761 7.81294L66.3321 8.29594C65.5761 8.45694 64.9391 8.48494 63.9871 8.48494H63.5741V8.00194ZM63.5741 4.48794H65.9261V4.96394H64.1481V8.21894H63.5741V4.48794ZM71.3506 4.62094H71.8126V5.64994C71.8126 6.96594 71.0076 8.32394 70.0206 8.82794L69.6846 8.36594C70.5876 7.92494 71.3506 6.72094 71.3506 5.64994V4.62094ZM71.4556 4.62094H71.9176V5.64994C71.9176 6.65094 72.6316 7.77794 73.5486 8.21194L73.2196 8.67394C72.2186 8.17694 71.4556 6.90294 71.4556 5.64994V4.62094ZM69.9086 4.36194H73.3176V4.85194H69.9086V4.36194ZM74.0666 3.71794H74.6546V10.0459H74.0666V3.71794ZM74.5146 6.27294H75.6906V6.76294H74.5146V6.27294ZM79.155 4.70494H81.059V5.18094H79.155V4.70494ZM79.155 6.22394H81.059V6.69994H79.155V6.22394ZM80.849 3.72494H81.43V8.40094H80.849V3.72494ZM77.391 9.42994H81.605V9.90594H77.391V9.42994ZM77.391 7.91794H77.972V9.63994H77.391V7.91794ZM77.951 4.12394C78.882 4.12394 79.582 4.77494 79.582 5.70594C79.582 6.63694 78.882 7.28794 77.951 7.28794C77.02 7.28794 76.32 6.63694 76.32 5.70594C76.32 4.77494 77.02 4.12394 77.951 4.12394ZM77.951 4.63494C77.335 4.63494 76.88 5.08294 76.88 5.70594C76.88 6.33594 77.335 6.78394 77.951 6.78394C78.567 6.78394 79.029 6.33594 79.029 5.70594C79.029 5.08294 78.567 4.63494 77.951 4.63494ZM85.2305 6.17494H86.4275V6.65794H85.2305V6.17494ZM87.4845 3.71794H88.0445V10.0459H87.4845V3.71794ZM86.2315 3.85094H86.7845V9.73094H86.2315V3.85094ZM84.0895 4.24294C84.9085 4.24294 85.4405 5.08994 85.4405 6.44794C85.4405 7.80594 84.9085 8.65294 84.0895 8.65294C83.2705 8.65294 82.7455 7.80594 82.7455 6.44794C82.7455 5.08994 83.2705 4.24294 84.0895 4.24294ZM84.0895 4.78194C83.5925 4.78194 83.2775 5.42594 83.2775 6.44794C83.2775 7.46994 83.5925 8.11394 84.0895 8.11394C84.5935 8.11394 84.9085 7.46994 84.9085 6.44794C84.9085 5.42594 84.5935 4.78194 84.0895 4.78194ZM91.3287 4.33394H94.2057V8.44994H91.3287V4.33394ZM93.6317 4.80294H91.8957V7.98094H93.6317V4.80294ZM95.7107 3.71094H96.2847V10.0529H95.7107V3.71094ZM94.0937 6.02094H95.9277V6.50394H94.0937V6.02094ZM97.5091 7.39294H103.249V7.86894H97.5091V7.39294ZM100.071 7.67994H100.645V10.0459H100.071V7.67994ZM98.2371 4.06794H102.507V6.53894H98.2371V4.06794ZM101.94 4.53694H98.8111V6.06994H101.94V4.53694ZM103.955 8.76494H109.688V9.25494H103.955V8.76494ZM104.648 4.20094H108.981V6.11894H105.243V7.38594H104.669V5.65694H108.407V4.67694H104.648V4.20094ZM104.669 7.14094H109.128V7.61694H104.669V7.14094ZM114.672 3.71094H115.26V10.0529H114.672V3.71094ZM115.12 6.20994H116.296V6.69994H115.12V6.20994ZM110.661 7.98794H111.158C112.327 7.98794 113.146 7.94594 114.091 7.77094L114.154 8.26094C113.181 8.44294 112.348 8.47794 111.158 8.47794H110.661V7.98794ZM110.661 4.32694H113.601V4.80294H111.235V8.20494H110.661V4.32694Z" fill="white"/>
<path d="M74.7555 39.6755H76.2375V40.1175H74.7555V39.6755ZM75.932 38.0635H76.4715V42.3665H75.932V38.0635ZM72.721 43.361H76.634V43.803H72.721V43.361ZM72.721 41.9895H73.2605V43.5885H72.721V41.9895ZM73.137 38.7915H73.579V39.266C73.579 40.332 72.916 41.255 71.9345 41.619L71.655 41.19C72.5325 40.878 73.137 40.098 73.137 39.266V38.7915ZM73.241 38.7915H73.6765V39.2595C73.6765 40.02 74.2485 40.761 75.1 41.06L74.827 41.4825C73.8715 41.138 73.241 40.254 73.241 39.2595V38.7915ZM71.824 38.538H74.9635V38.9735H71.824V38.538ZM78.928 40.046H79.461V41.1575H78.928V40.046ZM81.086 40.046H81.619V41.1575H81.086V40.046ZM77.615 40.9625H82.9255V41.398H77.615V40.9625ZM80.267 41.84C81.528 41.84 82.282 42.2105 82.282 42.88C82.282 43.5495 81.528 43.9265 80.267 43.9265C79.006 43.9265 78.252 43.5495 78.252 42.88C78.252 42.2105 79.006 41.84 80.267 41.84ZM80.267 42.256C79.3505 42.256 78.798 42.4835 78.798 42.88C78.798 43.283 79.3505 43.504 80.267 43.504C81.19 43.504 81.736 43.283 81.736 42.88C81.736 42.4835 81.19 42.256 80.267 42.256ZM80.2735 38.161C81.5475 38.161 82.3405 38.5705 82.3405 39.2595C82.3405 39.942 81.5475 40.345 80.2735 40.345C78.993 40.345 78.2065 39.942 78.2065 39.2595C78.2065 38.5705 78.993 38.161 80.2735 38.161ZM80.2735 38.5835C79.3375 38.5835 78.759 38.8305 78.759 39.2595C78.759 39.682 79.3375 39.929 80.2735 39.929C81.2095 39.929 81.788 39.682 81.788 39.2595C81.788 38.8305 81.2095 38.5835 80.2735 38.5835ZM86.8591 39.4545H87.2816V39.955C87.2816 41.1965 86.6056 42.3405 85.6761 42.802L85.3706 42.386C86.2351 41.97 86.8591 40.969 86.8591 39.955V39.4545ZM86.9631 39.4545H87.3856V39.955C87.3856 40.904 87.9771 41.8595 88.8156 42.2755L88.5166 42.6915C87.6001 42.2365 86.9631 41.125 86.9631 39.955V39.4545ZM85.5331 39.0775H88.6856V39.513H85.5331V39.0775ZM86.8526 38.161H87.3856V39.318H86.8526V38.161ZM89.4006 38.057H89.9466V43.933H89.4006V38.057ZM89.8166 40.4685H90.9086V40.917H89.8166V40.4685ZM95.8026 38.9735H96.8361V39.422H95.8026V38.9735ZM95.8026 40.2085H96.8361V40.657H95.8026V40.2085ZM95.4256 38.057H95.9651V41.6125H95.4256V38.057ZM91.6621 40.826H92.1236C93.1896 40.826 93.9501 40.7935 94.8666 40.631L94.9121 41.0795C93.9826 41.2355 93.2091 41.2745 92.1236 41.2745H91.6621V40.826ZM91.6491 38.421H94.2946V40.02H92.1886V41.112H91.6621V39.5975H93.7616V38.863H91.6491V38.421ZM94.0866 41.788C95.2891 41.788 96.0171 42.178 96.0171 42.854C96.0171 43.5365 95.2891 43.9265 94.0866 43.9265C92.8906 43.9265 92.1561 43.5365 92.1561 42.854C92.1561 42.178 92.8906 41.788 94.0866 41.788ZM94.0866 42.2105C93.2091 42.2105 92.6826 42.4445 92.6826 42.854C92.6826 43.27 93.2091 43.504 94.0866 43.504C94.9641 43.504 95.4971 43.27 95.4971 42.854C95.4971 42.4445 94.9641 42.2105 94.0866 42.2105ZM100.775 43.1029V40.056H101.292V43.1029H100.775ZM99.5098 41.838V41.3209H102.557V41.838H99.5098ZM109.346 38.0635H109.886V42.4705H109.346V38.0635ZM109.717 39.9875H110.757V40.4425H109.717V39.9875ZM105.342 38.772H108.813V39.2075H105.342V38.772ZM107.078 39.5325C107.91 39.5325 108.482 39.968 108.482 40.631C108.482 41.2875 107.91 41.723 107.078 41.723C106.239 41.723 105.667 41.2875 105.667 40.631C105.667 39.968 106.239 39.5325 107.078 39.5325ZM107.078 39.955C106.545 39.955 106.181 40.2215 106.181 40.631C106.181 41.034 106.545 41.3005 107.078 41.3005C107.604 41.3005 107.968 41.034 107.968 40.631C107.968 40.2215 107.604 39.955 107.078 39.955ZM106.805 38.057H107.344V38.9995H106.805V38.057ZM106.226 43.361H110.152V43.803H106.226V43.361ZM106.226 42.1195H106.766V43.5495H106.226V42.1195ZM111.985 38.33H115.768V38.772H111.985V38.33ZM111.309 40.436H116.632V40.878H111.309V40.436ZM113.694 40.735H114.227V42.1195H113.694V40.735ZM115.417 38.33H115.943V38.7655C115.943 39.253 115.943 39.8445 115.748 40.6505L115.222 40.5855C115.417 39.799 115.417 39.24 115.417 38.7655V38.33ZM111.861 41.944H115.982V43.933H115.443V42.386H111.861V41.944ZM121.559 38.0635H122.105V42.3535H121.559V38.0635ZM118.328 43.361H122.28V43.803H118.328V43.361ZM118.328 41.9115H118.861V43.5105H118.328V41.9115ZM118.952 38.4665C119.83 38.4665 120.48 39.0645 120.48 39.916C120.48 40.761 119.83 41.3655 118.952 41.3655C118.075 41.3655 117.418 40.761 117.418 39.916C117.418 39.0645 118.075 38.4665 118.952 38.4665ZM118.952 38.9345C118.38 38.9345 117.945 39.3375 117.945 39.916C117.945 40.488 118.38 40.891 118.952 40.891C119.524 40.891 119.96 40.488 119.96 39.916C119.96 39.3375 119.524 38.9345 118.952 38.9345ZM129.067 38.0505H129.613V43.933H129.067V38.0505ZM129.464 40.436H130.549V40.8845H129.464V40.436ZM127.566 38.6875H128.092C128.092 40.358 127.325 41.866 125.427 42.8215L125.128 42.4055C126.753 41.58 127.566 40.3255 127.566 38.772V38.6875ZM125.401 38.6875H127.845V39.1295H125.401V38.6875ZM135.339 38.0505H135.879V43.9395H135.339V38.0505ZM132.778 38.5055C133.649 38.5055 134.273 39.305 134.273 40.553C134.273 41.8075 133.649 42.607 132.778 42.607C131.914 42.607 131.29 41.8075 131.29 40.553C131.29 39.305 131.914 38.5055 132.778 38.5055ZM132.778 38.993C132.206 38.993 131.803 39.604 131.803 40.553C131.803 41.5085 132.206 42.1325 132.778 42.1325C133.357 42.1325 133.753 41.5085 133.753 40.553C133.753 39.604 133.357 38.993 132.778 38.993ZM137.724 40.8715H141.761V41.3135H137.724V40.8715ZM137.055 42.6915H142.378V43.14H137.055V42.6915ZM137.724 38.5965H141.702V39.045H138.264V41.0665H137.724V38.5965Z" fill="white"/>
<path d="M66.5848 38.905H63.5848V44.415H69.1849V41.2319" stroke="white"/>
<path d="M64.5043 40.4949L66.3413 42.637L70.228 37.9241" stroke="white"/>
<path d="M63.3861 20.228H69.8431V21.383H63.3861V20.228ZM62.451 26.96H71.658V28.148H62.451V26.96ZM69.073 20.228H70.5251V21.438C70.5251 22.868 70.5251 24.254 70.1621 26.344L68.699 26.223C69.073 24.265 69.073 22.813 69.073 21.438V20.228ZM79.8521 19.293H81.2381V26.85H79.8521V19.293ZM78.6202 22.186H80.2371V23.363H78.6202V22.186ZM77.6742 19.48H79.0382V26.652H77.6742V19.48ZM74.3852 28.137H81.5021V29.303H74.3852V28.137ZM74.3852 26.146H75.8481V28.577H74.3852V26.146ZM72.9662 24.32H73.6701C75.1331 24.32 76.0792 24.287 77.2012 24.078L77.3221 25.233C76.1671 25.442 75.1771 25.475 73.6701 25.475H72.9662V24.32ZM72.9552 20.118H76.8162V23.297H74.3852V24.969H72.9662V22.23H75.4081V21.262H72.9552V20.118ZM83.7564 23.99H90.9173V25.156H83.7564V23.99ZM82.6894 27.059H91.9074V28.258H82.6894V27.059ZM83.7564 20.129H90.8404V21.317H85.2083V24.474H83.7564V20.129ZM102.702 19.293H104.099V29.479H102.702V19.293ZM101.382 23.176H103.065V24.353H101.382V23.176ZM98.5003 20.47H99.8863C99.8863 23.396 99.1713 25.761 96.1353 27.532L95.3213 26.498C97.8293 25.046 98.5003 23.264 98.5003 20.734V20.47ZM95.9263 20.47H98.9624V21.647H95.9263V20.47ZM100.458 19.513H101.822V29.039H100.458V19.513ZM98.5224 22.769V23.847L95.5634 24.166L95.3983 22.934L98.5224 22.769ZM112.524 19.293H113.987V26.784H112.524V19.293ZM110.06 20.426H113.019V21.57H110.06V20.426ZM107.255 28.137H114.218V29.303H107.255V28.137ZM107.255 26.113H108.729V28.731H107.255V26.113ZM106.023 19.942H107.475V24.727H106.023V19.942ZM106.023 24.287H106.837C108.311 24.287 109.62 24.221 111.072 23.968L111.204 25.145C109.708 25.42 108.366 25.475 106.837 25.475H106.023V24.287ZM110.06 22.318H113.019V23.473H110.06V22.318ZM119.652 23.044H121.324V24.221H119.652V23.044ZM122.941 19.293H124.338V29.479H122.941V19.293ZM120.862 19.447H122.237V29.017H120.862V19.447ZM117.87 20.008C119.223 20.008 120.092 21.405 120.092 23.704C120.092 26.014 119.223 27.411 117.87 27.411C116.528 27.411 115.67 26.014 115.67 23.704C115.67 21.405 116.528 20.008 117.87 20.008ZM117.87 21.383C117.32 21.383 117.001 22.153 117.001 23.704C117.001 25.266 117.32 26.025 117.87 26.025C118.442 26.025 118.761 25.266 118.761 23.704C118.761 22.153 118.442 21.383 117.87 21.383ZM130.838 22.472H133.522V23.649H130.838V22.472ZM128.066 20.074H129.254V21.548C129.254 24.111 128.385 26.476 126.471 27.433L125.558 26.256C127.296 25.453 128.066 23.484 128.066 21.548V20.074ZM128.374 20.074H129.54V21.548C129.54 23.484 130.277 25.343 131.96 26.091L131.091 27.257C129.177 26.333 128.374 24.089 128.374 21.548V20.074ZM132.796 19.282H134.248V29.501H132.796V19.282ZM140.654 20.899H141.809V22.043C141.809 24.342 140.841 26.685 138.971 27.565L138.146 26.41C139.829 25.618 140.654 23.715 140.654 22.043V20.899ZM140.962 20.899H142.117V22.043C142.117 23.583 142.909 25.387 144.581 26.157L143.778 27.312C141.908 26.443 140.962 24.21 140.962 22.043V20.899ZM138.542 20.272H144.13V21.471H138.542V20.272ZM144.878 19.293H146.352V29.479H144.878V19.293ZM146.022 23.176H147.826V24.386H146.022V23.176ZM155.47 19.282H156.944V29.501H155.47V19.282ZM151.455 19.997C152.995 19.997 154.128 21.405 154.128 23.627C154.128 25.871 152.995 27.279 151.455 27.279C149.915 27.279 148.782 25.871 148.782 23.627C148.782 21.405 149.915 19.997 151.455 19.997ZM151.455 21.328C150.696 21.328 150.179 22.131 150.179 23.627C150.179 25.145 150.696 25.959 151.455 25.959C152.214 25.959 152.72 25.145 152.72 23.627C152.72 22.131 152.214 21.328 151.455 21.328ZM163.719 21.977H166.293V23.143H163.719V21.977ZM165.666 19.304H167.129V26.74H165.666V19.304ZM160.408 28.137H167.36V29.303H160.408V28.137ZM160.408 26.003H161.871V28.731H160.408V26.003ZM161.42 19.909C162.927 19.909 164.104 20.998 164.104 22.516C164.104 24.023 162.927 25.123 161.42 25.123C159.902 25.123 158.725 24.023 158.725 22.516C158.725 20.998 159.902 19.909 161.42 19.909ZM161.42 21.185C160.683 21.185 160.122 21.669 160.122 22.516C160.122 23.352 160.683 23.847 161.42 23.847C162.146 23.847 162.707 23.352 162.707 22.516C162.707 21.669 162.146 21.185 161.42 21.185ZM175.356 19.293H176.819V29.479H175.356V19.293ZM176.368 23.275H178.139V24.485H176.368V23.275ZM170.362 20.327H171.726C171.726 23.154 171.462 25.321 169.658 27.345L168.514 26.52C170.087 24.782 170.362 23.088 170.362 20.503V20.327ZM168.965 20.327H170.934V21.515H168.965V20.327ZM173.167 20.327H174.531C174.531 23.286 174.289 25.783 172.518 27.994L171.374 27.18C172.914 25.233 173.167 23.275 173.167 20.492V20.327ZM172.067 20.327H173.772V21.515H172.067V20.327ZM181.295 20.899H182.461V22.043C182.461 24.397 181.504 26.696 179.59 27.565L178.765 26.41C180.47 25.651 181.295 23.77 181.295 22.043V20.899ZM181.625 20.899H182.78V22.043C182.78 23.693 183.594 25.453 185.299 26.157L184.507 27.312C182.571 26.476 181.625 24.309 181.625 22.043V20.899ZM179.172 20.272H184.881V21.471H179.172V20.272ZM185.827 19.293H187.301V29.479H185.827V19.293ZM190.994 27.4062L190.951 27.8359C190.917 28.1797 190.852 28.5221 190.756 28.8633C190.662 29.207 190.563 29.5182 190.459 29.7969C190.357 30.0755 190.275 30.2943 190.213 30.4531H189.135C189.174 30.2995 189.227 30.0846 189.295 29.8086C189.363 29.5352 189.426 29.2279 189.486 28.8867C189.546 28.5456 189.584 28.1979 189.6 27.8437L189.619 27.4062H190.994ZM203.238 17.619H204.889V29.657H203.238V17.619ZM201.678 22.208H203.667V23.599H201.678V22.208ZM198.272 19.01H199.91C199.91 22.468 199.065 25.263 195.477 27.356L194.515 26.134C197.479 24.418 198.272 22.312 198.272 19.322V19.01ZM195.23 19.01H198.818V20.401H195.23V19.01ZM200.586 17.879H202.198V29.137H200.586V17.879ZM198.298 21.727V23.001L194.801 23.378L194.606 21.922L198.298 21.727ZM214.846 17.619H216.575V26.472H214.846V17.619ZM211.934 18.958H215.431V20.31H211.934V18.958ZM208.619 28.071H216.848V29.449H208.619V28.071ZM208.619 25.679H210.361V28.773H208.619V25.679ZM207.163 18.386H208.879V24.041H207.163V18.386ZM207.163 23.521H208.125C209.867 23.521 211.414 23.443 213.13 23.144L213.286 24.535C211.518 24.86 209.932 24.925 208.125 24.925H207.163V23.521ZM211.934 21.194H215.431V22.559H211.934V21.194ZM230.165 17.619H231.816V29.657H230.165V17.619ZM228.722 22.234H230.711V23.638H228.722V22.234ZM227.63 17.827H229.242V29.085H227.63V17.827ZM221.559 18.971H227.058V20.349H221.559V18.971ZM221.533 26.927L221.351 25.523C222.846 25.523 225.355 25.484 227.149 25.237L227.266 26.485C225.42 26.888 223.002 26.927 221.533 26.927ZM222.313 19.855H223.86V25.887H222.313V19.855ZM224.757 19.855H226.304V25.887H224.757V19.855ZM238.276 18.776H239.94C239.94 22.481 238.952 25.64 234.428 27.889L233.518 26.55C237.223 24.704 238.276 22.39 238.276 18.984V18.776ZM234.233 18.776H239.121V20.141H234.233V18.776ZM238.25 21.727V23.053L233.843 23.443L233.622 21.987L238.25 21.727ZM241.721 17.619H243.463V29.657H241.721V17.619ZM248.285 19.517H249.663V20.869C249.663 23.651 248.532 26.368 246.27 27.395L245.295 26.03C247.31 25.133 248.285 22.91 248.285 20.869V19.517ZM248.675 19.517H250.04V20.869C250.04 22.819 251.002 24.899 253.017 25.731L252.081 27.096C249.793 26.108 248.675 23.547 248.675 20.869V19.517ZM245.776 18.776H252.523V20.193H245.776V18.776ZM253.641 17.619H255.383V29.657H253.641V17.619ZM265.736 20.076H269.012V21.467H265.736V20.076ZM265.736 23.807H269.012V25.198H265.736V23.807ZM263.656 18.451C265.45 18.451 266.763 20.115 266.763 22.741C266.763 25.393 265.45 27.057 263.656 27.057C261.849 27.057 260.549 25.393 260.549 22.741C260.549 20.115 261.849 18.451 263.656 18.451ZM263.656 20.024C262.785 20.024 262.187 20.973 262.187 22.741C262.187 24.535 262.785 25.497 263.656 25.497C264.54 25.497 265.125 24.535 265.125 22.741C265.125 20.973 264.54 20.024 263.656 20.024ZM268.739 17.606H270.455V29.683H268.739V17.606ZM280.932 17.619H282.57V25.159H280.932V17.619ZM279.463 20.583H281.387V21.987H279.463V20.583ZM278.436 17.853H280.048V24.769H278.436V17.853ZM272.261 18.854H278.098V20.18H272.261V18.854ZM275.199 20.57C276.707 20.57 277.799 21.428 277.799 22.676C277.799 23.924 276.707 24.769 275.199 24.769C273.691 24.769 272.599 23.924 272.599 22.676C272.599 21.428 273.691 20.57 275.199 20.57ZM275.199 21.805C274.562 21.805 274.133 22.117 274.133 22.676C274.133 23.235 274.562 23.547 275.199 23.547C275.823 23.547 276.252 23.235 276.252 22.676C276.252 22.117 275.823 21.805 275.199 21.805ZM274.328 17.736H276.031V19.764H274.328V17.736ZM278.501 25.289C281.075 25.289 282.635 26.069 282.635 27.473C282.635 28.864 281.075 29.657 278.501 29.657C275.914 29.657 274.354 28.864 274.354 27.473C274.354 26.069 275.914 25.289 278.501 25.289ZM278.501 26.576C276.889 26.576 276.083 26.849 276.083 27.473C276.083 28.084 276.889 28.37 278.501 28.37C280.1 28.37 280.906 28.084 280.906 27.473C280.906 26.849 280.1 26.576 278.501 26.576Z" fill="white"/>
</g>
</g>
</svg>
