<svg width="801" height="110" viewBox="0 0 801 110" fill="none" xmlns="http://www.w3.org/2000/svg">
<g clip-path="url(#clip0_33_184)">
<mask id="mask0_33_184" style="mask-type:luminance" maskUnits="userSpaceOnUse" x="0" y="0" width="801" height="110">
<path d="M800.5 0.5H0.5V109.5H800.5V0.5Z" fill="white"/>
</mask>
<g mask="url(#mask0_33_184)">
<path d="M96.084 39.898H100.986C100.986 49.018 97.338 55.364 87.686 59.354L85.33 55.744C93.348 52.59 96.084 47.954 96.084 41.532V39.898ZM87.154 39.898H97.642V43.926H87.154V39.898ZM96.312 46.32V49.74L86.318 50.842L85.71 46.852L96.312 46.32ZM110.714 37.694H115.502V58.29H110.714V37.694ZM106.496 45.864H112.082V49.968H106.496V45.864ZM103.038 38.34H107.75V58.024H103.038V38.34ZM91.676 59.658H115.502V72.502H91.676V59.658ZM110.562 63.61H96.654V68.512H110.562V63.61ZM121.997 40.316H140.959V44.382H121.997V40.316ZM121.617 57.492L121.085 53.388C126.975 53.388 135.335 53.274 142.251 52.362L142.631 56.01C135.563 57.34 127.431 57.492 121.617 57.492ZM124.771 43.546H129.597V55.288H124.771V43.546ZM133.283 43.546H138.185V55.288H133.283V43.546ZM144.645 37.732H149.737V58.898H144.645V37.732ZM137.881 59.582C145.329 59.582 149.965 62.014 149.965 66.194C149.965 70.45 145.329 72.882 137.881 72.882C130.433 72.882 125.873 70.45 125.873 66.194C125.873 62.014 130.433 59.582 137.881 59.582ZM137.881 63.42C133.283 63.42 130.889 64.332 130.889 66.194C130.889 68.132 133.283 69.044 137.881 69.044C142.517 69.044 144.911 68.132 144.911 66.194C144.911 64.332 142.517 63.42 137.881 63.42ZM168.734 41.076H173.674C173.674 51.944 171.09 60.988 157.98 67.638L155.282 63.8C166.226 58.29 168.734 51.564 168.734 41.684V41.076ZM157.448 41.076H171.736V45.066H157.448V41.076ZM168.848 49.702V53.578L156.232 54.794L155.624 50.462L168.848 49.702ZM177.93 37.656H183.022V72.844H177.93V37.656ZM181.692 51.108H187.886V55.25H181.692V51.108ZM207.09 43.242H211.08V47.194C211.08 55.136 207.736 63.23 201.276 66.27L198.426 62.28C204.24 59.544 207.09 52.97 207.09 47.194V43.242ZM208.154 43.242H212.144V47.194C212.144 52.514 214.88 58.746 220.656 61.406L217.882 65.396C211.422 62.394 208.154 54.68 208.154 47.194V43.242ZM199.794 41.076H219.098V45.218H199.794V41.076ZM221.682 37.694H226.774V72.882H221.682V37.694ZM225.634 51.108H231.866V55.288H225.634V51.108ZM241.325 59.924H246.493V72.882H241.325V59.924ZM253.485 59.924H258.653V72.882H253.485V59.924ZM234.143 57.264H266.025V61.33H234.143V57.264ZM249.989 38.872C257.513 38.872 262.719 41.95 262.719 46.776C262.719 51.526 257.513 54.604 249.989 54.604C242.503 54.604 237.297 51.526 237.297 46.776C237.297 41.95 242.503 38.872 249.989 38.872ZM249.989 42.9C245.391 42.9 242.465 44.268 242.465 46.776C242.465 49.246 245.391 50.614 249.989 50.614C254.625 50.614 257.513 49.246 257.513 46.776C257.513 44.268 254.625 42.9 249.989 42.9ZM293.627 44.876H303.203V48.942H293.627V44.876ZM293.627 55.782H303.203V59.848H293.627V55.782ZM287.547 40.126C292.791 40.126 296.629 44.99 296.629 52.666C296.629 60.418 292.791 65.282 287.547 65.282C282.265 65.282 278.465 60.418 278.465 52.666C278.465 44.99 282.265 40.126 287.547 40.126ZM287.547 44.724C285.001 44.724 283.253 47.498 283.253 52.666C283.253 57.91 285.001 60.722 287.547 60.722C290.131 60.722 291.841 57.91 291.841 52.666C291.841 47.498 290.131 44.724 287.547 44.724ZM302.405 37.656H307.421V72.958H302.405V37.656ZM338.046 37.694H342.834V59.734H338.046V37.694ZM333.752 46.358H339.376V50.462H333.752V46.358ZM330.75 38.378H335.462V58.594H330.75V38.378ZM312.7 41.304H329.762V45.18H312.7V41.304ZM321.288 46.32C325.696 46.32 328.888 48.828 328.888 52.476C328.888 56.124 325.696 58.594 321.288 58.594C316.88 58.594 313.688 56.124 313.688 52.476C313.688 48.828 316.88 46.32 321.288 46.32ZM321.288 49.93C319.426 49.93 318.172 50.842 318.172 52.476C318.172 54.11 319.426 55.022 321.288 55.022C323.112 55.022 324.366 54.11 324.366 52.476C324.366 50.842 323.112 49.93 321.288 49.93ZM318.742 38.036H323.72V43.964H318.742V38.036ZM330.94 60.114C338.464 60.114 343.024 62.394 343.024 66.498C343.024 70.564 338.464 72.882 330.94 72.882C323.378 72.882 318.818 70.564 318.818 66.498C318.818 62.394 323.378 60.114 330.94 60.114ZM330.94 63.876C326.228 63.876 323.872 64.674 323.872 66.498C323.872 68.284 326.228 69.12 330.94 69.12C335.614 69.12 337.97 68.284 337.97 66.498C337.97 64.674 335.614 63.876 330.94 63.876ZM347.809 55.63H379.615V59.658H347.809V55.63ZM351.647 68.246H376.043V72.274H351.647V68.246ZM351.647 62.014H356.701V69.538H351.647V62.014ZM363.731 38.72C371.369 38.72 376.461 41.494 376.461 45.978C376.461 50.462 371.369 53.236 363.731 53.236C356.055 53.236 351.001 50.462 351.001 45.978C351.001 41.494 356.055 38.72 363.731 38.72ZM363.731 42.748C358.981 42.748 356.207 43.85 356.207 45.978C356.207 48.144 358.981 49.208 363.731 49.208C368.481 49.208 371.255 48.144 371.255 45.978C371.255 43.85 368.481 42.748 363.731 42.748ZM393.309 59.696H396.663C403.371 59.696 408.488 59.61 414.422 58.664L414.938 63.222C408.918 64.168 403.5 64.34 396.663 64.34H393.309V59.696ZM393.309 36.82H412.014V41.464H399.071V61.201H393.309V36.82ZM397.695 47.871H411.455V52.343H397.695V47.871ZM417.217 33.509H422.979V73.327H417.217V33.509ZM421.689 48.602H428.741V53.332H421.689V48.602ZM433.296 37.078H452.431V63.867H433.296V37.078ZM446.841 41.55H438.929V59.352H446.841V41.55ZM458.623 33.466H464.385V73.413H458.623V33.466ZM485.666 35.788H490.654V38.669C490.654 47.312 484.505 54.966 474.185 56.987L471.734 52.257C480.721 50.709 485.666 44.388 485.666 38.669V35.788ZM486.827 35.788H491.772V38.669C491.772 44.517 496.674 50.709 505.704 52.257L503.253 56.987C492.933 54.966 486.827 47.441 486.827 38.669V35.788ZM470.917 63.824H506.951V68.468H470.917V63.824ZM522.404 35.874H528.037V41.077H536.078V35.874H541.754V55.181H522.404V35.874ZM528.037 45.463V50.709H536.078V45.463H528.037ZM526.317 59.137H553.493V73.327H547.731V63.652H526.317V59.137ZM547.731 33.509H553.493V57.288H547.731V33.509ZM568.884 36.304C574.173 36.304 577.57 41.765 577.57 50.752C577.57 59.782 574.173 65.243 568.884 65.243C563.638 65.243 560.284 59.782 560.284 50.752C560.284 41.765 563.638 36.304 568.884 36.304ZM568.884 41.679C566.734 41.679 565.487 44.689 565.487 50.752C565.487 56.858 566.734 59.825 568.884 59.825C571.077 59.825 572.324 56.858 572.324 50.752C572.324 44.689 571.077 41.679 568.884 41.679ZM588.707 33.509H594.168V73.327H588.707V33.509ZM583.934 48.688H590.513V53.289H583.934V48.688ZM579.978 34.111H585.353V71.521H579.978V34.111ZM602.635 34.584H632.305V38.841H602.635V34.584ZM602.936 43.915H632.004V48.172H602.936V43.915ZM607.709 36.261H613.428V46.667H607.709V36.261ZM621.512 36.261H627.231V46.667H621.512V36.261ZM599.496 50.236H635.487V54.708H599.496V50.236ZM603.624 56.901H631.144V66.791H609.3V70.489H603.667V62.964H625.511V60.986H603.624V56.901ZM603.667 68.898H632.176V73.069H603.667V68.898ZM667.82 33.509H673.281V73.327H667.82V33.509ZM662.66 48.688H669.239V53.289H662.66V48.688ZM651.394 38.11H656.812C656.812 49.548 654.017 58.793 642.149 65.716L638.967 61.674C648.771 55.998 651.394 49.032 651.394 39.142V38.11ZM641.332 38.11H653.2V42.711H641.332V38.11ZM659.048 34.369H664.38V71.607H659.048V34.369ZM651.48 47.097V51.311L639.913 52.558L639.268 47.742L651.48 47.097ZM706.216 33.509H711.935V62.792H706.216V33.509ZM696.584 37.938H708.151V42.41H696.584V37.938ZM685.619 68.081H712.838V72.639H685.619V68.081ZM685.619 60.169H691.381V70.403H685.619V60.169ZM680.803 36.046H686.479V54.751H680.803V36.046ZM680.803 53.031H683.985C689.747 53.031 694.864 52.773 700.54 51.784L701.056 56.385C695.208 57.46 689.962 57.675 683.985 57.675H680.803V53.031ZM696.584 45.334H708.151V49.849H696.584V45.334Z" fill="white"/>
<path d="M85.892 16.528H87.4185C91.009 16.528 93.4815 16.442 96.4055 15.926L96.599 17.388C93.589 17.904 91.052 18.0115 87.4185 18.0115H85.892V16.528ZM85.892 5.004H94.9435V6.4875H87.6765V17.044H85.892V5.004ZM87.225 10.4435H94.5135V11.884H87.225V10.4435ZM98.2115 3.241H100.018V22.677H98.2115V3.241ZM99.5875 11.0455H103.2V12.5505H99.5875V11.0455ZM105.95 5.133H114.894V17.7965H105.95V5.133ZM113.152 6.5735H107.691V16.356H113.152V6.5735ZM118.957 3.2195H120.742V22.6985H118.957V3.2195ZM132.415 4.574H133.963V6.0575C133.963 10.293 130.028 13.5825 126.137 14.464L125.341 12.9805C128.76 12.3355 132.415 9.3685 132.415 6.0575V4.574ZM132.737 4.574H134.285V6.0575C134.285 9.39 137.962 12.3355 141.359 12.9805L140.563 14.464C136.693 13.5825 132.737 10.3145 132.737 6.0575V4.574ZM124.632 18.592H142.24V20.054H124.632V18.592ZM152.279 10.7875H155.955V12.271H152.279V10.7875ZM159.202 3.241H160.922V22.677H159.202V3.241ZM155.353 3.6495H157.052V21.7095H155.353V3.6495ZM148.774 4.8535C151.29 4.8535 152.924 7.455 152.924 11.626C152.924 15.797 151.29 18.3985 148.774 18.3985C146.259 18.3985 144.646 15.797 144.646 11.626C144.646 7.455 146.259 4.8535 148.774 4.8535ZM148.774 6.509C147.248 6.509 146.28 8.487 146.28 11.626C146.28 14.765 147.248 16.743 148.774 16.743C150.322 16.743 151.29 14.765 151.29 11.626C151.29 8.487 150.322 6.509 148.774 6.509ZM173.885 9.82H179.303V11.282H173.885V9.82ZM169.198 4.918H170.66V8.3795C170.66 12.744 168.359 16.915 165.285 18.5705L164.145 17.1515C167.005 15.7325 169.198 11.9915 169.198 8.3795V4.918ZM169.542 4.918H170.982V8.3795C170.982 11.927 173.175 15.453 175.992 16.786L174.938 18.2265C171.799 16.6355 169.542 12.6365 169.542 8.3795V4.918ZM178.421 3.2195H180.184V22.6985H178.421V3.2195ZM203.322 3.241H205.085V14.808H203.322V3.241ZM204.59 8.057H207.966V9.562H204.59V8.057ZM198.871 15.066C202.763 15.066 205.278 16.528 205.278 18.8715C205.278 21.215 202.763 22.6555 198.871 22.6555C194.98 22.6555 192.464 21.215 192.464 18.8715C192.464 16.528 194.98 15.066 198.871 15.066ZM198.871 16.5065C196.055 16.5065 194.227 17.4095 194.227 18.8715C194.227 20.3335 196.055 21.2365 198.871 21.2365C201.709 21.2365 203.537 20.3335 203.537 18.8715C203.537 17.4095 201.709 16.5065 198.871 16.5065ZM190.938 4.4235H192.722V12.228H190.938V4.4235ZM190.938 11.5615H192.464C195.259 11.5615 198.162 11.368 201.344 10.7445L201.559 12.185C198.269 12.873 195.367 13.0665 192.464 13.0665H190.938V11.5615ZM210.587 4.9825H219.51V13.991H210.587V4.9825ZM217.768 6.423H212.329V12.5505H217.768V6.423ZM223.079 3.2195H224.863V17.474H223.079V3.2195ZM224.304 9.1535H227.744V10.637H224.304V9.1535ZM212.759 20.785H225.745V22.247H212.759V20.785ZM212.759 16.1195H214.543V21.4085H212.759V16.1195ZM238.342 3.5635C242.621 3.5635 245.179 4.7675 245.179 6.939C245.179 9.1105 242.621 10.3145 238.342 10.3145C234.042 10.3145 231.505 9.1105 231.505 6.939C231.505 4.7675 234.042 3.5635 238.342 3.5635ZM238.342 4.918C235.16 4.918 233.333 5.649 233.333 6.939C233.333 8.229 235.16 8.96 238.342 8.96C241.503 8.96 243.33 8.229 243.33 6.939C243.33 5.649 241.503 4.918 238.342 4.918ZM229.549 11.6045H247.114V13.045H229.549V11.6045ZM231.677 14.7005H244.878V19.0865H233.483V21.4515H231.72V17.7965H243.115V16.0765H231.677V14.7005ZM231.72 21.0645H245.459V22.462H231.72V21.0645ZM260.233 6.4445H261.695V7.283C261.695 10.594 259.502 13.2815 256.234 14.3135L255.395 12.916C258.276 12.0345 260.233 9.82 260.233 7.283V6.4445ZM260.555 6.4445H262.017V7.283C262.017 9.605 263.909 11.712 266.769 12.5505L265.93 13.9265C262.684 12.959 260.555 10.379 260.555 7.283V6.4445ZM255.933 5.4985H266.296V6.939H255.933V5.4985ZM260.233 3.155H262.017V6.1005H260.233V3.155ZM268.682 3.241H270.467V14.5285H268.682V3.241ZM269.972 8.0355H273.348V9.519H269.972V8.0355ZM263.501 16.141H265.027V16.657C265.027 19.71 261.802 21.9675 257.997 22.6125L257.309 21.2365C260.663 20.7205 263.501 18.8285 263.501 16.657V16.141ZM263.845 16.141H265.371V16.657C265.371 18.7855 268.252 20.7205 271.542 21.258L270.875 22.634C267.07 21.989 263.845 19.6455 263.845 16.657V16.141ZM258.061 15.582H270.811V17.0225H258.061V15.582ZM288.31 3.2195H290.116V22.6985H288.31V3.2195ZM289.686 10.895H293.298V12.4H289.686V10.895ZM275.991 16.356H277.517C281.108 16.356 283.623 16.227 286.526 15.6895L286.719 17.1945C283.731 17.7535 281.172 17.861 277.517 17.861H275.991V16.356ZM275.991 5.1115H285.021V6.5735H277.754V17.0225H275.991V5.1115Z" fill="white"/>
<path d="M117.758 89.632H119.198V105.904H117.758V89.632ZM115.004 96.148H118.136V97.39H115.004V96.148ZM114.068 89.992H115.472V105.076H114.068V89.992ZM105.968 100.648H107.03C109.406 100.648 111.026 100.558 112.916 100.162L113.06 101.404C111.116 101.818 109.478 101.89 107.03 101.89H105.968V100.648ZM105.968 91.612H112.016V92.836H107.444V101.206H105.968V91.612ZM125.965 91.954H127.153V94.6C127.153 97.984 125.083 101.476 122.545 102.772L121.681 101.584C124.003 100.45 125.965 97.354 125.965 94.6V91.954ZM126.235 91.954H127.423V94.6C127.423 97.174 129.259 100.072 131.617 101.188L130.771 102.376C128.197 101.098 126.235 97.822 126.235 94.6V91.954ZM122.257 91.288H131.023V92.548H122.257V91.288ZM132.949 89.632H134.461V105.904H132.949V89.632ZM134.101 96.202H137.125V97.462H134.101V96.202ZM146.033 92.17H150.929V93.394H146.033V92.17ZM146.033 96.076H150.929V97.3H146.033V96.076ZM150.389 89.65H151.883V101.674H150.389V89.65ZM141.497 104.32H152.333V105.544H141.497V104.32ZM141.497 100.432H142.991V104.86H141.497V100.432ZM142.937 90.676C145.331 90.676 147.131 92.35 147.131 94.744C147.131 97.138 145.331 98.812 142.937 98.812C140.543 98.812 138.743 97.138 138.743 94.744C138.743 92.35 140.543 90.676 142.937 90.676ZM142.937 91.99C141.353 91.99 140.183 93.142 140.183 94.744C140.183 96.364 141.353 97.516 142.937 97.516C144.521 97.516 145.709 96.364 145.709 94.744C145.709 93.142 144.521 91.99 142.937 91.99ZM162.412 89.902C165.994 89.902 168.136 90.91 168.136 92.728C168.136 94.546 165.994 95.554 162.412 95.554C158.812 95.554 156.688 94.546 156.688 92.728C156.688 90.91 158.812 89.902 162.412 89.902ZM162.412 91.036C159.748 91.036 158.218 91.648 158.218 92.728C158.218 93.808 159.748 94.42 162.412 94.42C165.058 94.42 166.588 93.808 166.588 92.728C166.588 91.648 165.058 91.036 162.412 91.036ZM155.05 96.634H169.756V97.84H155.05V96.634ZM156.832 99.226H167.884V102.898H158.344V104.878H156.868V101.818H166.408V100.378H156.832V99.226ZM156.868 104.554H168.37V105.724H156.868V104.554ZM176.671 96.562H191.377V97.768H176.671V96.562ZM178.453 99.226H189.505V102.952H179.965V104.932H178.489V101.854H188.029V100.378H178.453V99.226ZM178.489 104.572H189.991V105.724H178.489V104.572ZM183.169 90.748H184.483V91.27C184.483 93.772 181.423 95.41 177.949 95.734L177.463 94.6C180.469 94.33 183.169 93.016 183.169 91.27V90.748ZM183.601 90.748H184.897V91.27C184.897 93.016 187.597 94.33 190.603 94.6L190.117 95.734C186.661 95.41 183.601 93.772 183.601 91.27V90.748ZM178.021 90.244H190.063V91.432H178.021V90.244ZM205.091 89.632H206.585V105.904H205.091V89.632ZM200.321 91.378H201.797C201.797 96.094 199.673 100.216 194.237 102.88L193.445 101.674C198.143 99.406 200.321 95.95 200.321 91.63V91.378ZM194.183 91.378H200.969V92.602H194.183V91.378ZM211.786 94.51H222.838V95.734H211.786V94.51ZM209.788 97.912H224.548V99.136H209.788V97.912ZM211.786 90.226H213.262V95.122H211.786V90.226ZM211.678 104.284H222.928V105.508H211.678V104.284ZM211.678 100.756H213.154V104.608H211.678V100.756ZM238.861 99.838C242.173 99.838 244.207 100.954 244.207 102.862C244.207 104.77 242.173 105.886 238.861 105.886C235.549 105.886 233.515 104.77 233.515 102.862C233.515 100.954 235.549 99.838 238.861 99.838ZM238.861 101.044C236.449 101.044 234.973 101.71 234.973 102.862C234.973 104.032 236.449 104.698 238.861 104.698C241.273 104.698 242.749 104.032 242.749 102.862C242.749 101.71 241.273 101.044 238.861 101.044ZM242.551 89.632H244.045V99.406H242.551V89.632ZM243.631 93.718H246.457V94.978H243.631V93.718ZM232.093 90.658H233.569V93.088H238.159V90.658H239.617V98.164H232.093V90.658ZM233.569 94.276V96.958H238.159V94.276H233.569ZM248.778 90.46H250.254V92.962H254.664V90.46H256.122V97.912H248.778V90.46ZM250.254 94.132V96.688H254.664V94.132H250.254ZM255.708 93.628H260.316V94.852H255.708V93.628ZM259.866 89.632H261.36V98.524H259.866V89.632ZM250.938 99.316H252.414V101.278H259.884V99.316H261.36V105.688H250.938V99.316ZM252.414 102.466V104.464H259.884V102.466H252.414Z" fill="white"/>
<path d="M92.562 92.292H85V106.181H99.1201V98.156" stroke="white" stroke-width="1.8"/>
<path d="M87.3154 96.302L91.9443 101.702L101.744 89.8191" stroke="white" stroke-width="1.8"/>
</g>
</g>
<defs>
<clipPath id="clip0_33_184">
<rect width="800" height="109" fill="white" transform="translate(0.5 0.5)"/>
</clipPath>
</defs>
</svg>
