<svg width="801" height="110" viewBox="0 0 801 110" fill="none" xmlns="http://www.w3.org/2000/svg">
<g clip-path="url(#clip0_92_2)">
<mask id="mask0_92_2" style="mask-type:luminance" maskUnits="userSpaceOnUse" x="0" y="0" width="800" height="110">
<path d="M800 0.5H0V109.5H800V0.5Z" fill="white"/>
</mask>
<g mask="url(#mask0_92_2)">
<path d="M123.942 37.694H128.73V72.882H123.942V37.694ZM119.23 51.222H125.082V55.288H119.23V51.222ZM116.076 38.302H120.75V71.21H116.076V38.302ZM99.508 60.798H101.978C106.31 60.798 109.92 60.646 114.1 59.886L114.48 63.99C110.224 64.826 106.5 64.94 101.978 64.94H99.508V60.798ZM99.508 41.76H112.504V45.826H104.524V62.774H99.508V41.76ZM141.381 43.242H145.371V47.194C145.371 55.136 142.027 63.23 135.567 66.27L132.717 62.28C138.531 59.544 141.381 52.97 141.381 47.194V43.242ZM142.445 43.242H146.435V47.194C146.435 52.514 149.171 58.746 154.947 61.406L152.173 65.396C145.713 62.394 142.445 54.68 142.445 47.194V43.242ZM134.085 41.076H153.389V45.218H134.085V41.076ZM155.973 37.694H161.065V72.882H155.973V37.694ZM159.925 51.108H166.157V55.288H159.925V51.108ZM184.356 42.596H194.692V46.624H184.356V42.596ZM184.356 51.146H194.692V55.174H184.356V51.146ZM192.83 37.732H197.884V63.458H192.83V37.732ZM174.666 68.246H198.682V72.274H174.666V68.246ZM174.666 60.912H179.72V70.336H174.666V60.912ZM178.162 39.784C183.368 39.784 187.434 43.584 187.434 48.904C187.434 54.148 183.368 57.986 178.162 57.986C172.918 57.986 168.852 54.148 168.852 48.904C168.852 43.584 172.918 39.784 178.162 39.784ZM178.162 44.23C175.578 44.23 173.678 45.978 173.678 48.904C173.678 51.83 175.578 53.578 178.162 53.578C180.708 53.578 182.646 51.83 182.646 48.904C182.646 45.978 180.708 44.23 178.162 44.23ZM217.451 50.652H223.227V54.718H217.451V50.652ZM228.813 37.694H233.639V72.882H228.813V37.694ZM221.631 38.226H226.381V71.286H221.631V38.226ZM211.295 40.164C215.969 40.164 218.971 44.99 218.971 52.932C218.971 60.912 215.969 65.738 211.295 65.738C206.659 65.738 203.695 60.912 203.695 52.932C203.695 44.99 206.659 40.164 211.295 40.164ZM211.295 44.914C209.395 44.914 208.293 47.574 208.293 52.932C208.293 58.328 209.395 60.95 211.295 60.95C213.271 60.95 214.373 58.328 214.373 52.932C214.373 47.574 213.271 44.914 211.295 44.914ZM248.435 40.772H265.231V64.332H248.435V40.772ZM260.253 44.762H253.413V60.38H260.253V44.762ZM271.653 37.656H276.669V72.958H271.653V37.656ZM264.281 49.816H273.705V53.882H264.281V49.816ZM282.1 57.378H313.982V61.406H282.1V57.378ZM295.4 59.962H300.416V72.882H295.4V59.962ZM285.786 39.404H310.182V53.616H285.786V39.404ZM305.204 43.394H290.764V49.626H305.204V43.394ZM317.095 64.788H348.939V68.93H317.095V64.788ZM320.667 40.05H345.367V51.792H325.759V57.682H320.743V47.84H340.351V44.078H320.667V40.05ZM320.743 55.706H346.165V59.734H320.743V55.706ZM374.51 37.656H379.602V72.958H374.51V37.656ZM378.462 50.69H384.694V54.832H378.462V50.69ZM353.382 60.304H356.346C362.274 60.304 366.948 60.114 372.116 59.202L372.61 63.382C367.29 64.332 362.464 64.484 356.346 64.484H353.382V60.304ZM353.382 40.924H369.798V44.99H358.398V62.318H353.382V40.924ZM393.993 65.7216L393.845 67.206C393.728 68.3935 393.503 69.5765 393.17 70.755C392.846 71.9425 392.504 73.0175 392.144 73.9801C391.794 74.9427 391.51 75.6984 391.294 76.2472H387.57C387.705 75.7164 387.889 74.9742 388.123 74.0206C388.357 73.076 388.577 72.0144 388.784 70.8359C388.991 69.6574 389.122 68.4564 389.176 67.233L389.243 65.7216H393.993ZM434.938 33.509H440.399V73.327H434.938V33.509ZM429.778 48.688H436.357V53.289H429.778V48.688ZM418.512 38.11H423.93C423.93 49.548 421.135 58.793 409.267 65.716L406.085 61.674C415.889 55.998 418.512 49.032 418.512 39.142V38.11ZM408.45 38.11H420.318V42.711H408.45V38.11ZM426.166 34.369H431.498V71.607H426.166V34.369ZM418.598 47.097V51.311L407.031 52.558L406.386 47.742L418.598 47.097ZM473.334 33.509H479.053V62.792H473.334V33.509ZM463.702 37.938H475.269V42.41H463.702V37.938ZM452.737 68.081H479.956V72.639H452.737V68.081ZM452.737 60.169H458.499V70.403H452.737V60.169ZM447.921 36.046H453.597V54.751H447.921V36.046ZM447.921 53.031H451.103C456.865 53.031 461.982 52.773 467.658 51.784L468.174 56.385C462.326 57.46 457.08 57.675 451.103 57.675H447.921V53.031ZM463.702 45.334H475.269V49.849H463.702V45.334ZM524.004 33.509H529.465V73.327H524.004V33.509ZM519.231 48.774H525.81V53.418H519.231V48.774ZM515.619 34.197H520.951V71.435H515.619V34.197ZM495.538 37.981H513.727V42.539H495.538V37.981ZM495.452 64.297L494.85 59.653C499.795 59.653 508.094 59.524 514.028 58.707L514.415 62.835C508.309 64.168 500.311 64.297 495.452 64.297ZM498.032 40.905H503.149V60.857H498.032V40.905ZM506.116 40.905H511.233V60.857H506.116V40.905ZM550.832 37.336H556.336C556.336 49.591 553.068 60.04 538.104 67.479L535.094 63.05C547.349 56.944 550.832 49.29 550.832 38.024V37.336ZM537.459 37.336H553.627V41.851H537.459V37.336ZM550.746 47.097V51.483L536.169 52.773L535.438 47.957L550.746 47.097ZM562.227 33.509H567.989V73.327H562.227V33.509ZM583.939 39.787H588.497V44.259C588.497 53.461 584.756 62.448 577.274 65.845L574.049 61.33C580.714 58.363 583.939 51.01 583.939 44.259V39.787ZM585.229 39.787H589.744V44.259C589.744 50.709 592.926 57.589 599.591 60.341L596.495 64.856C588.927 61.588 585.229 53.117 585.229 44.259V39.787ZM575.64 37.336H597.957V42.023H575.64V37.336ZM601.655 33.509H607.417V73.327H601.655V33.509ZM641.661 41.636H652.497V46.237H641.661V41.636ZM641.661 53.977H652.497V58.578H641.661V53.977ZM634.781 36.261C640.715 36.261 645.058 41.765 645.058 50.451C645.058 59.223 640.715 64.727 634.781 64.727C628.804 64.727 624.504 59.223 624.504 50.451C624.504 41.765 628.804 36.261 634.781 36.261ZM634.781 41.464C631.9 41.464 629.922 44.603 629.922 50.451C629.922 56.385 631.9 59.567 634.781 59.567C637.705 59.567 639.64 56.385 639.64 50.451C639.64 44.603 637.705 41.464 634.781 41.464ZM651.594 33.466H657.27V73.413H651.594V33.466ZM691.924 33.509H697.342V58.449H691.924V33.509ZM687.065 43.313H693.429V47.957H687.065V43.313ZM683.668 34.283H689V57.159H683.668V34.283ZM663.243 37.594H682.55V41.98H663.243V37.594ZM672.961 43.27C677.949 43.27 681.561 46.108 681.561 50.236C681.561 54.364 677.949 57.159 672.961 57.159C667.973 57.159 664.361 54.364 664.361 50.236C664.361 46.108 667.973 43.27 672.961 43.27ZM672.961 47.355C670.854 47.355 669.435 48.387 669.435 50.236C669.435 52.085 670.854 53.117 672.961 53.117C675.025 53.117 676.444 52.085 676.444 50.236C676.444 48.387 675.025 47.355 672.961 47.355ZM670.08 33.896H675.713V40.604H670.08V33.896ZM683.883 58.879C692.397 58.879 697.557 61.459 697.557 66.103C697.557 70.704 692.397 73.327 683.883 73.327C675.326 73.327 670.166 70.704 670.166 66.103C670.166 61.459 675.326 58.879 683.883 58.879ZM683.883 63.136C678.551 63.136 675.885 64.039 675.885 66.103C675.885 68.124 678.551 69.07 683.883 69.07C689.172 69.07 691.838 68.124 691.838 66.103C691.838 64.039 689.172 63.136 683.883 63.136Z" fill="white"/>
<path d="M99.967 5.305H112.48V6.7455H99.967V5.305ZM98.075 18.3555H115.641V19.839H98.075V18.3555ZM111.534 5.305H113.276V7.24C113.276 9.734 113.276 12.5075 112.545 16.7L110.76 16.528C111.534 12.5505 111.534 9.648 111.534 7.24V5.305ZM132.516 3.241H134.215V17.7105H132.516V3.241ZM129.399 9.046H133.054V10.5295H129.399V9.046ZM128.238 3.6065H129.915V17.173H128.238V3.6065ZM121.551 20.785H134.817V22.247H121.551V20.785ZM121.551 16.399H123.336V21.301H121.551V16.399ZM118.735 13.3675H119.982C122.712 13.3675 124.733 13.2815 127.12 12.8085L127.292 14.249C124.841 14.722 122.798 14.8295 119.982 14.8295H118.735V13.3675ZM118.692 4.918H126.002V10.465H120.455V14.1415H118.735V9.1105H124.282V6.3585H118.692V4.918ZM139.846 12.5505H153.198V14.0125H139.846V12.5505ZM137.632 18.5705H155.24V20.054H137.632V18.5705ZM139.846 5.0255H153.004V6.509H141.631V13.1955H139.846V5.0255ZM178.227 3.241H179.947V22.677H178.227V3.241ZM175.067 11.11H178.786V12.572H175.067V11.11ZM170.294 5.563H172.014C172.014 10.637 170.487 15.41 164.596 18.6995L163.586 17.388C168.789 14.55 170.294 10.465 170.294 5.864V5.563ZM164.532 5.563H170.96V7.0465H164.532V5.563ZM173.927 3.714H175.626V21.731H173.927V3.714ZM170.079 9.992V11.325L163.822 11.97L163.564 10.422L170.079 9.992ZM197.425 3.241H199.21V17.646H197.425V3.241ZM191.943 5.778H198.092V7.2185H191.943V5.778ZM186.783 20.785H199.726V22.247H186.783V20.785ZM186.783 16.399H188.567V21.4515H186.783V16.399ZM184.353 4.66H186.138V13.819H184.353V4.66ZM184.353 13.26H185.815C188.589 13.26 191.19 13.1095 194.222 12.572L194.394 14.0555C191.276 14.6145 188.675 14.7435 185.815 14.7435H184.353V13.26ZM191.943 9.476H198.092V10.938H191.943V9.476ZM210.882 10.7875H214.559V12.271H210.882V10.7875ZM217.805 3.241H219.525V22.677H217.805V3.241ZM213.957 3.6495H215.655V21.7095H213.957V3.6495ZM207.378 4.8535C209.893 4.8535 211.527 7.455 211.527 11.626C211.527 15.797 209.893 18.3985 207.378 18.3985C204.862 18.3985 203.25 15.797 203.25 11.626C203.25 7.455 204.862 4.8535 207.378 4.8535ZM207.378 6.509C205.851 6.509 204.884 8.487 204.884 11.626C204.884 14.765 205.851 16.743 207.378 16.743C208.926 16.743 209.893 14.765 209.893 11.626C209.893 8.487 208.926 6.509 207.378 6.509ZM232.488 9.82H237.906V11.282H232.488V9.82ZM227.801 4.918H229.263V8.3795C229.263 12.744 226.963 16.915 223.888 18.5705L222.749 17.1515C225.608 15.7325 227.801 11.9915 227.801 8.3795V4.918ZM228.145 4.918H229.586V8.3795C229.586 11.927 231.779 15.453 234.595 16.786L233.542 18.2265C230.403 16.6355 228.145 12.6365 228.145 8.3795V4.918ZM237.025 3.2195H238.788V22.6985H237.025V3.2195ZM253.411 6.0145H254.83V9.175C254.83 13.217 252.358 17.388 249.326 18.936L248.294 17.517C251.068 16.1625 253.411 12.4645 253.411 9.175V6.0145ZM253.734 6.0145H255.153V9.175C255.153 12.2495 257.346 15.711 260.162 17.044L259.152 18.463C256.077 16.9365 253.734 13.0235 253.734 9.175V6.0145ZM248.982 5.219H259.453V6.724H248.982V5.219ZM261.753 3.241H263.559V22.677H261.753V3.241ZM263.129 11.0885H266.741V12.5935H263.129V11.0885ZM282.499 3.2195H284.284V22.6985H282.499V3.2195ZM274.028 4.7245C276.909 4.7245 278.973 7.369 278.973 11.497C278.973 15.6465 276.909 18.291 274.028 18.291C271.169 18.291 269.105 15.6465 269.105 11.497C269.105 7.369 271.169 4.7245 274.028 4.7245ZM274.028 6.337C272.136 6.337 270.803 8.358 270.803 11.497C270.803 14.6575 272.136 16.7215 274.028 16.7215C275.942 16.7215 277.253 14.6575 277.253 11.497C277.253 8.358 275.942 6.337 274.028 6.337ZM297.849 8.6375H303.181V10.078H297.849V8.6375ZM302.364 3.2625H304.148V17.56H302.364V3.2625ZM291.743 20.785H304.686V22.247H291.743V20.785ZM291.743 16.1195H293.527V21.4085H291.743V16.1195ZM293.463 4.488C296.322 4.488 298.472 6.4875 298.472 9.304C298.472 12.1205 296.322 14.12 293.463 14.12C290.603 14.12 288.453 12.1205 288.453 9.304C288.453 6.4875 290.603 4.488 293.463 4.488ZM293.463 6.0575C291.571 6.0575 290.173 7.3905 290.173 9.304C290.173 11.2175 291.571 12.5505 293.463 12.5505C295.333 12.5505 296.752 11.2175 296.752 9.304C296.752 7.3905 295.333 6.0575 293.463 6.0575ZM321.432 3.241H323.195V22.677H321.432V3.241ZM322.636 11.239H326.098V12.744H322.636V11.239ZM312.123 5.3265H313.757C313.757 10.0135 312.768 14.55 309.285 18.3125L307.844 17.302C311.048 13.9695 312.123 9.9275 312.123 5.52V5.3265ZM308.468 5.3265H312.789V6.81H308.468V5.3265ZM317.412 5.3265H319.067C319.067 10.035 318.401 15.367 314.832 19.6025L313.391 18.6135C316.681 14.808 317.412 9.992 317.412 5.4985V5.3265ZM314.38 5.3265H318.143V6.81H314.38V5.3265ZM332.869 6.0145H334.309V9.175C334.309 13.2815 331.837 17.4095 328.741 18.936L327.709 17.517C330.525 16.184 332.869 12.529 332.869 9.175V6.0145ZM333.213 6.0145H334.653V9.175C334.653 12.4645 336.997 15.8185 339.856 17.044L338.846 18.463C335.707 17.001 333.213 13.217 333.213 9.175V6.0145ZM328.354 5.219H339.211V6.724H328.354V5.219ZM341.834 3.241H343.619V22.677H341.834V3.241Z" fill="white"/>
<path d="M127.014 94.114H131.118V95.338H127.014V94.114ZM130.272 89.65H131.766V101.566H130.272V89.65ZM121.38 104.32H132.216V105.544H121.38V104.32ZM121.38 100.522H122.874V104.95H121.38V100.522ZM122.532 91.666H123.756V92.98C123.756 95.932 121.92 98.488 119.202 99.496L118.428 98.308C120.858 97.444 122.532 95.284 122.532 92.98V91.666ZM122.82 91.666H124.026V92.962C124.026 95.068 125.61 97.12 127.968 97.948L127.212 99.118C124.566 98.164 122.82 95.716 122.82 92.962V91.666ZM118.896 90.964H127.59V92.17H118.896V90.964ZM138.569 95.14H140.045V98.218H138.569V95.14ZM144.545 95.14H146.021V98.218H144.545V95.14ZM134.933 97.678H149.639V98.884H134.933V97.678ZM142.277 100.108C145.769 100.108 147.857 101.134 147.857 102.988C147.857 104.842 145.769 105.886 142.277 105.886C138.785 105.886 136.697 104.842 136.697 102.988C136.697 101.134 138.785 100.108 142.277 100.108ZM142.277 101.26C139.739 101.26 138.209 101.89 138.209 102.988C138.209 104.104 139.739 104.716 142.277 104.716C144.833 104.716 146.345 104.104 146.345 102.988C146.345 101.89 144.833 101.26 142.277 101.26ZM142.295 89.92C145.823 89.92 148.019 91.054 148.019 92.962C148.019 94.852 145.823 95.968 142.295 95.968C138.749 95.968 136.571 94.852 136.571 92.962C136.571 91.054 138.749 89.92 142.295 89.92ZM142.295 91.09C139.703 91.09 138.101 91.774 138.101 92.962C138.101 94.132 139.703 94.816 142.295 94.816C144.887 94.816 146.489 94.132 146.489 92.962C146.489 91.774 144.887 91.09 142.295 91.09ZM160.532 93.502H161.702V94.888C161.702 98.326 159.83 101.494 157.256 102.772L156.41 101.62C158.804 100.468 160.532 97.696 160.532 94.888V93.502ZM160.82 93.502H161.99V94.888C161.99 97.516 163.628 100.162 165.95 101.314L165.122 102.466C162.584 101.206 160.82 98.128 160.82 94.888V93.502ZM156.86 92.458H165.59V93.664H156.86V92.458ZM160.514 89.92H161.99V93.124H160.514V89.92ZM167.57 89.632H169.082V105.904H167.57V89.632ZM168.722 96.31H171.746V97.552H168.722V96.31ZM185.298 92.17H188.16V93.412H185.298V92.17ZM185.298 95.59H188.16V96.832H185.298V95.59ZM184.254 89.632H185.748V99.478H184.254V89.632ZM173.832 97.3H175.11C178.062 97.3 180.168 97.21 182.706 96.76L182.832 98.002C180.258 98.434 178.116 98.542 175.11 98.542H173.832V97.3ZM173.796 90.64H181.122V95.068H175.29V98.092H173.832V93.898H179.646V91.864H173.796V90.64ZM180.546 99.964C183.876 99.964 185.892 101.044 185.892 102.916C185.892 104.806 183.876 105.886 180.546 105.886C177.234 105.886 175.2 104.806 175.2 102.916C175.2 101.044 177.234 99.964 180.546 99.964ZM180.546 101.134C178.116 101.134 176.658 101.782 176.658 102.916C176.658 104.068 178.116 104.716 180.546 104.716C182.976 104.716 184.452 104.068 184.452 102.916C184.452 101.782 182.976 101.134 180.546 101.134ZM199.067 103.605V95.1676H200.499V103.605H199.067ZM195.564 100.102V98.6705H204.002V100.102H195.564ZM222.803 89.65H224.297V101.854H222.803V89.65ZM223.829 94.978H226.709V96.238H223.829V94.978ZM211.715 91.612H221.327V92.818H211.715V91.612ZM216.521 93.718C218.825 93.718 220.409 94.924 220.409 96.76C220.409 98.578 218.825 99.784 216.521 99.784C214.199 99.784 212.615 98.578 212.615 96.76C212.615 94.924 214.199 93.718 216.521 93.718ZM216.521 94.888C215.045 94.888 214.037 95.626 214.037 96.76C214.037 97.876 215.045 98.614 216.521 98.614C217.979 98.614 218.987 97.876 218.987 96.76C218.987 95.626 217.979 94.888 216.521 94.888ZM215.765 89.632H217.259V92.242H215.765V89.632ZM214.163 104.32H225.035V105.544H214.163V104.32ZM214.163 100.882H215.657V104.842H214.163V100.882ZM230.11 90.388H240.586V91.612H230.11V90.388ZM228.238 96.22H242.98V97.444H228.238V96.22ZM234.844 97.048H236.32V100.882H234.844V97.048ZM239.614 90.388H241.072V91.594C241.072 92.944 241.072 94.582 240.532 96.814L239.074 96.634C239.614 94.456 239.614 92.908 239.614 91.594V90.388ZM229.768 100.396H241.18V105.904H239.686V101.62H229.768V100.396ZM256.622 89.65H258.134V101.53H256.622V89.65ZM247.676 104.32H258.62V105.544H247.676V104.32ZM247.676 100.306H249.152V104.734H247.676V100.306ZM249.404 90.766C251.834 90.766 253.634 92.422 253.634 94.78C253.634 97.12 251.834 98.794 249.404 98.794C246.974 98.794 245.156 97.12 245.156 94.78C245.156 92.422 246.974 90.766 249.404 90.766ZM249.404 92.062C247.82 92.062 246.614 93.178 246.614 94.78C246.614 96.364 247.82 97.48 249.404 97.48C250.988 97.48 252.194 96.364 252.194 94.78C252.194 93.178 250.988 92.062 249.404 92.062ZM277.415 89.614H278.927V105.904H277.415V89.614ZM278.513 96.22H281.519V97.462H278.513V96.22ZM273.257 91.378H274.715C274.715 96.004 272.591 100.18 267.335 102.826L266.507 101.674C271.007 99.388 273.257 95.914 273.257 91.612V91.378ZM267.263 91.378H274.031V92.602H267.263V91.378ZM294.784 89.614H296.278V105.922H294.784V89.614ZM287.692 90.874C290.104 90.874 291.832 93.088 291.832 96.544C291.832 100.018 290.104 102.232 287.692 102.232C285.298 102.232 283.57 100.018 283.57 96.544C283.57 93.088 285.298 90.874 287.692 90.874ZM287.692 92.224C286.108 92.224 284.992 93.916 284.992 96.544C284.992 99.19 286.108 100.918 287.692 100.918C289.294 100.918 290.392 99.19 290.392 96.544C290.392 93.916 289.294 92.224 287.692 92.224ZM301.389 97.426H312.567V98.65H301.389V97.426ZM299.535 102.466H314.277V103.708H299.535V102.466ZM301.389 91.126H312.405V92.368H302.883V97.966H301.389V91.126Z" fill="white"/>
<path d="M105.562 92.292H98V106.181H112.12V98.156" stroke="white" stroke-width="1.8"/>
<path d="M100.315 96.302L104.944 101.702L114.744 89.8191" stroke="white" stroke-width="1.8"/>
</g>
</g>
<defs>
<clipPath id="clip0_92_2">
<rect width="800" height="109" fill="white" transform="translate(0.5 0.5)"/>
</clipPath>
</defs>
</svg>
