<svg width="800" height="109" viewBox="0 0 800 109" fill="none" xmlns="http://www.w3.org/2000/svg">
<g clip-path="url(#clip0_33_228)">
<mask id="mask0_33_228" style="mask-type:luminance" maskUnits="userSpaceOnUse" x="0" y="0" width="800" height="109">
<path d="M800 0H0V109H800V0Z" fill="white"/>
</mask>
<g mask="url(#mask0_33_228)">
<path d="M27.788 40.424H50.094V44.414H27.788V40.424ZM24.558 63.68H56.364V67.784H24.558V63.68ZM47.434 40.424H52.45V44.604C52.45 49.544 52.45 54.332 51.196 61.552L46.142 61.134C47.434 54.37 47.434 49.354 47.434 44.604V40.424ZM84.671 37.194H89.459V63.3H84.671V37.194ZM80.415 47.188H86.001V51.254H80.415V47.188ZM77.147 37.84H81.859V62.616H77.147V37.84ZM65.785 67.746H90.371V71.774H65.785V67.746ZM65.785 60.868H70.839V69.266H65.785V60.868ZM60.883 54.56H63.315C68.369 54.56 71.637 54.446 75.513 53.724L75.931 57.714C71.941 58.436 68.521 58.55 63.315 58.55H60.883V54.56ZM60.845 40.044H74.183V51.026H65.785V56.802H60.883V47.34H69.319V43.996H60.845V40.044ZM98.1581 53.42H122.896V57.448H98.1581V53.42ZM94.4721 64.022H126.316V68.164H94.4721V64.022ZM98.1581 40.082H122.63V44.186H103.174V55.092H98.1581V40.082ZM163.608 37.194H168.434V72.382H163.608V37.194ZM159.048 50.608H164.862V54.674H159.048V50.608ZM149.092 41.26H153.88C153.88 51.368 151.41 59.538 140.922 65.656L138.11 62.084C146.774 57.068 149.092 50.912 149.092 42.172V41.26ZM140.2 41.26H150.688V45.326H140.2V41.26ZM155.856 37.954H160.568V70.862H155.856V37.954ZM149.168 49.202V52.926L138.946 54.028L138.376 49.772L149.168 49.202ZM197.539 37.194H202.593V63.072H197.539V37.194ZM189.027 41.108H199.249V45.06H189.027V41.108ZM179.337 67.746H203.391V71.774H179.337V67.746ZM179.337 60.754H184.429V69.798H179.337V60.754ZM175.081 39.436H180.097V55.966H175.081V39.436ZM175.081 54.446H177.893C182.985 54.446 187.507 54.218 192.523 53.344L192.979 57.41C187.811 58.36 183.175 58.55 177.893 58.55H175.081V54.446ZM189.027 47.644H199.249V51.634H189.027V47.644ZM222.16 50.152H227.936V54.218H222.16V50.152ZM233.522 37.194H238.348V72.382H233.522V37.194ZM226.34 37.726H231.09V70.786H226.34V37.726ZM216.004 39.664C220.678 39.664 223.68 44.49 223.68 52.432C223.68 60.412 220.678 65.238 216.004 65.238C211.368 65.238 208.404 60.412 208.404 52.432C208.404 44.49 211.368 39.664 216.004 39.664ZM216.004 44.414C214.104 44.414 213.002 47.074 213.002 52.432C213.002 57.828 214.104 60.45 216.004 60.45C217.98 60.45 219.082 57.828 219.082 52.432C219.082 47.074 217.98 44.414 216.004 44.414ZM260.803 48.176H270.075V52.242H260.803V48.176ZM251.227 39.892H255.331V44.984C255.331 53.838 252.329 62.008 245.717 65.314L242.563 61.248C248.567 58.474 251.227 51.672 251.227 44.984V39.892ZM252.291 39.892H256.319V44.984C256.319 51.672 258.865 58.094 264.679 60.678L261.677 64.706C255.065 61.514 252.291 53.762 252.291 44.984V39.892ZM267.567 37.156H272.583V72.458H267.567V37.156ZM294.713 42.742H298.703V46.694C298.703 54.636 295.359 62.73 288.899 65.77L286.049 61.78C291.863 59.044 294.713 52.47 294.713 46.694V42.742ZM295.777 42.742H299.767V46.694C299.767 52.014 302.503 58.246 308.279 60.906L305.505 64.896C299.045 61.894 295.777 54.18 295.777 46.694V42.742ZM287.417 40.576H306.721V44.718H287.417V40.576ZM309.305 37.194H314.397V72.382H309.305V37.194ZM313.257 50.608H319.489V54.788H313.257V50.608ZM345.896 37.156H350.988V72.458H345.896V37.156ZM332.026 39.626C337.346 39.626 341.26 44.49 341.26 52.166C341.26 59.918 337.346 64.782 332.026 64.782C326.706 64.782 322.792 59.918 322.792 52.166C322.792 44.49 326.706 39.626 332.026 39.626ZM332.026 44.224C329.404 44.224 327.618 46.998 327.618 52.166C327.618 57.41 329.404 60.222 332.026 60.222C334.648 60.222 336.396 57.41 336.396 52.166C336.396 46.998 334.648 44.224 332.026 44.224ZM374.393 46.466H383.285V50.494H374.393V46.466ZM381.119 37.232H386.173V62.92H381.119V37.232ZM362.955 67.746H386.971V71.774H362.955V67.746ZM362.955 60.374H368.009V69.798H362.955V60.374ZM366.451 39.322C371.657 39.322 375.723 43.084 375.723 48.328C375.723 53.534 371.657 57.334 366.451 57.334C361.207 57.334 357.141 53.534 357.141 48.328C357.141 43.084 361.207 39.322 366.451 39.322ZM366.451 43.73C363.905 43.73 361.967 45.402 361.967 48.328C361.967 51.216 363.905 52.926 366.451 52.926C368.959 52.926 370.897 51.216 370.897 48.328C370.897 45.402 368.959 43.73 366.451 43.73ZM414.594 37.194H419.648V72.382H414.594V37.194ZM418.09 50.95H424.208V55.13H418.09V50.95ZM397.342 40.766H402.054C402.054 50.532 401.142 58.018 394.91 65.01L390.958 62.16C396.392 56.156 397.342 50.304 397.342 41.374V40.766ZM392.516 40.766H399.318V44.87H392.516V40.766ZM407.032 40.766H411.744C411.744 50.988 410.908 59.614 404.79 67.252L400.838 64.44C406.158 57.714 407.032 50.95 407.032 41.336V40.766ZM403.232 40.766H409.122V44.87H403.232V40.766ZM435.111 42.742H439.139V46.694C439.139 54.826 435.833 62.768 429.221 65.77L426.371 61.78C432.261 59.158 435.111 52.66 435.111 46.694V42.742ZM436.251 42.742H440.241V46.694C440.241 52.394 443.053 58.474 448.943 60.906L446.207 64.896C439.519 62.008 436.251 54.522 436.251 46.694V42.742ZM427.777 40.576H447.499V44.718H427.777V40.576ZM450.767 37.194H455.859V72.382H450.767V37.194ZM468.616 65.2216L468.468 66.706C468.351 67.8935 468.126 69.0765 467.793 70.255C467.469 71.4425 467.127 72.5175 466.767 73.4801C466.417 74.4427 466.133 75.1984 465.917 75.7472H462.193C462.328 75.2164 462.512 74.4742 462.746 73.5206C462.98 72.576 463.2 71.5144 463.407 70.3359C463.614 69.1574 463.745 67.9564 463.799 66.733L463.866 65.2216H468.616ZM509.561 33.009H515.022V72.827H509.561V33.009ZM504.401 48.188H510.98V52.789H504.401V48.188ZM493.135 37.61H498.553C498.553 49.048 495.758 58.293 483.89 65.216L480.708 61.174C490.512 55.498 493.135 48.532 493.135 38.642V37.61ZM483.073 37.61H494.941V42.211H483.073V37.61ZM500.789 33.869H506.121V71.107H500.789V33.869ZM493.221 46.597V50.811L481.654 52.058L481.009 47.242L493.221 46.597ZM547.957 33.009H553.676V62.292H547.957V33.009ZM538.325 37.438H549.892V41.91H538.325V37.438ZM527.36 67.581H554.579V72.139H527.36V67.581ZM527.36 59.669H533.122V69.903H527.36V59.669ZM522.544 35.546H528.22V54.251H522.544V35.546ZM522.544 52.531H525.726C531.488 52.531 536.605 52.273 542.281 51.284L542.797 55.885C536.949 56.96 531.703 57.175 525.726 57.175H522.544V52.531ZM538.325 44.834H549.892V49.349H538.325V44.834ZM598.627 33.009H604.088V72.827H598.627V33.009ZM593.854 48.274H600.433V52.918H593.854V48.274ZM590.242 33.697H595.574V70.935H590.242V33.697ZM570.161 37.481H588.35V42.039H570.161V37.481ZM570.075 63.797L569.473 59.153C574.418 59.153 582.717 59.024 588.651 58.207L589.038 62.335C582.932 63.668 574.934 63.797 570.075 63.797ZM572.655 40.405H577.772V60.357H572.655V40.405ZM580.739 40.405H585.856V60.357H580.739V40.405ZM625.455 36.836H630.959C630.959 49.091 627.691 59.54 612.727 66.979L609.717 62.55C621.972 56.444 625.455 48.79 625.455 37.524V36.836ZM612.082 36.836H628.25V41.351H612.082V36.836ZM625.369 46.597V50.983L610.792 52.273L610.061 47.457L625.369 46.597ZM636.85 33.009H642.612V72.827H636.85V33.009ZM658.562 39.287H663.12V43.759C663.12 52.961 659.379 61.948 651.897 65.345L648.672 60.83C655.337 57.863 658.562 50.51 658.562 43.759V39.287ZM659.852 39.287H664.367V43.759C664.367 50.209 667.549 57.089 674.214 59.841L671.118 64.356C663.55 61.088 659.852 52.617 659.852 43.759V39.287ZM650.263 36.836H672.58V41.523H650.263V36.836ZM676.278 33.009H682.04V72.827H676.278V33.009ZM716.284 41.136H727.12V45.737H716.284V41.136ZM716.284 53.477H727.12V58.078H716.284V53.477ZM709.404 35.761C715.338 35.761 719.681 41.265 719.681 49.951C719.681 58.723 715.338 64.227 709.404 64.227C703.427 64.227 699.127 58.723 699.127 49.951C699.127 41.265 703.427 35.761 709.404 35.761ZM709.404 40.964C706.523 40.964 704.545 44.103 704.545 49.951C704.545 55.885 706.523 59.067 709.404 59.067C712.328 59.067 714.263 55.885 714.263 49.951C714.263 44.103 712.328 40.964 709.404 40.964ZM726.217 32.966H731.893V72.913H726.217V32.966ZM766.547 33.009H771.965V57.949H766.547V33.009ZM761.688 42.813H768.052V47.457H761.688V42.813ZM758.291 33.783H763.623V56.659H758.291V33.783ZM737.866 37.094H757.173V41.48H737.866V37.094ZM747.584 42.77C752.572 42.77 756.184 45.608 756.184 49.736C756.184 53.864 752.572 56.659 747.584 56.659C742.596 56.659 738.984 53.864 738.984 49.736C738.984 45.608 742.596 42.77 747.584 42.77ZM747.584 46.855C745.477 46.855 744.058 47.887 744.058 49.736C744.058 51.585 745.477 52.617 747.584 52.617C749.648 52.617 751.067 51.585 751.067 49.736C751.067 47.887 749.648 46.855 747.584 46.855ZM744.703 33.396H750.336V40.104H744.703V33.396ZM758.506 58.379C767.02 58.379 772.18 60.959 772.18 65.603C772.18 70.204 767.02 72.827 758.506 72.827C749.949 72.827 744.789 70.204 744.789 65.603C744.789 60.959 749.949 58.379 758.506 58.379ZM758.506 62.636C753.174 62.636 750.508 63.539 750.508 65.603C750.508 67.624 753.174 68.57 758.506 68.57C763.795 68.57 766.461 67.624 766.461 65.603C766.461 63.539 763.795 62.636 758.506 62.636Z" fill="white"/>
<path d="M38.8455 2.741H40.5655V22.177H38.8455V2.741ZM35.556 10.524H39.297V12.0075H35.556V10.524ZM34.438 3.171H36.115V21.188H34.438V3.171ZM24.763 15.899H26.0315C28.8695 15.899 30.8045 15.7915 33.062 15.3185L33.234 16.802C30.912 17.2965 28.9555 17.3825 26.0315 17.3825H24.763V15.899ZM24.763 5.106H31.987V6.568H26.526V16.5655H24.763V5.106ZM48.6478 5.5145H50.0668V8.675C50.0668 12.717 47.5943 16.888 44.5628 18.436L43.5308 17.017C46.3043 15.6625 48.6478 11.9645 48.6478 8.675V5.5145ZM48.9703 5.5145H50.3893V8.675C50.3893 11.7495 52.5823 15.211 55.3988 16.544L54.3883 17.963C51.3138 16.4365 48.9703 12.5235 48.9703 8.675V5.5145ZM44.2188 4.719H54.6893V6.224H44.2188V4.719ZM56.9898 2.741H58.7958V22.177H56.9898V2.741ZM58.3658 10.5885H61.9778V12.0935H58.3658V10.5885ZM72.6186 5.7725H78.4666V7.2345H72.6186V5.7725ZM72.6186 10.438H78.4666V11.9H72.6186V10.438ZM77.8216 2.7625H79.6061V17.1245H77.8216V2.7625ZM67.2006 20.285H80.1436V21.747H67.2006V20.285ZM67.2006 15.641H68.9851V20.93H67.2006V15.641ZM68.9206 3.988C71.7801 3.988 73.9301 5.9875 73.9301 8.847C73.9301 11.7065 71.7801 13.706 68.9206 13.706C66.0611 13.706 63.9111 11.7065 63.9111 8.847C63.9111 5.9875 66.0611 3.988 68.9206 3.988ZM68.9206 5.5575C67.0286 5.5575 65.6311 6.9335 65.6311 8.847C65.6311 10.782 67.0286 12.158 68.9206 12.158C70.8126 12.158 72.2316 10.782 72.2316 8.847C72.2316 6.9335 70.8126 5.5575 68.9206 5.5575ZM91.279 10.2875H94.9555V11.771H91.279V10.2875ZM98.202 2.741H99.922V22.177H98.202V2.741ZM94.3535 3.1495H96.052V21.2095H94.3535V3.1495ZM87.7745 4.3535C90.29 4.3535 91.924 6.955 91.924 11.126C91.924 15.297 90.29 17.8985 87.7745 17.8985C85.259 17.8985 83.6465 15.297 83.6465 11.126C83.6465 6.955 85.259 4.3535 87.7745 4.3535ZM87.7745 6.009C86.248 6.009 85.2805 7.987 85.2805 11.126C85.2805 14.265 86.248 16.243 87.7745 16.243C89.3225 16.243 90.29 14.265 90.29 11.126C90.29 7.987 89.3225 6.009 87.7745 6.009ZM110.009 4.633H118.846V17.275H110.009V4.633ZM117.083 6.0735H111.751V15.8345H117.083V6.0735ZM123.468 2.7195H125.231V22.1985H123.468V2.7195ZM118.502 9.8145H124.135V11.298H118.502V9.8145ZM128.992 14.0285H146.622V15.4905H128.992V14.0285ZM136.861 14.91H138.624V22.177H136.861V14.91ZM131.228 3.816H144.343V11.4055H131.228V3.816ZM142.601 5.2565H132.991V9.965H142.601V5.2565ZM148.792 18.2425H166.4V19.7475H148.792V18.2425ZM150.92 4.2245H164.229V10.1155H152.748V14.007H150.985V8.6965H162.466V5.6865H150.92V4.2245ZM150.985 13.2545H164.68V14.7165H150.985V13.2545ZM181.707 2.7195H183.513V22.1985H181.707V2.7195ZM183.083 10.395H186.695V11.9H183.083V10.395ZM169.387 15.856H170.914C174.504 15.856 177.02 15.727 179.922 15.1895L180.116 16.6945C177.127 17.2535 174.569 17.361 170.914 17.361H169.387V15.856ZM169.387 4.6115H178.417V6.0735H171.15V16.5225H169.387V4.6115Z" fill="white"/>
<path d="M53.0139 93.614H57.1179V94.838H53.0139V93.614ZM56.2719 89.15H57.7659V101.066H56.2719V89.15ZM47.3799 103.82H58.2159V105.044H47.3799V103.82ZM47.3799 100.022H48.8739V104.45H47.3799V100.022ZM48.5319 91.166H49.7559V92.48C49.7559 95.432 47.9199 97.988 45.2019 98.996L44.4279 97.808C46.8579 96.944 48.5319 94.784 48.5319 92.48V91.166ZM48.8199 91.166H50.0259V92.462C50.0259 94.568 51.6099 96.62 53.9679 97.448L53.2119 98.618C50.5659 97.664 48.8199 95.216 48.8199 92.462V91.166ZM44.8959 90.464H53.5899V91.67H44.8959V90.464ZM64.5685 94.64H66.0445V97.718H64.5685V94.64ZM70.5445 94.64H72.0205V97.718H70.5445V94.64ZM60.9325 97.178H75.6385V98.384H60.9325V97.178ZM68.2765 99.608C71.7685 99.608 73.8565 100.634 73.8565 102.488C73.8565 104.342 71.7685 105.386 68.2765 105.386C64.7845 105.386 62.6965 104.342 62.6965 102.488C62.6965 100.634 64.7845 99.608 68.2765 99.608ZM68.2765 100.76C65.7385 100.76 64.2085 101.39 64.2085 102.488C64.2085 103.604 65.7385 104.216 68.2765 104.216C70.8325 104.216 72.3445 103.604 72.3445 102.488C72.3445 101.39 70.8325 100.76 68.2765 100.76ZM68.2945 89.42C71.8225 89.42 74.0185 90.554 74.0185 92.462C74.0185 94.352 71.8225 95.468 68.2945 95.468C64.7485 95.468 62.5705 94.352 62.5705 92.462C62.5705 90.554 64.7485 89.42 68.2945 89.42ZM68.2945 90.59C65.7025 90.59 64.1005 91.274 64.1005 92.462C64.1005 93.632 65.7025 94.316 68.2945 94.316C70.8865 94.316 72.4885 93.632 72.4885 92.462C72.4885 91.274 70.8865 90.59 68.2945 90.59ZM86.5316 93.002H87.7016V94.388C87.7016 97.826 85.8296 100.994 83.2556 102.272L82.4096 101.12C84.8036 99.968 86.5316 97.196 86.5316 94.388V93.002ZM86.8196 93.002H87.9896V94.388C87.9896 97.016 89.6276 99.662 91.9496 100.814L91.1216 101.966C88.5836 100.706 86.8196 97.628 86.8196 94.388V93.002ZM82.8596 91.958H91.5896V93.164H82.8596V91.958ZM86.5136 89.42H87.9896V92.624H86.5136V89.42ZM93.5696 89.132H95.0816V105.404H93.5696V89.132ZM94.7216 95.81H97.7456V97.052H94.7216V95.81ZM111.298 91.67H114.16V92.912H111.298V91.67ZM111.298 95.09H114.16V96.332H111.298V95.09ZM110.254 89.132H111.748V98.978H110.254V89.132ZM99.8322 96.8H101.11C104.062 96.8 106.168 96.71 108.706 96.26L108.832 97.502C106.258 97.934 104.116 98.042 101.11 98.042H99.8322V96.8ZM99.7962 90.14H107.122V94.568H101.29V97.592H99.8322V93.398H105.646V91.364H99.7962V90.14ZM106.546 99.464C109.876 99.464 111.892 100.544 111.892 102.416C111.892 104.306 109.876 105.386 106.546 105.386C103.234 105.386 101.2 104.306 101.2 102.416C101.2 100.544 103.234 99.464 106.546 99.464ZM106.546 100.634C104.116 100.634 102.658 101.282 102.658 102.416C102.658 103.568 104.116 104.216 106.546 104.216C108.976 104.216 110.452 103.568 110.452 102.416C110.452 101.282 108.976 100.634 106.546 100.634ZM125.067 103.105V94.6676H126.499V103.105H125.067ZM121.564 99.6023V98.1705H130.002V99.6023H121.564ZM148.803 89.15H150.297V101.354H148.803V89.15ZM149.829 94.478H152.709V95.738H149.829V94.478ZM137.715 91.112H147.327V92.318H137.715V91.112ZM142.521 93.218C144.825 93.218 146.409 94.424 146.409 96.26C146.409 98.078 144.825 99.284 142.521 99.284C140.199 99.284 138.615 98.078 138.615 96.26C138.615 94.424 140.199 93.218 142.521 93.218ZM142.521 94.388C141.045 94.388 140.037 95.126 140.037 96.26C140.037 97.376 141.045 98.114 142.521 98.114C143.979 98.114 144.987 97.376 144.987 96.26C144.987 95.126 143.979 94.388 142.521 94.388ZM141.765 89.132H143.259V91.742H141.765V89.132ZM140.163 103.82H151.035V105.044H140.163V103.82ZM140.163 100.382H141.657V104.342H140.163V100.382ZM156.11 89.888H166.586V91.112H156.11V89.888ZM154.238 95.72H168.98V96.944H154.238V95.72ZM160.844 96.548H162.32V100.382H160.844V96.548ZM165.614 89.888H167.072V91.094C167.072 92.444 167.072 94.082 166.532 96.314L165.074 96.134C165.614 93.956 165.614 92.408 165.614 91.094V89.888ZM155.768 99.896H167.18V105.404H165.686V101.12H155.768V99.896ZM182.622 89.15H184.134V101.03H182.622V89.15ZM173.676 103.82H184.62V105.044H173.676V103.82ZM173.676 99.806H175.152V104.234H173.676V99.806ZM175.404 90.266C177.834 90.266 179.634 91.922 179.634 94.28C179.634 96.62 177.834 98.294 175.404 98.294C172.974 98.294 171.156 96.62 171.156 94.28C171.156 91.922 172.974 90.266 175.404 90.266ZM175.404 91.562C173.82 91.562 172.614 92.678 172.614 94.28C172.614 95.864 173.82 96.98 175.404 96.98C176.988 96.98 178.194 95.864 178.194 94.28C178.194 92.678 176.988 91.562 175.404 91.562ZM203.415 89.114H204.927V105.404H203.415V89.114ZM204.513 95.72H207.519V96.962H204.513V95.72ZM199.257 90.878H200.715C200.715 95.504 198.591 99.68 193.335 102.326L192.507 101.174C197.007 98.888 199.257 95.414 199.257 91.112V90.878ZM193.263 90.878H200.031V92.102H193.263V90.878ZM220.784 89.114H222.278V105.422H220.784V89.114ZM213.692 90.374C216.104 90.374 217.832 92.588 217.832 96.044C217.832 99.518 216.104 101.732 213.692 101.732C211.298 101.732 209.57 99.518 209.57 96.044C209.57 92.588 211.298 90.374 213.692 90.374ZM213.692 91.724C212.108 91.724 210.992 93.416 210.992 96.044C210.992 98.69 212.108 100.418 213.692 100.418C215.294 100.418 216.392 98.69 216.392 96.044C216.392 93.416 215.294 91.724 213.692 91.724ZM227.389 96.926H238.567V98.15H227.389V96.926ZM225.535 101.966H240.277V103.208H225.535V101.966ZM227.389 90.626H238.405V91.868H228.883V97.466H227.389V90.626Z" fill="white"/>
<path d="M31.562 91.792H24V105.681H38.1201V97.656" stroke="white" stroke-width="1.8"/>
<path d="M26.3154 95.802L30.9443 101.202L40.7441 89.3191" stroke="white" stroke-width="1.8"/>
</g>
</g>
<defs>
<clipPath id="clip0_33_228">
<rect width="800" height="109" fill="white"/>
</clipPath>
</defs>
</svg>
