<svg width="346" height="48" viewBox="0 0 346 48" fill="none" xmlns="http://www.w3.org/2000/svg">
<g clip-path="url(#clip0_33_197)">
<mask id="mask0_33_197" style="mask-type:luminance" maskUnits="userSpaceOnUse" x="0" y="0" width="346" height="48">
<path d="M345.5 0.5H0.5V47.5H345.5V0.5Z" fill="white"/>
</mask>
<g mask="url(#mask0_33_197)">
<path d="M80.616 8.044H81.113C82.282 8.044 83.087 8.016 84.039 7.848L84.102 8.324C83.122 8.492 82.296 8.527 81.113 8.527H80.616V8.044ZM80.616 4.292H83.563V4.775H81.197V8.212H80.616V4.292ZM81.05 6.063H83.423V6.532H81.05V6.063ZM84.627 3.718H85.215V10.046H84.627V3.718ZM85.075 6.259H86.251V6.749H85.075V6.259ZM87.1465 4.334H90.0585V8.457H87.1465V4.334ZM89.4915 4.803H87.7135V7.988H89.4915V4.803ZM91.3815 3.711H91.9625V10.053H91.3815V3.711ZM95.7629 4.152H96.2669V4.635C96.2669 6.014 94.9859 7.085 93.7189 7.372L93.4599 6.889C94.5729 6.679 95.7629 5.713 95.7629 4.635V4.152ZM95.8679 4.152H96.3719V4.635C96.3719 5.72 97.5689 6.679 98.6749 6.889L98.4159 7.372C97.1559 7.085 95.8679 6.021 95.8679 4.635V4.152ZM93.2289 8.716H98.9619V9.192H93.2289V8.716ZM102.23 6.175H103.427V6.658H102.23V6.175ZM104.484 3.718H105.044V10.046H104.484V3.718ZM103.231 3.851H103.784V9.731H103.231V3.851ZM101.089 4.243C101.908 4.243 102.44 5.09 102.44 6.448C102.44 7.806 101.908 8.653 101.089 8.653C100.27 8.653 99.7454 7.806 99.7454 6.448C99.7454 5.09 100.27 4.243 101.089 4.243ZM101.089 4.782C100.592 4.782 100.277 5.426 100.277 6.448C100.277 7.47 100.592 8.114 101.089 8.114C101.593 8.114 101.908 7.47 101.908 6.448C101.908 5.426 101.593 4.782 101.089 4.782ZM109.265 5.86H111.029V6.336H109.265V5.86ZM107.739 4.264H108.215V5.391C108.215 6.812 107.466 8.17 106.465 8.709L106.094 8.247C107.025 7.785 107.739 6.567 107.739 5.391V4.264ZM107.851 4.264H108.32V5.391C108.32 6.546 109.034 7.694 109.951 8.128L109.608 8.597C108.586 8.079 107.851 6.777 107.851 5.391V4.264ZM110.742 3.711H111.316V10.053H110.742V3.711ZM118.849 3.718H119.423V7.484H118.849V3.718ZM119.262 5.286H120.361V5.776H119.262V5.286ZM117.4 7.568C118.667 7.568 119.486 8.044 119.486 8.807C119.486 9.57 118.667 10.039 117.4 10.039C116.133 10.039 115.314 9.57 115.314 8.807C115.314 8.044 116.133 7.568 117.4 7.568ZM117.4 8.037C116.483 8.037 115.888 8.331 115.888 8.807C115.888 9.283 116.483 9.577 117.4 9.577C118.324 9.577 118.919 9.283 118.919 8.807C118.919 8.331 118.324 8.037 117.4 8.037ZM114.817 4.103H115.398V6.644H114.817V4.103ZM114.817 6.427H115.314C116.224 6.427 117.169 6.364 118.205 6.161L118.275 6.63C117.204 6.854 116.259 6.917 115.314 6.917H114.817V6.427ZM121.214 4.285H124.119V7.218H121.214V4.285ZM123.552 4.754H121.781V6.749H123.552V4.754ZM125.281 3.711H125.862V8.352H125.281V3.711ZM125.68 5.643H126.8V6.126H125.68V5.643ZM121.921 9.43H126.149V9.906H121.921V9.43ZM121.921 7.911H122.502V9.633H121.921V7.911ZM130.251 3.823C131.644 3.823 132.477 4.215 132.477 4.922C132.477 5.629 131.644 6.021 130.251 6.021C128.851 6.021 128.025 5.629 128.025 4.922C128.025 4.215 128.851 3.823 130.251 3.823ZM130.251 4.264C129.215 4.264 128.62 4.502 128.62 4.922C128.62 5.342 129.215 5.58 130.251 5.58C131.28 5.58 131.875 5.342 131.875 4.922C131.875 4.502 131.28 4.264 130.251 4.264ZM127.388 6.441H133.107V6.91H127.388V6.441ZM128.081 7.449H132.379V8.877H128.669V9.647H128.095V8.457H131.805V7.897H128.081V7.449ZM128.095 9.521H132.568V9.976H128.095V9.521ZM137.378 4.761H137.854V5.034C137.854 6.112 137.14 6.987 136.076 7.323L135.803 6.868C136.741 6.581 137.378 5.86 137.378 5.034V4.761ZM137.483 4.761H137.959V5.034C137.959 5.79 138.575 6.476 139.506 6.749L139.233 7.197C138.176 6.882 137.483 6.042 137.483 5.034V4.761ZM135.978 4.453H139.352V4.922H135.978V4.453ZM137.378 3.69H137.959V4.649H137.378V3.69ZM140.129 3.718H140.71V7.393H140.129V3.718ZM140.549 5.279H141.648V5.762H140.549V5.279ZM138.442 7.918H138.939V8.086C138.939 9.08 137.889 9.815 136.65 10.025L136.426 9.577C137.518 9.409 138.442 8.793 138.442 8.086V7.918ZM138.554 7.918H139.051V8.086C139.051 8.779 139.989 9.409 141.06 9.584L140.843 10.032C139.604 9.822 138.554 9.059 138.554 8.086V7.918ZM136.671 7.736H140.822V8.205H136.671V7.736ZM146.52 3.711H147.108V10.053H146.52V3.711ZM146.968 6.21H148.144V6.7H146.968V6.21ZM142.509 7.988H143.006C144.175 7.988 144.994 7.946 145.939 7.771L146.002 8.261C145.029 8.443 144.196 8.478 143.006 8.478H142.509V7.988ZM142.509 4.327H145.449V4.803H143.083V8.205H142.509V4.327Z" fill="white"/>
<path d="M93.1075 38.057H93.6275V43.933H93.1075V38.057ZM92.113 40.41H93.244V40.8585H92.113V40.41ZM91.775 38.187H92.282V43.634H91.775V38.187ZM88.85 42.035H89.2335C90.0915 42.035 90.6765 42.0025 91.359 41.8595L91.411 42.308C90.709 42.4575 90.1175 42.4835 89.2335 42.4835H88.85V42.035ZM88.85 38.772H91.034V39.214H89.383V42.2365H88.85V38.772ZM96.071 38.8955H96.5V39.851C96.5 41.073 95.7525 42.334 94.836 42.802L94.524 42.373C95.3625 41.9635 96.071 40.8455 96.071 39.851V38.8955ZM96.1685 38.8955H96.5975V39.851C96.5975 40.7805 97.2605 41.827 98.112 42.23L97.8065 42.659C96.877 42.1975 96.1685 41.0145 96.1685 39.851V38.8955ZM94.732 38.655H97.8975V39.11H94.732V38.655ZM98.593 38.057H99.139V43.933H98.593V38.057ZM99.009 40.4295H100.101V40.8845H99.009V40.4295ZM103.318 38.9735H105.086V39.4155H103.318V38.9735ZM103.318 40.384H105.086V40.826H103.318V40.384ZM104.891 38.0635H105.431V42.4055H104.891V38.0635ZM101.68 43.361H105.593V43.803H101.68V43.361ZM101.68 41.957H102.22V43.556H101.68V41.957ZM102.2 38.434C103.065 38.434 103.715 39.0385 103.715 39.903C103.715 40.7675 103.065 41.372 102.2 41.372C101.336 41.372 100.686 40.7675 100.686 39.903C100.686 39.0385 101.336 38.434 102.2 38.434ZM102.2 38.9085C101.628 38.9085 101.206 39.3245 101.206 39.903C101.206 40.488 101.628 40.904 102.2 40.904C102.772 40.904 103.201 40.488 103.201 39.903C103.201 39.3245 102.772 38.9085 102.2 38.9085ZM109.232 38.1545C110.526 38.1545 111.299 38.5185 111.299 39.175C111.299 39.8315 110.526 40.1955 109.232 40.1955C107.932 40.1955 107.165 39.8315 107.165 39.175C107.165 38.5185 107.932 38.1545 109.232 38.1545ZM109.232 38.564C108.27 38.564 107.718 38.785 107.718 39.175C107.718 39.565 108.27 39.786 109.232 39.786C110.188 39.786 110.74 39.565 110.74 39.175C110.74 38.785 110.188 38.564 109.232 38.564ZM106.574 40.5855H111.884V41.021H106.574V40.5855ZM107.217 41.5215H111.208V42.8475H107.763V43.5625H107.23V42.4575H110.675V41.9375H107.217V41.5215ZM107.23 43.4455H111.384V43.868H107.23V43.4455ZM114.382 40.5595H119.692V40.995H114.382V40.5595ZM115.025 41.5215H119.016V42.867H115.571V43.582H115.038V42.4705H118.483V41.9375H115.025V41.5215ZM115.038 43.452H119.192V43.868H115.038V43.452ZM116.728 38.46H117.203V38.6485C117.203 39.552 116.098 40.1435 114.843 40.2605L114.668 39.851C115.753 39.7535 116.728 39.279 116.728 38.6485V38.46ZM116.884 38.46H117.352V38.6485C117.352 39.279 118.327 39.7535 119.413 39.851L119.237 40.2605C117.989 40.1435 116.884 39.552 116.884 38.6485V38.46ZM114.869 38.278H119.218V38.707H114.869V38.278ZM124.645 38.057H125.184V43.933H124.645V38.057ZM122.922 38.6875H123.455C123.455 40.3905 122.688 41.879 120.725 42.841L120.439 42.4055C122.136 41.5865 122.922 40.3385 122.922 38.7785V38.6875ZM120.706 38.6875H123.156V39.1295H120.706V38.6875ZM127.062 39.8185H131.053V40.2605H127.062V39.8185ZM126.341 41.047H131.671V41.489H126.341V41.047ZM127.062 38.2715H127.595V40.0395H127.062V38.2715ZM127.023 43.348H131.086V43.79H127.023V43.348ZM127.023 42.074H127.556V43.465H127.023V42.074ZM136.839 41.7425C138.035 41.7425 138.77 42.1455 138.77 42.8345C138.77 43.5235 138.035 43.9265 136.839 43.9265C135.643 43.9265 134.909 43.5235 134.909 42.8345C134.909 42.1455 135.643 41.7425 136.839 41.7425ZM136.839 42.178C135.968 42.178 135.435 42.4185 135.435 42.8345C135.435 43.257 135.968 43.4975 136.839 43.4975C137.71 43.4975 138.243 43.257 138.243 42.8345C138.243 42.4185 137.71 42.178 136.839 42.178ZM138.172 38.057H138.711V41.5865H138.172V38.057ZM138.562 39.5325H139.582V39.9875H138.562V39.5325ZM134.395 38.4275H134.928V39.305H136.586V38.4275H137.112V41.138H134.395V38.4275ZM134.928 39.734V40.7025H136.586V39.734H134.928ZM140.42 38.356H140.953V39.2595H142.546V38.356H143.072V41.047H140.42V38.356ZM140.953 39.682V40.605H142.546V39.682H140.953ZM142.923 39.5H144.587V39.942H142.923V39.5ZM144.424 38.057H144.964V41.268H144.424V38.057ZM141.2 41.554H141.733V42.2625H144.431V41.554H144.964V43.855H141.2V41.554ZM141.733 42.6915V43.413H144.431V42.6915H141.733Z" fill="white"/>
<path d="M83.5848 38.905H80.5848V44.415H86.1849V41.2319" stroke="white"/>
<path d="M81.5043 40.4949L83.3412 42.637L87.2279 37.9241" stroke="white"/>
<path d="M82.498 19.931H83.917C83.917 22.571 82.861 24.408 80.067 25.563L79.385 24.518C81.706 23.605 82.498 22.263 82.498 20.404V19.931ZM79.913 19.931H82.949V21.097H79.913V19.931ZM82.564 21.79V22.78L79.671 23.099L79.495 21.944L82.564 21.79ZM86.733 19.293H88.119V25.255H86.733V19.293ZM85.512 21.658H87.129V22.846H85.512V21.658ZM84.511 19.48H85.875V25.178H84.511V19.48ZM81.222 25.651H88.119V29.369H81.222V25.651ZM86.689 26.795H82.663V28.214H86.689V26.795ZM89.9991 20.052H95.4881V21.229H89.9991V20.052ZM89.8891 25.024L89.7351 23.836C91.4401 23.836 93.8601 23.803 95.8621 23.539L95.9721 24.595C93.9261 24.98 91.5721 25.024 89.8891 25.024ZM90.8021 20.987H92.1991V24.386H90.8021V20.987ZM93.2661 20.987H94.6851V24.386H93.2661V20.987ZM96.5551 19.304H98.0291V25.431H96.5551V19.304ZM94.5971 25.629C96.7531 25.629 98.0951 26.333 98.0951 27.543C98.0951 28.775 96.7531 29.479 94.5971 29.479C92.4411 29.479 91.1211 28.775 91.1211 27.543C91.1211 26.333 92.4411 25.629 94.5971 25.629ZM94.5971 26.74C93.2661 26.74 92.5731 27.004 92.5731 27.543C92.5731 28.104 93.2661 28.368 94.5971 28.368C95.9391 28.368 96.6321 28.104 96.6321 27.543C96.6321 27.004 95.9391 26.74 94.5971 26.74ZM103.528 20.272H104.958C104.958 23.418 104.21 26.036 100.415 27.961L99.6343 26.85C102.802 25.255 103.528 23.308 103.528 20.448V20.272ZM100.261 20.272H104.397V21.427H100.261V20.272ZM103.561 22.769V23.891L99.9093 24.243L99.7333 22.989L103.561 22.769ZM106.19 19.282H107.664V29.468H106.19V19.282ZM107.279 23.176H109.072V24.375H107.279V23.176ZM114.631 20.899H115.786V22.043C115.786 24.342 114.818 26.685 112.948 27.565L112.123 26.41C113.806 25.618 114.631 23.715 114.631 22.043V20.899ZM114.939 20.899H116.094V22.043C116.094 23.583 116.886 25.387 118.558 26.157L117.755 27.312C115.885 26.443 114.939 24.21 114.939 22.043V20.899ZM112.519 20.272H118.107V21.471H112.519V20.272ZM118.855 19.293H120.329V29.479H118.855V19.293ZM119.999 23.176H121.803V24.386H119.999V23.176ZM124.541 25.728H126.037V29.479H124.541V25.728ZM128.061 25.728H129.557V29.479H128.061V25.728ZM122.462 24.958H131.691V26.135H122.462V24.958ZM127.049 19.634C129.227 19.634 130.734 20.525 130.734 21.922C130.734 23.297 129.227 24.188 127.049 24.188C124.882 24.188 123.375 23.297 123.375 21.922C123.375 20.525 124.882 19.634 127.049 19.634ZM127.049 20.8C125.718 20.8 124.871 21.196 124.871 21.922C124.871 22.637 125.718 23.033 127.049 23.033C128.391 23.033 129.227 22.637 129.227 21.922C129.227 21.196 128.391 20.8 127.049 20.8ZM139.682 21.372H142.454V22.549H139.682V21.372ZM139.682 24.529H142.454V25.706H139.682V24.529ZM137.921 19.997C139.44 19.997 140.551 21.405 140.551 23.627C140.551 25.871 139.44 27.279 137.921 27.279C136.393 27.279 135.293 25.871 135.293 23.627C135.293 21.405 136.393 19.997 137.921 19.997ZM137.921 21.328C137.185 21.328 136.679 22.131 136.679 23.627C136.679 25.145 137.185 25.959 137.921 25.959C138.67 25.959 139.165 25.145 139.165 23.627C139.165 22.131 138.67 21.328 137.921 21.328ZM142.223 19.282H143.675V29.501H142.223V19.282ZM152.54 19.293H153.926V25.673H152.54V19.293ZM151.297 21.801H152.925V22.989H151.297V21.801ZM150.428 19.491H151.792V25.343H150.428V19.491ZM145.203 20.338H150.142V21.46H145.203V20.338ZM147.689 21.79C148.965 21.79 149.889 22.516 149.889 23.572C149.889 24.628 148.965 25.343 147.689 25.343C146.413 25.343 145.489 24.628 145.489 23.572C145.489 22.516 146.413 21.79 147.689 21.79ZM147.689 22.835C147.15 22.835 146.787 23.099 146.787 23.572C146.787 24.045 147.15 24.309 147.689 24.309C148.217 24.309 148.58 24.045 148.58 23.572C148.58 23.099 148.217 22.835 147.689 22.835ZM146.952 19.392H148.393V21.108H146.952V19.392ZM150.483 25.783C152.661 25.783 153.981 26.443 153.981 27.631C153.981 28.808 152.661 29.479 150.483 29.479C148.294 29.479 146.974 28.808 146.974 27.631C146.974 26.443 148.294 25.783 150.483 25.783ZM150.483 26.872C149.119 26.872 148.437 27.103 148.437 27.631C148.437 28.148 149.119 28.39 150.483 28.39C151.836 28.39 152.518 28.148 152.518 27.631C152.518 27.103 151.836 26.872 150.483 26.872ZM155.366 24.485H164.573V25.651H155.366V24.485ZM156.477 28.137H163.539V29.303H156.477V28.137ZM156.477 26.333H157.94V28.511H156.477V26.333ZM159.975 19.59C162.186 19.59 163.66 20.393 163.66 21.691C163.66 22.989 162.186 23.792 159.975 23.792C157.753 23.792 156.29 22.989 156.29 21.691C156.29 20.393 157.753 19.59 159.975 19.59ZM159.975 20.756C158.6 20.756 157.797 21.075 157.797 21.691C157.797 22.318 158.6 22.626 159.975 22.626C161.35 22.626 162.153 22.318 162.153 21.691C162.153 21.075 161.35 20.756 159.975 20.756ZM169.042 25.536H170.056C172.084 25.536 173.631 25.51 175.425 25.224L175.581 26.602C173.761 26.888 172.123 26.94 170.056 26.94H169.042V25.536ZM169.042 18.62H174.697V20.024H170.784V25.991H169.042V18.62ZM170.368 21.961H174.528V23.313H170.368V21.961ZM176.27 17.619H178.012V29.657H176.27V17.619ZM177.622 22.182H179.754V23.612H177.622V22.182ZM181.131 18.698H186.916V26.797H181.131V18.698ZM185.226 20.05H182.834V25.432H185.226V20.05ZM188.788 17.606H190.53V29.683H188.788V17.606ZM196.964 18.308H198.472V19.179C198.472 21.792 196.613 24.106 193.493 24.717L192.752 23.287C195.469 22.819 196.964 20.908 196.964 19.179V18.308ZM197.315 18.308H198.81V19.179C198.81 20.947 200.292 22.819 203.022 23.287L202.281 24.717C199.161 24.106 197.315 21.831 197.315 19.179V18.308ZM192.505 26.784H203.399V28.188H192.505V26.784ZM208.07 18.334H209.773V19.907H212.204V18.334H213.92V24.171H208.07V18.334ZM209.773 21.233V22.819H212.204V21.233H209.773ZM209.253 25.367H217.469V29.657H215.727V26.732H209.253V25.367ZM215.727 17.619H217.469V24.808H215.727V17.619ZM222.122 18.464C223.721 18.464 224.748 20.115 224.748 22.832C224.748 25.562 223.721 27.213 222.122 27.213C220.536 27.213 219.522 25.562 219.522 22.832C219.522 20.115 220.536 18.464 222.122 18.464ZM222.122 20.089C221.472 20.089 221.095 20.999 221.095 22.832C221.095 24.678 221.472 25.575 222.122 25.575C222.785 25.575 223.162 24.678 223.162 22.832C223.162 20.999 222.785 20.089 222.122 20.089ZM228.115 17.619H229.766V29.657H228.115V17.619ZM226.672 22.208H228.661V23.599H226.672V22.208ZM225.476 17.801H227.101V29.111H225.476V17.801ZM232.326 17.944H241.296V19.231H232.326V17.944ZM232.417 20.765H241.205V22.052H232.417V20.765ZM233.86 18.451H235.589V21.597H233.86V18.451ZM238.033 18.451H239.762V21.597H238.033V18.451ZM231.377 22.676H242.258V24.028H231.377V22.676ZM232.625 24.691H240.945V27.681H234.341V28.799H232.638V26.524H239.242V25.926H232.625V24.691ZM232.638 28.318H241.257V29.579H232.638V28.318ZM252.033 17.619H253.684V29.657H252.033V17.619ZM250.473 22.208H252.462V23.599H250.473V22.208ZM247.067 19.01H248.705C248.705 22.468 247.86 25.263 244.272 27.356L243.31 26.134C246.274 24.418 247.067 22.312 247.067 19.322V19.01ZM244.025 19.01H247.613V20.401H244.025V19.01ZM249.381 17.879H250.993V29.137H249.381V17.879ZM247.093 21.727V23.001L243.596 23.378L243.401 21.922L247.093 21.727ZM263.641 17.619H265.37V26.472H263.641V17.619ZM260.729 18.958H264.226V20.31H260.729V18.958ZM257.414 28.071H265.643V29.449H257.414V28.071ZM257.414 25.679H259.156V28.773H257.414V25.679ZM255.958 18.386H257.674V24.041H255.958V18.386ZM255.958 23.521H256.92C258.662 23.521 260.209 23.443 261.925 23.144L262.081 24.535C260.313 24.86 258.727 24.925 256.92 24.925H255.958V23.521ZM260.729 21.194H264.226V22.559H260.729V21.194Z" fill="white"/>
</g>
</g>
<defs>
<clipPath id="clip0_33_197">
<rect width="345" height="47" fill="white" transform="translate(0.5 0.5)"/>
</clipPath>
</defs>
</svg>
