<svg width="346" height="48" viewBox="0 0 346 48" fill="none" xmlns="http://www.w3.org/2000/svg">
<g clip-path="url(#clip0_92_15)">
<mask id="mask0_92_15" style="mask-type:luminance" maskUnits="userSpaceOnUse" x="0" y="0" width="346" height="48">
<path d="M345.5 0.5H0.5V47.5H345.5V0.5Z" fill="white"/>
</mask>
<g mask="url(#mask0_92_15)">
<path d="M85.966 4.39H90.04V4.859H85.966V4.39ZM85.35 8.639H91.069V9.122H85.35V8.639ZM89.732 4.39H90.299V5.02C90.299 5.832 90.299 6.735 90.061 8.1L89.48 8.044C89.732 6.749 89.732 5.804 89.732 5.02V4.39ZM96.5635 3.718H97.1165V8.429H96.5635V3.718ZM95.5485 5.608H96.7385V6.091H95.5485V5.608ZM95.1705 3.837H95.7165V8.254H95.1705V3.837ZM92.9935 9.43H97.3125V9.906H92.9935V9.43ZM92.9935 8.002H93.5745V9.598H92.9935V8.002ZM92.0765 7.015H92.4825C93.3715 7.015 94.0295 6.987 94.8065 6.833L94.8625 7.302C94.0645 7.456 93.3995 7.491 92.4825 7.491H92.0765V7.015ZM92.0625 4.264H94.4425V6.07H92.6365V7.267H92.0765V5.629H93.8825V4.733H92.0625V4.264ZM98.9499 6.749H103.297V7.225H98.9499V6.749ZM98.2289 8.709H103.962V9.192H98.2289V8.709ZM98.9499 4.299H103.234V4.782H99.5309V6.959H98.9499V4.299ZM111.446 3.718H112.006V10.046H111.446V3.718ZM110.417 6.28H111.628V6.756H110.417V6.28ZM108.863 4.474H109.423C109.423 6.126 108.926 7.68 107.008 8.751L106.679 8.324C108.373 7.4 108.863 6.07 108.863 4.572V4.474ZM106.987 4.474H109.08V4.957H106.987V4.474ZM110.046 3.872H110.599V9.738H110.046V3.872ZM108.793 5.916V6.35L106.756 6.56L106.672 6.056L108.793 5.916ZM117.697 3.718H118.278V8.408H117.697V3.718ZM115.912 4.544H117.914V5.013H115.912V4.544ZM114.232 9.43H118.446V9.906H114.232V9.43ZM114.232 8.002H114.813V9.647H114.232V8.002ZM113.441 4.18H114.022V7.162H113.441V4.18ZM113.441 6.98H113.917C114.82 6.98 115.667 6.931 116.654 6.756L116.71 7.239C115.695 7.421 114.848 7.463 113.917 7.463H113.441V6.98ZM115.912 5.748H117.914V6.224H115.912V5.748ZM122.078 6.175H123.275V6.658H122.078V6.175ZM124.332 3.718H124.892V10.046H124.332V3.718ZM123.079 3.851H123.632V9.731H123.079V3.851ZM120.937 4.243C121.756 4.243 122.288 5.09 122.288 6.448C122.288 7.806 121.756 8.653 120.937 8.653C120.118 8.653 119.593 7.806 119.593 6.448C119.593 5.09 120.118 4.243 120.937 4.243ZM120.937 4.782C120.44 4.782 120.125 5.426 120.125 6.448C120.125 7.47 120.44 8.114 120.937 8.114C121.441 8.114 121.756 7.47 121.756 6.448C121.756 5.426 121.441 4.782 120.937 4.782ZM129.112 5.86H130.876V6.336H129.112V5.86ZM127.586 4.264H128.062V5.391C128.062 6.812 127.313 8.17 126.312 8.709L125.941 8.247C126.872 7.785 127.586 6.567 127.586 5.391V4.264ZM127.698 4.264H128.167V5.391C128.167 6.546 128.881 7.694 129.798 8.128L129.455 8.597C128.433 8.079 127.698 6.777 127.698 5.391V4.264ZM130.589 3.711H131.163V10.053H130.589V3.711ZM135.925 4.621H136.387V5.65C136.387 6.966 135.582 8.324 134.595 8.828L134.259 8.366C135.162 7.925 135.925 6.721 135.925 5.65V4.621ZM136.03 4.621H136.492V5.65C136.492 6.651 137.206 7.778 138.123 8.212L137.794 8.674C136.793 8.177 136.03 6.903 136.03 5.65V4.621ZM134.483 4.362H137.892V4.852H134.483V4.362ZM138.641 3.718H139.229V10.046H138.641V3.718ZM139.089 6.273H140.265V6.763H139.089V6.273ZM145.395 3.711H145.976V10.053H145.395V3.711ZM142.637 4.201C143.575 4.201 144.247 5.062 144.247 6.406C144.247 7.757 143.575 8.618 142.637 8.618C141.706 8.618 141.034 7.757 141.034 6.406C141.034 5.062 141.706 4.201 142.637 4.201ZM142.637 4.726C142.021 4.726 141.587 5.384 141.587 6.406C141.587 7.435 142.021 8.107 142.637 8.107C143.26 8.107 143.687 7.435 143.687 6.406C143.687 5.384 143.26 4.726 142.637 4.726ZM150.393 5.475H152.129V5.944H150.393V5.475ZM151.863 3.725H152.444V8.38H151.863V3.725ZM148.405 9.43H152.619V9.906H148.405V9.43ZM148.405 7.911H148.986V9.633H148.405V7.911ZM148.965 4.124C149.896 4.124 150.596 4.775 150.596 5.692C150.596 6.609 149.896 7.26 148.965 7.26C148.034 7.26 147.334 6.609 147.334 5.692C147.334 4.775 148.034 4.124 148.965 4.124ZM148.965 4.635C148.349 4.635 147.894 5.069 147.894 5.692C147.894 6.315 148.349 6.749 148.965 6.749C149.574 6.749 150.036 6.315 150.036 5.692C150.036 5.069 149.574 4.635 148.965 4.635ZM158.071 3.718H158.645V10.046H158.071V3.718ZM158.463 6.322H159.59V6.812H158.463V6.322ZM155.04 4.397H155.572C155.572 5.923 155.25 7.4 154.116 8.625L153.647 8.296C154.69 7.211 155.04 5.895 155.04 4.46V4.397ZM153.85 4.397H155.257V4.88H153.85V4.397ZM156.762 4.397H157.301C157.301 5.93 157.084 7.666 155.922 9.045L155.453 8.723C156.524 7.484 156.762 5.916 156.762 4.453V4.397ZM155.775 4.397H157V4.88H155.775V4.397ZM161.794 4.621H162.263V5.65C162.263 6.987 161.458 8.331 160.45 8.828L160.114 8.366C161.031 7.932 161.794 6.742 161.794 5.65V4.621ZM161.906 4.621H162.375V5.65C162.375 6.721 163.138 7.813 164.069 8.212L163.74 8.674C162.718 8.198 161.906 6.966 161.906 5.65V4.621ZM160.324 4.362H163.859V4.852H160.324V4.362ZM164.713 3.718H165.294V10.046H164.713V3.718Z" fill="white"/>
<path d="M96.7555 39.6755H98.2375V40.1175H96.7555V39.6755ZM97.932 38.0635H98.4715V42.3665H97.932V38.0635ZM94.721 43.361H98.634V43.803H94.721V43.361ZM94.721 41.9895H95.2605V43.5885H94.721V41.9895ZM95.137 38.7915H95.579V39.266C95.579 40.332 94.916 41.255 93.9345 41.619L93.655 41.19C94.5325 40.878 95.137 40.098 95.137 39.266V38.7915ZM95.241 38.7915H95.6765V39.2595C95.6765 40.02 96.2485 40.761 97.1 41.06L96.827 41.4825C95.8715 41.138 95.241 40.254 95.241 39.2595V38.7915ZM93.824 38.538H96.9635V38.9735H93.824V38.538ZM100.928 40.046H101.461V41.1575H100.928V40.046ZM103.086 40.046H103.619V41.1575H103.086V40.046ZM99.615 40.9625H104.925V41.398H99.615V40.9625ZM102.267 41.84C103.528 41.84 104.282 42.2105 104.282 42.88C104.282 43.5495 103.528 43.9265 102.267 43.9265C101.006 43.9265 100.252 43.5495 100.252 42.88C100.252 42.2105 101.006 41.84 102.267 41.84ZM102.267 42.256C101.35 42.256 100.798 42.4835 100.798 42.88C100.798 43.283 101.35 43.504 102.267 43.504C103.19 43.504 103.736 43.283 103.736 42.88C103.736 42.4835 103.19 42.256 102.267 42.256ZM102.273 38.161C103.547 38.161 104.34 38.5705 104.34 39.2595C104.34 39.942 103.547 40.345 102.273 40.345C100.993 40.345 100.206 39.942 100.206 39.2595C100.206 38.5705 100.993 38.161 102.273 38.161ZM102.273 38.5835C101.337 38.5835 100.759 38.8305 100.759 39.2595C100.759 39.682 101.337 39.929 102.273 39.929C103.209 39.929 103.788 39.682 103.788 39.2595C103.788 38.8305 103.209 38.5835 102.273 38.5835ZM108.859 39.4545H109.282V39.955C109.282 41.1965 108.606 42.3405 107.676 42.802L107.371 42.386C108.235 41.97 108.859 40.969 108.859 39.955V39.4545ZM108.963 39.4545H109.386V39.955C109.386 40.904 109.977 41.8595 110.816 42.2755L110.517 42.6915C109.6 42.2365 108.963 41.125 108.963 39.955V39.4545ZM107.533 39.0775H110.686V39.513H107.533V39.0775ZM108.853 38.161H109.386V39.318H108.853V38.161ZM111.401 38.057H111.947V43.933H111.401V38.057ZM111.817 40.4685H112.909V40.917H111.817V40.4685ZM117.803 38.9735H118.836V39.422H117.803V38.9735ZM117.803 40.2085H118.836V40.657H117.803V40.2085ZM117.426 38.057H117.965V41.6125H117.426V38.057ZM113.662 40.826H114.124C115.19 40.826 115.95 40.7935 116.867 40.631L116.912 41.0795C115.983 41.2355 115.209 41.2745 114.124 41.2745H113.662V40.826ZM113.649 38.421H116.295V40.02H114.189V41.112H113.662V39.5975H115.762V38.863H113.649V38.421ZM116.087 41.788C117.289 41.788 118.017 42.178 118.017 42.854C118.017 43.5365 117.289 43.9265 116.087 43.9265C114.891 43.9265 114.156 43.5365 114.156 42.854C114.156 42.178 114.891 41.788 116.087 41.788ZM116.087 42.2105C115.209 42.2105 114.683 42.4445 114.683 42.854C114.683 43.27 115.209 43.504 116.087 43.504C116.964 43.504 117.497 43.27 117.497 42.854C117.497 42.4445 116.964 42.2105 116.087 42.2105ZM122.775 43.1029V40.056H123.292V43.1029H122.775ZM121.51 41.838V41.3209H124.557V41.838H121.51ZM131.346 38.0635H131.886V42.4705H131.346V38.0635ZM131.717 39.9875H132.757V40.4425H131.717V39.9875ZM127.342 38.772H130.813V39.2075H127.342V38.772ZM129.078 39.5325C129.91 39.5325 130.482 39.968 130.482 40.631C130.482 41.2875 129.91 41.723 129.078 41.723C128.239 41.723 127.667 41.2875 127.667 40.631C127.667 39.968 128.239 39.5325 129.078 39.5325ZM129.078 39.955C128.545 39.955 128.181 40.2215 128.181 40.631C128.181 41.034 128.545 41.3005 129.078 41.3005C129.604 41.3005 129.968 41.034 129.968 40.631C129.968 40.2215 129.604 39.955 129.078 39.955ZM128.805 38.057H129.344V38.9995H128.805V38.057ZM128.226 43.361H132.152V43.803H128.226V43.361ZM128.226 42.1195H128.766V43.5495H128.226V42.1195ZM133.985 38.33H137.768V38.772H133.985V38.33ZM133.309 40.436H138.632V40.878H133.309V40.436ZM135.694 40.735H136.227V42.1195H135.694V40.735ZM137.417 38.33H137.943V38.7655C137.943 39.253 137.943 39.8445 137.748 40.6505L137.222 40.5855C137.417 39.799 137.417 39.24 137.417 38.7655V38.33ZM133.861 41.944H137.982V43.933H137.443V42.386H133.861V41.944ZM143.558 38.0635H144.104V42.3535H143.558V38.0635ZM140.328 43.361H144.28V43.803H140.328V43.361ZM140.328 41.9115H140.861V43.5105H140.328V41.9115ZM140.952 38.4665C141.829 38.4665 142.479 39.0645 142.479 39.916C142.479 40.761 141.829 41.3655 140.952 41.3655C140.074 41.3655 139.418 40.761 139.418 39.916C139.418 39.0645 140.074 38.4665 140.952 38.4665ZM140.952 38.9345C140.38 38.9345 139.944 39.3375 139.944 39.916C139.944 40.488 140.38 40.891 140.952 40.891C141.524 40.891 141.959 40.488 141.959 39.916C141.959 39.3375 141.524 38.9345 140.952 38.9345ZM151.067 38.0505H151.613V43.933H151.067V38.0505ZM151.464 40.436H152.549V40.8845H151.464V40.436ZM149.566 38.6875H150.092C150.092 40.358 149.325 41.866 147.427 42.8215L147.128 42.4055C148.753 41.58 149.566 40.3255 149.566 38.772V38.6875ZM147.401 38.6875H149.845V39.1295H147.401V38.6875ZM157.339 38.0505H157.879V43.9395H157.339V38.0505ZM154.778 38.5055C155.649 38.5055 156.273 39.305 156.273 40.553C156.273 41.8075 155.649 42.607 154.778 42.607C153.914 42.607 153.29 41.8075 153.29 40.553C153.29 39.305 153.914 38.5055 154.778 38.5055ZM154.778 38.993C154.206 38.993 153.803 39.604 153.803 40.553C153.803 41.5085 154.206 42.1325 154.778 42.1325C155.357 42.1325 155.753 41.5085 155.753 40.553C155.753 39.604 155.357 38.993 154.778 38.993ZM159.724 40.8715H163.761V41.3135H159.724V40.8715ZM159.055 42.6915H164.378V43.14H159.055V42.6915ZM159.724 38.5965H163.702V39.045H160.264V41.0665H159.724V38.5965Z" fill="white"/>
<path d="M88.5848 38.905H85.5848V44.415H91.1849V41.2319" stroke="white"/>
<path d="M86.5042 40.4949L88.3412 42.637L92.2279 37.9241" stroke="white"/>
<path d="M91.799 19.293H93.185V29.479H91.799V19.293ZM90.435 23.209H92.129V24.386H90.435V23.209ZM89.522 19.469H90.875V28.995H89.522V19.469ZM84.726 25.981H85.441C86.695 25.981 87.74 25.937 88.95 25.717L89.06 26.905C87.828 27.147 86.75 27.18 85.441 27.18H84.726V25.981ZM84.726 20.47H88.488V21.647H86.178V26.553H84.726V20.47ZM96.8471 20.899H98.0021V22.043C98.0021 24.342 97.0341 26.685 95.1641 27.565L94.3391 26.41C96.0221 25.618 96.8471 23.715 96.8471 22.043V20.899ZM97.1551 20.899H98.3101V22.043C98.3101 23.583 99.1021 25.387 100.774 26.157L99.9711 27.312C98.1011 26.443 97.1551 24.21 97.1551 22.043V20.899ZM94.7351 20.272H100.323V21.471H94.7351V20.272ZM101.071 19.293H102.545V29.479H101.071V19.293ZM102.215 23.176H104.019V24.386H102.215V23.176ZM109.287 20.712H112.279V21.878H109.287V20.712ZM109.287 23.187H112.279V24.353H109.287V23.187ZM111.74 19.304H113.203V26.751H111.74V19.304ZM106.482 28.137H113.434V29.303H106.482V28.137ZM106.482 26.014H107.945V28.742H106.482V26.014ZM107.494 19.898C109.001 19.898 110.178 20.998 110.178 22.538C110.178 24.056 109.001 25.167 107.494 25.167C105.976 25.167 104.799 24.056 104.799 22.538C104.799 20.998 105.976 19.898 107.494 19.898ZM107.494 21.185C106.746 21.185 106.196 21.691 106.196 22.538C106.196 23.385 106.746 23.891 107.494 23.891C108.231 23.891 108.792 23.385 108.792 22.538C108.792 21.691 108.231 21.185 107.494 21.185ZM118.867 23.044H120.539V24.221H118.867V23.044ZM122.156 19.293H123.553V29.479H122.156V19.293ZM120.077 19.447H121.452V29.017H120.077V19.447ZM117.085 20.008C118.438 20.008 119.307 21.405 119.307 23.704C119.307 26.014 118.438 27.411 117.085 27.411C115.743 27.411 114.885 26.014 114.885 23.704C114.885 21.405 115.743 20.008 117.085 20.008ZM117.085 21.383C116.535 21.383 116.216 22.153 116.216 23.704C116.216 25.266 116.535 26.025 117.085 26.025C117.657 26.025 117.976 25.266 117.976 23.704C117.976 22.153 117.657 21.383 117.085 21.383ZM127.836 20.184H132.698V27.004H127.836V20.184ZM131.257 21.339H129.277V25.86H131.257V21.339ZM134.557 19.282H136.009V29.501H134.557V19.282ZM132.423 22.802H135.151V23.979H132.423V22.802ZM137.582 24.991H146.811V26.157H137.582V24.991ZM141.432 25.739H142.884V29.479H141.432V25.739ZM138.649 19.788H145.711V23.902H138.649V19.788ZM144.27 20.943H140.09V22.747H144.27V20.943ZM147.712 27.136H156.93V28.335H147.712V27.136ZM148.746 19.975H155.896V23.374H150.22V25.079H148.768V22.23H154.444V21.141H148.746V19.975ZM148.768 24.507H156.127V25.673H148.768V24.507ZM164.332 19.282H165.806V29.501H164.332V19.282ZM165.476 23.055H167.28V24.254H165.476V23.055ZM158.216 25.838H159.074C160.79 25.838 162.143 25.783 163.639 25.519L163.782 26.729C162.242 27.004 160.845 27.048 159.074 27.048H158.216V25.838ZM158.216 20.228H162.968V21.405H159.668V26.421H158.216V20.228ZM169.972 27.4062L169.929 27.8359C169.895 28.1797 169.83 28.5221 169.733 28.8633C169.64 29.207 169.541 29.5182 169.437 29.7969C169.335 30.0755 169.253 30.2943 169.19 30.4531H168.112C168.151 30.2995 168.205 30.0846 168.272 29.8086C168.34 29.5352 168.404 29.2279 168.464 28.8867C168.524 28.5456 168.562 28.1979 168.577 27.8437L168.597 27.4062H169.972ZM182.216 17.619H183.867V29.657H182.216V17.619ZM180.656 22.208H182.645V23.599H180.656V22.208ZM177.25 19.01H178.888C178.888 22.468 178.043 25.263 174.455 27.356L173.493 26.134C176.457 24.418 177.25 22.312 177.25 19.322V19.01ZM174.208 19.01H177.796V20.401H174.208V19.01ZM179.564 17.879H181.176V29.137H179.564V17.879ZM177.276 21.727V23.001L173.779 23.378L173.584 21.922L177.276 21.727ZM193.824 17.619H195.553V26.472H193.824V17.619ZM190.912 18.958H194.409V20.31H190.912V18.958ZM187.597 28.071H195.826V29.449H187.597V28.071ZM187.597 25.679H189.339V28.773H187.597V25.679ZM186.141 18.386H187.857V24.041H186.141V18.386ZM186.141 23.521H187.103C188.845 23.521 190.392 23.443 192.108 23.144L192.264 24.535C190.496 24.86 188.91 24.925 187.103 24.925H186.141V23.521ZM190.912 21.194H194.409V22.559H190.912V21.194ZM209.143 17.619H210.794V29.657H209.143V17.619ZM207.7 22.234H209.689V23.638H207.7V22.234ZM206.608 17.827H208.22V29.085H206.608V17.827ZM200.537 18.971H206.036V20.349H200.537V18.971ZM200.511 26.927L200.329 25.523C201.824 25.523 204.333 25.484 206.127 25.237L206.244 26.485C204.398 26.888 201.98 26.927 200.511 26.927ZM201.291 19.855H202.838V25.887H201.291V19.855ZM203.735 19.855H205.282V25.887H203.735V19.855ZM217.254 18.776H218.918C218.918 22.481 217.93 25.64 213.406 27.889L212.496 26.55C216.201 24.704 217.254 22.39 217.254 18.984V18.776ZM213.211 18.776H218.099V20.141H213.211V18.776ZM217.228 21.727V23.053L212.821 23.443L212.6 21.987L217.228 21.727ZM220.699 17.619H222.441V29.657H220.699V17.619ZM227.263 19.517H228.641V20.869C228.641 23.651 227.51 26.368 225.248 27.395L224.273 26.03C226.288 25.133 227.263 22.91 227.263 20.869V19.517ZM227.653 19.517H229.018V20.869C229.018 22.819 229.98 24.899 231.995 25.731L231.059 27.096C228.771 26.108 227.653 23.547 227.653 20.869V19.517ZM224.754 18.776H231.501V20.193H224.754V18.776ZM232.619 17.619H234.361V29.657H232.619V17.619ZM244.714 20.076H247.99V21.467H244.714V20.076ZM244.714 23.807H247.99V25.198H244.714V23.807ZM242.634 18.451C244.428 18.451 245.741 20.115 245.741 22.741C245.741 25.393 244.428 27.057 242.634 27.057C240.827 27.057 239.527 25.393 239.527 22.741C239.527 20.115 240.827 18.451 242.634 18.451ZM242.634 20.024C241.763 20.024 241.165 20.973 241.165 22.741C241.165 24.535 241.763 25.497 242.634 25.497C243.518 25.497 244.103 24.535 244.103 22.741C244.103 20.973 243.518 20.024 242.634 20.024ZM247.717 17.606H249.433V29.683H247.717V17.606ZM259.91 17.619H261.548V25.159H259.91V17.619ZM258.441 20.583H260.365V21.987H258.441V20.583ZM257.414 17.853H259.026V24.769H257.414V17.853ZM251.239 18.854H257.076V20.18H251.239V18.854ZM254.177 20.57C255.685 20.57 256.777 21.428 256.777 22.676C256.777 23.924 255.685 24.769 254.177 24.769C252.669 24.769 251.577 23.924 251.577 22.676C251.577 21.428 252.669 20.57 254.177 20.57ZM254.177 21.805C253.54 21.805 253.111 22.117 253.111 22.676C253.111 23.235 253.54 23.547 254.177 23.547C254.801 23.547 255.23 23.235 255.23 22.676C255.23 22.117 254.801 21.805 254.177 21.805ZM253.306 17.736H255.009V19.764H253.306V17.736ZM257.479 25.289C260.053 25.289 261.613 26.069 261.613 27.473C261.613 28.864 260.053 29.657 257.479 29.657C254.892 29.657 253.332 28.864 253.332 27.473C253.332 26.069 254.892 25.289 257.479 25.289ZM257.479 26.576C255.867 26.576 255.061 26.849 255.061 27.473C255.061 28.084 255.867 28.37 257.479 28.37C259.078 28.37 259.884 28.084 259.884 27.473C259.884 26.849 259.078 26.576 257.479 26.576Z" fill="white"/>
</g>
</g>
<defs>
<clipPath id="clip0_92_15">
<rect width="345" height="47" fill="white" transform="translate(0.5 0.5)"/>
</clipPath>
</defs>
</svg>
