<svg width="800" height="109" viewBox="0 0 800 109" fill="none" xmlns="http://www.w3.org/2000/svg">
<g clip-path="url(#clip0_12160_18578)">
<mask id="mask0_12160_18578" style="mask-type:luminance" maskUnits="userSpaceOnUse" x="0" y="0" width="800" height="109">
<path d="M800 0H0V109H800V0Z" fill="white"/>
</mask>
<g mask="url(#mask0_12160_18578)">
<path d="M128.424 42.742H132.414V46.694C132.414 54.636 129.07 62.73 122.61 65.77L119.76 61.78C125.574 59.044 128.424 52.47 128.424 46.694V42.742ZM129.488 42.742H133.478V46.694C133.478 52.014 136.214 58.246 141.99 60.906L139.216 64.896C132.756 61.894 129.488 54.18 129.488 46.694V42.742ZM121.128 40.576H140.432V44.718H121.128V40.576ZM143.016 37.194H148.108V72.382H143.016V37.194ZM146.968 50.608H153.2V54.788H146.968V50.608ZM162.659 59.424H167.827V72.382H162.659V59.424ZM174.819 59.424H179.987V72.382H174.819V59.424ZM155.477 56.764H187.359V60.83H155.477V56.764ZM171.323 38.372C178.847 38.372 184.053 41.45 184.053 46.276C184.053 51.026 178.847 54.104 171.323 54.104C163.837 54.104 158.631 51.026 158.631 46.276C158.631 41.45 163.837 38.372 171.323 38.372ZM171.323 42.4C166.725 42.4 163.799 43.768 163.799 46.276C163.799 48.746 166.725 50.114 171.323 50.114C175.959 50.114 178.847 48.746 178.847 46.276C178.847 43.768 175.959 42.4 171.323 42.4ZM206.166 44.376H215.742V48.442H206.166V44.376ZM206.166 55.282H215.742V59.348H206.166V55.282ZM200.086 39.626C205.33 39.626 209.168 44.49 209.168 52.166C209.168 59.918 205.33 64.782 200.086 64.782C194.804 64.782 191.004 59.918 191.004 52.166C191.004 44.49 194.804 39.626 200.086 39.626ZM200.086 44.224C197.54 44.224 195.792 46.998 195.792 52.166C195.792 57.41 197.54 60.222 200.086 60.222C202.67 60.222 204.38 57.41 204.38 52.166C204.38 46.998 202.67 44.224 200.086 44.224ZM214.944 37.156H219.96V72.458H214.944V37.156ZM250.585 37.194H255.373V59.234H250.585V37.194ZM246.291 45.858H251.915V49.962H246.291V45.858ZM243.289 37.878H248.001V58.094H243.289V37.878ZM225.239 40.804H242.301V44.68H225.239V40.804ZM233.827 45.82C238.235 45.82 241.427 48.328 241.427 51.976C241.427 55.624 238.235 58.094 233.827 58.094C229.419 58.094 226.227 55.624 226.227 51.976C226.227 48.328 229.419 45.82 233.827 45.82ZM233.827 49.43C231.965 49.43 230.711 50.342 230.711 51.976C230.711 53.61 231.965 54.522 233.827 54.522C235.651 54.522 236.905 53.61 236.905 51.976C236.905 50.342 235.651 49.43 233.827 49.43ZM231.281 37.536H236.259V43.464H231.281V37.536ZM243.479 59.614C251.003 59.614 255.563 61.894 255.563 65.998C255.563 70.064 251.003 72.382 243.479 72.382C235.917 72.382 231.357 70.064 231.357 65.998C231.357 61.894 235.917 59.614 243.479 59.614ZM243.479 63.376C238.767 63.376 236.411 64.174 236.411 65.998C236.411 67.784 238.767 68.62 243.479 68.62C248.153 68.62 250.509 67.784 250.509 65.998C250.509 64.174 248.153 63.376 243.479 63.376ZM285.542 37.194H290.33V57.79H285.542V37.194ZM281.248 45.288H286.872V49.392H281.248V45.288ZM277.866 37.84H282.578V57.676H277.866V37.84ZM265.934 59.234H290.33V72.382H285.314V63.262H265.934V59.234ZM270.532 39.626H275.586C275.586 48.518 271.444 54.446 262.324 58.018L259.968 54.332C267.454 51.558 270.532 47.302 270.532 41.526V39.626ZM261.64 39.626H272.166V43.654H261.64V39.626ZM309.365 50.152H315.141V54.218H309.365V50.152ZM320.727 37.194H325.553V72.382H320.727V37.194ZM313.545 37.726H318.295V70.786H313.545V37.726ZM303.209 39.664C307.883 39.664 310.885 44.49 310.885 52.432C310.885 60.412 307.883 65.238 303.209 65.238C298.573 65.238 295.609 60.412 295.609 52.432C295.609 44.49 298.573 39.664 303.209 39.664ZM303.209 44.414C301.309 44.414 300.207 47.074 300.207 52.432C300.207 57.828 301.309 60.45 303.209 60.45C305.185 60.45 306.287 57.828 306.287 52.432C306.287 47.074 305.185 44.414 303.209 44.414ZM355.207 38.638H364.935V42.628H355.207V38.638ZM339.133 53.192H370.825V57.22H339.133V53.192ZM353.079 47.036H358.057V54.902H353.079V47.036ZM362.883 38.638H367.785V40.842C367.785 43.312 367.785 46.694 366.683 51.026L361.781 50.456C362.883 46.2 362.883 43.236 362.883 40.842V38.638ZM342.515 59.994H366.873V72.23H361.819V64.022H342.515V59.994ZM341.641 38.638H350.039V42.628H341.641V38.638ZM347.645 38.638H352.547V40.158C352.547 42.438 352.547 46.2 350.723 51.064L345.859 50.38C347.645 45.402 347.645 42.248 347.645 40.158V38.638ZM383.835 39.436H400.593V54.94H383.835V39.436ZM395.615 43.426H388.813V50.95H395.615V43.426ZM405.457 37.194H410.511V56.878H405.457V37.194ZM409.105 44.832H415.185V48.936H409.105V44.832ZM396.489 60.412H400.745V61.248C400.745 66.72 396.223 71.166 387.711 72.268L385.887 68.43C393.221 67.556 396.489 64.288 396.489 61.248V60.412ZM397.591 60.412H401.885V61.248C401.885 64.174 405.229 67.556 412.449 68.506L410.663 72.344C402.151 71.242 397.591 66.568 397.591 61.248V60.412ZM387.369 58.55H410.967V62.502H387.369V58.55ZM421.718 46.694H446.114V50.684H421.718V46.694ZM417.766 54.332H449.648V58.36H417.766V54.332ZM421.718 38.448H426.734V48.67H421.718V38.448ZM421.376 67.594H446.304V71.622H421.376V67.594ZM421.376 61.172H426.43V68.658H421.376V61.172ZM459.745 65.2216L459.597 66.706C459.48 67.8935 459.255 69.0765 458.922 70.255C458.598 71.4425 458.256 72.5175 457.896 73.4801C457.545 74.4427 457.262 75.1984 457.046 75.7472H453.322C453.457 75.2164 453.641 74.4742 453.875 73.5206C454.109 72.576 454.329 71.5144 454.536 70.3359C454.743 69.1574 454.874 67.9564 454.928 66.733L454.995 65.2216H459.745ZM475.927 59.196H479.281C485.989 59.196 491.106 59.11 497.04 58.164L497.556 62.722C491.536 63.668 486.118 63.84 479.281 63.84H475.927V59.196ZM475.927 36.32H494.632V40.964H481.689V60.701H475.927V36.32ZM480.313 47.371H494.073V51.843H480.313V47.371ZM499.835 33.009H505.597V72.827H499.835V33.009ZM504.307 48.102H511.359V52.832H504.307V48.102ZM515.914 36.578H535.049V63.367H515.914V36.578ZM529.459 41.05H521.547V58.852H529.459V41.05ZM541.241 32.966H547.003V72.913H541.241V32.966ZM568.284 35.288H573.272V38.169C573.272 46.812 567.123 54.466 556.803 56.487L554.352 51.757C563.339 50.209 568.284 43.888 568.284 38.169V35.288ZM569.445 35.288H574.39V38.169C574.39 44.017 579.292 50.209 588.322 51.757L585.871 56.487C575.551 54.466 569.445 46.941 569.445 38.169V35.288ZM553.535 63.324H589.569V67.968H553.535V63.324ZM603.001 56.616H639.035V61.26H603.001V56.616ZM618.137 58.25H623.813V72.87H618.137V58.25ZM607.473 49.22H635.294V53.735H607.473V49.22ZM607.473 34.6H634.864V39.072H613.106V50.295H607.473V34.6ZM611.515 41.953H634.004V46.296H611.515V41.953ZM653.48 35.761C659.414 35.761 663.757 41.265 663.757 49.951C663.757 58.723 659.414 64.227 653.48 64.227C647.503 64.227 643.203 58.723 643.203 49.951C643.203 41.265 647.503 35.761 653.48 35.761ZM653.48 40.964C650.599 40.964 648.664 44.103 648.664 49.951C648.664 55.885 650.599 59.067 653.48 59.067C656.404 59.067 658.296 55.885 658.296 49.951C658.296 44.103 656.404 40.964 653.48 40.964ZM670.293 32.966H675.969V72.913H670.293V32.966ZM662.08 47.328H672.701V51.929H662.08V47.328Z" fill="white"/>
<path d="M120.935 4.6975H128.439V13.5125H120.935V4.6975ZM126.762 6.0735H122.591V12.0935H126.762V6.0735ZM134.738 2.7625H136.437V17.232H134.738V2.7625ZM131.621 8.46H135.276V9.9435H131.621V8.46ZM130.567 3.1065H132.266V16.544H130.567V3.1065ZM123.773 20.285H137.039V21.747H123.773V20.285ZM123.773 15.469H125.558V21.016H123.773V15.469ZM153.011 2.741H154.796V22.177H153.011V2.741ZM154.366 10.7175H157.978V12.2225H154.366V10.7175ZM139.746 5.837H151.205V7.299H139.746V5.837ZM145.551 8.9115C148.303 8.9115 150.281 10.7605 150.281 13.3835C150.281 16.0065 148.303 17.8555 145.551 17.8555C142.82 17.8555 140.821 16.0065 140.821 13.3835C140.821 10.7605 142.82 8.9115 145.551 8.9115ZM145.551 10.395C143.788 10.395 142.519 11.6205 142.519 13.3835C142.519 15.125 143.788 16.372 145.551 16.372C147.314 16.372 148.582 15.125 148.582 13.3835C148.582 11.6205 147.314 10.395 145.551 10.395ZM144.626 2.9775H146.411V6.5035H144.626V2.9775ZM160.513 12.7385H161.997C165.91 12.7385 168.081 12.6525 170.661 12.1795L170.855 13.62C168.21 14.093 165.974 14.179 161.997 14.179H160.513V12.7385ZM160.513 4.289H169.393V5.751H162.276V13.2115H160.513V4.289ZM161.717 8.4385H169.027V9.8575H161.717V8.4385ZM172.919 2.7195H174.703V17.146H172.919V2.7195ZM174.144 8.7825H177.584V10.266H174.144V8.7825ZM162.599 20.285H175.585V21.747H162.599V20.285ZM162.599 15.856H164.383V21.0805H162.599V15.856ZM187.65 4.0095H199.797V5.45H187.65V4.0095ZM185.457 12.3515H203.022V13.8135H185.457V12.3515ZM193.304 13.319H195.089V22.1985H193.304V13.319ZM198.959 4.0095H200.7V5.6865C200.7 7.7075 200.7 9.9865 199.969 13.276L198.206 13.0395C198.959 9.9005 198.959 7.643 198.959 5.6865V4.0095ZM215.211 6.8045H219.812V8.288H215.211V6.8045ZM210.073 3.73H211.535V5.751C211.535 9.492 209.449 12.5665 206.181 13.8135L205.257 12.3945C208.181 11.3195 210.073 8.718 210.073 5.751V3.73ZM210.395 3.73H211.836V5.837C211.836 8.503 213.771 10.997 216.566 11.986L215.62 13.3835C212.502 12.201 210.395 9.2555 210.395 5.837V3.73ZM208.245 15.297H221.21V22.177H219.425V16.7375H208.245V15.297ZM219.425 2.741H221.21V14.222H219.425V2.741ZM227.206 4.0095H239.354V5.45H227.206V4.0095ZM225.013 12.3515H242.579V13.8135H225.013V12.3515ZM232.861 13.319H234.645V22.1985H232.861V13.319ZM238.515 4.0095H240.257V5.6865C240.257 7.7075 240.257 9.9865 239.526 13.276L237.763 13.0395C238.515 9.9005 238.515 7.643 238.515 5.6865V4.0095ZM254.768 6.8045H259.369V8.288H254.768V6.8045ZM249.629 3.73H251.091V5.751C251.091 9.492 249.006 12.5665 245.738 13.8135L244.813 12.3945C247.737 11.3195 249.629 8.718 249.629 5.751V3.73ZM249.952 3.73H251.392V5.837C251.392 8.503 253.327 10.997 256.122 11.986L255.176 13.3835C252.059 12.201 249.952 9.2555 249.952 5.837V3.73ZM247.802 15.297H260.766V22.177H258.982V16.7375H247.802V15.297ZM258.982 2.741H260.766V14.222H258.982V2.741ZM264.549 14.2435H282.179V15.7055H264.549V14.2435ZM272.418 14.9315H274.181V22.177H272.418V14.9315ZM266.763 3.515H268.548V6.181H278.158V3.515H279.921V11.9215H266.763V3.515ZM268.548 7.6215V10.481H278.158V7.6215H268.548ZM298.581 2.7195H300.344V22.1985H298.581V2.7195ZM294.539 10.051H298.839V11.5345H294.539V10.051ZM285.23 16.0495H286.713C290.368 16.0495 292.669 15.985 295.399 15.469L295.571 16.931C292.776 17.4255 290.411 17.533 286.713 17.533H285.23V16.0495ZM285.23 4.504H294.217V5.9875H286.993V16.5655H285.23V4.504ZM286.541 9.965H293.378V11.4055H286.541V9.965ZM324.622 10.481H328.212V11.986H324.622V10.481ZM323.31 2.7195H325.116V22.177H323.31V2.7195ZM310.926 4.633H312.711V16.673H310.926V4.633ZM310.926 15.7485H312.474C315.355 15.7485 318.301 15.555 321.504 14.8885L321.719 16.372C318.408 17.06 315.42 17.2535 312.474 17.2535H310.926V15.7485ZM344.056 2.7195H345.84V22.1985H344.056V2.7195ZM335.585 4.2245C338.466 4.2245 340.53 6.869 340.53 10.997C340.53 15.1465 338.466 17.791 335.585 17.791C332.725 17.791 330.661 15.1465 330.661 10.997C330.661 6.869 332.725 4.2245 335.585 4.2245ZM335.585 5.837C333.693 5.837 332.36 7.858 332.36 10.997C332.36 14.1575 333.693 16.2215 335.585 16.2215C337.498 16.2215 338.81 14.1575 338.81 10.997C338.81 7.858 337.498 5.837 335.585 5.837ZM354.89 4.2245C357.75 4.2245 359.771 6.869 359.771 10.997C359.771 15.1465 357.75 17.791 354.89 17.791C352.031 17.791 350.01 15.1465 350.01 10.997C350.01 6.869 352.031 4.2245 354.89 4.2245ZM354.89 5.837C352.998 5.837 351.708 7.858 351.708 10.997C351.708 14.1575 352.998 16.2215 354.89 16.2215C356.761 16.2215 358.072 14.1575 358.072 10.997C358.072 7.858 356.761 5.837 354.89 5.837ZM362.867 2.741H364.673V22.177H362.867V2.741ZM364.243 10.5025H367.855V12.0075H364.243V10.5025ZM382.645 2.7195H384.451V22.177H382.645V2.7195ZM383.957 10.61H387.547V12.0935H383.957V10.61ZM377.679 4.8265H379.42C379.42 10.352 376.883 15.34 370.605 18.5005L369.616 17.1245C374.991 14.394 377.679 10.2445 377.679 5.106V4.8265ZM370.519 4.8265H378.603V6.2885H370.519V4.8265ZM402.445 2.7195H404.229V22.1985H402.445V2.7195ZM403.799 10.4595H407.411V11.9645H403.799V10.4595ZM390.061 16.028H391.609C395.264 16.028 397.801 15.899 400.746 15.34L400.94 16.8235C397.908 17.361 395.328 17.5115 391.609 17.5115H390.061V16.028ZM390.018 4.547H398.811V11.513H391.824V16.63H390.061V10.051H397.048V6.009H390.018V4.547ZM422.546 2.741H424.309V22.177H422.546V2.741ZM423.75 10.739H427.211V12.244H423.75V10.739ZM413.236 4.8265H414.87C414.87 9.5135 413.881 14.05 410.398 17.8125L408.958 16.802C412.161 13.4695 413.236 9.4275 413.236 5.02V4.8265ZM409.581 4.8265H413.903V6.31H409.581V4.8265ZM418.525 4.8265H420.181C420.181 9.535 419.514 14.867 415.945 19.1025L414.505 18.1135C417.794 14.308 418.525 9.492 418.525 4.9985V4.8265ZM415.494 4.8265H419.256V6.31H415.494V4.8265ZM433.982 5.5145H435.423V8.675C435.423 12.7815 432.95 16.9095 429.854 18.436L428.822 17.017C431.639 15.684 433.982 12.029 433.982 8.675V5.5145ZM434.326 5.5145H435.767V8.675C435.767 11.9645 438.11 15.3185 440.97 16.544L439.959 17.963C436.82 16.501 434.326 12.717 434.326 8.675V5.5145ZM429.467 4.719H440.325V6.224H429.467V4.719ZM442.948 2.741H444.732V22.177H442.948V2.741Z" fill="white"/>
<path d="M142.246 94.622H153.37V95.846H142.246V94.622ZM142.246 89.96H143.74V95.198H142.246V89.96ZM140.392 98.168H155.098V99.41H140.392V98.168ZM144.172 98.636H145.666V105.404H144.172V98.636ZM149.806 98.636H151.282V105.404H149.806V98.636ZM160.551 97.502H162.027V102.38H160.551V97.502ZM166.563 97.502H168.057V102.38H166.563V97.502ZM156.951 102.092H171.693V103.334H156.951V102.092ZM164.295 90.158C167.733 90.158 170.199 91.796 170.199 94.352C170.199 96.89 167.733 98.528 164.295 98.528C160.839 98.528 158.373 96.89 158.373 94.352C158.373 91.796 160.839 90.158 164.295 90.158ZM164.295 91.346C161.685 91.346 159.813 92.534 159.813 94.352C159.813 96.152 161.685 97.34 164.295 97.34C166.905 97.34 168.759 96.152 168.759 94.352C168.759 92.534 166.905 91.346 164.295 91.346ZM180.259 90.824H181.699C181.699 95.522 180.079 99.842 174.355 102.722L173.509 101.57C178.531 99.05 180.259 95.432 180.259 90.986V90.824ZM174.391 90.824H181.159V92.03H174.391V90.824ZM180.169 94.856V95.99L173.815 96.584L173.563 95.288L180.169 94.856ZM185.389 89.132H186.883V105.404H185.389V89.132ZM181.663 95.648H186.109V96.89H181.663V95.648ZM206.254 89.15H207.748V101.354H206.254V89.15ZM207.28 94.478H210.16V95.738H207.28V94.478ZM195.166 91.112H204.778V92.318H195.166V91.112ZM199.972 93.218C202.276 93.218 203.86 94.424 203.86 96.26C203.86 98.078 202.276 99.284 199.972 99.284C197.65 99.284 196.066 98.078 196.066 96.26C196.066 94.424 197.65 93.218 199.972 93.218ZM199.972 94.388C198.496 94.388 197.488 95.126 197.488 96.26C197.488 97.376 198.496 98.114 199.972 98.114C201.43 98.114 202.438 97.376 202.438 96.26C202.438 95.126 201.43 94.388 199.972 94.388ZM199.216 89.132H200.71V91.742H199.216V89.132ZM197.614 103.82H208.486V105.044H197.614V103.82ZM197.614 100.382H199.108V104.342H197.614V100.382ZM213.561 89.888H224.037V91.112H213.561V89.888ZM211.689 95.72H226.431V96.944H211.689V95.72ZM218.295 96.548H219.771V100.382H218.295V96.548ZM223.065 89.888H224.523V91.094C224.523 92.444 224.523 94.082 223.983 96.314L222.525 96.134C223.065 93.956 223.065 92.408 223.065 91.094V89.888ZM213.219 99.896H224.631V105.404H223.137V101.12H213.219V99.896ZM240.074 89.15H241.586V101.03H240.074V89.15ZM231.128 103.82H242.072V105.044H231.128V103.82ZM231.128 99.806H232.604V104.234H231.128V99.806ZM232.856 90.266C235.286 90.266 237.086 91.922 237.086 94.28C237.086 96.62 235.286 98.294 232.856 98.294C230.426 98.294 228.608 96.62 228.608 94.28C228.608 91.922 230.426 90.266 232.856 90.266ZM232.856 91.562C231.272 91.562 230.066 92.678 230.066 94.28C230.066 95.864 231.272 96.98 232.856 96.98C234.44 96.98 235.646 95.864 235.646 94.28C235.646 92.678 234.44 91.562 232.856 91.562ZM260.867 89.114H262.379V105.404H260.867V89.114ZM261.965 95.72H264.971V96.962H261.965V95.72ZM256.709 90.878H258.167C258.167 95.504 256.043 99.68 250.787 102.326L249.959 101.174C254.459 98.888 256.709 95.414 256.709 91.112V90.878ZM250.715 90.878H257.483V92.102H250.715V90.878ZM278.235 89.114H279.729V105.422H278.235V89.114ZM271.143 90.374C273.555 90.374 275.283 92.588 275.283 96.044C275.283 99.518 273.555 101.732 271.143 101.732C268.749 101.732 267.021 99.518 267.021 96.044C267.021 92.588 268.749 90.374 271.143 90.374ZM271.143 91.724C269.559 91.724 268.443 93.416 268.443 96.044C268.443 98.69 269.559 100.418 271.143 100.418C272.745 100.418 273.843 98.69 273.843 96.044C273.843 93.416 272.745 91.724 271.143 91.724ZM284.84 96.926H296.018V98.15H284.84V96.926ZM282.986 101.966H297.728V103.208H282.986V101.966ZM284.84 90.626H295.856V91.868H286.334V97.466H284.84V90.626ZM304.819 90.302C307.357 90.302 309.175 91.868 309.175 94.136C309.175 96.422 307.357 97.988 304.819 97.988C302.281 97.988 300.445 96.422 300.445 94.136C300.445 91.868 302.281 90.302 304.819 90.302ZM304.819 91.598C303.127 91.598 301.903 92.624 301.903 94.136C301.903 95.648 303.127 96.692 304.819 96.692C306.493 96.692 307.717 95.648 307.717 94.136C307.717 92.624 306.493 91.598 304.819 91.598ZM311.299 89.114H312.793V105.422H311.299V89.114ZM299.833 101.858L299.617 100.616C302.587 100.616 306.691 100.598 310.237 100.04L310.363 101.138C306.709 101.84 302.731 101.858 299.833 101.858ZM324.568 90.14H325.756V92.318C325.756 94.748 324.352 97.304 321.958 98.366L321.148 97.196C323.29 96.26 324.568 94.154 324.568 92.318V90.14ZM324.802 90.14H325.99V92.318C325.99 94.118 327.214 95.954 329.302 96.764L328.492 97.898C326.152 96.962 324.802 94.712 324.802 92.318V90.14ZM333.442 89.15H334.864V99.176H333.442V89.15ZM330.85 93.488H333.928V94.712H330.85V93.488ZM329.95 89.456H331.372V98.654H329.95V89.456ZM329.518 99.536C332.866 99.536 334.954 100.616 334.954 102.47C334.954 104.306 332.866 105.368 329.518 105.368C326.152 105.368 324.1 104.306 324.1 102.47C324.1 100.616 326.152 99.536 329.518 99.536ZM329.518 100.706C327.07 100.706 325.558 101.354 325.558 102.47C325.558 103.568 327.07 104.216 329.518 104.216C331.966 104.216 333.46 103.568 333.46 102.47C333.46 101.354 331.966 100.706 329.518 100.706ZM341.126 90.14H342.314V92.318C342.314 94.748 340.91 97.304 338.516 98.366L337.706 97.196C339.848 96.26 341.126 94.154 341.126 92.318V90.14ZM341.36 90.14H342.548V92.318C342.548 94.118 343.772 95.954 345.86 96.764L345.05 97.898C342.71 96.962 341.36 94.712 341.36 92.318V90.14ZM350 89.15H351.422V99.176H350V89.15ZM347.408 93.488H350.486V94.712H347.408V93.488ZM346.508 89.456H347.93V98.654H346.508V89.456ZM346.076 99.536C349.424 99.536 351.512 100.616 351.512 102.47C351.512 104.306 349.424 105.368 346.076 105.368C342.71 105.368 340.658 104.306 340.658 102.47C340.658 100.616 342.71 99.536 346.076 99.536ZM346.076 100.706C343.628 100.706 342.116 101.354 342.116 102.47C342.116 103.568 343.628 104.216 346.076 104.216C348.524 104.216 350.018 103.568 350.018 102.47C350.018 101.354 348.524 100.706 346.076 100.706ZM354.265 98.978H369.007V100.22H354.265V98.978ZM360.889 99.338H362.365V105.422H360.889V99.338ZM356.227 96.098H367.369V97.322H356.227V96.098ZM356.227 89.888H367.189V91.094H357.703V96.458H356.227V89.888ZM357.271 92.966H366.793V94.136H357.271V92.966ZM375.179 90.374C377.537 90.374 379.229 92.588 379.229 96.044C379.229 99.518 377.537 101.732 375.179 101.732C372.803 101.732 371.129 99.518 371.129 96.044C371.129 92.588 372.803 90.374 375.179 90.374ZM375.179 91.724C373.613 91.724 372.551 93.416 372.551 96.044C372.551 98.69 373.613 100.418 375.179 100.418C376.745 100.418 377.807 98.69 377.807 96.044C377.807 93.416 376.745 91.724 375.179 91.724ZM382.757 89.114H384.233V105.422H382.757V89.114ZM378.743 95.324H383.405V96.548H378.743V95.324Z" fill="white"/>
<path d="M127.562 91.792H120V105.681H134.12V97.656" stroke="white" stroke-width="1.8"/>
<path d="M122.315 95.8022L126.944 101.202L136.744 89.3193" stroke="white" stroke-width="1.8"/>
</g>
</g>
<defs>
<clipPath id="clip0_12160_18578">
<rect width="800" height="109" fill="white"/>
</clipPath>
</defs>
</svg>
