<svg width="345" height="47" viewBox="0 0 345 47" fill="none" xmlns="http://www.w3.org/2000/svg">
<g clip-path="url(#clip0_12160_18565)">
<mask id="mask0_12160_18565" style="mask-type:luminance" maskUnits="userSpaceOnUse" x="0" y="0" width="345" height="47">
<path d="M345 0H0V47H345V0Z" fill="white"/>
</mask>
<g mask="url(#mask0_12160_18565)">
<path d="M92.728 20.399H93.883V21.543C93.883 23.842 92.915 26.185 91.045 27.065L90.22 25.91C91.903 25.118 92.728 23.215 92.728 21.543V20.399ZM93.036 20.399H94.191V21.543C94.191 23.083 94.983 24.887 96.655 25.657L95.852 26.812C93.982 25.943 93.036 23.71 93.036 21.543V20.399ZM90.616 19.772H96.204V20.971H90.616V19.772ZM96.952 18.793H98.426V28.979H96.952V18.793ZM98.096 22.676H99.9V23.886H98.096V22.676ZM102.638 25.228H104.134V28.979H102.638V25.228ZM106.158 25.228H107.654V28.979H106.158V25.228ZM100.559 24.458H109.788V25.635H100.559V24.458ZM105.146 19.134C107.324 19.134 108.831 20.025 108.831 21.422C108.831 22.797 107.324 23.688 105.146 23.688C102.979 23.688 101.472 22.797 101.472 21.422C101.472 20.025 102.979 19.134 105.146 19.134ZM105.146 20.3C103.815 20.3 102.968 20.696 102.968 21.422C102.968 22.137 103.815 22.533 105.146 22.533C106.488 22.533 107.324 22.137 107.324 21.422C107.324 20.696 106.488 20.3 105.146 20.3ZM115.232 20.872H118.004V22.049H115.232V20.872ZM115.232 24.029H118.004V25.206H115.232V24.029ZM113.472 19.497C114.99 19.497 116.101 20.905 116.101 23.127C116.101 25.371 114.99 26.779 113.472 26.779C111.943 26.779 110.843 25.371 110.843 23.127C110.843 20.905 111.943 19.497 113.472 19.497ZM113.472 20.828C112.735 20.828 112.229 21.631 112.229 23.127C112.229 24.645 112.735 25.459 113.472 25.459C114.22 25.459 114.715 24.645 114.715 23.127C114.715 21.631 114.22 20.828 113.472 20.828ZM117.773 18.782H119.225V29.001H117.773V18.782ZM128.09 18.793H129.476V25.173H128.09V18.793ZM126.847 21.301H128.475V22.489H126.847V21.301ZM125.978 18.991H127.342V24.843H125.978V18.991ZM120.753 19.838H125.692V20.96H120.753V19.838ZM123.239 21.29C124.515 21.29 125.439 22.016 125.439 23.072C125.439 24.128 124.515 24.843 123.239 24.843C121.963 24.843 121.039 24.128 121.039 23.072C121.039 22.016 121.963 21.29 123.239 21.29ZM123.239 22.335C122.7 22.335 122.337 22.599 122.337 23.072C122.337 23.545 122.7 23.809 123.239 23.809C123.767 23.809 124.13 23.545 124.13 23.072C124.13 22.599 123.767 22.335 123.239 22.335ZM122.502 18.892H123.943V20.608H122.502V18.892ZM126.033 25.283C128.211 25.283 129.531 25.943 129.531 27.131C129.531 28.308 128.211 28.979 126.033 28.979C123.844 28.979 122.524 28.308 122.524 27.131C122.524 25.943 123.844 25.283 126.033 25.283ZM126.033 26.372C124.669 26.372 123.987 26.603 123.987 27.131C123.987 27.648 124.669 27.89 126.033 27.89C127.386 27.89 128.068 27.648 128.068 27.131C128.068 26.603 127.386 26.372 126.033 26.372ZM138.21 18.793H139.596V24.755H138.21V18.793ZM136.967 21.136H138.595V22.324H136.967V21.136ZM135.988 18.98H137.352V24.722H135.988V18.98ZM132.534 25.173H139.596V28.979H138.144V26.339H132.534V25.173ZM133.865 19.497H135.328C135.328 22.071 134.129 23.787 131.489 24.821L130.807 23.754C132.974 22.951 133.865 21.719 133.865 20.047V19.497ZM131.291 19.497H134.338V20.663H131.291V19.497ZM145.106 22.544H146.778V23.721H145.106V22.544ZM148.395 18.793H149.792V28.979H148.395V18.793ZM146.316 18.947H147.691V28.517H146.316V18.947ZM143.324 19.508C144.677 19.508 145.546 20.905 145.546 23.204C145.546 25.514 144.677 26.911 143.324 26.911C141.982 26.911 141.124 25.514 141.124 23.204C141.124 20.905 141.982 19.508 143.324 19.508ZM143.324 20.883C142.774 20.883 142.455 21.653 142.455 23.204C142.455 24.766 142.774 25.525 143.324 25.525C143.896 25.525 144.215 24.766 144.215 23.204C144.215 21.653 143.896 20.883 143.324 20.883ZM158.376 19.211H161.192V20.366H158.376V19.211ZM153.723 23.424H162.897V24.59H153.723V23.424ZM157.76 21.642H159.201V23.919H157.76V21.642ZM160.598 19.211H162.017V19.849C162.017 20.564 162.017 21.543 161.698 22.797L160.279 22.632C160.598 21.4 160.598 20.542 160.598 19.849V19.211ZM154.702 25.393H161.753V28.935H160.29V26.559H154.702V25.393ZM154.449 19.211H156.88V20.366H154.449V19.211ZM156.187 19.211H157.606V19.651C157.606 20.311 157.606 21.4 157.078 22.808L155.67 22.61C156.187 21.169 156.187 20.256 156.187 19.651V19.211ZM166.663 19.442H171.514V23.93H166.663V19.442ZM170.073 20.597H168.104V22.775H170.073V20.597ZM172.922 18.793H174.385V24.491H172.922V18.793ZM173.978 21.004H175.738V22.192H173.978V21.004ZM170.326 25.514H171.558V25.756C171.558 27.34 170.249 28.627 167.785 28.946L167.257 27.835C169.38 27.582 170.326 26.636 170.326 25.756V25.514ZM170.645 25.514H171.888V25.756C171.888 26.603 172.856 27.582 174.946 27.857L174.429 28.968C171.965 28.649 170.645 27.296 170.645 25.756V25.514ZM167.686 24.975H174.517V26.119H167.686V24.975ZM177.629 21.543H184.691V22.698H177.629V21.543ZM176.485 23.754H185.714V24.92H176.485V23.754ZM177.629 19.156H179.081V22.115H177.629V19.156ZM177.53 27.593H184.746V28.759H177.53V27.593ZM177.53 25.734H178.993V27.901H177.53V25.734ZM188.637 26.9062L188.594 27.3359C188.56 27.6797 188.495 28.0221 188.398 28.3633C188.305 28.707 188.206 29.0182 188.102 29.2969C188 29.5755 187.918 29.7943 187.855 29.9531H186.777C186.816 29.7995 186.87 29.5846 186.938 29.3086C187.005 29.0352 187.069 28.7279 187.129 28.3867C187.189 28.0456 187.227 27.6979 187.242 27.3437L187.262 26.9062H188.637ZM192.652 25.036H193.666C195.694 25.036 197.241 25.01 199.035 24.724L199.191 26.102C197.371 26.388 195.733 26.44 193.666 26.44H192.652V25.036ZM192.652 18.12H198.307V19.524H194.394V25.491H192.652V18.12ZM193.978 21.461H198.138V22.813H193.978V21.461ZM199.88 17.119H201.622V29.157H199.88V17.119ZM201.232 21.682H203.364V23.112H201.232V21.682ZM204.741 18.198H210.526V26.297H204.741V18.198ZM208.836 19.55H206.444V24.932H208.836V19.55ZM212.398 17.106H214.14V29.183H212.398V17.106ZM220.574 17.808H222.082V18.679C222.082 21.292 220.223 23.606 217.103 24.217L216.362 22.787C219.079 22.319 220.574 20.408 220.574 18.679V17.808ZM220.925 17.808H222.42V18.679C222.42 20.447 223.902 22.319 226.632 22.787L225.891 24.217C222.771 23.606 220.925 21.331 220.925 18.679V17.808ZM216.115 26.284H227.009V27.688H216.115V26.284ZM231.07 24.256H241.964V25.66H231.07V24.256ZM235.646 24.75H237.362V29.17H235.646V24.75ZM232.422 22.02H240.833V23.385H232.422V22.02ZM232.422 17.6H240.703V18.952H234.125V22.345H232.422V17.6ZM233.644 19.823H240.443V21.136H233.644V19.823ZM246.331 17.951C248.125 17.951 249.438 19.615 249.438 22.241C249.438 24.893 248.125 26.557 246.331 26.557C244.524 26.557 243.224 24.893 243.224 22.241C243.224 19.615 244.524 17.951 246.331 17.951ZM246.331 19.524C245.46 19.524 244.875 20.473 244.875 22.241C244.875 24.035 245.46 24.997 246.331 24.997C247.215 24.997 247.787 24.035 247.787 22.241C247.787 20.473 247.215 19.524 246.331 19.524ZM251.414 17.106H253.13V29.183H251.414V17.106ZM248.931 21.448H252.142V22.839H248.931V21.448Z" fill="white"/>
<path d="M91.63 3.855H94.073V6.725H91.63V3.855ZM93.527 4.303H92.169V6.263H93.527V4.303ZM96.124 3.225H96.677V7.936H96.124V3.225ZM95.109 5.08H96.299V5.563H95.109V5.08ZM94.766 3.337H95.319V7.712H94.766V3.337ZM92.554 8.93H96.873V9.406H92.554V8.93ZM92.554 7.362H93.135V9.168H92.554V7.362ZM102.073 3.218H102.654V9.546H102.073V3.218ZM102.514 5.815H103.69V6.305H102.514V5.815ZM97.7545 4.226H101.485V4.702H97.7545V4.226ZM99.6445 5.227C100.54 5.227 101.184 5.829 101.184 6.683C101.184 7.537 100.54 8.139 99.6445 8.139C98.7555 8.139 98.1045 7.537 98.1045 6.683C98.1045 5.829 98.7555 5.227 99.6445 5.227ZM99.6445 5.71C99.0705 5.71 98.6575 6.109 98.6575 6.683C98.6575 7.25 99.0705 7.656 99.6445 7.656C100.218 7.656 100.631 7.25 100.631 6.683C100.631 6.109 100.218 5.71 99.6445 5.71ZM99.3435 3.295H99.9245V4.443H99.3435V3.295ZM104.516 6.473H104.999C106.273 6.473 106.98 6.445 107.82 6.291L107.883 6.76C107.022 6.914 106.294 6.942 104.999 6.942H104.516V6.473ZM104.516 3.722H107.407V4.198H105.09V6.627H104.516V3.722ZM104.908 5.073H107.288V5.535H104.908V5.073ZM108.555 3.211H109.136V7.908H108.555V3.211ZM108.954 5.185H110.074V5.668H108.954V5.185ZM105.195 8.93H109.423V9.406H105.195V8.93ZM105.195 7.488H105.776V9.189H105.195V7.488ZM113.351 3.631H117.306V4.1H113.351V3.631ZM112.637 6.347H118.356V6.823H112.637V6.347ZM115.192 6.662H115.773V9.553H115.192V6.662ZM117.033 3.631H117.6V4.177C117.6 4.835 117.6 5.577 117.362 6.648L116.788 6.571C117.033 5.549 117.033 4.814 117.033 4.177V3.631ZM122.325 4.541H123.823V5.024H122.325V4.541ZM120.652 3.54H121.128V4.198C121.128 5.416 120.449 6.417 119.385 6.823L119.084 6.361C120.036 6.011 120.652 5.164 120.652 4.198V3.54ZM120.757 3.54H121.226V4.226C121.226 5.094 121.856 5.906 122.766 6.228L122.458 6.683C121.443 6.298 120.757 5.339 120.757 4.226V3.54ZM120.057 7.306H124.278V9.546H123.697V7.775H120.057V7.306ZM123.697 3.218H124.278V6.956H123.697V3.218ZM126.23 3.631H130.185V4.1H126.23V3.631ZM125.516 6.347H131.235V6.823H125.516V6.347ZM128.071 6.662H128.652V9.553H128.071V6.662ZM129.912 3.631H130.479V4.177C130.479 4.835 130.479 5.577 130.241 6.648L129.667 6.571C129.912 5.549 129.912 4.814 129.912 4.177V3.631ZM135.203 4.541H136.701V5.024H135.203V4.541ZM133.53 3.54H134.006V4.198C134.006 5.416 133.327 6.417 132.263 6.823L131.962 6.361C132.914 6.011 133.53 5.164 133.53 4.198V3.54ZM133.635 3.54H134.104V4.226C134.104 5.094 134.734 5.906 135.644 6.228L135.336 6.683C134.321 6.298 133.635 5.339 133.635 4.226V3.54ZM132.935 7.306H137.156V9.546H136.575V7.775H132.935V7.306ZM136.575 3.218H137.156V6.956H136.575V3.218ZM138.388 6.963H144.128V7.439H138.388V6.963ZM140.95 7.187H141.524V9.546H140.95V7.187ZM139.109 3.47H139.69V4.338H142.819V3.47H143.393V6.207H139.109V3.47ZM139.69 4.807V5.738H142.819V4.807H139.69ZM149.468 3.211H150.042V9.553H149.468V3.211ZM148.152 5.598H149.552V6.081H148.152V5.598ZM145.121 7.551H145.604C146.794 7.551 147.543 7.53 148.432 7.362L148.488 7.838C147.578 7.999 146.808 8.034 145.604 8.034H145.121V7.551ZM145.121 3.792H148.047V4.275H145.695V7.719H145.121V3.792ZM145.548 5.57H147.774V6.039H145.548V5.57ZM157.947 5.738H159.116V6.228H157.947V5.738ZM157.52 3.211H158.108V9.546H157.52V3.211ZM153.488 3.834H154.069V7.754H153.488V3.834ZM153.488 7.453H153.992C154.93 7.453 155.889 7.39 156.932 7.173L157.002 7.656C155.924 7.88 154.951 7.943 153.992 7.943H153.488V7.453ZM164.274 3.211H164.855V9.553H164.274V3.211ZM161.516 3.701C162.454 3.701 163.126 4.562 163.126 5.906C163.126 7.257 162.454 8.118 161.516 8.118C160.585 8.118 159.913 7.257 159.913 5.906C159.913 4.562 160.585 3.701 161.516 3.701ZM161.516 4.226C160.9 4.226 160.466 4.884 160.466 5.906C160.466 6.935 160.9 7.607 161.516 7.607C162.139 7.607 162.566 6.935 162.566 5.906C162.566 4.884 162.139 4.226 161.516 4.226ZM167.801 3.701C168.732 3.701 169.39 4.562 169.39 5.906C169.39 7.257 168.732 8.118 167.801 8.118C166.87 8.118 166.212 7.257 166.212 5.906C166.212 4.562 166.87 3.701 167.801 3.701ZM167.801 4.226C167.185 4.226 166.765 4.884 166.765 5.906C166.765 6.935 167.185 7.607 167.801 7.607C168.41 7.607 168.837 6.935 168.837 5.906C168.837 4.884 168.41 4.226 167.801 4.226ZM170.398 3.218H170.986V9.546H170.398V3.218ZM170.846 5.745H172.022V6.235H170.846V5.745ZM176.838 3.211H177.426V9.546H176.838V3.211ZM177.265 5.78H178.434V6.263H177.265V5.78ZM175.221 3.897H175.788C175.788 5.696 174.962 7.32 172.918 8.349L172.596 7.901C174.346 7.012 175.221 5.661 175.221 3.988V3.897ZM172.89 3.897H175.522V4.373H172.89V3.897ZM183.284 3.211H183.865V9.553H183.284V3.211ZM183.725 5.731H184.901V6.221H183.725V5.731ZM179.252 7.544H179.756C180.946 7.544 181.772 7.502 182.731 7.32L182.794 7.803C181.807 7.978 180.967 8.027 179.756 8.027H179.252V7.544ZM179.238 3.806H182.101V6.074H179.826V7.74H179.252V5.598H181.527V4.282H179.238V3.806ZM189.829 3.218H190.403V9.546H189.829V3.218ZM190.221 5.822H191.348V6.312H190.221V5.822ZM186.798 3.897H187.33C187.33 5.423 187.008 6.9 185.874 8.125L185.405 7.796C186.448 6.711 186.798 5.395 186.798 3.96V3.897ZM185.608 3.897H187.015V4.38H185.608V3.897ZM188.52 3.897H189.059C189.059 5.43 188.842 7.166 187.68 8.545L187.211 8.223C188.282 6.984 188.52 5.416 188.52 3.953V3.897ZM187.533 3.897H188.758V4.38H187.533V3.897ZM193.552 4.121H194.021V5.15C194.021 6.487 193.216 7.831 192.208 8.328L191.872 7.866C192.789 7.432 193.552 6.242 193.552 5.15V4.121ZM193.664 4.121H194.133V5.15C194.133 6.221 194.896 7.313 195.827 7.712L195.498 8.174C194.476 7.698 193.664 6.466 193.664 5.15V4.121ZM192.082 3.862H195.617V4.352H192.082V3.862ZM196.471 3.218H197.052V9.546H196.471V3.218Z" fill="white"/>
<path d="M100.311 39.5393H104.328V39.9813H100.311V39.5393ZM100.311 37.8558H100.851V39.7473H100.311V37.8558ZM99.6419 40.8198H104.952V41.2683H99.6419V40.8198ZM101.007 40.9888H101.546V43.4328H101.007V40.9888ZM103.041 40.9888H103.574V43.4328H103.041V40.9888ZM106.921 40.5793H107.454V42.3408H106.921V40.5793ZM109.092 40.5793H109.632V42.3408H109.092V40.5793ZM105.621 42.2368H110.945V42.6853H105.621V42.2368ZM108.273 37.9273C109.515 37.9273 110.405 38.5188 110.405 39.4418C110.405 40.3583 109.515 40.9498 108.273 40.9498C107.025 40.9498 106.135 40.3583 106.135 39.4418C106.135 38.5188 107.025 37.9273 108.273 37.9273ZM108.273 38.3563C107.331 38.3563 106.655 38.7853 106.655 39.4418C106.655 40.0918 107.331 40.5208 108.273 40.5208C109.216 40.5208 109.885 40.0918 109.885 39.4418C109.885 38.7853 109.216 38.3563 108.273 38.3563ZM114.038 38.1678H114.558C114.558 39.8643 113.973 41.4243 111.906 42.4643L111.601 42.0483C113.414 41.1383 114.038 39.8318 114.038 38.2263V38.1678ZM111.919 38.1678H114.363V38.6033H111.919V38.1678ZM114.006 39.6238V40.0333L111.711 40.2478L111.62 39.7798L114.006 39.6238ZM115.891 37.5568H116.43V43.4328H115.891V37.5568ZM114.545 39.9098H116.151V40.3583H114.545V39.9098ZM123.425 37.5633H123.965V41.9703H123.425V37.5633ZM123.796 39.4873H124.836V39.9423H123.796V39.4873ZM119.421 38.2718H122.892V38.7073H119.421V38.2718ZM121.157 39.0323C121.989 39.0323 122.561 39.4678 122.561 40.1308C122.561 40.7873 121.989 41.2228 121.157 41.2228C120.318 41.2228 119.746 40.7873 119.746 40.1308C119.746 39.4678 120.318 39.0323 121.157 39.0323ZM121.157 39.4548C120.624 39.4548 120.26 39.7213 120.26 40.1308C120.26 40.5338 120.624 40.8003 121.157 40.8003C121.683 40.8003 122.047 40.5338 122.047 40.1308C122.047 39.7213 121.683 39.4548 121.157 39.4548ZM120.884 37.5568H121.423V38.4993H120.884V37.5568ZM120.305 42.8608H124.231V43.3028H120.305V42.8608ZM120.305 41.6193H120.845V43.0493H120.305V41.6193ZM126.064 37.8298H129.847V38.2718H126.064V37.8298ZM125.388 39.9358H130.711V40.3778H125.388V39.9358ZM127.773 40.2348H128.306V41.6193H127.773V40.2348ZM129.496 37.8298H130.022V38.2653C130.022 38.7528 130.022 39.3443 129.827 40.1503L129.301 40.0853C129.496 39.2988 129.496 38.7398 129.496 38.2653V37.8298ZM125.94 41.4438H130.061V43.4328H129.522V41.8858H125.94V41.4438ZM135.638 37.5633H136.184V41.8533H135.638V37.5633ZM132.407 42.8608H136.359V43.3028H132.407V42.8608ZM132.407 41.4113H132.94V43.0103H132.407V41.4113ZM133.031 37.9663C133.909 37.9663 134.559 38.5643 134.559 39.4158C134.559 40.2608 133.909 40.8653 133.031 40.8653C132.154 40.8653 131.497 40.2608 131.497 39.4158C131.497 38.5643 132.154 37.9663 133.031 37.9663ZM133.031 38.4343C132.459 38.4343 132.024 38.8373 132.024 39.4158C132.024 39.9878 132.459 40.3908 133.031 40.3908C133.603 40.3908 134.039 39.9878 134.039 39.4158C134.039 38.8373 133.603 38.4343 133.031 38.4343ZM143.147 37.5503H143.693V43.4328H143.147V37.5503ZM143.543 39.9358H144.629V40.3843H143.543V39.9358ZM141.645 38.1873H142.172C142.172 39.8578 141.405 41.3658 139.507 42.3213L139.208 41.9053C140.833 41.0798 141.645 39.8253 141.645 38.2718V38.1873ZM139.481 38.1873H141.925V38.6293H139.481V38.1873ZM149.419 37.5503H149.958V43.4393H149.419V37.5503ZM146.858 38.0053C147.729 38.0053 148.353 38.8048 148.353 40.0528C148.353 41.3073 147.729 42.1068 146.858 42.1068C145.993 42.1068 145.369 41.3073 145.369 40.0528C145.369 38.8048 145.993 38.0053 146.858 38.0053ZM146.858 38.4928C146.286 38.4928 145.883 39.1038 145.883 40.0528C145.883 41.0083 146.286 41.6323 146.858 41.6323C147.436 41.6323 147.833 41.0083 147.833 40.0528C147.833 39.1038 147.436 38.4928 146.858 38.4928ZM151.804 40.3713H155.84V40.8133H151.804V40.3713ZM151.134 42.1913H156.458V42.6398H151.134V42.1913ZM151.804 38.0963H155.782V38.5448H152.343V40.5663H151.804V38.0963ZM159.018 37.9793C159.935 37.9793 160.591 38.5448 160.591 39.3638C160.591 40.1893 159.935 40.7548 159.018 40.7548C158.102 40.7548 157.439 40.1893 157.439 39.3638C157.439 38.5448 158.102 37.9793 159.018 37.9793ZM159.018 38.4473C158.407 38.4473 157.965 38.8178 157.965 39.3638C157.965 39.9098 158.407 40.2868 159.018 40.2868C159.623 40.2868 160.065 39.9098 160.065 39.3638C160.065 38.8178 159.623 38.4473 159.018 38.4473ZM161.358 37.5503H161.898V43.4393H161.358V37.5503ZM157.218 42.1523L157.14 41.7038C158.212 41.7038 159.694 41.6973 160.975 41.4958L161.02 41.8923C159.701 42.1458 158.264 42.1523 157.218 42.1523ZM166.15 37.9208H166.579V38.7073C166.579 39.5848 166.072 40.5078 165.207 40.8913L164.915 40.4688C165.688 40.1308 166.15 39.3703 166.15 38.7073V37.9208ZM166.234 37.9208H166.663V38.7073C166.663 39.3573 167.105 40.0203 167.859 40.3128L167.567 40.7223C166.722 40.3843 166.234 39.5718 166.234 38.7073V37.9208ZM169.354 37.5633H169.868V41.1838H169.354V37.5633ZM168.418 39.1298H169.53V39.5718H168.418V39.1298ZM168.093 37.6738H168.607V40.9953H168.093V37.6738ZM167.937 41.3138C169.146 41.3138 169.9 41.7038 169.9 42.3733C169.9 43.0363 169.146 43.4198 167.937 43.4198C166.722 43.4198 165.981 43.0363 165.981 42.3733C165.981 41.7038 166.722 41.3138 167.937 41.3138ZM167.937 41.7363C167.053 41.7363 166.507 41.9703 166.507 42.3733C166.507 42.7698 167.053 43.0038 167.937 43.0038C168.821 43.0038 169.361 42.7698 169.361 42.3733C169.361 41.9703 168.821 41.7363 167.937 41.7363ZM172.129 37.9208H172.558V38.7073C172.558 39.5848 172.051 40.5078 171.187 40.8913L170.894 40.4688C171.668 40.1308 172.129 39.3703 172.129 38.7073V37.9208ZM172.214 37.9208H172.643V38.7073C172.643 39.3573 173.085 40.0203 173.839 40.3128L173.546 40.7223C172.701 40.3843 172.214 39.5718 172.214 38.7073V37.9208ZM175.334 37.5633H175.847V41.1838H175.334V37.5633ZM174.398 39.1298H175.509V39.5718H174.398V39.1298ZM174.073 37.6738H174.586V40.9953H174.073V37.6738ZM173.917 41.3138C175.126 41.3138 175.88 41.7038 175.88 42.3733C175.88 43.0363 175.126 43.4198 173.917 43.4198C172.701 43.4198 171.96 43.0363 171.96 42.3733C171.96 41.7038 172.701 41.3138 173.917 41.3138ZM173.917 41.7363C173.033 41.7363 172.487 41.9703 172.487 42.3733C172.487 42.7698 173.033 43.0038 173.917 43.0038C174.801 43.0038 175.34 42.7698 175.34 42.3733C175.34 41.9703 174.801 41.7363 173.917 41.7363ZM176.874 41.1123H182.197V41.5608H176.874V41.1123ZM179.266 41.2423H179.799V43.4393H179.266V41.2423ZM177.582 40.0723H181.606V40.5143H177.582V40.0723ZM177.582 37.8298H181.541V38.2653H178.115V40.2023H177.582V37.8298ZM177.959 38.9413H181.398V39.3638H177.959V38.9413ZM184.426 38.0053C185.278 38.0053 185.889 38.8048 185.889 40.0528C185.889 41.3073 185.278 42.1068 184.426 42.1068C183.568 42.1068 182.964 41.3073 182.964 40.0528C182.964 38.8048 183.568 38.0053 184.426 38.0053ZM184.426 38.4928C183.861 38.4928 183.477 39.1038 183.477 40.0528C183.477 41.0083 183.861 41.6323 184.426 41.6323C184.992 41.6323 185.375 41.0083 185.375 40.0528C185.375 39.1038 184.992 38.4928 184.426 38.4928ZM187.163 37.5503H187.696V43.4393H187.163V37.5503ZM185.713 39.7928H187.397V40.2348H185.713V39.7928Z" fill="white"/>
<path d="M94.585 38.4053H91.585V43.9153H97.1851V40.7322" stroke="white"/>
<path d="M92.5044 39.9951L94.3413 42.1372L98.228 37.4243" stroke="white"/>
</g>
</g>
<defs>
<clipPath id="clip0_12160_18565">
<rect width="345" height="47" fill="white"/>
</clipPath>
</defs>
</svg>
