<svg width="800" height="109" viewBox="0 0 800 109" fill="none" xmlns="http://www.w3.org/2000/svg">
<g clip-path="url(#clip0_12135_18540)">
<mask id="mask0_12135_18540" style="mask-type:luminance" maskUnits="userSpaceOnUse" x="0" y="0" width="800" height="109">
<path d="M800 0H0V109H800V0Z" fill="white"/>
</mask>
<g mask="url(#mask0_12135_18540)">
<path d="M91.888 60.336H94.852C100.78 60.336 105.302 60.26 110.546 59.424L111.002 63.452C105.682 64.288 100.894 64.44 94.852 64.44H91.888V60.336ZM91.888 40.12H108.418V44.224H96.98V61.666H91.888V40.12ZM95.764 49.886H107.924V53.838H95.764V49.886ZM113.016 37.194H118.108V72.382H113.016V37.194ZM116.968 50.532H123.2V54.712H116.968V50.532ZM127.225 40.348H144.135V64.022H127.225V40.348ZM139.195 44.3H132.203V60.032H139.195V44.3ZM149.607 37.156H154.699V72.458H149.607V37.156ZM173.506 39.208H177.914V41.754C177.914 49.392 172.48 56.156 163.36 57.942L161.194 53.762C169.136 52.394 173.506 46.808 173.506 41.754V39.208ZM174.532 39.208H178.902V41.754C178.902 46.922 183.234 52.394 191.214 53.762L189.048 57.942C179.928 56.156 174.532 49.506 174.532 41.754V39.208ZM160.472 63.984H192.316V68.088H160.472V63.984ZM228.354 37.232H233.446V62.502H228.354V37.232ZM210 67.746H234.32V71.774H210V67.746ZM210 59.956H215.054V69.38H210V59.956ZM214.294 39.436C219.69 39.436 223.832 43.16 223.832 48.366C223.832 53.534 219.69 57.296 214.294 57.296C208.898 57.296 204.718 53.534 204.718 48.366C204.718 43.16 208.898 39.436 214.294 39.436ZM214.294 43.806C211.672 43.806 209.658 45.478 209.658 48.366C209.658 51.216 211.672 52.888 214.294 52.888C216.878 52.888 218.892 51.216 218.892 48.366C218.892 45.478 216.878 43.806 214.294 43.806ZM263.387 37.194H268.479V72.382H263.387V37.194ZM253.013 40.842H258.029C258.029 51.596 254.381 60.412 241.879 66.454L239.257 62.426C249.365 57.562 253.013 51.178 253.013 41.754V40.842ZM241.119 40.842H255.407V44.832H241.119V40.842ZM290.609 39.094H294.751V42.21C294.751 49.202 291.711 55.358 285.023 57.676L282.325 53.686C288.215 51.71 290.609 46.998 290.609 42.21V39.094ZM291.635 39.094H295.739V42.704C295.739 46.922 298.095 51.026 303.605 52.736L300.983 56.65C294.637 54.522 291.635 49.05 291.635 42.704V39.094ZM305.543 37.194H310.597V57.98H305.543V37.194ZM309.191 45.326H315.271V49.506H309.191V45.326ZM299.121 58.778C306.417 58.778 311.015 61.324 311.015 65.58C311.015 69.874 306.417 72.382 299.121 72.382C291.787 72.382 287.189 69.874 287.189 65.58C287.189 61.324 291.787 58.778 299.121 58.778ZM299.121 62.692C294.637 62.692 292.205 63.642 292.205 65.58C292.205 67.556 294.637 68.468 299.121 68.468C303.605 68.468 305.999 67.556 305.999 65.58C305.999 63.642 303.605 62.692 299.121 62.692ZM331.228 56.536H336.282V61.894H331.228V56.536ZM317.852 53.648H349.658V57.638H317.852V53.648ZM320.626 38.144H346.846V42.172H320.626V38.144ZM320.892 47.454H346.58V51.482H320.892V47.454ZM325.11 39.626H330.164V50.076H325.11V39.626ZM337.308 39.626H342.362V50.076H337.308V39.626ZM321.538 60.564H345.858V72.002H321.538V60.564ZM340.918 64.478H326.516V68.012H340.918V64.478ZM359.831 65.2216L359.683 66.706C359.566 67.8935 359.341 69.0765 359.008 70.255C358.684 71.4425 358.342 72.5175 357.982 73.4801C357.631 74.4427 357.348 75.1984 357.132 75.7472H353.408C353.543 75.2164 353.727 74.4742 353.961 73.5206C354.195 72.576 354.415 71.5144 354.622 70.3359C354.829 69.1574 354.96 67.9564 355.013 66.733L355.081 65.2216H359.831ZM376.443 36.578H395.578V63.367H376.443V36.578ZM389.988 41.05H382.076V58.852H389.988V41.05ZM401.77 32.966H407.532V72.913H401.77V32.966ZM429.115 33.224H433.931V33.955C433.931 40.62 427.954 45.866 417.677 46.984L415.785 42.684C424.772 41.781 429.115 37.825 429.115 33.955V33.224ZM430.104 33.224H434.963V33.955C434.963 37.825 439.306 41.781 448.25 42.684L446.358 46.984C436.081 45.866 430.104 40.62 430.104 33.955V33.224ZM429.115 52.101H434.834V57.648H429.115V52.101ZM414.022 48.618H450.013V53.09H414.022V48.618ZM418.15 55.67H445.67V65.99H423.826V69.43H418.193V62.034H440.037V59.927H418.15V55.67ZM418.193 68.269H446.702V72.569H418.193V68.269ZM455.341 35.89H472.369V40.491H455.341V35.89ZM460.243 45.178H465.919V55.154H460.243V45.178ZM470.133 35.89H475.766V38.384C475.766 41.179 475.766 45.135 474.82 50.08L469.273 49.478C470.133 44.576 470.133 41.136 470.133 38.384V35.89ZM479.636 33.009H485.398V62.808H479.636V33.009ZM483.119 45.135H490.128V49.822H483.119V45.135ZM458.824 67.581H486.645V72.139H458.824V67.581ZM458.824 60.142H464.543V69H458.824V60.142ZM453.535 57.476L453.019 52.961C459.899 52.961 469.488 52.832 477.486 51.714L477.83 55.756C469.617 57.304 460.372 57.476 453.535 57.476ZM507.301 50.768H535.294V55.326H507.301V50.768ZM503.13 63.668H539.164V68.355H503.13V63.668ZM518.223 52.832H523.942V65.173H518.223V52.832ZM507.301 35.718H534.993V40.319H513.02V52.746H507.301V35.718ZM542.644 53.047H578.635V57.648H542.644V53.047ZM546.987 67.581H574.593V72.139H546.987V67.581ZM546.987 60.486H552.706V69H546.987V60.486ZM557.737 34.127H562.639V35.374C562.639 42.77 556.748 49.134 546.643 50.725L544.45 46.21C553.265 44.92 557.737 39.932 557.737 35.374V34.127ZM558.683 34.127H563.585V35.374C563.585 39.889 568.057 44.92 576.829 46.21L574.636 50.725C564.531 49.134 558.683 42.77 558.683 35.374V34.127ZM586.457 53.52H614.45V57.992H586.457V53.52ZM582.243 63.625H618.277V68.269H582.243V63.625ZM586.457 35.89H614.106V40.491H592.262V54.767H586.457V35.89ZM590.499 44.662H613.203V49.091H590.499V44.662ZM631.709 56.616H667.743V61.26H631.709V56.616ZM646.845 58.25H652.521V72.87H646.845V58.25ZM636.181 49.22H664.002V53.735H636.181V49.22ZM636.181 34.6H663.572V39.072H641.814V50.295H636.181V34.6ZM640.223 41.953H662.712V46.296H640.223V41.953ZM682.188 35.761C688.122 35.761 692.465 41.265 692.465 49.951C692.465 58.723 688.122 64.227 682.188 64.227C676.211 64.227 671.911 58.723 671.911 49.951C671.911 41.265 676.211 35.761 682.188 35.761ZM682.188 40.964C679.307 40.964 677.372 44.103 677.372 49.951C677.372 55.885 679.307 59.067 682.188 59.067C685.112 59.067 687.004 55.885 687.004 49.951C687.004 44.103 685.112 40.964 682.188 40.964ZM699.001 32.966H704.677V72.913H699.001V32.966ZM690.788 47.328H701.409V51.929H690.788V47.328Z" fill="white"/>
<path d="M95.235 4.2245C98.0945 4.2245 100.116 6.869 100.116 10.997C100.116 15.1465 98.0945 17.791 95.235 17.791C92.3755 17.791 90.3545 15.1465 90.3545 10.997C90.3545 6.869 92.3755 4.2245 95.235 4.2245ZM95.235 5.837C93.343 5.837 92.053 7.858 92.053 10.997C92.053 14.1575 93.343 16.2215 95.235 16.2215C97.1055 16.2215 98.417 14.1575 98.417 10.997C98.417 7.858 97.1055 5.837 95.235 5.837ZM103.212 2.741H105.018V22.177H103.212V2.741ZM104.588 10.5025H108.2V12.0075H104.588V10.5025ZM112.218 8.5675H125.419V10.0295H112.218V8.5675ZM109.832 12.631H127.462V14.093H109.832V12.631ZM112.218 3.4505H113.981V9.2985H112.218V3.4505ZM112.089 20.242H125.527V21.704H112.089V20.242ZM112.089 16.028H113.852V20.629H112.089V16.028ZM130.427 4.4825H139.35V13.491H130.427V4.4825ZM137.608 5.923H132.169V12.0505H137.608V5.923ZM142.919 2.7195H144.703V16.974H142.919V2.7195ZM144.144 8.6535H147.584V10.137H144.144V8.6535ZM132.599 20.285H145.585V21.747H132.599V20.285ZM132.599 15.6195H134.383V20.9085H132.599V15.6195ZM151.646 3.558H164.159V5.02H151.646V3.558ZM149.388 11.6205H167.018V13.0825H149.388V11.6205ZM162.998 3.558H164.739V5.149C164.739 6.9765 164.739 9.148 164.094 12.1795L162.353 11.9645C162.998 9.062 162.998 6.955 162.998 5.149V3.558ZM163.492 7.2775V8.6105L151.409 9.148L151.151 7.686L163.492 7.2775ZM151.56 15.3185H164.804V21.919H151.56V15.3185ZM163.062 16.7375H153.301V20.4785H163.062V16.7375ZM175.235 18.221H192.844V19.7045H175.235V18.221ZM183.104 13.577H184.889V18.651H183.104V13.577ZM177.299 4.117H179.062V7.5785H188.974V4.117H190.737V14.05H177.299V4.117ZM179.062 9.019V12.588H188.974V9.019H179.062ZM209.117 2.7195H210.902V22.1985H209.117V2.7195ZM200.646 4.2245C203.527 4.2245 205.591 6.869 205.591 10.997C205.591 15.1465 203.527 17.791 200.646 17.791C197.787 17.791 195.723 15.1465 195.723 10.997C195.723 6.869 197.787 4.2245 200.646 4.2245ZM200.646 5.837C198.754 5.837 197.421 7.858 197.421 10.997C197.421 14.1575 198.754 16.2215 200.646 16.2215C202.56 16.2215 203.871 14.1575 203.871 10.997C203.871 7.858 202.56 5.837 200.646 5.837ZM217.157 8.5675H230.358V10.0295H217.157V8.5675ZM214.77 12.631H232.4V14.093H214.77V12.631ZM217.157 3.4505H218.92V9.2985H217.157V3.4505ZM217.028 20.242H230.465V21.704H217.028V20.242ZM217.028 16.028H218.791V20.629H217.028V16.028ZM240.595 12.0505H258.161V13.534H240.595V12.0505ZM249.948 8.8255H256.634V10.2875H249.948V8.8255ZM249.948 3.6655H256.484V5.106H251.732V9.32H249.948V3.6655ZM242.272 3.6655H248.851V5.106H244.057V9.32H242.272V3.6655ZM242.272 8.8255H243.347C245.261 8.8255 247.067 8.761 249.109 8.288L249.324 9.7285C247.153 10.2015 245.347 10.2875 243.347 10.2875H242.272V8.8255ZM248.507 15.082H250.034V15.684C250.034 19.167 246.637 21.4245 242.659 22.091L241.993 20.6935C245.519 20.1775 248.507 18.264 248.507 15.684V15.082ZM248.787 15.082H250.313V15.684C250.313 18.264 253.28 20.1775 256.849 20.6935L256.161 22.091C252.162 21.4245 248.787 19.167 248.787 15.684V15.082ZM268.823 4.074H270.715C270.715 8.976 267.125 12.33 261.449 13.7275L260.739 12.3085C265.835 11.083 268.823 8.374 268.823 4.934V4.074ZM261.707 4.074H269.812V5.5145H261.707V4.074ZM274.521 2.741H276.305V13.3835H274.521V2.741ZM263.642 14.4585H276.606V15.899H263.642V14.4585ZM263.448 20.4355H276.821V21.876H263.448V20.4355ZM266.286 15.1465H268.049V21.145H266.286V15.1465ZM272.199 15.1465H273.962V21.145H272.199V15.1465ZM280.152 12.9535H297.718V14.4155H280.152V12.9535ZM282.431 20.285H295.783V21.747H282.431V20.285ZM282.431 16.114H284.216V20.7365H282.431V16.114ZM288.946 3.386C293.095 3.386 295.783 4.848 295.783 7.2775C295.783 9.6855 293.095 11.1475 288.946 11.1475C284.775 11.1475 282.109 9.6855 282.109 7.2775C282.109 4.848 284.775 3.386 288.946 3.386ZM288.946 4.848C285.893 4.848 283.936 5.751 283.936 7.2775C283.936 8.804 285.893 9.707 288.946 9.707C291.999 9.707 293.955 8.804 293.955 7.2775C293.955 5.751 291.999 4.848 288.946 4.848ZM314.749 7.0625H320.619V8.546H314.749V7.0625ZM314.749 13.2115H320.619V14.695H314.749V13.2115ZM311.18 4.2245C313.997 4.2245 316.018 6.869 316.018 10.997C316.018 15.1465 313.997 17.791 311.18 17.791C308.342 17.791 306.343 15.1465 306.343 10.997C306.343 6.869 308.342 4.2245 311.18 4.2245ZM311.18 5.837C309.31 5.837 308.02 7.858 308.02 10.997C308.02 14.1575 309.31 16.2215 311.18 16.2215C313.051 16.2215 314.341 14.1575 314.341 10.997C314.341 7.858 313.051 5.837 311.18 5.837ZM320.232 2.7195H321.995V22.1985H320.232V2.7195ZM340.44 2.741H342.139V15.039H340.44V2.741ZM337.28 8.0085H340.956V9.492H337.28V8.0085ZM336.291 3.128H337.968V14.351H336.291V3.128ZM325.67 5.063H335.517V6.482H325.67V5.063ZM330.615 7.471C333.044 7.471 334.743 8.804 334.743 10.8035C334.743 12.8245 333.044 14.136 330.615 14.136C328.164 14.136 326.465 12.8245 326.465 10.8035C326.465 8.804 328.164 7.471 330.615 7.471ZM330.615 8.804C329.088 8.804 328.056 9.5995 328.056 10.8035C328.056 12.029 329.088 12.803 330.615 12.803C332.12 12.803 333.152 12.029 333.152 10.8035C333.152 9.5995 332.12 8.804 330.615 8.804ZM329.733 2.8915H331.475V5.8585H329.733V2.8915ZM335.775 15.383C339.817 15.383 342.246 16.587 342.246 18.7585C342.246 20.9085 339.817 22.134 335.775 22.134C331.69 22.134 329.282 20.9085 329.282 18.7585C329.282 16.587 331.69 15.383 335.775 15.383ZM335.775 16.759C332.786 16.759 331.045 17.4685 331.045 18.7585C331.045 20.0485 332.786 20.7795 335.775 20.7795C338.72 20.7795 340.483 20.0485 340.483 18.7585C340.483 17.4685 338.72 16.759 335.775 16.759Z" fill="white"/>
<path d="M110.374 98.978H125.116V100.22H110.374V98.978ZM116.998 99.338H118.474V105.422H116.998V99.338ZM112.336 96.098H123.478V97.322H112.336V96.098ZM112.336 89.888H123.298V91.094H113.812V96.458H112.336V89.888ZM113.38 92.966H122.902V94.136H113.38V92.966ZM131.289 90.374C133.647 90.374 135.339 92.588 135.339 96.044C135.339 99.518 133.647 101.732 131.289 101.732C128.913 101.732 127.239 99.518 127.239 96.044C127.239 92.588 128.913 90.374 131.289 90.374ZM131.289 91.724C129.723 91.724 128.661 93.416 128.661 96.044C128.661 98.69 129.723 100.418 131.289 100.418C132.855 100.418 133.917 98.69 133.917 96.044C133.917 93.416 132.855 91.724 131.289 91.724ZM138.867 89.114H140.343V105.422H138.867V89.114ZM134.853 95.324H139.515V96.548H134.853V95.324ZM144.175 90.59H151.645V98.132H144.175V90.59ZM150.187 91.796H145.633V96.926H150.187V91.796ZM154.633 89.114H156.127V101.048H154.633V89.114ZM155.659 94.082H158.539V95.324H155.659V94.082ZM145.993 103.82H156.865V105.044H145.993V103.82ZM145.993 99.914H147.487V104.342H145.993V99.914ZM172.798 91.436H177.388V92.606H172.798V91.436ZM172.798 94.406H177.388V95.576H172.798V94.406ZM177.01 89.132H178.504V97.61H177.01V89.132ZM168.028 98.42H178.504V102.272H169.522V104.774H168.064V101.156H177.028V99.608H168.028V98.42ZM168.064 104H179.098V105.188H168.064V104ZM165.922 89.87H167.398V92.21H171.808V89.87H173.266V96.98H165.922V89.87ZM167.398 93.38V95.774H171.808V93.38H167.398ZM183.543 96.728H194.721V97.952H183.543V96.728ZM181.689 102.11H196.431V103.37H181.689V102.11ZM188.277 97.25H189.771V102.614H188.277V97.25ZM183.543 90.428H194.559V91.652H185.037V97.268H183.543V90.428ZM205.146 90.194H215.316V91.4H205.146V90.194ZM203.31 97.178H218.016V98.402H203.31V97.178ZM209.88 97.988H211.374V105.422H209.88V97.988ZM214.614 90.194H216.072V91.598C216.072 93.29 216.072 95.198 215.46 97.952L213.984 97.754C214.614 95.126 214.614 93.236 214.614 91.598V90.194ZM232.253 89.132H233.693V105.404H232.253V89.132ZM229.679 95.576H232.793V96.8H229.679V95.576ZM228.653 89.474H230.075V104.594H228.653V89.474ZM220.445 91.004H226.655V101.048H220.445V91.004ZM225.251 92.192H221.849V99.86H225.251V92.192ZM247.425 89.114H248.937V105.404H247.425V89.114ZM248.523 95.72H251.529V96.962H248.523V95.72ZM243.267 90.878H244.725C244.725 95.504 242.601 99.68 237.345 102.326L236.517 101.174C241.017 98.888 243.267 95.414 243.267 91.112V90.878ZM237.273 90.878H244.041V92.102H237.273V90.878ZM254.984 93.65H266.018V94.874H254.984V93.65ZM254.984 89.456H256.46V94.19H254.984V89.456ZM252.986 96.764H267.692V97.97H252.986V96.764ZM260.312 99.428C263.786 99.428 265.892 100.49 265.892 102.398C265.892 104.27 263.786 105.35 260.312 105.35C256.838 105.35 254.732 104.27 254.732 102.398C254.732 100.49 256.838 99.428 260.312 99.428ZM260.312 100.598C257.774 100.598 256.244 101.246 256.244 102.398C256.244 103.514 257.774 104.162 260.312 104.162C262.868 104.162 264.38 103.514 264.38 102.398C264.38 101.246 262.868 100.598 260.312 100.598ZM272.019 90.9091L271.892 100.318H270.409L270.281 90.9091H272.019ZM271.15 104.102C270.835 104.102 270.564 103.989 270.338 103.763C270.112 103.538 269.999 103.267 269.999 102.952C269.999 102.636 270.112 102.366 270.338 102.14C270.564 101.914 270.835 101.801 271.15 101.801C271.465 101.801 271.736 101.914 271.962 102.14C272.188 102.366 272.301 102.636 272.301 102.952C272.301 103.161 272.247 103.352 272.141 103.527C272.039 103.702 271.9 103.842 271.725 103.949C271.555 104.051 271.363 104.102 271.15 104.102Z" fill="white"/>
<path d="M97.562 91.792H90V105.681H104.12V97.656" stroke="white" stroke-width="1.8"/>
<path d="M92.3154 95.8022L96.9443 101.202L106.744 89.3193" stroke="white" stroke-width="1.8"/>
</g>
</g>
<defs>
<clipPath id="clip0_12135_18540">
<rect width="800" height="109" fill="white"/>
</clipPath>
</defs>
</svg>
