<svg width="345" height="47" viewBox="0 0 345 47" fill="none" xmlns="http://www.w3.org/2000/svg">
<g clip-path="url(#clip0_12135_18553)">
<mask id="mask0_12135_18553" style="mask-type:luminance" maskUnits="userSpaceOnUse" x="0" y="0" width="345" height="47">
<path d="M345 0H0V47H345V0Z" fill="white"/>
</mask>
<g mask="url(#mask0_12135_18553)">
<path d="M81.836 25.492H82.694C84.41 25.492 85.719 25.47 87.237 25.228L87.369 26.394C85.829 26.636 84.443 26.68 82.694 26.68H81.836V25.492ZM81.836 19.64H86.621V20.828H83.31V25.877H81.836V19.64ZM82.958 22.467H86.478V23.611H82.958V22.467ZM87.952 18.793H89.426V28.979H87.952V18.793ZM89.096 22.654H90.9V23.864H89.096V22.654ZM92.0651 19.706H96.9601V26.559H92.0651V19.706ZM95.5301 20.85H93.5061V25.404H95.5301V20.85ZM98.5441 18.782H100.018V29.001H98.5441V18.782ZM105.462 19.376H106.738V20.113C106.738 22.324 105.165 24.282 102.525 24.799L101.898 23.589C104.197 23.193 105.462 21.576 105.462 20.113V19.376ZM105.759 19.376H107.024V20.113C107.024 21.609 108.278 23.193 110.588 23.589L109.961 24.799C107.321 24.282 105.759 22.357 105.759 20.113V19.376ZM101.689 26.548H110.907V27.736H101.689V26.548ZM121.339 18.804H122.813V26.119H121.339V18.804ZM116.026 27.637H123.066V28.803H116.026V27.637ZM116.026 25.382H117.489V28.11H116.026V25.382ZM117.269 19.442C118.831 19.442 120.03 20.52 120.03 22.027C120.03 23.523 118.831 24.612 117.269 24.612C115.707 24.612 114.497 23.523 114.497 22.027C114.497 20.52 115.707 19.442 117.269 19.442ZM117.269 20.707C116.51 20.707 115.927 21.191 115.927 22.027C115.927 22.852 116.51 23.336 117.269 23.336C118.017 23.336 118.6 22.852 118.6 22.027C118.6 21.191 118.017 20.707 117.269 20.707ZM131.48 18.793H132.954V28.979H131.48V18.793ZM128.477 19.849H129.929C129.929 22.962 128.873 25.514 125.254 27.263L124.495 26.097C127.421 24.689 128.477 22.841 128.477 20.113V19.849ZM125.034 19.849H129.17V21.004H125.034V19.849ZM139.361 19.343H140.56V20.245C140.56 22.269 139.68 24.051 137.744 24.722L136.963 23.567C138.668 22.995 139.361 21.631 139.361 20.245V19.343ZM139.658 19.343H140.846V20.388C140.846 21.609 141.528 22.797 143.123 23.292L142.364 24.425C140.527 23.809 139.658 22.225 139.658 20.388V19.343ZM143.684 18.793H145.147V24.81H143.684V18.793ZM144.74 21.147H146.5V22.357H144.74V21.147ZM141.825 25.041C143.937 25.041 145.268 25.778 145.268 27.01C145.268 28.253 143.937 28.979 141.825 28.979C139.702 28.979 138.371 28.253 138.371 27.01C138.371 25.778 139.702 25.041 141.825 25.041ZM141.825 26.174C140.527 26.174 139.823 26.449 139.823 27.01C139.823 27.582 140.527 27.846 141.825 27.846C143.123 27.846 143.816 27.582 143.816 27.01C143.816 26.449 143.123 26.174 141.825 26.174ZM151.119 24.392H152.582V25.943H151.119V24.392ZM147.247 23.556H156.454V24.711H147.247V23.556ZM148.05 19.068H155.64V20.234H148.05V19.068ZM148.127 21.763H155.563V22.929H148.127V21.763ZM149.348 19.497H150.811V22.522H149.348V19.497ZM152.879 19.497H154.342V22.522H152.879V19.497ZM148.314 25.558H155.354V28.869H148.314V25.558ZM153.924 26.691H149.755V27.714H153.924V26.691ZM159.398 26.9062L159.355 27.3359C159.322 27.6797 159.257 28.0221 159.16 28.3633C159.066 28.707 158.967 29.0182 158.863 29.2969C158.762 29.5755 158.68 29.7943 158.617 29.9531H157.539C157.578 29.7995 157.632 29.5846 157.699 29.3086C157.767 29.0352 157.831 28.7279 157.891 28.3867C157.951 28.0456 157.988 27.6979 158.004 27.3437L158.023 26.9062H159.398ZM163.544 18.198H169.329V26.297H163.544V18.198ZM167.639 19.55H165.247V24.932H167.639V19.55ZM171.201 17.106H172.943V29.183H171.201V17.106ZM179.468 17.184H180.924V17.405C180.924 19.42 179.117 21.006 176.01 21.344L175.438 20.044C178.155 19.771 179.468 18.575 179.468 17.405V17.184ZM179.767 17.184H181.236V17.405C181.236 18.575 182.549 19.771 185.253 20.044L184.681 21.344C181.574 21.006 179.767 19.42 179.767 17.405V17.184ZM179.468 22.891H181.197V24.568H179.468V22.891ZM174.905 21.838H185.786V23.19H174.905V21.838ZM176.153 23.97H184.473V27.09H177.869V28.13H176.166V25.894H182.77V25.257H176.153V23.97ZM176.166 27.779H184.785V29.079H176.166V27.779ZM187.397 17.99H192.545V19.381H187.397V17.99ZM188.879 20.798H190.595V23.814H188.879V20.798ZM191.869 17.99H193.572V18.744C193.572 19.589 193.572 20.785 193.286 22.28L191.609 22.098C191.869 20.616 191.869 19.576 191.869 18.744V17.99ZM194.742 17.119H196.484V26.128H194.742V17.119ZM195.795 20.785H197.914V22.202H195.795V20.785ZM188.45 27.571H196.861V28.949H188.45V27.571ZM188.45 25.322H190.179V28H188.45V25.322ZM186.851 24.516L186.695 23.151C188.775 23.151 191.674 23.112 194.092 22.774L194.196 23.996C191.713 24.464 188.918 24.516 186.851 24.516ZM203.106 22.488H211.569V23.866H203.106V22.488ZM201.845 26.388H212.739V27.805H201.845V26.388ZM206.408 23.112H208.137V26.843H206.408V23.112ZM203.106 17.938H211.478V19.329H204.835V23.086H203.106V17.938ZM213.791 23.177H224.672V24.568H213.791V23.177ZM215.104 27.571H223.45V28.949H215.104V27.571ZM215.104 25.426H216.833V28H215.104V25.426ZM218.354 17.457H219.836V17.834C219.836 20.07 218.055 21.994 215 22.475L214.337 21.11C217.002 20.72 218.354 19.212 218.354 17.834V17.457ZM218.64 17.457H220.122V17.834C220.122 19.199 221.474 20.72 224.126 21.11L223.463 22.475C220.408 21.994 218.64 20.07 218.64 17.834V17.457ZM227.036 23.32H235.499V24.672H227.036V23.32ZM225.762 26.375H236.656V27.779H225.762V26.375ZM227.036 17.99H235.395V19.381H228.791V23.697H227.036V17.99ZM228.258 20.642H235.122V21.981H228.258V20.642ZM240.717 24.256H251.611V25.66H240.717V24.256ZM245.293 24.75H247.009V29.17H245.293V24.75ZM242.069 22.02H250.48V23.385H242.069V22.02ZM242.069 17.6H250.35V18.952H243.772V22.345H242.069V17.6ZM243.291 19.823H250.09V21.136H243.291V19.823ZM255.978 17.951C257.772 17.951 259.085 19.615 259.085 22.241C259.085 24.893 257.772 26.557 255.978 26.557C254.171 26.557 252.871 24.893 252.871 22.241C252.871 19.615 254.171 17.951 255.978 17.951ZM255.978 19.524C255.107 19.524 254.522 20.473 254.522 22.241C254.522 24.035 255.107 24.997 255.978 24.997C256.862 24.997 257.434 24.035 257.434 22.241C257.434 20.473 256.862 19.524 255.978 19.524ZM261.061 17.106H262.777V29.183H261.061V17.106ZM258.578 21.448H261.789V22.839H258.578V21.448Z" fill="white"/>
<path d="M84.03 3.701C84.961 3.701 85.619 4.562 85.619 5.906C85.619 7.257 84.961 8.118 84.03 8.118C83.099 8.118 82.441 7.257 82.441 5.906C82.441 4.562 83.099 3.701 84.03 3.701ZM84.03 4.226C83.414 4.226 82.994 4.884 82.994 5.906C82.994 6.935 83.414 7.607 84.03 7.607C84.639 7.607 85.066 6.935 85.066 5.906C85.066 4.884 84.639 4.226 84.03 4.226ZM86.627 3.218H87.215V9.546H86.627V3.218ZM87.075 5.745H88.251V6.235H87.075V5.745ZM89.5595 5.115H93.8575V5.591H89.5595V5.115ZM88.7825 6.438H94.5225V6.914H88.7825V6.438ZM89.5595 3.449H90.1335V5.353H89.5595V3.449ZM89.5175 8.916H93.8925V9.392H89.5175V8.916ZM89.5175 7.544H90.0915V9.042H89.5175V7.544ZM95.4879 3.785H98.3929V6.718H95.4879V3.785ZM97.8259 4.254H96.0549V6.249H97.8259V4.254ZM99.5549 3.211H100.136V7.852H99.5549V3.211ZM99.9539 5.143H101.074V5.626H99.9539V5.143ZM96.1949 8.93H100.423V9.406H96.1949V8.93ZM96.1949 7.411H96.7759V9.133H96.1949V7.411ZM102.396 3.484H106.47V3.96H102.396V3.484ZM101.661 6.109H107.401V6.585H101.661V6.109ZM106.092 3.484H106.659V4.002C106.659 4.597 106.659 5.304 106.449 6.291L105.882 6.221C106.092 5.276 106.092 4.59 106.092 4.002V3.484ZM106.253 4.695V5.129L102.319 5.304L102.235 4.828L106.253 4.695ZM102.368 7.313H106.68V9.462H102.368V7.313ZM106.113 7.775H102.935V8.993H106.113V7.775ZM110.077 8.258H115.81V8.741H110.077V8.258ZM112.639 6.746H113.22V8.398H112.639V6.746ZM110.749 3.666H111.323V4.793H114.55V3.666H115.124V6.9H110.749V3.666ZM111.323 5.262V6.424H114.55V5.262H111.323ZM121.108 3.211H121.689V9.553H121.108V3.211ZM118.35 3.701C119.288 3.701 119.96 4.562 119.96 5.906C119.96 7.257 119.288 8.118 118.35 8.118C117.419 8.118 116.747 7.257 116.747 5.906C116.747 4.562 117.419 3.701 118.35 3.701ZM118.35 4.226C117.734 4.226 117.3 4.884 117.3 5.906C117.3 6.935 117.734 7.607 118.35 7.607C118.973 7.607 119.4 6.935 119.4 5.906C119.4 4.884 118.973 4.226 118.35 4.226ZM123.725 5.115H128.023V5.591H123.725V5.115ZM122.948 6.438H128.688V6.914H122.948V6.438ZM123.725 3.449H124.299V5.353H123.725V3.449ZM123.683 8.916H128.058V9.392H123.683V8.916ZM123.683 7.544H124.257V9.042H123.683V7.544ZM131.357 6.249H137.076V6.732H131.357V6.249ZM134.402 5.199H136.579V5.675H134.402V5.199ZM134.402 3.519H136.53V3.988H134.983V5.36H134.402V3.519ZM131.903 3.519H134.045V3.988H132.484V5.36H131.903V3.519ZM131.903 5.199H132.253C132.876 5.199 133.464 5.178 134.129 5.024L134.199 5.493C133.492 5.647 132.904 5.675 132.253 5.675H131.903V5.199ZM133.933 7.236H134.43V7.432C134.43 8.566 133.324 9.301 132.029 9.518L131.812 9.063C132.96 8.895 133.933 8.272 133.933 7.432V7.236ZM134.024 7.236H134.521V7.432C134.521 8.272 135.487 8.895 136.649 9.063L136.425 9.518C135.123 9.301 134.024 8.566 134.024 7.432V7.236ZM140.547 3.652H141.163C141.163 5.248 139.994 6.34 138.146 6.795L137.915 6.333C139.574 5.934 140.547 5.052 140.547 3.932V3.652ZM138.23 3.652H140.869V4.121H138.23V3.652ZM142.402 3.218H142.983V6.683H142.402V3.218ZM138.86 7.033H143.081V7.502H138.86V7.033ZM138.797 8.979H143.151V9.448H138.797V8.979ZM139.721 7.257H140.295V9.21H139.721V7.257ZM141.646 7.257H142.22V9.21H141.646V7.257ZM144.236 6.543H149.955V7.019H144.236V6.543ZM144.978 8.93H149.325V9.406H144.978V8.93ZM144.978 7.572H145.559V9.077H144.978V7.572ZM147.099 3.428C148.45 3.428 149.325 3.904 149.325 4.695C149.325 5.479 148.45 5.955 147.099 5.955C145.741 5.955 144.873 5.479 144.873 4.695C144.873 3.904 145.741 3.428 147.099 3.428ZM147.099 3.904C146.105 3.904 145.468 4.198 145.468 4.695C145.468 5.192 146.105 5.486 147.099 5.486C148.093 5.486 148.73 5.192 148.73 4.695C148.73 4.198 148.093 3.904 147.099 3.904ZM155.5 4.625H157.411V5.108H155.5V4.625ZM155.5 6.627H157.411V7.11H155.5V6.627ZM154.338 3.701C155.255 3.701 155.913 4.562 155.913 5.906C155.913 7.257 155.255 8.118 154.338 8.118C153.414 8.118 152.763 7.257 152.763 5.906C152.763 4.562 153.414 3.701 154.338 3.701ZM154.338 4.226C153.729 4.226 153.309 4.884 153.309 5.906C153.309 6.935 153.729 7.607 154.338 7.607C154.947 7.607 155.367 6.935 155.367 5.906C155.367 4.884 154.947 4.226 154.338 4.226ZM157.285 3.211H157.859V9.553H157.285V3.211ZM163.864 3.218H164.417V7.222H163.864V3.218ZM162.835 4.933H164.032V5.416H162.835V4.933ZM162.513 3.344H163.059V6.998H162.513V3.344ZM159.055 3.974H162.261V4.436H159.055V3.974ZM160.665 4.758C161.456 4.758 162.009 5.192 162.009 5.843C162.009 6.501 161.456 6.928 160.665 6.928C159.867 6.928 159.314 6.501 159.314 5.843C159.314 5.192 159.867 4.758 160.665 4.758ZM160.665 5.192C160.168 5.192 159.832 5.451 159.832 5.843C159.832 6.242 160.168 6.494 160.665 6.494C161.155 6.494 161.491 6.242 161.491 5.843C161.491 5.451 161.155 5.192 160.665 5.192ZM160.378 3.267H160.945V4.233H160.378V3.267ZM162.345 7.334C163.661 7.334 164.452 7.726 164.452 8.433C164.452 9.133 163.661 9.532 162.345 9.532C161.015 9.532 160.231 9.133 160.231 8.433C160.231 7.726 161.015 7.334 162.345 7.334ZM162.345 7.782C161.372 7.782 160.805 8.013 160.805 8.433C160.805 8.853 161.372 9.091 162.345 9.091C163.304 9.091 163.878 8.853 163.878 8.433C163.878 8.013 163.304 7.782 162.345 7.782Z" fill="white"/>
<path d="M90.6355 41.1123H95.959V41.5608H90.6355V41.1123ZM93.0275 41.2423H93.5605V43.4393H93.0275V41.2423ZM91.344 40.0723H95.3675V40.5143H91.344V40.0723ZM91.344 37.8298H95.3025V38.2653H91.877V40.2023H91.344V37.8298ZM91.721 38.9413H95.1595V39.3638H91.721V38.9413ZM98.188 38.0053C99.0395 38.0053 99.6505 38.8048 99.6505 40.0528C99.6505 41.3073 99.0395 42.1068 98.188 42.1068C97.33 42.1068 96.7255 41.3073 96.7255 40.0528C96.7255 38.8048 97.33 38.0053 98.188 38.0053ZM98.188 38.4928C97.6225 38.4928 97.239 39.1038 97.239 40.0528C97.239 41.0083 97.6225 41.6323 98.188 41.6323C98.7535 41.6323 99.137 41.0083 99.137 40.0528C99.137 39.1038 98.7535 38.4928 98.188 38.4928ZM100.924 37.5503H101.457V43.4393H100.924V37.5503ZM99.475 39.7928H101.158V40.2348H99.475V39.7928ZM102.841 38.0833H105.539V40.8068H102.841V38.0833ZM105.012 38.5188H103.368V40.3713H105.012V38.5188ZM106.618 37.5503H107.157V41.8598H106.618V37.5503ZM106.988 39.3443H108.028V39.7928H106.988V39.3443ZM103.498 42.8608H107.424V43.3028H103.498V42.8608ZM103.498 41.4503H104.037V43.0493H103.498V41.4503ZM113.178 38.3888H114.835V38.8113H113.178V38.3888ZM113.178 39.4613H114.835V39.8838H113.178V39.4613ZM114.699 37.5568H115.238V40.6183H114.699V37.5568ZM111.455 40.9108H115.238V42.3018H111.995V43.2053H111.468V41.8988H114.705V41.3398H111.455V40.9108ZM111.468 42.9258H115.453V43.3548H111.468V42.9258ZM110.695 37.8233H111.228V38.6683H112.82V37.8233H113.347V40.3908H110.695V37.8233ZM111.228 39.0908V39.9553H112.82V39.0908H111.228ZM117.058 40.2998H121.094V40.7418H117.058V40.2998ZM116.388 42.2433H121.712V42.6983H116.388V42.2433ZM118.767 40.4883H119.307V42.4253H118.767V40.4883ZM117.058 38.0248H121.036V38.4668H117.597V40.4948H117.058V38.0248ZM124.859 37.9403H128.531V38.3758H124.859V37.9403ZM124.196 40.4623H129.506V40.9043H124.196V40.4623ZM126.568 40.7548H127.108V43.4393H126.568V40.7548ZM128.278 37.9403H128.804V38.4473C128.804 39.0583 128.804 39.7473 128.583 40.7418L128.05 40.6703C128.278 39.7213 128.278 39.0388 128.278 38.4473V37.9403ZM134.647 37.5568H135.167V43.4328H134.647V37.5568ZM133.718 39.8838H134.842V40.3258H133.718V39.8838ZM133.347 37.6803H133.861V43.1403H133.347V37.6803ZM130.383 38.2328H132.626V41.8598H130.383V38.2328ZM132.119 38.6618H130.89V41.4308H132.119V38.6618ZM140.126 37.5503H140.672V43.4328H140.126V37.5503ZM140.523 39.9358H141.608V40.3843H140.523V39.9358ZM138.625 38.1873H139.151C139.151 39.8578 138.384 41.3658 136.486 42.3213L136.187 41.9053C137.812 41.0798 138.625 39.8253 138.625 38.2718V38.1873ZM136.46 38.1873H138.904V38.6293H136.46V38.1873ZM142.856 39.1883H146.84V39.6303H142.856V39.1883ZM142.856 37.6738H143.389V39.3833H142.856V37.6738ZM142.134 40.3128H147.445V40.7483H142.134V40.3128ZM144.78 41.2748C146.034 41.2748 146.795 41.6583 146.795 42.3473C146.795 43.0233 146.034 43.4133 144.78 43.4133C143.525 43.4133 142.765 43.0233 142.765 42.3473C142.765 41.6583 143.525 41.2748 144.78 41.2748ZM144.78 41.6973C143.863 41.6973 143.311 41.9313 143.311 42.3473C143.311 42.7503 143.863 42.9843 144.78 42.9843C145.703 42.9843 146.249 42.7503 146.249 42.3473C146.249 41.9313 145.703 41.6973 144.78 41.6973ZM149.007 38.1985L148.961 41.5962H148.426L148.38 38.1985H149.007ZM148.694 42.9627C148.58 42.9627 148.482 42.9219 148.4 42.8404C148.319 42.7588 148.278 42.6611 148.278 42.5472C148.278 42.4334 148.319 42.3356 148.4 42.2541C148.482 42.1725 148.58 42.1317 148.694 42.1317C148.807 42.1317 148.905 42.1725 148.987 42.2541C149.068 42.3356 149.109 42.4334 149.109 42.5472C149.109 42.6226 149.09 42.6919 149.051 42.755C149.014 42.8181 148.964 42.8688 148.901 42.9073C148.84 42.9442 148.77 42.9627 148.694 42.9627Z" fill="white"/>
<path d="M85.5848 38.4053H82.5848V43.9153H88.1849V40.7322" stroke="white"/>
<path d="M83.5042 39.9951L85.3412 42.1372L89.2279 37.4243" stroke="white"/>
</g>
</g>
<defs>
<clipPath id="clip0_12135_18553">
<rect width="345" height="47" fill="white"/>
</clipPath>
</defs>
</svg>
