<svg width="800" height="109" viewBox="0 0 800 109" fill="none" xmlns="http://www.w3.org/2000/svg">
<g clip-path="url(#clip0_12138_18968)">
<mask id="mask0_12138_18968" style="mask-type:luminance" maskUnits="userSpaceOnUse" x="0" y="0" width="800" height="109">
<path d="M800 0H0V109H800V0Z" fill="white"/>
</mask>
<g mask="url(#mask0_12138_18968)">
<path d="M174.888 58.336H177.852C183.78 58.336 188.302 58.26 193.546 57.424L194.002 61.452C188.682 62.288 183.894 62.44 177.852 62.44H174.888V58.336ZM174.888 38.12H191.418V42.224H179.98V59.666H174.888V38.12ZM178.764 47.886H190.924V51.838H178.764V47.886ZM196.016 35.194H201.108V70.382H196.016V35.194ZM199.968 48.532H206.2V52.712H199.968V48.532ZM210.225 38.348H227.135V62.022H210.225V38.348ZM222.195 42.3H215.203V58.032H222.195V42.3ZM232.607 35.156H237.699V70.458H232.607V35.156ZM256.506 37.208H260.914V39.754C260.914 47.392 255.48 54.156 246.36 55.942L244.194 51.762C252.136 50.394 256.506 44.808 256.506 39.754V37.208ZM257.532 37.208H261.902V39.754C261.902 44.922 266.234 50.394 274.214 51.762L272.048 55.942C262.928 54.156 257.532 47.506 257.532 39.754V37.208ZM243.472 61.984H275.316V66.088H243.472V61.984ZM289.715 37.512C295.263 37.512 299.405 41.122 299.405 46.176C299.405 51.268 295.263 54.878 289.715 54.878C284.205 54.878 279.987 51.268 279.987 46.176C279.987 41.122 284.205 37.512 289.715 37.512ZM289.715 41.844C287.017 41.844 284.965 43.44 284.965 46.176C284.965 48.95 287.017 50.546 289.715 50.546C292.413 50.546 294.465 48.95 294.465 46.176C294.465 43.44 292.413 41.844 289.715 41.844ZM302.711 35.156H307.765V70.458H302.711V35.156ZM279.151 63.314L278.543 59.248C284.737 59.248 293.363 59.172 300.773 58.07L301.153 61.718C293.515 63.238 285.231 63.314 279.151 63.314ZM329.933 36.41H334.037V38.652C334.037 45.34 330.921 51.116 324.119 53.244L321.687 49.216C327.501 47.468 329.933 43.174 329.933 38.652V36.41ZM330.959 36.41H335.025V38.538C335.025 42.832 337.381 46.822 343.005 48.456L340.459 52.37C333.923 50.356 330.959 44.96 330.959 38.538V36.41ZM344.791 35.194H349.845V53.244H344.791V35.194ZM347.793 42.034H354.481V46.176H347.793V42.034ZM326.589 54.612H349.845V64.112H331.681V68.406H326.665V60.464H344.867V58.488H326.589V54.612ZM326.665 66.24H350.871V70.154H326.665V66.24ZM366.524 37.626C371.882 37.626 375.758 42.49 375.758 50.166C375.758 57.918 371.882 62.782 366.524 62.782C361.166 62.782 357.29 57.918 357.29 50.166C357.29 42.49 361.166 37.626 366.524 37.626ZM366.524 42.224C363.902 42.224 362.154 44.998 362.154 50.166C362.154 55.41 363.902 58.222 366.524 58.222C369.146 58.222 370.932 55.41 370.932 50.166C370.932 44.998 369.146 42.224 366.524 42.224ZM379.596 35.194H384.688V70.382H379.596V35.194ZM383.548 48.456H389.78V52.636H383.548V48.456ZM399.961 56.55H403.761V57.728C403.761 63.048 401.405 67.912 395.895 69.888L393.425 66.202C398.023 64.644 399.961 61.148 399.961 57.728V56.55ZM401.253 56.55H404.863V57.728C404.863 61.148 406.573 64.72 410.867 66.506L408.853 70.23C403.267 68.14 401.253 62.896 401.253 57.728V56.55ZM412.805 56.55H416.415V57.728C416.415 62.592 414.325 68.064 408.853 70.23L406.763 66.506C411.057 64.568 412.805 60.844 412.805 57.728V56.55ZM413.983 56.55H417.783V57.728C417.783 61.376 419.683 64.758 424.319 66.202L421.849 69.888C416.263 67.988 413.983 63.276 413.983 57.728V56.55ZM416.225 35.232H421.317V55.106H416.225V35.232ZM402.165 37.018C407.637 37.018 411.703 40.514 411.703 45.454C411.703 50.356 407.637 53.852 402.165 53.852C396.693 53.852 392.589 50.356 392.589 45.454C392.589 40.514 396.693 37.018 402.165 37.018ZM402.165 41.198C399.505 41.198 397.529 42.756 397.529 45.454C397.529 48.114 399.505 49.672 402.165 49.672C404.825 49.672 406.763 48.114 406.763 45.454C406.763 42.756 404.825 41.198 402.165 41.198ZM430.966 44.694H455.362V48.684H430.966V44.694ZM427.014 52.332H458.896V56.36H427.014V52.332ZM430.966 36.448H435.982V46.67H430.966V36.448ZM430.624 65.594H455.552V69.622H430.624V65.594ZM430.624 59.172H435.678V66.658H430.624V59.172ZM475.309 43.522H503.001V48.08H475.309V43.522ZM475.309 32.815H481.028V45.586H475.309V32.815ZM471.009 52.466H507V57.067H471.009V52.466ZM479.179 54.1H484.898V70.827H479.179V54.1ZM493.068 54.1H498.787V70.827H493.068V54.1ZM518.607 44.468H524.326V51.821H518.607V44.468ZM532.625 44.468H538.301V51.821H532.625V44.468ZM528.54 31.697C537.312 31.697 542.945 34.664 542.945 39.48C542.945 44.339 537.312 47.306 528.54 47.306C519.768 47.306 514.135 44.339 514.135 39.48C514.135 34.664 519.768 31.697 528.54 31.697ZM528.54 36.126C523.079 36.126 520.026 37.201 520.026 39.48C520.026 41.759 523.079 42.877 528.54 42.877C533.958 42.877 537.054 41.759 537.054 39.48C537.054 37.201 533.958 36.126 528.54 36.126ZM510.523 50.574H546.514V55.089H510.523V50.574ZM514.522 57.798H542.171V70.827H536.452V62.313H514.522V57.798ZM571.665 40.641H579.233V45.285H571.665V40.641ZM577.685 31.009H583.404V54.659H577.685V31.009ZM569.902 55.519C578.33 55.519 583.533 58.4 583.533 63.216C583.533 68.075 578.33 70.87 569.902 70.87C561.474 70.87 556.271 68.075 556.271 63.216C556.271 58.4 561.474 55.519 569.902 55.519ZM569.902 59.862C564.742 59.862 561.99 60.937 561.99 63.216C561.99 65.452 564.742 66.527 569.902 66.527C575.105 66.527 577.857 65.452 577.857 63.216C577.857 60.937 575.105 59.862 569.902 59.862ZM559.281 35.008H563.925V37.502C563.925 45.113 560.399 52.079 552.788 54.659L549.864 50.144C556.443 47.908 559.281 42.619 559.281 37.502V35.008ZM560.485 35.008H565.086V37.502C565.086 42.189 567.795 47.048 574.073 49.155L571.278 53.67C563.882 51.219 560.485 44.597 560.485 37.502V35.008ZM551.412 33.417H572.826V37.975H551.412V33.417ZM589.679 61.582H625.713V66.226H589.679V61.582ZM604.772 53.068H610.491V62.7H604.772V53.068ZM593.463 33.546H599.139V39.652H616.124V33.546H621.8V54.272H593.463V33.546ZM599.139 44.124V49.714H616.124V44.124H599.139Z" fill="white"/>
<path d="M178.29 9.2985H191.577V10.7605H178.29V9.2985ZM178.29 3.73H180.074V9.9865H178.29V3.73ZM176.075 13.534H193.641V15.0175H176.075V13.534ZM180.59 14.093H182.375V22.177H180.59V14.093ZM187.32 14.093H189.083V22.177H187.32V14.093ZM200.175 9.4705H201.938V13.147H200.175V9.4705ZM207.313 9.4705H209.076V13.147H207.313V9.4705ZM204.625 3.1495C208.818 3.1495 211.462 4.5255 211.462 6.8475C211.462 9.191 208.818 10.567 204.625 10.567C200.411 10.567 197.788 9.191 197.788 6.8475C197.788 4.5255 200.411 3.1495 204.625 3.1495ZM204.625 4.5685C201.529 4.5685 199.616 5.407 199.616 6.8475C199.616 8.288 201.529 9.148 204.625 9.148C207.7 9.148 209.635 8.288 209.635 6.8475C209.635 5.407 207.7 4.5685 204.625 4.5685ZM195.832 12.631H213.397V14.093H195.832V12.631ZM197.788 15.899H211.226V22.177H209.441V17.361H197.788V15.899ZM224.382 7.0625H230.252V8.546H224.382V7.0625ZM224.382 13.2115H230.252V14.695H224.382V13.2115ZM220.813 4.2245C223.63 4.2245 225.651 6.869 225.651 10.997C225.651 15.1465 223.63 17.791 220.813 17.791C217.975 17.791 215.976 15.1465 215.976 10.997C215.976 6.869 217.975 4.2245 220.813 4.2245ZM220.813 5.837C218.943 5.837 217.653 7.858 217.653 10.997C217.653 14.1575 218.943 16.2215 220.813 16.2215C222.684 16.2215 223.974 14.1575 223.974 10.997C223.974 7.858 222.684 5.837 220.813 5.837ZM229.865 2.7195H231.628V22.1985H229.865V2.7195ZM250.073 2.741H251.771V15.039H250.073V2.741ZM246.912 8.0085H250.589V9.492H246.912V8.0085ZM245.923 3.128H247.6V14.351H245.923V3.128ZM235.302 5.063H245.149V6.482H235.302V5.063ZM240.247 7.471C242.677 7.471 244.375 8.804 244.375 10.8035C244.375 12.8245 242.677 14.136 240.247 14.136C237.796 14.136 236.098 12.8245 236.098 10.8035C236.098 8.804 237.796 7.471 240.247 7.471ZM240.247 8.804C238.721 8.804 237.689 9.5995 237.689 10.8035C237.689 12.029 238.721 12.803 240.247 12.803C241.752 12.803 242.784 12.029 242.784 10.8035C242.784 9.5995 241.752 8.804 240.247 8.804ZM239.366 2.8915H241.107V5.8585H239.366V2.8915ZM245.407 15.383C249.449 15.383 251.879 16.587 251.879 18.7585C251.879 20.9085 249.449 22.134 245.407 22.134C241.322 22.134 238.914 20.9085 238.914 18.7585C238.914 16.587 241.322 15.383 245.407 15.383ZM245.407 16.759C242.419 16.759 240.677 17.4685 240.677 18.7585C240.677 20.0485 242.419 20.7795 245.407 20.7795C248.353 20.7795 250.116 20.0485 250.116 18.7585C250.116 17.4685 248.353 16.759 245.407 16.759ZM263.471 3.5795H275.984V5.02H263.471V3.5795ZM261.235 10.5025H278.844V11.9645H261.235V10.5025ZM269.104 11.5345H270.889V15.555H269.104V11.5345ZM274.823 3.5795H276.565V4.977C276.565 6.568 276.565 8.5245 275.92 11.169L274.178 10.954C274.823 8.374 274.823 6.525 274.823 4.977V3.5795ZM269.986 14.953C274.178 14.953 276.737 16.2645 276.737 18.565C276.737 20.844 274.178 22.1555 269.986 22.1555C265.793 22.1555 263.256 20.844 263.256 18.565C263.256 16.2645 265.793 14.953 269.986 14.953ZM269.986 16.415C266.911 16.415 265.041 17.189 265.041 18.565C265.041 19.9195 266.911 20.715 269.986 20.715C273.082 20.715 274.931 19.9195 274.931 18.565C274.931 17.189 273.082 16.415 269.986 16.415ZM283.249 3.7515H295.762V5.2135H283.249V3.7515ZM281.013 10.911H298.622V12.373H281.013V10.911ZM294.601 3.7515H296.343V5.192C296.343 6.8475 296.343 8.7395 295.698 11.427L293.956 11.341C294.601 8.675 294.601 6.8045 294.601 5.192V3.7515ZM283.163 15.0175H296.407V21.919H283.163V15.0175ZM294.666 16.4365H284.905V20.4785H294.666V16.4365ZM314.079 2.7625H315.863V17.3395H314.079V2.7625ZM315.304 9.1265H318.744V10.6315H315.304V9.1265ZM300.835 5.106H312.316V6.5465H300.835V5.106ZM306.575 7.6215C309.327 7.6215 311.219 9.062 311.219 11.255C311.219 13.4265 309.327 14.867 306.575 14.867C303.802 14.867 301.91 13.4265 301.91 11.255C301.91 9.062 303.802 7.6215 306.575 7.6215ZM306.575 9.019C304.812 9.019 303.608 9.9005 303.608 11.255C303.608 12.588 304.812 13.4695 306.575 13.4695C308.317 13.4695 309.521 12.588 309.521 11.255C309.521 9.9005 308.317 9.019 306.575 9.019ZM305.672 2.741H307.457V5.8585H305.672V2.741ZM303.759 20.285H316.745V21.747H303.759V20.285ZM303.759 16.1785H305.543V20.9085H303.759V16.1785ZM340.807 2.741H342.591V15.899H340.807V2.741ZM336.636 8.2235H341.172V9.6855H336.636V8.2235ZM334.701 4.2675H336.571C336.571 9.2985 333.26 12.8675 327.692 14.6735L326.939 13.2545C331.863 11.7065 334.701 8.7825 334.701 4.977V4.2675ZM327.864 4.2675H335.969V5.7295H327.864V4.2675ZM335.432 14.222H336.958V15.1035C336.958 18.823 333.561 21.3385 329.67 22.134L328.96 20.715C332.4 20.0915 335.432 17.9415 335.432 15.1035V14.222ZM335.69 14.222H337.216V15.1035C337.216 17.8985 340.205 20.0485 343.666 20.672L342.914 22.091C339.044 21.317 335.69 18.8015 335.69 15.1035V14.222ZM360.499 2.7195H362.284V22.1985H360.499V2.7195ZM352.028 4.2245C354.909 4.2245 356.973 6.869 356.973 10.997C356.973 15.1465 354.909 17.791 352.028 17.791C349.169 17.791 347.105 15.1465 347.105 10.997C347.105 6.869 349.169 4.2245 352.028 4.2245ZM352.028 5.837C350.136 5.837 348.803 7.858 348.803 10.997C348.803 14.1575 350.136 16.2215 352.028 16.2215C353.942 16.2215 355.253 14.1575 355.253 10.997C355.253 7.858 353.942 5.837 352.028 5.837ZM386.454 2.741H388.238V22.22H386.454V2.741ZM380.477 9.148H387.034V10.61H380.477V9.148ZM373.274 4.9125H375.037V16.9525H373.274V4.9125ZM373.274 16.0065H374.779C377.789 16.0065 380.477 15.8345 383.465 15.211L383.68 16.716C380.584 17.318 377.854 17.5115 374.779 17.5115H373.274V16.0065ZM391.977 14.0285H409.607V15.4905H391.977V14.0285ZM399.846 14.91H401.609V22.177H399.846V14.91ZM394.213 3.816H407.328V11.4055H394.213V3.816ZM405.587 5.2565H395.976V9.965H405.587V5.2565ZM431.111 2.741H432.896V12.6525H431.111V2.741ZM432.122 7.1055H435.777V8.589H432.122V7.1055ZM418.62 4.0095H427.542V11.943H418.62V4.0095ZM425.801 5.45H420.361V10.524H425.801V5.45ZM419.845 20.199H420.77C421.931 20.199 423.801 20.0915 425.457 19.5325L425.758 20.973C423.887 21.575 422.103 21.661 420.77 21.661H419.845V20.199ZM419.845 14.437H421.587V20.586H419.845V14.437ZM425.048 14.6305H434.809V15.9635H425.048V14.6305ZM429.95 16.673C432.057 16.673 433.541 17.748 433.541 19.4035C433.541 21.102 432.057 22.1555 429.95 22.1555C427.822 22.1555 426.338 21.102 426.338 19.4035C426.338 17.748 427.822 16.673 429.95 16.673ZM429.95 17.9415C428.746 17.9415 427.929 18.522 427.929 19.4035C427.929 20.3065 428.746 20.887 429.95 20.887C431.111 20.887 431.95 20.3065 431.95 19.4035C431.95 18.522 431.111 17.9415 429.95 17.9415ZM429.069 12.932H430.81V15.5765H429.069V12.932ZM446.374 3.0635C450.653 3.0635 453.211 4.2675 453.211 6.439C453.211 8.6105 450.653 9.8145 446.374 9.8145C442.074 9.8145 439.537 8.6105 439.537 6.439C439.537 4.2675 442.074 3.0635 446.374 3.0635ZM446.374 4.418C443.192 4.418 441.365 5.149 441.365 6.439C441.365 7.729 443.192 8.46 446.374 8.46C449.535 8.46 451.362 7.729 451.362 6.439C451.362 5.149 449.535 4.418 446.374 4.418ZM437.581 11.1045H455.146V12.545H437.581V11.1045ZM439.709 14.2005H452.91V18.5865H441.515V20.9515H439.752V17.2965H451.147V15.5765H439.709V14.2005ZM439.752 20.5645H453.491V21.962H439.752V20.5645ZM474.543 3.1495H476.199V21.2095H474.543V3.1495ZM475.511 10.653H479.101V12.115H475.511V10.653ZM463.987 15.641H464.761C465.513 15.641 466.782 15.6195 468.287 15.254L468.437 16.7375C466.825 17.1245 465.578 17.1245 464.761 17.1245H463.987V15.641ZM463.987 5.1705H468.136V6.6325H465.642V16.4795H463.987V5.1705ZM468.975 15.641H469.792C470.824 15.641 472.178 15.598 473.662 15.1895L473.834 16.673C472.243 17.103 470.91 17.1245 469.792 17.1245H468.975V15.641ZM468.975 5.1705H473.253V6.6325H470.609V16.415H468.975V5.1705ZM478.478 2.741H480.176V22.177H478.478V2.741Z" fill="white"/>
<path d="M208.2 90.114H209.694V106.422H208.2V90.114ZM201.108 91.374C203.52 91.374 205.248 93.588 205.248 97.044C205.248 100.518 203.52 102.732 201.108 102.732C198.714 102.732 196.986 100.518 196.986 97.044C196.986 93.588 198.714 91.374 201.108 91.374ZM201.108 92.724C199.524 92.724 198.408 94.416 198.408 97.044C198.408 99.69 199.524 101.418 201.108 101.418C202.71 101.418 203.808 99.69 203.808 97.044C203.808 94.416 202.71 92.724 201.108 92.724ZM225.227 90.132H226.649V102.48H225.227V90.132ZM219.521 94.848H222.599V96.072H219.521V94.848ZM222.131 90.456H223.553V102.012H222.131V90.456ZM213.671 91.428H215.075V94.164H218.549V91.428H219.971V99.402H213.671V91.428ZM215.075 95.352V98.196H218.549V95.352H215.075ZM216.047 104.82H227.153V106.044H216.047V104.82ZM216.047 100.824H217.541V105.486H216.047V100.824ZM231.399 98.898H242.577V100.104H231.399V98.898ZM229.509 103.074H244.251V104.316H229.509V103.074ZM231.399 91.518H242.397V92.742H232.911V99.276H231.399V91.518ZM232.425 95.154H242.055V96.342H232.425V95.154ZM246.068 103.164H260.81V104.406H246.068V103.164ZM252.656 99.672H254.15V103.686H252.656V99.672ZM247.85 91.338H258.992V96.27H249.38V99.528H247.904V95.064H257.516V92.544H247.85V91.338ZM247.904 98.898H259.37V100.122H247.904V98.898ZM268.535 91.122H269.993V93.642H274.673V91.122H276.149V98.808H268.535V91.122ZM269.993 94.83V97.62H274.673V94.83H269.993ZM270.155 100.878H281.027V106.404H279.515V102.084H270.155V100.878ZM279.515 90.132H281.027V99.978H279.515V90.132ZM287.901 91.482C290.007 91.482 291.375 93.66 291.375 97.152C291.375 100.644 290.007 102.822 287.901 102.822C285.795 102.822 284.445 100.644 284.445 97.152C284.445 93.66 285.795 91.482 287.901 91.482ZM287.901 92.868C286.623 92.868 285.813 94.524 285.813 97.152C285.813 99.78 286.623 101.436 287.901 101.436C289.179 101.436 289.989 99.78 289.989 97.152C289.989 94.524 289.179 92.868 287.901 92.868ZM296.631 90.132H298.071V106.404H296.631V90.132ZM294.057 96.576H297.171V97.8H294.057V96.576ZM293.031 90.474H294.453V105.594H293.031V90.474ZM302.156 90.618H314.108V91.788H302.156V90.618ZM302.228 94.884H314.036V96.036H302.228V94.884ZM304.622 91.068H306.116V95.64H304.622V91.068ZM310.166 91.068H311.642V95.64H310.166V91.068ZM300.788 97.386H315.494V98.592H300.788V97.386ZM302.57 100.014H313.622V103.578H304.082V105.54H302.606V102.516H312.146V101.13H302.57V100.014ZM302.606 105.09H314.108V106.224H302.606V105.09ZM329.749 90.132H331.189V106.404H329.749V90.132ZM327.175 96.666H330.289V97.908H327.175V96.666ZM326.221 90.492H327.625V105.576H326.221V90.492ZM317.509 92.166H325.033V93.39H317.509V92.166ZM317.365 102.408L317.185 101.148C319.327 101.148 322.855 101.076 325.339 100.752L325.447 101.85C322.873 102.336 319.489 102.408 317.365 102.408ZM318.895 92.958H320.263V101.472H318.895V92.958ZM322.279 92.958H323.647V101.472H322.279V92.958ZM340.439 91.248H341.735V92.49C341.735 96.036 338.441 98.79 335.183 99.528L334.517 98.286C337.379 97.746 340.439 95.262 340.439 92.49V91.248ZM340.709 91.248H342.005V92.49C342.005 95.28 345.083 97.746 347.927 98.286L347.261 99.528C344.021 98.79 340.709 96.054 340.709 92.49V91.248ZM333.923 102.984H348.665V104.208H333.923V102.984ZM366.668 90.078H368.162V99.06H366.668V90.078ZM367.532 93.984H370.574V95.244H367.532V93.984ZM357.83 99.888H368.162V103.524H359.342V105.504H357.866V102.444H366.704V101.022H357.83V99.888ZM357.866 105.072H368.756V106.224H357.866V105.072ZM355.58 91.59H365.192V92.76H355.58V91.59ZM360.386 93.48C362.726 93.48 364.274 94.506 364.274 96.162C364.274 97.8 362.726 98.808 360.386 98.808C358.01 98.808 356.48 97.8 356.48 96.162C356.48 94.506 358.01 93.48 360.386 93.48ZM360.386 94.578C358.874 94.578 357.902 95.19 357.902 96.162C357.902 97.116 358.874 97.728 360.386 97.728C361.88 97.728 362.852 97.116 362.852 96.162C362.852 95.19 361.88 94.578 360.386 94.578ZM359.63 89.952H361.124V92.4H359.63V89.952ZM383.929 90.15H385.441V102.03H383.929V90.15ZM374.983 104.82H385.927V106.044H374.983V104.82ZM374.983 100.806H376.459V105.234H374.983V100.806ZM376.711 91.266C379.141 91.266 380.941 92.922 380.941 95.28C380.941 97.62 379.141 99.294 376.711 99.294C374.281 99.294 372.463 97.62 372.463 95.28C372.463 92.922 374.281 91.266 376.711 91.266ZM376.711 92.562C375.127 92.562 373.921 93.678 373.921 95.28C373.921 96.864 375.127 97.98 376.711 97.98C378.295 97.98 379.501 96.864 379.501 95.28C379.501 93.678 378.295 92.562 376.711 92.562ZM404.848 90.132H406.342V99.654H404.848V90.132ZM405.928 94.038H408.754V95.298H405.928V94.038ZM394.39 91.032H395.866V93.516H400.456V91.032H401.914V98.628H394.39V91.032ZM395.866 94.704V97.422H400.456V94.704H395.866ZM396.172 100.536H406.468V101.742H397.666V105.828H396.172V100.536ZM396.172 104.964H406.792V106.188H396.172V104.964ZM417.627 91.158C421.011 91.158 423.531 92.958 423.531 95.658C423.531 98.376 421.011 100.158 417.627 100.158C414.243 100.158 411.705 98.376 411.705 95.658C411.705 92.958 414.243 91.158 417.627 91.158ZM417.627 92.382C415.053 92.382 413.145 93.696 413.145 95.658C413.145 97.602 415.053 98.934 417.627 98.934C420.201 98.934 422.109 97.602 422.109 95.658C422.109 93.696 420.201 92.382 417.627 92.382ZM410.283 103.002H425.025V104.262H410.283V103.002ZM433.249 95.946H436.363V97.188H433.249V95.946ZM430.207 91.662H431.377V94.758C431.377 98.16 429.955 101.454 427.579 102.912L426.643 101.778C428.875 100.464 430.207 97.548 430.207 94.758V91.662ZM430.495 91.662H431.647V94.704C431.647 97.314 432.871 100.086 435.013 101.382L434.149 102.552C431.809 101.112 430.495 97.872 430.495 94.704V91.662ZM439.225 90.132H440.665V106.404H439.225V90.132ZM435.931 90.474H437.335V105.594H435.931V90.474ZM447 98.502H448.476V103.38H447V98.502ZM453.012 98.502H454.506V103.38H453.012V98.502ZM443.4 103.092H458.142V104.334H443.4V103.092ZM450.744 91.158C454.182 91.158 456.648 92.796 456.648 95.352C456.648 97.89 454.182 99.528 450.744 99.528C447.288 99.528 444.822 97.89 444.822 95.352C444.822 92.796 447.288 91.158 450.744 91.158ZM450.744 92.346C448.134 92.346 446.262 93.534 446.262 95.352C446.262 97.152 448.134 98.34 450.744 98.34C453.354 98.34 455.208 97.152 455.208 95.352C455.208 93.534 453.354 92.346 450.744 92.346ZM462.433 91.9091L462.306 101.318H460.823L460.695 91.9091H462.433ZM461.564 105.102C461.249 105.102 460.978 104.989 460.752 104.763C460.526 104.538 460.413 104.267 460.413 103.952C460.413 103.636 460.526 103.366 460.752 103.14C460.978 102.914 461.249 102.801 461.564 102.801C461.879 102.801 462.15 102.914 462.376 103.14C462.602 103.366 462.715 103.636 462.715 103.952C462.715 104.161 462.661 104.352 462.555 104.527C462.453 104.702 462.314 104.842 462.139 104.949C461.969 105.051 461.777 105.102 461.564 105.102Z" fill="white"/>
<path d="M183.562 92.792H176V106.681H190.12V98.656" stroke="white" stroke-width="1.8"/>
<path d="M178.315 96.8022L182.944 102.202L192.744 90.3193" stroke="white" stroke-width="1.8"/>
</g>
</g>
<defs>
<clipPath id="clip0_12138_18968">
<rect width="800" height="109" fill="white"/>
</clipPath>
</defs>
</svg>
