<svg width="345" height="47" viewBox="0 0 345 47" fill="none" xmlns="http://www.w3.org/2000/svg">
<g clip-path="url(#clip0_12127_18342)">
<mask id="mask0_12127_18342" style="mask-type:luminance" maskUnits="userSpaceOnUse" x="0" y="0" width="345" height="47">
<path d="M345 0H0V47H345V0Z" fill="white"/>
</mask>
<g mask="url(#mask0_12127_18342)">
<path d="M105.836 25.657H106.694C108.41 25.657 109.719 25.635 111.237 25.393L111.369 26.559C109.829 26.801 108.443 26.845 106.694 26.845H105.836V25.657ZM105.836 19.805H110.621V20.993H107.31V26.042H105.836V19.805ZM106.958 22.632H110.478V23.776H106.958V22.632ZM111.952 18.958H113.426V29.144H111.952V18.958ZM113.096 22.819H114.9V24.029H113.096V22.819ZM116.065 19.871H120.96V26.724H116.065V19.871ZM119.53 21.015H117.506V25.569H119.53V21.015ZM122.544 18.947H124.018V29.166H122.544V18.947ZM129.462 19.541H130.738V20.278C130.738 22.489 129.165 24.447 126.525 24.964L125.898 23.754C128.197 23.358 129.462 21.741 129.462 20.278V19.541ZM129.759 19.541H131.024V20.278C131.024 21.774 132.278 23.358 134.588 23.754L133.961 24.964C131.321 24.447 129.759 22.522 129.759 20.278V19.541ZM125.689 26.713H134.907V27.901H125.689V26.713ZM139.075 19.629C140.681 19.629 141.88 20.674 141.88 22.137C141.88 23.611 140.681 24.656 139.075 24.656C137.48 24.656 136.259 23.611 136.259 22.137C136.259 20.674 137.48 19.629 139.075 19.629ZM139.075 20.883C138.294 20.883 137.7 21.345 137.7 22.137C137.7 22.94 138.294 23.402 139.075 23.402C139.856 23.402 140.45 22.94 140.45 22.137C140.45 21.345 139.856 20.883 139.075 20.883ZM142.837 18.947H144.3V29.166H142.837V18.947ZM136.017 27.098L135.841 25.921C137.634 25.921 140.131 25.899 142.276 25.58L142.386 26.636C140.175 27.076 137.777 27.098 136.017 27.098ZM150.717 19.31H151.905V19.959C151.905 21.895 151.003 23.567 149.034 24.183L148.33 23.017C150.013 22.511 150.717 21.268 150.717 19.959V19.31ZM151.014 19.31H152.191V19.926C152.191 21.169 152.873 22.324 154.501 22.797L153.764 23.93C151.872 23.347 151.014 21.785 151.014 19.926V19.31ZM155.018 18.958H156.481V24.183H155.018V18.958ZM155.887 20.938H157.823V22.137H155.887V20.938ZM149.749 24.579H156.481V27.329H151.223V28.572H149.771V26.273H155.04V25.701H149.749V24.579ZM149.771 27.945H156.778V29.078H149.771V27.945ZM161.31 19.662C162.861 19.662 163.983 21.07 163.983 23.292C163.983 25.536 162.861 26.944 161.31 26.944C159.759 26.944 158.637 25.536 158.637 23.292C158.637 21.07 159.759 19.662 161.31 19.662ZM161.31 20.993C160.551 20.993 160.045 21.796 160.045 23.292C160.045 24.81 160.551 25.624 161.31 25.624C162.069 25.624 162.586 24.81 162.586 23.292C162.586 21.796 162.069 20.993 161.31 20.993ZM165.094 18.958H166.568V29.144H165.094V18.958ZM166.238 22.797H168.042V24.007H166.238V22.797ZM170.989 25.14H172.089V25.481C172.089 27.021 171.407 28.429 169.812 29.001L169.097 27.934C170.428 27.483 170.989 26.471 170.989 25.481V25.14ZM171.363 25.14H172.408V25.481C172.408 26.471 172.903 27.505 174.146 28.022L173.563 29.1C171.946 28.495 171.363 26.977 171.363 25.481V25.14ZM174.707 25.14H175.752V25.481C175.752 26.889 175.147 28.473 173.563 29.1L172.958 28.022C174.201 27.461 174.707 26.383 174.707 25.481V25.14ZM175.048 25.14H176.148V25.481C176.148 26.537 176.698 27.516 178.04 27.934L177.325 29.001C175.708 28.451 175.048 27.087 175.048 25.481V25.14ZM175.697 18.969H177.171V24.722H175.697V18.969ZM171.627 19.486C173.211 19.486 174.388 20.498 174.388 21.928C174.388 23.347 173.211 24.359 171.627 24.359C170.043 24.359 168.855 23.347 168.855 21.928C168.855 20.498 170.043 19.486 171.627 19.486ZM171.627 20.696C170.857 20.696 170.285 21.147 170.285 21.928C170.285 22.698 170.857 23.149 171.627 23.149C172.397 23.149 172.958 22.698 172.958 21.928C172.958 21.147 172.397 20.696 171.627 20.696ZM179.964 21.708H187.026V22.863H179.964V21.708ZM178.82 23.919H188.049V25.085H178.82V23.919ZM179.964 19.321H181.416V22.28H179.964V19.321ZM179.865 27.758H187.081V28.924H179.865V27.758ZM179.865 25.899H181.328V28.066H179.865V25.899ZM192.878 21.067H201.25V22.445H192.878V21.067ZM192.878 17.83H194.607V21.691H192.878V17.83ZM191.578 23.771H202.459V25.162H191.578V23.771ZM194.048 24.265H195.777V29.322H194.048V24.265ZM198.247 24.265H199.976V29.322H198.247V24.265ZM205.968 21.353H207.697V23.576H205.968V21.353ZM210.206 21.353H211.922V23.576H210.206V21.353ZM208.971 17.492C211.623 17.492 213.326 18.389 213.326 19.845C213.326 21.314 211.623 22.211 208.971 22.211C206.319 22.211 204.616 21.314 204.616 19.845C204.616 18.389 206.319 17.492 208.971 17.492ZM208.971 18.831C207.32 18.831 206.397 19.156 206.397 19.845C206.397 20.534 207.32 20.872 208.971 20.872C210.609 20.872 211.545 20.534 211.545 19.845C211.545 19.156 210.609 18.831 208.971 18.831ZM203.524 23.199H214.405V24.564H203.524V23.199ZM204.733 25.383H213.092V29.322H211.363V26.748H204.733V25.383ZM222.009 20.196H224.297V21.6H222.009V20.196ZM223.829 17.284H225.558V24.434H223.829V17.284ZM221.476 24.694C224.024 24.694 225.597 25.565 225.597 27.021C225.597 28.49 224.024 29.335 221.476 29.335C218.928 29.335 217.355 28.49 217.355 27.021C217.355 25.565 218.928 24.694 221.476 24.694ZM221.476 26.007C219.916 26.007 219.084 26.332 219.084 27.021C219.084 27.697 219.916 28.022 221.476 28.022C223.049 28.022 223.881 27.697 223.881 27.021C223.881 26.332 223.049 26.007 221.476 26.007ZM218.265 18.493H219.669V19.247C219.669 21.548 218.603 23.654 216.302 24.434L215.418 23.069C217.407 22.393 218.265 20.794 218.265 19.247V18.493ZM218.629 18.493H220.02V19.247C220.02 20.664 220.839 22.133 222.737 22.77L221.892 24.135C219.656 23.394 218.629 21.392 218.629 19.247V18.493ZM215.886 18.012H222.36V19.39H215.886V18.012ZM227.455 26.527H238.349V27.931H227.455V26.527ZM232.018 23.953H233.747V26.865H232.018V23.953ZM228.599 18.051H230.315V19.897H235.45V18.051H237.166V24.317H228.599V18.051ZM230.315 21.249V22.939H235.45V21.249H230.315Z" fill="white"/>
<path d="M107.071 5.51804H111.397V5.99404H107.071V5.51804ZM107.071 3.70504H107.652V5.74204H107.071V3.70504ZM106.35 6.89704H112.069V7.38004H106.35V6.89704ZM107.82 7.07904H108.401V9.71104H107.82V7.07904ZM110.011 7.07904H110.585V9.71104H110.011V7.07904ZM114.196 5.57404H114.77V6.77104H114.196V5.57404ZM116.52 5.57404H117.094V6.77104H116.52V5.57404ZM115.645 3.51604C117.01 3.51604 117.871 3.96404 117.871 4.72004C117.871 5.48304 117.01 5.93104 115.645 5.93104C114.273 5.93104 113.419 5.48304 113.419 4.72004C113.419 3.96404 114.273 3.51604 115.645 3.51604ZM115.645 3.97804C114.637 3.97804 114.014 4.25104 114.014 4.72004C114.014 5.18904 114.637 5.46904 115.645 5.46904C116.646 5.46904 117.276 5.18904 117.276 4.72004C117.276 4.25104 116.646 3.97804 115.645 3.97804ZM112.782 6.60304H118.501V7.07904H112.782V6.60304ZM113.419 7.66704H117.794V9.71104H117.213V8.14304H113.419V7.66704ZM122.078 4.79004H123.989V5.27304H122.078V4.79004ZM122.078 6.79204H123.989V7.27504H122.078V6.79204ZM120.916 3.86604C121.833 3.86604 122.491 4.72704 122.491 6.07104C122.491 7.42204 121.833 8.28304 120.916 8.28304C119.992 8.28304 119.341 7.42204 119.341 6.07104C119.341 4.72704 119.992 3.86604 120.916 3.86604ZM120.916 4.39104C120.307 4.39104 119.887 5.04904 119.887 6.07104C119.887 7.10004 120.307 7.77204 120.916 7.77204C121.525 7.77204 121.945 7.10004 121.945 6.07104C121.945 5.04904 121.525 4.39104 120.916 4.39104ZM123.863 3.37604H124.437V9.71804H123.863V3.37604ZM130.442 3.38304H130.995V7.38704H130.442V3.38304ZM129.413 5.09804H130.61V5.58104H129.413V5.09804ZM129.091 3.50904H129.637V7.16304H129.091V3.50904ZM125.633 4.13904H128.839V4.60104H125.633V4.13904ZM127.243 4.92304C128.034 4.92304 128.587 5.35704 128.587 6.00804C128.587 6.66604 128.034 7.09304 127.243 7.09304C126.445 7.09304 125.892 6.66604 125.892 6.00804C125.892 5.35704 126.445 4.92304 127.243 4.92304ZM127.243 5.35704C126.746 5.35704 126.41 5.61604 126.41 6.00804C126.41 6.40704 126.746 6.65904 127.243 6.65904C127.733 6.65904 128.069 6.40704 128.069 6.00804C128.069 5.61604 127.733 5.35704 127.243 5.35704ZM126.956 3.43204H127.523V4.39804H126.956V3.43204ZM128.923 7.49904C130.239 7.49904 131.03 7.89104 131.03 8.59804C131.03 9.29804 130.239 9.69704 128.923 9.69704C127.593 9.69704 126.809 9.29804 126.809 8.59804C126.809 7.89104 127.593 7.49904 128.923 7.49904ZM128.923 7.94704C127.95 7.94704 127.383 8.17804 127.383 8.59804C127.383 9.01804 127.95 9.25604 128.923 9.25604C129.882 9.25604 130.456 9.01804 130.456 8.59804C130.456 8.17804 129.882 7.94704 128.923 7.94704ZM134.805 3.65604H138.879V4.12504H134.805V3.65604ZM134.077 5.91004H139.81V6.38604H134.077V5.91004ZM136.639 6.24604H137.22V7.55504H136.639V6.24604ZM138.501 3.65604H139.068V4.11104C139.068 4.62904 139.068 5.26604 138.858 6.12704L138.291 6.05704C138.501 5.21704 138.501 4.61504 138.501 4.11104V3.65604ZM136.926 7.35904C138.291 7.35904 139.124 7.78604 139.124 8.53504C139.124 9.27704 138.291 9.70404 136.926 9.70404C135.561 9.70404 134.735 9.27704 134.735 8.53504C134.735 7.78604 135.561 7.35904 136.926 7.35904ZM136.926 7.83504C135.925 7.83504 135.316 8.08704 135.316 8.53504C135.316 8.97604 135.925 9.23504 136.926 9.23504C137.934 9.23504 138.536 8.97604 138.536 8.53504C138.536 8.08704 137.934 7.83504 136.926 7.83504ZM141.244 3.71204H145.318V4.18804H141.244V3.71204ZM140.516 6.04304H146.249V6.51904H140.516V6.04304ZM144.94 3.71204H145.507V4.18104C145.507 4.72004 145.507 5.33604 145.297 6.21104L144.73 6.18304C144.94 5.31504 144.94 4.70604 144.94 4.18104V3.71204ZM141.216 7.38004H145.528V9.62704H141.216V7.38004ZM144.961 7.84204H141.783V9.15804H144.961V7.84204ZM151.281 3.39004H151.862V8.13604H151.281V3.39004ZM151.68 5.46204H152.8V5.95204H151.68V5.46204ZM146.969 4.15304H150.707V4.62204H146.969V4.15304ZM148.838 4.97204C149.734 4.97204 150.35 5.44104 150.35 6.15504C150.35 6.86204 149.734 7.33104 148.838 7.33104C147.935 7.33104 147.319 6.86204 147.319 6.15504C147.319 5.44104 147.935 4.97204 148.838 4.97204ZM148.838 5.42704C148.264 5.42704 147.872 5.71404 147.872 6.15504C147.872 6.58904 148.264 6.87604 148.838 6.87604C149.405 6.87604 149.797 6.58904 149.797 6.15504C149.797 5.71404 149.405 5.42704 148.838 5.42704ZM148.544 3.38304H149.125V4.39804H148.544V3.38304ZM147.921 9.09504H152.149V9.57104H147.921V9.09504ZM147.921 7.75804H148.502V9.29804H147.921V7.75804ZM159.984 3.38304H160.565V7.66704H159.984V3.38304ZM158.626 5.16804H160.103V5.64404H158.626V5.16804ZM157.996 3.88004H158.605C158.605 5.51804 157.527 6.68004 155.714 7.26804L155.469 6.80604C157.072 6.30204 157.996 5.35004 157.996 4.11104V3.88004ZM155.77 3.88004H158.409V4.35604H155.77V3.88004ZM158.234 7.12104H158.731V7.40804C158.731 8.61904 157.625 9.43804 156.358 9.69704L156.127 9.23504C157.247 9.03204 158.234 8.33204 158.234 7.40804V7.12104ZM158.318 7.12104H158.815V7.40804C158.815 8.31804 159.788 9.01804 160.915 9.22104L160.67 9.68304C159.41 9.43104 158.318 8.61204 158.318 7.40804V7.12104ZM166.395 3.37604H166.976V9.71804H166.395V3.37604ZM163.637 3.86604C164.575 3.86604 165.247 4.72704 165.247 6.07104C165.247 7.42204 164.575 8.28304 163.637 8.28304C162.706 8.28304 162.034 7.42204 162.034 6.07104C162.034 4.72704 162.706 3.86604 163.637 3.86604ZM163.637 4.39104C163.021 4.39104 162.587 5.04904 162.587 6.07104C162.587 7.10004 163.021 7.77204 163.637 7.77204C164.26 7.77204 164.687 7.10004 164.687 6.07104C164.687 5.04904 164.26 4.39104 163.637 4.39104ZM174.845 3.38304H175.426V9.72504H174.845V3.38304ZM172.899 5.46904H175.034V5.94504H172.899V5.46904ZM170.554 4.09004H171.128V8.01004H170.554V4.09004ZM170.554 7.70204H171.044C172.024 7.70204 172.899 7.64604 173.872 7.44304L173.942 7.93304C172.934 8.12904 172.045 8.19204 171.044 8.19204H170.554V7.70204ZM176.644 7.05804H182.384V7.53404H176.644V7.05804ZM179.206 7.34504H179.78V9.71104H179.206V7.34504ZM177.372 3.73304H181.642V6.20404H177.372V3.73304ZM181.075 4.20204H177.946V5.73504H181.075V4.20204ZM189.385 3.38304H189.966V6.61004H189.385V3.38304ZM189.714 4.80404H190.904V5.28704H189.714V4.80404ZM185.318 3.79604H188.223V6.37904H185.318V3.79604ZM187.656 4.26504H185.885V5.91704H187.656V4.26504ZM185.717 9.06704H186.018C186.396 9.06704 187.005 9.03204 187.544 8.85004L187.642 9.31904C187.033 9.51504 186.452 9.54304 186.018 9.54304H185.717V9.06704ZM185.717 7.19104H186.284V9.19304H185.717V7.19104ZM187.411 7.25404H190.589V7.68804H187.411V7.25404ZM189.007 7.91904C189.693 7.91904 190.176 8.26904 190.176 8.80804C190.176 9.36104 189.693 9.70404 189.007 9.70404C188.314 9.70404 187.831 9.36104 187.831 8.80804C187.831 8.26904 188.314 7.91904 189.007 7.91904ZM189.007 8.33204C188.615 8.33204 188.349 8.52104 188.349 8.80804C188.349 9.10204 188.615 9.29104 189.007 9.29104C189.385 9.29104 189.658 9.10204 189.658 8.80804C189.658 8.52104 189.385 8.33204 189.007 8.33204ZM188.72 6.70104H189.287V7.56204H188.72V6.70104ZM194.354 3.48804C195.747 3.48804 196.58 3.88004 196.58 4.58704C196.58 5.29404 195.747 5.68604 194.354 5.68604C192.954 5.68604 192.128 5.29404 192.128 4.58704C192.128 3.88004 192.954 3.48804 194.354 3.48804ZM194.354 3.92904C193.318 3.92904 192.723 4.16704 192.723 4.58704C192.723 5.00704 193.318 5.24504 194.354 5.24504C195.383 5.24504 195.978 5.00704 195.978 4.58704C195.978 4.16704 195.383 3.92904 194.354 3.92904ZM191.491 6.10604H197.21V6.57504H191.491V6.10604ZM192.184 7.11404H196.482V8.54204H192.772V9.31204H192.198V8.12204H195.908V7.56204H192.184V7.11404ZM192.198 9.18604H196.671V9.64104H192.198V9.18604ZM203.526 3.51604H204.065V9.39604H203.526V3.51604ZM203.841 5.95904H205.01V6.43504H203.841V5.95904ZM200.089 7.58304H200.341C200.586 7.58304 200.999 7.57604 201.489 7.45704L201.538 7.94004C201.013 8.06604 200.607 8.06604 200.341 8.06604H200.089V7.58304ZM200.089 4.17404H201.44V4.65004H200.628V7.85604H200.089V4.17404ZM201.713 7.58304H201.979C202.315 7.58304 202.756 7.56904 203.239 7.43604L203.295 7.91904C202.777 8.05904 202.343 8.06604 201.979 8.06604H201.713V7.58304ZM201.713 4.17404H203.106V4.65004H202.245V7.83504H201.713V4.17404ZM204.807 3.38304H205.36V9.71104H204.807V3.38304Z" fill="white"/>
<path d="M118.906 37.7153H119.446V43.6043H118.906V37.7153ZM116.345 38.1703C117.216 38.1703 117.84 38.9698 117.84 40.2178C117.84 41.4723 117.216 42.2718 116.345 42.2718C115.481 42.2718 114.857 41.4723 114.857 40.2178C114.857 38.9698 115.481 38.1703 116.345 38.1703ZM116.345 38.6578C115.773 38.6578 115.37 39.2688 115.37 40.2178C115.37 41.1733 115.773 41.7973 116.345 41.7973C116.924 41.7973 117.32 41.1733 117.32 40.2178C117.32 39.2688 116.924 38.6578 116.345 38.6578ZM125.055 37.7218H125.568V42.1808H125.055V37.7218ZM122.994 39.4248H124.106V39.8668H122.994V39.4248ZM123.937 37.8388H124.45V42.0118H123.937V37.8388ZM120.882 38.1898H121.389V39.1778H122.643V38.1898H123.157V41.0693H120.882V38.1898ZM121.389 39.6068V40.6338H122.643V39.6068H121.389ZM121.74 43.0258H125.75V43.4678H121.74V43.0258ZM121.74 41.5828H122.279V43.2663H121.74V41.5828ZM127.284 40.8873H131.32V41.3228H127.284V40.8873ZM126.601 42.3953H131.925V42.8438H126.601V42.3953ZM127.284 38.2223H131.255V38.6643H127.83V41.0238H127.284V38.2223ZM127.654 39.5353H131.132V39.9643H127.654V39.5353ZM132.58 42.4278H137.904V42.8763H132.58V42.4278ZM134.959 41.1668H135.499V42.6163H134.959V41.1668ZM133.224 38.1573H137.247V39.9383H133.776V41.1148H133.243V39.5028H136.714V38.5928H133.224V38.1573ZM133.243 40.8873H137.384V41.3293H133.243V40.8873ZM140.694 38.0793H141.22V38.9893H142.91V38.0793H143.443V40.8548H140.694V38.0793ZM141.22 39.4183V40.4258H142.91V39.4183H141.22ZM141.279 41.6023H145.205V43.5978H144.659V42.0378H141.279V41.6023ZM144.659 37.7218H145.205V41.2773H144.659V37.7218ZM147.687 38.2093C148.448 38.2093 148.942 38.9958 148.942 40.2568C148.942 41.5178 148.448 42.3043 147.687 42.3043C146.927 42.3043 146.439 41.5178 146.439 40.2568C146.439 38.9958 146.927 38.2093 147.687 38.2093ZM147.687 38.7098C147.226 38.7098 146.933 39.3078 146.933 40.2568C146.933 41.2058 147.226 41.8038 147.687 41.8038C148.149 41.8038 148.441 41.2058 148.441 40.2568C148.441 39.3078 148.149 38.7098 147.687 38.7098ZM150.84 37.7218H151.36V43.5978H150.84V37.7218ZM149.91 40.0488H151.035V40.4908H149.91V40.0488ZM149.54 37.8453H150.053V43.3053H149.54V37.8453ZM152.835 37.8973H157.151V38.3198H152.835V37.8973ZM152.861 39.4378H157.125V39.8538H152.861V39.4378ZM153.725 38.0598H154.265V39.7108H153.725V38.0598ZM155.727 38.0598H156.26V39.7108H155.727V38.0598ZM152.341 40.3413H157.651V40.7768H152.341V40.3413ZM152.984 41.2903H156.975V42.5773H153.53V43.2858H152.997V42.1938H156.442V41.6933H152.984V41.2903ZM152.997 43.1233H157.151V43.5328H152.997V43.1233ZM162.799 37.7218H163.319V43.5978H162.799V37.7218ZM161.869 40.0813H162.994V40.5298H161.869V40.0813ZM161.525 37.8518H162.032V43.2988H161.525V37.8518ZM158.379 38.4563H161.096V38.8983H158.379V38.4563ZM158.327 42.1548L158.262 41.6998C159.035 41.6998 160.309 41.6738 161.206 41.5568L161.245 41.9533C160.316 42.1288 159.094 42.1548 158.327 42.1548ZM158.879 38.7423H159.373V41.8168H158.879V38.7423ZM160.101 38.7423H160.595V41.8168H160.101V38.7423ZM166.659 38.1248H167.127V38.5733C167.127 39.8538 165.938 40.8483 164.761 41.1148L164.521 40.6663C165.554 40.4713 166.659 39.5743 166.659 38.5733V38.1248ZM166.757 38.1248H167.225V38.5733C167.225 39.5808 168.336 40.4713 169.363 40.6663L169.123 41.1148C167.953 40.8483 166.757 39.8603 166.757 38.5733V38.1248ZM164.306 42.3628H169.63V42.8048H164.306V42.3628ZM176.131 37.7023H176.67V40.9458H176.131V37.7023ZM176.443 39.1128H177.541V39.5678H176.443V39.1128ZM172.939 41.2448H176.67V42.5578H173.485V43.2728H172.952V42.1678H176.144V41.6543H172.939V41.2448ZM172.952 43.1168H176.885V43.5328H172.952V43.1168ZM172.127 38.2483H175.598V38.6708H172.127V38.2483ZM173.862 38.9308C174.707 38.9308 175.266 39.3013 175.266 39.8993C175.266 40.4908 174.707 40.8548 173.862 40.8548C173.004 40.8548 172.452 40.4908 172.452 39.8993C172.452 39.3013 173.004 38.9308 173.862 38.9308ZM173.862 39.3273C173.316 39.3273 172.965 39.5483 172.965 39.8993C172.965 40.2438 173.316 40.4648 173.862 40.4648C174.402 40.4648 174.753 40.2438 174.753 39.8993C174.753 39.5483 174.402 39.3273 173.862 39.3273ZM173.589 37.6568H174.129V38.5408H173.589V37.6568ZM182.364 37.7283H182.91V42.0183H182.364V37.7283ZM179.133 43.0258H183.085V43.4678H179.133V43.0258ZM179.133 41.5763H179.666V43.1753H179.133V41.5763ZM179.757 38.1313C180.635 38.1313 181.285 38.7293 181.285 39.5808C181.285 40.4258 180.635 41.0303 179.757 41.0303C178.88 41.0303 178.223 40.4258 178.223 39.5808C178.223 38.7293 178.88 38.1313 179.757 38.1313ZM179.757 38.5993C179.185 38.5993 178.75 39.0023 178.75 39.5808C178.75 40.1528 179.185 40.5558 179.757 40.5558C180.329 40.5558 180.765 40.1528 180.765 39.5808C180.765 39.0023 180.329 38.5993 179.757 38.5993ZM189.918 37.7218H190.457V41.1603H189.918V37.7218ZM190.308 39.1323H191.328V39.5873H190.308V39.1323ZM186.141 38.0468H186.674V38.9438H188.332V38.0468H188.858V40.7898H186.141V38.0468ZM186.674 39.3728V40.3543H188.332V39.3728H186.674ZM186.785 41.4788H190.503V41.9143H187.324V43.3898H186.785V41.4788ZM186.785 43.0778H190.62V43.5198H186.785V43.0778ZM194.532 38.0923C195.754 38.0923 196.664 38.7423 196.664 39.7173C196.664 40.6988 195.754 41.3423 194.532 41.3423C193.31 41.3423 192.394 40.6988 192.394 39.7173C192.394 38.7423 193.31 38.0923 194.532 38.0923ZM194.532 38.5343C193.603 38.5343 192.914 39.0088 192.914 39.7173C192.914 40.4193 193.603 40.9003 194.532 40.9003C195.462 40.9003 196.151 40.4193 196.151 39.7173C196.151 39.0088 195.462 38.5343 194.532 38.5343ZM191.88 42.3693H197.204V42.8243H191.88V42.3693ZM200.174 39.8213H201.298V40.2698H200.174V39.8213ZM199.075 38.2743H199.498V39.3923C199.498 40.6208 198.984 41.8103 198.126 42.3368L197.788 41.9273C198.594 41.4528 199.075 40.3998 199.075 39.3923V38.2743ZM199.179 38.2743H199.595V39.3728C199.595 40.3153 200.037 41.3163 200.811 41.7843L200.499 42.2068C199.654 41.6868 199.179 40.5168 199.179 39.3728V38.2743ZM202.332 37.7218H202.852V43.5978H202.332V37.7218ZM201.142 37.8453H201.649V43.3053H201.142V37.8453ZM205.139 40.7443H205.672V42.5058H205.139V40.7443ZM207.31 40.7443H207.85V42.5058H207.31V40.7443ZM203.839 42.4018H209.163V42.8503H203.839V42.4018ZM206.491 38.0923C207.733 38.0923 208.623 38.6838 208.623 39.6068C208.623 40.5233 207.733 41.1148 206.491 41.1148C205.243 41.1148 204.353 40.5233 204.353 39.6068C204.353 38.6838 205.243 38.0923 206.491 38.0923ZM206.491 38.5213C205.549 38.5213 204.873 38.9503 204.873 39.6068C204.873 40.2568 205.549 40.6858 206.491 40.6858C207.434 40.6858 208.103 40.2568 208.103 39.6068C208.103 38.9503 207.434 38.5213 206.491 38.5213ZM210.713 38.3635L210.666 41.7613H210.131L210.085 38.3635H210.713ZM210.399 43.1278C210.285 43.1278 210.187 43.087 210.105 43.0054C210.024 42.9239 209.983 42.8261 209.983 42.7123C209.983 42.5984 210.024 42.5007 210.105 42.4191C210.187 42.3376 210.285 42.2968 210.399 42.2968C210.512 42.2968 210.61 42.3376 210.692 42.4191C210.773 42.5007 210.814 42.5984 210.814 42.7123C210.814 42.7877 210.795 42.8569 210.756 42.92C210.719 42.9831 210.669 43.0339 210.606 43.0724C210.545 43.1093 210.476 43.1278 210.399 43.1278Z" fill="white"/>
<path d="M109.585 38.5693H106.585V44.0793H112.185V40.8962" stroke="white"/>
<path d="M107.504 40.1597L109.341 42.3018L113.228 37.5889" stroke="white"/>
</g>
</g>
<defs>
<clipPath id="clip0_12127_18342">
<rect width="345" height="47" fill="white"/>
</clipPath>
</defs>
</svg>
