<svg width="800" height="109" viewBox="0 0 800 109" fill="none" xmlns="http://www.w3.org/2000/svg">
<g clip-path="url(#clip0_12137_18929)">
<mask id="mask0_12137_18929" style="mask-type:luminance" maskUnits="userSpaceOnUse" x="0" y="0" width="800" height="109">
<path d="M800 0H0V109H800V0Z" fill="white"/>
</mask>
<g mask="url(#mask0_12137_18929)">
<path d="M148.866 39.55H152.856V43.73C152.856 50.076 150.5 56.308 144.876 59.006L142.026 55.13C146.966 52.736 148.866 48.024 148.866 43.73V39.55ZM149.778 39.55H153.73V43.73C153.73 47.834 155.554 51.938 160.228 54.066L157.492 57.866C151.982 55.472 149.778 49.848 149.778 43.73V39.55ZM167.714 37.232H172.502V63.566H167.714V37.232ZM163.534 47.302H169.12V51.368H163.534V47.302ZM160.266 37.84H164.978V62.54H160.266V37.84ZM148.828 67.746H173.414V71.774H148.828V67.746ZM148.828 60.45H153.882V70.254H148.828V60.45ZM177.515 64.174H209.359V68.316H177.515V64.174ZM179.947 40.234H206.737V44.262H179.947V40.234ZM180.099 54.788H206.623V58.854H180.099V54.788ZM184.735 43.958H189.789V55.168H184.735V43.958ZM196.933 43.958H201.949V55.168H196.933V43.958ZM235.082 37.232H240.136V63.148H235.082V37.232ZM238.692 47.302H244.81V51.482H238.692V47.302ZM217.564 67.746H241.428V71.774H217.564V67.746ZM217.564 61.058H222.656V69.076H217.564V61.058ZM213.688 54.066H216.652C223.568 54.066 227.824 53.876 232.688 52.964L233.144 57.03C228.204 57.942 223.758 58.094 216.652 58.094H213.688V54.066ZM213.65 39.322H229.724V50.418H218.704V55.51H213.688V46.694H224.746V43.35H213.65V39.322ZM263.313 37.688C271.331 37.688 276.043 39.816 276.043 43.692C276.043 47.568 271.331 49.696 263.313 49.696C255.257 49.696 250.583 47.568 250.583 43.692C250.583 39.816 255.257 37.688 263.313 37.688ZM263.313 41.374C258.221 41.374 255.827 42.134 255.827 43.692C255.827 45.326 258.221 46.01 263.313 46.01C268.405 46.01 270.799 45.326 270.799 43.692C270.799 42.134 268.405 41.374 263.313 41.374ZM247.391 51.33H279.197V55.32H247.391V51.33ZM251.039 57.296H275.359V66.34H256.055V69.456H251.077V62.844H270.381V61.058H251.039V57.296ZM251.077 68.354H276.271V72.154H251.077V68.354ZM315.311 37.194H320.403V55.206H315.311V37.194ZM296.919 56.612H320.403V66.074H301.935V69.76H296.995V62.54H315.387V60.45H296.919V56.612ZM296.995 68.278H321.277V72.154H296.995V68.278ZM299.693 40.538H303.797V41.906C303.797 48.138 300.491 53.686 293.613 55.624L291.295 51.672C297.147 50.038 299.693 45.934 299.693 41.906V40.538ZM300.795 40.538H304.861V41.906C304.861 45.63 307.369 49.468 313.107 51.026L310.789 54.902C304.025 53.078 300.795 47.796 300.795 41.906V40.538ZM292.625 38.79H311.777V42.78H292.625V38.79ZM339.134 41.108H343.504V42.134C343.504 48.328 338.45 53.382 329.52 54.598L327.658 50.646C335.41 49.696 339.134 45.744 339.134 42.134V41.108ZM340.578 41.108H344.948V42.134C344.948 45.744 348.672 49.696 356.424 50.646L354.6 54.598C345.632 53.382 340.578 48.328 340.578 42.134V41.108ZM339.4 59.5H344.416V72.42H339.4V59.5ZM326.138 56.612H357.944V60.64H326.138V56.612ZM328.95 38.98H355.056V42.97H328.95V38.98ZM383.629 37.194H388.645V72.382H383.629V37.194ZM387.505 50.912H393.737V55.13H387.505V50.912ZM360.905 42.4H381.387V46.428H360.905V42.4ZM371.203 48.404C376.333 48.404 380.133 51.9 380.133 56.802C380.133 61.704 376.333 65.2 371.203 65.2C366.073 65.2 362.273 61.704 362.273 56.802C362.273 51.9 366.073 48.404 371.203 48.404ZM371.203 52.508C368.809 52.508 367.099 54.104 367.099 56.802C367.099 59.5 368.809 61.096 371.203 61.096C373.597 61.096 375.307 59.5 375.307 56.802C375.307 54.104 373.597 52.508 371.203 52.508ZM368.657 37.764H373.711V43.92H368.657V37.764ZM399.966 46.694H424.362V50.684H399.966V46.694ZM396.014 54.332H427.896V58.36H396.014V54.332ZM399.966 38.448H404.982V48.67H399.966V38.448ZM399.624 67.594H424.552V71.622H399.624V67.594ZM399.624 61.172H404.678V68.658H399.624V61.172ZM448.91 39.287H453.425V43.759C453.425 52.746 449.641 61.905 442.331 65.345L439.106 60.83C445.685 57.734 448.91 50.295 448.91 43.759V39.287ZM450.114 39.287H454.629V43.759C454.629 49.779 457.725 56.831 464.261 59.841L461.122 64.356C453.812 60.959 450.114 52.23 450.114 43.759V39.287ZM440.654 36.836H462.498V41.523H440.654V36.836ZM465.422 33.009H471.184V72.827H465.422V33.009ZM469.894 48.188H476.946V52.918H469.894V48.188ZM500.851 43.286H510.139V47.887H500.851V43.286ZM507.129 33.052H512.848V62.077H507.129V33.052ZM486.575 67.581H513.751V72.139H486.575V67.581ZM486.575 59.626H492.294V70.29H486.575V59.626ZM488.725 38.255H493.369V40.749C493.369 48.231 489.843 55.154 482.189 57.691L479.308 53.133C485.887 50.983 488.725 45.78 488.725 40.749V38.255ZM489.929 38.255H494.53V40.749C494.53 45.393 497.239 50.338 503.517 52.445L500.722 56.917C493.326 54.466 489.929 47.844 489.929 40.749V38.255ZM480.856 35.718H502.27V40.233H480.856V35.718ZM546.685 33.009H552.404V72.827H546.685V33.009ZM538.988 48.274H549.437V52.918H538.988V48.274ZM533.613 37.137H539.246C539.246 49.22 535.419 59.067 521.616 65.99L518.606 61.518C529.872 55.928 533.613 48.704 533.613 38.169V37.137ZM520.498 37.137H536.623V41.652H520.498V37.137ZM566.582 64.7244L566.414 66.4041C566.282 67.7479 566.027 69.0865 565.65 70.4201C565.284 71.7638 564.897 72.9804 564.49 74.0696C564.093 75.1589 563.772 76.014 563.528 76.6349H559.313C559.466 76.0343 559.675 75.1945 559.939 74.1154C560.204 73.0465 560.454 71.8453 560.688 70.5117C560.922 69.1781 561.069 67.8191 561.131 66.4347L561.207 64.7244H566.582ZM583.834 36.363H609.075V40.964H583.834V36.363ZM580.179 63.41H616.17V68.054H580.179V63.41ZM592.907 49.736H598.626V65.689H592.907V49.736ZM607.011 36.363H612.73V40.19C612.73 45.178 612.73 50.768 611.139 59.282L605.42 58.637C607.011 50.725 607.011 44.963 607.011 40.19V36.363ZM634.743 36.836H640.333C640.333 49.134 637.409 59.368 622.574 66.893L619.521 62.55C631.905 56.315 634.743 48.704 634.743 37.524V36.836ZM621.972 36.836H638.14V41.351H621.972V36.836ZM634.872 46.597V50.983L620.596 52.359L619.908 47.457L634.872 46.597ZM645.149 32.966H650.911V72.784H645.149V32.966ZM649.406 48.188H656.415V52.875H649.406V48.188Z" fill="white"/>
<path d="M146.139 4.117H147.558V6.8905C147.558 9.9435 145.924 13.1685 143.107 14.5445L142.075 13.1685C144.634 11.943 146.139 9.234 146.139 6.8905V4.117ZM146.418 4.117H147.837V6.8905C147.837 9.1695 149.278 11.513 151.772 12.588L150.783 13.9425C147.966 12.717 146.418 9.9005 146.418 6.8905V4.117ZM156.738 2.7625H158.437V17.404H156.738V2.7625ZM153.642 8.5675H157.297V10.0295H153.642V8.5675ZM152.567 3.1065H154.266V16.7375H152.567V3.1065ZM145.773 20.285H159.039V21.747H145.773V20.285ZM145.773 15.5765H147.558V21.1235H145.773V15.5765ZM161.853 18.1995H179.462V19.683H161.853V18.1995ZM163.38 4.676H177.806V6.138H163.38V4.676ZM163.423 12.889H177.785V14.351H163.423V12.889ZM166.411 6.0305H168.196V13.0395H166.411V6.0305ZM173.033 6.0305H174.796V13.0395H173.033V6.0305ZM194.919 2.7625H196.703V17.0815H194.919V2.7625ZM196.166 8.6965H199.584V10.2015H196.166V8.6965ZM184.728 20.285H197.585V21.747H184.728V20.285ZM184.728 15.9635H186.512V20.8225H184.728V15.9635ZM182.47 12.588H183.997C187.523 12.588 190.038 12.4805 193.07 11.943L193.22 13.4265C190.146 13.9425 187.587 14.05 183.997 14.05H182.47V12.588ZM182.427 4.0095H191.178V9.578H184.212V13.104H182.47V8.2235H189.415V5.4715H182.427V4.0095ZM210.182 3.0635C214.46 3.0635 217.019 4.2675 217.019 6.439C217.019 8.6105 214.46 9.8145 210.182 9.8145C205.882 9.8145 203.345 8.6105 203.345 6.439C203.345 4.2675 205.882 3.0635 210.182 3.0635ZM210.182 4.418C207 4.418 205.172 5.149 205.172 6.439C205.172 7.729 207 8.46 210.182 8.46C213.342 8.46 215.17 7.729 215.17 6.439C215.17 5.149 213.342 4.418 210.182 4.418ZM201.388 11.1045H218.954V12.545H201.388V11.1045ZM203.517 14.2005H216.718V18.5865H205.323V20.9515H203.56V17.2965H214.955V15.5765H203.517V14.2005ZM203.56 20.5645H217.298V21.962H203.56V20.5645ZM229.385 11.513H242.844V12.9965H229.385V11.513ZM227.235 18.0275H244.844V19.511H227.235V18.0275ZM229.385 4.4395H231.17V12.1795H229.385V4.4395ZM261.139 2.741H262.923V22.177H261.139V2.741ZM257.333 7.987H261.891V9.449H257.333V7.987ZM256.108 13.1685H261.698V14.6305H256.108V13.1685ZM251.12 4.848H252.775C252.775 9.4705 251.7 14.0285 248.217 17.748L246.82 16.716C249.959 13.4265 251.12 9.406 251.12 5.02V4.848ZM247.486 4.848H251.808V6.31H247.486V4.848ZM256.344 4.848H258C258 9.4705 257.29 14.867 253.764 19.0595L252.302 18.092C255.527 14.2865 256.344 9.4705 256.344 4.9985V4.848ZM253.377 4.848H257.097V6.31H253.377V4.848ZM261.139 2.741H262.923V22.177H261.139V2.741ZM266.792 18.221H284.4V19.7045H266.792V18.221ZM274.661 13.577H276.445V18.651H274.661V13.577ZM268.856 4.117H270.619V7.5785H280.53V4.117H282.293V14.05H268.856V4.117ZM270.619 9.019V12.588H280.53V9.019H270.619ZM291.365 5.5145H292.784V8.675C292.784 12.717 290.311 16.888 287.28 18.436L286.248 17.017C289.021 15.6625 291.365 11.9645 291.365 8.675V5.5145ZM291.687 5.5145H293.106V8.675C293.106 11.7495 295.299 15.211 298.116 16.544L297.105 17.963C294.031 16.4365 291.687 12.5235 291.687 8.675V5.5145ZM286.936 4.719H297.406V6.224H286.936V4.719ZM299.707 2.741H301.513V22.177H299.707V2.741ZM301.083 10.5885H304.695V12.0935H301.083V10.5885Z" fill="white"/>
<path d="M168.138 100.256H169.416C172.422 100.256 174.492 100.184 176.94 99.752L177.102 100.976C174.582 101.408 172.458 101.498 169.416 101.498H168.138V100.256ZM168.138 90.608H175.716V91.85H169.632V100.688H168.138V90.608ZM169.254 95.162H175.356V96.368H169.254V95.162ZM178.452 89.132H179.964V105.404H178.452V89.132ZM179.604 95.666H182.628V96.926H179.604V95.666ZM184.931 90.716H192.419V101.318H184.931V90.716ZM190.961 91.922H186.389V100.112H190.961V91.922ZM195.821 89.114H197.315V105.422H195.821V89.114ZM207.088 90.248H208.384V91.49C208.384 95.036 205.09 97.79 201.832 98.528L201.166 97.286C204.028 96.746 207.088 94.262 207.088 91.49V90.248ZM207.358 90.248H208.654V91.49C208.654 94.28 211.732 96.746 214.576 97.286L213.91 98.528C210.67 97.79 207.358 95.054 207.358 91.49V90.248ZM200.572 101.984H215.314V103.208H200.572V101.984ZM217.13 102.164H231.872V103.406H217.13V102.164ZM223.718 98.672H225.212V102.686H223.718V98.672ZM218.912 90.338H230.054V95.27H220.442V98.528H218.966V94.064H228.578V91.544H218.912V90.338ZM218.966 97.898H230.432V99.122H218.966V97.898ZM250.631 89.132H252.125V101.246H250.631V89.132ZM239.219 90.446H247.787V91.67H239.219V90.446ZM238.949 98.798L238.787 97.52C241.451 97.52 245.249 97.484 248.291 97.124L248.381 98.24C245.249 98.744 241.595 98.798 238.949 98.798ZM240.839 91.49H242.279V97.736H240.839V91.49ZM244.727 91.49H246.167V97.736H244.727V91.49ZM247.931 92.21H251.423V93.434H247.931V92.21ZM247.931 95.324H251.423V96.548H247.931V95.324ZM241.721 103.82H252.557V105.044H241.721V103.82ZM241.721 100.256H243.215V104.594H241.721V100.256ZM267.154 89.114H268.648V105.422H267.154V89.114ZM256.246 100.256H257.596C260.314 100.256 262.744 100.148 265.624 99.68L265.786 100.904C262.834 101.39 260.386 101.498 257.596 101.498H256.246V100.256ZM256.21 90.644H263.734V96.458H257.74V100.724H256.246V95.234H262.222V91.868H256.21V90.644ZM282.993 89.15H284.487V101.354H282.993V89.15ZM284.019 94.478H286.899V95.738H284.019V94.478ZM271.905 91.112H281.517V92.318H271.905V91.112ZM276.711 93.218C279.015 93.218 280.599 94.424 280.599 96.26C280.599 98.078 279.015 99.284 276.711 99.284C274.389 99.284 272.805 98.078 272.805 96.26C272.805 94.424 274.389 93.218 276.711 93.218ZM276.711 94.388C275.235 94.388 274.227 95.126 274.227 96.26C274.227 97.376 275.235 98.114 276.711 98.114C278.169 98.114 279.177 97.376 279.177 96.26C279.177 95.126 278.169 94.388 276.711 94.388ZM275.955 89.132H277.449V91.742H275.955V89.132ZM274.353 103.82H285.225V105.044H274.353V103.82ZM274.353 100.382H275.847V104.342H274.353V100.382ZM300.816 92.75H305.73V93.992H300.816V92.75ZM300.816 97.898H305.73V99.14H300.816V97.898ZM297.828 90.374C300.186 90.374 301.878 92.588 301.878 96.044C301.878 99.518 300.186 101.732 297.828 101.732C295.452 101.732 293.778 99.518 293.778 96.044C293.778 92.588 295.452 90.374 297.828 90.374ZM297.828 91.724C296.262 91.724 295.182 93.416 295.182 96.044C295.182 98.69 296.262 100.418 297.828 100.418C299.394 100.418 300.474 98.69 300.474 96.044C300.474 93.416 299.394 91.724 297.828 91.724ZM305.406 89.114H306.882V105.422H305.406V89.114ZM322.324 89.132H323.746V99.428H322.324V89.132ZM319.678 93.542H322.756V94.784H319.678V93.542ZM318.85 89.456H320.254V98.852H318.85V89.456ZM309.958 91.076H318.202V92.264H309.958V91.076ZM314.098 93.092C316.132 93.092 317.554 94.208 317.554 95.882C317.554 97.574 316.132 98.672 314.098 98.672C312.046 98.672 310.624 97.574 310.624 95.882C310.624 94.208 312.046 93.092 314.098 93.092ZM314.098 94.208C312.82 94.208 311.956 94.874 311.956 95.882C311.956 96.908 312.82 97.556 314.098 97.556C315.358 97.556 316.222 96.908 316.222 95.882C316.222 94.874 315.358 94.208 314.098 94.208ZM313.36 89.258H314.818V91.742H313.36V89.258ZM318.418 99.716C321.802 99.716 323.836 100.724 323.836 102.542C323.836 104.342 321.802 105.368 318.418 105.368C314.998 105.368 312.982 104.342 312.982 102.542C312.982 100.724 314.998 99.716 318.418 99.716ZM318.418 100.868C315.916 100.868 314.458 101.462 314.458 102.542C314.458 103.622 315.916 104.234 318.418 104.234C320.884 104.234 322.36 103.622 322.36 102.542C322.36 101.462 320.884 100.868 318.418 100.868Z" fill="white"/>
<path d="M149.562 91.792H142V105.681H156.12V97.656" stroke="white" stroke-width="1.8"/>
<path d="M144.315 95.8022L148.944 101.202L158.744 89.3193" stroke="white" stroke-width="1.8"/>
</g>
</g>
<defs>
<clipPath id="clip0_12137_18929">
<rect width="800" height="109" fill="white"/>
</clipPath>
</defs>
</svg>
