<svg width="345" height="47" viewBox="0 0 345 47" fill="none" xmlns="http://www.w3.org/2000/svg">
<g clip-path="url(#clip0_12137_18942)">
<mask id="mask0_12137_18942" style="mask-type:luminance" maskUnits="userSpaceOnUse" x="0" y="0" width="345" height="47">
<path d="M345 0H0V47H345V0Z" fill="white"/>
</mask>
<g mask="url(#mask0_12137_18942)">
<path d="M98.277 19.475H99.432V20.685C99.432 22.522 98.75 24.326 97.122 25.107L96.297 23.985C97.727 23.292 98.277 21.928 98.277 20.685V19.475ZM98.541 19.475H99.685V20.685C99.685 21.873 100.213 23.061 101.566 23.677L100.774 24.777C99.179 24.084 98.541 22.456 98.541 20.685V19.475ZM103.733 18.804H105.119V26.427H103.733V18.804ZM102.523 21.719H104.14V22.896H102.523V21.719ZM101.577 18.98H102.941V26.13H101.577V18.98ZM98.266 27.637H105.383V28.803H98.266V27.637ZM98.266 25.525H99.729V28.363H98.266V25.525ZM106.57 26.603H115.788V27.802H106.57V26.603ZM107.274 19.673H115.029V20.839H107.274V19.673ZM107.318 23.886H114.996V25.063H107.318V23.886ZM108.66 20.751H110.123V23.996H108.66V20.751ZM112.191 20.751H113.643V23.996H112.191V20.751ZM123.234 18.804H124.697V26.306H123.234V18.804ZM124.279 21.719H126.05V22.929H124.279V21.719ZM118.163 27.637H125.071V28.803H118.163V27.637ZM118.163 25.701H119.637V28.022H118.163V25.701ZM117.041 23.677H117.899C119.901 23.677 121.133 23.622 122.541 23.358L122.673 24.535C121.243 24.799 119.956 24.843 117.899 24.843H117.041V23.677ZM117.03 19.409H121.683V22.621H118.493V24.095H117.041V21.543H120.242V20.575H117.03V19.409ZM131.406 18.936C133.727 18.936 135.091 19.552 135.091 20.674C135.091 21.796 133.727 22.412 131.406 22.412C129.074 22.412 127.721 21.796 127.721 20.674C127.721 19.552 129.074 18.936 131.406 18.936ZM131.406 20.003C129.932 20.003 129.239 20.223 129.239 20.674C129.239 21.147 129.932 21.345 131.406 21.345C132.88 21.345 133.573 21.147 133.573 20.674C133.573 20.223 132.88 20.003 131.406 20.003ZM126.797 22.885H136.004V24.04H126.797V22.885ZM127.853 24.612H134.893V27.23H129.305V28.132H127.864V26.218H133.452V25.701H127.853V24.612ZM127.864 27.813H135.157V28.913H127.864V27.813ZM146.458 18.793H147.932V24.007H146.458V18.793ZM141.134 24.414H147.932V27.153H142.586V28.22H141.156V26.13H146.48V25.525H141.134V24.414ZM141.156 27.791H148.185V28.913H141.156V27.791ZM141.937 19.761H143.125V20.157C143.125 21.961 142.168 23.567 140.177 24.128L139.506 22.984C141.2 22.511 141.937 21.323 141.937 20.157V19.761ZM142.256 19.761H143.433V20.157C143.433 21.235 144.159 22.346 145.82 22.797L145.149 23.919C143.191 23.391 142.256 21.862 142.256 20.157V19.761ZM139.891 19.255H145.435V20.41H139.891V19.255ZM153.355 19.926H154.62V20.223C154.62 22.016 153.157 23.479 150.572 23.831L150.033 22.687C152.277 22.412 153.355 21.268 153.355 20.223V19.926ZM153.773 19.926H155.038V20.223C155.038 21.268 156.116 22.412 158.36 22.687L157.832 23.831C155.236 23.479 153.773 22.016 153.773 20.223V19.926ZM153.432 25.25H154.884V28.99H153.432V25.25ZM149.593 24.414H158.8V25.58H149.593V24.414ZM150.407 19.31H157.964V20.465H150.407V19.31ZM166.235 18.793H167.687V28.979H166.235V18.793ZM167.357 22.764H169.161V23.985H167.357V22.764ZM159.657 20.3H165.586V21.466H159.657V20.3ZM162.638 22.038C164.123 22.038 165.223 23.05 165.223 24.469C165.223 25.888 164.123 26.9 162.638 26.9C161.153 26.9 160.053 25.888 160.053 24.469C160.053 23.05 161.153 22.038 162.638 22.038ZM162.638 23.226C161.945 23.226 161.45 23.688 161.45 24.469C161.45 25.25 161.945 25.712 162.638 25.712C163.331 25.712 163.826 25.25 163.826 24.469C163.826 23.688 163.331 23.226 162.638 23.226ZM161.901 18.958H163.364V20.74H161.901V18.958ZM170.964 21.543H178.026V22.698H170.964V21.543ZM169.82 23.754H179.049V24.92H169.82V23.754ZM170.964 19.156H172.416V22.115H170.964V19.156ZM170.865 27.593H178.081V28.759H170.865V27.593ZM170.865 25.734H172.328V27.901H170.865V25.734ZM185.269 19.017H186.634V20.369C186.634 23.086 185.49 25.855 183.28 26.895L182.305 25.53C184.294 24.594 185.269 22.345 185.269 20.369V19.017ZM185.633 19.017H186.998V20.369C186.998 22.189 187.934 24.321 189.91 25.231L188.961 26.596C186.751 25.569 185.633 22.93 185.633 20.369V19.017ZM182.773 18.276H189.377V19.693H182.773V18.276ZM190.261 17.119H192.003V29.157H190.261V17.119ZM191.613 21.708H193.745V23.138H191.613V21.708ZM200.972 20.226H203.78V21.617H200.972V20.226ZM202.87 17.132H204.599V25.907H202.87V17.132ZM196.656 27.571H204.872V28.949H196.656V27.571ZM196.656 25.166H198.385V28.39H196.656V25.166ZM197.306 18.705H198.71V19.459C198.71 21.721 197.644 23.814 195.33 24.581L194.459 23.203C196.448 22.553 197.306 20.98 197.306 19.459V18.705ZM197.67 18.705H199.061V19.459C199.061 20.863 199.88 22.358 201.778 22.995L200.933 24.347C198.697 23.606 197.67 21.604 197.67 19.459V18.705ZM194.927 17.938H201.401V19.303H194.927V17.938ZM214.829 17.119H216.558V29.157H214.829V17.119ZM212.502 21.734H215.661V23.138H212.502V21.734ZM210.877 18.367H212.58C212.58 22.02 211.423 24.997 207.25 27.09L206.34 25.738C209.746 24.048 210.877 21.864 210.877 18.679V18.367ZM206.912 18.367H211.787V19.732H206.912V18.367ZM220.844 26.7074L220.793 27.2152C220.753 27.6214 220.676 28.0262 220.562 28.4293C220.452 28.8356 220.335 29.2034 220.212 29.5327C220.092 29.862 219.995 30.1205 219.921 30.3082H218.647C218.693 30.1267 218.756 29.8728 218.836 29.5465C218.916 29.2234 218.991 28.8602 219.062 28.457C219.133 28.0539 219.178 27.643 219.196 27.2244L219.219 26.7074H220.844ZM226.06 18.133H233.691V19.524H226.06V18.133ZM224.955 26.31H235.836V27.714H224.955V26.31ZM228.803 22.176H230.532V26.999H228.803V22.176ZM233.067 18.133H234.796V19.29C234.796 20.798 234.796 22.488 234.315 25.062L232.586 24.867C233.067 22.475 233.067 20.733 233.067 19.29V18.133ZM241.451 18.276H243.141C243.141 21.994 242.257 25.088 237.772 27.363L236.849 26.05C240.593 24.165 241.451 21.864 241.451 18.484V18.276ZM237.59 18.276H242.478V19.641H237.59V18.276ZM241.49 21.227V22.553L237.174 22.969L236.966 21.487L241.49 21.227ZM244.597 17.106H246.339V29.144H244.597V17.106ZM245.884 21.708H248.003V23.125H245.884V21.708Z" fill="white"/>
<path d="M98.673 3.666H99.135V4.569C99.135 5.563 98.603 6.613 97.686 7.061L97.35 6.613C98.183 6.214 98.673 5.332 98.673 4.569V3.666ZM98.764 3.666H99.226V4.569C99.226 5.311 99.695 6.074 100.507 6.424L100.185 6.865C99.268 6.466 98.764 5.549 98.764 4.569V3.666ZM102.124 3.225H102.677V7.992H102.124V3.225ZM101.116 5.115H102.306V5.591H101.116V5.115ZM100.766 3.337H101.319V7.775H100.766V3.337ZM98.554 8.93H102.873V9.406H98.554V8.93ZM98.554 7.397H99.135V9.203H98.554V7.397ZM103.789 8.251H109.522V8.734H103.789V8.251ZM104.286 3.848H108.983V4.324H104.286V3.848ZM104.3 6.522H108.976V6.998H104.3V6.522ZM105.273 4.289H105.854V6.571H105.273V4.289ZM107.429 4.289H108.003V6.571H107.429V4.289ZM114.555 3.225H115.136V7.887H114.555V3.225ZM114.961 5.157H116.074V5.647H114.961V5.157ZM111.237 8.93H115.423V9.406H111.237V8.93ZM111.237 7.523H111.818V9.105H111.237V7.523ZM110.502 6.424H110.999C112.147 6.424 112.966 6.389 113.953 6.214L114.002 6.697C113.001 6.865 112.168 6.9 110.999 6.9H110.502V6.424ZM110.488 3.631H113.337V5.444H111.069V6.592H110.502V5.003H112.763V4.107H110.488V3.631ZM119.524 3.323C120.917 3.323 121.75 3.715 121.75 4.422C121.75 5.129 120.917 5.521 119.524 5.521C118.124 5.521 117.298 5.129 117.298 4.422C117.298 3.715 118.124 3.323 119.524 3.323ZM119.524 3.764C118.488 3.764 117.893 4.002 117.893 4.422C117.893 4.842 118.488 5.08 119.524 5.08C120.553 5.08 121.148 4.842 121.148 4.422C121.148 4.002 120.553 3.764 119.524 3.764ZM116.661 5.941H122.38V6.41H116.661V5.941ZM117.354 6.949H121.652V8.377H117.942V9.147H117.368V7.957H121.078V7.397H117.354V6.949ZM117.368 9.021H121.841V9.476H117.368V9.021ZM125.777 6.074H130.159V6.557H125.777V6.074ZM125.077 8.195H130.81V8.678H125.077V8.195ZM125.777 3.771H126.358V6.291H125.777V3.771ZM136.115 3.218H136.696V9.546H136.115V3.218ZM134.876 4.926H136.36V5.402H134.876V4.926ZM134.477 6.613H136.297V7.089H134.477V6.613ZM132.853 3.904H133.392C133.392 5.409 133.042 6.893 131.908 8.104L131.453 7.768C132.475 6.697 132.853 5.388 132.853 3.96V3.904ZM131.67 3.904H133.077V4.38H131.67V3.904ZM134.554 3.904H135.093C135.093 5.409 134.862 7.166 133.714 8.531L133.238 8.216C134.288 6.977 134.554 5.409 134.554 3.953V3.904ZM133.588 3.904H134.799V4.38H133.588V3.904ZM136.115 3.218H136.696V9.546H136.115V3.218ZM137.955 8.258H143.688V8.741H137.955V8.258ZM140.517 6.746H141.098V8.398H140.517V6.746ZM138.627 3.666H139.201V4.793H142.428V3.666H143.002V6.9H138.627V3.666ZM139.201 5.262V6.424H142.428V5.262H139.201ZM145.956 4.121H146.418V5.15C146.418 6.466 145.613 7.824 144.626 8.328L144.29 7.866C145.193 7.425 145.956 6.221 145.956 5.15V4.121ZM146.061 4.121H146.523V5.15C146.523 6.151 147.237 7.278 148.154 7.712L147.825 8.174C146.824 7.677 146.061 6.403 146.061 5.15V4.121ZM144.514 3.862H147.923V4.352H144.514V3.862ZM148.672 3.218H149.26V9.546H148.672V3.218ZM149.12 5.773H150.296V6.263H149.12V5.773Z" fill="white"/>
<path d="M105.889 41.5738H106.35C107.436 41.5738 108.183 41.5478 109.067 41.3918L109.126 41.8338C108.216 41.9898 107.449 42.0223 106.35 42.0223H105.889V41.5738ZM105.889 38.0898H108.625V38.5383H106.428V41.7298H105.889V38.0898ZM106.292 39.7343H108.495V40.1698H106.292V39.7343ZM109.613 37.5568H110.159V43.4328H109.613V37.5568ZM110.029 39.9163H111.121V40.3713H110.029V39.9163ZM111.953 38.1288H114.657V41.9573H111.953V38.1288ZM114.13 38.5643H112.479V41.5218H114.13V38.5643ZM115.885 37.5503H116.425V43.4393H115.885V37.5503ZM119.954 37.9598H120.422V38.4083C120.422 39.6888 119.232 40.6833 118.056 40.9498L117.815 40.5013C118.849 40.3063 119.954 39.4093 119.954 38.4083V37.9598ZM120.051 37.9598H120.519V38.4083C120.519 39.4158 121.631 40.3063 122.658 40.5013L122.417 40.9498C121.247 40.6833 120.051 39.6953 120.051 38.4083V37.9598ZM117.601 42.1978H122.924V42.6398H117.601V42.1978ZM123.58 42.2628H128.904V42.7113H123.58V42.2628ZM125.959 41.0018H126.499V42.4513H125.959V41.0018ZM124.224 37.9923H128.247V39.7733H124.776V40.9498H124.243V39.3378H127.714V38.4278H124.224V37.9923ZM124.243 40.7223H128.384V41.1643H124.243V40.7223ZM135.678 37.5568H136.217V41.9313H135.678V37.5568ZM131.557 38.0313H134.651V38.4733H131.557V38.0313ZM131.459 41.0473L131.401 40.5858C132.363 40.5858 133.734 40.5728 134.833 40.4428L134.865 40.8458C133.734 41.0278 132.415 41.0473 131.459 41.0473ZM132.142 38.4083H132.662V40.6638H132.142V38.4083ZM133.546 38.4083H134.066V40.6638H133.546V38.4083ZM134.703 38.6683H135.964V39.1103H134.703V38.6683ZM134.703 39.7928H135.964V40.2348H134.703V39.7928ZM132.46 42.8608H136.373V43.3028H132.46V42.8608ZM132.46 41.5738H133V43.1403H132.46V41.5738ZM141.644 37.5503H142.184V43.4393H141.644V37.5503ZM137.705 41.5738H138.193C139.174 41.5738 140.052 41.5348 141.092 41.3658L141.15 41.8078C140.084 41.9833 139.2 42.0223 138.193 42.0223H137.705V41.5738ZM137.692 38.1028H140.409V40.2023H138.245V41.7428H137.705V39.7603H139.863V38.5448H137.692V38.1028ZM147.364 37.5633H147.903V41.9703H147.364V37.5633ZM147.734 39.4873H148.774V39.9423H147.734V39.4873ZM143.36 38.2718H146.831V38.7073H143.36V38.2718ZM145.095 39.0323C145.927 39.0323 146.499 39.4678 146.499 40.1308C146.499 40.7873 145.927 41.2228 145.095 41.2228C144.257 41.2228 143.685 40.7873 143.685 40.1308C143.685 39.4678 144.257 39.0323 145.095 39.0323ZM145.095 39.4548C144.562 39.4548 144.198 39.7213 144.198 40.1308C144.198 40.5338 144.562 40.8003 145.095 40.8003C145.622 40.8003 145.986 40.5338 145.986 40.1308C145.986 39.7213 145.622 39.4548 145.095 39.4548ZM144.822 37.5568H145.362V38.4993H144.822V37.5568ZM144.244 42.8608H148.17V43.3028H144.244V42.8608ZM144.244 41.6193H144.783V43.0493H144.244V41.6193ZM153.8 38.8633H155.575V39.3118H153.8V38.8633ZM153.8 40.7223H155.575V41.1708H153.8V40.7223ZM152.721 38.0053C153.573 38.0053 154.184 38.8048 154.184 40.0528C154.184 41.3073 153.573 42.1068 152.721 42.1068C151.863 42.1068 151.259 41.3073 151.259 40.0528C151.259 38.8048 151.863 38.0053 152.721 38.0053ZM152.721 38.4928C152.156 38.4928 151.766 39.1038 151.766 40.0528C151.766 41.0083 152.156 41.6323 152.721 41.6323C153.287 41.6323 153.677 41.0083 153.677 40.0528C153.677 39.1038 153.287 38.4928 152.721 38.4928ZM155.458 37.5503H155.991V43.4393H155.458V37.5503ZM161.567 37.5568H162.081V41.2748H161.567V37.5568ZM160.612 39.1493H161.723V39.5978H160.612V39.1493ZM160.313 37.6738H160.82V41.0668H160.313V37.6738ZM157.102 38.2588H160.079V38.6878H157.102V38.2588ZM158.597 38.9868C159.331 38.9868 159.845 39.3898 159.845 39.9943C159.845 40.6053 159.331 41.0018 158.597 41.0018C157.856 41.0018 157.342 40.6053 157.342 39.9943C157.342 39.3898 157.856 38.9868 158.597 38.9868ZM158.597 39.3898C158.135 39.3898 157.823 39.6303 157.823 39.9943C157.823 40.3648 158.135 40.5988 158.597 40.5988C159.052 40.5988 159.364 40.3648 159.364 39.9943C159.364 39.6303 159.052 39.3898 158.597 39.3898ZM158.33 37.6023H158.857V38.4993H158.33V37.6023ZM160.157 41.3788C161.379 41.3788 162.113 41.7428 162.113 42.3993C162.113 43.0493 161.379 43.4198 160.157 43.4198C158.922 43.4198 158.194 43.0493 158.194 42.3993C158.194 41.7428 158.922 41.3788 160.157 41.3788ZM160.157 41.7948C159.253 41.7948 158.727 42.0093 158.727 42.3993C158.727 42.7893 159.253 43.0103 160.157 43.0103C161.047 43.0103 161.58 42.7893 161.58 42.3993C161.58 42.0093 161.047 41.7948 160.157 41.7948Z" fill="white"/>
<path d="M100.585 38.4043H97.585V43.9143H103.185V40.7312" stroke="white"/>
<path d="M98.5044 39.9946L100.341 42.1367L104.228 37.4238" stroke="white"/>
</g>
</g>
<defs>
<clipPath id="clip0_12137_18942">
<rect width="345" height="47" fill="white"/>
</clipPath>
</defs>
</svg>
