<svg width="800" height="109" viewBox="0 0 800 109" fill="none" xmlns="http://www.w3.org/2000/svg">
<path d="M236.2 35.7764V43.4189H241.491V47.2822H236.2V54.8408H231.539V35.7764H236.2ZM236.2 56.4785V66.4307H216.044V69.5801H237.376V73.2754H211.425V63.0293H231.539V60.0898H211.383V56.4785H236.2ZM216.758 37.0361C222.553 37.0361 226.794 40.5215 226.836 45.5605C226.794 50.5156 222.553 54.043 216.758 54.043C210.963 54.043 206.638 50.5156 206.68 45.5605C206.638 40.5215 210.963 37.0361 216.758 37.0361ZM216.758 40.8154C213.566 40.8154 211.215 42.6631 211.257 45.5605C211.215 48.416 213.566 50.3477 216.758 50.3477C219.949 50.3477 222.301 48.416 222.301 45.5605C222.301 42.6631 219.949 40.8154 216.758 40.8154ZM274.668 65.4648V69.3281H239.983V65.4648H254.932V59.292H244.098V46.8623H265.934V42.1592H244.014V38.3799H270.553V50.5576H248.759V55.4707H271.435V59.292H259.551V65.4648H274.668ZM303.436 35.7764V50.8936H309.273V54.7568H303.436V73.7373H298.817V35.7764H303.436ZM295.878 41.6133V45.3506H273.496V41.6133H282.482V36.3223H287.143V41.6133H295.878ZM284.834 47.8281C290.293 47.8281 294.366 51.5234 294.366 56.7725C294.366 62.0215 290.293 65.6748 284.834 65.6748C279.291 65.6748 275.218 62.0215 275.26 56.7725C275.218 51.5234 279.291 47.8281 284.834 47.8281ZM284.834 51.6494C281.852 51.6494 279.711 53.665 279.711 56.7725C279.711 59.8799 281.852 61.8535 284.834 61.8115C287.731 61.8535 289.873 59.8799 289.915 56.7725C289.873 53.665 287.731 51.6494 284.834 51.6494ZM343.924 35.7764V50.8936H349.761V54.7568H343.924V73.7373H339.304V35.7764H343.924ZM336.365 41.6133V45.3506H313.983V41.6133H322.969V36.3223H327.631V41.6133H336.365ZM325.321 47.8281C330.78 47.8281 334.853 51.5234 334.853 56.7725C334.853 62.0215 330.78 65.6748 325.321 65.6748C319.778 65.6748 315.705 62.0215 315.747 56.7725C315.705 51.5234 319.778 47.8281 325.321 47.8281ZM325.321 51.6494C322.34 51.6494 320.198 53.665 320.198 56.7725C320.198 59.8799 322.34 61.8535 325.321 61.8115C328.219 61.8535 330.36 59.8799 330.402 56.7725C330.36 53.665 328.219 51.6494 325.321 51.6494ZM359.254 38.1279C365.091 38.1279 369.542 41.9072 369.584 47.2822C369.542 51.9224 366.267 55.3447 361.648 56.2266V61.8115C364.797 61.6646 367.967 61.4126 370.928 61.0137L371.264 64.499C363.327 65.9268 354.635 65.9688 348.126 65.8848L347.454 62.0635C350.31 62.0635 353.585 62.0635 356.987 61.9795V56.2266C352.22 55.4287 348.924 51.9854 348.966 47.2822C348.924 41.9072 353.291 38.1279 359.254 38.1279ZM359.254 42.0752C355.937 42.1172 353.501 44.0908 353.501 47.2822C353.501 50.4736 355.937 52.4893 359.254 52.4473C362.529 52.4893 364.965 50.4736 364.965 47.2822C364.965 44.0908 362.529 42.1172 359.254 42.0752ZM377.773 35.7764V50.9355H383.274V54.8828H377.773V73.7373H373.112V35.7764H377.773ZM413.217 35.7764V73.7793H408.514V35.7764H413.217ZM392.767 38.5479C398.478 38.5479 402.635 43.7549 402.677 51.9434C402.635 60.2158 398.478 65.3809 392.767 65.3809C387.014 65.3809 382.857 60.2158 382.857 51.9434C382.857 43.7549 387.014 38.5479 392.767 38.5479ZM392.767 42.7471C389.534 42.7471 387.35 46.1484 387.35 51.9434C387.35 57.7803 389.534 61.1816 392.767 61.1816C395.959 61.1816 398.142 57.7803 398.142 51.9434C398.142 46.1484 395.959 42.7471 392.767 42.7471ZM423.173 39.5977L422.711 61.0557H417.966L417.462 39.5977H423.173ZM420.359 70.3359C418.554 70.3359 417.084 68.8662 417.084 67.0605C417.084 65.2969 418.554 63.8271 420.359 63.8271C422.081 63.8271 423.593 65.2969 423.593 67.0605C423.593 68.8662 422.081 70.3359 420.359 70.3359ZM436.355 70L430.641 49.8496H435.465L439.027 64.0254H439.213L442.812 49.8496H447.6L451.236 63.9512H451.422L454.947 49.8496H459.771L454.057 70H449.121L445.336 56.3438H445.076L441.291 70H436.355ZM459.737 70V49.8496H464.487V70H459.737ZM462.149 46.9922C460.665 46.9922 459.403 45.8418 459.403 44.3945C459.403 42.9844 460.665 41.834 462.149 41.834C463.671 41.834 464.896 42.9844 464.896 44.3945C464.896 45.8418 463.671 46.9922 462.149 46.9922ZM476.031 49.8496V53.4863H472.061V63.9512C472.061 65.8809 473.025 66.2891 474.213 66.2891C474.77 66.2891 475.697 66.252 476.291 66.2148V70.0742C475.734 70.1855 474.807 70.2598 473.619 70.2598C470.057 70.2598 467.311 68.5156 467.348 64.7305V53.4863H464.453V49.8496H467.348V45.0254H472.061V49.8496H476.031ZM481.823 58.1992V70H477.073V43.1328H481.712V53.2637H481.972C482.9 51 484.829 49.5898 487.946 49.5898C492.14 49.5898 494.886 52.2988 494.886 57.1602V70H490.173V57.9023C490.173 55.1562 488.689 53.5977 486.202 53.5977C483.642 53.5977 481.823 55.2676 481.823 58.1992ZM499.268 70.2969C497.672 70.2969 496.373 68.998 496.373 67.4023C496.373 65.8438 497.672 64.5449 499.268 64.5449C500.789 64.5449 502.125 65.8438 502.125 67.4023C502.125 68.998 500.789 70.2969 499.268 70.2969ZM519.718 42.6504V46.0273H508.066V52.002H519.124V55.2676H508.066V62.1699C513.224 62.1328 517.25 61.9473 521.944 61.168L522.316 64.5078C517.157 65.3242 512.667 65.5098 506.655 65.5098H503.872V42.6504H519.718ZM528.773 39.7559V52.7441H533.931V56.1953H528.773V73.3027H524.653V39.7559H528.773ZM550.039 42.9102V65.1387H534.082V42.9102H550.039ZM538.164 46.1387V61.8359H546.031V46.1387H538.164ZM560.207 39.7559V73.3398H556.051V39.7559H560.207ZM579.433 44.3574C579.433 49.5527 584.517 54.748 591.531 55.9727L589.675 59.4238C584.053 58.2363 579.451 54.8408 577.281 50.332C575.054 54.8037 570.452 58.2178 564.849 59.4238L563.031 55.9727C569.97 54.7109 575.017 49.5156 575.054 44.3574V41.8711H579.433V44.3574ZM592.755 65.6211V69.0352H562.103V65.6211H592.755Z" fill="white"/>
</svg>
