<svg width="345" height="47" viewBox="0 0 345 47" fill="none" xmlns="http://www.w3.org/2000/svg">
<path d="M123.433 18.6533V20.9639H125.032V22.1318H123.433V24.417H122.023V18.6533H123.433ZM123.433 24.9121V27.9209H117.339V28.873H123.788V29.9902H115.942V26.8926H122.023V26.0039H115.93V24.9121H123.433ZM117.555 19.0342C119.307 19.0342 120.589 20.0879 120.602 21.6113C120.589 23.1094 119.307 24.1758 117.555 24.1758C115.803 24.1758 114.495 23.1094 114.508 21.6113C114.495 20.0879 115.803 19.0342 117.555 19.0342ZM117.555 20.1768C116.59 20.1768 115.879 20.7354 115.892 21.6113C115.879 22.4746 116.59 23.0586 117.555 23.0586C118.52 23.0586 119.23 22.4746 119.23 21.6113C119.23 20.7354 118.52 20.1768 117.555 20.1768ZM135.063 27.6289V28.7969H124.576V27.6289H129.096V25.7627H125.82V22.0049H132.422V20.583H125.795V19.4404H133.818V23.1221H127.23V24.6074H134.085V25.7627H130.492V27.6289H135.063ZM143.76 18.6533V23.2236H145.524V24.3916H143.76V30.1299H142.363V18.6533H143.76ZM141.475 20.418V21.5479H134.708V20.418H137.425V18.8184H138.834V20.418H141.475ZM138.136 22.2969C139.786 22.2969 141.018 23.4141 141.018 25.001C141.018 26.5879 139.786 27.6924 138.136 27.6924C136.46 27.6924 135.229 26.5879 135.241 25.001C135.229 23.4141 136.46 22.2969 138.136 22.2969ZM138.136 23.4521C137.234 23.4521 136.587 24.0615 136.587 25.001C136.587 25.9404 137.234 26.5371 138.136 26.5244C139.012 26.5371 139.659 25.9404 139.672 25.001C139.659 24.0615 139.012 23.4521 138.136 23.4521ZM156 18.6533V23.2236H157.765V24.3916H156V30.1299H154.604V18.6533H156ZM153.715 20.418V21.5479H146.948V20.418H149.665V18.8184H151.074V20.418H153.715ZM150.376 22.2969C152.027 22.2969 153.258 23.4141 153.258 25.001C153.258 26.5879 152.027 27.6924 150.376 27.6924C148.7 27.6924 147.469 26.5879 147.482 25.001C147.469 23.4141 148.7 22.2969 150.376 22.2969ZM150.376 23.4521C149.475 23.4521 148.827 24.0615 148.827 25.001C148.827 25.9404 149.475 26.5371 150.376 26.5244C151.252 26.5371 151.9 25.9404 151.912 25.001C151.9 24.0615 151.252 23.4521 150.376 23.4521ZM160.635 19.3643C162.4 19.3643 163.745 20.5068 163.758 22.1318C163.745 23.5347 162.755 24.5693 161.359 24.8359V26.5244C162.311 26.48 163.269 26.4038 164.164 26.2832L164.266 27.3369C161.866 27.7686 159.238 27.7812 157.271 27.7559L157.068 26.6006C157.931 26.6006 158.921 26.6006 159.949 26.5752V24.8359C158.508 24.5947 157.512 23.5537 157.525 22.1318C157.512 20.5068 158.832 19.3643 160.635 19.3643ZM160.635 20.5576C159.632 20.5703 158.896 21.167 158.896 22.1318C158.896 23.0967 159.632 23.7061 160.635 23.6934C161.625 23.7061 162.362 23.0967 162.362 22.1318C162.362 21.167 161.625 20.5703 160.635 20.5576ZM166.234 18.6533V23.2363H167.897V24.4297H166.234V30.1299H164.824V18.6533H166.234ZM176.949 18.6533V30.1426H175.528V18.6533H176.949ZM170.767 19.4912C172.493 19.4912 173.75 21.0654 173.763 23.541C173.75 26.042 172.493 27.6035 170.767 27.6035C169.028 27.6035 167.771 26.042 167.771 23.541C167.771 21.0654 169.028 19.4912 170.767 19.4912ZM170.767 20.7607C169.789 20.7607 169.129 21.7891 169.129 23.541C169.129 25.3057 169.789 26.334 170.767 26.334C171.732 26.334 172.392 25.3057 172.392 23.541C172.392 21.7891 171.732 20.7607 170.767 20.7607ZM179.959 19.8086L179.82 26.2959H178.385L178.233 19.8086H179.959ZM179.109 29.1016C178.563 29.1016 178.118 28.6572 178.118 28.1113C178.118 27.5781 178.563 27.1338 179.109 27.1338C179.629 27.1338 180.086 27.5781 180.086 28.1113C180.086 28.6572 179.629 29.1016 179.109 29.1016ZM183.547 29L181.893 23.167H183.289L184.321 27.2705H184.374L185.416 23.167H186.802L187.855 27.249H187.908L188.929 23.167H190.325L188.671 29H187.242L186.147 25.0469H186.071L184.976 29H183.547ZM190.316 29V23.167H191.691V29H190.316ZM191.014 22.3398C190.584 22.3398 190.219 22.0068 190.219 21.5879C190.219 21.1797 190.584 20.8467 191.014 20.8467C191.454 20.8467 191.809 21.1797 191.809 21.5879C191.809 22.0068 191.454 22.3398 191.014 22.3398ZM195.032 23.167V24.2197H193.883V27.249C193.883 27.8076 194.162 27.9258 194.506 27.9258C194.667 27.9258 194.936 27.915 195.107 27.9043V29.0215C194.946 29.0537 194.678 29.0752 194.334 29.0752C193.303 29.0752 192.508 28.5703 192.519 27.4746V24.2197H191.681V23.167H192.519V21.7705H193.883V23.167H195.032ZM196.709 25.584V29H195.334V21.2227H196.677V24.1553H196.752C197.02 23.5 197.579 23.0918 198.481 23.0918C199.695 23.0918 200.49 23.876 200.49 25.2832V29H199.126V25.498C199.126 24.7031 198.696 24.252 197.976 24.252C197.235 24.252 196.709 24.7354 196.709 25.584ZM201.759 29.0859C201.297 29.0859 200.921 28.71 200.921 28.248C200.921 27.7969 201.297 27.4209 201.759 27.4209C202.199 27.4209 202.586 27.7969 202.586 28.248C202.586 28.71 202.199 29.0859 201.759 29.0859ZM207.678 21.083V22.0605H204.305V23.79H207.506V24.7354H204.305V26.7334C205.798 26.7227 206.964 26.6689 208.323 26.4434L208.43 27.4102C206.937 27.6465 205.637 27.7002 203.897 27.7002H203.091V21.083H207.678ZM210.299 20.2451V24.0049H211.793V25.0039H210.299V29.9561H209.107V20.2451H210.299ZM216.456 21.1582V27.5928H211.836V21.1582H216.456ZM213.018 22.0928V26.6367H215.295V22.0928H213.018ZM219.399 20.2451V29.9668H218.196V20.2451H219.399ZM224.964 21.5771C224.964 23.0811 226.436 24.585 228.466 24.9395L227.929 25.9385C226.302 25.5947 224.97 24.6118 224.341 23.3066C223.697 24.6011 222.365 25.5894 220.743 25.9385L220.216 24.9395C222.225 24.5742 223.686 23.0703 223.697 21.5771V20.8574H224.964V21.5771ZM228.821 27.7324V28.7207H219.948V27.7324H228.821Z" fill="white"/>
</svg>
