<svg width="345" height="47" viewBox="0 0 345 47" fill="none" xmlns="http://www.w3.org/2000/svg">
<path d="M111.116 19.1738V19.707C111.116 20.3989 111.116 21.5288 110.723 23.0586H113.884C114.176 21.8906 114.233 21.002 114.252 20.3037H111.865V19.1738H115.623V19.7832C115.623 20.5513 115.623 21.6304 115.306 23.0586H116.842V24.2139H112.284V25.8516H115.534V29.9775H107.663V25.8516H110.888V24.2139H106.381V23.0586H109.301C109.625 21.8652 109.707 20.9702 109.732 20.3037H107.346V19.1738H111.116ZM109.047 26.9561V28.8604H114.125V26.9561H109.047ZM124.897 20.2451V29.9561H123.747V20.2451H124.897ZM122.898 20.417V29.4834H121.76V24.8643H120.836C120.723 26.7549 119.912 27.9258 118.709 27.915C117.441 27.9258 116.614 26.583 116.614 24.4453C116.614 22.3076 117.441 20.9863 118.709 20.9863C119.885 20.9863 120.686 22.082 120.825 23.8975H121.76V20.417H122.898ZM118.709 22.1143C118.097 22.1035 117.71 22.9307 117.721 24.4453C117.71 25.96 118.097 26.7871 118.709 26.7764C119.354 26.7871 119.74 25.96 119.74 24.4453C119.74 22.9307 119.354 22.1035 118.709 22.1143ZM134.598 21.1904V22.2861C134.598 23.5859 134.598 24.9287 134.244 26.9697L133.03 26.8623C133.406 24.9502 133.406 23.543 133.406 22.2861V22.1572H127.809V21.1904H134.598ZM135.726 27.6465V28.624H126.875V27.6465H135.726ZM143.591 20.2451V29.9668H142.409V20.2451H143.591ZM140.604 21.0938V24.7354H137.263V26.6904C138.794 26.6797 140.115 26.6045 141.625 26.3467L141.732 27.3242C140.078 27.6143 138.628 27.668 136.887 27.668H136.039V23.79H139.39V22.0605H136.028V21.0938H140.604ZM149.145 20.9648V21.9316H145.89V25.0146C147.405 25.0039 148.447 24.9502 149.628 24.7246L149.747 25.6914C148.425 25.9277 147.265 25.9814 145.471 25.9922H144.709V20.9648H149.145ZM152.26 20.2559V27.3242H151.068V23.79H148.554V22.8447H151.068V20.2559H152.26ZM152.507 28.8389V29.8057H145.879V26.7549H147.083V28.8389H152.507ZM162.37 24.6602V25.6055H159.492V27.8291H163.359V28.8066H154.486V27.8291H158.31V25.6055H155.56V20.9648H162.295V21.9209H156.752V24.6602H162.37ZM166.786 22.5762C166.776 24.3594 167.71 26.1426 169.289 26.8193L168.58 27.7754C167.463 27.2598 166.641 26.2285 166.196 24.9609C165.75 26.3306 164.917 27.4478 163.736 28.001L163.005 27.002C164.627 26.3037 165.572 24.4453 165.572 22.5762V21.0293H166.786V22.5762ZM171.191 20.2451V29.9668H169.987V20.2451H171.191ZM180.602 24.1338V25.0791H171.739V24.1338H180.602ZM179.549 22.5654V23.5107H172.867V20.4922H179.463V21.4482H174.06V22.5654H179.549ZM179.484 25.7451V28.1836H173.963V28.9248H179.753V29.8594H172.792V27.3242H178.314V26.6475H172.781V25.7451H179.484ZM188.251 24.6602V25.6055H185.372V27.8291H189.239V28.8066H180.366V27.8291H184.19V25.6055H181.44V20.9648H188.176V21.9209H182.633V24.6602H188.251ZM192.27 29L190.616 23.167H192.012L193.044 27.2705H193.097L194.139 23.167H195.525L196.578 27.249H196.632L197.652 23.167H199.049L197.394 29H195.966L194.87 25.0469H194.795L193.699 29H192.27ZM199.039 29V23.167H200.414V29H199.039ZM199.737 22.3398C199.307 22.3398 198.942 22.0068 198.942 21.5879C198.942 21.1797 199.307 20.8467 199.737 20.8467C200.177 20.8467 200.532 21.1797 200.532 21.5879C200.532 22.0068 200.177 22.3398 199.737 22.3398ZM203.755 23.167V24.2197H202.606V27.249C202.606 27.8076 202.885 27.9258 203.229 27.9258C203.39 27.9258 203.659 27.915 203.831 27.9043V29.0215C203.669 29.0537 203.401 29.0752 203.057 29.0752C202.026 29.0752 201.231 28.5703 201.242 27.4746V24.2197H200.404V23.167H201.242V21.7705H202.606V23.167H203.755ZM205.432 25.584V29H204.057V21.2227H205.4V24.1553H205.475C205.744 23.5 206.302 23.0918 207.204 23.0918C208.418 23.0918 209.213 23.876 209.213 25.2832V29H207.849V25.498C207.849 24.7031 207.419 24.252 206.7 24.252C205.958 24.252 205.432 24.7354 205.432 25.584ZM210.482 29.0859C210.02 29.0859 209.644 28.71 209.644 28.248C209.644 27.7969 210.02 27.4209 210.482 27.4209C210.922 27.4209 211.309 27.7969 211.309 28.248C211.309 28.71 210.922 29.0859 210.482 29.0859ZM216.401 21.083V22.0605H213.028V23.79H216.23V24.7354H213.028V26.7334C214.522 26.7227 215.687 26.6689 217.046 26.4434L217.153 27.4102C215.66 27.6465 214.36 27.7002 212.62 27.7002H211.815V21.083H216.401ZM219.023 20.2451V24.0049H220.516V25.0039H219.023V29.9561H217.83V20.2451H219.023ZM225.179 21.1582V27.5928H220.56V21.1582H225.179ZM221.741 22.0928V26.6367H224.019V22.0928H221.741ZM228.122 20.2451V29.9668H226.919V20.2451H228.122ZM233.687 21.5771C233.687 23.0811 235.159 24.585 237.189 24.9395L236.652 25.9385C235.025 25.5947 233.693 24.6118 233.064 23.3066C232.42 24.6011 231.088 25.5894 229.466 25.9385L228.939 24.9395C230.948 24.5742 232.409 23.0703 232.42 21.5771V20.8574H233.687V21.5771ZM237.544 27.7324V28.7207H228.671V27.7324H237.544Z" fill="white"/>
</svg>
