<svg width="800" height="109" viewBox="0 0 800 109" fill="none" xmlns="http://www.w3.org/2000/svg">
<path d="M152.461 4.74902V5.63086C152.461 6.77515 152.461 8.6438 151.811 11.1738H157.039C157.521 9.24219 157.616 7.77246 157.647 6.61768H153.7V4.74902H159.915V5.75684C159.915 7.0271 159.915 8.81177 159.39 11.1738H161.931V13.0845H154.393V15.793H159.768V22.6167H146.75V15.793H152.083V13.0845H144.63V11.1738H149.459C149.994 9.2002 150.131 7.71997 150.173 6.61768H146.226V4.74902H152.461ZM149.039 17.6196V20.769H157.438V17.6196H149.039ZM177.868 3.88818V22.8687H175.622V3.88818H177.868ZM173.963 4.22412V21.9448H171.738V12.9165H169.932C169.711 16.6118 168.126 18.9004 165.775 18.8794C163.297 18.9004 161.68 16.2759 161.68 12.0977C161.68 7.91943 163.297 5.33691 165.775 5.33691C168.074 5.33691 169.638 7.47852 169.911 11.0269H171.738V4.22412H173.963ZM165.775 7.5415C164.578 7.52051 163.822 9.13721 163.843 12.0977C163.822 15.0581 164.578 16.6748 165.775 16.6538C167.034 16.6748 167.79 15.0581 167.79 12.0977C167.79 9.13721 167.034 7.52051 165.775 7.5415ZM196.831 5.73584V7.87744C196.831 10.418 196.831 13.0425 196.138 17.0317L193.766 16.8218C194.501 13.0845 194.501 10.334 194.501 7.87744V7.62549H183.562V5.73584H196.831ZM199.036 18.3545V20.2651H181.735V18.3545H199.036ZM214.407 3.88818V22.8896H212.097V3.88818H214.407ZM208.57 5.54688V12.6646H202.04V16.4858C205.032 16.4648 207.614 16.3179 210.564 15.814L210.774 17.7246C207.541 18.2915 204.706 18.3965 201.305 18.3965H199.646V10.8169H206.197V7.43652H199.625V5.54688H208.57ZM225.263 5.29492V7.18457H218.901V13.2104C221.862 13.1895 223.899 13.0845 226.208 12.6436L226.439 14.5332C223.857 14.9951 221.589 15.1001 218.083 15.1211H216.592V5.29492H225.263ZM231.352 3.90918V17.7246H229.022V10.8169H224.108V8.96924H229.022V3.90918H231.352ZM231.835 20.6851V22.5747H218.88V16.6118H221.232V20.6851H231.835ZM251.113 12.5176V14.3652H245.486V18.7114H253.044V20.6221H235.702V18.7114H243.176V14.3652H237.801V5.29492H250.966V7.16357H240.132V12.5176H251.113ZM259.744 8.44434C259.723 11.9297 261.55 15.415 264.636 16.7378L263.25 18.6064C261.067 17.5986 259.46 15.583 258.589 13.1055C257.718 15.7825 256.091 17.9661 253.781 19.0474L252.353 17.0947C255.524 15.73 257.371 12.0977 257.371 8.44434V5.4209H259.744V8.44434ZM268.352 3.88818V22.8896H266.001V3.88818H268.352Z" fill="white"/>
<path d="M173.99 28.7764V43.8936H179.827V47.7568H173.99V66.7373H169.371V28.7764H173.99ZM166.432 34.6133V38.3506H144.05V34.6133H153.036V29.3223H157.697V34.6133H166.432ZM155.388 40.8281C160.847 40.8281 164.92 44.5234 164.92 49.7725C164.92 55.0215 160.847 58.6748 155.388 58.6748C149.845 58.6748 145.771 55.0215 145.813 49.7725C145.771 44.5234 149.845 40.8281 155.388 40.8281ZM155.388 44.6494C152.406 44.6494 150.265 46.665 150.265 49.7725C150.265 52.8799 152.406 54.8535 155.388 54.8115C158.285 54.8535 160.427 52.8799 160.469 49.7725C160.427 46.665 158.285 44.6494 155.388 44.6494ZM189.321 31.1279C195.158 31.1279 199.609 34.9072 199.651 40.2822C199.609 44.9224 196.333 48.3447 191.714 49.2266V54.8115C194.864 54.6646 198.034 54.4126 200.995 54.0137L201.331 57.499C193.394 58.9268 184.702 58.9688 178.193 58.8848L177.521 55.0635C180.376 55.0635 183.652 55.0635 187.053 54.9795V49.2266C182.287 48.4287 178.991 44.9854 179.033 40.2822C178.991 34.9072 183.358 31.1279 189.321 31.1279ZM189.321 35.0752C186.003 35.1172 183.568 37.0908 183.568 40.2822C183.568 43.4736 186.003 45.4893 189.321 45.4473C192.596 45.4893 195.032 43.4736 195.032 40.2822C195.032 37.0908 192.596 35.1172 189.321 35.0752ZM207.839 28.7764V43.9355H213.34V47.8828H207.839V66.7373H203.178V28.7764H207.839ZM243.284 28.7764V66.7793H238.581V28.7764H243.284ZM222.834 31.5479C228.545 31.5479 232.702 36.7549 232.744 44.9434C232.702 53.2158 228.545 58.3809 222.834 58.3809C217.081 58.3809 212.924 53.2158 212.924 44.9434C212.924 36.7549 217.081 31.5479 222.834 31.5479ZM222.834 35.7471C219.6 35.7471 217.417 39.1484 217.417 44.9434C217.417 50.7803 219.6 54.1816 222.834 54.1816C226.025 54.1816 228.209 50.7803 228.209 44.9434C228.209 39.1484 226.025 35.7471 222.834 35.7471ZM256.812 52.9639C255.007 52.9639 253.537 51.4941 253.537 49.6885C253.537 47.9248 255.007 46.4551 256.812 46.4551C258.534 46.4551 260.046 47.9248 260.046 49.6885C260.046 51.4941 258.534 52.9639 256.812 52.9639ZM268.787 63V32.5977H274.246V58.3809H287.683V63H268.787ZM293.649 63H287.813L298.521 32.5977H305.239L315.989 63H310.152L307.633 55.4834H296.169L293.649 63ZM297.639 51.0742H306.163L302.006 38.8125H301.754L297.639 51.0742ZM325.99 52.9639C324.185 52.9639 322.715 51.4941 322.715 49.6885C322.715 47.9248 324.185 46.4551 325.99 46.4551C327.712 46.4551 329.224 47.9248 329.224 49.6885C329.224 51.4941 327.712 52.9639 325.99 52.9639ZM348.253 36.251C348.253 40.7441 350.562 45.1533 355.601 47.3789L353.082 50.9062C349.743 49.4785 347.434 46.959 346.111 43.8516C344.704 47.4209 342.269 50.4443 338.721 52.124L336.075 48.5127C341.324 46.0352 343.718 40.8701 343.76 36.251V31.3799H348.253V36.251ZM368.871 28.8184V57.2891H364.42V43.6836H360.64V56.1133H356.273V29.5322H360.64V39.8623H364.42V28.8184H368.871ZM369.921 62.2021V65.9814H343.466V53.8457H348.127V62.2021H369.921ZM401.712 28.7764V66.7793H397.009V28.7764H401.712ZM390.794 32.2197V36.041H377.189V53.6777C384.18 53.6567 388.569 53.4468 393.608 52.5439L394.07 56.4072C388.653 57.415 383.74 57.625 375.719 57.625H372.486V32.2197H390.794ZM436.611 28.7764V66.7373H432.118V28.7764H436.611ZM428.801 29.4482V64.8896H424.349V46.833H420.738C420.297 54.2236 417.127 58.8008 412.424 58.7588C407.468 58.8008 404.235 53.5518 404.235 45.1953C404.235 36.8389 407.468 31.6738 412.424 31.6738C417.022 31.6738 420.15 35.957 420.696 43.0537H424.349V29.4482H428.801ZM412.424 36.083C410.03 36.041 408.518 39.2744 408.56 45.1953C408.518 51.1162 410.03 54.3496 412.424 54.3076C414.943 54.3496 416.455 51.1162 416.455 45.1953C416.455 39.2744 414.943 36.041 412.424 36.083ZM468.57 32.2617V35.915C468.528 40.6182 468.528 45.9092 467.059 53.8457L462.356 53.3418C463.825 45.9512 463.825 40.5552 463.867 35.999H441.192V32.2617H468.57ZM472.182 58.0029V61.8242H437.58V58.0029H450.346V44.8174H454.965V58.0029H472.182ZM491.382 31.0439V36.4189H500.411V31.0439H505.072V49.2686H486.763V31.0439H491.382ZM491.382 45.5732H500.411V40.0723H491.382V45.5732ZM516.452 53.4678V66.7373H511.749V57.1631H490.542V53.4678H516.452ZM516.452 28.7764V51.5781H511.749V28.7764H516.452ZM527.121 31.6738C532.16 31.6738 535.435 36.8389 535.477 45.1953C535.435 53.5518 532.16 58.8008 527.121 58.7588C522.166 58.8008 518.933 53.5518 518.933 45.1953C518.933 36.8389 522.166 31.6738 527.121 31.6738ZM527.121 36.083C524.727 36.041 523.216 39.2744 523.258 45.1953C523.216 51.1162 524.727 54.3496 527.121 54.3076C529.641 54.3496 531.152 51.1162 531.152 45.1953C531.152 39.2744 529.641 36.041 527.121 36.083ZM551.309 28.7764V66.7373H546.815V47.2949H542.784V64.8896H538.375V29.4482H542.784V43.4316H546.815V28.7764H551.309ZM583.688 29.8682V33.3955H578.481V39.1484H583.478V42.6758H555.595V39.1484H560.592V33.3955H555.385V29.8682H583.688ZM586.879 45.0693V48.7646H552.278V45.0693H586.879ZM582.554 51.3262V60.3545H560.97V62.916H583.604V66.4014H556.393V57.1211H577.977V54.7275H556.351V51.3262H582.554ZM565.253 39.1484H573.778V33.3955H565.253V39.1484ZM618.755 28.7764V66.7373H614.262V47.4629H610.482V64.8057H606.073V29.4902H610.482V43.6416H614.262V28.7764H618.755ZM603.889 33.2695V37.0488H601.16V53.3838C602.294 53.2998 603.365 53.1948 604.393 53.0479L604.645 56.4492C598.724 57.667 590.914 57.793 586.127 57.793L585.581 53.9297L589.108 53.8877V37.0488H586.337V33.2695H603.889ZM593.307 53.8037L596.919 53.6777V37.0488H593.307V53.8037ZM639.334 33.9834C639.334 39.8623 645.087 45.7412 653.024 47.127L650.924 51.0322C644.562 49.6885 639.355 45.8462 636.899 40.7441C634.379 45.8042 629.172 49.6675 622.831 51.0322L620.774 47.127C628.626 45.6992 634.337 39.8203 634.379 33.9834V31.1699H639.334V33.9834ZM654.409 58.0449V61.9082H619.724V58.0449H654.409Z" fill="white"/>
<path d="M167.541 90.6934V93.0488H171.742V90.6934H173.395V98.1992H165.906V90.6934H167.541ZM167.541 96.8457H171.742V94.3672H167.541V96.8457ZM178.141 100.08V105.494H176.471V101.416H167.471V100.08H178.141ZM178.141 89.7441V99.2539H176.471V89.7441H178.141ZM182.765 91.0098C184.839 90.9922 186.193 93.1367 186.193 96.5469C186.193 99.957 184.839 102.119 182.765 102.102C180.708 102.119 179.372 99.957 179.372 96.5469C179.372 93.1367 180.708 90.9922 182.765 91.0098ZM182.765 92.5742C181.622 92.5742 180.919 94.0332 180.919 96.5469C180.919 99.0605 181.622 100.52 182.765 100.52C183.925 100.52 184.646 99.0605 184.646 96.5469C184.646 94.0332 183.925 92.5742 182.765 92.5742ZM192.749 89.7441V105.494H191.15V97.2852H189.199V104.721H187.617V90.043H189.199V95.9141H191.15V89.7441H192.749ZM206.321 90.2188V91.4844H204.036V94.209H206.251V95.4922H194.702V94.209H196.934V91.4844H194.632V90.2188H206.321ZM207.675 96.6523V97.9707H193.313V96.6523H207.675ZM205.864 99.2012V102.805H196.688V104.07H206.304V105.336H195.054V101.627H204.212V100.449H195.036V99.2012H205.864ZM198.587 94.209H202.366V91.4844H198.587V94.209ZM220.983 89.7441V105.494H219.383V97.373H217.52V104.686H215.938V90.0605H217.52V96.002H219.383V89.7441H220.983ZM214.901 91.6602V93.0312H213.653V100.08C214.18 100.036 214.69 99.9834 215.164 99.9219L215.252 101.152C212.774 101.627 209.487 101.697 207.448 101.697L207.254 100.291L208.836 100.273V93.0312H207.588V91.6602H214.901ZM210.366 100.256C210.946 100.238 211.534 100.221 212.123 100.186V93.0312H210.366V100.256ZM229.545 91.9766C229.545 94.543 232.287 96.9688 235.31 97.5137L234.537 98.9023C232.023 98.3574 229.703 96.7051 228.683 94.4902C227.646 96.6875 225.335 98.3398 222.812 98.9023L222.074 97.5137C225.062 96.9512 227.787 94.543 227.787 91.9766V90.7812H229.545V91.9766ZM235.961 102.031V103.42H221.547V102.031H235.961ZM250.077 102.207V103.613H235.663V102.207H242.009V99.4473H237.421V94.4375H246.667V92.2227H237.386V90.8516H248.32V95.7734H239.073V98.0762H248.689V99.4473H243.661V102.207H250.077ZM256.865 99.5176V101.117H264.09V99.5176H265.742V105.301H255.195V99.5176H256.865ZM256.865 103.947H264.09V102.4H256.865V103.947ZM265.742 89.7617V98.7969H264.072V89.7617H265.742ZM252.752 96.5469C255.723 96.5645 259.643 96.5645 263.07 96.1074L263.176 97.3027C261.822 97.5312 260.425 97.6807 259.045 97.7598V99.957H257.393V97.8477C255.802 97.918 254.29 97.918 252.963 97.918L252.752 96.5469ZM258.922 90.8691C258.922 92.3984 260.381 93.6992 262.719 94.1914L261.981 95.4395C260.152 95.0439 258.781 94.1211 258.096 92.873C257.41 94.2178 256.039 95.2461 254.158 95.7031L253.402 94.4023C255.775 93.875 257.217 92.4863 257.217 90.8691V90.1309H258.922V90.8691ZM279.595 91.2559V92.8027C279.595 94.7539 279.595 96.9336 278.998 100.15L277.31 99.9746C277.925 96.9336 277.925 94.7012 277.925 92.8027V92.6094H268.363V91.2559H279.595ZM281.212 101.979V103.367H266.851V101.979H272.318V96.4238H273.97V101.979H281.212ZM297.053 89.7441V101.434H295.383V97.0918H292.922V95.6855H295.383V94.0332H292.922V92.6621H295.383V89.7441H297.053ZM292.746 90.9746V92.3281H291.235V97.6016C291.903 97.5488 292.544 97.4961 293.168 97.4258L293.239 98.6562C290.215 99.1309 286.682 99.1836 284.151 99.2012L283.94 97.7949L285.856 97.7773V92.3281H284.379V90.9746H292.746ZM297.457 103.807V105.16H286.787V100.484H288.475V103.807H297.457ZM287.473 97.7598C288.185 97.7422 288.906 97.7246 289.635 97.6895V92.3281H287.473V97.7598ZM311.117 89.7441V105.529H309.447V89.7441H311.117ZM306.301 91.168V96.916H300.64V100.361C303.189 100.353 305.422 100.238 308.058 99.7988L308.217 101.17C305.422 101.645 303.049 101.75 300.271 101.75H298.935V95.5801H304.596V92.5215H298.918V91.168H306.301ZM324.425 89.7441V96.125H326.956V97.5137H324.425V105.494H322.773V89.7441H324.425ZM321.402 92.2051V93.5762H312.068V92.2051H315.952V89.9551H317.622V92.2051H321.402ZM316.796 94.7363C319.046 94.7363 320.699 96.248 320.716 98.3926C320.699 100.555 319.046 102.049 316.796 102.066C314.529 102.049 312.876 100.555 312.876 98.3926C312.876 96.248 314.529 94.7363 316.796 94.7363ZM316.796 96.1074C315.46 96.1074 314.458 97.0391 314.476 98.3926C314.458 99.7637 315.46 100.678 316.796 100.66C318.132 100.678 319.116 99.7637 319.116 98.3926C319.116 97.0391 318.132 96.1074 316.796 96.1074ZM339.807 89.7441V105.494H338.225V89.7441H339.807ZM336.485 90.1484V104.721H334.903V97.4082H331.827C330.886 99.2363 329.392 100.836 327.169 102.137L326.219 100.941C329.559 98.9551 331.168 96.3096 331.458 93.0664H326.958V91.6953H333.11C333.101 93.2334 332.89 94.7012 332.407 96.0723H334.903V90.1484H336.485Z" fill="white"/>
<path d="M152 91.5H144V105.5H158V98" stroke="white" stroke-width="1.8"/>
<path d="M146.5 96L151 100.5L161 89" stroke="white" stroke-width="1.8"/>
</svg>
