<svg width="345" height="47" viewBox="0 0 345 47" fill="none" xmlns="http://www.w3.org/2000/svg">
<path d="M97.7549 2.70898V2.99609C97.7549 3.36865 97.7549 3.97705 97.543 4.80078H99.2451C99.4023 4.17188 99.4331 3.69336 99.4434 3.31738H98.1582V2.70898H100.182V3.03711C100.182 3.45068 100.182 4.03174 100.011 4.80078H100.838V5.42285H98.3838V6.30469H100.134V8.52637H95.8955V6.30469H97.6318V5.42285H95.2051V4.80078H96.7773C96.9517 4.1582 96.9961 3.67627 97.0098 3.31738H95.7246V2.70898H97.7549ZM96.6406 6.89941V7.9248H99.375V6.89941H96.6406ZM106.027 2.42871V8.6084H105.295V2.42871H106.027ZM104.755 2.53809V8.30762H104.031V5.36816H103.443C103.371 6.57129 102.855 7.31641 102.089 7.30957C101.283 7.31641 100.756 6.46191 100.756 5.10156C100.756 3.74121 101.283 2.90039 102.089 2.90039C102.838 2.90039 103.347 3.59766 103.436 4.75293H104.031V2.53809H104.755ZM102.089 3.61816C101.7 3.61133 101.454 4.1377 101.461 5.10156C101.454 6.06543 101.7 6.5918 102.089 6.58496C102.5 6.5918 102.746 6.06543 102.746 5.10156C102.746 4.1377 102.5 3.61133 102.089 3.61816ZM112.201 3.03027V3.72754C112.201 4.55469 112.201 5.40918 111.975 6.70801L111.203 6.63965C111.442 5.42285 111.442 4.52734 111.442 3.72754V3.64551H107.881V3.03027H112.201ZM112.919 7.13867V7.76074H107.286V7.13867H112.919ZM117.923 2.42871V8.61523H117.171V2.42871H117.923ZM116.023 2.96875V5.28613H113.897V6.53027C114.871 6.52344 115.712 6.47559 116.672 6.31152L116.74 6.93359C115.688 7.11816 114.765 7.15234 113.657 7.15234H113.117V4.68457H115.25V3.58398H113.111V2.96875H116.023ZM121.458 2.88672V3.50195H119.387V5.46387C120.35 5.45703 121.013 5.42285 121.765 5.2793L121.841 5.89453C121 6.04492 120.262 6.0791 119.12 6.08594H118.635V2.88672H121.458ZM123.44 2.43555V6.93359H122.681V4.68457H121.082V4.08301H122.681V2.43555H123.44ZM123.597 7.89746V8.5127H119.38V6.57129H120.145V7.89746H123.597ZM129.874 5.23828V5.83984H128.042V7.25488H130.503V7.87695H124.856V7.25488H127.29V5.83984H125.54V2.88672H129.826V3.49512H126.299V5.23828H129.874ZM132.684 3.91211C132.677 5.04688 133.272 6.18164 134.277 6.6123L133.826 7.2207C133.115 6.89258 132.592 6.23633 132.308 5.42969C132.024 6.30127 131.495 7.01221 130.743 7.36426L130.278 6.72852C131.31 6.28418 131.912 5.10156 131.912 3.91211V2.92773H132.684V3.91211ZM135.487 2.42871V8.61523H134.721V2.42871H135.487Z" fill="white"/>
<path d="M104.369 17.6533V22.2236H106.134V23.3916H104.369V29.1299H102.973V17.6533H104.369ZM102.084 19.418V20.5479H95.3174V19.418H98.0342V17.8184H99.4434V19.418H102.084ZM98.7451 21.2969C100.396 21.2969 101.627 22.4141 101.627 24.001C101.627 25.5879 100.396 26.6924 98.7451 26.6924C97.0693 26.6924 95.8379 25.5879 95.8506 24.001C95.8379 22.4141 97.0693 21.2969 98.7451 21.2969ZM98.7451 22.4521C97.8438 22.4521 97.1963 23.0615 97.1963 24.001C97.1963 24.9404 97.8438 25.5371 98.7451 25.5244C99.6211 25.5371 100.269 24.9404 100.281 24.001C100.269 23.0615 99.6211 22.4521 98.7451 22.4521ZM109.004 18.3643C110.769 18.3643 112.114 19.5068 112.127 21.1318C112.114 22.5347 111.124 23.5693 109.728 23.8359V25.5244C110.68 25.48 111.638 25.4038 112.533 25.2832L112.635 26.3369C110.235 26.7686 107.607 26.7812 105.64 26.7559L105.437 25.6006C106.3 25.6006 107.29 25.6006 108.318 25.5752V23.8359C106.877 23.5947 105.881 22.5537 105.894 21.1318C105.881 19.5068 107.201 18.3643 109.004 18.3643ZM109.004 19.5576C108.001 19.5703 107.265 20.167 107.265 21.1318C107.265 22.0967 108.001 22.7061 109.004 22.6934C109.994 22.7061 110.731 22.0967 110.731 21.1318C110.731 20.167 109.994 19.5703 109.004 19.5576ZM114.603 17.6533V22.2363H116.266V23.4297H114.603V29.1299H113.193V17.6533H114.603ZM125.318 17.6533V29.1426H123.897V17.6533H125.318ZM119.136 18.4912C120.862 18.4912 122.119 20.0654 122.132 22.541C122.119 25.042 120.862 26.6035 119.136 26.6035C117.397 26.6035 116.14 25.042 116.14 22.541C116.14 20.0654 117.397 18.4912 119.136 18.4912ZM119.136 19.7607C118.158 19.7607 117.498 20.7891 117.498 22.541C117.498 24.3057 118.158 25.334 119.136 25.334C120.101 25.334 120.761 24.3057 120.761 22.541C120.761 20.7891 120.101 19.7607 119.136 19.7607ZM129.408 24.9658C128.862 24.9658 128.418 24.5215 128.418 23.9756C128.418 23.4424 128.862 22.998 129.408 22.998C129.929 22.998 130.386 23.4424 130.386 23.9756C130.386 24.5215 129.929 24.9658 129.408 24.9658ZM133.029 28V18.8086H134.679V26.6035H138.741V28H133.029ZM140.545 28H138.781L142.018 18.8086H144.049L147.299 28H145.534L144.773 25.7275H141.307L140.545 28ZM141.751 24.3945H144.328L143.072 20.6875H142.995L141.751 24.3945ZM150.323 24.9658C149.777 24.9658 149.332 24.5215 149.332 23.9756C149.332 23.4424 149.777 22.998 150.323 22.998C150.843 22.998 151.3 23.4424 151.3 23.9756C151.3 24.5215 150.843 24.9658 150.323 24.9658ZM157.053 19.9131C157.053 21.2715 157.751 22.6045 159.275 23.2773L158.513 24.3438C157.504 23.9121 156.806 23.1504 156.406 22.2109C155.98 23.29 155.244 24.2041 154.171 24.7119L153.372 23.6201C154.958 22.8711 155.682 21.3096 155.695 19.9131V18.4404H157.053V19.9131ZM163.287 17.666V26.2734H161.941V22.1602H160.798V25.918H159.478V17.8818H160.798V21.0049H161.941V17.666H163.287ZM163.604 27.7588V28.9014H155.606V25.2324H157.015V27.7588H163.604ZM173.215 17.6533V29.1426H171.793V17.6533H173.215ZM169.915 18.6943V19.8496H165.801V25.1816C167.915 25.1753 169.242 25.1118 170.765 24.8389L170.905 26.0068C169.267 26.3115 167.782 26.375 165.357 26.375H164.379V18.6943H169.915ZM183.766 17.6533V29.1299H182.408V17.6533H183.766ZM181.405 17.8564V28.5713H180.059V23.1123H178.967C178.834 25.3467 177.876 26.7305 176.454 26.7178C174.956 26.7305 173.978 25.1436 173.978 22.6172C173.978 20.0908 174.956 18.5293 176.454 18.5293C177.844 18.5293 178.79 19.8242 178.955 21.9697H180.059V17.8564H181.405ZM176.454 19.8623C175.73 19.8496 175.273 20.8271 175.286 22.6172C175.273 24.4072 175.73 25.3848 176.454 25.3721C177.215 25.3848 177.672 24.4072 177.672 22.6172C177.672 20.8271 177.215 19.8496 176.454 19.8623ZM193.428 18.707V19.8115C193.416 21.2334 193.416 22.833 192.971 25.2324L191.549 25.0801C191.994 22.8457 191.994 21.2144 192.006 19.8369H185.151V18.707H193.428ZM194.52 26.4893V27.6445H184.059V26.4893H187.919V22.5029H189.315V26.4893H194.52ZM200.325 18.3389V19.9639H203.054V18.3389H204.464V23.8486H198.928V18.3389H200.325ZM200.325 22.7314H203.054V21.0684H200.325V22.7314ZM207.904 25.1182V29.1299H206.482V26.2354H200.071V25.1182H207.904ZM207.904 17.6533V24.5469H206.482V17.6533H207.904ZM211.13 18.5293C212.653 18.5293 213.643 20.0908 213.656 22.6172C213.643 25.1436 212.653 26.7305 211.13 26.7178C209.632 26.7305 208.654 25.1436 208.654 22.6172C208.654 20.0908 209.632 18.5293 211.13 18.5293ZM211.13 19.8623C210.406 19.8496 209.949 20.8271 209.962 22.6172C209.949 24.4072 210.406 25.3848 211.13 25.3721C211.891 25.3848 212.348 24.4072 212.348 22.6172C212.348 20.8271 211.891 19.8496 211.13 19.8623ZM218.442 17.6533V29.1299H217.084V23.252H215.865V28.5713H214.532V17.8564H215.865V22.084H217.084V17.6533H218.442ZM228.231 17.9834V19.0498H226.657V20.7891H228.168V21.8555H219.738V20.7891H221.249V19.0498H219.675V17.9834H228.231ZM229.196 22.5791V23.6963H218.735V22.5791H229.196ZM227.888 24.4707V27.2002H221.363V27.9746H228.206V29.0283H219.979V26.2227H226.505V25.499H219.967V24.4707H227.888ZM222.658 20.7891H225.235V19.0498H222.658V20.7891ZM238.833 17.6533V29.1299H237.474V23.3027H236.332V28.5459H234.999V17.8691H236.332V22.1475H237.474V17.6533H238.833ZM234.339 19.0117V20.1543H233.513V25.0928C233.856 25.0674 234.18 25.0356 234.491 24.9912L234.567 26.0195C232.777 26.3877 230.416 26.4258 228.969 26.4258L228.804 25.2578L229.87 25.2451V20.1543H229.032V19.0117H234.339ZM231.139 25.2197L232.231 25.1816V20.1543H231.139V25.2197ZM245.055 19.2275C245.055 21.0049 246.794 22.7822 249.193 23.2012L248.558 24.3818C246.635 23.9756 245.061 22.814 244.318 21.2715C243.556 22.8013 241.982 23.9692 240.065 24.3818L239.443 23.2012C241.817 22.7695 243.544 20.9922 243.556 19.2275V18.377H245.055V19.2275ZM249.612 26.502V27.6699H239.126V26.502H249.612Z" fill="white"/>
<path d="M104.068 37.7948V38.6454H105.585V37.7948H106.182V40.5052H103.478V37.7948H104.068ZM104.068 40.0165H105.585V39.1215H104.068V40.0165ZM107.896 41.1844V43.1395H107.293V41.6669H104.043V41.1844H107.896ZM107.896 37.452V40.8861H107.293V37.452H107.896ZM109.566 37.9091C110.315 37.9027 110.804 38.6771 110.804 39.9086C110.804 41.14 110.315 41.9208 109.566 41.9144C108.823 41.9208 108.341 41.14 108.341 39.9086C108.341 38.6771 108.823 37.9027 109.566 37.9091ZM109.566 38.474C109.153 38.474 108.899 39.0009 108.899 39.9086C108.899 40.8163 109.153 41.3431 109.566 41.3431C109.985 41.3431 110.245 40.8163 110.245 39.9086C110.245 39.0009 109.985 38.474 109.566 38.474ZM113.171 37.452V43.1395H112.594V40.1752H111.889V42.8602H111.318V37.5599H111.889V39.6801H112.594V37.452H113.171ZM118.072 37.6234V38.0804H117.247V39.0643H118.047V39.5277H113.876V39.0643H114.682V38.0804H113.851V37.6234H118.072ZM118.561 39.9467V40.4227H113.375V39.9467H118.561ZM117.907 40.8671V42.1683H114.594V42.6254H118.066V43.0824H114.003V41.743H117.31V41.3177H113.997V40.8671H117.907ZM115.279 39.0643H116.644V38.0804H115.279V39.0643ZM123.367 37.452V43.1395H122.789V40.2069H122.116V42.8475H121.545V37.5663H122.116V39.7118H122.789V37.452H123.367ZM121.17 38.1439V38.639H120.72V41.1844C120.91 41.1686 121.094 41.1495 121.265 41.1273L121.297 41.5717C120.402 41.743 119.215 41.7684 118.479 41.7684L118.409 41.2606L118.98 41.2543V38.639H118.53V38.1439H121.17ZM119.533 41.2479C119.742 41.2416 119.955 41.2352 120.167 41.2225V38.639H119.533V41.2479ZM126.458 38.2582C126.458 39.1849 127.449 40.0609 128.54 40.2577L128.261 40.7592C127.353 40.5624 126.515 39.9657 126.147 39.1659C125.773 39.9594 124.938 40.556 124.027 40.7592L123.761 40.2577C124.84 40.0546 125.824 39.1849 125.824 38.2582V37.8265H126.458V38.2582ZM128.775 41.889V42.3905H123.57V41.889H128.775ZM133.873 41.9525V42.4603H128.668V41.9525H130.959V40.9559H129.303V39.1469H132.641V38.347H129.29V37.8519H133.238V39.6293H129.899V40.4608H133.371V40.9559H131.556V41.9525H133.873ZM136.324 40.9813V41.559H138.933V40.9813H139.53V43.0697H135.721V40.9813H136.324ZM136.324 42.5809H138.933V42.0223H136.324V42.5809ZM139.53 37.4584V40.7211H138.927V37.4584H139.53ZM134.839 39.9086C135.912 39.9149 137.327 39.9149 138.565 39.7499L138.603 40.1815C138.114 40.264 137.61 40.318 137.111 40.3466V41.14H136.515V40.3783C135.94 40.4037 135.394 40.4037 134.915 40.4037L134.839 39.9086ZM137.067 37.8583C137.067 38.4105 137.594 38.8802 138.438 39.058L138.171 39.5087C137.511 39.3658 137.016 39.0326 136.768 38.5819C136.521 39.0675 136.026 39.4388 135.347 39.6039L135.074 39.1342C135.931 38.9437 136.451 38.4423 136.451 37.8583V37.5917H137.067V37.8583ZM144.532 37.9979V38.5565C144.532 39.2611 144.532 40.0482 144.316 41.2098L143.707 41.1464C143.929 40.0482 143.929 39.2421 143.929 38.5565V38.4867H140.476V37.9979H144.532ZM145.116 41.87V42.3715H139.93V41.87H141.904V39.8641H142.501V41.87H145.116ZM150.836 37.452V41.6732H150.233V40.1053H149.345V39.5975H150.233V39.0009H149.345V38.5057H150.233V37.452H150.836ZM149.281 37.8964V38.3851H148.735V40.2894C148.977 40.2704 149.208 40.2513 149.434 40.226L149.459 40.6703C148.367 40.8417 147.091 40.8607 146.177 40.8671L146.101 40.3593L146.793 40.3529V38.3851H146.26V37.8964H149.281ZM150.982 42.5302V43.0189H147.129V41.3304H147.739V42.5302H150.982ZM147.377 40.3466C147.634 40.3402 147.894 40.3339 148.158 40.3212V38.3851H147.377V40.3466ZM155.915 37.452V43.1522H155.312V37.452H155.915ZM154.176 37.9662V40.0419H152.132V41.286C153.052 41.2828 153.858 41.2416 154.811 41.0829L154.868 41.578C153.858 41.7494 153.001 41.7875 151.999 41.7875H151.516V39.5594H153.56V38.455H151.51V37.9662H154.176ZM160.721 37.452V39.7562H161.635V40.2577H160.721V43.1395H160.124V37.452H160.721ZM159.629 38.3407V38.8358H156.258V38.3407H157.661V37.5282H158.264V38.3407H159.629ZM157.966 39.2548C158.778 39.2548 159.375 39.8007 159.381 40.5751C159.375 41.3558 158.778 41.8954 157.966 41.9017C157.147 41.8954 156.55 41.3558 156.55 40.5751C156.55 39.8007 157.147 39.2548 157.966 39.2548ZM157.966 39.7499C157.483 39.7499 157.122 40.0863 157.128 40.5751C157.122 41.0702 157.483 41.4003 157.966 41.3939C158.448 41.4003 158.804 41.0702 158.804 40.5751C158.804 40.0863 158.448 39.7499 157.966 39.7499ZM166.275 37.452V43.1395H165.704V37.452H166.275ZM165.076 37.598V42.8602H164.504V40.2196H163.394C163.054 40.8798 162.514 41.4574 161.711 41.9271L161.369 41.4955C162.575 40.7782 163.156 39.8229 163.26 38.6517H161.635V38.1566H163.857C163.854 38.712 163.778 39.2421 163.603 39.7372H164.504V37.598H165.076Z" fill="white"/>
<path d="M98.2 37.6606H95V43.1706H100.6V40.2188" stroke="white"/>
<path d="M96.42 39.4348L97.9717 41L101.42 37" stroke="white"/>
</svg>
