<svg width="800" height="109" viewBox="0 0 800 109" fill="none" xmlns="http://www.w3.org/2000/svg">
<path d="M188.923 37.498V39.2617C188.923 41.5503 188.923 45.2876 187.621 50.3477H198.077C199.043 46.4844 199.232 43.5449 199.295 41.2354H191.4V37.498H203.83V39.5137C203.83 42.0542 203.83 45.6235 202.78 50.3477H207.861V54.1689H192.786V59.5859H203.536V73.2334H177.501V59.5859H188.167V54.1689H173.26V50.3477H182.918C183.989 46.4004 184.262 43.4399 184.346 41.2354H176.451V37.498H188.923ZM182.078 63.2393V69.5381H198.875V63.2393H182.078ZM235.782 39.7559V73.3027H231.811V39.7559H235.782ZM228.879 40.3496V71.6699H224.946V55.7129H221.754C221.365 62.2441 218.563 66.2891 214.407 66.252C210.028 66.2891 207.17 61.6504 207.17 54.2656C207.17 46.8809 210.028 42.3164 214.407 42.3164C218.47 42.3164 221.235 46.1016 221.717 52.373H224.946V40.3496H228.879ZM214.407 46.2129C212.291 46.1758 210.956 49.0332 210.993 54.2656C210.956 59.498 212.291 62.3555 214.407 62.3184C216.633 62.3555 217.969 59.498 217.969 54.2656C217.969 49.0332 216.633 46.1758 214.407 46.2129ZM269.297 43.0215V46.8066C269.297 51.2969 269.297 55.9355 268.073 62.9863L263.879 62.6152C265.178 56.0098 265.178 51.1484 265.178 46.8066V46.3613H245.844V43.0215H269.297ZM273.194 65.3242V68.7012H242.616V65.3242H273.194ZM300.361 39.7559V73.3398H296.279V39.7559H300.361ZM290.044 42.6875V55.2676H278.503V62.0215C283.792 61.9844 288.356 61.7246 293.57 60.834L293.941 64.2109C288.226 65.2129 283.216 65.3984 277.205 65.3984H274.273V52.002H285.851V46.0273H274.236V42.6875H290.044ZM319.549 42.2422V45.582H308.305V56.2324C313.538 56.1953 317.137 56.0098 321.219 55.2305L321.628 58.5703C317.063 59.3867 313.055 59.5723 306.858 59.6094H304.223V42.2422H319.549ZM330.311 39.793V64.2109H326.192V52.002H317.508V48.7363H326.192V39.793H330.311ZM331.165 69.4434V72.7832H308.268V62.2441H312.424V69.4434H331.165ZM365.237 55.0078V58.2734H355.292V65.9551H368.651V69.332H337.999V65.9551H351.21V58.2734H341.71V42.2422H364.977V45.5449H345.829V55.0078H365.237ZM380.492 47.8086C380.455 53.9688 383.683 60.1289 389.138 62.4668L386.689 65.7695C382.83 63.9883 379.991 60.4258 378.451 56.0469C376.911 60.7783 374.035 64.6377 369.953 66.5488L367.429 63.0977C373.033 60.6855 376.299 54.2656 376.299 47.8086V42.4648H380.492V47.8086ZM395.707 39.7559V73.3398H391.551V39.7559H395.707ZM428.218 53.1895V56.4551H397.602V53.1895H428.218ZM424.581 47.7715V51.0371H401.499V40.6094H424.284V43.9121H405.618V47.7715H424.581ZM424.358 58.7559V67.1797H405.284V69.7402H425.286V72.9688H401.239V64.2109H420.313V61.873H401.202V58.7559H424.358ZM454.642 55.0078V58.2734H444.697V65.9551H458.056V69.332H427.404V65.9551H440.615V58.2734H431.115V42.2422H454.383V45.5449H435.234V55.0078H454.642ZM468.527 70L462.812 49.8496H467.637L471.199 64.0254H471.385L474.984 49.8496H479.771L483.408 63.9512H483.594L487.119 49.8496H491.943L486.228 70H481.293L477.508 56.3438H477.248L473.463 70H468.527ZM491.909 70V49.8496H496.659V70H491.909ZM494.321 46.9922C492.837 46.9922 491.575 45.8418 491.575 44.3945C491.575 42.9844 492.837 41.834 494.321 41.834C495.843 41.834 497.067 42.9844 497.067 44.3945C497.067 45.8418 495.843 46.9922 494.321 46.9922ZM508.203 49.8496V53.4863H504.232V63.9512C504.232 65.8809 505.197 66.2891 506.385 66.2891C506.941 66.2891 507.869 66.252 508.463 66.2148V70.0742C507.906 70.1855 506.978 70.2598 505.791 70.2598C502.228 70.2598 499.482 68.5156 499.52 64.7305V53.4863H496.625V49.8496H499.52V45.0254H504.232V49.8496H508.203ZM513.995 58.1992V70H509.245V43.1328H513.884V53.2637H514.144C515.071 51 517.001 49.5898 520.118 49.5898C524.312 49.5898 527.058 52.2988 527.058 57.1602V70H522.345V57.9023C522.345 55.1562 520.86 53.5977 518.374 53.5977C515.813 53.5977 513.995 55.2676 513.995 58.1992ZM531.439 70.2969C529.844 70.2969 528.545 68.998 528.545 67.4023C528.545 65.8438 529.844 64.5449 531.439 64.5449C532.961 64.5449 534.297 65.8438 534.297 67.4023C534.297 68.998 532.961 70.2969 531.439 70.2969ZM551.89 42.6504V46.0273H540.237V52.002H551.296V55.2676H540.237V62.1699C545.396 62.1328 549.422 61.9473 554.116 61.168L554.487 64.5078C549.329 65.3242 544.839 65.5098 538.827 65.5098H536.044V42.6504H551.89ZM560.944 39.7559V52.7441H566.103V56.1953H560.944V73.3027H556.825V39.7559H560.944ZM582.211 42.9102V65.1387H566.254V42.9102H582.211ZM570.336 46.1387V61.8359H578.203V46.1387H570.336ZM592.379 39.7559V73.3398H588.223V39.7559H592.379ZM611.605 44.3574C611.605 49.5527 616.689 54.748 623.702 55.9727L621.847 59.4238C616.225 58.2363 611.623 54.8408 609.452 50.332C607.226 54.8037 602.624 58.2178 597.021 59.4238L595.202 55.9727C602.142 54.7109 607.189 49.5156 607.226 44.3574V41.8711H611.605V44.3574ZM624.927 65.6211V69.0352H594.275V65.6211H624.927Z" fill="white"/>
</svg>
