<svg width="800" height="109" viewBox="0 0 800 109" fill="none" xmlns="http://www.w3.org/2000/svg">
<path d="M221.495 3.88818V11.4468H224.414V13.3784H221.495V22.8687H219.186V3.88818H221.495ZM217.716 6.80664V8.67529H206.525V6.80664H211.018V4.16113H213.349V6.80664H217.716ZM212.194 9.91406C214.923 9.91406 216.96 11.7617 216.96 14.3862C216.96 17.0107 214.923 18.8374 212.194 18.8374C209.422 18.8374 207.386 17.0107 207.407 14.3862C207.386 11.7617 209.422 9.91406 212.194 9.91406ZM212.194 11.8247C210.703 11.8247 209.632 12.8325 209.632 14.3862C209.632 15.9399 210.703 16.9268 212.194 16.9058C213.643 16.9268 214.713 15.9399 214.734 14.3862C214.713 12.8325 213.643 11.8247 212.194 11.8247ZM229.16 5.06396C232.079 5.06396 234.304 6.95361 234.325 9.64111C234.304 11.9612 232.667 13.6724 230.357 14.1133V16.9058C231.932 16.8323 233.517 16.7063 234.997 16.5068L235.165 18.2495C231.197 18.9634 226.851 18.9844 223.596 18.9424L223.26 17.0317C224.688 17.0317 226.326 17.0317 228.027 16.9897V14.1133C225.644 13.7144 223.995 11.9927 224.016 9.64111C223.995 6.95361 226.179 5.06396 229.16 5.06396ZM229.16 7.0376C227.502 7.05859 226.284 8.04541 226.284 9.64111C226.284 11.2368 227.502 12.2446 229.16 12.2236C230.798 12.2446 232.016 11.2368 232.016 9.64111C232.016 8.04541 230.798 7.05859 229.16 7.0376ZM238.42 3.88818V11.4678H241.17V13.4414H238.42V22.8687H236.089V3.88818H238.42ZM256.142 3.88818V22.8896H253.79V3.88818H256.142ZM245.917 5.27393C248.772 5.27393 250.851 7.87744 250.872 11.9717C250.851 16.1079 248.772 18.6904 245.917 18.6904C243.04 18.6904 240.962 16.1079 240.962 11.9717C240.962 7.87744 243.04 5.27393 245.917 5.27393ZM245.917 7.37354C244.3 7.37354 243.208 9.07422 243.208 11.9717C243.208 14.8901 244.3 16.5908 245.917 16.5908C247.513 16.5908 248.604 14.8901 248.604 11.9717C248.604 9.07422 247.513 7.37354 245.917 7.37354ZM262.906 15.9819C262.003 15.9819 261.268 15.2471 261.268 14.3442C261.268 13.4624 262.003 12.7275 262.906 12.7275C263.767 12.7275 264.523 13.4624 264.523 14.3442C264.523 15.2471 263.767 15.9819 262.906 15.9819ZM268.893 21V5.79883H271.623V18.6904H278.342V21H268.893ZM281.325 21H278.406L283.76 5.79883H287.12L292.495 21H289.576L288.316 17.2417H282.585L281.325 21ZM283.319 15.0371H287.582L285.503 8.90625H285.377L283.319 15.0371ZM297.495 15.9819C296.592 15.9819 295.857 15.2471 295.857 14.3442C295.857 13.4624 296.592 12.7275 297.495 12.7275C298.356 12.7275 299.112 13.4624 299.112 14.3442C299.112 15.2471 298.356 15.9819 297.495 15.9819ZM308.626 7.62549C308.626 9.87207 309.781 12.0767 312.301 13.1895L311.041 14.9531C309.372 14.2393 308.217 12.9795 307.556 11.4258C306.852 13.2104 305.634 14.7222 303.86 15.562L302.538 13.7563C305.162 12.5176 306.359 9.93506 306.38 7.62549V5.18994H308.626V7.62549ZM318.935 3.90918V18.1445H316.71V11.3418H314.82V17.5566H312.637V4.26611H314.82V9.43115H316.71V3.90918H318.935ZM319.46 20.6011V22.4907H306.233V16.4229H308.563V20.6011H319.46ZM335.356 3.88818V22.8896H333.005V3.88818H335.356ZM329.897 5.60986V7.52051H323.094V16.3389C326.59 16.3284 328.784 16.2234 331.304 15.772L331.535 17.7036C328.826 18.2075 326.37 18.3125 322.36 18.3125H320.743V5.60986H329.897ZM352.806 3.88818V22.8687H350.559V3.88818H352.806ZM348.9 4.22412V21.9448H346.675V12.9165H344.869C344.649 16.6118 343.063 18.9004 340.712 18.8794C338.234 18.9004 336.618 16.2759 336.618 12.0977C336.618 7.91943 338.234 5.33691 340.712 5.33691C343.011 5.33691 344.575 7.47852 344.848 11.0269H346.675V4.22412H348.9ZM340.712 7.5415C339.515 7.52051 338.759 9.13721 338.78 12.0977C338.759 15.0581 339.515 16.6748 340.712 16.6538C341.972 16.6748 342.727 15.0581 342.727 12.0977C342.727 9.13721 341.972 7.52051 340.712 7.5415ZM368.785 5.63086V7.45752C368.764 9.80908 368.764 12.4546 368.029 16.4229L365.678 16.1709C366.413 12.4756 366.413 9.77759 366.434 7.49951H355.096V5.63086H368.785ZM370.591 18.5015V20.4121H353.29V18.5015H359.673V11.9087H361.982V18.5015H370.591ZM378.72 5.27393C380.441 5.27393 381.859 6.22925 382.709 7.89844H387.139V3.88818H389.449V22.8896H387.139V15.709H382.877C382.058 17.5986 380.557 18.6904 378.72 18.6904C375.864 18.6904 373.849 16.1079 373.849 11.9717C373.849 7.87744 375.864 5.27393 378.72 5.27393ZM378.72 7.37354C377.145 7.37354 376.074 9.07422 376.095 11.9717C376.074 14.8901 377.145 16.5908 378.72 16.5908C380.294 16.5908 381.344 14.8901 381.365 11.9717C381.344 9.07422 380.294 7.37354 378.72 7.37354ZM383.36 9.80908C383.496 10.4705 383.57 11.1948 383.57 11.9717C383.57 12.6331 383.517 13.2419 383.423 13.8193H387.139V9.80908H383.36ZM406.625 3.88818V15.814H404.4V10.6489H402.552V15.1841H400.368V4.26611H402.552V8.75928H404.4V3.88818H406.625ZM399.739 5.9458V7.77246H390.29V5.9458H393.881V4.05615H396.19V5.9458H399.739ZM395.035 8.54932C397.45 8.54932 399.151 9.85107 399.172 11.8247C399.151 13.7983 397.45 15.1001 395.035 15.1001C392.663 15.1001 390.941 13.7983 390.962 11.8247C390.941 9.85107 392.663 8.54932 395.035 8.54932ZM395.035 10.229C393.86 10.229 393.041 10.8379 393.041 11.8247C393.041 12.8115 393.839 13.4204 395.035 13.4204C396.232 13.4204 397.051 12.8115 397.051 11.8247C397.051 10.8379 396.232 10.229 395.035 10.229ZM400.221 16.0449C404.274 16.0449 406.709 17.2837 406.73 19.4673C406.709 21.6089 404.274 22.8477 400.221 22.8477C396.169 22.8477 393.713 21.6089 393.713 19.4673C393.713 17.2837 396.169 16.0449 400.221 16.0449ZM400.221 17.8296C397.513 17.8086 396.043 18.3545 396.043 19.4673C396.043 20.5171 397.513 21.063 400.221 21.063C402.909 21.063 404.379 20.5171 404.379 19.4673C404.379 18.3545 402.909 17.8086 400.221 17.8296ZM425.861 4.62305V6.07178C425.861 7.48901 425.861 9.1687 425.441 11.2788H427.982V13.1475H420.423V15.667C423.877 15.9084 425.945 17.1892 425.966 19.2363C425.945 21.5459 423.425 22.8477 419.289 22.8477C415.111 22.8477 412.57 21.5459 412.57 19.2363C412.57 17.1892 414.639 15.9084 418.113 15.688V13.1475H410.639V11.2788H423.09C423.488 9.32617 423.53 7.83545 423.53 6.4917H412.78V4.62305H425.861ZM419.289 17.5146C416.476 17.5146 414.922 18.1025 414.943 19.2363C414.922 20.3911 416.476 20.979 419.289 20.979C422.04 20.979 423.593 20.3911 423.614 19.2363C423.593 18.1025 422.04 17.5146 419.289 17.5146ZM442.723 4.81201V6.28174C442.723 7.75146 442.723 9.43115 442.261 11.6777H444.843V13.5674H427.5V11.6777H439.909C440.35 9.63062 440.392 8.06641 440.392 6.68066H429.642V4.81201H442.723ZM442.702 15.772V22.6377H429.579V15.772H442.702ZM431.868 17.5986V20.748H440.392V17.5986H431.868ZM459.332 3.90918V9.87207H461.978V11.8037H459.332V18.0815H457.002V3.90918H459.332ZM455.637 6.00879V7.87744H444.383V6.00879H448.855V3.88818H451.186V6.00879H455.637ZM450.01 8.6543C452.739 8.6543 454.629 10.103 454.65 12.2866C454.629 14.4492 452.739 15.877 450.01 15.877C447.259 15.877 445.349 14.4492 445.349 12.2866C445.349 10.103 447.259 8.6543 450.01 8.6543ZM450.01 10.46C448.561 10.46 447.616 11.1318 447.616 12.2866C447.616 13.4204 448.561 14.0923 450.01 14.0713C451.459 14.0923 452.424 13.4204 452.424 12.2866C452.424 11.1318 451.459 10.46 450.01 10.46ZM460.088 20.6011V22.4907H447.175V16.9688H449.506V20.6011H460.088ZM480.5 3.90918V16.5698H478.169V10.9429H474.558V9.03223H478.169V3.90918H480.5ZM474.432 5.37891C474.411 10.397 471.513 13.8403 465.865 15.604L464.857 13.7773C469.225 12.4651 471.513 10.187 471.912 7.24756H465.844V5.37891H474.432ZM475.335 15.814C475.314 18.1655 477.665 20.3071 481.444 20.916L480.5 22.7637C477.56 22.2598 475.293 20.874 474.159 18.9004C472.993 20.874 470.715 22.2703 467.776 22.7847L466.852 20.937C470.652 20.3701 473.004 18.1655 473.004 15.814V15.0791H475.335V15.814ZM497.256 3.88818V22.8896H494.905V3.88818H497.256ZM487.031 5.27393C489.887 5.27393 491.965 7.87744 491.986 11.9717C491.965 16.1079 489.887 18.6904 487.031 18.6904C484.155 18.6904 482.076 16.1079 482.076 11.9717C482.076 7.87744 484.155 5.27393 487.031 5.27393ZM487.031 7.37354C485.414 7.37354 484.323 9.07422 484.323 11.9717C484.323 14.8901 485.414 16.5908 487.031 16.5908C488.627 16.5908 489.719 14.8901 489.719 11.9717C489.719 9.07422 488.627 7.37354 487.031 7.37354ZM517.647 3.88818V22.8896H515.316V11.7827H509.878V9.89307H515.316V3.88818H517.647ZM505.049 5.9668V16.4438C507.6 16.4019 510.13 16.2024 512.797 15.688L513.07 17.5986C510.004 18.2285 507.17 18.3965 504.272 18.3965H502.718V5.9668H505.049ZM535.894 14.6382V16.5278H528.335V22.8477H526.026V16.5278H518.551V14.6382H535.894ZM533.773 4.854V12.4126H520.672V4.854H533.773ZM522.96 6.72266V10.5859H531.443V6.72266H522.96ZM553.786 3.88818V7.98242H556.432V9.91406H553.786V13.4414H551.455V3.88818H553.786ZM548.453 5.10596V12.9375H539.467V5.10596H548.453ZM541.755 6.93262V11.1108H546.164V6.93262H541.755ZM542.91 15.0581V20.4331C544.002 20.3806 545.125 20.2231 546.206 19.8662L546.542 21.6929C544.863 22.2808 543.246 22.3438 541.629 22.3438H540.621V15.0581H542.91ZM555.445 15.2681V16.9478H545.891V15.2681H549.545V13.7773H551.833V15.2681H555.445ZM550.658 17.5146C552.799 17.5146 554.29 18.5225 554.29 20.1812C554.29 21.7979 552.799 22.8267 550.658 22.8267C548.495 22.8267 547.025 21.7979 547.046 20.1812C547.025 18.5225 548.495 17.5146 550.658 17.5146ZM550.658 19.1104C549.755 19.1104 549.104 19.4883 549.125 20.1812C549.104 20.874 549.755 21.252 550.658 21.252C551.539 21.252 552.19 20.874 552.19 20.1812C552.19 19.4883 551.539 19.1104 550.658 19.1104ZM564.307 4.18213C568.632 4.18213 571.13 5.33691 571.151 7.43652C571.13 9.55713 568.632 10.6909 564.307 10.7119C559.982 10.6909 557.462 9.55713 557.462 7.43652C557.462 5.33691 559.982 4.18213 564.307 4.18213ZM564.307 5.90381C561.409 5.90381 559.898 6.44971 559.919 7.43652C559.898 8.48633 561.409 8.96924 564.307 8.96924C567.246 8.96924 568.737 8.48633 568.737 7.43652C568.737 6.44971 567.246 5.90381 564.307 5.90381ZM572.978 11.7197V13.5884H555.677V11.7197H572.978ZM570.816 14.8691V19.5093H560.024V20.916H571.34V22.7007H557.735V17.8506H568.527V16.5908H557.714V14.8691H570.816ZM588.582 4.24512V11.3838H590.303V3.88818H592.508V22.8687H590.303V13.2944H588.582V21.9658H586.44V4.24512H588.582ZM580.393 6.19775V8.0874H578.461V16.1709C579.049 16.1289 579.711 16.0344 580.435 15.856L580.624 17.8086C579.175 18.1235 578.063 18.1445 577.139 18.1445H576.32V6.19775H580.393ZM585.348 6.19775V8.0874H583.27V16.1919C583.983 16.1604 584.75 16.0659 585.621 15.835L585.789 17.7876C584.319 18.1235 583.144 18.1445 581.989 18.1445H581.17V6.19775H585.348Z" fill="white"/>
<path d="M223.332 35.6504V39.0273H211.68V45.002H222.738V48.2676H211.68V55.1699C216.838 55.1328 220.864 54.9473 225.559 54.168L225.93 57.5078C220.771 58.3242 216.281 58.5098 210.27 58.5098H207.486V35.6504H223.332ZM232.387 32.7559V45.7441H237.545V49.1953H232.387V66.3027H228.268V32.7559H232.387ZM253.653 35.9102V58.1387H237.696V35.9102H253.653ZM241.778 39.1387V54.8359H249.646V39.1387H241.778ZM263.821 32.7559V66.3398H259.665V32.7559H263.821ZM283.047 37.3574C283.047 42.5527 288.131 47.748 295.145 48.9727L293.289 52.4238C287.667 51.2363 283.066 47.8408 280.895 43.332C278.668 47.8037 274.066 51.2178 268.463 52.4238L266.645 48.9727C273.584 47.7109 278.631 42.5156 278.668 37.3574V34.8711H283.047V37.3574ZM296.369 58.6211V62.0352H265.717V58.6211H296.369ZM306.392 35.0938C311.698 35.0566 315.595 38.4336 315.632 43.1836C315.595 47.9707 311.698 51.3105 306.392 51.3105C301.122 51.3105 297.189 47.9707 297.189 43.1836C297.189 38.4336 301.122 35.0566 306.392 35.0938ZM306.392 38.6562C303.46 38.6562 301.271 40.4004 301.271 43.1836C301.271 46.0039 303.46 47.7109 306.392 47.7109C309.36 47.7109 311.587 46.0039 311.587 43.1836C311.587 40.4004 309.36 38.6562 306.392 38.6562ZM323.462 32.7559V66.3398H319.343V32.7559H323.462ZM295.667 55.9492C301.716 55.9492 310.103 55.875 317.339 54.8359L317.673 57.8418C310.14 59.2891 302.087 59.3262 296.187 59.3262L295.667 55.9492ZM343.247 36.2441C343.21 40.4746 345.956 44.2969 351.152 45.8555L349.036 49.0469C345.325 47.8779 342.709 45.5215 341.28 42.4785C339.778 45.9668 336.957 48.6387 332.968 49.9375L330.927 46.6719C336.308 44.9648 339.091 40.8457 339.128 36.2441V33.9434H343.247V36.2441ZM357.757 32.7559V39.584H362.433V42.9609H357.757V50.0859H353.638V32.7559H357.757ZM357.757 51.459V60.1055H339.945V62.7402H358.796V66.0059H335.863V57.0996H353.638V54.6504H335.825V51.459H357.757ZM370.117 35.2051C375.164 35.2051 378.801 39.8066 378.838 47.043C378.801 54.3535 375.164 58.918 370.117 58.918C365.033 58.918 361.36 54.3535 361.397 47.043C361.36 39.8066 365.033 35.2051 370.117 35.2051ZM370.117 38.916C367.297 38.916 365.367 41.9219 365.367 47.043C365.367 52.2012 367.297 55.207 370.117 55.207C372.975 55.207 374.867 52.2012 374.867 47.043C374.867 41.9219 372.975 38.916 370.117 38.916ZM387.373 32.7559V45.6328H392.531V49.1211H387.373V66.3027H383.254V32.7559H387.373ZM402.814 54.5762C402.814 57.3594 404.094 60.291 406.97 62.1094C409.883 60.1611 411.238 57.1182 411.275 54.5762V53.2031H415.32V54.5762C415.283 58.1016 417.361 61.3672 421.777 62.7773L419.773 65.7832C416.507 64.6885 414.336 62.5547 413.167 59.8828C412.091 62.5176 410.106 64.874 407.081 66.0801C403.89 64.9297 401.886 62.666 400.847 59.9941C399.641 62.5732 397.507 64.6699 394.39 65.7832L392.349 62.7773C396.691 61.2559 398.769 57.8418 398.806 54.5762V53.2031H402.814V54.5762ZM418.845 32.793V51.793H414.689V32.793H418.845ZM400.55 34.5742C405.708 34.5742 409.568 37.8398 409.568 42.5527C409.568 47.2285 405.708 50.4941 400.55 50.4941C395.355 50.4941 391.495 47.2285 391.495 42.5527C391.495 37.8398 395.355 34.5742 400.55 34.5742ZM400.55 38.0625C397.618 38.0625 395.503 39.8066 395.54 42.5527C395.503 45.2988 397.618 47.0801 400.55 47.0801C403.445 47.0801 405.523 45.2988 405.523 42.5527C405.523 39.8066 403.445 38.0625 400.55 38.0625ZM447.867 42.2559V45.5215H424.637V33.9805H428.719V42.2559H447.867ZM451.319 49.418V52.6836H420.666V49.418H451.319ZM448.09 62.1836V65.5234H424.34V55.6523H428.459V62.1836H448.09ZM488.417 28.7764V51.3262H483.756V42.0459H477.289V38.2246H483.756V28.7764H488.417ZM475.568 52.292C483.63 52.292 488.543 54.9375 488.543 59.5146C488.543 64.0918 483.63 66.7373 475.568 66.7373C467.547 66.7373 462.634 64.0918 462.676 59.5146C462.634 54.9375 467.547 52.292 475.568 52.292ZM475.568 55.8613C470.277 55.8613 467.295 57.1211 467.295 59.5146C467.295 61.8662 470.277 63.126 475.568 63.126C480.859 63.126 483.882 61.8662 483.882 59.5146C483.882 57.1211 480.859 55.8613 475.568 55.8613ZM470.571 35.2852C470.571 39.9043 473.636 44.5654 479.515 46.5391L477.163 50.2344C472.943 48.8066 469.941 45.9092 468.303 42.3398C466.623 46.3921 463.453 49.6255 458.939 51.2422L456.503 47.5469C462.592 45.4473 465.826 40.3242 465.826 35.3271V35.0332H457.931V31.2539H478.423V35.0332H470.571V35.2852ZM525.038 58.3389V62.1602H490.352V58.3389H505.302V50.9482H494.174V31.2959H498.835V37.5107H516.43V31.2959H521.091V50.9482H509.921V58.3389H525.038ZM498.835 47.1689H516.43V41.248H498.835V47.1689Z" fill="white"/>
<path d="M240.123 89.7441V105.529H238.453V89.7441H240.123ZM231.703 90.9219C234.041 90.9219 235.764 93.0664 235.764 96.4414C235.764 99.834 234.041 101.979 231.703 101.979C229.33 101.979 227.625 99.834 227.625 96.4414C227.625 93.0664 229.33 90.9219 231.703 90.9219ZM231.703 92.416C230.244 92.416 229.242 93.9629 229.242 96.4414C229.242 98.9375 230.244 100.484 231.703 100.484C233.145 100.484 234.146 98.9375 234.146 96.4414C234.146 93.9629 233.145 92.416 231.703 92.416ZM256.066 89.7441V101.697H254.484V89.7441H256.066ZM252.99 90.0254V101.205H251.408V95.5977H249.475V98.7793H243.305V90.9922H244.887V93.5762H247.928V90.9922H249.475V94.2441H251.408V90.0254H252.99ZM244.887 97.4258H247.928V94.8594H244.887V97.4258ZM256.523 103.807V105.16H245.625V100.08H247.277V103.807H256.523ZM270.973 98.1289V99.4648H260.004V91.0449H270.814V92.3984H261.691V94.5254H270.48V95.8438H261.691V98.1289H270.973ZM272.607 102.137V103.508H258.193V102.137H272.607ZM288.164 102.207V103.613H273.75V102.207H280.096V99.4473H275.508V94.4375H284.754V92.2227H275.473V90.8516H286.406V95.7734H277.16V98.0762H286.775V99.4473H281.748V102.207H288.164ZM296.162 90.6934V93.0488H300.363V90.6934H302.016V98.1992H294.527V90.6934H296.162ZM296.162 96.8457H300.363V94.3672H296.162V96.8457ZM306.762 100.08V105.494H305.092V101.416H296.092V100.08H306.762ZM306.762 89.7441V99.2539H305.092V89.7441H306.762ZM322.811 89.7441V105.494H321.211V97.373H319.348V104.686H317.766V90.0605H319.348V96.002H321.211V89.7441H322.811ZM316.729 91.6602V93.0312H315.48V100.08C316.008 100.036 316.518 99.9834 316.992 99.9219L317.08 101.152C314.602 101.627 311.314 101.697 309.275 101.697L309.082 100.291L310.664 100.273V93.0312H309.416V91.6602H316.729ZM312.193 100.256C312.773 100.238 313.362 100.221 313.951 100.186V93.0312H312.193V100.256ZM332.812 91.9766C332.812 94.543 335.555 96.9688 338.578 97.5137L337.805 98.9023C335.291 98.3574 332.971 96.7051 331.951 94.4902C330.914 96.6875 328.603 98.3398 326.08 98.9023L325.342 97.5137C328.33 96.9512 331.055 94.543 331.055 91.9766V90.7812H332.812V91.9766ZM339.229 102.031V103.42H324.814V102.031H339.229ZM357.141 89.6914V93.3828H359.443V94.7539H357.141V98.3574H355.471V89.6914H357.141ZM357.141 99.0957V102.752H348.633V104.07H357.686V105.336H346.998V101.574H355.488V100.344H346.963V99.0957H357.141ZM354.17 91.0801V92.3984H344.783V91.0801H348.65V89.6035H350.32V91.0801H354.17ZM349.477 92.9961C351.779 92.9961 353.291 93.9805 353.291 95.5801C353.291 97.1797 351.779 98.1465 349.477 98.1465C347.156 98.1465 345.645 97.1797 345.645 95.5801C345.645 93.9805 347.156 92.9961 349.477 92.9961ZM349.477 94.1914C348.123 94.1914 347.244 94.7363 347.262 95.5801C347.244 96.4238 348.123 96.9336 349.477 96.9336C350.83 96.9336 351.709 96.4238 351.727 95.5801C351.709 94.7363 350.83 94.1914 349.477 94.1914ZM373.383 89.7617V101.205H371.713V89.7617H373.383ZM373.857 103.807V105.16H363.082V100.045H364.77V103.807H373.857ZM364.84 90.8164C367.213 90.8164 369.023 92.4336 369.023 94.7188C369.023 97.0391 367.213 98.6387 364.84 98.6387C362.467 98.6387 360.639 97.0391 360.639 94.7188C360.639 92.4336 362.467 90.8164 364.84 90.8164ZM364.84 92.2754C363.363 92.2754 362.273 93.2773 362.273 94.7188C362.273 96.1953 363.363 97.1797 364.84 97.1797C366.281 97.1797 367.389 96.1953 367.389 94.7188C367.389 93.2773 366.281 92.2754 364.84 92.2754ZM392.648 89.7441V93.4707H394.934V94.8594H392.648V98.9375H390.979V89.7441H392.648ZM382.523 90.6406V92.9258H386.654V90.6406H388.307V98.0234H380.889V90.6406H382.523ZM382.523 96.7051H386.654V94.2441H382.523V96.7051ZM392.771 99.7637V101.1H384.281V103.947H393.053V105.266H382.611V99.7637H392.771ZM403.002 90.6934C406.307 90.6934 408.82 92.4336 408.82 95.0879C408.82 97.7422 406.307 99.5 403.002 99.4824C399.697 99.5 397.201 97.7422 397.201 95.0879C397.201 92.4336 399.697 90.6934 403.002 90.6934ZM403.002 92.0469C400.594 92.0293 398.783 93.2598 398.801 95.0879C398.783 96.9336 400.594 98.1113 403.002 98.1113C405.41 98.1113 407.203 96.9336 407.203 95.0879C407.203 93.2598 405.41 92.0293 403.002 92.0469ZM410.244 102.066V103.455H395.83V102.066H410.244ZM416.186 94.0508C416.186 96.5645 417.24 99.2539 419.35 100.537L418.418 101.82C416.941 100.933 415.939 99.3594 415.412 97.5312C414.823 99.5352 413.742 101.24 412.213 102.172L411.176 100.924C413.408 99.5879 414.568 96.8105 414.568 94.1211V91.1855H416.186V94.0508ZM424.939 89.7441V105.494H423.34V89.7441H424.939ZM421.67 90.043V104.721H420.088V96.6699H417.645V95.2812H420.088V90.043H421.67ZM441.357 102.137V103.525H426.943V102.137H430.389V98.0234C429.097 97.3115 428.314 96.1777 428.314 94.7715C428.314 92.293 430.74 90.6582 434.115 90.6582C437.508 90.6582 439.934 92.293 439.934 94.7715C439.934 96.1602 439.178 97.2764 437.912 97.9883V102.137H441.357ZM434.115 91.9941C431.637 91.9941 429.932 93.0664 429.932 94.7715C429.932 96.459 431.637 97.5664 434.115 97.5664C436.576 97.5664 438.316 96.459 438.316 94.7715C438.316 93.0664 436.576 91.9941 434.115 91.9941ZM432.041 102.137H436.225V98.6211C435.583 98.7881 434.871 98.8672 434.115 98.8672C433.377 98.8672 432.674 98.7881 432.041 98.6387V102.137ZM445.4 91.2734L445.242 100.326H443.502L443.344 91.2734H445.4ZM444.381 104.123C443.695 104.123 443.115 103.561 443.133 102.875C443.115 102.189 443.695 101.627 444.381 101.627C445.049 101.627 445.629 102.189 445.629 102.875C445.629 103.561 445.049 104.123 444.381 104.123Z" fill="white"/>
<path d="M214 91.5H206V105.5H220V98" stroke="white" stroke-width="1.8"/>
<path d="M208.5 96L213 100.5L223 89" stroke="white" stroke-width="1.8"/>
</svg>
