<svg width="345" height="47" viewBox="0 0 345 47" fill="none" xmlns="http://www.w3.org/2000/svg">
<path d="M114.045 2.42871V4.88965H114.995V5.51855H114.045V8.6084H113.293V2.42871H114.045ZM112.814 3.37891V3.9873H109.171V3.37891H110.634V2.51758H111.393V3.37891H112.814ZM111.017 4.39062C111.905 4.39062 112.568 4.99219 112.568 5.84668C112.568 6.70117 111.905 7.2959 111.017 7.2959C110.114 7.2959 109.451 6.70117 109.458 5.84668C109.451 4.99219 110.114 4.39062 111.017 4.39062ZM111.017 5.0127C110.531 5.0127 110.183 5.34082 110.183 5.84668C110.183 6.35254 110.531 6.67383 111.017 6.66699C111.488 6.67383 111.837 6.35254 111.844 5.84668C111.837 5.34082 111.488 5.0127 111.017 5.0127ZM116.541 2.81152C117.491 2.81152 118.215 3.42676 118.222 4.30176C118.215 5.05713 117.682 5.61426 116.93 5.75781V6.66699C117.443 6.64307 117.959 6.60205 118.441 6.53711L118.496 7.10449C117.204 7.33691 115.789 7.34375 114.729 7.33008L114.62 6.70801C115.085 6.70801 115.618 6.70801 116.171 6.69434V5.75781C115.396 5.62793 114.859 5.06738 114.866 4.30176C114.859 3.42676 115.57 2.81152 116.541 2.81152ZM116.541 3.4541C116.001 3.46094 115.604 3.78223 115.604 4.30176C115.604 4.82129 116.001 5.14941 116.541 5.14258C117.074 5.14941 117.47 4.82129 117.47 4.30176C117.47 3.78223 117.074 3.46094 116.541 3.4541ZM119.555 2.42871V4.89648H120.451V5.53906H119.555V8.6084H118.796V2.42871H119.555ZM125.325 2.42871V8.61523H124.56V2.42871H125.325ZM121.996 2.87988C122.926 2.87988 123.603 3.72754 123.609 5.06055C123.603 6.40723 122.926 7.24805 121.996 7.24805C121.06 7.24805 120.383 6.40723 120.383 5.06055C120.383 3.72754 121.06 2.87988 121.996 2.87988ZM121.996 3.56348C121.47 3.56348 121.114 4.11719 121.114 5.06055C121.114 6.01074 121.47 6.56445 121.996 6.56445C122.516 6.56445 122.871 6.01074 122.871 5.06055C122.871 4.11719 122.516 3.56348 121.996 3.56348ZM127.528 6.36621C127.234 6.36621 126.994 6.12695 126.994 5.83301C126.994 5.5459 127.234 5.30664 127.528 5.30664C127.808 5.30664 128.054 5.5459 128.054 5.83301C128.054 6.12695 127.808 6.36621 127.528 6.36621ZM129.477 8V3.05078H130.366V7.24805H132.553V8H129.477ZM133.524 8H132.574L134.317 3.05078H135.411L137.161 8H136.211L135.801 6.77637H133.934L133.524 8ZM134.174 6.05859H135.561L134.885 4.0625H134.844L134.174 6.05859ZM138.789 6.36621C138.495 6.36621 138.256 6.12695 138.256 5.83301C138.256 5.5459 138.495 5.30664 138.789 5.30664C139.069 5.30664 139.315 5.5459 139.315 5.83301C139.315 6.12695 139.069 6.36621 138.789 6.36621ZM142.413 3.64551C142.413 4.37695 142.789 5.09473 143.61 5.45703L143.199 6.03125C142.656 5.79883 142.28 5.38867 142.065 4.88281C141.836 5.46387 141.439 5.95605 140.861 6.22949L140.431 5.6416C141.285 5.23828 141.675 4.39746 141.682 3.64551V2.85254H142.413V3.64551ZM145.77 2.43555V7.07031H145.045V4.85547H144.43V6.87891H143.719V2.55176H144.43V4.2334H145.045V2.43555H145.77ZM145.941 7.87012V8.48535H141.634V6.50977H142.393V7.87012H145.941ZM151.116 2.42871V8.61523H150.35V2.42871H151.116ZM149.339 2.98926V3.61133H147.124V6.48242C148.262 6.479 148.976 6.44482 149.797 6.29785L149.872 6.92676C148.99 7.09082 148.19 7.125 146.884 7.125H146.358V2.98926H149.339ZM156.797 2.42871V8.6084H156.066V2.42871H156.797ZM155.526 2.53809V8.30762H154.801V5.36816H154.213C154.141 6.57129 153.625 7.31641 152.86 7.30957C152.053 7.31641 151.527 6.46191 151.527 5.10156C151.527 3.74121 152.053 2.90039 152.86 2.90039C153.608 2.90039 154.117 3.59766 154.206 4.75293H154.801V2.53809H155.526ZM152.86 3.61816C152.47 3.61133 152.224 4.1377 152.231 5.10156C152.224 6.06543 152.47 6.5918 152.86 6.58496C153.27 6.5918 153.516 6.06543 153.516 5.10156C153.516 4.1377 153.27 3.61133 152.86 3.61816ZM162 2.99609V3.59082C161.993 4.35645 161.993 5.21777 161.754 6.50977L160.988 6.42773C161.227 5.22461 161.227 4.34619 161.234 3.60449H157.543V2.99609H162ZM162.588 7.18652V7.80859H156.955V7.18652H159.033V5.04004H159.785V7.18652H162.588ZM165.234 2.87988C165.795 2.87988 166.256 3.19092 166.533 3.73438H167.976V2.42871H168.728V8.61523H167.976V6.27734H166.588C166.321 6.89258 165.832 7.24805 165.234 7.24805C164.305 7.24805 163.648 6.40723 163.648 5.06055C163.648 3.72754 164.305 2.87988 165.234 2.87988ZM165.234 3.56348C164.722 3.56348 164.373 4.11719 164.38 5.06055C164.373 6.01074 164.722 6.56445 165.234 6.56445C165.747 6.56445 166.089 6.01074 166.096 5.06055C166.089 4.11719 165.747 3.56348 165.234 3.56348ZM166.745 4.35645C166.79 4.57178 166.813 4.80762 166.813 5.06055C166.813 5.27588 166.796 5.47412 166.766 5.66211H167.976V4.35645H166.745ZM174.32 2.42871V6.31152H173.595V4.62988H172.994V6.10645H172.283V2.55176H172.994V4.01465H173.595V2.42871H174.32ZM172.078 3.09863V3.69336H169.001V3.09863H170.17V2.4834H170.922V3.09863H172.078ZM170.546 3.94629C171.333 3.94629 171.886 4.37012 171.893 5.0127C171.886 5.65527 171.333 6.0791 170.546 6.0791C169.774 6.0791 169.213 5.65527 169.22 5.0127C169.213 4.37012 169.774 3.94629 170.546 3.94629ZM170.546 4.49316C170.164 4.49316 169.897 4.69141 169.897 5.0127C169.897 5.33398 170.157 5.53223 170.546 5.53223C170.936 5.53223 171.203 5.33398 171.203 5.0127C171.203 4.69141 170.936 4.49316 170.546 4.49316ZM172.235 6.38672C173.554 6.38672 174.347 6.79004 174.354 7.50098C174.347 8.19824 173.554 8.60156 172.235 8.60156C170.916 8.60156 170.116 8.19824 170.116 7.50098C170.116 6.79004 170.916 6.38672 172.235 6.38672ZM172.235 6.96777C171.353 6.96094 170.875 7.13867 170.875 7.50098C170.875 7.84277 171.353 8.02051 172.235 8.02051C173.11 8.02051 173.588 7.84277 173.588 7.50098C173.588 7.13867 173.11 6.96094 172.235 6.96777ZM180.583 2.66797V3.13965C180.583 3.60107 180.583 4.14795 180.446 4.83496H181.273V5.44336H178.812V6.26367C179.937 6.34229 180.61 6.75928 180.617 7.42578C180.61 8.17773 179.79 8.60156 178.443 8.60156C177.083 8.60156 176.256 8.17773 176.256 7.42578C176.256 6.75928 176.929 6.34229 178.06 6.27051V5.44336H175.627V4.83496H179.68C179.81 4.19922 179.824 3.71387 179.824 3.27637H176.324V2.66797H180.583ZM178.443 6.86523C177.527 6.86523 177.021 7.05664 177.028 7.42578C177.021 7.80176 177.527 7.99316 178.443 7.99316C179.339 7.99316 179.844 7.80176 179.851 7.42578C179.844 7.05664 179.339 6.86523 178.443 6.86523ZM186.072 2.72949V3.20801C186.072 3.68652 186.072 4.2334 185.922 4.96484H186.763V5.58008H181.116V4.96484H185.156C185.3 4.29834 185.314 3.78906 185.314 3.33789H181.814V2.72949H186.072ZM186.066 6.29785V8.5332H181.793V6.29785H186.066ZM182.538 6.89258V7.91797H185.314V6.89258H182.538ZM191.48 2.43555V4.37695H192.342V5.00586H191.48V7.0498H190.721V2.43555H191.48ZM190.277 3.11914V3.72754H186.613V3.11914H188.069V2.42871H188.828V3.11914H190.277ZM188.445 3.98047C189.334 3.98047 189.949 4.45215 189.956 5.16309C189.949 5.86719 189.334 6.33203 188.445 6.33203C187.55 6.33203 186.927 5.86719 186.927 5.16309C186.927 4.45215 187.55 3.98047 188.445 3.98047ZM188.445 4.56836C187.973 4.56836 187.666 4.78711 187.666 5.16309C187.666 5.53223 187.973 5.75098 188.445 5.74414C188.917 5.75098 189.231 5.53223 189.231 5.16309C189.231 4.78711 188.917 4.56836 188.445 4.56836ZM191.726 7.87012V8.48535H187.522V6.6875H188.281V7.87012H191.726ZM198.372 2.43555V6.55762H197.613V4.72559H196.437V4.10352H197.613V2.43555H198.372ZM196.396 2.91406C196.39 4.54785 195.446 5.66895 193.607 6.24316L193.279 5.64844C194.701 5.22119 195.446 4.47949 195.576 3.52246H193.6V2.91406H196.396ZM196.69 6.31152C196.683 7.07715 197.449 7.77441 198.68 7.97266L198.372 8.57422C197.415 8.41016 196.677 7.95898 196.308 7.31641C195.928 7.95898 195.186 8.41357 194.229 8.58105L193.929 7.97949C195.166 7.79492 195.932 7.07715 195.932 6.31152V6.07227H196.69V6.31152ZM203.828 2.42871V8.61523H203.062V2.42871H203.828ZM200.498 2.87988C201.428 2.87988 202.105 3.72754 202.112 5.06055C202.105 6.40723 201.428 7.24805 200.498 7.24805C199.562 7.24805 198.885 6.40723 198.885 5.06055C198.885 3.72754 199.562 2.87988 200.498 2.87988ZM200.498 3.56348C199.972 3.56348 199.617 4.11719 199.617 5.06055C199.617 6.01074 199.972 6.56445 200.498 6.56445C201.018 6.56445 201.373 6.01074 201.373 5.06055C201.373 4.11719 201.018 3.56348 200.498 3.56348ZM210.466 2.42871V8.61523H209.708V4.99902H207.937V4.38379H209.708V2.42871H210.466ZM206.365 3.10547V6.5166C207.195 6.50293 208.019 6.43799 208.887 6.27051L208.976 6.89258C207.978 7.09766 207.055 7.15234 206.112 7.15234H205.606V3.10547H206.365ZM216.407 5.92871V6.54395H213.946V8.60156H213.194V6.54395H210.761V5.92871H216.407ZM215.717 2.74316V5.2041H211.451V2.74316H215.717ZM212.196 3.35156V4.60938H214.958V3.35156H212.196ZM222.233 2.42871V3.76172H223.094V4.39062H222.233V5.53906H221.474V2.42871H222.233ZM220.496 2.8252V5.375H217.571V2.8252H220.496ZM218.316 3.41992V4.78027H219.751V3.41992H218.316ZM218.692 6.06543V7.81543C219.047 7.79834 219.413 7.74707 219.765 7.63086L219.874 8.22559C219.327 8.41699 218.801 8.4375 218.275 8.4375H217.947V6.06543H218.692ZM222.773 6.13379V6.68066H219.662V6.13379H220.852V5.64844H221.597V6.13379H222.773ZM221.214 6.86523C221.911 6.86523 222.397 7.19336 222.397 7.7334C222.397 8.25977 221.911 8.59473 221.214 8.59473C220.51 8.59473 220.031 8.25977 220.038 7.7334C220.031 7.19336 220.51 6.86523 221.214 6.86523ZM221.214 7.38477C220.92 7.38477 220.708 7.50781 220.715 7.7334C220.708 7.95898 220.92 8.08203 221.214 8.08203C221.501 8.08203 221.713 7.95898 221.713 7.7334C221.713 7.50781 221.501 7.38477 221.214 7.38477ZM225.658 2.52441C227.066 2.52441 227.88 2.90039 227.887 3.58398C227.88 4.27441 227.066 4.64355 225.658 4.65039C224.25 4.64355 223.429 4.27441 223.429 3.58398C223.429 2.90039 224.25 2.52441 225.658 2.52441ZM225.658 3.08496C224.715 3.08496 224.222 3.2627 224.229 3.58398C224.222 3.92578 224.715 4.08301 225.658 4.08301C226.615 4.08301 227.1 3.92578 227.1 3.58398C227.1 3.2627 226.615 3.08496 225.658 3.08496ZM228.481 4.97852V5.58691H222.848V4.97852H228.481ZM227.777 6.00391V7.51465H224.263V7.97266H227.948V8.55371H223.518V6.97461H227.032V6.56445H223.512V6.00391H227.777ZM233.561 2.54492V4.86914H234.122V2.42871H234.84V8.6084H234.122V5.49121H233.561V8.31445H232.864V2.54492H233.561ZM230.895 3.18066V3.7959H230.267V6.42773C230.458 6.41406 230.673 6.3833 230.909 6.3252L230.971 6.96094C230.499 7.06348 230.137 7.07031 229.836 7.07031H229.569V3.18066H230.895ZM232.509 3.18066V3.7959H231.832V6.43457C232.064 6.42432 232.314 6.39355 232.598 6.31836L232.652 6.9541C232.174 7.06348 231.791 7.07031 231.415 7.07031H231.148V3.18066H232.509Z" fill="white"/>
<path d="M114.307 20.083V21.0605H110.934V22.79H114.135V23.7354H110.934V25.7334C112.427 25.7227 113.592 25.6689 114.951 25.4434L115.059 26.4102C113.565 26.6465 112.266 26.7002 110.525 26.7002H109.72V20.083H114.307ZM116.928 19.2451V23.0049H118.421V24.0039H116.928V28.9561H115.735V19.2451H116.928ZM123.084 20.1582V26.5928H118.465V20.1582H123.084ZM119.646 21.0928V25.6367H121.924V21.0928H119.646ZM126.027 19.2451V28.9668H124.824V19.2451H126.027ZM131.593 20.5771C131.593 22.0811 133.064 23.585 135.094 23.9395L134.557 24.9385C132.93 24.5947 131.598 23.6118 130.969 22.3066C130.325 23.6011 128.993 24.5894 127.371 24.9385L126.844 23.9395C128.853 23.5742 130.314 22.0703 130.325 20.5771V19.8574H131.593V20.5771ZM135.449 26.7324V27.7207H126.576V26.7324H135.449ZM138.35 19.9219C139.886 19.9111 141.014 20.8887 141.025 22.2637C141.014 23.6494 139.886 24.6162 138.35 24.6162C136.825 24.6162 135.686 23.6494 135.686 22.2637C135.686 20.8887 136.825 19.9111 138.35 19.9219ZM138.35 20.9531C137.502 20.9531 136.868 21.458 136.868 22.2637C136.868 23.0801 137.502 23.5742 138.35 23.5742C139.21 23.5742 139.854 23.0801 139.854 22.2637C139.854 21.458 139.21 20.9531 138.35 20.9531ZM143.292 19.2451V28.9668H142.099V19.2451H143.292ZM135.246 25.959C136.997 25.959 139.424 25.9375 141.519 25.6367L141.616 26.5068C139.435 26.9258 137.104 26.9365 135.396 26.9365L135.246 25.959ZM149.019 20.2549C149.008 21.4795 149.803 22.5859 151.307 23.0371L150.695 23.9609C149.621 23.6226 148.863 22.9404 148.45 22.0596C148.015 23.0693 147.198 23.8428 146.043 24.2188L145.453 23.2734C147.01 22.7793 147.816 21.5869 147.827 20.2549V19.5889H149.019V20.2549ZM153.219 19.2451V21.2217H154.573V22.1992H153.219V24.2617H152.027V19.2451H153.219ZM153.219 24.6592V27.1621H148.063V27.9248H153.52V28.8701H146.881V26.292H152.027V25.583H146.871V24.6592H153.219ZM156.797 19.9541C158.258 19.9541 159.311 21.2861 159.322 23.3809C159.311 25.4971 158.258 26.8184 156.797 26.8184C155.325 26.8184 154.262 25.4971 154.273 23.3809C154.262 21.2861 155.325 19.9541 156.797 19.9541ZM156.797 21.0283C155.981 21.0283 155.422 21.8984 155.422 23.3809C155.422 24.874 155.981 25.7441 156.797 25.7441C157.624 25.7441 158.172 24.874 158.172 23.3809C158.172 21.8984 157.624 21.0283 156.797 21.0283ZM161.792 19.2451V22.9727H163.285V23.9824H161.792V28.9561H160.6V19.2451H161.792ZM166.262 25.5615C166.262 26.3672 166.632 27.2158 167.465 27.7422C168.308 27.1782 168.7 26.2974 168.711 25.5615V25.1641H169.882V25.5615C169.871 26.582 170.473 27.5273 171.751 27.9355L171.171 28.8057C170.226 28.4888 169.597 27.8711 169.259 27.0977C168.947 27.8604 168.373 28.5425 167.497 28.8916C166.573 28.5586 165.993 27.9033 165.693 27.1299C165.343 27.8765 164.726 28.4834 163.823 28.8057L163.233 27.9355C164.489 27.4951 165.091 26.5068 165.102 25.5615V25.1641H166.262V25.5615ZM170.903 19.2559V24.7559H169.699V19.2559H170.903ZM165.607 19.7715C167.1 19.7715 168.217 20.7168 168.217 22.0811C168.217 23.4346 167.1 24.3799 165.607 24.3799C164.103 24.3799 162.986 23.4346 162.986 22.0811C162.986 20.7168 164.103 19.7715 165.607 19.7715ZM165.607 20.7812C164.758 20.7812 164.146 21.2861 164.156 22.0811C164.146 22.876 164.758 23.3916 165.607 23.3916C166.444 23.3916 167.046 22.876 167.046 22.0811C167.046 21.2861 166.444 20.7812 165.607 20.7812ZM179.304 21.9951V22.9404H172.579V19.5996H173.761V21.9951H179.304ZM180.303 24.0684V25.0137H171.43V24.0684H180.303ZM179.368 27.7637V28.7305H172.493V25.873H173.686V27.7637H179.368ZM191.467 17.6533V24.4707H190.057V21.665H188.102V20.5098H190.057V17.6533H191.467ZM187.582 24.7627C190.019 24.7627 191.505 25.5625 191.505 26.9463C191.505 28.3301 190.019 29.1299 187.582 29.1299C185.157 29.1299 183.672 28.3301 183.684 26.9463C183.672 25.5625 185.157 24.7627 187.582 24.7627ZM187.582 25.8418C185.982 25.8418 185.081 26.2227 185.081 26.9463C185.081 27.6572 185.982 28.0381 187.582 28.0381C189.181 28.0381 190.096 27.6572 190.096 26.9463C190.096 26.2227 189.181 25.8418 187.582 25.8418ZM186.071 19.6211C186.071 21.0176 186.998 22.4268 188.775 23.0234L188.064 24.1406C186.788 23.709 185.881 22.833 185.386 21.7539C184.878 22.979 183.919 23.9565 182.554 24.4453L181.818 23.3281C183.659 22.6934 184.637 21.1445 184.637 19.6338V19.5449H182.25V18.4023H188.445V19.5449H186.071V19.6211ZM202.538 26.5908V27.7461H192.052V26.5908H196.571V24.3564H193.207V18.415H194.616V20.2939H199.935V18.415H201.345V24.3564H197.968V26.5908H202.538ZM194.616 23.2139H199.935V21.4238H194.616V23.2139Z" fill="white"/>
<path d="M121.889 37.4521V43.1523H121.286V37.4521H121.889ZM118.849 37.8774C119.693 37.8774 120.315 38.6519 120.315 39.8706C120.315 41.0957 119.693 41.8701 118.849 41.8701C117.992 41.8701 117.376 41.0957 117.376 39.8706C117.376 38.6519 117.992 37.8774 118.849 37.8774ZM118.849 38.417C118.322 38.417 117.96 38.9756 117.96 39.8706C117.96 40.772 118.322 41.3306 118.849 41.3306C119.369 41.3306 119.731 40.772 119.731 39.8706C119.731 38.9756 119.369 38.417 118.849 38.417ZM127.127 37.4521V41.7686H126.555V37.4521H127.127ZM126.016 37.5537V41.5908H125.445V39.5659H124.746V40.7148H122.518V37.9028H123.09V38.8359H124.188V37.9028H124.746V39.0771H125.445V37.5537H126.016ZM123.09 40.2261H124.188V39.2993H123.09V40.2261ZM127.292 42.5303V43.019H123.356V41.1846H123.953V42.5303H127.292ZM131.99 40.48V40.9624H128.029V37.9219H131.932V38.4106H128.638V39.1787H131.812V39.6548H128.638V40.48H131.99ZM132.58 41.9272V42.4224H127.375V41.9272H132.58ZM137.678 41.9526V42.4604H132.473V41.9526H134.764V40.9561H133.107V39.147H136.446V38.3472H133.095V37.8521H137.043V39.6294H133.704V40.4609H137.176V40.9561H135.361V41.9526H137.678ZM139.526 37.7949V38.6455H141.043V37.7949H141.64V40.5054H138.935V37.7949H139.526ZM139.526 40.0166H141.043V39.1216H139.526V40.0166ZM143.353 41.1846V43.1396H142.75V41.667H139.5V41.1846H143.353ZM143.353 37.4521V40.8862H142.75V37.4521H143.353ZM148.629 37.4521V43.1396H148.051V40.207H147.378V42.8477H146.807V37.5664H147.378V39.7119H148.051V37.4521H148.629ZM146.433 38.144V38.6392H145.982V41.1846C146.172 41.1687 146.356 41.1497 146.528 41.1274L146.559 41.5718C145.664 41.7432 144.477 41.7686 143.741 41.7686L143.671 41.2607L144.243 41.2544V38.6392H143.792V38.144H146.433ZM144.795 41.248C145.004 41.2417 145.217 41.2354 145.43 41.2227V38.6392H144.795V41.248ZM151.721 38.2583C151.721 39.1851 152.711 40.061 153.803 40.2578L153.523 40.7593C152.616 40.5625 151.778 39.9658 151.41 39.166C151.035 39.9595 150.2 40.5562 149.289 40.7593L149.023 40.2578C150.102 40.0547 151.086 39.1851 151.086 38.2583V37.8267H151.721V38.2583ZM154.038 41.8892V42.3906H148.832V41.8892H154.038ZM159.466 37.4331V38.7661H160.297V39.2612H159.466V40.5625H158.863V37.4331H159.466ZM159.466 40.8291V42.1494H156.394V42.6255H159.663V43.0825H155.803V41.7241H158.869V41.2798H155.79V40.8291H159.466ZM158.393 37.9346V38.4106H155.003V37.9346H156.4V37.4014H157.003V37.9346H158.393ZM156.698 38.6265C157.53 38.6265 158.076 38.9819 158.076 39.5596C158.076 40.1372 157.53 40.4863 156.698 40.4863C155.86 40.4863 155.314 40.1372 155.314 39.5596C155.314 38.9819 155.86 38.6265 156.698 38.6265ZM156.698 39.0581C156.209 39.0581 155.892 39.2549 155.898 39.5596C155.892 39.8643 156.209 40.0483 156.698 40.0483C157.187 40.0483 157.504 39.8643 157.511 39.5596C157.504 39.2549 157.187 39.0581 156.698 39.0581ZM164.811 37.4585V41.5908H164.208V37.4585H164.811ZM164.982 42.5303V43.019H161.091V41.1719H161.701V42.5303H164.982ZM161.726 37.8394C162.583 37.8394 163.237 38.4233 163.237 39.2485C163.237 40.0864 162.583 40.6641 161.726 40.6641C160.869 40.6641 160.209 40.0864 160.209 39.2485C160.209 38.4233 160.869 37.8394 161.726 37.8394ZM161.726 38.3662C161.193 38.3662 160.799 38.728 160.799 39.2485C160.799 39.7817 161.193 40.1372 161.726 40.1372C162.247 40.1372 162.646 39.7817 162.646 39.2485C162.646 38.728 162.247 38.3662 161.726 38.3662ZM170.728 37.4521V38.7979H171.553V39.2993H170.728V40.772H170.125V37.4521H170.728ZM167.072 37.7759V38.6011H168.563V37.7759H169.16V40.4419H166.481V37.7759H167.072ZM167.072 39.9658H168.563V39.0771H167.072V39.9658ZM170.772 41.0703V41.5527H167.707V42.5811H170.874V43.0571H167.104V41.0703H170.772ZM173.947 37.7949C175.14 37.7949 176.048 38.4233 176.048 39.3818C176.048 40.3403 175.14 40.9751 173.947 40.9688C172.753 40.9751 171.852 40.3403 171.852 39.3818C171.852 38.4233 172.753 37.7949 173.947 37.7949ZM173.947 38.2837C173.077 38.2773 172.423 38.7217 172.43 39.3818C172.423 40.0483 173.077 40.4736 173.947 40.4736C174.816 40.4736 175.464 40.0483 175.464 39.3818C175.464 38.7217 174.816 38.2773 173.947 38.2837ZM176.562 41.9019V42.4033H171.357V41.9019H176.562ZM178.188 39.0073C178.188 39.915 178.568 40.8862 179.33 41.3496L178.994 41.813C178.461 41.4924 178.099 40.9243 177.908 40.2642C177.696 40.9878 177.305 41.6035 176.753 41.9399L176.378 41.4893C177.185 41.0068 177.604 40.0039 177.604 39.0327V37.9727H178.188V39.0073ZM181.349 37.4521V43.1396H180.771V37.4521H181.349ZM180.168 37.5601V42.8604H179.597V39.9531H178.714V39.4517H179.597V37.5601H180.168ZM186.757 41.9272V42.4287H181.552V41.9272H182.796V40.4419C182.33 40.1848 182.047 39.7754 182.047 39.2676C182.047 38.3726 182.923 37.7822 184.142 37.7822C185.367 37.7822 186.243 38.3726 186.243 39.2676C186.243 39.769 185.97 40.1721 185.513 40.4292V41.9272H186.757ZM184.142 38.2646C183.247 38.2646 182.631 38.6519 182.631 39.2676C182.631 39.877 183.247 40.2769 184.142 40.2769C185.031 40.2769 185.659 39.877 185.659 39.2676C185.659 38.6519 185.031 38.2646 184.142 38.2646ZM183.393 41.9272H184.904V40.6577C184.672 40.718 184.415 40.7466 184.142 40.7466C183.876 40.7466 183.622 40.718 183.393 40.6641V41.9272ZM187.697 38.0044L187.64 41.2734H187.012L186.955 38.0044H187.697ZM187.329 42.6445C187.082 42.6445 186.872 42.4414 186.879 42.1938C186.872 41.9463 187.082 41.7432 187.329 41.7432C187.57 41.7432 187.78 41.9463 187.78 42.1938C187.78 42.4414 187.57 42.6445 187.329 42.6445Z" fill="white"/>
<path d="M112.2 37.6606H109V43.1706H114.6V40.2189" stroke="white"/>
<path d="M110.42 39.4348L111.972 41L115.42 37" stroke="white"/>
</svg>
