<svg width="800" height="109" viewBox="0 0 800 109" fill="none" xmlns="http://www.w3.org/2000/svg">
<path d="M223.174 47.6973C223.174 51.7051 225.957 55.5645 231.264 57.1973L229.26 60.4258C225.456 59.2754 222.71 56.8447 221.17 53.7461C219.686 57.0859 216.921 59.7207 213.006 60.9824L211.002 57.7539C216.271 56.084 219.055 52.002 219.055 47.6973V47.1777H212.041V43.9121H219.055V39.9785H223.211V43.9121H230.188V47.1777H223.174V47.6973ZM239.205 39.793V64.6934H235.086V53.0781H229.074V49.7754H235.086V39.793H239.205ZM240.059 69.2949V72.6348H217.199V62.541H221.318V69.2949H240.059ZM252.901 47.8086C252.864 53.7832 255.87 59.8691 261.065 62.3555L258.542 65.6582C254.905 63.8213 252.289 60.2773 250.86 56.0098C249.395 60.5742 246.648 64.3594 242.808 66.2891L240.284 62.9863C245.665 60.4258 248.745 54.0059 248.782 47.8086V42.4648H252.901V47.8086ZM267.189 39.7559V52.8926H272.347V56.418H267.189V73.3027H263.069V39.7559H267.189ZM281.59 42.0938C286.897 42.0566 290.793 45.4336 290.83 50.1836C290.793 54.9707 286.897 58.3105 281.59 58.3105C276.32 58.3105 272.387 54.9707 272.387 50.1836C272.387 45.4336 276.32 42.0566 281.59 42.0938ZM281.59 45.6562C278.658 45.6562 276.469 47.4004 276.469 50.1836C276.469 53.0039 278.658 54.7109 281.59 54.7109C284.559 54.7109 286.785 53.0039 286.785 50.1836C286.785 47.4004 284.559 45.6562 281.59 45.6562ZM298.66 39.7559V73.3398H294.541V39.7559H298.66ZM270.865 62.9492C276.914 62.9492 285.301 62.875 292.537 61.8359L292.871 64.8418C285.338 66.2891 277.285 66.3262 271.385 66.3262L270.865 62.9492ZM333.735 55.0078V58.2734H323.789V65.9551H337.149V69.332H306.496V65.9551H319.707V58.2734H310.207V42.2422H333.475V45.5449H314.326V55.0078H333.735ZM348.989 47.8086C348.952 53.9688 352.181 60.1289 357.636 62.4668L355.187 65.7695C351.327 63.9883 348.488 60.4258 346.948 56.0469C345.408 60.7783 342.532 64.6377 338.45 66.5488L335.927 63.0977C341.53 60.6855 344.796 54.2656 344.796 47.8086V42.4648H348.989V47.8086ZM364.204 39.7559V73.3398H360.048V39.7559H364.204ZM373.778 70V39.5977H379.237V65.3809H392.674V70H373.778ZM398.64 70H392.803L403.511 39.5977H410.23L420.98 70H415.143L412.624 62.4834H401.16L398.64 70ZM402.63 58.0742H411.154L406.997 45.8125H406.745L402.63 58.0742ZM430.773 70L425.058 49.8496H429.882L433.445 64.0254H433.63L437.23 49.8496H442.017L445.654 63.9512H445.839L449.364 49.8496H454.189L448.474 70H443.538L439.753 56.3438H439.493L435.708 70H430.773ZM454.155 70V49.8496H458.905V70H454.155ZM456.567 46.9922C455.082 46.9922 453.821 45.8418 453.821 44.3945C453.821 42.9844 455.082 41.834 456.567 41.834C458.088 41.834 459.313 42.9844 459.313 44.3945C459.313 45.8418 458.088 46.9922 456.567 46.9922ZM470.449 49.8496V53.4863H466.478V63.9512C466.478 65.8809 467.443 66.2891 468.63 66.2891C469.187 66.2891 470.115 66.252 470.708 66.2148V70.0742C470.152 70.1855 469.224 70.2598 468.036 70.2598C464.474 70.2598 461.728 68.5156 461.765 64.7305V53.4863H458.87V49.8496H461.765V45.0254H466.478V49.8496H470.449ZM476.241 58.1992V70H471.491V43.1328H476.129V53.2637H476.389C477.317 51 479.246 49.5898 482.364 49.5898C486.557 49.5898 489.303 52.2988 489.303 57.1602V70H484.59V57.9023C484.59 55.1562 483.106 53.5977 480.619 53.5977C478.059 53.5977 476.241 55.2676 476.241 58.1992ZM493.685 70.2969C492.089 70.2969 490.79 68.998 490.79 67.4023C490.79 65.8438 492.089 64.5449 493.685 64.5449C495.206 64.5449 496.542 65.8438 496.542 67.4023C496.542 68.998 495.206 70.2969 493.685 70.2969ZM514.135 42.6504V46.0273H502.483V52.002H513.541V55.2676H502.483V62.1699C507.641 62.1328 511.667 61.9473 516.362 61.168L516.733 64.5078C511.575 65.3242 507.084 65.5098 501.073 65.5098H498.289V42.6504H514.135ZM523.19 39.7559V52.7441H528.348V56.1953H523.19V73.3027H519.071V39.7559H523.19ZM544.456 42.9102V65.1387H528.499V42.9102H544.456ZM532.581 46.1387V61.8359H540.449V46.1387H532.581ZM554.624 39.7559V73.3398H550.468V39.7559H554.624ZM573.85 44.3574C573.85 49.5527 578.934 54.748 585.948 55.9727L584.092 59.4238C578.47 58.2363 573.869 54.8408 571.698 50.332C569.471 54.8037 564.87 58.2178 559.266 59.4238L557.448 55.9727C564.387 54.7109 569.434 49.5156 569.471 44.3574V41.8711H573.85V44.3574ZM587.172 65.6211V69.0352H556.52V65.6211H587.172Z" fill="white"/>
</svg>
