<svg width="345" height="47" viewBox="0 0 345 47" fill="none" xmlns="http://www.w3.org/2000/svg">
<path d="M120.813 22.5439C120.813 23.7041 121.619 24.8213 123.155 25.2939L122.575 26.2285C121.474 25.8955 120.679 25.1919 120.233 24.2949C119.804 25.2617 119.003 26.0244 117.87 26.3896L117.29 25.4551C118.815 24.9717 119.621 23.79 119.621 22.5439V22.3936H117.591V21.4482H119.621V20.3096H120.824V21.4482H122.844V22.3936H120.813V22.5439ZM125.454 20.2559V27.4639H124.262V24.1016H122.521V23.1455H124.262V20.2559H125.454ZM125.701 28.7959V29.7627H119.084V26.8408H120.276V28.7959H125.701ZM129.419 22.5762C129.408 24.3057 130.278 26.0674 131.782 26.7871L131.052 27.7432C129.999 27.2114 129.242 26.1855 128.828 24.9502C128.404 26.2715 127.609 27.3672 126.497 27.9258L125.766 26.9697C127.324 26.2285 128.216 24.3701 128.226 22.5762V21.0293H129.419V22.5762ZM133.555 20.2451V24.0479H135.048V25.0684H133.555V29.9561H132.362V20.2451H133.555ZM137.723 20.9219C139.26 20.9111 140.387 21.8887 140.398 23.2637C140.387 24.6494 139.26 25.6162 137.723 25.6162C136.198 25.6162 135.059 24.6494 135.059 23.2637C135.059 21.8887 136.198 20.9111 137.723 20.9219ZM137.723 21.9531C136.875 21.9531 136.241 22.458 136.241 23.2637C136.241 24.0801 136.875 24.5742 137.723 24.5742C138.583 24.5742 139.227 24.0801 139.227 23.2637C139.227 22.458 138.583 21.9531 137.723 21.9531ZM142.665 20.2451V29.9668H141.472V20.2451H142.665ZM134.619 26.959C136.37 26.959 138.798 26.9375 140.892 26.6367L140.989 27.5068C138.808 27.9258 136.477 27.9365 134.769 27.9365L134.619 26.959ZM152.818 24.6602V25.6055H149.939V27.8291H153.806V28.8066H144.933V27.8291H148.757V25.6055H146.007V20.9648H152.743V21.9209H147.2V24.6602H152.818ZM157.234 22.5762C157.223 24.3594 158.158 26.1426 159.737 26.8193L159.028 27.7754C157.911 27.2598 157.089 26.2285 156.643 24.9609C156.197 26.3306 155.365 27.4478 154.183 28.001L153.453 27.002C155.075 26.3037 156.02 24.4453 156.02 22.5762V21.0293H157.234V22.5762ZM161.638 20.2451V29.9668H160.435V20.2451H161.638ZM164.445 29V19.8086H166.096V27.6035H170.158V29H164.445ZM171.962 29H170.197L173.435 19.8086H175.466L178.716 29H176.951L176.19 26.7275H172.724L171.962 29ZM173.168 25.3945H175.745L174.488 21.6875H174.412L173.168 25.3945ZM181.831 29L180.177 23.167H181.574L182.605 27.2705H182.658L183.7 23.167H185.086L186.139 27.249H186.193L187.213 23.167H188.61L186.955 29H185.527L184.431 25.0469H184.356L183.26 29H181.831ZM188.6 29V23.167H189.975V29H188.6ZM189.298 22.3398C188.868 22.3398 188.503 22.0068 188.503 21.5879C188.503 21.1797 188.868 20.8467 189.298 20.8467C189.738 20.8467 190.093 21.1797 190.093 21.5879C190.093 22.0068 189.738 22.3398 189.298 22.3398ZM193.316 23.167V24.2197H192.167V27.249C192.167 27.8076 192.446 27.9258 192.79 27.9258C192.951 27.9258 193.22 27.915 193.392 27.9043V29.0215C193.231 29.0537 192.962 29.0752 192.618 29.0752C191.587 29.0752 190.792 28.5703 190.803 27.4746V24.2197H189.965V23.167H190.803V21.7705H192.167V23.167H193.316ZM194.993 25.584V29H193.618V21.2227H194.961V24.1553H195.036C195.305 23.5 195.863 23.0918 196.766 23.0918C197.979 23.0918 198.774 23.876 198.774 25.2832V29H197.41V25.498C197.41 24.7031 196.98 24.252 196.261 24.252C195.519 24.252 194.993 24.7354 194.993 25.584ZM200.043 29.0859C199.581 29.0859 199.205 28.71 199.205 28.248C199.205 27.7969 199.581 27.4209 200.043 27.4209C200.483 27.4209 200.87 27.7969 200.87 28.248C200.87 28.71 200.483 29.0859 200.043 29.0859ZM205.963 21.083V22.0605H202.59V23.79H205.791V24.7354H202.59V26.7334C204.083 26.7227 205.248 26.6689 206.607 26.4434L206.715 27.4102C205.221 27.6465 203.922 27.7002 202.181 27.7002H201.376V21.083H205.963ZM208.584 20.2451V24.0049H210.077V25.0039H208.584V29.9561H207.391V20.2451H208.584ZM214.74 21.1582V27.5928H210.121V21.1582H214.74ZM211.302 22.0928V26.6367H213.58V22.0928H211.302ZM217.683 20.2451V29.9668H216.48V20.2451H217.683ZM223.248 21.5771C223.248 23.0811 224.72 24.585 226.75 24.9395L226.213 25.9385C224.586 25.5947 223.254 24.6118 222.625 23.3066C221.981 24.6011 220.649 25.5894 219.027 25.9385L218.5 24.9395C220.509 24.5742 221.97 23.0703 221.981 21.5771V20.8574H223.248V21.5771ZM227.105 27.7324V28.7207H218.232V27.7324H227.105Z" fill="white"/>
</svg>
