<svg width="346" height="48" viewBox="0 0 346 48" fill="none" xmlns="http://www.w3.org/2000/svg">
<g clip-path="url(#clip0_54_33)">
<mask id="mask0_54_33" style="mask-type:luminance" maskUnits="userSpaceOnUse" x="1" y="0" width="345" height="48">
<path d="M346 0.5H1V47.5H346V0.5Z" fill="white"/>
</mask>
<g mask="url(#mask0_54_33)">
<path d="M209.647 37.5H197.353C195.501 37.5 194 38.9327 194 40.7V42.3C194 44.0673 195.501 45.5 197.353 45.5H209.647C211.499 45.5 213 44.0673 213 42.3V40.7C213 38.9327 211.499 37.5 209.647 37.5Z" fill="#FF941A"/>
<path d="M166.071 37.5H152.929C151.035 37.5 149.5 38.9327 149.5 40.7V42.3C149.5 44.0673 151.035 45.5 152.929 45.5H166.071C167.965 45.5 169.5 44.0673 169.5 42.3V40.7C169.5 38.9327 167.965 37.5 166.071 37.5Z" fill="#FF941A"/>
<path d="M128.893 37.5H120.607C118.891 37.5 117.5 38.9327 117.5 40.7V42.3C117.5 44.0673 118.891 45.5 120.607 45.5H128.893C130.609 45.5 132 44.0673 132 42.3V40.7C132 38.9327 130.609 37.5 128.893 37.5Z" fill="#FF941A"/>
<mask id="mask1_54_33" style="mask-type:luminance" maskUnits="userSpaceOnUse" x="1" y="0" width="345" height="48">
<path d="M346 0.5H1V47.5H346V0.5Z" fill="white"/>
</mask>
<g mask="url(#mask1_54_33)">
<path d="M100.643 20.943H103.151V22.109H100.643V20.943ZM102.502 19.458H103.965V24.628H102.502V19.458ZM97.233 25.057H103.965V27.796H98.696V29.072H97.255V26.74H102.513V26.179H97.233V25.057ZM97.255 28.401H104.251V29.534H97.255V28.401ZM97.772 19.788H98.96V20.514C98.96 22.439 98.058 24.1 96.111 24.716L95.363 23.561C97.057 23.055 97.772 21.812 97.772 20.514V19.788ZM98.058 19.788H99.246V20.514C99.246 21.724 99.928 22.901 101.534 23.385L100.786 24.518C98.927 23.913 98.058 22.34 98.058 20.514V19.788ZM105.834 26.069H106.56C107.792 26.069 108.881 26.036 110.146 25.816L110.267 26.993C108.958 27.235 107.836 27.268 106.56 27.268H105.834V26.069ZM105.823 20.459H109.42V24.353H107.253V26.531H105.834V23.209H108.012V21.614H105.823V20.459ZM112.918 19.458H114.304V29.644H112.918V19.458ZM109.838 22.923H111.422V24.122H109.838V22.923ZM110.85 19.645H112.203V29.16H110.85V19.645ZM116.822 22.208H123.884V23.363H116.822V22.208ZM115.678 24.419H124.907V25.585H115.678V24.419ZM116.822 19.821H118.274V22.78H116.822V19.821ZM116.723 28.258H123.939V29.424H116.723V28.258ZM116.723 26.399H118.186V28.566H116.723V26.399ZM132.897 21.537H135.669V22.714H132.897V21.537ZM132.897 24.694H135.669V25.871H132.897V24.694ZM131.137 20.162C132.655 20.162 133.766 21.57 133.766 23.792C133.766 26.036 132.655 27.444 131.137 27.444C129.608 27.444 128.508 26.036 128.508 23.792C128.508 21.57 129.608 20.162 131.137 20.162ZM131.137 21.493C130.4 21.493 129.894 22.296 129.894 23.792C129.894 25.31 130.4 26.124 131.137 26.124C131.885 26.124 132.38 25.31 132.38 23.792C132.38 22.296 131.885 21.493 131.137 21.493ZM135.438 19.447H136.89V29.666H135.438V19.447ZM145.755 19.458H147.141V25.838H145.755V19.458ZM144.512 21.966H146.14V23.154H144.512V21.966ZM143.643 19.656H145.007V25.508H143.643V19.656ZM138.418 20.503H143.357V21.625H138.418V20.503ZM140.904 21.955C142.18 21.955 143.104 22.681 143.104 23.737C143.104 24.793 142.18 25.508 140.904 25.508C139.628 25.508 138.704 24.793 138.704 23.737C138.704 22.681 139.628 21.955 140.904 21.955ZM140.904 23C140.365 23 140.002 23.264 140.002 23.737C140.002 24.21 140.365 24.474 140.904 24.474C141.432 24.474 141.795 24.21 141.795 23.737C141.795 23.264 141.432 23 140.904 23ZM140.167 19.557H141.608V21.273H140.167V19.557ZM143.698 25.948C145.876 25.948 147.196 26.608 147.196 27.796C147.196 28.973 145.876 29.644 143.698 29.644C141.509 29.644 140.189 28.973 140.189 27.796C140.189 26.608 141.509 25.948 143.698 25.948ZM143.698 27.037C142.334 27.037 141.652 27.268 141.652 27.796C141.652 28.313 142.334 28.555 143.698 28.555C145.051 28.555 145.733 28.313 145.733 27.796C145.733 27.268 145.051 27.037 143.698 27.037ZM151.86 20.129C153.466 20.129 154.665 21.174 154.665 22.637C154.665 24.111 153.466 25.156 151.86 25.156C150.265 25.156 149.044 24.111 149.044 22.637C149.044 21.174 150.265 20.129 151.86 20.129ZM151.86 21.383C151.079 21.383 150.485 21.845 150.485 22.637C150.485 23.44 151.079 23.902 151.86 23.902C152.641 23.902 153.235 23.44 153.235 22.637C153.235 21.845 152.641 21.383 151.86 21.383ZM155.622 19.447H157.085V29.666H155.622V19.447ZM148.802 27.598L148.626 26.421C150.419 26.421 152.916 26.399 155.061 26.08L155.171 27.136C152.96 27.576 150.562 27.598 148.802 27.598ZM163.733 20.239H164.921V21.724C164.921 24.342 164.019 26.707 161.995 27.642L161.126 26.432C162.897 25.662 163.733 23.704 163.733 21.724V20.239ZM164.019 20.239H165.207V21.724C165.207 23.605 166.01 25.475 167.748 26.223L166.89 27.4C164.921 26.498 164.019 24.232 164.019 21.724V20.239ZM168.232 19.447H169.706V29.666H168.232V19.447ZM173.632 20.503H174.831V21.141C174.831 23.066 173.918 24.793 171.971 25.42L171.212 24.287C172.917 23.737 173.632 22.417 173.632 21.141V20.503ZM173.929 20.503H175.117V21.141C175.117 22.34 175.81 23.583 177.46 24.111L176.712 25.244C174.809 24.628 173.929 22.967 173.929 21.141V20.503ZM171.608 20.052H177.108V21.218H171.608V20.052ZM177.922 19.458H179.385V25.596H177.922V19.458ZM178.978 21.922H180.738V23.121H178.978V21.922ZM172.587 26.036H179.385V29.644H177.922V27.213H172.587V26.036ZM185.774 28.665L183.845 21.5741H185.834L186.933 26.3383H186.998L188.143 21.5741H190.095L191.259 26.3106H191.319L192.399 21.5741H194.384L192.459 28.665H190.377L189.158 24.2055H189.071L187.852 28.665H185.774ZM195.433 28.665V21.5741H197.4V28.665H195.433ZM196.421 20.6601C196.129 20.6601 195.878 20.5631 195.669 20.3692C195.462 20.1723 195.359 19.9368 195.359 19.6629C195.359 19.3921 195.462 19.1597 195.669 18.9658C195.878 18.7689 196.129 18.6704 196.421 18.6704C196.714 18.6704 196.963 18.7689 197.169 18.9658C197.378 19.1597 197.483 19.3921 197.483 19.6629C197.483 19.9368 197.378 20.1723 197.169 20.3692C196.963 20.5631 196.714 20.6601 196.421 20.6601ZM202.747 21.5741V23.0514H198.477V21.5741H202.747ZM199.446 19.8753H201.413V26.4861C201.413 26.6676 201.44 26.8092 201.496 26.9108C201.551 27.0093 201.628 27.0785 201.727 27.1185C201.828 27.1585 201.945 27.1785 202.078 27.1785C202.17 27.1785 202.262 27.1708 202.354 27.1555C202.447 27.137 202.518 27.1231 202.567 27.1139L202.876 28.5773C202.778 28.6081 202.639 28.6435 202.461 28.6835C202.282 28.7266 202.065 28.7528 201.81 28.762C201.336 28.7805 200.92 28.7174 200.563 28.5727C200.209 28.4281 199.934 28.2034 199.737 27.8987C199.54 27.594 199.443 27.2093 199.446 26.7446V19.8753ZM206.147 24.5656V28.665H204.18V19.2105H206.092V22.8252H206.175C206.335 22.4066 206.593 22.0789 206.95 21.8419C207.307 21.6018 207.755 21.4818 208.294 21.4818C208.786 21.4818 209.215 21.5895 209.582 21.805C209.951 22.0173 210.237 22.3235 210.44 22.7236C210.646 23.1206 210.748 23.5961 210.745 24.1501V28.665H208.778V24.501C208.781 24.0639 208.671 23.7239 208.446 23.4807C208.224 23.2376 207.914 23.116 207.513 23.116C207.246 23.116 207.009 23.173 206.802 23.2868C206.599 23.4007 206.439 23.5669 206.322 23.7854C206.208 24.0009 206.15 24.2609 206.147 24.5656ZM213.442 28.7851C213.137 28.7851 212.876 28.6773 212.657 28.4619C212.442 28.2434 212.334 27.9818 212.334 27.6771C212.334 27.3755 212.442 27.117 212.657 26.9015C212.876 26.6861 213.137 26.5784 213.442 26.5784C213.738 26.5784 213.996 26.6861 214.218 26.9015C214.439 27.117 214.55 27.3755 214.55 27.6771C214.55 27.8802 214.498 28.0664 214.393 28.2357C214.292 28.4019 214.158 28.5358 213.991 28.6373C213.825 28.7358 213.642 28.7851 213.442 28.7851ZM216.368 25.701H217.382C219.41 25.701 220.957 25.675 222.751 25.389L222.907 26.767C221.087 27.053 219.449 27.105 217.382 27.105H216.368V25.701ZM216.368 18.785H222.023V20.189H218.11V26.156H216.368V18.785ZM217.694 22.126H221.854V23.478H217.694V22.126ZM223.596 17.784H225.338V29.822H223.596V17.784ZM224.948 22.347H227.08V23.777H224.948V22.347ZM228.457 18.863H234.242V26.962H228.457V18.863ZM232.552 20.215H230.16V25.597H232.552V20.215ZM236.114 17.771H237.856V29.848H236.114V17.771ZM244.29 18.473H245.798V19.344C245.798 21.957 243.939 24.271 240.819 24.882L240.078 23.452C242.795 22.984 244.29 21.073 244.29 19.344V18.473ZM244.641 18.473H246.136V19.344C246.136 21.112 247.618 22.984 250.348 23.452L249.607 24.882C246.487 24.271 244.641 21.996 244.641 19.344V18.473ZM239.831 26.949H250.725V28.353H239.831V26.949Z" fill="white"/>
<path d="M96.679 4.26804H97.246V5.24804H99.066V4.26804H99.64V7.25704H96.679V4.26804ZM97.246 5.71004V6.79504H99.066V5.71004H97.246ZM97.309 8.06204H101.537V10.211H100.949V8.53104H97.309V8.06204ZM100.949 3.88304H101.537V7.71204H100.949V3.88304ZM104.21 4.40804C105.029 4.40804 105.561 5.25504 105.561 6.61304C105.561 7.97104 105.029 8.81804 104.21 8.81804C103.391 8.81804 102.866 7.97104 102.866 6.61304C102.866 5.25504 103.391 4.40804 104.21 4.40804ZM104.21 4.94704C103.713 4.94704 103.398 5.59104 103.398 6.61304C103.398 7.63504 103.713 8.27904 104.21 8.27904C104.707 8.27904 105.022 7.63504 105.022 6.61304C105.022 5.59104 104.707 4.94704 104.21 4.94704ZM107.605 3.88304H108.165V10.211H107.605V3.88304ZM106.604 6.38904H107.815V6.86504H106.604V6.38904ZM106.205 4.01604H106.758V9.89604H106.205V4.01604ZM109.754 4.07204H114.402V4.52704H109.754V4.07204ZM109.782 5.73104H114.374V6.17904H109.782V5.73104ZM110.713 4.24704H111.294V6.02504H110.713V4.24704ZM112.869 4.24704H113.443V6.02504H112.869V4.24704ZM109.222 6.70404H114.941V7.17304H109.222V6.70404ZM109.915 7.72604H114.213V9.11204H110.503V9.87504H109.929V8.69904H113.639V8.16004H109.915V7.72604ZM109.929 9.70004H114.402V10.141H109.929V9.70004ZM120.484 3.88304H121.044V10.211H120.484V3.88304ZM119.483 6.42404H120.694V6.90704H119.483V6.42404ZM119.112 4.02304H119.658V9.88904H119.112V4.02304ZM115.724 4.67404H118.65V5.15004H115.724V4.67404ZM115.668 8.65704L115.598 8.16704C116.431 8.16704 117.803 8.13904 118.769 8.01304L118.811 8.44004C117.81 8.62904 116.494 8.65704 115.668 8.65704ZM116.263 4.98204H116.795V8.29304H116.263V4.98204ZM117.579 4.98204H118.111V8.29304H117.579V4.98204ZM124.642 4.31704H125.146V4.80004C125.146 6.17904 123.865 7.25004 122.598 7.53704L122.339 7.05404C123.452 6.84404 124.642 5.87804 124.642 4.80004V4.31704ZM124.747 4.31704H125.251V4.80004C125.251 5.88504 126.448 6.84404 127.554 7.05404L127.295 7.53704C126.035 7.25004 124.747 6.18604 124.747 4.80004V4.31704ZM122.108 8.88104H127.841V9.35704H122.108V8.88104ZM128.547 8.95104H134.28V9.43404H128.547V8.95104ZM131.109 7.59304H131.69V9.15404H131.109V7.59304ZM129.24 4.35204H133.573V6.27004H129.835V7.53704H129.261V5.80104H132.999V4.82104H129.24V4.35204ZM129.261 7.29204H133.72V7.76804H129.261V7.29204ZM141.281 3.88304H141.862V7.69104H141.281V3.88304ZM141.701 5.56304H142.8V6.04604H141.701V5.56304ZM137.886 8.04804H141.862V10.127H137.886V8.04804ZM141.295 8.51704H138.453V9.65804H141.295V8.51704ZM136.969 4.54804H140.707V5.02404H136.969V4.54804ZM138.838 5.33204C139.741 5.33204 140.35 5.78004 140.35 6.46604C140.35 7.15204 139.741 7.58604 138.838 7.58604C137.928 7.58604 137.319 7.15204 137.319 6.46604C137.319 5.78004 137.928 5.33204 138.838 5.33204ZM138.838 5.78004C138.257 5.78004 137.872 6.04604 137.872 6.46604C137.872 6.87904 138.257 7.14504 138.838 7.14504C139.405 7.14504 139.797 6.87904 139.797 6.46604C139.797 6.04604 139.405 5.78004 138.838 5.78004ZM138.544 3.82704H139.125V4.79304H138.544V3.82704ZM144.452 4.63904H144.942C144.942 5.99704 144.76 7.48804 143.857 8.72004L143.402 8.45404C144.27 7.32704 144.452 6.00404 144.452 4.68104V4.63904ZM143.535 4.63904H144.739V5.12204H143.535V4.63904ZM145.845 4.63904H146.342C146.342 5.97604 146.258 7.75404 145.264 9.12604L144.802 8.86004C145.768 7.60004 145.845 5.95504 145.845 4.68804V4.63904ZM145.152 4.63904H146.153V5.12204H145.152V4.63904ZM148.232 3.88304H148.792V10.211H148.232V3.88304ZM146.048 6.36804H147.182V6.84404H146.048V6.36804ZM147.063 4.04404H147.609V9.88904H147.063V4.04404ZM154.118 3.88304H154.699V10.211H154.118V3.88304ZM154.559 6.48004H155.735V6.97004H154.559V6.48004ZM149.799 4.89104H153.53V5.36704H149.799V4.89104ZM151.689 5.89204C152.585 5.89204 153.229 6.49404 153.229 7.34804C153.229 8.20204 152.585 8.80404 151.689 8.80404C150.8 8.80404 150.149 8.20204 150.149 7.34804C150.149 6.49404 150.8 5.89204 151.689 5.89204ZM151.689 6.37504C151.115 6.37504 150.702 6.77404 150.702 7.34804C150.702 7.91504 151.115 8.32104 151.689 8.32104C152.263 8.32104 152.676 7.91504 152.676 7.34804C152.676 6.77404 152.263 6.37504 151.689 6.37504ZM151.388 3.96004H151.969V5.10804H151.388V3.96004ZM157.044 5.78004H161.342V6.25604H157.044V5.78004ZM156.267 7.10304H162.007V7.57904H156.267V7.10304ZM157.044 4.11404H157.618V6.01804H157.044V4.11404ZM157.002 9.58104H161.377V10.057H157.002V9.58104ZM157.002 8.20904H157.576V9.70704H157.002V8.20904ZM166.579 6.82304H167.153V8.01304H166.579V6.82304ZM165.669 7.83104H166.25V8.51004H169.253V7.83104H169.827V10.127H165.669V7.83104ZM166.25 8.96504V9.65804H169.253V8.96504H166.25ZM169.246 3.88304H169.827V7.51604H169.246V3.88304ZM164.766 7.13104L164.689 6.65504C165.872 6.65504 167.447 6.64804 168.826 6.46604L168.868 6.88604C167.454 7.12404 165.921 7.13104 164.766 7.13104ZM166.502 4.03704H166.971V4.35204C166.971 5.26904 166.278 5.99004 165.221 6.25604L164.962 5.81504C165.886 5.59104 166.502 5.01704 166.502 4.35204V4.03704ZM166.628 4.03704H167.104V4.35204C167.104 4.99604 167.727 5.52804 168.63 5.71704L168.385 6.16504C167.335 5.92004 166.628 5.24104 166.628 4.35204V4.03704ZM171.723 4.51304H175.797V4.99604H171.723V4.51304ZM171.121 8.84604H176.84V9.32904H171.121V8.84604ZM173.34 6.58504H173.921V9.08404H173.34V6.58504ZM175.58 4.51304H176.154V5.14304C176.154 5.92704 176.154 6.79504 175.923 8.07604L175.342 7.99904C175.58 6.78804 175.58 5.89904 175.58 5.14304V4.51304ZM184.15 3.88304H184.731V8.59404H184.15V3.88304ZM179.712 4.39404H183.044V4.87004H179.712V4.39404ZM179.607 7.64204L179.544 7.14504C180.58 7.14504 182.057 7.13104 183.24 6.99104L183.275 7.42504C182.057 7.62104 180.636 7.64204 179.607 7.64204ZM180.342 4.80004H180.902V7.22904H180.342V4.80004ZM181.854 4.80004H182.414V7.22904H181.854V4.80004ZM183.1 5.08004H184.458V5.55604H183.1V5.08004ZM183.1 6.29104H184.458V6.76704H183.1V6.29104ZM180.685 9.59504H184.899V10.071H180.685V9.59504ZM180.685 8.20904H181.266V9.89604H180.685V8.20904ZM190.575 3.87604H191.156V10.218H190.575V3.87604ZM186.333 8.20904H186.858C187.915 8.20904 188.86 8.16704 189.98 7.98504L190.043 8.46104C188.895 8.65004 187.943 8.69204 186.858 8.69204H186.333V8.20904ZM186.319 4.47104H189.245V6.73204H186.914V8.39104H186.333V6.25604H188.657V4.94704H186.319V4.47104ZM196.735 3.89004H197.316V8.63604H196.735V3.89004ZM197.134 5.96204H198.254V6.45204H197.134V5.96204ZM192.423 4.65304H196.161V5.12204H192.423V4.65304ZM194.292 5.47204C195.188 5.47204 195.804 5.94104 195.804 6.65504C195.804 7.36204 195.188 7.83104 194.292 7.83104C193.389 7.83104 192.773 7.36204 192.773 6.65504C192.773 5.94104 193.389 5.47204 194.292 5.47204ZM194.292 5.92704C193.718 5.92704 193.326 6.21404 193.326 6.65504C193.326 7.08904 193.718 7.37604 194.292 7.37604C194.859 7.37604 195.251 7.08904 195.251 6.65504C195.251 6.21404 194.859 5.92704 194.292 5.92704ZM193.998 3.88304H194.579V4.89804H193.998V3.88304ZM193.375 9.59504H197.603V10.071H193.375V9.59504ZM193.375 8.25804H193.956V9.79804H193.375V8.25804ZM203.666 5.29004H205.577V5.77304H203.666V5.29004ZM203.666 7.29204H205.577V7.77504H203.666V7.29204ZM202.504 4.36604C203.421 4.36604 204.079 5.22704 204.079 6.57104C204.079 7.92204 203.421 8.78304 202.504 8.78304C201.58 8.78304 200.929 7.92204 200.929 6.57104C200.929 5.22704 201.58 4.36604 202.504 4.36604ZM202.504 4.89104C201.895 4.89104 201.475 5.54904 201.475 6.57104C201.475 7.60004 201.895 8.27204 202.504 8.27204C203.113 8.27204 203.533 7.60004 203.533 6.57104C203.533 5.54904 203.113 4.89104 202.504 4.89104ZM205.451 3.87604H206.025V10.218H205.451V3.87604ZM212.03 3.88304H212.583V7.88704H212.03V3.88304ZM211.001 5.59804H212.198V6.08104H211.001V5.59804ZM210.679 4.00904H211.225V7.66304H210.679V4.00904ZM207.221 4.63904H210.427V5.10104H207.221V4.63904ZM208.831 5.42304C209.622 5.42304 210.175 5.85704 210.175 6.50804C210.175 7.16604 209.622 7.59304 208.831 7.59304C208.033 7.59304 207.48 7.16604 207.48 6.50804C207.48 5.85704 208.033 5.42304 208.831 5.42304ZM208.831 5.85704C208.334 5.85704 207.998 6.11604 207.998 6.50804C207.998 6.90704 208.334 7.15904 208.831 7.15904C209.321 7.15904 209.657 6.90704 209.657 6.50804C209.657 6.11604 209.321 5.85704 208.831 5.85704ZM208.544 3.93204H209.111V4.89804H208.544V3.93204ZM210.511 7.99904C211.827 7.99904 212.618 8.39104 212.618 9.09804C212.618 9.79804 211.827 10.197 210.511 10.197C209.181 10.197 208.397 9.79804 208.397 9.09804C208.397 8.39104 209.181 7.99904 210.511 7.99904ZM210.511 8.44704C209.538 8.44704 208.971 8.67804 208.971 9.09804C208.971 9.51804 209.538 9.75604 210.511 9.75604C211.47 9.75604 212.044 9.51804 212.044 9.09804C212.044 8.67804 211.47 8.44704 210.511 8.44704Z" fill="white"/>
<path d="M106.319 41.403H106.865V42.677H106.319V41.403ZM106.319 39.336H106.755V39.466C106.755 40.493 106.085 41.286 105.097 41.598L104.85 41.1755C105.721 40.9155 106.319 40.259 106.319 39.466V39.336ZM106.423 39.336H106.859V39.466C106.859 40.2265 107.476 40.8635 108.341 41.117L108.094 41.533C107.106 41.2405 106.423 40.4605 106.423 39.466V39.336ZM104.987 39.063H108.217V39.4985H104.987V39.063ZM106.319 38.335H106.865V39.2515H106.319V38.335ZM108.887 38.2895H109.426V44.1785H108.887V38.2895ZM104.746 42.9695L104.668 42.5145C105.741 42.5145 107.223 42.508 108.503 42.313L108.549 42.7095C107.229 42.9565 105.793 42.963 104.746 42.9695ZM115.087 38.296H115.607V44.172H115.087V38.296ZM114.092 40.649H115.223V41.0975H114.092V40.649ZM113.754 38.426H114.261V43.873H113.754V38.426ZM110.829 42.274H111.213C112.071 42.274 112.656 42.2415 113.338 42.0985L113.39 42.547C112.688 42.6965 112.097 42.7225 111.213 42.7225H110.829V42.274ZM110.829 39.011H113.013V39.453H111.362V42.4755H110.829V39.011ZM120.163 43.7297C119.969 43.7266 119.775 43.6897 119.581 43.6189C119.387 43.5481 119.211 43.4288 119.05 43.2611C118.89 43.0918 118.762 42.8633 118.665 42.5756C118.568 42.2863 118.52 41.9231 118.52 41.4861C118.52 41.0675 118.559 40.6966 118.637 40.3735C118.716 40.0488 118.83 39.7757 118.979 39.5541C119.128 39.3309 119.308 39.1617 119.519 39.0463C119.731 38.9308 119.971 38.8731 120.237 38.8731C120.502 38.8731 120.737 38.9262 120.943 39.0324C121.151 39.137 121.32 39.2832 121.451 39.471C121.582 39.6587 121.666 39.8749 121.705 40.1196H121.142C121.089 39.9072 120.988 39.731 120.837 39.591C120.686 39.451 120.486 39.3809 120.237 39.3809C119.871 39.3809 119.582 39.5402 119.371 39.8588C119.162 40.1773 119.057 40.6243 119.055 41.1998H119.092C119.178 41.069 119.281 40.9575 119.399 40.8651C119.519 40.7713 119.651 40.699 119.796 40.6482C119.941 40.5974 120.094 40.572 120.255 40.572C120.526 40.572 120.774 40.6397 120.999 40.7751C121.223 40.909 121.403 41.0944 121.539 41.3314C121.674 41.5669 121.742 41.8369 121.742 42.1416C121.742 42.434 121.676 42.7017 121.546 42.9449C121.415 43.1865 121.231 43.3788 120.994 43.5219C120.759 43.6635 120.482 43.7327 120.163 43.7297ZM120.163 43.2219C120.357 43.2219 120.531 43.1734 120.685 43.0764C120.84 42.9795 120.962 42.8495 121.052 42.6863C121.143 42.5232 121.188 42.3416 121.188 42.1416C121.188 41.9462 121.144 41.7684 121.056 41.6084C120.97 41.4468 120.851 41.3183 120.699 41.2229C120.548 41.1275 120.375 41.0798 120.182 41.0798C120.035 41.0798 119.899 41.109 119.773 41.1675C119.647 41.2245 119.536 41.3029 119.441 41.403C119.347 41.503 119.273 41.6176 119.219 41.7469C119.165 41.8746 119.138 42.0093 119.138 42.1508C119.138 42.3386 119.182 42.514 119.27 42.6771C119.359 42.8402 119.481 42.9718 119.634 43.0718C119.79 43.1718 119.966 43.2219 120.163 43.2219ZM124.127 43.7297C123.856 43.7297 123.612 43.6758 123.395 43.5681C123.178 43.4604 123.004 43.3126 122.874 43.1249C122.743 42.9372 122.671 42.7233 122.659 42.4832H123.213C123.234 42.6971 123.331 42.8741 123.504 43.0141C123.678 43.1526 123.885 43.2219 124.127 43.2219C124.321 43.2219 124.493 43.1765 124.644 43.0857C124.796 42.9949 124.916 42.8702 125.002 42.7117C125.089 42.5517 125.133 42.3709 125.133 42.1693C125.133 41.9631 125.088 41.7792 124.997 41.6176C124.908 41.4545 124.785 41.326 124.628 41.2322C124.471 41.1383 124.292 41.0906 124.09 41.089C123.945 41.0875 123.797 41.1098 123.644 41.156C123.492 41.2006 123.367 41.2583 123.268 41.3291L122.733 41.2645L123.019 38.9378H125.475V39.4456H123.499L123.333 40.8398H123.361C123.457 40.7628 123.579 40.699 123.725 40.6482C123.871 40.5974 124.024 40.572 124.182 40.572C124.472 40.572 124.729 40.6412 124.956 40.7797C125.183 40.9167 125.362 41.1044 125.491 41.343C125.622 41.5815 125.687 41.8538 125.687 42.1601C125.687 42.4617 125.62 42.731 125.484 42.968C125.35 43.2034 125.166 43.3896 124.93 43.5265C124.695 43.662 124.427 43.7297 124.127 43.7297ZM129.014 42.7787V42.5294C129.014 42.357 129.049 42.1993 129.12 42.0562C129.193 41.9115 129.297 41.7961 129.434 41.71C129.573 41.6222 129.74 41.5784 129.937 41.5784C130.137 41.5784 130.305 41.6222 130.44 41.71C130.576 41.7961 130.678 41.9115 130.747 42.0562C130.817 42.1993 130.851 42.357 130.851 42.5294V42.7787C130.851 42.951 130.816 43.1095 130.745 43.2542C130.676 43.3973 130.573 43.5127 130.436 43.6004C130.3 43.6866 130.134 43.7297 129.937 43.7297C129.737 43.7297 129.569 43.6866 129.432 43.6004C129.295 43.5127 129.191 43.3973 129.12 43.2542C129.049 43.1095 129.014 42.951 129.014 42.7787ZM129.485 42.5294V42.7787C129.485 42.9218 129.519 43.0503 129.586 43.1642C129.654 43.2765 129.771 43.3327 129.937 43.3327C130.099 43.3327 130.213 43.2765 130.279 43.1642C130.347 43.0503 130.38 42.9218 130.38 42.7787V42.5294C130.38 42.3863 130.348 42.2586 130.284 42.1462C130.219 42.0323 130.103 41.9754 129.937 41.9754C129.776 41.9754 129.66 42.0323 129.589 42.1462C129.52 42.2586 129.485 42.3863 129.485 42.5294ZM126.66 40.0734V39.8241C126.66 39.6518 126.695 39.4941 126.766 39.3509C126.838 39.2063 126.943 39.0909 127.08 39.0047C127.218 38.917 127.386 38.8731 127.583 38.8731C127.783 38.8731 127.951 38.917 128.086 39.0047C128.222 39.0909 128.324 39.2063 128.393 39.3509C128.462 39.4941 128.497 39.6518 128.497 39.8241V40.0734C128.497 40.2458 128.462 40.4043 128.391 40.5489C128.322 40.692 128.218 40.8074 128.081 40.8952C127.946 40.9813 127.78 41.0244 127.583 41.0244C127.383 41.0244 127.214 40.9813 127.077 40.8952C126.94 40.8074 126.837 40.692 126.766 40.5489C126.695 40.4043 126.66 40.2458 126.66 40.0734ZM127.13 39.8241V40.0734C127.13 40.2165 127.164 40.345 127.232 40.4589C127.3 40.5712 127.417 40.6274 127.583 40.6274C127.744 40.6274 127.858 40.5712 127.925 40.4589C127.992 40.345 128.026 40.2165 128.026 40.0734V39.8241C128.026 39.681 127.994 39.5533 127.929 39.441C127.864 39.3271 127.749 39.2702 127.583 39.2702C127.421 39.2702 127.305 39.3271 127.234 39.441C127.165 39.5533 127.13 39.681 127.13 39.8241ZM126.835 43.665L130.085 38.9378H130.611L127.361 43.665H126.835ZM137.566 38.2765H138.106V41.52H137.566V38.2765ZM137.878 39.687H138.977V40.142H137.878V39.687ZM134.375 41.819H138.106V43.132H134.921V43.847H134.388V42.742H137.579V42.2285H134.375V41.819ZM134.388 43.691H138.32V44.107H134.388V43.691ZM133.562 38.8225H137.033V39.245H133.562V38.8225ZM135.298 39.505C136.143 39.505 136.702 39.8755 136.702 40.4735C136.702 41.065 136.143 41.429 135.298 41.429C134.44 41.429 133.887 41.065 133.887 40.4735C133.887 39.8755 134.44 39.505 135.298 39.505ZM135.298 39.9015C134.752 39.9015 134.401 40.1225 134.401 40.4735C134.401 40.818 134.752 41.039 135.298 41.039C135.837 41.039 136.188 40.818 136.188 40.4735C136.188 40.1225 135.837 39.9015 135.298 39.9015ZM135.025 38.231H135.564V39.115H135.025V38.231ZM143.799 38.3025H144.345V42.5925H143.799V38.3025ZM140.569 43.6H144.521V44.042H140.569V43.6ZM140.569 42.1505H141.102V43.7495H140.569V42.1505ZM141.193 38.7055C142.07 38.7055 142.72 39.3035 142.72 40.155C142.72 41 142.07 41.6045 141.193 41.6045C140.315 41.6045 139.659 41 139.659 40.155C139.659 39.3035 140.315 38.7055 141.193 38.7055ZM141.193 39.1735C140.621 39.1735 140.185 39.5765 140.185 40.155C140.185 40.727 140.621 41.13 141.193 41.13C141.765 41.13 142.2 40.727 142.2 40.155C142.2 39.5765 141.765 39.1735 141.193 39.1735ZM148.322 43.0187L148.285 43.268C148.259 43.4434 148.219 43.6312 148.165 43.8312C148.113 44.0313 148.059 44.2198 148.002 44.3968C147.945 44.5737 147.898 44.7145 147.861 44.8192H147.445C147.465 44.7207 147.491 44.5906 147.524 44.4291C147.556 44.2675 147.588 44.0867 147.621 43.8866C147.655 43.6881 147.682 43.485 147.704 43.2773L147.732 43.0187H148.322ZM155.276 38.296H155.816V42.6705H155.276V38.296ZM151.155 38.7705H154.249V39.2125H151.155V38.7705ZM151.058 41.7865L150.999 41.325C151.961 41.325 153.333 41.312 154.431 41.182L154.464 41.585C153.333 41.767 152.013 41.7865 151.058 41.7865ZM151.74 39.1475H152.26V41.403H151.74V39.1475ZM153.144 39.1475H153.664V41.403H153.144V39.1475ZM154.301 39.4075H155.562V39.8495H154.301V39.4075ZM154.301 40.532H155.562V40.974H154.301V40.532ZM152.059 43.6H155.972V44.042H152.059V43.6ZM152.059 42.313H152.598V43.8795H152.059V42.313ZM161.243 38.2895H161.782V44.1785H161.243V38.2895ZM157.304 42.313H157.791C158.773 42.313 159.65 42.274 160.69 42.105L160.749 42.547C159.683 42.7225 158.799 42.7615 157.791 42.7615H157.304V42.313ZM157.291 38.842H160.008V40.9415H157.843V42.482H157.304V40.4995H159.462V39.284H157.291V38.842ZM166.962 38.3025H167.502V42.7095H166.962V38.3025ZM167.333 40.2265H168.373V40.6815H167.333V40.2265ZM162.958 39.011H166.429V39.4465H162.958V39.011ZM164.694 39.7715C165.526 39.7715 166.098 40.207 166.098 40.87C166.098 41.5265 165.526 41.962 164.694 41.962C163.855 41.962 163.283 41.5265 163.283 40.87C163.283 40.207 163.855 39.7715 164.694 39.7715ZM164.694 40.194C164.161 40.194 163.797 40.4605 163.797 40.87C163.797 41.273 164.161 41.5395 164.694 41.5395C165.22 41.5395 165.584 41.273 165.584 40.87C165.584 40.4605 165.22 40.194 164.694 40.194ZM164.421 38.296H164.96V39.2385H164.421V38.296ZM163.842 43.6H167.768V44.042H163.842V43.6ZM163.842 42.3585H164.382V43.7885H163.842V42.3585ZM171 43.665V38.9378H173.853V39.4456H171.573V41.0429H173.706V41.5507H171.573V43.1572H173.89V43.665H171ZM176.842 41.0475V41.5553H174.774V41.0475H176.842ZM177.998 42.313H178.466C179.564 42.313 180.331 42.2805 181.235 42.131L181.287 42.5665C180.364 42.729 179.584 42.7615 178.466 42.7615H177.998V42.313ZM177.998 38.829H180.845V39.2775H178.531V42.469H177.998V38.829ZM178.401 40.4735H180.63V40.909H178.401V40.4735ZM181.904 38.296H182.444V44.172H181.904V38.296ZM185.745 40.0185H187.039V40.454H185.745V40.0185ZM188.066 38.296H188.579V42.287H188.066V38.296ZM186.902 38.4H187.416V41.7605H186.902V38.4ZM186.343 41.9425H186.805V42.131C186.805 43.184 185.732 43.9445 184.549 44.1525L184.341 43.7235C185.381 43.561 186.343 42.911 186.343 42.131V41.9425ZM186.415 41.9425H186.883V42.131C186.883 42.911 187.851 43.561 188.885 43.7235L188.677 44.1525C187.494 43.9445 186.415 43.184 186.415 42.131V41.9425ZM185.68 38.79H186.207C186.207 40.233 185.576 41.39 183.919 42.1115L183.652 41.715C185.121 41.091 185.68 40.129 185.68 38.933V38.79ZM183.925 38.79H185.869V39.232H183.925V38.79ZM185.628 39.895V40.272L183.737 40.4735L183.652 40.025L185.628 39.895ZM192.401 43.0187L192.364 43.268C192.337 43.4434 192.297 43.6312 192.244 43.8312C192.191 44.0313 192.137 44.2198 192.08 44.3968C192.023 44.5737 191.976 44.7145 191.939 44.8192H191.523C191.543 44.7207 191.57 44.5906 191.602 44.4291C191.634 44.2675 191.667 44.0867 191.699 43.8866C191.733 43.6881 191.76 43.485 191.782 43.2773L191.81 43.0187H192.401ZM196.423 41.9295H196.975V44.172H196.423V41.9295ZM198.444 41.9295H198.997V44.172H198.444V41.9295ZM195.058 41.637H200.388V42.0855H195.058V41.637ZM197.71 38.53C198.938 38.53 199.764 39.024 199.764 39.8105C199.764 40.5905 198.938 41.091 197.71 41.091C196.488 41.091 195.656 40.5905 195.656 39.8105C195.656 39.024 196.488 38.53 197.71 38.53ZM197.71 38.9655C196.813 38.9655 196.202 39.297 196.202 39.8105C196.202 40.324 196.813 40.6555 197.71 40.6555C198.607 40.6555 199.211 40.324 199.211 39.8105C199.211 39.297 198.607 38.9655 197.71 38.9655ZM203.761 39.2125H205.529V39.6545H203.761V39.2125ZM203.761 40.623H205.529V41.065H203.761V40.623ZM205.334 38.3025H205.873V42.6445H205.334V38.3025ZM202.123 43.6H206.036V44.042H202.123V43.6ZM202.123 42.196H202.662V43.795H202.123V42.196ZM202.643 38.673C203.507 38.673 204.157 39.2775 204.157 40.142C204.157 41.0065 203.507 41.611 202.643 41.611C201.778 41.611 201.128 41.0065 201.128 40.142C201.128 39.2775 201.778 38.673 202.643 38.673ZM202.643 39.1475C202.071 39.1475 201.648 39.5635 201.648 40.142C201.648 40.727 202.071 41.143 202.643 41.143C203.215 41.143 203.644 40.727 203.644 40.142C203.644 39.5635 203.215 39.1475 202.643 39.1475ZM211.04 38.3025H211.58V42.7095H211.04V38.3025ZM211.411 40.2265H212.451V40.6815H211.411V40.2265ZM207.036 39.011H210.507V39.4465H207.036V39.011ZM208.772 39.7715C209.604 39.7715 210.176 40.207 210.176 40.87C210.176 41.5265 209.604 41.962 208.772 41.962C207.933 41.962 207.361 41.5265 207.361 40.87C207.361 40.207 207.933 39.7715 208.772 39.7715ZM208.772 40.194C208.239 40.194 207.875 40.4605 207.875 40.87C207.875 41.273 208.239 41.5395 208.772 41.5395C209.298 41.5395 209.662 41.273 209.662 40.87C209.662 40.4605 209.298 40.194 208.772 40.194ZM208.499 38.296H209.038V39.2385H208.499V38.296ZM207.92 43.6H211.846V44.042H207.92V43.6ZM207.92 42.3585H208.46V43.7885H207.92V42.3585ZM218.841 38.296H219.381V42.898H218.841V38.296ZM219.153 40.3435H220.239V40.792H219.153V40.3435ZM215.663 43.6H219.589V44.042H215.663V43.6ZM215.663 42.5925H216.202V43.7365H215.663V42.5925ZM216.365 41.169H216.904V41.9685H216.365V41.169ZM214.863 42.222L214.792 41.7865C215.832 41.7865 217.281 41.767 218.49 41.5785L218.536 41.962C217.294 42.1895 215.884 42.2155 214.863 42.222ZM214.941 38.868H218.315V39.2775H214.941V38.868ZM216.631 39.518C217.457 39.518 217.996 39.8625 217.996 40.4215C217.996 40.987 217.457 41.3315 216.631 41.3315C215.806 41.3315 215.26 40.987 215.26 40.4215C215.26 39.8625 215.806 39.518 216.631 39.518ZM216.631 39.9015C216.105 39.9015 215.767 40.103 215.767 40.4215C215.767 40.7465 216.105 40.9415 216.631 40.9415C217.151 40.9415 217.489 40.7465 217.489 40.4215C217.489 40.103 217.151 39.9015 216.631 39.9015ZM216.365 38.27H216.904V39.05H216.365V38.27ZM223.189 41.117H223.722V42.014H223.189V41.117ZM221.512 38.387H222.045V38.933H224.886V38.387H225.425V40.324H221.512V38.387ZM222.045 39.349V39.908H224.886V39.349H222.045ZM220.804 40.805H226.114V41.2405H220.804V40.805ZM221.447 41.8125H225.438V43.119H221.993V43.847H221.46V42.729H224.905V42.222H221.447V41.8125ZM221.46 43.691H225.614V44.107H221.46V43.691ZM229.923 39.817H231.249V40.2655H229.923V39.817ZM231.08 38.296H231.619V41.7995H231.08V38.296ZM229.689 41.975C230.898 41.975 231.645 42.3845 231.645 43.0735C231.645 43.769 230.898 44.1655 229.689 44.1655C228.473 44.1655 227.726 43.769 227.726 43.0735C227.726 42.3845 228.473 41.975 229.689 41.975ZM229.689 42.3975C228.805 42.3975 228.265 42.6445 228.265 43.0735C228.265 43.496 228.805 43.743 229.689 43.743C230.573 43.743 231.112 43.496 231.112 43.0735C231.112 42.6445 230.573 42.3975 229.689 42.3975ZM228.285 38.8875H228.727V39.362C228.727 40.4475 228.064 41.377 227.089 41.741L226.809 41.312C227.68 40.9935 228.285 40.207 228.285 39.362V38.8875ZM228.389 38.8875H228.824V39.362C228.824 40.1225 229.396 40.8505 230.248 41.1495L229.975 41.5785C229.019 41.234 228.389 40.35 228.389 39.362V38.8875ZM226.972 38.725H230.111V39.167H226.972V38.725ZM233.991 39.375H234.401V39.5635C234.401 40.5125 233.926 41.364 233.075 41.7215L232.808 41.3185C233.556 41.0195 233.991 40.311 233.991 39.5635V39.375ZM234.095 39.375H234.498V39.5635C234.498 40.2655 234.947 40.9285 235.688 41.2145L235.434 41.6175C234.57 41.2795 234.095 40.467 234.095 39.5635V39.375ZM232.925 39.0695H235.545V39.505H232.925V39.0695ZM233.991 38.361H234.498V39.2515H233.991V38.361ZM237.202 38.3025H237.716V41.9035H237.202V38.3025ZM236.253 39.8625H237.365V40.3045H236.253V39.8625ZM235.954 38.4H236.461V41.8645H235.954V38.4ZM233.777 42.2155H237.716V44.172H237.183V42.651H233.777V42.2155Z" fill="white"/>
<path d="M99.5878 39.0701H96.5878V44.5801H102.188V41.397" stroke="white"/>
<path d="M97.5008 40.6621L99.3382 42.804L103.225 38.0911" stroke="white"/>
</g>
</g>
</g>
<defs>
<clipPath id="clip0_54_33">
<rect width="345" height="47" fill="white" transform="translate(0.5 0.5)"/>
</clipPath>
</defs>
</svg>
