<svg width="801" height="110" viewBox="0 0 801 110" fill="none" xmlns="http://www.w3.org/2000/svg">
<g clip-path="url(#clip0_54_12)">
<mask id="mask0_54_12" style="mask-type:luminance" maskUnits="userSpaceOnUse" x="0" y="0" width="800" height="110">
<path d="M800 0.5H0V109.5H800V0.5Z" fill="white"/>
</mask>
<g mask="url(#mask0_54_12)">
<path d="M449.979 89H411.021C406.591 89 403 92.134 403 96V101C403 104.866 406.591 108 411.021 108H449.979C454.409 108 458 104.866 458 101V96C458 92.134 454.409 89 449.979 89Z" fill="#FF941A"/>
<path d="M327.406 89H288.094C283.624 89 280 92.134 280 96V101C280 104.866 283.624 108 288.094 108H327.406C331.876 108 335.5 104.866 335.5 101V96C335.5 92.134 331.876 89 327.406 89Z" fill="#FF941A"/>
<path d="M224.554 89H198.446C194.058 89 190.5 92.134 190.5 96V101C190.5 104.866 194.058 108 198.446 108H224.554C228.942 108 232.5 104.866 232.5 101V96C232.5 92.134 228.942 89 224.554 89Z" fill="#FF941A"/>
<mask id="mask1_54_12" style="mask-type:luminance" maskUnits="userSpaceOnUse" x="0" y="0" width="800" height="110">
<path d="M800 0.5H0V109.5H800V0.5Z" fill="white"/>
</mask>
<g mask="url(#mask1_54_12)">
<path d="M154.494 42.824H163.158V46.852H154.494V42.824ZM160.916 37.694H165.97V55.554H160.916V37.694ZM142.714 57.036H165.97V66.498H147.768V70.906H142.79V62.85H160.954V60.912H142.714V57.036ZM142.79 68.588H166.958V72.502H142.79V68.588ZM144.576 38.834H148.68V41.342C148.68 47.992 145.564 53.73 138.838 55.858L136.254 51.868C142.106 50.12 144.576 45.826 144.576 41.342V38.834ZM145.564 38.834H149.668V41.342C149.668 45.522 152.024 49.588 157.572 51.26L154.988 55.174C148.566 53.084 145.564 47.65 145.564 41.342V38.834ZM172.427 60.532H174.935C179.191 60.532 182.953 60.418 187.323 59.658L187.741 63.724C183.219 64.56 179.343 64.674 174.935 64.674H172.427V60.532ZM172.389 41.152H184.815V54.604H177.329V62.128H172.427V50.652H179.951V45.142H172.389V41.152ZM196.899 37.694H201.687V72.882H196.899V37.694ZM186.259 49.664H191.731V53.806H186.259V49.664ZM189.755 38.34H194.429V71.21H189.755V38.34ZM210.386 47.194H234.782V51.184H210.386V47.194ZM206.434 54.832H238.316V58.86H206.434V54.832ZM210.386 38.948H215.402V49.17H210.386V38.948ZM210.044 68.094H234.972V72.122H210.044V68.094ZM210.044 61.672H215.098V69.158H210.044V61.672ZM265.918 44.876H275.494V48.942H265.918V44.876ZM265.918 55.782H275.494V59.848H265.918V55.782ZM259.838 40.126C265.082 40.126 268.92 44.99 268.92 52.666C268.92 60.418 265.082 65.282 259.838 65.282C254.556 65.282 250.756 60.418 250.756 52.666C250.756 44.99 254.556 40.126 259.838 40.126ZM259.838 44.724C257.292 44.724 255.544 47.498 255.544 52.666C255.544 57.91 257.292 60.722 259.838 60.722C262.422 60.722 264.132 57.91 264.132 52.666C264.132 47.498 262.422 44.724 259.838 44.724ZM274.696 37.656H279.712V72.958H274.696V37.656ZM310.337 37.694H315.125V59.734H310.337V37.694ZM306.043 46.358H311.667V50.462H306.043V46.358ZM303.041 38.378H307.753V58.594H303.041V38.378ZM284.991 41.304H302.053V45.18H284.991V41.304ZM293.579 46.32C297.987 46.32 301.179 48.828 301.179 52.476C301.179 56.124 297.987 58.594 293.579 58.594C289.171 58.594 285.979 56.124 285.979 52.476C285.979 48.828 289.171 46.32 293.579 46.32ZM293.579 49.93C291.717 49.93 290.463 50.842 290.463 52.476C290.463 54.11 291.717 55.022 293.579 55.022C295.403 55.022 296.657 54.11 296.657 52.476C296.657 50.842 295.403 49.93 293.579 49.93ZM291.033 38.036H296.011V43.964H291.033V38.036ZM303.231 60.114C310.755 60.114 315.315 62.394 315.315 66.498C315.315 70.564 310.755 72.882 303.231 72.882C295.669 72.882 291.109 70.564 291.109 66.498C291.109 62.394 295.669 60.114 303.231 60.114ZM303.231 63.876C298.519 63.876 296.163 64.674 296.163 66.498C296.163 68.284 298.519 69.12 303.231 69.12C307.905 69.12 310.261 68.284 310.261 66.498C310.261 64.674 307.905 63.876 303.231 63.876ZM331.424 40.012C336.972 40.012 341.114 43.622 341.114 48.676C341.114 53.768 336.972 57.378 331.424 57.378C325.914 57.378 321.696 53.768 321.696 48.676C321.696 43.622 325.914 40.012 331.424 40.012ZM331.424 44.344C328.726 44.344 326.674 45.94 326.674 48.676C326.674 51.45 328.726 53.046 331.424 53.046C334.122 53.046 336.174 51.45 336.174 48.676C336.174 45.94 334.122 44.344 331.424 44.344ZM344.42 37.656H349.474V72.958H344.42V37.656ZM320.86 65.814L320.252 61.748C326.446 61.748 335.072 61.672 342.482 60.57L342.862 64.218C335.224 65.738 326.94 65.814 320.86 65.814ZM372.44 40.392H376.544V45.522C376.544 54.566 373.428 62.736 366.436 65.966L363.434 61.786C369.552 59.126 372.44 52.362 372.44 45.522V40.392ZM373.428 40.392H377.532V45.522C377.532 52.02 380.306 58.48 386.31 61.064L383.346 65.13C376.544 62.014 373.428 54.186 373.428 45.522V40.392ZM387.982 37.656H393.074V72.958H387.982V37.656ZM406.637 41.304H410.779V43.508C410.779 50.158 407.625 56.124 400.899 58.29L398.277 54.376C404.167 52.476 406.637 47.916 406.637 43.508V41.304ZM407.663 41.304H411.767V43.508C411.767 47.65 414.161 51.944 419.861 53.768L417.277 57.682C410.703 55.554 407.663 49.816 407.663 43.508V41.304ZM399.645 39.746H418.645V43.774H399.645V39.746ZM421.457 37.694H426.511V58.898H421.457V37.694ZM425.105 46.206H431.185V50.348H425.105V46.206ZM403.027 60.418H426.511V72.882H421.457V64.484H403.027V60.418ZM448.264 69.5L441.881 46.0455H448.462L452.096 61.804H452.31L456.097 46.0455H462.556L466.404 61.7124H466.603L470.176 46.0455H476.742L470.374 69.5H463.488L459.456 54.7493H459.166L455.135 69.5H448.264ZM480.212 69.5V46.0455H486.717V69.5H480.212ZM483.48 43.022C482.513 43.022 481.683 42.7013 480.991 42.06C480.309 41.4085 479.968 40.6297 479.968 39.7237C479.968 38.8279 480.309 38.0593 480.991 37.418C481.683 36.7665 482.513 36.4407 483.48 36.4407C484.447 36.4407 485.272 36.7665 485.954 37.418C486.646 38.0593 486.992 38.8279 486.992 39.7237C486.992 40.6297 486.646 41.4085 485.954 42.06C485.272 42.7013 484.447 43.022 483.48 43.022ZM504.403 46.0455V50.9318H490.279V46.0455H504.403ZM493.485 40.4261H499.99V62.2926C499.99 62.8932 500.082 63.3615 500.265 63.6974C500.449 64.0232 500.703 64.2522 501.029 64.3846C501.365 64.5169 501.752 64.5831 502.189 64.5831C502.495 64.5831 502.8 64.5576 503.105 64.5067C503.411 64.4457 503.645 64.3999 503.808 64.3693L504.831 69.2099C504.505 69.3117 504.047 69.4287 503.457 69.5611C502.866 69.7036 502.149 69.7901 501.304 69.8207C499.736 69.8817 498.362 69.6731 497.181 69.1946C496.01 68.7161 495.099 67.973 494.447 66.9652C493.796 65.9574 493.475 64.6849 493.485 63.1477V40.4261ZM515.65 55.9403V69.5H509.145V38.2273H515.466V50.1836H515.741C516.271 48.7991 517.126 47.715 518.307 46.9311C519.488 46.1371 520.969 45.7401 522.75 45.7401C524.379 45.7401 525.799 46.0964 527.01 46.8089C528.232 47.5114 529.179 48.5243 529.851 49.8477C530.533 51.1609 530.869 52.7337 530.858 54.5661V69.5H524.354V55.7266C524.364 54.281 523.997 53.1561 523.254 52.3519C522.521 51.5477 521.493 51.1456 520.17 51.1456C519.284 51.1456 518.5 51.3339 517.818 51.7106C517.146 52.0872 516.617 52.637 516.23 53.3597C515.853 54.0723 515.66 54.9325 515.65 55.9403ZM539.78 69.897C538.772 69.897 537.907 69.5407 537.184 68.8281C536.471 68.1054 536.115 67.2401 536.115 66.2322C536.115 65.2346 536.471 64.3795 537.184 63.6669C537.907 62.9543 538.772 62.598 539.78 62.598C540.757 62.598 541.612 62.9543 542.345 63.6669C543.078 64.3795 543.445 65.2346 543.445 66.2322C543.445 66.9041 543.272 67.52 542.926 68.0799C542.59 68.6296 542.147 69.0724 541.597 69.4084C541.047 69.7341 540.442 69.897 539.78 69.897ZM549.457 59.696H552.811C559.519 59.696 564.636 59.61 570.57 58.664L571.086 63.222C565.066 64.168 559.648 64.34 552.811 64.34H549.457V59.696ZM549.457 36.82H568.162V41.464H555.219V61.201H549.457V36.82ZM553.843 47.871H567.603V52.343H553.843V47.871ZM573.365 33.509H579.127V73.327H573.365V33.509ZM577.837 48.602H584.889V53.332H577.837V48.602ZM589.444 37.078H608.579V63.867H589.444V37.078ZM602.989 41.55H595.077V59.352H602.989V41.55ZM614.771 33.466H620.533V73.413H614.771V33.466ZM641.815 35.788H646.803V38.669C646.803 47.312 640.654 54.966 630.334 56.987L627.883 52.257C636.87 50.709 641.815 44.388 641.815 38.669V35.788ZM642.976 35.788H647.921V38.669C647.921 44.517 652.823 50.709 661.853 52.257L659.402 56.987C649.082 54.966 642.976 47.441 642.976 38.669V35.788ZM627.066 63.824H663.1V68.468H627.066V63.824Z" fill="white"/>
<path d="M137.086 4.4235H138.827V7.4335H144.417V4.4235H146.18V13.604H137.086V4.4235ZM138.827 8.8525V12.185H144.417V8.8525H138.827ZM139.021 16.0765H152.007V22.677H150.201V17.517H139.021V16.0765ZM150.201 3.241H152.007V15.0015H150.201V3.241ZM160.218 4.8535C162.733 4.8535 164.367 7.455 164.367 11.626C164.367 15.797 162.733 18.3985 160.218 18.3985C157.702 18.3985 156.09 15.797 156.09 11.626C156.09 7.455 157.702 4.8535 160.218 4.8535ZM160.218 6.509C158.691 6.509 157.724 8.487 157.724 11.626C157.724 14.765 158.691 16.743 160.218 16.743C161.744 16.743 162.712 14.765 162.712 11.626C162.712 8.487 161.744 6.509 160.218 6.509ZM170.645 3.241H172.365V22.677H170.645V3.241ZM167.571 10.938H171.29V12.4H167.571V10.938ZM166.345 3.6495H168.044V21.7095H166.345V3.6495ZM177.244 3.8215H191.52V5.219H177.244V3.8215ZM177.33 8.917H191.434V10.293H177.33V8.917ZM180.19 4.359H181.974V9.82H180.19V4.359ZM186.812 4.359H188.575V9.82H186.812V4.359ZM175.61 11.9055H193.176V13.346H175.61V11.9055ZM177.739 15.0445H190.94V19.3015H179.545V21.645H177.782V18.033H189.177V16.3775H177.739V15.0445ZM177.782 21.1075H191.52V22.462H177.782V21.1075ZM210.202 3.241H211.922V22.677H210.202V3.241ZM207.127 11.0455H210.847V12.529H207.127V11.0455ZM205.988 3.671H207.665V21.688H205.988V3.671ZM195.582 5.6705H204.569V7.1325H195.582V5.6705ZM195.41 17.904L195.195 16.399C197.753 16.399 201.967 16.313 204.934 15.926L205.063 17.2375C201.989 17.818 197.947 17.904 195.41 17.904ZM197.237 6.6165H198.871V16.786H197.237V6.6165ZM201.279 6.6165H202.913V16.786H201.279V6.6165ZM222.971 4.574H224.519V6.0575C224.519 10.293 220.585 13.5825 216.693 14.464L215.898 12.9805C219.316 12.3355 222.971 9.3685 222.971 6.0575V4.574ZM223.294 4.574H224.842V6.0575C224.842 9.39 228.518 12.3355 231.915 12.9805L231.12 14.464C227.25 13.5825 223.294 10.3145 223.294 6.0575V4.574ZM215.188 18.592H232.797V20.054H215.188V18.592ZM234.967 18.807H252.575V20.2905H234.967V18.807ZM242.836 14.636H244.62V19.4305H242.836V14.636ZM237.095 4.6815H250.404V10.5725H238.923V14.464H237.16V9.132H248.641V6.122H237.095V4.6815ZM237.16 13.7115H250.855V15.1735H237.16V13.7115ZM274.079 3.241H275.863V14.937H274.079V3.241ZM275.369 8.401H278.744V9.8845H275.369V8.401ZM263.651 16.0335H275.863V22.419H263.651V16.0335ZM274.122 17.474H265.393V20.9785H274.122V17.474ZM260.835 5.2835H272.316V6.7455H260.835V5.2835ZM266.575 7.6915C269.349 7.6915 271.219 9.0675 271.219 11.1745C271.219 13.2815 269.349 14.6145 266.575 14.6145C263.78 14.6145 261.91 13.2815 261.91 11.1745C261.91 9.0675 263.78 7.6915 266.575 7.6915ZM266.575 9.0675C264.791 9.0675 263.608 9.8845 263.608 11.1745C263.608 12.443 264.791 13.26 266.575 13.26C268.317 13.26 269.521 12.443 269.521 11.1745C269.521 9.8845 268.317 9.0675 266.575 9.0675ZM265.672 3.069H267.457V6.036H265.672V3.069ZM283.817 5.563H285.322C285.322 9.734 284.763 14.3135 281.989 18.0975L280.592 17.2805C283.258 13.819 283.817 9.7555 283.817 5.692V5.563ZM281 5.563H284.698V7.0465H281V5.563ZM288.095 5.563H289.622C289.622 9.6695 289.364 15.1305 286.311 19.3445L284.892 18.5275C287.859 14.6575 288.095 9.605 288.095 5.7135V5.563ZM285.967 5.563H289.041V7.0465H285.967V5.563ZM295.427 3.241H297.147V22.677H295.427V3.241ZM288.719 10.8735H292.202V12.3355H288.719V10.8735ZM291.836 3.7355H293.513V21.688H291.836V3.7355ZM313.506 3.241H315.291V22.677H313.506V3.241ZM314.861 11.2175H318.473V12.7225H314.861V11.2175ZM300.241 6.337H311.7V7.799H300.241V6.337ZM306.046 9.4115C308.798 9.4115 310.776 11.2605 310.776 13.8835C310.776 16.5065 308.798 18.3555 306.046 18.3555C303.315 18.3555 301.316 16.5065 301.316 13.8835C301.316 11.2605 303.315 9.4115 306.046 9.4115ZM306.046 10.895C304.283 10.895 303.014 12.1205 303.014 13.8835C303.014 15.625 304.283 16.872 306.046 16.872C307.809 16.872 309.077 15.625 309.077 13.8835C309.077 12.1205 307.809 10.895 306.046 10.895ZM305.121 3.4775H306.906V7.0035H305.121V3.4775ZM322.492 9.0675H335.693V10.5295H322.492V9.0675ZM320.105 13.131H337.735V14.593H320.105V13.131ZM322.492 3.9505H324.255V9.7985H322.492V3.9505ZM322.363 20.742H335.8V22.204H322.363V20.742ZM322.363 16.528H324.126V21.129H322.363V16.528ZM351.778 12.271H353.541V15.926H351.778V12.271ZM348.983 15.367H350.768V17.4525H359.991V15.367H361.754V22.419H348.983V15.367ZM350.768 18.85V20.9785H359.991V18.85H350.768ZM359.97 3.241H361.754V14.3995H359.97V3.241ZM346.21 13.217L345.973 11.755C349.607 11.755 354.444 11.7335 358.68 11.1745L358.809 12.4645C354.466 13.1955 349.757 13.217 346.21 13.217ZM351.542 3.714H352.982V4.6815C352.982 7.498 350.854 9.7125 347.607 10.5295L346.812 9.175C349.65 8.487 351.542 6.724 351.542 4.6815V3.714ZM351.929 3.714H353.391V4.6815C353.391 6.6595 355.304 8.2935 358.078 8.874L357.325 10.25C354.1 9.4975 351.929 7.412 351.929 4.6815V3.714ZM367.579 5.176H380.092V6.6595H367.579V5.176ZM365.73 18.4845H383.296V19.968H365.73V18.4845ZM372.546 11.54H374.33V19.2155H372.546V11.54ZM379.426 5.176H381.189V7.111C381.189 9.519 381.189 12.185 380.479 16.1195L378.695 15.883C379.426 12.1635 379.426 9.433 379.426 7.111V5.176ZM405.745 3.241H407.53V17.7105H405.745V3.241ZM392.114 4.8105H402.348V6.2725H392.114V4.8105ZM391.792 14.7865L391.598 13.26C394.78 13.26 399.317 13.217 402.95 12.787L403.058 14.12C399.317 14.722 394.952 14.7865 391.792 14.7865ZM394.049 6.0575H395.769V13.518H394.049V6.0575ZM398.693 6.0575H400.413V13.518H398.693V6.0575ZM402.52 6.9175H406.691V8.3795H402.52V6.9175ZM402.52 10.637H406.691V12.099H402.52V10.637ZM395.103 20.785H408.046V22.247H395.103V20.785ZM395.103 16.528H396.887V21.7095H395.103V16.528ZM425.481 3.2195H427.265V22.6985H425.481V3.2195ZM412.452 16.528H414.064C417.311 16.528 420.213 16.399 423.653 15.84L423.847 17.302C420.321 17.8825 417.397 18.0115 414.064 18.0115H412.452V16.528ZM412.409 5.047H421.396V11.9915H414.236V17.087H412.452V10.5295H419.59V6.509H412.409V5.047ZM444.399 3.2625H446.184V17.8395H444.399V3.2625ZM445.625 9.6265H449.065V11.1315H445.625V9.6265ZM431.155 5.606H442.636V7.0465H431.155V5.606ZM436.896 8.1215C439.648 8.1215 441.54 9.562 441.54 11.755C441.54 13.9265 439.648 15.367 436.896 15.367C434.122 15.367 432.23 13.9265 432.23 11.755C432.23 9.562 434.122 8.1215 436.896 8.1215ZM436.896 9.519C435.133 9.519 433.929 10.4005 433.929 11.755C433.929 13.088 435.133 13.9695 436.896 13.9695C438.637 13.9695 439.841 13.088 439.841 11.755C439.841 10.4005 438.637 9.519 436.896 9.519ZM435.993 3.241H437.777V6.3585H435.993V3.241ZM434.079 20.785H447.065V22.247H434.079V20.785ZM434.079 16.6785H435.864V21.4085H434.079V16.6785ZM465.688 7.5625H471.557V9.046H465.688V7.5625ZM465.688 13.7115H471.557V15.195H465.688V13.7115ZM462.119 4.7245C464.935 4.7245 466.956 7.369 466.956 11.497C466.956 15.6465 464.935 18.291 462.119 18.291C459.281 18.291 457.281 15.6465 457.281 11.497C457.281 7.369 459.281 4.7245 462.119 4.7245ZM462.119 6.337C460.248 6.337 458.958 8.358 458.958 11.497C458.958 14.6575 460.248 16.7215 462.119 16.7215C463.989 16.7215 465.279 14.6575 465.279 11.497C465.279 8.358 463.989 6.337 462.119 6.337ZM471.17 3.2195H472.933V22.6985H471.17V3.2195ZM491.379 3.241H493.077V15.539H491.379V3.241ZM488.218 8.5085H491.895V9.992H488.218V8.5085ZM487.229 3.628H488.906V14.851H487.229V3.628ZM476.608 5.563H486.455V6.982H476.608V5.563ZM481.553 7.971C483.983 7.971 485.681 9.304 485.681 11.3035C485.681 13.3245 483.983 14.636 481.553 14.636C479.102 14.636 477.404 13.3245 477.404 11.3035C477.404 9.304 479.102 7.971 481.553 7.971ZM481.553 9.304C480.027 9.304 478.995 10.0995 478.995 11.3035C478.995 12.529 480.027 13.303 481.553 13.303C483.058 13.303 484.09 12.529 484.09 11.3035C484.09 10.0995 483.058 9.304 481.553 9.304ZM480.672 3.3915H482.413V6.3585H480.672V3.3915ZM486.713 15.883C490.755 15.883 493.185 17.087 493.185 19.2585C493.185 21.4085 490.755 22.634 486.713 22.634C482.628 22.634 480.22 21.4085 480.22 19.2585C480.22 17.087 482.628 15.883 486.713 15.883ZM486.713 17.259C483.725 17.259 481.983 17.9685 481.983 19.2585C481.983 20.5485 483.725 21.2795 486.713 21.2795C489.659 21.2795 491.422 20.5485 491.422 19.2585C491.422 17.9685 489.659 17.259 486.713 17.259Z" fill="white"/>
<path d="M161.036 98.236H162.548V101.764H161.036V98.236ZM161.036 92.512H162.242V92.872C162.242 95.716 160.388 97.912 157.652 98.776L156.968 97.606C159.38 96.886 161.036 95.068 161.036 92.872V92.512ZM161.324 92.512H162.53V92.872C162.53 94.978 164.24 96.742 166.634 97.444L165.95 98.596C163.214 97.786 161.324 95.626 161.324 92.872V92.512ZM157.346 91.756H166.292V92.962H157.346V91.756ZM161.036 89.74H162.548V92.278H161.036V89.74ZM168.146 89.614H169.64V105.922H168.146V89.614ZM156.68 102.574L156.464 101.314C159.434 101.314 163.538 101.296 167.084 100.756L167.21 101.854C163.556 102.538 159.578 102.556 156.68 102.574ZM185.317 89.632H186.757V105.904H185.317V89.632ZM182.563 96.148H185.695V97.39H182.563V96.148ZM181.627 89.992H183.031V105.076H181.627V89.992ZM173.527 100.648H174.589C176.965 100.648 178.585 100.558 180.475 100.162L180.619 101.404C178.675 101.818 177.037 101.89 174.589 101.89H173.527V100.648ZM173.527 91.612H179.575V92.836H175.003V101.206H173.527V91.612ZM199.373 104.679C198.836 104.67 198.3 104.568 197.763 104.372C197.226 104.176 196.736 103.846 196.292 103.381C195.849 102.913 195.493 102.28 195.225 101.483C194.956 100.682 194.822 99.6761 194.822 98.4659C194.822 97.3068 194.931 96.2798 195.148 95.3849C195.366 94.4858 195.681 93.7294 196.094 93.1158C196.508 92.4979 197.006 92.0291 197.59 91.7095C198.178 91.3899 198.841 91.2301 199.578 91.2301C200.311 91.2301 200.963 91.3771 201.534 91.6712C202.109 91.9609 202.578 92.3658 202.94 92.8857C203.302 93.4055 203.537 94.0043 203.643 94.6818H202.084C201.939 94.0937 201.657 93.6058 201.24 93.218C200.822 92.8303 200.268 92.6364 199.578 92.6364C198.564 92.6364 197.765 93.0774 197.181 93.9595C196.601 94.8416 196.309 96.0795 196.305 97.6733H196.407C196.646 97.3111 196.93 97.0021 197.258 96.7464C197.59 96.4865 197.956 96.2862 198.357 96.1456C198.758 96.005 199.182 95.9347 199.629 95.9347C200.379 95.9347 201.065 96.1222 201.687 96.4972C202.309 96.8679 202.808 97.3814 203.183 98.0376C203.558 98.6896 203.746 99.4375 203.746 100.281C203.746 101.091 203.564 101.832 203.202 102.506C202.84 103.175 202.331 103.707 201.675 104.104C201.023 104.496 200.255 104.688 199.373 104.679ZM199.373 103.273C199.91 103.273 200.392 103.138 200.818 102.87C201.248 102.602 201.587 102.241 201.834 101.79C202.086 101.338 202.211 100.835 202.211 100.281C202.211 99.7401 202.09 99.2479 201.847 98.8047C201.608 98.3572 201.278 98.0014 200.856 97.7372C200.439 97.473 199.961 97.3409 199.425 97.3409C199.02 97.3409 198.643 97.4219 198.293 97.5838C197.944 97.7415 197.637 97.9588 197.373 98.2358C197.113 98.5128 196.908 98.8303 196.759 99.1882C196.61 99.5419 196.535 99.9148 196.535 100.307C196.535 100.827 196.657 101.312 196.9 101.764C197.147 102.216 197.483 102.58 197.91 102.857C198.34 103.134 198.828 103.273 199.373 103.273ZM210.35 104.679C209.6 104.679 208.925 104.53 208.324 104.232C207.723 103.933 207.241 103.524 206.879 103.004C206.517 102.484 206.319 101.892 206.285 101.227H207.819C207.879 101.82 208.147 102.31 208.624 102.697C209.106 103.081 209.681 103.273 210.35 103.273C210.887 103.273 211.364 103.147 211.782 102.896C212.204 102.644 212.534 102.299 212.773 101.86C213.016 101.417 213.137 100.916 213.137 100.358C213.137 99.7869 213.011 99.2777 212.76 98.8303C212.513 98.3786 212.172 98.0227 211.737 97.7628C211.303 97.5028 210.806 97.3707 210.248 97.3665C209.847 97.3622 209.436 97.424 209.014 97.5518C208.592 97.6754 208.245 97.8352 207.972 98.0312L206.489 97.8523L207.282 91.4091H214.083V92.8153H208.612L208.151 96.6761H208.228C208.496 96.4631 208.833 96.2862 209.238 96.1456C209.643 96.005 210.065 95.9347 210.504 95.9347C211.305 95.9347 212.018 96.1264 212.645 96.5099C213.276 96.8892 213.77 97.4091 214.128 98.0696C214.49 98.7301 214.671 99.4844 214.671 100.332C214.671 101.168 214.484 101.913 214.109 102.57C213.738 103.222 213.227 103.737 212.575 104.116C211.923 104.491 211.181 104.679 210.35 104.679ZM223.884 102.045V101.355C223.884 100.878 223.982 100.441 224.178 100.045C224.378 99.6442 224.668 99.3246 225.047 99.0859C225.431 98.843 225.895 98.7216 226.441 98.7216C226.994 98.7216 227.459 98.843 227.834 99.0859C228.209 99.3246 228.492 99.6442 228.684 100.045C228.876 100.441 228.972 100.878 228.972 101.355V102.045C228.972 102.523 228.874 102.962 228.678 103.362C228.486 103.759 228.2 104.078 227.821 104.321C227.446 104.56 226.986 104.679 226.441 104.679C225.887 104.679 225.42 104.56 225.041 104.321C224.661 104.078 224.374 103.759 224.178 103.362C223.982 102.962 223.884 102.523 223.884 102.045ZM225.188 101.355V102.045C225.188 102.442 225.281 102.798 225.469 103.113C225.656 103.424 225.98 103.58 226.441 103.58C226.888 103.58 227.203 103.424 227.387 103.113C227.574 102.798 227.668 102.442 227.668 102.045V101.355C227.668 100.959 227.578 100.605 227.399 100.294C227.22 99.9787 226.901 99.821 226.441 99.821C225.993 99.821 225.671 99.9787 225.475 100.294C225.284 100.605 225.188 100.959 225.188 101.355ZM217.364 94.554V93.8636C217.364 93.3864 217.462 92.9496 217.658 92.5533C217.858 92.1527 218.148 91.8331 218.527 91.5945C218.911 91.3516 219.375 91.2301 219.921 91.2301C220.475 91.2301 220.939 91.3516 221.314 91.5945C221.689 91.8331 221.972 92.1527 222.164 92.5533C222.356 92.9496 222.452 93.3864 222.452 93.8636V94.554C222.452 95.0312 222.354 95.4702 222.158 95.8707C221.966 96.267 221.681 96.5866 221.301 96.8295C220.926 97.0682 220.466 97.1875 219.921 97.1875C219.367 97.1875 218.9 97.0682 218.521 96.8295C218.142 96.5866 217.854 96.267 217.658 95.8707C217.462 95.4702 217.364 95.0312 217.364 94.554ZM218.668 93.8636V94.554C218.668 94.9503 218.762 95.3061 218.949 95.6214C219.137 95.9325 219.46 96.0881 219.921 96.0881C220.368 96.0881 220.683 95.9325 220.867 95.6214C221.054 95.3061 221.148 94.9503 221.148 94.554V93.8636C221.148 93.4673 221.058 93.1136 220.879 92.8026C220.7 92.4872 220.381 92.3295 219.921 92.3295C219.473 92.3295 219.151 92.4872 218.955 92.8026C218.764 93.1136 218.668 93.4673 218.668 93.8636ZM217.85 104.5L226.85 91.4091H228.307L219.307 104.5H217.85ZM247.567 89.578H249.061V98.56H247.567V89.578ZM248.431 93.484H251.473V94.744H248.431V93.484ZM238.729 99.388H249.061V103.024H240.241V105.004H238.765V101.944H247.603V100.522H238.729V99.388ZM238.765 104.572H249.655V105.724H238.765V104.572ZM236.479 91.09H246.091V92.26H236.479V91.09ZM241.285 92.98C243.625 92.98 245.173 94.006 245.173 95.662C245.173 97.3 243.625 98.308 241.285 98.308C238.909 98.308 237.379 97.3 237.379 95.662C237.379 94.006 238.909 92.98 241.285 92.98ZM241.285 94.078C239.773 94.078 238.801 94.69 238.801 95.662C238.801 96.616 239.773 97.228 241.285 97.228C242.779 97.228 243.751 96.616 243.751 95.662C243.751 94.69 242.779 94.078 241.285 94.078ZM240.529 89.452H242.023V91.9H240.529V89.452ZM264.827 89.65H266.339V101.53H264.827V89.65ZM255.881 104.32H266.825V105.544H255.881V104.32ZM255.881 100.306H257.357V104.734H255.881V100.306ZM257.609 90.766C260.039 90.766 261.839 92.422 261.839 94.78C261.839 97.12 260.039 98.794 257.609 98.794C255.179 98.794 253.361 97.12 253.361 94.78C253.361 92.422 255.179 90.766 257.609 90.766ZM257.609 92.062C256.025 92.062 254.819 93.178 254.819 94.78C254.819 96.364 256.025 97.48 257.609 97.48C259.193 97.48 260.399 96.364 260.399 94.78C260.399 93.178 259.193 92.062 257.609 92.062ZM277.353 102.71L277.251 103.401C277.178 103.886 277.068 104.406 276.918 104.96C276.774 105.514 276.622 106.036 276.465 106.526C276.307 107.016 276.177 107.406 276.075 107.696H274.924C274.98 107.423 275.052 107.063 275.142 106.616C275.231 106.168 275.32 105.668 275.41 105.114C275.504 104.564 275.58 104.001 275.64 103.426L275.717 102.71H277.353ZM296.61 89.632H298.104V101.746H296.61V89.632ZM285.198 90.946H293.766V92.17H285.198V90.946ZM284.928 99.298L284.766 98.02C287.43 98.02 291.228 97.984 294.27 97.624L294.36 98.74C291.228 99.244 287.574 99.298 284.928 99.298ZM286.818 91.99H288.258V98.236H286.818V91.99ZM290.706 91.99H292.146V98.236H290.706V91.99ZM293.91 92.71H297.402V93.934H293.91V92.71ZM293.91 95.824H297.402V97.048H293.91V95.824ZM287.7 104.32H298.536V105.544H287.7V104.32ZM287.7 100.756H289.194V105.094H287.7V100.756ZM313.132 89.614H314.626V105.922H313.132V89.614ZM302.224 100.756H303.574C306.292 100.756 308.722 100.648 311.602 100.18L311.764 101.404C308.812 101.89 306.364 101.998 303.574 101.998H302.224V100.756ZM302.188 91.144H309.712V96.958H303.718V101.224H302.224V95.734H308.2V92.368H302.188V91.144ZM328.971 89.65H330.465V101.854H328.971V89.65ZM329.997 94.978H332.877V96.238H329.997V94.978ZM317.883 91.612H327.495V92.818H317.883V91.612ZM322.689 93.718C324.993 93.718 326.577 94.924 326.577 96.76C326.577 98.578 324.993 99.784 322.689 99.784C320.367 99.784 318.783 98.578 318.783 96.76C318.783 94.924 320.367 93.718 322.689 93.718ZM322.689 94.888C321.213 94.888 320.205 95.626 320.205 96.76C320.205 97.876 321.213 98.614 322.689 98.614C324.147 98.614 325.155 97.876 325.155 96.76C325.155 95.626 324.147 94.888 322.689 94.888ZM321.933 89.632H323.427V92.242H321.933V89.632ZM320.331 104.32H331.203V105.544H320.331V104.32ZM320.331 100.882H321.825V104.842H320.331V100.882ZM340.153 104.5V91.4091H348.054V92.8153H341.739V97.2386H347.645V98.6449H341.739V103.094H348.156V104.5H340.153ZM356.332 97.2514V98.6577H350.604V97.2514H356.332ZM359.531 100.756H360.827C363.869 100.756 365.993 100.666 368.495 100.252L368.639 101.458C366.083 101.908 363.923 101.998 360.827 101.998H359.531V100.756ZM359.531 91.108H367.415V92.35H361.007V101.188H359.531V91.108ZM360.647 95.662H366.821V96.868H360.647V95.662ZM370.349 89.632H371.843V105.904H370.349V89.632ZM380.986 94.402H384.568V95.608H380.986V94.402ZM387.412 89.632H388.834V100.684H387.412V89.632ZM384.19 89.92H385.612V99.226H384.19V89.92ZM382.642 99.73H383.92V100.252C383.92 103.168 380.95 105.274 377.674 105.85L377.098 104.662C379.978 104.212 382.642 102.412 382.642 100.252V99.73ZM382.84 99.73H384.136V100.252C384.136 102.412 386.818 104.212 389.68 104.662L389.104 105.85C385.828 105.274 382.84 103.168 382.84 100.252V99.73ZM380.806 91H382.264C382.264 94.996 380.518 98.2 375.928 100.198L375.19 99.1C379.258 97.372 380.806 94.708 380.806 91.396V91ZM375.946 91H381.328V92.224H375.946V91ZM380.662 94.06V95.104L375.424 95.662L375.19 94.42L380.662 94.06ZM399.416 102.71L399.313 103.401C399.241 103.886 399.13 104.406 398.981 104.96C398.836 105.514 398.685 106.036 398.527 106.526C398.369 107.016 398.24 107.406 398.137 107.696H396.987C397.042 107.423 397.115 107.063 397.204 106.616C397.293 106.168 397.383 105.668 397.472 105.114C397.566 104.564 397.643 104.001 397.703 103.426L397.779 102.71H399.416ZM410.554 99.694H412.084V105.904H410.554V99.694ZM416.152 99.694H417.682V105.904H416.152V99.694ZM406.774 98.884H421.534V100.126H406.774V98.884ZM414.118 90.28C417.52 90.28 419.806 91.648 419.806 93.826C419.806 95.986 417.52 97.372 414.118 97.372C410.734 97.372 408.43 95.986 408.43 93.826C408.43 91.648 410.734 90.28 414.118 90.28ZM414.118 91.486C411.634 91.486 409.942 92.404 409.942 93.826C409.942 95.248 411.634 96.166 414.118 96.166C416.602 96.166 418.276 95.248 418.276 93.826C418.276 92.404 416.602 91.486 414.118 91.486ZM430.875 92.17H435.771V93.394H430.875V92.17ZM430.875 96.076H435.771V97.3H430.875V96.076ZM435.231 89.65H436.725V101.674H435.231V89.65ZM426.339 104.32H437.175V105.544H426.339V104.32ZM426.339 100.432H427.833V104.86H426.339V100.432ZM427.779 90.676C430.173 90.676 431.973 92.35 431.973 94.744C431.973 97.138 430.173 98.812 427.779 98.812C425.385 98.812 423.585 97.138 423.585 94.744C423.585 92.35 425.385 90.676 427.779 90.676ZM427.779 91.99C426.195 91.99 425.025 93.142 425.025 94.744C425.025 96.364 426.195 97.516 427.779 97.516C429.363 97.516 430.551 96.364 430.551 94.744C430.551 93.142 429.363 91.99 427.779 91.99ZM451.034 89.65H452.528V101.854H451.034V89.65ZM452.06 94.978H454.94V96.238H452.06V94.978ZM439.946 91.612H449.558V92.818H439.946V91.612ZM444.752 93.718C447.056 93.718 448.64 94.924 448.64 96.76C448.64 98.578 447.056 99.784 444.752 99.784C442.43 99.784 440.846 98.578 440.846 96.76C440.846 94.924 442.43 93.718 444.752 93.718ZM444.752 94.888C443.276 94.888 442.268 95.626 442.268 96.76C442.268 97.876 443.276 98.614 444.752 98.614C446.21 98.614 447.218 97.876 447.218 96.76C447.218 95.626 446.21 94.888 444.752 94.888ZM443.996 89.632H445.49V92.242H443.996V89.632ZM442.394 104.32H453.266V105.544H442.394V104.32ZM442.394 100.882H443.888V104.842H442.394V100.882ZM472.637 89.632H474.131V102.376H472.637V89.632ZM473.501 95.302H476.507V96.544H473.501V95.302ZM463.835 104.32H474.707V105.544H463.835V104.32ZM463.835 101.53H465.329V104.698H463.835V101.53ZM465.779 97.588H467.273V99.802H465.779V97.588ZM461.621 100.504L461.423 99.298C464.303 99.298 468.317 99.244 471.665 98.722L471.791 99.784C468.353 100.414 464.447 100.486 461.621 100.504ZM461.837 91.216H471.179V92.35H461.837V91.216ZM466.517 93.016C468.803 93.016 470.297 93.97 470.297 95.518C470.297 97.084 468.803 98.038 466.517 98.038C464.231 98.038 462.719 97.084 462.719 95.518C462.719 93.97 464.231 93.016 466.517 93.016ZM466.517 94.078C465.059 94.078 464.123 94.636 464.123 95.518C464.123 96.418 465.059 96.958 466.517 96.958C467.957 96.958 468.893 96.418 468.893 95.518C468.893 94.636 467.957 94.078 466.517 94.078ZM465.779 89.56H467.273V91.72H465.779V89.56ZM484.677 97.444H486.153V99.928H484.677V97.444ZM480.033 89.884H481.509V91.396H489.375V89.884H490.869V95.248H480.033V89.884ZM481.509 92.548V94.096H489.375V92.548H481.509ZM478.071 96.58H492.777V97.786H478.071V96.58ZM479.853 99.37H490.905V102.988H481.365V105.004H479.889V101.908H489.429V100.504H479.853V99.37ZM479.889 104.572H491.391V105.724H479.889V104.572ZM503.324 93.844H506.996V95.086H503.324V93.844ZM506.528 89.632H508.022V99.334H506.528V89.632ZM502.676 99.82C506.024 99.82 508.094 100.954 508.094 102.862C508.094 104.788 506.024 105.886 502.676 105.886C499.31 105.886 497.24 104.788 497.24 102.862C497.24 100.954 499.31 99.82 502.676 99.82ZM502.676 100.99C500.228 100.99 498.734 101.674 498.734 102.862C498.734 104.032 500.228 104.716 502.676 104.716C505.124 104.716 506.618 104.032 506.618 102.862C506.618 101.674 505.124 100.99 502.676 100.99ZM498.788 91.27H500.012V92.584C500.012 95.59 498.176 98.164 495.476 99.172L494.702 97.984C497.114 97.102 498.788 94.924 498.788 92.584V91.27ZM499.076 91.27H500.282V92.584C500.282 94.69 501.866 96.706 504.224 97.534L503.468 98.722C500.822 97.768 499.076 95.32 499.076 92.584V91.27ZM495.152 90.82H503.846V92.044H495.152V90.82ZM514.59 92.62H515.724V93.142C515.724 95.77 514.41 98.128 512.052 99.118L511.314 98.002C513.384 97.174 514.59 95.212 514.59 93.142V92.62ZM514.878 92.62H515.994V93.142C515.994 95.086 517.236 96.922 519.288 97.714L518.586 98.83C516.192 97.894 514.878 95.644 514.878 93.142V92.62ZM511.638 91.774H518.892V92.98H511.638V91.774ZM514.59 89.812H515.994V92.278H514.59V89.812ZM523.482 89.65H524.904V99.622H523.482V89.65ZM520.854 93.97H523.932V95.194H520.854V93.97ZM520.026 89.92H521.43V99.514H520.026V89.92ZM513.996 100.486H524.904V105.904H523.428V101.692H513.996V100.486Z" fill="white"/>
<path d="M143.562 92.292H136V106.181H150.12V98.156" stroke="white" stroke-width="1.8"/>
<path d="M138.312 96.302L142.941 101.702L152.741 89.8191" stroke="white" stroke-width="1.8"/>
</g>
</g>
</g>
<defs>
<clipPath id="clip0_54_12">
<rect width="800" height="109" fill="white" transform="translate(0.5 0.5)"/>
</clipPath>
</defs>
</svg>
