<svg width="801" height="110" viewBox="0 0 801 110" fill="none" xmlns="http://www.w3.org/2000/svg">
<g clip-path="url(#clip0_93_15)">
<mask id="mask0_93_15" style="mask-type:luminance" maskUnits="userSpaceOnUse" x="0" y="0" width="801" height="110">
<path d="M800.5 0.5H0.5V109.5H800.5V0.5Z" fill="white"/>
</mask>
<g mask="url(#mask0_93_15)">
<path d="M102.888 58.836H105.852C111.78 58.836 116.302 58.76 121.546 57.924L122.002 61.952C116.682 62.788 111.894 62.94 105.852 62.94H102.888V58.836ZM102.888 38.62H119.418V42.724H107.98V60.166H102.888V38.62ZM106.764 48.386H118.924V52.338H106.764V48.386ZM124.016 35.694H129.108V70.882H124.016V35.694ZM127.968 49.032H134.2V53.212H127.968V49.032ZM138.225 38.848H155.135V62.522H138.225V38.848ZM150.195 42.8H143.203V58.532H150.195V42.8ZM160.607 35.656H165.699V70.958H160.607V35.656ZM184.506 37.708H188.914V40.254C188.914 47.892 183.48 54.656 174.36 56.442L172.194 52.262C180.136 50.894 184.506 45.308 184.506 40.254V37.708ZM185.532 37.708H189.902V40.254C189.902 45.422 194.234 50.894 202.214 52.262L200.048 56.442C190.928 54.656 185.532 48.006 185.532 40.254V37.708ZM171.472 62.484H203.316V66.588H171.472V62.484ZM217.715 38.012C223.263 38.012 227.405 41.622 227.405 46.676C227.405 51.768 223.263 55.378 217.715 55.378C212.205 55.378 207.987 51.768 207.987 46.676C207.987 41.622 212.205 38.012 217.715 38.012ZM217.715 42.344C215.017 42.344 212.965 43.94 212.965 46.676C212.965 49.45 215.017 51.046 217.715 51.046C220.413 51.046 222.465 49.45 222.465 46.676C222.465 43.94 220.413 42.344 217.715 42.344ZM230.711 35.656H235.765V70.958H230.711V35.656ZM207.151 63.814L206.543 59.748C212.737 59.748 221.363 59.672 228.773 58.57L229.153 62.218C221.515 63.738 213.231 63.814 207.151 63.814ZM257.933 36.91H262.037V39.152C262.037 45.84 258.921 51.616 252.119 53.744L249.687 49.716C255.501 47.968 257.933 43.674 257.933 39.152V36.91ZM258.959 36.91H263.025V39.038C263.025 43.332 265.381 47.322 271.005 48.956L268.459 52.87C261.923 50.856 258.959 45.46 258.959 39.038V36.91ZM272.791 35.694H277.845V53.744H272.791V35.694ZM275.793 42.534H282.481V46.676H275.793V42.534ZM254.589 55.112H277.845V64.612H259.681V68.906H254.665V60.964H272.867V58.988H254.589V55.112ZM254.665 66.74H278.871V70.654H254.665V66.74ZM294.524 38.126C299.882 38.126 303.758 42.99 303.758 50.666C303.758 58.418 299.882 63.282 294.524 63.282C289.166 63.282 285.29 58.418 285.29 50.666C285.29 42.99 289.166 38.126 294.524 38.126ZM294.524 42.724C291.902 42.724 290.154 45.498 290.154 50.666C290.154 55.91 291.902 58.722 294.524 58.722C297.146 58.722 298.932 55.91 298.932 50.666C298.932 45.498 297.146 42.724 294.524 42.724ZM307.596 35.694H312.688V70.882H307.596V35.694ZM311.548 48.956H317.78V53.136H311.548V48.956ZM327.961 57.05H331.761V58.228C331.761 63.548 329.405 68.412 323.895 70.388L321.425 66.702C326.023 65.144 327.961 61.648 327.961 58.228V57.05ZM329.253 57.05H332.863V58.228C332.863 61.648 334.573 65.22 338.867 67.006L336.853 70.73C331.267 68.64 329.253 63.396 329.253 58.228V57.05ZM340.805 57.05H344.415V58.228C344.415 63.092 342.325 68.564 336.853 70.73L334.763 67.006C339.057 65.068 340.805 61.344 340.805 58.228V57.05ZM341.983 57.05H345.783V58.228C345.783 61.876 347.683 65.258 352.319 66.702L349.849 70.388C344.263 68.488 341.983 63.776 341.983 58.228V57.05ZM344.225 35.732H349.317V55.606H344.225V35.732ZM330.165 37.518C335.637 37.518 339.703 41.014 339.703 45.954C339.703 50.856 335.637 54.352 330.165 54.352C324.693 54.352 320.589 50.856 320.589 45.954C320.589 41.014 324.693 37.518 330.165 37.518ZM330.165 41.698C327.505 41.698 325.529 43.256 325.529 45.954C325.529 48.614 327.505 50.172 330.165 50.172C332.825 50.172 334.763 48.614 334.763 45.954C334.763 43.256 332.825 41.698 330.165 41.698ZM358.966 45.194H383.362V49.184H358.966V45.194ZM355.014 52.832H386.896V56.86H355.014V52.832ZM358.966 36.948H363.982V47.17H358.966V36.948ZM358.624 66.094H383.552V70.122H358.624V66.094ZM358.624 59.672H363.678V67.158H358.624V59.672ZM400.084 35.121H405.459V44.28H410.619V35.121H415.865V61.91H400.084V35.121ZM405.459 48.752V57.309H410.619V48.752H405.459ZM427.733 31.509H433.194V71.327H427.733V31.509ZM414.962 46.043H421.584V50.687H414.962V46.043ZM419.606 32.154H424.981V69.564H419.606V32.154ZM463.979 31.466H469.741V71.284H463.979V31.466ZM468.236 46.688H475.245V51.375H468.236V46.688ZM453.53 35.594H459.12C459.12 47.548 454.562 57.782 441.318 64.447L438.136 60.104C448.585 54.686 453.53 47.376 453.53 36.583V35.594ZM440.329 35.594H456.454V40.195H440.329V35.594ZM492.871 33.788H497.859V36.669C497.859 45.312 491.71 52.966 481.39 54.987L478.939 50.257C487.926 48.709 492.871 42.388 492.871 36.669V33.788ZM494.032 33.788H498.977V36.669C498.977 42.517 503.879 48.709 512.909 50.257L510.458 54.987C500.138 52.966 494.032 45.441 494.032 36.669V33.788ZM478.122 61.824H514.156V66.468H478.122V61.824ZM532.133 34.7614L522.055 72.2031H516.45L526.529 34.7614H532.133ZM563.158 31.509H568.619V71.327H563.158V31.509ZM557.998 46.688H564.577V51.289H557.998V46.688ZM546.732 36.11H552.15C552.15 47.548 549.355 56.793 537.487 63.716L534.305 59.674C544.109 53.998 546.732 47.032 546.732 37.142V36.11ZM536.67 36.11H548.538V40.711H536.67V36.11ZM554.386 32.369H559.718V69.607H554.386V32.369ZM546.818 45.097V49.311L535.251 50.558L534.606 45.742L546.818 45.097ZM601.554 31.509H607.273V60.792H601.554V31.509ZM591.922 35.938H603.489V40.41H591.922V35.938ZM580.957 66.081H608.176V70.639H580.957V66.081ZM580.957 58.169H586.719V68.403H580.957V58.169ZM576.141 34.046H581.817V52.751H576.141V34.046ZM576.141 51.031H579.323C585.085 51.031 590.202 50.773 595.878 49.784L596.394 54.385C590.546 55.46 585.3 55.675 579.323 55.675H576.141V51.031ZM591.922 43.334H603.489V47.849H591.922V43.334ZM645.042 41.141H652.61V45.785H645.042V41.141ZM651.062 31.509H656.781V55.159H651.062V31.509ZM643.279 56.019C651.707 56.019 656.91 58.9 656.91 63.716C656.91 68.575 651.707 71.37 643.279 71.37C634.851 71.37 629.648 68.575 629.648 63.716C629.648 58.9 634.851 56.019 643.279 56.019ZM643.279 60.362C638.119 60.362 635.367 61.437 635.367 63.716C635.367 65.952 638.119 67.027 643.279 67.027C648.482 67.027 651.234 65.952 651.234 63.716C651.234 61.437 648.482 60.362 643.279 60.362ZM632.658 35.508H637.302V38.002C637.302 45.613 633.776 52.579 626.165 55.159L623.241 50.644C629.82 48.408 632.658 43.119 632.658 38.002V35.508ZM633.862 35.508H638.463V38.002C638.463 42.689 641.172 47.548 647.45 49.655L644.655 54.17C637.259 51.719 633.862 45.097 633.862 38.002V35.508ZM624.789 33.917H646.203V38.475H624.789V33.917ZM663.056 62.082H699.09V66.726H663.056V62.082ZM678.149 53.568H683.868V63.2H678.149V53.568ZM666.84 34.046H672.516V40.152H689.501V34.046H695.177V54.772H666.84V34.046ZM672.516 44.624V50.214H689.501V44.624H672.516Z" fill="white"/>
<path d="M104.763 5.1545H106.462V9.8845H110.547V5.1545H112.202V17.7965H104.763V5.1545ZM106.462 11.325V16.3345H110.547V11.325H106.462ZM118.867 3.241H120.587V22.677H118.867V3.241ZM111.901 10.6155H115.642V12.099H111.901V10.6155ZM115.019 3.6495H116.717V21.7095H115.019V3.6495ZM136.99 3.2195H138.796V22.677H136.99V3.2195ZM138.301 11.11H141.892V12.5935H138.301V11.11ZM132.023 5.3265H133.765C133.765 10.852 131.228 15.84 124.95 19.0005L123.961 17.6245C129.336 14.894 132.023 10.7445 132.023 5.606V5.3265ZM124.864 5.3265H132.948V6.7885H124.864V5.3265ZM151.415 4.574H152.963V6.0575C152.963 10.293 149.028 13.5825 145.137 14.464L144.341 12.9805C147.76 12.3355 151.415 9.3685 151.415 6.0575V4.574ZM151.737 4.574H153.285V6.0575C153.285 9.39 156.962 12.3355 160.359 12.9805L159.563 14.464C155.693 13.5825 151.737 10.3145 151.737 6.0575V4.574ZM143.632 18.592H161.24V20.054H143.632V18.592ZM169.512 4.63068L164.473 23.3516H162.824L167.863 4.63068H169.512ZM185.844 3.241H187.564V22.677H185.844V3.241ZM182.684 11.11H186.403V12.572H182.684V11.11ZM177.911 5.563H179.631C179.631 10.637 178.104 15.41 172.213 18.6995L171.203 17.388C176.406 14.55 177.911 10.465 177.911 5.864V5.563ZM172.149 5.563H178.577V7.0465H172.149V5.563ZM181.544 3.714H183.243V21.731H181.544V3.714ZM177.696 9.992V11.325L171.439 11.97L171.181 10.422L177.696 9.992ZM205.042 3.241H206.826V17.646H205.042V3.241ZM199.559 5.778H205.708V7.2185H199.559V5.778ZM194.399 20.785H207.342V22.247H194.399V20.785ZM194.399 16.399H196.184V21.4515H194.399V16.399ZM191.97 4.66H193.754V13.819H191.97V4.66ZM191.97 13.26H193.432C196.205 13.26 198.807 13.1095 201.838 12.572L202.01 14.0555C198.893 14.6145 196.291 14.7435 193.432 14.7435H191.97V13.26ZM199.559 9.476H205.708V10.938H199.559V9.476ZM225.428 7.5625H231.297V9.046H225.428V7.5625ZM225.428 13.7115H231.297V15.195H225.428V13.7115ZM221.859 4.7245C224.675 4.7245 226.696 7.369 226.696 11.497C226.696 15.6465 224.675 18.291 221.859 18.291C219.021 18.291 217.021 15.6465 217.021 11.497C217.021 7.369 219.021 4.7245 221.859 4.7245ZM221.859 6.337C219.988 6.337 218.698 8.358 218.698 11.497C218.698 14.6575 219.988 16.7215 221.859 16.7215C223.729 16.7215 225.019 14.6575 225.019 11.497C225.019 8.358 223.729 6.337 221.859 6.337ZM230.91 3.2195H232.673V22.6985H230.91V3.2195ZM251.118 3.241H252.817V15.539H251.118V3.241ZM247.958 8.5085H251.634V9.992H247.958V8.5085ZM246.969 3.628H248.646V14.851H246.969V3.628ZM236.348 5.563H246.195V6.982H236.348V5.563ZM241.293 7.971C243.722 7.971 245.421 9.304 245.421 11.3035C245.421 13.3245 243.722 14.636 241.293 14.636C238.842 14.636 237.143 13.3245 237.143 11.3035C237.143 9.304 238.842 7.971 241.293 7.971ZM241.293 9.304C239.766 9.304 238.734 10.0995 238.734 11.3035C238.734 12.529 239.766 13.303 241.293 13.303C242.798 13.303 243.83 12.529 243.83 11.3035C243.83 10.0995 242.798 9.304 241.293 9.304ZM240.411 3.3915H242.153V6.3585H240.411V3.3915ZM246.453 15.883C250.495 15.883 252.924 17.087 252.924 19.2585C252.924 21.4085 250.495 22.634 246.453 22.634C242.368 22.634 239.96 21.4085 239.96 19.2585C239.96 17.087 242.368 15.883 246.453 15.883ZM246.453 17.259C243.464 17.259 241.723 17.9685 241.723 19.2585C241.723 20.5485 243.464 21.2795 246.453 21.2795C249.398 21.2795 251.161 20.5485 251.161 19.2585C251.161 17.9685 249.398 17.259 246.453 17.259ZM264.517 4.0795H277.03V5.52H264.517V4.0795ZM262.281 11.0025H279.889V12.4645H262.281V11.0025ZM270.15 12.0345H271.934V16.055H270.15V12.0345ZM275.869 4.0795H277.61V5.477C277.61 7.068 277.61 9.0245 276.965 11.669L275.224 11.454C275.869 8.874 275.869 7.025 275.869 5.477V4.0795ZM271.031 15.453C275.224 15.453 277.782 16.7645 277.782 19.065C277.782 21.344 275.224 22.6555 271.031 22.6555C266.839 22.6555 264.302 21.344 264.302 19.065C264.302 16.7645 266.839 15.453 271.031 15.453ZM271.031 16.915C267.957 16.915 266.086 17.689 266.086 19.065C266.086 20.4195 267.957 21.215 271.031 21.215C274.127 21.215 275.976 20.4195 275.976 19.065C275.976 17.689 274.127 16.915 271.031 16.915ZM284.295 4.2515H296.808V5.7135H284.295V4.2515ZM282.059 11.411H299.667V12.873H282.059V11.411ZM295.647 4.2515H297.388V5.692C297.388 7.3475 297.388 9.2395 296.743 11.927L295.002 11.841C295.647 9.175 295.647 7.3045 295.647 5.692V4.2515ZM284.209 15.5175H297.453V22.419H284.209V15.5175ZM295.711 16.9365H285.95V20.9785H295.711V16.9365ZM315.124 3.2625H316.909V17.8395H315.124V3.2625ZM316.35 9.6265H319.79V11.1315H316.35V9.6265ZM301.88 5.606H313.361V7.0465H301.88V5.606ZM307.621 8.1215C310.373 8.1215 312.265 9.562 312.265 11.755C312.265 13.9265 310.373 15.367 307.621 15.367C304.847 15.367 302.955 13.9265 302.955 11.755C302.955 9.562 304.847 8.1215 307.621 8.1215ZM307.621 9.519C305.858 9.519 304.654 10.4005 304.654 11.755C304.654 13.088 305.858 13.9695 307.621 13.9695C309.362 13.9695 310.566 13.088 310.566 11.755C310.566 10.4005 309.362 9.519 307.621 9.519ZM306.718 3.241H308.502V6.3585H306.718V3.241ZM304.804 20.785H317.79V22.247H304.804V20.785ZM304.804 16.6785H306.589V21.4085H304.804V16.6785ZM341.852 3.241H343.637V16.399H341.852V3.241ZM337.681 8.7235H342.218V10.1855H337.681V8.7235ZM335.746 4.7675H337.617C337.617 9.7985 334.306 13.3675 328.737 15.1735L327.985 13.7545C332.908 12.2065 335.746 9.2825 335.746 5.477V4.7675ZM328.909 4.7675H337.015V6.2295H328.909V4.7675ZM336.477 14.722H338.004V15.6035C338.004 19.323 334.607 21.8385 330.715 22.634L330.006 21.215C333.446 20.5915 336.477 18.4415 336.477 15.6035V14.722ZM336.735 14.722H338.262V15.6035C338.262 18.3985 341.25 20.5485 344.712 21.172L343.959 22.591C340.089 21.817 336.735 19.3015 336.735 15.6035V14.722ZM361.545 3.2195H363.329V22.6985H361.545V3.2195ZM353.074 4.7245C355.955 4.7245 358.019 7.369 358.019 11.497C358.019 15.6465 355.955 18.291 353.074 18.291C350.214 18.291 348.15 15.6465 348.15 11.497C348.15 7.369 350.214 4.7245 353.074 4.7245ZM353.074 6.337C351.182 6.337 349.849 8.358 349.849 11.497C349.849 14.6575 351.182 16.7215 353.074 16.7215C354.987 16.7215 356.299 14.6575 356.299 11.497C356.299 8.358 354.987 6.337 353.074 6.337ZM387.499 3.241H389.283V22.72H387.499V3.241ZM381.522 9.648H388.079V11.11H381.522V9.648ZM374.319 5.4125H376.082V17.4525H374.319V5.4125ZM374.319 16.5065H375.824C378.834 16.5065 381.522 16.3345 384.51 15.711L384.725 17.216C381.629 17.818 378.899 18.0115 375.824 18.0115H374.319V16.5065ZM393.023 14.5285H410.653V15.9905H393.023V14.5285ZM400.892 15.41H402.655V22.677H400.892V15.41ZM395.259 4.316H408.374V11.9055H395.259V4.316ZM406.632 5.7565H397.022V10.465H406.632V5.7565ZM432.156 3.241H433.941V13.1525H432.156V3.241ZM433.167 7.6055H436.822V9.089H433.167V7.6055ZM419.665 4.5095H428.587V12.443H419.665V4.5095ZM426.846 5.95H421.406V11.024H426.846V5.95ZM420.89 20.699H421.815C422.976 20.699 424.846 20.5915 426.502 20.0325L426.803 21.473C424.932 22.075 423.148 22.161 421.815 22.161H420.89V20.699ZM420.89 14.937H422.632V21.086H420.89V14.937ZM426.093 15.1305H435.854V16.4635H426.093V15.1305ZM430.995 17.173C433.102 17.173 434.586 18.248 434.586 19.9035C434.586 21.602 433.102 22.6555 430.995 22.6555C428.867 22.6555 427.383 21.602 427.383 19.9035C427.383 18.248 428.867 17.173 430.995 17.173ZM430.995 18.4415C429.791 18.4415 428.974 19.022 428.974 19.9035C428.974 20.8065 429.791 21.387 430.995 21.387C432.156 21.387 432.995 20.8065 432.995 19.9035C432.995 19.022 432.156 18.4415 430.995 18.4415ZM430.114 13.432H431.855V16.0765H430.114V13.432ZM447.42 3.5635C451.698 3.5635 454.257 4.7675 454.257 6.939C454.257 9.1105 451.698 10.3145 447.42 10.3145C443.12 10.3145 440.583 9.1105 440.583 6.939C440.583 4.7675 443.12 3.5635 447.42 3.5635ZM447.42 4.918C444.238 4.918 442.41 5.649 442.41 6.939C442.41 8.229 444.238 8.96 447.42 8.96C450.58 8.96 452.408 8.229 452.408 6.939C452.408 5.649 450.58 4.918 447.42 4.918ZM438.626 11.6045H456.192V13.045H438.626V11.6045ZM440.755 14.7005H453.956V19.0865H442.561V21.4515H440.798V17.7965H452.193V16.0765H440.755V14.7005ZM440.798 21.0645H454.536V22.462H440.798V21.0645ZM475.588 3.6495H477.244V21.7095H475.588V3.6495ZM476.556 11.153H480.146V12.615H476.556V11.153ZM465.032 16.141H465.806C466.558 16.141 467.827 16.1195 469.332 15.754L469.482 17.2375C467.87 17.6245 466.623 17.6245 465.806 17.6245H465.032V16.141ZM465.032 5.6705H469.181V7.1325H466.687V16.9795H465.032V5.6705ZM470.02 16.141H470.837C471.869 16.141 473.223 16.098 474.707 15.6895L474.879 17.173C473.288 17.603 471.955 17.6245 470.837 17.6245H470.02V16.141ZM470.02 5.6705H474.298V7.1325H471.654V16.915H470.02V5.6705ZM479.523 3.241H481.221V22.677H479.523V3.241Z" fill="white"/>
<path d="M136.2 90.614H137.694V106.922H136.2V90.614ZM129.108 91.874C131.52 91.874 133.248 94.088 133.248 97.544C133.248 101.018 131.52 103.232 129.108 103.232C126.714 103.232 124.986 101.018 124.986 97.544C124.986 94.088 126.714 91.874 129.108 91.874ZM129.108 93.224C127.524 93.224 126.408 94.916 126.408 97.544C126.408 100.19 127.524 101.918 129.108 101.918C130.71 101.918 131.808 100.19 131.808 97.544C131.808 94.916 130.71 93.224 129.108 93.224ZM153.227 90.632H154.649V102.98H153.227V90.632ZM147.521 95.348H150.599V96.572H147.521V95.348ZM150.131 90.956H151.553V102.512H150.131V90.956ZM141.671 91.928H143.075V94.664H146.549V91.928H147.971V99.902H141.671V91.928ZM143.075 95.852V98.696H146.549V95.852H143.075ZM144.047 105.32H155.153V106.544H144.047V105.32ZM144.047 101.324H145.541V105.986H144.047V101.324ZM159.399 99.398H170.577V100.604H159.399V99.398ZM157.509 103.574H172.251V104.816H157.509V103.574ZM159.399 92.018H170.397V93.242H160.911V99.776H159.399V92.018ZM160.425 95.654H170.055V96.842H160.425V95.654ZM174.068 103.664H188.81V104.906H174.068V103.664ZM180.656 100.172H182.15V104.186H180.656V100.172ZM175.85 91.838H186.992V96.77H177.38V100.028H175.904V95.564H185.516V93.044H175.85V91.838ZM175.904 99.398H187.37V100.622H175.904V99.398ZM196.535 91.622H197.993V94.142H202.673V91.622H204.149V99.308H196.535V91.622ZM197.993 95.33V98.12H202.673V95.33H197.993ZM198.155 101.378H209.027V106.904H207.515V102.584H198.155V101.378ZM207.515 90.632H209.027V100.478H207.515V90.632ZM215.901 91.982C218.007 91.982 219.375 94.16 219.375 97.652C219.375 101.144 218.007 103.322 215.901 103.322C213.795 103.322 212.445 101.144 212.445 97.652C212.445 94.16 213.795 91.982 215.901 91.982ZM215.901 93.368C214.623 93.368 213.813 95.024 213.813 97.652C213.813 100.28 214.623 101.936 215.901 101.936C217.179 101.936 217.989 100.28 217.989 97.652C217.989 95.024 217.179 93.368 215.901 93.368ZM224.631 90.632H226.071V106.904H224.631V90.632ZM222.057 97.076H225.171V98.3H222.057V97.076ZM221.031 90.974H222.453V106.094H221.031V90.974ZM230.156 91.118H242.108V92.288H230.156V91.118ZM230.228 95.384H242.036V96.536H230.228V95.384ZM232.622 91.568H234.116V96.14H232.622V91.568ZM238.166 91.568H239.642V96.14H238.166V91.568ZM228.788 97.886H243.494V99.092H228.788V97.886ZM230.57 100.514H241.622V104.078H232.082V106.04H230.606V103.016H240.146V101.63H230.57V100.514ZM230.606 105.59H242.108V106.724H230.606V105.59ZM257.749 90.632H259.189V106.904H257.749V90.632ZM255.175 97.166H258.289V98.408H255.175V97.166ZM254.221 90.992H255.625V106.076H254.221V90.992ZM245.509 92.666H253.033V93.89H245.509V92.666ZM245.365 102.908L245.185 101.648C247.327 101.648 250.855 101.576 253.339 101.252L253.447 102.35C250.873 102.836 247.489 102.908 245.365 102.908ZM246.895 93.458H248.263V101.972H246.895V93.458ZM250.279 93.458H251.647V101.972H250.279V93.458ZM268.439 91.748H269.735V92.99C269.735 96.536 266.441 99.29 263.183 100.028L262.517 98.786C265.379 98.246 268.439 95.762 268.439 92.99V91.748ZM268.709 91.748H270.005V92.99C270.005 95.78 273.083 98.246 275.927 98.786L275.261 100.028C272.021 99.29 268.709 96.554 268.709 92.99V91.748ZM261.923 103.484H276.665V104.708H261.923V103.484ZM294.668 90.578H296.162V99.56H294.668V90.578ZM295.532 94.484H298.574V95.744H295.532V94.484ZM285.83 100.388H296.162V104.024H287.342V106.004H285.866V102.944H294.704V101.522H285.83V100.388ZM285.866 105.572H296.756V106.724H285.866V105.572ZM283.58 92.09H293.192V93.26H283.58V92.09ZM288.386 93.98C290.726 93.98 292.274 95.006 292.274 96.662C292.274 98.3 290.726 99.308 288.386 99.308C286.01 99.308 284.48 98.3 284.48 96.662C284.48 95.006 286.01 93.98 288.386 93.98ZM288.386 95.078C286.874 95.078 285.902 95.69 285.902 96.662C285.902 97.616 286.874 98.228 288.386 98.228C289.88 98.228 290.852 97.616 290.852 96.662C290.852 95.69 289.88 95.078 288.386 95.078ZM287.63 90.452H289.124V92.9H287.63V90.452ZM311.929 90.65H313.441V102.53H311.929V90.65ZM302.983 105.32H313.927V106.544H302.983V105.32ZM302.983 101.306H304.459V105.734H302.983V101.306ZM304.711 91.766C307.141 91.766 308.941 93.422 308.941 95.78C308.941 98.12 307.141 99.794 304.711 99.794C302.281 99.794 300.463 98.12 300.463 95.78C300.463 93.422 302.281 91.766 304.711 91.766ZM304.711 93.062C303.127 93.062 301.921 94.178 301.921 95.78C301.921 97.364 303.127 98.48 304.711 98.48C306.295 98.48 307.501 97.364 307.501 95.78C307.501 94.178 306.295 93.062 304.711 93.062ZM332.848 90.632H334.342V100.154H332.848V90.632ZM333.928 94.538H336.754V95.798H333.928V94.538ZM322.39 91.532H323.866V94.016H328.456V91.532H329.914V99.128H322.39V91.532ZM323.866 95.204V97.922H328.456V95.204H323.866ZM324.172 101.036H334.468V102.242H325.666V106.328H324.172V101.036ZM324.172 105.464H334.792V106.688H324.172V105.464ZM345.627 91.658C349.011 91.658 351.531 93.458 351.531 96.158C351.531 98.876 349.011 100.658 345.627 100.658C342.243 100.658 339.705 98.876 339.705 96.158C339.705 93.458 342.243 91.658 345.627 91.658ZM345.627 92.882C343.053 92.882 341.145 94.196 341.145 96.158C341.145 98.102 343.053 99.434 345.627 99.434C348.201 99.434 350.109 98.102 350.109 96.158C350.109 94.196 348.201 92.882 345.627 92.882ZM338.283 103.502H353.025V104.762H338.283V103.502ZM361.249 96.446H364.363V97.688H361.249V96.446ZM358.207 92.162H359.377V95.258C359.377 98.66 357.955 101.954 355.579 103.412L354.643 102.278C356.875 100.964 358.207 98.048 358.207 95.258V92.162ZM358.495 92.162H359.647V95.204C359.647 97.814 360.871 100.586 363.013 101.882L362.149 103.052C359.809 101.612 358.495 98.372 358.495 95.204V92.162ZM367.225 90.632H368.665V106.904H367.225V90.632ZM363.931 90.974H365.335V106.094H363.931V90.974ZM375 99.002H376.476V103.88H375V99.002ZM381.012 99.002H382.506V103.88H381.012V99.002ZM371.4 103.592H386.142V104.834H371.4V103.592ZM378.744 91.658C382.182 91.658 384.648 93.296 384.648 95.852C384.648 98.39 382.182 100.028 378.744 100.028C375.288 100.028 372.822 98.39 372.822 95.852C372.822 93.296 375.288 91.658 378.744 91.658ZM378.744 92.846C376.134 92.846 374.262 94.034 374.262 95.852C374.262 97.652 376.134 98.84 378.744 98.84C381.354 98.84 383.208 97.652 383.208 95.852C383.208 94.034 381.354 92.846 378.744 92.846ZM390.433 92.4091L390.306 101.818H388.823L388.695 92.4091H390.433ZM389.564 105.602C389.249 105.602 388.978 105.489 388.752 105.263C388.526 105.038 388.414 104.767 388.414 104.452C388.414 104.136 388.526 103.866 388.752 103.64C388.978 103.414 389.249 103.301 389.564 103.301C389.879 103.301 390.15 103.414 390.376 103.64C390.602 103.866 390.715 104.136 390.715 104.452C390.715 104.661 390.661 104.852 390.555 105.027C390.453 105.202 390.314 105.342 390.139 105.449C389.969 105.551 389.777 105.602 389.564 105.602Z" fill="white"/>
<path d="M111.562 93.292H104V107.181H118.12V99.156" stroke="white" stroke-width="1.8"/>
<path d="M106.315 97.302L110.944 102.702L120.744 90.8191" stroke="white" stroke-width="1.8"/>
</g>
</g>
<defs>
<clipPath id="clip0_93_15">
<rect width="800" height="109" fill="white" transform="translate(0.5 0.5)"/>
</clipPath>
</defs>
</svg>
