<svg width="346" height="48" viewBox="0 0 346 48" fill="none" xmlns="http://www.w3.org/2000/svg">
<g clip-path="url(#clip0_93_2)">
<mask id="mask0_93_2" style="mask-type:luminance" maskUnits="userSpaceOnUse" x="0" y="0" width="346" height="48">
<path d="M345.5 0.5H0.5V47.5H345.5V0.5Z" fill="white"/>
</mask>
<g mask="url(#mask0_93_2)">
<path d="M84.836 26.157H85.694C87.41 26.157 88.719 26.135 90.237 25.893L90.369 27.059C88.829 27.301 87.443 27.345 85.694 27.345H84.836V26.157ZM84.836 20.305H89.621V21.493H86.31V26.542H84.836V20.305ZM85.958 23.132H89.478V24.276H85.958V23.132ZM90.952 19.458H92.426V29.644H90.952V19.458ZM92.096 23.319H93.9V24.529H92.096V23.319ZM95.0651 20.371H99.9601V27.224H95.0651V20.371ZM98.5301 21.515H96.5061V26.069H98.5301V21.515ZM101.544 19.447H103.018V29.666H101.544V19.447ZM108.462 20.041H109.738V20.778C109.738 22.989 108.165 24.947 105.525 25.464L104.898 24.254C107.197 23.858 108.462 22.241 108.462 20.778V20.041ZM108.759 20.041H110.024V20.778C110.024 22.274 111.278 23.858 113.588 24.254L112.961 25.464C110.321 24.947 108.759 23.022 108.759 20.778V20.041ZM104.689 27.213H113.907V28.401H104.689V27.213ZM118.075 20.129C119.681 20.129 120.88 21.174 120.88 22.637C120.88 24.111 119.681 25.156 118.075 25.156C116.48 25.156 115.259 24.111 115.259 22.637C115.259 21.174 116.48 20.129 118.075 20.129ZM118.075 21.383C117.294 21.383 116.7 21.845 116.7 22.637C116.7 23.44 117.294 23.902 118.075 23.902C118.856 23.902 119.45 23.44 119.45 22.637C119.45 21.845 118.856 21.383 118.075 21.383ZM121.837 19.447H123.3V29.666H121.837V19.447ZM115.017 27.598L114.841 26.421C116.634 26.421 119.131 26.399 121.276 26.08L121.386 27.136C119.175 27.576 116.777 27.598 115.017 27.598ZM129.717 19.81H130.905V20.459C130.905 22.395 130.003 24.067 128.034 24.683L127.33 23.517C129.013 23.011 129.717 21.768 129.717 20.459V19.81ZM130.014 19.81H131.191V20.426C131.191 21.669 131.873 22.824 133.501 23.297L132.764 24.43C130.872 23.847 130.014 22.285 130.014 20.426V19.81ZM134.018 19.458H135.481V24.683H134.018V19.458ZM134.887 21.438H136.823V22.637H134.887V21.438ZM128.749 25.079H135.481V27.829H130.223V29.072H128.771V26.773H134.04V26.201H128.749V25.079ZM128.771 28.445H135.778V29.578H128.771V28.445ZM140.31 20.162C141.861 20.162 142.983 21.57 142.983 23.792C142.983 26.036 141.861 27.444 140.31 27.444C138.759 27.444 137.637 26.036 137.637 23.792C137.637 21.57 138.759 20.162 140.31 20.162ZM140.31 21.493C139.551 21.493 139.045 22.296 139.045 23.792C139.045 25.31 139.551 26.124 140.31 26.124C141.069 26.124 141.586 25.31 141.586 23.792C141.586 22.296 141.069 21.493 140.31 21.493ZM144.094 19.458H145.568V29.644H144.094V19.458ZM145.238 23.297H147.042V24.507H145.238V23.297ZM149.989 25.64H151.089V25.981C151.089 27.521 150.407 28.929 148.812 29.501L148.097 28.434C149.428 27.983 149.989 26.971 149.989 25.981V25.64ZM150.363 25.64H151.408V25.981C151.408 26.971 151.903 28.005 153.146 28.522L152.563 29.6C150.946 28.995 150.363 27.477 150.363 25.981V25.64ZM153.707 25.64H154.752V25.981C154.752 27.389 154.147 28.973 152.563 29.6L151.958 28.522C153.201 27.961 153.707 26.883 153.707 25.981V25.64ZM154.048 25.64H155.148V25.981C155.148 27.037 155.698 28.016 157.04 28.434L156.325 29.501C154.708 28.951 154.048 27.587 154.048 25.981V25.64ZM154.697 19.469H156.171V25.222H154.697V19.469ZM150.627 19.986C152.211 19.986 153.388 20.998 153.388 22.428C153.388 23.847 152.211 24.859 150.627 24.859C149.043 24.859 147.855 23.847 147.855 22.428C147.855 20.998 149.043 19.986 150.627 19.986ZM150.627 21.196C149.857 21.196 149.285 21.647 149.285 22.428C149.285 23.198 149.857 23.649 150.627 23.649C151.397 23.649 151.958 23.198 151.958 22.428C151.958 21.647 151.397 21.196 150.627 21.196ZM158.964 22.208H166.026V23.363H158.964V22.208ZM157.82 24.419H167.049V25.585H157.82V24.419ZM158.964 19.821H160.416V22.78H158.964V19.821ZM158.865 28.258H166.081V29.424H158.865V28.258ZM158.865 26.399H160.328V28.566H158.865V26.399ZM170.903 18.876H172.528V21.645H174.088V18.876H175.674V26.975H170.903V18.876ZM172.528 22.997V25.584H174.088V22.997H172.528ZM179.262 17.784H180.913V29.822H179.262V17.784ZM175.401 22.178H177.403V23.582H175.401V22.178ZM176.805 17.979H178.43V29.289H176.805V17.979ZM190.22 17.771H191.962V29.809H190.22V17.771ZM191.507 22.373H193.626V23.79H191.507V22.373ZM187.061 19.019H188.751C188.751 22.633 187.373 25.727 183.369 27.742L182.407 26.429C185.566 24.791 187.061 22.581 187.061 19.318V19.019ZM183.07 19.019H187.945V20.41H183.07V19.019ZM198.955 18.473H200.463V19.344C200.463 21.957 198.604 24.271 195.484 24.882L194.743 23.452C197.46 22.984 198.955 21.073 198.955 19.344V18.473ZM199.306 18.473H200.801V19.344C200.801 21.112 202.283 22.984 205.013 23.452L204.272 24.882C201.152 24.271 199.306 21.996 199.306 19.344V18.473ZM194.496 26.949H205.39V28.353H194.496V26.949ZM210.825 18.7673L207.778 30.0869H206.083L209.13 18.7673H210.825ZM220.204 17.784H221.855V29.822H220.204V17.784ZM218.644 22.373H220.633V23.764H218.644V22.373ZM215.238 19.175H216.876C216.876 22.633 216.031 25.428 212.443 27.521L211.481 26.299C214.445 24.583 215.238 22.477 215.238 19.487V19.175ZM212.196 19.175H215.784V20.566H212.196V19.175ZM217.552 18.044H219.164V29.302H217.552V18.044ZM215.264 21.892V23.166L211.767 23.543L211.572 22.087L215.264 21.892ZM231.812 17.784H233.541V26.637H231.812V17.784ZM228.9 19.123H232.397V20.475H228.9V19.123ZM225.585 28.236H233.814V29.614H225.585V28.236ZM225.585 25.844H227.327V28.938H225.585V25.844ZM224.129 18.551H225.845V24.206H224.129V18.551ZM224.129 23.686H225.091C226.833 23.686 228.38 23.608 230.096 23.309L230.252 24.7C228.484 25.025 226.898 25.09 225.091 25.09H224.129V23.686ZM228.9 21.359H232.397V22.724H228.9V21.359ZM244.96 20.696H247.248V22.1H244.96V20.696ZM246.78 17.784H248.509V24.934H246.78V17.784ZM244.427 25.194C246.975 25.194 248.548 26.065 248.548 27.521C248.548 28.99 246.975 29.835 244.427 29.835C241.879 29.835 240.306 28.99 240.306 27.521C240.306 26.065 241.879 25.194 244.427 25.194ZM244.427 26.507C242.867 26.507 242.035 26.832 242.035 27.521C242.035 28.197 242.867 28.522 244.427 28.522C246 28.522 246.832 28.197 246.832 27.521C246.832 26.832 246 26.507 244.427 26.507ZM241.216 18.993H242.62V19.747C242.62 22.048 241.554 24.154 239.253 24.934L238.369 23.569C240.358 22.893 241.216 21.294 241.216 19.747V18.993ZM241.58 18.993H242.971V19.747C242.971 21.164 243.79 22.633 245.688 23.27L244.843 24.635C242.607 23.894 241.58 21.892 241.58 19.747V18.993ZM238.837 18.512H245.311V19.89H238.837V18.512ZM250.406 27.027H261.3V28.431H250.406V27.027ZM254.969 24.453H256.698V27.365H254.969V24.453ZM251.55 18.551H253.266V20.397H258.401V18.551H260.117V24.817H251.55V18.551ZM253.266 21.749V23.439H258.401V21.749H253.266Z" fill="white"/>
<path d="M85.574 4.50598H86.127V6.04598H87.457V4.50598H87.996V8.62198H85.574V4.50598ZM86.127 6.51498V8.14598H87.457V6.51498H86.127ZM90.166 3.88298H90.726V10.211H90.166V3.88298ZM87.898 6.28398H89.116V6.76698H87.898V6.28398ZM88.913 4.01598H89.466V9.89598H88.913V4.01598ZM96.0665 3.87598H96.6545V10.211H96.0665V3.87598ZM96.4935 6.44498H97.6625V6.92798H96.4935V6.44498ZM94.4495 4.56198H95.0165C95.0165 6.36098 94.1905 7.98498 92.1465 9.01398L91.8245 8.56598C93.5745 7.67698 94.4495 6.32598 94.4495 4.65298V4.56198ZM92.1185 4.56198H94.7505V5.03798H92.1185V4.56198ZM100.763 4.31698H101.267V4.79998C101.267 6.17898 99.9859 7.24998 98.7189 7.53698L98.4599 7.05398C99.5729 6.84398 100.763 5.87798 100.763 4.79998V4.31698ZM100.868 4.31698H101.372V4.79998C101.372 5.88498 102.569 6.84398 103.675 7.05398L103.416 7.53698C102.156 7.24998 100.868 6.18598 100.868 4.79998V4.31698ZM98.2289 8.88098H103.962V9.35698H98.2289V8.88098ZM106.655 4.33543L105.014 10.4306H104.477L106.118 4.33543H106.655ZM111.972 3.88298H112.532V10.211H111.972V3.88298ZM110.943 6.44498H112.154V6.92098H110.943V6.44498ZM109.389 4.63898H109.949C109.949 6.29098 109.452 7.84498 107.534 8.91598L107.205 8.48898C108.899 7.56498 109.389 6.23498 109.389 4.73698V4.63898ZM107.513 4.63898H109.606V5.12198H107.513V4.63898ZM110.572 4.03698H111.125V9.90298H110.572V4.03698ZM109.319 6.08098V6.51498L107.282 6.72498L107.198 6.22098L109.319 6.08098ZM118.223 3.88298H118.804V8.57298H118.223V3.88298ZM116.438 4.70898H118.44V5.17798H116.438V4.70898ZM114.758 9.59498H118.972V10.071H114.758V9.59498ZM114.758 8.16698H115.339V9.81198H114.758V8.16698ZM113.967 4.34498H114.548V7.32698H113.967V4.34498ZM113.967 7.14498H114.443C115.346 7.14498 116.193 7.09598 117.18 6.92098L117.236 7.40398C116.221 7.58598 115.374 7.62798 114.443 7.62798H113.967V7.14498ZM116.438 5.91298H118.44V6.38898H116.438V5.91298ZM122.739 4.15598H126.813V4.62498H122.739V4.15598ZM122.011 6.40998H127.744V6.88598H122.011V6.40998ZM124.573 6.74598H125.154V8.05498H124.573V6.74598ZM126.435 4.15598H127.002V4.61098C127.002 5.12898 127.002 5.76598 126.792 6.62698L126.225 6.55698C126.435 5.71698 126.435 5.11498 126.435 4.61098V4.15598ZM124.86 7.85898C126.225 7.85898 127.058 8.28598 127.058 9.03498C127.058 9.77698 126.225 10.204 124.86 10.204C123.495 10.204 122.669 9.77698 122.669 9.03498C122.669 8.28598 123.495 7.85898 124.86 7.85898ZM124.86 8.33498C123.859 8.33498 123.25 8.58698 123.25 9.03498C123.25 9.47598 123.859 9.73498 124.86 9.73498C125.868 9.73498 126.47 9.47598 126.47 9.03498C126.47 8.58698 125.868 8.33498 124.86 8.33498ZM129.179 4.21198H133.253V4.68798H129.179V4.21198ZM128.451 6.54298H134.184V7.01898H128.451V6.54298ZM132.875 4.21198H133.442V4.68098C133.442 5.21998 133.442 5.83598 133.232 6.71098L132.665 6.68298C132.875 5.81498 132.875 5.20598 132.875 4.68098V4.21198ZM129.151 7.87998H133.463V10.127H129.151V7.87998ZM132.896 8.34198H129.718V9.65798H132.896V8.34198ZM139.216 3.88998H139.797V8.63598H139.216V3.88998ZM139.615 5.96198H140.735V6.45198H139.615V5.96198ZM134.904 4.65298H138.642V5.12198H134.904V4.65298ZM136.773 5.47198C137.669 5.47198 138.285 5.94098 138.285 6.65498C138.285 7.36198 137.669 7.83098 136.773 7.83098C135.87 7.83098 135.254 7.36198 135.254 6.65498C135.254 5.94098 135.87 5.47198 136.773 5.47198ZM136.773 5.92698C136.199 5.92698 135.807 6.21398 135.807 6.65498C135.807 7.08898 136.199 7.37598 136.773 7.37598C137.34 7.37598 137.732 7.08898 137.732 6.65498C137.732 6.21398 137.34 5.92698 136.773 5.92698ZM136.479 3.88298H137.06V4.89798H136.479V3.88298ZM135.856 9.59498H140.084V10.071H135.856V9.59498ZM135.856 8.25798H136.437V9.79798H135.856V8.25798ZM147.918 3.88298H148.499V8.16698H147.918V3.88298ZM146.56 5.66798H148.037V6.14398H146.56V5.66798ZM145.93 4.37998H146.539C146.539 6.01798 145.461 7.17998 143.648 7.76798L143.403 7.30598C145.006 6.80198 145.93 5.84998 145.93 4.61098V4.37998ZM143.704 4.37998H146.343V4.85598H143.704V4.37998ZM146.168 7.62098H146.665V7.90798C146.665 9.11898 145.559 9.93798 144.292 10.197L144.061 9.73498C145.181 9.53198 146.168 8.83198 146.168 7.90798V7.62098ZM146.252 7.62098H146.749V7.90798C146.749 8.81798 147.722 9.51798 148.849 9.72098L148.604 10.183C147.344 9.93098 146.252 9.11198 146.252 7.90798V7.62098ZM154.33 3.87598H154.911V10.218H154.33V3.87598ZM151.572 4.36598C152.51 4.36598 153.182 5.22698 153.182 6.57098C153.182 7.92198 152.51 8.78298 151.572 8.78298C150.641 8.78298 149.969 7.92198 149.969 6.57098C149.969 5.22698 150.641 4.36598 151.572 4.36598ZM151.572 4.89098C150.956 4.89098 150.522 5.54898 150.522 6.57098C150.522 7.59998 150.956 8.27198 151.572 8.27198C152.195 8.27198 152.622 7.59998 152.622 6.57098C152.622 5.54898 152.195 4.89098 151.572 4.89098ZM162.78 3.88298H163.361V10.225H162.78V3.88298ZM160.834 5.96898H162.969V6.44498H160.834V5.96898ZM158.489 4.58998H159.063V8.50998H158.489V4.58998ZM158.489 8.20198H158.979C159.959 8.20198 160.834 8.14598 161.807 7.94298L161.877 8.43298C160.869 8.62898 159.98 8.69198 158.979 8.69198H158.489V8.20198ZM164.578 7.55798H170.318V8.03398H164.578V7.55798ZM167.14 7.84498H167.714V10.211H167.14V7.84498ZM165.306 4.23298H169.576V6.70398H165.306V4.23298ZM169.009 4.70198H165.88V6.23498H169.009V4.70198ZM177.32 3.88298H177.901V7.10998H177.32V3.88298ZM177.649 5.30398H178.839V5.78698H177.649V5.30398ZM173.253 4.29598H176.158V6.87898H173.253V4.29598ZM175.591 4.76498H173.82V6.41698H175.591V4.76498ZM173.652 9.56698H173.953C174.331 9.56698 174.94 9.53198 175.479 9.34998L175.577 9.81898C174.968 10.015 174.387 10.043 173.953 10.043H173.652V9.56698ZM173.652 7.69098H174.219V9.69298H173.652V7.69098ZM175.346 7.75398H178.524V8.18798H175.346V7.75398ZM176.942 8.41898C177.628 8.41898 178.111 8.76898 178.111 9.30798C178.111 9.86098 177.628 10.204 176.942 10.204C176.249 10.204 175.766 9.86098 175.766 9.30798C175.766 8.76898 176.249 8.41898 176.942 8.41898ZM176.942 8.83198C176.55 8.83198 176.284 9.02098 176.284 9.30798C176.284 9.60198 176.55 9.79098 176.942 9.79098C177.32 9.79098 177.593 9.60198 177.593 9.30798C177.593 9.02098 177.32 8.83198 176.942 8.83198ZM176.655 7.20098H177.222V8.06198H176.655V7.20098ZM182.289 3.98798C183.682 3.98798 184.515 4.37998 184.515 5.08698C184.515 5.79398 183.682 6.18598 182.289 6.18598C180.889 6.18598 180.063 5.79398 180.063 5.08698C180.063 4.37998 180.889 3.98798 182.289 3.98798ZM182.289 4.42898C181.253 4.42898 180.658 4.66698 180.658 5.08698C180.658 5.50698 181.253 5.74498 182.289 5.74498C183.318 5.74498 183.913 5.50698 183.913 5.08698C183.913 4.66698 183.318 4.42898 182.289 4.42898ZM179.426 6.60598H185.145V7.07498H179.426V6.60598ZM180.119 7.61398H184.417V9.04198H180.707V9.81198H180.133V8.62198H183.843V8.06198H180.119V7.61398ZM180.133 9.68598H184.606V10.141H180.133V9.68598ZM191.46 4.01598H191.999V9.89598H191.46V4.01598ZM191.775 6.45898H192.944V6.93498H191.775V6.45898ZM188.023 8.08298H188.275C188.52 8.08298 188.933 8.07598 189.423 7.95698L189.472 8.43998C188.947 8.56598 188.541 8.56598 188.275 8.56598H188.023V8.08298ZM188.023 4.67398H189.374V5.14998H188.562V8.35598H188.023V4.67398ZM189.647 8.08298H189.913C190.249 8.08298 190.69 8.06898 191.173 7.93598L191.229 8.41898C190.711 8.55898 190.277 8.56598 189.913 8.56598H189.647V8.08298ZM189.647 4.67398H191.04V5.14998H190.179V8.33498H189.647V4.67398ZM192.741 3.88298H193.294V10.211H192.741V3.88298Z" fill="white"/>
<path d="M97.906 38.2155H98.4455V44.1045H97.906V38.2155ZM95.345 38.6705C96.216 38.6705 96.84 39.47 96.84 40.718C96.84 41.9725 96.216 42.772 95.345 42.772C94.4805 42.772 93.8565 41.9725 93.8565 40.718C93.8565 39.47 94.4805 38.6705 95.345 38.6705ZM95.345 39.158C94.773 39.158 94.37 39.769 94.37 40.718C94.37 41.6735 94.773 42.2975 95.345 42.2975C95.9235 42.2975 96.32 41.6735 96.32 40.718C96.32 39.769 95.9235 39.158 95.345 39.158ZM104.055 38.222H104.568V42.681H104.055V38.222ZM101.994 39.925H103.106V40.367H101.994V39.925ZM102.937 38.339H103.45V42.512H102.937V38.339ZM99.8815 38.69H100.389V39.678H101.643V38.69H102.157V41.5695H99.8815V38.69ZM100.389 40.107V41.134H101.643V40.107H100.389ZM100.74 43.526H104.75V43.968H100.74V43.526ZM100.74 42.083H101.279V43.7665H100.74V42.083ZM106.284 41.3875H110.32V41.823H106.284V41.3875ZM105.601 42.8955H110.925V43.344H105.601V42.8955ZM106.284 38.7225H110.255V39.1645H106.83V41.524H106.284V38.7225ZM106.654 40.0355H110.132V40.4645H106.654V40.0355ZM111.58 42.928H116.904V43.3765H111.58V42.928ZM113.959 41.667H114.499V43.1165H113.959V41.667ZM112.224 38.6575H116.247V40.4385H112.776V41.615H112.243V40.003H115.714V39.093H112.224V38.6575ZM112.243 41.3875H116.384V41.8295H112.243V41.3875ZM119.694 38.5795H120.22V39.4895H121.91V38.5795H122.443V41.355H119.694V38.5795ZM120.22 39.9185V40.926H121.91V39.9185H120.22ZM120.279 42.1025H124.205V44.098H123.659V42.538H120.279V42.1025ZM123.659 38.222H124.205V41.7775H123.659V38.222ZM126.687 38.7095C127.448 38.7095 127.942 39.496 127.942 40.757C127.942 42.018 127.448 42.8045 126.687 42.8045C125.927 42.8045 125.439 42.018 125.439 40.757C125.439 39.496 125.927 38.7095 126.687 38.7095ZM126.687 39.21C126.226 39.21 125.933 39.808 125.933 40.757C125.933 41.706 126.226 42.304 126.687 42.304C127.149 42.304 127.441 41.706 127.441 40.757C127.441 39.808 127.149 39.21 126.687 39.21ZM129.84 38.222H130.36V44.098H129.84V38.222ZM128.91 40.549H130.035V40.991H128.91V40.549ZM128.54 38.3455H129.053V43.8055H128.54V38.3455ZM131.835 38.3975H136.151V38.82H131.835V38.3975ZM131.861 39.938H136.125V40.354H131.861V39.938ZM132.725 38.56H133.265V40.211H132.725V38.56ZM134.727 38.56H135.26V40.211H134.727V38.56ZM131.341 40.8415H136.651V41.277H131.341V40.8415ZM131.984 41.7905H135.975V43.0775H132.53V43.786H131.997V42.694H135.442V42.1935H131.984V41.7905ZM131.997 43.6235H136.151V44.033H131.997V43.6235ZM141.799 38.222H142.319V44.098H141.799V38.222ZM140.869 40.5815H141.994V41.03H140.869V40.5815ZM140.525 38.352H141.032V43.799H140.525V38.352ZM137.379 38.9565H140.096V39.3985H137.379V38.9565ZM137.327 42.655L137.262 42.2C138.035 42.2 139.309 42.174 140.206 42.057L140.245 42.4535C139.316 42.629 138.094 42.655 137.327 42.655ZM137.879 39.2425H138.373V42.317H137.879V39.2425ZM139.101 39.2425H139.595V42.317H139.101V39.2425ZM145.659 38.625H146.127V39.0735C146.127 40.354 144.938 41.3485 143.761 41.615L143.521 41.1665C144.554 40.9715 145.659 40.0745 145.659 39.0735V38.625ZM145.757 38.625H146.225V39.0735C146.225 40.081 147.336 40.9715 148.363 41.1665L148.123 41.615C146.953 41.3485 145.757 40.3605 145.757 39.0735V38.625ZM143.306 42.863H148.63V43.305H143.306V42.863ZM155.131 38.2025H155.67V41.446H155.131V38.2025ZM155.443 39.613H156.541V40.068H155.443V39.613ZM151.939 41.745H155.67V43.058H152.485V43.773H151.952V42.668H155.144V42.1545H151.939V41.745ZM151.952 43.617H155.885V44.033H151.952V43.617ZM151.127 38.7485H154.598V39.171H151.127V38.7485ZM152.862 39.431C153.707 39.431 154.266 39.8015 154.266 40.3995C154.266 40.991 153.707 41.355 152.862 41.355C152.004 41.355 151.452 40.991 151.452 40.3995C151.452 39.8015 152.004 39.431 152.862 39.431ZM152.862 39.8275C152.316 39.8275 151.965 40.0485 151.965 40.3995C151.965 40.744 152.316 40.965 152.862 40.965C153.402 40.965 153.753 40.744 153.753 40.3995C153.753 40.0485 153.402 39.8275 152.862 39.8275ZM152.589 38.157H153.129V39.041H152.589V38.157ZM161.364 38.2285H161.91V42.5185H161.364V38.2285ZM158.133 43.526H162.085V43.968H158.133V43.526ZM158.133 42.0765H158.666V43.6755H158.133V42.0765ZM158.757 38.6315C159.635 38.6315 160.285 39.2295 160.285 40.081C160.285 40.926 159.635 41.5305 158.757 41.5305C157.88 41.5305 157.223 40.926 157.223 40.081C157.223 39.2295 157.88 38.6315 158.757 38.6315ZM158.757 39.0995C158.185 39.0995 157.75 39.5025 157.75 40.081C157.75 40.653 158.185 41.056 158.757 41.056C159.329 41.056 159.765 40.653 159.765 40.081C159.765 39.5025 159.329 39.0995 158.757 39.0995ZM168.918 38.222H169.457V41.6605H168.918V38.222ZM169.308 39.6325H170.328V40.0875H169.308V39.6325ZM165.141 38.547H165.674V39.444H167.332V38.547H167.858V41.29H165.141V38.547ZM165.674 39.873V40.8545H167.332V39.873H165.674ZM165.785 41.979H169.503V42.4145H166.324V43.89H165.785V41.979ZM165.785 43.578H169.62V44.02H165.785V43.578ZM173.532 38.5925C174.754 38.5925 175.664 39.2425 175.664 40.2175C175.664 41.199 174.754 41.8425 173.532 41.8425C172.31 41.8425 171.394 41.199 171.394 40.2175C171.394 39.2425 172.31 38.5925 173.532 38.5925ZM173.532 39.0345C172.603 39.0345 171.914 39.509 171.914 40.2175C171.914 40.9195 172.603 41.4005 173.532 41.4005C174.462 41.4005 175.151 40.9195 175.151 40.2175C175.151 39.509 174.462 39.0345 173.532 39.0345ZM170.88 42.8695H176.204V43.3245H170.88V42.8695ZM179.174 40.3215H180.298V40.77H179.174V40.3215ZM178.075 38.7745H178.498V39.8925C178.498 41.121 177.984 42.3105 177.126 42.837L176.788 42.4275C177.594 41.953 178.075 40.9 178.075 39.8925V38.7745ZM178.179 38.7745H178.595V39.873C178.595 40.8155 179.037 41.8165 179.811 42.2845L179.499 42.707C178.654 42.187 178.179 41.017 178.179 39.873V38.7745ZM181.332 38.222H181.852V44.098H181.332V38.222ZM180.142 38.3455H180.649V43.8055H180.142V38.3455ZM184.139 41.2445H184.672V43.006H184.139V41.2445ZM186.31 41.2445H186.85V43.006H186.31V41.2445ZM182.839 42.902H188.163V43.3505H182.839V42.902ZM185.491 38.5925C186.733 38.5925 187.623 39.184 187.623 40.107C187.623 41.0235 186.733 41.615 185.491 41.615C184.243 41.615 183.353 41.0235 183.353 40.107C183.353 39.184 184.243 38.5925 185.491 38.5925ZM185.491 39.0215C184.549 39.0215 183.873 39.4505 183.873 40.107C183.873 40.757 184.549 41.186 185.491 41.186C186.434 41.186 187.103 40.757 187.103 40.107C187.103 39.4505 186.434 39.0215 185.491 39.0215ZM189.713 38.8637L189.666 42.2615H189.131L189.085 38.8637H189.713ZM189.399 43.6279C189.285 43.6279 189.187 43.5872 189.105 43.5056C189.024 43.424 188.983 43.3263 188.983 43.2125C188.983 43.0986 189.024 43.0009 189.105 42.9193C189.187 42.8377 189.285 42.797 189.399 42.797C189.512 42.797 189.61 42.8377 189.692 42.9193C189.773 43.0009 189.814 43.0986 189.814 43.2125C189.814 43.2879 189.795 43.3571 189.756 43.4202C189.719 43.4833 189.669 43.5341 189.606 43.5725C189.545 43.6095 189.476 43.6279 189.399 43.6279Z" fill="white"/>
<path d="M88.5848 39.0699H85.5848V44.58H91.1849V41.3969" stroke="white"/>
<path d="M86.5043 40.6599L88.3412 42.8019L92.2279 38.0891" stroke="white"/>
</g>
</g>
<defs>
<clipPath id="clip0_93_2">
<rect width="345" height="47" fill="white" transform="translate(0.5 0.5)"/>
</clipPath>
</defs>
</svg>
