<svg width="801" height="110" viewBox="0 0 801 110" fill="none" xmlns="http://www.w3.org/2000/svg">
<g clip-path="url(#clip0_33_145)">
<mask id="mask0_33_145" style="mask-type:luminance" maskUnits="userSpaceOnUse" x="0" y="0" width="801" height="110">
<path d="M800.5 0.5H0.5V109.5H800.5V0.5Z" fill="white"/>
</mask>
<g mask="url(#mask0_33_145)">
<path d="M111.85 41.038H116.866V61.482H111.85V41.038ZM111.85 60.19H114.32C118.576 60.19 122.11 60.038 126.176 59.202L126.822 63.42C122.604 64.332 118.804 64.484 114.32 64.484H111.85V60.19ZM136.018 37.694H140.844V72.882H136.018V37.694ZM121.654 48.79H129.672V52.856H121.654V48.79ZM128.57 38.302H133.282V71.324H128.57V38.302ZM145.477 55.782H177.283V59.81H145.477V55.782ZM158.815 50.842H163.869V57.606H158.815V50.842ZM149.315 68.246H173.711V72.274H149.315V68.246ZM149.315 62.052H154.369V69.614H149.315V62.052ZM161.399 38.568C169.037 38.568 174.129 41.38 174.129 45.826C174.129 50.348 169.037 53.084 161.399 53.084C153.723 53.084 148.669 50.348 148.669 45.826C148.669 41.38 153.723 38.568 161.399 38.568ZM161.399 42.596C156.649 42.596 153.875 43.698 153.875 45.826C153.875 47.992 156.649 49.056 161.399 49.056C166.149 49.056 168.923 47.992 168.923 45.826C168.923 43.698 166.149 42.596 161.399 42.596ZM192.953 53.388H217.691V57.416H192.953V53.388ZM189.267 64.788H221.111V68.93H189.267V64.788ZM202.605 55.212H207.659V66.118H202.605V55.212ZM192.953 40.088H217.425V44.154H198.007V55.136H192.953V40.088ZM232.774 40.392H236.878V45.522C236.878 54.566 233.762 62.736 226.77 65.966L223.768 61.786C229.886 59.126 232.774 52.362 232.774 45.522V40.392ZM233.762 40.392H237.866V45.522C237.866 52.02 240.64 58.48 246.644 61.064L243.68 65.13C236.878 62.014 233.762 54.186 233.762 45.522V40.392ZM248.316 37.656H253.408V72.958H248.316V37.656ZM266.165 65.7216L266.017 67.206C265.9 68.3935 265.675 69.5765 265.342 70.755C265.018 71.9425 264.676 73.0175 264.316 73.9801C263.965 74.9427 263.682 75.6984 263.466 76.2472H259.742C259.877 75.7164 260.061 74.9742 260.295 74.0206C260.529 73.076 260.749 72.0144 260.956 70.8359C261.163 69.6574 261.294 68.4564 261.347 67.233L261.415 65.7216H266.165ZM312.68 33.466H318.356V73.413H312.68V33.466ZM317.066 48.516H324.118V53.246H317.066V48.516ZM288.772 59.481H292.126C298.877 59.481 304.123 59.266 309.971 58.234L310.53 62.835C304.51 63.91 299.049 64.168 292.126 64.168H288.772V59.481ZM288.729 36.863H307.047V52.3H294.448V61.244H288.772V47.742H301.371V41.421H288.729V36.863ZM341.487 35.788H346.475V38.669C346.475 47.312 340.326 54.966 330.006 56.987L327.555 52.257C336.542 50.709 341.487 44.388 341.487 38.669V35.788ZM342.648 35.788H347.593V38.669C347.593 44.517 352.495 50.709 361.525 52.257L359.074 56.987C348.754 54.966 342.648 47.441 342.648 38.669V35.788ZM326.738 63.824H362.772V68.468H326.738V63.824ZM367.369 37.121H372.744V46.28H377.904V37.121H383.15V63.91H367.369V37.121ZM372.744 50.752V59.309H377.904V50.752H372.744ZM395.018 33.509H400.479V73.327H395.018V33.509ZM382.247 48.043H388.869V52.687H382.247V48.043ZM386.891 34.154H392.266V71.564H386.891V34.154ZM431.264 33.466H437.026V73.284H431.264V33.466ZM435.521 48.688H442.53V53.375H435.521V48.688ZM420.815 37.594H426.405C426.405 49.548 421.847 59.782 408.603 66.447L405.421 62.104C415.87 56.686 420.815 49.376 420.815 38.583V37.594ZM407.614 37.594H423.739V42.195H407.614V37.594ZM460.157 35.788H465.145V38.669C465.145 47.312 458.996 54.966 448.676 56.987L446.225 52.257C455.212 50.709 460.157 44.388 460.157 38.669V35.788ZM461.318 35.788H466.263V38.669C466.263 44.517 471.165 50.709 480.195 52.257L477.744 56.987C467.424 54.966 461.318 47.441 461.318 38.669V35.788ZM445.408 63.824H481.442V68.468H445.408V63.824ZM496.894 35.874H502.527V41.077H510.568V35.874H516.244V55.181H496.894V35.874ZM502.527 45.463V50.709H510.568V45.463H502.527ZM500.807 59.137H527.983V73.327H522.221V63.652H500.807V59.137ZM522.221 33.509H527.983V57.288H522.221V33.509ZM543.374 36.304C548.663 36.304 552.06 41.765 552.06 50.752C552.06 59.782 548.663 65.243 543.374 65.243C538.128 65.243 534.774 59.782 534.774 50.752C534.774 41.765 538.128 36.304 543.374 36.304ZM543.374 41.679C541.224 41.679 539.977 44.689 539.977 50.752C539.977 56.858 541.224 59.825 543.374 59.825C545.567 59.825 546.814 56.858 546.814 50.752C546.814 44.689 545.567 41.679 543.374 41.679ZM563.197 33.509H568.658V73.327H563.197V33.509ZM558.424 48.688H565.003V53.289H558.424V48.688ZM554.468 34.111H559.843V71.521H554.468V34.111ZM577.126 34.584H606.796V38.841H577.126V34.584ZM577.427 43.915H606.495V48.172H577.427V43.915ZM582.2 36.261H587.919V46.667H582.2V36.261ZM596.003 36.261H601.722V46.667H596.003V36.261ZM573.987 50.236H609.978V54.708H573.987V50.236ZM578.115 56.901H605.635V66.791H583.791V70.489H578.158V62.964H600.002V60.986H578.115V56.901ZM578.158 68.898H606.667V73.069H578.158V68.898ZM642.31 33.509H647.771V73.327H642.31V33.509ZM637.537 48.774H644.116V53.418H637.537V48.774ZM633.925 34.197H639.257V71.435H633.925V34.197ZM613.844 37.981H632.033V42.539H613.844V37.981ZM613.758 64.297L613.156 59.653C618.101 59.653 626.4 59.524 632.334 58.707L632.721 62.835C626.615 64.168 618.617 64.297 613.758 64.297ZM616.338 40.905H621.455V60.857H616.338V40.905ZM624.422 40.905H629.539V60.857H624.422V40.905ZM667.892 35.788H672.88V38.669C672.88 47.312 666.731 54.966 656.411 56.987L653.96 52.257C662.947 50.709 667.892 44.388 667.892 38.669V35.788ZM669.053 35.788H673.998V38.669C673.998 44.517 678.9 50.709 687.93 52.257L685.479 56.987C675.159 54.966 669.053 47.441 669.053 38.669V35.788ZM653.143 63.824H689.177V68.468H653.143V63.824Z" fill="white"/>
<path d="M115.579 13.0235H117.364V17.345H115.579V13.0235ZM124.201 3.241H125.985V18.033H124.201V3.241ZM112.72 20.785H126.458V22.247H112.72V20.785ZM112.72 16.5925H114.504V21.1935H112.72V16.5925ZM110.204 13.69L109.968 12.228C113.558 12.228 118.374 12.185 122.502 11.6475L122.631 12.959C118.439 13.6255 113.73 13.69 110.204 13.69ZM120.245 14.722H124.652V16.0335H120.245V14.722ZM116.289 4.0365C119.127 4.0365 121.062 5.3695 121.062 7.412C121.062 9.476 119.127 10.809 116.289 10.809C113.429 10.809 111.494 9.476 111.494 7.412C111.494 5.3695 113.429 4.0365 116.289 4.0365ZM116.289 5.3695C114.461 5.3695 113.193 6.165 113.193 7.412C113.193 8.659 114.461 9.4545 116.289 9.4545C118.095 9.4545 119.363 8.659 119.363 7.412C119.363 6.165 118.095 5.3695 116.289 5.3695ZM130.821 16.399H132.304C135.916 16.399 138.238 16.313 140.947 15.797L141.141 17.259C138.346 17.775 136.002 17.904 132.304 17.904H130.821V16.399ZM130.821 5.09H139.657V6.552H132.584V16.958H130.821V5.09ZM144.086 3.241H145.871V22.72H144.086V3.241ZM138.518 10.2715H144.817V11.755H138.518V10.2715ZM164.295 3.241H165.993V17.7105H164.295V3.241ZM161.177 9.046H164.832V10.5295H161.177V9.046ZM160.016 3.6065H161.693V17.173H160.016V3.6065ZM153.33 20.785H166.595V22.247H153.33V20.785ZM153.33 16.399H155.114V21.301H153.33V16.399ZM150.513 13.3675H151.76C154.491 13.3675 156.512 13.2815 158.898 12.8085L159.07 14.249C156.619 14.722 154.577 14.8295 151.76 14.8295H150.513V13.3675ZM150.47 4.918H157.78V10.465H152.233V14.1415H150.513V9.1105H156.06V6.3585H150.47V4.918ZM171.624 12.5505H184.976V14.0125H171.624V12.5505ZM169.41 18.5705H187.018V20.054H169.41V18.5705ZM171.624 5.0255H184.782V6.509H173.409V13.1955H171.624V5.0255ZM192.145 5.36364L191.992 16.6023H190.221L190.068 5.36364H192.145ZM191.106 21.1222C190.73 21.1222 190.406 20.9873 190.137 20.7175C189.867 20.4477 189.732 20.1245 189.732 19.7479C189.732 19.3712 189.867 19.048 190.137 18.7782C190.406 18.5085 190.73 18.3736 191.106 18.3736C191.483 18.3736 191.806 18.5085 192.076 18.7782C192.346 19.048 192.48 19.3712 192.48 19.7479C192.48 19.9973 192.417 20.2263 192.29 20.435C192.167 20.6437 192.002 20.8117 191.793 20.9389C191.59 21.0611 191.361 21.1222 191.106 21.1222ZM208.873 10.1855H212.593V11.669H208.873V10.1855ZM205.24 5.0685H206.637V8.7665C206.637 12.83 204.939 16.7645 202.101 18.506L200.983 17.1515C203.649 15.582 205.24 12.099 205.24 8.7665V5.0685ZM205.584 5.0685H206.96V8.702C206.96 11.8195 208.422 15.1305 210.98 16.6785L209.948 18.076C207.153 16.356 205.584 12.486 205.584 8.702V5.0685ZM216.011 3.241H217.731V22.677H216.011V3.241ZM212.077 3.6495H213.754V21.7095H212.077V3.6495ZM228.522 8.6375H232.844V10.078H228.522V8.6375ZM228.372 13.518H232.801V14.9585H228.372V13.518ZM235.789 3.241H237.509V22.677H235.789V3.241ZM231.898 3.7355H233.575V21.688H231.898V3.7355ZM227.555 5.692H229.275C229.275 10.7875 227.232 15.367 222.008 18.4845L220.976 17.216C225.512 14.464 227.555 10.594 227.555 6.0145V5.692ZM221.836 5.692H228.264V7.154H221.836V5.692ZM255.079 8.788H258.39V10.25H255.079V8.788ZM251.424 4.746C253.961 4.746 255.831 6.7025 255.831 9.476C255.831 12.2495 253.961 14.206 251.424 14.206C248.844 14.206 246.995 12.2495 246.995 9.476C246.995 6.7025 248.844 4.746 251.424 4.746ZM251.424 6.294C249.811 6.294 248.607 7.6055 248.607 9.476C248.607 11.3465 249.811 12.6795 251.424 12.6795C253.015 12.6795 254.219 11.3465 254.219 9.476C254.219 7.6055 253.015 6.294 251.424 6.294ZM261.486 3.241H263.184V17.775H261.486V3.241ZM257.809 3.628H259.508V17.216H257.809V3.628ZM250.521 20.785H263.786V22.247H250.521V20.785ZM250.521 15.9045H252.305V21.4515H250.521V15.9045ZM280.834 3.2195H282.597V22.6985H280.834V3.2195ZM276.792 10.551H281.092V12.0345H276.792V10.551ZM267.482 16.5495H268.966C272.621 16.5495 274.921 16.485 277.652 15.969L277.824 17.431C275.029 17.9255 272.664 18.033 268.966 18.033H267.482V16.5495ZM267.482 5.004H276.469V6.4875H269.245V17.0655H267.482V5.004ZM268.794 10.465H275.631V11.9055H268.794V10.465ZM294.442 10.594H298.097V12.0775H294.442V10.594ZM287.089 16.5495H288.336C291.324 16.5495 293.109 16.485 295.259 16.055L295.431 17.517C293.216 17.947 291.367 18.0115 288.336 18.0115H287.089V16.5495ZM287.089 5.5845H294.291V7.025H288.787V17.044H287.089V5.5845ZM288.271 10.8305H293.41V12.2495H288.271V10.8305ZM301.15 3.241H302.87V22.677H301.15V3.241ZM297.237 3.6925H298.935V21.688H297.237V3.6925ZM320.283 3.2625H322.089V17.4525H320.283V3.2625ZM309.598 20.785H322.67V22.247H309.598V20.785ZM309.598 15.9905H311.361V21.2795H309.598V15.9905ZM311.662 4.5955C314.564 4.5955 316.714 6.5735 316.714 9.39C316.714 12.185 314.564 14.1845 311.662 14.1845C308.759 14.1845 306.588 12.185 306.588 9.39C306.588 6.5735 308.759 4.5955 311.662 4.5955ZM311.662 6.1435C309.77 6.1435 308.329 7.4765 308.329 9.39C308.329 11.282 309.77 12.615 311.662 12.615C313.554 12.615 314.994 11.282 314.994 9.39C314.994 7.4765 313.554 6.1435 311.662 6.1435ZM326.817 4.918H335.697V13.9695H326.817V4.918ZM333.934 6.3585H328.559V12.529H333.934V6.3585ZM340.126 3.2625H341.91V17.4525H340.126V3.2625ZM335.181 8.6375H340.642V10.0995H335.181V8.6375ZM329.505 20.785H342.448V22.247H329.505V20.785ZM329.505 16.141H331.289V21.43H329.505V16.141ZM347.972 13.7115H361.323V15.152H347.972V13.7115ZM345.714 18.6995H363.323V20.183H345.714V18.6995ZM347.972 4.8965H361.108V6.3585H349.778V14.163H347.972V4.8965ZM349.197 9.2395H360.7V10.6585H349.197V9.2395ZM371.792 4.6385C374.823 4.6385 376.995 6.509 376.995 9.218C376.995 11.9485 374.823 13.819 371.792 13.819C368.76 13.819 366.567 11.9485 366.567 9.218C366.567 6.509 368.76 4.6385 371.792 4.6385ZM371.792 6.1865C369.771 6.1865 368.309 7.412 368.309 9.218C368.309 11.024 369.771 12.271 371.792 12.271C373.791 12.271 375.253 11.024 375.253 9.218C375.253 7.412 373.791 6.1865 371.792 6.1865ZM379.532 3.2195H381.316V22.6985H379.532V3.2195ZM365.836 18.4415L365.578 16.958C369.126 16.958 374.028 16.9365 378.263 16.27L378.414 17.5815C374.049 18.42 369.298 18.4415 365.836 18.4415ZM399.187 12.959H400.971V16.356H399.187V12.959ZM391.296 12.3355H408.862V13.776H391.296V12.3355ZM400.068 15.8185C404.239 15.8185 406.733 17.044 406.733 19.237C406.733 21.4085 404.239 22.634 400.068 22.634C395.897 22.634 393.403 21.4085 393.403 19.237C393.403 17.044 395.897 15.8185 400.068 15.8185ZM400.068 17.1945C397.037 17.1945 395.209 17.9255 395.209 19.237C395.209 20.527 397.037 21.258 400.068 21.258C403.121 21.258 404.927 20.527 404.927 19.237C404.927 17.9255 403.121 17.1945 400.068 17.1945ZM398.929 4.832H400.52V5.4125C400.52 8.5515 396.951 10.6585 392.93 11.153L392.285 9.734C395.768 9.3685 398.929 7.627 398.929 5.4125V4.832ZM399.681 4.832H401.251V5.4125C401.251 7.627 404.411 9.3685 407.894 9.734L407.249 11.153C403.229 10.6585 399.681 8.5515 399.681 5.4125V4.832ZM392.909 4.1225H407.292V5.563H392.909V4.1225ZM425.221 3.2625H427.027V14.292H425.221V3.2625ZM414.471 15.41H427.027V22.419H414.471V15.41ZM425.264 16.829H416.213V20.9785H425.264V16.829ZM416.148 3.9935H417.632V5.8855C417.632 9.4975 415.396 12.5935 412.106 13.819L411.225 12.4C414.149 11.3465 416.148 8.7235 416.148 5.8855V3.9935ZM416.471 3.9935H417.933V5.8855C417.933 8.6375 419.954 11.067 422.835 12.0345L421.953 13.432C418.707 12.314 416.471 9.4115 416.471 5.8855V3.9935Z" fill="white"/>
<path d="M131.238 90.622H132.696V93.142H137.376V90.622H138.852V98.308H131.238V90.622ZM132.696 94.33V97.12H137.376V94.33H132.696ZM132.858 100.378H143.73V105.904H142.218V101.584H132.858V100.378ZM142.218 89.632H143.73V99.478H142.218V89.632ZM150.605 90.982C152.711 90.982 154.079 93.16 154.079 96.652C154.079 100.144 152.711 102.322 150.605 102.322C148.499 102.322 147.149 100.144 147.149 96.652C147.149 93.16 148.499 90.982 150.605 90.982ZM150.605 92.368C149.327 92.368 148.517 94.024 148.517 96.652C148.517 99.28 149.327 100.936 150.605 100.936C151.883 100.936 152.693 99.28 152.693 96.652C152.693 94.024 151.883 92.368 150.605 92.368ZM159.335 89.632H160.775V105.904H159.335V89.632ZM156.761 96.076H159.875V97.3H156.761V96.076ZM155.735 89.974H157.157V105.094H155.735V89.974ZM164.859 90.118H176.811V91.288H164.859V90.118ZM164.931 94.384H176.739V95.536H164.931V94.384ZM167.325 90.568H168.819V95.14H167.325V90.568ZM172.869 90.568H174.345V95.14H172.869V90.568ZM163.491 96.886H178.197V98.092H163.491V96.886ZM165.273 99.514H176.325V103.078H166.785V105.04H165.309V102.016H174.849V100.63H165.273V99.514ZM165.309 104.59H176.811V105.724H165.309V104.59ZM192.452 89.632H193.892V105.904H192.452V89.632ZM189.878 96.166H192.992V97.408H189.878V96.166ZM188.924 89.992H190.328V105.076H188.924V89.992ZM180.212 91.666H187.736V92.89H180.212V91.666ZM180.068 101.908L179.888 100.648C182.03 100.648 185.558 100.576 188.042 100.252L188.15 101.35C185.576 101.836 182.192 101.908 180.068 101.908ZM181.598 92.458H182.966V100.972H181.598V92.458ZM184.982 92.458H186.35V100.972H184.982V92.458ZM203.142 90.748H204.438V91.99C204.438 95.536 201.144 98.29 197.886 99.028L197.22 97.786C200.082 97.246 203.142 94.762 203.142 91.99V90.748ZM203.412 90.748H204.708V91.99C204.708 94.78 207.786 97.246 210.63 97.786L209.964 99.028C206.724 98.29 203.412 95.554 203.412 91.99V90.748ZM196.626 102.484H211.368V103.708H196.626V102.484ZM213.185 102.664H227.927V103.906H213.185V102.664ZM219.773 99.172H221.267V103.186H219.773V99.172ZM214.967 90.838H226.109V95.77H216.497V99.028H215.021V94.564H224.633V92.044H214.967V90.838ZM215.021 98.398H226.487V99.622H215.021V98.398ZM239.684 97.192H241.16V100.252H239.684V97.192ZM237.344 99.784H238.838V101.53H246.56V99.784H248.036V105.688H237.344V99.784ZM238.838 102.7V104.482H246.56V102.7H238.838ZM246.542 89.632H248.036V98.974H246.542V89.632ZM235.022 97.984L234.824 96.76C237.866 96.76 241.916 96.742 245.462 96.274L245.57 97.354C241.934 97.966 237.992 97.984 235.022 97.984ZM239.486 90.028H240.692V90.838C240.692 93.196 238.91 95.05 236.192 95.734L235.526 94.6C237.902 94.024 239.486 92.548 239.486 90.838V90.028ZM239.81 90.028H241.034V90.838C241.034 92.494 242.636 93.862 244.958 94.348L244.328 95.5C241.628 94.87 239.81 93.124 239.81 90.838V90.028ZM252.913 91.252H263.389V92.494H252.913V91.252ZM251.365 102.394H266.071V103.636H251.365V102.394ZM257.071 96.58H258.565V103.006H257.071V96.58ZM262.831 91.252H264.307V92.872C264.307 94.888 264.307 97.12 263.713 100.414L262.219 100.216C262.831 97.102 262.831 94.816 262.831 92.872V91.252ZM284.866 89.632H286.36V101.746H284.866V89.632ZM273.454 90.946H282.022V92.17H273.454V90.946ZM273.184 99.298L273.022 98.02C275.686 98.02 279.484 97.984 282.526 97.624L282.616 98.74C279.484 99.244 275.83 99.298 273.184 99.298ZM275.074 91.99H276.514V98.236H275.074V91.99ZM278.962 91.99H280.402V98.236H278.962V91.99ZM282.166 92.71H285.658V93.934H282.166V92.71ZM282.166 95.824H285.658V97.048H282.166V95.824ZM275.956 104.32H286.792V105.544H275.956V104.32ZM275.956 100.756H277.45V105.094H275.956V100.756ZM301.388 89.614H302.882V105.922H301.388V89.614ZM290.48 100.756H291.83C294.548 100.756 296.978 100.648 299.858 100.18L300.02 101.404C297.068 101.89 294.62 101.998 291.83 101.998H290.48V100.756ZM290.444 91.144H297.968V96.958H291.974V101.224H290.48V95.734H296.456V92.368H290.444V91.144ZM317.119 89.632H318.613V105.904H317.119V89.632ZM318.253 96.31H321.277V97.57H318.253V96.31ZM306.013 92.224H315.607V93.448H306.013V92.224ZM310.873 94.798C313.177 94.798 314.833 96.346 314.833 98.542C314.833 100.738 313.177 102.286 310.873 102.286C308.587 102.286 306.913 100.738 306.913 98.542C306.913 96.346 308.587 94.798 310.873 94.798ZM310.873 96.04C309.397 96.04 308.335 97.066 308.335 98.542C308.335 100 309.397 101.044 310.873 101.044C312.349 101.044 313.411 100 313.411 98.542C313.411 97.066 312.349 96.04 310.873 96.04ZM310.099 89.83H311.593V92.782H310.099V89.83ZM335.045 89.632H336.485V105.904H335.045V89.632ZM327.989 96.274H332.093V97.48H327.989V96.274ZM331.661 90.046H333.065V105.076H331.661V90.046ZM328.187 91.684H329.627C329.627 95.95 327.917 99.784 323.525 102.394L322.643 101.332C326.477 99.028 328.187 95.788 328.187 91.954V91.684ZM323.363 91.684H328.745V92.908H323.363V91.684Z" fill="white"/>
<path d="M117.562 92.292H110V106.181H124.12V98.156" stroke="white" stroke-width="1.8"/>
<path d="M112.315 96.302L116.944 101.702L126.744 89.8191" stroke="white" stroke-width="1.8"/>
</g>
</g>
<defs>
<clipPath id="clip0_33_145">
<rect width="800" height="109" fill="white" transform="translate(0.5 0.5)"/>
</clipPath>
</defs>
</svg>
