<svg width="346" height="48" viewBox="0 0 346 48" fill="none" xmlns="http://www.w3.org/2000/svg">
<g clip-path="url(#clip0_33_132)">
<mask id="mask0_33_132" style="mask-type:luminance" maskUnits="userSpaceOnUse" x="0" y="0" width="346" height="48">
<path d="M345.5 0.5H0.5V47.5H345.5V0.5Z" fill="white"/>
</mask>
<g mask="url(#mask0_33_132)">
<path d="M86.825 20.261H88.277V26.179H86.825V20.261ZM86.825 25.805H87.54C88.772 25.805 89.795 25.761 90.972 25.519L91.159 26.74C89.938 27.004 88.838 27.048 87.54 27.048H86.825V25.805ZM93.821 19.293H95.218V29.479H93.821V19.293ZM89.663 22.505H91.984V23.682H89.663V22.505ZM91.665 19.469H93.029V29.028H91.665V19.469ZM96.5591 24.529H105.766V25.695H96.5591V24.529ZM100.42 23.099H101.883V25.057H100.42V23.099ZM97.6701 28.137H104.732V29.303H97.6701V28.137ZM97.6701 26.344H99.1331V28.533H97.6701V26.344ZM101.168 19.546C103.379 19.546 104.853 20.36 104.853 21.647C104.853 22.956 103.379 23.748 101.168 23.748C98.9461 23.748 97.4831 22.956 97.4831 21.647C97.4831 20.36 98.9461 19.546 101.168 19.546ZM101.168 20.712C99.7931 20.712 98.9901 21.031 98.9901 21.647C98.9901 22.274 99.7931 22.582 101.168 22.582C102.543 22.582 103.346 22.274 103.346 21.647C103.346 21.031 102.543 20.712 101.168 20.712ZM110.302 23.836H117.463V25.002H110.302V23.836ZM109.235 27.136H118.453V28.335H109.235V27.136ZM113.096 24.364H114.559V27.521H113.096V24.364ZM110.302 19.986H117.386V21.163H111.765V24.342H110.302V19.986ZM121.829 20.074H123.017V21.559C123.017 24.177 122.115 26.542 120.091 27.477L119.222 26.267C120.993 25.497 121.829 23.539 121.829 21.559V20.074ZM122.115 20.074H123.303V21.559C123.303 23.44 124.106 25.31 125.844 26.058L124.986 27.235C123.017 26.333 122.115 24.067 122.115 21.559V20.074ZM126.328 19.282H127.802V29.501H126.328V19.282ZM134.041 27.4062L133.998 27.8359C133.964 28.1797 133.899 28.5221 133.803 28.8633C133.709 29.207 133.61 29.5182 133.506 29.7969C133.404 30.0755 133.322 30.2943 133.26 30.4531H132.182C132.221 30.2995 132.274 30.0846 132.342 29.8086C132.41 29.5352 132.473 29.2279 132.533 28.8867C132.593 28.5456 132.631 28.1979 132.646 27.8437L132.666 27.4062H134.041ZM145.31 17.606H147.026V29.683H145.31V17.606ZM146.636 22.156H148.768V23.586H146.636V22.156ZM138.082 25.471H139.096C141.137 25.471 142.723 25.406 144.491 25.094L144.66 26.485C142.84 26.81 141.189 26.888 139.096 26.888H138.082V25.471ZM138.069 18.633H143.607V23.3H139.798V26.004H138.082V21.922H141.891V20.011H138.069V18.633ZM154.019 18.308H155.527V19.179C155.527 21.792 153.668 24.106 150.548 24.717L149.807 23.287C152.524 22.819 154.019 20.908 154.019 19.179V18.308ZM154.37 18.308H155.865V19.179C155.865 20.947 157.347 22.819 160.077 23.287L159.336 24.717C156.216 24.106 154.37 21.831 154.37 19.179V18.308ZM149.56 26.784H160.454V28.188H149.56V26.784ZM161.844 18.711H163.469V21.48H165.029V18.711H166.615V26.81H161.844V18.711ZM163.469 22.832V25.419H165.029V22.832H163.469ZM170.203 17.619H171.854V29.657H170.203V17.619ZM166.342 22.013H168.344V23.417H166.342V22.013ZM167.746 17.814H169.371V29.124H167.746V17.814ZM181.161 17.606H182.903V29.644H181.161V17.606ZM182.448 22.208H184.567V23.625H182.448V22.208ZM178.002 18.854H179.692C179.692 22.468 178.314 25.562 174.31 27.577L173.348 26.264C176.507 24.626 178.002 22.416 178.002 19.153V18.854ZM174.011 18.854H178.886V20.245H174.011V18.854ZM189.896 18.308H191.404V19.179C191.404 21.792 189.545 24.106 186.425 24.717L185.684 23.287C188.401 22.819 189.896 20.908 189.896 19.179V18.308ZM190.247 18.308H191.742V19.179C191.742 20.947 193.224 22.819 195.954 23.287L195.213 24.717C192.093 24.106 190.247 21.831 190.247 19.179V18.308ZM185.437 26.784H196.331V28.188H185.437V26.784ZM201.003 18.334H202.706V19.907H205.137V18.334H206.853V24.171H201.003V18.334ZM202.706 21.233V22.819H205.137V21.233H202.706ZM202.186 25.367H210.402V29.657H208.66V26.732H202.186V25.367ZM208.66 17.619H210.402V24.808H208.66V17.619ZM215.055 18.464C216.654 18.464 217.681 20.115 217.681 22.832C217.681 25.562 216.654 27.213 215.055 27.213C213.469 27.213 212.455 25.562 212.455 22.832C212.455 20.115 213.469 18.464 215.055 18.464ZM215.055 20.089C214.405 20.089 214.028 20.999 214.028 22.832C214.028 24.678 214.405 25.575 215.055 25.575C215.718 25.575 216.095 24.678 216.095 22.832C216.095 20.999 215.718 20.089 215.055 20.089ZM221.048 17.619H222.699V29.657H221.048V17.619ZM219.605 22.208H221.594V23.599H219.605V22.208ZM218.409 17.801H220.034V29.111H218.409V17.801ZM225.259 17.944H234.229V19.231H225.259V17.944ZM225.35 20.765H234.138V22.052H225.35V20.765ZM226.793 18.451H228.522V21.597H226.793V18.451ZM230.966 18.451H232.695V21.597H230.966V18.451ZM224.31 22.676H235.191V24.028H224.31V22.676ZM225.558 24.691H233.878V27.681H227.274V28.799H225.571V26.524H232.175V25.926H225.558V24.691ZM225.571 28.318H234.19V29.579H225.571V28.318ZM244.966 17.619H246.617V29.657H244.966V17.619ZM243.523 22.234H245.512V23.638H243.523V22.234ZM242.431 17.827H244.043V29.085H242.431V17.827ZM236.36 18.971H241.859V20.349H236.36V18.971ZM236.334 26.927L236.152 25.523C237.647 25.523 240.156 25.484 241.95 25.237L242.067 26.485C240.221 26.888 237.803 26.927 236.334 26.927ZM237.114 19.855H238.661V25.887H237.114V19.855ZM239.558 19.855H241.105V25.887H239.558V19.855ZM252.7 18.308H254.208V19.179C254.208 21.792 252.349 24.106 249.229 24.717L248.488 23.287C251.205 22.819 252.7 20.908 252.7 19.179V18.308ZM253.051 18.308H254.546V19.179C254.546 20.947 256.028 22.819 258.758 23.287L258.017 24.717C254.897 24.106 253.051 21.831 253.051 19.179V18.308ZM248.241 26.784H259.135V28.188H248.241V26.784Z" fill="white"/>
<path d="M89.142 6.903H89.723V8.31H89.142V6.903ZM91.949 3.718H92.53V8.534H91.949V3.718ZM88.211 9.43H92.684V9.906H88.211V9.43ZM88.211 8.065H88.792V9.563H88.211V8.065ZM87.392 7.12L87.315 6.644C88.484 6.644 90.052 6.63 91.396 6.455L91.438 6.882C90.073 7.099 88.54 7.12 87.392 7.12ZM90.661 7.456H92.096V7.883H90.661V7.456ZM89.373 3.977C90.297 3.977 90.927 4.411 90.927 5.076C90.927 5.748 90.297 6.182 89.373 6.182C88.442 6.182 87.812 5.748 87.812 5.076C87.812 4.411 88.442 3.977 89.373 3.977ZM89.373 4.411C88.778 4.411 88.365 4.67 88.365 5.076C88.365 5.482 88.778 5.741 89.373 5.741C89.961 5.741 90.374 5.482 90.374 5.076C90.374 4.67 89.961 4.411 89.373 4.411ZM94.1045 8.002H94.5875C95.7635 8.002 96.5195 7.974 97.4015 7.806L97.4645 8.282C96.5545 8.45 95.7915 8.492 94.5875 8.492H94.1045V8.002ZM94.1045 4.32H96.9815V4.796H94.6785V8.184H94.1045V4.32ZM98.4235 3.718H99.0045V10.06H98.4235V3.718ZM96.6105 6.007H98.6615V6.49H96.6105V6.007ZM105.003 3.718H105.556V8.429H105.003V3.718ZM103.988 5.608H105.178V6.091H103.988V5.608ZM103.61 3.837H104.156V8.254H103.61V3.837ZM101.433 9.43H105.752V9.906H101.433V9.43ZM101.433 8.002H102.014V9.598H101.433V8.002ZM100.516 7.015H100.922C101.811 7.015 102.469 6.987 103.246 6.833L103.302 7.302C102.504 7.456 101.839 7.491 100.922 7.491H100.516V7.015ZM100.502 4.264H102.882V6.07H101.076V7.267H100.516V5.629H102.322V4.733H100.502V4.264ZM107.389 6.749H111.736V7.225H107.389V6.749ZM106.668 8.709H112.401V9.192H106.668V8.709ZM107.389 4.299H111.673V4.782H107.97V6.959H107.389V4.299ZM114.07 4.40909L114.021 8.06818H113.444L113.394 4.40909H114.07ZM113.732 9.53977C113.61 9.53977 113.504 9.49586 113.417 9.40803C113.329 9.32019 113.285 9.21496 113.285 9.09233C113.285 8.9697 113.329 8.86446 113.417 8.77663C113.504 8.6888 113.61 8.64489 113.732 8.64489C113.855 8.64489 113.96 8.6888 114.048 8.77663C114.136 8.86446 114.18 8.9697 114.18 9.09233C114.18 9.17353 114.159 9.24811 114.118 9.31605C114.078 9.384 114.024 9.43868 113.956 9.48011C113.89 9.51989 113.815 9.53977 113.732 9.53977ZM119.517 5.979H120.728V6.462H119.517V5.979ZM118.334 4.313H118.789V5.517C118.789 6.84 118.236 8.121 117.312 8.688L116.948 8.247C117.816 7.736 118.334 6.602 118.334 5.517V4.313ZM118.446 4.313H118.894V5.496C118.894 6.511 119.37 7.589 120.203 8.093L119.867 8.548C118.957 7.988 118.446 6.728 118.446 5.496V4.313ZM121.841 3.718H122.401V10.046H121.841V3.718ZM120.56 3.851H121.106V9.731H120.56V3.851ZM125.914 5.475H127.321V5.944H125.914V5.475ZM125.865 7.064H127.307V7.533H125.865V7.064ZM128.28 3.718H128.84V10.046H128.28V3.718ZM127.013 3.879H127.559V9.724H127.013V3.879ZM125.599 4.516H126.159C126.159 6.175 125.494 7.666 123.793 8.681L123.457 8.268C124.934 7.372 125.599 6.112 125.599 4.621V4.516ZM123.737 4.516H125.83V4.992H123.737V4.516ZM134.56 5.524H135.638V6H134.56V5.524ZM133.37 4.208C134.196 4.208 134.805 4.845 134.805 5.748C134.805 6.651 134.196 7.288 133.37 7.288C132.53 7.288 131.928 6.651 131.928 5.748C131.928 4.845 132.53 4.208 133.37 4.208ZM133.37 4.712C132.845 4.712 132.453 5.139 132.453 5.748C132.453 6.357 132.845 6.791 133.37 6.791C133.888 6.791 134.28 6.357 134.28 5.748C134.28 5.139 133.888 4.712 133.37 4.712ZM136.646 3.718H137.199V8.45H136.646V3.718ZM135.449 3.844H136.002V8.268H135.449V3.844ZM133.076 9.43H137.395V9.906H133.076V9.43ZM133.076 7.841H133.657V9.647H133.076V7.841ZM142.946 3.711H143.52V10.053H142.946V3.711ZM141.63 6.098H143.03V6.581H141.63V6.098ZM138.599 8.051H139.082C140.272 8.051 141.021 8.03 141.91 7.862L141.966 8.338C141.056 8.499 140.286 8.534 139.082 8.534H138.599V8.051ZM138.599 4.292H141.525V4.775H139.173V8.219H138.599V4.292ZM139.026 6.07H141.252V6.539H139.026V6.07ZM147.376 6.112H148.566V6.595H147.376V6.112ZM144.982 8.051H145.388C146.361 8.051 146.942 8.03 147.642 7.89L147.698 8.366C146.977 8.506 146.375 8.527 145.388 8.527H144.982V8.051ZM144.982 4.481H147.327V4.95H145.535V8.212H144.982V4.481ZM145.367 6.189H147.04V6.651H145.367V6.189ZM149.56 3.718H150.12V10.046H149.56V3.718ZM148.286 3.865H148.839V9.724H148.286V3.865ZM155.79 3.725H156.378V8.345H155.79V3.725ZM152.311 9.43H156.567V9.906H152.311V9.43ZM152.311 7.869H152.885V9.591H152.311V7.869ZM152.983 4.159C153.928 4.159 154.628 4.803 154.628 5.72C154.628 6.63 153.928 7.281 152.983 7.281C152.038 7.281 151.331 6.63 151.331 5.72C151.331 4.803 152.038 4.159 152.983 4.159ZM152.983 4.663C152.367 4.663 151.898 5.097 151.898 5.72C151.898 6.336 152.367 6.77 152.983 6.77C153.599 6.77 154.068 6.336 154.068 5.72C154.068 5.097 153.599 4.663 152.983 4.663ZM157.917 4.264H160.808V7.211H157.917V4.264ZM160.234 4.733H158.484V6.742H160.234V4.733ZM162.25 3.725H162.831V8.345H162.25V3.725ZM160.64 5.475H162.418V5.951H160.64V5.475ZM158.792 9.43H163.006V9.906H158.792V9.43ZM158.792 7.918H159.373V9.64H158.792V7.918ZM164.805 7.127H169.152V7.596H164.805V7.127ZM164.07 8.751H169.803V9.234H164.07V8.751ZM164.805 4.257H169.082V4.733H165.393V7.274H164.805V4.257ZM165.204 5.671H168.949V6.133H165.204V5.671ZM172.56 4.173C173.547 4.173 174.254 4.782 174.254 5.664C174.254 6.553 173.547 7.162 172.56 7.162C171.573 7.162 170.859 6.553 170.859 5.664C170.859 4.782 171.573 4.173 172.56 4.173ZM172.56 4.677C171.902 4.677 171.426 5.076 171.426 5.664C171.426 6.252 171.902 6.658 172.56 6.658C173.211 6.658 173.687 6.252 173.687 5.664C173.687 5.076 173.211 4.677 172.56 4.677ZM175.08 3.711H175.661V10.053H175.08V3.711ZM170.621 8.667L170.537 8.184C171.692 8.184 173.288 8.177 174.667 7.96L174.716 8.387C173.295 8.66 171.748 8.667 170.621 8.667ZM181.479 6.882H182.06V7.988H181.479V6.882ZM178.91 6.679H184.629V7.148H178.91V6.679ZM181.766 7.813C183.124 7.813 183.936 8.212 183.936 8.926C183.936 9.633 183.124 10.032 181.766 10.032C180.408 10.032 179.596 9.633 179.596 8.926C179.596 8.212 180.408 7.813 181.766 7.813ZM181.766 8.261C180.779 8.261 180.184 8.499 180.184 8.926C180.184 9.346 180.779 9.584 181.766 9.584C182.76 9.584 183.348 9.346 183.348 8.926C183.348 8.499 182.76 8.261 181.766 8.261ZM181.395 4.236H181.913V4.425C181.913 5.447 180.751 6.133 179.442 6.294L179.232 5.832C180.366 5.713 181.395 5.146 181.395 4.425V4.236ZM181.64 4.236H182.151V4.425C182.151 5.146 183.18 5.713 184.314 5.832L184.104 6.294C182.795 6.133 181.64 5.447 181.64 4.425V4.236ZM179.435 4.005H184.118V4.474H179.435V4.005ZM189.956 3.725H190.544V7.316H189.956V3.725ZM186.456 7.68H190.544V9.962H186.456V7.68ZM189.97 8.142H187.023V9.493H189.97V8.142ZM187.002 3.963H187.485V4.579C187.485 5.755 186.757 6.763 185.686 7.162L185.399 6.7C186.351 6.357 187.002 5.503 187.002 4.579V3.963ZM187.107 3.963H187.583V4.579C187.583 5.475 188.241 6.266 189.179 6.581L188.892 7.036C187.835 6.672 187.107 5.727 187.107 4.579V3.963Z" fill="white"/>
<path d="M95.9475 38.4145H96.474V39.3245H98.164V38.4145H98.697V41.19H95.9475V38.4145ZM96.474 39.7535V40.761H98.164V39.7535H96.474ZM96.5325 41.9375H100.459V43.933H99.9125V42.373H96.5325V41.9375ZM99.9125 38.057H100.459V41.6125H99.9125V38.057ZM102.941 38.5445C103.702 38.5445 104.196 39.331 104.196 40.592C104.196 41.853 103.702 42.6395 102.941 42.6395C102.181 42.6395 101.693 41.853 101.693 40.592C101.693 39.331 102.181 38.5445 102.941 38.5445ZM102.941 39.045C102.48 39.045 102.187 39.643 102.187 40.592C102.187 41.541 102.48 42.139 102.941 42.139C103.403 42.139 103.695 41.541 103.695 40.592C103.695 39.643 103.403 39.045 102.941 39.045ZM106.094 38.057H106.614V43.933H106.094V38.057ZM105.164 40.384H106.289V40.826H105.164V40.384ZM104.794 38.1805H105.307V43.6405H104.794V38.1805ZM108.089 38.2325H112.405V38.655H108.089V38.2325ZM108.115 39.773H112.379V40.189H108.115V39.773ZM108.979 38.395H109.519V40.046H108.979V38.395ZM110.981 38.395H111.514V40.046H110.981V38.395ZM107.595 40.6765H112.905V41.112H107.595V40.6765ZM108.238 41.6255H112.229V42.9125H108.784V43.621H108.251V42.529H111.696V42.0285H108.238V41.6255ZM108.251 43.4585H112.405V43.868H108.251V43.4585ZM118.052 38.057H118.572V43.933H118.052V38.057ZM117.123 40.4165H118.247V40.865H117.123V40.4165ZM116.778 38.187H117.285V43.634H116.778V38.187ZM113.632 38.7915H116.349V39.2335H113.632V38.7915ZM113.58 42.49L113.515 42.035C114.289 42.035 115.563 42.009 116.46 41.892L116.499 42.2885C115.569 42.464 114.347 42.49 113.58 42.49ZM114.133 39.0775H114.627V42.152H114.133V39.0775ZM115.355 39.0775H115.849V42.152H115.355V39.0775ZM121.913 38.46H122.381V38.9085C122.381 40.189 121.191 41.1835 120.015 41.45L119.774 41.0015C120.808 40.8065 121.913 39.9095 121.913 38.9085V38.46ZM122.01 38.46H122.478V38.9085C122.478 39.916 123.59 40.8065 124.617 41.0015L124.376 41.45C123.206 41.1835 122.01 40.1955 122.01 38.9085V38.46ZM119.56 42.698H124.883V43.14H119.56V42.698ZM125.539 42.763H130.863V43.2115H125.539V42.763ZM127.918 41.502H128.458V42.9515H127.918V41.502ZM126.183 38.4925H130.206V40.2735H126.735V41.45H126.202V39.838H129.673V38.928H126.183V38.4925ZM126.202 41.2225H130.343V41.6645H126.202V41.2225ZM135.109 40.787H135.642V41.892H135.109V40.787ZM134.264 41.723H134.803V42.3535H137.592V41.723H138.125V43.855H134.264V41.723ZM134.803 42.776V43.4195H137.592V42.776H134.803ZM137.585 38.057H138.125V41.4305H137.585V38.057ZM133.425 41.073L133.354 40.631C134.452 40.631 135.915 40.6245 137.195 40.4555L137.234 40.8455C135.921 41.0665 134.498 41.073 133.425 41.073ZM135.037 38.2H135.473V38.4925C135.473 39.344 134.829 40.0135 133.848 40.2605L133.607 39.851C134.465 39.643 135.037 39.11 135.037 38.4925V38.2ZM135.154 38.2H135.596V38.4925C135.596 39.0905 136.175 39.5845 137.013 39.76L136.786 40.176C135.811 39.9485 135.154 39.318 135.154 38.4925V38.2ZM139.886 38.642H143.669V39.0905H139.886V38.642ZM139.327 42.6655H144.637V43.114H139.327V42.6655ZM141.387 40.566H141.927V42.8865H141.387V40.566ZM143.467 38.642H144V39.227C144 39.955 144 40.761 143.786 41.9505L143.246 41.879C143.467 40.7545 143.467 39.929 143.467 39.227V38.642ZM151.411 38.0505H151.951V43.9395H151.411V38.0505ZM147.472 42.074H147.96C148.941 42.074 149.819 42.035 150.859 41.866L150.917 42.308C149.851 42.4835 148.967 42.5225 147.96 42.5225H147.472V42.074ZM147.459 38.603H150.176V40.7025H148.012V42.243H147.472V40.2605H149.63V39.045H147.459V38.603ZM157.092 38.057H157.631V43.933H157.092V38.057ZM157.501 40.4685H158.593V40.9235H157.501V40.4685ZM153.081 38.993H156.546V39.435H153.081V38.993ZM154.836 39.9225C155.668 39.9225 156.266 40.4815 156.266 41.2745C156.266 42.0675 155.668 42.6265 154.836 42.6265C154.011 42.6265 153.406 42.0675 153.406 41.2745C153.406 40.4815 154.011 39.9225 154.836 39.9225ZM154.836 40.371C154.303 40.371 153.92 40.7415 153.92 41.2745C153.92 41.801 154.303 42.178 154.836 42.178C155.369 42.178 155.753 41.801 155.753 41.2745C155.753 40.7415 155.369 40.371 154.836 40.371ZM154.557 38.1285H155.096V39.1945H154.557V38.1285ZM163.565 38.057H164.085V43.933H163.565V38.057ZM161.017 40.4555H162.499V40.891H161.017V40.4555ZM162.343 38.2065H162.85V43.634H162.343V38.2065ZM161.089 38.798H161.609C161.609 40.3385 160.991 41.723 159.405 42.6655L159.087 42.282C160.471 41.45 161.089 40.28 161.089 38.8955V38.798ZM159.347 38.798H161.29V39.24H159.347V38.798Z" fill="white"/>
<path d="M90.5848 38.905H87.5848V44.415H93.1849V41.2319" stroke="white"/>
<path d="M88.5042 40.4949L90.3412 42.637L94.2279 37.9241" stroke="white"/>
</g>
</g>
<defs>
<clipPath id="clip0_33_132">
<rect width="345" height="47" fill="white" transform="translate(0.5 0.5)"/>
</clipPath>
</defs>
</svg>
