<svg width="800" height="109" viewBox="0 0 800 109" fill="none" xmlns="http://www.w3.org/2000/svg">
<g clip-path="url(#clip0_78_2)">
<mask id="mask0_78_2" style="mask-type:luminance" maskUnits="userSpaceOnUse" x="0" y="0" width="800" height="109">
<path d="M800 0H0V109H800V0Z" fill="white"/>
</mask>
<g mask="url(#mask0_78_2)">
<path d="M75.698 60.184H78.168C83.298 60.184 86.566 60.108 90.518 59.5L90.936 63.604C86.908 64.288 83.412 64.364 78.168 64.364H75.698V60.184ZM75.698 40.842H89.91V44.87H80.486V61.856H75.698V40.842ZM79.118 50.038H89.226V53.952H79.118V50.038ZM99.942 37.194H104.768V72.382H99.942V37.194ZM95.724 50.798H101.538V54.864H95.724V50.798ZM92.342 37.726H97.092V70.786H92.342V37.726ZM135.621 41.526H141.701V45.63H135.621V41.526ZM135.621 49.164H141.701V53.268H135.621V49.164ZM119.281 39.094C124.715 39.094 128.857 42.666 128.857 47.644C128.857 52.584 124.715 56.156 119.281 56.156C113.847 56.156 109.705 52.584 109.705 47.644C109.705 42.666 113.847 39.094 119.281 39.094ZM119.281 43.312C116.621 43.312 114.645 44.946 114.645 47.644C114.645 50.38 116.621 51.938 119.281 51.938C121.941 51.938 123.917 50.38 123.917 47.644C123.917 44.946 121.941 43.312 119.281 43.312ZM132.125 37.194H137.179V57.714H132.125V37.194ZM125.703 58.474C132.961 58.474 137.597 61.096 137.597 65.428C137.597 69.798 132.961 72.382 125.703 72.382C118.407 72.382 113.771 69.798 113.771 65.428C113.771 61.096 118.407 58.474 125.703 58.474ZM125.703 62.464C121.219 62.464 118.787 63.414 118.787 65.428C118.787 67.48 121.219 68.43 125.703 68.43C130.187 68.43 132.581 67.48 132.581 65.428C132.581 63.414 130.187 62.464 125.703 62.464ZM155.758 39.512C161.306 39.512 165.448 43.122 165.448 48.176C165.448 53.268 161.306 56.878 155.758 56.878C150.248 56.878 146.03 53.268 146.03 48.176C146.03 43.122 150.248 39.512 155.758 39.512ZM155.758 43.844C153.06 43.844 151.008 45.44 151.008 48.176C151.008 50.95 153.06 52.546 155.758 52.546C158.456 52.546 160.508 50.95 160.508 48.176C160.508 45.44 158.456 43.844 155.758 43.844ZM168.754 37.156H173.808V72.458H168.754V37.156ZM145.194 65.314L144.586 61.248C150.78 61.248 159.406 61.172 166.816 60.07L167.196 63.718C159.558 65.238 151.274 65.314 145.194 65.314ZM205.932 48.176H215.204V52.242H205.932V48.176ZM196.356 39.892H200.46V44.984C200.46 53.838 197.458 62.008 190.846 65.314L187.692 61.248C193.696 58.474 196.356 51.672 196.356 44.984V39.892ZM197.42 39.892H201.448V44.984C201.448 51.672 203.994 58.094 209.808 60.678L206.806 64.706C200.194 61.514 197.42 53.762 197.42 44.984V39.892ZM212.696 37.156H217.712V72.458H212.696V37.156ZM236.139 40.576H241.041C241.041 51.406 238.229 60.488 225.613 67.1L222.839 63.262C233.213 57.79 236.139 51.14 236.139 41.184V40.576ZM224.929 40.576H239.217V44.566H224.929V40.576ZM236.633 49.202V53.04L223.713 54.218L223.067 49.962L236.633 49.202ZM247.539 37.194H252.593V72.382H247.539V37.194ZM241.003 50.684H250.199V54.788H241.003V50.684ZM271.172 39.208H275.58V41.754C275.58 49.392 270.146 56.156 261.026 57.942L258.86 53.762C266.802 52.394 271.172 46.808 271.172 41.754V39.208ZM272.198 39.208H276.568V41.754C276.568 46.922 280.9 52.394 288.88 53.762L286.714 57.942C277.594 56.156 272.198 49.506 272.198 41.754V39.208ZM258.138 63.984H289.982V68.088H258.138V63.984ZM300.079 65.2216L299.931 66.706C299.814 67.8935 299.589 69.0765 299.256 70.255C298.932 71.4425 298.59 72.5175 298.23 73.4801C297.879 74.4427 297.596 75.1984 297.38 75.7472H293.656C293.791 75.2164 293.975 74.4742 294.209 73.5206C294.443 72.576 294.663 71.5144 294.87 70.3359C295.077 69.1574 295.208 67.9564 295.262 66.733L295.329 65.2216H300.079ZM340.255 32.966H345.931V72.913H340.255V32.966ZM344.641 48.016H351.693V52.746H344.641V48.016ZM316.347 58.981H319.701C326.452 58.981 331.698 58.766 337.546 57.734L338.105 62.335C332.085 63.41 326.624 63.668 319.701 63.668H316.347V58.981ZM316.304 36.363H334.622V51.8H322.023V60.744H316.347V47.242H328.946V40.921H316.304V36.363ZM369.062 35.288H374.05V38.169C374.05 46.812 367.901 54.466 357.581 56.487L355.13 51.757C364.117 50.209 369.062 43.888 369.062 38.169V35.288ZM370.223 35.288H375.168V38.169C375.168 44.017 380.07 50.209 389.1 51.757L386.649 56.487C376.329 54.466 370.223 46.941 370.223 38.169V35.288ZM354.313 63.324H390.347V67.968H354.313V63.324ZM394.944 36.621H400.319V45.78H405.479V36.621H410.725V63.41H394.944V36.621ZM400.319 50.252V58.809H405.479V50.252H400.319ZM422.593 33.009H428.054V72.827H422.593V33.009ZM409.822 47.543H416.444V52.187H409.822V47.543ZM414.466 33.654H419.841V71.064H414.466V33.654ZM458.839 32.966H464.601V72.784H458.839V32.966ZM463.096 48.188H470.105V52.875H463.096V48.188ZM448.39 37.094H453.98C453.98 49.048 449.422 59.282 436.178 65.947L432.996 61.604C443.445 56.186 448.39 48.876 448.39 38.083V37.094ZM435.189 37.094H451.314V41.695H435.189V37.094ZM487.732 35.288H492.72V38.169C492.72 46.812 486.571 54.466 476.251 56.487L473.8 51.757C482.787 50.209 487.732 43.888 487.732 38.169V35.288ZM488.893 35.288H493.838V38.169C493.838 44.017 498.74 50.209 507.77 51.757L505.319 56.487C494.999 54.466 488.893 46.941 488.893 38.169V35.288ZM472.983 63.324H509.017V67.968H472.983V63.324ZM531.307 55.627H536.983V66.076H531.307V55.627ZM543.992 55.627H549.668V66.076H543.992V55.627ZM522.492 63.582H558.526V68.269H522.492V63.582ZM537.241 35.159H542.229V37.997C542.229 46.296 536.08 53.477 525.588 55.24L523.266 50.553C532.382 49.134 537.241 43.329 537.241 37.997V35.159ZM538.359 35.159H543.347V37.997C543.347 43.415 548.163 49.134 557.365 50.553L555.043 55.24C544.508 53.434 538.359 46.382 538.359 37.997V35.159ZM582.423 69.4581C580.265 69.4581 578.402 69.0713 576.834 68.2976C575.266 67.5239 574.06 66.4754 573.215 65.152C572.38 63.8184 571.963 62.3321 571.963 60.6932C571.963 59.4716 572.207 58.3874 572.696 57.4407C573.184 56.494 573.866 55.6236 574.742 54.8295C575.617 54.0253 576.635 53.2262 577.796 52.4322L583.858 48.4467C584.642 47.9479 585.217 47.4236 585.584 46.8739C585.95 46.314 586.133 45.7083 586.133 45.0568C586.133 44.4358 585.884 43.8607 585.385 43.3313C584.886 42.802 584.179 42.5424 583.263 42.5526C582.652 42.5526 582.122 42.69 581.674 42.9648C581.227 43.2295 580.875 43.5807 580.621 44.0185C580.377 44.446 580.254 44.9245 580.254 45.4538C580.254 46.1053 580.438 46.767 580.804 47.4389C581.171 48.1108 581.659 48.8234 582.27 49.5767C582.881 50.3198 583.548 51.1241 584.27 51.9893L599.097 69H592.318L579.949 55.2266C579.135 54.3002 578.32 53.3331 577.506 52.3253C576.702 51.3073 576.03 50.2282 575.49 49.0881C574.951 47.9377 574.681 46.6907 574.681 45.3469C574.681 43.8301 575.032 42.466 575.734 41.2546C576.447 40.0432 577.445 39.0863 578.727 38.3839C580.01 37.6713 581.506 37.315 583.217 37.315C584.886 37.315 586.327 37.656 587.538 38.3381C588.76 39.0099 589.696 39.9058 590.348 41.0256C591.009 42.1352 591.34 43.3568 591.34 44.6903C591.34 46.1664 590.974 47.5051 590.241 48.7063C589.518 49.8974 588.5 50.9663 587.187 51.913L580.804 56.5092C579.939 57.1404 579.297 57.7868 578.88 58.4485C578.473 59.1 578.269 59.7261 578.269 60.3267C578.269 61.0698 578.453 61.7366 578.819 62.3271C579.185 62.9175 579.705 63.3858 580.377 63.7319C581.048 64.0678 581.837 64.2358 582.743 64.2358C583.843 64.2358 584.927 63.9864 585.996 63.4876C587.075 62.9786 588.052 62.2609 588.928 61.3345C589.813 60.398 590.521 59.2884 591.05 58.0057C591.58 56.723 591.844 55.3029 591.844 53.7454H597.234C597.234 55.6592 597.026 57.3847 596.608 58.9219C596.191 60.4489 595.611 61.7824 594.868 62.9226C594.124 64.0526 593.274 64.9789 592.318 65.7017C592.012 65.8951 591.717 66.0784 591.432 66.2514C591.147 66.4245 590.852 66.6077 590.546 66.8011C589.386 67.7377 588.088 68.4147 586.652 68.832C585.227 69.2494 583.817 69.4581 582.423 69.4581ZM619.14 56.358H624.859V72.956H619.14V56.358ZM633.158 56.358H638.877V72.956H633.158V56.358ZM610.884 55.197H646.961V59.755H610.884V55.197ZM615.055 34.901H642.661V50.94H615.055V34.901ZM637.028 39.373H620.688V46.425H637.028V39.373ZM660.03 39.287H664.588V43.759C664.588 52.961 660.847 61.948 653.365 65.345L650.14 60.83C656.805 57.863 660.03 50.51 660.03 43.759V39.287ZM661.32 39.287H665.835V43.759C665.835 50.209 669.017 57.089 675.682 59.841L672.586 64.356C665.018 61.088 661.32 52.617 661.32 43.759V39.287ZM651.731 36.836H674.048V41.523H651.731V36.836ZM677.746 33.009H683.508V72.827H677.746V33.009ZM710.809 41.523H718.463V46.081H710.809V41.523ZM704.746 34.729H710.723C710.723 45.479 705.477 51.757 692.749 54.724L690.685 50.381C701.607 48.016 704.746 43.415 704.746 37.567V34.729ZM692.878 34.729H708.874V39.115H692.878V34.729ZM705.907 41.351V45.092L691.674 46.124L690.9 41.824L705.907 41.351ZM717.603 33.009H723.322V53.09H717.603V33.009ZM697.006 54.638H723.322V65.474H702.725V70.376H697.092V61.346H717.646V59.067H697.006V54.638ZM697.092 67.968H724.139V72.397H697.092V67.968Z" fill="white"/>
<path d="M76.7869 4.86364V20.5H74.8935V4.86364H76.7869ZM85.4392 8.77273V10.2997H79.3618V8.77273H85.4392ZM81.1331 5.96307H82.935V17.1406C82.935 17.6496 83.0088 18.0314 83.1564 18.2859C83.3091 18.5353 83.5025 18.7032 83.7366 18.7898C83.9759 18.8712 84.2278 18.9119 84.4925 18.9119C84.691 18.9119 84.8539 18.9018 84.9811 18.8814C85.1084 18.8559 85.2102 18.8356 85.2865 18.8203L85.653 20.4389C85.5309 20.4847 85.3603 20.5305 85.1415 20.5763C84.9226 20.6272 84.6452 20.6527 84.3093 20.6527C83.8003 20.6527 83.3014 20.5433 82.8128 20.3244C82.3293 20.1055 81.9272 19.7721 81.6065 19.3242C81.2909 18.8763 81.1331 18.3113 81.1331 17.6293V5.96307ZM89.7072 4.86364V10.2386H88.0275V4.86364H89.7072ZM101.223 11.3991L99.604 11.8572C99.5022 11.5875 99.352 11.3253 99.1535 11.0708C98.9601 10.8113 98.6954 10.5975 98.3595 10.4295C98.0235 10.2615 97.5934 10.1776 97.0692 10.1776C96.3515 10.1776 95.7534 10.343 95.2749 10.6738C94.8016 10.9996 94.5649 11.4144 94.5649 11.9183C94.5649 12.3662 94.7278 12.72 95.0535 12.9796C95.3793 13.2392 95.8883 13.4555 96.5805 13.6286L98.3213 14.0561C99.3698 14.3106 100.151 14.7 100.665 15.2243C101.179 15.7434 101.436 16.4128 101.436 17.2322C101.436 17.9041 101.243 18.5047 100.856 19.0341C100.474 19.5634 99.9399 19.9808 99.2528 20.2862C98.5656 20.5916 97.7665 20.7443 96.8554 20.7443C95.6592 20.7443 94.6692 20.4847 93.8854 19.9656C93.1015 19.4464 92.6053 18.688 92.3966 17.6903L94.1068 17.2628C94.2697 17.8939 94.5776 18.3673 95.0306 18.6829C95.4887 18.9985 96.0868 19.1562 96.8248 19.1562C97.6647 19.1562 98.3315 18.9781 98.8252 18.6218C99.324 18.2604 99.5734 17.8278 99.5734 17.3239C99.5734 16.9167 99.4309 16.5756 99.1459 16.3008C98.8608 16.0208 98.4231 15.8121 97.8327 15.6747L95.8781 15.2166C94.8041 14.9621 94.0152 14.5676 93.5113 14.0332C93.0125 13.4937 92.7631 12.8192 92.7631 12.0099C92.7631 11.3482 92.9488 10.7629 93.3204 10.2539C93.6971 9.74491 94.2086 9.34535 94.855 9.05522C95.5065 8.76509 96.2446 8.62003 97.0692 8.62003C98.2297 8.62003 99.1408 8.87453 99.8025 9.38352C100.469 9.89252 100.943 10.5644 101.223 11.3991ZM118.991 8.77273C118.899 7.99905 118.528 7.39844 117.876 6.97088C117.225 6.54332 116.426 6.32954 115.479 6.32954C114.787 6.32954 114.181 6.44152 113.662 6.66548C113.148 6.88944 112.746 7.19738 112.455 7.58931C112.17 7.98124 112.028 8.42661 112.028 8.92543C112.028 9.3428 112.127 9.70164 112.326 10.002C112.529 10.2972 112.789 10.544 113.104 10.7425C113.42 10.936 113.751 11.0963 114.097 11.2235C114.443 11.3457 114.761 11.445 115.051 11.5213L116.639 11.9489C117.047 12.0558 117.5 12.2034 117.998 12.3917C118.502 12.58 118.983 12.8371 119.441 13.1628C119.905 13.4835 120.286 13.8958 120.587 14.3997C120.887 14.9036 121.037 15.522 121.037 16.255C121.037 17.0999 120.816 17.8634 120.373 18.5455C119.935 19.2275 119.294 19.7696 118.449 20.1717C117.609 20.5738 116.589 20.7749 115.387 20.7749C114.268 20.7749 113.298 20.5942 112.478 20.2328C111.664 19.8714 111.023 19.3675 110.554 18.7211C110.091 18.0746 109.829 17.3239 109.768 16.4688H111.723C111.773 17.0592 111.972 17.5478 112.318 17.9347C112.669 18.3164 113.112 18.6014 113.647 18.7898C114.186 18.973 114.766 19.0646 115.387 19.0646C116.11 19.0646 116.759 18.9476 117.334 18.7134C117.909 18.4742 118.365 18.1433 118.701 17.7209C119.037 17.2933 119.205 16.7945 119.205 16.2244C119.205 15.7053 119.06 15.2828 118.77 14.957C118.479 14.6313 118.098 14.3666 117.624 14.163C117.151 13.9594 116.639 13.7812 116.09 13.6286L114.166 13.0788C112.944 12.7276 111.977 12.2263 111.264 11.5748C110.552 10.9232 110.196 10.0707 110.196 9.01704C110.196 8.14157 110.432 7.37808 110.906 6.72656C111.384 6.06996 112.025 5.56096 112.83 5.19957C113.639 4.8331 114.542 4.64986 115.54 4.64986C116.548 4.64986 117.444 4.83055 118.227 5.19194C119.011 5.54824 119.632 6.03687 120.09 6.65785C120.554 7.27882 120.798 7.98378 120.823 8.77273H118.991ZM125.708 13.4453V20.5H123.906V4.86364H125.708V10.6051H125.861C126.135 9.99941 126.548 9.51841 127.097 9.16211C127.652 8.80072 128.39 8.62003 129.312 8.62003C130.111 8.62003 130.811 8.78036 131.411 9.10103C132.012 9.41661 132.477 9.9027 132.808 10.5593C133.144 11.2108 133.312 12.0405 133.312 13.0483V20.5H131.51V13.1705C131.51 12.239 131.269 11.5188 130.785 11.0098C130.307 10.4957 129.642 10.2386 128.792 10.2386C128.202 10.2386 127.673 10.3633 127.204 10.6127C126.741 10.8622 126.375 11.2261 126.105 11.7045C125.84 12.183 125.708 12.7633 125.708 13.4453ZM141.373 20.7443C140.314 20.7443 139.385 20.4924 138.586 19.9885C137.792 19.4846 137.171 18.7796 136.723 17.8736C136.28 16.9676 136.059 15.9089 136.059 14.6974C136.059 13.4759 136.28 12.4095 136.723 11.4984C137.171 10.5873 137.792 9.87979 138.586 9.37589C139.385 8.87198 140.314 8.62003 141.373 8.62003C142.432 8.62003 143.358 8.87198 144.152 9.37589C144.951 9.87979 145.572 10.5873 146.015 11.4984C146.463 12.4095 146.687 13.4759 146.687 14.6974C146.687 15.9089 146.463 16.9676 146.015 17.8736C145.572 18.7796 144.951 19.4846 144.152 19.9885C143.358 20.4924 142.432 20.7443 141.373 20.7443ZM141.373 19.1257C142.177 19.1257 142.839 18.9196 143.358 18.5073C143.877 18.095 144.261 17.5529 144.511 16.881C144.76 16.2092 144.885 15.4813 144.885 14.6974C144.885 13.9136 144.76 13.1832 144.511 12.5062C144.261 11.8292 143.877 11.2821 143.358 10.8647C142.839 10.4473 142.177 10.2386 141.373 10.2386C140.569 10.2386 139.907 10.4473 139.388 10.8647C138.869 11.2821 138.484 11.8292 138.235 12.5062C137.985 13.1832 137.861 13.9136 137.861 14.6974C137.861 15.4813 137.985 16.2092 138.235 16.881C138.484 17.5529 138.869 18.095 139.388 18.5073C139.907 18.9196 140.569 19.1257 141.373 19.1257ZM151.695 20.5L148.122 8.77273H150.016L152.55 17.7514H152.673L155.177 8.77273H157.101L159.575 17.7209H159.697L162.231 8.77273H164.125L160.552 20.5H158.78L156.215 11.4908H156.032L153.467 20.5H151.695ZM171.943 6.54332V4.86364H183.67V6.54332H178.754V20.5H176.86V6.54332H171.943ZM186.348 20.5V8.77273H188.15V20.5H186.348ZM187.265 6.81818C186.913 6.81818 186.61 6.69857 186.356 6.45934C186.107 6.22011 185.982 5.93253 185.982 5.59659C185.982 5.26065 186.107 4.97307 186.356 4.73384C186.61 4.49461 186.913 4.375 187.265 4.375C187.616 4.375 187.916 4.49461 188.165 4.73384C188.42 4.97307 188.547 5.26065 188.547 5.59659C188.547 5.93253 188.42 6.22011 188.165 6.45934C187.916 6.69857 187.616 6.81818 187.265 6.81818ZM191.45 20.5V8.77273H193.191V10.6051H193.344C193.588 9.97905 193.983 9.49296 194.527 9.14684C195.072 8.79563 195.726 8.62003 196.489 8.62003C197.263 8.62003 197.907 8.79563 198.421 9.14684C198.94 9.49296 199.345 9.97905 199.635 10.6051H199.757C200.058 9.99941 200.508 9.51841 201.109 9.16211C201.709 8.80072 202.429 8.62003 203.269 8.62003C204.318 8.62003 205.176 8.94833 205.842 9.60494C206.509 10.2565 206.842 11.2719 206.842 12.6513V20.5H205.041V12.6513C205.041 11.786 204.804 11.1676 204.331 10.796C203.857 10.4244 203.3 10.2386 202.659 10.2386C201.834 10.2386 201.195 10.488 200.742 10.9869C200.289 11.4806 200.063 12.1067 200.063 12.8651V20.5H198.23V12.468C198.23 11.8013 198.014 11.2643 197.581 10.8571C197.149 10.4448 196.591 10.2386 195.909 10.2386C195.441 10.2386 195.003 10.3633 194.596 10.6127C194.194 10.8622 193.868 11.2083 193.619 11.6511C193.374 12.0888 193.252 12.5953 193.252 13.1705V20.5H191.45ZM215.054 20.7443C213.924 20.7443 212.949 20.4949 212.13 19.9961C211.315 19.4922 210.687 18.7898 210.244 17.8888C209.806 16.9828 209.587 15.9292 209.587 14.728C209.587 13.5268 209.806 12.468 210.244 11.5518C210.687 10.6306 211.303 9.91288 212.091 9.39879C212.886 8.87962 213.812 8.62003 214.871 8.62003C215.481 8.62003 216.085 8.72183 216.68 8.92543C217.276 9.12902 217.818 9.45987 218.306 9.91797C218.795 10.371 219.184 10.9716 219.474 11.7198C219.765 12.468 219.91 13.3893 219.91 14.4837V15.2472H210.87V13.6896H218.077C218.077 13.0279 217.945 12.4375 217.68 11.9183C217.421 11.3991 217.049 10.9894 216.566 10.6891C216.087 10.3888 215.522 10.2386 214.871 10.2386C214.153 10.2386 213.532 10.4168 213.008 10.7731C212.489 11.1243 212.089 11.5824 211.809 12.1474C211.529 12.7124 211.389 13.3181 211.389 13.9645V15.0028C211.389 15.8885 211.542 16.6393 211.847 17.2551C212.158 17.8659 212.588 18.3317 213.137 18.6523C213.687 18.9679 214.326 19.1257 215.054 19.1257C215.527 19.1257 215.955 19.0595 216.337 18.9272C216.723 18.7898 217.057 18.5862 217.337 18.3164C217.617 18.0415 217.833 17.7005 217.986 17.2933L219.726 17.782C219.543 18.3724 219.235 18.8916 218.803 19.3395C218.37 19.7823 217.836 20.1284 217.199 20.3778C216.563 20.6222 215.848 20.7443 215.054 20.7443ZM225.033 4.86364L224.88 16.1023H223.109L222.956 4.86364H225.033ZM223.994 20.6222C223.618 20.6222 223.294 20.4873 223.025 20.2175C222.755 19.9477 222.62 19.6245 222.62 19.2479C222.62 18.8712 222.755 18.548 223.025 18.2782C223.294 18.0085 223.618 17.8736 223.994 17.8736C224.371 17.8736 224.694 18.0085 224.964 18.2782C225.234 18.548 225.369 18.8712 225.369 19.2479C225.369 19.4973 225.305 19.7263 225.178 19.935C225.056 20.1437 224.89 20.3117 224.682 20.4389C224.478 20.5611 224.249 20.6222 223.994 20.6222Z" fill="white"/>
<path d="M105.408 89.114H106.902V105.422H105.408V89.114ZM106.542 95.594H109.566V96.854H106.542V95.594ZM95.0399 100.256H96.3359C99.3959 100.256 101.52 100.148 103.986 99.68L104.148 100.922C101.61 101.372 99.4499 101.498 96.3359 101.498H95.0399V100.256ZM95.0039 90.644H102.366V96.476H96.5159V100.76H95.0399V95.252H100.89V91.868H95.0039V90.644ZM117.467 90.248H118.763V91.49C118.763 95.036 115.469 97.79 112.211 98.528L111.545 97.286C114.407 96.746 117.467 94.262 117.467 91.49V90.248ZM117.737 90.248H119.033V91.49C119.033 94.28 122.111 96.746 124.955 97.286L124.289 98.528C121.049 97.79 117.737 95.054 117.737 91.49V90.248ZM110.951 101.984H125.693V103.208H110.951V101.984ZM128.085 90.734H129.507V94.694H132.927V90.734H134.313V101.318H128.085V90.734ZM129.507 95.9V100.094H132.927V95.9H129.507ZM139.893 89.132H141.333V105.404H139.893V89.132ZM134.061 95.306H137.193V96.548H134.061V95.306ZM136.671 89.474H138.093V104.594H136.671V89.474ZM155.066 89.114H156.578V105.404H155.066V89.114ZM156.164 95.72H159.17V96.962H156.164V95.72ZM150.908 90.878H152.366C152.366 95.504 150.242 99.68 144.986 102.326L144.158 101.174C148.658 98.888 150.908 95.414 150.908 91.112V90.878ZM144.914 90.878H151.682V92.102H144.914V90.878ZM167.142 90.248H168.438V91.49C168.438 95.036 165.144 97.79 161.886 98.528L161.22 97.286C164.082 96.746 167.142 94.262 167.142 91.49V90.248ZM167.412 90.248H168.708V91.49C168.708 94.28 171.786 96.746 174.63 97.286L173.964 98.528C170.724 97.79 167.412 95.054 167.412 91.49V90.248ZM160.626 101.984H175.368V103.208H160.626V101.984ZM182.459 90.302C184.997 90.302 186.815 91.868 186.815 94.136C186.815 96.422 184.997 97.988 182.459 97.988C179.921 97.988 178.085 96.422 178.085 94.136C178.085 91.868 179.921 90.302 182.459 90.302ZM182.459 91.598C180.767 91.598 179.543 92.624 179.543 94.136C179.543 95.648 180.767 96.692 182.459 96.692C184.133 96.692 185.357 95.648 185.357 94.136C185.357 92.624 184.133 91.598 182.459 91.598ZM188.939 89.114H190.433V105.422H188.939V89.114ZM177.473 101.858L177.257 100.616C180.227 100.616 184.331 100.598 187.877 100.04L188.003 101.138C184.349 101.84 180.371 101.858 177.473 101.858ZM203.018 98.834H204.512V101.48H203.018V98.834ZM209.858 89.132H211.352V105.404H209.858V89.132ZM210.866 96.044H213.872V97.304H210.866V96.044ZM198.824 102.308L198.608 101.066C201.524 101.066 205.502 101.03 208.868 100.544L208.994 101.66C205.484 102.29 201.668 102.308 198.824 102.308ZM198.878 91.094H208.616V92.3H198.878V91.094ZM203.756 93.254C206.024 93.254 207.59 94.442 207.59 96.26C207.59 98.096 206.024 99.266 203.756 99.266C201.488 99.266 199.94 98.096 199.94 96.26C199.94 94.442 201.488 93.254 203.756 93.254ZM203.756 94.406C202.298 94.406 201.344 95.144 201.344 96.26C201.344 97.376 202.298 98.114 203.756 98.114C205.214 98.114 206.186 97.376 206.186 96.26C206.186 95.144 205.214 94.406 203.756 94.406ZM203.018 89.15H204.512V91.904H203.018V89.15ZM227.245 89.114H228.739V105.422H227.245V89.114ZM224.041 92.84H227.641V94.064H224.041V92.84ZM215.959 100.382H217.165C219.685 100.382 221.755 100.31 224.239 99.914L224.383 101.156C221.827 101.552 219.739 101.642 217.165 101.642H215.959V100.382ZM215.923 90.59H223.033V96.422H217.435V100.67H215.959V95.198H221.557V91.832H215.923V90.59ZM223.933 97.286H227.533V98.51H223.933V97.286ZM243.047 89.132H244.541V98.924H243.047V89.132ZM244.127 93.452H246.953V94.694H244.127V93.452ZM234.317 99.842H244.541V105.188H234.317V99.842ZM243.083 101.048H235.775V103.982H243.083V101.048ZM231.959 90.842H241.571V92.066H231.959V90.842ZM236.765 92.858C239.087 92.858 240.653 94.01 240.653 95.774C240.653 97.538 239.087 98.654 236.765 98.654C234.425 98.654 232.859 97.538 232.859 95.774C232.859 94.01 234.425 92.858 236.765 92.858ZM236.765 94.01C235.271 94.01 234.281 94.694 234.281 95.774C234.281 96.836 235.271 97.52 236.765 97.52C238.223 97.52 239.231 96.836 239.231 95.774C239.231 94.694 238.223 94.01 236.765 94.01ZM236.009 88.988H237.503V91.472H236.009V88.988ZM250.336 96.728H261.514V97.952H250.336V96.728ZM248.482 102.11H263.224V103.37H248.482V102.11ZM255.07 97.25H256.564V102.614H255.07V97.25ZM250.336 90.428H261.352V91.652H251.83V97.268H250.336V90.428ZM270.787 100.256H272.065C275.071 100.256 277.141 100.184 279.589 99.752L279.751 100.976C277.231 101.408 275.107 101.498 272.065 101.498H270.787V100.256ZM270.787 90.608H278.365V91.85H272.281V100.688H270.787V90.608ZM271.903 95.162H278.005V96.368H271.903V95.162ZM281.101 89.132H282.613V105.404H281.101V89.132ZM282.253 95.666H285.277V96.926H282.253V95.666ZM287.579 90.716H295.067V101.318H287.579V90.716ZM293.609 91.922H289.037V100.112H293.609V91.922ZM298.469 89.114H299.963V105.422H298.469V89.114ZM309.736 90.248H311.032V91.49C311.032 95.036 307.738 97.79 304.48 98.528L303.814 97.286C306.676 96.746 309.736 94.262 309.736 91.49V90.248ZM310.006 90.248H311.302V91.49C311.302 94.28 314.38 96.746 317.224 97.286L316.558 98.528C313.318 97.79 310.006 95.054 310.006 91.49V90.248ZM303.22 101.984H317.962V103.208H303.22V101.984ZM323.883 97.34H325.377V101.228H323.883V97.34ZM324.621 90.176C327.123 90.176 328.923 91.742 328.923 94.01C328.923 96.278 327.123 97.844 324.621 97.844C322.119 97.844 320.319 96.278 320.319 94.01C320.319 91.742 322.119 90.176 324.621 90.176ZM324.621 91.454C322.965 91.454 321.777 92.498 321.777 94.01C321.777 95.522 322.965 96.566 324.621 96.566C326.277 96.566 327.465 95.522 327.465 94.01C327.465 92.498 326.277 91.454 324.621 91.454ZM330.777 89.132H332.271V105.404H330.777V89.132ZM331.839 95.828H334.845V97.088H331.839V95.828ZM319.797 101.894L319.581 100.652C322.515 100.634 326.439 100.616 329.751 100.166L329.877 101.282C326.439 101.858 322.641 101.894 319.797 101.894ZM352.524 89.132H354.018V98.924H352.524V89.132ZM353.604 93.452H356.43V94.694H353.604V93.452ZM343.794 99.842H354.018V105.188H343.794V99.842ZM352.56 101.048H345.252V103.982H352.56V101.048ZM341.436 90.842H351.048V92.066H341.436V90.842ZM346.242 92.858C348.564 92.858 350.13 94.01 350.13 95.774C350.13 97.538 348.564 98.654 346.242 98.654C343.902 98.654 342.336 97.538 342.336 95.774C342.336 94.01 343.902 92.858 346.242 92.858ZM346.242 94.01C344.748 94.01 343.758 94.694 343.758 95.774C343.758 96.836 344.748 97.52 346.242 97.52C347.7 97.52 348.708 96.836 348.708 95.774C348.708 94.694 347.7 94.01 346.242 94.01ZM345.486 88.988H346.98V91.472H345.486V88.988ZM360.676 91.076H361.936C361.936 94.568 361.468 98.402 359.146 101.57L357.976 100.886C360.208 97.988 360.676 94.586 360.676 91.184V91.076ZM358.318 91.076H361.414V92.318H358.318V91.076ZM364.258 91.076H365.536C365.536 94.514 365.32 99.086 362.764 102.614L361.576 101.93C364.06 98.69 364.258 94.46 364.258 91.202V91.076ZM362.476 91.076H365.05V92.318H362.476V91.076ZM370.396 89.132H371.836V105.404H370.396V89.132ZM364.78 95.522H367.696V96.746H364.78V95.522ZM367.39 89.546H368.794V104.576H367.39V89.546Z" fill="white"/>
<path d="M81.562 91.792H74V105.681H88.1201V97.656" stroke="white" stroke-width="1.8"/>
<path d="M76.3154 95.802L80.9443 101.202L90.7441 89.3191" stroke="white" stroke-width="1.8"/>
</g>
</g>
<defs>
<clipPath id="clip0_78_2">
<rect width="800" height="109" fill="white"/>
</clipPath>
</defs>
</svg>
