<svg width="345" height="47" viewBox="0 0 345 47" fill="none" xmlns="http://www.w3.org/2000/svg">
<g clip-path="url(#clip0_91_2)">
<mask id="mask0_91_2" style="mask-type:luminance" maskUnits="userSpaceOnUse" x="0" y="0" width="345" height="47">
<path d="M345 0H0V47H345V0Z" fill="white"/>
</mask>
<g mask="url(#mask0_91_2)">
<path d="M76.233 3.90909V9H75.6165V3.90909H76.233ZM79.05 5.18182V5.67898H77.0713V5.18182H79.05ZM77.648 4.26705H78.2346V7.90625C78.2346 8.07197 78.2587 8.19626 78.3067 8.27912C78.3564 8.36032 78.4194 8.41501 78.4956 8.44318C78.5735 8.4697 78.6556 8.48295 78.7417 8.48295C78.8064 8.48295 78.8594 8.47964 78.9008 8.47301C78.9423 8.46473 78.9754 8.4581 79.0003 8.45312L79.1196 8.98011C79.0798 8.99503 79.0243 9.00994 78.953 9.02486C78.8818 9.04143 78.7915 9.04972 78.6821 9.04972C78.5164 9.04972 78.354 9.01409 78.1949 8.94283C78.0374 8.87157 77.9065 8.76302 77.8021 8.61719C77.6994 8.47135 77.648 8.28741 77.648 8.06534V4.26705ZM80.4395 3.90909V5.65909H79.8927V3.90909H80.4395ZM84.1887 6.03693L83.6618 6.18608C83.6286 6.09825 83.5797 6.0129 83.5151 5.93004C83.4521 5.84553 83.3659 5.77592 83.2566 5.72124C83.1472 5.66655 83.0072 5.6392 82.8365 5.6392C82.6028 5.6392 82.4081 5.69306 82.2523 5.80078C82.0982 5.90684 82.0211 6.0419 82.0211 6.20597C82.0211 6.3518 82.0742 6.46697 82.1802 6.55149C82.2863 6.63601 82.452 6.70644 82.6774 6.76278L83.2441 6.90199C83.5855 6.98485 83.8399 7.11162 84.0073 7.28232C84.1747 7.45135 84.2583 7.66927 84.2583 7.93608C84.2583 8.15483 84.1954 8.35038 84.0694 8.52273C83.9451 8.69508 83.7711 8.83097 83.5474 8.9304C83.3237 9.02983 83.0635 9.07955 82.7669 9.07955C82.3774 9.07955 82.0551 8.99503 81.7999 8.82599C81.5447 8.65696 81.3831 8.41004 81.3152 8.08523L81.872 7.94602C81.925 8.15152 82.0253 8.30563 82.1728 8.40838C82.3219 8.51113 82.5166 8.5625 82.7569 8.5625C83.0304 8.5625 83.2475 8.5045 83.4082 8.38849C83.5706 8.27083 83.6518 8.12997 83.6518 7.96591C83.6518 7.83333 83.6054 7.7223 83.5126 7.63281C83.4198 7.54167 83.2773 7.47372 83.085 7.42898L82.4487 7.27983C82.099 7.19697 81.8422 7.06854 81.6781 6.89453C81.5157 6.71887 81.4345 6.49929 81.4345 6.2358C81.4345 6.02036 81.495 5.82978 81.6159 5.66406C81.7386 5.49834 81.9051 5.36825 82.1156 5.27379C82.3277 5.17933 82.568 5.1321 82.8365 5.1321C83.2143 5.1321 83.5109 5.21496 83.7264 5.38068C83.9435 5.5464 84.0976 5.76515 84.1887 6.03693ZM89.9738 5.18182C89.944 4.92992 89.823 4.73438 89.6109 4.59517C89.3988 4.45597 89.1386 4.38636 88.8303 4.38636C88.605 4.38636 88.4078 4.42282 88.2387 4.49574C88.0713 4.56866 87.9404 4.66892 87.846 4.79652C87.7532 4.92412 87.7068 5.06913 87.7068 5.23153C87.7068 5.36742 87.7391 5.48426 87.8037 5.58203C87.87 5.67815 87.9545 5.75852 88.0573 5.82315C88.16 5.88613 88.2677 5.93833 88.3804 5.97976C88.4931 6.01953 88.5967 6.05185 88.6911 6.0767L89.2082 6.21591C89.3408 6.25071 89.4883 6.29877 89.6507 6.36009C89.8147 6.4214 89.9713 6.50509 90.1205 6.61115C90.2713 6.71555 90.3956 6.84979 90.4933 7.01385C90.5911 7.17791 90.64 7.37926 90.64 7.6179C90.64 7.89299 90.5679 8.14157 90.4237 8.36364C90.2812 8.5857 90.0724 8.76219 89.7973 8.89311C89.5239 9.02403 89.1916 9.08949 88.8005 9.08949C88.4359 9.08949 88.1202 9.03066 87.8534 8.913C87.5883 8.79534 87.3795 8.63127 87.227 8.42081C87.0762 8.21035 86.9909 7.96591 86.971 7.6875H87.6073C87.6239 7.87973 87.6885 8.03883 87.8012 8.16477C87.9156 8.28906 88.0597 8.38187 88.2338 8.44318C88.4094 8.50284 88.5983 8.53267 88.8005 8.53267C89.0358 8.53267 89.2471 8.49455 89.4344 8.41832C89.6217 8.34044 89.77 8.23272 89.8794 8.09517C89.9887 7.95597 90.0434 7.79356 90.0434 7.60795C90.0434 7.43892 89.9962 7.30137 89.9017 7.19531C89.8073 7.08925 89.683 7.00308 89.5289 6.93679C89.3747 6.8705 89.2082 6.8125 89.0292 6.76278L88.4028 6.58381C88.0051 6.46946 87.6902 6.30623 87.4582 6.09411C87.2262 5.88198 87.1102 5.6044 87.1102 5.26136C87.1102 4.97633 87.1872 4.72775 87.3414 4.51562C87.4971 4.30185 87.7059 4.13613 87.9678 4.01847C88.2313 3.89915 88.5254 3.83949 88.8502 3.83949C89.1784 3.83949 89.47 3.89832 89.7252 4.01598C89.9804 4.13198 90.1826 4.29107 90.3318 4.49325C90.4826 4.69543 90.5621 4.92495 90.5704 5.18182H89.9738ZM92.1607 6.70312V9H91.574V3.90909H92.1607V5.77841H92.2104C92.2999 5.5812 92.4341 5.4246 92.6131 5.30859C92.7937 5.19093 93.034 5.1321 93.334 5.1321C93.5942 5.1321 93.822 5.1843 94.0176 5.28871C94.2131 5.39145 94.3648 5.54972 94.4725 5.76349C94.5819 5.97562 94.6365 6.24574 94.6365 6.57386V9H94.0499V6.61364C94.0499 6.31037 93.9712 6.07588 93.8137 5.91016C93.658 5.74278 93.4417 5.65909 93.165 5.65909C92.9727 5.65909 92.8004 5.69969 92.6479 5.78089C92.4971 5.8621 92.3778 5.98059 92.29 6.13636C92.2038 6.29214 92.1607 6.48106 92.1607 6.70312ZM97.2609 9.07955C96.9162 9.07955 96.6138 8.99751 96.3536 8.83345C96.0951 8.66939 95.8929 8.43987 95.7471 8.14489C95.6029 7.84991 95.5308 7.50521 95.5308 7.1108C95.5308 6.71307 95.6029 6.36589 95.7471 6.06925C95.8929 5.77261 96.0951 5.54226 96.3536 5.3782C96.6138 5.21413 96.9162 5.1321 97.2609 5.1321C97.6056 5.1321 97.9072 5.21413 98.1657 5.3782C98.4259 5.54226 98.6281 5.77261 98.7723 6.06925C98.9181 6.36589 98.991 6.71307 98.991 7.1108C98.991 7.50521 98.9181 7.84991 98.7723 8.14489C98.6281 8.43987 98.4259 8.66939 98.1657 8.83345C97.9072 8.99751 97.6056 9.07955 97.2609 9.07955ZM97.2609 8.55256C97.5228 8.55256 97.7382 8.48544 97.9072 8.35121C98.0763 8.21697 98.2014 8.04048 98.2826 7.82173C98.3638 7.60298 98.4044 7.366 98.4044 7.1108C98.4044 6.85559 98.3638 6.61778 98.2826 6.39737C98.2014 6.17696 98.0763 5.99882 97.9072 5.86293C97.7382 5.72704 97.5228 5.65909 97.2609 5.65909C96.9991 5.65909 96.7836 5.72704 96.6146 5.86293C96.4456 5.99882 96.3205 6.17696 96.2393 6.39737C96.1581 6.61778 96.1175 6.85559 96.1175 7.1108C96.1175 7.366 96.1581 7.60298 96.2393 7.82173C96.3205 8.04048 96.4456 8.21697 96.6146 8.35121C96.7836 8.48544 96.9991 8.55256 97.2609 8.55256ZM100.622 9L99.4584 5.18182H100.075L100.9 8.10511H100.94L101.755 5.18182H102.382L103.187 8.09517H103.227L104.052 5.18182H104.669L103.505 9H102.929L102.093 6.06676H102.034L101.198 9H100.622ZM107.214 4.45597V3.90909H111.032V4.45597H109.431V9H108.815V4.45597H107.214ZM111.904 9V5.18182H112.491V9H111.904ZM112.202 4.54545C112.088 4.54545 111.989 4.50651 111.907 4.42862C111.825 4.35073 111.785 4.2571 111.785 4.14773C111.785 4.03835 111.825 3.94472 111.907 3.86683C111.989 3.78894 112.088 3.75 112.202 3.75C112.317 3.75 112.415 3.78894 112.496 3.86683C112.579 3.94472 112.62 4.03835 112.62 4.14773C112.62 4.2571 112.579 4.35073 112.496 4.42862C112.415 4.50651 112.317 4.54545 112.202 4.54545ZM113.565 9V5.18182H114.132V5.77841H114.182C114.261 5.57457 114.39 5.41631 114.567 5.30362C114.744 5.18928 114.957 5.1321 115.206 5.1321C115.458 5.1321 115.667 5.18928 115.835 5.30362C116.004 5.41631 116.136 5.57457 116.23 5.77841H116.27C116.368 5.5812 116.514 5.4246 116.71 5.30859C116.905 5.19093 117.14 5.1321 117.413 5.1321C117.755 5.1321 118.034 5.23899 118.251 5.45277C118.468 5.66489 118.577 5.9955 118.577 6.4446V9H117.99V6.4446C117.99 6.16288 117.913 5.96153 117.759 5.84055C117.605 5.71958 117.423 5.65909 117.214 5.65909C116.946 5.65909 116.738 5.74029 116.59 5.9027C116.443 6.06345 116.369 6.26728 116.369 6.5142V9H115.773V6.38494C115.773 6.16785 115.702 5.99302 115.561 5.86044C115.42 5.72621 115.239 5.65909 115.017 5.65909C114.864 5.65909 114.722 5.69969 114.589 5.78089C114.458 5.8621 114.352 5.97479 114.271 6.11896C114.192 6.26148 114.152 6.42637 114.152 6.61364V9H113.565ZM121.25 9.07955C120.882 9.07955 120.565 8.99834 120.298 8.83594C120.033 8.67188 119.828 8.44318 119.684 8.14986C119.542 7.85488 119.47 7.51184 119.47 7.12074C119.47 6.72964 119.542 6.38494 119.684 6.08665C119.828 5.7867 120.029 5.55303 120.286 5.38565C120.544 5.21662 120.846 5.1321 121.19 5.1321C121.389 5.1321 121.586 5.16525 121.78 5.23153C121.973 5.29782 122.15 5.40554 122.309 5.55469C122.468 5.70218 122.595 5.89773 122.689 6.14134C122.784 6.38494 122.831 6.6849 122.831 7.04119V7.28977H119.888V6.78267H122.234C122.234 6.56723 122.191 6.375 122.105 6.20597C122.021 6.03693 121.9 5.90353 121.742 5.80575C121.586 5.70798 121.403 5.65909 121.19 5.65909C120.957 5.65909 120.755 5.71709 120.584 5.8331C120.415 5.94744 120.285 6.09659 120.194 6.28054C120.102 6.46449 120.057 6.66169 120.057 6.87216V7.21023C120.057 7.49858 120.107 7.74302 120.206 7.94354C120.307 8.1424 120.447 8.29403 120.626 8.39844C120.805 8.50118 121.013 8.55256 121.25 8.55256C121.404 8.55256 121.543 8.53101 121.668 8.48793C121.794 8.44318 121.902 8.37689 121.993 8.28906C122.084 8.19957 122.155 8.08854 122.205 7.95597L122.771 8.11506C122.712 8.30729 122.611 8.47633 122.471 8.62216C122.33 8.76634 122.156 8.87902 121.949 8.96023C121.741 9.03977 121.509 9.07955 121.25 9.07955ZM124.499 3.90909L124.449 7.56818H123.873L123.823 3.90909H124.499ZM124.161 9.03977C124.038 9.03977 123.933 8.99586 123.845 8.90803C123.757 8.82019 123.714 8.71496 123.714 8.59233C123.714 8.4697 123.757 8.36446 123.845 8.27663C123.933 8.1888 124.038 8.14489 124.161 8.14489C124.284 8.14489 124.389 8.1888 124.477 8.27663C124.564 8.36446 124.608 8.4697 124.608 8.59233C124.608 8.67353 124.588 8.74811 124.546 8.81605C124.506 8.884 124.453 8.93868 124.385 8.98011C124.318 9.01989 124.244 9.03977 124.161 9.03977Z" fill="white"/>
<path d="M87.62 37.5505H88.1595V43.4395H87.62V37.5505ZM88.0295 39.8905H89.1215V40.3455H88.0295V39.8905ZM83.876 41.574H84.344C85.449 41.574 86.216 41.535 87.1065 41.366L87.165 41.8145C86.2485 41.977 85.4685 42.0225 84.344 42.0225H83.876V41.574ZM83.863 38.103H86.5215V40.209H84.409V41.756H83.876V39.767H85.9885V38.545H83.863V38.103ZM91.9745 37.96H92.4425V38.4085C92.4425 39.689 91.253 40.6835 90.0765 40.95L89.836 40.5015C90.8695 40.3065 91.9745 39.4095 91.9745 38.4085V37.96ZM92.072 37.96H92.54V38.4085C92.54 39.416 93.6515 40.3065 94.6785 40.5015L94.438 40.95C93.268 40.6835 92.072 39.6955 92.072 38.4085V37.96ZM89.6215 42.198H94.945V42.64H89.6215V42.198ZM95.809 38.1355H96.3225V39.5655H97.5575V38.1355H98.058V41.9575H95.809V38.1355ZM96.3225 40.001V41.5155H97.5575V40.001H96.3225ZM100.073 37.557H100.593V43.433H100.073V37.557ZM97.967 39.7865H99.098V40.235H97.967V39.7865ZM98.9095 37.6805H99.423V43.1405H98.9095V37.6805ZM105.552 37.5505H106.098V43.433H105.552V37.5505ZM105.948 39.936H107.034V40.3845H105.948V39.936ZM104.05 38.1875H104.577C104.577 39.858 103.81 41.366 101.912 42.3215L101.613 41.9055C103.238 41.08 104.05 39.8255 104.05 38.272V38.1875ZM101.886 38.1875H104.33V38.6295H101.886V38.1875ZM109.913 37.96H110.381V38.4085C110.381 39.689 109.191 40.6835 108.015 40.95L107.774 40.5015C108.808 40.3065 109.913 39.4095 109.913 38.4085V37.96ZM110.01 37.96H110.478V38.4085C110.478 39.416 111.59 40.3065 112.617 40.5015L112.376 40.95C111.206 40.6835 110.01 39.6955 110.01 38.4085V37.96ZM107.56 42.198H112.883V42.64H107.56V42.198ZM115.444 37.9795C116.36 37.9795 117.017 38.545 117.017 39.364C117.017 40.1895 116.36 40.755 115.444 40.755C114.527 40.755 113.864 40.1895 113.864 39.364C113.864 38.545 114.527 37.9795 115.444 37.9795ZM115.444 38.4475C114.833 38.4475 114.391 38.818 114.391 39.364C114.391 39.91 114.833 40.287 115.444 40.287C116.048 40.287 116.49 39.91 116.49 39.364C116.49 38.818 116.048 38.4475 115.444 38.4475ZM117.784 37.5505H118.323V43.4395H117.784V37.5505ZM113.643 42.1525L113.565 41.704C114.638 41.704 116.12 41.6975 117.4 41.496L117.446 41.8925C116.126 42.146 114.69 42.1525 113.643 42.1525ZM122.868 41.0605H123.408V42.016H122.868V41.0605ZM125.338 37.557H125.878V43.433H125.338V37.557ZM125.702 40.053H126.788V40.508H125.702V40.053ZM121.354 42.315L121.276 41.8665C122.329 41.8665 123.765 41.8535 124.981 41.678L125.026 42.081C123.759 42.3085 122.381 42.315 121.354 42.315ZM121.373 38.2655H124.89V38.701H121.373V38.2655ZM123.135 39.0455C123.954 39.0455 124.519 39.4745 124.519 40.131C124.519 40.794 123.954 41.2165 123.135 41.2165C122.316 41.2165 121.757 40.794 121.757 40.131C121.757 39.4745 122.316 39.0455 123.135 39.0455ZM123.135 39.4615C122.608 39.4615 122.264 39.728 122.264 40.131C122.264 40.534 122.608 40.8005 123.135 40.8005C123.661 40.8005 124.012 40.534 124.012 40.131C124.012 39.728 123.661 39.4615 123.135 39.4615ZM122.868 37.5635H123.408V38.558H122.868V37.5635ZM131.617 37.5505H132.156V43.4395H131.617V37.5505ZM130.46 38.896H131.76V39.338H130.46V38.896ZM127.541 41.6195H127.977C128.887 41.6195 129.634 41.5935 130.531 41.4505L130.583 41.899C129.66 42.042 128.906 42.0745 127.977 42.0745H127.541V41.6195ZM127.528 38.0835H130.096V40.1895H128.074V41.7235H127.541V39.7475H129.563V38.532H127.528V38.0835ZM130.421 40.5015H131.721V40.9435H130.421V40.5015ZM137.323 37.557H137.863V41.093H137.323V37.557ZM137.713 39.117H138.734V39.5655H137.713V39.117ZM134.171 41.4245H137.863V43.355H134.171V41.4245ZM137.336 41.86H134.697V42.9195H137.336V41.86ZM133.319 38.1745H136.79V38.6165H133.319V38.1745ZM135.055 38.9025C135.893 38.9025 136.459 39.3185 136.459 39.9555C136.459 40.5925 135.893 40.9955 135.055 40.9955C134.21 40.9955 133.644 40.5925 133.644 39.9555C133.644 39.3185 134.21 38.9025 135.055 38.9025ZM135.055 39.3185C134.515 39.3185 134.158 39.5655 134.158 39.9555C134.158 40.339 134.515 40.586 135.055 40.586C135.581 40.586 135.945 40.339 135.945 39.9555C135.945 39.5655 135.581 39.3185 135.055 39.3185ZM134.782 37.505H135.321V38.402H134.782V37.505ZM139.955 40.3H143.992V40.742H139.955V40.3ZM139.286 42.2435H144.609V42.6985H139.286V42.2435ZM141.665 40.4885H142.204V42.4255H141.665V40.4885ZM139.955 38.025H143.933V38.467H140.495V40.495H139.955V38.025ZM147.34 41.574H147.802C148.887 41.574 149.635 41.548 150.519 41.392L150.577 41.834C149.667 41.99 148.9 42.0225 147.802 42.0225H147.34V41.574ZM147.34 38.09H150.077V38.5385H147.88V41.73H147.34V38.09ZM147.743 39.7345H149.947V40.17H147.743V39.7345ZM151.065 37.557H151.611V43.433H151.065V37.557ZM151.481 39.9165H152.573V40.3715H151.481V39.9165ZM153.404 38.129H156.108V41.9575H153.404V38.129ZM155.582 38.5645H153.931V41.522H155.582V38.5645ZM157.337 37.5505H157.876V43.4395H157.337V37.5505ZM161.405 37.96H161.873V38.4085C161.873 39.689 160.684 40.6835 159.507 40.95L159.267 40.5015C160.3 40.3065 161.405 39.4095 161.405 38.4085V37.96ZM161.503 37.96H161.971V38.4085C161.971 39.416 163.082 40.3065 164.109 40.5015L163.869 40.95C162.699 40.6835 161.503 39.6955 161.503 38.4085V37.96ZM159.052 42.198H164.376V42.64H159.052V42.198ZM166.514 40.521H167.053V41.925H166.514V40.521ZM166.78 37.934C167.684 37.934 168.334 38.4995 168.334 39.3185C168.334 40.1375 167.684 40.703 166.78 40.703C165.877 40.703 165.227 40.1375 165.227 39.3185C165.227 38.4995 165.877 37.934 166.78 37.934ZM166.78 38.3955C166.182 38.3955 165.753 38.7725 165.753 39.3185C165.753 39.8645 166.182 40.2415 166.78 40.2415C167.378 40.2415 167.807 39.8645 167.807 39.3185C167.807 38.7725 167.378 38.3955 166.78 38.3955ZM169.003 37.557H169.543V43.433H169.003V37.557ZM169.387 39.975H170.472V40.43H169.387V39.975ZM165.038 42.1655L164.96 41.717C166.02 41.7105 167.437 41.704 168.633 41.5415L168.678 41.9445C167.437 42.1525 166.065 42.1655 165.038 42.1655ZM176.856 37.557H177.396V41.093H176.856V37.557ZM177.246 39.117H178.267V39.5655H177.246V39.117ZM173.704 41.4245H177.396V43.355H173.704V41.4245ZM176.869 41.86H174.23V42.9195H176.869V41.86ZM172.852 38.1745H176.323V38.6165H172.852V38.1745ZM174.588 38.9025C175.426 38.9025 175.992 39.3185 175.992 39.9555C175.992 40.5925 175.426 40.9955 174.588 40.9955C173.743 40.9955 173.177 40.5925 173.177 39.9555C173.177 39.3185 173.743 38.9025 174.588 38.9025ZM174.588 39.3185C174.048 39.3185 173.691 39.5655 173.691 39.9555C173.691 40.339 174.048 40.586 174.588 40.586C175.114 40.586 175.478 40.339 175.478 39.9555C175.478 39.5655 175.114 39.3185 174.588 39.3185ZM174.315 37.505H174.854V38.402H174.315V37.505ZM179.8 38.259H180.255C180.255 39.52 180.086 40.9045 179.248 42.0485L178.825 41.8015C179.631 40.755 179.8 39.5265 179.8 38.298V38.259ZM178.949 38.259H180.067V38.7075H178.949V38.259ZM181.094 38.259H181.555C181.555 39.5005 181.477 41.1515 180.554 42.4255L180.125 42.1785C181.022 41.0085 181.094 39.481 181.094 38.3045V38.259ZM180.45 38.259H181.38V38.7075H180.45V38.259ZM183.31 37.557H183.83V43.433H183.31V37.557ZM181.282 39.8645H182.335V40.3065H181.282V39.8645ZM182.225 37.7065H182.732V43.134H182.225V37.7065Z" fill="white"/>
<path d="M78.5848 38.405H75.5848V43.915H81.1849V40.7319" stroke="white"/>
<path d="M76.5042 39.9949L78.3412 42.137L82.2279 37.4241" stroke="white"/>
<path d="M74.781 25.448H75.496C76.981 25.448 77.927 25.426 79.071 25.25L79.192 26.438C78.026 26.636 77.014 26.658 75.496 26.658H74.781V25.448ZM74.781 19.849H78.895V21.015H76.167V25.932H74.781V19.849ZM75.771 22.511H78.697V23.644H75.771V22.511ZM81.799 18.793H83.196V28.979H81.799V18.793ZM80.578 22.731H82.261V23.908H80.578V22.731ZM79.599 18.947H80.974V28.517H79.599V18.947ZM92.1271 20.047H93.8871V21.235H92.1271V20.047ZM92.1271 22.258H93.8871V23.446H92.1271V22.258ZM87.3971 19.343C88.9701 19.343 90.1691 20.377 90.1691 21.818C90.1691 23.248 88.9701 24.282 87.3971 24.282C85.8241 24.282 84.6251 23.248 84.6251 21.818C84.6251 20.377 85.8241 19.343 87.3971 19.343ZM87.3971 20.564C86.6271 20.564 86.0551 21.037 86.0551 21.818C86.0551 22.61 86.6271 23.061 87.3971 23.061C88.1671 23.061 88.7391 22.61 88.7391 21.818C88.7391 21.037 88.1671 20.564 87.3971 20.564ZM91.1151 18.793H92.5781V24.733H91.1151V18.793ZM89.2561 24.953C91.3571 24.953 92.6991 25.712 92.6991 26.966C92.6991 28.231 91.3571 28.979 89.2561 28.979C87.1441 28.979 85.8021 28.231 85.8021 26.966C85.8021 25.712 87.1441 24.953 89.2561 24.953ZM89.2561 26.108C87.9581 26.108 87.2541 26.383 87.2541 26.966C87.2541 27.56 87.9581 27.835 89.2561 27.835C90.5541 27.835 91.2471 27.56 91.2471 26.966C91.2471 26.383 90.5541 26.108 89.2561 26.108ZM97.9563 19.464C99.5623 19.464 100.761 20.509 100.761 21.972C100.761 23.446 99.5623 24.491 97.9563 24.491C96.3613 24.491 95.1403 23.446 95.1403 21.972C95.1403 20.509 96.3613 19.464 97.9563 19.464ZM97.9563 20.718C97.1753 20.718 96.5813 21.18 96.5813 21.972C96.5813 22.775 97.1753 23.237 97.9563 23.237C98.7373 23.237 99.3313 22.775 99.3313 21.972C99.3313 21.18 98.7373 20.718 97.9563 20.718ZM101.718 18.782H103.181V29.001H101.718V18.782ZM94.8983 26.933L94.7223 25.756C96.5153 25.756 99.0123 25.734 101.157 25.415L101.267 26.471C99.0563 26.911 96.6583 26.933 94.8983 26.933ZM112.48 21.972H115.164V23.149H112.48V21.972ZM109.708 19.574H110.896V21.048C110.896 23.611 110.027 25.976 108.113 26.933L107.2 25.756C108.938 24.953 109.708 22.984 109.708 21.048V19.574ZM110.016 19.574H111.182V21.048C111.182 22.984 111.919 24.843 113.602 25.591L112.733 26.757C110.819 25.833 110.016 23.589 110.016 21.048V19.574ZM114.438 18.782H115.89V29.001H114.438V18.782ZM121.224 19.772H122.643C122.643 22.907 121.829 25.536 118.177 27.45L117.374 26.339C120.377 24.755 121.224 22.83 121.224 19.948V19.772ZM117.979 19.772H122.115V20.927H117.979V19.772ZM121.367 22.269V23.38L117.627 23.721L117.44 22.489L121.367 22.269ZM124.524 18.793H125.987V28.979H124.524V18.793ZM122.632 22.698H125.294V23.886H122.632V22.698ZM131.366 19.376H132.642V20.113C132.642 22.324 131.069 24.282 128.429 24.799L127.802 23.589C130.101 23.193 131.366 21.576 131.366 20.113V19.376ZM131.663 19.376H132.928V20.113C132.928 21.609 134.182 23.193 136.492 23.589L135.865 24.799C133.225 24.282 131.663 22.357 131.663 20.113V19.376ZM127.593 26.548H136.811V27.736H127.593V26.548ZM139.733 26.9062L139.69 27.3359C139.657 27.6797 139.591 28.0221 139.495 28.3633C139.401 28.707 139.302 29.0182 139.198 29.2969C139.097 29.5755 139.015 29.7943 138.952 29.9531H137.874C137.913 29.7995 137.966 29.5846 138.034 29.3086C138.102 29.0352 138.166 28.7279 138.226 28.3867C138.285 28.0456 138.323 27.6979 138.339 27.3437L138.358 26.9062H139.733ZM151.842 17.106H153.558V29.183H151.842V17.106ZM153.168 21.656H155.3V23.086H153.168V21.656ZM144.614 24.971H145.628C147.669 24.971 149.255 24.906 151.023 24.594L151.192 25.985C149.372 26.31 147.721 26.388 145.628 26.388H144.614V24.971ZM144.601 18.133H150.139V22.8H146.33V25.504H144.614V21.422H148.423V19.511H144.601V18.133ZM160.551 17.808H162.059V18.679C162.059 21.292 160.2 23.606 157.08 24.217L156.339 22.787C159.056 22.319 160.551 20.408 160.551 18.679V17.808ZM160.902 17.808H162.397V18.679C162.397 20.447 163.879 22.319 166.609 22.787L165.868 24.217C162.748 23.606 160.902 21.331 160.902 18.679V17.808ZM156.092 26.284H166.986V27.688H156.092V26.284ZM168.376 18.211H170.001V20.98H171.561V18.211H173.147V26.31H168.376V18.211ZM170.001 22.332V24.919H171.561V22.332H170.001ZM176.735 17.119H178.386V29.157H176.735V17.119ZM172.874 21.513H174.876V22.917H172.874V21.513ZM174.278 17.314H175.903V28.624H174.278V17.314ZM187.693 17.106H189.435V29.144H187.693V17.106ZM188.98 21.708H191.099V23.125H188.98V21.708ZM184.534 18.354H186.224C186.224 21.968 184.846 25.062 180.842 27.077L179.88 25.764C183.039 24.126 184.534 21.916 184.534 18.653V18.354ZM180.543 18.354H185.418V19.745H180.543V18.354ZM196.428 17.808H197.936V18.679C197.936 21.292 196.077 23.606 192.957 24.217L192.216 22.787C194.933 22.319 196.428 20.408 196.428 18.679V17.808ZM196.779 17.808H198.274V18.679C198.274 20.447 199.756 22.319 202.486 22.787L201.745 24.217C198.625 23.606 196.779 21.331 196.779 18.679V17.808ZM191.969 26.284H202.863V27.688H191.969V26.284ZM209.601 23.957H211.317V27.116H209.601V23.957ZM213.436 23.957H215.152V27.116H213.436V23.957ZM206.936 26.362H217.83V27.779H206.936V26.362ZM211.395 17.769H212.903V18.627C212.903 21.136 211.044 23.307 207.872 23.84L207.17 22.423C209.926 21.994 211.395 20.239 211.395 18.627V17.769ZM211.733 17.769H213.241V18.627C213.241 20.265 214.697 21.994 217.479 22.423L216.777 23.84C213.592 23.294 211.733 21.162 211.733 18.627V17.769ZM225.055 28.1385C224.403 28.1385 223.839 28.0215 223.365 27.7876C222.891 27.5537 222.527 27.2367 222.271 26.8366C222.019 26.4335 221.893 25.9841 221.893 25.4886C221.893 25.1193 221.967 24.7915 222.114 24.5053C222.262 24.2191 222.468 23.956 222.733 23.7159C222.998 23.4728 223.305 23.2312 223.656 22.9911L225.489 21.7862C225.726 21.6354 225.9 21.4769 226.011 21.3107C226.121 21.1415 226.177 20.9583 226.177 20.7614C226.177 20.5736 226.101 20.3997 225.951 20.2397C225.8 20.0797 225.586 20.0012 225.309 20.0043C225.124 20.0043 224.964 20.0458 224.829 20.1289C224.693 20.2089 224.587 20.3151 224.51 20.4474C224.436 20.5767 224.4 20.7214 224.4 20.8814C224.4 21.0784 224.455 21.2784 224.566 21.4815C224.676 21.6847 224.824 21.9001 225.009 22.1278C225.194 22.3525 225.395 22.5956 225.614 22.8572L230.096 28H228.047L224.307 23.8359C224.061 23.5559 223.815 23.2635 223.569 22.9588C223.325 22.651 223.122 22.3248 222.959 21.9801C222.796 21.6323 222.714 21.2553 222.714 20.8491C222.714 20.3905 222.821 19.9781 223.033 19.6119C223.248 19.2456 223.55 18.9563 223.938 18.744C224.326 18.5285 224.778 18.4208 225.295 18.4208C225.8 18.4208 226.235 18.5239 226.602 18.7301C226.971 18.9332 227.254 19.2041 227.451 19.5426C227.651 19.8781 227.751 20.2474 227.751 20.6506C227.751 21.0968 227.64 21.5015 227.419 21.8647C227.2 22.2248 226.892 22.5479 226.495 22.8342L224.566 24.2237C224.304 24.4145 224.11 24.61 223.984 24.81C223.861 25.007 223.799 25.1963 223.799 25.3778C223.799 25.6025 223.855 25.8041 223.966 25.9826C224.076 26.1611 224.233 26.3027 224.436 26.4073C224.64 26.5089 224.878 26.5597 225.152 26.5597C225.484 26.5597 225.812 26.4843 226.135 26.3335C226.462 26.1796 226.757 25.9626 227.022 25.6825C227.289 25.3994 227.503 25.0639 227.663 24.6761C227.823 24.2884 227.903 23.859 227.903 23.3881H229.533C229.533 23.9667 229.47 24.4884 229.344 24.9531C229.218 25.4148 229.042 25.8179 228.817 26.1626C228.593 26.5043 228.336 26.7843 228.047 27.0028C227.954 27.0613 227.865 27.1167 227.779 27.169C227.693 27.2214 227.603 27.2768 227.511 27.3352C227.16 27.6184 226.768 27.823 226.334 27.9492C225.903 28.0754 225.477 28.1385 225.055 28.1385ZM236.156 24.178H237.885V29.196H236.156V24.178ZM240.394 24.178H242.123V29.196H240.394V24.178ZM233.66 23.827H244.567V25.205H233.66V23.827ZM234.921 17.691H243.267V22.54H234.921V17.691ZM241.564 19.043H236.624V21.175H241.564V19.043ZM248.518 19.017H249.896V20.369C249.896 23.151 248.765 25.868 246.503 26.895L245.528 25.53C247.543 24.633 248.518 22.41 248.518 20.369V19.017ZM248.908 19.017H250.273V20.369C250.273 22.319 251.235 24.399 253.25 25.231L252.314 26.596C250.026 25.608 248.908 23.047 248.908 20.369V19.017ZM246.009 18.276H252.756V19.693H246.009V18.276ZM253.874 17.119H255.616V29.157H253.874V17.119ZM263.87 19.693H266.184V21.071H263.87V19.693ZM262.037 17.639H263.844C263.844 20.889 262.258 22.787 258.41 23.684L257.786 22.371C261.088 21.656 262.037 20.265 262.037 18.497V17.639ZM258.449 17.639H263.285V18.965H258.449V17.639ZM262.388 19.641V20.772L258.085 21.084L257.851 19.784L262.388 19.641ZM265.924 17.119H267.653V23.19H265.924V17.119ZM259.697 23.658H267.653V26.934H261.426V28.416H259.723V25.686H265.937V24.997H259.697V23.658ZM259.723 27.688H267.9V29.027H259.723V27.688Z" fill="white"/>
</g>
</g>
<defs>
<clipPath id="clip0_91_2">
<rect width="345" height="47" fill="white"/>
</clipPath>
</defs>
</svg>
