<svg width="345" height="47" viewBox="0 0 345 47" fill="none" xmlns="http://www.w3.org/2000/svg">
<g clip-path="url(#clip0_78_15)">
<mask id="mask0_78_15" style="mask-type:luminance" maskUnits="userSpaceOnUse" x="0" y="0" width="345" height="47">
<path d="M345 0H0V47H345V0Z" fill="white"/>
</mask>
<g mask="url(#mask0_78_15)">
<path d="M77.233 3.90909V9H76.6165V3.90909H77.233ZM80.05 5.18182V5.67898H78.0713V5.18182H80.05ZM78.648 4.26705H79.2346V7.90625C79.2346 8.07197 79.2587 8.19626 79.3067 8.27912C79.3564 8.36032 79.4194 8.41501 79.4956 8.44318C79.5735 8.4697 79.6556 8.48295 79.7417 8.48295C79.8064 8.48295 79.8594 8.47964 79.9008 8.47301C79.9423 8.46473 79.9754 8.4581 80.0003 8.45312L80.1196 8.98011C80.0798 8.99503 80.0243 9.00994 79.953 9.02486C79.8818 9.04143 79.7915 9.04972 79.6821 9.04972C79.5164 9.04972 79.354 9.01409 79.1949 8.94283C79.0374 8.87157 78.9065 8.76302 78.8021 8.61719C78.6994 8.47135 78.648 8.28741 78.648 8.06534V4.26705ZM81.4395 3.90909V5.65909H80.8927V3.90909H81.4395ZM85.1887 6.03693L84.6618 6.18608C84.6286 6.09825 84.5797 6.0129 84.5151 5.93004C84.4521 5.84553 84.3659 5.77592 84.2566 5.72124C84.1472 5.66655 84.0072 5.6392 83.8365 5.6392C83.6028 5.6392 83.4081 5.69306 83.2523 5.80078C83.0982 5.90684 83.0211 6.0419 83.0211 6.20597C83.0211 6.3518 83.0742 6.46697 83.1802 6.55149C83.2863 6.63601 83.452 6.70644 83.6774 6.76278L84.2441 6.90199C84.5855 6.98485 84.8399 7.11162 85.0073 7.28232C85.1747 7.45135 85.2583 7.66927 85.2583 7.93608C85.2583 8.15483 85.1954 8.35038 85.0694 8.52273C84.9451 8.69508 84.7711 8.83097 84.5474 8.9304C84.3237 9.02983 84.0635 9.07955 83.7669 9.07955C83.3774 9.07955 83.0551 8.99503 82.7999 8.82599C82.5447 8.65696 82.3831 8.41004 82.3152 8.08523L82.872 7.94602C82.925 8.15152 83.0253 8.30563 83.1728 8.40838C83.3219 8.51113 83.5166 8.5625 83.7569 8.5625C84.0304 8.5625 84.2475 8.5045 84.4082 8.38849C84.5706 8.27083 84.6518 8.12997 84.6518 7.96591C84.6518 7.83333 84.6054 7.7223 84.5126 7.63281C84.4198 7.54167 84.2773 7.47372 84.085 7.42898L83.4487 7.27983C83.099 7.19697 82.8422 7.06854 82.6781 6.89453C82.5157 6.71887 82.4345 6.49929 82.4345 6.2358C82.4345 6.02036 82.495 5.82978 82.6159 5.66406C82.7386 5.49834 82.9051 5.36825 83.1156 5.27379C83.3277 5.17933 83.568 5.1321 83.8365 5.1321C84.2143 5.1321 84.5109 5.21496 84.7264 5.38068C84.9435 5.5464 85.0976 5.76515 85.1887 6.03693ZM90.9738 5.18182C90.944 4.92992 90.823 4.73438 90.6109 4.59517C90.3988 4.45597 90.1386 4.38636 89.8303 4.38636C89.605 4.38636 89.4078 4.42282 89.2387 4.49574C89.0713 4.56866 88.9404 4.66892 88.846 4.79652C88.7532 4.92412 88.7068 5.06913 88.7068 5.23153C88.7068 5.36742 88.7391 5.48426 88.8037 5.58203C88.87 5.67815 88.9545 5.75852 89.0573 5.82315C89.16 5.88613 89.2677 5.93833 89.3804 5.97976C89.4931 6.01953 89.5967 6.05185 89.6911 6.0767L90.2082 6.21591C90.3408 6.25071 90.4883 6.29877 90.6507 6.36009C90.8147 6.4214 90.9713 6.50509 91.1205 6.61115C91.2713 6.71555 91.3956 6.84979 91.4933 7.01385C91.5911 7.17791 91.64 7.37926 91.64 7.6179C91.64 7.89299 91.5679 8.14157 91.4237 8.36364C91.2812 8.5857 91.0724 8.76219 90.7973 8.89311C90.5239 9.02403 90.1916 9.08949 89.8005 9.08949C89.4359 9.08949 89.1202 9.03066 88.8534 8.913C88.5883 8.79534 88.3795 8.63127 88.227 8.42081C88.0762 8.21035 87.9909 7.96591 87.971 7.6875H88.6073C88.6239 7.87973 88.6885 8.03883 88.8012 8.16477C88.9156 8.28906 89.0597 8.38187 89.2338 8.44318C89.4094 8.50284 89.5983 8.53267 89.8005 8.53267C90.0358 8.53267 90.2471 8.49455 90.4344 8.41832C90.6217 8.34044 90.77 8.23272 90.8794 8.09517C90.9887 7.95597 91.0434 7.79356 91.0434 7.60795C91.0434 7.43892 90.9962 7.30137 90.9017 7.19531C90.8073 7.08925 90.683 7.00308 90.5289 6.93679C90.3747 6.8705 90.2082 6.8125 90.0292 6.76278L89.4028 6.58381C89.0051 6.46946 88.6902 6.30623 88.4582 6.09411C88.2262 5.88198 88.1102 5.6044 88.1102 5.26136C88.1102 4.97633 88.1872 4.72775 88.3414 4.51562C88.4971 4.30185 88.7059 4.13613 88.9678 4.01847C89.2313 3.89915 89.5254 3.83949 89.8502 3.83949C90.1784 3.83949 90.47 3.89832 90.7252 4.01598C90.9804 4.13198 91.1826 4.29107 91.3318 4.49325C91.4826 4.69543 91.5621 4.92495 91.5704 5.18182H90.9738ZM93.1607 6.70312V9H92.574V3.90909H93.1607V5.77841H93.2104C93.2999 5.5812 93.4341 5.4246 93.6131 5.30859C93.7937 5.19093 94.034 5.1321 94.334 5.1321C94.5942 5.1321 94.822 5.1843 95.0176 5.28871C95.2131 5.39145 95.3648 5.54972 95.4725 5.76349C95.5819 5.97562 95.6365 6.24574 95.6365 6.57386V9H95.0499V6.61364C95.0499 6.31037 94.9712 6.07588 94.8137 5.91016C94.658 5.74278 94.4417 5.65909 94.165 5.65909C93.9727 5.65909 93.8004 5.69969 93.6479 5.78089C93.4971 5.8621 93.3778 5.98059 93.29 6.13636C93.2038 6.29214 93.1607 6.48106 93.1607 6.70312ZM98.2609 9.07955C97.9162 9.07955 97.6138 8.99751 97.3536 8.83345C97.0951 8.66939 96.8929 8.43987 96.7471 8.14489C96.6029 7.84991 96.5308 7.50521 96.5308 7.1108C96.5308 6.71307 96.6029 6.36589 96.7471 6.06925C96.8929 5.77261 97.0951 5.54226 97.3536 5.3782C97.6138 5.21413 97.9162 5.1321 98.2609 5.1321C98.6056 5.1321 98.9072 5.21413 99.1657 5.3782C99.4259 5.54226 99.6281 5.77261 99.7723 6.06925C99.9181 6.36589 99.991 6.71307 99.991 7.1108C99.991 7.50521 99.9181 7.84991 99.7723 8.14489C99.6281 8.43987 99.4259 8.66939 99.1657 8.83345C98.9072 8.99751 98.6056 9.07955 98.2609 9.07955ZM98.2609 8.55256C98.5228 8.55256 98.7382 8.48544 98.9072 8.35121C99.0763 8.21697 99.2014 8.04048 99.2826 7.82173C99.3638 7.60298 99.4044 7.366 99.4044 7.1108C99.4044 6.85559 99.3638 6.61778 99.2826 6.39737C99.2014 6.17696 99.0763 5.99882 98.9072 5.86293C98.7382 5.72704 98.5228 5.65909 98.2609 5.65909C97.9991 5.65909 97.7836 5.72704 97.6146 5.86293C97.4456 5.99882 97.3205 6.17696 97.2393 6.39737C97.1581 6.61778 97.1175 6.85559 97.1175 7.1108C97.1175 7.366 97.1581 7.60298 97.2393 7.82173C97.3205 8.04048 97.4456 8.21697 97.6146 8.35121C97.7836 8.48544 97.9991 8.55256 98.2609 8.55256ZM101.622 9L100.458 5.18182H101.075L101.9 8.10511H101.94L102.755 5.18182H103.382L104.187 8.09517H104.227L105.052 5.18182H105.669L104.505 9H103.929L103.093 6.06676H103.034L102.198 9H101.622ZM108.214 4.45597V3.90909H112.032V4.45597H110.431V9H109.815V4.45597H108.214ZM112.904 9V5.18182H113.491V9H112.904ZM113.202 4.54545C113.088 4.54545 112.989 4.50651 112.907 4.42862C112.825 4.35073 112.785 4.2571 112.785 4.14773C112.785 4.03835 112.825 3.94472 112.907 3.86683C112.989 3.78894 113.088 3.75 113.202 3.75C113.317 3.75 113.415 3.78894 113.496 3.86683C113.579 3.94472 113.62 4.03835 113.62 4.14773C113.62 4.2571 113.579 4.35073 113.496 4.42862C113.415 4.50651 113.317 4.54545 113.202 4.54545ZM114.565 9V5.18182H115.132V5.77841H115.182C115.261 5.57457 115.39 5.41631 115.567 5.30362C115.744 5.18928 115.957 5.1321 116.206 5.1321C116.458 5.1321 116.667 5.18928 116.835 5.30362C117.004 5.41631 117.136 5.57457 117.23 5.77841H117.27C117.368 5.5812 117.514 5.4246 117.71 5.30859C117.905 5.19093 118.14 5.1321 118.413 5.1321C118.755 5.1321 119.034 5.23899 119.251 5.45277C119.468 5.66489 119.577 5.9955 119.577 6.4446V9H118.99V6.4446C118.99 6.16288 118.913 5.96153 118.759 5.84055C118.605 5.71958 118.423 5.65909 118.214 5.65909C117.946 5.65909 117.738 5.74029 117.59 5.9027C117.443 6.06345 117.369 6.26728 117.369 6.5142V9H116.773V6.38494C116.773 6.16785 116.702 5.99302 116.561 5.86044C116.42 5.72621 116.239 5.65909 116.017 5.65909C115.864 5.65909 115.722 5.69969 115.589 5.78089C115.458 5.8621 115.352 5.97479 115.271 6.11896C115.192 6.26148 115.152 6.42637 115.152 6.61364V9H114.565ZM122.25 9.07955C121.882 9.07955 121.565 8.99834 121.298 8.83594C121.033 8.67188 120.828 8.44318 120.684 8.14986C120.542 7.85488 120.47 7.51184 120.47 7.12074C120.47 6.72964 120.542 6.38494 120.684 6.08665C120.828 5.7867 121.029 5.55303 121.286 5.38565C121.544 5.21662 121.846 5.1321 122.19 5.1321C122.389 5.1321 122.586 5.16525 122.78 5.23153C122.973 5.29782 123.15 5.40554 123.309 5.55469C123.468 5.70218 123.595 5.89773 123.689 6.14134C123.784 6.38494 123.831 6.6849 123.831 7.04119V7.28977H120.888V6.78267H123.234C123.234 6.56723 123.191 6.375 123.105 6.20597C123.021 6.03693 122.9 5.90353 122.742 5.80575C122.586 5.70798 122.403 5.65909 122.19 5.65909C121.957 5.65909 121.755 5.71709 121.584 5.8331C121.415 5.94744 121.285 6.09659 121.194 6.28054C121.102 6.46449 121.057 6.66169 121.057 6.87216V7.21023C121.057 7.49858 121.107 7.74302 121.206 7.94354C121.307 8.1424 121.447 8.29403 121.626 8.39844C121.805 8.50118 122.013 8.55256 122.25 8.55256C122.404 8.55256 122.543 8.53101 122.668 8.48793C122.794 8.44318 122.902 8.37689 122.993 8.28906C123.084 8.19957 123.155 8.08854 123.205 7.95597L123.771 8.11506C123.712 8.30729 123.611 8.47633 123.471 8.62216C123.33 8.76634 123.156 8.87902 122.949 8.96023C122.741 9.03977 122.509 9.07955 122.25 9.07955ZM125.499 3.90909L125.449 7.56818H124.873L124.823 3.90909H125.499ZM125.161 9.03977C125.038 9.03977 124.933 8.99586 124.845 8.90803C124.757 8.82019 124.714 8.71496 124.714 8.59233C124.714 8.4697 124.757 8.36446 124.845 8.27663C124.933 8.1888 125.038 8.14489 125.161 8.14489C125.284 8.14489 125.389 8.1888 125.477 8.27663C125.564 8.36446 125.608 8.4697 125.608 8.59233C125.608 8.67353 125.588 8.74811 125.546 8.81605C125.506 8.884 125.453 8.93868 125.385 8.98011C125.318 9.01989 125.244 9.03977 125.161 9.03977Z" fill="white"/>
<path d="M88.62 37.5505H89.1595V43.4395H88.62V37.5505ZM89.0295 39.8905H90.1215V40.3455H89.0295V39.8905ZM84.876 41.574H85.344C86.449 41.574 87.216 41.535 88.1065 41.366L88.165 41.8145C87.2485 41.977 86.4685 42.0225 85.344 42.0225H84.876V41.574ZM84.863 38.103H87.5215V40.209H85.409V41.756H84.876V39.767H86.9885V38.545H84.863V38.103ZM92.9745 37.96H93.4425V38.4085C93.4425 39.689 92.253 40.6835 91.0765 40.95L90.836 40.5015C91.8695 40.3065 92.9745 39.4095 92.9745 38.4085V37.96ZM93.072 37.96H93.54V38.4085C93.54 39.416 94.6515 40.3065 95.6785 40.5015L95.438 40.95C94.268 40.6835 93.072 39.6955 93.072 38.4085V37.96ZM90.6215 42.198H95.945V42.64H90.6215V42.198ZM96.809 38.1355H97.3225V39.5655H98.5575V38.1355H99.058V41.9575H96.809V38.1355ZM97.3225 40.001V41.5155H98.5575V40.001H97.3225ZM101.073 37.557H101.593V43.433H101.073V37.557ZM98.967 39.7865H100.098V40.235H98.967V39.7865ZM99.9095 37.6805H100.423V43.1405H99.9095V37.6805ZM106.552 37.5505H107.098V43.433H106.552V37.5505ZM106.948 39.936H108.034V40.3845H106.948V39.936ZM105.05 38.1875H105.577C105.577 39.858 104.81 41.366 102.912 42.3215L102.613 41.9055C104.238 41.08 105.05 39.8255 105.05 38.272V38.1875ZM102.886 38.1875H105.33V38.6295H102.886V38.1875ZM110.913 37.96H111.381V38.4085C111.381 39.689 110.191 40.6835 109.015 40.95L108.774 40.5015C109.808 40.3065 110.913 39.4095 110.913 38.4085V37.96ZM111.01 37.96H111.478V38.4085C111.478 39.416 112.59 40.3065 113.617 40.5015L113.376 40.95C112.206 40.6835 111.01 39.6955 111.01 38.4085V37.96ZM108.56 42.198H113.883V42.64H108.56V42.198ZM116.444 37.9795C117.36 37.9795 118.017 38.545 118.017 39.364C118.017 40.1895 117.36 40.755 116.444 40.755C115.527 40.755 114.864 40.1895 114.864 39.364C114.864 38.545 115.527 37.9795 116.444 37.9795ZM116.444 38.4475C115.833 38.4475 115.391 38.818 115.391 39.364C115.391 39.91 115.833 40.287 116.444 40.287C117.048 40.287 117.49 39.91 117.49 39.364C117.49 38.818 117.048 38.4475 116.444 38.4475ZM118.784 37.5505H119.323V43.4395H118.784V37.5505ZM114.643 42.1525L114.565 41.704C115.638 41.704 117.12 41.6975 118.4 41.496L118.446 41.8925C117.126 42.146 115.69 42.1525 114.643 42.1525ZM123.868 41.0605H124.408V42.016H123.868V41.0605ZM126.338 37.557H126.878V43.433H126.338V37.557ZM126.702 40.053H127.788V40.508H126.702V40.053ZM122.354 42.315L122.276 41.8665C123.329 41.8665 124.765 41.8535 125.981 41.678L126.026 42.081C124.759 42.3085 123.381 42.315 122.354 42.315ZM122.373 38.2655H125.89V38.701H122.373V38.2655ZM124.135 39.0455C124.954 39.0455 125.519 39.4745 125.519 40.131C125.519 40.794 124.954 41.2165 124.135 41.2165C123.316 41.2165 122.757 40.794 122.757 40.131C122.757 39.4745 123.316 39.0455 124.135 39.0455ZM124.135 39.4615C123.608 39.4615 123.264 39.728 123.264 40.131C123.264 40.534 123.608 40.8005 124.135 40.8005C124.661 40.8005 125.012 40.534 125.012 40.131C125.012 39.728 124.661 39.4615 124.135 39.4615ZM123.868 37.5635H124.408V38.558H123.868V37.5635ZM132.617 37.5505H133.156V43.4395H132.617V37.5505ZM131.46 38.896H132.76V39.338H131.46V38.896ZM128.541 41.6195H128.977C129.887 41.6195 130.634 41.5935 131.531 41.4505L131.583 41.899C130.66 42.042 129.906 42.0745 128.977 42.0745H128.541V41.6195ZM128.528 38.0835H131.096V40.1895H129.074V41.7235H128.541V39.7475H130.563V38.532H128.528V38.0835ZM131.421 40.5015H132.721V40.9435H131.421V40.5015ZM138.323 37.557H138.863V41.093H138.323V37.557ZM138.713 39.117H139.734V39.5655H138.713V39.117ZM135.171 41.4245H138.863V43.355H135.171V41.4245ZM138.336 41.86H135.697V42.9195H138.336V41.86ZM134.319 38.1745H137.79V38.6165H134.319V38.1745ZM136.055 38.9025C136.893 38.9025 137.459 39.3185 137.459 39.9555C137.459 40.5925 136.893 40.9955 136.055 40.9955C135.21 40.9955 134.644 40.5925 134.644 39.9555C134.644 39.3185 135.21 38.9025 136.055 38.9025ZM136.055 39.3185C135.515 39.3185 135.158 39.5655 135.158 39.9555C135.158 40.339 135.515 40.586 136.055 40.586C136.581 40.586 136.945 40.339 136.945 39.9555C136.945 39.5655 136.581 39.3185 136.055 39.3185ZM135.782 37.505H136.321V38.402H135.782V37.505ZM140.955 40.3H144.992V40.742H140.955V40.3ZM140.286 42.2435H145.609V42.6985H140.286V42.2435ZM142.665 40.4885H143.204V42.4255H142.665V40.4885ZM140.955 38.025H144.933V38.467H141.495V40.495H140.955V38.025ZM148.34 41.574H148.802C149.887 41.574 150.635 41.548 151.519 41.392L151.577 41.834C150.667 41.99 149.9 42.0225 148.802 42.0225H148.34V41.574ZM148.34 38.09H151.077V38.5385H148.88V41.73H148.34V38.09ZM148.743 39.7345H150.947V40.17H148.743V39.7345ZM152.065 37.557H152.611V43.433H152.065V37.557ZM152.481 39.9165H153.573V40.3715H152.481V39.9165ZM154.404 38.129H157.108V41.9575H154.404V38.129ZM156.582 38.5645H154.931V41.522H156.582V38.5645ZM158.337 37.5505H158.876V43.4395H158.337V37.5505ZM162.405 37.96H162.873V38.4085C162.873 39.689 161.684 40.6835 160.507 40.95L160.267 40.5015C161.3 40.3065 162.405 39.4095 162.405 38.4085V37.96ZM162.503 37.96H162.971V38.4085C162.971 39.416 164.082 40.3065 165.109 40.5015L164.869 40.95C163.699 40.6835 162.503 39.6955 162.503 38.4085V37.96ZM160.052 42.198H165.376V42.64H160.052V42.198ZM167.514 40.521H168.053V41.925H167.514V40.521ZM167.78 37.934C168.684 37.934 169.334 38.4995 169.334 39.3185C169.334 40.1375 168.684 40.703 167.78 40.703C166.877 40.703 166.227 40.1375 166.227 39.3185C166.227 38.4995 166.877 37.934 167.78 37.934ZM167.78 38.3955C167.182 38.3955 166.753 38.7725 166.753 39.3185C166.753 39.8645 167.182 40.2415 167.78 40.2415C168.378 40.2415 168.807 39.8645 168.807 39.3185C168.807 38.7725 168.378 38.3955 167.78 38.3955ZM170.003 37.557H170.543V43.433H170.003V37.557ZM170.387 39.975H171.472V40.43H170.387V39.975ZM166.038 42.1655L165.96 41.717C167.02 41.7105 168.437 41.704 169.633 41.5415L169.678 41.9445C168.437 42.1525 167.065 42.1655 166.038 42.1655ZM177.856 37.557H178.396V41.093H177.856V37.557ZM178.246 39.117H179.267V39.5655H178.246V39.117ZM174.704 41.4245H178.396V43.355H174.704V41.4245ZM177.869 41.86H175.23V42.9195H177.869V41.86ZM173.852 38.1745H177.323V38.6165H173.852V38.1745ZM175.588 38.9025C176.426 38.9025 176.992 39.3185 176.992 39.9555C176.992 40.5925 176.426 40.9955 175.588 40.9955C174.743 40.9955 174.177 40.5925 174.177 39.9555C174.177 39.3185 174.743 38.9025 175.588 38.9025ZM175.588 39.3185C175.048 39.3185 174.691 39.5655 174.691 39.9555C174.691 40.339 175.048 40.586 175.588 40.586C176.114 40.586 176.478 40.339 176.478 39.9555C176.478 39.5655 176.114 39.3185 175.588 39.3185ZM175.315 37.505H175.854V38.402H175.315V37.505ZM180.8 38.259H181.255C181.255 39.52 181.086 40.9045 180.248 42.0485L179.825 41.8015C180.631 40.755 180.8 39.5265 180.8 38.298V38.259ZM179.949 38.259H181.067V38.7075H179.949V38.259ZM182.094 38.259H182.555C182.555 39.5005 182.477 41.1515 181.554 42.4255L181.125 42.1785C182.022 41.0085 182.094 39.481 182.094 38.3045V38.259ZM181.45 38.259H182.38V38.7075H181.45V38.259ZM184.31 37.557H184.83V43.433H184.31V37.557ZM182.282 39.8645H183.335V40.3065H182.282V39.8645ZM183.225 37.7065H183.732V43.134H183.225V37.7065Z" fill="white"/>
<path d="M79.5848 38.405H76.5848V43.915H82.1849V40.7319" stroke="white"/>
<path d="M77.5043 39.9949L79.3412 42.137L83.2279 37.4241" stroke="white"/>
<path d="M75.781 25.448H76.496C77.981 25.448 78.927 25.426 80.071 25.25L80.192 26.438C79.026 26.636 78.014 26.658 76.496 26.658H75.781V25.448ZM75.781 19.849H79.895V21.015H77.167V25.932H75.781V19.849ZM76.771 22.511H79.697V23.644H76.771V22.511ZM82.799 18.793H84.196V28.979H82.799V18.793ZM81.578 22.731H83.261V23.908H81.578V22.731ZM80.599 18.947H81.974V28.517H80.599V18.947ZM93.1271 20.047H94.8871V21.235H93.1271V20.047ZM93.1271 22.258H94.8871V23.446H93.1271V22.258ZM88.3971 19.343C89.9701 19.343 91.1691 20.377 91.1691 21.818C91.1691 23.248 89.9701 24.282 88.3971 24.282C86.8241 24.282 85.6251 23.248 85.6251 21.818C85.6251 20.377 86.8241 19.343 88.3971 19.343ZM88.3971 20.564C87.6271 20.564 87.0551 21.037 87.0551 21.818C87.0551 22.61 87.6271 23.061 88.3971 23.061C89.1671 23.061 89.7391 22.61 89.7391 21.818C89.7391 21.037 89.1671 20.564 88.3971 20.564ZM92.1151 18.793H93.5781V24.733H92.1151V18.793ZM90.2561 24.953C92.3571 24.953 93.6991 25.712 93.6991 26.966C93.6991 28.231 92.3571 28.979 90.2561 28.979C88.1441 28.979 86.8021 28.231 86.8021 26.966C86.8021 25.712 88.1441 24.953 90.2561 24.953ZM90.2561 26.108C88.9581 26.108 88.2541 26.383 88.2541 26.966C88.2541 27.56 88.9581 27.835 90.2561 27.835C91.5541 27.835 92.2471 27.56 92.2471 26.966C92.2471 26.383 91.5541 26.108 90.2561 26.108ZM98.9563 19.464C100.562 19.464 101.761 20.509 101.761 21.972C101.761 23.446 100.562 24.491 98.9563 24.491C97.3613 24.491 96.1403 23.446 96.1403 21.972C96.1403 20.509 97.3613 19.464 98.9563 19.464ZM98.9563 20.718C98.1753 20.718 97.5813 21.18 97.5813 21.972C97.5813 22.775 98.1753 23.237 98.9563 23.237C99.7373 23.237 100.331 22.775 100.331 21.972C100.331 21.18 99.7373 20.718 98.9563 20.718ZM102.718 18.782H104.181V29.001H102.718V18.782ZM95.8983 26.933L95.7223 25.756C97.5153 25.756 100.012 25.734 102.157 25.415L102.267 26.471C100.056 26.911 97.6583 26.933 95.8983 26.933ZM113.48 21.972H116.164V23.149H113.48V21.972ZM110.708 19.574H111.896V21.048C111.896 23.611 111.027 25.976 109.113 26.933L108.2 25.756C109.938 24.953 110.708 22.984 110.708 21.048V19.574ZM111.016 19.574H112.182V21.048C112.182 22.984 112.919 24.843 114.602 25.591L113.733 26.757C111.819 25.833 111.016 23.589 111.016 21.048V19.574ZM115.438 18.782H116.89V29.001H115.438V18.782ZM122.224 19.772H123.643C123.643 22.907 122.829 25.536 119.177 27.45L118.374 26.339C121.377 24.755 122.224 22.83 122.224 19.948V19.772ZM118.979 19.772H123.115V20.927H118.979V19.772ZM122.367 22.269V23.38L118.627 23.721L118.44 22.489L122.367 22.269ZM125.524 18.793H126.987V28.979H125.524V18.793ZM123.632 22.698H126.294V23.886H123.632V22.698ZM132.366 19.376H133.642V20.113C133.642 22.324 132.069 24.282 129.429 24.799L128.802 23.589C131.101 23.193 132.366 21.576 132.366 20.113V19.376ZM132.663 19.376H133.928V20.113C133.928 21.609 135.182 23.193 137.492 23.589L136.865 24.799C134.225 24.282 132.663 22.357 132.663 20.113V19.376ZM128.593 26.548H137.811V27.736H128.593V26.548ZM140.733 26.9062L140.69 27.3359C140.657 27.6797 140.591 28.0221 140.495 28.3633C140.401 28.707 140.302 29.0182 140.198 29.2969C140.097 29.5755 140.015 29.7943 139.952 29.9531H138.874C138.913 29.7995 138.966 29.5846 139.034 29.3086C139.102 29.0352 139.166 28.7279 139.226 28.3867C139.285 28.0456 139.323 27.6979 139.339 27.3437L139.358 26.9062H140.733ZM152.842 17.106H154.558V29.183H152.842V17.106ZM154.168 21.656H156.3V23.086H154.168V21.656ZM145.614 24.971H146.628C148.669 24.971 150.255 24.906 152.023 24.594L152.192 25.985C150.372 26.31 148.721 26.388 146.628 26.388H145.614V24.971ZM145.601 18.133H151.139V22.8H147.33V25.504H145.614V21.422H149.423V19.511H145.601V18.133ZM161.551 17.808H163.059V18.679C163.059 21.292 161.2 23.606 158.08 24.217L157.339 22.787C160.056 22.319 161.551 20.408 161.551 18.679V17.808ZM161.902 17.808H163.397V18.679C163.397 20.447 164.879 22.319 167.609 22.787L166.868 24.217C163.748 23.606 161.902 21.331 161.902 18.679V17.808ZM157.092 26.284H167.986V27.688H157.092V26.284ZM169.376 18.211H171.001V20.98H172.561V18.211H174.147V26.31H169.376V18.211ZM171.001 22.332V24.919H172.561V22.332H171.001ZM177.735 17.119H179.386V29.157H177.735V17.119ZM173.874 21.513H175.876V22.917H173.874V21.513ZM175.278 17.314H176.903V28.624H175.278V17.314ZM188.693 17.106H190.435V29.144H188.693V17.106ZM189.98 21.708H192.099V23.125H189.98V21.708ZM185.534 18.354H187.224C187.224 21.968 185.846 25.062 181.842 27.077L180.88 25.764C184.039 24.126 185.534 21.916 185.534 18.653V18.354ZM181.543 18.354H186.418V19.745H181.543V18.354ZM197.428 17.808H198.936V18.679C198.936 21.292 197.077 23.606 193.957 24.217L193.216 22.787C195.933 22.319 197.428 20.408 197.428 18.679V17.808ZM197.779 17.808H199.274V18.679C199.274 20.447 200.756 22.319 203.486 22.787L202.745 24.217C199.625 23.606 197.779 21.331 197.779 18.679V17.808ZM192.969 26.284H203.863V27.688H192.969V26.284ZM210.601 23.957H212.317V27.116H210.601V23.957ZM214.436 23.957H216.152V27.116H214.436V23.957ZM207.936 26.362H218.83V27.779H207.936V26.362ZM212.395 17.769H213.903V18.627C213.903 21.136 212.044 23.307 208.872 23.84L208.17 22.423C210.926 21.994 212.395 20.239 212.395 18.627V17.769ZM212.733 17.769H214.241V18.627C214.241 20.265 215.697 21.994 218.479 22.423L217.777 23.84C214.592 23.294 212.733 21.162 212.733 18.627V17.769ZM226.055 28.1385C225.403 28.1385 224.839 28.0215 224.365 27.7876C223.891 27.5537 223.527 27.2367 223.271 26.8366C223.019 26.4335 222.893 25.9841 222.893 25.4886C222.893 25.1193 222.967 24.7915 223.114 24.5053C223.262 24.2191 223.468 23.956 223.733 23.7159C223.998 23.4728 224.305 23.2312 224.656 22.9911L226.489 21.7862C226.726 21.6354 226.9 21.4769 227.011 21.3107C227.121 21.1415 227.177 20.9583 227.177 20.7614C227.177 20.5736 227.101 20.3997 226.951 20.2397C226.8 20.0797 226.586 20.0012 226.309 20.0043C226.124 20.0043 225.964 20.0458 225.829 20.1289C225.693 20.2089 225.587 20.3151 225.51 20.4474C225.436 20.5767 225.4 20.7214 225.4 20.8814C225.4 21.0784 225.455 21.2784 225.566 21.4815C225.676 21.6847 225.824 21.9001 226.009 22.1278C226.194 22.3525 226.395 22.5956 226.614 22.8572L231.096 28H229.047L225.307 23.8359C225.061 23.5559 224.815 23.2635 224.569 22.9588C224.325 22.651 224.122 22.3248 223.959 21.9801C223.796 21.6323 223.714 21.2553 223.714 20.8491C223.714 20.3905 223.821 19.9781 224.033 19.6119C224.248 19.2456 224.55 18.9563 224.938 18.744C225.326 18.5285 225.778 18.4208 226.295 18.4208C226.8 18.4208 227.235 18.5239 227.602 18.7301C227.971 18.9332 228.254 19.2041 228.451 19.5426C228.651 19.8781 228.751 20.2474 228.751 20.6506C228.751 21.0968 228.64 21.5015 228.419 21.8647C228.2 22.2248 227.892 22.5479 227.495 22.8342L225.566 24.2237C225.304 24.4145 225.11 24.61 224.984 24.81C224.861 25.007 224.799 25.1963 224.799 25.3778C224.799 25.6025 224.855 25.8041 224.966 25.9826C225.076 26.1611 225.233 26.3027 225.436 26.4073C225.64 26.5089 225.878 26.5597 226.152 26.5597C226.484 26.5597 226.812 26.4843 227.135 26.3335C227.462 26.1796 227.757 25.9626 228.022 25.6825C228.289 25.3994 228.503 25.0639 228.663 24.6761C228.823 24.2884 228.903 23.859 228.903 23.3881H230.533C230.533 23.9667 230.47 24.4884 230.344 24.9531C230.218 25.4148 230.042 25.8179 229.817 26.1626C229.593 26.5043 229.336 26.7843 229.047 27.0028C228.954 27.0613 228.865 27.1167 228.779 27.169C228.693 27.2214 228.603 27.2768 228.511 27.3352C228.16 27.6184 227.768 27.823 227.334 27.9492C226.903 28.0754 226.477 28.1385 226.055 28.1385ZM237.156 24.178H238.885V29.196H237.156V24.178ZM241.394 24.178H243.123V29.196H241.394V24.178ZM234.66 23.827H245.567V25.205H234.66V23.827ZM235.921 17.691H244.267V22.54H235.921V17.691ZM242.564 19.043H237.624V21.175H242.564V19.043ZM249.518 19.017H250.896V20.369C250.896 23.151 249.765 25.868 247.503 26.895L246.528 25.53C248.543 24.633 249.518 22.41 249.518 20.369V19.017ZM249.908 19.017H251.273V20.369C251.273 22.319 252.235 24.399 254.25 25.231L253.314 26.596C251.026 25.608 249.908 23.047 249.908 20.369V19.017ZM247.009 18.276H253.756V19.693H247.009V18.276ZM254.874 17.119H256.616V29.157H254.874V17.119ZM264.87 19.693H267.184V21.071H264.87V19.693ZM263.037 17.639H264.844C264.844 20.889 263.258 22.787 259.41 23.684L258.786 22.371C262.088 21.656 263.037 20.265 263.037 18.497V17.639ZM259.449 17.639H264.285V18.965H259.449V17.639ZM263.388 19.641V20.772L259.085 21.084L258.851 19.784L263.388 19.641ZM266.924 17.119H268.653V23.19H266.924V17.119ZM260.697 23.658H268.653V26.934H262.426V28.416H260.723V25.686H266.937V24.997H260.697V23.658ZM260.723 27.688H268.9V29.027H260.723V27.688Z" fill="white"/>
<path d="M104.25 23C104.802 23 105.25 22.5523 105.25 22C105.25 21.4477 104.802 21 104.25 21C103.698 21 103.25 21.4477 103.25 22C103.25 22.5523 103.698 23 104.25 23Z" fill="white"/>
</g>
</g>
<defs>
<clipPath id="clip0_78_15">
<rect width="345" height="47" fill="white"/>
</clipPath>
</defs>
</svg>
