<svg width="345" height="47" viewBox="0 0 345 47" fill="none" xmlns="http://www.w3.org/2000/svg">
<g clip-path="url(#clip0_77_2)">
<mask id="mask0_77_2" style="mask-type:luminance" maskUnits="userSpaceOnUse" x="0" y="0" width="345" height="47">
<path d="M345 0H0V47H345V0Z" fill="white"/>
</mask>
<g mask="url(#mask0_77_2)">
<mask id="mask1_77_2" style="mask-type:luminance" maskUnits="userSpaceOnUse" x="0" y="0" width="345" height="47">
<path d="M345 0H0V47H345V0Z" fill="white"/>
</mask>
<g mask="url(#mask1_77_2)">
<path d="M75.241 15.106H76.957V27.183H75.241V15.106ZM76.567 19.656H78.699V21.086H76.567V19.656ZM68.013 22.971H69.027C71.068 22.971 72.654 22.906 74.422 22.594L74.591 23.985C72.771 24.31 71.12 24.388 69.027 24.388H68.013V22.971ZM68 16.133H73.538V20.8H69.729V23.504H68.013V19.422H71.822V17.511H68V16.133ZM83.95 15.808H85.458V16.679C85.458 19.292 83.599 21.606 80.479 22.217L79.738 20.787C82.455 20.319 83.95 18.408 83.95 16.679V15.808ZM84.301 15.808H85.796V16.679C85.796 18.447 87.278 20.319 90.008 20.787L89.267 22.217C86.147 21.606 84.301 19.331 84.301 16.679V15.808ZM79.491 24.284H90.385V25.688H79.491V24.284ZM91.775 16.211H93.4V18.98H94.96V16.211H96.546V24.31H91.775V16.211ZM93.4 20.332V22.919H94.96V20.332H93.4ZM100.134 15.119H101.785V27.157H100.134V15.119ZM96.273 19.513H98.275V20.917H96.273V19.513ZM97.677 15.314H99.302V26.624H97.677V15.314ZM111.092 15.106H112.834V27.144H111.092V15.106ZM112.379 19.708H114.498V21.125H112.379V19.708ZM107.933 16.354H109.623C109.623 19.968 108.245 23.062 104.241 25.077L103.279 23.764C106.438 22.126 107.933 19.916 107.933 16.653V16.354ZM103.942 16.354H108.817V17.745H103.942V16.354ZM119.827 15.808H121.335V16.679C121.335 19.292 119.476 21.606 116.356 22.217L115.615 20.787C118.332 20.319 119.827 18.408 119.827 16.679V15.808ZM120.178 15.808H121.673V16.679C121.673 18.447 123.155 20.319 125.885 20.787L125.144 22.217C122.024 21.606 120.178 19.331 120.178 16.679V15.808ZM115.368 24.284H126.262V25.688H115.368V24.284ZM132.379 25.5664V20.0352H133.777V25.5664H132.379ZM130.312 23.5V22.1016H135.844V23.5H130.312ZM141 16.224H148.631V17.589H141V16.224ZM139.895 24.18H150.776V25.584H139.895V24.18ZM147.721 16.224H149.437V17.654C149.437 19.344 149.437 20.982 149.008 23.452L147.279 23.309C147.721 20.995 147.721 19.279 147.721 17.654V16.224ZM160.46 15.119H162.098V24.05H160.46V15.119ZM159.004 18.538H160.915V19.929H159.004V18.538ZM157.886 15.34H159.498V23.816H157.886V15.34ZM153.999 25.571H162.41V26.949H153.999V25.571ZM153.999 23.218H155.728V26.091H153.999V23.218ZM152.322 21.06H153.154C154.883 21.06 156.001 21.021 157.327 20.774L157.47 22.139C156.105 22.386 154.935 22.425 153.154 22.425H152.322V21.06ZM152.309 16.094H156.872V19.851H153.999V21.827H152.322V18.59H155.208V17.446H152.309V16.094ZM165.074 20.67H173.537V22.048H165.074V20.67ZM163.813 24.297H174.707V25.714H163.813V24.297ZM165.074 16.107H173.446V17.511H166.79V21.242H165.074V16.107ZM187.465 15.119H189.116V27.157H187.465V15.119ZM185.905 19.708H187.894V21.099H185.905V19.708ZM182.499 16.51H184.137C184.137 19.968 183.292 22.763 179.704 24.856L178.742 23.634C181.706 21.918 182.499 19.812 182.499 16.822V16.51ZM179.457 16.51H183.045V17.901H179.457V16.51ZM184.813 15.379H186.425V26.637H184.813V15.379ZM182.525 19.227V20.501L179.028 20.878L178.833 19.422L182.525 19.227ZM199.073 15.119H200.802V23.972H199.073V15.119ZM196.161 16.458H199.658V17.81H196.161V16.458ZM192.846 25.571H201.075V26.949H192.846V25.571ZM192.846 23.179H194.588V26.273H192.846V23.179ZM191.39 15.886H193.106V21.541H191.39V15.886ZM191.39 21.021H192.352C194.094 21.021 195.641 20.943 197.357 20.644L197.513 22.035C195.745 22.36 194.159 22.425 192.352 22.425H191.39V21.021ZM196.161 18.694H199.658V20.059H196.161V18.694ZM207.751 25.5664V20.0352H209.149V25.5664H207.751ZM205.685 23.5V22.1016H211.216V23.5H205.685ZM217.711 22.724H219.479V27.157H217.711V22.724ZM221.871 22.724H223.639V27.157H221.871V22.724ZM215.254 21.814H226.161V23.205H215.254V21.814ZM220.675 15.522C223.249 15.522 225.03 16.575 225.03 18.226C225.03 19.851 223.249 20.904 220.675 20.904C218.114 20.904 216.333 19.851 216.333 18.226C216.333 16.575 218.114 15.522 220.675 15.522ZM220.675 16.9C219.102 16.9 218.101 17.368 218.101 18.226C218.101 19.071 219.102 19.539 220.675 19.539C222.261 19.539 223.249 19.071 223.249 18.226C223.249 17.368 222.261 16.9 220.675 16.9ZM227.681 23.036H228.695C230.723 23.036 232.27 23.01 234.064 22.724L234.22 24.102C232.4 24.388 230.762 24.44 228.695 24.44H227.681V23.036ZM227.681 16.12H233.336V17.524H229.423V23.491H227.681V16.12ZM229.007 19.461H233.167V20.813H229.007V19.461ZM234.909 15.119H236.651V27.157H234.909V15.119ZM236.261 19.682H238.393V21.112H236.261V19.682ZM243.046 15.912C244.944 15.912 246.361 17.147 246.361 18.876C246.361 20.618 244.944 21.853 243.046 21.853C241.161 21.853 239.718 20.618 239.718 18.876C239.718 17.147 241.161 15.912 243.046 15.912ZM243.046 17.394C242.123 17.394 241.421 17.94 241.421 18.876C241.421 19.825 242.123 20.371 243.046 20.371C243.969 20.371 244.671 19.825 244.671 18.876C244.671 17.94 243.969 17.394 243.046 17.394ZM247.492 15.106H249.221V27.183H247.492V15.106ZM239.432 24.739L239.224 23.348C241.343 23.348 244.294 23.322 246.829 22.945L246.959 24.193C244.346 24.713 241.512 24.739 239.432 24.739ZM262.837 15.119H264.488V27.157H262.837V15.119ZM261.277 19.708H263.266V21.099H261.277V19.708ZM257.871 16.51H259.509C259.509 19.968 258.664 22.763 255.076 24.856L254.114 23.634C257.078 21.918 257.871 19.812 257.871 16.822V16.51ZM254.829 16.51H258.417V17.901H254.829V16.51ZM260.185 15.379H261.797V26.637H260.185V15.379ZM257.897 19.227V20.501L254.4 20.878L254.205 19.422L257.897 19.227ZM274.445 15.119H276.174V23.972H274.445V15.119ZM271.533 16.458H275.03V17.81H271.533V16.458ZM268.218 25.571H276.447V26.949H268.218V25.571ZM268.218 23.179H269.96V26.273H268.218V23.179ZM266.762 15.886H268.478V21.541H266.762V15.886ZM266.762 21.021H267.724C269.466 21.021 271.013 20.943 272.729 20.644L272.885 22.035C271.117 22.36 269.531 22.425 267.724 22.425H266.762V21.021ZM271.533 18.694H275.03V20.059H271.533V18.694Z" fill="white"/>
<path d="M69.987 6.99094H70.568V8.01994H69.987V6.99094ZM72.647 3.21794H73.228V9.54594H72.647V3.21794ZM73.039 5.90594H74.208V6.39594H73.039V5.90594ZM68.356 8.34194L68.272 7.85894C69.406 7.85894 70.953 7.84494 72.262 7.65594L72.311 8.08994C70.946 8.33494 69.462 8.34194 68.356 8.34194ZM68.377 3.98094H72.164V4.44994H68.377V3.98094ZM70.274 4.82094C71.156 4.82094 71.765 5.28294 71.765 5.98994C71.765 6.70394 71.156 7.15894 70.274 7.15894C69.392 7.15894 68.79 6.70394 68.79 5.98994C68.79 5.28294 69.392 4.82094 70.274 4.82094ZM70.274 5.26894C69.707 5.26894 69.336 5.55594 69.336 5.98994C69.336 6.42394 69.707 6.71094 70.274 6.71094C70.841 6.71094 71.219 6.42394 71.219 5.98994C71.219 5.55594 70.841 5.26894 70.274 5.26894ZM69.987 3.22494H70.568V4.29594H69.987V3.22494ZM79.4085 3.21094H79.9895V9.55294H79.4085V3.21094ZM78.1625 4.65994H79.5625V5.13594H78.1625V4.65994ZM75.0195 7.59294H75.4885C76.4685 7.59294 77.2735 7.56494 78.2395 7.41094L78.2955 7.89394C77.3015 8.04794 76.4895 8.08294 75.4885 8.08294H75.0195V7.59294ZM75.0055 3.78494H77.7705V6.05294H75.5935V7.70494H75.0195V5.57694H77.1965V4.26794H75.0055V3.78494ZM78.1205 6.38894H79.5205V6.86494H78.1205V6.38894ZM85.5539 3.22494H86.1349V7.97094H85.5539V3.22494ZM85.9529 5.29694H87.0729V5.78694H85.9529V5.29694ZM81.2419 3.98794H84.9799V4.45694H81.2419V3.98794ZM83.1109 4.80694C84.0069 4.80694 84.6229 5.27594 84.6229 5.98994C84.6229 6.69694 84.0069 7.16594 83.1109 7.16594C82.2079 7.16594 81.5919 6.69694 81.5919 5.98994C81.5919 5.27594 82.2079 4.80694 83.1109 4.80694ZM83.1109 5.26194C82.5369 5.26194 82.1449 5.54894 82.1449 5.98994C82.1449 6.42394 82.5369 6.71094 83.1109 6.71094C83.6779 6.71094 84.0699 6.42394 84.0699 5.98994C84.0699 5.54894 83.6779 5.26194 83.1109 5.26194ZM82.8169 3.21794H83.3979V4.23294H82.8169V3.21794ZM82.1939 8.92994H86.4219V9.40594H82.1939V8.92994ZM82.1939 7.59294H82.7749V9.13294H82.1939V7.59294ZM90.3571 6.17194H94.7041V6.64794H90.3571V6.17194ZM89.6361 8.26494H95.3691V8.75494H89.6361V8.26494ZM92.1981 6.37494H92.7791V8.46094H92.1981V6.37494ZM90.3571 3.72194H94.6411V4.19794H90.9381V6.38194H90.3571V3.72194ZM97.7416 3.76394H98.2176V4.89794C98.2176 6.35394 97.4336 7.70494 96.3976 8.22994L96.0406 7.75394C96.9786 7.30594 97.7416 6.09494 97.7416 4.89794V3.76394ZM97.8396 3.76394H98.3156V4.89794C98.3156 6.05294 99.0716 7.21494 100.01 7.64894L99.6596 8.11094C98.6306 7.60694 97.8396 6.30494 97.8396 4.89794V3.76394ZM100.668 3.21094H101.249V9.55294H100.668V3.21094ZM104.566 3.67294C105.553 3.67294 106.26 4.28194 106.26 5.16394C106.26 6.05294 105.553 6.66194 104.566 6.66194C103.579 6.66194 102.865 6.05294 102.865 5.16394C102.865 4.28194 103.579 3.67294 104.566 3.67294ZM104.566 4.17694C103.908 4.17694 103.432 4.57594 103.432 5.16394C103.432 5.75194 103.908 6.15794 104.566 6.15794C105.217 6.15794 105.693 5.75194 105.693 5.16394C105.693 4.57594 105.217 4.17694 104.566 4.17694ZM107.086 3.21094H107.667V9.55294H107.086V3.21094ZM102.627 8.16694L102.543 7.68394C103.698 7.68394 105.294 7.67694 106.673 7.45994L106.722 7.88694C105.301 8.15994 103.754 8.16694 102.627 8.16694ZM112.61 3.70094C113.527 3.70094 114.185 4.56194 114.185 5.90594C114.185 7.25694 113.527 8.11794 112.61 8.11794C111.686 8.11794 111.035 7.25694 111.035 5.90594C111.035 4.56194 111.686 3.70094 112.61 3.70094ZM112.61 4.22594C112.001 4.22594 111.588 4.88394 111.588 5.90594C111.588 6.93494 112.001 7.60694 112.61 7.60694C113.219 7.60694 113.632 6.93494 113.632 5.90594C113.632 4.88394 113.219 4.22594 112.61 4.22594ZM115.557 3.21094H116.131V9.55294H115.557V3.21094ZM113.996 5.62594H115.809V6.10194H113.996V5.62594ZM118.098 6.62694H122.445V7.09594H118.098V6.62694ZM117.363 8.25094H123.096V8.73394H117.363V8.25094ZM118.098 3.75694H122.375V4.23294H118.686V6.77394H118.098V3.75694ZM118.497 5.17094H122.242V5.63294H118.497V5.17094ZM128.576 3.21794H129.129V7.17994H128.576V3.21794ZM127.561 4.90494H128.751V5.38094H127.561V4.90494ZM127.183 3.33694H127.729V7.11694H127.183V3.33694ZM124.887 7.48794H129.129V9.54594H128.555V7.96394H124.887V7.48794ZM124.089 6.38194H124.495C125.384 6.38194 126.042 6.34694 126.819 6.19294L126.875 6.66194C126.077 6.81594 125.412 6.85094 124.495 6.85094H124.089V6.38194ZM124.075 3.67994H126.455V5.45094H124.649V6.68294H124.089V5.01694H125.895V4.14894H124.075V3.67994ZM133.595 4.14894H135.016V4.63194H133.595V4.14894ZM133.595 5.45094H135.016V5.92694H133.595V5.45094ZM131.824 3.57494H132.293V4.37994C132.293 5.61894 131.614 6.67594 130.557 7.10294L130.249 6.64094C131.194 6.27694 131.824 5.37394 131.824 4.37994V3.57494ZM131.929 3.57494H132.405V4.37994C132.405 5.30394 133.014 6.17894 133.931 6.54294L133.609 6.99794C132.608 6.57794 131.929 5.55594 131.929 4.37994V3.57494ZM134.862 3.22494H135.443V7.94294H134.862V3.22494ZM131.376 8.92994H135.597V9.40594H131.376V8.92994ZM131.376 7.46694H131.957V9.18894H131.376V7.46694ZM137.743 8.30392L137.703 8.57238C137.675 8.7613 137.632 8.96348 137.574 9.17892C137.518 9.39435 137.459 9.59736 137.397 9.78794C137.336 9.97851 137.286 10.1301 137.246 10.2428H136.798C136.82 10.1367 136.848 9.99674 136.883 9.82274C136.918 9.64873 136.952 9.45401 136.987 9.23858C137.024 9.0248 137.054 8.80605 137.077 8.58233L137.107 8.30392H137.743ZM141.228 3.88994H145.302V4.35894H141.228V3.88994ZM140.612 8.13894H146.331V8.62194H140.612V8.13894ZM144.994 3.88994H145.561V4.51994C145.561 5.33194 145.561 6.23494 145.323 7.59994L144.742 7.54394C144.994 6.24894 144.994 5.30394 144.994 4.51994V3.88994ZM151.657 3.21094H152.238V9.55294H151.657V3.21094ZM147.415 7.54394H147.94C148.997 7.54394 149.942 7.50194 151.062 7.31994L151.125 7.79594C149.977 7.98494 149.025 8.02694 147.94 8.02694H147.415V7.54394ZM147.401 3.80594H150.327V6.06694H147.996V7.72594H147.415V5.59094H149.739V4.28194H147.401V3.80594ZM154.093 3.84794H158.167V4.33094H154.093V3.84794ZM153.491 8.18094H159.21V8.66394H153.491V8.18094ZM155.71 5.91994H156.291V8.41894H155.71V5.91994ZM157.95 3.84794H158.524V4.47794C158.524 5.26194 158.524 6.12994 158.293 7.41094L157.712 7.33394C157.95 6.12294 157.95 5.23394 157.95 4.47794V3.84794ZM166.708 3.21794H167.268V9.54594H166.708V3.21794ZM165.637 5.75194H166.855V6.23494H165.637V5.75194ZM165.273 3.35794H165.819V9.22394H165.273V3.35794ZM162.123 7.50194H162.536C163.46 7.50194 164.09 7.46694 164.825 7.31294L164.881 7.79594C164.125 7.95694 163.488 7.98494 162.536 7.98494H162.123V7.50194ZM162.123 3.98794H164.475V4.46394H162.697V7.71894H162.123V3.98794ZM169.899 4.12094H170.361V5.14994C170.361 6.46594 169.556 7.82394 168.569 8.32794L168.233 7.86594C169.136 7.42494 169.899 6.22094 169.899 5.14994V4.12094ZM170.004 4.12094H170.466V5.14994C170.466 6.15094 171.18 7.27794 172.097 7.71194L171.768 8.17394C170.767 7.67694 170.004 6.40294 170.004 5.14994V4.12094ZM168.457 3.86194H171.866V4.35194H168.457V3.86194ZM172.615 3.21794H173.203V9.54594H172.615V3.21794ZM173.063 5.77294H174.239V6.26294H173.063V5.77294ZM177.704 4.20494H179.608V4.68094H177.704V4.20494ZM177.704 5.72394H179.608V6.19994H177.704V5.72394ZM179.398 3.22494H179.979V7.90094H179.398V3.22494ZM175.94 8.92994H180.154V9.40594H175.94V8.92994ZM175.94 7.41794H176.521V9.13994H175.94V7.41794ZM176.5 3.62394C177.431 3.62394 178.131 4.27494 178.131 5.20594C178.131 6.13694 177.431 6.78794 176.5 6.78794C175.569 6.78794 174.869 6.13694 174.869 5.20594C174.869 4.27494 175.569 3.62394 176.5 3.62394ZM176.5 4.13494C175.884 4.13494 175.429 4.58294 175.429 5.20594C175.429 5.83594 175.884 6.28394 176.5 6.28394C177.116 6.28394 177.578 5.83594 177.578 5.20594C177.578 4.58294 177.116 4.13494 176.5 4.13494Z" fill="white"/>
<path d="M76.8879 41.574H77.3494C78.4349 41.574 79.1824 41.548 80.0664 41.392L80.1249 41.834C79.2149 41.99 78.4479 42.0225 77.3494 42.0225H76.8879V41.574ZM76.8879 38.09H79.6244V38.5385H77.4274V41.73H76.8879V38.09ZM77.2909 39.7345H79.4944V40.17H77.2909V39.7345ZM80.6124 37.557H81.1584V43.433H80.6124V37.557ZM81.0284 39.9165H82.1204V40.3715H81.0284V39.9165ZM82.9519 38.129H85.6559V41.9575H82.9519V38.129ZM85.1294 38.5645H83.4784V41.522H85.1294V38.5645ZM86.8844 37.5505H87.4239V43.4395H86.8844V37.5505ZM90.9529 37.96H91.4209V38.4085C91.4209 39.689 90.2314 40.6835 89.0549 40.95L88.8144 40.5015C89.8479 40.3065 90.9529 39.4095 90.9529 38.4085V37.96ZM91.0504 37.96H91.5184V38.4085C91.5184 39.416 92.6299 40.3065 93.6569 40.5015L93.4164 40.95C92.2464 40.6835 91.0504 39.6955 91.0504 38.4085V37.96ZM88.5999 42.198H93.9234V42.64H88.5999V42.198ZM94.5794 42.263H99.9029V42.7115H94.5794V42.263ZM96.9584 41.002H97.4979V42.4515H96.9584V41.002ZM95.2229 37.9925H99.2464V39.7735H95.7754V40.95H95.2424V39.338H98.7134V38.428H95.2229V37.9925ZM95.2424 40.7225H99.3829V41.1645H95.2424V40.7225ZM104.149 40.287H104.682V41.392H104.149V40.287ZM103.304 41.223H103.843V41.8535H106.632V41.223H107.165V43.355H103.304V41.223ZM103.843 42.276V42.9195H106.632V42.276H103.843ZM106.625 37.557H107.165V40.9305H106.625V37.557ZM102.465 40.573L102.394 40.131C103.492 40.131 104.955 40.1245 106.235 39.9555L106.274 40.3455C104.961 40.5665 103.538 40.573 102.465 40.573ZM104.077 37.7H104.513V37.9925C104.513 38.844 103.869 39.5135 102.888 39.7605L102.647 39.351C103.505 39.143 104.077 38.61 104.077 37.9925V37.7ZM104.194 37.7H104.636V37.9925C104.636 38.5905 105.215 39.0845 106.053 39.26L105.826 39.676C104.851 39.4485 104.194 38.818 104.194 37.9925V37.7ZM108.926 38.142H112.709V38.5905H108.926V38.142ZM108.367 42.1655H113.677V42.614H108.367V42.1655ZM110.427 40.066H110.967V42.3865H110.427V40.066ZM112.507 38.142H113.04V38.727C113.04 39.455 113.04 40.261 112.826 41.4505L112.286 41.379C112.507 40.2545 112.507 39.429 112.507 38.727V38.142ZM120.464 37.557H121.004V41.9315H120.464V37.557ZM116.343 38.0315H119.437V38.4735H116.343V38.0315ZM116.246 41.0475L116.187 40.586C117.149 40.586 118.521 40.573 119.619 40.443L119.652 40.846C118.521 41.028 117.201 41.0475 116.246 41.0475ZM116.928 38.4085H117.448V40.664H116.928V38.4085ZM118.332 38.4085H118.852V40.664H118.332V38.4085ZM119.489 38.6685H120.75V39.1105H119.489V38.6685ZM119.489 39.793H120.75V40.235H119.489V39.793ZM117.247 42.861H121.16V43.303H117.247V42.861ZM117.247 41.574H117.786V43.1405H117.247V41.574ZM126.431 37.5505H126.97V43.4395H126.431V37.5505ZM122.492 41.574H122.979C123.961 41.574 124.838 41.535 125.878 41.366L125.937 41.808C124.871 41.9835 123.987 42.0225 122.979 42.0225H122.492V41.574ZM122.479 38.103H125.196V40.2025H123.031V41.743H122.492V39.7605H124.65V38.545H122.479V38.103ZM132.15 37.5635H132.69V41.9705H132.15V37.5635ZM132.521 39.4875H133.561V39.9425H132.521V39.4875ZM128.146 38.272H131.617V38.7075H128.146V38.272ZM129.882 39.0325C130.714 39.0325 131.286 39.468 131.286 40.131C131.286 40.7875 130.714 41.223 129.882 41.223C129.043 41.223 128.471 40.7875 128.471 40.131C128.471 39.468 129.043 39.0325 129.882 39.0325ZM129.882 39.455C129.349 39.455 128.985 39.7215 128.985 40.131C128.985 40.534 129.349 40.8005 129.882 40.8005C130.408 40.8005 130.772 40.534 130.772 40.131C130.772 39.7215 130.408 39.455 129.882 39.455ZM129.609 37.557H130.148V38.4995H129.609V37.557ZM129.03 42.861H132.956V43.303H129.03V42.861ZM129.03 41.6195H129.57V43.0495H129.03V41.6195ZM138.586 38.8635H140.361V39.312H138.586V38.8635ZM138.586 40.7225H140.361V41.171H138.586V40.7225ZM137.507 38.0055C138.359 38.0055 138.97 38.805 138.97 40.053C138.97 41.3075 138.359 42.107 137.507 42.107C136.649 42.107 136.045 41.3075 136.045 40.053C136.045 38.805 136.649 38.0055 137.507 38.0055ZM137.507 38.493C136.942 38.493 136.552 39.104 136.552 40.053C136.552 41.0085 136.942 41.6325 137.507 41.6325C138.073 41.6325 138.463 41.0085 138.463 40.053C138.463 39.104 138.073 38.493 137.507 38.493ZM140.244 37.5505H140.777V43.4395H140.244V37.5505ZM146.353 37.557H146.867V41.275H146.353V37.557ZM145.398 39.1495H146.509V39.598H145.398V39.1495ZM145.099 37.674H145.606V41.067H145.099V37.674ZM141.888 38.259H144.865V38.688H141.888V38.259ZM143.383 38.987C144.117 38.987 144.631 39.39 144.631 39.9945C144.631 40.6055 144.117 41.002 143.383 41.002C142.642 41.002 142.128 40.6055 142.128 39.9945C142.128 39.39 142.642 38.987 143.383 38.987ZM143.383 39.39C142.921 39.39 142.609 39.6305 142.609 39.9945C142.609 40.365 142.921 40.599 143.383 40.599C143.838 40.599 144.15 40.365 144.15 39.9945C144.15 39.6305 143.838 39.39 143.383 39.39ZM143.116 37.6025H143.643V38.4995H143.116V37.6025ZM144.943 41.379C146.165 41.379 146.899 41.743 146.899 42.3995C146.899 43.0495 146.165 43.42 144.943 43.42C143.708 43.42 142.98 43.0495 142.98 42.3995C142.98 41.743 143.708 41.379 144.943 41.379ZM144.943 41.795C144.039 41.795 143.513 42.0095 143.513 42.3995C143.513 42.7895 144.039 43.0105 144.943 43.0105C145.833 43.0105 146.366 42.7895 146.366 42.3995C146.366 42.0095 145.833 41.795 144.943 41.795Z" fill="white"/>
<path d="M71.5837 38.405H68.5837V43.915H74.1838V40.7319" stroke="white"/>
<path d="M69.5032 39.9949L71.3402 42.137L75.2269 37.4241" stroke="white"/>
</g>
</g>
</g>
<defs>
<clipPath id="clip0_77_2">
<rect width="345" height="47" fill="white"/>
</clipPath>
</defs>
</svg>
