<svg width="345" height="47" viewBox="0 0 345 47" fill="none" xmlns="http://www.w3.org/2000/svg">
<g clip-path="url(#clip0_92_43)">
<mask id="mask0_92_43" style="mask-type:luminance" maskUnits="userSpaceOnUse" x="0" y="0" width="345" height="47">
<path d="M345 0H0V47H345V0Z" fill="white"/>
</mask>
<g mask="url(#mask0_92_43)">
<path d="M113.242 15.106H114.958V27.183H113.242V15.106ZM114.568 19.656H116.7V21.086H114.568V19.656ZM106.014 22.971H107.028C109.069 22.971 110.655 22.906 112.423 22.594L112.592 23.985C110.772 24.31 109.121 24.388 107.028 24.388H106.014V22.971ZM106.001 16.133H111.539V20.8H107.73V23.504H106.014V19.422H109.823V17.511H106.001V16.133ZM121.951 15.808H123.459V16.679C123.459 19.292 121.6 21.606 118.48 22.217L117.739 20.787C120.456 20.319 121.951 18.408 121.951 16.679V15.808ZM122.302 15.808H123.797V16.679C123.797 18.447 125.279 20.319 128.009 20.787L127.268 22.217C124.148 21.606 122.302 19.331 122.302 16.679V15.808ZM117.492 24.284H128.386V25.688H117.492V24.284ZM129.776 16.211H131.401V18.98H132.961V16.211H134.547V24.31H129.776V16.211ZM131.401 20.332V22.919H132.961V20.332H131.401ZM138.135 15.119H139.786V27.157H138.135V15.119ZM134.274 19.513H136.276V20.917H134.274V19.513ZM135.678 15.314H137.303V26.624H135.678V15.314ZM149.093 15.106H150.835V27.144H149.093V15.106ZM150.38 19.708H152.499V21.125H150.38V19.708ZM145.934 16.354H147.624C147.624 19.968 146.246 23.062 142.242 25.077L141.28 23.764C144.439 22.126 145.934 19.916 145.934 16.653V16.354ZM141.943 16.354H146.818V17.745H141.943V16.354ZM157.828 15.808H159.336V16.679C159.336 19.292 157.477 21.606 154.357 22.217L153.616 20.787C156.333 20.319 157.828 18.408 157.828 16.679V15.808ZM158.179 15.808H159.674V16.679C159.674 18.447 161.156 20.319 163.886 20.787L163.145 22.217C160.025 21.606 158.179 19.331 158.179 16.679V15.808ZM153.369 24.284H164.263V25.688H153.369V24.284ZM167.834 25.5664V20.0352H169.232V25.5664H167.834ZM165.768 23.5V22.1016H171.299V23.5H165.768ZM173.217 17.706H178.112V24.559H173.217V17.706ZM176.682 18.85H174.658V23.404H176.682V18.85ZM179.696 16.782H181.17V27.001H179.696V16.782ZM187.968 19.972H190.652V21.149H187.968V19.972ZM185.196 17.574H186.384V19.048C186.384 21.611 185.515 23.976 183.601 24.933L182.688 23.756C184.426 22.953 185.196 20.984 185.196 19.048V17.574ZM185.504 17.574H186.67V19.048C186.67 20.984 187.407 22.843 189.09 23.591L188.221 24.757C186.307 23.833 185.504 21.589 185.504 19.048V17.574ZM189.926 16.782H191.378V27.001H189.926V16.782ZM192.95 22.656H202.179V23.811H192.95V22.656ZM196.8 23.239H198.252V26.979H196.8V23.239ZM194.006 17.178H195.458V18.333H199.638V17.178H201.09V21.688H194.006V17.178ZM195.458 19.477V20.522H199.638V19.477H195.458ZM206.347 17.464C207.953 17.464 209.152 18.509 209.152 19.972C209.152 21.446 207.953 22.491 206.347 22.491C204.752 22.491 203.531 21.446 203.531 19.972C203.531 18.509 204.752 17.464 206.347 17.464ZM206.347 18.718C205.566 18.718 204.972 19.18 204.972 19.972C204.972 20.775 205.566 21.237 206.347 21.237C207.128 21.237 207.722 20.775 207.722 19.972C207.722 19.18 207.128 18.718 206.347 18.718ZM210.109 16.782H211.572V27.001H210.109V16.782ZM203.289 24.933L203.113 23.756C204.906 23.756 207.403 23.734 209.548 23.415L209.658 24.471C207.447 24.911 205.049 24.933 203.289 24.933ZM224.511 15.119H226.162V27.157H224.511V15.119ZM222.951 19.708H224.94V21.099H222.951V19.708ZM219.545 16.51H221.183C221.183 19.968 220.338 22.763 216.75 24.856L215.788 23.634C218.752 21.918 219.545 19.812 219.545 16.822V16.51ZM216.503 16.51H220.091V17.901H216.503V16.51ZM221.859 15.379H223.471V26.637H221.859V15.379ZM219.571 19.227V20.501L216.074 20.878L215.879 19.422L219.571 19.227ZM236.119 15.119H237.848V23.972H236.119V15.119ZM233.207 16.458H236.704V17.81H233.207V16.458ZM229.892 25.571H238.121V26.949H229.892V25.571ZM229.892 23.179H231.634V26.273H229.892V23.179ZM228.436 15.886H230.152V21.541H228.436V15.886ZM228.436 21.021H229.398C231.14 21.021 232.687 20.943 234.403 20.644L234.559 22.035C232.791 22.36 231.205 22.425 229.398 22.425H228.436V21.021ZM233.207 18.694H236.704V20.059H233.207V18.694Z" fill="white"/>
<path d="M107.988 6.991H108.569V8.02H107.988V6.991ZM110.648 3.218H111.229V9.546H110.648V3.218ZM111.04 5.906H112.209V6.396H111.04V5.906ZM106.357 8.342L106.273 7.859C107.407 7.859 108.954 7.845 110.263 7.656L110.312 8.09C108.947 8.335 107.463 8.342 106.357 8.342ZM106.378 3.981H110.165V4.45H106.378V3.981ZM108.275 4.821C109.157 4.821 109.766 5.283 109.766 5.99C109.766 6.704 109.157 7.159 108.275 7.159C107.393 7.159 106.791 6.704 106.791 5.99C106.791 5.283 107.393 4.821 108.275 4.821ZM108.275 5.269C107.708 5.269 107.337 5.556 107.337 5.99C107.337 6.424 107.708 6.711 108.275 6.711C108.842 6.711 109.22 6.424 109.22 5.99C109.22 5.556 108.842 5.269 108.275 5.269ZM107.988 3.225H108.569V4.296H107.988V3.225ZM117.409 3.211H117.99V9.553H117.409V3.211ZM116.163 4.66H117.563V5.136H116.163V4.66ZM113.02 7.593H113.489C114.469 7.593 115.274 7.565 116.24 7.411L116.296 7.894C115.302 8.048 114.49 8.083 113.489 8.083H113.02V7.593ZM113.006 3.785H115.771V6.053H113.594V7.705H113.02V5.577H115.197V4.268H113.006V3.785ZM116.121 6.389H117.521V6.865H116.121V6.389ZM123.555 3.225H124.136V7.971H123.555V3.225ZM123.954 5.297H125.074V5.787H123.954V5.297ZM119.243 3.988H122.981V4.457H119.243V3.988ZM121.112 4.807C122.008 4.807 122.624 5.276 122.624 5.99C122.624 6.697 122.008 7.166 121.112 7.166C120.209 7.166 119.593 6.697 119.593 5.99C119.593 5.276 120.209 4.807 121.112 4.807ZM121.112 5.262C120.538 5.262 120.146 5.549 120.146 5.99C120.146 6.424 120.538 6.711 121.112 6.711C121.679 6.711 122.071 6.424 122.071 5.99C122.071 5.549 121.679 5.262 121.112 5.262ZM120.818 3.218H121.399V4.233H120.818V3.218ZM120.195 8.93H124.423V9.406H120.195V8.93ZM120.195 7.593H120.776V9.133H120.195V7.593ZM128.358 6.172H132.705V6.648H128.358V6.172ZM127.637 8.265H133.37V8.755H127.637V8.265ZM130.199 6.375H130.78V8.461H130.199V6.375ZM128.358 3.722H132.642V4.198H128.939V6.382H128.358V3.722ZM135.743 3.764H136.219V4.898C136.219 6.354 135.435 7.705 134.399 8.23L134.042 7.754C134.98 7.306 135.743 6.095 135.743 4.898V3.764ZM135.841 3.764H136.317V4.898C136.317 6.053 137.073 7.215 138.011 7.649L137.661 8.111C136.632 7.607 135.841 6.305 135.841 4.898V3.764ZM138.669 3.211H139.25V9.553H138.669V3.211ZM142.567 3.673C143.554 3.673 144.261 4.282 144.261 5.164C144.261 6.053 143.554 6.662 142.567 6.662C141.58 6.662 140.866 6.053 140.866 5.164C140.866 4.282 141.58 3.673 142.567 3.673ZM142.567 4.177C141.909 4.177 141.433 4.576 141.433 5.164C141.433 5.752 141.909 6.158 142.567 6.158C143.218 6.158 143.694 5.752 143.694 5.164C143.694 4.576 143.218 4.177 142.567 4.177ZM145.087 3.211H145.668V9.553H145.087V3.211ZM140.628 8.167L140.544 7.684C141.699 7.684 143.295 7.677 144.674 7.46L144.723 7.887C143.302 8.16 141.755 8.167 140.628 8.167ZM150.611 3.701C151.528 3.701 152.186 4.562 152.186 5.906C152.186 7.257 151.528 8.118 150.611 8.118C149.687 8.118 149.036 7.257 149.036 5.906C149.036 4.562 149.687 3.701 150.611 3.701ZM150.611 4.226C150.002 4.226 149.589 4.884 149.589 5.906C149.589 6.935 150.002 7.607 150.611 7.607C151.22 7.607 151.633 6.935 151.633 5.906C151.633 4.884 151.22 4.226 150.611 4.226ZM153.558 3.211H154.132V9.553H153.558V3.211ZM151.997 5.626H153.81V6.102H151.997V5.626ZM156.099 6.627H160.446V7.096H156.099V6.627ZM155.364 8.251H161.097V8.734H155.364V8.251ZM156.099 3.757H160.376V4.233H156.687V6.774H156.099V3.757ZM156.498 5.171H160.243V5.633H156.498V5.171ZM166.577 3.218H167.13V7.18H166.577V3.218ZM165.562 4.905H166.752V5.381H165.562V4.905ZM165.184 3.337H165.73V7.117H165.184V3.337ZM162.888 7.488H167.13V9.546H166.556V7.964H162.888V7.488ZM162.09 6.382H162.496C163.385 6.382 164.043 6.347 164.82 6.193L164.876 6.662C164.078 6.816 163.413 6.851 162.496 6.851H162.09V6.382ZM162.076 3.68H164.456V5.451H162.65V6.683H162.09V5.017H163.896V4.149H162.076V3.68ZM171.596 4.149H173.017V4.632H171.596V4.149ZM171.596 5.451H173.017V5.927H171.596V5.451ZM169.825 3.575H170.294V4.38C170.294 5.619 169.615 6.676 168.558 7.103L168.25 6.641C169.195 6.277 169.825 5.374 169.825 4.38V3.575ZM169.93 3.575H170.406V4.38C170.406 5.304 171.015 6.179 171.932 6.543L171.61 6.998C170.609 6.578 169.93 5.556 169.93 4.38V3.575ZM172.863 3.225H173.444V7.943H172.863V3.225ZM169.377 8.93H173.598V9.406H169.377V8.93ZM169.377 7.467H169.958V9.189H169.377V7.467ZM175.744 8.30398L175.704 8.57244C175.676 8.76136 175.633 8.96354 175.575 9.17898C175.519 9.39441 175.46 9.59742 175.398 9.788C175.337 9.97857 175.287 10.1302 175.247 10.2429H174.799C174.821 10.1368 174.849 9.9968 174.884 9.8228C174.919 9.64879 174.953 9.45407 174.988 9.23864C175.025 9.02486 175.055 8.80611 175.078 8.58239L175.108 8.30398H175.744ZM179.229 3.89H183.303V4.359H179.229V3.89ZM178.613 8.139H184.332V8.622H178.613V8.139ZM182.995 3.89H183.562V4.52C183.562 5.332 183.562 6.235 183.324 7.6L182.743 7.544C182.995 6.249 182.995 5.304 182.995 4.52V3.89ZM189.658 3.211H190.239V9.553H189.658V3.211ZM185.416 7.544H185.941C186.998 7.544 187.943 7.502 189.063 7.32L189.126 7.796C187.978 7.985 187.026 8.027 185.941 8.027H185.416V7.544ZM185.402 3.806H188.328V6.067H185.997V7.726H185.416V5.591H187.74V4.282H185.402V3.806ZM192.094 3.848H196.168V4.331H192.094V3.848ZM191.492 8.181H197.211V8.664H191.492V8.181ZM193.711 5.92H194.292V8.419H193.711V5.92ZM195.951 3.848H196.525V4.478C196.525 5.262 196.525 6.13 196.294 7.411L195.713 7.334C195.951 6.123 195.951 5.234 195.951 4.478V3.848ZM204.709 3.218H205.269V9.546H204.709V3.218ZM203.638 5.752H204.856V6.235H203.638V5.752ZM203.274 3.358H203.82V9.224H203.274V3.358ZM200.124 7.502H200.537C201.461 7.502 202.091 7.467 202.826 7.313L202.882 7.796C202.126 7.957 201.489 7.985 200.537 7.985H200.124V7.502ZM200.124 3.988H202.476V4.464H200.698V7.719H200.124V3.988ZM207.9 4.121H208.362V5.15C208.362 6.466 207.557 7.824 206.57 8.328L206.234 7.866C207.137 7.425 207.9 6.221 207.9 5.15V4.121ZM208.005 4.121H208.467V5.15C208.467 6.151 209.181 7.278 210.098 7.712L209.769 8.174C208.768 7.677 208.005 6.403 208.005 5.15V4.121ZM206.458 3.862H209.867V4.352H206.458V3.862ZM210.616 3.218H211.204V9.546H210.616V3.218ZM211.064 5.773H212.24V6.263H211.064V5.773ZM215.705 4.205H217.609V4.681H215.705V4.205ZM215.705 5.724H217.609V6.2H215.705V5.724ZM217.399 3.225H217.98V7.901H217.399V3.225ZM213.941 8.93H218.155V9.406H213.941V8.93ZM213.941 7.418H214.522V9.14H213.941V7.418ZM214.501 3.624C215.432 3.624 216.132 4.275 216.132 5.206C216.132 6.137 215.432 6.788 214.501 6.788C213.57 6.788 212.87 6.137 212.87 5.206C212.87 4.275 213.57 3.624 214.501 3.624ZM214.501 4.135C213.885 4.135 213.43 4.583 213.43 5.206C213.43 5.836 213.885 6.284 214.501 6.284C215.117 6.284 215.579 5.836 215.579 5.206C215.579 4.583 215.117 4.135 214.501 4.135Z" fill="white"/>
<path d="M114.889 41.574H115.351C116.436 41.574 117.184 41.548 118.068 41.392L118.126 41.834C117.216 41.99 116.449 42.0225 115.351 42.0225H114.889V41.574ZM114.889 38.09H117.626V38.5385H115.429V41.73H114.889V38.09ZM115.292 39.7345H117.496V40.17H115.292V39.7345ZM118.614 37.557H119.16V43.433H118.614V37.557ZM119.03 39.9165H120.122V40.3715H119.03V39.9165ZM120.953 38.129H123.657V41.9575H120.953V38.129ZM123.13 38.5645H121.479V41.522H123.13V38.5645ZM124.885 37.5505H125.425V43.4395H124.885V37.5505ZM128.954 37.96H129.422V38.4085C129.422 39.689 128.232 40.6835 127.056 40.95L126.815 40.5015C127.849 40.3065 128.954 39.4095 128.954 38.4085V37.96ZM129.051 37.96H129.519V38.4085C129.519 39.416 130.631 40.3065 131.658 40.5015L131.417 40.95C130.247 40.6835 129.051 39.6955 129.051 38.4085V37.96ZM126.601 42.198H131.924V42.64H126.601V42.198ZM132.58 42.263H137.904V42.7115H132.58V42.263ZM134.959 41.002H135.499V42.4515H134.959V41.002ZM133.224 37.9925H137.247V39.7735H133.776V40.95H133.243V39.338H136.714V38.428H133.224V37.9925ZM133.243 40.7225H137.384V41.1645H133.243V40.7225ZM142.15 40.287H142.683V41.392H142.15V40.287ZM141.305 41.223H141.844V41.8535H144.633V41.223H145.166V43.355H141.305V41.223ZM141.844 42.276V42.9195H144.633V42.276H141.844ZM144.626 37.557H145.166V40.9305H144.626V37.557ZM140.466 40.573L140.395 40.131C141.493 40.131 142.956 40.1245 144.236 39.9555L144.275 40.3455C142.962 40.5665 141.539 40.573 140.466 40.573ZM142.078 37.7H142.514V37.9925C142.514 38.844 141.87 39.5135 140.889 39.7605L140.648 39.351C141.506 39.143 142.078 38.61 142.078 37.9925V37.7ZM142.195 37.7H142.637V37.9925C142.637 38.5905 143.216 39.0845 144.054 39.26L143.827 39.676C142.852 39.4485 142.195 38.818 142.195 37.9925V37.7ZM146.927 38.142H150.71V38.5905H146.927V38.142ZM146.368 42.1655H151.678V42.614H146.368V42.1655ZM148.428 40.066H148.968V42.3865H148.428V40.066ZM150.508 38.142H151.041V38.727C151.041 39.455 151.041 40.261 150.827 41.4505L150.287 41.379C150.508 40.2545 150.508 39.429 150.508 38.727V38.142ZM158.465 37.557H159.005V41.9315H158.465V37.557ZM154.344 38.0315H157.438V38.4735H154.344V38.0315ZM154.247 41.0475L154.188 40.586C155.15 40.586 156.522 40.573 157.62 40.443L157.653 40.846C156.522 41.028 155.202 41.0475 154.247 41.0475ZM154.929 38.4085H155.449V40.664H154.929V38.4085ZM156.333 38.4085H156.853V40.664H156.333V38.4085ZM157.49 38.6685H158.751V39.1105H157.49V38.6685ZM157.49 39.793H158.751V40.235H157.49V39.793ZM155.248 42.861H159.161V43.303H155.248V42.861ZM155.248 41.574H155.787V43.1405H155.248V41.574ZM164.432 37.5505H164.971V43.4395H164.432V37.5505ZM160.493 41.574H160.98C161.962 41.574 162.839 41.535 163.879 41.366L163.938 41.808C162.872 41.9835 161.988 42.0225 160.98 42.0225H160.493V41.574ZM160.48 38.103H163.197V40.2025H161.032V41.743H160.493V39.7605H162.651V38.545H160.48V38.103ZM170.151 37.5635H170.691V41.9705H170.151V37.5635ZM170.522 39.4875H171.562V39.9425H170.522V39.4875ZM166.147 38.272H169.618V38.7075H166.147V38.272ZM167.883 39.0325C168.715 39.0325 169.287 39.468 169.287 40.131C169.287 40.7875 168.715 41.223 167.883 41.223C167.044 41.223 166.472 40.7875 166.472 40.131C166.472 39.468 167.044 39.0325 167.883 39.0325ZM167.883 39.455C167.35 39.455 166.986 39.7215 166.986 40.131C166.986 40.534 167.35 40.8005 167.883 40.8005C168.409 40.8005 168.773 40.534 168.773 40.131C168.773 39.7215 168.409 39.455 167.883 39.455ZM167.61 37.557H168.149V38.4995H167.61V37.557ZM167.031 42.861H170.957V43.303H167.031V42.861ZM167.031 41.6195H167.571V43.0495H167.031V41.6195ZM176.587 38.8635H178.362V39.312H176.587V38.8635ZM176.587 40.7225H178.362V41.171H176.587V40.7225ZM175.508 38.0055C176.36 38.0055 176.971 38.805 176.971 40.053C176.971 41.3075 176.36 42.107 175.508 42.107C174.65 42.107 174.046 41.3075 174.046 40.053C174.046 38.805 174.65 38.0055 175.508 38.0055ZM175.508 38.493C174.943 38.493 174.553 39.104 174.553 40.053C174.553 41.0085 174.943 41.6325 175.508 41.6325C176.074 41.6325 176.464 41.0085 176.464 40.053C176.464 39.104 176.074 38.493 175.508 38.493ZM178.245 37.5505H178.778V43.4395H178.245V37.5505ZM184.354 37.557H184.868V41.275H184.354V37.557ZM183.399 39.1495H184.51V39.598H183.399V39.1495ZM183.1 37.674H183.607V41.067H183.1V37.674ZM179.889 38.259H182.866V38.688H179.889V38.259ZM181.384 38.987C182.118 38.987 182.632 39.39 182.632 39.9945C182.632 40.6055 182.118 41.002 181.384 41.002C180.643 41.002 180.129 40.6055 180.129 39.9945C180.129 39.39 180.643 38.987 181.384 38.987ZM181.384 39.39C180.922 39.39 180.61 39.6305 180.61 39.9945C180.61 40.365 180.922 40.599 181.384 40.599C181.839 40.599 182.151 40.365 182.151 39.9945C182.151 39.6305 181.839 39.39 181.384 39.39ZM181.117 37.6025H181.644V38.4995H181.117V37.6025ZM182.944 41.379C184.166 41.379 184.9 41.743 184.9 42.3995C184.9 43.0495 184.166 43.42 182.944 43.42C181.709 43.42 180.981 43.0495 180.981 42.3995C180.981 41.743 181.709 41.379 182.944 41.379ZM182.944 41.795C182.04 41.795 181.514 42.0095 181.514 42.3995C181.514 42.7895 182.04 43.0105 182.944 43.0105C183.834 43.0105 184.367 42.7895 184.367 42.3995C184.367 42.0095 183.834 41.795 182.944 41.795Z" fill="white"/>
<path d="M109.585 38.405H106.585V43.915H112.185V40.7319" stroke="white"/>
<path d="M107.504 39.9949L109.341 42.137L113.228 37.4241" stroke="white"/>
</g>
</g>
<defs>
<clipPath id="clip0_92_43">
<rect width="345" height="47" fill="white"/>
</clipPath>
</defs>
</svg>
