<svg width="800" height="109" viewBox="0 0 800 109" fill="none" xmlns="http://www.w3.org/2000/svg">
<g clip-path="url(#clip0_92_30)">
<mask id="mask0_92_30" style="mask-type:luminance" maskUnits="userSpaceOnUse" x="0" y="0" width="800" height="109">
<path d="M800 0H0V109H800V0Z" fill="white"/>
</mask>
<g mask="url(#mask0_92_30)">
<path d="M201.262 27.966H206.938V67.913H201.262V27.966ZM205.648 43.016H212.7V47.746H205.648V43.016ZM177.354 53.981H180.708C187.459 53.981 192.705 53.766 198.553 52.734L199.112 57.335C193.092 58.41 187.631 58.668 180.708 58.668H177.354V53.981ZM177.311 31.363H195.629V46.8H183.03V55.744H177.354V42.242H189.953V35.921H177.311V31.363ZM230.069 30.288H235.057V33.169C235.057 41.812 228.908 49.466 218.588 51.487L216.137 46.757C225.124 45.209 230.069 38.888 230.069 33.169V30.288ZM231.23 30.288H236.175V33.169C236.175 39.017 241.077 45.209 250.107 46.757L247.656 51.487C237.336 49.466 231.23 41.941 231.23 33.169V30.288ZM215.32 58.324H251.354V62.968H215.32V58.324ZM255.951 31.621H261.326V40.78H266.486V31.621H271.732V58.41H255.951V31.621ZM261.326 45.252V53.809H266.486V45.252H261.326ZM283.6 28.009H289.061V67.827H283.6V28.009ZM270.829 42.543H277.451V47.187H270.829V42.543ZM275.473 28.654H280.848V66.064H275.473V28.654ZM319.846 27.966H325.608V67.784H319.846V27.966ZM324.103 43.188H331.112V47.875H324.103V43.188ZM309.397 32.094H314.987C314.987 44.048 310.429 54.282 297.185 60.947L294.003 56.604C304.452 51.186 309.397 43.876 309.397 33.083V32.094ZM296.196 32.094H312.321V36.695H296.196V32.094ZM348.739 30.288H353.727V33.169C353.727 41.812 347.578 49.466 337.258 51.487L334.807 46.757C343.794 45.209 348.739 38.888 348.739 33.169V30.288ZM349.9 30.288H354.845V33.169C354.845 39.017 359.747 45.209 368.777 46.757L366.326 51.487C356.006 49.466 349.9 41.941 349.9 33.169V30.288ZM333.99 58.324H370.024V62.968H333.99V58.324ZM382.282 62.5021V43.3942H387.113V62.5021H382.282ZM375.143 55.3636V50.5327H394.251V55.3636H375.143ZM400.879 35.348H417.789V59.022H400.879V35.348ZM412.849 39.3H405.857V55.032H412.849V39.3ZM423.261 32.156H428.353V67.458H423.261V32.156ZM451.834 43.176H461.106V47.242H451.834V43.176ZM442.258 34.892H446.362V39.984C446.362 48.838 443.36 57.008 436.748 60.314L433.594 56.248C439.598 53.474 442.258 46.672 442.258 39.984V34.892ZM443.322 34.892H447.35V39.984C447.35 46.672 449.896 53.094 455.71 55.678L452.708 59.706C446.096 56.514 443.322 48.762 443.322 39.984V34.892ZM458.598 32.156H463.614V67.458H458.598V32.156ZM469.045 52.448H500.927V56.438H469.045V52.448ZM482.345 54.462H487.361V67.382H482.345V54.462ZM472.693 33.524H477.709V37.514H492.149V33.524H497.165V49.104H472.693V33.524ZM477.709 41.466V45.076H492.149V41.466H477.709ZM515.326 34.512C520.874 34.512 525.016 38.122 525.016 43.176C525.016 48.268 520.874 51.878 515.326 51.878C509.816 51.878 505.598 48.268 505.598 43.176C505.598 38.122 509.816 34.512 515.326 34.512ZM515.326 38.844C512.628 38.844 510.576 40.44 510.576 43.176C510.576 45.95 512.628 47.546 515.326 47.546C518.024 47.546 520.076 45.95 520.076 43.176C520.076 40.44 518.024 38.844 515.326 38.844ZM528.322 32.156H533.376V67.458H528.322V32.156ZM504.762 60.314L504.154 56.248C510.348 56.248 518.974 56.172 526.384 55.07L526.764 58.718C519.126 60.238 510.842 60.314 504.762 60.314ZM576.721 28.009H582.182V67.827H576.721V28.009ZM571.561 43.188H578.14V47.789H571.561V43.188ZM560.295 32.61H565.713C565.713 44.048 562.918 53.293 551.05 60.216L547.868 56.174C557.672 50.498 560.295 43.532 560.295 33.642V32.61ZM550.233 32.61H562.101V37.211H550.233V32.61ZM567.949 28.869H573.281V66.107H567.949V28.869ZM560.381 41.597V45.811L548.814 47.058L548.169 42.242L560.381 41.597ZM615.117 28.009H620.836V57.292H615.117V28.009ZM605.485 32.438H617.052V36.91H605.485V32.438ZM594.52 62.581H621.739V67.139H594.52V62.581ZM594.52 54.669H600.282V64.903H594.52V54.669ZM589.704 30.546H595.38V49.251H589.704V30.546ZM589.704 47.531H592.886C598.648 47.531 603.765 47.273 609.441 46.284L609.957 50.885C604.109 51.96 598.863 52.175 592.886 52.175H589.704V47.531ZM605.485 39.834H617.052V44.349H605.485V39.834Z" fill="white"/>
<path d="M180.106 14.3295H181.891V17.49H180.106V14.3295ZM188.276 2.741H190.061V22.177H188.276V2.741ZM189.48 10.997H193.071V12.502H189.48V10.997ZM175.097 18.479L174.839 16.9955C178.322 16.9955 183.073 16.9525 187.094 16.372L187.244 17.705C183.052 18.4575 178.494 18.479 175.097 18.479ZM175.161 5.0845H186.793V6.525H175.161V5.0845ZM180.988 7.6645C183.697 7.6645 185.567 9.0835 185.567 11.255C185.567 13.448 183.697 14.8455 180.988 14.8455C178.279 14.8455 176.43 13.448 176.43 11.255C176.43 9.0835 178.279 7.6645 180.988 7.6645ZM180.988 9.0405C179.246 9.0405 178.107 9.922 178.107 11.255C178.107 12.588 179.246 13.4695 180.988 13.4695C182.729 13.4695 183.89 12.588 183.89 11.255C183.89 9.922 182.729 9.0405 180.988 9.0405ZM180.106 2.7625H181.891V6.052H180.106V2.7625ZM209.043 2.7195H210.828V22.1985H209.043V2.7195ZM205.216 7.17H209.516V8.632H205.216V7.17ZM195.563 16.1785H197.003C200.013 16.1785 202.486 16.0925 205.453 15.6195L205.625 17.103C202.572 17.576 200.078 17.6835 197.003 17.6835H195.563V16.1785ZM195.52 4.4825H204.012V11.4485H197.326V16.5225H195.563V9.9865H202.249V5.966H195.52V4.4825ZM205.087 12.4805H209.387V13.9425H205.087V12.4805ZM227.919 2.7625H229.703V17.3395H227.919V2.7625ZM229.144 9.1265H232.584V10.6315H229.144V9.1265ZM214.675 5.106H226.156V6.5465H214.675V5.106ZM220.415 7.6215C223.167 7.6215 225.059 9.062 225.059 11.255C225.059 13.4265 223.167 14.867 220.415 14.867C217.642 14.867 215.75 13.4265 215.75 11.255C215.75 9.062 217.642 7.6215 220.415 7.6215ZM220.415 9.019C218.652 9.019 217.448 9.9005 217.448 11.255C217.448 12.588 218.652 13.4695 220.415 13.4695C222.157 13.4695 223.361 12.588 223.361 11.255C223.361 9.9005 222.157 9.019 220.415 9.019ZM219.512 2.741H221.297V5.8585H219.512V2.741ZM217.599 20.285H230.585V21.747H217.599V20.285ZM217.599 16.1785H219.383V20.9085H217.599V16.1785ZM242.671 11.814H256.023V13.276H242.671V11.814ZM240.457 18.2425H258.065V19.7475H240.457V18.2425ZM248.326 12.4375H250.11V18.8445H248.326V12.4375ZM242.671 4.289H255.829V5.751H244.456V12.459H242.671V4.289ZM265.352 4.418H266.814V7.901C266.814 12.373 264.406 16.5225 261.224 18.135L260.128 16.673C263.009 15.297 265.352 11.5775 265.352 7.901V4.418ZM265.653 4.418H267.115V7.901C267.115 11.4485 269.437 15.0175 272.318 16.3505L271.243 17.7695C268.083 16.2215 265.653 12.2225 265.653 7.901V4.418ZM274.339 2.7195H276.124V22.1985H274.339V2.7195ZM286.313 4.1385C289.344 4.1385 291.516 6.009 291.516 8.718C291.516 11.4485 289.344 13.319 286.313 13.319C283.281 13.319 281.088 11.4485 281.088 8.718C281.088 6.009 283.281 4.1385 286.313 4.1385ZM286.313 5.6865C284.292 5.6865 282.83 6.912 282.83 8.718C282.83 10.524 284.292 11.771 286.313 11.771C288.312 11.771 289.774 10.524 289.774 8.718C289.774 6.912 288.312 5.6865 286.313 5.6865ZM294.053 2.7195H295.837V22.1985H294.053V2.7195ZM280.357 17.9415L280.099 16.458C283.647 16.458 288.549 16.4365 292.784 15.77L292.935 17.0815C288.57 17.92 283.819 17.9415 280.357 17.9415ZM311.02 4.2245C313.837 4.2245 315.858 6.869 315.858 10.997C315.858 15.1465 313.837 17.791 311.02 17.791C308.182 17.791 306.183 15.1465 306.183 10.997C306.183 6.869 308.182 4.2245 311.02 4.2245ZM311.02 5.837C309.15 5.837 307.881 7.858 307.881 10.997C307.881 14.1575 309.15 16.2215 311.02 16.2215C312.891 16.2215 314.159 14.1575 314.159 10.997C314.159 7.858 312.891 5.837 311.02 5.837ZM320.072 2.7195H321.835V22.1985H320.072V2.7195ZM315.277 10.137H320.846V11.599H315.277V10.137ZM327.874 13.2115H341.226V14.652H327.874V13.2115ZM325.617 18.1995H343.225V19.683H325.617V18.1995ZM327.874 4.3965H341.011V5.8585H329.68V13.663H327.874V4.3965ZM329.1 8.7395H340.602V10.1585H329.1V8.7395ZM360.058 2.741H361.757V14.91H360.058V2.741ZM356.941 7.9225H360.596V9.3845H356.941V7.9225ZM355.78 3.1065H357.457V14.7165H355.78V3.1065ZM348.728 15.856H361.757V22.177H359.994V17.318H348.728V15.856ZM346.277 12.459H347.524C350.254 12.459 352.275 12.3515 354.662 11.8785L354.834 13.319C352.383 13.792 350.34 13.8995 347.524 13.8995H346.277V12.459ZM346.234 4.16H353.544V9.5995H347.997V13.3835H346.277V8.2665H351.824V5.6005H346.234V4.16ZM375.472 5.6005H379.837V7.084H375.472V5.6005ZM375.472 9.5995H379.837V11.0615H375.472V9.5995ZM370.033 3.8375H371.473V6.31C371.473 10.1155 369.388 13.362 366.141 14.6735L365.195 13.2545C368.098 12.1365 370.033 9.363 370.033 6.31V3.8375ZM370.355 3.8375H371.817V6.31C371.817 9.148 373.688 11.8355 376.504 12.9535L375.515 14.351C372.441 13.061 370.355 9.922 370.355 6.31V3.8375ZM379.364 2.7625H381.148V17.2535H379.364V2.7625ZM368.657 20.285H381.621V21.747H368.657V20.285ZM368.657 15.7915H370.441V21.0805H368.657V15.7915ZM388.214 18.3622L388.091 19.1868C388.005 19.767 387.873 20.388 387.694 21.0497C387.521 21.7114 387.341 22.3349 387.152 22.9203C386.964 23.5056 386.809 23.9714 386.687 24.3175H385.312C385.378 23.9917 385.465 23.5616 385.572 23.0272C385.679 22.4927 385.786 21.8946 385.893 21.233C386.005 20.5763 386.096 19.9045 386.167 19.2173L386.259 18.3622H388.214ZM398.917 4.805H411.43V6.2455H398.917V4.805ZM397.025 17.8555H414.59V19.339H397.025V17.8555ZM410.484 4.805H412.225V6.74C412.225 9.234 412.225 12.0075 411.494 16.2L409.71 16.028C410.484 12.0505 410.484 9.148 410.484 6.74V4.805ZM430.95 2.7195H432.735V22.1985H430.95V2.7195ZM417.921 16.028H419.534C422.78 16.028 425.683 15.899 429.123 15.34L429.316 16.802C425.79 17.3825 422.866 17.5115 419.534 17.5115H417.921V16.028ZM417.878 4.547H426.865V11.4915H419.706V16.587H417.921V10.0295H425.059V6.009H417.878V4.547ZM438.43 4.676H450.943V6.1595H438.43V4.676ZM436.581 17.9845H454.147V19.468H436.581V17.9845ZM443.397 11.04H445.181V18.7155H443.397V11.04ZM450.277 4.676H452.04V6.611C452.04 9.019 452.04 11.685 451.33 15.6195L449.546 15.383C450.277 11.6635 450.277 8.933 450.277 6.611V4.676ZM477.177 2.741H478.897V22.177H477.177V2.741ZM473.888 10.524H477.629V12.0075H473.888V10.524ZM472.77 3.171H474.447V21.188H472.77V3.171ZM463.095 15.899H464.363C467.201 15.899 469.136 15.7915 471.394 15.3185L471.566 16.802C469.244 17.2965 467.287 17.3825 464.363 17.3825H463.095V15.899ZM463.095 5.106H470.319V6.568H464.858V16.5655H463.095V5.106ZM486.979 5.5145H488.398V8.675C488.398 12.717 485.926 16.888 482.894 18.436L481.862 17.017C484.636 15.6625 486.979 11.9645 486.979 8.675V5.5145ZM487.302 5.5145H488.721V8.675C488.721 11.7495 490.914 15.211 493.73 16.544L492.72 17.963C489.645 16.4365 487.302 12.5235 487.302 8.675V5.5145ZM482.55 4.719H493.021V6.224H482.55V4.719ZM495.321 2.741H497.127V22.177H495.321V2.741ZM496.697 10.5885H500.309V12.0935H496.697V10.5885ZM510.95 5.7725H516.798V7.2345H510.95V5.7725ZM510.95 10.438H516.798V11.9H510.95V10.438ZM516.153 2.7625H517.938V17.1245H516.153V2.7625ZM505.532 20.285H518.475V21.747H505.532V20.285ZM505.532 15.641H507.317V20.93H505.532V15.641ZM507.252 3.988C510.112 3.988 512.262 5.9875 512.262 8.847C512.262 11.7065 510.112 13.706 507.252 13.706C504.393 13.706 502.243 11.7065 502.243 8.847C502.243 5.9875 504.393 3.988 507.252 3.988ZM507.252 5.5575C505.36 5.5575 503.963 6.9335 503.963 8.847C503.963 10.782 505.36 12.158 507.252 12.158C509.144 12.158 510.563 10.782 510.563 8.847C510.563 6.9335 509.144 5.5575 507.252 5.5575Z" fill="white"/>
<path d="M196.076 100.256H197.354C200.36 100.256 202.43 100.184 204.878 99.752L205.04 100.976C202.52 101.408 200.396 101.498 197.354 101.498H196.076V100.256ZM196.076 90.608H203.654V91.85H197.57V100.688H196.076V90.608ZM197.192 95.162H203.294V96.368H197.192V95.162ZM206.39 89.132H207.902V105.404H206.39V89.132ZM207.542 95.666H210.566V96.926H207.542V95.666ZM212.869 90.716H220.357V101.318H212.869V90.716ZM218.899 91.922H214.327V100.112H218.899V91.922ZM223.759 89.114H225.253V105.422H223.759V89.114ZM235.025 90.248H236.321V91.49C236.321 95.036 233.027 97.79 229.769 98.528L229.103 97.286C231.965 96.746 235.025 94.262 235.025 91.49V90.248ZM235.295 90.248H236.591V91.49C236.591 94.28 239.669 96.746 242.513 97.286L241.847 98.528C238.607 97.79 235.295 95.054 235.295 91.49V90.248ZM228.509 101.984H243.251V103.208H228.509V101.984ZM245.068 102.164H259.81V103.406H245.068V102.164ZM251.656 98.672H253.15V102.686H251.656V98.672ZM246.85 90.338H257.992V95.27H248.38V98.528H246.904V94.064H256.516V91.544H246.85V90.338ZM246.904 97.898H258.37V99.122H246.904V97.898ZM271.567 96.692H273.043V99.752H271.567V96.692ZM269.227 99.284H270.721V101.03H278.443V99.284H279.919V105.188H269.227V99.284ZM270.721 102.2V103.982H278.443V102.2H270.721ZM278.425 89.132H279.919V98.474H278.425V89.132ZM266.905 97.484L266.707 96.26C269.749 96.26 273.799 96.242 277.345 95.774L277.453 96.854C273.817 97.466 269.875 97.484 266.905 97.484ZM271.369 89.528H272.575V90.338C272.575 92.696 270.793 94.55 268.075 95.234L267.409 94.1C269.785 93.524 271.369 92.048 271.369 90.338V89.528ZM271.693 89.528H272.917V90.338C272.917 91.994 274.519 93.362 276.841 93.848L276.211 95C273.511 94.37 271.693 92.624 271.693 90.338V89.528ZM284.795 90.752H295.271V91.994H284.795V90.752ZM283.247 101.894H297.953V103.136H283.247V101.894ZM288.953 96.08H290.447V102.506H288.953V96.08ZM294.713 90.752H296.189V92.372C296.189 94.388 296.189 96.62 295.595 99.914L294.101 99.716C294.713 96.602 294.713 94.316 294.713 92.372V90.752ZM316.749 89.132H318.243V101.246H316.749V89.132ZM305.337 90.446H313.905V91.67H305.337V90.446ZM305.067 98.798L304.905 97.52C307.569 97.52 311.367 97.484 314.409 97.124L314.499 98.24C311.367 98.744 307.713 98.798 305.067 98.798ZM306.957 91.49H308.397V97.736H306.957V91.49ZM310.845 91.49H312.285V97.736H310.845V91.49ZM314.049 92.21H317.541V93.434H314.049V92.21ZM314.049 95.324H317.541V96.548H314.049V95.324ZM307.839 103.82H318.675V105.044H307.839V103.82ZM307.839 100.256H309.333V104.594H307.839V100.256ZM333.271 89.114H334.765V105.422H333.271V89.114ZM322.363 100.256H323.713C326.431 100.256 328.861 100.148 331.741 99.68L331.903 100.904C328.951 101.39 326.503 101.498 323.713 101.498H322.363V100.256ZM322.327 90.644H329.851V96.458H323.857V100.724H322.363V95.234H328.339V91.868H322.327V90.644ZM349.11 89.15H350.604V101.354H349.11V89.15ZM350.136 94.478H353.016V95.738H350.136V94.478ZM338.022 91.112H347.634V92.318H338.022V91.112ZM342.828 93.218C345.132 93.218 346.716 94.424 346.716 96.26C346.716 98.078 345.132 99.284 342.828 99.284C340.506 99.284 338.922 98.078 338.922 96.26C338.922 94.424 340.506 93.218 342.828 93.218ZM342.828 94.388C341.352 94.388 340.344 95.126 340.344 96.26C340.344 97.376 341.352 98.114 342.828 98.114C344.286 98.114 345.294 97.376 345.294 96.26C345.294 95.126 344.286 94.388 342.828 94.388ZM342.072 89.132H343.566V91.742H342.072V89.132ZM340.47 103.82H351.342V105.044H340.47V103.82ZM340.47 100.382H341.964V104.342H340.47V100.382ZM366.933 92.75H371.847V93.992H366.933V92.75ZM366.933 97.898H371.847V99.14H366.933V97.898ZM363.945 90.374C366.303 90.374 367.995 92.588 367.995 96.044C367.995 99.518 366.303 101.732 363.945 101.732C361.569 101.732 359.895 99.518 359.895 96.044C359.895 92.588 361.569 90.374 363.945 90.374ZM363.945 91.724C362.379 91.724 361.299 93.416 361.299 96.044C361.299 98.69 362.379 100.418 363.945 100.418C365.511 100.418 366.591 98.69 366.591 96.044C366.591 93.416 365.511 91.724 363.945 91.724ZM371.523 89.114H372.999V105.422H371.523V89.114ZM388.441 89.132H389.863V99.428H388.441V89.132ZM385.795 93.542H388.873V94.784H385.795V93.542ZM384.967 89.456H386.371V98.852H384.967V89.456ZM376.075 91.076H384.319V92.264H376.075V91.076ZM380.215 93.092C382.249 93.092 383.671 94.208 383.671 95.882C383.671 97.574 382.249 98.672 380.215 98.672C378.163 98.672 376.741 97.574 376.741 95.882C376.741 94.208 378.163 93.092 380.215 93.092ZM380.215 94.208C378.937 94.208 378.073 94.874 378.073 95.882C378.073 96.908 378.937 97.556 380.215 97.556C381.475 97.556 382.339 96.908 382.339 95.882C382.339 94.874 381.475 94.208 380.215 94.208ZM379.477 89.258H380.935V91.742H379.477V89.258ZM384.535 99.716C387.919 99.716 389.953 100.724 389.953 102.542C389.953 104.342 387.919 105.368 384.535 105.368C381.115 105.368 379.099 104.342 379.099 102.542C379.099 100.724 381.115 99.716 384.535 99.716ZM384.535 100.868C382.033 100.868 380.575 101.462 380.575 102.542C380.575 103.622 382.033 104.234 384.535 104.234C387.001 104.234 388.477 103.622 388.477 102.542C388.477 101.462 387.001 100.868 384.535 100.868Z" fill="white"/>
<path d="M182.562 91.792H175V105.681H189.12V97.656" stroke="white" stroke-width="1.8"/>
<path d="M177.315 95.802L181.944 101.202L191.744 89.3191" stroke="white" stroke-width="1.8"/>
</g>
</g>
<defs>
<clipPath id="clip0_92_30">
<rect width="800" height="109" fill="white"/>
</clipPath>
</defs>
</svg>
