<svg width="801" height="110" viewBox="0 0 801 110" fill="none" xmlns="http://www.w3.org/2000/svg">
<g clip-path="url(#clip0_33_171)">
<mask id="mask0_33_171" style="mask-type:luminance" maskUnits="userSpaceOnUse" x="0" y="0" width="801" height="110">
<path d="M800.5 0.5H0.5V109.5H800.5V0.5Z" fill="white"/>
</mask>
<g mask="url(#mask0_33_171)">
<path d="M76.262 28.466H81.938V68.413H76.262V28.466ZM80.648 43.516H87.7V48.246H80.648V43.516ZM52.354 54.481H55.708C62.459 54.481 67.705 54.266 73.553 53.234L74.112 57.835C68.092 58.91 62.631 59.168 55.708 59.168H52.354V54.481ZM52.311 31.863H70.629V47.3H58.03V56.244H52.354V42.742H64.953V36.421H52.311V31.863ZM105.069 30.788H110.057V33.669C110.057 42.312 103.908 49.966 93.5876 51.987L91.1366 47.257C100.124 45.709 105.069 39.388 105.069 33.669V30.788ZM106.23 30.788H111.175V33.669C111.175 39.517 116.077 45.709 125.107 47.257L122.656 51.987C112.336 49.966 106.23 42.441 106.23 33.669V30.788ZM90.3196 58.824H126.354V63.468H90.3196V58.824ZM130.951 32.121H136.326V41.28H141.486V32.121H146.732V58.91H130.951V32.121ZM136.326 45.752V54.309H141.486V45.752H136.326ZM158.6 28.509H164.061V68.327H158.6V28.509ZM145.829 43.043H152.451V47.687H145.829V43.043ZM150.473 29.154H155.848V66.564H150.473V29.154ZM194.846 28.466H200.608V68.284H194.846V28.466ZM199.103 43.688H206.112V48.375H199.103V43.688ZM184.397 32.594H189.987C189.987 44.548 185.429 54.782 172.185 61.447L169.003 57.104C179.452 51.686 184.397 44.376 184.397 33.583V32.594ZM171.196 32.594H187.321V37.195H171.196V32.594ZM223.739 30.788H228.727V33.669C228.727 42.312 222.578 49.966 212.258 51.987L209.807 47.257C218.794 45.709 223.739 39.388 223.739 33.669V30.788ZM224.9 30.788H229.845V33.669C229.845 39.517 234.747 45.709 243.777 47.257L241.326 51.987C231.006 49.966 224.9 42.441 224.9 33.669V30.788ZM208.99 58.824H245.024V63.468H208.99V58.824ZM267.234 63.0021V43.8942H272.065V63.0021H267.234ZM260.095 55.8636V51.0327H279.203V55.8636H260.095ZM296.776 32.164H322.017V36.679H296.776V32.164ZM293.121 58.48H329.112V63.124H293.121V58.48ZM319.007 32.164H324.683V36.894C324.683 42.484 324.683 47.902 323.264 56.072L317.545 55.599C319.007 47.945 319.007 42.269 319.007 36.894V32.164ZM361.144 28.509H366.562V58.05H361.144V28.509ZM356.328 39.818H362.649V44.419H356.328V39.818ZM352.63 29.24H357.962V57.276H352.63V29.24ZM339.773 63.081H367.594V67.639H339.773V63.081ZM339.773 55.298H345.492V64.801H339.773V55.298ZM334.226 48.16H336.978C342.697 48.16 346.395 48.031 350.781 47.214L351.254 51.729C346.739 52.546 342.869 52.675 336.978 52.675H334.226V48.16ZM334.183 31.734H349.276V44.161H339.773V50.697H334.226V39.99H343.772V36.206H334.183V31.734ZM376.406 46.87H404.399V51.428H376.406V46.87ZM372.235 58.867H408.269V63.554H372.235V58.867ZM376.406 31.777H404.098V36.421H382.082V48.762H376.406V31.777ZM450.467 28.509H455.928V68.327H450.467V28.509ZM445.307 43.688H451.886V48.289H445.307V43.688ZM434.041 33.11H439.459C439.459 44.548 436.664 53.793 424.796 60.716L421.614 56.674C431.418 50.998 434.041 44.032 434.041 34.142V33.11ZM423.979 33.11H435.847V37.711H423.979V33.11ZM441.695 29.369H447.027V66.607H441.695V29.369ZM434.127 42.097V46.311L422.56 47.558L421.915 42.742L434.127 42.097ZM488.863 28.509H494.582V57.792H488.863V28.509ZM479.231 32.938H490.798V37.41H479.231V32.938ZM468.266 63.081H495.485V67.639H468.266V63.081ZM468.266 55.169H474.028V65.403H468.266V55.169ZM463.45 31.046H469.126V49.751H463.45V31.046ZM463.45 48.031H466.632C472.394 48.031 477.511 47.773 483.187 46.784L483.703 51.385C477.855 52.46 472.609 52.675 466.632 52.675H463.45V48.031ZM479.231 40.334H490.798V44.849H479.231V40.334ZM518.387 63.0021V43.8942H523.218V63.0021H518.387ZM511.249 55.8636V51.0327H530.357V55.8636H511.249ZM552.359 53.664H558.207V68.327H552.359V53.664ZM566.119 53.664H571.967V68.327H566.119V53.664ZM544.232 50.654H580.309V55.255H544.232V50.654ZM562.163 29.842C570.677 29.842 576.568 33.325 576.568 38.786C576.568 44.161 570.677 47.644 562.163 47.644C553.692 47.644 547.801 44.161 547.801 38.786C547.801 33.325 553.692 29.842 562.163 29.842ZM562.163 34.4C556.96 34.4 553.649 35.948 553.649 38.786C553.649 41.581 556.96 43.129 562.163 43.129C567.409 43.129 570.677 41.581 570.677 38.786C570.677 35.948 567.409 34.4 562.163 34.4ZM585.336 54.696H588.69C595.398 54.696 600.515 54.61 606.449 53.664L606.965 58.222C600.945 59.168 595.527 59.34 588.69 59.34H585.336V54.696ZM585.336 31.82H604.041V36.464H591.098V56.201H585.336V31.82ZM589.722 42.871H603.482V47.343H589.722V42.871ZM609.244 28.509H615.006V68.327H609.244V28.509ZM613.716 43.602H620.768V48.332H613.716V43.602ZM636.159 31.132C642.437 31.132 647.124 35.217 647.124 40.936C647.124 46.698 642.437 50.783 636.159 50.783C629.924 50.783 625.151 46.698 625.151 40.936C625.151 35.217 629.924 31.132 636.159 31.132ZM636.159 36.034C633.106 36.034 630.784 37.84 630.784 40.936C630.784 44.075 633.106 45.881 636.159 45.881C639.212 45.881 641.534 44.075 641.534 40.936C641.534 37.84 639.212 36.034 636.159 36.034ZM650.865 28.466H656.584V68.413H650.865V28.466ZM624.205 60.329L623.517 55.728C630.526 55.728 640.287 55.642 648.672 54.395L649.102 58.523C640.459 60.243 631.085 60.329 624.205 60.329ZM701.621 28.509H707.082V68.327H701.621V28.509ZM696.461 43.688H703.04V48.289H696.461V43.688ZM685.195 33.11H690.613C690.613 44.548 687.818 53.793 675.95 60.716L672.768 56.674C682.572 50.998 685.195 44.032 685.195 34.142V33.11ZM675.133 33.11H687.001V37.711H675.133V33.11ZM692.849 29.369H698.181V66.607H692.849V29.369ZM685.281 42.097V46.311L673.714 47.558L673.069 42.742L685.281 42.097ZM740.016 28.509H745.735V57.792H740.016V28.509ZM730.384 32.938H741.951V37.41H730.384V32.938ZM719.419 63.081H746.638V67.639H719.419V63.081ZM719.419 55.169H725.181V65.403H719.419V55.169ZM714.603 31.046H720.279V49.751H714.603V31.046ZM714.603 48.031H717.785C723.547 48.031 728.664 47.773 734.34 46.784L734.856 51.385C729.008 52.46 723.762 52.675 717.785 52.675H714.603V48.031ZM730.384 40.334H741.951V44.849H730.384V40.334Z" fill="white"/>
<path d="M55.106 14.8295H56.8905V17.99H55.106V14.8295ZM63.276 3.241H65.0605V22.677H63.276V3.241ZM64.48 11.497H68.0705V13.002H64.48V11.497ZM50.0965 18.979L49.8385 17.4955C53.3215 17.4955 58.073 17.4525 62.0935 16.872L62.244 18.205C58.0515 18.9575 53.4935 18.979 50.0965 18.979ZM50.161 5.5845H61.7925V7.025H50.161V5.5845ZM55.9875 8.1645C58.6965 8.1645 60.567 9.5835 60.567 11.755C60.567 13.948 58.6965 15.3455 55.9875 15.3455C53.2785 15.3455 51.4295 13.948 51.4295 11.755C51.4295 9.5835 53.2785 8.1645 55.9875 8.1645ZM55.9875 9.5405C54.246 9.5405 53.1065 10.422 53.1065 11.755C53.1065 13.088 54.246 13.9695 55.9875 13.9695C57.729 13.9695 58.89 13.088 58.89 11.755C58.89 10.422 57.729 9.5405 55.9875 9.5405ZM55.106 3.2625H56.8905V6.552H55.106V3.2625ZM84.0433 3.2195H85.8278V22.6985H84.0433V3.2195ZM80.2163 7.67H84.5163V9.132H80.2163V7.67ZM70.5628 16.6785H72.0033C75.0133 16.6785 77.4858 16.5925 80.4528 16.1195L80.6248 17.603C77.5718 18.076 75.0778 18.1835 72.0033 18.1835H70.5628V16.6785ZM70.5198 4.9825H79.0123V11.9485H72.3258V17.0225H70.5628V10.4865H77.2493V6.466H70.5198V4.9825ZM80.0873 12.9805H84.3873V14.4425H80.0873V12.9805ZM102.919 3.2625H104.703V17.8395H102.919V3.2625ZM104.144 9.6265H107.584V11.1315H104.144V9.6265ZM89.6746 5.606H101.156V7.0465H89.6746V5.606ZM95.4151 8.1215C98.1671 8.1215 100.059 9.562 100.059 11.755C100.059 13.9265 98.1671 15.367 95.4151 15.367C92.6416 15.367 90.7496 13.9265 90.7496 11.755C90.7496 9.562 92.6416 8.1215 95.4151 8.1215ZM95.4151 9.519C93.6521 9.519 92.4481 10.4005 92.4481 11.755C92.4481 13.088 93.6521 13.9695 95.4151 13.9695C97.1566 13.9695 98.3606 13.088 98.3606 11.755C98.3606 10.4005 97.1566 9.519 95.4151 9.519ZM94.5121 3.241H96.2966V6.3585H94.5121V3.241ZM92.5986 20.785H105.585V22.247H92.5986V20.785ZM92.5986 16.6785H94.3831V21.4085H92.5986V16.6785ZM117.671 12.314H131.023V13.776H117.671V12.314ZM115.457 18.7425H133.065V20.2475H115.457V18.7425ZM123.326 12.9375H125.11V19.3445H123.326V12.9375ZM117.671 4.789H130.829V6.251H119.456V12.959H117.671V4.789ZM140.352 4.918H141.814V8.401C141.814 12.873 139.406 17.0225 136.224 18.635L135.128 17.173C138.009 15.797 140.352 12.0775 140.352 8.401V4.918ZM140.653 4.918H142.115V8.401C142.115 11.9485 144.437 15.5175 147.318 16.8505L146.243 18.2695C143.083 16.7215 140.653 12.7225 140.653 8.401V4.918ZM149.339 3.2195H151.124V22.6985H149.339V3.2195ZM161.313 4.6385C164.344 4.6385 166.516 6.509 166.516 9.218C166.516 11.9485 164.344 13.819 161.313 13.819C158.281 13.819 156.088 11.9485 156.088 9.218C156.088 6.509 158.281 4.6385 161.313 4.6385ZM161.313 6.1865C159.292 6.1865 157.83 7.412 157.83 9.218C157.83 11.024 159.292 12.271 161.313 12.271C163.312 12.271 164.774 11.024 164.774 9.218C164.774 7.412 163.312 6.1865 161.313 6.1865ZM169.053 3.2195H170.837V22.6985H169.053V3.2195ZM155.357 18.4415L155.099 16.958C158.647 16.958 163.549 16.9365 167.784 16.27L167.935 17.5815C163.57 18.42 158.819 18.4415 155.357 18.4415ZM186.02 4.7245C188.837 4.7245 190.858 7.369 190.858 11.497C190.858 15.6465 188.837 18.291 186.02 18.291C183.182 18.291 181.183 15.6465 181.183 11.497C181.183 7.369 183.182 4.7245 186.02 4.7245ZM186.02 6.337C184.15 6.337 182.881 8.358 182.881 11.497C182.881 14.6575 184.15 16.7215 186.02 16.7215C187.891 16.7215 189.159 14.6575 189.159 11.497C189.159 8.358 187.891 6.337 186.02 6.337ZM195.072 3.2195H196.835V22.6985H195.072V3.2195ZM190.277 10.637H195.846V12.099H190.277V10.637ZM202.874 13.7115H216.226V15.152H202.874V13.7115ZM200.617 18.6995H218.225V20.183H200.617V18.6995ZM202.874 4.8965H216.011V6.3585H204.68V14.163H202.874V4.8965ZM204.1 9.2395H215.602V10.6585H204.1V9.2395ZM235.058 3.241H236.757V15.41H235.058V3.241ZM231.941 8.4225H235.596V9.8845H231.941V8.4225ZM230.78 3.6065H232.457V15.2165H230.78V3.6065ZM223.728 16.356H236.757V22.677H234.994V17.818H223.728V16.356ZM221.277 12.959H222.524C225.254 12.959 227.275 12.8515 229.662 12.3785L229.834 13.819C227.383 14.292 225.34 14.3995 222.524 14.3995H221.277V12.959ZM221.234 4.66H228.544V10.0995H222.997V13.8835H221.277V8.7665H226.824V6.1005H221.234V4.66ZM250.472 6.1005H254.837V7.584H250.472V6.1005ZM250.472 10.0995H254.837V11.5615H250.472V10.0995ZM245.033 4.3375H246.473V6.81C246.473 10.6155 244.388 13.862 241.141 15.1735L240.195 13.7545C243.098 12.6365 245.033 9.863 245.033 6.81V4.3375ZM245.355 4.3375H246.817V6.81C246.817 9.648 248.688 12.3355 251.504 13.4535L250.515 14.851C247.441 13.561 245.355 10.422 245.355 6.81V4.3375ZM254.364 3.2625H256.148V17.7535H254.364V3.2625ZM243.657 20.785H256.621V22.247H243.657V20.785ZM243.657 16.2915H245.441V21.5805H243.657V16.2915ZM263.214 18.8622L263.091 19.6868C263.005 20.267 262.873 20.888 262.694 21.5497C262.521 22.2114 262.341 22.8349 262.152 23.4203C261.964 24.0056 261.809 24.4714 261.687 24.8175H260.312C260.378 24.4917 260.465 24.0616 260.572 23.5272C260.679 22.9927 260.786 22.3946 260.893 21.733C261.005 21.0763 261.096 20.4045 261.167 19.7173L261.259 18.8622H263.214ZM273.917 5.305H286.43V6.7455H273.917V5.305ZM272.025 18.3555H289.59V19.839H272.025V18.3555ZM285.484 5.305H287.225V7.24C287.225 9.734 287.225 12.5075 286.494 16.7L284.71 16.528C285.484 12.5505 285.484 9.648 285.484 7.24V5.305ZM305.95 3.2195H307.735V22.6985H305.95V3.2195ZM292.921 16.528H294.534C297.78 16.528 300.683 16.399 304.123 15.84L304.316 17.302C300.79 17.8825 297.866 18.0115 294.534 18.0115H292.921V16.528ZM292.878 5.047H301.865V11.9915H294.706V17.087H292.921V10.5295H300.059V6.509H292.878V5.047ZM313.43 5.176H325.943V6.6595H313.43V5.176ZM311.581 18.4845H329.147V19.968H311.581V18.4845ZM318.397 11.54H320.181V19.2155H318.397V11.54ZM325.277 5.176H327.04V7.111C327.04 9.519 327.04 12.185 326.33 16.1195L324.546 15.883C325.277 12.1635 325.277 9.433 325.277 7.111V5.176ZM352.177 3.241H353.897V22.677H352.177V3.241ZM348.888 11.024H352.629V12.5075H348.888V11.024ZM347.77 3.671H349.447V21.688H347.77V3.671ZM338.095 16.399H339.363C342.201 16.399 344.136 16.2915 346.394 15.8185L346.566 17.302C344.244 17.7965 342.287 17.8825 339.363 17.8825H338.095V16.399ZM338.095 5.606H345.319V7.068H339.858V17.0655H338.095V5.606ZM361.979 6.0145H363.398V9.175C363.398 13.217 360.926 17.388 357.894 18.936L356.862 17.517C359.636 16.1625 361.979 12.4645 361.979 9.175V6.0145ZM362.302 6.0145H363.721V9.175C363.721 12.2495 365.914 15.711 368.73 17.044L367.72 18.463C364.645 16.9365 362.302 13.0235 362.302 9.175V6.0145ZM357.55 5.219H368.021V6.724H357.55V5.219ZM370.321 3.241H372.127V22.677H370.321V3.241ZM371.697 11.0885H375.309V12.5935H371.697V11.0885ZM385.95 6.2725H391.798V7.7345H385.95V6.2725ZM385.95 10.938H391.798V12.4H385.95V10.938ZM391.153 3.2625H392.938V17.6245H391.153V3.2625ZM380.532 20.785H393.475V22.247H380.532V20.785ZM380.532 16.141H382.317V21.43H380.532V16.141ZM382.252 4.488C385.112 4.488 387.262 6.4875 387.262 9.347C387.262 12.2065 385.112 14.206 382.252 14.206C379.393 14.206 377.243 12.2065 377.243 9.347C377.243 6.4875 379.393 4.488 382.252 4.488ZM382.252 6.0575C380.36 6.0575 378.963 7.4335 378.963 9.347C378.963 11.282 380.36 12.658 382.252 12.658C384.144 12.658 385.563 11.282 385.563 9.347C385.563 7.4335 384.144 6.0575 382.252 6.0575Z" fill="white"/>
<path d="M71.076 100.756H72.354C75.36 100.756 77.43 100.684 79.878 100.252L80.04 101.476C77.52 101.908 75.396 101.998 72.354 101.998H71.076V100.756ZM71.076 91.108H78.654V92.35H72.57V101.188H71.076V91.108ZM72.192 95.662H78.294V96.868H72.192V95.662ZM81.39 89.632H82.902V105.904H81.39V89.632ZM82.542 96.166H85.566V97.426H82.542V96.166ZM87.8686 91.216H95.3566V101.818H87.8686V91.216ZM93.8986 92.422H89.3266V100.612H93.8986V92.422ZM98.7586 89.614H100.253V105.922H98.7586V89.614ZM110.025 90.748H111.321V91.99C111.321 95.536 108.027 98.29 104.769 99.028L104.103 97.786C106.965 97.246 110.025 94.762 110.025 91.99V90.748ZM110.295 90.748H111.591V91.99C111.591 94.78 114.669 97.246 117.513 97.786L116.847 99.028C113.607 98.29 110.295 95.554 110.295 91.99V90.748ZM103.509 102.484H118.251V103.708H103.509V102.484ZM120.068 102.664H134.81V103.906H120.068V102.664ZM126.656 99.172H128.15V103.186H126.656V99.172ZM121.85 90.838H132.992V95.77H123.38V99.028H121.904V94.564H131.516V92.044H121.85V90.838ZM121.904 98.398H133.37V99.622H121.904V98.398ZM146.567 97.192H148.043V100.252H146.567V97.192ZM144.227 99.784H145.721V101.53H153.443V99.784H154.919V105.688H144.227V99.784ZM145.721 102.7V104.482H153.443V102.7H145.721ZM153.425 89.632H154.919V98.974H153.425V89.632ZM141.905 97.984L141.707 96.76C144.749 96.76 148.799 96.742 152.345 96.274L152.453 97.354C148.817 97.966 144.875 97.984 141.905 97.984ZM146.369 90.028H147.575V90.838C147.575 93.196 145.793 95.05 143.075 95.734L142.409 94.6C144.785 94.024 146.369 92.548 146.369 90.838V90.028ZM146.693 90.028H147.917V90.838C147.917 92.494 149.519 93.862 151.841 94.348L151.211 95.5C148.511 94.87 146.693 93.124 146.693 90.838V90.028ZM159.795 91.252H170.271V92.494H159.795V91.252ZM158.247 102.394H172.953V103.636H158.247V102.394ZM163.953 96.58H165.447V103.006H163.953V96.58ZM169.713 91.252H171.189V92.872C171.189 94.888 171.189 97.12 170.595 100.414L169.101 100.216C169.713 97.102 169.713 94.816 169.713 92.872V91.252ZM191.749 89.632H193.243V101.746H191.749V89.632ZM180.337 90.946H188.905V92.17H180.337V90.946ZM180.067 99.298L179.905 98.02C182.569 98.02 186.367 97.984 189.409 97.624L189.499 98.74C186.367 99.244 182.713 99.298 180.067 99.298ZM181.957 91.99H183.397V98.236H181.957V91.99ZM185.845 91.99H187.285V98.236H185.845V91.99ZM189.049 92.71H192.541V93.934H189.049V92.71ZM189.049 95.824H192.541V97.048H189.049V95.824ZM182.839 104.32H193.675V105.544H182.839V104.32ZM182.839 100.756H184.333V105.094H182.839V100.756ZM208.271 89.614H209.765V105.922H208.271V89.614ZM197.363 100.756H198.713C201.431 100.756 203.861 100.648 206.741 100.18L206.903 101.404C203.951 101.89 201.503 101.998 198.713 101.998H197.363V100.756ZM197.327 91.144H204.851V96.958H198.857V101.224H197.363V95.734H203.339V92.368H197.327V91.144ZM224.11 89.65H225.604V101.854H224.11V89.65ZM225.136 94.978H228.016V96.238H225.136V94.978ZM213.022 91.612H222.634V92.818H213.022V91.612ZM217.828 93.718C220.132 93.718 221.716 94.924 221.716 96.76C221.716 98.578 220.132 99.784 217.828 99.784C215.506 99.784 213.922 98.578 213.922 96.76C213.922 94.924 215.506 93.718 217.828 93.718ZM217.828 94.888C216.352 94.888 215.344 95.626 215.344 96.76C215.344 97.876 216.352 98.614 217.828 98.614C219.286 98.614 220.294 97.876 220.294 96.76C220.294 95.626 219.286 94.888 217.828 94.888ZM217.072 89.632H218.566V92.242H217.072V89.632ZM215.47 104.32H226.342V105.544H215.47V104.32ZM215.47 100.882H216.964V104.842H215.47V100.882ZM241.933 93.25H246.847V94.492H241.933V93.25ZM241.933 98.398H246.847V99.64H241.933V98.398ZM238.945 90.874C241.303 90.874 242.995 93.088 242.995 96.544C242.995 100.018 241.303 102.232 238.945 102.232C236.569 102.232 234.895 100.018 234.895 96.544C234.895 93.088 236.569 90.874 238.945 90.874ZM238.945 92.224C237.379 92.224 236.299 93.916 236.299 96.544C236.299 99.19 237.379 100.918 238.945 100.918C240.511 100.918 241.591 99.19 241.591 96.544C241.591 93.916 240.511 92.224 238.945 92.224ZM246.523 89.614H247.999V105.922H246.523V89.614ZM263.441 89.632H264.863V99.928H263.441V89.632ZM260.795 94.042H263.873V95.284H260.795V94.042ZM259.967 89.956H261.371V99.352H259.967V89.956ZM251.075 91.576H259.319V92.764H251.075V91.576ZM255.215 93.592C257.249 93.592 258.671 94.708 258.671 96.382C258.671 98.074 257.249 99.172 255.215 99.172C253.163 99.172 251.741 98.074 251.741 96.382C251.741 94.708 253.163 93.592 255.215 93.592ZM255.215 94.708C253.937 94.708 253.073 95.374 253.073 96.382C253.073 97.408 253.937 98.056 255.215 98.056C256.475 98.056 257.339 97.408 257.339 96.382C257.339 95.374 256.475 94.708 255.215 94.708ZM254.477 89.758H255.935V92.242H254.477V89.758ZM259.535 100.216C262.919 100.216 264.953 101.224 264.953 103.042C264.953 104.842 262.919 105.868 259.535 105.868C256.115 105.868 254.099 104.842 254.099 103.042C254.099 101.224 256.115 100.216 259.535 100.216ZM259.535 101.368C257.033 101.368 255.575 101.962 255.575 103.042C255.575 104.122 257.033 104.734 259.535 104.734C262.001 104.734 263.477 104.122 263.477 103.042C263.477 101.962 262.001 101.368 259.535 101.368Z" fill="white"/>
<path d="M57.562 92.292H50V106.181H64.1201V98.156" stroke="white" stroke-width="1.8"/>
<path d="M52.3154 96.302L56.9443 101.702L66.7441 89.8191" stroke="white" stroke-width="1.8"/>
</g>
</g>
<defs>
<clipPath id="clip0_33_171">
<rect width="800" height="109" fill="white" transform="translate(0.5 0.5)"/>
</clipPath>
</defs>
</svg>
