<svg width="345" height="47" viewBox="0 0 345 47" fill="none" xmlns="http://www.w3.org/2000/svg">
<g clip-path="url(#clip0_33_158)">
<mask id="mask0_33_158" style="mask-type:luminance" maskUnits="userSpaceOnUse" x="0" y="0" width="345" height="47">
<path d="M345 0H0V47H345V0Z" fill="white"/>
</mask>
<g mask="url(#mask0_33_158)">
<path d="M63.242 15.106H64.958V27.183H63.242V15.106ZM64.568 19.656H66.7V21.086H64.568V19.656ZM56.014 22.971H57.028C59.069 22.971 60.655 22.906 62.423 22.594L62.592 23.985C60.772 24.31 59.121 24.388 57.028 24.388H56.014V22.971ZM56.001 16.133H61.539V20.8H57.73V23.504H56.014V19.422H59.823V17.511H56.001V16.133ZM71.951 15.808H73.459V16.679C73.459 19.292 71.6 21.606 68.48 22.217L67.739 20.787C70.456 20.319 71.951 18.408 71.951 16.679V15.808ZM72.302 15.808H73.797V16.679C73.797 18.447 75.279 20.319 78.009 20.787L77.268 22.217C74.148 21.606 72.302 19.331 72.302 16.679V15.808ZM67.492 24.284H78.386V25.688H67.492V24.284ZM79.776 16.211H81.401V18.98H82.961V16.211H84.547V24.31H79.776V16.211ZM81.401 20.332V22.919H82.961V20.332H81.401ZM88.135 15.119H89.786V27.157H88.135V15.119ZM84.274 19.513H86.276V20.917H84.274V19.513ZM85.678 15.314H87.303V26.624H85.678V15.314ZM99.093 15.106H100.835V27.144H99.093V15.106ZM100.38 19.708H102.499V21.125H100.38V19.708ZM95.934 16.354H97.624C97.624 19.968 96.246 23.062 92.242 25.077L91.28 23.764C94.439 22.126 95.934 19.916 95.934 16.653V16.354ZM91.943 16.354H96.818V17.745H91.943V16.354ZM107.828 15.808H109.336V16.679C109.336 19.292 107.477 21.606 104.357 22.217L103.616 20.787C106.333 20.319 107.828 18.408 107.828 16.679V15.808ZM108.179 15.808H109.674V16.679C109.674 18.447 111.156 20.319 113.886 20.787L113.145 22.217C110.025 21.606 108.179 19.331 108.179 16.679V15.808ZM103.369 24.284H114.263V25.688H103.369V24.284ZM120.38 25.5664V20.0352H121.778V25.5664H120.38ZM118.313 23.5V22.1016H123.845V23.5H118.313ZM129.001 16.224H136.632V17.589H129.001V16.224ZM127.896 24.18H138.777V25.584H127.896V24.18ZM135.722 16.224H137.438V17.654C137.438 19.344 137.438 20.982 137.009 23.452L135.28 23.309C135.722 20.995 135.722 19.279 135.722 17.654V16.224ZM148.461 15.119H150.099V24.05H148.461V15.119ZM147.005 18.538H148.916V19.929H147.005V18.538ZM145.887 15.34H147.499V23.816H145.887V15.34ZM142 25.571H150.411V26.949H142V25.571ZM142 23.218H143.729V26.091H142V23.218ZM140.323 21.06H141.155C142.884 21.06 144.002 21.021 145.328 20.774L145.471 22.139C144.106 22.386 142.936 22.425 141.155 22.425H140.323V21.06ZM140.31 16.094H144.873V19.851H142V21.827H140.323V18.59H143.209V17.446H140.31V16.094ZM153.075 20.67H161.538V22.048H153.075V20.67ZM151.814 24.297H162.708V25.714H151.814V24.297ZM153.075 16.107H161.447V17.511H154.791V21.242H153.075V16.107ZM175.466 15.119H177.117V27.157H175.466V15.119ZM173.906 19.708H175.895V21.099H173.906V19.708ZM170.5 16.51H172.138C172.138 19.968 171.293 22.763 167.705 24.856L166.743 23.634C169.707 21.918 170.5 19.812 170.5 16.822V16.51ZM167.458 16.51H171.046V17.901H167.458V16.51ZM172.814 15.379H174.426V26.637H172.814V15.379ZM170.526 19.227V20.501L167.029 20.878L166.834 19.422L170.526 19.227ZM187.074 15.119H188.803V23.972H187.074V15.119ZM184.162 16.458H187.659V17.81H184.162V16.458ZM180.847 25.571H189.076V26.949H180.847V25.571ZM180.847 23.179H182.589V26.273H180.847V23.179ZM179.391 15.886H181.107V21.541H179.391V15.886ZM179.391 21.021H180.353C182.095 21.021 183.642 20.943 185.358 20.644L185.514 22.035C183.746 22.36 182.16 22.425 180.353 22.425H179.391V21.021ZM184.162 18.694H187.659V20.059H184.162V18.694ZM195.752 25.5664V20.0352H197.15V25.5664H195.752ZM193.686 23.5V22.1016H199.217V23.5H193.686ZM205.712 22.724H207.48V27.157H205.712V22.724ZM209.872 22.724H211.64V27.157H209.872V22.724ZM203.255 21.814H214.162V23.205H203.255V21.814ZM208.676 15.522C211.25 15.522 213.031 16.575 213.031 18.226C213.031 19.851 211.25 20.904 208.676 20.904C206.115 20.904 204.334 19.851 204.334 18.226C204.334 16.575 206.115 15.522 208.676 15.522ZM208.676 16.9C207.103 16.9 206.102 17.368 206.102 18.226C206.102 19.071 207.103 19.539 208.676 19.539C210.262 19.539 211.25 19.071 211.25 18.226C211.25 17.368 210.262 16.9 208.676 16.9ZM215.682 23.036H216.696C218.724 23.036 220.271 23.01 222.065 22.724L222.221 24.102C220.401 24.388 218.763 24.44 216.696 24.44H215.682V23.036ZM215.682 16.12H221.337V17.524H217.424V23.491H215.682V16.12ZM217.008 19.461H221.168V20.813H217.008V19.461ZM222.91 15.119H224.652V27.157H222.91V15.119ZM224.262 19.682H226.394V21.112H224.262V19.682ZM231.047 15.912C232.945 15.912 234.362 17.147 234.362 18.876C234.362 20.618 232.945 21.853 231.047 21.853C229.162 21.853 227.719 20.618 227.719 18.876C227.719 17.147 229.162 15.912 231.047 15.912ZM231.047 17.394C230.124 17.394 229.422 17.94 229.422 18.876C229.422 19.825 230.124 20.371 231.047 20.371C231.97 20.371 232.672 19.825 232.672 18.876C232.672 17.94 231.97 17.394 231.047 17.394ZM235.493 15.106H237.222V27.183H235.493V15.106ZM227.433 24.739L227.225 23.348C229.344 23.348 232.295 23.322 234.83 22.945L234.96 24.193C232.347 24.713 229.513 24.739 227.433 24.739ZM250.838 15.119H252.489V27.157H250.838V15.119ZM249.278 19.708H251.267V21.099H249.278V19.708ZM245.872 16.51H247.51C247.51 19.968 246.665 22.763 243.077 24.856L242.115 23.634C245.079 21.918 245.872 19.812 245.872 16.822V16.51ZM242.83 16.51H246.418V17.901H242.83V16.51ZM248.186 15.379H249.798V26.637H248.186V15.379ZM245.898 19.227V20.501L242.401 20.878L242.206 19.422L245.898 19.227ZM262.446 15.119H264.175V23.972H262.446V15.119ZM259.534 16.458H263.031V17.81H259.534V16.458ZM256.219 25.571H264.448V26.949H256.219V25.571ZM256.219 23.179H257.961V26.273H256.219V23.179ZM254.763 15.886H256.479V21.541H254.763V15.886ZM254.763 21.021H255.725C257.467 21.021 259.014 20.943 260.73 20.644L260.886 22.035C259.118 22.36 257.532 22.425 255.725 22.425H254.763V21.021ZM259.534 18.694H263.031V20.059H259.534V18.694Z" fill="white"/>
<path d="M57.988 6.991H58.569V8.02H57.988V6.991ZM60.648 3.218H61.229V9.546H60.648V3.218ZM61.04 5.906H62.209V6.396H61.04V5.906ZM56.357 8.342L56.273 7.859C57.407 7.859 58.954 7.845 60.263 7.656L60.312 8.09C58.947 8.335 57.463 8.342 56.357 8.342ZM56.378 3.981H60.165V4.45H56.378V3.981ZM58.275 4.821C59.157 4.821 59.766 5.283 59.766 5.99C59.766 6.704 59.157 7.159 58.275 7.159C57.393 7.159 56.791 6.704 56.791 5.99C56.791 5.283 57.393 4.821 58.275 4.821ZM58.275 5.269C57.708 5.269 57.337 5.556 57.337 5.99C57.337 6.424 57.708 6.711 58.275 6.711C58.842 6.711 59.22 6.424 59.22 5.99C59.22 5.556 58.842 5.269 58.275 5.269ZM57.988 3.225H58.569V4.296H57.988V3.225ZM67.4095 3.211H67.9905V9.553H67.4095V3.211ZM66.1635 4.66H67.5635V5.136H66.1635V4.66ZM63.0205 7.593H63.4895C64.4695 7.593 65.2745 7.565 66.2405 7.411L66.2965 7.894C65.3025 8.048 64.4905 8.083 63.4895 8.083H63.0205V7.593ZM63.0065 3.785H65.7715V6.053H63.5945V7.705H63.0205V5.577H65.1975V4.268H63.0065V3.785ZM66.1215 6.389H67.5215V6.865H66.1215V6.389ZM73.5549 3.225H74.1359V7.971H73.5549V3.225ZM73.9539 5.297H75.0739V5.787H73.9539V5.297ZM69.2429 3.988H72.9809V4.457H69.2429V3.988ZM71.1119 4.807C72.0079 4.807 72.6239 5.276 72.6239 5.99C72.6239 6.697 72.0079 7.166 71.1119 7.166C70.2089 7.166 69.5929 6.697 69.5929 5.99C69.5929 5.276 70.2089 4.807 71.1119 4.807ZM71.1119 5.262C70.5379 5.262 70.1459 5.549 70.1459 5.99C70.1459 6.424 70.5379 6.711 71.1119 6.711C71.6789 6.711 72.0709 6.424 72.0709 5.99C72.0709 5.549 71.6789 5.262 71.1119 5.262ZM70.8179 3.218H71.3989V4.233H70.8179V3.218ZM70.1949 8.93H74.4229V9.406H70.1949V8.93ZM70.1949 7.593H70.7759V9.133H70.1949V7.593ZM78.3581 6.172H82.7051V6.648H78.3581V6.172ZM77.6371 8.265H83.3701V8.755H77.6371V8.265ZM80.1991 6.375H80.7801V8.461H80.1991V6.375ZM78.3581 3.722H82.6421V4.198H78.9391V6.382H78.3581V3.722ZM85.7426 3.764H86.2186V4.898C86.2186 6.354 85.4346 7.705 84.3986 8.23L84.0416 7.754C84.9796 7.306 85.7426 6.095 85.7426 4.898V3.764ZM85.8406 3.764H86.3166V4.898C86.3166 6.053 87.0726 7.215 88.0106 7.649L87.6606 8.111C86.6316 7.607 85.8406 6.305 85.8406 4.898V3.764ZM88.6686 3.211H89.2496V9.553H88.6686V3.211ZM92.567 3.673C93.554 3.673 94.261 4.282 94.261 5.164C94.261 6.053 93.554 6.662 92.567 6.662C91.58 6.662 90.866 6.053 90.866 5.164C90.866 4.282 91.58 3.673 92.567 3.673ZM92.567 4.177C91.909 4.177 91.433 4.576 91.433 5.164C91.433 5.752 91.909 6.158 92.567 6.158C93.218 6.158 93.694 5.752 93.694 5.164C93.694 4.576 93.218 4.177 92.567 4.177ZM95.087 3.211H95.668V9.553H95.087V3.211ZM90.628 8.167L90.544 7.684C91.699 7.684 93.295 7.677 94.674 7.46L94.723 7.887C93.302 8.16 91.755 8.167 90.628 8.167ZM100.611 3.701C101.528 3.701 102.186 4.562 102.186 5.906C102.186 7.257 101.528 8.118 100.611 8.118C99.6872 8.118 99.0362 7.257 99.0362 5.906C99.0362 4.562 99.6872 3.701 100.611 3.701ZM100.611 4.226C100.002 4.226 99.5892 4.884 99.5892 5.906C99.5892 6.935 100.002 7.607 100.611 7.607C101.22 7.607 101.633 6.935 101.633 5.906C101.633 4.884 101.22 4.226 100.611 4.226ZM103.558 3.211H104.132V9.553H103.558V3.211ZM101.997 5.626H103.81V6.102H101.997V5.626ZM106.099 6.627H110.446V7.096H106.099V6.627ZM105.364 8.251H111.097V8.734H105.364V8.251ZM106.099 3.757H110.376V4.233H106.687V6.774H106.099V3.757ZM106.498 5.171H110.243V5.633H106.498V5.171ZM116.577 3.218H117.13V7.18H116.577V3.218ZM115.562 4.905H116.752V5.381H115.562V4.905ZM115.184 3.337H115.73V7.117H115.184V3.337ZM112.888 7.488H117.13V9.546H116.556V7.964H112.888V7.488ZM112.09 6.382H112.496C113.385 6.382 114.043 6.347 114.82 6.193L114.876 6.662C114.078 6.816 113.413 6.851 112.496 6.851H112.09V6.382ZM112.076 3.68H114.456V5.451H112.65V6.683H112.09V5.017H113.896V4.149H112.076V3.68ZM121.596 4.149H123.017V4.632H121.596V4.149ZM121.596 5.451H123.017V5.927H121.596V5.451ZM119.825 3.575H120.294V4.38C120.294 5.619 119.615 6.676 118.558 7.103L118.25 6.641C119.195 6.277 119.825 5.374 119.825 4.38V3.575ZM119.93 3.575H120.406V4.38C120.406 5.304 121.015 6.179 121.932 6.543L121.61 6.998C120.609 6.578 119.93 5.556 119.93 4.38V3.575ZM122.863 3.225H123.444V7.943H122.863V3.225ZM119.377 8.93H123.598V9.406H119.377V8.93ZM119.377 7.467H119.958V9.189H119.377V7.467ZM125.744 8.30398L125.704 8.57244C125.676 8.76136 125.633 8.96354 125.575 9.17898C125.519 9.39441 125.46 9.59742 125.398 9.788C125.337 9.97857 125.287 10.1302 125.247 10.2429H124.799C124.821 10.1368 124.849 9.9968 124.884 9.8228C124.919 9.64879 124.953 9.45407 124.988 9.23864C125.025 9.02486 125.055 8.80611 125.078 8.58239L125.108 8.30398H125.744ZM129.229 3.89H133.303V4.359H129.229V3.89ZM128.613 8.139H134.332V8.622H128.613V8.139ZM132.995 3.89H133.562V4.52C133.562 5.332 133.562 6.235 133.324 7.6L132.743 7.544C132.995 6.249 132.995 5.304 132.995 4.52V3.89ZM139.658 3.211H140.239V9.553H139.658V3.211ZM135.416 7.544H135.941C136.998 7.544 137.943 7.502 139.063 7.32L139.126 7.796C137.978 7.985 137.026 8.027 135.941 8.027H135.416V7.544ZM135.402 3.806H138.328V6.067H135.997V7.726H135.416V5.591H137.74V4.282H135.402V3.806ZM142.094 3.848H146.168V4.331H142.094V3.848ZM141.492 8.181H147.211V8.664H141.492V8.181ZM143.711 5.92H144.292V8.419H143.711V5.92ZM145.951 3.848H146.525V4.478C146.525 5.262 146.525 6.13 146.294 7.411L145.713 7.334C145.951 6.123 145.951 5.234 145.951 4.478V3.848ZM154.709 3.218H155.269V9.546H154.709V3.218ZM153.638 5.752H154.856V6.235H153.638V5.752ZM153.274 3.358H153.82V9.224H153.274V3.358ZM150.124 7.502H150.537C151.461 7.502 152.091 7.467 152.826 7.313L152.882 7.796C152.126 7.957 151.489 7.985 150.537 7.985H150.124V7.502ZM150.124 3.988H152.476V4.464H150.698V7.719H150.124V3.988ZM157.9 4.121H158.362V5.15C158.362 6.466 157.557 7.824 156.57 8.328L156.234 7.866C157.137 7.425 157.9 6.221 157.9 5.15V4.121ZM158.005 4.121H158.467V5.15C158.467 6.151 159.181 7.278 160.098 7.712L159.769 8.174C158.768 7.677 158.005 6.403 158.005 5.15V4.121ZM156.458 3.862H159.867V4.352H156.458V3.862ZM160.616 3.218H161.204V9.546H160.616V3.218ZM161.064 5.773H162.24V6.263H161.064V5.773ZM165.705 4.205H167.609V4.681H165.705V4.205ZM165.705 5.724H167.609V6.2H165.705V5.724ZM167.399 3.225H167.98V7.901H167.399V3.225ZM163.941 8.93H168.155V9.406H163.941V8.93ZM163.941 7.418H164.522V9.14H163.941V7.418ZM164.501 3.624C165.432 3.624 166.132 4.275 166.132 5.206C166.132 6.137 165.432 6.788 164.501 6.788C163.57 6.788 162.87 6.137 162.87 5.206C162.87 4.275 163.57 3.624 164.501 3.624ZM164.501 4.135C163.885 4.135 163.43 4.583 163.43 5.206C163.43 5.836 163.885 6.284 164.501 6.284C165.117 6.284 165.579 5.836 165.579 5.206C165.579 4.583 165.117 4.135 164.501 4.135Z" fill="white"/>
<path d="M64.889 41.574H65.3505C66.436 41.574 67.1835 41.548 68.0675 41.392L68.126 41.834C67.216 41.99 66.449 42.0225 65.3505 42.0225H64.889V41.574ZM64.889 38.09H67.6255V38.5385H65.4285V41.73H64.889V38.09ZM65.292 39.7345H67.4955V40.17H65.292V39.7345ZM68.6135 37.557H69.1595V43.433H68.6135V37.557ZM69.0295 39.9165H70.1215V40.3715H69.0295V39.9165ZM70.953 38.129H73.657V41.9575H70.953V38.129ZM73.1305 38.5645H71.4795V41.522H73.1305V38.5645ZM74.8855 37.5505H75.425V43.4395H74.8855V37.5505ZM78.954 37.96H79.422V38.4085C79.422 39.689 78.2325 40.6835 77.056 40.95L76.8155 40.5015C77.849 40.3065 78.954 39.4095 78.954 38.4085V37.96ZM79.0515 37.96H79.5195V38.4085C79.5195 39.416 80.631 40.3065 81.658 40.5015L81.4175 40.95C80.2475 40.6835 79.0515 39.6955 79.0515 38.4085V37.96ZM76.601 42.198H81.9245V42.64H76.601V42.198ZM82.5805 42.263H87.904V42.7115H82.5805V42.263ZM84.9595 41.002H85.499V42.4515H84.9595V41.002ZM83.224 37.9925H87.2475V39.7735H83.7765V40.95H83.2435V39.338H86.7145V38.428H83.224V37.9925ZM83.2435 40.7225H87.384V41.1645H83.2435V40.7225ZM92.1496 40.287H92.6826V41.392H92.1496V40.287ZM91.3046 41.223H91.8441V41.8535H94.6326V41.223H95.1656V43.355H91.3046V41.223ZM91.8441 42.276V42.9195H94.6326V42.276H91.8441ZM94.6261 37.557H95.1656V40.9305H94.6261V37.557ZM90.4661 40.573L90.3946 40.131C91.4931 40.131 92.9556 40.1245 94.2361 39.9555L94.2751 40.3455C92.9621 40.5665 91.5386 40.573 90.4661 40.573ZM92.0781 37.7H92.5136V37.9925C92.5136 38.844 91.8701 39.5135 90.8886 39.7605L90.6481 39.351C91.5061 39.143 92.0781 38.61 92.0781 37.9925V37.7ZM92.1951 37.7H92.6371V37.9925C92.6371 38.5905 93.2156 39.0845 94.0541 39.26L93.8266 39.676C92.8516 39.4485 92.1951 38.818 92.1951 37.9925V37.7ZM96.9266 38.142H100.71V38.5905H96.9266V38.142ZM96.3676 42.1655H101.678V42.614H96.3676V42.1655ZM98.4281 40.066H98.9676V42.3865H98.4281V40.066ZM100.508 38.142H101.041V38.727C101.041 39.455 101.041 40.261 100.827 41.4505L100.287 41.379C100.508 40.2545 100.508 39.429 100.508 38.727V38.142ZM108.465 37.557H109.005V41.9315H108.465V37.557ZM104.344 38.0315H107.438V38.4735H104.344V38.0315ZM104.247 41.0475L104.188 40.586C105.15 40.586 106.522 40.573 107.62 40.443L107.653 40.846C106.522 41.028 105.202 41.0475 104.247 41.0475ZM104.929 38.4085H105.449V40.664H104.929V38.4085ZM106.333 38.4085H106.853V40.664H106.333V38.4085ZM107.49 38.6685H108.751V39.1105H107.49V38.6685ZM107.49 39.793H108.751V40.235H107.49V39.793ZM105.248 42.861H109.161V43.303H105.248V42.861ZM105.248 41.574H105.787V43.1405H105.248V41.574ZM114.432 37.5505H114.971V43.4395H114.432V37.5505ZM110.493 41.574H110.98C111.962 41.574 112.839 41.535 113.879 41.366L113.938 41.808C112.872 41.9835 111.988 42.0225 110.98 42.0225H110.493V41.574ZM110.48 38.103H113.197V40.2025H111.032V41.743H110.493V39.7605H112.651V38.545H110.48V38.103ZM120.151 37.5635H120.691V41.9705H120.151V37.5635ZM120.522 39.4875H121.562V39.9425H120.522V39.4875ZM116.147 38.272H119.618V38.7075H116.147V38.272ZM117.883 39.0325C118.715 39.0325 119.287 39.468 119.287 40.131C119.287 40.7875 118.715 41.223 117.883 41.223C117.044 41.223 116.472 40.7875 116.472 40.131C116.472 39.468 117.044 39.0325 117.883 39.0325ZM117.883 39.455C117.35 39.455 116.986 39.7215 116.986 40.131C116.986 40.534 117.35 40.8005 117.883 40.8005C118.409 40.8005 118.773 40.534 118.773 40.131C118.773 39.7215 118.409 39.455 117.883 39.455ZM117.61 37.557H118.149V38.4995H117.61V37.557ZM117.031 42.861H120.957V43.303H117.031V42.861ZM117.031 41.6195H117.571V43.0495H117.031V41.6195ZM126.587 38.8635H128.362V39.312H126.587V38.8635ZM126.587 40.7225H128.362V41.171H126.587V40.7225ZM125.508 38.0055C126.36 38.0055 126.971 38.805 126.971 40.053C126.971 41.3075 126.36 42.107 125.508 42.107C124.65 42.107 124.046 41.3075 124.046 40.053C124.046 38.805 124.65 38.0055 125.508 38.0055ZM125.508 38.493C124.943 38.493 124.553 39.104 124.553 40.053C124.553 41.0085 124.943 41.6325 125.508 41.6325C126.074 41.6325 126.464 41.0085 126.464 40.053C126.464 39.104 126.074 38.493 125.508 38.493ZM128.245 37.5505H128.778V43.4395H128.245V37.5505ZM134.354 37.557H134.868V41.275H134.354V37.557ZM133.399 39.1495H134.51V39.598H133.399V39.1495ZM133.1 37.674H133.607V41.067H133.1V37.674ZM129.889 38.259H132.866V38.688H129.889V38.259ZM131.384 38.987C132.118 38.987 132.632 39.39 132.632 39.9945C132.632 40.6055 132.118 41.002 131.384 41.002C130.643 41.002 130.129 40.6055 130.129 39.9945C130.129 39.39 130.643 38.987 131.384 38.987ZM131.384 39.39C130.922 39.39 130.61 39.6305 130.61 39.9945C130.61 40.365 130.922 40.599 131.384 40.599C131.839 40.599 132.151 40.365 132.151 39.9945C132.151 39.6305 131.839 39.39 131.384 39.39ZM131.117 37.6025H131.644V38.4995H131.117V37.6025ZM132.944 41.379C134.166 41.379 134.9 41.743 134.9 42.3995C134.9 43.0495 134.166 43.42 132.944 43.42C131.709 43.42 130.981 43.0495 130.981 42.3995C130.981 41.743 131.709 41.379 132.944 41.379ZM132.944 41.795C132.04 41.795 131.514 42.0095 131.514 42.3995C131.514 42.7895 132.04 43.0105 132.944 43.0105C133.834 43.0105 134.367 42.7895 134.367 42.3995C134.367 42.0095 133.834 41.795 132.944 41.795Z" fill="white"/>
<path d="M59.5848 38.405H56.5848V43.915H62.1849V40.7319" stroke="white"/>
<path d="M57.5042 39.9949L59.3412 42.137L63.2279 37.4241" stroke="white"/>
</g>
</g>
<defs>
<clipPath id="clip0_33_158">
<rect width="345" height="47" fill="white"/>
</clipPath>
</defs>
</svg>
