<svg width="800" height="108" viewBox="0 0 800 108" fill="none" xmlns="http://www.w3.org/2000/svg">
<g clip-path="url(#clip0_202_2)">
<path d="M129.474 -0.00683594V6.04004H132.204V7.69873H129.474V14.0605H127.479V-0.00683594H129.474ZM125.926 2.17676V3.79346H114.714V2.17676H119.333V-0.027832H121.328V2.17676H125.926ZM120.32 4.69629C123.028 4.69629 124.876 6.10303 124.876 8.24463C124.876 10.3862 123.028 11.772 120.32 11.772C117.59 11.772 115.743 10.3862 115.743 8.24463C115.743 6.10303 117.59 4.69629 120.32 4.69629ZM120.32 6.229C118.724 6.229 117.653 7.00586 117.674 8.24463C117.653 9.4624 118.724 10.2183 120.32 10.2183C121.916 10.2183 122.986 9.4624 123.007 8.24463C122.986 7.00586 121.916 6.229 120.32 6.229ZM130.272 16.769V18.3857H117.548V12.9478H119.543V16.769H130.272ZM146.588 0.854004V2.26074C146.588 3.64648 146.588 5.30518 146.168 7.48877H148.771V9.10547H141.129V12.3179H146.672V18.7847H144.677V13.9136H133.318V12.3179H139.134V9.10547H131.554V7.48877H144.152C144.593 5.38916 144.614 3.81445 144.614 2.4707H133.717V0.854004H146.588ZM153.518 1.37891C156.069 1.37891 157.938 3.5415 158.242 7.02686H162.126V-0.027832H164.1V18.8267H162.126V8.64355H158.263C158.043 12.3074 156.132 14.5854 153.518 14.5854C150.705 14.5854 148.731 12.0239 148.752 7.97168C148.731 3.94043 150.705 1.37891 153.518 1.37891ZM153.518 3.16357C151.817 3.16357 150.642 5.01123 150.642 7.97168C150.642 10.9531 151.817 12.8008 153.518 12.8008C155.219 12.8008 156.394 10.9531 156.394 7.97168C156.394 5.01123 155.219 3.16357 153.518 3.16357ZM182.494 14.8584V16.5381H165.278V14.8584H172.857V11.562H167.377V5.57812H178.421V2.93262H167.335V1.29492H180.395V7.17383H169.351V9.92432H180.836V11.562H174.831V14.8584H182.494ZM190.602 11.646V13.5566H199.232V11.646H201.205V18.5537H188.608V11.646H190.602ZM190.602 16.937H199.232V15.0894H190.602V16.937ZM201.205 -0.00683594V10.7852H199.211V-0.00683594H201.205ZM185.689 8.09766C189.237 8.11865 193.92 8.11865 198.014 7.57275L198.14 9.00049C196.523 9.27344 194.854 9.4519 193.206 9.54639V12.1709H191.232V9.65137C189.332 9.73535 187.526 9.73535 185.941 9.73535L185.689 8.09766ZM193.059 1.31592C193.059 3.14258 194.801 4.69629 197.594 5.28418L196.712 6.7749C194.528 6.30249 192.891 5.2002 192.072 3.70947C191.253 5.31567 189.615 6.54395 187.369 7.08984L186.466 5.53613C189.3 4.90625 191.022 3.24756 191.022 1.31592V0.434082H193.059V1.31592ZM217.752 1.77783V3.62549C217.752 5.95605 217.752 8.55957 217.038 12.4019L215.022 12.1919C215.757 8.55957 215.757 5.89307 215.757 3.62549V3.39453H204.335V1.77783H217.752ZM219.683 14.5854V16.2441H202.53V14.5854H209.059V7.95068H211.033V14.5854H219.683ZM237.701 -0.027832V5.53613H240.431V7.19482H237.701V13.6406H235.686V-0.027832H237.701ZM232.599 1.3999C232.599 6.33398 229.24 9.92432 223.739 11.583L222.899 9.9873C227.298 8.66455 230.038 6.16602 230.437 3.05859H223.697V1.3999H232.599ZM238.478 16.769V18.3857H225.755V12.2339H227.77V16.769H238.478ZM255.466 -0.027832V13.9346H253.471V8.74854H250.532V7.06885H253.471V5.09521H250.532V3.45752H253.471V-0.027832H255.466ZM250.322 1.44189V3.05859H248.516V9.35742C249.314 9.29443 250.08 9.23145 250.826 9.14746L250.91 10.6172C247.298 11.1841 243.078 11.2471 240.055 11.2681L239.803 9.58838L242.091 9.56738V3.05859H240.328V1.44189H250.322ZM255.949 16.769V18.3857H243.204V12.8008H245.22V16.769H255.949ZM244.023 9.54639C244.873 9.52539 245.734 9.50439 246.605 9.4624V3.05859H244.023V9.54639ZM271.299 -0.027832V7.59375H274.322V9.25244H271.299V18.7847H269.325V-0.027832H271.299ZM267.687 2.91162V4.54932H256.538V2.91162H261.178V0.224121H263.173V2.91162H267.687ZM262.186 5.93506C264.874 5.93506 266.847 7.74072 266.868 10.3022C266.847 12.8848 264.874 14.6694 262.186 14.6904C259.478 14.6694 257.504 12.8848 257.504 10.3022C257.504 7.74072 259.478 5.93506 262.186 5.93506ZM262.186 7.57275C260.591 7.57275 259.394 8.68555 259.415 10.3022C259.394 11.9399 260.591 13.0317 262.186 13.0107C263.782 13.0317 264.958 11.9399 264.958 10.3022C264.958 8.68555 263.782 7.57275 262.186 7.57275ZM289.672 -0.027832V18.7847H287.782V-0.027832H289.672ZM285.704 0.455078V17.8608H283.814V9.12646H280.14C279.016 11.3101 277.232 13.2207 274.576 14.7744L273.442 13.3467C277.431 10.9741 279.352 7.81421 279.699 3.94043H274.324V2.30273H281.672C281.662 4.13989 281.41 5.89307 280.832 7.53076H283.814V0.455078H285.704ZM310.083 -0.027832V18.7847H308.173V-0.027832H310.083ZM306.304 0.329102V17.8608H304.414V11.793H301.685C301.013 13.6616 299.764 14.7429 298.158 14.7324C295.701 14.7534 294.105 12.1709 294.105 8.09766C294.105 4.02441 295.701 1.46289 298.158 1.48389C299.764 1.47339 301.003 2.54419 301.685 4.40234H304.414V0.329102H306.304ZM298.158 3.35254C296.772 3.35254 295.932 5.09521 295.932 8.09766C295.932 11.1001 296.772 12.8428 298.158 12.8428C299.543 12.8428 300.425 11.1001 300.425 8.09766C300.425 5.09521 299.543 3.35254 298.158 3.35254ZM302.105 6.01904C302.199 6.65942 302.252 7.35229 302.252 8.09766C302.252 8.83252 302.199 9.52539 302.105 10.1553H304.414V6.01904H302.105ZM326.945 -0.027832V18.7847H325.034V8.97949H322.704V17.8608H320.814V0.329102H322.704V7.3418H325.034V-0.027832H326.945ZM318.693 2.09277V13.8296H311.387V2.09277H318.693ZM313.276 3.66748V12.2339H316.825V3.66748H313.276ZM331.083 1.79883L330.894 12.6118H328.815L328.626 1.79883H331.083ZM329.865 17.147C329.046 17.147 328.353 16.4751 328.374 15.6562C328.353 14.8374 329.046 14.1655 329.865 14.1655C330.663 14.1655 331.356 14.8374 331.356 15.6562C331.356 16.4751 330.663 17.147 329.865 17.147Z" fill="white"/>
<path d="M149.945 58.1289V61.9922H115.26V58.1289H149.945ZM123.742 31.3379V37.8467H141.337V31.3379H145.998V51.3682H119.081V31.3379H123.742ZM123.742 47.7148H141.337V41.5H123.742V47.7148ZM183.668 58.4648V62.3281H148.983V58.4648H163.932V52.292H153.098V39.8623H174.934V35.1592H153.014V31.3799H179.553V43.5576H157.759V48.4707H180.435V52.292H168.551V58.4648H183.668ZM213.528 46.5811V50.3184H186.905V32.0938H213.234V35.873H191.524V46.5811H213.528ZM217.391 58.0449V61.9082H182.706V58.0449H217.391ZM226.003 31.002C230.832 31.0439 234.36 33.9414 234.36 38.1826C234.36 42.3818 230.832 45.2793 226.003 45.2373C221.09 45.2793 217.563 42.3818 217.563 38.1826C217.563 33.9414 221.09 31.0439 226.003 31.002ZM226.003 34.5293C223.442 34.4873 221.72 35.957 221.72 38.1826C221.72 40.3662 223.442 41.7939 226.003 41.7939C228.481 41.7939 230.202 40.3662 230.244 38.1826C230.202 35.957 228.481 34.4873 226.003 34.5293ZM249.435 28.7764V66.7373H245.026V28.7764H249.435ZM241.876 29.4902V64.8477H237.509V56.9111H231.084V53.3418H237.509V29.4902H241.876ZM215.883 47.5889C221.048 47.5889 229.321 47.5469 235.409 46.623L235.745 50.1084C233.331 50.5703 230.685 50.8853 228.061 51.0742V63.6719H223.652V51.3262C220.985 51.4312 218.466 51.4521 216.429 51.4521L215.883 47.5889ZM281.73 28.7764V66.7793H277.027V28.7764H281.73ZM261.28 31.5479C266.991 31.5479 271.148 36.7549 271.19 44.9434C271.148 53.2158 266.991 58.3809 261.28 58.3809C255.527 58.3809 251.37 53.2158 251.37 44.9434C251.37 36.7549 255.527 31.5479 261.28 31.5479ZM261.28 35.7471C258.047 35.7471 255.863 39.1484 255.863 44.9434C255.863 50.7803 258.047 54.1816 261.28 54.1816C264.471 54.1816 266.655 50.7803 266.655 44.9434C266.655 39.1484 264.471 35.7471 261.28 35.7471ZM325.283 50.1924V53.9717H317.136V66.8633H312.475V53.9717H303.615V66.8633H298.912V53.9717H290.597V50.1924H325.283ZM321.042 30.708V45.7832H294.839V30.708H321.042ZM299.416 34.4033V42.0459H316.381V34.4033H299.416ZM338.682 39.5684C338.682 45.7832 342.335 52.334 348.466 54.8955L345.904 58.5908C341.411 56.6592 338.136 52.6699 336.414 47.8408C334.65 53.0479 331.333 57.415 326.882 59.5146L324.194 55.8613C330.199 53.0898 333.937 46.0352 333.937 39.5684V36.377H325.58V32.5137H346.996V36.377H338.682V39.5684ZM355.941 28.7764V66.7373H351.237V28.7764H355.941ZM377.906 30.498C377.864 40.4922 372.657 46.623 360.605 49.5625L358.925 45.9932C364.615 44.6704 368.248 42.6968 370.431 40.1982L359.681 40.9961L358.967 37.4268L372.321 36.9229C372.636 36.041 372.825 35.1172 372.951 34.1514H360.899V30.498H377.906ZM389.874 28.7764V48.1348H385.212V41.0801H377.99V37.2588H385.212V28.7764H389.874ZM389.874 49.6465V59.5146H369.507V62.5801H390.881V66.2754H364.93V56.1133H385.254V53.2998H364.888V49.6465H389.874ZM402.535 35.0938C407.842 35.0566 411.738 38.4336 411.775 43.1836C411.738 47.9707 407.842 51.3105 402.535 51.3105C397.266 51.3105 393.332 47.9707 393.332 43.1836C393.332 38.4336 397.266 35.0566 402.535 35.0938ZM402.535 38.6562C399.603 38.6562 397.414 40.4004 397.414 43.1836C397.414 46.0039 399.603 47.7109 402.535 47.7109C405.504 47.7109 407.73 46.0039 407.73 43.1836C407.73 40.4004 405.504 38.6562 402.535 38.6562ZM419.605 32.7559V66.3398H415.486V32.7559H419.605ZM391.811 55.9492C397.859 55.9492 406.246 55.875 413.482 54.8359L413.816 57.8418C406.283 59.2891 398.23 59.3262 392.33 59.3262L391.811 55.9492ZM453.9 32.7559V40.4004H458.576V43.7773H453.9V51.6074H449.781V32.7559H453.9ZM444.586 34.7969C444.549 43.5176 438.834 49.5664 428.814 52.2383L427.182 48.9355C434.956 46.9316 439.372 42.9795 440.096 38.1367H428.777V34.7969H444.586ZM453.9 52.9434V65.8574H432.191V52.9434H453.9ZM436.311 56.3203V62.5918H449.818V56.3203H436.311ZM487.858 48.8242V52.127H457.243V48.8242H470.528V45.6328H460.991V34.2773H484.148V37.5059H465.11V42.3672H484.333V45.6328H474.573V48.8242H487.858ZM472.495 54.0566C479.732 54.0566 484.073 56.2461 484.11 60.1797C484.073 64.0762 479.732 66.3027 472.495 66.3027C465.185 66.3027 460.806 64.0762 460.806 60.1797C460.806 56.2461 465.185 54.0566 472.495 54.0566ZM472.495 57.2109C467.597 57.2109 464.962 58.25 464.999 60.1797C464.962 62.1094 467.597 63.1113 472.495 63.1113C477.282 63.1113 479.954 62.1094 479.991 60.1797C479.954 58.25 477.282 57.2109 472.495 57.2109ZM514.283 48.0078V51.2734H504.338V58.9551H517.697V62.332H487.045V58.9551H500.256V51.2734H490.756V35.2422H514.024V38.5449H494.875V48.0078H514.283ZM528.168 63L522.453 42.8496H527.278L530.84 57.0254H531.026L534.625 42.8496H539.412L543.049 56.9512H543.235L546.76 42.8496H551.584L545.869 63H540.934L537.149 49.3438H536.889L533.104 63H528.168ZM551.55 63V42.8496H556.3V63H551.55ZM553.962 39.9922C552.478 39.9922 551.216 38.8418 551.216 37.3945C551.216 35.9844 552.478 34.834 553.962 34.834C555.484 34.834 556.708 35.9844 556.708 37.3945C556.708 38.8418 555.484 39.9922 553.962 39.9922ZM567.844 42.8496V46.4863H563.873V56.9512C563.873 58.8809 564.838 59.2891 566.026 59.2891C566.582 59.2891 567.51 59.252 568.104 59.2148V63.0742C567.547 63.1855 566.619 63.2598 565.432 63.2598C561.869 63.2598 559.123 61.5156 559.16 57.7305V46.4863H556.266V42.8496H559.16V38.0254H563.873V42.8496H567.844ZM573.636 51.1992V63H568.886V36.1328H573.525V46.2637H573.784C574.712 44 576.642 42.5898 579.759 42.5898C583.952 42.5898 586.699 45.2988 586.699 50.1602V63H581.986V50.9023C581.986 48.1562 580.501 46.5977 578.015 46.5977C575.454 46.5977 573.636 48.2676 573.636 51.1992ZM591.08 63.2969C589.485 63.2969 588.186 61.998 588.186 60.4023C588.186 58.8438 589.485 57.5449 591.08 57.5449C592.602 57.5449 593.938 58.8438 593.938 60.4023C593.938 61.998 592.602 63.2969 591.08 63.2969ZM611.531 35.6504V39.0273H599.878V45.002H610.937V48.2676H599.878V55.1699C605.037 55.1328 609.063 54.9473 613.757 54.168L614.128 57.5078C608.97 58.3242 604.48 58.5098 598.468 58.5098H595.685V35.6504H611.531ZM620.585 32.7559V45.7441H625.744V49.1953H620.585V66.3027H616.466V32.7559H620.585ZM641.852 35.9102V58.1387H625.895V35.9102H641.852ZM629.977 39.1387V54.8359H637.844V39.1387H629.977ZM652.02 32.7559V66.3398H647.864V32.7559H652.02ZM671.246 37.3574C671.246 42.5527 676.33 47.748 683.343 48.9727L681.488 52.4238C675.866 51.2363 671.264 47.8408 669.093 43.332C666.867 47.8037 662.265 51.2178 656.662 52.4238L654.843 48.9727C661.783 47.7109 666.83 42.5156 666.867 37.3574V34.8711H671.246V37.3574ZM684.568 58.6211V62.0352H653.916V58.6211H684.568Z" fill="white"/>
<path d="M140.723 92.5391C140.723 94.4551 142.182 96.1953 144.555 96.8984L143.764 98.2168C141.944 97.6719 140.6 96.5205 139.914 95.0176C139.202 96.6523 137.805 97.8916 135.941 98.4805L135.098 97.1797C137.523 96.4238 139.035 94.5957 139.035 92.5391V92.5215H135.607V91.1328H144.15V92.5215H140.723V92.5391ZM140.723 97.8301V100.818C142.085 100.757 143.465 100.651 144.748 100.467L144.871 101.68C141.496 102.295 137.84 102.295 135.133 102.295L134.887 100.906C136.126 100.906 137.559 100.906 139.053 100.871V97.8301H140.723ZM149.793 96.1777V97.584H147.367V105.494H145.697V89.7441H147.367V96.1777H149.793ZM154.751 92.2578C154.734 94.3496 156.175 96.3184 158.548 97.1094L157.634 98.4453C155.894 97.8213 154.611 96.5469 153.943 94.9473C153.248 96.7051 151.913 98.085 150.076 98.7793L149.179 97.4258C151.64 96.5645 153.064 94.4902 153.081 92.1699V90.5527H154.751V92.2578ZM162.328 99.9043V105.494H160.658V101.223H151.658V99.9043H162.328ZM162.328 89.7441V99.0781H160.658V94.2969H157.335V92.9258H160.658V89.7441H162.328ZM177.675 97.9707V99.3066H163.313V97.9707H177.675ZM176.057 103.807V105.16H165.124V100.59H166.811V103.807H176.057ZM170.485 90.2715C173.895 90.2539 176.11 91.4492 176.11 93.418C176.11 95.4043 173.895 96.5996 170.485 96.6172C167.057 96.5996 164.86 95.4043 164.86 93.418C164.86 91.4492 167.057 90.2539 170.485 90.2715ZM170.485 91.6074C168.077 91.6074 166.565 92.293 166.583 93.418C166.565 94.5781 168.077 95.2461 170.485 95.2461C172.893 95.2461 174.388 94.5781 174.388 93.418C174.388 92.293 172.893 91.6074 170.485 91.6074ZM193.937 89.7441V105.494H192.338V89.7441H193.937ZM190.773 90.043V104.721H189.191V99.6406H186.906C186.344 101.205 185.298 102.11 183.953 102.102C181.896 102.119 180.56 99.957 180.56 96.5469C180.56 93.1367 181.896 90.9922 183.953 91.0098C185.298 91.001 186.335 91.8975 186.906 93.4531H189.191V90.043H190.773ZM183.953 92.5742C182.793 92.5742 182.09 94.0332 182.09 96.5469C182.09 99.0605 182.793 100.52 183.953 100.52C185.113 100.52 185.851 99.0605 185.851 96.5469C185.851 94.0332 185.113 92.5742 183.953 92.5742ZM187.258 94.8066C187.337 95.3428 187.381 95.9229 187.381 96.5469C187.381 97.1621 187.337 97.7422 187.258 98.2695H189.191V94.8066H187.258ZM199.968 92.627C199.968 94.7363 201.445 96.7227 203.835 97.5312L202.974 98.8496C201.207 98.2256 199.898 96.9688 199.195 95.3867C198.509 97.1533 197.155 98.5332 195.31 99.2188L194.378 97.9004C196.874 97.0391 198.316 94.9297 198.316 92.5742V90.7109H199.968V92.627ZM206.876 89.7266V94.4727H209.161V95.8965H206.876V101.346H205.206V89.7266H206.876ZM207.562 103.807V105.16H196.909V100.221H198.614V103.807H207.562ZM219.553 90.7988V97.584H212.188V90.7988H219.553ZM213.822 92.1348V96.248H217.918V92.1348H213.822ZM223.947 89.7441V93.4004H226.232V94.7891H223.947V98.6738H222.277V89.7441H223.947ZM224.193 99.5527V100.889H219.887C220.115 102.383 222.163 103.763 224.844 104.158L224.229 105.441C221.838 105.072 219.869 103.974 218.955 102.471C218.059 103.982 216.099 105.072 213.717 105.424L213.102 104.141C215.8 103.763 217.804 102.427 218.076 100.889H213.734V99.5527H224.193ZM240.05 97.4609V98.7969H233.687V100.344H238.292V105.301H227.412V100.344H232.035V98.7969H225.689V97.4609H240.05ZM233.687 89.6914V91.1855H238.609V92.5039H233.792C233.959 94.0156 236.13 95.1318 239.277 95.3867L238.785 96.6348C236.042 96.3887 233.836 95.5186 232.861 94.0684C231.876 95.5186 229.67 96.3887 226.955 96.6348L226.445 95.3867C229.6 95.1318 231.753 94.0156 231.947 92.5039H227.13V91.1855H232.035V89.6914H233.687ZM229.064 101.68V103.947H236.675V101.68H229.064ZM242.636 102.787L241.229 107.639H239.735L240.667 102.787H242.636ZM254.697 90.9395V91.8184C254.68 92.873 254.68 94.4375 254.293 96.4766L252.64 96.3184C252.983 94.5693 253.036 93.3037 253.062 92.3105H246.752V90.9395H254.697ZM250.672 94.4727V97.7246C252.359 97.6719 254.099 97.5488 255.681 97.3203L255.787 98.5332C252.5 99.1133 248.738 99.166 245.961 99.1836L245.803 97.8301C246.769 97.8213 247.868 97.8125 249.019 97.7773V94.4727H250.672ZM258.389 89.7441V94.7539H260.551V96.1602H258.389V101.574H256.683V89.7441H258.389ZM258.898 103.807V105.16H248.193V100.502H249.863V103.807H258.898ZM272.417 89.7617V93.6816H274.72V95.0879H272.417V99.1309H270.747V89.7617H272.417ZM272.417 99.8691V105.301H262.327V99.8691H272.417ZM263.962 101.17V103.947H270.8V101.17H263.962ZM267.847 90.5879V95.0352H262.363V97.0039C265.096 96.9951 267.03 96.916 269.324 96.5293L269.499 97.8652C267.056 98.3047 264.982 98.3926 261.958 98.3926H260.693V93.7695H266.212V91.9238H260.675V90.5879H267.847ZM288.52 97.9707V99.3066H274.159V97.9707H288.52ZM286.903 103.807V105.16H275.969V100.59H277.657V103.807H286.903ZM281.331 90.2715C284.741 90.2539 286.956 91.4492 286.956 93.418C286.956 95.4043 284.741 96.5996 281.331 96.6172C277.903 96.5996 275.706 95.4043 275.706 93.418C275.706 91.4492 277.903 90.2539 281.331 90.2715ZM281.331 91.6074C278.923 91.6074 277.411 92.293 277.428 93.418C277.411 94.5781 278.923 95.2461 281.331 95.2461C283.739 95.2461 285.233 94.5781 285.233 93.418C285.233 92.293 283.739 91.6074 281.331 91.6074ZM303.5 89.7441V96.0195H305.943V97.4082H303.5V105.477H301.83V89.7441H303.5ZM299.386 91.3965C299.369 95.9492 297.365 100.01 292.179 102.576L291.248 101.275C295.194 99.3066 297.338 96.459 297.681 92.7852H292.039V91.3965H299.386ZM310.937 92.0996C310.937 94.3145 312.36 96.2832 314.751 97.0566L313.837 98.3574C312.105 97.7334 310.831 96.5205 310.146 94.9473C309.46 96.749 308.089 98.1465 306.19 98.832L305.294 97.4961C307.808 96.6348 309.267 94.543 309.284 92.1699V90.623H310.937V92.0996ZM318.478 89.7441V99.043H316.808V94.3145H313.485V92.9434H316.808V89.7441H318.478ZM313.204 99.4824C316.509 99.4824 318.53 100.572 318.53 102.488C318.53 104.387 316.509 105.477 313.204 105.459C309.899 105.477 307.86 104.387 307.878 102.488C307.86 100.572 309.899 99.4824 313.204 99.4824ZM313.204 100.783C310.901 100.783 309.53 101.398 309.53 102.488C309.53 103.543 310.901 104.141 313.204 104.141C315.507 104.141 316.878 103.543 316.878 102.488C316.878 101.398 315.507 100.783 313.204 100.783ZM332.506 89.7441V105.529H330.836V89.7441H332.506ZM322.012 91.0625V95.1055H326.249V91.0625H327.901V101.75H320.342V91.0625H322.012ZM322.012 100.379H326.249V96.4238H322.012V100.379ZM342.001 100.15C342.001 101.504 342.669 102.937 344.093 103.789C345.543 102.866 346.255 101.354 346.255 100.15V99.3945H347.89V100.15C347.89 101.785 348.962 103.367 351.019 104.035L350.193 105.266C348.637 104.729 347.582 103.684 347.029 102.383C346.528 103.657 345.587 104.809 344.146 105.406C342.634 104.835 341.676 103.719 341.193 102.436C340.621 103.675 339.584 104.721 338.099 105.266L337.255 104.035C339.277 103.314 340.367 101.68 340.384 100.15V99.3945H342.001V100.15ZM349.595 89.7617V98.7266H347.925V89.7617H349.595ZM341.052 90.623C343.46 90.623 345.236 92.1523 345.236 94.3496C345.236 96.5293 343.46 98.041 341.052 98.041C338.644 98.041 336.851 96.5293 336.851 94.3496C336.851 92.1523 338.644 90.623 341.052 90.623ZM341.052 92.0469C339.558 92.0293 338.486 92.9609 338.486 94.3496C338.486 95.7207 339.558 96.6523 341.052 96.6523C342.529 96.6523 343.601 95.7207 343.601 94.3496C343.601 92.9609 342.529 92.0293 341.052 92.0469ZM364.186 89.7441V105.494H362.604V89.7441H364.186ZM360.864 90.1484V104.721H359.282V97.4082H356.206C355.265 99.2363 353.771 100.836 351.548 102.137L350.598 100.941C353.938 98.9551 355.547 96.3096 355.837 93.0664H351.337V91.6953H357.489C357.48 93.2334 357.269 94.7012 356.786 96.0723H359.282V90.1484H360.864Z" fill="white"/>
<path d="M122 91.5H114V105.5H128V98" stroke="white" stroke-width="1.8"/>
<path d="M116.5 96L121 100.5L131 89" stroke="white" stroke-width="1.8"/>
</g>
<defs>
<clipPath id="clip0_202_2">
<rect width="800" height="108" fill="white"/>
</clipPath>
</defs>
</svg>
