<svg width="345" height="47" viewBox="0 0 345 47" fill="none" xmlns="http://www.w3.org/2000/svg">
<path d="M92.0791 2.43555V4.37695H92.9404V5.00586H92.0791V7.0498H91.3203V2.43555H92.0791ZM90.876 3.11914V3.72754H87.2119V3.11914H88.668V2.42871H89.4268V3.11914H90.876ZM89.0439 3.98047C89.9326 3.98047 90.5479 4.45215 90.5547 5.16309C90.5479 5.86719 89.9326 6.33203 89.0439 6.33203C88.1484 6.33203 87.5264 5.86719 87.5264 5.16309C87.5264 4.45215 88.1484 3.98047 89.0439 3.98047ZM89.0439 4.56836C88.5723 4.56836 88.2646 4.78711 88.2646 5.16309C88.2646 5.53223 88.5723 5.75098 89.0439 5.74414C89.5156 5.75098 89.8301 5.53223 89.8301 5.16309C89.8301 4.78711 89.5156 4.56836 89.0439 4.56836ZM92.3252 7.87012V8.48535H88.1211V6.6875H88.8799V7.87012H92.3252ZM97.6509 2.70898V3.18066C97.6509 3.64209 97.6509 4.17188 97.5211 4.8623H98.3414V5.47754H95.8873V6.44141H97.6646V8.6084H96.9058V7.0498H93.2691V6.44141H95.1285V5.47754H92.6949V4.8623H96.7554C96.8785 4.22998 96.8921 3.74805 96.8921 3.31738H93.3921V2.70898H97.6509ZM99.8732 2.87988C100.711 2.87988 101.329 3.57715 101.439 4.70508H102.614V2.42871H103.366V8.61523H102.614V5.32031H101.445C101.363 6.51318 100.734 7.24805 99.8732 7.24805C98.9435 7.24805 98.2872 6.40723 98.2872 5.06055C98.2872 3.72754 98.9435 2.87988 99.8732 2.87988ZM99.8732 3.56348C99.3605 3.56348 99.0118 4.11719 99.0187 5.06055C99.0118 6.01074 99.3605 6.56445 99.8732 6.56445C100.386 6.56445 100.728 6.01074 100.734 5.06055C100.728 4.11719 100.386 3.56348 99.8732 3.56348ZM109.321 7.26172V7.89062H103.674V7.26172H106.108V6.25684H104.344V4.2334H107.899V3.46777H104.331V2.85254H108.651V4.83496H105.103V5.63477H108.795V6.25684H106.86V7.26172H109.321ZM111.968 6.25684V6.82422H114.654V6.25684H115.406V8.5332H111.216V6.25684H111.968ZM111.968 7.9248H114.654V7.40527H111.968V7.9248ZM115.406 2.43555V5.99023H114.647V2.43555H115.406ZM110.272 5.06738C111.434 5.06738 112.952 5.06738 114.278 4.89648L114.326 5.43652C113.824 5.52197 113.304 5.57666 112.795 5.61426V6.40723H112.036V5.64844C111.438 5.67578 110.87 5.67578 110.368 5.67578L110.272 5.06738ZM112.747 2.85254C112.747 3.41309 113.26 3.91895 114.196 4.10352L113.868 4.67773C113.157 4.52734 112.644 4.18213 112.371 3.71387C112.101 4.22314 111.581 4.60596 110.846 4.77344L110.512 4.19238C111.462 3.9873 111.968 3.4541 111.968 2.85254V2.58594H112.747V2.85254ZM120.8 2.99609V3.59082C120.793 4.35645 120.793 5.21777 120.554 6.50977L119.788 6.42773C120.028 5.22461 120.028 4.34619 120.035 3.60449H116.343V2.99609H120.8ZM121.388 7.18652V7.80859H115.755V7.18652H117.833V5.04004H118.585V7.18652H121.388ZM127.22 2.42871V4.20605H128.082V4.8418H127.22V6.88574H126.448V2.42871H127.22ZM125.539 2.90039C125.539 4.54102 124.472 5.70996 122.64 6.24316L122.326 5.6416C123.737 5.23486 124.578 4.46582 124.711 3.52246H122.585V2.90039H125.539ZM127.453 7.87012V8.48535H123.249V6.42773H124.021V7.87012H127.453ZM133.011 2.42871V6.99512H132.252V5.38184H131.377V4.75293H132.252V4.16504H131.377V3.5498H132.252V2.42871H133.011ZM131.288 2.89355V3.50195H130.741V5.4707C130.974 5.45703 131.199 5.43994 131.418 5.41602L131.452 5.96973C130.283 6.16113 128.909 6.18164 127.925 6.18164L127.843 5.55273L128.54 5.5459V3.50195H128V2.89355H131.288ZM133.168 7.87012V8.48535H128.95V6.63965H129.716V7.87012H133.168ZM129.278 5.53906L130.01 5.51172V3.50195H129.278V5.53906ZM138.166 2.42871V4.88965H139.116V5.51855H138.166V8.6084H137.414V2.42871H138.166ZM136.935 3.37891V3.9873H133.292V3.37891H134.754V2.51758H135.513V3.37891H136.935ZM135.137 4.39062C136.026 4.39062 136.689 4.99219 136.689 5.84668C136.689 6.70117 136.026 7.2959 135.137 7.2959C134.235 7.2959 133.572 6.70117 133.579 5.84668C133.572 4.99219 134.235 4.39062 135.137 4.39062ZM135.137 5.0127C134.652 5.0127 134.303 5.34082 134.303 5.84668C134.303 6.35254 134.652 6.67383 135.137 6.66699C135.609 6.67383 135.958 6.35254 135.964 5.84668C135.958 5.34082 135.609 5.0127 135.137 5.0127ZM144.148 2.42871V8.6084H143.423V2.42871H144.148ZM142.835 2.5791V8.31445H142.117V5.4707H141.017C140.654 6.18164 140.073 6.79688 139.198 7.30273L138.768 6.7627C140.049 6.00732 140.634 5.04004 140.75 3.7959H139.082V3.18066H141.502C141.502 3.77881 141.43 4.33936 141.263 4.8623H142.117V2.5791H142.835ZM150.739 2.42871V8.6084H150.007V2.42871H150.739ZM149.488 2.53809V8.30762H148.77V6.35938H147.963C147.734 6.96777 147.324 7.31299 146.801 7.30957C145.994 7.31641 145.468 6.46191 145.468 5.10156C145.468 3.74121 145.994 2.90039 146.801 2.90039C147.324 2.90039 147.731 3.24219 147.963 3.84375H148.77V2.53809H149.488ZM146.801 3.61816C146.398 3.61133 146.158 4.1377 146.165 5.10156C146.158 6.06543 146.398 6.5918 146.801 6.58496C147.211 6.5918 147.464 6.06543 147.464 5.10156C147.464 4.1377 147.211 3.61133 146.801 3.61816ZM148.114 4.45898C148.144 4.65723 148.161 4.87256 148.161 5.10156C148.161 5.32715 148.144 5.53906 148.12 5.7373H148.77V4.45898H148.114ZM156.228 2.42871V8.6084H155.497V5.44336H154.841V8.30762H154.123V2.53809H154.841V4.81445H155.497V2.42871H156.228ZM153.514 3.09863V7.01562H151.088V3.09863H153.514ZM151.799 3.7002V6.41406H152.804V3.7002H151.799ZM157.658 3.05078L157.582 6.54395H156.81L156.728 3.05078H157.658ZM157.2 8.05469C156.906 8.05469 156.666 7.81543 156.666 7.52148C156.666 7.23438 156.906 6.99512 157.2 6.99512C157.48 6.99512 157.726 7.23438 157.726 7.52148C157.726 7.81543 157.48 8.05469 157.2 8.05469Z" fill="white"/>
<path d="M97.8672 26.5273V27.6953H87.3809V26.5273H97.8672ZM89.9453 18.4277V20.3955H95.2646V18.4277H96.6738V24.4834H88.5361V18.4277H89.9453ZM89.9453 23.3789H95.2646V21.5H89.9453V23.3789ZM108.063 26.6289V27.7969H97.5762V26.6289H102.096V24.7627H98.8204V21.0049H105.422V19.583H98.795V18.4404H106.818V22.1221H100.23V23.6074H107.085V24.7627H103.492V26.6289H108.063ZM117.09 23.0361V24.166H109.041V18.6562H117.001V19.7988H110.438V23.0361H117.09ZM118.258 26.502V27.6699H107.772V26.502H118.258ZM120.861 18.3262C122.321 18.3389 123.388 19.2148 123.388 20.4971C123.388 21.7666 122.321 22.6426 120.861 22.6299C119.376 22.6426 118.31 21.7666 118.31 20.4971C118.31 19.2148 119.376 18.3389 120.861 18.3262ZM120.861 19.3926C120.087 19.3799 119.567 19.8242 119.567 20.4971C119.567 21.1572 120.087 21.5889 120.861 21.5889C121.61 21.5889 122.131 21.1572 122.144 20.4971C122.131 19.8242 121.61 19.3799 120.861 19.3926ZM127.945 17.6533V29.1299H126.612V17.6533H127.945ZM125.66 17.8691V28.5586H124.34V26.1592H122.398V25.0801H124.34V17.8691H125.66ZM117.802 23.3408C119.363 23.3408 121.864 23.3281 123.705 23.0488L123.807 24.1025C123.077 24.2422 122.277 24.3374 121.484 24.3945V28.2031H120.151V24.4707C119.344 24.5024 118.583 24.5088 117.967 24.5088L117.802 23.3408ZM137.709 17.6533V29.1426H136.287V17.6533H137.709ZM131.527 18.4912C133.253 18.4912 134.51 20.0654 134.523 22.541C134.51 25.042 133.253 26.6035 131.527 26.6035C129.787 26.6035 128.53 25.042 128.53 22.541C128.53 20.0654 129.787 18.4912 131.527 18.4912ZM131.527 19.7607C130.549 19.7607 129.889 20.7891 129.889 22.541C129.889 24.3057 130.549 25.334 131.527 25.334C132.491 25.334 133.152 24.3057 133.152 22.541C133.152 20.7891 132.491 19.7607 131.527 19.7607ZM150.876 24.1279V25.2705H148.413V29.168H147.004V25.2705H144.325V29.168H142.904V25.2705H140.39V24.1279H150.876ZM149.594 18.2373V22.7949H141.672V18.2373H149.594ZM143.056 19.3545V21.665H148.185V19.3545H143.056ZM154.927 20.916C154.927 22.7949 156.032 24.7754 157.885 25.5498L157.111 26.667C155.752 26.083 154.762 24.877 154.241 23.417C153.708 24.9912 152.705 26.3115 151.36 26.9463L150.547 25.8418C152.363 25.0039 153.492 22.8711 153.492 20.916V19.9512H150.966V18.7832H157.441V19.9512H154.927V20.916ZM160.145 17.6533V29.1299H158.723V17.6533H160.145ZM166.785 18.1738C166.773 21.1953 165.199 23.0488 161.555 23.9375L161.047 22.8584C162.767 22.4585 163.866 21.8618 164.526 21.1064L161.276 21.3477L161.06 20.2686L165.097 20.1162C165.192 19.8496 165.249 19.5703 165.287 19.2783H161.644V18.1738H166.785ZM170.404 17.6533V23.5059H168.994V21.373H166.811V20.2178H168.994V17.6533H170.404ZM170.404 23.9629V26.9463H164.246V27.873H170.708V28.9902H162.863V25.918H169.007V25.0674H162.85V23.9629H170.404ZM174.077 19.9219C175.614 19.9111 176.742 20.8887 176.752 22.2637C176.742 23.6494 175.614 24.6162 174.077 24.6162C172.552 24.6162 171.413 23.6494 171.413 22.2637C171.413 20.8887 172.552 19.9111 174.077 19.9219ZM174.077 20.9531C173.229 20.9531 172.595 21.458 172.595 22.2637C172.595 23.0801 173.229 23.5742 174.077 23.5742C174.937 23.5742 175.581 23.0801 175.581 22.2637C175.581 21.458 174.937 20.9531 174.077 20.9531ZM179.019 19.2451V28.9668H177.827V19.2451H179.019ZM170.973 25.959C172.724 25.959 175.152 25.9375 177.246 25.6367L177.343 26.5068C175.162 26.9258 172.831 26.9365 171.123 26.9365L170.973 25.959ZM188.946 19.2451V21.458H190.3V22.4355H188.946V24.7021H187.754V19.2451H188.946ZM186.25 19.8359C186.239 22.3604 184.585 24.1113 181.685 24.8848L181.212 23.9287C183.463 23.3486 184.741 22.2046 184.95 20.8027H181.674V19.8359H186.25ZM188.946 25.0889V28.8271H182.662V25.0889H188.946ZM183.855 26.0664V27.8818H187.765V26.0664H183.855ZM198.776 23.8965V24.8525H189.914V23.8965H193.76V22.9727H190.999V19.6855H197.702V20.6201H192.191V22.0273H197.756V22.9727H194.931V23.8965H198.776ZM194.329 25.4111C196.424 25.4111 197.681 26.0449 197.691 27.1836C197.681 28.3115 196.424 28.9561 194.329 28.9561C192.213 28.9561 190.945 28.3115 190.945 27.1836C190.945 26.0449 192.213 25.4111 194.329 25.4111ZM194.329 26.3242C192.911 26.3242 192.148 26.625 192.159 27.1836C192.148 27.7422 192.911 28.0322 194.329 28.0322C195.715 28.0322 196.488 27.7422 196.499 27.1836C196.488 26.625 195.715 26.3242 194.329 26.3242ZM206.426 23.6602V24.6055H203.547V26.8291H207.414V27.8066H198.541V26.8291H202.365V24.6055H199.615V19.9648H206.35V20.9209H200.808V23.6602H206.426ZM210.445 28L208.791 22.167H210.187L211.218 26.2705H211.272L212.314 22.167H213.7L214.753 26.249H214.806L215.827 22.167H217.223L215.569 28H214.14L213.045 24.0469H212.969L211.874 28H210.445ZM217.213 28V22.167H218.588V28H217.213ZM217.912 21.3398C217.482 21.3398 217.117 21.0068 217.117 20.5879C217.117 20.1797 217.482 19.8467 217.912 19.8467C218.352 19.8467 218.707 20.1797 218.707 20.5879C218.707 21.0068 218.352 21.3398 217.912 21.3398ZM221.93 22.167V23.2197H220.781V26.249C220.781 26.8076 221.06 26.9258 221.404 26.9258C221.565 26.9258 221.833 26.915 222.005 26.9043V28.0215C221.844 28.0537 221.576 28.0752 221.232 28.0752C220.201 28.0752 219.406 27.5703 219.416 26.4746V23.2197H218.579V22.167H219.416V20.7705H220.781V22.167H221.93ZM223.607 24.584V28H222.232V20.2227H223.574V23.1553H223.65C223.918 22.5 224.477 22.0918 225.379 22.0918C226.593 22.0918 227.388 22.876 227.388 24.2832V28H226.024V24.498C226.024 23.7031 225.594 23.252 224.874 23.252C224.133 23.252 223.607 23.7354 223.607 24.584ZM228.656 28.0859C228.194 28.0859 227.819 27.71 227.819 27.248C227.819 26.7969 228.194 26.4209 228.656 26.4209C229.097 26.4209 229.484 26.7969 229.484 27.248C229.484 27.71 229.097 28.0859 228.656 28.0859ZM234.576 20.083V21.0605H231.203V22.79H234.404V23.7354H231.203V25.7334C232.696 25.7227 233.862 25.6689 235.221 25.4434L235.328 26.4102C233.835 26.6465 232.535 26.7002 230.795 26.7002H229.989V20.083H234.576ZM237.197 19.2451V23.0049H238.69V24.0039H237.197V28.9561H236.005V19.2451H237.197ZM243.353 20.1582V26.5928H238.734V20.1582H243.353ZM239.916 21.0928V25.6367H242.193V21.0928H239.916ZM246.297 19.2451V28.9668H245.094V19.2451H246.297ZM251.862 20.5771C251.862 22.0811 253.334 23.585 255.364 23.9395L254.827 24.9385C253.2 24.5947 251.867 23.6118 251.239 22.3066C250.595 23.6011 249.262 24.5894 247.64 24.9385L247.114 23.9395C249.123 23.5742 250.584 22.0703 250.595 20.5771V19.8574H251.862V20.5771ZM255.719 26.7324V27.7207H246.846V26.7324H255.719Z" fill="white"/>
<path d="M97.217 38.4614C97.217 39.1533 97.7439 39.7817 98.6008 40.0356L98.3152 40.5117C97.6582 40.3149 97.1726 39.8992 96.925 39.3564C96.668 39.9468 96.1633 40.3943 95.4905 40.6069L95.1858 40.1372C96.0618 39.8643 96.6077 39.2041 96.6077 38.4614V38.4551H95.3699V37.9536H98.4548V38.4551H97.217V38.4614ZM97.217 40.3721V41.4512C97.709 41.429 98.2073 41.3909 98.6707 41.3242L98.7151 41.7622C97.4963 41.9844 96.176 41.9844 95.1985 41.9844L95.1096 41.4829C95.5571 41.4829 96.0745 41.4829 96.614 41.4702V40.3721H97.217ZM100.492 39.7754V40.2832H99.6165V43.1396H99.0134V37.4521H99.6165V39.7754H100.492ZM102.283 38.3599C102.277 39.1152 102.797 39.8262 103.654 40.1118L103.324 40.5942C102.696 40.3689 102.232 39.9087 101.991 39.3311C101.74 39.9658 101.258 40.4641 100.595 40.7148L100.271 40.2261C101.159 39.915 101.674 39.166 101.68 38.3281V37.7441H102.283V38.3599ZM105.019 41.1211V43.1396H104.416V41.5972H101.166V41.1211H105.019ZM105.019 37.4521V40.8228H104.416V39.0962H103.216V38.6011H104.416V37.4521H105.019ZM110.561 40.4229V40.9053H105.375V40.4229H110.561ZM109.977 42.5303V43.019H106.029V41.3687H106.638V42.5303H109.977ZM107.965 37.6426C109.196 37.6362 109.996 38.0679 109.996 38.7788C109.996 39.4961 109.196 39.9277 107.965 39.9341C106.727 39.9277 105.933 39.4961 105.933 38.7788C105.933 38.0679 106.727 37.6362 107.965 37.6426ZM107.965 38.125C107.095 38.125 106.549 38.3726 106.555 38.7788C106.549 39.1978 107.095 39.439 107.965 39.439C108.834 39.439 109.374 39.1978 109.374 38.7788C109.374 38.3726 108.834 38.125 107.965 38.125ZM116.433 37.4521V43.1396H115.856V37.4521H116.433ZM115.291 37.5601V42.8604H114.72V41.0259H113.894C113.691 41.5908 113.314 41.9177 112.828 41.9146C112.085 41.9209 111.603 41.1401 111.603 39.9087C111.603 38.6772 112.085 37.9028 112.828 37.9092C113.314 37.906 113.688 38.2297 113.894 38.7915H114.72V37.5601H115.291ZM112.828 38.4741C112.409 38.4741 112.155 39.001 112.155 39.9087C112.155 40.8164 112.409 41.3433 112.828 41.3433C113.247 41.3433 113.514 40.8164 113.514 39.9087C113.514 39.001 113.247 38.4741 112.828 38.4741ZM114.021 39.2803C114.05 39.4739 114.066 39.6833 114.066 39.9087C114.066 40.1309 114.05 40.3403 114.021 40.5308H114.72V39.2803H114.021ZM118.611 38.4932C118.611 39.2549 119.144 39.9722 120.008 40.2642L119.697 40.7402C119.059 40.5149 118.586 40.061 118.332 39.4897C118.084 40.1277 117.596 40.626 116.929 40.8735L116.593 40.3975C117.494 40.0864 118.015 39.3247 118.015 38.4741V37.8013H118.611V38.4932ZM121.106 37.4458V39.1597H121.931V39.6738H121.106V41.6416H120.503V37.4458H121.106ZM121.353 42.5303V43.019H117.507V41.2354H118.122V42.5303H121.353ZM125.683 37.833V40.2832H123.024V37.833H125.683ZM123.614 38.3154V39.8008H125.093V38.3154H123.614ZM127.27 37.4521V38.7725H128.096V39.2739H127.27V40.6768H126.667V37.4521H127.27ZM127.359 40.9941V41.4766H125.804C125.887 42.0161 126.626 42.5144 127.594 42.6572L127.372 43.1206C126.509 42.9873 125.798 42.5906 125.468 42.0479C125.144 42.5938 124.436 42.9873 123.576 43.1143L123.354 42.6509C124.328 42.5144 125.052 42.032 125.15 41.4766H123.582V40.9941H127.359ZM133.085 40.2388V40.7212H130.788V41.2798H132.451V43.0698H128.521V41.2798H130.191V40.7212H127.899V40.2388H133.085ZM130.788 37.4331V37.9727H132.565V38.4487H130.826C130.886 38.9946 131.67 39.3977 132.806 39.4897L132.628 39.9404C131.638 39.8516 130.841 39.5374 130.489 39.0137C130.134 39.5374 129.337 39.8516 128.356 39.9404L128.172 39.4897C129.312 39.3977 130.089 38.9946 130.159 38.4487H128.42V37.9727H130.191V37.4331H130.788ZM129.118 41.7622V42.5811H131.867V41.7622H129.118ZM134.019 42.1621L133.511 43.9141H132.972L133.308 42.1621H134.019ZM138.374 37.8838V38.2012C138.368 38.582 138.368 39.147 138.228 39.8833L137.632 39.8262C137.756 39.1946 137.775 38.7375 137.784 38.3789H135.505V37.8838H138.374ZM136.921 39.1597V40.334C137.53 40.3149 138.159 40.2705 138.73 40.188L138.768 40.626C137.581 40.8354 136.223 40.8545 135.22 40.8608L135.163 40.3721C135.512 40.3689 135.908 40.3657 136.324 40.353V39.1597H136.921ZM139.707 37.4521V39.2612H140.488V39.769H139.707V41.7241H139.092V37.4521H139.707ZM139.892 42.5303V43.019H136.026V41.3369H136.629V42.5303H139.892ZM144.773 37.4585V38.874H145.605V39.3818H144.773V40.8418H144.17V37.4585H144.773ZM144.773 41.1084V43.0698H141.13V41.1084H144.773ZM141.72 41.5781V42.5811H144.189V41.5781H141.72ZM143.123 37.7568V39.3628H141.143V40.0737C142.13 40.0706 142.828 40.042 143.656 39.9023L143.72 40.3848C142.837 40.5435 142.088 40.5752 140.997 40.5752H140.54V38.9058H142.533V38.2393H140.533V37.7568H143.123ZM150.588 40.4229V40.9053H145.402V40.4229H150.588ZM150.004 42.5303V43.019H146.056V41.3687H146.666V42.5303H150.004ZM147.992 37.6426C149.224 37.6362 150.023 38.0679 150.023 38.7788C150.023 39.4961 149.224 39.9277 147.992 39.9341C146.754 39.9277 145.961 39.4961 145.961 38.7788C145.961 38.0679 146.754 37.6362 147.992 37.6426ZM147.992 38.125C147.123 38.125 146.577 38.3726 146.583 38.7788C146.577 39.1978 147.123 39.439 147.992 39.439C148.862 39.439 149.401 39.1978 149.401 38.7788C149.401 38.3726 148.862 38.125 147.992 38.125ZM155.998 37.4521V39.7183H156.88V40.2197H155.998V43.1333H155.395V37.4521H155.998ZM154.512 38.0488C154.506 39.6929 153.782 41.1592 151.91 42.0859L151.573 41.6162C152.998 40.9053 153.773 39.877 153.897 38.5503H151.859V38.0488H154.512ZM158.683 38.3027C158.683 39.1025 159.197 39.8135 160.061 40.0928L159.731 40.5625C159.105 40.3372 158.645 39.8992 158.398 39.3311C158.15 39.9817 157.655 40.4863 156.969 40.7339L156.646 40.2515C157.553 39.9404 158.08 39.1851 158.086 38.3281V37.7695H158.683V38.3027ZM161.406 37.4521V40.8101H160.803V39.1025H159.604V38.6074H160.803V37.4521H161.406ZM159.502 40.9688C160.695 40.9688 161.425 41.3623 161.425 42.0542C161.425 42.7397 160.695 43.1333 159.502 43.127C158.309 43.1333 157.572 42.7397 157.579 42.0542C157.572 41.3623 158.309 40.9688 159.502 40.9688ZM159.502 41.4385C158.67 41.4385 158.175 41.6606 158.175 42.0542C158.175 42.4351 158.67 42.6509 159.502 42.6509C160.334 42.6509 160.829 42.4351 160.829 42.0542C160.829 41.6606 160.334 41.4385 159.502 41.4385ZM166.472 37.4521V43.1523H165.869V37.4521H166.472ZM162.683 37.9282V39.3882H164.212V37.9282H164.809V41.7876H162.08V37.9282H162.683ZM162.683 41.2925H164.212V39.8643H162.683V41.2925ZM169.901 41.21C169.901 41.6987 170.142 42.2161 170.656 42.5239C171.18 42.1907 171.437 41.6448 171.437 41.21V40.937H172.027V41.21C172.027 41.8003 172.415 42.3716 173.157 42.6128L172.859 43.0571C172.297 42.8635 171.916 42.4858 171.716 42.0161C171.536 42.4763 171.196 42.8921 170.675 43.1079C170.13 42.9016 169.784 42.4985 169.609 42.0352C169.403 42.4827 169.028 42.8604 168.492 43.0571L168.187 42.6128C168.917 42.3525 169.311 41.7622 169.317 41.21V40.937H169.901V41.21ZM172.643 37.4585V40.6958H172.04V37.4585H172.643ZM169.558 37.7695C170.428 37.7695 171.069 38.3218 171.069 39.1152C171.069 39.9023 170.428 40.4482 169.558 40.4482C168.689 40.4482 168.041 39.9023 168.041 39.1152C168.041 38.3218 168.689 37.7695 169.558 37.7695ZM169.558 38.2837C169.019 38.2773 168.631 38.6138 168.631 39.1152C168.631 39.6104 169.019 39.9468 169.558 39.9468C170.091 39.9468 170.479 39.6104 170.479 39.1152C170.479 38.6138 170.091 38.2773 169.558 38.2837ZM177.912 37.4521V43.1396H177.341V37.4521H177.912ZM176.713 37.5981V42.8604H176.141V40.2197H175.03C174.691 40.8799 174.151 41.4575 173.348 41.9272L173.006 41.4956C174.212 40.7783 174.792 39.823 174.897 38.6519H173.272V38.1567H175.494C175.491 38.7122 175.414 39.2422 175.24 39.7373H176.141V37.5981H176.713Z" fill="white"/>
<path d="M90.2 37.6606H87V43.1706H92.6V40.2189" stroke="white"/>
<path d="M88.42 39.4348L89.9718 41L93.42 37" stroke="white"/>
</svg>
