<svg width="800" height="109" viewBox="0 0 800 109" fill="none" xmlns="http://www.w3.org/2000/svg">
<g clip-path="url(#clip0_12136_18566)">
<mask id="mask0_12136_18566" style="mask-type:luminance" maskUnits="userSpaceOnUse" x="0" y="0" width="800" height="109">
<path d="M800 0H0V109H800V0Z" fill="white"/>
</mask>
<g mask="url(#mask0_12136_18566)">
<path d="M174.433 43.059H181.442V47.746H174.433V43.059ZM170.176 27.966H175.938V67.784H170.176V27.966ZM145.924 31.793H151.643V56.518H145.924V31.793ZM145.924 53.336H149.364C155.04 53.336 161.189 52.949 167.596 51.659L168.198 56.346C161.619 57.722 155.212 58.066 149.364 58.066H145.924V53.336ZM211.582 27.966H217.344V67.913H211.582V27.966ZM195.887 30.761C201.907 30.761 206.336 36.265 206.336 44.951C206.336 53.723 201.907 59.227 195.887 59.227C189.867 59.227 185.438 53.723 185.438 44.951C185.438 36.265 189.867 30.761 195.887 30.761ZM195.887 35.964C192.92 35.964 190.899 39.103 190.899 44.951C190.899 50.885 192.92 54.067 195.887 54.067C198.854 54.067 200.832 50.885 200.832 44.951C200.832 39.103 198.854 35.964 195.887 35.964ZM234.497 30.761C240.56 30.761 244.946 36.265 244.946 44.951C244.946 53.723 240.56 59.227 234.497 59.227C228.434 59.227 224.048 53.723 224.048 44.951C224.048 36.265 228.434 30.761 234.497 30.761ZM234.497 35.964C231.53 35.964 229.552 39.103 229.552 44.951C229.552 50.885 231.53 54.067 234.497 54.067C237.464 54.067 239.485 50.885 239.485 44.951C239.485 39.103 237.464 35.964 234.497 35.964ZM249.289 28.009H255.051V67.827H249.289V28.009ZM253.761 43.016H260.813V47.746H253.761V43.016ZM288.846 27.966H294.608V67.784H288.846V27.966ZM293.103 43.188H300.112V47.875H293.103V43.188ZM278.397 32.094H283.987C283.987 44.048 279.429 54.282 266.185 60.947L263.003 56.604C273.452 51.186 278.397 43.876 278.397 33.083V32.094ZM265.196 32.094H281.321V36.695H265.196V32.094ZM328.489 27.966H334.165V67.913H328.489V27.966ZM332.875 43.016H339.927V47.746H332.875V43.016ZM304.581 53.981H307.935C314.686 53.981 319.932 53.766 325.78 52.734L326.339 57.335C320.319 58.41 314.858 58.668 307.935 58.668H304.581V53.981ZM304.538 31.363H322.856V46.8H310.257V55.744H304.581V42.242H317.18V35.921H304.538V31.363ZM366.876 32.7273V64H360.264V39.0032H360.081L352.919 43.4925V37.6289L360.661 32.7273H366.876ZM399.121 28.009H404.84V51.874H399.121V28.009ZM403.249 37.684H410.129V42.371H403.249V37.684ZM378.266 53.637H404.84V67.827H399.121V58.195H378.266V53.637ZM374.654 30.503H380.33V35.749H388.113V30.503H393.789V49.853H374.654V30.503ZM380.33 40.135V45.381H388.113V40.135H380.33ZM423.817 64V59.2358L434.949 48.9286C435.896 48.0124 436.69 47.1879 437.331 46.4549C437.982 45.7219 438.476 45.0043 438.812 44.3018C439.148 43.5893 439.316 42.8207 439.316 41.9961C439.316 41.0799 439.107 40.291 438.69 39.6293C438.273 38.9574 437.702 38.4433 436.98 38.087C436.257 37.7205 435.437 37.5373 434.521 37.5373C433.564 37.5373 432.73 37.7307 432.017 38.1175C431.304 38.5044 430.755 39.0592 430.368 39.782C429.981 40.5047 429.788 41.3649 429.788 42.3626H423.512C423.512 40.3164 423.975 38.54 424.901 37.0334C425.828 35.5268 427.126 34.3611 428.795 33.5366C430.465 32.712 432.389 32.2997 434.567 32.2997C436.807 32.2997 438.756 32.6967 440.415 33.4908C442.085 34.2746 443.383 35.3639 444.309 36.7585C445.236 38.1532 445.699 39.7514 445.699 41.5533C445.699 42.7341 445.465 43.8997 444.996 45.0501C444.538 46.2004 443.719 47.478 442.538 48.8828C441.357 50.2775 439.693 51.9521 437.545 53.9066L432.979 58.3807V58.5945H446.111V64H423.817ZM461.31 29.17C467.373 29.17 471.931 32.954 471.931 38.286C471.931 43.575 467.373 47.359 461.31 47.359C455.247 47.359 450.689 43.575 450.689 38.286C450.689 32.954 455.247 29.17 461.31 29.17ZM461.31 33.814C458.386 33.814 456.193 35.448 456.193 38.286C456.193 41.124 458.386 42.758 461.31 42.758C464.234 42.758 466.384 41.124 466.384 38.286C466.384 35.448 464.234 33.814 461.31 33.814ZM477.435 28.009H483.197V47.918H477.435V28.009ZM456.623 49.552H483.197V60.474H462.299V65.29H456.709V56.346H477.521V53.981H456.623V49.552ZM456.709 62.968H484.186V67.397H456.709V62.968ZM508.54 34.287H513.055V38.759C513.055 47.746 509.271 56.905 501.961 60.345L498.736 55.83C505.315 52.734 508.54 45.295 508.54 38.759V34.287ZM509.744 34.287H514.259V38.759C514.259 44.779 517.355 51.831 523.891 54.841L520.752 59.356C513.442 55.959 509.744 47.23 509.744 38.759V34.287ZM500.284 31.836H522.128V36.523H500.284V31.836ZM525.052 28.009H530.814V67.827H525.052V28.009ZM529.524 43.188H536.576V47.918H529.524V43.188ZM547.28 53.164H553.128V67.827H547.28V53.164ZM561.04 53.164H566.888V67.827H561.04V53.164ZM539.153 50.154H575.23V54.755H539.153V50.154ZM557.084 29.342C565.598 29.342 571.489 32.825 571.489 38.286C571.489 43.661 565.598 47.144 557.084 47.144C548.613 47.144 542.722 43.661 542.722 38.286C542.722 32.825 548.613 29.342 557.084 29.342ZM557.084 33.9C551.881 33.9 548.57 35.448 548.57 38.286C548.57 41.081 551.881 42.629 557.084 42.629C562.33 42.629 565.598 41.081 565.598 38.286C565.598 35.448 562.33 33.9 557.084 33.9ZM596.511 36.136H607.347V40.737H596.511V36.136ZM596.511 48.477H607.347V53.078H596.511V48.477ZM589.631 30.761C595.565 30.761 599.908 36.265 599.908 44.951C599.908 53.723 595.565 59.227 589.631 59.227C583.654 59.227 579.354 53.723 579.354 44.951C579.354 36.265 583.654 30.761 589.631 30.761ZM589.631 35.964C586.75 35.964 584.772 39.103 584.772 44.951C584.772 50.885 586.75 54.067 589.631 54.067C592.555 54.067 594.49 50.885 594.49 44.951C594.49 39.103 592.555 35.964 589.631 35.964ZM606.444 27.966H612.12V67.913H606.444V27.966ZM646.775 28.009H652.193V52.949H646.775V28.009ZM641.916 37.813H648.28V42.457H641.916V37.813ZM638.519 28.783H643.851V51.659H638.519V28.783ZM618.094 32.094H637.401V36.48H618.094V32.094ZM627.812 37.77C632.8 37.77 636.412 40.608 636.412 44.736C636.412 48.864 632.8 51.659 627.812 51.659C622.824 51.659 619.212 48.864 619.212 44.736C619.212 40.608 622.824 37.77 627.812 37.77ZM627.812 41.855C625.705 41.855 624.286 42.887 624.286 44.736C624.286 46.585 625.705 47.617 627.812 47.617C629.876 47.617 631.295 46.585 631.295 44.736C631.295 42.887 629.876 41.855 627.812 41.855ZM624.931 28.396H630.564V35.104H624.931V28.396ZM638.734 53.379C647.248 53.379 652.408 55.959 652.408 60.603C652.408 65.204 647.248 67.827 638.734 67.827C630.177 67.827 625.017 65.204 625.017 60.603C625.017 55.959 630.177 53.379 638.734 53.379ZM638.734 57.636C633.402 57.636 630.736 58.539 630.736 60.603C630.736 62.624 633.402 63.57 638.734 63.57C644.023 63.57 646.689 62.624 646.689 60.603C646.689 58.539 644.023 57.636 638.734 57.636Z" fill="white"/>
<path d="M158.523 10.481H162.114V11.986H158.523V10.481ZM157.212 2.7195H159.018V22.177H157.212V2.7195ZM144.828 4.633H146.612V16.673H144.828V4.633ZM144.828 15.7485H146.376C149.257 15.7485 152.202 15.555 155.406 14.8885L155.621 16.372C152.31 17.06 149.321 17.2535 146.376 17.2535H144.828V15.7485ZM171.722 10.2875H175.399V11.771H171.722V10.2875ZM178.645 2.741H180.365V22.177H178.645V2.741ZM174.797 3.1495H176.495V21.2095H174.797V3.1495ZM168.218 4.3535C170.733 4.3535 172.367 6.955 172.367 11.126C172.367 15.297 170.733 17.8985 168.218 17.8985C165.702 17.8985 164.09 15.297 164.09 11.126C164.09 6.955 165.702 4.3535 168.218 4.3535ZM168.218 6.009C166.691 6.009 165.724 7.987 165.724 11.126C165.724 14.265 166.691 16.243 168.218 16.243C169.766 16.243 170.733 14.265 170.733 11.126C170.733 7.987 169.766 6.009 168.218 6.009ZM198.424 2.741H200.144V22.177H198.424V2.741ZM189.996 10.6745H194.898V12.115H189.996V10.6745ZM194.382 3.2355H196.059V21.188H194.382V3.2355ZM190.232 5.192H191.952C191.952 10.2875 189.91 14.867 184.664 17.9845L183.61 16.716C188.19 13.964 190.232 10.094 190.232 5.5145V5.192ZM184.47 5.192H190.899V6.654H184.47V5.192ZM218.465 3.601H224.055V5.0415H218.465V3.601ZM209.457 11.986H227.001V13.448H209.457V11.986ZM217.713 8.073H219.476V12.631H217.713V8.073ZM223.303 3.601H225.023V4.461C225.023 5.665 225.023 7.6645 224.464 10.3305L222.744 10.1155C223.303 7.4495 223.303 5.6435 223.303 4.461V3.601ZM211.37 15.4905H224.786V22.091H223.002V16.9525H211.37V15.4905ZM210.962 3.601H216.079V5.0415H210.962V3.601ZM215.133 3.601H216.853V4.2675C216.853 5.3855 216.853 7.514 215.95 10.352L214.23 10.094C215.133 7.2345 215.133 5.364 215.133 4.2675V3.601ZM236.078 4.0525H245V12.3945H236.078V4.0525ZM243.259 5.493H237.819V10.954H243.259V5.493ZM248.569 2.741H250.354V13.8135H248.569V2.741ZM249.859 7.4065H253.235V8.89H249.859V7.4065ZM243.388 15.641H244.914V16.157C244.914 19.21 241.711 21.4675 237.884 22.1125L237.196 20.7365C240.55 20.2205 243.388 18.3285 243.388 16.157V15.641ZM243.732 15.641H245.258V16.157C245.258 18.2855 248.139 20.2205 251.429 20.758L250.762 22.134C246.957 21.489 243.732 19.1455 243.732 16.157V15.641ZM237.948 14.9745H250.698V16.3935H237.948V14.9745ZM257.425 8.5675H270.626V10.0295H257.425V8.5675ZM255.039 12.631H272.669V14.093H255.039V12.631ZM257.425 3.4505H259.188V9.2985H257.425V3.4505ZM257.296 20.242H270.734V21.704H257.296V20.242ZM257.296 16.028H259.059V20.629H257.296V16.028ZM286.325 3.4505C289.228 3.4505 291.356 5.2135 291.356 7.772C291.356 10.309 289.228 12.072 286.325 12.072C283.444 12.072 281.316 10.309 281.316 7.772C281.316 5.2135 283.444 3.4505 286.325 3.4505ZM286.325 4.9125C284.455 4.9125 283.036 6.095 283.036 7.772C283.036 9.449 284.455 10.61 286.325 10.61C288.217 10.61 289.615 9.449 289.615 7.772C289.615 6.095 288.217 4.9125 286.325 4.9125ZM295.011 2.741H296.817V12.6955H295.011V2.741ZM284.24 13.6415H296.817V18.3715H286.024V21.2955H284.283V17.0385H295.054V15.082H284.24V13.6415ZM284.283 20.5H297.462V21.919H284.283V20.5ZM311.027 7.772H315.413V9.2555H311.027V7.772ZM314.854 2.741H316.638V14.3295H314.854V2.741ZM310.253 14.91C314.252 14.91 316.724 16.2645 316.724 18.5435C316.724 20.844 314.252 22.1555 310.253 22.1555C306.232 22.1555 303.76 20.844 303.76 18.5435C303.76 16.2645 306.232 14.91 310.253 14.91ZM310.253 16.3075C307.329 16.3075 305.544 17.1245 305.544 18.5435C305.544 19.941 307.329 20.758 310.253 20.758C313.177 20.758 314.961 19.941 314.961 18.5435C314.961 17.1245 313.177 16.3075 310.253 16.3075ZM305.609 4.6975H307.071V6.267C307.071 9.8575 304.878 12.932 301.653 14.136L300.728 12.717C303.609 11.6635 305.609 9.062 305.609 6.267V4.6975ZM305.953 4.6975H307.393V6.267C307.393 8.7825 309.285 11.1905 312.102 12.1795L311.199 13.5985C308.038 12.459 305.953 9.535 305.953 6.267V4.6975ZM301.266 4.16H311.65V5.622H301.266V4.16Z" fill="white"/>
<path d="M176.758 89.132H178.198V105.404H176.758V89.132ZM174.112 95.72H177.226V96.944H174.112V95.72ZM170.116 91.076H171.556C171.556 95.324 170.278 99.32 165.346 102.074L164.5 100.976C168.856 98.6 170.116 95.18 170.116 91.328V91.076ZM165.292 91.076H170.674V92.318H165.292V91.076ZM173.158 89.528H174.58V104.612H173.158V89.528ZM169.936 94.784V95.9L164.698 96.44L164.482 95.144L169.936 94.784ZM193.047 95.612H196.053V96.872H193.047V95.612ZM191.949 89.114H193.461V105.404H191.949V89.114ZM181.581 90.716H183.075V100.796H181.581V90.716ZM181.581 100.022H182.877C185.289 100.022 187.755 99.86 190.437 99.302L190.617 100.544C187.845 101.12 185.343 101.282 182.877 101.282H181.581V100.022ZM208.507 89.114H210.019V105.422H208.507V89.114ZM209.659 95.54H212.683V96.8H209.659V95.54ZM198.193 100.112H199.471C202.477 100.112 204.583 100.004 207.013 99.554L207.175 100.814C204.673 101.282 202.531 101.372 199.471 101.372H198.193V100.112ZM198.193 90.698H205.753V91.922H199.669V100.67H198.193V90.698ZM220.48 89.726H232.432V90.95H220.48V89.726ZM220.552 94.46H232.36V95.666H220.552V94.46ZM222.946 90.284H224.44V95.144H222.946V90.284ZM228.49 90.284H229.966V95.144H228.49V90.284ZM219.112 97.628H233.818V98.834H219.112V97.628ZM225.736 95.306H227.212V98.114H225.736V95.306ZM220.75 100.454H232V105.404H230.506V101.66H220.75V100.454ZM235.689 102.146H250.431V103.388H235.689V102.146ZM242.259 97.934H243.753V102.704H242.259V97.934ZM236.967 90.68H249.045V91.904H236.967V90.68ZM237.003 97.232H249.027V98.438H237.003V97.232ZM239.505 91.67H240.999V97.448H239.505V91.67ZM245.049 91.67H246.525V97.448H245.049V91.67ZM259.164 96.728H270.342V97.952H259.164V96.728ZM257.31 102.11H272.052V103.37H257.31V102.11ZM263.898 97.25H265.392V102.614H263.898V97.25ZM259.164 90.428H270.18V91.652H260.658V97.268H259.164V90.428ZM273.869 102.092H288.611V103.334H273.869V102.092ZM280.457 98.204H281.951V102.452H280.457V98.204ZM275.597 90.284H277.073V93.182H285.371V90.284H286.847V98.6H275.597V90.284ZM277.073 94.388V97.376H285.371V94.388H277.073ZM302.307 89.132H303.801V105.404H302.307V89.132ZM298.509 95.648H302.973V96.89H298.509V95.648ZM297.087 90.878H298.563C298.563 95.522 296.637 99.626 291.237 102.326L290.409 101.156C295.143 98.834 297.087 95.378 297.087 91.13V90.878ZM291.111 90.878H297.879V92.102H291.111V90.878ZM318.83 89.114H320.324V105.422H318.83V89.114ZM307.922 100.256H309.272C311.99 100.256 314.42 100.148 317.3 99.68L317.462 100.904C314.51 101.39 312.062 101.498 309.272 101.498H307.922V100.256ZM307.886 90.644H315.41V96.458H309.416V100.724H307.922V95.234H313.898V91.868H307.886V90.644ZM329.327 91.508H342.539V92.732H329.327V91.508ZM328.607 102.272H343.349V103.514H328.607V102.272ZM335.213 99.698H336.689V102.758H335.213V99.698ZM335.933 93.83C339.227 93.83 341.261 94.964 341.261 96.926C341.261 98.888 339.227 100.022 335.933 100.022C332.657 100.022 330.623 98.888 330.623 96.926C330.623 94.964 332.657 93.83 335.933 93.83ZM335.933 95C333.575 95 332.117 95.72 332.117 96.926C332.117 98.132 333.575 98.834 335.933 98.834C338.309 98.834 339.749 98.132 339.749 96.926C339.749 95.72 338.309 95 335.933 95ZM335.213 89.402H336.689V92.264H335.213V89.402ZM352.149 92.786H354.921V93.992H352.149V92.786ZM345.903 96.08H346.911C349.251 96.08 350.835 96.008 352.779 95.648L352.923 96.8C350.925 97.178 349.305 97.25 346.911 97.25H345.903V96.08ZM345.903 90.104H352.041V91.292H347.325V96.836H345.903V90.104ZM346.893 93.02H351.393V94.172H346.893V93.02ZM357.441 89.15H358.863V97.934H357.441V89.15ZM354.309 89.42H355.713V97.772H354.309V89.42ZM348.135 98.672H358.863V102.434H349.647V104.828H348.171V101.318H357.423V99.842H348.135V98.672ZM348.171 104.054H359.493V105.224H348.171V104.054ZM364.455 102.21L364.352 102.901C364.28 103.386 364.169 103.906 364.02 104.46C363.875 105.014 363.724 105.536 363.566 106.026C363.409 106.516 363.279 106.906 363.176 107.196H362.026C362.081 106.923 362.154 106.563 362.243 106.116C362.333 105.668 362.422 105.168 362.512 104.614C362.605 104.064 362.682 103.501 362.742 102.926L362.818 102.21H364.455ZM372.749 90.716H380.237V101.318H372.749V90.716ZM378.779 91.922H374.207V100.112H378.779V91.922ZM383.639 89.114H385.133V105.422H383.639V89.114ZM390.262 89.888H400.738V91.112H390.262V89.888ZM388.39 95.72H403.132V96.944H388.39V95.72ZM394.996 96.548H396.472V100.382H394.996V96.548ZM399.766 89.888H401.224V91.094C401.224 92.444 401.224 94.082 400.684 96.314L399.226 96.134C399.766 93.956 399.766 92.408 399.766 91.094V89.888ZM389.92 99.896H401.332V105.404H399.838V101.12H389.92V99.896ZM411.054 97.6847V99.0909H405.327V97.6847H411.054ZM425.594 89.132H427.034V105.404H425.594V89.132ZM422.948 95.72H426.062V96.944H422.948V95.72ZM418.952 91.076H420.392C420.392 95.324 419.114 99.32 414.182 102.074L413.336 100.976C417.692 98.6 418.952 95.18 418.952 91.328V91.076ZM414.128 91.076H419.51V92.318H414.128V91.076ZM421.994 89.528H423.416V104.612H421.994V89.528ZM418.772 94.784V95.9L413.534 96.44L413.318 95.144L418.772 94.784ZM441.883 95.612H444.889V96.872H441.883V95.612ZM440.785 89.114H442.297V105.404H440.785V89.114ZM430.417 90.716H431.911V100.796H430.417V90.716ZM430.417 100.022H431.713C434.125 100.022 436.591 99.86 439.273 99.302L439.453 100.544C436.681 101.12 434.179 101.282 431.713 101.282H430.417V100.022ZM457.343 89.114H458.855V105.422H457.343V89.114ZM458.495 95.54H461.519V96.8H458.495V95.54ZM447.029 100.112H448.307C451.313 100.112 453.419 100.004 455.849 99.554L456.011 100.814C453.509 101.282 451.367 101.372 448.307 101.372H447.029V100.112ZM447.029 90.698H454.589V91.922H448.505V100.67H447.029V90.698ZM471.656 98.834H473.15V105.404H471.656V98.834ZM477.47 98.834H478.982V105.404H477.47V98.834ZM467.948 98.636H482.708V99.86H467.948V98.636ZM469.802 89.762H471.296V91.94H479.342V89.762H480.818V96.728H469.802V89.762ZM471.296 93.164V95.486H479.342V93.164H471.296ZM489.587 102.092H504.329V103.334H489.587V102.092ZM496.175 98.204H497.669V102.452H496.175V98.204ZM491.315 90.284H492.791V93.182H501.089V90.284H502.565V98.6H491.315V90.284ZM492.791 94.388V97.376H501.089V94.388H492.791ZM510.142 90.878H511.366V92.192C511.366 95.18 509.566 97.682 506.83 98.672L506.074 97.484C508.522 96.62 510.142 94.514 510.142 92.192V90.878ZM510.412 90.878H511.636V92.174C511.636 94.298 513.184 96.206 515.578 96.998L514.858 98.168C512.14 97.268 510.412 94.946 510.412 92.174V90.878ZM506.524 90.338H515.218V91.562H506.524V90.338ZM517.27 89.132H518.764V98.942H517.27V89.132ZM518.35 93.254H521.176V94.514H518.35V93.254ZM513.58 99.374C516.892 99.374 518.926 100.472 518.926 102.362C518.926 104.27 516.892 105.368 513.58 105.368C510.268 105.368 508.234 104.27 508.234 102.362C508.234 100.472 510.268 99.374 513.58 99.374ZM513.58 100.58C511.168 100.58 509.692 101.228 509.692 102.362C509.692 103.514 511.168 104.198 513.58 104.198C515.992 104.198 517.468 103.514 517.468 102.362C517.468 101.228 515.992 100.58 513.58 100.58Z" fill="white"/>
<path d="M151.562 91.792H144V105.681H158.12V97.656" stroke="white" stroke-width="1.8"/>
<path d="M146.315 95.8022L150.944 101.202L160.744 89.3193" stroke="white" stroke-width="1.8"/>
</g>
</g>
<defs>
<clipPath id="clip0_12136_18566">
<rect width="800" height="109" fill="white"/>
</clipPath>
</defs>
</svg>
