<svg width="345" height="47" viewBox="0 0 345 47" fill="none" xmlns="http://www.w3.org/2000/svg">
<g clip-path="url(#clip0_12136_18579)">
<mask id="mask0_12136_18579" style="mask-type:luminance" maskUnits="userSpaceOnUse" x="0" y="0" width="345" height="47">
<path d="M345 0H0V47H345V0Z" fill="white"/>
</mask>
<g mask="url(#mask0_12136_18579)">
<path d="M111.041 20.643H112.834V21.842H111.041V20.643ZM109.952 16.782H111.426V26.968H109.952V16.782ZM103.748 17.761H105.211V24.086H103.748V17.761ZM103.748 23.272H104.628C106.08 23.272 107.653 23.173 109.292 22.843L109.446 24.042C107.763 24.394 106.124 24.482 104.628 24.482H103.748V23.272ZM120.544 16.782H122.018V27.001H120.544V16.782ZM116.529 17.497C118.069 17.497 119.202 18.905 119.202 21.127C119.202 23.371 118.069 24.779 116.529 24.779C114.989 24.779 113.856 23.371 113.856 21.127C113.856 18.905 114.989 17.497 116.529 17.497ZM116.529 18.828C115.77 18.828 115.253 19.631 115.253 21.127C115.253 22.645 115.77 23.459 116.529 23.459C117.288 23.459 117.794 22.645 117.794 21.127C117.794 19.631 117.288 18.828 116.529 18.828ZM126.406 17.497C127.957 17.497 129.079 18.905 129.079 21.127C129.079 23.371 127.957 24.779 126.406 24.779C124.855 24.779 123.733 23.371 123.733 21.127C123.733 18.905 124.855 17.497 126.406 17.497ZM126.406 18.828C125.647 18.828 125.141 19.631 125.141 21.127C125.141 22.645 125.647 23.459 126.406 23.459C127.165 23.459 127.682 22.645 127.682 21.127C127.682 19.631 127.165 18.828 126.406 18.828ZM130.19 16.793H131.664V26.979H130.19V16.793ZM131.334 20.632H133.138V21.842H131.334V20.632ZM140.309 16.782H141.783V26.968H140.309V16.782ZM141.398 20.676H143.191V21.875H141.398V20.676ZM137.636 17.838H139.066C139.066 20.896 137.9 23.514 134.512 25.219L133.698 24.108C136.371 22.722 137.636 20.852 137.636 18.091V17.838ZM134.259 17.838H138.384V19.015H134.259V17.838ZM150.451 16.782H151.903V27.001H150.451V16.782ZM151.573 20.632H153.377V21.842H151.573V20.632ZM144.335 23.437H145.193C146.92 23.437 148.262 23.382 149.758 23.118L149.901 24.295C148.361 24.57 146.964 24.636 145.193 24.636H144.335V23.437ZM144.324 17.651H149.01V21.6H145.787V23.888H144.335V20.434H147.558V18.817H144.324V17.651ZM160.271 18V26H158.579V19.6055H158.532L156.7 20.7539V19.2539L158.681 18H160.271ZM168.519 16.793H169.982V22.898H168.519V16.793ZM169.575 19.268H171.335V20.467H169.575V19.268ZM163.184 23.349H169.982V26.979H168.519V24.515H163.184V23.349ZM162.26 17.431H163.712V18.773H165.703V17.431H167.155V22.381H162.26V17.431ZM163.712 19.895V21.237H165.703V19.895H163.712ZM174.837 26V24.7812L177.685 22.1445C177.927 21.9102 178.13 21.6992 178.294 21.5117C178.461 21.3242 178.587 21.1406 178.673 20.9609C178.759 20.7786 178.802 20.582 178.802 20.3711C178.802 20.1367 178.748 19.9349 178.642 19.7656C178.535 19.5937 178.389 19.4622 178.204 19.3711C178.019 19.2773 177.81 19.2305 177.575 19.2305C177.33 19.2305 177.117 19.2799 176.935 19.3789C176.752 19.4779 176.612 19.6198 176.513 19.8047C176.414 19.9896 176.364 20.2096 176.364 20.4648H174.759C174.759 19.9414 174.877 19.487 175.114 19.1016C175.351 18.7161 175.683 18.418 176.11 18.207C176.537 17.9961 177.03 17.8906 177.587 17.8906C178.16 17.8906 178.659 17.9922 179.083 18.1953C179.51 18.3958 179.842 18.6745 180.079 19.0312C180.316 19.388 180.435 19.7969 180.435 20.2578C180.435 20.5599 180.375 20.8581 180.255 21.1523C180.138 21.4466 179.928 21.7734 179.626 22.1328C179.324 22.4896 178.898 22.918 178.349 23.418L177.181 24.5625V24.6172H180.54V26H174.837ZM184.428 17.09C185.979 17.09 187.145 18.058 187.145 19.422C187.145 20.775 185.979 21.743 184.428 21.743C182.877 21.743 181.711 20.775 181.711 19.422C181.711 18.058 182.877 17.09 184.428 17.09ZM184.428 18.278C183.68 18.278 183.119 18.696 183.119 19.422C183.119 20.148 183.68 20.566 184.428 20.566C185.176 20.566 185.726 20.148 185.726 19.422C185.726 18.696 185.176 18.278 184.428 18.278ZM188.553 16.793H190.027V21.886H188.553V16.793ZM183.229 22.304H190.027V25.098H184.681V26.33H183.251V24.042H188.575V23.437H183.229V22.304ZM183.251 25.736H190.28V26.869H183.251V25.736ZM196.51 18.399H197.665V19.543C197.665 21.842 196.697 24.185 194.827 25.065L194.002 23.91C195.685 23.118 196.51 21.215 196.51 19.543V18.399ZM196.818 18.399H197.973V19.543C197.973 21.083 198.765 22.887 200.437 23.657L199.634 24.812C197.764 23.943 196.818 21.71 196.818 19.543V18.399ZM194.398 17.772H199.986V18.971H194.398V17.772ZM200.734 16.793H202.208V26.979H200.734V16.793ZM201.878 20.676H203.682V21.886H201.878V20.676ZM206.42 23.228H207.916V26.979H206.42V23.228ZM209.94 23.228H211.436V26.979H209.94V23.228ZM204.341 22.458H213.57V23.635H204.341V22.458ZM208.928 17.134C211.106 17.134 212.613 18.025 212.613 19.422C212.613 20.797 211.106 21.688 208.928 21.688C206.761 21.688 205.254 20.797 205.254 19.422C205.254 18.025 206.761 17.134 208.928 17.134ZM208.928 18.3C207.597 18.3 206.75 18.696 206.75 19.422C206.75 20.137 207.597 20.533 208.928 20.533C210.27 20.533 211.106 20.137 211.106 19.422C211.106 18.696 210.27 18.3 208.928 18.3ZM219.015 18.872H221.787V20.049H219.015V18.872ZM219.015 22.029H221.787V23.206H219.015V22.029ZM217.255 17.497C218.773 17.497 219.884 18.905 219.884 21.127C219.884 23.371 218.773 24.779 217.255 24.779C215.726 24.779 214.626 23.371 214.626 21.127C214.626 18.905 215.726 17.497 217.255 17.497ZM217.255 18.828C216.518 18.828 216.012 19.631 216.012 21.127C216.012 22.645 216.518 23.459 217.255 23.459C218.003 23.459 218.498 22.645 218.498 21.127C218.498 19.631 218.003 18.828 217.255 18.828ZM221.556 16.782H223.008V27.001H221.556V16.782ZM231.873 16.793H233.259V23.173H231.873V16.793ZM230.63 19.301H232.258V20.489H230.63V19.301ZM229.761 16.991H231.125V22.843H229.761V16.991ZM224.536 17.838H229.475V18.96H224.536V17.838ZM227.022 19.29C228.298 19.29 229.222 20.016 229.222 21.072C229.222 22.128 228.298 22.843 227.022 22.843C225.746 22.843 224.822 22.128 224.822 21.072C224.822 20.016 225.746 19.29 227.022 19.29ZM227.022 20.335C226.483 20.335 226.12 20.599 226.12 21.072C226.12 21.545 226.483 21.809 227.022 21.809C227.55 21.809 227.913 21.545 227.913 21.072C227.913 20.599 227.55 20.335 227.022 20.335ZM226.285 16.892H227.726V18.608H226.285V16.892ZM229.816 23.283C231.994 23.283 233.314 23.943 233.314 25.131C233.314 26.308 231.994 26.979 229.816 26.979C227.627 26.979 226.307 26.308 226.307 25.131C226.307 23.943 227.627 23.283 229.816 23.283ZM229.816 24.372C228.452 24.372 227.77 24.603 227.77 25.131C227.77 25.648 228.452 25.89 229.816 25.89C231.169 25.89 231.851 25.648 231.851 25.131C231.851 24.603 231.169 24.372 229.816 24.372Z" fill="white"/>
<path d="M109.054 5.738H110.223V6.228H109.054V5.738ZM108.627 3.211H109.215V9.546H108.627V3.211ZM104.595 3.834H105.176V7.754H104.595V3.834ZM104.595 7.453H105.099C106.037 7.453 106.996 7.39 108.039 7.173L108.109 7.656C107.031 7.88 106.058 7.943 105.099 7.943H104.595V7.453ZM113.351 5.675H114.548V6.158H113.351V5.675ZM115.605 3.218H116.165V9.546H115.605V3.218ZM114.352 3.351H114.905V9.231H114.352V3.351ZM112.21 3.743C113.029 3.743 113.561 4.59 113.561 5.948C113.561 7.306 113.029 8.153 112.21 8.153C111.391 8.153 110.866 7.306 110.866 5.948C110.866 4.59 111.391 3.743 112.21 3.743ZM112.21 4.282C111.713 4.282 111.398 4.926 111.398 5.948C111.398 6.97 111.713 7.614 112.21 7.614C112.714 7.614 113.029 6.97 113.029 5.948C113.029 4.926 112.714 4.282 112.21 4.282ZM122.045 3.218H122.605V9.546H122.045V3.218ZM119.301 5.801H120.897V6.27H119.301V5.801ZM120.729 3.379H121.275V9.224H120.729V3.379ZM119.378 4.016H119.938C119.938 5.675 119.273 7.166 117.565 8.181L117.222 7.768C118.713 6.872 119.378 5.612 119.378 4.121V4.016ZM117.502 4.016H119.595V4.492H117.502V4.016ZM128.57 3.498H130.39V3.967H128.57V3.498ZM125.637 6.228H131.349V6.704H125.637V6.228ZM128.325 4.954H128.899V6.438H128.325V4.954ZM130.145 3.498H130.705V3.778C130.705 4.17 130.705 4.821 130.523 5.689L129.963 5.619C130.145 4.751 130.145 4.163 130.145 3.778V3.498ZM126.26 7.369H130.628V9.518H130.047V7.845H126.26V7.369ZM126.127 3.498H127.793V3.967H126.127V3.498ZM127.485 3.498H128.045V3.715C128.045 4.079 128.045 4.772 127.751 5.696L127.191 5.612C127.485 4.681 127.485 4.072 127.485 3.715V3.498ZM134.304 3.645H137.209V6.361H134.304V3.645ZM136.642 4.114H134.871V5.892H136.642V4.114ZM138.371 3.218H138.952V6.823H138.371V3.218ZM138.791 4.737H139.89V5.22H138.791V4.737ZM136.684 7.418H137.181V7.586C137.181 8.58 136.138 9.315 134.892 9.525L134.668 9.077C135.76 8.909 136.684 8.293 136.684 7.586V7.418ZM136.796 7.418H137.293V7.586C137.293 8.279 138.231 8.909 139.302 9.084L139.085 9.532C137.846 9.322 136.796 8.559 136.796 7.586V7.418ZM134.913 7.201H139.064V7.663H134.913V7.201ZM141.255 5.115H145.553V5.591H141.255V5.115ZM140.478 6.438H146.218V6.914H140.478V6.438ZM141.255 3.449H141.829V5.353H141.255V3.449ZM141.213 8.916H145.588V9.392H141.213V8.916ZM141.213 7.544H141.787V9.042H141.213V7.544ZM150.664 3.449C151.609 3.449 152.302 4.023 152.302 4.856C152.302 5.682 151.609 6.256 150.664 6.256C149.726 6.256 149.033 5.682 149.033 4.856C149.033 4.023 149.726 3.449 150.664 3.449ZM150.664 3.925C150.055 3.925 149.593 4.31 149.593 4.856C149.593 5.402 150.055 5.78 150.664 5.78C151.28 5.78 151.735 5.402 151.735 4.856C151.735 4.31 151.28 3.925 150.664 3.925ZM153.492 3.218H154.08V6.459H153.492V3.218ZM149.985 6.767H154.08V8.307H150.566V9.259H149.999V7.873H153.506V7.236H149.985V6.767ZM149.999 9H154.29V9.462H149.999V9ZM158.706 4.856H160.134V5.339H158.706V4.856ZM159.952 3.218H160.533V6.991H159.952V3.218ZM158.454 7.18C159.756 7.18 160.561 7.621 160.561 8.363C160.561 9.112 159.756 9.539 158.454 9.539C157.145 9.539 156.34 9.112 156.34 8.363C156.34 7.621 157.145 7.18 158.454 7.18ZM158.454 7.635C157.502 7.635 156.921 7.901 156.921 8.363C156.921 8.818 157.502 9.084 158.454 9.084C159.406 9.084 159.987 8.818 159.987 8.363C159.987 7.901 159.406 7.635 158.454 7.635ZM156.942 3.855H157.418V4.366C157.418 5.535 156.704 6.536 155.654 6.928L155.353 6.466C156.291 6.123 156.942 5.276 156.942 4.366V3.855ZM157.054 3.855H157.523V4.366C157.523 5.185 158.139 5.969 159.056 6.291L158.762 6.753C157.733 6.382 157.054 5.43 157.054 4.366V3.855ZM155.528 3.68H158.909V4.156H155.528V3.68Z" fill="white"/>
<path d="M117.108 37.5568H117.628V43.4328H117.108V37.5568ZM116.152 39.9358H117.277V40.3778H116.152V39.9358ZM114.709 38.2588H115.229C115.229 39.7928 114.768 41.2358 112.987 42.2303L112.681 41.8338C114.254 40.9758 114.709 39.7408 114.709 38.3498V38.2588ZM112.967 38.2588H114.911V38.7073H112.967V38.2588ZM115.808 37.6998H116.321V43.1468H115.808V37.6998ZM114.644 39.5978V40.0008L112.753 40.1958L112.675 39.7278L114.644 39.5978ZM122.99 39.8968H124.075V40.3518H122.99V39.8968ZM122.593 37.5503H123.139V43.4328H122.593V37.5503ZM118.849 38.1288H119.389V41.7688H118.849V38.1288ZM118.849 41.4893H119.317C120.188 41.4893 121.079 41.4308 122.047 41.2293L122.112 41.6778C121.111 41.8858 120.208 41.9443 119.317 41.9443H118.849V41.4893ZM128.573 37.5503H129.119V43.4393H128.573V37.5503ZM128.989 39.8708H130.081V40.3258H128.989V39.8708ZM124.848 41.5218H125.31C126.395 41.5218 127.156 41.4828 128.033 41.3203L128.092 41.7753C127.188 41.9443 126.415 41.9768 125.31 41.9768H124.848V41.5218ZM124.848 38.1223H127.578V38.5643H125.381V41.7233H124.848V38.1223ZM132.896 37.7713H137.212V38.2133H132.896V37.7713ZM132.922 39.4808H137.186V39.9163H132.922V39.4808ZM133.787 37.9728H134.326V39.7278H133.787V37.9728ZM135.789 37.9728H136.322V39.7278H135.789V37.9728ZM132.402 40.6248H137.713V41.0603H132.402V40.6248ZM134.794 39.7863H135.327V40.8003H134.794V39.7863ZM132.994 41.6453H137.056V43.4328H136.517V42.0808H132.994V41.6453ZM138.388 42.2563H143.712V42.7048H138.388V42.2563ZM140.761 40.7353H141.3V42.4578H140.761V40.7353ZM138.85 38.1158H143.211V38.5578H138.85V38.1158ZM138.863 40.4818H143.205V40.9173H138.863V40.4818ZM139.766 38.4733H140.306V40.5598H139.766V38.4733ZM141.768 38.4733H142.301V40.5598H141.768V38.4733ZM146.865 40.2998H150.902V40.7418H146.865V40.2998ZM146.196 42.2433H151.519V42.6983H146.196V42.2433ZM148.575 40.4883H149.114V42.4253H148.575V40.4883ZM146.865 38.0248H150.843V38.4668H147.405V40.4948H146.865V38.0248ZM152.175 42.2368H157.499V42.6853H152.175V42.2368ZM154.554 40.8328H155.094V42.3668H154.554V40.8328ZM152.799 37.9728H153.332V39.0193H156.329V37.9728H156.862V40.9758H152.799V37.9728ZM153.332 39.4548V40.5338H156.329V39.4548H153.332ZM162.445 37.5568H162.984V43.4328H162.445V37.5568ZM161.073 39.9098H162.685V40.3583H161.073V39.9098ZM160.56 38.1873H161.093C161.093 39.8643 160.397 41.3463 158.447 42.3213L158.148 41.8988C159.858 41.0603 160.56 39.8123 160.56 38.2783V38.1873ZM158.402 38.1873H160.846V38.6293H158.402V38.1873ZM168.411 37.5503H168.951V43.4393H168.411V37.5503ZM164.472 41.5738H164.96C165.941 41.5738 166.819 41.5348 167.859 41.3658L167.917 41.8078C166.851 41.9833 165.967 42.0223 164.96 42.0223H164.472V41.5738ZM164.459 38.1028H167.176V40.2023H165.012V41.7428H164.472V39.7603H166.63V38.5448H164.459V38.1028ZM172.202 38.4148H176.973V38.8568H172.202V38.4148ZM171.942 42.3018H177.265V42.7503H171.942V42.3018ZM174.327 41.3723H174.86V42.4773H174.327V41.3723ZM174.587 39.2533C175.777 39.2533 176.511 39.6628 176.511 40.3713C176.511 41.0798 175.777 41.4893 174.587 41.4893C173.404 41.4893 172.67 41.0798 172.67 40.3713C172.67 39.6628 173.404 39.2533 174.587 39.2533ZM174.587 39.6758C173.736 39.6758 173.209 39.9358 173.209 40.3713C173.209 40.8068 173.736 41.0603 174.587 41.0603C175.445 41.0603 175.965 40.8068 175.965 40.3713C175.965 39.9358 175.445 39.6758 174.587 39.6758ZM174.327 37.6543H174.86V38.6878H174.327V37.6543ZM180.443 38.8763H181.444V39.3118H180.443V38.8763ZM178.188 40.0658H178.552C179.397 40.0658 179.969 40.0398 180.671 39.9098L180.723 40.3258C180.001 40.4623 179.416 40.4883 178.552 40.4883H178.188V40.0658ZM178.188 37.9078H180.404V38.3368H178.701V40.3388H178.188V37.9078ZM178.545 38.9608H180.17V39.3768H178.545V38.9608ZM182.354 37.5633H182.868V40.7353H182.354V37.5633ZM181.223 37.6608H181.73V40.6768H181.223V37.6608ZM178.994 41.0018H182.868V42.3603H179.54V43.2248H179.007V41.9573H182.348V41.4243H178.994V41.0018ZM179.007 42.9453H183.095V43.3678H179.007V42.9453ZM184.887 42.2795L184.85 42.5288C184.824 42.7042 184.784 42.8919 184.73 43.092C184.678 43.292 184.623 43.4805 184.566 43.6575C184.509 43.8345 184.462 43.9753 184.425 44.0799H184.01C184.03 43.9814 184.056 43.8514 184.088 43.6898C184.121 43.5282 184.153 43.3474 184.185 43.1474C184.219 42.9489 184.247 42.7457 184.268 42.538L184.296 42.2795H184.887ZM187.882 38.1288H190.586V41.9573H187.882V38.1288ZM190.06 38.5643H188.409V41.5218H190.06V38.5643ZM191.815 37.5503H192.354V43.4393H191.815V37.5503ZM194.206 37.8298H197.989V38.2718H194.206V37.8298ZM193.53 39.9358H198.854V40.3778H193.53V39.9358ZM195.916 40.2348H196.449V41.6193H195.916V40.2348ZM197.638 37.8298H198.165V38.2653C198.165 38.7528 198.165 39.3443 197.97 40.1503L197.443 40.0853C197.638 39.2988 197.638 38.7398 197.638 38.2653V37.8298ZM194.083 41.4438H198.204V43.4328H197.664V41.8858H194.083V41.4438ZM201.715 40.6452V41.1531H199.646V40.6452H201.715ZM206.965 37.5568H207.485V43.4328H206.965V37.5568ZM206.009 39.9358H207.134V40.3778H206.009V39.9358ZM204.566 38.2588H205.086C205.086 39.7928 204.625 41.2358 202.844 42.2303L202.538 41.8338C204.111 40.9758 204.566 39.7408 204.566 38.3498V38.2588ZM202.824 38.2588H204.768V38.7073H202.824V38.2588ZM205.665 37.6998H206.178V43.1468H205.665V37.6998ZM204.501 39.5978V40.0008L202.61 40.1958L202.532 39.7278L204.501 39.5978ZM212.847 39.8968H213.932V40.3518H212.847V39.8968ZM212.45 37.5503H212.996V43.4328H212.45V37.5503ZM208.706 38.1288H209.246V41.7688H208.706V38.1288ZM208.706 41.4893H209.174C210.045 41.4893 210.936 41.4308 211.904 41.2293L211.969 41.6778C210.968 41.8858 210.065 41.9443 209.174 41.9443H208.706V41.4893ZM218.43 37.5503H218.976V43.4393H218.43V37.5503ZM218.846 39.8708H219.938V40.3258H218.846V39.8708ZM214.705 41.5218H215.167C216.252 41.5218 217.013 41.4828 217.89 41.3203L217.949 41.7753C217.045 41.9443 216.272 41.9768 215.167 41.9768H214.705V41.5218ZM214.705 38.1223H217.435V38.5643H215.238V41.7233H214.705V38.1223ZM223.599 41.0603H224.138V43.4328H223.599V41.0603ZM225.698 41.0603H226.244V43.4328H225.698V41.0603ZM222.26 40.9888H227.59V41.4308H222.26V40.9888ZM222.929 37.7843H223.469V38.5708H226.374V37.7843H226.907V40.2998H222.929V37.7843ZM223.469 39.0128V39.8513H226.374V39.0128H223.469ZM230.074 42.2368H235.397V42.6853H230.074V42.2368ZM232.453 40.8328H232.992V42.3668H232.453V40.8328ZM230.698 37.9728H231.231V39.0193H234.227V37.9728H234.76V40.9758H230.698V37.9728ZM231.231 39.4548V40.5338H234.227V39.4548H231.231ZM237.496 38.1873H237.938V38.6618C237.938 39.7408 237.288 40.6443 236.3 41.0018L236.027 40.5728C236.911 40.2608 237.496 39.5003 237.496 38.6618V38.1873ZM237.594 38.1873H238.036V38.6553C238.036 39.4223 238.595 40.1113 239.459 40.3973L239.199 40.8198C238.218 40.4948 237.594 39.6563 237.594 38.6553V38.1873ZM236.19 37.9923H239.329V38.4343H236.19V37.9923ZM240.07 37.5568H240.61V41.0993H240.07V37.5568ZM240.46 39.0453H241.481V39.5003H240.46V39.0453ZM238.738 41.2553C239.934 41.2553 240.668 41.6518 240.668 42.3343C240.668 43.0233 239.934 43.4198 238.738 43.4198C237.542 43.4198 236.807 43.0233 236.807 42.3343C236.807 41.6518 237.542 41.2553 238.738 41.2553ZM238.738 41.6908C237.867 41.6908 237.334 41.9248 237.334 42.3343C237.334 42.7503 237.867 42.9973 238.738 42.9973C239.609 42.9973 240.142 42.7503 240.142 42.3343C240.142 41.9248 239.609 41.6908 238.738 41.6908Z" fill="white"/>
<path d="M107.585 38.4053H104.585V43.9153H110.185V40.7322" stroke="white"/>
<path d="M105.504 39.9951L107.341 42.1372L111.228 37.4243" stroke="white"/>
</g>
</g>
<defs>
<clipPath id="clip0_12136_18579">
<rect width="345" height="47" fill="white"/>
</clipPath>
</defs>
</svg>
