<svg width="801" height="110" viewBox="0 0 801 110" fill="none" xmlns="http://www.w3.org/2000/svg">
<g clip-path="url(#clip0_26_91)">
<mask id="mask0_26_91" style="mask-type:luminance" maskUnits="userSpaceOnUse" x="0" y="0" width="801" height="110">
<path d="M800.5 0.5H0.5V109.5H800.5V0.5Z" fill="white"/>
</mask>
<g mask="url(#mask0_26_91)">
<path d="M129.487 28.509H134.905V68.327H129.487V28.509ZM116.372 42.097H122.951V46.741H116.372V42.097ZM121.446 29.154H126.778V66.521H121.446V29.154ZM107.772 35.002H112.072V39.087C112.072 48.031 109.621 56.932 103.3 60.888L99.903 56.674C105.751 53.019 107.772 45.881 107.772 39.087V35.002ZM109.062 35.002H113.319V39.087C113.319 45.709 115.297 52.417 121.059 55.771L117.705 59.942C111.384 56.201 109.062 47.859 109.062 39.087V35.002ZM101.408 32.508H119.167V37.109H101.408V32.508ZM144.534 49.02H172.527V53.492H144.534V49.02ZM140.32 59.125H176.354V63.769H140.32V59.125ZM144.534 31.39H172.183V35.991H150.339V50.267H144.534V31.39ZM148.576 40.162H171.28V44.591H148.576V40.162ZM179.876 59.082H215.91V63.726H179.876V59.082ZM194.969 50.568H200.688V60.2H194.969V50.568ZM183.66 31.046H189.336V37.152H206.321V31.046H211.997V51.772H183.66V31.046ZM189.336 41.624V47.214H206.321V41.624H189.336ZM223.647 49.02H251.64V53.492H223.647V49.02ZM219.433 59.125H255.467V63.769H219.433V59.125ZM223.647 31.39H251.296V35.991H229.452V50.267H223.647V31.39ZM227.689 40.162H250.393V44.591H227.689V40.162ZM258.747 52.948H290.629V56.938H258.747V52.948ZM272.047 54.962H277.063V67.882H272.047V54.962ZM262.395 34.024H267.411V38.014H281.851V34.024H286.867V49.604H262.395V34.024ZM267.411 41.966V45.576H281.851V41.966H267.411ZM318.214 32.656H323.23V67.958H318.214V32.656ZM312.172 45.044H318.784V49.148H312.172V45.044ZM295.3 55.912H298.112C303.926 55.912 308.258 55.836 313.236 55.038L313.692 59.066C308.6 59.864 304.04 60.016 298.112 60.016H295.3V55.912ZM295.3 35.62H311.602V39.724H300.316V57.204H295.3V35.62ZM299.176 45.424H310.386V49.376H299.176V45.424ZM366.165 28.552H371.583V50.525H366.165V28.552ZM355.415 38.184H361.306V42.699H355.415V38.184ZM358.64 29.154H363.972V50.267H358.64V29.154ZM344.536 51.901H371.583V61.834H350.255V65.059H344.579V57.964H365.993V55.986H344.536V51.901ZM344.579 63.898H372.701V68.069H344.579V63.898ZM337.484 31.605H356.275V35.905H337.484V31.605ZM346.901 36.851C351.717 36.851 355.2 39.474 355.2 43.387C355.2 47.343 351.717 49.966 346.901 49.966C342.128 49.966 338.602 47.343 338.602 43.387C338.602 39.474 342.128 36.851 346.901 36.851ZM346.901 40.764C344.966 40.764 343.59 41.71 343.59 43.387C343.59 45.107 344.966 46.053 346.901 46.053C348.879 46.053 350.212 45.107 350.212 43.387C350.212 41.71 348.879 40.764 346.901 40.764ZM344.02 28.466H349.696V35.131H344.02V28.466ZM404.646 28.466H410.365V68.413H404.646V28.466ZM379.362 54.481H382.888C389.94 54.481 395.573 54.223 401.894 53.148L402.453 57.749C396.003 58.91 390.155 59.125 382.888 59.125H379.362V54.481ZM379.319 31.863H398.11V47.257H385.167V56.201H379.362V42.742H392.262V36.421H379.319V31.863ZM416.855 46.569H452.717V51.084H416.855V46.569ZM430.185 42.269H435.904V49.493H430.185V42.269ZM420.854 29.283H446.052V33.798H420.854V29.283ZM442.999 29.283H448.675V32.637C448.675 36.034 448.675 39.904 447.729 45.021L442.096 44.634C442.999 39.689 442.999 35.991 442.999 32.637V29.283ZM444.762 35.948V40.119L420.467 41.108L419.779 36.464L444.762 35.948ZM420.983 53.062H426.616V56.072H442.698V53.062H448.331V67.897H420.983V53.062ZM426.616 60.372V63.382H442.698V60.372H426.616ZM484.06 28.466H489.736V68.413H484.06V28.466ZM477.223 42.484H484.705V47.128H477.223V42.484ZM458.131 54.782H461.313C467.892 54.782 472.794 54.696 478.427 53.793L478.943 58.351C473.181 59.254 468.021 59.426 461.313 59.426H458.131V54.782ZM458.131 31.82H476.578V36.464H463.807V56.244H458.131V31.82ZM462.517 42.914H475.202V47.386H462.517V42.914ZM502.704 60.7216L502.556 62.206C502.439 63.3935 502.214 64.5765 501.881 65.755C501.557 66.9425 501.215 68.0175 500.855 68.9801C500.504 69.9427 500.221 70.6984 500.005 71.2472H496.281C496.416 70.7164 496.6 69.9742 496.834 69.0206C497.068 68.076 497.288 67.0144 497.495 65.8359C497.702 64.6574 497.833 63.4564 497.887 62.233L497.954 60.7216H502.704ZM542.23 28.552H547.992V50.525H542.23V28.552ZM521.074 52.245H548.164V56.76H521.074V52.245ZM520.687 63.382H548.551V67.897H520.687V63.382ZM525.761 53.406H531.351V65.317H525.761V53.406ZM537.887 53.406H543.52V65.317H537.887V53.406ZM524.557 32.121H529.287V34.658C529.287 41.925 525.589 48.418 517.892 50.783L515.054 46.311C521.676 44.29 524.557 39.431 524.557 34.658V32.121ZM525.718 32.121H530.405V34.658C530.405 39.13 533.243 43.774 539.736 45.666L536.898 50.095C529.373 47.816 525.718 41.581 525.718 34.658V32.121ZM516.559 30.702H538.231V35.217H516.559V30.702ZM579.981 28.466H585.657V68.413H579.981V28.466ZM584.367 43.516H591.419V48.246H584.367V43.516ZM556.073 54.481H559.427C566.178 54.481 571.424 54.266 577.272 53.234L577.831 57.835C571.811 58.91 566.35 59.168 559.427 59.168H556.073V54.481ZM556.03 31.863H574.348V47.3H561.749V56.244H556.073V42.742H568.672V36.421H556.03V31.863ZM621.343 28.552H627.105V57.147H621.343V28.552ZM600.574 63.081H628.094V67.639H600.574V63.081ZM600.574 54.266H606.293V64.93H600.574V54.266ZM605.433 31.046C611.539 31.046 616.226 35.26 616.226 41.151C616.226 46.999 611.539 51.256 605.433 51.256C599.327 51.256 594.597 46.999 594.597 41.151C594.597 35.26 599.327 31.046 605.433 31.046ZM605.433 35.991C602.466 35.991 600.187 37.883 600.187 41.151C600.187 44.376 602.466 46.268 605.433 46.268C608.357 46.268 610.636 44.376 610.636 41.151C610.636 37.883 608.357 35.991 605.433 35.991ZM656.266 32.694H661.32V67.882H656.266V32.694ZM659.762 46.45H665.88V50.63H659.762V46.45ZM639.014 36.266H643.726C643.726 46.032 642.814 53.518 636.582 60.51L632.63 57.66C638.064 51.656 639.014 45.804 639.014 36.874V36.266ZM634.188 36.266H640.99V40.37H634.188V36.266ZM648.704 36.266H653.416C653.416 46.488 652.58 55.114 646.462 62.752L642.51 59.94C647.83 53.214 648.704 46.45 648.704 36.836V36.266ZM644.904 36.266H650.794V40.37H644.904V36.266ZM676.783 38.242H680.811V42.194C680.811 50.326 677.505 58.268 670.893 61.27L668.043 57.28C673.933 54.658 676.783 48.16 676.783 42.194V38.242ZM677.923 38.242H681.913V42.194C681.913 47.894 684.725 53.974 690.615 56.406L687.879 60.396C681.191 57.508 677.923 50.022 677.923 42.194V38.242ZM669.449 36.076H689.171V40.218H669.449V36.076ZM692.439 32.694H697.531V67.882H692.439V32.694Z" fill="white"/>
<path d="M114.523 10.981H118.114V12.486H114.523V10.981ZM113.212 3.2195H115.018V22.677H113.212V3.2195ZM100.828 5.133H102.612V17.173H100.828V5.133ZM100.828 16.2485H102.376C105.257 16.2485 108.202 16.055 111.406 15.3885L111.621 16.872C108.31 17.56 105.321 17.7535 102.376 17.7535H100.828V16.2485ZM133.957 3.2195H135.742V22.6985H133.957V3.2195ZM125.486 4.7245C128.367 4.7245 130.431 7.369 130.431 11.497C130.431 15.6465 128.367 18.291 125.486 18.291C122.627 18.291 120.563 15.6465 120.563 11.497C120.563 7.369 122.627 4.7245 125.486 4.7245ZM125.486 6.337C123.594 6.337 122.261 8.358 122.261 11.497C122.261 14.6575 123.594 16.7215 125.486 16.7215C127.4 16.7215 128.711 14.6575 128.711 11.497C128.711 8.358 127.4 6.337 125.486 6.337ZM144.792 4.7245C147.651 4.7245 149.672 7.369 149.672 11.497C149.672 15.6465 147.651 18.291 144.792 18.291C141.932 18.291 139.911 15.6465 139.911 11.497C139.911 7.369 141.932 4.7245 144.792 4.7245ZM144.792 6.337C142.9 6.337 141.61 8.358 141.61 11.497C141.61 14.6575 142.9 16.7215 144.792 16.7215C146.662 16.7215 147.974 14.6575 147.974 11.497C147.974 8.358 146.662 6.337 144.792 6.337ZM152.768 3.241H154.574V22.677H152.768V3.241ZM154.144 11.0025H157.756V12.5075H154.144V11.0025ZM172.546 3.2195H174.352V22.677H172.546V3.2195ZM173.858 11.11H177.448V12.5935H173.858V11.11ZM167.58 5.3265H169.321C169.321 10.852 166.784 15.84 160.506 19.0005L159.517 17.6245C164.892 14.894 167.58 10.7445 167.58 5.606V5.3265ZM160.42 5.3265H168.504V6.7885H160.42V5.3265ZM192.346 3.2195H194.131V22.6985H192.346V3.2195ZM193.701 10.9595H197.313V12.4645H193.701V10.9595ZM179.962 16.528H181.51C185.165 16.528 187.702 16.399 190.648 15.84L190.841 17.3235C187.81 17.861 185.23 18.0115 181.51 18.0115H179.962V16.528ZM179.919 5.047H188.713V12.013H181.725V17.13H179.962V10.551H186.95V6.509H179.919V5.047ZM206.626 3.9505H220.902V5.4125H206.626V3.9505ZM206.712 9.605H220.816V11.0455H206.712V9.605ZM209.571 4.617H211.356V10.422H209.571V4.617ZM216.193 4.617H217.956V10.422H216.193V4.617ZM204.992 13.389H222.557V14.8295H204.992V13.389ZM212.904 10.6155H214.667V13.9695H212.904V10.6155ZM206.948 16.7645H220.386V22.677H218.601V18.205H206.948V16.7645ZM224.792 18.7855H242.4V20.269H224.792V18.7855ZM232.639 13.7545H234.424V19.452H232.639V13.7545ZM226.318 5.09H240.745V6.552H226.318V5.09ZM226.361 12.916H240.723V14.3565H226.361V12.916ZM229.35 6.2725H231.134V13.174H229.35V6.2725ZM235.972 6.2725H237.735V13.174H235.972V6.2725ZM249.472 13.045H251.257V17.689H249.472V13.045ZM250.354 4.488C253.342 4.488 255.492 6.3585 255.492 9.0675C255.492 11.7765 253.342 13.647 250.354 13.647C247.365 13.647 245.215 11.7765 245.215 9.0675C245.215 6.3585 247.365 4.488 250.354 4.488ZM250.354 6.0145C248.376 6.0145 246.957 7.2615 246.957 9.0675C246.957 10.8735 248.376 12.1205 250.354 12.1205C252.332 12.1205 253.751 10.8735 253.751 9.0675C253.751 7.2615 252.332 6.0145 250.354 6.0145ZM257.707 3.241H259.491V22.677H257.707V3.241ZM258.975 11.239H262.566V12.744H258.975V11.239ZM244.592 18.4845L244.334 17.001C247.838 16.9795 252.525 16.958 256.481 16.4205L256.632 17.7535C252.525 18.4415 247.989 18.4845 244.592 18.4845ZM283.682 3.241H285.467V14.8725H283.682V3.241ZM284.972 8.2505H288.348V9.7555H284.972V8.2505ZM278.307 4.66H280.221C280.221 9.648 276.759 13.2815 271.148 14.937L270.395 13.4965C275.34 12.0345 278.307 9.1105 278.307 5.477V4.66ZM271.255 4.66H279.318V6.1435H271.255V4.66ZM279.382 15.109C283.231 15.109 285.682 16.528 285.682 18.8715C285.682 21.215 283.231 22.634 279.382 22.634C275.512 22.634 273.04 21.215 273.04 18.8715C273.04 16.528 275.512 15.109 279.382 15.109ZM279.382 16.528C276.587 16.528 274.803 17.4095 274.803 18.8715C274.803 20.3335 276.587 21.215 279.382 21.215C282.177 21.215 283.962 20.3335 283.962 18.8715C283.962 17.4095 282.177 16.528 279.382 16.528ZM298.043 10.7875H301.719V12.271H298.043V10.7875ZM304.966 3.241H306.686V22.677H304.966V3.241ZM301.117 3.6495H302.816V21.7095H301.117V3.6495ZM294.538 4.8535C297.054 4.8535 298.688 7.455 298.688 11.626C298.688 15.797 297.054 18.3985 294.538 18.3985C292.023 18.3985 290.41 15.797 290.41 11.626C290.41 7.455 292.023 4.8535 294.538 4.8535ZM294.538 6.509C293.012 6.509 292.044 8.487 292.044 11.626C292.044 14.765 293.012 16.743 294.538 16.743C296.086 16.743 297.054 14.765 297.054 11.626C297.054 8.487 296.086 6.509 294.538 6.509ZM319.648 9.82H325.066V11.282H319.648V9.82ZM314.961 4.918H316.423V8.3795C316.423 12.744 314.123 16.915 311.048 18.5705L309.909 17.1515C312.768 15.7325 314.961 11.9915 314.961 8.3795V4.918ZM315.305 4.918H316.746V8.3795C316.746 11.927 318.939 15.453 321.755 16.786L320.702 18.2265C317.563 16.6355 315.305 12.6365 315.305 8.3795V4.918ZM324.185 3.2195H325.948V22.6985H324.185V3.2195ZM335.756 11.5185H353.321V12.959H335.756V11.5185ZM337.884 14.7005H351.085V19.151H339.69V21.516H337.927V17.8395H349.322V16.0765H337.884V14.7005ZM337.927 21.086H351.666V22.462H337.927V21.086ZM343.517 4.574H345.087V5.1975C345.087 8.186 341.432 10.1425 337.282 10.5295L336.702 9.175C340.292 8.8525 343.517 7.283 343.517 5.1975V4.574ZM344.033 4.574H345.581V5.1975C345.581 7.283 348.806 8.8525 352.397 9.175L351.816 10.5295C347.688 10.1425 344.033 8.186 344.033 5.1975V4.574ZM337.368 3.972H351.752V5.391H337.368V3.972ZM369.702 3.241H371.487V22.677H369.702V3.241ZM364.005 5.3265H365.768C365.768 10.9595 363.231 15.883 356.738 19.065L355.792 17.6245C361.403 14.9155 364.005 10.7875 364.005 5.6275V5.3265ZM356.673 5.3265H364.779V6.7885H356.673V5.3265ZM380.128 6.0145H381.547V9.175C381.547 13.217 379.075 17.388 376.043 18.936L375.011 17.517C377.785 16.1625 380.128 12.4645 380.128 9.175V6.0145ZM380.451 6.0145H381.87V9.175C381.87 12.2495 384.063 15.711 386.879 17.044L385.869 18.463C382.794 16.9365 380.451 13.0235 380.451 9.175V6.0145ZM375.699 5.219H386.17V6.724H375.699V5.219ZM388.47 3.241H390.276V22.677H388.47V3.241ZM389.846 11.0885H393.458V12.5935H389.846V11.0885ZM398.068 5.36364L397.916 16.6023H396.144L395.992 5.36364H398.068ZM397.03 21.1222C396.653 21.1222 396.33 20.9873 396.06 20.7175C395.791 20.4477 395.656 20.1245 395.656 19.7479C395.656 19.3712 395.791 19.048 396.06 18.7782C396.33 18.5085 396.653 18.3736 397.03 18.3736C397.407 18.3736 397.73 18.5085 398 18.7782C398.269 19.048 398.404 19.3712 398.404 19.7479C398.404 19.9973 398.341 20.2263 398.213 20.435C398.091 20.6437 397.926 20.8117 397.717 20.9389C397.514 21.0611 397.285 21.1222 397.03 21.1222Z" fill="white"/>
<path d="M124.244 90.658C126.368 90.658 127.934 92.224 127.934 94.51C127.934 96.76 126.368 98.326 124.244 98.326C122.084 98.326 120.536 96.76 120.536 94.51C120.536 92.224 122.084 90.658 124.244 90.658ZM124.244 91.918C122.894 91.918 121.904 92.998 121.904 94.51C121.904 96.004 122.894 97.084 124.244 97.084C125.576 97.084 126.584 96.004 126.584 94.51C126.584 92.998 125.576 91.918 124.244 91.918ZM132.668 89.65H134.09V99.316H132.668V89.65ZM130.04 93.808H133.118V95.05H130.04V93.808ZM129.194 89.938H130.616V99.226H129.194V89.938ZM123.182 100.216H134.09V105.904H132.614V101.44H123.182V100.216ZM137.977 100.756H139.273C142.315 100.756 144.439 100.666 146.941 100.252L147.085 101.458C144.529 101.908 142.369 101.998 139.273 101.998H137.977V100.756ZM137.977 91.108H145.861V92.35H139.453V101.188H137.977V91.108ZM139.093 95.662H145.267V96.868H139.093V95.662ZM148.795 89.632H150.289V105.904H148.795V89.632ZM165.317 89.614H166.811V105.922H165.317V89.614ZM154.427 91H155.903V95.302H160.601V91H162.095V101.998H154.427V91ZM155.903 96.49V100.774H160.601V96.49H155.903ZM171.094 100.756H172.39C175.432 100.756 177.556 100.666 180.058 100.252L180.202 101.458C177.646 101.908 175.486 101.998 172.39 101.998H171.094V100.756ZM171.094 91.108H178.978V92.35H172.57V101.188H171.094V91.108ZM172.21 95.662H178.384V96.868H172.21V95.662ZM181.912 89.632H183.406V105.904H181.912V89.632ZM188.48 97.228H199.658V98.452H188.48V97.228ZM186.626 102.61H201.368V103.87H186.626V102.61ZM193.214 97.75H194.708V103.114H193.214V97.75ZM188.48 90.928H199.496V92.152H189.974V97.768H188.48V90.928ZM208.931 100.756H210.209C213.215 100.756 215.285 100.684 217.733 100.252L217.895 101.476C215.375 101.908 213.251 101.998 210.209 101.998H208.931V100.756ZM208.931 91.108H216.509V92.35H210.425V101.188H208.931V91.108ZM210.047 95.662H216.149V96.868H210.047V95.662ZM219.245 89.632H220.757V105.904H219.245V89.632ZM220.397 96.166H223.421V97.426H220.397V96.166ZM225.724 91.216H233.212V101.818H225.724V91.216ZM231.754 92.422H227.182V100.612H231.754V92.422ZM236.614 89.614H238.108V105.922H236.614V89.614ZM247.881 90.748H249.177V91.99C249.177 95.536 245.883 98.29 242.625 99.028L241.959 97.786C244.821 97.246 247.881 94.762 247.881 91.99V90.748ZM248.151 90.748H249.447V91.99C249.447 94.78 252.525 97.246 255.369 97.786L254.703 99.028C251.463 98.29 248.151 95.554 248.151 91.99V90.748ZM241.365 102.484H256.107V103.708H241.365V102.484ZM262.027 97.84H263.521V101.728H262.027V97.84ZM262.765 90.676C265.267 90.676 267.067 92.242 267.067 94.51C267.067 96.778 265.267 98.344 262.765 98.344C260.263 98.344 258.463 96.778 258.463 94.51C258.463 92.242 260.263 90.676 262.765 90.676ZM262.765 91.954C261.109 91.954 259.921 92.998 259.921 94.51C259.921 96.022 261.109 97.066 262.765 97.066C264.421 97.066 265.609 96.022 265.609 94.51C265.609 92.998 264.421 91.954 262.765 91.954ZM268.921 89.632H270.415V105.904H268.921V89.632ZM269.983 96.328H272.989V97.588H269.983V96.328ZM257.941 102.394L257.725 101.152C260.659 101.134 264.583 101.116 267.895 100.666L268.021 101.782C264.583 102.358 260.785 102.394 257.941 102.394ZM290.668 89.632H292.162V99.424H290.668V89.632ZM291.748 93.952H294.574V95.194H291.748V93.952ZM281.938 100.342H292.162V105.688H281.938V100.342ZM290.704 101.548H283.396V104.482H290.704V101.548ZM279.58 91.342H289.192V92.566H279.58V91.342ZM284.386 93.358C286.708 93.358 288.274 94.51 288.274 96.274C288.274 98.038 286.708 99.154 284.386 99.154C282.046 99.154 280.48 98.038 280.48 96.274C280.48 94.51 282.046 93.358 284.386 93.358ZM284.386 94.51C282.892 94.51 281.902 95.194 281.902 96.274C281.902 97.336 282.892 98.02 284.386 98.02C285.844 98.02 286.852 97.336 286.852 96.274C286.852 95.194 285.844 94.51 284.386 94.51ZM283.63 89.488H285.124V91.972H283.63V89.488ZM298.821 91.576H300.081C300.081 95.068 299.613 98.902 297.291 102.07L296.121 101.386C298.353 98.488 298.821 95.086 298.821 91.684V91.576ZM296.463 91.576H299.559V92.818H296.463V91.576ZM302.403 91.576H303.681C303.681 95.014 303.465 99.586 300.909 103.114L299.721 102.43C302.205 99.19 302.403 94.96 302.403 91.702V91.576ZM300.621 91.576H303.195V92.818H300.621V91.576ZM308.541 89.632H309.981V105.904H308.541V89.632ZM302.925 96.022H305.841V97.246H302.925V96.022ZM305.535 90.046H306.939V105.076H305.535V90.046Z" fill="white"/>
<path d="M107.562 92.292H100V106.181H114.12V98.156" stroke="white" stroke-width="1.8"/>
<path d="M102.315 96.302L106.944 101.702L116.744 89.8191" stroke="white" stroke-width="1.8"/>
</g>
</g>
<defs>
<clipPath id="clip0_26_91">
<rect width="800" height="109" fill="white" transform="translate(0.5 0.5)"/>
</clipPath>
</defs>
</svg>
