<svg width="181" height="44" viewBox="0 0 181 44" fill="none" xmlns="http://www.w3.org/2000/svg">
<path d="M6.054 4.238H7.223V4.728H6.054V4.238ZM5.627 1.711H6.215V8.046H5.627V1.711ZM1.595 2.334H2.176V6.254H1.595V2.334ZM1.595 5.953H2.099C3.037 5.953 3.996 5.89 5.039 5.673L5.109 6.156C4.031 6.38 3.058 6.443 2.099 6.443H1.595V5.953ZM12.3815 1.711H12.9625V8.053H12.3815V1.711ZM9.62345 2.201C10.5615 2.201 11.2335 3.062 11.2335 4.406C11.2335 5.757 10.5615 6.618 9.62345 6.618C8.69245 6.618 8.02045 5.757 8.02045 4.406C8.02045 3.062 8.69245 2.201 9.62345 2.201ZM9.62345 2.726C9.00745 2.726 8.57345 3.384 8.57345 4.406C8.57345 5.435 9.00745 6.107 9.62345 6.107C10.2465 6.107 10.6735 5.435 10.6735 4.406C10.6735 3.384 10.2465 2.726 9.62345 2.726ZM15.9089 2.201C16.8399 2.201 17.4979 3.062 17.4979 4.406C17.4979 5.757 16.8399 6.618 15.9089 6.618C14.9779 6.618 14.3199 5.757 14.3199 4.406C14.3199 3.062 14.9779 2.201 15.9089 2.201ZM15.9089 2.726C15.2929 2.726 14.8729 3.384 14.8729 4.406C14.8729 5.435 15.2929 6.107 15.9089 6.107C16.5179 6.107 16.9449 5.435 16.9449 4.406C16.9449 3.384 16.5179 2.726 15.9089 2.726ZM18.5059 1.718H19.0939V8.046H18.5059V1.718ZM18.9539 4.245H20.1299V4.735H18.9539V4.245ZM24.9454 1.711H25.5334V8.046H24.9454V1.711ZM25.3724 4.28H26.5414V4.763H25.3724V4.28ZM23.3284 2.397H23.8954C23.8954 4.196 23.0694 5.82 21.0254 6.849L20.7034 6.401C22.4534 5.512 23.3284 4.161 23.3284 2.488V2.397ZM20.9974 2.397H23.6294V2.873H20.9974V2.397ZM31.3918 1.711H31.9728V8.053H31.3918V1.711ZM31.8328 4.231H33.0088V4.721H31.8328V4.231ZM27.3598 6.044H27.8638C29.0538 6.044 29.8798 6.002 30.8388 5.82L30.9018 6.303C29.9148 6.478 29.0748 6.527 27.8638 6.527H27.3598V6.044ZM27.3458 2.306H30.2088V4.574H27.9338V6.24H27.3598V4.098H29.6348V2.782H27.3458V2.306ZM36.041 1.949H40.689V2.425H36.041V1.949ZM36.069 3.79H40.661V4.259H36.069V3.79ZM37 2.166H37.581V4.056H37V2.166ZM39.156 2.166H39.73V4.056H39.156V2.166ZM35.509 5.022H41.228V5.491H35.509V5.022ZM38.085 4.119H38.659V5.211H38.085V4.119ZM36.146 6.121H40.521V8.046H39.94V6.59H36.146V6.121ZM41.9555 6.779H47.6885V7.262H41.9555V6.779ZM44.5105 5.141H45.0915V6.996H44.5105V5.141ZM42.4525 2.32H47.1495V2.796H42.4525V2.32ZM42.4665 4.868H47.1425V5.337H42.4665V4.868ZM43.4395 2.705H44.0205V4.952H43.4395V2.705ZM45.5955 2.705H46.1695V4.952H45.5955V2.705ZM49.9909 4.91H50.5719V6.422H49.9909V4.91ZM50.2779 2.124C51.2509 2.124 51.9509 2.733 51.9509 3.615C51.9509 4.497 51.2509 5.106 50.2779 5.106C49.3049 5.106 48.6049 4.497 48.6049 3.615C48.6049 2.733 49.3049 2.124 50.2779 2.124ZM50.2779 2.621C49.6339 2.621 49.1719 3.027 49.1719 3.615C49.1719 4.203 49.6339 4.609 50.2779 4.609C50.9219 4.609 51.3839 4.203 51.3839 3.615C51.3839 3.027 50.9219 2.621 50.2779 2.621ZM52.6719 1.718H53.2529V8.046H52.6719V1.718ZM53.0849 4.322H54.2539V4.812H53.0849V4.322ZM48.4019 6.681L48.3179 6.198C49.4589 6.191 50.9849 6.184 52.2729 6.009L52.3219 6.443C50.9849 6.667 49.5079 6.681 48.4019 6.681ZM61.1291 1.718H61.7101V5.505H61.1291V1.718ZM61.5491 3.349H62.6481V3.839H61.5491V3.349ZM59.3791 2.18H60.0021C60.0021 3.804 58.8751 4.987 57.0481 5.526L56.8031 5.057C58.4131 4.581 59.3791 3.629 59.3791 2.446V2.18ZM57.0831 2.18H59.7081V2.663H57.0831V2.18ZM59.7291 5.582C60.9821 5.582 61.7801 6.044 61.7801 6.807C61.7801 7.57 60.9821 8.032 59.7291 8.032C58.4691 8.032 57.6641 7.57 57.6641 6.807C57.6641 6.044 58.4691 5.582 59.7291 5.582ZM59.7291 6.044C58.8191 6.044 58.2381 6.331 58.2381 6.807C58.2381 7.283 58.8191 7.57 59.7291 7.57C60.6391 7.57 61.2201 7.283 61.2201 6.807C61.2201 6.331 60.6391 6.044 59.7291 6.044ZM65.8046 4.175H67.0016V4.658H65.8046V4.175ZM68.0586 1.718H68.6186V8.046H68.0586V1.718ZM66.8056 1.851H67.3586V7.731H66.8056V1.851ZM64.6636 2.243C65.4826 2.243 66.0146 3.09 66.0146 4.448C66.0146 5.806 65.4826 6.653 64.6636 6.653C63.8446 6.653 63.3196 5.806 63.3196 4.448C63.3196 3.09 63.8446 2.243 64.6636 2.243ZM64.6636 2.782C64.1666 2.782 63.8516 3.426 63.8516 4.448C63.8516 5.47 64.1666 6.114 64.6636 6.114C65.1676 6.114 65.4826 5.47 65.4826 4.448C65.4826 3.426 65.1676 2.782 64.6636 2.782ZM72.839 3.86H74.603V4.336H72.839V3.86ZM71.313 2.264H71.789V3.391C71.789 4.812 71.04 6.17 70.039 6.709L69.668 6.247C70.599 5.785 71.313 4.567 71.313 3.391V2.264ZM71.425 2.264H71.894V3.391C71.894 4.546 72.608 5.694 73.525 6.128L73.182 6.597C72.16 6.079 71.425 4.777 71.425 3.391V2.264ZM74.316 1.711H74.89V8.053H74.316V1.711ZM78.0832 4.413H83.8022V4.882H78.0832V4.413ZM78.7762 5.449H83.0742V6.898H79.3642V7.668H78.7902V6.471H82.5002V5.897H78.7762V5.449ZM78.7902 7.528H83.2632V7.976H78.7902V7.528ZM80.6102 2.152H81.1212V2.355C81.1212 3.328 79.9312 3.965 78.5802 4.091L78.3912 3.65C79.5602 3.545 80.6102 3.034 80.6102 2.355V2.152ZM80.7782 2.152H81.2822V2.355C81.2822 3.034 82.3322 3.545 83.5012 3.65L83.3122 4.091C81.9682 3.965 80.7782 3.328 80.7782 2.355V2.152ZM78.6082 1.956H83.2912V2.418H78.6082V1.956ZM89.1357 1.718H89.7167V8.046H89.1357V1.718ZM87.2807 2.397H87.8547C87.8547 4.231 87.0287 5.834 84.9147 6.87L84.6067 6.401C86.4337 5.519 87.2807 4.175 87.2807 2.495V2.397ZM84.8937 2.397H87.5327V2.873H84.8937V2.397ZM92.5301 2.621H92.9921V3.65C92.9921 4.966 92.1871 6.324 91.2001 6.828L90.8641 6.366C91.7671 5.925 92.5301 4.721 92.5301 3.65V2.621ZM92.6351 2.621H93.0971V3.65C93.0971 4.651 93.8111 5.778 94.7281 6.212L94.3991 6.674C93.3981 6.177 92.6351 4.903 92.6351 3.65V2.621ZM91.0881 2.362H94.4971V2.852H91.0881V2.362ZM95.2461 1.718H95.8341V8.046H95.2461V1.718ZM95.6941 4.273H96.8701V4.763H95.6941V4.273ZM98.3711 2.40909L98.3214 6.06818H97.7447L97.695 2.40909H98.3711ZM98.033 7.53977C97.9104 7.53977 97.8052 7.49586 97.7173 7.40803C97.6295 7.32019 97.5856 7.21496 97.5856 7.09233C97.5856 6.9697 97.6295 6.86446 97.7173 6.77663C97.8052 6.6888 97.9104 6.64489 98.033 6.64489C98.1557 6.64489 98.2609 6.6888 98.3487 6.77663C98.4366 6.86446 98.4805 6.9697 98.4805 7.09233C98.4805 7.17353 98.4598 7.24811 98.4183 7.31605C98.3786 7.384 98.3247 7.43868 98.2567 7.48011C98.1905 7.51989 98.1159 7.53977 98.033 7.53977Z" fill="white"/>
<path d="M11.033 36.4275C11.8 36.4275 12.3655 36.993 12.3655 37.8185C12.3655 38.631 11.8 39.1965 11.033 39.1965C10.253 39.1965 9.69402 38.631 9.69402 37.8185C9.69402 36.993 10.253 36.4275 11.033 36.4275ZM11.033 36.8825C10.5455 36.8825 10.188 37.2725 10.188 37.8185C10.188 38.358 10.5455 38.748 11.033 38.748C11.514 38.748 11.878 38.358 11.878 37.8185C11.878 37.2725 11.514 36.8825 11.033 36.8825ZM14.075 36.0635H14.5885V39.554H14.075V36.0635ZM13.126 37.565H14.2375V38.0135H13.126V37.565ZM12.8205 36.1675H13.334V39.5215H12.8205V36.1675ZM10.6495 39.879H14.5885V41.933H14.0555V40.321H10.6495V39.879ZM15.992 40.074H16.46C17.5585 40.074 18.3255 40.0415 19.229 39.892L19.281 40.3275C18.358 40.49 17.578 40.5225 16.46 40.5225H15.992V40.074ZM15.992 36.59H18.839V37.0385H16.525V40.23H15.992V36.59ZM16.395 38.2345H18.6245V38.67H16.395V38.2345ZM19.8985 36.057H20.438V41.933H19.8985V36.057ZM25.865 36.0505H26.4045V41.9395H25.865V36.0505ZM21.9325 36.551H22.4655V38.1045H24.162V36.551H24.7015V40.5225H21.9325V36.551ZM22.4655 38.5335V40.0805H24.162V38.5335H22.4655ZM27.951 40.074H28.419C29.5175 40.074 30.2845 40.0415 31.188 39.892L31.24 40.3275C30.317 40.49 29.537 40.5225 28.419 40.5225H27.951V40.074ZM27.951 36.59H30.798V37.0385H28.484V40.23H27.951V36.59ZM28.354 38.2345H30.5835V38.67H28.354V38.2345ZM31.8575 36.057H32.397V41.933H31.8575V36.057ZM34.2295 38.8H38.266V39.242H34.2295V38.8ZM33.56 40.7435H38.8835V41.1985H33.56V40.7435ZM35.939 38.9885H36.4785V40.9255H35.939V38.9885ZM34.2295 36.525H38.2075V36.967H34.769V38.995H34.2295V36.525ZM41.6146 40.074H42.0761C43.1616 40.074 43.9091 40.048 44.7931 39.892L44.8516 40.334C43.9416 40.49 43.1746 40.5225 42.0761 40.5225H41.6146V40.074ZM41.6146 36.59H44.3511V37.0385H42.1541V40.23H41.6146V36.59ZM42.0176 38.2345H44.2211V38.67H42.0176V38.2345ZM45.3391 36.057H45.8851V41.933H45.3391V36.057ZM45.7551 38.4165H46.8471V38.8715H45.7551V38.4165ZM47.6786 36.629H50.3826V40.4575H47.6786V36.629ZM49.8561 37.0645H48.2051V40.022H49.8561V37.0645ZM51.6111 36.0505H52.1506V41.9395H51.6111V36.0505ZM55.6796 36.46H56.1476V36.9085C56.1476 38.189 54.9581 39.1835 53.7816 39.45L53.5411 39.0015C54.5746 38.8065 55.6796 37.9095 55.6796 36.9085V36.46ZM55.7771 36.46H56.2451V36.9085C56.2451 37.916 57.3566 38.8065 58.3836 39.0015L58.1431 39.45C56.9731 39.1835 55.7771 38.1955 55.7771 36.9085V36.46ZM53.3266 40.698H58.6501V41.14H53.3266V40.698ZM60.7881 39.021H61.3276V40.425H60.7881V39.021ZM61.0546 36.434C61.9581 36.434 62.6081 36.9995 62.6081 37.8185C62.6081 38.6375 61.9581 39.203 61.0546 39.203C60.1511 39.203 59.5011 38.6375 59.5011 37.8185C59.5011 36.9995 60.1511 36.434 61.0546 36.434ZM61.0546 36.8955C60.4566 36.8955 60.0276 37.2725 60.0276 37.8185C60.0276 38.3645 60.4566 38.7415 61.0546 38.7415C61.6526 38.7415 62.0816 38.3645 62.0816 37.8185C62.0816 37.2725 61.6526 36.8955 61.0546 36.8955ZM63.2776 36.057H63.8171V41.933H63.2776V36.057ZM63.6611 38.475H64.7466V38.93H63.6611V38.475ZM59.3126 40.6655L59.2346 40.217C60.2941 40.2105 61.7111 40.204 62.9071 40.0415L62.9526 40.4445C61.7111 40.6525 60.3396 40.6655 59.3126 40.6655ZM71.1307 36.057H71.6702V39.593H71.1307V36.057ZM71.5207 37.617H72.5412V38.0655H71.5207V37.617ZM67.9782 39.9245H71.6702V41.855H67.9782V39.9245ZM71.1437 40.36H68.5047V41.4195H71.1437V40.36ZM67.1267 36.6745H70.5977V37.1165H67.1267V36.6745ZM68.8622 37.4025C69.7007 37.4025 70.2662 37.8185 70.2662 38.4555C70.2662 39.0925 69.7007 39.4955 68.8622 39.4955C68.0172 39.4955 67.4517 39.0925 67.4517 38.4555C67.4517 37.8185 68.0172 37.4025 68.8622 37.4025ZM68.8622 37.8185C68.3227 37.8185 67.9652 38.0655 67.9652 38.4555C67.9652 38.839 68.3227 39.086 68.8622 39.086C69.3887 39.086 69.7527 38.839 69.7527 38.4555C69.7527 38.0655 69.3887 37.8185 68.8622 37.8185ZM68.5892 36.005H69.1287V36.902H68.5892V36.005ZM74.0747 36.759H74.5297C74.5297 38.02 74.3607 39.4045 73.5222 40.5485L73.0997 40.3015C73.9057 39.255 74.0747 38.0265 74.0747 36.798V36.759ZM73.2232 36.759H74.3412V37.2075H73.2232V36.759ZM75.3682 36.759H75.8297C75.8297 38.0005 75.7517 39.6515 74.8287 40.9255L74.3997 40.6785C75.2967 39.5085 75.3682 37.981 75.3682 36.8045V36.759ZM74.7247 36.759H75.6542V37.2075H74.7247V36.759ZM77.5847 36.057H78.1047V41.933H77.5847V36.057ZM75.5567 38.3645H76.6097V38.8065H75.5567V38.3645ZM76.4992 36.2065H77.0062V41.634H76.4992V36.2065Z" fill="white"/>
<path d="M4.58484 36.905H1.58484V42.415H7.18494V39.2319" stroke="white"/>
<path d="M2.50424 38.4949L4.34116 40.637L8.22787 35.9241" stroke="white"/>
<path d="M9.217 13.619H10.855V25.657H9.217V13.619ZM5.252 17.727H7.241V19.131H5.252V17.727ZM6.786 13.814H8.398V25.111H6.786V13.814ZM2.652 15.582H3.952V16.817C3.952 19.521 3.211 22.212 1.3 23.408L0.273 22.134C2.041 21.029 2.652 18.871 2.652 16.817V15.582ZM3.042 15.582H4.329V16.817C4.329 18.819 4.927 20.847 6.669 21.861L5.655 23.122C3.744 21.991 3.042 19.469 3.042 16.817V15.582ZM0.728 14.828H6.097V16.219H0.728V14.828ZM13.766 19.82H22.229V21.172H13.766V19.82ZM12.492 22.875H23.386V24.279H12.492V22.875ZM13.766 14.49H22.125V15.881H15.521V20.197H13.766V14.49ZM14.988 17.142H21.852V18.481H14.988V17.142ZM24.451 22.862H35.345V24.266H24.451V22.862ZM29.014 20.288H30.743V23.2H29.014V20.288ZM25.595 14.386H27.311V16.232H32.446V14.386H34.162V20.652H25.595V14.386ZM27.311 17.584V19.274H32.446V17.584H27.311ZM37.684 19.82H46.147V21.172H37.684V19.82ZM36.41 22.875H47.304V24.279H36.41V22.875ZM37.684 14.49H46.043V15.881H39.439V20.197H37.684V14.49ZM38.906 17.142H45.77V18.481H38.906V17.142ZM48.2759 21.156H57.5049V22.311H48.2759V21.156ZM52.1259 21.739H53.5779V25.479H52.1259V21.739ZM49.3319 15.678H50.7839V16.833H54.9639V15.678H56.4159V20.188H49.3319V15.678ZM50.7839 17.977V19.022H54.9639V17.977H50.7839ZM65.4901 15.282H66.9421V25.501H65.4901V15.282ZM63.7411 18.868H65.6551V20.056H63.7411V18.868ZM58.8571 22.014H59.6711C61.3541 22.014 62.6081 21.992 64.0491 21.761L64.1811 22.927C62.7071 23.158 61.3871 23.202 59.6711 23.202H58.8571V22.014ZM58.8571 16.14H63.5761V17.328H60.3091V22.388H58.8571V16.14ZM59.9791 18.978H63.2241V20.122H59.9791V18.978ZM79.7591 13.632H81.3971V20.275H79.7591V13.632ZM76.5091 16.544H78.2901V17.909H76.5091V16.544ZM77.4841 13.814H79.0961V20.197H77.4841V13.814ZM73.2201 20.691H81.3971V23.694H74.9491V24.669H73.2331V22.524H79.7071V21.926H73.2201V20.691ZM73.2331 24.318H81.7351V25.579H73.2331V24.318ZM71.0881 14.555H76.7691V15.855H71.0881V14.555ZM73.9351 16.141C75.3911 16.141 76.4441 16.934 76.4441 18.117C76.4441 19.313 75.3911 20.106 73.9351 20.106C72.4921 20.106 71.4261 19.313 71.4261 18.117C71.4261 16.934 72.4921 16.141 73.9351 16.141ZM73.9351 17.324C73.3501 17.324 72.9341 17.61 72.9341 18.117C72.9341 18.637 73.3501 18.923 73.9351 18.923C74.5331 18.923 74.9361 18.637 74.9361 18.117C74.9361 17.61 74.5331 17.324 73.9351 17.324ZM73.0641 13.606H74.7801V15.621H73.0641V13.606ZM91.3931 13.606H93.1221V25.683H91.3931V13.606ZM83.7491 21.471H84.8151C86.9471 21.471 88.6501 21.393 90.5611 21.068L90.7301 22.459C88.7801 22.81 87.0121 22.875 84.8151 22.875H83.7491V21.471ZM83.7361 14.633H89.4171V19.287H85.5041V21.991H83.7491V17.922H87.6491V16.011H83.7361V14.633ZM95.0841 19.079H105.926V20.444H95.0841V19.079ZM99.1141 17.779H100.843V19.963H99.1141V17.779ZM96.2931 13.853H103.911V15.218H96.2931V13.853ZM102.988 13.853H104.704V14.867C104.704 15.894 104.704 17.064 104.418 18.611L102.715 18.494C102.988 16.999 102.988 15.881 102.988 14.867V13.853ZM103.521 15.868V17.129L96.1761 17.428L95.9681 16.024L103.521 15.868ZM96.3321 21.042H98.0351V21.952H102.897V21.042H104.6V25.527H96.3321V21.042ZM98.0351 23.252V24.162H102.897V23.252H98.0351ZM115.402 13.606H117.118V25.683H115.402V13.606ZM113.335 17.844H115.597V19.248H113.335V17.844ZM107.563 21.562H108.525C110.514 21.562 111.996 21.536 113.699 21.263L113.855 22.641C112.113 22.914 110.553 22.966 108.525 22.966H107.563V21.562ZM107.563 14.62H113.14V16.024H109.279V22.004H107.563V14.62ZM108.889 17.974H112.724V19.326H108.889V17.974ZM120.929 23.4062L120.886 23.8359C120.852 24.1797 120.787 24.5221 120.69 24.8633C120.597 25.207 120.498 25.5182 120.394 25.7969C120.292 26.0755 120.21 26.2943 120.147 26.4531H119.069C119.108 26.2995 119.162 26.0846 119.229 25.8086C119.297 25.5352 119.361 25.2279 119.421 24.8867C119.481 24.5456 119.519 24.1979 119.534 23.8437L119.554 23.4062H120.929ZM132.744 13.632H134.486V20.275H132.744V13.632ZM126.348 20.795H134.538V22.16H126.348V20.795ZM126.231 24.162H134.655V25.527H126.231V24.162ZM127.765 21.146H129.455V24.747H127.765V21.146ZM131.431 21.146H133.134V24.747H131.431V21.146ZM127.401 14.711H128.831V15.478C128.831 17.675 127.713 19.638 125.386 20.353L124.528 19.001C126.53 18.39 127.401 16.921 127.401 15.478V14.711ZM127.752 14.711H129.169V15.478C129.169 16.83 130.027 18.234 131.99 18.806L131.132 20.145C128.857 19.456 127.752 17.571 127.752 15.478V14.711ZM124.983 14.282H131.535V15.647H124.983V14.282ZM144.157 13.606H145.873V25.683H144.157V13.606ZM145.483 18.156H147.615V19.586H145.483V18.156ZM136.929 21.471H137.943C139.984 21.471 141.57 21.406 143.338 21.094L143.507 22.485C141.687 22.81 140.036 22.888 137.943 22.888H136.929V21.471ZM136.916 14.633H142.454V19.3H138.645V22.004H136.929V17.922H140.738V16.011H136.916V14.633ZM156.662 13.632H158.404V22.277H156.662V13.632ZM150.383 24.071H158.703V25.449H150.383V24.071ZM150.383 21.406H152.112V24.63H150.383V21.406ZM151.852 14.386C153.698 14.386 155.115 15.66 155.115 17.441C155.115 19.209 153.698 20.496 151.852 20.496C150.006 20.496 148.576 19.209 148.576 17.441C148.576 15.66 150.006 14.386 151.852 14.386ZM151.852 15.881C150.955 15.881 150.266 16.453 150.266 17.441C150.266 18.416 150.955 18.988 151.852 18.988C152.736 18.988 153.425 18.416 153.425 17.441C153.425 16.453 152.736 15.881 151.852 15.881ZM166.906 15.293H168.369V25.479H166.906V15.293ZM167.918 19.275H169.689V20.485H167.918V19.275ZM161.912 16.327H163.276C163.276 19.154 163.012 21.321 161.208 23.345L160.064 22.52C161.637 20.782 161.912 19.088 161.912 16.503V16.327ZM160.515 16.327H162.484V17.515H160.515V16.327ZM164.717 16.327H166.081C166.081 19.286 165.839 21.783 164.068 23.994L162.924 23.18C164.464 21.233 164.717 19.275 164.717 16.492V16.327ZM163.617 16.327H165.322V17.515H163.617V16.327ZM172.845 16.899H174.011V18.043C174.011 20.397 173.054 22.696 171.14 23.565L170.315 22.41C172.02 21.651 172.845 19.77 172.845 18.043V16.899ZM173.175 16.899H174.33V18.043C174.33 19.693 175.144 21.453 176.849 22.157L176.057 23.312C174.121 22.476 173.175 20.309 173.175 18.043V16.899ZM170.722 16.272H176.431V17.471H170.722V16.272ZM177.377 15.293H178.851V25.479H177.377V15.293Z" fill="white"/>
</svg>
