<svg width="801" height="110" viewBox="0 0 801 110" fill="none" xmlns="http://www.w3.org/2000/svg">
<g clip-path="url(#clip0_26_36)">
<mask id="mask0_26_36" style="mask-type:luminance" maskUnits="userSpaceOnUse" x="0" y="0" width="801" height="110">
<path d="M800.5 0.5H0.5V109.5H800.5V0.5Z" fill="white"/>
</mask>
<g mask="url(#mask0_26_36)">
<path d="M140.778 50.994H146.972V55.136H140.778V50.994ZM137.016 37.656H142.108V72.844H137.016V37.656ZM115.584 41.038H120.638V62.888H115.584V41.038ZM115.584 60.076H118.624C123.64 60.076 129.074 59.734 134.736 58.594L135.268 62.736C129.454 63.952 123.792 64.256 118.624 64.256H115.584V60.076ZM173.607 37.656H178.699V72.958H173.607V37.656ZM159.737 40.126C165.057 40.126 168.971 44.99 168.971 52.666C168.971 60.418 165.057 65.282 159.737 65.282C154.417 65.282 150.503 60.418 150.503 52.666C150.503 44.99 154.417 40.126 159.737 40.126ZM159.737 44.724C157.115 44.724 155.329 47.498 155.329 52.666C155.329 57.91 157.115 60.722 159.737 60.722C162.359 60.722 164.107 57.91 164.107 52.666C164.107 47.498 162.359 44.724 159.737 44.724ZM193.858 40.126C199.216 40.126 203.092 44.99 203.092 52.666C203.092 60.418 199.216 65.282 193.858 65.282C188.5 65.282 184.624 60.418 184.624 52.666C184.624 44.99 188.5 40.126 193.858 40.126ZM193.858 44.724C191.236 44.724 189.488 47.498 189.488 52.666C189.488 57.91 191.236 60.722 193.858 60.722C196.48 60.722 198.266 57.91 198.266 52.666C198.266 47.498 196.48 44.724 193.858 44.724ZM206.93 37.694H212.022V72.882H206.93V37.694ZM210.882 50.956H217.114V55.136H210.882V50.956ZM241.887 37.656H246.979V72.844H241.887V37.656ZM245.649 51.108H251.843V55.25H245.649V51.108ZM232.653 41.304H237.593C237.593 51.868 233.565 60.912 221.861 66.802L219.049 62.964C228.283 58.176 232.653 51.716 232.653 42.178V41.304ZM220.987 41.304H235.237V45.37H220.987V41.304ZM276.92 37.656H281.936V72.958H276.92V37.656ZM280.796 50.956H287.028V55.136H280.796V50.956ZM255.792 60.646H258.756C264.722 60.646 269.358 60.456 274.526 59.544L275.02 63.61C269.7 64.56 264.874 64.788 258.756 64.788H255.792V60.646ZM255.754 40.658H271.942V54.3H260.808V62.204H255.792V50.272H266.926V44.686H255.754V40.658ZM300.874 38.834H327.094V42.862H300.874V38.834ZM301.14 48.562H326.828V52.514H301.14V48.562ZM305.358 40.392H310.412V50.804H305.358V40.392ZM317.556 40.392H322.61V50.804H317.556V40.392ZM298.1 55.516H329.906V59.506H298.1V55.516ZM311.438 51.564H316.492V56.884H311.438V51.564ZM301.634 61.9H326.068V72.882H321.014V65.89H301.634V61.9ZM333.095 64.826H364.939V68.968H333.095V64.826ZM346.395 56.884H351.449V66.688H346.395V56.884ZM335.527 40.582H362.317V44.61H335.527V40.582ZM335.679 54.604H362.203V58.556H335.679V54.604ZM340.315 43.926H345.369V55.06H340.315V43.926ZM352.513 43.926H357.529V55.06H352.513V43.926ZM399.381 37.694H404.397V72.882H399.381V37.694ZM403.257 51.412H409.489V55.63H403.257V51.412ZM376.657 42.9H397.139V46.928H376.657V42.9ZM386.955 48.904C392.085 48.904 395.885 52.4 395.885 57.302C395.885 62.204 392.085 65.7 386.955 65.7C381.825 65.7 378.025 62.204 378.025 57.302C378.025 52.4 381.825 48.904 386.955 48.904ZM386.955 53.008C384.561 53.008 382.851 54.604 382.851 57.302C382.851 60 384.561 61.596 386.955 61.596C389.349 61.596 391.059 60 391.059 57.302C391.059 54.604 389.349 53.008 386.955 53.008ZM384.409 38.264H389.463V44.42H384.409V38.264ZM435.896 37.656H440.988V72.958H435.896V37.656ZM422.026 40.126C427.346 40.126 431.26 44.99 431.26 52.666C431.26 60.418 427.346 65.282 422.026 65.282C416.706 65.282 412.792 60.418 412.792 52.666C412.792 44.99 416.706 40.126 422.026 40.126ZM422.026 44.724C419.404 44.724 417.618 47.498 417.618 52.666C417.618 57.91 419.404 60.722 422.026 60.722C424.648 60.722 426.396 57.91 426.396 52.666C426.396 47.498 424.648 44.724 422.026 44.724ZM469.295 37.656H474.311V72.958H469.295V37.656ZM473.171 50.956H479.403V55.136H473.171V50.956ZM448.167 60.646H451.131C457.097 60.646 461.733 60.456 466.901 59.544L467.395 63.61C462.075 64.56 457.249 64.788 451.131 64.788H448.167V60.646ZM448.129 40.658H464.317V54.3H453.183V62.204H448.167V50.272H459.301V44.686H448.129V40.658ZM505.81 37.656H510.902V72.958H505.81V37.656ZM491.94 40.126C497.26 40.126 501.174 44.99 501.174 52.666C501.174 60.418 497.26 65.282 491.94 65.282C486.62 65.282 482.706 60.418 482.706 52.666C482.706 44.99 486.62 40.126 491.94 40.126ZM491.94 44.724C489.318 44.724 487.532 47.498 487.532 52.666C487.532 57.91 489.318 60.722 491.94 60.722C494.562 60.722 496.31 57.91 496.31 52.666C496.31 47.498 494.562 44.724 491.94 44.724ZM520.399 55.82H545.137V59.772H520.399V55.82ZM516.675 64.75H548.519V68.854H516.675V64.75ZM520.399 40.24H544.833V44.306H525.529V56.922H520.399V40.24ZM523.971 47.992H544.035V51.906H523.971V47.992ZM558.616 65.7216L558.468 67.206C558.351 68.3935 558.126 69.5765 557.793 70.755C557.469 71.9425 557.127 73.0175 556.767 73.9801C556.417 74.9427 556.133 75.6984 555.917 76.2472H552.193C552.328 75.7164 552.512 74.9742 552.746 74.0206C552.98 73.076 553.2 72.0144 553.407 70.8359C553.614 69.6574 553.745 68.4564 553.799 67.233L553.866 65.7216H558.616ZM574.879 36.992H599.948V41.55H574.879V36.992ZM570.837 63.953H606.828V68.64H570.837V63.953ZM597.54 36.992H603.173V41.593C603.173 47.398 603.173 52.902 601.324 61.588L595.691 61.072C597.54 53.031 597.54 47.226 597.54 41.593V36.992ZM598.744 47.914V52.128L574.406 53.332L573.718 48.731L598.744 47.914ZM614.479 34.756H642.257V46.624H620.37V52.687H614.565V42.367H636.452V39.314H614.479V34.756ZM614.565 49.892H643.246V54.407H614.565V49.892ZM610.351 57.331H646.428V61.932H610.351V57.331ZM625.444 59.008H631.163V73.413H625.444V59.008ZM649.951 63.91H685.985V68.554H649.951V63.91ZM664.915 39.013H669.731V41.292C669.731 49.634 663.711 56.342 653.562 58.191L651.327 53.633C660.185 52.257 664.915 46.796 664.915 41.292V39.013ZM666.076 39.013H670.891V41.292C670.891 46.796 675.622 52.085 684.695 53.418L682.502 57.976C672.182 56.17 666.076 49.634 666.076 41.292V39.013ZM652.918 36.82H682.889V41.378H652.918V36.82Z" fill="white"/>
<path d="M128.846 3.241H130.566V22.677H128.846V3.241ZM125.556 11.024H129.297V12.5075H125.556V11.024ZM124.438 3.671H126.115V21.688H124.438V3.671ZM114.763 16.399H116.032C118.87 16.399 120.805 16.2915 123.062 15.8185L123.234 17.302C120.912 17.7965 118.956 17.8825 116.032 17.8825H114.763V16.399ZM114.763 5.606H121.987V7.068H116.526V17.0655H114.763V5.606ZM138.648 6.0145H140.067V9.175C140.067 13.217 137.594 17.388 134.563 18.936L133.531 17.517C136.304 16.1625 138.648 12.4645 138.648 9.175V6.0145ZM138.97 6.0145H140.389V9.175C140.389 12.2495 142.582 15.711 145.399 17.044L144.388 18.463C141.314 16.9365 138.97 13.0235 138.97 9.175V6.0145ZM134.219 5.219H144.689V6.724H134.219V5.219ZM146.99 3.241H148.796V22.677H146.99V3.241ZM148.366 11.0885H151.978V12.5935H148.366V11.0885ZM162.619 6.2725H168.467V7.7345H162.619V6.2725ZM162.619 10.938H168.467V12.4H162.619V10.938ZM167.822 3.2625H169.606V17.6245H167.822V3.2625ZM157.201 20.785H170.144V22.247H157.201V20.785ZM157.201 16.141H158.985V21.43H157.201V16.141ZM158.921 4.488C161.78 4.488 163.93 6.4875 163.93 9.347C163.93 12.2065 161.78 14.206 158.921 14.206C156.061 14.206 153.911 12.2065 153.911 9.347C153.911 6.4875 156.061 4.488 158.921 4.488ZM158.921 6.0575C157.029 6.0575 155.631 7.4335 155.631 9.347C155.631 11.282 157.029 12.658 158.921 12.658C160.813 12.658 162.232 11.282 162.232 9.347C162.232 7.4335 160.813 6.0575 158.921 6.0575ZM179.709 4.6385C182.741 4.6385 184.912 6.509 184.912 9.218C184.912 11.9485 182.741 13.819 179.709 13.819C176.678 13.819 174.485 11.9485 174.485 9.218C174.485 6.509 176.678 4.6385 179.709 4.6385ZM179.709 6.1865C177.688 6.1865 176.226 7.412 176.226 9.218C176.226 11.024 177.688 12.271 179.709 12.271C181.709 12.271 183.171 11.024 183.171 9.218C183.171 7.412 181.709 6.1865 179.709 6.1865ZM187.449 3.2195H189.234V22.6985H187.449V3.2195ZM173.754 18.4415L173.496 16.958C177.043 16.958 181.945 16.9365 186.181 16.27L186.331 17.5815C181.967 18.42 177.215 18.4415 173.754 18.4415ZM212.522 3.241H214.307V14.249H212.522V3.241ZM213.812 7.971H217.188V9.4545H213.812V7.971ZM207.147 4.488H209.039C209.039 9.39 205.621 12.916 199.902 14.464L199.214 13.045C204.245 11.669 207.147 8.8525 207.147 5.2835V4.488ZM200.052 4.488H208.136V5.9285H200.052V4.488ZM202.073 15.1735H214.307V22.419H202.073V15.1735ZM212.544 16.614H203.836V20.957H212.544V16.614ZM219.013 12.8085H236.579V14.2705H219.013V12.8085ZM226.904 9.691H228.667V13.4105H226.904V9.691ZM221.228 9.132H234.536V10.594H221.228V9.132ZM221.228 4.1225H234.386V5.563H222.991V9.992H221.228V4.1225ZM227.764 15.668C231.913 15.668 234.429 16.9365 234.429 19.151C234.429 21.4085 231.913 22.6555 227.764 22.6555C223.614 22.6555 221.099 21.4085 221.099 19.151C221.099 16.9365 223.614 15.668 227.764 15.668ZM227.764 17.044C224.732 17.044 222.905 17.818 222.905 19.151C222.905 20.5055 224.732 21.258 227.764 21.258C230.817 21.258 232.623 20.5055 232.623 19.151C232.623 17.818 230.817 17.044 227.764 17.044ZM247.564 3.5635C251.842 3.5635 254.401 4.7675 254.401 6.939C254.401 9.1105 251.842 10.3145 247.564 10.3145C243.264 10.3145 240.727 9.1105 240.727 6.939C240.727 4.7675 243.264 3.5635 247.564 3.5635ZM247.564 4.918C244.382 4.918 242.554 5.649 242.554 6.939C242.554 8.229 244.382 8.96 247.564 8.96C250.724 8.96 252.552 8.229 252.552 6.939C252.552 5.649 250.724 4.918 247.564 4.918ZM238.77 11.6045H256.336V13.045H238.77V11.6045ZM240.899 14.7005H254.1V19.0865H242.705V21.4515H240.942V17.7965H252.337V16.0765H240.899V14.7005ZM240.942 21.0645H254.68V22.462H240.942V21.0645ZM267.003 9.132H280.204V10.551H267.003V9.132ZM267.003 3.972H268.766V9.7125H267.003V3.972ZM264.617 12.83H282.182V14.292H264.617V12.83ZM272.658 13.776H274.421V18.291H272.658V13.776ZM266.853 20.785H280.312V22.247H266.853V20.785ZM266.853 16.571H268.616V21.473H266.853V16.571ZM303.729 3.241H305.514V14.2275H303.729V3.241ZM304.955 7.971H308.395V9.4545H304.955V7.971ZM293.13 15.281H306.03V16.743H293.13V15.281ZM292.958 20.9355H306.266V22.376H292.958V20.9355ZM295.817 15.625H297.58V21.6235H295.817V15.625ZM301.601 15.625H303.342V21.6235H301.601V15.625ZM295.86 4.359C298.806 4.359 300.934 6.2295 300.934 8.917C300.934 11.6045 298.806 13.475 295.86 13.475C292.915 13.475 290.786 11.6045 290.786 8.917C290.786 6.2295 292.915 4.359 295.86 4.359ZM295.86 5.8425C293.925 5.8425 292.528 7.111 292.528 8.917C292.528 10.723 293.925 11.9915 295.86 11.9915C297.795 11.9915 299.193 10.723 299.193 8.917C299.193 7.111 297.795 5.8425 295.86 5.8425ZM318.09 10.7875H321.766V12.271H318.09V10.7875ZM325.013 3.241H326.733V22.677H325.013V3.241ZM321.164 3.6495H322.863V21.7095H321.164V3.6495ZM314.585 4.8535C317.101 4.8535 318.735 7.455 318.735 11.626C318.735 15.797 317.101 18.3985 314.585 18.3985C312.07 18.3985 310.457 15.797 310.457 11.626C310.457 7.455 312.07 4.8535 314.585 4.8535ZM314.585 6.509C313.059 6.509 312.091 8.487 312.091 11.626C312.091 14.765 313.059 16.743 314.585 16.743C316.133 16.743 317.101 14.765 317.101 11.626C317.101 8.487 316.133 6.509 314.585 6.509ZM339.695 9.82H345.113V11.282H339.695V9.82ZM335.008 4.918H336.47V8.3795C336.47 12.744 334.17 16.915 331.095 18.5705L329.956 17.1515C332.815 15.7325 335.008 11.9915 335.008 8.3795V4.918ZM335.352 4.918H336.793V8.3795C336.793 11.927 338.986 15.453 341.802 16.786L340.749 18.2265C337.61 16.6355 335.352 12.6365 335.352 8.3795V4.918ZM344.232 3.2195H345.995V22.6985H344.232V3.2195Z" fill="white"/>
<path d="M135.077 104.5V91.4091H142.978V92.8153H136.662V97.2386H142.569V98.6449H136.662V103.094H143.08V104.5H135.077ZM151.255 97.2514V98.6577H145.528V97.2514H151.255ZM154.455 100.756H155.751C158.793 100.756 160.917 100.666 163.419 100.252L163.563 101.458C161.007 101.908 158.847 101.998 155.751 101.998H154.455V100.756ZM154.455 91.108H162.339V92.35H155.931V101.188H154.455V91.108ZM155.571 95.662H161.745V96.868H155.571V95.662ZM165.273 89.632H166.767V105.904H165.273V89.632ZM175.91 94.402H179.492V95.608H175.91V94.402ZM182.336 89.632H183.758V100.684H182.336V89.632ZM179.114 89.92H180.536V99.226H179.114V89.92ZM177.566 99.73H178.844V100.252C178.844 103.168 175.874 105.274 172.598 105.85L172.022 104.662C174.902 104.212 177.566 102.412 177.566 100.252V99.73ZM177.764 99.73H179.06V100.252C179.06 102.412 181.742 104.212 184.604 104.662L184.028 105.85C180.752 105.274 177.764 103.168 177.764 100.252V99.73ZM175.73 91H177.188C177.188 94.996 175.442 98.2 170.852 100.198L170.114 99.1C174.182 97.372 175.73 94.708 175.73 91.396V91ZM170.87 91H176.252V92.224H170.87V91ZM175.586 94.06V95.104L170.348 95.662L170.114 94.42L175.586 94.06ZM193.89 90.658C197.274 90.658 199.794 92.458 199.794 95.158C199.794 97.876 197.274 99.658 193.89 99.658C190.506 99.658 187.968 97.876 187.968 95.158C187.968 92.458 190.506 90.658 193.89 90.658ZM193.89 91.882C191.316 91.882 189.408 93.196 189.408 95.158C189.408 97.102 191.316 98.434 193.89 98.434C196.464 98.434 198.372 97.102 198.372 95.158C198.372 93.196 196.464 91.882 193.89 91.882ZM186.546 102.502H201.288V103.762H186.546V102.502ZM203.105 102.664H217.847V103.906H203.105V102.664ZM209.693 99.172H211.187V103.186H209.693V99.172ZM204.887 90.838H216.029V95.77H206.417V99.028H204.941V94.564H214.553V92.044H204.887V90.838ZM204.941 98.398H216.407V99.622H204.941V98.398ZM235.85 89.632H237.344V101.53H235.85V89.632ZM236.876 94.564H239.756V95.806H236.876V94.564ZM231.404 90.892H232.988C232.988 95.104 230.036 98.182 225.374 99.676L224.726 98.452C228.83 97.192 231.404 94.672 231.404 91.54V90.892ZM225.392 90.892H232.16V92.116H225.392V90.892ZM227.192 104.32H238.064V105.544H227.192V104.32ZM227.192 100.324H228.686V104.806H227.192V100.324ZM253.165 89.632H254.659V101.746H253.165V89.632ZM241.753 90.946H250.321V92.17H241.753V90.946ZM241.483 99.298L241.321 98.02C243.985 98.02 247.783 97.984 250.825 97.624L250.915 98.74C247.783 99.244 244.129 99.298 241.483 99.298ZM243.373 91.99H244.813V98.236H243.373V91.99ZM247.261 91.99H248.701V98.236H247.261V91.99ZM250.465 92.71H253.957V93.934H250.465V92.71ZM250.465 95.824H253.957V97.048H250.465V95.824ZM244.255 104.32H255.091V105.544H244.255V104.32ZM244.255 100.756H245.749V105.094H244.255V100.756ZM268.967 89.65H270.461V101.854H268.967V89.65ZM269.993 94.978H272.873V96.238H269.993V94.978ZM257.879 91.612H267.491V92.818H257.879V91.612ZM262.685 93.718C264.989 93.718 266.573 94.924 266.573 96.76C266.573 98.578 264.989 99.784 262.685 99.784C260.363 99.784 258.779 98.578 258.779 96.76C258.779 94.924 260.363 93.718 262.685 93.718ZM262.685 94.888C261.209 94.888 260.201 95.626 260.201 96.76C260.201 97.876 261.209 98.614 262.685 98.614C264.143 98.614 265.151 97.876 265.151 96.76C265.151 95.626 264.143 94.888 262.685 94.888ZM261.929 89.632H263.423V92.242H261.929V89.632ZM260.327 104.32H271.199V105.544H260.327V104.32ZM260.327 100.882H261.821V104.842H260.327V100.882ZM280.202 96.904H281.444C284.702 96.904 286.52 96.85 288.698 96.454L288.86 97.66C286.628 98.056 284.756 98.128 281.444 98.128H280.202V96.904ZM280.202 90.514H287.636V91.738H281.678V97.498H280.202V90.514ZM281.21 93.682H287.33V94.87H281.21V93.682ZM290.588 89.632H292.082V98.668H290.588V89.632ZM291.668 93.448H294.494V94.69H291.668V93.448ZM281.822 99.388H283.298V101.296H290.606V99.388H292.082V105.688H281.822V99.388ZM283.298 102.484V104.464H290.606V102.484H283.298ZM302.611 89.902H303.889V90.622C303.889 93.502 300.757 95.572 297.427 96.112L296.869 94.924C299.785 94.528 302.611 92.728 302.611 90.622V89.902ZM302.845 89.902H304.123V90.622C304.123 92.692 306.985 94.528 309.865 94.924L309.307 96.112C305.995 95.572 302.845 93.448 302.845 90.622V89.902ZM296.005 97.39H310.711V98.614H296.005V97.39ZM303.349 100.108C306.841 100.108 308.929 101.152 308.929 102.988C308.929 104.86 306.841 105.886 303.349 105.886C299.857 105.886 297.769 104.86 297.769 102.988C297.769 101.152 299.857 100.108 303.349 100.108ZM303.349 101.26C300.811 101.26 299.281 101.908 299.281 102.988C299.281 104.104 300.811 104.734 303.349 104.734C305.905 104.734 307.417 104.104 307.417 102.988C307.417 101.908 305.905 101.26 303.349 101.26Z" fill="white"/>
<path d="M121.562 92.292H114V106.181H128.12V98.156" stroke="white" stroke-width="1.8"/>
<path d="M116.315 96.302L120.944 101.702L130.744 89.8191" stroke="white" stroke-width="1.8"/>
</g>
</g>
<defs>
<clipPath id="clip0_26_36">
<rect width="800" height="109" fill="white" transform="translate(0.5 0.5)"/>
</clipPath>
</defs>
</svg>
