<svg width="346" height="48" viewBox="0 0 346 48" fill="none" xmlns="http://www.w3.org/2000/svg">
<g clip-path="url(#clip0_26_49)">
<mask id="mask0_26_49" style="mask-type:luminance" maskUnits="userSpaceOnUse" x="0" y="0" width="346" height="48">
<path d="M345.5 0.5H0.5V47.5H345.5V0.5Z" fill="white"/>
</mask>
<g mask="url(#mask0_26_49)">
<path d="M97.041 23.143H98.834V24.342H97.041V23.143ZM95.952 19.282H97.426V29.468H95.952V19.282ZM89.748 20.261H91.211V26.586H89.748V20.261ZM89.748 25.772H90.628C92.08 25.772 93.653 25.673 95.292 25.343L95.446 26.542C93.763 26.894 92.124 26.982 90.628 26.982H89.748V25.772ZM106.544 19.282H108.018V29.501H106.544V19.282ZM102.529 19.997C104.069 19.997 105.202 21.405 105.202 23.627C105.202 25.871 104.069 27.279 102.529 27.279C100.989 27.279 99.8561 25.871 99.8561 23.627C99.8561 21.405 100.989 19.997 102.529 19.997ZM102.529 21.328C101.77 21.328 101.253 22.131 101.253 23.627C101.253 25.145 101.77 25.959 102.529 25.959C103.288 25.959 103.794 25.145 103.794 23.627C103.794 22.131 103.288 21.328 102.529 21.328ZM112.406 19.997C113.957 19.997 115.079 21.405 115.079 23.627C115.079 25.871 113.957 27.279 112.406 27.279C110.855 27.279 109.733 25.871 109.733 23.627C109.733 21.405 110.855 19.997 112.406 19.997ZM112.406 21.328C111.647 21.328 111.141 22.131 111.141 23.627C111.141 25.145 111.647 25.959 112.406 25.959C113.165 25.959 113.682 25.145 113.682 23.627C113.682 22.131 113.165 21.328 112.406 21.328ZM116.19 19.293H117.664V29.479H116.19V19.293ZM117.334 23.132H119.138V24.342H117.334V23.132ZM126.309 19.282H127.783V29.468H126.309V19.282ZM127.398 23.176H129.191V24.375H127.398V23.176ZM123.636 20.338H125.066C125.066 23.396 123.9 26.014 120.512 27.719L119.698 26.608C122.371 25.222 123.636 23.352 123.636 20.591V20.338ZM120.259 20.338H124.384V21.515H120.259V20.338ZM136.451 19.282H137.903V29.501H136.451V19.282ZM137.573 23.132H139.377V24.342H137.573V23.132ZM130.335 25.937H131.193C132.92 25.937 134.262 25.882 135.758 25.618L135.901 26.795C134.361 27.07 132.964 27.136 131.193 27.136H130.335V25.937ZM130.324 20.151H135.01V24.1H131.787V26.388H130.335V22.934H133.558V21.317H130.324V20.151ZM143.385 19.623H150.975V20.789H143.385V19.623ZM143.462 22.439H150.898V23.583H143.462V22.439ZM144.683 20.074H146.146V23.088H144.683V20.074ZM148.214 20.074H149.677V23.088H148.214V20.074ZM142.582 24.452H151.789V25.607H142.582V24.452ZM146.443 23.308H147.906V24.848H146.443V23.308ZM143.605 26.3H150.678V29.479H149.215V27.455H143.605V26.3ZM152.712 27.147H161.93V28.346H152.712V27.147ZM156.562 24.848H158.025V27.686H156.562V24.848ZM153.416 20.129H161.171V21.295H153.416V20.129ZM153.46 24.188H161.138V25.332H153.46V24.188ZM154.802 21.097H156.265V24.32H154.802V21.097ZM158.333 21.097H159.785V24.32H158.333V21.097ZM171.9 19.293H173.352V29.479H171.9V19.293ZM173.022 23.264H174.826V24.485H173.022V23.264ZM165.322 20.8H171.251V21.966H165.322V20.8ZM168.303 22.538C169.788 22.538 170.888 23.55 170.888 24.969C170.888 26.388 169.788 27.4 168.303 27.4C166.818 27.4 165.718 26.388 165.718 24.969C165.718 23.55 166.818 22.538 168.303 22.538ZM168.303 23.726C167.61 23.726 167.115 24.188 167.115 24.969C167.115 25.75 167.61 26.212 168.303 26.212C168.996 26.212 169.491 25.75 169.491 24.969C169.491 24.188 168.996 23.726 168.303 23.726ZM167.566 19.458H169.029V21.24H167.566V19.458ZM182.47 19.282H183.944V29.501H182.47V19.282ZM178.455 19.997C179.995 19.997 181.128 21.405 181.128 23.627C181.128 25.871 179.995 27.279 178.455 27.279C176.915 27.279 175.782 25.871 175.782 23.627C175.782 21.405 176.915 19.997 178.455 19.997ZM178.455 21.328C177.696 21.328 177.179 22.131 177.179 23.627C177.179 25.145 177.696 25.959 178.455 25.959C179.214 25.959 179.72 25.145 179.72 23.627C179.72 22.131 179.214 21.328 178.455 21.328ZM192.138 19.282H193.59V29.501H192.138V19.282ZM193.26 23.132H195.064V24.342H193.26V23.132ZM186.022 25.937H186.88C188.607 25.937 189.949 25.882 191.445 25.618L191.588 26.795C190.048 27.07 188.651 27.136 186.88 27.136H186.022V25.937ZM186.011 20.151H190.697V24.1H187.474V26.388H186.022V22.934H189.245V21.317H186.011V20.151ZM202.708 19.282H204.182V29.501H202.708V19.282ZM198.693 19.997C200.233 19.997 201.366 21.405 201.366 23.627C201.366 25.871 200.233 27.279 198.693 27.279C197.153 27.279 196.02 25.871 196.02 23.627C196.02 21.405 197.153 19.997 198.693 19.997ZM198.693 21.328C197.934 21.328 197.417 22.131 197.417 23.627C197.417 25.145 197.934 25.959 198.693 25.959C199.452 25.959 199.958 25.145 199.958 23.627C199.958 22.131 199.452 21.328 198.693 21.328ZM206.931 24.54H214.092V25.684H206.931V24.54ZM205.853 27.125H215.071V28.313H205.853V27.125ZM206.931 20.03H214.004V21.207H208.416V24.859H206.931V20.03ZM207.965 22.274H213.773V23.407H207.965V22.274ZM217.994 27.4062L217.951 27.8359C217.917 28.1797 217.852 28.5221 217.756 28.8633C217.662 29.207 217.563 29.5182 217.459 29.7969C217.357 30.0755 217.275 30.2943 217.213 30.4531H216.135C216.174 30.2995 216.227 30.0846 216.295 29.8086C216.363 29.5352 216.426 29.2279 216.486 28.8867C216.546 28.5456 216.584 28.1979 216.6 27.8437L216.619 27.4062H217.994ZM222.776 18.672H230.355V20.05H222.776V18.672ZM221.554 26.823H232.435V28.24H221.554V26.823ZM229.627 18.672H231.33V20.063C231.33 21.818 231.33 23.482 230.771 26.108L229.068 25.952C229.627 23.521 229.627 21.766 229.627 20.063V18.672ZM229.991 21.974V23.248L222.633 23.612L222.425 22.221L229.991 21.974ZM234.748 17.996H243.146V21.584H236.529V23.417H234.774V20.297H241.391V19.374H234.748V17.996ZM234.774 22.572H243.445V23.937H234.774V22.572ZM233.5 24.821H244.407V26.212H233.5V24.821ZM238.063 25.328H239.792V29.683H238.063V25.328ZM245.472 26.81H256.366V28.214H245.472V26.81ZM249.996 19.283H251.452V19.972C251.452 22.494 249.632 24.522 246.564 25.081L245.888 23.703C248.566 23.287 249.996 21.636 249.996 19.972V19.283ZM250.347 19.283H251.803V19.972C251.803 21.636 253.233 23.235 255.976 23.638L255.313 25.016C252.193 24.47 250.347 22.494 250.347 19.972V19.283ZM246.369 18.62H255.43V19.998H246.369V18.62Z" fill="white"/>
<path d="M95.159 3.718H95.719V10.046H95.159V3.718ZM94.088 6.252H95.306V6.735H94.088V6.252ZM93.724 3.858H94.27V9.724H93.724V3.858ZM90.574 8.002H90.987C91.911 8.002 92.541 7.967 93.276 7.813L93.332 8.296C92.576 8.457 91.939 8.485 90.987 8.485H90.574V8.002ZM90.574 4.488H92.926V4.964H91.148V8.219H90.574V4.488ZM98.3505 4.621H98.8125V5.65C98.8125 6.966 98.0075 8.324 97.0205 8.828L96.6845 8.366C97.5875 7.925 98.3505 6.721 98.3505 5.65V4.621ZM98.4555 4.621H98.9175V5.65C98.9175 6.651 99.6315 7.778 100.548 8.212L100.219 8.674C99.2185 8.177 98.4555 6.903 98.4555 5.65V4.621ZM96.9085 4.362H100.317V4.852H96.9085V4.362ZM101.066 3.718H101.654V10.046H101.066V3.718ZM101.514 6.273H102.69V6.763H101.514V6.273ZM106.155 4.705H108.059V5.181H106.155V4.705ZM106.155 6.224H108.059V6.7H106.155V6.224ZM107.849 3.725H108.43V8.401H107.849V3.725ZM104.391 9.43H108.605V9.906H104.391V9.43ZM104.391 7.918H104.972V9.64H104.391V7.918ZM104.951 4.124C105.882 4.124 106.582 4.775 106.582 5.706C106.582 6.637 105.882 7.288 104.951 7.288C104.02 7.288 103.32 6.637 103.32 5.706C103.32 4.775 104.02 4.124 104.951 4.124ZM104.951 4.635C104.335 4.635 103.88 5.083 103.88 5.706C103.88 6.336 104.335 6.784 104.951 6.784C105.567 6.784 106.029 6.336 106.029 5.706C106.029 5.083 105.567 4.635 104.951 4.635ZM111.719 4.173C112.706 4.173 113.413 4.782 113.413 5.664C113.413 6.553 112.706 7.162 111.719 7.162C110.732 7.162 110.018 6.553 110.018 5.664C110.018 4.782 110.732 4.173 111.719 4.173ZM111.719 4.677C111.061 4.677 110.585 5.076 110.585 5.664C110.585 6.252 111.061 6.658 111.719 6.658C112.37 6.658 112.846 6.252 112.846 5.664C112.846 5.076 112.37 4.677 111.719 4.677ZM114.239 3.711H114.82V10.053H114.239V3.711ZM109.78 8.667L109.696 8.184C110.851 8.184 112.447 8.177 113.826 7.96L113.875 8.387C112.454 8.66 110.907 8.667 109.78 8.667ZM122.403 3.718H122.984V7.302H122.403V3.718ZM122.823 5.258H123.922V5.741H122.823V5.258ZM120.653 4.124H121.269C121.269 5.72 120.156 6.868 118.294 7.372L118.07 6.91C119.708 6.462 120.653 5.545 120.653 4.383V4.124ZM118.343 4.124H120.975V4.593H118.343V4.124ZM119.001 7.603H122.984V9.962H119.001V7.603ZM122.41 8.072H119.575V9.486H122.41V8.072ZM124.516 6.833H130.235V7.309H124.516V6.833ZM127.085 5.818H127.659V7.029H127.085V5.818ZM125.237 5.636H129.57V6.112H125.237V5.636ZM125.237 4.005H129.521V4.474H125.811V5.916H125.237V4.005ZM127.365 7.764C128.716 7.764 129.535 8.177 129.535 8.898C129.535 9.633 128.716 10.039 127.365 10.039C126.014 10.039 125.195 9.633 125.195 8.898C125.195 8.177 126.014 7.764 127.365 7.764ZM127.365 8.212C126.378 8.212 125.783 8.464 125.783 8.898C125.783 9.339 126.378 9.584 127.365 9.584C128.359 9.584 128.947 9.339 128.947 8.898C128.947 8.464 128.359 8.212 127.365 8.212ZM133.811 3.823C135.204 3.823 136.037 4.215 136.037 4.922C136.037 5.629 135.204 6.021 133.811 6.021C132.411 6.021 131.585 5.629 131.585 4.922C131.585 4.215 132.411 3.823 133.811 3.823ZM133.811 4.264C132.775 4.264 132.18 4.502 132.18 4.922C132.18 5.342 132.775 5.58 133.811 5.58C134.84 5.58 135.435 5.342 135.435 4.922C135.435 4.502 134.84 4.264 133.811 4.264ZM130.948 6.441H136.667V6.91H130.948V6.441ZM131.641 7.449H135.939V8.877H132.229V9.647H131.655V8.457H135.365V7.897H131.641V7.449ZM131.655 9.521H136.128V9.976H131.655V9.521ZM140.141 5.636H144.439V6.098H140.141V5.636ZM140.141 3.956H140.715V5.825H140.141V3.956ZM139.364 6.84H145.083V7.316H139.364V6.84ZM141.982 7.148H142.556V8.618H141.982V7.148ZM140.092 9.43H144.474V9.906H140.092V9.43ZM140.092 8.058H140.666V9.654H140.092V8.058ZM152.098 3.718H152.679V7.295H152.098V3.718ZM152.497 5.258H153.617V5.741H152.497V5.258ZM148.647 7.638H152.847V8.114H148.647V7.638ZM148.591 9.479H152.924V9.948H148.591V9.479ZM149.522 7.75H150.096V9.703H149.522V7.75ZM151.405 7.75H151.972V9.703H151.405V7.75ZM149.536 4.082C150.495 4.082 151.188 4.691 151.188 5.566C151.188 6.441 150.495 7.05 149.536 7.05C148.577 7.05 147.884 6.441 147.884 5.566C147.884 4.691 148.577 4.082 149.536 4.082ZM149.536 4.565C148.906 4.565 148.451 4.978 148.451 5.566C148.451 6.154 148.906 6.567 149.536 6.567C150.166 6.567 150.621 6.154 150.621 5.566C150.621 4.978 150.166 4.565 149.536 4.565ZM156.773 6.175H157.97V6.658H156.773V6.175ZM159.027 3.718H159.587V10.046H159.027V3.718ZM157.774 3.851H158.327V9.731H157.774V3.851ZM155.632 4.243C156.451 4.243 156.983 5.09 156.983 6.448C156.983 7.806 156.451 8.653 155.632 8.653C154.813 8.653 154.288 7.806 154.288 6.448C154.288 5.09 154.813 4.243 155.632 4.243ZM155.632 4.782C155.135 4.782 154.82 5.426 154.82 6.448C154.82 7.47 155.135 8.114 155.632 8.114C156.136 8.114 156.451 7.47 156.451 6.448C156.451 5.426 156.136 4.782 155.632 4.782ZM163.808 5.86H165.572V6.336H163.808V5.86ZM162.282 4.264H162.758V5.391C162.758 6.812 162.009 8.17 161.008 8.709L160.637 8.247C161.568 7.785 162.282 6.567 162.282 5.391V4.264ZM162.394 4.264H162.863V5.391C162.863 6.546 163.577 7.694 164.494 8.128L164.151 8.597C163.129 8.079 162.394 6.777 162.394 5.391V4.264ZM165.285 3.711H165.859V10.053H165.285V3.711Z" fill="white"/>
<path d="M98.8894 43.426V38.6988H101.742V39.2066H99.4619V40.8039H101.595V41.3117H99.4619V42.9182H101.779V43.426H98.8894ZM104.732 40.8085V41.3163H102.663V40.8085H104.732ZM105.887 42.074H106.355C107.454 42.074 108.221 42.0415 109.124 41.892L109.176 42.3275C108.253 42.49 107.473 42.5225 106.355 42.5225H105.887V42.074ZM105.887 38.59H108.734V39.0385H106.42V42.23H105.887V38.59ZM106.29 40.2345H108.52V40.67H106.29V40.2345ZM109.794 38.057H110.333V43.933H109.794V38.057ZM113.635 39.7795H114.928V40.215H113.635V39.7795ZM115.955 38.057H116.469V42.048H115.955V38.057ZM114.792 38.161H115.305V41.5215H114.792V38.161ZM114.233 41.7035H114.694V41.892C114.694 42.945 113.622 43.7055 112.439 43.9135L112.231 43.4845C113.271 43.322 114.233 42.672 114.233 41.892V41.7035ZM114.304 41.7035H114.772V41.892C114.772 42.672 115.741 43.322 116.774 43.4845L116.566 43.9135C115.383 43.7055 114.304 42.945 114.304 41.892V41.7035ZM113.57 38.551H114.096C114.096 39.994 113.466 41.151 111.808 41.8725L111.542 41.476C113.011 40.852 113.57 39.89 113.57 38.694V38.551ZM111.815 38.551H113.758V38.993H111.815V38.551ZM113.518 39.656V40.033L111.626 40.2345L111.542 39.786L113.518 39.656ZM120.127 38.4275C121.349 38.4275 122.259 39.0775 122.259 40.0525C122.259 41.034 121.349 41.6775 120.127 41.6775C118.905 41.6775 117.989 41.034 117.989 40.0525C117.989 39.0775 118.905 38.4275 120.127 38.4275ZM120.127 38.8695C119.198 38.8695 118.509 39.344 118.509 40.0525C118.509 40.7545 119.198 41.2355 120.127 41.2355C121.057 41.2355 121.746 40.7545 121.746 40.0525C121.746 39.344 121.057 38.8695 120.127 38.8695ZM117.475 42.7045H122.799V43.1595H117.475V42.7045ZM123.455 42.763H128.778V43.2115H123.455V42.763ZM125.834 41.502H126.373V42.9515H125.834V41.502ZM124.098 38.4925H128.122V40.2735H124.651V41.45H124.118V39.838H127.589V38.928H124.098V38.4925ZM124.118 41.2225H128.258V41.6645H124.118V41.2225ZM135.28 38.057H135.819V42.3535H135.28V38.057ZM135.65 39.838H136.69V40.2865H135.65V39.838ZM133.674 38.512H134.246C134.246 40.033 133.18 41.1445 131.497 41.684L131.263 41.242C132.745 40.787 133.674 39.877 133.674 38.746V38.512ZM131.503 38.512H133.947V38.954H131.503V38.512ZM132.153 43.361H136.079V43.803H132.153V43.361ZM132.153 41.918H132.693V43.5365H132.153V41.918ZM141.532 38.057H142.072V42.4315H141.532V38.057ZM137.411 38.5315H140.505V38.9735H137.411V38.5315ZM137.314 41.5475L137.255 41.086C138.217 41.086 139.589 41.073 140.687 40.943L140.72 41.346C139.589 41.528 138.269 41.5475 137.314 41.5475ZM137.996 38.9085H138.516V41.164H137.996V38.9085ZM139.4 38.9085H139.92V41.164H139.4V38.9085ZM140.557 39.1685H141.818V39.6105H140.557V39.1685ZM140.557 40.293H141.818V40.735H140.557V40.293ZM138.315 43.361H142.228V43.803H138.315V43.361ZM138.315 42.074H138.854V43.6405H138.315V42.074ZM147.239 38.0635H147.778V42.4705H147.239V38.0635ZM147.609 39.9875H148.649V40.4425H147.609V39.9875ZM143.235 38.772H146.706V39.2075H143.235V38.772ZM144.97 39.5325C145.802 39.5325 146.374 39.968 146.374 40.631C146.374 41.2875 145.802 41.723 144.97 41.723C144.132 41.723 143.56 41.2875 143.56 40.631C143.56 39.968 144.132 39.5325 144.97 39.5325ZM144.97 39.955C144.437 39.955 144.073 40.2215 144.073 40.631C144.073 41.034 144.437 41.3005 144.97 41.3005C145.497 41.3005 145.861 41.034 145.861 40.631C145.861 40.2215 145.497 39.955 144.97 39.955ZM144.697 38.057H145.237V38.9995H144.697V38.057ZM144.119 43.361H148.045V43.803H144.119V43.361ZM144.119 42.1195H144.658V43.5495H144.119V42.1195ZM151.296 40.683H151.744C152.921 40.683 153.577 40.6635 154.364 40.5205L154.422 40.956C153.616 41.099 152.94 41.125 151.744 41.125H151.296V40.683ZM151.296 38.3755H153.98V38.8175H151.829V40.8975H151.296V38.3755ZM151.66 39.5195H153.87V39.9485H151.66V39.5195ZM155.046 38.057H155.586V41.32H155.046V38.057ZM155.436 39.435H156.457V39.8835H155.436V39.435ZM151.881 41.58H152.414V42.269H155.053V41.58H155.586V43.855H151.881V41.58ZM152.414 42.698V43.413H155.053V42.698H152.414ZM159.388 38.1545H159.849V38.4145C159.849 39.4545 158.718 40.202 157.516 40.397L157.314 39.968C158.367 39.825 159.388 39.175 159.388 38.4145V38.1545ZM159.472 38.1545H159.934V38.4145C159.934 39.162 160.967 39.825 162.007 39.968L161.806 40.397C160.61 40.202 159.472 39.435 159.472 38.4145V38.1545ZM157.002 40.8585H162.313V41.3005H157.002V40.8585ZM159.654 41.84C160.915 41.84 161.669 42.217 161.669 42.88C161.669 43.556 160.915 43.9265 159.654 43.9265C158.393 43.9265 157.639 43.556 157.639 42.88C157.639 42.217 158.393 41.84 159.654 41.84ZM159.654 42.256C158.738 42.256 158.185 42.49 158.185 42.88C158.185 43.283 158.738 43.5105 159.654 43.5105C160.577 43.5105 161.123 43.283 161.123 42.88C161.123 42.49 160.577 42.256 159.654 42.256Z" fill="white"/>
<path d="M93.5848 38.905H90.5848V44.415H96.1849V41.2319" stroke="white"/>
<path d="M91.5042 40.4949L93.3412 42.637L97.2279 37.9241" stroke="white"/>
</g>
</g>
<defs>
<clipPath id="clip0_26_49">
<rect width="345" height="47" fill="white" transform="translate(0.5 0.5)"/>
</clipPath>
</defs>
</svg>
