<svg width="801" height="110" viewBox="0 0 801 110" fill="none" xmlns="http://www.w3.org/2000/svg">
<g clip-path="url(#clip0_33_119)">
<mask id="mask0_33_119" style="mask-type:luminance" maskUnits="userSpaceOnUse" x="0" y="0" width="801" height="110">
<path d="M800.5 0.5H0.5V109.5H800.5V0.5Z" fill="white"/>
</mask>
<g mask="url(#mask0_33_119)">
<path d="M127.942 37.694H132.768V72.882H127.942V37.694ZM114.566 50.538H122.736V54.604H114.566V50.538ZM120.684 38.302H125.396V71.324H120.684V38.302ZM103.546 60.912H105.978C110.956 60.912 114.262 60.798 118.138 60.038L118.518 64.142C114.604 64.94 111.108 65.092 105.978 65.092H103.546V60.912ZM103.546 41.646H116.96V45.674H108.524V62.66H103.546V41.646ZM161.607 37.656H166.699V72.958H161.607V37.656ZM147.737 40.126C153.057 40.126 156.971 44.99 156.971 52.666C156.971 60.418 153.057 65.282 147.737 65.282C142.417 65.282 138.503 60.418 138.503 52.666C138.503 44.99 142.417 40.126 147.737 40.126ZM147.737 44.724C145.115 44.724 143.329 47.498 143.329 52.666C143.329 57.91 145.115 60.722 147.737 60.722C150.359 60.722 152.107 57.91 152.107 52.666C152.107 47.498 150.359 44.724 147.737 44.724ZM196.944 37.656H201.96V72.958H196.944V37.656ZM190.902 50.044H197.514V54.148H190.902V50.044ZM174.03 60.912H176.842C182.656 60.912 186.988 60.836 191.966 60.038L192.422 64.066C187.33 64.864 182.77 65.016 176.842 65.016H174.03V60.912ZM174.03 40.62H190.332V44.724H179.046V62.204H174.03V40.62ZM177.906 50.424H189.116V54.376H177.906V50.424ZM229.106 39.708H234.388C234.388 48.98 228.688 55.364 218.39 58.176L216.414 54.262C224.85 51.982 229.106 47.498 229.106 42.102V39.708ZM218.352 39.708H232.602V43.698H218.352V39.708ZM221.658 59.544H245.636V72.768H240.582V63.534H221.658V59.544ZM240.582 37.694H245.636V58.138H240.582V37.694ZM234.73 46.244H241.494V50.348H234.73V46.244ZM270.219 46.206H276.907V50.31H270.219V46.206ZM275.539 37.694H280.593V58.594H275.539V37.694ZM268.661 59.354C276.109 59.354 280.707 61.9 280.707 66.156C280.707 70.45 276.109 72.92 268.661 72.92C261.213 72.92 256.615 70.45 256.615 66.156C256.615 61.9 261.213 59.354 268.661 59.354ZM268.661 63.192C264.101 63.192 261.669 64.142 261.669 66.156C261.669 68.132 264.101 69.082 268.661 69.082C273.259 69.082 275.691 68.132 275.691 66.156C275.691 64.142 273.259 63.192 268.661 63.192ZM259.275 41.228H263.379V43.432C263.379 50.158 260.263 56.314 253.537 58.594L250.953 54.604C256.767 52.628 259.275 47.954 259.275 43.432V41.228ZM260.339 41.228H264.405V43.432C264.405 47.574 266.799 51.868 272.347 53.73L269.877 57.72C263.341 55.554 260.339 49.702 260.339 43.432V41.228ZM252.321 39.822H271.245V43.85H252.321V39.822ZM289.976 58.29H294.65V61.748H298.146V58.29H302.82V72.502H289.976V58.29ZM294.65 65.396V68.702H298.146V65.396H294.65ZM308.254 58.024H312.092V60.646C312.092 65.814 310.002 70.83 304.796 72.844L302.326 69.082C306.544 67.334 308.254 63.952 308.254 60.646V58.024ZM309.432 58.024H313.27V60.646C313.27 64.294 314.942 67.638 319.236 69.082L316.728 72.844C311.408 70.944 309.432 66.194 309.432 60.646V58.024ZM303.884 45.218H312.7V49.322H303.884V45.218ZM295.828 39.024C301.11 39.024 305.1 42.444 305.1 47.308C305.1 52.172 301.11 55.63 295.828 55.63C290.508 55.63 286.518 52.172 286.518 47.308C286.518 42.444 290.508 39.024 295.828 39.024ZM295.828 43.166C293.244 43.166 291.344 44.724 291.344 47.308C291.344 49.892 293.244 51.488 295.828 51.488C298.412 51.488 300.274 49.892 300.274 47.308C300.274 44.724 298.412 43.166 295.828 43.166ZM310.496 37.694H315.55V56.314H310.496V37.694ZM325.009 47.194H349.405V51.184H325.009V47.194ZM321.057 54.832H352.939V58.86H321.057V54.832ZM325.009 38.948H330.025V49.17H325.009V38.948ZM324.667 68.094H349.595V72.122H324.667V68.094ZM324.667 61.672H329.721V69.158H324.667V61.672ZM363.036 65.7216L362.888 67.206C362.771 68.3935 362.546 69.5765 362.213 70.755C361.889 71.9425 361.547 73.0175 361.187 73.9801C360.836 74.9427 360.553 75.6984 360.337 76.2472H356.613C356.748 75.7164 356.932 74.9742 357.166 74.0206C357.4 73.076 357.62 72.0144 357.827 70.8359C358.034 69.6574 358.165 68.4564 358.219 67.233L358.286 65.7216H363.036ZM376.762 59.696H380.116C386.824 59.696 391.941 59.61 397.875 58.664L398.391 63.222C392.371 64.168 386.953 64.34 380.116 64.34H376.762V59.696ZM376.762 36.82H395.467V41.464H382.524V61.201H376.762V36.82ZM381.148 47.871H394.908V52.343H381.148V47.871ZM400.67 33.509H406.432V73.327H400.67V33.509ZM405.142 48.602H412.194V53.332H405.142V48.602ZM416.749 37.078H435.884V63.867H416.749V37.078ZM430.294 41.55H422.382V59.352H430.294V41.55ZM442.076 33.466H447.838V73.413H442.076V33.466ZM469.119 35.788H474.107V38.669C474.107 47.312 467.958 54.966 457.638 56.987L455.187 52.257C464.174 50.709 469.119 44.388 469.119 38.669V35.788ZM470.28 35.788H475.225V38.669C475.225 44.517 480.127 50.709 489.157 52.257L486.706 56.987C476.386 54.966 470.28 47.441 470.28 38.669V35.788ZM454.37 63.824H490.404V68.468H454.37V63.824ZM532.603 33.509H538.064V73.327H532.603V33.509ZM527.443 48.688H534.022V53.289H527.443V48.688ZM516.177 38.11H521.595C521.595 49.548 518.8 58.793 506.932 65.716L503.75 61.674C513.554 55.998 516.177 49.032 516.177 39.142V38.11ZM506.115 38.11H517.983V42.711H506.115V38.11ZM523.831 34.369H529.163V71.607H523.831V34.369ZM516.263 47.097V51.311L504.696 52.558L504.051 47.742L516.263 47.097ZM573.106 48.559H580.115V53.246H573.106V48.559ZM568.849 33.466H574.611V73.284H568.849V33.466ZM544.597 37.293H550.316V62.018H544.597V37.293ZM544.597 58.836H548.037C553.713 58.836 559.862 58.449 566.269 57.159L566.871 61.846C560.292 63.222 553.885 63.566 548.037 63.566H544.597V58.836ZM608.405 33.466H614.167V73.413H608.405V33.466ZM612.877 48.215H619.929V52.902H612.877V48.215ZM584.497 59.094H587.851C594.559 59.094 599.848 58.879 605.696 57.847L606.255 62.577C600.235 63.652 594.774 63.824 587.851 63.824H584.497V59.094ZM584.497 37.164H603.073V41.765H590.173V61.373H584.497V37.164ZM630.633 58.664H636.481V73.327H630.633V58.664ZM644.393 58.664H650.241V73.327H644.393V58.664ZM622.506 55.654H658.583V60.255H622.506V55.654ZM640.437 34.842C648.951 34.842 654.842 38.325 654.842 43.786C654.842 49.161 648.951 52.644 640.437 52.644C631.966 52.644 626.075 49.161 626.075 43.786C626.075 38.325 631.966 34.842 640.437 34.842ZM640.437 39.4C635.234 39.4 631.923 40.948 631.923 43.786C631.923 46.581 635.234 48.129 640.437 48.129C645.683 48.129 648.951 46.581 648.951 43.786C648.951 40.948 645.683 39.4 640.437 39.4ZM689.411 33.552H695.173V55.998H689.411V33.552ZM668.685 57.847H695.173V72.897H668.685V57.847ZM689.54 62.319H674.275V68.382H689.54V62.319ZM671.394 34.971H676.124V38.798C676.124 46.194 672.426 52.902 664.643 55.353L661.891 50.838C668.556 48.774 671.394 43.7 671.394 38.798V34.971ZM672.555 34.971H677.242V38.798C677.242 43.614 680.037 48.258 686.487 50.193L683.735 54.622C676.124 52.343 672.555 46.108 672.555 38.798V34.971Z" fill="white"/>
<path d="M107.566 21.2443C106.436 21.2443 105.461 20.9949 104.642 20.4961C103.827 19.9922 103.199 19.2898 102.756 18.3888C102.318 17.4828 102.099 16.4292 102.099 15.228C102.099 14.0268 102.318 12.968 102.756 12.0518C103.199 11.1306 103.815 10.4129 104.604 9.89879C105.398 9.37962 106.324 9.12003 107.383 9.12003C107.994 9.12003 108.597 9.22183 109.192 9.42543C109.788 9.62902 110.33 9.95987 110.819 10.418C111.307 10.871 111.697 11.4716 111.987 12.2198C112.277 12.968 112.422 13.8893 112.422 14.9837V15.7472H103.382V14.1896H110.589C110.589 13.5279 110.457 12.9375 110.192 12.4183C109.933 11.8991 109.561 11.4894 109.078 11.1891C108.599 10.8888 108.034 10.7386 107.383 10.7386C106.665 10.7386 106.044 10.9168 105.52 11.2731C105.001 11.6243 104.601 12.0824 104.321 12.6474C104.041 13.2124 103.901 13.8181 103.901 14.4645V15.5028C103.901 16.3885 104.054 17.1393 104.359 17.7551C104.67 18.3659 105.1 18.8317 105.65 19.1523C106.199 19.4679 106.838 19.6257 107.566 19.6257C108.039 19.6257 108.467 19.5595 108.849 19.4272C109.236 19.2898 109.569 19.0862 109.849 18.8164C110.129 18.5415 110.345 18.2005 110.498 17.7933L112.239 18.282C112.055 18.8724 111.747 19.3916 111.315 19.8395C110.882 20.2823 110.348 20.6284 109.711 20.8778C109.075 21.1222 108.36 21.2443 107.566 21.2443ZM123.958 9.27273C123.867 8.49905 123.495 7.89844 122.844 7.47088C122.192 7.04332 121.393 6.82954 120.446 6.82954C119.754 6.82954 119.148 6.94152 118.629 7.16548C118.115 7.38944 117.713 7.69738 117.423 8.08931C117.138 8.48124 116.995 8.92661 116.995 9.42543C116.995 9.8428 117.094 10.2016 117.293 10.502C117.497 10.7972 117.756 11.044 118.072 11.2425C118.387 11.436 118.718 11.5963 119.064 11.7235C119.41 11.8457 119.729 11.945 120.019 12.0213L121.607 12.4489C122.014 12.5558 122.467 12.7034 122.966 12.8917C123.47 13.08 123.951 13.3371 124.409 13.6628C124.872 13.9835 125.254 14.3958 125.554 14.8997C125.854 15.4036 126.004 16.022 126.004 16.755C126.004 17.5999 125.783 18.3634 125.34 19.0455C124.902 19.7275 124.261 20.2696 123.416 20.6717C122.576 21.0738 121.556 21.2749 120.355 21.2749C119.235 21.2749 118.265 21.0942 117.446 20.7328C116.631 20.3714 115.99 19.8675 115.522 19.2211C115.058 18.5746 114.796 17.8239 114.735 16.9688H116.69C116.741 17.5592 116.939 18.0478 117.285 18.4347C117.637 18.8164 118.079 19.1014 118.614 19.2898C119.153 19.473 119.734 19.5646 120.355 19.5646C121.077 19.5646 121.726 19.4476 122.301 19.2134C122.877 18.9742 123.332 18.6433 123.668 18.2209C124.004 17.7933 124.172 17.2945 124.172 16.7244C124.172 16.2053 124.027 15.7828 123.737 15.457C123.447 15.1313 123.065 14.8666 122.592 14.663C122.118 14.4594 121.607 14.2812 121.057 14.1286L119.133 13.5788C117.911 13.2276 116.944 12.7263 116.232 12.0748C115.519 11.4232 115.163 10.5707 115.163 9.51704C115.163 8.64157 115.4 7.87808 115.873 7.22656C116.351 6.56996 116.993 6.06096 117.797 5.69957C118.606 5.3331 119.51 5.14986 120.507 5.14986C121.515 5.14986 122.411 5.33055 123.195 5.69194C123.979 6.04824 124.6 6.53687 125.058 7.15785C125.521 7.77882 125.765 8.48378 125.791 9.27273H123.958ZM131.011 5.36364V21H129.118V5.36364H131.011ZM134.808 5.36364H137.067L142.381 18.343H142.565L147.879 5.36364H150.138V21H148.367V9.12003H148.214L143.328 21H141.618L136.732 9.12003H136.579V21H134.808V5.36364ZM161.889 4.4665C165.931 4.4665 168.941 6.6165 168.941 9.8415C168.941 13.088 165.931 15.2165 161.889 15.2165C157.847 15.2165 154.815 13.088 154.815 9.8415C154.815 6.6165 157.847 4.4665 161.889 4.4665ZM161.889 5.9285C158.814 5.9285 156.535 7.498 156.535 9.8415C156.535 12.1635 158.814 13.7545 161.889 13.7545C164.963 13.7545 167.242 12.1635 167.242 9.8415C167.242 7.498 164.963 5.9285 161.889 5.9285ZM153.117 18.6135H170.725V20.1185H153.117V18.6135ZM172.895 18.807H190.503V20.2905H172.895V18.807ZM180.764 14.636H182.548V19.4305H180.764V14.636ZM175.023 4.6815H188.332V10.5725H176.851V14.464H175.088V9.132H186.569V6.122H175.023V4.6815ZM175.088 13.7115H188.783V15.1735H175.088V13.7115ZM203.214 15.2595H205.041V22.677H203.214V15.2595ZM209.9 15.2595H211.728V22.677H209.9V15.2595ZM198.699 14.292H216.329V15.7755H198.699V14.292ZM207.471 4.015C211.534 4.015 214.265 5.649 214.265 8.2505C214.265 10.8305 211.534 12.486 207.471 12.486C203.429 12.486 200.677 10.8305 200.677 8.2505C200.677 5.649 203.429 4.015 207.471 4.015ZM207.471 5.4555C204.504 5.4555 202.483 6.552 202.483 8.2505C202.483 9.949 204.504 11.0455 207.471 11.0455C210.438 11.0455 212.437 9.949 212.437 8.2505C212.437 6.552 210.438 5.4555 207.471 5.4555ZM232.624 3.2625H234.43V14.292H232.624V3.2625ZM221.874 15.41H234.43V22.419H221.874V15.41ZM232.667 16.829H223.615V20.9785H232.667V16.829ZM223.551 3.9935H225.034V5.8855C225.034 9.4975 222.798 12.5935 219.509 13.819L218.627 12.4C221.551 11.3465 223.551 8.7235 223.551 5.8855V3.9935ZM223.873 3.9935H225.335V5.8855C225.335 8.6375 227.356 11.067 230.237 12.0345L229.356 13.432C226.109 12.314 223.873 9.4115 223.873 5.8855V3.9935ZM240.083 5.176H252.596V6.6595H240.083V5.176ZM238.277 18.4845H255.842V19.968H238.277V18.4845ZM242.577 12.056H244.34V19.022H242.577V12.056ZM252.015 5.176H253.778V7.326C253.778 9.7985 253.778 12.3355 253.112 15.969L251.327 15.754C252.015 12.314 252.015 9.734 252.015 7.326V5.176ZM247.371 12.056H249.134V19.022H247.371V12.056ZM271.32 3.241H273.105V18.463H271.32V3.241ZM272.352 10.0135H275.943V11.497H272.352V10.0135ZM260.807 20.785H273.793V22.247H260.807V20.785ZM260.807 17.4525H262.591V21.2365H260.807V17.4525ZM263.129 12.744H264.913V15.3885H263.129V12.744ZM258.162 16.227L257.926 14.7865C261.366 14.7865 266.16 14.722 270.159 14.0985L270.31 15.367C266.203 16.1195 261.538 16.2055 258.162 16.227ZM258.42 5.133H269.579V6.4875H258.42V5.133ZM264.01 7.283C266.741 7.283 268.525 8.4225 268.525 10.2715C268.525 12.142 266.741 13.2815 264.01 13.2815C261.28 13.2815 259.474 12.142 259.474 10.2715C259.474 8.4225 261.28 7.283 264.01 7.283ZM264.01 8.5515C262.269 8.5515 261.151 9.218 261.151 10.2715C261.151 11.3465 262.269 11.9915 264.01 11.9915C265.73 11.9915 266.848 11.3465 266.848 10.2715C266.848 9.218 265.73 8.5515 264.01 8.5515ZM263.129 3.155H264.913V5.735H263.129V3.155ZM286.095 14.636H287.772V17.0655H291.169V14.636H292.824V22.419H286.095V14.636ZM287.772 18.3985V21.0215H291.169V18.3985H287.772ZM296.587 14.5285H297.963V16.141C297.963 18.7855 296.63 21.4515 293.942 22.591L293.039 21.2365C295.383 20.2475 296.587 18.119 296.587 16.141V14.5285ZM296.952 14.5285H298.328V16.141C298.328 18.2265 299.532 20.3335 301.876 21.2365L300.973 22.591C298.264 21.473 296.952 18.893 296.952 16.141V14.5285ZM293.641 7.799H298.866V9.2825H293.641V7.799ZM289.169 4.101C292.072 4.101 294.179 5.907 294.179 8.573C294.179 11.2175 292.072 13.045 289.169 13.045C286.267 13.045 284.16 11.2175 284.16 8.573C284.16 5.907 286.267 4.101 289.169 4.101ZM289.169 5.5845C287.256 5.5845 285.88 6.81 285.88 8.573C285.88 10.3145 287.256 11.5615 289.169 11.5615C291.083 11.5615 292.459 10.3145 292.459 8.573C292.459 6.81 291.083 5.5845 289.169 5.5845ZM298.07 3.241H299.855V13.5395H298.07V3.241ZM317.762 3.2195H319.547V22.6985H317.762V3.2195ZM309.291 4.7245C312.172 4.7245 314.236 7.369 314.236 11.497C314.236 15.6465 312.172 18.291 309.291 18.291C306.432 18.291 304.368 15.6465 304.368 11.497C304.368 7.369 306.432 4.7245 309.291 4.7245ZM309.291 6.337C307.399 6.337 306.066 8.358 306.066 11.497C306.066 14.6575 307.399 16.7215 309.291 16.7215C311.205 16.7215 312.516 14.6575 312.516 11.497C312.516 8.358 311.205 6.337 309.291 6.337ZM342.771 3.241H344.555V17.4525H342.771V3.241ZM343.996 9.132H347.436V10.6155H343.996V9.132ZM337.46 4.746H339.352C339.352 9.777 335.826 13.4535 330.258 15.238L329.484 13.776C334.386 12.271 337.46 9.261 337.46 5.52V4.746ZM330.279 4.746H338.363V6.208H330.279V4.746ZM332.429 20.785H345.415V22.247H332.429V20.785ZM332.429 16.012H334.214V21.3655H332.429V16.012ZM363.452 3.241H365.237V17.7105H363.452V3.241ZM349.821 4.8105H360.055V6.2725H349.821V4.8105ZM349.499 14.7865L349.305 13.26C352.487 13.26 357.024 13.217 360.657 12.787L360.765 14.12C357.024 14.722 352.659 14.7865 349.499 14.7865ZM351.756 6.0575H353.476V13.518H351.756V6.0575ZM356.4 6.0575H358.12V13.518H356.4V6.0575ZM360.227 6.9175H364.398V8.3795H360.227V6.9175ZM360.227 10.637H364.398V12.099H360.227V10.637ZM352.81 20.785H365.753V22.247H352.81V20.785ZM352.81 16.528H354.594V21.7095H352.81V16.528ZM382.198 3.241H383.983V22.677H382.198V3.241ZM383.553 11.2175H387.165V12.7225H383.553V11.2175ZM368.933 6.337H380.392V7.799H368.933V6.337ZM374.738 9.4115C377.49 9.4115 379.468 11.2605 379.468 13.8835C379.468 16.5065 377.49 18.3555 374.738 18.3555C372.007 18.3555 370.008 16.5065 370.008 13.8835C370.008 11.2605 372.007 9.4115 374.738 9.4115ZM374.738 10.895C372.975 10.895 371.706 12.1205 371.706 13.8835C371.706 15.625 372.975 16.872 374.738 16.872C376.501 16.872 377.769 15.625 377.769 13.8835C377.769 12.1205 376.501 10.895 374.738 10.895ZM373.813 3.4775H375.598V7.0035H373.813V3.4775ZM403.611 3.241H405.331V22.677H403.611V3.241ZM395.183 11.1745H400.085V12.615H395.183V11.1745ZM399.569 3.7355H401.246V21.688H399.569V3.7355ZM395.419 5.692H397.139C397.139 10.7875 395.097 15.367 389.851 18.4845L388.797 17.216C393.377 14.464 395.419 10.594 395.419 6.0145V5.692ZM389.657 5.692H396.086V7.154H389.657V5.692ZM411.553 5.36364L411.401 16.6023H409.629L409.477 5.36364H411.553ZM410.515 21.1222C410.138 21.1222 409.815 20.9873 409.545 20.7175C409.275 20.4477 409.141 20.1245 409.141 19.7479C409.141 19.3712 409.275 19.048 409.545 18.7782C409.815 18.5085 410.138 18.3736 410.515 18.3736C410.892 18.3736 411.215 18.5085 411.485 18.7782C411.754 19.048 411.889 19.3712 411.889 19.7479C411.889 19.9973 411.826 20.2263 411.698 20.435C411.576 20.6437 411.411 20.8117 411.202 20.9389C410.998 21.0611 410.769 21.1222 410.515 21.1222Z" fill="white"/>
<path d="M133.516 89.614H135.01V101.602H133.516V89.614ZM134.542 94.564H137.422V95.806H134.542V94.564ZM124.876 104.32H135.748V105.544H124.876V104.32ZM124.876 100.378H126.37V104.806H124.876V100.378ZM126.928 90.766C129.358 90.766 131.176 92.44 131.176 94.78C131.176 97.138 129.358 98.794 126.928 98.794C124.498 98.794 122.68 97.138 122.68 94.78C122.68 92.44 124.498 90.766 126.928 90.766ZM126.928 92.08C125.344 92.08 124.138 93.196 124.138 94.78C124.138 96.382 125.344 97.48 126.928 97.48C128.512 97.48 129.718 96.382 129.718 94.78C129.718 93.196 128.512 92.08 126.928 92.08ZM147.627 93.844H151.299V95.086H147.627V93.844ZM150.831 89.632H152.325V99.334H150.831V89.632ZM146.979 99.82C150.327 99.82 152.397 100.954 152.397 102.862C152.397 104.788 150.327 105.886 146.979 105.886C143.613 105.886 141.543 104.788 141.543 102.862C141.543 100.954 143.613 99.82 146.979 99.82ZM146.979 100.99C144.531 100.99 143.037 101.674 143.037 102.862C143.037 104.032 144.531 104.716 146.979 104.716C149.427 104.716 150.921 104.032 150.921 102.862C150.921 101.674 149.427 100.99 146.979 100.99ZM143.091 91.27H144.315V92.584C144.315 95.59 142.479 98.164 139.779 99.172L139.005 97.984C141.417 97.102 143.091 94.924 143.091 92.584V91.27ZM143.379 91.27H144.585V92.584C144.585 94.69 146.169 96.706 148.527 97.534L147.771 98.722C145.125 97.768 143.379 95.32 143.379 92.584V91.27ZM139.455 90.82H148.149V92.044H139.455V90.82ZM159.649 91.288H160.873V92.602C160.873 95.572 159.037 98.11 156.319 99.118L155.545 97.93C157.975 97.066 159.649 94.906 159.649 92.602V91.288ZM159.937 91.288H161.143V92.602C161.143 94.69 162.727 96.724 165.085 97.552L164.329 98.74C161.683 97.768 159.937 95.32 159.937 92.602V91.288ZM164.203 93.862H167.821V95.104H164.203V93.862ZM156.013 90.748H164.707V91.954H156.013V90.748ZM158.029 100.252H168.883V105.904H167.389V101.476H158.029V100.252ZM167.389 89.632H168.883V99.37H167.389V89.632ZM183.894 89.65H185.406V101.53H183.894V89.65ZM174.948 104.32H185.892V105.544H174.948V104.32ZM174.948 100.306H176.424V104.734H174.948V100.306ZM176.676 90.766C179.106 90.766 180.906 92.422 180.906 94.78C180.906 97.12 179.106 98.794 176.676 98.794C174.246 98.794 172.428 97.12 172.428 94.78C172.428 92.422 174.246 90.766 176.676 90.766ZM176.676 92.062C175.092 92.062 173.886 93.178 173.886 94.78C173.886 96.364 175.092 97.48 176.676 97.48C178.26 97.48 179.466 96.364 179.466 94.78C179.466 93.178 178.26 92.062 176.676 92.062ZM193.671 98.254H208.377V99.46H193.671V98.254ZM200.277 96.148H201.753V98.758H200.277V96.148ZM195.615 95.482H206.649V96.652H195.615V95.482ZM195.615 90.1H206.577V91.27H197.091V96.112H195.615V90.1ZM196.659 92.764H206.145V93.916H196.659V92.764ZM201.015 100.666C204.561 100.666 206.595 101.566 206.595 103.276C206.595 104.968 204.561 105.868 201.015 105.868C197.469 105.868 195.435 104.968 195.435 103.276C195.435 101.566 197.469 100.666 201.015 100.666ZM201.015 101.8C198.405 101.8 196.947 102.322 196.947 103.276C196.947 104.248 198.405 104.752 201.015 104.752C203.625 104.752 205.083 104.248 205.083 103.276C205.083 102.322 203.625 101.8 201.015 101.8ZM222.073 89.65H223.585V101.566H222.073V89.65ZM213.127 104.32H224.071V105.544H213.127V104.32ZM213.127 100.468H214.603V104.896H213.127V100.468ZM214.477 90.532H215.719V92.188C215.719 95.356 213.919 98.128 211.183 99.244L210.409 98.038C212.857 97.084 214.477 94.708 214.477 92.188V90.532ZM214.747 90.532H215.971V92.188C215.971 94.636 217.609 96.85 220.039 97.732L219.247 98.938C216.547 97.894 214.747 95.284 214.747 92.188V90.532ZM227.472 90.856H234.942V97.858H227.472V90.856ZM233.484 92.062H228.93V96.67H233.484V92.062ZM237.93 89.632H239.424V99.244H237.93V89.632ZM239.01 93.664H241.836V94.924H239.01V93.664ZM234.24 99.802C237.552 99.802 239.586 100.936 239.586 102.844C239.586 104.77 237.552 105.886 234.24 105.886C230.928 105.886 228.894 104.77 228.894 102.844C228.894 100.936 230.928 99.802 234.24 99.802ZM234.24 101.008C231.828 101.008 230.352 101.674 230.352 102.844C230.352 104.014 231.828 104.698 234.24 104.698C236.652 104.698 238.128 104.014 238.128 102.844C238.128 101.674 236.652 101.008 234.24 101.008ZM244.085 91.414H251.447V92.62H244.085V91.414ZM246.623 96.058H248.099V101.566H246.623V96.058ZM250.835 91.414H252.293V92.278C252.293 93.61 252.293 95.734 251.825 98.758L250.349 98.614C250.835 95.68 250.835 93.592 250.835 92.278V91.414ZM254.345 89.632H255.821V105.904H254.345V89.632ZM255.425 96.436H258.431V97.696H255.425V96.436ZM243.365 102.358L243.185 101.098C246.137 101.098 250.061 101.044 253.355 100.63L253.427 101.728C250.061 102.268 246.245 102.34 243.365 102.358ZM276.254 89.614H277.748V105.922H276.254V89.614ZM277.082 96.022H280.088V97.264H277.082V96.022ZM265.454 100.396H266.174C267.092 100.396 268.316 100.378 269.72 100.054L269.864 101.296C268.37 101.638 267.164 101.656 266.174 101.656H265.454V100.396ZM265.454 91.342H269.558V92.548H266.93V101.008H265.454V91.342ZM270.476 100.396H271.268C272.852 100.396 273.986 100.36 275.3 100.018L275.444 101.26C274.058 101.602 272.942 101.656 271.268 101.656H270.476V100.396ZM270.476 91.342H274.796V92.548H271.952V101.026H270.476V91.342ZM292.56 89.614H294.054V105.922H292.56V89.614ZM293.694 96.094H296.718V97.354H293.694V96.094ZM282.192 100.756H283.488C286.548 100.756 288.672 100.648 291.138 100.18L291.3 101.422C288.762 101.872 286.602 101.998 283.488 101.998H282.192V100.756ZM282.156 91.144H289.518V96.976H283.668V101.26H282.192V95.752H288.042V92.368H282.156V91.144ZM304.691 95.014H306.167V97.21H304.691V95.014ZM305.447 89.83C309.029 89.83 311.171 90.82 311.171 92.638C311.171 94.456 309.029 95.464 305.447 95.464C301.847 95.464 299.723 94.456 299.723 92.638C299.723 90.82 301.847 89.83 305.447 89.83ZM305.447 90.964C302.783 90.964 301.253 91.576 301.253 92.638C301.253 93.718 302.783 94.33 305.447 94.33C308.093 94.33 309.623 93.718 309.623 92.638C309.623 91.576 308.093 90.964 305.447 90.964ZM298.085 96.67H312.791V97.894H298.085V96.67ZM299.867 99.226H310.919V102.916H301.379V104.896H299.903V101.818H309.443V100.396H299.867V99.226ZM299.903 104.554H311.405V105.724H299.903V104.554ZM326.294 90.208H327.608V91.108C327.608 94.222 324.44 96.454 321.056 97.03L320.462 95.824C323.432 95.374 326.294 93.43 326.294 91.108V90.208ZM326.564 90.208H327.86V91.108C327.86 93.376 330.758 95.374 333.692 95.824L333.098 97.03C329.75 96.454 326.564 94.186 326.564 91.108V90.208ZM326.294 99.712H327.77V105.904H326.294V99.712ZM319.724 98.794H334.43V100.036H319.724V98.794ZM343.199 99.172H344.603V101.206H347.447V99.172H348.833V105.688H343.199V99.172ZM344.603 102.322V104.518H347.447V102.322H344.603ZM351.983 99.082H353.135V100.432C353.135 102.646 352.019 104.878 349.769 105.832L349.013 104.698C350.975 103.87 351.983 102.088 351.983 100.432V99.082ZM352.289 99.082H353.441V100.432C353.441 102.178 354.449 103.942 356.411 104.698L355.655 105.832C353.387 104.896 352.289 102.736 352.289 100.432V99.082ZM349.517 93.448H353.891V94.69H349.517V93.448ZM345.773 90.352C348.203 90.352 349.967 91.864 349.967 94.096C349.967 96.31 348.203 97.84 345.773 97.84C343.343 97.84 341.579 96.31 341.579 94.096C341.579 91.864 343.343 90.352 345.773 90.352ZM345.773 91.594C344.171 91.594 343.019 92.62 343.019 94.096C343.019 95.554 344.171 96.598 345.773 96.598C347.375 96.598 348.527 95.554 348.527 94.096C348.527 92.62 347.375 91.594 345.773 91.594ZM353.225 89.632H354.719V98.254H353.225V89.632ZM359.884 94.51H370.936V95.734H359.884V94.51ZM357.886 97.912H372.646V99.136H357.886V97.912ZM359.884 90.226H361.36V95.122H359.884V90.226ZM359.776 104.284H371.026V105.508H359.776V104.284ZM359.776 100.756H361.252V104.608H359.776V100.756ZM380.747 104.5H379.085L383.892 91.4091H385.528L390.335 104.5H388.673L384.761 93.4801H384.659L380.747 104.5ZM381.361 99.3864H388.059V100.793H381.361V99.3864ZM396.797 90.7955L392.579 106.469H391.198L395.417 90.7955H396.797ZM405.949 94.6818C405.872 94.0341 405.561 93.5312 405.016 93.1733C404.47 92.8153 403.801 92.6364 403.009 92.6364C402.429 92.6364 401.922 92.7301 401.488 92.9176C401.057 93.1051 400.72 93.3629 400.478 93.6911C400.239 94.0192 400.12 94.392 400.12 94.8097C400.12 95.1591 400.203 95.4595 400.369 95.7109C400.539 95.9581 400.757 96.1648 401.021 96.331C401.285 96.4929 401.562 96.6271 401.852 96.7337C402.142 96.8359 402.408 96.919 402.651 96.983L403.98 97.3409C404.321 97.4304 404.701 97.554 405.118 97.7116C405.54 97.8693 405.943 98.0845 406.326 98.3572C406.714 98.6257 407.034 98.9709 407.285 99.3928C407.537 99.8146 407.662 100.332 407.662 100.946C407.662 101.653 407.477 102.293 407.106 102.864C406.74 103.435 406.203 103.888 405.495 104.225C404.792 104.562 403.938 104.73 402.932 104.73C401.995 104.73 401.183 104.579 400.497 104.276C399.815 103.974 399.278 103.552 398.886 103.011C398.498 102.469 398.279 101.841 398.228 101.125H399.864C399.907 101.619 400.073 102.028 400.363 102.352C400.657 102.672 401.027 102.911 401.475 103.068C401.926 103.222 402.412 103.298 402.932 103.298C403.537 103.298 404.081 103.2 404.562 103.004C405.044 102.804 405.425 102.527 405.706 102.173C405.988 101.815 406.128 101.398 406.128 100.92C406.128 100.486 406.007 100.132 405.764 99.8594C405.521 99.5866 405.201 99.3651 404.805 99.1946C404.409 99.0241 403.98 98.875 403.52 98.7472L401.909 98.2869C400.887 97.9929 400.077 97.5732 399.48 97.0277C398.884 96.4822 398.586 95.7685 398.586 94.8864C398.586 94.1534 398.784 93.5142 399.18 92.9688C399.581 92.419 400.117 91.9929 400.791 91.6903C401.468 91.3835 402.225 91.2301 403.06 91.2301C403.904 91.2301 404.654 91.3814 405.31 91.6839C405.966 91.9822 406.486 92.3913 406.87 92.9112C407.257 93.4311 407.462 94.0213 407.483 94.6818H405.949Z" fill="white"/>
<path d="M109.562 92.292H102V106.181H116.12V98.156" stroke="white" stroke-width="1.8"/>
<path d="M104.315 96.302L108.944 101.702L118.744 89.8191" stroke="white" stroke-width="1.8"/>
</g>
</g>
<defs>
<clipPath id="clip0_33_119">
<rect width="800" height="109" fill="white" transform="translate(0.5 0.5)"/>
</clipPath>
</defs>
</svg>
