<svg width="346" height="48" viewBox="0 0 346 48" fill="none" xmlns="http://www.w3.org/2000/svg">
<g clip-path="url(#clip0_93_41)">
<mask id="mask0_93_41" style="mask-type:luminance" maskUnits="userSpaceOnUse" x="0" y="0" width="346" height="48">
<path d="M345.5 0.5H0.5V47.5H345.5V0.5Z" fill="white"/>
</mask>
<g mask="url(#mask0_93_41)">
<path d="M86.836 26.157H87.694C89.41 26.157 90.719 26.135 92.237 25.893L92.369 27.059C90.829 27.301 89.443 27.345 87.694 27.345H86.836V26.157ZM86.836 20.305H91.621V21.493H88.31V26.542H86.836V20.305ZM87.958 23.132H91.478V24.276H87.958V23.132ZM92.952 19.458H94.426V29.644H92.952V19.458ZM94.096 23.319H95.9V24.529H94.096V23.319ZM97.0651 20.371H101.96V27.224H97.0651V20.371ZM100.53 21.515H98.5061V26.069H100.53V21.515ZM103.544 19.447H105.018V29.666H103.544V19.447ZM110.462 20.041H111.738V20.778C111.738 22.989 110.165 24.947 107.525 25.464L106.898 24.254C109.197 23.858 110.462 22.241 110.462 20.778V20.041ZM110.759 20.041H112.024V20.778C112.024 22.274 113.278 23.858 115.588 24.254L114.961 25.464C112.321 24.947 110.759 23.022 110.759 20.778V20.041ZM106.689 27.213H115.907V28.401H106.689V27.213ZM120.075 20.129C121.681 20.129 122.88 21.174 122.88 22.637C122.88 24.111 121.681 25.156 120.075 25.156C118.48 25.156 117.259 24.111 117.259 22.637C117.259 21.174 118.48 20.129 120.075 20.129ZM120.075 21.383C119.294 21.383 118.7 21.845 118.7 22.637C118.7 23.44 119.294 23.902 120.075 23.902C120.856 23.902 121.45 23.44 121.45 22.637C121.45 21.845 120.856 21.383 120.075 21.383ZM123.837 19.447H125.3V29.666H123.837V19.447ZM117.017 27.598L116.841 26.421C118.634 26.421 121.131 26.399 123.276 26.08L123.386 27.136C121.175 27.576 118.777 27.598 117.017 27.598ZM131.717 19.81H132.905V20.459C132.905 22.395 132.003 24.067 130.034 24.683L129.33 23.517C131.013 23.011 131.717 21.768 131.717 20.459V19.81ZM132.014 19.81H133.191V20.426C133.191 21.669 133.873 22.824 135.501 23.297L134.764 24.43C132.872 23.847 132.014 22.285 132.014 20.426V19.81ZM136.018 19.458H137.481V24.683H136.018V19.458ZM136.887 21.438H138.823V22.637H136.887V21.438ZM130.749 25.079H137.481V27.829H132.223V29.072H130.771V26.773H136.04V26.201H130.749V25.079ZM130.771 28.445H137.778V29.578H130.771V28.445ZM142.31 20.162C143.861 20.162 144.983 21.57 144.983 23.792C144.983 26.036 143.861 27.444 142.31 27.444C140.759 27.444 139.637 26.036 139.637 23.792C139.637 21.57 140.759 20.162 142.31 20.162ZM142.31 21.493C141.551 21.493 141.045 22.296 141.045 23.792C141.045 25.31 141.551 26.124 142.31 26.124C143.069 26.124 143.586 25.31 143.586 23.792C143.586 22.296 143.069 21.493 142.31 21.493ZM146.094 19.458H147.568V29.644H146.094V19.458ZM147.238 23.297H149.042V24.507H147.238V23.297ZM151.989 25.64H153.089V25.981C153.089 27.521 152.407 28.929 150.812 29.501L150.097 28.434C151.428 27.983 151.989 26.971 151.989 25.981V25.64ZM152.363 25.64H153.408V25.981C153.408 26.971 153.903 28.005 155.146 28.522L154.563 29.6C152.946 28.995 152.363 27.477 152.363 25.981V25.64ZM155.707 25.64H156.752V25.981C156.752 27.389 156.147 28.973 154.563 29.6L153.958 28.522C155.201 27.961 155.707 26.883 155.707 25.981V25.64ZM156.048 25.64H157.148V25.981C157.148 27.037 157.698 28.016 159.04 28.434L158.325 29.501C156.708 28.951 156.048 27.587 156.048 25.981V25.64ZM156.697 19.469H158.171V25.222H156.697V19.469ZM152.627 19.986C154.211 19.986 155.388 20.998 155.388 22.428C155.388 23.847 154.211 24.859 152.627 24.859C151.043 24.859 149.855 23.847 149.855 22.428C149.855 20.998 151.043 19.986 152.627 19.986ZM152.627 21.196C151.857 21.196 151.285 21.647 151.285 22.428C151.285 23.198 151.857 23.649 152.627 23.649C153.397 23.649 153.958 23.198 153.958 22.428C153.958 21.647 153.397 21.196 152.627 21.196ZM160.964 22.208H168.026V23.363H160.964V22.208ZM159.82 24.419H169.049V25.585H159.82V24.419ZM160.964 19.821H162.416V22.78H160.964V19.821ZM160.865 28.258H168.081V29.424H160.865V28.258ZM160.865 26.399H162.328V28.566H160.865V26.399ZM181.548 22.334H183.667V23.751H181.548V22.334ZM180.261 17.771H182.003V29.809H180.261V17.771ZM172.929 18.928H174.658V26.403H172.929V18.928ZM172.929 25.441H173.969C175.685 25.441 177.544 25.324 179.481 24.934L179.663 26.351C177.674 26.767 175.737 26.871 173.969 26.871H172.929V25.441ZM192.779 17.771H194.521V29.848H192.779V17.771ZM188.034 18.616C189.854 18.616 191.193 20.28 191.193 22.906C191.193 25.558 189.854 27.222 188.034 27.222C186.214 27.222 184.875 25.558 184.875 22.906C184.875 20.28 186.214 18.616 188.034 18.616ZM188.034 20.189C187.137 20.189 186.526 21.138 186.526 22.906C186.526 24.7 187.137 25.662 188.034 25.662C188.931 25.662 189.529 24.7 189.529 22.906C189.529 21.138 188.931 20.189 188.034 20.189ZM199.707 18.616C201.54 18.616 202.866 20.28 202.866 22.906C202.866 25.558 201.54 27.222 199.707 27.222C197.874 27.222 196.548 25.558 196.548 22.906C196.548 20.28 197.874 18.616 199.707 18.616ZM199.707 20.189C198.81 20.189 198.212 21.138 198.212 22.906C198.212 24.7 198.81 25.662 199.707 25.662C200.604 25.662 201.215 24.7 201.215 22.906C201.215 21.138 200.604 20.189 199.707 20.189ZM204.179 17.784H205.921V29.822H204.179V17.784ZM205.531 22.321H207.663V23.751H205.531V22.321ZM216.138 17.771H217.88V29.809H216.138V17.771ZM217.425 22.373H219.544V23.79H217.425V22.373ZM212.979 19.019H214.669C214.669 22.633 213.291 25.727 209.287 27.742L208.325 26.429C211.484 24.791 212.979 22.581 212.979 19.318V19.019ZM208.988 19.019H213.863V20.41H208.988V19.019ZM228.123 17.771H229.839V29.848H228.123V17.771ZM229.449 22.321H231.581V23.751H229.449V22.321ZM220.895 25.636H221.909C223.95 25.636 225.536 25.571 227.304 25.259L227.473 26.65C225.653 26.975 224.002 27.053 221.909 27.053H220.895V25.636ZM220.882 18.798H226.42V23.465H222.611V26.169H220.895V22.087H224.704V20.176H220.882V18.798ZM241.895 20.696H244.183V22.1H241.895V20.696ZM243.715 17.784H245.444V24.934H243.715V17.784ZM241.362 25.194C243.91 25.194 245.483 26.065 245.483 27.521C245.483 28.99 243.91 29.835 241.362 29.835C238.814 29.835 237.241 28.99 237.241 27.521C237.241 26.065 238.814 25.194 241.362 25.194ZM241.362 26.507C239.802 26.507 238.97 26.832 238.97 27.521C238.97 28.197 239.802 28.522 241.362 28.522C242.935 28.522 243.767 28.197 243.767 27.521C243.767 26.832 242.935 26.507 241.362 26.507ZM238.151 18.993H239.555V19.747C239.555 22.048 238.489 24.154 236.188 24.934L235.304 23.569C237.293 22.893 238.151 21.294 238.151 19.747V18.993ZM238.515 18.993H239.906V19.747C239.906 21.164 240.725 22.633 242.623 23.27L241.778 24.635C239.542 23.894 238.515 21.892 238.515 19.747V18.993ZM235.772 18.512H242.246V19.89H235.772V18.512ZM247.341 27.027H258.235V28.431H247.341V27.027ZM251.904 24.453H253.633V27.365H251.904V24.453ZM248.485 18.551H250.201V20.397H255.336V18.551H257.052V24.817H248.485V18.551ZM250.201 21.749V23.439H255.336V21.749H250.201Z" fill="white"/>
<path d="M92.054 6.40299H93.223V6.89299H92.054V6.40299ZM91.627 3.87599H92.215V10.211H91.627V3.87599ZM87.595 4.49899H88.176V8.41899H87.595V4.49899ZM87.595 8.11799H88.099C89.037 8.11799 89.996 8.05499 91.039 7.83799L91.109 8.32099C90.031 8.54499 89.058 8.60799 88.099 8.60799H87.595V8.11799ZM98.3815 3.87599H98.9625V10.218H98.3815V3.87599ZM95.6235 4.36599C96.5615 4.36599 97.2335 5.22699 97.2335 6.57099C97.2335 7.92199 96.5615 8.78299 95.6235 8.78299C94.6925 8.78299 94.0205 7.92199 94.0205 6.57099C94.0205 5.22699 94.6925 4.36599 95.6235 4.36599ZM95.6235 4.89099C95.0075 4.89099 94.5735 5.54899 94.5735 6.57099C94.5735 7.59999 95.0075 8.27199 95.6235 8.27199C96.2465 8.27199 96.6735 7.59999 96.6735 6.57099C96.6735 5.54899 96.2465 4.89099 95.6235 4.89099ZM101.909 4.36599C102.84 4.36599 103.498 5.22699 103.498 6.57099C103.498 7.92199 102.84 8.78299 101.909 8.78299C100.978 8.78299 100.32 7.92199 100.32 6.57099C100.32 5.22699 100.978 4.36599 101.909 4.36599ZM101.909 4.89099C101.293 4.89099 100.873 5.54899 100.873 6.57099C100.873 7.59999 101.293 8.27199 101.909 8.27199C102.518 8.27199 102.945 7.59999 102.945 6.57099C102.945 5.54899 102.518 4.89099 101.909 4.89099ZM104.506 3.88299H105.094V10.211H104.506V3.88299ZM104.954 6.40999H106.13V6.89999H104.954V6.40999ZM110.945 3.87599H111.533V10.211H110.945V3.87599ZM111.372 6.44499H112.541V6.92799H111.372V6.44499ZM109.328 4.56199H109.895C109.895 6.36099 109.069 7.98499 107.025 9.01399L106.703 8.56599C108.453 7.67699 109.328 6.32599 109.328 4.65299V4.56199ZM106.997 4.56199H109.629V5.03799H106.997V4.56199ZM117.392 3.87599H117.973V10.218H117.392V3.87599ZM117.833 6.39599H119.009V6.88599H117.833V6.39599ZM113.36 8.20899H113.864C115.054 8.20899 115.88 8.16699 116.839 7.98499L116.902 8.46799C115.915 8.64299 115.075 8.69199 113.864 8.69199H113.36V8.20899ZM113.346 4.47099H116.209V6.73899H113.934V8.40499H113.36V6.26299H115.635V4.94699H113.346V4.47099ZM124.365 5.28999H126.276V5.77299H124.365V5.28999ZM124.365 7.29199H126.276V7.77499H124.365V7.29199ZM123.203 4.36599C124.12 4.36599 124.778 5.22699 124.778 6.57099C124.778 7.92199 124.12 8.78299 123.203 8.78299C122.279 8.78299 121.628 7.92199 121.628 6.57099C121.628 5.22699 122.279 4.36599 123.203 4.36599ZM123.203 4.89099C122.594 4.89099 122.174 5.54899 122.174 6.57099C122.174 7.59999 122.594 8.27199 123.203 8.27199C123.812 8.27199 124.232 7.59999 124.232 6.57099C124.232 5.54899 123.812 4.89099 123.203 4.89099ZM126.15 3.87599H126.724V10.218H126.15V3.87599ZM132.729 3.88299H133.282V7.88699H132.729V3.88299ZM131.7 5.59799H132.897V6.08099H131.7V5.59799ZM131.378 4.00899H131.924V7.66299H131.378V4.00899ZM127.92 4.63899H131.126V5.10099H127.92V4.63899ZM129.53 5.42299C130.321 5.42299 130.874 5.85699 130.874 6.50799C130.874 7.16599 130.321 7.59299 129.53 7.59299C128.732 7.59299 128.179 7.16599 128.179 6.50799C128.179 5.85699 128.732 5.42299 129.53 5.42299ZM129.53 5.85699C129.033 5.85699 128.697 6.11599 128.697 6.50799C128.697 6.90699 129.033 7.15899 129.53 7.15899C130.02 7.15899 130.356 6.90699 130.356 6.50799C130.356 6.11599 130.02 5.85699 129.53 5.85699ZM129.243 3.93199H129.81V4.89799H129.243V3.93199ZM131.21 7.99899C132.526 7.99899 133.317 8.39099 133.317 9.09799C133.317 9.79799 132.526 10.197 131.21 10.197C129.88 10.197 129.096 9.79799 129.096 9.09799C129.096 8.39099 129.88 7.99899 131.21 7.99899ZM131.21 8.44699C130.237 8.44699 129.67 8.67799 129.67 9.09799C129.67 9.51799 130.237 9.75599 131.21 9.75599C132.169 9.75599 132.743 9.51799 132.743 9.09799C132.743 8.67799 132.169 8.44699 131.21 8.44699ZM137.092 4.15599H141.166V4.62499H137.092V4.15599ZM136.364 6.40999H142.097V6.88599H136.364V6.40999ZM138.926 6.74599H139.507V8.05499H138.926V6.74599ZM140.788 4.15599H141.355V4.61099C141.355 5.12899 141.355 5.76599 141.145 6.62699L140.578 6.55699C140.788 5.71699 140.788 5.11499 140.788 4.61099V4.15599ZM139.213 7.85899C140.578 7.85899 141.411 8.28599 141.411 9.03499C141.411 9.77699 140.578 10.204 139.213 10.204C137.848 10.204 137.022 9.77699 137.022 9.03499C137.022 8.28599 137.848 7.85899 139.213 7.85899ZM139.213 8.33499C138.212 8.33499 137.603 8.58699 137.603 9.03499C137.603 9.47599 138.212 9.73499 139.213 9.73499C140.221 9.73499 140.823 9.47599 140.823 9.03499C140.823 8.58699 140.221 8.33499 139.213 8.33499ZM143.531 4.21199H147.605V4.68799H143.531V4.21199ZM142.803 6.54299H148.536V7.01899H142.803V6.54299ZM147.227 4.21199H147.794V4.68099C147.794 5.21999 147.794 5.83599 147.584 6.71099L147.017 6.68299C147.227 5.81499 147.227 5.20599 147.227 4.68099V4.21199ZM143.503 7.87999H147.815V10.127H143.503V7.87999ZM147.248 8.34199H144.07V9.65799H147.248V8.34199ZM153.569 3.88999H154.15V8.63599H153.569V3.88999ZM153.968 5.96199H155.088V6.45199H153.968V5.96199ZM149.257 4.65299H152.995V5.12199H149.257V4.65299ZM151.126 5.47199C152.022 5.47199 152.638 5.94099 152.638 6.65499C152.638 7.36199 152.022 7.83099 151.126 7.83099C150.223 7.83099 149.607 7.36199 149.607 6.65499C149.607 5.94099 150.223 5.47199 151.126 5.47199ZM151.126 5.92699C150.552 5.92699 150.16 6.21399 150.16 6.65499C150.16 7.08899 150.552 7.37599 151.126 7.37599C151.693 7.37599 152.085 7.08899 152.085 6.65499C152.085 6.21399 151.693 5.92699 151.126 5.92699ZM150.832 3.88299H151.413V4.89799H150.832V3.88299ZM150.209 9.59499H154.437V10.071H150.209V9.59499ZM150.209 8.25799H150.79V9.79799H150.209V8.25799ZM162.271 3.88299H162.852V8.16699H162.271V3.88299ZM160.913 5.66799H162.39V6.14399H160.913V5.66799ZM160.283 4.37999H160.892C160.892 6.01799 159.814 7.17999 158.001 7.76799L157.756 7.30599C159.359 6.80199 160.283 5.84999 160.283 4.61099V4.37999ZM158.057 4.37999H160.696V4.85599H158.057V4.37999ZM160.521 7.62099H161.018V7.90799C161.018 9.11899 159.912 9.93799 158.645 10.197L158.414 9.73499C159.534 9.53199 160.521 8.83199 160.521 7.90799V7.62099ZM160.605 7.62099H161.102V7.90799C161.102 8.81799 162.075 9.51799 163.202 9.72099L162.957 10.183C161.697 9.93099 160.605 9.11199 160.605 7.90799V7.62099ZM168.682 3.87599H169.263V10.218H168.682V3.87599ZM165.924 4.36599C166.862 4.36599 167.534 5.22699 167.534 6.57099C167.534 7.92199 166.862 8.78299 165.924 8.78299C164.993 8.78299 164.321 7.92199 164.321 6.57099C164.321 5.22699 164.993 4.36599 165.924 4.36599ZM165.924 4.89099C165.308 4.89099 164.874 5.54899 164.874 6.57099C164.874 7.59999 165.308 8.27199 165.924 8.27199C166.547 8.27199 166.974 7.59999 166.974 6.57099C166.974 5.54899 166.547 4.89099 165.924 4.89099ZM177.132 3.88299H177.713V10.225H177.132V3.88299ZM175.186 5.96899H177.321V6.44499H175.186V5.96899ZM172.841 4.58999H173.415V8.50999H172.841V4.58999ZM172.841 8.20199H173.331C174.311 8.20199 175.186 8.14599 176.159 7.94299L176.229 8.43299C175.221 8.62899 174.332 8.69199 173.331 8.69199H172.841V8.20199ZM178.931 7.55799H184.671V8.03399H178.931V7.55799ZM181.493 7.84499H182.067V10.211H181.493V7.84499ZM179.659 4.23299H183.929V6.70399H179.659V4.23299ZM183.362 4.70199H180.233V6.23499H183.362V4.70199ZM191.672 3.88299H192.253V7.10999H191.672V3.88299ZM192.001 5.30399H193.191V5.78699H192.001V5.30399ZM187.605 4.29599H190.51V6.87899H187.605V4.29599ZM189.943 4.76499H188.172V6.41699H189.943V4.76499ZM188.004 9.56699H188.305C188.683 9.56699 189.292 9.53199 189.831 9.34999L189.929 9.81899C189.32 10.015 188.739 10.043 188.305 10.043H188.004V9.56699ZM188.004 7.69099H188.571V9.69299H188.004V7.69099ZM189.698 7.75399H192.876V8.18799H189.698V7.75399ZM191.294 8.41899C191.98 8.41899 192.463 8.76899 192.463 9.30799C192.463 9.86099 191.98 10.204 191.294 10.204C190.601 10.204 190.118 9.86099 190.118 9.30799C190.118 8.76899 190.601 8.41899 191.294 8.41899ZM191.294 8.83199C190.902 8.83199 190.636 9.02099 190.636 9.30799C190.636 9.60199 190.902 9.79099 191.294 9.79099C191.672 9.79099 191.945 9.60199 191.945 9.30799C191.945 9.02099 191.672 8.83199 191.294 8.83199ZM191.007 7.20099H191.574V8.06199H191.007V7.20099ZM196.642 3.98799C198.035 3.98799 198.868 4.37999 198.868 5.08699C198.868 5.79399 198.035 6.18599 196.642 6.18599C195.242 6.18599 194.416 5.79399 194.416 5.08699C194.416 4.37999 195.242 3.98799 196.642 3.98799ZM196.642 4.42899C195.606 4.42899 195.011 4.66699 195.011 5.08699C195.011 5.50699 195.606 5.74499 196.642 5.74499C197.671 5.74499 198.266 5.50699 198.266 5.08699C198.266 4.66699 197.671 4.42899 196.642 4.42899ZM193.779 6.60599H199.498V7.07499H193.779V6.60599ZM194.472 7.61399H198.77V9.04199H195.06V9.81199H194.486V8.62199H198.196V8.06199H194.472V7.61399ZM194.486 9.68599H198.959V10.141H194.486V9.68599ZM205.813 4.01599H206.352V9.89599H205.813V4.01599ZM206.128 6.45899H207.297V6.93499H206.128V6.45899ZM202.376 8.08299H202.628C202.873 8.08299 203.286 8.07599 203.776 7.95699L203.825 8.43999C203.3 8.56599 202.894 8.56599 202.628 8.56599H202.376V8.08299ZM202.376 4.67399H203.727V5.14999H202.915V8.35599H202.376V4.67399ZM204 8.08299H204.266C204.602 8.08299 205.043 8.06899 205.526 7.93599L205.582 8.41899C205.064 8.55899 204.63 8.56599 204.266 8.56599H204V8.08299ZM204 4.67399H205.393V5.14999H204.532V8.33499H204V4.67399ZM207.094 3.88299H207.647V10.211H207.094V3.88299Z" fill="white"/>
<path d="M99.906 38.2155H100.446V44.1045H99.906V38.2155ZM97.345 38.6705C98.216 38.6705 98.84 39.47 98.84 40.718C98.84 41.9725 98.216 42.772 97.345 42.772C96.4805 42.772 95.8565 41.9725 95.8565 40.718C95.8565 39.47 96.4805 38.6705 97.345 38.6705ZM97.345 39.158C96.773 39.158 96.37 39.769 96.37 40.718C96.37 41.6735 96.773 42.2975 97.345 42.2975C97.9235 42.2975 98.32 41.6735 98.32 40.718C98.32 39.769 97.9235 39.158 97.345 39.158ZM106.055 38.222H106.568V42.681H106.055V38.222ZM103.994 39.925H105.106V40.367H103.994V39.925ZM104.937 38.339H105.45V42.512H104.937V38.339ZM101.882 38.69H102.389V39.678H103.643V38.69H104.157V41.5695H101.882V38.69ZM102.389 40.107V41.134H103.643V40.107H102.389ZM102.74 43.526H106.75V43.968H102.74V43.526ZM102.74 42.083H103.279V43.7665H102.74V42.083ZM108.284 41.3875H112.32V41.823H108.284V41.3875ZM107.601 42.8955H112.925V43.344H107.601V42.8955ZM108.284 38.7225H112.255V39.1645H108.83V41.524H108.284V38.7225ZM108.654 40.0355H112.132V40.4645H108.654V40.0355ZM113.58 42.928H118.904V43.3765H113.58V42.928ZM115.959 41.667H116.499V43.1165H115.959V41.667ZM114.224 38.6575H118.247V40.4385H114.776V41.615H114.243V40.003H117.714V39.093H114.224V38.6575ZM114.243 41.3875H118.384V41.8295H114.243V41.3875ZM121.694 38.5795H122.22V39.4895H123.91V38.5795H124.443V41.355H121.694V38.5795ZM122.22 39.9185V40.926H123.91V39.9185H122.22ZM122.279 42.1025H126.205V44.098H125.659V42.538H122.279V42.1025ZM125.659 38.222H126.205V41.7775H125.659V38.222ZM128.687 38.7095C129.448 38.7095 129.942 39.496 129.942 40.757C129.942 42.018 129.448 42.8045 128.687 42.8045C127.927 42.8045 127.439 42.018 127.439 40.757C127.439 39.496 127.927 38.7095 128.687 38.7095ZM128.687 39.21C128.226 39.21 127.933 39.808 127.933 40.757C127.933 41.706 128.226 42.304 128.687 42.304C129.149 42.304 129.441 41.706 129.441 40.757C129.441 39.808 129.149 39.21 128.687 39.21ZM131.84 38.222H132.36V44.098H131.84V38.222ZM130.91 40.549H132.035V40.991H130.91V40.549ZM130.54 38.3455H131.053V43.8055H130.54V38.3455ZM133.835 38.3975H138.151V38.82H133.835V38.3975ZM133.861 39.938H138.125V40.354H133.861V39.938ZM134.725 38.56H135.265V40.211H134.725V38.56ZM136.727 38.56H137.26V40.211H136.727V38.56ZM133.341 40.8415H138.651V41.277H133.341V40.8415ZM133.984 41.7905H137.975V43.0775H134.53V43.786H133.997V42.694H137.442V42.1935H133.984V41.7905ZM133.997 43.6235H138.151V44.033H133.997V43.6235ZM143.799 38.222H144.319V44.098H143.799V38.222ZM142.869 40.5815H143.994V41.03H142.869V40.5815ZM142.525 38.352H143.032V43.799H142.525V38.352ZM139.379 38.9565H142.096V39.3985H139.379V38.9565ZM139.327 42.655L139.262 42.2C140.035 42.2 141.309 42.174 142.206 42.057L142.245 42.4535C141.316 42.629 140.094 42.655 139.327 42.655ZM139.879 39.2425H140.373V42.317H139.879V39.2425ZM141.101 39.2425H141.595V42.317H141.101V39.2425ZM147.659 38.625H148.127V39.0735C148.127 40.354 146.938 41.3485 145.761 41.615L145.521 41.1665C146.554 40.9715 147.659 40.0745 147.659 39.0735V38.625ZM147.757 38.625H148.225V39.0735C148.225 40.081 149.336 40.9715 150.363 41.1665L150.123 41.615C148.953 41.3485 147.757 40.3605 147.757 39.0735V38.625ZM145.306 42.863H150.63V43.305H145.306V42.863ZM157.131 38.2025H157.67V41.446H157.131V38.2025ZM157.443 39.613H158.541V40.068H157.443V39.613ZM153.939 41.745H157.67V43.058H154.485V43.773H153.952V42.668H157.144V42.1545H153.939V41.745ZM153.952 43.617H157.885V44.033H153.952V43.617ZM153.127 38.7485H156.598V39.171H153.127V38.7485ZM154.862 39.431C155.707 39.431 156.266 39.8015 156.266 40.3995C156.266 40.991 155.707 41.355 154.862 41.355C154.004 41.355 153.452 40.991 153.452 40.3995C153.452 39.8015 154.004 39.431 154.862 39.431ZM154.862 39.8275C154.316 39.8275 153.965 40.0485 153.965 40.3995C153.965 40.744 154.316 40.965 154.862 40.965C155.402 40.965 155.753 40.744 155.753 40.3995C155.753 40.0485 155.402 39.8275 154.862 39.8275ZM154.589 38.157H155.129V39.041H154.589V38.157ZM163.364 38.2285H163.91V42.5185H163.364V38.2285ZM160.133 43.526H164.085V43.968H160.133V43.526ZM160.133 42.0765H160.666V43.6755H160.133V42.0765ZM160.757 38.6315C161.635 38.6315 162.285 39.2295 162.285 40.081C162.285 40.926 161.635 41.5305 160.757 41.5305C159.88 41.5305 159.223 40.926 159.223 40.081C159.223 39.2295 159.88 38.6315 160.757 38.6315ZM160.757 39.0995C160.185 39.0995 159.75 39.5025 159.75 40.081C159.75 40.653 160.185 41.056 160.757 41.056C161.329 41.056 161.765 40.653 161.765 40.081C161.765 39.5025 161.329 39.0995 160.757 39.0995ZM170.918 38.222H171.457V41.6605H170.918V38.222ZM171.308 39.6325H172.328V40.0875H171.308V39.6325ZM167.141 38.547H167.674V39.444H169.332V38.547H169.858V41.29H167.141V38.547ZM167.674 39.873V40.8545H169.332V39.873H167.674ZM167.785 41.979H171.503V42.4145H168.324V43.89H167.785V41.979ZM167.785 43.578H171.62V44.02H167.785V43.578ZM175.532 38.5925C176.754 38.5925 177.664 39.2425 177.664 40.2175C177.664 41.199 176.754 41.8425 175.532 41.8425C174.31 41.8425 173.394 41.199 173.394 40.2175C173.394 39.2425 174.31 38.5925 175.532 38.5925ZM175.532 39.0345C174.603 39.0345 173.914 39.509 173.914 40.2175C173.914 40.9195 174.603 41.4005 175.532 41.4005C176.462 41.4005 177.151 40.9195 177.151 40.2175C177.151 39.509 176.462 39.0345 175.532 39.0345ZM172.88 42.8695H178.204V43.3245H172.88V42.8695ZM181.174 40.3215H182.298V40.77H181.174V40.3215ZM180.075 38.7745H180.498V39.8925C180.498 41.121 179.984 42.3105 179.126 42.837L178.788 42.4275C179.594 41.953 180.075 40.9 180.075 39.8925V38.7745ZM180.179 38.7745H180.595V39.873C180.595 40.8155 181.037 41.8165 181.811 42.2845L181.499 42.707C180.654 42.187 180.179 41.017 180.179 39.873V38.7745ZM183.332 38.222H183.852V44.098H183.332V38.222ZM182.142 38.3455H182.649V43.8055H182.142V38.3455ZM186.139 41.2445H186.672V43.006H186.139V41.2445ZM188.31 41.2445H188.85V43.006H188.31V41.2445ZM184.839 42.902H190.163V43.3505H184.839V42.902ZM187.491 38.5925C188.733 38.5925 189.623 39.184 189.623 40.107C189.623 41.0235 188.733 41.615 187.491 41.615C186.243 41.615 185.353 41.0235 185.353 40.107C185.353 39.184 186.243 38.5925 187.491 38.5925ZM187.491 39.0215C186.549 39.0215 185.873 39.4505 185.873 40.107C185.873 40.757 186.549 41.186 187.491 41.186C188.434 41.186 189.103 40.757 189.103 40.107C189.103 39.4505 188.434 39.0215 187.491 39.0215ZM191.713 38.8637L191.666 42.2614H191.131L191.085 38.8637H191.713ZM191.399 43.6279C191.285 43.6279 191.187 43.5871 191.105 43.5056C191.024 43.424 190.983 43.3263 190.983 43.2124C190.983 43.0986 191.024 43.0008 191.105 42.9193C191.187 42.8377 191.285 42.797 191.399 42.797C191.512 42.797 191.61 42.8377 191.692 42.9193C191.773 43.0008 191.814 43.0986 191.814 43.2124C191.814 43.2878 191.795 43.3571 191.756 43.4202C191.719 43.4833 191.669 43.5341 191.606 43.5725C191.545 43.6095 191.476 43.6279 191.399 43.6279Z" fill="white"/>
<path d="M90.5848 39.07H87.5848V44.58H93.1849V41.3969" stroke="white"/>
<path d="M88.5042 40.6599L90.3412 42.802L94.2279 38.0891" stroke="white"/>
</g>
</g>
<defs>
<clipPath id="clip0_93_41">
<rect width="345" height="47" fill="white" transform="translate(0.5 0.5)"/>
</clipPath>
</defs>
</svg>
