<svg width="801" height="110" viewBox="0 0 801 110" fill="none" xmlns="http://www.w3.org/2000/svg">
<g clip-path="url(#clip0_93_28)">
<mask id="mask0_93_28" style="mask-type:luminance" maskUnits="userSpaceOnUse" x="0" y="0" width="801" height="110">
<path d="M800.5 0.5H0.5V109.5H800.5V0.5Z" fill="white"/>
</mask>
<g mask="url(#mask0_93_28)">
<path d="M110.888 58.836H113.852C119.78 58.836 124.302 58.76 129.546 57.924L130.002 61.952C124.682 62.788 119.894 62.94 113.852 62.94H110.888V58.836ZM110.888 38.62H127.418V42.724H115.98V60.166H110.888V38.62ZM114.764 48.386H126.924V52.338H114.764V48.386ZM132.016 35.694H137.108V70.882H132.016V35.694ZM135.968 49.032H142.2V53.212H135.968V49.032ZM146.225 38.848H163.135V62.522H146.225V38.848ZM158.195 42.8H151.203V58.532H158.195V42.8ZM168.607 35.656H173.699V70.958H168.607V35.656ZM192.506 37.708H196.914V40.254C196.914 47.892 191.48 54.656 182.36 56.442L180.194 52.262C188.136 50.894 192.506 45.308 192.506 40.254V37.708ZM193.532 37.708H197.902V40.254C197.902 45.422 202.234 50.894 210.214 52.262L208.048 56.442C198.928 54.656 193.532 48.006 193.532 40.254V37.708ZM179.472 62.484H211.316V66.588H179.472V62.484ZM225.715 38.012C231.263 38.012 235.405 41.622 235.405 46.676C235.405 51.768 231.263 55.378 225.715 55.378C220.205 55.378 215.987 51.768 215.987 46.676C215.987 41.622 220.205 38.012 225.715 38.012ZM225.715 42.344C223.017 42.344 220.965 43.94 220.965 46.676C220.965 49.45 223.017 51.046 225.715 51.046C228.413 51.046 230.465 49.45 230.465 46.676C230.465 43.94 228.413 42.344 225.715 42.344ZM238.711 35.656H243.765V70.958H238.711V35.656ZM215.151 63.814L214.543 59.748C220.737 59.748 229.363 59.672 236.773 58.57L237.153 62.218C229.515 63.738 221.231 63.814 215.151 63.814ZM265.933 36.91H270.037V39.152C270.037 45.84 266.921 51.616 260.119 53.744L257.687 49.716C263.501 47.968 265.933 43.674 265.933 39.152V36.91ZM266.959 36.91H271.025V39.038C271.025 43.332 273.381 47.322 279.005 48.956L276.459 52.87C269.923 50.856 266.959 45.46 266.959 39.038V36.91ZM280.791 35.694H285.845V53.744H280.791V35.694ZM283.793 42.534H290.481V46.676H283.793V42.534ZM262.589 55.112H285.845V64.612H267.681V68.906H262.665V60.964H280.867V58.988H262.589V55.112ZM262.665 66.74H286.871V70.654H262.665V66.74ZM302.524 38.126C307.882 38.126 311.758 42.99 311.758 50.666C311.758 58.418 307.882 63.282 302.524 63.282C297.166 63.282 293.29 58.418 293.29 50.666C293.29 42.99 297.166 38.126 302.524 38.126ZM302.524 42.724C299.902 42.724 298.154 45.498 298.154 50.666C298.154 55.91 299.902 58.722 302.524 58.722C305.146 58.722 306.932 55.91 306.932 50.666C306.932 45.498 305.146 42.724 302.524 42.724ZM315.596 35.694H320.688V70.882H315.596V35.694ZM319.548 48.956H325.78V53.136H319.548V48.956ZM335.961 57.05H339.761V58.228C339.761 63.548 337.405 68.412 331.895 70.388L329.425 66.702C334.023 65.144 335.961 61.648 335.961 58.228V57.05ZM337.253 57.05H340.863V58.228C340.863 61.648 342.573 65.22 346.867 67.006L344.853 70.73C339.267 68.64 337.253 63.396 337.253 58.228V57.05ZM348.805 57.05H352.415V58.228C352.415 63.092 350.325 68.564 344.853 70.73L342.763 67.006C347.057 65.068 348.805 61.344 348.805 58.228V57.05ZM349.983 57.05H353.783V58.228C353.783 61.876 355.683 65.258 360.319 66.702L357.849 70.388C352.263 68.488 349.983 63.776 349.983 58.228V57.05ZM352.225 35.732H357.317V55.606H352.225V35.732ZM338.165 37.518C343.637 37.518 347.703 41.014 347.703 45.954C347.703 50.856 343.637 54.352 338.165 54.352C332.693 54.352 328.589 50.856 328.589 45.954C328.589 41.014 332.693 37.518 338.165 37.518ZM338.165 41.698C335.505 41.698 333.529 43.256 333.529 45.954C333.529 48.614 335.505 50.172 338.165 50.172C340.825 50.172 342.763 48.614 342.763 45.954C342.763 43.256 340.825 41.698 338.165 41.698ZM366.966 45.194H391.362V49.184H366.966V45.194ZM363.014 52.832H394.896V56.86H363.014V52.832ZM366.966 36.948H371.982V47.17H366.966V36.948ZM366.624 66.094H391.552V70.122H366.624V66.094ZM366.624 59.672H371.678V67.158H366.624V59.672ZM436.679 46.559H443.688V51.246H436.679V46.559ZM432.422 31.466H438.184V71.284H432.422V31.466ZM408.17 35.293H413.889V60.018H408.17V35.293ZM408.17 56.836H411.61C417.286 56.836 423.435 56.449 429.842 55.159L430.444 59.846C423.865 61.222 417.458 61.566 411.61 61.566H408.17V56.836ZM473.828 31.466H479.59V71.413H473.828V31.466ZM458.133 34.261C464.153 34.261 468.582 39.765 468.582 48.451C468.582 57.223 464.153 62.727 458.133 62.727C452.113 62.727 447.684 57.223 447.684 48.451C447.684 39.765 452.113 34.261 458.133 34.261ZM458.133 39.464C455.166 39.464 453.145 42.603 453.145 48.451C453.145 54.385 455.166 57.567 458.133 57.567C461.1 57.567 463.078 54.385 463.078 48.451C463.078 42.603 461.1 39.464 458.133 39.464ZM496.743 34.261C502.806 34.261 507.192 39.765 507.192 48.451C507.192 57.223 502.806 62.727 496.743 62.727C490.68 62.727 486.294 57.223 486.294 48.451C486.294 39.765 490.68 34.261 496.743 34.261ZM496.743 39.464C493.776 39.464 491.798 42.603 491.798 48.451C491.798 54.385 493.776 57.567 496.743 57.567C499.71 57.567 501.731 54.385 501.731 48.451C501.731 42.603 499.71 39.464 496.743 39.464ZM511.535 31.509H517.297V71.327H511.535V31.509ZM516.007 46.516H523.059V51.246H516.007V46.516ZM551.092 31.466H556.854V71.284H551.092V31.466ZM555.349 46.688H562.358V51.375H555.349V46.688ZM540.643 35.594H546.233C546.233 47.548 541.675 57.782 528.431 64.447L525.249 60.104C535.698 54.686 540.643 47.376 540.643 36.583V35.594ZM527.442 35.594H543.567V40.195H527.442V35.594ZM590.735 31.466H596.411V71.413H590.735V31.466ZM595.121 46.516H602.173V51.246H595.121V46.516ZM566.827 57.481H570.181C576.932 57.481 582.178 57.266 588.026 56.234L588.585 60.835C582.565 61.91 577.104 62.168 570.181 62.168H566.827V57.481ZM566.784 34.863H585.102V50.3H572.503V59.244H566.827V45.742H579.426V39.421H566.784V34.863ZM636.287 41.141H643.855V45.785H636.287V41.141ZM642.307 31.509H648.026V55.159H642.307V31.509ZM634.524 56.019C642.952 56.019 648.155 58.9 648.155 63.716C648.155 68.575 642.952 71.37 634.524 71.37C626.096 71.37 620.893 68.575 620.893 63.716C620.893 58.9 626.096 56.019 634.524 56.019ZM634.524 60.362C629.364 60.362 626.612 61.437 626.612 63.716C626.612 65.952 629.364 67.027 634.524 67.027C639.727 67.027 642.479 65.952 642.479 63.716C642.479 61.437 639.727 60.362 634.524 60.362ZM623.903 35.508H628.547V38.002C628.547 45.613 625.021 52.579 617.41 55.159L614.486 50.644C621.065 48.408 623.903 43.119 623.903 38.002V35.508ZM625.107 35.508H629.708V38.002C629.708 42.689 632.417 47.548 638.695 49.655L635.9 54.17C628.504 51.719 625.107 45.097 625.107 38.002V35.508ZM616.034 33.917H637.448V38.475H616.034V33.917ZM654.301 62.082H690.335V66.726H654.301V62.082ZM669.394 53.568H675.113V63.2H669.394V53.568ZM658.085 34.046H663.761V40.152H680.746V34.046H686.422V54.772H658.085V34.046ZM663.761 44.624V50.214H680.746V44.624H663.761Z" fill="white"/>
<path d="M126.201 3.241H127.985V22.677H126.201V3.241ZM113.301 5.133H115.064V17.173H113.301V5.133ZM113.301 16.1195H114.892C117.837 16.1195 120.912 15.9045 124.201 15.2165L124.416 16.743C121.041 17.431 117.966 17.6675 114.892 17.6675H113.301V16.1195ZM145.957 3.2195H147.742V22.6985H145.957V3.2195ZM137.486 4.7245C140.367 4.7245 142.431 7.369 142.431 11.497C142.431 15.6465 140.367 18.291 137.486 18.291C134.627 18.291 132.563 15.6465 132.563 11.497C132.563 7.369 134.627 4.7245 137.486 4.7245ZM137.486 6.337C135.594 6.337 134.261 8.358 134.261 11.497C134.261 14.6575 135.594 16.7215 137.486 16.7215C139.4 16.7215 140.711 14.6575 140.711 11.497C140.711 8.358 139.4 6.337 137.486 6.337ZM156.792 4.7245C159.651 4.7245 161.672 7.369 161.672 11.497C161.672 15.6465 159.651 18.291 156.792 18.291C153.932 18.291 151.911 15.6465 151.911 11.497C151.911 7.369 153.932 4.7245 156.792 4.7245ZM156.792 6.337C154.9 6.337 153.61 8.358 153.61 11.497C153.61 14.6575 154.9 16.7215 156.792 16.7215C158.662 16.7215 159.974 14.6575 159.974 11.497C159.974 8.358 158.662 6.337 156.792 6.337ZM164.768 3.241H166.574V22.677H164.768V3.241ZM166.144 11.0025H169.756V12.5075H166.144V11.0025ZM184.546 3.2195H186.352V22.677H184.546V3.2195ZM185.858 11.11H189.448V12.5935H185.858V11.11ZM179.58 5.3265H181.321C181.321 10.852 178.784 15.84 172.506 19.0005L171.517 17.6245C176.892 14.894 179.58 10.7445 179.58 5.606V5.3265ZM172.42 5.3265H180.504V6.7885H172.42V5.3265ZM204.346 3.2195H206.131V22.6985H204.346V3.2195ZM205.701 10.9595H209.313V12.4645H205.701V10.9595ZM191.962 16.528H193.51C197.165 16.528 199.702 16.399 202.648 15.84L202.841 17.3235C199.81 17.861 197.23 18.0115 193.51 18.0115H191.962V16.528ZM191.919 5.047H200.713V12.013H193.725V17.13H191.962V10.551H198.95V6.509H191.919V5.047ZM225.764 7.5625H231.633V9.046H225.764V7.5625ZM225.764 13.7115H231.633V15.195H225.764V13.7115ZM222.195 4.7245C225.011 4.7245 227.032 7.369 227.032 11.497C227.032 15.6465 225.011 18.291 222.195 18.291C219.357 18.291 217.357 15.6465 217.357 11.497C217.357 7.369 219.357 4.7245 222.195 4.7245ZM222.195 6.337C220.324 6.337 219.034 8.358 219.034 11.497C219.034 14.6575 220.324 16.7215 222.195 16.7215C224.065 16.7215 225.355 14.6575 225.355 11.497C225.355 8.358 224.065 6.337 222.195 6.337ZM231.246 3.2195H233.009V22.6985H231.246V3.2195ZM251.455 3.241H253.153V15.539H251.455V3.241ZM248.294 8.5085H251.971V9.992H248.294V8.5085ZM247.305 3.628H248.982V14.851H247.305V3.628ZM236.684 5.563H246.531V6.982H236.684V5.563ZM241.629 7.971C244.059 7.971 245.757 9.304 245.757 11.3035C245.757 13.3245 244.059 14.636 241.629 14.636C239.178 14.636 237.48 13.3245 237.48 11.3035C237.48 9.304 239.178 7.971 241.629 7.971ZM241.629 9.304C240.103 9.304 239.071 10.0995 239.071 11.3035C239.071 12.529 240.103 13.303 241.629 13.303C243.134 13.303 244.166 12.529 244.166 11.3035C244.166 10.0995 243.134 9.304 241.629 9.304ZM240.748 3.3915H242.489V6.3585H240.748V3.3915ZM246.789 15.883C250.831 15.883 253.261 17.087 253.261 19.2585C253.261 21.4085 250.831 22.634 246.789 22.634C242.704 22.634 240.296 21.4085 240.296 19.2585C240.296 17.087 242.704 15.883 246.789 15.883ZM246.789 17.259C243.801 17.259 242.059 17.9685 242.059 19.2585C242.059 20.5485 243.801 21.2795 246.789 21.2795C249.735 21.2795 251.498 20.5485 251.498 19.2585C251.498 17.9685 249.735 17.259 246.789 17.259ZM264.853 4.0795H277.366V5.52H264.853V4.0795ZM262.617 11.0025H280.225V12.4645H262.617V11.0025ZM270.486 12.0345H272.27V16.055H270.486V12.0345ZM276.205 4.0795H277.946V5.477C277.946 7.068 277.946 9.0245 277.301 11.669L275.56 11.454C276.205 8.874 276.205 7.025 276.205 5.477V4.0795ZM271.367 15.453C275.56 15.453 278.118 16.7645 278.118 19.065C278.118 21.344 275.56 22.6555 271.367 22.6555C267.175 22.6555 264.638 21.344 264.638 19.065C264.638 16.7645 267.175 15.453 271.367 15.453ZM271.367 16.915C268.293 16.915 266.422 17.689 266.422 19.065C266.422 20.4195 268.293 21.215 271.367 21.215C274.463 21.215 276.312 20.4195 276.312 19.065C276.312 17.689 274.463 16.915 271.367 16.915ZM284.631 4.2515H297.144V5.7135H284.631V4.2515ZM282.395 11.411H300.004V12.873H282.395V11.411ZM295.983 4.2515H297.725V5.692C297.725 7.3475 297.725 9.2395 297.08 11.927L295.338 11.841C295.983 9.175 295.983 7.3045 295.983 5.692V4.2515ZM284.545 15.5175H297.789V22.419H284.545V15.5175ZM296.048 16.9365H286.287V20.9785H296.048V16.9365ZM315.461 3.2625H317.245V17.8395H315.461V3.2625ZM316.686 9.6265H320.126V11.1315H316.686V9.6265ZM302.217 5.606H313.698V7.0465H302.217V5.606ZM307.957 8.1215C310.709 8.1215 312.601 9.562 312.601 11.755C312.601 13.9265 310.709 15.367 307.957 15.367C305.184 15.367 303.292 13.9265 303.292 11.755C303.292 9.562 305.184 8.1215 307.957 8.1215ZM307.957 9.519C306.194 9.519 304.99 10.4005 304.99 11.755C304.99 13.088 306.194 13.9695 307.957 13.9695C309.699 13.9695 310.903 13.088 310.903 11.755C310.903 10.4005 309.699 9.519 307.957 9.519ZM307.054 3.241H308.839V6.3585H307.054V3.241ZM305.141 20.785H318.127V22.247H305.141V20.785ZM305.141 16.6785H306.925V21.4085H305.141V16.6785ZM342.189 3.241H343.973V16.399H342.189V3.241ZM338.018 8.7235H342.554V10.1855H338.018V8.7235ZM336.083 4.7675H337.953C337.953 9.7985 334.642 13.3675 329.074 15.1735L328.321 13.7545C333.245 12.2065 336.083 9.2825 336.083 5.477V4.7675ZM329.246 4.7675H337.351V6.2295H329.246V4.7675ZM336.814 14.722H338.34V15.6035C338.34 19.323 334.943 21.8385 331.052 22.634L330.342 21.215C333.782 20.5915 336.814 18.4415 336.814 15.6035V14.722ZM337.072 14.722H338.598V15.6035C338.598 18.3985 341.587 20.5485 345.048 21.172L344.296 22.591C340.426 21.817 337.072 19.3015 337.072 15.6035V14.722ZM361.881 3.2195H363.666V22.6985H361.881V3.2195ZM353.41 4.7245C356.291 4.7245 358.355 7.369 358.355 11.497C358.355 15.6465 356.291 18.291 353.41 18.291C350.551 18.291 348.487 15.6465 348.487 11.497C348.487 7.369 350.551 4.7245 353.41 4.7245ZM353.41 6.337C351.518 6.337 350.185 8.358 350.185 11.497C350.185 14.6575 351.518 16.7215 353.41 16.7215C355.324 16.7215 356.635 14.6575 356.635 11.497C356.635 8.358 355.324 6.337 353.41 6.337ZM387.835 3.241H389.62V22.72H387.835V3.241ZM381.858 9.648H388.416V11.11H381.858V9.648ZM374.656 5.4125H376.419V17.4525H374.656V5.4125ZM374.656 16.5065H376.161C379.171 16.5065 381.858 16.3345 384.847 15.711L385.062 17.216C381.966 17.818 379.235 18.0115 376.161 18.0115H374.656V16.5065ZM393.359 14.5285H410.989V15.9905H393.359V14.5285ZM401.228 15.41H402.991V22.677H401.228V15.41ZM395.595 4.316H408.71V11.9055H395.595V4.316ZM406.969 5.7565H397.358V10.465H406.969V5.7565ZM432.493 3.241H434.277V13.1525H432.493V3.241ZM433.503 7.6055H437.158V9.089H433.503V7.6055ZM420.001 4.5095H428.924V12.443H420.001V4.5095ZM427.182 5.95H421.743V11.024H427.182V5.95ZM421.227 20.699H422.151C423.312 20.699 425.183 20.5915 426.838 20.0325L427.139 21.473C425.269 22.075 423.484 22.161 422.151 22.161H421.227V20.699ZM421.227 14.937H422.968V21.086H421.227V14.937ZM426.43 15.1305H436.191V16.4635H426.43V15.1305ZM431.332 17.173C433.439 17.173 434.922 18.248 434.922 19.9035C434.922 21.602 433.439 22.6555 431.332 22.6555C429.203 22.6555 427.72 21.602 427.72 19.9035C427.72 18.248 429.203 17.173 431.332 17.173ZM431.332 18.4415C430.128 18.4415 429.311 19.022 429.311 19.9035C429.311 20.8065 430.128 21.387 431.332 21.387C432.493 21.387 433.331 20.8065 433.331 19.9035C433.331 19.022 432.493 18.4415 431.332 18.4415ZM430.45 13.432H432.192V16.0765H430.45V13.432ZM447.756 3.5635C452.035 3.5635 454.593 4.7675 454.593 6.939C454.593 9.1105 452.035 10.3145 447.756 10.3145C443.456 10.3145 440.919 9.1105 440.919 6.939C440.919 4.7675 443.456 3.5635 447.756 3.5635ZM447.756 4.918C444.574 4.918 442.747 5.649 442.747 6.939C442.747 8.229 444.574 8.96 447.756 8.96C450.917 8.96 452.744 8.229 452.744 6.939C452.744 5.649 450.917 4.918 447.756 4.918ZM438.963 11.6045H456.528V13.045H438.963V11.6045ZM441.091 14.7005H454.292V19.0865H442.897V21.4515H441.134V17.7965H452.529V16.0765H441.091V14.7005ZM441.134 21.0645H454.873V22.462H441.134V21.0645ZM475.925 3.6495H477.58V21.7095H475.925V3.6495ZM476.892 11.153H480.483V12.615H476.892V11.153ZM465.368 16.141H466.142C466.895 16.141 468.163 16.1195 469.668 15.754L469.819 17.2375C468.206 17.6245 466.959 17.6245 466.142 17.6245H465.368V16.141ZM465.368 5.6705H469.518V7.1325H467.024V16.9795H465.368V5.6705ZM470.356 16.141H471.173C472.205 16.141 473.56 16.098 475.043 15.6895L475.215 17.173C473.624 17.603 472.291 17.6245 471.173 17.6245H470.356V16.141ZM470.356 5.6705H474.635V7.1325H471.99V16.915H470.356V5.6705ZM479.859 3.241H481.558V22.677H479.859V3.241Z" fill="white"/>
<path d="M144.2 90.614H145.694V106.922H144.2V90.614ZM137.108 91.874C139.52 91.874 141.248 94.088 141.248 97.544C141.248 101.018 139.52 103.232 137.108 103.232C134.714 103.232 132.986 101.018 132.986 97.544C132.986 94.088 134.714 91.874 137.108 91.874ZM137.108 93.224C135.524 93.224 134.408 94.916 134.408 97.544C134.408 100.19 135.524 101.918 137.108 101.918C138.71 101.918 139.808 100.19 139.808 97.544C139.808 94.916 138.71 93.224 137.108 93.224ZM161.227 90.632H162.649V102.98H161.227V90.632ZM155.521 95.348H158.599V96.572H155.521V95.348ZM158.131 90.956H159.553V102.512H158.131V90.956ZM149.671 91.928H151.075V94.664H154.549V91.928H155.971V99.902H149.671V91.928ZM151.075 95.852V98.696H154.549V95.852H151.075ZM152.047 105.32H163.153V106.544H152.047V105.32ZM152.047 101.324H153.541V105.986H152.047V101.324ZM167.399 99.398H178.577V100.604H167.399V99.398ZM165.509 103.574H180.251V104.816H165.509V103.574ZM167.399 92.018H178.397V93.242H168.911V99.776H167.399V92.018ZM168.425 95.654H178.055V96.842H168.425V95.654ZM182.068 103.664H196.81V104.906H182.068V103.664ZM188.656 100.172H190.15V104.186H188.656V100.172ZM183.85 91.838H194.992V96.77H185.38V100.028H183.904V95.564H193.516V93.044H183.85V91.838ZM183.904 99.398H195.37V100.622H183.904V99.398ZM204.535 91.622H205.993V94.142H210.673V91.622H212.149V99.308H204.535V91.622ZM205.993 95.33V98.12H210.673V95.33H205.993ZM206.155 101.378H217.027V106.904H215.515V102.584H206.155V101.378ZM215.515 90.632H217.027V100.478H215.515V90.632ZM223.901 91.982C226.007 91.982 227.375 94.16 227.375 97.652C227.375 101.144 226.007 103.322 223.901 103.322C221.795 103.322 220.445 101.144 220.445 97.652C220.445 94.16 221.795 91.982 223.901 91.982ZM223.901 93.368C222.623 93.368 221.813 95.024 221.813 97.652C221.813 100.28 222.623 101.936 223.901 101.936C225.179 101.936 225.989 100.28 225.989 97.652C225.989 95.024 225.179 93.368 223.901 93.368ZM232.631 90.632H234.071V106.904H232.631V90.632ZM230.057 97.076H233.171V98.3H230.057V97.076ZM229.031 90.974H230.453V106.094H229.031V90.974ZM238.156 91.118H250.108V92.288H238.156V91.118ZM238.228 95.384H250.036V96.536H238.228V95.384ZM240.622 91.568H242.116V96.14H240.622V91.568ZM246.166 91.568H247.642V96.14H246.166V91.568ZM236.788 97.886H251.494V99.092H236.788V97.886ZM238.57 100.514H249.622V104.078H240.082V106.04H238.606V103.016H248.146V101.63H238.57V100.514ZM238.606 105.59H250.108V106.724H238.606V105.59ZM265.749 90.632H267.189V106.904H265.749V90.632ZM263.175 97.166H266.289V98.408H263.175V97.166ZM262.221 90.992H263.625V106.076H262.221V90.992ZM253.509 92.666H261.033V93.89H253.509V92.666ZM253.365 102.908L253.185 101.648C255.327 101.648 258.855 101.576 261.339 101.252L261.447 102.35C258.873 102.836 255.489 102.908 253.365 102.908ZM254.895 93.458H256.263V101.972H254.895V93.458ZM258.279 93.458H259.647V101.972H258.279V93.458ZM276.439 91.748H277.735V92.99C277.735 96.536 274.441 99.29 271.183 100.028L270.517 98.786C273.379 98.246 276.439 95.762 276.439 92.99V91.748ZM276.709 91.748H278.005V92.99C278.005 95.78 281.083 98.246 283.927 98.786L283.261 100.028C280.021 99.29 276.709 96.554 276.709 92.99V91.748ZM269.923 103.484H284.665V104.708H269.923V103.484ZM302.668 90.578H304.162V99.56H302.668V90.578ZM303.532 94.484H306.574V95.744H303.532V94.484ZM293.83 100.388H304.162V104.024H295.342V106.004H293.866V102.944H302.704V101.522H293.83V100.388ZM293.866 105.572H304.756V106.724H293.866V105.572ZM291.58 92.09H301.192V93.26H291.58V92.09ZM296.386 93.98C298.726 93.98 300.274 95.006 300.274 96.662C300.274 98.3 298.726 99.308 296.386 99.308C294.01 99.308 292.48 98.3 292.48 96.662C292.48 95.006 294.01 93.98 296.386 93.98ZM296.386 95.078C294.874 95.078 293.902 95.69 293.902 96.662C293.902 97.616 294.874 98.228 296.386 98.228C297.88 98.228 298.852 97.616 298.852 96.662C298.852 95.69 297.88 95.078 296.386 95.078ZM295.63 90.452H297.124V92.9H295.63V90.452ZM319.929 90.65H321.441V102.53H319.929V90.65ZM310.983 105.32H321.927V106.544H310.983V105.32ZM310.983 101.306H312.459V105.734H310.983V101.306ZM312.711 91.766C315.141 91.766 316.941 93.422 316.941 95.78C316.941 98.12 315.141 99.794 312.711 99.794C310.281 99.794 308.463 98.12 308.463 95.78C308.463 93.422 310.281 91.766 312.711 91.766ZM312.711 93.062C311.127 93.062 309.921 94.178 309.921 95.78C309.921 97.364 311.127 98.48 312.711 98.48C314.295 98.48 315.501 97.364 315.501 95.78C315.501 94.178 314.295 93.062 312.711 93.062ZM340.848 90.632H342.342V100.154H340.848V90.632ZM341.928 94.538H344.754V95.798H341.928V94.538ZM330.39 91.532H331.866V94.016H336.456V91.532H337.914V99.128H330.39V91.532ZM331.866 95.204V97.922H336.456V95.204H331.866ZM332.172 101.036H342.468V102.242H333.666V106.328H332.172V101.036ZM332.172 105.464H342.792V106.688H332.172V105.464ZM353.627 91.658C357.011 91.658 359.531 93.458 359.531 96.158C359.531 98.876 357.011 100.658 353.627 100.658C350.243 100.658 347.705 98.876 347.705 96.158C347.705 93.458 350.243 91.658 353.627 91.658ZM353.627 92.882C351.053 92.882 349.145 94.196 349.145 96.158C349.145 98.102 351.053 99.434 353.627 99.434C356.201 99.434 358.109 98.102 358.109 96.158C358.109 94.196 356.201 92.882 353.627 92.882ZM346.283 103.502H361.025V104.762H346.283V103.502ZM369.249 96.446H372.363V97.688H369.249V96.446ZM366.207 92.162H367.377V95.258C367.377 98.66 365.955 101.954 363.579 103.412L362.643 102.278C364.875 100.964 366.207 98.048 366.207 95.258V92.162ZM366.495 92.162H367.647V95.204C367.647 97.814 368.871 100.586 371.013 101.882L370.149 103.052C367.809 101.612 366.495 98.372 366.495 95.204V92.162ZM375.225 90.632H376.665V106.904H375.225V90.632ZM371.931 90.974H373.335V106.094H371.931V90.974ZM383 99.002H384.476V103.88H383V99.002ZM389.012 99.002H390.506V103.88H389.012V99.002ZM379.4 103.592H394.142V104.834H379.4V103.592ZM386.744 91.658C390.182 91.658 392.648 93.296 392.648 95.852C392.648 98.39 390.182 100.028 386.744 100.028C383.288 100.028 380.822 98.39 380.822 95.852C380.822 93.296 383.288 91.658 386.744 91.658ZM386.744 92.846C384.134 92.846 382.262 94.034 382.262 95.852C382.262 97.652 384.134 98.84 386.744 98.84C389.354 98.84 391.208 97.652 391.208 95.852C391.208 94.034 389.354 92.846 386.744 92.846ZM398.433 92.4091L398.306 101.818H396.823L396.695 92.4091H398.433ZM397.564 105.602C397.249 105.602 396.978 105.489 396.752 105.263C396.526 105.038 396.414 104.767 396.414 104.452C396.414 104.136 396.526 103.866 396.752 103.64C396.978 103.414 397.249 103.301 397.564 103.301C397.879 103.301 398.15 103.414 398.376 103.64C398.602 103.866 398.715 104.136 398.715 104.452C398.715 104.661 398.661 104.852 398.555 105.027C398.453 105.202 398.314 105.342 398.139 105.449C397.969 105.551 397.777 105.602 397.564 105.602Z" fill="white"/>
<path d="M119.562 93.292H112V107.181H126.12V99.156" stroke="white" stroke-width="1.8"/>
<path d="M114.315 97.302L118.944 102.702L128.744 90.8191" stroke="white" stroke-width="1.8"/>
</g>
</g>
<defs>
<clipPath id="clip0_93_28">
<rect width="800" height="109" fill="white" transform="translate(0.5 0.5)"/>
</clipPath>
</defs>
</svg>
