<svg width="346" height="48" viewBox="0 0 346 48" fill="none" xmlns="http://www.w3.org/2000/svg">
<g clip-path="url(#clip0_26_132)">
<mask id="mask0_26_132" style="mask-type:luminance" maskUnits="userSpaceOnUse" x="0" y="0" width="346" height="48">
<path d="M345.5 0.5H0.5V47.5H345.5V0.5Z" fill="white"/>
</mask>
<g mask="url(#mask0_26_132)">
<path d="M91.616 8.044H92.113C93.282 8.044 94.087 8.016 95.039 7.848L95.102 8.324C94.122 8.492 93.296 8.527 92.113 8.527H91.616V8.044ZM91.616 4.292H94.563V4.775H92.197V8.212H91.616V4.292ZM92.05 6.063H94.423V6.532H92.05V6.063ZM95.627 3.718H96.215V10.046H95.627V3.718ZM96.075 6.259H97.251V6.749H96.075V6.259ZM98.1465 4.334H101.058V8.457H98.1465V4.334ZM100.491 4.803H98.7135V7.988H100.491V4.803ZM102.381 3.711H102.962V10.053H102.381V3.711ZM106.763 4.152H107.267V4.635C107.267 6.014 105.986 7.085 104.719 7.372L104.46 6.889C105.573 6.679 106.763 5.713 106.763 4.635V4.152ZM106.868 4.152H107.372V4.635C107.372 5.72 108.569 6.679 109.675 6.889L109.416 7.372C108.156 7.085 106.868 6.021 106.868 4.635V4.152ZM104.229 8.716H109.962V9.192H104.229V8.716ZM112.264 6.91H112.845V8.422H112.264V6.91ZM112.551 4.124C113.524 4.124 114.224 4.733 114.224 5.615C114.224 6.497 113.524 7.106 112.551 7.106C111.578 7.106 110.878 6.497 110.878 5.615C110.878 4.733 111.578 4.124 112.551 4.124ZM112.551 4.621C111.907 4.621 111.445 5.027 111.445 5.615C111.445 6.203 111.907 6.609 112.551 6.609C113.195 6.609 113.657 6.203 113.657 5.615C113.657 5.027 113.195 4.621 112.551 4.621ZM114.945 3.718H115.526V10.046H114.945V3.718ZM115.358 6.322H116.527V6.812H115.358V6.322ZM110.675 8.681L110.591 8.198C111.732 8.191 113.258 8.184 114.546 8.009L114.595 8.443C113.258 8.667 111.781 8.681 110.675 8.681ZM123.403 3.718H123.984V7.526H123.403V3.718ZM123.823 5.398H124.922V5.881H123.823V5.398ZM120.008 7.883H123.984V9.962H120.008V7.883ZM123.417 8.352H120.575V9.493H123.417V8.352ZM119.091 4.383H122.829V4.859H119.091V4.383ZM120.96 5.167C121.863 5.167 122.472 5.615 122.472 6.301C122.472 6.987 121.863 7.421 120.96 7.421C120.05 7.421 119.441 6.987 119.441 6.301C119.441 5.615 120.05 5.167 120.96 5.167ZM120.96 5.615C120.379 5.615 119.994 5.881 119.994 6.301C119.994 6.714 120.379 6.98 120.96 6.98C121.527 6.98 121.919 6.714 121.919 6.301C121.919 5.881 121.527 5.615 120.96 5.615ZM120.666 3.662H121.247V4.628H120.666V3.662ZM126.573 4.474H127.063C127.063 5.832 126.881 7.323 125.978 8.555L125.523 8.289C126.391 7.162 126.573 5.839 126.573 4.516V4.474ZM125.656 4.474H126.86V4.957H125.656V4.474ZM127.966 4.474H128.463C128.463 5.811 128.379 7.589 127.385 8.961L126.923 8.695C127.889 7.435 127.966 5.79 127.966 4.523V4.474ZM127.273 4.474H128.274V4.957H127.273V4.474ZM130.353 3.718H130.913V10.046H130.353V3.718ZM128.169 6.203H129.303V6.679H128.169V6.203ZM129.184 3.879H129.73V9.724H129.184V3.879ZM136.239 3.718H136.82V10.046H136.239V3.718ZM136.68 6.315H137.856V6.805H136.68V6.315ZM131.92 4.726H135.651V5.202H131.92V4.726ZM133.81 5.727C134.706 5.727 135.35 6.329 135.35 7.183C135.35 8.037 134.706 8.639 133.81 8.639C132.921 8.639 132.27 8.037 132.27 7.183C132.27 6.329 132.921 5.727 133.81 5.727ZM133.81 6.21C133.236 6.21 132.823 6.609 132.823 7.183C132.823 7.75 133.236 8.156 133.81 8.156C134.384 8.156 134.797 7.75 134.797 7.183C134.797 6.609 134.384 6.21 133.81 6.21ZM133.509 3.795H134.09V4.943H133.509V3.795ZM139.165 5.615H143.463V6.091H139.165V5.615ZM138.388 6.938H144.128V7.414H138.388V6.938ZM139.165 3.949H139.739V5.853H139.165V3.949ZM139.123 9.416H143.498V9.892H139.123V9.416ZM139.123 8.044H139.697V9.542H139.123V8.044Z" fill="white"/>
<path d="M104.101 38.057H104.621V43.933H104.101V38.057ZM103.113 40.449H104.244V40.891H103.113V40.449ZM102.769 38.187H103.276V43.634H102.769V38.187ZM99.9215 38.7655H100.461V42.1585H99.9215V38.7655ZM99.9215 41.944H100.299C100.903 41.944 101.579 41.905 102.346 41.7555L102.405 42.2235C101.605 42.3795 100.929 42.412 100.299 42.412H99.9215V41.944ZM109.593 38.0505H110.139V43.933H109.593V38.0505ZM109.99 40.436H111.075V40.8845H109.99V40.436ZM108.092 38.6875H108.618C108.618 40.358 107.851 41.866 105.953 42.8215L105.654 42.4055C107.279 41.58 108.092 40.3255 108.092 38.772V38.6875ZM105.927 38.6875H108.371V39.1295H105.927V38.6875ZM114.001 38.681H117.784V39.1165H114.001V38.681ZM113.429 42.6265H118.74V43.075H113.429V42.6265ZM117.498 38.681H118.025V39.266C118.025 40.02 118.025 40.8585 117.804 42.126L117.264 42.074C117.498 40.8715 117.498 39.994 117.498 39.266V38.681ZM123.686 38.0505H124.225V43.9395H123.686V38.0505ZM119.747 42.074H120.234C121.216 42.074 122.093 42.035 123.133 41.866L123.192 42.308C122.126 42.4835 121.242 42.5225 120.234 42.5225H119.747V42.074ZM119.734 38.603H122.451V40.7025H120.286V42.243H119.747V40.2605H121.905V39.045H119.734V38.603ZM126.103 39.8185H130.094V40.2605H126.103V39.8185ZM125.382 41.047H130.712V41.489H125.382V41.047ZM126.103 38.2715H126.636V40.0395H126.103V38.2715ZM126.064 43.348H130.127V43.79H126.064V43.348ZM126.064 42.074H126.597V43.465H126.064V42.074ZM135.841 39.3635H137.616V39.812H135.841V39.3635ZM135.841 41.2225H137.616V41.671H135.841V41.2225ZM134.762 38.5055C135.614 38.5055 136.225 39.305 136.225 40.553C136.225 41.8075 135.614 42.607 134.762 42.607C133.904 42.607 133.3 41.8075 133.3 40.553C133.3 39.305 133.904 38.5055 134.762 38.5055ZM134.762 38.993C134.197 38.993 133.807 39.604 133.807 40.553C133.807 41.5085 134.197 42.1325 134.762 42.1325C135.328 42.1325 135.718 41.5085 135.718 40.553C135.718 39.604 135.328 38.993 134.762 38.993ZM137.499 38.0505H138.032V43.9395H137.499V38.0505ZM143.608 38.057H144.122V41.775H143.608V38.057ZM142.653 39.6495H143.764V40.098H142.653V39.6495ZM142.354 38.174H142.861V41.567H142.354V38.174ZM139.143 38.759H142.12V39.188H139.143V38.759ZM140.638 39.487C141.372 39.487 141.886 39.89 141.886 40.4945C141.886 41.1055 141.372 41.502 140.638 41.502C139.897 41.502 139.383 41.1055 139.383 40.4945C139.383 39.89 139.897 39.487 140.638 39.487ZM140.638 39.89C140.176 39.89 139.864 40.1305 139.864 40.4945C139.864 40.865 140.176 41.099 140.638 41.099C141.093 41.099 141.405 40.865 141.405 40.4945C141.405 40.1305 141.093 39.89 140.638 39.89ZM140.371 38.1025H140.898V38.9995H140.371V38.1025ZM142.198 41.879C143.42 41.879 144.154 42.243 144.154 42.8995C144.154 43.5495 143.42 43.92 142.198 43.92C140.963 43.92 140.235 43.5495 140.235 42.8995C140.235 42.243 140.963 41.879 142.198 41.879ZM142.198 42.295C141.294 42.295 140.768 42.5095 140.768 42.8995C140.768 43.2895 141.294 43.5105 142.198 43.5105C143.088 43.5105 143.621 43.2895 143.621 42.8995C143.621 42.5095 143.088 42.295 142.198 42.295Z" fill="white"/>
<path d="M94.5848 38.905H91.5848V44.415H97.1849V41.2319" stroke="white"/>
<path d="M92.5042 40.4949L94.3412 42.637L98.2279 37.9241" stroke="white"/>
<path d="M98.041 23.143H99.834V24.342H98.041V23.143ZM96.952 19.282H98.426V29.468H96.952V19.282ZM90.748 20.261H92.211V26.586H90.748V20.261ZM90.748 25.772H91.628C93.08 25.772 94.653 25.673 96.292 25.343L96.446 26.542C94.763 26.894 93.124 26.982 91.628 26.982H90.748V25.772ZM107.544 19.282H109.018V29.501H107.544V19.282ZM103.529 19.997C105.069 19.997 106.202 21.405 106.202 23.627C106.202 25.871 105.069 27.279 103.529 27.279C101.989 27.279 100.856 25.871 100.856 23.627C100.856 21.405 101.989 19.997 103.529 19.997ZM103.529 21.328C102.77 21.328 102.253 22.131 102.253 23.627C102.253 25.145 102.77 25.959 103.529 25.959C104.288 25.959 104.794 25.145 104.794 23.627C104.794 22.131 104.288 21.328 103.529 21.328ZM113.406 19.997C114.957 19.997 116.079 21.405 116.079 23.627C116.079 25.871 114.957 27.279 113.406 27.279C111.855 27.279 110.733 25.871 110.733 23.627C110.733 21.405 111.855 19.997 113.406 19.997ZM113.406 21.328C112.647 21.328 112.141 22.131 112.141 23.627C112.141 25.145 112.647 25.959 113.406 25.959C114.165 25.959 114.682 25.145 114.682 23.627C114.682 22.131 114.165 21.328 113.406 21.328ZM117.19 19.293H118.664V29.479H117.19V19.293ZM118.334 23.132H120.138V24.342H118.334V23.132ZM127.309 19.282H128.783V29.468H127.309V19.282ZM128.398 23.176H130.191V24.375H128.398V23.176ZM124.636 20.338H126.066C126.066 23.396 124.9 26.014 121.512 27.719L120.698 26.608C123.371 25.222 124.636 23.352 124.636 20.591V20.338ZM121.259 20.338H125.384V21.515H121.259V20.338ZM137.451 19.282H138.903V29.501H137.451V19.282ZM138.573 23.132H140.377V24.342H138.573V23.132ZM131.335 25.937H132.193C133.92 25.937 135.262 25.882 136.758 25.618L136.901 26.795C135.361 27.07 133.964 27.136 132.193 27.136H131.335V25.937ZM131.324 20.151H136.01V24.1H132.787V26.388H131.335V22.934H134.558V21.317H131.324V20.151ZM144.385 19.623H151.975V20.789H144.385V19.623ZM144.462 22.439H151.898V23.583H144.462V22.439ZM145.683 20.074H147.146V23.088H145.683V20.074ZM149.214 20.074H150.677V23.088H149.214V20.074ZM143.582 24.452H152.789V25.607H143.582V24.452ZM147.443 23.308H148.906V24.848H147.443V23.308ZM144.605 26.3H151.678V29.479H150.215V27.455H144.605V26.3ZM153.712 27.147H162.93V28.346H153.712V27.147ZM157.562 24.848H159.025V27.686H157.562V24.848ZM154.416 20.129H162.171V21.295H154.416V20.129ZM154.46 24.188H162.138V25.332H154.46V24.188ZM155.802 21.097H157.265V24.32H155.802V21.097ZM159.333 21.097H160.785V24.32H159.333V21.097ZM170.805 19.0455V28.5H168.806V20.9428H168.751L166.586 22.3001V20.5273L168.926 19.0455H170.805ZM180.554 17.619H182.283V24.834H180.554V17.619ZM181.802 20.544H183.882V21.961H181.802V20.544ZM174.249 25.367H182.283V29.657H180.554V26.745H174.249V25.367ZM173.157 18.373H174.873V19.959H177.226V18.373H178.942V24.223H173.157V18.373ZM174.873 21.285V22.871H177.226V21.285H174.873ZM185.011 28.5V27.0597L188.377 23.9435C188.663 23.6665 188.903 23.4173 189.097 23.1957C189.294 22.9741 189.443 22.7571 189.545 22.5447C189.646 22.3293 189.697 22.0969 189.697 21.8477C189.697 21.5707 189.634 21.3321 189.508 21.1321C189.382 20.929 189.209 20.7736 188.991 20.6658C188.772 20.555 188.525 20.4996 188.248 20.4996C187.958 20.4996 187.706 20.5581 187.491 20.6751C187.275 20.792 187.109 20.9598 186.992 21.1783C186.875 21.3968 186.816 21.6568 186.816 21.9585H184.919C184.919 21.3398 185.059 20.8028 185.339 20.3473C185.619 19.8918 186.012 19.5394 186.516 19.2901C187.021 19.0408 187.603 18.9162 188.261 18.9162C188.939 18.9162 189.528 19.0362 190.03 19.2763C190.534 19.5133 190.927 19.8426 191.207 20.2642C191.487 20.6858 191.627 21.169 191.627 21.7138C191.627 22.0708 191.556 22.4232 191.415 22.771C191.276 23.1187 191.028 23.505 190.671 23.9297C190.314 24.3513 189.811 24.8576 189.162 25.4485L187.781 26.8011V26.8658H191.752V28.5H185.011ZM196.347 17.97C198.18 17.97 199.558 19.114 199.558 20.726C199.558 22.325 198.18 23.469 196.347 23.469C194.514 23.469 193.136 22.325 193.136 20.726C193.136 19.114 194.514 17.97 196.347 17.97ZM196.347 19.374C195.463 19.374 194.8 19.868 194.8 20.726C194.8 21.584 195.463 22.078 196.347 22.078C197.231 22.078 197.881 21.584 197.881 20.726C197.881 19.868 197.231 19.374 196.347 19.374ZM201.222 17.619H202.964V23.638H201.222V17.619ZM194.93 24.132H202.964V27.434H196.646V28.89H194.956V26.186H201.248V25.471H194.93V24.132ZM194.956 28.188H203.263V29.527H194.956V28.188ZM210.625 19.517H211.99V20.869C211.99 23.586 210.846 26.355 208.636 27.395L207.661 26.03C209.65 25.094 210.625 22.845 210.625 20.869V19.517ZM210.989 19.517H212.354V20.869C212.354 22.689 213.29 24.821 215.266 25.731L214.317 27.096C212.107 26.069 210.989 23.43 210.989 20.869V19.517ZM208.129 18.776H214.733V20.193H208.129V18.776ZM215.617 17.619H217.359V29.657H215.617V17.619ZM216.969 22.208H219.101V23.638H216.969V22.208ZM222.337 25.224H224.105V29.657H222.337V25.224ZM226.497 25.224H228.265V29.657H226.497V25.224ZM219.88 24.314H230.787V25.705H219.88V24.314ZM225.301 18.022C227.875 18.022 229.656 19.075 229.656 20.726C229.656 22.351 227.875 23.404 225.301 23.404C222.74 23.404 220.959 22.351 220.959 20.726C220.959 19.075 222.74 18.022 225.301 18.022ZM225.301 19.4C223.728 19.4 222.727 19.868 222.727 20.726C222.727 21.571 223.728 22.039 225.301 22.039C226.887 22.039 227.875 21.571 227.875 20.726C227.875 19.868 226.887 19.4 225.301 19.4ZM237.221 20.076H240.497V21.467H237.221V20.076ZM237.221 23.807H240.497V25.198H237.221V23.807ZM235.141 18.451C236.935 18.451 238.248 20.115 238.248 22.741C238.248 25.393 236.935 27.057 235.141 27.057C233.334 27.057 232.034 25.393 232.034 22.741C232.034 20.115 233.334 18.451 235.141 18.451ZM235.141 20.024C234.27 20.024 233.672 20.973 233.672 22.741C233.672 24.535 234.27 25.497 235.141 25.497C236.025 25.497 236.61 24.535 236.61 22.741C236.61 20.973 236.025 20.024 235.141 20.024ZM240.224 17.606H241.94V29.683H240.224V17.606ZM252.417 17.619H254.055V25.159H252.417V17.619ZM250.948 20.583H252.872V21.987H250.948V20.583ZM249.921 17.853H251.533V24.769H249.921V17.853ZM243.746 18.854H249.583V20.18H243.746V18.854ZM246.684 20.57C248.192 20.57 249.284 21.428 249.284 22.676C249.284 23.924 248.192 24.769 246.684 24.769C245.176 24.769 244.084 23.924 244.084 22.676C244.084 21.428 245.176 20.57 246.684 20.57ZM246.684 21.805C246.047 21.805 245.618 22.117 245.618 22.676C245.618 23.235 246.047 23.547 246.684 23.547C247.308 23.547 247.737 23.235 247.737 22.676C247.737 22.117 247.308 21.805 246.684 21.805ZM245.813 17.736H247.516V19.764H245.813V17.736ZM249.986 25.289C252.56 25.289 254.12 26.069 254.12 27.473C254.12 28.864 252.56 29.657 249.986 29.657C247.399 29.657 245.839 28.864 245.839 27.473C245.839 26.069 247.399 25.289 249.986 25.289ZM249.986 26.576C248.374 26.576 247.568 26.849 247.568 27.473C247.568 28.084 248.374 28.37 249.986 28.37C251.585 28.37 252.391 28.084 252.391 27.473C252.391 26.849 251.585 26.576 249.986 26.576Z" fill="white"/>
<path d="M119.25 23.5C119.802 23.5 120.25 23.0523 120.25 22.5C120.25 21.9477 119.802 21.5 119.25 21.5C118.698 21.5 118.25 21.9477 118.25 22.5C118.25 23.0523 118.698 23.5 119.25 23.5Z" fill="white"/>
</g>
</g>
<defs>
<clipPath id="clip0_26_132">
<rect width="345" height="47" fill="white" transform="translate(0.5 0.5)"/>
</clipPath>
</defs>
</svg>
