<svg width="801" height="110" viewBox="0 0 801 110" fill="none" xmlns="http://www.w3.org/2000/svg">
<g clip-path="url(#clip0_26_119)">
<mask id="mask0_26_119" style="mask-type:luminance" maskUnits="userSpaceOnUse" x="0" y="0" width="801" height="110">
<path d="M800.5 0.5H0.5V109.5H800.5V0.5Z" fill="white"/>
</mask>
<g mask="url(#mask0_26_119)">
<path d="M148.778 50.994H154.972V55.136H148.778V50.994ZM145.016 37.656H150.108V72.844H145.016V37.656ZM123.584 41.038H128.638V62.888H123.584V41.038ZM123.584 60.076H126.624C131.64 60.076 137.074 59.734 142.736 58.594L143.268 62.736C137.454 63.952 131.792 64.256 126.624 64.256H123.584V60.076ZM181.607 37.656H186.699V72.958H181.607V37.656ZM167.737 40.126C173.057 40.126 176.971 44.99 176.971 52.666C176.971 60.418 173.057 65.282 167.737 65.282C162.417 65.282 158.503 60.418 158.503 52.666C158.503 44.99 162.417 40.126 167.737 40.126ZM167.737 44.724C165.115 44.724 163.329 47.498 163.329 52.666C163.329 57.91 165.115 60.722 167.737 60.722C170.359 60.722 172.107 57.91 172.107 52.666C172.107 47.498 170.359 44.724 167.737 44.724ZM201.858 40.126C207.216 40.126 211.092 44.99 211.092 52.666C211.092 60.418 207.216 65.282 201.858 65.282C196.5 65.282 192.624 60.418 192.624 52.666C192.624 44.99 196.5 40.126 201.858 40.126ZM201.858 44.724C199.236 44.724 197.488 47.498 197.488 52.666C197.488 57.91 199.236 60.722 201.858 60.722C204.48 60.722 206.266 57.91 206.266 52.666C206.266 47.498 204.48 44.724 201.858 44.724ZM214.93 37.694H220.022V72.882H214.93V37.694ZM218.882 50.956H225.114V55.136H218.882V50.956ZM249.887 37.656H254.979V72.844H249.887V37.656ZM253.649 51.108H259.843V55.25H253.649V51.108ZM240.653 41.304H245.593C245.593 51.868 241.565 60.912 229.861 66.802L227.049 62.964C236.283 58.176 240.653 51.716 240.653 42.178V41.304ZM228.987 41.304H243.237V45.37H228.987V41.304ZM284.92 37.656H289.936V72.958H284.92V37.656ZM288.796 50.956H295.028V55.136H288.796V50.956ZM263.792 60.646H266.756C272.722 60.646 277.358 60.456 282.526 59.544L283.02 63.61C277.7 64.56 272.874 64.788 266.756 64.788H263.792V60.646ZM263.754 40.658H279.942V54.3H268.808V62.204H263.792V50.272H274.926V44.686H263.754V40.658ZM308.874 38.834H335.094V42.862H308.874V38.834ZM309.14 48.562H334.828V52.514H309.14V48.562ZM313.358 40.392H318.412V50.804H313.358V40.392ZM325.556 40.392H330.61V50.804H325.556V40.392ZM306.1 55.516H337.906V59.506H306.1V55.516ZM319.438 51.564H324.492V56.884H319.438V51.564ZM309.634 61.9H334.068V72.882H329.014V65.89H309.634V61.9ZM341.095 64.826H372.939V68.968H341.095V64.826ZM354.395 56.884H359.449V66.688H354.395V56.884ZM343.527 40.582H370.317V44.61H343.527V40.582ZM343.679 54.604H370.203V58.556H343.679V54.604ZM348.315 43.926H353.369V55.06H348.315V43.926ZM360.513 43.926H365.529V55.06H360.513V43.926ZM399.429 38.2273V69.5H392.817V44.5032H392.634L385.473 48.9925V43.1289L393.214 38.2273H399.429ZM431.675 33.509H437.394V57.374H431.675V33.509ZM435.803 43.184H442.683V47.871H435.803V43.184ZM410.82 59.137H437.394V73.327H431.675V63.695H410.82V59.137ZM407.208 36.003H412.884V41.249H420.667V36.003H426.343V55.353H407.208V36.003ZM412.884 45.635V50.881H420.667V45.635H412.884ZM446.419 69.5V64.7358L457.55 54.4286C458.497 53.5124 459.291 52.6879 459.932 51.9549C460.584 51.2219 461.078 50.5043 461.414 49.8018C461.75 49.0893 461.918 48.3207 461.918 47.4961C461.918 46.5799 461.709 45.791 461.291 45.1293C460.874 44.4574 460.304 43.9433 459.581 43.587C458.858 43.2205 458.039 43.0373 457.123 43.0373C456.166 43.0373 455.331 43.2307 454.619 43.6175C453.906 44.0044 453.356 44.5592 452.969 45.282C452.583 46.0047 452.389 46.8649 452.389 47.8626H446.113C446.113 45.8164 446.576 44.04 447.503 42.5334C448.429 41.0268 449.727 39.8611 451.397 39.0366C453.066 38.212 454.99 37.7997 457.169 37.7997C459.408 37.7997 461.358 38.1967 463.017 38.9908C464.686 39.7746 465.984 40.8639 466.911 42.2585C467.837 43.6532 468.3 45.2514 468.3 47.0533C468.3 48.2341 468.066 49.3997 467.598 50.5501C467.14 51.7004 466.32 52.978 465.139 54.3828C463.959 55.7775 462.294 57.4521 460.146 59.4066L455.581 63.8807V64.0945H468.713V69.5H446.419ZM483.912 34.67C489.975 34.67 494.533 38.454 494.533 43.786C494.533 49.075 489.975 52.859 483.912 52.859C477.849 52.859 473.291 49.075 473.291 43.786C473.291 38.454 477.849 34.67 483.912 34.67ZM483.912 39.314C480.988 39.314 478.795 40.948 478.795 43.786C478.795 46.624 480.988 48.258 483.912 48.258C486.836 48.258 488.986 46.624 488.986 43.786C488.986 40.948 486.836 39.314 483.912 39.314ZM500.037 33.509H505.799V53.418H500.037V33.509ZM479.225 55.052H505.799V65.974H484.901V70.79H479.311V61.846H500.123V59.481H479.225V55.052ZM479.311 68.468H506.788V72.897H479.311V68.468ZM531.142 39.787H535.657V44.259C535.657 53.246 531.873 62.405 524.563 65.845L521.338 61.33C527.917 58.234 531.142 50.795 531.142 44.259V39.787ZM532.346 39.787H536.861V44.259C536.861 50.279 539.957 57.331 546.493 60.341L543.354 64.856C536.044 61.459 532.346 52.73 532.346 44.259V39.787ZM522.886 37.336H544.73V42.023H522.886V37.336ZM547.654 33.509H553.416V73.327H547.654V33.509ZM552.126 48.688H559.178V53.418H552.126V48.688ZM569.881 58.664H575.729V73.327H569.881V58.664ZM583.641 58.664H589.489V73.327H583.641V58.664ZM561.754 55.654H597.831V60.255H561.754V55.654ZM579.685 34.842C588.199 34.842 594.09 38.325 594.09 43.786C594.09 49.161 588.199 52.644 579.685 52.644C571.214 52.644 565.323 49.161 565.323 43.786C565.323 38.325 571.214 34.842 579.685 34.842ZM579.685 39.4C574.482 39.4 571.171 40.948 571.171 43.786C571.171 46.581 574.482 48.129 579.685 48.129C584.931 48.129 588.199 46.581 588.199 43.786C588.199 40.948 584.931 39.4 579.685 39.4ZM619.113 41.636H629.949V46.237H619.113V41.636ZM619.113 53.977H629.949V58.578H619.113V53.977ZM612.233 36.261C618.167 36.261 622.51 41.765 622.51 50.451C622.51 59.223 618.167 64.727 612.233 64.727C606.256 64.727 601.956 59.223 601.956 50.451C601.956 41.765 606.256 36.261 612.233 36.261ZM612.233 41.464C609.352 41.464 607.374 44.603 607.374 50.451C607.374 56.385 609.352 59.567 612.233 59.567C615.157 59.567 617.092 56.385 617.092 50.451C617.092 44.603 615.157 41.464 612.233 41.464ZM629.046 33.466H634.722V73.413H629.046V33.466ZM669.376 33.509H674.794V58.449H669.376V33.509ZM664.517 43.313H670.881V47.957H664.517V43.313ZM661.12 34.283H666.452V57.159H661.12V34.283ZM640.695 37.594H660.002V41.98H640.695V37.594ZM650.413 43.27C655.401 43.27 659.013 46.108 659.013 50.236C659.013 54.364 655.401 57.159 650.413 57.159C645.425 57.159 641.813 54.364 641.813 50.236C641.813 46.108 645.425 43.27 650.413 43.27ZM650.413 47.355C648.306 47.355 646.887 48.387 646.887 50.236C646.887 52.085 648.306 53.117 650.413 53.117C652.477 53.117 653.896 52.085 653.896 50.236C653.896 48.387 652.477 47.355 650.413 47.355ZM647.532 33.896H653.165V40.604H647.532V33.896ZM661.335 58.879C669.849 58.879 675.009 61.459 675.009 66.103C675.009 70.704 669.849 73.327 661.335 73.327C652.778 73.327 647.618 70.704 647.618 66.103C647.618 61.459 652.778 58.879 661.335 58.879ZM661.335 63.136C656.003 63.136 653.337 64.039 653.337 66.103C653.337 68.124 656.003 69.07 661.335 69.07C666.624 69.07 669.29 68.124 669.29 66.103C669.29 64.039 666.624 63.136 661.335 63.136Z" fill="white"/>
<path d="M122.892 16.528H124.419C128.009 16.528 130.482 16.442 133.406 15.926L133.599 17.388C130.589 17.904 128.052 18.0115 124.419 18.0115H122.892V16.528ZM122.892 5.004H131.944V6.4875H124.677V17.044H122.892V5.004ZM124.225 10.4435H131.514V11.884H124.225V10.4435ZM135.212 3.241H137.018V22.677H135.212V3.241ZM136.588 11.0455H140.2V12.5505H136.588V11.0455ZM142.95 5.133H151.894V17.7965H142.95V5.133ZM150.152 6.5735H144.691V16.356H150.152V6.5735ZM155.957 3.2195H157.742V22.6985H155.957V3.2195ZM169.415 4.574H170.963V6.0575C170.963 10.293 167.028 13.5825 163.137 14.464L162.341 12.9805C165.76 12.3355 169.415 9.3685 169.415 6.0575V4.574ZM169.737 4.574H171.285V6.0575C171.285 9.39 174.962 12.3355 178.359 12.9805L177.563 14.464C173.693 13.5825 169.737 10.3145 169.737 6.0575V4.574ZM161.632 18.592H179.24V20.054H161.632V18.592ZM186.312 13.045H188.096V17.689H186.312V13.045ZM187.193 4.488C190.182 4.488 192.332 6.3585 192.332 9.0675C192.332 11.7765 190.182 13.647 187.193 13.647C184.205 13.647 182.055 11.7765 182.055 9.0675C182.055 6.3585 184.205 4.488 187.193 4.488ZM187.193 6.0145C185.215 6.0145 183.796 7.2615 183.796 9.0675C183.796 10.8735 185.215 12.1205 187.193 12.1205C189.171 12.1205 190.59 10.8735 190.59 9.0675C190.59 7.2615 189.171 6.0145 187.193 6.0145ZM194.546 3.241H196.331V22.677H194.546V3.241ZM195.815 11.239H199.405V12.744H195.815V11.239ZM181.431 18.4845L181.173 17.001C184.678 16.9795 189.365 16.958 193.321 16.4205L193.471 17.7535C189.365 18.4415 184.828 18.4845 181.431 18.4845ZM220.522 3.241H222.307V14.937H220.522V3.241ZM221.812 8.401H225.188V9.8845H221.812V8.401ZM210.095 16.0335H222.307V22.419H210.095V16.0335ZM220.565 17.474H211.836V20.9785H220.565V17.474ZM207.278 5.2835H218.759V6.7455H207.278V5.2835ZM213.019 7.6915C215.792 7.6915 217.663 9.0675 217.663 11.1745C217.663 13.2815 215.792 14.6145 213.019 14.6145C210.224 14.6145 208.353 13.2815 208.353 11.1745C208.353 9.0675 210.224 7.6915 213.019 7.6915ZM213.019 9.0675C211.234 9.0675 210.052 9.8845 210.052 11.1745C210.052 12.443 211.234 13.26 213.019 13.26C214.76 13.26 215.964 12.443 215.964 11.1745C215.964 9.8845 214.76 9.0675 213.019 9.0675ZM212.116 3.069H213.9V6.036H212.116V3.069ZM230.26 5.563H231.765C231.765 9.734 231.206 14.3135 228.432 18.0975L227.035 17.2805C229.701 13.819 230.26 9.7555 230.26 5.692V5.563ZM227.443 5.563H231.141V7.0465H227.443V5.563ZM234.538 5.563H236.065C236.065 9.6695 235.807 15.1305 232.754 19.3445L231.335 18.5275C234.302 14.6575 234.538 9.605 234.538 5.7135V5.563ZM232.41 5.563H235.484V7.0465H232.41V5.563ZM241.87 3.241H243.59V22.677H241.87V3.241ZM235.162 10.8735H238.645V12.3355H235.162V10.8735ZM238.279 3.7355H239.956V21.688H238.279V3.7355ZM259.95 3.241H261.734V22.677H259.95V3.241ZM261.304 11.2175H264.916V12.7225H261.304V11.2175ZM246.684 6.337H258.144V7.799H246.684V6.337ZM252.489 9.4115C255.241 9.4115 257.219 11.2605 257.219 13.8835C257.219 16.5065 255.241 18.3555 252.489 18.3555C249.759 18.3555 247.759 16.5065 247.759 13.8835C247.759 11.2605 249.759 9.4115 252.489 9.4115ZM252.489 10.895C250.726 10.895 249.458 12.1205 249.458 13.8835C249.458 15.625 250.726 16.872 252.489 16.872C254.252 16.872 255.521 15.625 255.521 13.8835C255.521 12.1205 254.252 10.895 252.489 10.895ZM251.565 3.4775H253.349V7.0035H251.565V3.4775ZM268.935 9.0675H282.136V10.5295H268.935V9.0675ZM266.549 13.131H284.179V14.593H266.549V13.131ZM268.935 3.9505H270.698V9.7985H268.935V3.9505ZM268.806 20.742H282.244V22.204H268.806V20.742ZM268.806 16.528H270.569V21.129H268.806V16.528Z" fill="white"/>
<path d="M154.74 89.632H156.18V105.904H154.74V89.632ZM152.004 96.256H155.136V97.48H152.004V96.256ZM151.05 89.992H152.454V105.076H151.05V89.992ZM143.166 91.594H144.66V100.99H143.166V91.594ZM143.166 100.396H144.21C145.884 100.396 147.756 100.288 149.88 99.874L150.042 101.17C147.828 101.602 145.956 101.692 144.21 101.692H143.166V100.396ZM169.949 89.614H171.461V105.904H169.949V89.614ZM171.047 96.22H174.053V97.462H171.047V96.22ZM165.791 91.378H167.249C167.249 96.004 165.125 100.18 159.869 102.826L159.041 101.674C163.541 99.388 165.791 95.914 165.791 91.612V91.378ZM159.797 91.378H166.565V92.602H159.797V91.378ZM182.156 91.36H192.632V92.566H182.156V91.36ZM180.572 102.286H195.278V103.528H180.572V102.286ZM191.84 91.36H193.298V92.98C193.298 95.068 193.298 97.39 192.686 100.9L191.192 100.756C191.84 97.426 191.84 94.996 191.84 92.98V91.36ZM208.974 89.614H210.468V105.922H208.974V89.614ZM198.066 100.756H199.416C202.134 100.756 204.564 100.648 207.444 100.18L207.606 101.404C204.654 101.89 202.206 101.998 199.416 101.998H198.066V100.756ZM198.03 91.144H205.554V96.958H199.56V101.224H198.066V95.734H204.042V92.368H198.03V91.144ZM215.669 94.51H226.721V95.734H215.669V94.51ZM213.671 97.912H228.431V99.136H213.671V97.912ZM215.669 90.226H217.145V95.122H215.669V90.226ZM215.561 104.284H226.811V105.508H215.561V104.284ZM215.561 100.756H217.037V104.608H215.561V100.756ZM242.636 93.25H247.55V94.492H242.636V93.25ZM242.636 98.398H247.55V99.64H242.636V98.398ZM239.648 90.874C242.006 90.874 243.698 93.088 243.698 96.544C243.698 100.018 242.006 102.232 239.648 102.232C237.272 102.232 235.598 100.018 235.598 96.544C235.598 93.088 237.272 90.874 239.648 90.874ZM239.648 92.224C238.082 92.224 237.002 93.916 237.002 96.544C237.002 99.19 238.082 100.918 239.648 100.918C241.214 100.918 242.294 99.19 242.294 96.544C242.294 93.916 241.214 92.224 239.648 92.224ZM247.226 89.614H248.702V105.922H247.226V89.614ZM264.145 89.632H265.567V99.928H264.145V89.632ZM261.499 94.042H264.577V95.284H261.499V94.042ZM260.671 89.956H262.075V99.352H260.671V89.956ZM251.779 91.576H260.023V92.764H251.779V91.576ZM255.919 93.592C257.953 93.592 259.375 94.708 259.375 96.382C259.375 98.074 257.953 99.172 255.919 99.172C253.867 99.172 252.445 98.074 252.445 96.382C252.445 94.708 253.867 93.592 255.919 93.592ZM255.919 94.708C254.641 94.708 253.777 95.374 253.777 96.382C253.777 97.408 254.641 98.056 255.919 98.056C257.179 98.056 258.043 97.408 258.043 96.382C258.043 95.374 257.179 94.708 255.919 94.708ZM255.181 89.758H256.639V92.242H255.181V89.758ZM260.239 100.216C263.623 100.216 265.657 101.224 265.657 103.042C265.657 104.842 263.623 105.868 260.239 105.868C256.819 105.868 254.803 104.842 254.803 103.042C254.803 101.224 256.819 100.216 260.239 100.216ZM260.239 101.368C257.737 101.368 256.279 101.962 256.279 103.042C256.279 104.122 257.737 104.734 260.239 104.734C262.705 104.734 264.181 104.122 264.181 103.042C264.181 101.962 262.705 101.368 260.239 101.368Z" fill="white"/>
<path d="M129.562 92.292H122V106.181H136.12V98.156" stroke="white" stroke-width="1.8"/>
<path d="M124.315 96.302L128.944 101.702L138.744 89.8191" stroke="white" stroke-width="1.8"/>
</g>
</g>
<defs>
<clipPath id="clip0_26_119">
<rect width="800" height="109" fill="white" transform="translate(0.5 0.5)"/>
</clipPath>
</defs>
</svg>
