<svg width="347" height="48" viewBox="0 0 347 48" fill="none" xmlns="http://www.w3.org/2000/svg">
<mask id="mask0_46_74" style="mask-type:luminance" maskUnits="userSpaceOnUse" x="1" y="0" width="345" height="47">
<path d="M346 0H1V47H346V0Z" fill="white"/>
</mask>
<g mask="url(#mask0_46_74)">
<mask id="mask1_46_74" style="mask-type:luminance" maskUnits="userSpaceOnUse" x="1" y="0" width="345" height="47">
<path d="M346 0H1V47H346V0Z" fill="white"/>
</mask>
<g mask="url(#mask1_46_74)">
<path d="M95.003 21.563H97.122V22.98H95.003V21.563ZM93.716 17H95.458V29.038H93.716V17ZM86.384 18.157H88.113V25.632H86.384V18.157ZM86.384 24.67H87.424C89.14 24.67 90.999 24.553 92.936 24.163L93.118 25.58C91.129 25.996 89.192 26.1 87.424 26.1H86.384V24.67ZM106.234 17H107.976V29.077H106.234V17ZM101.489 17.845C103.309 17.845 104.648 19.509 104.648 22.135C104.648 24.787 103.309 26.451 101.489 26.451C99.669 26.451 98.33 24.787 98.33 22.135C98.33 19.509 99.669 17.845 101.489 17.845ZM101.489 19.418C100.592 19.418 99.981 20.367 99.981 22.135C99.981 23.929 100.592 24.891 101.489 24.891C102.386 24.891 102.984 23.929 102.984 22.135C102.984 20.367 102.386 19.418 101.489 19.418ZM113.162 17.845C114.995 17.845 116.321 19.509 116.321 22.135C116.321 24.787 114.995 26.451 113.162 26.451C111.329 26.451 110.003 24.787 110.003 22.135C110.003 19.509 111.329 17.845 113.162 17.845ZM113.162 19.418C112.265 19.418 111.667 20.367 111.667 22.135C111.667 23.929 112.265 24.891 113.162 24.891C114.059 24.891 114.67 23.929 114.67 22.135C114.67 20.367 114.059 19.418 113.162 19.418ZM117.634 17.013H119.376V29.051H117.634V17.013ZM118.986 21.55H121.118V22.98H118.986V21.55ZM129.593 17H131.335V29.038H129.593V17ZM130.88 21.602H132.999V23.019H130.88V21.602ZM126.434 18.248H128.124C128.124 21.862 126.746 24.956 122.742 26.971L121.78 25.658C124.939 24.02 126.434 21.81 126.434 18.547V18.248ZM122.443 18.248H127.318V19.639H122.443V18.248ZM141.578 17H143.294V29.077H141.578V17ZM142.904 21.55H145.036V22.98H142.904V21.55ZM134.35 24.865H135.364C137.405 24.865 138.991 24.8 140.759 24.488L140.928 25.879C139.108 26.204 137.457 26.282 135.364 26.282H134.35V24.865ZM134.337 18.027H139.875V22.694H136.066V25.398H134.35V21.316H138.159V19.405H134.337V18.027ZM153.298 20.766H156.07V21.943H153.298V20.766ZM153.298 23.923H156.07V25.1H153.298V23.923ZM151.538 19.391C153.056 19.391 154.167 20.799 154.167 23.021C154.167 25.265 153.056 26.673 151.538 26.673C150.009 26.673 148.909 25.265 148.909 23.021C148.909 20.799 150.009 19.391 151.538 19.391ZM151.538 20.722C150.801 20.722 150.295 21.525 150.295 23.021C150.295 24.539 150.801 25.353 151.538 25.353C152.286 25.353 152.781 24.539 152.781 23.021C152.781 21.525 152.286 20.722 151.538 20.722ZM155.839 18.676H157.291V28.895H155.839V18.676ZM166.156 18.687H167.542V25.067H166.156V18.687ZM164.913 21.195H166.541V22.383H164.913V21.195ZM164.044 18.885H165.408V24.737H164.044V18.885ZM158.819 19.732H163.758V20.854H158.819V19.732ZM161.305 21.184C162.581 21.184 163.505 21.91 163.505 22.966C163.505 24.022 162.581 24.737 161.305 24.737C160.029 24.737 159.105 24.022 159.105 22.966C159.105 21.91 160.029 21.184 161.305 21.184ZM161.305 22.229C160.766 22.229 160.403 22.493 160.403 22.966C160.403 23.439 160.766 23.703 161.305 23.703C161.833 23.703 162.196 23.439 162.196 22.966C162.196 22.493 161.833 22.229 161.305 22.229ZM160.568 18.786H162.009V20.502H160.568V18.786ZM164.099 25.177C166.277 25.177 167.597 25.837 167.597 27.025C167.597 28.202 166.277 28.873 164.099 28.873C161.91 28.873 160.59 28.202 160.59 27.025C160.59 25.837 161.91 25.177 164.099 25.177ZM164.099 26.266C162.735 26.266 162.053 26.497 162.053 27.025C162.053 27.542 162.735 27.784 164.099 27.784C165.452 27.784 166.134 27.542 166.134 27.025C166.134 26.497 165.452 26.266 164.099 26.266ZM172.26 19.358C173.866 19.358 175.065 20.403 175.065 21.866C175.065 23.34 173.866 24.385 172.26 24.385C170.665 24.385 169.444 23.34 169.444 21.866C169.444 20.403 170.665 19.358 172.26 19.358ZM172.26 20.612C171.479 20.612 170.885 21.074 170.885 21.866C170.885 22.669 171.479 23.131 172.26 23.131C173.041 23.131 173.635 22.669 173.635 21.866C173.635 21.074 173.041 20.612 172.26 20.612ZM176.022 18.676H177.485V28.895H176.022V18.676ZM169.202 26.827L169.026 25.65C170.819 25.65 173.316 25.628 175.461 25.309L175.571 26.365C173.36 26.805 170.962 26.827 169.202 26.827ZM184.133 19.468H185.321V20.953C185.321 23.571 184.419 25.936 182.395 26.871L181.526 25.661C183.297 24.891 184.133 22.933 184.133 20.953V19.468ZM184.419 19.468H185.607V20.953C185.607 22.834 186.41 24.704 188.148 25.452L187.29 26.629C185.321 25.727 184.419 23.461 184.419 20.953V19.468ZM188.632 18.676H190.106V28.895H188.632V18.676ZM194.032 19.732H195.231V20.37C195.231 22.295 194.318 24.022 192.371 24.649L191.612 23.516C193.317 22.966 194.032 21.646 194.032 20.37V19.732ZM194.329 19.732H195.517V20.37C195.517 21.569 196.21 22.812 197.86 23.34L197.112 24.473C195.209 23.857 194.329 22.196 194.329 20.37V19.732ZM192.008 19.281H197.508V20.447H192.008V19.281ZM198.322 18.687H199.785V24.825H198.322V18.687ZM199.378 21.151H201.138V22.35H199.378V21.151ZM192.987 25.265H199.785V28.873H198.322V26.442H192.987V25.265ZM205.839 27.894L204.206 21.894H205.89L206.819 25.9252H206.874L207.843 21.894H209.495L210.479 25.9018H210.53L211.444 21.894H213.124L211.495 27.894H209.733L208.702 24.1206H208.628L207.597 27.894H205.839ZM214.012 27.894V21.894H215.676V27.894H214.012ZM214.848 21.1206C214.6 21.1206 214.388 21.0385 214.211 20.8745C214.036 20.7078 213.949 20.5086 213.949 20.2768C213.949 20.0477 214.036 19.851 214.211 19.687C214.388 19.5203 214.6 19.437 214.848 19.437C215.095 19.437 215.306 19.5203 215.48 19.687C215.658 19.851 215.746 20.0477 215.746 20.2768C215.746 20.5086 215.658 20.7078 215.48 20.8745C215.306 21.0385 215.095 21.1206 214.848 21.1206ZM220.2 21.894V23.144H216.587V21.894H220.2ZM217.407 20.4565H219.071V26.0502C219.071 26.2039 219.095 26.3237 219.142 26.4096C219.188 26.493 219.254 26.5516 219.337 26.5854C219.423 26.6193 219.522 26.6362 219.634 26.6362C219.712 26.6362 219.79 26.6297 219.868 26.6167C219.946 26.601 220.006 26.5893 220.048 26.5815L220.31 27.8198C220.226 27.8458 220.109 27.8758 219.958 27.9096C219.807 27.9461 219.623 27.9682 219.407 27.976C219.006 27.9917 218.655 27.9383 218.353 27.8159C218.053 27.6935 217.82 27.5034 217.653 27.2456C217.487 26.9877 217.405 26.6622 217.407 26.269V20.4565ZM223.077 24.4253V27.894H221.413V19.894H223.03V22.9526H223.101C223.236 22.5984 223.455 22.3211 223.757 22.1206C224.059 21.9174 224.438 21.8159 224.894 21.8159C225.31 21.8159 225.674 21.907 225.983 22.0893C226.296 22.269 226.538 22.5281 226.71 22.8667C226.884 23.2026 226.97 23.6049 226.968 24.0737V27.894H225.304V24.3706C225.306 24.0008 225.213 23.713 225.022 23.5073C224.835 23.3016 224.572 23.1987 224.233 23.1987C224.007 23.1987 223.806 23.2469 223.632 23.3432C223.46 23.4396 223.325 23.5802 223.226 23.7651C223.129 23.9474 223.08 24.1674 223.077 24.4253ZM229.25 27.9956C228.992 27.9956 228.771 27.9044 228.586 27.7221C228.404 27.5372 228.313 27.3159 228.313 27.0581C228.313 26.8029 228.404 26.5841 228.586 26.4018C228.771 26.2195 228.992 26.1284 229.25 26.1284C229.5 26.1284 229.719 26.2195 229.906 26.4018C230.094 26.5841 230.188 26.8029 230.188 27.0581C230.188 27.2299 230.143 27.3875 230.055 27.5307C229.969 27.6713 229.855 27.7846 229.715 27.8706C229.574 27.9539 229.419 27.9956 229.25 27.9956ZM231.726 25.386H232.584C234.3 25.386 235.609 25.364 237.127 25.122L237.259 26.288C235.719 26.53 234.333 26.574 232.584 26.574H231.726V25.386ZM231.726 19.534H236.511V20.722H233.2V25.771H231.726V19.534ZM232.848 22.361H236.368V23.505H232.848V22.361ZM237.842 18.687H239.316V28.873H237.842V18.687ZM238.986 22.548H240.79V23.758H238.986V22.548ZM241.955 19.6H246.85V26.453H241.955V19.6ZM245.42 20.744H243.396V25.298H245.42V20.744ZM248.434 18.676H249.908V28.895H248.434V18.676ZM255.352 19.27H256.628V20.007C256.628 22.218 255.055 24.176 252.415 24.693L251.788 23.483C254.087 23.087 255.352 21.47 255.352 20.007V19.27ZM255.649 19.27H256.914V20.007C256.914 21.503 258.168 23.087 260.478 23.483L259.851 24.693C257.211 24.176 255.649 22.251 255.649 20.007V19.27ZM251.579 26.442H260.797V27.63H251.579V26.442Z" fill="white"/>
</g>
</g>
</svg>
