<svg width="800" height="109" viewBox="0 0 800 109" fill="none" xmlns="http://www.w3.org/2000/svg">
<g clip-path="url(#clip0_53_96)">
<mask id="mask0_53_96" style="mask-type:luminance" maskUnits="userSpaceOnUse" x="0" y="0" width="800" height="109">
<path d="M800 0H0V109H800V0Z" fill="white"/>
</mask>
<g mask="url(#mask0_53_96)">
<path d="M137.433 49.059H144.442V53.746H137.433V49.059ZM133.176 33.966H138.938V73.784H133.176V33.966ZM108.924 37.793H114.643V62.518H108.924V37.793ZM108.924 59.336H112.364C118.04 59.336 124.189 58.949 130.596 57.659L131.198 62.346C124.619 63.722 118.212 64.066 112.364 64.066H108.924V59.336ZM174.582 33.966H180.344V73.913H174.582V33.966ZM158.887 36.761C164.907 36.761 169.336 42.265 169.336 50.951C169.336 59.723 164.907 65.227 158.887 65.227C152.867 65.227 148.438 59.723 148.438 50.951C148.438 42.265 152.867 36.761 158.887 36.761ZM158.887 41.964C155.92 41.964 153.899 45.103 153.899 50.951C153.899 56.885 155.92 60.067 158.887 60.067C161.854 60.067 163.832 56.885 163.832 50.951C163.832 45.103 161.854 41.964 158.887 41.964ZM197.497 36.761C203.56 36.761 207.946 42.265 207.946 50.951C207.946 59.723 203.56 65.227 197.497 65.227C191.434 65.227 187.048 59.723 187.048 50.951C187.048 42.265 191.434 36.761 197.497 36.761ZM197.497 41.964C194.53 41.964 192.552 45.103 192.552 50.951C192.552 56.885 194.53 60.067 197.497 60.067C200.464 60.067 202.485 56.885 202.485 50.951C202.485 45.103 200.464 41.964 197.497 41.964ZM212.289 34.009H218.051V73.827H212.289V34.009ZM216.761 49.016H223.813V53.746H216.761V49.016ZM251.846 33.966H257.608V73.784H251.846V33.966ZM256.103 49.188H263.112V53.875H256.103V49.188ZM241.397 38.094H246.987C246.987 50.048 242.429 60.282 229.185 66.947L226.003 62.604C236.452 57.186 241.397 49.876 241.397 39.083V38.094ZM228.196 38.094H244.321V42.695H228.196V38.094ZM291.489 33.966H297.165V73.913H291.489V33.966ZM295.875 49.016H302.927V53.746H295.875V49.016ZM267.581 59.981H270.935C277.686 59.981 282.932 59.766 288.78 58.734L289.339 63.335C283.319 64.41 277.858 64.668 270.935 64.668H267.581V59.981ZM267.538 37.363H285.856V52.8H273.257V61.744H267.581V48.242H280.18V41.921H267.538V37.363ZM321.035 45.376H330.611V49.442H321.035V45.376ZM321.035 56.282H330.611V60.348H321.035V56.282ZM314.955 40.626C320.199 40.626 324.037 45.49 324.037 53.166C324.037 60.918 320.199 65.782 314.955 65.782C309.673 65.782 305.873 60.918 305.873 53.166C305.873 45.49 309.673 40.626 314.955 40.626ZM314.955 45.224C312.409 45.224 310.661 47.998 310.661 53.166C310.661 58.41 312.409 61.222 314.955 61.222C317.539 61.222 319.249 58.41 319.249 53.166C319.249 47.998 317.539 45.224 314.955 45.224ZM329.813 38.156H334.829V73.458H329.813V38.156ZM365.454 38.194H370.242V60.234H365.454V38.194ZM361.16 46.858H366.784V50.962H361.16V46.858ZM358.158 38.878H362.87V59.094H358.158V38.878ZM340.108 41.804H357.17V45.68H340.108V41.804ZM348.696 46.82C353.104 46.82 356.296 49.328 356.296 52.976C356.296 56.624 353.104 59.094 348.696 59.094C344.288 59.094 341.096 56.624 341.096 52.976C341.096 49.328 344.288 46.82 348.696 46.82ZM348.696 50.43C346.834 50.43 345.58 51.342 345.58 52.976C345.58 54.61 346.834 55.522 348.696 55.522C350.52 55.522 351.774 54.61 351.774 52.976C351.774 51.342 350.52 50.43 348.696 50.43ZM346.15 38.536H351.128V44.464H346.15V38.536ZM358.348 60.614C365.872 60.614 370.432 62.894 370.432 66.998C370.432 71.064 365.872 73.382 358.348 73.382C350.786 73.382 346.226 71.064 346.226 66.998C346.226 62.894 350.786 60.614 358.348 60.614ZM358.348 64.376C353.636 64.376 351.28 65.174 351.28 66.998C351.28 68.784 353.636 69.62 358.348 69.62C363.022 69.62 365.378 68.784 365.378 66.998C365.378 65.174 363.022 64.376 358.348 64.376ZM386.541 40.512C392.089 40.512 396.231 44.122 396.231 49.176C396.231 54.268 392.089 57.878 386.541 57.878C381.031 57.878 376.813 54.268 376.813 49.176C376.813 44.122 381.031 40.512 386.541 40.512ZM386.541 44.844C383.843 44.844 381.791 46.44 381.791 49.176C381.791 51.95 383.843 53.546 386.541 53.546C389.239 53.546 391.291 51.95 391.291 49.176C391.291 46.44 389.239 44.844 386.541 44.844ZM399.537 38.156H404.591V73.458H399.537V38.156ZM375.977 66.314L375.369 62.248C381.563 62.248 390.189 62.172 397.599 61.07L397.979 64.718C390.341 66.238 382.057 66.314 375.977 66.314ZM427.557 40.892H431.661V46.022C431.661 55.066 428.545 63.236 421.553 66.466L418.551 62.286C424.669 59.626 427.557 52.862 427.557 46.022V40.892ZM428.545 40.892H432.649V46.022C432.649 52.52 435.423 58.98 441.427 61.564L438.463 65.63C431.661 62.514 428.545 54.686 428.545 46.022V40.892ZM443.099 38.156H448.191V73.458H443.099V38.156ZM461.754 41.804H465.896V44.008C465.896 50.658 462.742 56.624 456.016 58.79L453.394 54.876C459.284 52.976 461.754 48.416 461.754 44.008V41.804ZM462.78 41.804H466.884V44.008C466.884 48.15 469.278 52.444 474.978 54.268L472.394 58.182C465.82 56.054 462.78 50.316 462.78 44.008V41.804ZM454.762 40.246H473.762V44.274H454.762V40.246ZM476.574 38.194H481.628V59.398H476.574V38.194ZM480.222 46.706H486.302V50.848H480.222V46.706ZM458.144 60.918H481.628V73.382H476.574V64.984H458.144V60.918ZM502.541 70L496.9 49.2727H502.716L505.928 63.1989H506.117L509.464 49.2727H515.172L518.572 63.1179H518.748L521.905 49.2727H527.708L522.081 70H515.995L512.432 56.9645H512.176L508.613 70H502.541ZM530.775 70V49.2727H536.523V70H530.775ZM533.662 46.6009C532.808 46.6009 532.074 46.3175 531.463 45.7507C530.86 45.175 530.559 44.4867 530.559 43.6861C530.559 42.8944 530.86 42.2152 531.463 41.6484C532.074 41.0727 532.808 40.7848 533.662 40.7848C534.517 40.7848 535.246 41.0727 535.848 41.6484C536.46 42.2152 536.766 42.8944 536.766 43.6861C536.766 44.4867 536.46 45.175 535.848 45.7507C535.246 46.3175 534.517 46.6009 533.662 46.6009ZM552.153 49.2727V53.5909H539.671V49.2727H552.153ZM542.504 44.3068H548.253V63.6307C548.253 64.1615 548.334 64.5753 548.496 64.8722C548.658 65.16 548.883 65.3625 549.171 65.4794C549.468 65.5964 549.809 65.6548 550.196 65.6548C550.466 65.6548 550.736 65.6323 551.006 65.5874C551.276 65.5334 551.483 65.4929 551.627 65.4659L552.531 69.7436C552.243 69.8336 551.838 69.937 551.316 70.054C550.794 70.1799 550.16 70.2564 549.414 70.2834C548.028 70.3374 546.814 70.1529 545.77 69.7301C544.735 69.3073 543.93 68.6506 543.355 67.7599C542.779 66.8693 542.495 65.7448 542.504 64.3864V44.3068ZM562.091 58.017V70H556.343V42.3636H561.93V52.9297H562.172C562.64 51.7062 563.396 50.7481 564.439 50.0554C565.483 49.3537 566.792 49.0028 568.366 49.0028C569.806 49.0028 571.061 49.3177 572.131 49.9474C573.211 50.5682 574.047 51.4633 574.641 52.6328C575.244 53.7933 575.541 55.1832 575.532 56.8026V70H569.783V57.8281C569.792 56.5507 569.468 55.5566 568.812 54.8459C568.164 54.1352 567.255 53.7798 566.086 53.7798C565.303 53.7798 564.61 53.9463 564.008 54.2791C563.414 54.612 562.946 55.0978 562.604 55.7365C562.271 56.3662 562.1 57.1264 562.091 58.017ZM583.416 70.3509C582.525 70.3509 581.761 70.036 581.122 69.4062C580.492 68.7675 580.177 68.0028 580.177 67.1122C580.177 66.2306 580.492 65.4749 581.122 64.8452C581.761 64.2154 582.525 63.9006 583.416 63.9006C584.279 63.9006 585.035 64.2154 585.683 64.8452C586.331 65.4749 586.654 66.2306 586.654 67.1122C586.654 67.706 586.502 68.2502 586.196 68.745C585.899 69.2308 585.507 69.6222 585.022 69.919C584.536 70.2069 584.001 70.3509 583.416 70.3509ZM591.968 61.336H594.932C600.86 61.336 605.382 61.26 610.626 60.424L611.082 64.452C605.762 65.288 600.974 65.44 594.932 65.44H591.968V61.336ZM591.968 41.12H608.498V45.224H597.06V62.666H591.968V41.12ZM595.844 50.886H608.004V54.838H595.844V50.886ZM613.096 38.194H618.188V73.382H613.096V38.194ZM617.048 51.532H623.28V55.712H617.048V51.532ZM627.305 41.348H644.215V65.022H627.305V41.348ZM639.275 45.3H632.283V61.032H639.275V45.3ZM649.687 38.156H654.779V73.458H649.687V38.156ZM673.586 40.208H677.994V42.754C677.994 50.392 672.56 57.156 663.44 58.942L661.274 54.762C669.216 53.394 673.586 47.808 673.586 42.754V40.208ZM674.612 40.208H678.982V42.754C678.982 47.922 683.314 53.394 691.294 54.762L689.128 58.942C680.008 57.156 674.612 50.506 674.612 42.754V40.208ZM660.552 64.984H692.396V69.088H660.552V64.984Z" fill="white"/>
</g>
</g>
<defs>
<clipPath id="clip0_53_96">
<rect width="800" height="109" fill="white"/>
</clipPath>
</defs>
</svg>
