<svg width="346" height="48" viewBox="0 0 346 48" fill="none" xmlns="http://www.w3.org/2000/svg">
<g clip-path="url(#clip0_33_103)">
<mask id="mask0_33_103" style="mask-type:luminance" maskUnits="userSpaceOnUse" x="0" y="0" width="346" height="48">
<path d="M345.5 0.5H0.5V47.5H345.5V0.5Z" fill="white"/>
</mask>
<g mask="url(#mask0_33_103)">
<path d="M87.1378 9.57955C86.7699 9.57955 86.4525 9.49834 86.1857 9.33594C85.9206 9.17188 85.7159 8.94318 85.5717 8.64986C85.4292 8.35488 85.358 8.01184 85.358 7.62074C85.358 7.22964 85.4292 6.88494 85.5717 6.58665C85.7159 6.2867 85.9164 6.05303 86.1733 5.88565C86.4318 5.71662 86.7334 5.6321 87.0781 5.6321C87.277 5.6321 87.4734 5.66525 87.6673 5.73153C87.8612 5.79782 88.0376 5.90554 88.1967 6.05469C88.3558 6.20218 88.4826 6.39773 88.5771 6.64134C88.6715 6.88494 88.7188 7.1849 88.7188 7.54119V7.78977H85.7756V7.28267H88.1222C88.1222 7.06723 88.0791 6.875 87.9929 6.70597C87.9084 6.53693 87.7874 6.40353 87.63 6.30575C87.4742 6.20798 87.2902 6.15909 87.0781 6.15909C86.8445 6.15909 86.6423 6.21709 86.4716 6.3331C86.3026 6.44744 86.1725 6.59659 86.0813 6.78054C85.9902 6.96449 85.9446 7.16169 85.9446 7.37216V7.71023C85.9446 7.99858 85.9943 8.24302 86.0938 8.44354C86.1948 8.6424 86.3349 8.79403 86.5138 8.89844C86.6928 9.00118 86.9008 9.05256 87.1378 9.05256C87.2919 9.05256 87.4311 9.03101 87.5554 8.98793C87.6813 8.94318 87.7899 8.87689 87.881 8.78906C87.9722 8.69957 88.0426 8.58854 88.0923 8.45597L88.6591 8.61506C88.5994 8.80729 88.4992 8.97633 88.3583 9.12216C88.2174 9.26634 88.0434 9.37902 87.8363 9.46023C87.6291 9.53977 87.3963 9.57955 87.1378 9.57955ZM92.4748 5.68182C92.445 5.42992 92.324 5.23438 92.1119 5.09517C91.8997 4.95597 91.6396 4.88636 91.3313 4.88636C91.1059 4.88636 90.9087 4.92282 90.7397 4.99574C90.5723 5.06866 90.4414 5.16892 90.3469 5.29652C90.2541 5.42412 90.2077 5.56913 90.2077 5.73153C90.2077 5.86742 90.2401 5.98426 90.3047 6.08203C90.371 6.17815 90.4555 6.25852 90.5582 6.32315C90.661 6.38613 90.7687 6.43833 90.8814 6.47976C90.9941 6.51953 91.0977 6.55185 91.1921 6.5767L91.7092 6.71591C91.8417 6.75071 91.9892 6.79877 92.1516 6.86009C92.3157 6.9214 92.4723 7.00509 92.6214 7.11115C92.7723 7.21555 92.8965 7.34979 92.9943 7.51385C93.0921 7.67791 93.141 7.87926 93.141 8.1179C93.141 8.39299 93.0689 8.64157 92.9247 8.86364C92.7822 9.0857 92.5734 9.26219 92.2983 9.39311C92.0249 9.52403 91.6926 9.58949 91.3015 9.58949C90.9369 9.58949 90.6212 9.53066 90.3544 9.413C90.0893 9.29534 89.8804 9.13127 89.728 8.92081C89.5772 8.71035 89.4918 8.46591 89.4719 8.1875H90.1083C90.1249 8.37973 90.1895 8.53883 90.3022 8.66477C90.4165 8.78906 90.5607 8.88187 90.7347 8.94318C90.9104 9.00284 91.0993 9.03267 91.3015 9.03267C91.5368 9.03267 91.7481 8.99455 91.9354 8.91832C92.1226 8.84044 92.271 8.73272 92.3803 8.59517C92.4897 8.45597 92.5444 8.29356 92.5444 8.10795C92.5444 7.93892 92.4972 7.80137 92.4027 7.69531C92.3082 7.58925 92.1839 7.50308 92.0298 7.43679C91.8757 7.3705 91.7092 7.3125 91.5302 7.26278L90.9038 7.08381C90.506 6.96946 90.1912 6.80623 89.9592 6.59411C89.7272 6.38198 89.6112 6.1044 89.6112 5.76136C89.6112 5.47633 89.6882 5.22775 89.8423 5.01562C89.9981 4.80185 90.2069 4.63613 90.4688 4.51847C90.7322 4.39915 91.0264 4.33949 91.3512 4.33949C91.6793 4.33949 91.971 4.39832 92.2262 4.51598C92.4814 4.63198 92.6836 4.79107 92.8327 4.99325C92.9835 5.19543 93.0631 5.42495 93.0714 5.68182H92.4748ZM94.771 4.40909V9.5H94.1546V4.40909H94.771ZM96.0071 4.40909H96.7429L98.473 8.63494H98.5327L100.263 4.40909H100.999V9.5H100.422V5.6321H100.372L98.7812 9.5H98.2244L96.6335 5.6321H96.5838V9.5H96.0071V4.40909ZM104.824 4.117C106.14 4.117 107.12 4.817 107.12 5.867C107.12 6.924 106.14 7.617 104.824 7.617C103.508 7.617 102.521 6.924 102.521 5.867C102.521 4.817 103.508 4.117 104.824 4.117ZM104.824 4.593C103.823 4.593 103.081 5.104 103.081 5.867C103.081 6.623 103.823 7.141 104.824 7.141C105.825 7.141 106.567 6.623 106.567 5.867C106.567 5.104 105.825 4.593 104.824 4.593ZM101.968 8.723H107.701V9.213H101.968V8.723ZM108.408 8.786H114.141V9.269H108.408V8.786ZM110.97 7.428H111.551V8.989H110.97V7.428ZM109.101 4.187H113.434V6.105H109.696V7.372H109.122V5.636H112.86V4.656H109.101V4.187ZM109.122 7.127H113.581V7.603H109.122V7.127ZM118.279 7.631H118.874V10.046H118.279V7.631ZM120.456 7.631H121.051V10.046H120.456V7.631ZM116.809 7.316H122.549V7.799H116.809V7.316ZM119.665 3.97C120.988 3.97 121.877 4.502 121.877 5.349C121.877 6.189 120.988 6.728 119.665 6.728C118.349 6.728 117.453 6.189 117.453 5.349C117.453 4.502 118.349 3.97 119.665 3.97ZM119.665 4.439C118.699 4.439 118.041 4.796 118.041 5.349C118.041 5.902 118.699 6.259 119.665 6.259C120.631 6.259 121.282 5.902 121.282 5.349C121.282 4.796 120.631 4.439 119.665 4.439ZM127.854 3.725H128.442V7.316H127.854V3.725ZM124.354 7.68H128.442V9.962H124.354V7.68ZM127.868 8.142H124.921V9.493H127.868V8.142ZM124.9 3.963H125.383V4.579C125.383 5.755 124.655 6.763 123.584 7.162L123.297 6.7C124.249 6.357 124.9 5.503 124.9 4.579V3.963ZM125.005 3.963H125.481V4.579C125.481 5.475 126.139 6.266 127.077 6.581L126.79 7.036C125.733 6.672 125.005 5.727 125.005 4.579V3.963ZM130.283 4.348H134.357V4.831H130.283V4.348ZM129.695 8.681H135.414V9.164H129.695V8.681ZM131.095 6.588H131.669V8.856H131.095V6.588ZM134.168 4.348H134.742V5.048C134.742 5.853 134.742 6.679 134.525 7.862L133.944 7.792C134.168 6.672 134.168 5.832 134.168 5.048V4.348ZM132.656 6.588H133.23V8.856H132.656V6.588ZM140.453 3.718H141.034V8.674H140.453V3.718ZM140.789 5.923H141.958V6.406H140.789V5.923ZM137.03 9.43H141.258V9.906H137.03V9.43ZM137.03 8.345H137.611V9.577H137.03V8.345ZM137.786 6.812H138.367V7.673H137.786V6.812ZM136.169 7.946L136.092 7.477C137.212 7.477 138.773 7.456 140.075 7.253L140.124 7.666C138.787 7.911 137.268 7.939 136.169 7.946ZM136.253 4.334H139.886V4.775H136.253V4.334ZM138.073 5.034C138.962 5.034 139.543 5.405 139.543 6.007C139.543 6.616 138.962 6.987 138.073 6.987C137.184 6.987 136.596 6.616 136.596 6.007C136.596 5.405 137.184 5.034 138.073 5.034ZM138.073 5.447C137.506 5.447 137.142 5.664 137.142 6.007C137.142 6.357 137.506 6.567 138.073 6.567C138.633 6.567 138.997 6.357 138.997 6.007C138.997 5.664 138.633 5.447 138.073 5.447ZM137.786 3.69H138.367V4.53H137.786V3.69ZM145.263 7.428H145.809V8.219H146.915V7.428H147.454V9.962H145.263V7.428ZM145.809 8.653V9.507H146.915V8.653H145.809ZM148.679 7.393H149.127V7.918C149.127 8.779 148.693 9.647 147.818 10.018L147.524 9.577C148.287 9.255 148.679 8.562 148.679 7.918V7.393ZM148.798 7.393H149.246V7.918C149.246 8.597 149.638 9.283 150.401 9.577L150.107 10.018C149.225 9.654 148.798 8.814 148.798 7.918V7.393ZM147.72 5.202H149.421V5.685H147.72V5.202ZM146.264 3.998C147.209 3.998 147.895 4.586 147.895 5.454C147.895 6.315 147.209 6.91 146.264 6.91C145.319 6.91 144.633 6.315 144.633 5.454C144.633 4.586 145.319 3.998 146.264 3.998ZM146.264 4.481C145.641 4.481 145.193 4.88 145.193 5.454C145.193 6.021 145.641 6.427 146.264 6.427C146.887 6.427 147.335 6.021 147.335 5.454C147.335 4.88 146.887 4.481 146.264 4.481ZM149.162 3.718H149.743V7.071H149.162V3.718ZM155.574 3.711H156.155V10.053H155.574V3.711ZM152.816 4.201C153.754 4.201 154.426 5.062 154.426 6.406C154.426 7.757 153.754 8.618 152.816 8.618C151.885 8.618 151.213 7.757 151.213 6.406C151.213 5.062 151.885 4.201 152.816 4.201ZM152.816 4.726C152.2 4.726 151.766 5.384 151.766 6.406C151.766 7.435 152.2 8.107 152.816 8.107C153.439 8.107 153.866 7.435 153.866 6.406C153.866 5.384 153.439 4.726 152.816 4.726ZM163.716 3.718H164.297V8.345H163.716V3.718ZM164.115 5.636H165.235V6.119H164.115V5.636ZM161.987 4.208H162.603C162.603 5.846 161.455 7.043 159.642 7.624L159.39 7.148C160.986 6.658 161.987 5.678 161.987 4.46V4.208ZM159.649 4.208H162.281V4.684H159.649V4.208ZM160.349 9.43H164.577V9.906H160.349V9.43ZM160.349 7.876H160.93V9.619H160.349V7.876ZM170.449 3.718H171.03V8.429H170.449V3.718ZM166.011 4.229H169.343V4.705H166.011V4.229ZM165.906 7.477L165.843 6.98C166.879 6.98 168.356 6.966 169.539 6.826L169.574 7.26C168.356 7.456 166.935 7.477 165.906 7.477ZM166.641 4.635H167.201V7.064H166.641V4.635ZM168.153 4.635H168.713V7.064H168.153V4.635ZM169.399 4.915H170.757V5.391H169.399V4.915ZM169.399 6.126H170.757V6.602H169.399V6.126ZM166.984 9.43H171.198V9.906H166.984V9.43ZM166.984 8.044H167.565V9.731H166.984V8.044ZM176.553 3.718H177.134V10.046H176.553V3.718ZM176.994 6.315H178.17V6.805H176.994V6.315ZM172.234 4.726H175.965V5.202H172.234V4.726ZM174.124 5.727C175.02 5.727 175.664 6.329 175.664 7.183C175.664 8.037 175.02 8.639 174.124 8.639C173.235 8.639 172.584 8.037 172.584 7.183C172.584 6.329 173.235 5.727 174.124 5.727ZM174.124 6.21C173.55 6.21 173.137 6.609 173.137 7.183C173.137 7.75 173.55 8.156 174.124 8.156C174.698 8.156 175.111 7.75 175.111 7.183C175.111 6.609 174.698 6.21 174.124 6.21ZM173.823 3.795H174.404V4.943H173.823V3.795ZM183.524 3.718H184.084V10.046H183.524V3.718ZM180.78 6.301H182.376V6.77H180.78V6.301ZM182.208 3.879H182.754V9.724H182.208V3.879ZM180.857 4.516H181.417C181.417 6.175 180.752 7.666 179.044 8.681L178.701 8.268C180.192 7.372 180.857 6.112 180.857 4.621V4.516ZM178.981 4.516H181.074V4.992H178.981V4.516ZM186.11 4.40909L186.061 8.06818H185.484L185.434 4.40909H186.11ZM185.772 9.53977C185.65 9.53977 185.544 9.49586 185.457 9.40803C185.369 9.32019 185.325 9.21496 185.325 9.09233C185.325 8.9697 185.369 8.86446 185.457 8.77663C185.544 8.6888 185.65 8.64489 185.772 8.64489C185.895 8.64489 186 8.6888 186.088 8.77663C186.176 8.86446 186.22 8.9697 186.22 9.09233C186.22 9.17353 186.199 9.24811 186.158 9.31605C186.118 9.384 186.064 9.43868 185.996 9.48011C185.93 9.51989 185.855 9.53977 185.772 9.53977Z" fill="white"/>
<path d="M97.659 38.0505H98.1985V42.3795H97.659V38.0505ZM98.0295 39.838H99.0695V40.2865H98.0295V39.838ZM94.539 43.361H98.465V43.803H94.539V43.361ZM94.539 41.9375H95.0785V43.5365H94.539V41.9375ZM95.28 38.4665C96.1575 38.4665 96.814 39.071 96.814 39.916C96.814 40.7675 96.1575 41.3655 95.28 41.3655C94.4025 41.3655 93.746 40.7675 93.746 39.916C93.746 39.071 94.4025 38.4665 95.28 38.4665ZM95.28 38.941C94.708 38.941 94.2725 39.344 94.2725 39.916C94.2725 40.4945 94.708 40.891 95.28 40.891C95.852 40.891 96.2875 40.4945 96.2875 39.916C96.2875 39.344 95.852 38.941 95.28 38.941ZM102.755 39.578H104.081V40.0265H102.755V39.578ZM103.912 38.057H104.451V41.5605H103.912V38.057ZM102.521 41.736C103.73 41.736 104.477 42.1455 104.477 42.8345C104.477 43.53 103.73 43.9265 102.521 43.9265C101.305 43.9265 100.558 43.53 100.558 42.8345C100.558 42.1455 101.305 41.736 102.521 41.736ZM102.521 42.1585C101.637 42.1585 101.097 42.4055 101.097 42.8345C101.097 43.257 101.637 43.504 102.521 43.504C103.405 43.504 103.944 43.257 103.944 42.8345C103.944 42.4055 103.405 42.1585 102.521 42.1585ZM101.117 38.6485H101.559V39.123C101.559 40.2085 100.896 41.138 99.9205 41.502L99.641 41.073C100.512 40.7545 101.117 39.968 101.117 39.123V38.6485ZM101.221 38.6485H101.656V39.123C101.656 39.8835 102.228 40.6115 103.08 40.9105L102.807 41.3395C101.851 40.995 101.221 40.111 101.221 39.123V38.6485ZM99.8035 38.486H102.943V38.928H99.8035V38.486ZM107.096 38.655H107.538V39.1295C107.538 40.202 106.875 41.1185 105.894 41.4825L105.614 41.0535C106.492 40.7415 107.096 39.9615 107.096 39.1295V38.655ZM107.2 38.655H107.636V39.1295C107.636 39.8835 108.208 40.618 109.059 40.917L108.786 41.346C107.831 40.995 107.2 40.111 107.2 39.1295V38.655ZM108.741 39.5845H110.047V40.033H108.741V39.5845ZM105.783 38.46H108.923V38.8955H105.783V38.46ZM106.511 41.892H110.431V43.933H109.891V42.334H106.511V41.892ZM109.891 38.057H110.431V41.5735H109.891V38.057ZM115.851 38.0635H116.397V42.3535H115.851V38.0635ZM112.62 43.361H116.572V43.803H112.62V43.361ZM112.62 41.9115H113.153V43.5105H112.62V41.9115ZM113.244 38.4665C114.122 38.4665 114.772 39.0645 114.772 39.916C114.772 40.761 114.122 41.3655 113.244 41.3655C112.367 41.3655 111.71 40.761 111.71 39.916C111.71 39.0645 112.367 38.4665 113.244 38.4665ZM113.244 38.9345C112.672 38.9345 112.237 39.3375 112.237 39.916C112.237 40.488 112.672 40.891 113.244 40.891C113.816 40.891 114.252 40.488 114.252 39.916C114.252 39.3375 113.816 38.9345 113.244 38.9345ZM119.382 41.1705H124.692V41.606H119.382V41.1705ZM121.767 40.41H122.3V41.3525H121.767V40.41ZM120.084 40.1695H124.068V40.592H120.084V40.1695ZM120.084 38.226H124.042V38.6485H120.617V40.397H120.084V38.226ZM120.461 39.188H123.886V39.604H120.461V39.188ZM122.034 42.0415C123.314 42.0415 124.049 42.3665 124.049 42.984C124.049 43.595 123.314 43.92 122.034 43.92C120.753 43.92 120.019 43.595 120.019 42.984C120.019 42.3665 120.753 42.0415 122.034 42.0415ZM122.034 42.451C121.091 42.451 120.565 42.6395 120.565 42.984C120.565 43.335 121.091 43.517 122.034 43.517C122.976 43.517 123.503 43.335 123.503 42.984C123.503 42.6395 122.976 42.451 122.034 42.451ZM129.638 38.0635H130.184V42.3665H129.638V38.0635ZM126.408 43.361H130.36V43.803H126.408V43.361ZM126.408 41.97H126.941V43.569H126.408V41.97ZM126.895 38.382H127.344V38.98C127.344 40.124 126.694 41.125 125.706 41.528L125.426 41.0925C126.31 40.748 126.895 39.89 126.895 38.98V38.382ZM126.993 38.382H127.435V38.98C127.435 39.864 128.026 40.6635 128.904 40.982L128.618 41.4175C127.643 41.0405 126.993 40.098 126.993 38.98V38.382ZM131.588 38.499H134.285V41.0275H131.588V38.499ZM133.759 38.9345H132.114V40.5985H133.759V38.9345ZM135.364 38.057H135.904V41.528H135.364V38.057ZM135.754 39.513H136.775V39.968H135.754V39.513ZM134.032 41.7295C135.228 41.7295 135.962 42.139 135.962 42.828C135.962 43.5235 135.228 43.9265 134.032 43.9265C132.836 43.9265 132.101 43.5235 132.101 42.828C132.101 42.139 132.836 41.7295 134.032 41.7295ZM134.032 42.165C133.161 42.165 132.628 42.4055 132.628 42.828C132.628 43.2505 133.161 43.4975 134.032 43.4975C134.903 43.4975 135.436 43.2505 135.436 42.828C135.436 42.4055 134.903 42.165 134.032 42.165ZM137.587 38.7005H140.245V39.136H137.587V38.7005ZM138.503 40.3775H139.036V42.3665H138.503V40.3775ZM140.024 38.7005H140.551V39.0125C140.551 39.4935 140.551 40.2605 140.382 41.3525L139.849 41.3005C140.024 40.241 140.024 39.487 140.024 39.0125V38.7005ZM141.292 38.057H141.825V43.933H141.292V38.057ZM141.682 40.514H142.767V40.969H141.682V40.514ZM137.327 42.6525L137.262 42.1975C138.328 42.1975 139.745 42.178 140.934 42.0285L140.96 42.425C139.745 42.62 138.367 42.646 137.327 42.6525ZM149.203 38.0505H149.743V43.9395H149.203V38.0505ZM149.502 40.3645H150.588V40.813H149.502V40.3645ZM145.303 41.944H145.563C145.895 41.944 146.337 41.9375 146.844 41.8205L146.896 42.269C146.356 42.3925 145.921 42.399 145.563 42.399H145.303V41.944ZM145.303 38.6745H146.785V39.11H145.836V42.165H145.303V38.6745ZM147.117 41.944H147.403C147.975 41.944 148.384 41.931 148.859 41.8075L148.911 42.256C148.41 42.3795 148.007 42.399 147.403 42.399H147.117V41.944ZM147.117 38.6745H148.677V39.11H147.65V42.1715H147.117V38.6745ZM155.092 38.0505H155.631V43.9395H155.092V38.0505ZM155.501 40.3905H156.593V40.8455H155.501V40.3905ZM151.348 42.074H151.816C152.921 42.074 153.688 42.035 154.578 41.866L154.637 42.3145C153.72 42.477 152.94 42.5225 151.816 42.5225H151.348V42.074ZM151.335 38.603H153.993V40.709H151.881V42.256H151.348V40.267H153.46V39.045H151.335V38.603ZM159.472 40.0005H160.005V40.7935H159.472V40.0005ZM159.745 38.1285C161.039 38.1285 161.812 38.486 161.812 39.1425C161.812 39.799 161.039 40.163 159.745 40.163C158.445 40.163 157.678 39.799 157.678 39.1425C157.678 38.486 158.445 38.1285 159.745 38.1285ZM159.745 38.538C158.783 38.538 158.231 38.759 158.231 39.1425C158.231 39.5325 158.783 39.7535 159.745 39.7535C160.701 39.7535 161.253 39.5325 161.253 39.1425C161.253 38.759 160.701 38.538 159.745 38.538ZM157.087 40.5985H162.397V41.0405H157.087V40.5985ZM157.73 41.5215H161.721V42.854H158.276V43.569H157.743V42.4575H161.188V41.944H157.73V41.5215ZM157.743 43.4455H161.897V43.868H157.743V43.4455ZM167.273 38.265H167.748V38.59C167.748 39.7145 166.604 40.5205 165.382 40.7285L165.167 40.293C166.24 40.1305 167.273 39.4285 167.273 38.59V38.265ZM167.371 38.265H167.839V38.59C167.839 39.409 168.885 40.1305 169.945 40.293L169.73 40.7285C168.521 40.5205 167.371 39.7015 167.371 38.59V38.265ZM167.273 41.697H167.806V43.933H167.273V41.697ZM164.901 41.3655H170.211V41.814H164.901V41.3655ZM173.378 41.502H173.885V42.2365H174.912V41.502H175.412V43.855H173.378V41.502ZM173.885 42.6395V43.4325H174.912V42.6395H173.885ZM176.55 41.4695H176.966V41.957C176.966 42.7565 176.563 43.5625 175.75 43.907L175.477 43.4975C176.186 43.1985 176.55 42.555 176.55 41.957V41.4695ZM176.66 41.4695H177.076V41.957C177.076 42.5875 177.44 43.2245 178.149 43.4975L177.876 43.907C177.057 43.569 176.66 42.789 176.66 41.957V41.4695ZM175.659 39.435H177.239V39.8835H175.659V39.435ZM174.307 38.317C175.185 38.317 175.822 38.863 175.822 39.669C175.822 40.4685 175.185 41.021 174.307 41.021C173.43 41.021 172.793 40.4685 172.793 39.669C172.793 38.863 173.43 38.317 174.307 38.317ZM174.307 38.7655C173.729 38.7655 173.313 39.136 173.313 39.669C173.313 40.1955 173.729 40.5725 174.307 40.5725C174.886 40.5725 175.302 40.1955 175.302 39.669C175.302 39.136 174.886 38.7655 174.307 38.7655ZM176.998 38.057H177.538V41.1705H176.998V38.057ZM179.403 39.8185H183.394V40.2605H179.403V39.8185ZM178.681 41.047H184.011V41.489H178.681V41.047ZM179.403 38.2715H179.936V40.0395H179.403V38.2715ZM179.364 43.348H183.426V43.79H179.364V43.348ZM179.364 42.074H179.897V43.465H179.364V42.074ZM186.937 43.426H186.337L188.073 38.6988H188.663L190.399 43.426H189.799L188.386 39.4466H188.35L186.937 43.426ZM187.158 41.5794H189.577V42.0872H187.158V41.5794ZM192.733 38.4772L191.209 44.137H190.711L192.234 38.4772H192.733ZM196.038 39.8806C196.01 39.6467 195.898 39.4651 195.701 39.3358C195.504 39.2066 195.262 39.1419 194.976 39.1419C194.767 39.1419 194.583 39.1758 194.427 39.2435C194.271 39.3112 194.15 39.4043 194.062 39.5228C193.976 39.6413 193.933 39.7759 193.933 39.9267C193.933 40.0529 193.963 40.1614 194.023 40.2522C194.084 40.3414 194.163 40.4161 194.258 40.4761C194.353 40.5346 194.453 40.583 194.558 40.6215C194.663 40.6584 194.759 40.6885 194.847 40.7115L195.327 40.8408C195.45 40.8731 195.587 40.9177 195.738 40.9747C195.89 41.0316 196.035 41.1093 196.174 41.2078C196.314 41.3048 196.429 41.4294 196.52 41.5817C196.611 41.7341 196.656 41.9211 196.656 42.1426C196.656 42.3981 196.589 42.6289 196.455 42.8351C196.323 43.0413 196.129 43.2052 195.874 43.3268C195.62 43.4483 195.311 43.5091 194.948 43.5091C194.61 43.5091 194.316 43.4545 194.069 43.3452C193.823 43.236 193.629 43.0836 193.487 42.8882C193.347 42.6928 193.268 42.4658 193.249 42.2073H193.84C193.856 42.3858 193.916 42.5335 194.02 42.6505C194.126 42.7659 194.26 42.852 194.422 42.909C194.585 42.9644 194.76 42.9921 194.948 42.9921C195.167 42.9921 195.363 42.9567 195.537 42.8859C195.711 42.8136 195.848 42.7135 195.95 42.5858C196.052 42.4566 196.102 42.3058 196.102 42.1334C196.102 41.9765 196.058 41.8487 195.971 41.7502C195.883 41.6518 195.768 41.5717 195.625 41.5102C195.481 41.4486 195.327 41.3948 195.161 41.3486L194.579 41.1824C194.21 41.0762 193.917 40.9247 193.702 40.7277C193.486 40.5307 193.379 40.273 193.379 39.9544C193.379 39.6898 193.45 39.4589 193.593 39.262C193.738 39.0635 193.932 38.9096 194.175 38.8003C194.42 38.6895 194.693 38.6341 194.994 38.6341C195.299 38.6341 195.57 38.6888 195.807 38.798C196.044 38.9057 196.232 39.0535 196.37 39.2412C196.51 39.4289 196.584 39.6421 196.592 39.8806H196.038Z" fill="white"/>
<path d="M88.5848 38.905H85.5848V44.415H91.1849V41.2319" stroke="white"/>
<path d="M86.5042 40.4949L88.3412 42.637L92.2279 37.9241" stroke="white"/>
<path d="M91.799 19.293H93.196V29.479H91.799V19.293ZM87.927 23.011H90.292V24.188H87.927V23.011ZM89.698 19.469H91.062V29.028H89.698V19.469ZM84.737 26.014H85.441C86.882 26.014 87.839 25.981 88.961 25.761L89.071 26.949C87.938 27.18 86.926 27.224 85.441 27.224H84.737V26.014ZM84.737 20.437H88.62V21.603H86.178V26.52H84.737V20.437ZM101.544 19.282H103.018V29.501H101.544V19.282ZM97.5291 19.997C99.0691 19.997 100.202 21.405 100.202 23.627C100.202 25.871 99.0691 27.279 97.5291 27.279C95.9891 27.279 94.8561 25.871 94.8561 23.627C94.8561 21.405 95.9891 19.997 97.5291 19.997ZM97.5291 21.328C96.7701 21.328 96.2531 22.131 96.2531 23.627C96.2531 25.145 96.7701 25.959 97.5291 25.959C98.2881 25.959 98.7941 25.145 98.7941 23.627C98.7941 22.131 98.2881 21.328 97.5291 21.328ZM111.773 19.282H113.225V29.501H111.773V19.282ZM110.024 22.868H111.938V24.056H110.024V22.868ZM105.14 26.014H105.954C107.637 26.014 108.891 25.992 110.332 25.761L110.464 26.927C108.99 27.158 107.67 27.202 105.954 27.202H105.14V26.014ZM105.14 20.14H109.859V21.328H106.592V26.388H105.14V20.14ZM106.262 22.978H109.507V24.122H106.262V22.978ZM121.083 19.876H122.612C122.612 22.56 120.962 24.408 117.981 25.222L117.409 24.089C119.851 23.429 121.083 22.131 121.083 20.569V19.876ZM117.97 19.876H122.095V21.031H117.97V19.876ZM118.927 25.618H125.868V29.446H124.405V26.773H118.927V25.618ZM124.405 19.293H125.868V25.211H124.405V19.293ZM122.711 21.768H124.669V22.956H122.711V21.768ZM132.984 21.757H134.92V22.945H132.984V21.757ZM134.524 19.293H135.987V25.343H134.524V19.293ZM132.533 25.563C134.689 25.563 136.02 26.3 136.02 27.532C136.02 28.775 134.689 29.49 132.533 29.49C130.377 29.49 129.046 28.775 129.046 27.532C129.046 26.3 130.377 25.563 132.533 25.563ZM132.533 26.674C131.213 26.674 130.509 26.949 130.509 27.532C130.509 28.104 131.213 28.379 132.533 28.379C133.864 28.379 134.568 28.104 134.568 27.532C134.568 26.949 133.864 26.674 132.533 26.674ZM129.816 20.316H131.004V20.954C131.004 22.901 130.102 24.683 128.155 25.343L127.407 24.188C129.09 23.616 129.816 22.263 129.816 20.954V20.316ZM130.124 20.316H131.301V20.954C131.301 22.153 131.994 23.396 133.6 23.935L132.885 25.09C130.993 24.463 130.124 22.769 130.124 20.954V20.316ZM127.803 19.909H133.281V21.075H127.803V19.909ZM138.704 25.255H140.057V26.256H141.069V25.255H142.422V29.369H138.704V25.255ZM140.057 27.312V28.269H141.069V27.312H140.057ZM143.995 25.178H145.106V25.937C145.106 27.433 144.501 28.885 142.994 29.468L142.279 28.379C143.5 27.873 143.995 26.894 143.995 25.937V25.178ZM144.336 25.178H145.447V25.937C145.447 26.993 145.931 27.961 147.174 28.379L146.448 29.468C144.908 28.918 144.336 27.543 144.336 25.937V25.178ZM142.73 21.471H145.282V22.659H142.73V21.471ZM140.398 19.678C141.927 19.678 143.082 20.668 143.082 22.076C143.082 23.484 141.927 24.485 140.398 24.485C138.858 24.485 137.703 23.484 137.703 22.076C137.703 20.668 138.858 19.678 140.398 19.678ZM140.398 20.877C139.65 20.877 139.1 21.328 139.1 22.076C139.1 22.824 139.65 23.286 140.398 23.286C141.146 23.286 141.685 22.824 141.685 22.076C141.685 21.328 141.146 20.877 140.398 20.877ZM144.644 19.293H146.107V24.683H144.644V19.293ZM148.845 22.043H155.907V23.198H148.845V22.043ZM147.701 24.254H156.93V25.42H147.701V24.254ZM148.845 19.656H150.297V22.615H148.845V19.656ZM148.746 28.093H155.962V29.259H148.746V28.093ZM148.746 26.234H150.209V28.401H148.746V26.234ZM159.853 27.4062L159.81 27.8359C159.776 28.1797 159.711 28.5221 159.614 28.8633C159.521 29.207 159.422 29.5182 159.317 29.7969C159.216 30.0755 159.134 30.2943 159.071 30.4531H157.993C158.032 30.2995 158.086 30.0846 158.153 29.8086C158.221 29.5352 158.285 29.2279 158.345 28.8867C158.405 28.5456 158.442 28.1979 158.458 27.8437L158.478 27.4062H159.853ZM163.868 25.536H164.882C166.91 25.536 168.457 25.51 170.251 25.224L170.407 26.602C168.587 26.888 166.949 26.94 164.882 26.94H163.868V25.536ZM163.868 18.62H169.523V20.024H165.61V25.991H163.868V18.62ZM165.194 21.961H169.354V23.313H165.194V21.961ZM171.096 17.619H172.838V29.657H171.096V17.619ZM172.448 22.182H174.58V23.612H172.448V22.182ZM175.957 18.698H181.742V26.797H175.957V18.698ZM180.052 20.05H177.66V25.432H180.052V20.05ZM183.614 17.606H185.356V29.683H183.614V17.606ZM191.79 18.308H193.298V19.179C193.298 21.792 191.439 24.106 188.319 24.717L187.578 23.287C190.295 22.819 191.79 20.908 191.79 19.179V18.308ZM192.141 18.308H193.636V19.179C193.636 20.947 195.118 22.819 197.848 23.287L197.107 24.717C193.987 24.106 192.141 21.831 192.141 19.179V18.308ZM187.331 26.784H198.225V28.188H187.331V26.784ZM210.983 17.619H212.634V29.657H210.983V17.619ZM209.423 22.208H211.412V23.599H209.423V22.208ZM206.017 19.01H207.655C207.655 22.468 206.81 25.263 203.222 27.356L202.26 26.134C205.224 24.418 206.017 22.312 206.017 19.322V19.01ZM202.975 19.01H206.563V20.401H202.975V19.01ZM208.331 17.879H209.943V29.137H208.331V17.879ZM206.043 21.727V23.001L202.546 23.378L202.351 21.922L206.043 21.727ZM223.228 22.169H225.347V23.586H223.228V22.169ZM221.941 17.606H223.683V29.644H221.941V17.606ZM214.609 18.763H216.338V26.238H214.609V18.763ZM214.609 25.276H215.649C217.365 25.276 219.224 25.159 221.161 24.769L221.343 26.186C219.354 26.602 217.417 26.706 215.649 26.706H214.609V25.276ZM233.9 17.606H235.642V29.683H233.9V17.606ZM235.252 22.065H237.384V23.482H235.252V22.065ZM226.672 25.354H227.686C229.714 25.354 231.313 25.289 233.081 24.977L233.25 26.407C231.43 26.732 229.779 26.784 227.686 26.784H226.672V25.354ZM226.672 18.724H232.288V20.115H228.388V26.043H226.672V18.724ZM240.62 25.224H242.388V29.657H240.62V25.224ZM244.78 25.224H246.548V29.657H244.78V25.224ZM238.163 24.314H249.07V25.705H238.163V24.314ZM243.584 18.022C246.158 18.022 247.939 19.075 247.939 20.726C247.939 22.351 246.158 23.404 243.584 23.404C241.023 23.404 239.242 22.351 239.242 20.726C239.242 19.075 241.023 18.022 243.584 18.022ZM243.584 19.4C242.011 19.4 241.01 19.868 241.01 20.726C241.01 21.571 242.011 22.039 243.584 22.039C245.17 22.039 246.158 21.571 246.158 20.726C246.158 19.868 245.17 19.4 243.584 19.4ZM258.39 17.632H260.132V24.418H258.39V17.632ZM252.124 24.977H260.132V29.527H252.124V24.977ZM258.429 26.329H253.814V28.162H258.429V26.329ZM252.943 18.061H254.373V19.218C254.373 21.454 253.255 23.482 250.902 24.223L250.07 22.858C252.085 22.234 252.943 20.7 252.943 19.218V18.061ZM253.294 18.061H254.711V19.218C254.711 20.674 255.556 22.078 257.506 22.663L256.674 24.002C254.373 23.313 253.294 21.428 253.294 19.218V18.061Z" fill="white"/>
<path d="M113.25 23.5C113.802 23.5 114.25 23.0523 114.25 22.5C114.25 21.9477 113.802 21.5 113.25 21.5C112.698 21.5 112.25 21.9477 112.25 22.5C112.25 23.0523 112.698 23.5 113.25 23.5Z" fill="white"/>
</g>
</g>
<defs>
<clipPath id="clip0_33_103">
<rect width="345" height="47" fill="white" transform="translate(0.5 0.5)"/>
</clipPath>
</defs>
</svg>
