<svg width="346" height="48" viewBox="0 0 346 48" fill="none" xmlns="http://www.w3.org/2000/svg">
<mask id="mask0_72_61" style="mask-type:luminance" maskUnits="userSpaceOnUse" x="0" y="0" width="346" height="48">
<path d="M345.5 0.5H0.5V47.5H345.5V0.5Z" fill="white"/>
</mask>
<g mask="url(#mask0_72_61)">
<mask id="mask1_72_61" style="mask-type:luminance" maskUnits="userSpaceOnUse" x="0" y="0" width="346" height="48">
<path d="M345.5 0.5H0.5V47.5H345.5V0.5Z" fill="white"/>
</mask>
<g mask="url(#mask1_72_61)">
<path d="M115.054 6.23794H116.223V6.72794H115.054V6.23794ZM114.627 3.71094H115.215V10.0459H114.627V3.71094ZM110.595 4.33394H111.176V8.25394H110.595V4.33394ZM110.595 7.95294H111.099C112.037 7.95294 112.996 7.88994 114.039 7.67294L114.109 8.15594C113.031 8.37994 112.058 8.44294 111.099 8.44294H110.595V7.95294ZM121.381 3.71094H121.962V10.0529H121.381V3.71094ZM118.623 4.20094C119.561 4.20094 120.233 5.06194 120.233 6.40594C120.233 7.75694 119.561 8.61794 118.623 8.61794C117.692 8.61794 117.02 7.75694 117.02 6.40594C117.02 5.06194 117.692 4.20094 118.623 4.20094ZM118.623 4.72594C118.007 4.72594 117.573 5.38394 117.573 6.40594C117.573 7.43494 118.007 8.10694 118.623 8.10694C119.246 8.10694 119.673 7.43494 119.673 6.40594C119.673 5.38394 119.246 4.72594 118.623 4.72594ZM124.909 4.20094C125.84 4.20094 126.498 5.06194 126.498 6.40594C126.498 7.75694 125.84 8.61794 124.909 8.61794C123.978 8.61794 123.32 7.75694 123.32 6.40594C123.32 5.06194 123.978 4.20094 124.909 4.20094ZM124.909 4.72594C124.293 4.72594 123.873 5.38394 123.873 6.40594C123.873 7.43494 124.293 8.10694 124.909 8.10694C125.518 8.10694 125.945 7.43494 125.945 6.40594C125.945 5.38394 125.518 4.72594 124.909 4.72594ZM127.506 3.71794H128.094V10.0459H127.506V3.71794ZM127.954 6.24494H129.13V6.73494H127.954V6.24494ZM133.945 3.71094H134.533V10.0459H133.945V3.71094ZM134.372 6.27994H135.541V6.76294H134.372V6.27994ZM132.328 4.39694H132.895C132.895 6.19594 132.069 7.81994 130.025 8.84894L129.703 8.40094C131.453 7.51194 132.328 6.16094 132.328 4.48794V4.39694ZM129.997 4.39694H132.629V4.87294H129.997V4.39694ZM140.392 3.71094H140.973V10.0529H140.392V3.71094ZM140.833 6.23094H142.009V6.72094H140.833V6.23094ZM136.36 8.04394H136.864C138.054 8.04394 138.88 8.00194 139.839 7.81994L139.902 8.30294C138.915 8.47794 138.075 8.52694 136.864 8.52694H136.36V8.04394ZM136.346 4.30594H139.209V6.57394H136.934V8.23994H136.36V6.09794H138.635V4.78194H136.346V4.30594ZM147.365 5.12494H149.276V5.60794H147.365V5.12494ZM147.365 7.12694H149.276V7.60994H147.365V7.12694ZM146.203 4.20094C147.12 4.20094 147.778 5.06194 147.778 6.40594C147.778 7.75694 147.12 8.61794 146.203 8.61794C145.279 8.61794 144.628 7.75694 144.628 6.40594C144.628 5.06194 145.279 4.20094 146.203 4.20094ZM146.203 4.72594C145.594 4.72594 145.174 5.38394 145.174 6.40594C145.174 7.43494 145.594 8.10694 146.203 8.10694C146.812 8.10694 147.232 7.43494 147.232 6.40594C147.232 5.38394 146.812 4.72594 146.203 4.72594ZM149.15 3.71094H149.724V10.0529H149.15V3.71094ZM155.729 3.71794H156.282V7.72194H155.729V3.71794ZM154.7 5.43294H155.897V5.91594H154.7V5.43294ZM154.378 3.84394H154.924V7.49794H154.378V3.84394ZM150.92 4.47394H154.126V4.93594H150.92V4.47394ZM152.53 5.25794C153.321 5.25794 153.874 5.69194 153.874 6.34294C153.874 7.00094 153.321 7.42794 152.53 7.42794C151.732 7.42794 151.179 7.00094 151.179 6.34294C151.179 5.69194 151.732 5.25794 152.53 5.25794ZM152.53 5.69194C152.033 5.69194 151.697 5.95094 151.697 6.34294C151.697 6.74194 152.033 6.99394 152.53 6.99394C153.02 6.99394 153.356 6.74194 153.356 6.34294C153.356 5.95094 153.02 5.69194 152.53 5.69194ZM152.243 3.76694H152.81V4.73294H152.243V3.76694ZM154.21 7.83394C155.526 7.83394 156.317 8.22594 156.317 8.93294C156.317 9.63294 155.526 10.0319 154.21 10.0319C152.88 10.0319 152.096 9.63294 152.096 8.93294C152.096 8.22594 152.88 7.83394 154.21 7.83394ZM154.21 8.28194C153.237 8.28194 152.67 8.51294 152.67 8.93294C152.67 9.35294 153.237 9.59094 154.21 9.59094C155.169 9.59094 155.743 9.35294 155.743 8.93294C155.743 8.51294 155.169 8.28194 154.21 8.28194ZM160.251 3.82294C161.644 3.82294 162.477 4.21494 162.477 4.92194C162.477 5.62894 161.644 6.02094 160.251 6.02094C158.851 6.02094 158.025 5.62894 158.025 4.92194C158.025 4.21494 158.851 3.82294 160.251 3.82294ZM160.251 4.26394C159.215 4.26394 158.62 4.50194 158.62 4.92194C158.62 5.34194 159.215 5.57994 160.251 5.57994C161.28 5.57994 161.875 5.34194 161.875 4.92194C161.875 4.50194 161.28 4.26394 160.251 4.26394ZM157.388 6.44094H163.107V6.90994H157.388V6.44094ZM158.081 7.44894H162.379V8.87694H158.669V9.64694H158.095V8.45694H161.805V7.89694H158.081V7.44894ZM158.095 9.52094H162.568V9.97594H158.095V9.52094ZM166.118 8.00194H166.601C167.777 8.00194 168.533 7.97394 169.415 7.80594L169.478 8.28194C168.568 8.44994 167.805 8.49194 166.601 8.49194H166.118V8.00194ZM166.118 4.31994H168.995V4.79594H166.692V8.18394H166.118V4.31994ZM170.437 3.71794H171.018V10.0599H170.437V3.71794ZM168.624 6.00694H170.675V6.48994H168.624V6.00694ZM174.805 7.07794H175.379V8.16994H174.805V7.07794ZM172.236 6.79094H177.955V7.26694H172.236V6.79094ZM172.873 8.00894H177.248V10.0459H176.667V8.47794H172.873V8.00894ZM175.099 3.86494C176.464 3.86494 177.325 4.31994 177.325 5.08294C177.325 5.84594 176.464 6.30094 175.099 6.30094C173.727 6.30094 172.873 5.84594 172.873 5.08294C172.873 4.31994 173.727 3.86494 175.099 3.86494ZM175.099 4.32694C174.091 4.32694 173.468 4.60694 173.468 5.08294C173.468 5.56594 174.091 5.83894 175.099 5.83894C176.1 5.83894 176.73 5.56594 176.73 5.08294C176.73 4.60694 176.1 4.32694 175.099 4.32694ZM185.488 3.71794H186.041V10.0459H185.488V3.71794ZM184.487 6.26594H185.705V6.75594H184.487V6.26594ZM184.109 3.85094H184.655V9.73094H184.109V3.85094ZM181.953 4.69794H182.408V5.42594C182.408 6.94494 181.911 8.16294 180.938 8.74394L180.581 8.29594C181.491 7.79194 181.953 6.71394 181.953 5.42594V4.69794ZM182.058 4.69794H182.513V5.42594C182.513 6.58794 182.982 7.61694 183.871 8.07194L183.528 8.51994C182.562 7.98794 182.058 6.81894 182.058 5.42594V4.69794ZM180.728 4.45994H183.668V4.94294H180.728V4.45994ZM188.665 7.56094H189.113V7.96694C189.113 8.79294 188.595 9.62594 187.685 9.97594L187.391 9.54194C188.189 9.25494 188.665 8.57594 188.665 7.96694V7.56094ZM188.791 7.56094H189.225V7.96694C189.225 8.60394 189.603 9.28294 190.359 9.59094L190.114 10.0319C189.204 9.67494 188.791 8.80694 188.791 7.96694V7.56094ZM191.003 7.56094H191.437V7.96694C191.437 8.70894 191.017 9.64694 190.114 10.0319L189.869 9.59094C190.618 9.24794 191.003 8.51294 191.003 7.96694V7.56094ZM191.122 7.56094H191.57V7.96694C191.57 8.61794 192.039 9.26894 192.844 9.54194L192.55 9.97594C191.626 9.63994 191.122 8.84194 191.122 7.96694V7.56094ZM187.419 4.13094H190.366V6.88894H187.419V4.13094ZM189.806 4.59994H187.979V6.41994H189.806V4.59994ZM191.689 3.72494H192.277V7.35094H191.689V3.72494ZM198.346 3.71794H198.906V10.0459H198.346V3.71794ZM195.602 6.30094H197.198V6.76994H195.602V6.30094ZM197.03 3.87894H197.576V9.72394H197.03V3.87894ZM195.679 4.51594H196.239C196.239 6.17494 195.574 7.66594 193.866 8.68094L193.523 8.26794C195.014 7.37194 195.679 6.11194 195.679 4.62094V4.51594ZM193.803 4.51594H195.896V4.99194H193.803V4.51594Z" fill="white"/>
<path d="M118.889 43.4259V38.6987H121.742V39.2065H119.462V40.8038H121.595V41.3116H119.462V42.9181H121.779V43.4259H118.889ZM124.732 40.8084V41.3162H122.663V40.8084H124.732ZM125.887 42.0739H126.355C127.454 42.0739 128.221 42.0414 129.124 41.8919L129.176 42.3274C128.253 42.4899 127.473 42.5224 126.355 42.5224H125.887V42.0739ZM125.887 38.5899H128.734V39.0384H126.42V42.2299H125.887V38.5899ZM126.29 40.2344H128.52V40.6699H126.29V40.2344ZM129.794 38.0569H130.333V43.9329H129.794V38.0569ZM133.635 39.7794H134.928V40.2149H133.635V39.7794ZM135.955 38.0569H136.469V42.0479H135.955V38.0569ZM134.792 38.1609H135.305V41.5214H134.792V38.1609ZM134.233 41.7034H134.694V41.8919C134.694 42.9449 133.622 43.7054 132.439 43.9134L132.231 43.4844C133.271 43.3219 134.233 42.6719 134.233 41.8919V41.7034ZM134.304 41.7034H134.772V41.8919C134.772 42.6719 135.741 43.3219 136.774 43.4844L136.566 43.9134C135.383 43.7054 134.304 42.9449 134.304 41.8919V41.7034ZM133.57 38.5509H134.096C134.096 39.9939 133.466 41.1509 131.808 41.8724L131.542 41.4759C133.011 40.8519 133.57 39.8899 133.57 38.6939V38.5509ZM131.815 38.5509H133.758V38.9929H131.815V38.5509ZM133.518 39.6559V40.0329L131.626 40.2344L131.542 39.7859L133.518 39.6559ZM140.127 38.4274C141.349 38.4274 142.259 39.0774 142.259 40.0524C142.259 41.0339 141.349 41.6774 140.127 41.6774C138.905 41.6774 137.989 41.0339 137.989 40.0524C137.989 39.0774 138.905 38.4274 140.127 38.4274ZM140.127 38.8694C139.198 38.8694 138.509 39.3439 138.509 40.0524C138.509 40.7544 139.198 41.2354 140.127 41.2354C141.057 41.2354 141.746 40.7544 141.746 40.0524C141.746 39.3439 141.057 38.8694 140.127 38.8694ZM137.475 42.7044H142.799V43.1594H137.475V42.7044ZM143.455 42.7629H148.778V43.2114H143.455V42.7629ZM145.834 41.5019H146.373V42.9514H145.834V41.5019ZM144.098 38.4924H148.122V40.2734H144.651V41.4499H144.118V39.8379H147.589V38.9279H144.098V38.4924ZM144.118 41.2224H148.258V41.6644H144.118V41.2224ZM155.553 38.0569H156.092V42.4314H155.553V38.0569ZM151.432 38.5314H154.526V38.9734H151.432V38.5314ZM151.334 41.5474L151.276 41.0859C152.238 41.0859 153.609 41.0729 154.708 40.9429L154.74 41.3459C153.609 41.5279 152.29 41.5474 151.334 41.5474ZM152.017 38.9084H152.537V41.1639H152.017V38.9084ZM153.421 38.9084H153.941V41.1639H153.421V38.9084ZM154.578 39.1684H155.839V39.6104H154.578V39.1684ZM154.578 40.2929H155.839V40.7349H154.578V40.2929ZM152.335 43.3609H156.248V43.8029H152.335V43.3609ZM152.335 42.0739H152.875V43.6404H152.335V42.0739ZM161.259 38.0634H161.799V42.4704H161.259V38.0634ZM161.63 39.9874H162.67V40.4424H161.63V39.9874ZM157.255 38.7719H160.726V39.2074H157.255V38.7719ZM158.991 39.5324C159.823 39.5324 160.395 39.9679 160.395 40.6309C160.395 41.2874 159.823 41.7229 158.991 41.7229C158.152 41.7229 157.58 41.2874 157.58 40.6309C157.58 39.9679 158.152 39.5324 158.991 39.5324ZM158.991 39.9549C158.458 39.9549 158.094 40.2214 158.094 40.6309C158.094 41.0339 158.458 41.3004 158.991 41.3004C159.517 41.3004 159.881 41.0339 159.881 40.6309C159.881 40.2214 159.517 39.9549 158.991 39.9549ZM158.718 38.0569H159.257V38.9994H158.718V38.0569ZM158.139 43.3609H162.065V43.8029H158.139V43.3609ZM158.139 42.1194H158.679V43.5494H158.139V42.1194ZM165.316 40.6829H165.765C166.941 40.6829 167.598 40.6634 168.384 40.5204L168.443 40.9559C167.637 41.0989 166.961 41.1249 165.765 41.1249H165.316V40.6829ZM165.316 38.3754H168.001V38.8174H165.849V40.8974H165.316V38.3754ZM165.68 39.5194H167.89V39.9484H165.68V39.5194ZM169.067 38.0569H169.606V41.3199H169.067V38.0569ZM169.457 39.4349H170.477V39.8834H169.457V39.4349ZM165.901 41.5799H166.434V42.2689H169.073V41.5799H169.606V43.8549H165.901V41.5799ZM166.434 42.6979V43.4129H169.073V42.6979H166.434ZM173.408 38.1544H173.87V38.4144C173.87 39.4544 172.739 40.2019 171.536 40.3969L171.335 39.9679C172.388 39.8249 173.408 39.1749 173.408 38.4144V38.1544ZM173.493 38.1544H173.954V38.4144C173.954 39.1619 174.988 39.8249 176.028 39.9679L175.826 40.3969C174.63 40.2019 173.493 39.4349 173.493 38.4144V38.1544ZM171.023 40.8584H176.333V41.3004H171.023V40.8584ZM173.675 41.8399C174.936 41.8399 175.69 42.2169 175.69 42.8799C175.69 43.5559 174.936 43.9264 173.675 43.9264C172.414 43.9264 171.66 43.5559 171.66 42.8799C171.66 42.2169 172.414 41.8399 173.675 41.8399ZM173.675 42.2559C172.758 42.2559 172.206 42.4899 172.206 42.8799C172.206 43.2829 172.758 43.5104 173.675 43.5104C174.598 43.5104 175.144 43.2829 175.144 42.8799C175.144 42.4899 174.598 42.2559 173.675 42.2559Z" fill="white"/>
<path d="M113.585 38.905H110.585V44.415H116.185V41.2319" stroke="white"/>
<path d="M111.504 40.4949L113.341 42.637L117.228 37.9241" stroke="white"/>
<path d="M115.968 18.7259H118.776V20.1169H115.968V18.7259ZM117.866 15.6319H119.595V24.4069H117.866V15.6319ZM111.652 26.0709H119.868V27.4489H111.652V26.0709ZM111.652 23.6659H113.381V26.8899H111.652V23.6659ZM112.302 17.2049H113.706V17.9589C113.706 20.2209 112.64 22.3139 110.326 23.0809L109.455 21.7029C111.444 21.0529 112.302 19.4799 112.302 17.9589V17.2049ZM112.666 17.2049H114.057V17.9589C114.057 19.3629 114.876 20.8579 116.774 21.4949L115.929 22.8469C113.693 22.1059 112.666 20.1039 112.666 17.9589V17.2049ZM109.923 16.4379H116.397V17.8029H109.923V16.4379ZM121.83 16.4769H127.563V21.8719H121.83V16.4769ZM125.86 17.8419H123.533V20.5069H125.86V17.8419ZM129.227 15.6189H130.956V22.5999H129.227V15.6189ZM130.475 18.3099H132.555V19.7269H130.475V18.3099ZM127.03 22.9119C129.513 22.9119 131.099 23.8089 131.099 25.2909C131.099 26.7859 129.513 27.6699 127.03 27.6699C124.534 27.6699 122.948 26.7859 122.948 25.2909C122.948 23.8089 124.534 22.9119 127.03 22.9119ZM127.03 24.2769C125.496 24.2769 124.664 24.6019 124.664 25.2909C124.664 25.9929 125.496 26.3179 127.03 26.3179C128.564 26.3179 129.383 25.9929 129.383 25.2909C129.383 24.6019 128.564 24.2769 127.03 24.2769ZM142.135 15.6189H143.773V27.6569H142.135V15.6189ZM140.523 20.2469H142.525V21.6379H140.523V20.2469ZM139.444 15.8269H141.043V27.0849H139.444V15.8269ZM133.776 23.5229H134.621C136.103 23.5229 137.338 23.4709 138.768 23.2109L138.898 24.6149C137.442 24.9009 136.168 24.9399 134.621 24.9399H133.776V23.5229ZM133.776 17.0099H138.222V18.4009H135.492V24.1989H133.776V17.0099ZM147.35 25.4061L147.307 25.8358C147.273 26.1796 147.208 26.522 147.111 26.8632C147.018 27.2069 146.919 27.5181 146.814 27.7968C146.713 28.0754 146.631 28.2942 146.568 28.453H145.49C145.529 28.2994 145.583 28.0845 145.65 27.8085C145.718 27.5351 145.782 27.2278 145.842 26.8866C145.902 26.5455 145.939 26.1978 145.955 25.8436L145.975 25.4061H147.35ZM149.26 16.4899H154.408V17.8809H149.26V16.4899ZM150.742 19.2979H152.458V22.3139H150.742V19.2979ZM153.732 16.4899H155.435V17.2439C155.435 18.0889 155.435 19.2849 155.149 20.7799L153.472 20.5979C153.732 19.1159 153.732 18.0759 153.732 17.2439V16.4899ZM156.605 15.6189H158.347V24.6279H156.605V15.6189ZM157.658 19.2849H159.777V20.7019H157.658V19.2849ZM150.313 26.0709H158.724V27.4489H150.313V26.0709ZM150.313 23.8219H152.042V26.4999H150.313V23.8219ZM148.714 23.0159L148.558 21.6509C150.638 21.6509 153.537 21.6119 155.955 21.2739L156.059 22.4959C153.576 22.9639 150.781 23.0159 148.714 23.0159ZM168.434 15.6319H170.163V22.7689H168.434V15.6319ZM169.669 18.4529H171.762V19.8829H169.669V18.4529ZM162.324 23.2889H170.163V27.5269H162.324V23.2889ZM168.473 24.6409H164.027V26.1619H168.473V24.6409ZM161.115 20.9489H162.129C164.495 20.9489 165.951 20.9099 167.615 20.5979L167.771 21.9629C166.081 22.2879 164.56 22.3529 162.129 22.3529H161.115V20.9489ZM161.102 16.2169H166.601V19.8829H162.831V21.7159H161.115V18.5959H164.898V17.5949H161.102V16.2169ZM175.284 18.7389H176.623V19.3629C176.623 21.8979 175.544 24.4589 173.36 25.4339L172.424 24.1079C174.387 23.2109 175.284 21.1699 175.284 19.3629V18.7389ZM175.661 18.7389H177V19.3629C177 21.0789 177.845 23.0029 179.73 23.9129L178.807 25.2259C176.688 24.2509 175.661 21.7809 175.661 19.3629V18.7389ZM172.84 17.5819H179.392V18.9469H172.84V17.5819ZM175.271 15.8919H177V18.2839H175.271V15.8919ZM180.341 15.6189H182.083V27.6569H180.341V15.6189ZM181.693 20.2859H183.825V21.7159H181.693V20.2859ZM185.602 21.8359H192.763V23.0019H185.602V21.8359ZM184.535 25.1359H193.753V26.3349H184.535V25.1359ZM188.396 22.3639H189.859V25.5209H188.396V22.3639ZM185.602 17.9859H192.686V19.1629H187.065V22.3419H185.602V17.9859ZM197.585 23.9919H198.443C200.159 23.9919 201.468 23.9699 202.986 23.7279L203.118 24.8939C201.578 25.1359 200.192 25.1799 198.443 25.1799H197.585V23.9919ZM197.585 18.1399H202.37V19.3279H199.059V24.3769H197.585V18.1399ZM198.707 20.9669H202.227V22.1109H198.707V20.9669ZM203.701 17.2929H205.175V27.4789H203.701V17.2929ZM204.845 21.1539H206.649V22.3639H204.845V21.1539ZM207.814 18.2059H212.709V25.0589H207.814V18.2059ZM211.279 19.3499H209.255V23.9039H211.279V19.3499ZM214.293 17.2819H215.767V27.5009H214.293V17.2819ZM221.211 17.8759H222.487V18.6129C222.487 20.8239 220.914 22.7819 218.274 23.2989L217.647 22.0889C219.946 21.6929 221.211 20.0759 221.211 18.6129V17.8759ZM221.508 17.8759H222.773V18.6129C222.773 20.1089 224.027 21.6929 226.337 22.0889L225.71 23.2989C223.07 22.7819 221.508 20.8569 221.508 18.6129V17.8759ZM217.438 25.0479H226.656V26.2359H217.438V25.0479ZM229.834 22.4519H231.297V24.8609H229.834V22.4519ZM230.549 17.8869C232.122 17.8869 233.321 18.9319 233.321 20.3949C233.321 21.8579 232.122 22.9029 230.549 22.9029C228.965 22.9029 227.777 21.8579 227.777 20.3949C227.777 18.9319 228.965 17.8869 230.549 17.8869ZM230.549 19.1299C229.779 19.1299 229.207 19.5919 229.207 20.3949C229.207 21.1869 229.779 21.6599 230.549 21.6599C231.319 21.6599 231.891 21.1869 231.891 20.3949C231.891 19.5919 231.319 19.1299 230.549 19.1299ZM234.124 17.2929H235.587V27.4789H234.124V17.2929ZM235.136 21.2749H236.929V22.4959H235.136V21.2749ZM227.612 25.4549L227.436 24.2779C229.196 24.2669 231.572 24.2779 233.596 24.0029L233.706 25.0699C231.594 25.4659 229.328 25.4659 227.612 25.4549Z" fill="white"/>
</g>
</g>
</svg>
