<svg width="801" height="110" viewBox="0 0 801 110" fill="none" xmlns="http://www.w3.org/2000/svg">
<g clip-path="url(#clip0_26_62)">
<mask id="mask0_26_62" style="mask-type:luminance" maskUnits="userSpaceOnUse" x="0" y="0" width="801" height="110">
<path d="M800.5 0.5H0.5V109.5H800.5V0.5Z" fill="white"/>
</mask>
<g mask="url(#mask0_26_62)">
<path d="M202.048 38.786H211.336V43.387H202.048V38.786ZM208.326 28.552H214.045V57.577H208.326V28.552ZM187.772 63.081H214.948V67.639H187.772V63.081ZM187.772 55.126H193.491V65.79H187.772V55.126ZM189.922 33.755H194.566V36.249C194.566 43.731 191.04 50.654 183.386 53.191L180.505 48.633C187.084 46.483 189.922 41.28 189.922 36.249V33.755ZM191.126 33.755H195.727V36.249C195.727 40.893 198.436 45.838 204.714 47.945L201.919 52.417C194.523 49.966 191.126 43.344 191.126 36.249V33.755ZM182.053 31.218H203.467V35.733H182.053V31.218ZM221.438 31.347H240.401V49.192H221.438V31.347ZM234.768 35.862H227.071V44.677H234.768V35.862ZM245.905 28.509H251.624V51.6H245.905V28.509ZM250.033 37.41H256.913V42.097H250.033V37.41ZM238.638 52.632C246.851 52.632 252.097 55.599 252.097 60.501C252.097 65.446 246.851 68.37 238.638 68.37C230.382 68.37 225.136 65.446 225.136 60.501C225.136 55.599 230.382 52.632 238.638 52.632ZM238.638 57.147C233.564 57.147 230.812 58.222 230.812 60.501C230.812 62.823 233.564 63.898 238.638 63.898C243.712 63.898 246.421 62.823 246.421 60.501C246.421 58.222 243.712 57.147 238.638 57.147ZM288.6 28.509H294.018V68.327H288.6V28.509ZM283.268 43.817H289.89V48.418H283.268V43.817ZM279.699 29.197H284.988V66.435H279.699V29.197ZM260.951 54.653H263.746C268.648 54.653 272.733 54.481 277.463 53.621L277.893 58.265C273.077 59.211 268.863 59.34 263.746 59.34H260.951V54.653ZM260.951 33.11H275.657V37.711H266.627V56.889H260.951V33.11ZM306.212 60.7216L306.063 62.206C305.946 63.3935 305.722 64.5765 305.389 65.755C305.065 66.9425 304.723 68.0175 304.363 68.9801C304.012 69.9427 303.729 70.6984 303.513 71.2472H299.789C299.923 70.7164 300.108 69.9742 300.342 69.0206C300.576 68.076 300.796 67.0144 301.003 65.8359C301.21 64.6574 301.34 63.4564 301.394 62.233L301.462 60.7216H306.212ZM322.609 31.39H339.637V35.991H322.609V31.39ZM327.511 40.678H333.187V50.654H327.511V40.678ZM337.401 31.39H343.034V33.884C343.034 36.679 343.034 40.635 342.088 45.58L336.541 44.978C337.401 40.076 337.401 36.636 337.401 33.884V31.39ZM346.904 28.509H352.666V58.308H346.904V28.509ZM350.387 40.635H357.396V45.322H350.387V40.635ZM326.092 63.081H353.913V67.639H326.092V63.081ZM326.092 55.642H331.811V64.5H326.092V55.642ZM320.803 52.976L320.287 48.461C327.167 48.461 336.756 48.332 344.754 47.214L345.098 51.256C336.885 52.804 327.64 52.976 320.803 52.976ZM386.031 28.552H391.75V52.159H386.031V28.552ZM390.116 37.883H397.039V42.613H390.116V37.883ZM365.821 53.879H391.75V67.897H365.821V53.879ZM386.16 58.351H371.454V63.382H386.16V58.351ZM361.822 46.139H365.176C373.002 46.139 377.818 46.01 383.322 44.978L383.838 49.493C378.248 50.568 373.217 50.783 365.176 50.783H361.822V46.139ZM361.779 30.487H379.968V42.613H367.498V48.676H361.822V38.356H374.335V35.045H361.779V30.487ZM408.688 38.829H413.117V40.893C413.117 49.278 409.548 57.749 402.324 60.974L399.228 56.588C405.721 53.621 408.688 46.87 408.688 40.893V38.829ZM409.935 38.829H414.364V40.893C414.364 46.569 417.159 52.933 423.394 55.943L420.341 60.286C413.332 57.061 409.935 48.891 409.935 40.893V38.829ZM400.604 35.002H422.276V39.517H400.604V35.002ZM408.645 29.412H414.364V37.324H408.645V29.412ZM425.415 28.509H431.177V68.327H425.415V28.509ZM429.887 43.946H436.939V48.676H429.887V43.946ZM443.04 48.388H467.778V52.416H443.04V48.388ZM439.354 59.788H471.198V63.93H439.354V59.788ZM452.692 50.212H457.746V61.118H452.692V50.212ZM443.04 35.088H467.512V39.154H448.094V50.136H443.04V35.088ZM484.436 55.836H487.4C493.328 55.836 497.85 55.76 503.094 54.924L503.55 58.952C498.23 59.788 493.442 59.94 487.4 59.94H484.436V55.836ZM484.436 35.62H500.966V39.724H489.528V57.166H484.436V35.62ZM488.312 45.386H500.472V49.338H488.312V45.386ZM505.564 32.694H510.656V67.882H505.564V32.694ZM509.516 46.032H515.748V50.212H509.516V46.032ZM519.773 35.848H536.683V59.522H519.773V35.848ZM531.743 39.8H524.751V55.532H531.743V39.8ZM542.155 32.656H547.247V67.958H542.155V32.656ZM566.054 34.708H570.462V37.254C570.462 44.892 565.028 51.656 555.908 53.442L553.742 49.262C561.684 47.894 566.054 42.308 566.054 37.254V34.708ZM567.08 34.708H571.45V37.254C571.45 42.422 575.782 47.894 583.762 49.262L581.596 53.442C572.476 51.656 567.08 45.006 567.08 37.254V34.708ZM553.02 59.484H584.864V63.588H553.02V59.484ZM595.843 50.516H600.897V58.838H595.843V50.516ZM598.313 34.746C603.747 34.746 607.889 38.356 607.889 43.41C607.889 48.464 603.747 52.074 598.313 52.074C592.841 52.074 588.737 48.464 588.737 43.41C588.737 38.356 592.841 34.746 598.313 34.746ZM598.313 39.04C595.653 39.04 593.677 40.636 593.677 43.41C593.677 46.146 595.653 47.78 598.313 47.78C600.973 47.78 602.949 46.146 602.949 43.41C602.949 40.636 600.973 39.04 598.313 39.04ZM610.663 32.694H615.717V67.882H610.663V32.694ZM614.159 46.45H620.353V50.668H614.159V46.45ZM588.167 60.89L587.559 56.824C593.639 56.786 601.847 56.824 608.839 55.874L609.219 59.56C601.923 60.928 594.095 60.928 588.167 60.89Z" fill="white"/>
<path d="M194.523 10.981H198.114V12.486H194.523V10.981ZM193.212 3.2195H195.018V22.677H193.212V3.2195ZM180.828 5.133H182.612V17.173H180.828V5.133ZM180.828 16.2485H182.376C185.257 16.2485 188.202 16.055 191.406 15.3885L191.621 16.872C188.31 17.56 185.321 17.7535 182.376 17.7535H180.828V16.2485ZM213.957 3.2195H215.742V22.6985H213.957V3.2195ZM205.486 4.7245C208.367 4.7245 210.431 7.369 210.431 11.497C210.431 15.6465 208.367 18.291 205.486 18.291C202.627 18.291 200.563 15.6465 200.563 11.497C200.563 7.369 202.627 4.7245 205.486 4.7245ZM205.486 6.337C203.594 6.337 202.261 8.358 202.261 11.497C202.261 14.6575 203.594 16.7215 205.486 16.7215C207.4 16.7215 208.711 14.6575 208.711 11.497C208.711 8.358 207.4 6.337 205.486 6.337ZM224.792 4.7245C227.651 4.7245 229.672 7.369 229.672 11.497C229.672 15.6465 227.651 18.291 224.792 18.291C221.932 18.291 219.911 15.6465 219.911 11.497C219.911 7.369 221.932 4.7245 224.792 4.7245ZM224.792 6.337C222.9 6.337 221.61 8.358 221.61 11.497C221.61 14.6575 222.9 16.7215 224.792 16.7215C226.662 16.7215 227.974 14.6575 227.974 11.497C227.974 8.358 226.662 6.337 224.792 6.337ZM232.768 3.241H234.574V22.677H232.768V3.241ZM234.144 11.0025H237.756V12.5075H234.144V11.0025ZM252.546 3.2195H254.352V22.677H252.546V3.2195ZM253.858 11.11H257.448V12.5935H253.858V11.11ZM247.58 5.3265H249.321C249.321 10.852 246.784 15.84 240.506 19.0005L239.517 17.6245C244.892 14.894 247.58 10.7445 247.58 5.606V5.3265ZM240.42 5.3265H248.504V6.7885H240.42V5.3265ZM272.346 3.2195H274.131V22.6985H272.346V3.2195ZM273.701 10.9595H277.313V12.4645H273.701V10.9595ZM259.962 16.528H261.51C265.165 16.528 267.702 16.399 270.648 15.84L270.841 17.3235C267.81 17.861 265.23 18.0115 261.51 18.0115H259.962V16.528ZM259.919 5.047H268.713V12.013H261.725V17.13H259.962V10.551H266.95V6.509H259.919V5.047ZM293.764 7.5625H299.633V9.046H293.764V7.5625ZM293.764 13.7115H299.633V15.195H293.764V13.7115ZM290.195 4.7245C293.011 4.7245 295.032 7.369 295.032 11.497C295.032 15.6465 293.011 18.291 290.195 18.291C287.357 18.291 285.357 15.6465 285.357 11.497C285.357 7.369 287.357 4.7245 290.195 4.7245ZM290.195 6.337C288.324 6.337 287.034 8.358 287.034 11.497C287.034 14.6575 288.324 16.7215 290.195 16.7215C292.065 16.7215 293.355 14.6575 293.355 11.497C293.355 8.358 292.065 6.337 290.195 6.337ZM299.246 3.2195H301.009V22.6985H299.246V3.2195ZM319.455 3.241H321.153V15.539H319.455V3.241ZM316.294 8.5085H319.971V9.992H316.294V8.5085ZM315.305 3.628H316.982V14.851H315.305V3.628ZM304.684 5.563H314.531V6.982H304.684V5.563ZM309.629 7.971C312.059 7.971 313.757 9.304 313.757 11.3035C313.757 13.3245 312.059 14.636 309.629 14.636C307.178 14.636 305.48 13.3245 305.48 11.3035C305.48 9.304 307.178 7.971 309.629 7.971ZM309.629 9.304C308.103 9.304 307.071 10.0995 307.071 11.3035C307.071 12.529 308.103 13.303 309.629 13.303C311.134 13.303 312.166 12.529 312.166 11.3035C312.166 10.0995 311.134 9.304 309.629 9.304ZM308.748 3.3915H310.489V6.3585H308.748V3.3915ZM314.789 15.883C318.831 15.883 321.261 17.087 321.261 19.2585C321.261 21.4085 318.831 22.634 314.789 22.634C310.704 22.634 308.296 21.4085 308.296 19.2585C308.296 17.087 310.704 15.883 314.789 15.883ZM314.789 17.259C311.801 17.259 310.059 17.9685 310.059 19.2585C310.059 20.5485 311.801 21.2795 314.789 21.2795C317.735 21.2795 319.498 20.5485 319.498 19.2585C319.498 17.9685 317.735 17.259 314.789 17.259ZM333.342 3.5635C337.621 3.5635 340.179 4.7675 340.179 6.939C340.179 9.1105 337.621 10.3145 333.342 10.3145C329.042 10.3145 326.505 9.1105 326.505 6.939C326.505 4.7675 329.042 3.5635 333.342 3.5635ZM333.342 4.918C330.16 4.918 328.333 5.649 328.333 6.939C328.333 8.229 330.16 8.96 333.342 8.96C336.503 8.96 338.33 8.229 338.33 6.939C338.33 5.649 336.503 4.918 333.342 4.918ZM324.549 11.6045H342.114V13.045H324.549V11.6045ZM326.677 14.7005H339.878V19.0865H328.483V21.4515H326.72V17.7965H338.115V16.0765H326.677V14.7005ZM326.72 21.0645H340.459V22.462H326.72V21.0645ZM351.363 16.399H352.846C356.458 16.399 358.78 16.313 361.489 15.797L361.683 17.259C358.888 17.775 356.544 17.904 352.846 17.904H351.363V16.399ZM351.363 5.09H360.199V6.552H353.126V16.958H351.363V5.09ZM364.628 3.241H366.413V22.72H364.628V3.241ZM359.06 10.2715H365.359V11.755H359.06V10.2715ZM378.043 13.561H379.806V16.915H378.043V13.561ZM370.152 12.6795H387.718V14.1415H370.152V12.6795ZM372.109 16.4205H385.546V22.677H383.762V17.861H372.109V16.4205ZM378.946 3.6925C383.138 3.6925 385.783 5.09 385.783 7.4335C385.783 9.777 383.138 11.1745 378.946 11.1745C374.732 11.1745 372.109 9.777 372.109 7.4335C372.109 5.09 374.732 3.6925 378.946 3.6925ZM378.946 5.1115C375.85 5.1115 373.936 5.9715 373.936 7.4335C373.936 8.917 375.85 9.7555 378.946 9.7555C382.02 9.7555 383.955 8.917 383.955 7.4335C383.955 5.9715 382.02 5.1115 378.946 5.1115ZM410.855 3.241H412.554V22.677H410.855V3.241ZM407.781 11.067H411.522V12.572H407.781V11.067ZM406.62 3.6495H408.297V21.7095H406.62V3.6495ZM399.998 6.251H401.395V8.487C401.395 13.1525 399.869 16.8935 396.88 18.678L395.784 17.302C398.579 15.754 399.998 12.443 399.998 8.487V6.251ZM400.32 6.251H401.718V8.487C401.718 12.056 403.158 15.2165 405.889 16.614L404.835 17.99C401.868 16.356 400.32 12.7655 400.32 8.487V6.251ZM396.235 5.52H405.265V7.0035H396.235V5.52ZM420.615 15.0445H421.991V16.2915C421.991 18.8285 420.4 21.387 417.605 22.462L416.702 21.129C419.153 20.2475 420.615 18.162 420.615 16.2915V15.0445ZM421.002 15.0445H422.335V16.2915C422.335 18.248 423.496 20.3335 425.818 21.2795L425.065 22.634C422.27 21.5375 421.002 18.8715 421.002 16.2915V15.0445ZM427.796 15.0445H429.129V16.2915C429.129 18.5705 427.839 21.4515 425.065 22.634L424.313 21.2795C426.613 20.226 427.796 17.9685 427.796 16.2915V15.0445ZM428.161 15.0445H429.537V16.2915C429.537 18.291 430.978 20.2905 433.45 21.129L432.547 22.462C429.709 21.43 428.161 18.979 428.161 16.2915V15.0445ZM416.788 4.5095H425.839V12.9805H416.788V4.5095ZM424.119 5.95H418.508V11.54H424.119V5.95ZM429.903 3.2625H431.709V14.3995H429.903V3.2625ZM450.347 3.241H452.067V22.677H450.347V3.241ZM441.919 11.1745H446.821V12.615H441.919V11.1745ZM446.305 3.7355H447.982V21.688H446.305V3.7355ZM442.156 5.692H443.876C443.876 10.7875 441.833 15.367 436.587 18.4845L435.534 17.216C440.113 14.464 442.156 10.594 442.156 6.0145V5.692ZM436.394 5.692H442.822V7.154H436.394V5.692Z" fill="white"/>
<path d="M211.39 89.614H212.902V105.922H211.39V89.614ZM212.542 96.04H215.566V97.3H212.542V96.04ZM201.076 100.612H202.354C205.36 100.612 207.466 100.504 209.896 100.054L210.058 101.314C207.556 101.782 205.414 101.872 202.354 101.872H201.076V100.612ZM201.076 91.198H208.636V92.422H202.552V101.17H201.076V91.198ZM229.119 92.062H231.945V93.304H229.119V92.062ZM229.119 95.518H231.945V96.76H229.119V95.518ZM221.487 90.586C223.935 90.586 225.735 92.17 225.735 94.438C225.735 96.688 223.935 98.254 221.487 98.254C219.039 98.254 217.239 96.688 217.239 94.438C217.239 92.17 219.039 90.586 221.487 90.586ZM221.487 91.846C219.867 91.846 218.697 92.908 218.697 94.438C218.697 95.968 219.867 97.012 221.487 97.012C223.107 97.012 224.277 95.968 224.277 94.438C224.277 92.908 223.107 91.846 221.487 91.846ZM228.075 89.632H229.569V99.262H228.075V89.632ZM224.385 99.784C227.697 99.784 229.731 100.918 229.731 102.826C229.731 104.752 227.697 105.868 224.385 105.868C221.073 105.868 219.039 104.752 219.039 102.826C219.039 100.918 221.073 99.784 224.385 99.784ZM224.385 100.99C221.973 100.99 220.497 101.656 220.497 102.826C220.497 103.996 221.973 104.68 224.385 104.68C226.797 104.68 228.273 103.996 228.273 102.826C228.273 101.656 226.797 100.99 224.385 100.99ZM244.525 89.632H246.019V105.904H244.525V89.632ZM245.659 96.31H248.683V97.57H245.659V96.31ZM233.419 92.224H243.013V93.448H233.419V92.224ZM238.279 94.798C240.583 94.798 242.239 96.346 242.239 98.542C242.239 100.738 240.583 102.286 238.279 102.286C235.993 102.286 234.319 100.738 234.319 98.542C234.319 96.346 235.993 94.798 238.279 94.798ZM238.279 96.04C236.803 96.04 235.741 97.066 235.741 98.542C235.741 100 236.803 101.044 238.279 101.044C239.755 101.044 240.817 100 240.817 98.542C240.817 97.066 239.755 96.04 238.279 96.04ZM237.505 89.83H238.999V92.782H237.505V89.83ZM262.452 89.632H263.892V105.904H262.452V89.632ZM255.396 96.274H259.5V97.48H255.396V96.274ZM259.068 90.046H260.472V105.076H259.068V90.046ZM255.594 91.684H257.034C257.034 95.95 255.324 99.784 250.932 102.394L250.05 101.332C253.884 99.028 255.594 95.788 255.594 91.954V91.684ZM250.77 91.684H256.152V92.908H250.77V91.684ZM271.671 96.562H286.377V97.768H271.671V96.562ZM273.453 99.226H284.505V102.952H274.965V104.932H273.489V101.854H283.029V100.378H273.453V99.226ZM273.489 104.572H284.991V105.724H273.489V104.572ZM278.169 90.748H279.483V91.27C279.483 93.772 276.423 95.41 272.949 95.734L272.463 94.6C275.469 94.33 278.169 93.016 278.169 91.27V90.748ZM278.601 90.748H279.897V91.27C279.897 93.016 282.597 94.33 285.603 94.6L285.117 95.734C281.661 95.41 278.601 93.772 278.601 91.27V90.748ZM273.021 90.244H285.063V91.432H273.021V90.244ZM300.091 89.632H301.585V105.904H300.091V89.632ZM295.321 91.378H296.797C296.797 96.094 294.673 100.216 289.237 102.88L288.445 101.674C293.143 99.406 295.321 95.95 295.321 91.63V91.378ZM289.183 91.378H295.969V92.602H289.183V91.378ZM306.786 94.51H317.838V95.734H306.786V94.51ZM304.788 97.912H319.548V99.136H304.788V97.912ZM306.786 90.226H308.262V95.122H306.786V90.226ZM306.678 104.284H317.928V105.508H306.678V104.284ZM306.678 100.756H308.154V104.608H306.678V100.756ZM333.861 99.838C337.173 99.838 339.207 100.954 339.207 102.862C339.207 104.77 337.173 105.886 333.861 105.886C330.549 105.886 328.515 104.77 328.515 102.862C328.515 100.954 330.549 99.838 333.861 99.838ZM333.861 101.044C331.449 101.044 329.973 101.71 329.973 102.862C329.973 104.032 331.449 104.698 333.861 104.698C336.273 104.698 337.749 104.032 337.749 102.862C337.749 101.71 336.273 101.044 333.861 101.044ZM337.551 89.632H339.045V99.406H337.551V89.632ZM338.631 93.718H341.457V94.978H338.631V93.718ZM327.093 90.658H328.569V93.088H333.159V90.658H334.617V98.164H327.093V90.658ZM328.569 94.276V96.958H333.159V94.276H328.569ZM343.778 90.46H345.254V92.962H349.664V90.46H351.122V97.912H343.778V90.46ZM345.254 94.132V96.688H349.664V94.132H345.254ZM350.708 93.628H355.316V94.852H350.708V93.628ZM354.866 89.632H356.36V98.524H354.866V89.632ZM345.938 99.316H347.414V101.278H354.884V99.316H356.36V105.688H345.938V99.316ZM347.414 102.466V104.464H354.884V102.466H347.414Z" fill="white"/>
<path d="M187.562 92.292H180V106.181H194.12V98.156" stroke="white" stroke-width="1.8"/>
<path d="M182.315 96.302L186.944 101.702L196.744 89.8191" stroke="white" stroke-width="1.8"/>
</g>
</g>
<defs>
<clipPath id="clip0_26_62">
<rect width="800" height="109" fill="white" transform="translate(0.5 0.5)"/>
</clipPath>
</defs>
</svg>
