<svg width="800" height="109" viewBox="0 0 800 109" fill="none" xmlns="http://www.w3.org/2000/svg">
<g clip-path="url(#clip0_12137_18682)">
<mask id="mask0_12137_18682" style="mask-type:luminance" maskUnits="userSpaceOnUse" x="0" y="0" width="800" height="109">
<path d="M800 0H0V109H800V0Z" fill="white"/>
</mask>
<g mask="url(#mask0_12137_18682)">
<path d="M226.358 46.252H250.83V50.28H226.358V46.252ZM226.358 36.79H231.412V48.076H226.358V36.79ZM222.558 54.156H254.364V58.222H222.558V54.156ZM229.778 55.6H234.832V70.382H229.778V55.6ZM242.052 55.6H247.106V70.382H242.052V55.6ZM264.621 47.088H269.675V53.586H264.621V47.088ZM277.009 47.088H282.025V53.586H277.009V47.088ZM273.399 35.802C281.151 35.802 286.129 38.424 286.129 42.68C286.129 46.974 281.151 49.596 273.399 49.596C265.647 49.596 260.669 46.974 260.669 42.68C260.669 38.424 265.647 35.802 273.399 35.802ZM273.399 39.716C268.573 39.716 265.875 40.666 265.875 42.68C265.875 44.694 268.573 45.682 273.399 45.682C278.187 45.682 280.923 44.694 280.923 42.68C280.923 40.666 278.187 39.716 273.399 39.716ZM257.477 52.484H289.283V56.474H257.477V52.484ZM261.011 58.868H285.445V70.382H280.391V62.858H261.011V58.868ZM300.58 62.7244L300.412 64.4041C300.28 65.7479 300.025 67.0865 299.648 68.4201C299.282 69.7638 298.895 70.9804 298.488 72.0696C298.091 73.1589 297.77 74.014 297.526 74.6349H293.311C293.464 74.0343 293.673 73.1945 293.938 72.1154C294.202 71.0465 294.452 69.8453 294.686 68.5117C294.92 67.1781 295.067 65.8191 295.129 64.4347L295.205 62.7244H300.58ZM323.852 34.062H328.496V39.867C328.496 50.101 324.97 59.346 317.058 63.001L313.661 58.271C320.584 55.261 323.852 47.607 323.852 39.867V34.062ZM324.97 34.062H329.614V39.867C329.614 47.22 332.753 54.53 339.547 57.454L336.193 62.055C328.496 58.529 324.97 49.671 324.97 39.867V34.062ZM341.439 30.966H347.201V70.913H341.439V30.966ZM355.841 57.196H359.281C366.247 57.196 371.579 57.067 377.728 56.164L378.244 60.679C372.009 61.668 366.376 61.84 359.281 61.84H355.841V57.196ZM355.841 34.32H376.008V38.964H361.517V58.701H355.841V34.32ZM360.227 45.371H374.331V49.843H360.227V45.371ZM381.125 31.009H386.887V70.827H381.125V31.009ZM422.014 31.009H427.475V70.827H422.014V31.009ZM417.241 46.274H423.82V50.918H417.241V46.274ZM413.629 31.697H418.961V68.935H413.629V31.697ZM393.548 35.481H411.737V40.039H393.548V35.481ZM393.462 61.797L392.86 57.153C397.805 57.153 406.104 57.024 412.038 56.207L412.425 60.335C406.319 61.668 398.321 61.797 393.462 61.797ZM396.042 38.405H401.159V58.357H396.042V38.405ZM404.126 38.405H409.243V58.357H404.126V38.405ZM447.596 33.288H452.584V36.169C452.584 44.812 446.435 52.466 436.115 54.487L433.664 49.757C442.651 48.209 447.596 41.888 447.596 36.169V33.288ZM448.757 33.288H453.702V36.169C453.702 42.017 458.604 48.209 467.634 49.757L465.183 54.487C454.863 52.466 448.757 44.941 448.757 36.169V33.288ZM432.847 61.324H468.881V65.968H432.847V61.324Z" fill="white"/>
<path d="M239.867 2.741H241.587V22.177H239.867V2.741ZM236.793 10.5455H240.512V12.029H236.793V10.5455ZM235.653 3.171H237.33V21.188H235.653V3.171ZM225.247 5.1705H234.234V6.6325H225.247V5.1705ZM225.075 17.404L224.86 15.899C227.419 15.899 231.633 15.813 234.6 15.426L234.729 16.7375C231.654 17.318 227.612 17.404 225.075 17.404ZM226.903 6.1165H228.537V16.286H226.903V6.1165ZM230.945 6.1165H232.579V16.286H230.945V6.1165ZM252.636 4.074H254.184V5.5575C254.184 9.793 250.25 13.0825 246.358 13.964L245.563 12.4805C248.981 11.8355 252.636 8.8685 252.636 5.5575V4.074ZM252.959 4.074H254.507V5.5575C254.507 8.89 258.183 11.8355 261.58 12.4805L260.785 13.964C256.915 13.0825 252.959 9.8145 252.959 5.5575V4.074ZM244.853 18.092H262.462V19.554H244.853V18.092ZM277.79 2.741H279.574V22.177H277.79V2.741ZM279.144 10.7175H282.756V12.2225H279.144V10.7175ZM264.524 5.837H275.984V7.299H264.524V5.837ZM270.329 8.9115C273.081 8.9115 275.059 10.7605 275.059 13.3835C275.059 16.0065 273.081 17.8555 270.329 17.8555C267.599 17.8555 265.599 16.0065 265.599 13.3835C265.599 10.7605 267.599 8.9115 270.329 8.9115ZM270.329 10.395C268.566 10.395 267.298 11.6205 267.298 13.3835C267.298 15.125 268.566 16.372 270.329 16.372C272.092 16.372 273.361 15.125 273.361 13.3835C273.361 11.6205 272.092 10.395 270.329 10.395ZM269.405 2.9775H271.189V6.5035H269.405V2.9775ZM298.858 10.481H302.448V11.986H298.858V10.481ZM297.546 2.7195H299.352V22.177H297.546V2.7195ZM285.162 4.633H286.947V16.673H285.162V4.633ZM285.162 15.7485H286.71C289.591 15.7485 292.537 15.555 295.74 14.8885L295.955 16.372C292.644 17.06 289.656 17.2535 286.71 17.2535H285.162V15.7485ZM304.188 18.307H321.797V19.7905H304.188V18.307ZM312.057 14.136H313.842V18.9305H312.057V14.136ZM306.317 4.1815H319.625V10.0725H308.144V13.964H306.381V8.632H317.862V5.622H306.317V4.1815ZM306.381 13.2115H320.077V14.6735H306.381V13.2115ZM335.443 20.7138C334.548 20.7138 333.741 20.5356 333.023 20.1793C332.305 19.823 331.73 19.3344 331.298 18.7134C330.865 18.0924 330.628 17.3849 330.588 16.5909H332.42C332.491 17.2984 332.812 17.8838 333.382 18.3469C333.957 18.805 334.644 19.0341 335.443 19.0341C336.085 19.0341 336.655 18.8839 337.154 18.5836C337.658 18.2833 338.052 17.871 338.337 17.3468C338.627 16.8174 338.772 16.2193 338.772 15.5526C338.772 14.8705 338.622 14.2623 338.322 13.7278C338.027 13.1883 337.619 12.7633 337.1 12.4528C336.581 12.1423 335.988 11.9845 335.321 11.9794C334.843 11.9743 334.352 12.0481 333.848 12.2008C333.344 12.3484 332.929 12.5393 332.603 12.7734L330.832 12.5597L331.779 4.86364H339.902V6.54332H333.367L332.817 11.1548H332.909C333.229 10.9003 333.631 10.6891 334.115 10.5211C334.599 10.3532 335.102 10.2692 335.627 10.2692C336.584 10.2692 337.436 10.4982 338.184 10.9563C338.938 11.4093 339.528 12.0303 339.956 12.8192C340.388 13.6082 340.605 14.5091 340.605 15.522C340.605 16.5196 340.381 17.4104 339.933 18.1942C339.49 18.973 338.879 19.5889 338.1 20.0419C337.322 20.4898 336.436 20.7138 335.443 20.7138ZM345.18 3.6655H357.693V5.106H345.18V3.6655ZM343.094 11.857H360.638V13.2975H343.094V11.857ZM350.297 7.944H352.06V12.072H350.297V7.944ZM356.661 3.6655H358.402V5.0415C358.402 6.5035 358.402 8.245 357.908 10.5025L356.166 10.309C356.661 8.073 356.661 6.482 356.661 5.0415V3.6655ZM350.899 14.824H352.425V15.684C352.425 19.1455 349.007 21.446 345.029 22.1125L344.341 20.6935C347.91 20.199 350.899 18.2425 350.899 15.684V14.824ZM351.157 14.824H352.683V15.684C352.683 18.2425 355.693 20.199 359.241 20.6935L358.574 22.1125C354.554 21.446 351.157 19.1455 351.157 15.684V14.824ZM369.172 4.1385C372.203 4.1385 374.375 6.009 374.375 8.718C374.375 11.4485 372.203 13.319 369.172 13.319C366.14 13.319 363.947 11.4485 363.947 8.718C363.947 6.009 366.14 4.1385 369.172 4.1385ZM369.172 5.6865C367.151 5.6865 365.689 6.912 365.689 8.718C365.689 10.524 367.151 11.771 369.172 11.771C371.171 11.771 372.633 10.524 372.633 8.718C372.633 6.912 371.171 5.6865 369.172 5.6865ZM376.912 2.7195H378.696V22.1985H376.912V2.7195ZM363.216 17.9415L362.958 16.458C366.506 16.458 371.408 16.4365 375.643 15.77L375.794 17.0815C371.429 17.92 366.678 17.9415 363.216 17.9415ZM402.823 2.7625H404.629V16.9525H402.823V2.7625ZM392.138 20.285H405.21V21.747H392.138V20.285ZM392.138 15.4905H393.901V20.7795H392.138V15.4905ZM394.202 4.0955C397.104 4.0955 399.254 6.0735 399.254 8.89C399.254 11.685 397.104 13.6845 394.202 13.6845C391.299 13.6845 389.128 11.685 389.128 8.89C389.128 6.0735 391.299 4.0955 394.202 4.0955ZM394.202 5.6435C392.31 5.6435 390.869 6.9765 390.869 8.89C390.869 10.782 392.31 12.115 394.202 12.115C396.094 12.115 397.534 10.782 397.534 8.89C397.534 6.9765 396.094 5.6435 394.202 5.6435ZM422.623 2.741H424.407V22.177H422.623V2.741ZM416.925 4.8265H418.688C418.688 10.4595 416.151 15.383 409.658 18.565L408.712 17.1245C414.324 14.4155 416.925 10.2875 416.925 5.1275V4.8265ZM409.594 4.8265H417.699V6.2885H409.594V4.8265ZM435.333 4.246H443.933V5.708H435.333V4.246ZM438.257 8.589H440.02V13.448H438.257V8.589ZM443.224 4.246H444.987V5.278C444.987 6.5465 444.987 8.4815 444.471 11.04L442.729 10.8465C443.224 8.288 443.224 6.525 443.224 5.278V4.246ZM447.631 2.741H449.416V17.3825H447.631V2.741ZM448.599 9.062H452.189V10.5455H448.599V9.062ZM437.139 20.285H450.039V21.747H437.139V20.285ZM437.139 16.028H438.902V20.7365H437.139V16.028ZM434.344 14.2865L434.151 12.8245C437.612 12.8245 442.385 12.7385 446.32 12.201L446.449 13.491C442.407 14.2005 437.763 14.2865 434.344 14.2865ZM455.111 3.945H463.711V5.407H455.111V3.945ZM458.035 8.159H459.798V12.803H458.035V8.159ZM463.002 3.945H464.743V4.9985C464.743 6.224 464.743 7.9655 464.249 10.266L462.507 10.1155C463.002 7.8365 463.002 6.224 463.002 4.9985V3.945ZM467.409 2.741H469.194V14.867H467.409V2.741ZM468.377 8.03H471.967V9.535H468.377V8.03ZM454.144 13.534L453.929 12.0505C457.455 12.0505 462.163 11.986 466.098 11.47L466.227 12.7815C462.206 13.448 457.605 13.534 454.144 13.534ZM462.916 15.1035C466.915 15.1035 469.387 16.3935 469.387 18.608C469.387 20.844 466.915 22.134 462.916 22.134C458.917 22.134 456.487 20.844 456.487 18.608C456.487 16.3935 458.917 15.1035 462.916 15.1035ZM462.916 16.501C460.035 16.501 458.272 17.275 458.272 18.608C458.272 19.941 460.035 20.715 462.916 20.715C465.818 20.715 467.56 19.941 467.56 18.608C467.56 17.275 465.818 16.501 462.916 16.501ZM478.996 5.5145H480.437V8.675C480.437 12.7815 477.964 16.9095 474.868 18.436L473.836 17.017C476.653 15.684 478.996 12.029 478.996 8.675V5.5145ZM479.34 5.5145H480.781V8.675C480.781 11.9645 483.124 15.3185 485.984 16.544L484.973 17.963C481.834 16.501 479.34 12.717 479.34 8.675V5.5145ZM474.481 4.719H485.339V6.224H474.481V4.719ZM487.962 2.741H489.746V22.177H487.962V2.741ZM493.615 11.771H511.245V13.1255H493.615V11.771ZM495.7 14.695H509.03V18.8445H497.528V21.1235H495.765V17.619H507.289V15.9635H495.7V14.695ZM495.765 20.6505H509.654V21.9405H495.765V20.6505ZM495.851 3.3H508.966V7.342H497.657V9.449H495.894V6.138H507.224V4.5685H495.851V3.3ZM495.894 9.019H509.331V10.309H495.894V9.019ZM532.748 2.7625H534.533V17.3395H532.748V2.7625ZM533.974 9.1265H537.414V10.6315H533.974V9.1265ZM519.504 5.106H530.985V6.5465H519.504V5.106ZM525.245 7.6215C527.997 7.6215 529.889 9.062 529.889 11.255C529.889 13.4265 527.997 14.867 525.245 14.867C522.471 14.867 520.579 13.4265 520.579 11.255C520.579 9.062 522.471 7.6215 525.245 7.6215ZM525.245 9.019C523.482 9.019 522.278 9.9005 522.278 11.255C522.278 12.588 523.482 13.4695 525.245 13.4695C526.986 13.4695 528.19 12.588 528.19 11.255C528.19 9.9005 526.986 9.019 525.245 9.019ZM524.342 2.741H526.126V5.8585H524.342V2.741ZM522.428 20.285H535.414V21.747H522.428V20.285ZM522.428 16.1785H524.213V20.9085H522.428V16.1785ZM548.399 8.2235H553.989V9.6855H548.399V8.2235ZM553.43 2.7625H555.214V17.146H553.43V2.7625ZM542.723 20.285H555.687V21.747H542.723V20.285ZM542.723 15.7485H544.507V21.0375H542.723V15.7485ZM540.186 4.031H541.949V7.471H547.216V4.031H548.958V13.835H540.186V4.031ZM541.949 8.8685V12.373H547.216V8.8685H541.949ZM566.887 10.2875H570.563V11.771H566.887V10.2875ZM573.81 2.741H575.53V22.177H573.81V2.741ZM569.961 3.1495H571.66V21.2095H569.961V3.1495ZM563.382 4.3535C565.898 4.3535 567.532 6.955 567.532 11.126C567.532 15.297 565.898 17.8985 563.382 17.8985C560.867 17.8985 559.254 15.297 559.254 11.126C559.254 6.955 560.867 4.3535 563.382 4.3535ZM563.382 6.009C561.856 6.009 560.888 7.987 560.888 11.126C560.888 14.265 561.856 16.243 563.382 16.243C564.93 16.243 565.898 14.265 565.898 11.126C565.898 7.987 564.93 6.009 563.382 6.009Z" fill="white"/>
<path d="M256.516 90.132H258.01V102.03H256.516V90.132ZM257.542 95.064H260.422V96.306H257.542V95.064ZM252.07 91.392H253.654C253.654 95.604 250.702 98.682 246.04 100.176L245.392 98.952C249.496 97.692 252.07 95.172 252.07 92.04V91.392ZM246.058 91.392H252.826V92.616H246.058V91.392ZM247.858 104.82H258.73V106.044H247.858V104.82ZM247.858 100.824H249.352V105.306H247.858V100.824ZM273.831 90.132H275.325V102.246H273.831V90.132ZM262.419 91.446H270.987V92.67H262.419V91.446ZM262.149 99.798L261.987 98.52C264.651 98.52 268.449 98.484 271.491 98.124L271.581 99.24C268.449 99.744 264.795 99.798 262.149 99.798ZM264.039 92.49H265.479V98.736H264.039V92.49ZM267.927 92.49H269.367V98.736H267.927V92.49ZM271.131 93.21H274.623V94.434H271.131V93.21ZM271.131 96.324H274.623V97.548H271.131V96.324ZM264.921 104.82H275.757V106.044H264.921V104.82ZM264.921 101.256H266.415V105.594H264.921V101.256ZM289.633 90.15H291.127V102.354H289.633V90.15ZM290.659 95.478H293.539V96.738H290.659V95.478ZM278.545 92.112H288.157V93.318H278.545V92.112ZM283.351 94.218C285.655 94.218 287.239 95.424 287.239 97.26C287.239 99.078 285.655 100.284 283.351 100.284C281.029 100.284 279.445 99.078 279.445 97.26C279.445 95.424 281.029 94.218 283.351 94.218ZM283.351 95.388C281.875 95.388 280.867 96.126 280.867 97.26C280.867 98.376 281.875 99.114 283.351 99.114C284.809 99.114 285.817 98.376 285.817 97.26C285.817 96.126 284.809 95.388 283.351 95.388ZM282.595 90.132H284.089V92.742H282.595V90.132ZM280.993 104.82H291.865V106.044H280.993V104.82ZM280.993 101.382H282.487V105.342H280.993V101.382ZM304.108 91.536H305.332V94.452C305.332 98.052 303.388 101.562 300.814 102.93L299.896 101.742C302.254 100.554 304.108 97.422 304.108 94.452V91.536ZM304.378 91.536H305.584V94.452C305.584 97.314 307.402 100.284 309.706 101.436L308.788 102.624C306.268 101.274 304.378 97.944 304.378 94.452V91.536ZM311.128 90.132H312.64V106.404H311.128V90.132ZM312.28 96.72H315.304V97.98H312.28V96.72ZM320.307 95.64H321.783V98.718H320.307V95.64ZM326.283 95.64H327.759V98.718H326.283V95.64ZM316.671 98.178H331.377V99.384H316.671V98.178ZM324.015 100.608C327.507 100.608 329.595 101.634 329.595 103.488C329.595 105.342 327.507 106.386 324.015 106.386C320.523 106.386 318.435 105.342 318.435 103.488C318.435 101.634 320.523 100.608 324.015 100.608ZM324.015 101.76C321.477 101.76 319.947 102.39 319.947 103.488C319.947 104.604 321.477 105.216 324.015 105.216C326.571 105.216 328.083 104.604 328.083 103.488C328.083 102.39 326.571 101.76 324.015 101.76ZM324.033 90.42C327.561 90.42 329.757 91.554 329.757 93.462C329.757 95.352 327.561 96.468 324.033 96.468C320.487 96.468 318.309 95.352 318.309 93.462C318.309 91.554 320.487 90.42 324.033 90.42ZM324.033 91.59C321.441 91.59 319.839 92.274 319.839 93.462C319.839 94.632 321.441 95.316 324.033 95.316C326.625 95.316 328.227 94.632 328.227 93.462C328.227 92.274 326.625 91.59 324.033 91.59Z" fill="white"/>
<path d="M232.562 92.792H225V106.681H239.12V98.656" stroke="white" stroke-width="1.8"/>
<path d="M227.315 96.8022L231.944 102.202L241.744 90.3193" stroke="white" stroke-width="1.8"/>
</g>
</g>
<defs>
<clipPath id="clip0_12137_18682">
<rect width="800" height="109" fill="white"/>
</clipPath>
</defs>
</svg>
