<svg width="345" height="47" viewBox="0 0 345 47" fill="none" xmlns="http://www.w3.org/2000/svg">
<g clip-path="url(#clip0_12163_18303)">
<mask id="mask0_12163_18303" style="mask-type:luminance" maskUnits="userSpaceOnUse" x="0" y="0" width="345" height="47">
<path d="M345 0H0V47H345V0Z" fill="white"/>
</mask>
<g mask="url(#mask0_12163_18303)">
<path d="M115.551 22.159H122.635V23.325H115.551V22.159ZM115.551 19.42H117.014V22.687H115.551V19.42ZM114.451 24.447H123.658V25.624H114.451V24.447ZM116.541 24.865H118.004V29.144H116.541V24.865ZM120.094 24.865H121.557V29.144H120.094V24.865ZM126.627 22.401H128.09V24.282H126.627V22.401ZM130.213 22.401H131.665V24.282H130.213V22.401ZM129.168 19.134C131.412 19.134 132.853 19.893 132.853 21.125C132.853 22.368 131.412 23.127 129.168 23.127C126.924 23.127 125.483 22.368 125.483 21.125C125.483 19.893 126.924 19.134 129.168 19.134ZM129.168 20.267C127.771 20.267 126.99 20.542 126.99 21.125C126.99 21.708 127.771 21.994 129.168 21.994C130.554 21.994 131.346 21.708 131.346 21.125C131.346 20.542 130.554 20.267 129.168 20.267ZM124.559 23.963H133.766V25.118H124.559V23.963ZM125.582 25.811H132.655V29.144H131.192V26.966H125.582V25.811ZM136.711 27.0713L136.668 27.501C136.634 27.8447 136.569 28.1872 136.473 28.5283C136.379 28.8721 136.28 29.1833 136.176 29.4619C136.074 29.7406 135.992 29.9593 135.93 30.1182H134.852C134.891 29.9645 134.944 29.7497 135.012 29.4736C135.079 29.2002 135.143 28.8929 135.203 28.5518C135.263 28.2106 135.301 27.863 135.316 27.5088L135.336 27.0713H136.711ZM141.026 18.207H142.43V19.962C142.43 23.056 141.364 25.851 138.972 26.956L137.945 25.526C140.038 24.616 141.026 22.302 141.026 19.962V18.207ZM141.364 18.207H142.768V19.962C142.768 22.185 143.717 24.395 145.771 25.279L144.757 26.67C142.43 25.604 141.364 22.926 141.364 19.962V18.207ZM146.343 17.271H148.085V29.348H146.343V17.271ZM150.697 25.201H151.737C153.843 25.201 155.455 25.162 157.314 24.889L157.47 26.254C155.585 26.553 153.882 26.605 151.737 26.605H150.697V25.201ZM150.697 18.285H156.794V19.689H152.413V25.656H150.697V18.285ZM152.023 21.626H156.287V22.978H152.023V21.626ZM158.341 17.284H160.083V29.322H158.341V17.284ZM170.703 17.284H172.354V29.322H170.703V17.284ZM169.26 21.899H171.249V23.303H169.26V21.899ZM168.168 17.492H169.78V28.75H168.168V17.492ZM162.097 18.636H167.596V20.014H162.097V18.636ZM162.071 26.592L161.889 25.188C163.384 25.188 165.893 25.149 167.687 24.902L167.804 26.15C165.958 26.553 163.54 26.592 162.071 26.592ZM162.851 19.52H164.398V25.552H162.851V19.52ZM165.295 19.52H166.842V25.552H165.295V19.52ZM178.437 17.973H179.945V18.844C179.945 21.457 178.086 23.771 174.966 24.382L174.225 22.952C176.942 22.484 178.437 20.573 178.437 18.844V17.973ZM178.788 17.973H180.283V18.844C180.283 20.612 181.765 22.484 184.495 22.952L183.754 24.382C180.634 23.771 178.788 21.496 178.788 18.844V17.973ZM173.978 26.449H184.872V27.853H173.978V26.449Z" fill="white"/>
<path d="M120.166 3.38304H120.726V9.71104H120.166V3.38304ZM119.165 5.92404H120.376V6.40704H119.165V5.92404ZM118.794 3.52304H119.34V9.38904H118.794V3.52304ZM115.406 4.17404H118.332V4.65004H115.406V4.17404ZM115.35 8.15704L115.28 7.66704C116.113 7.66704 117.485 7.63904 118.451 7.51304L118.493 7.94004C117.492 8.12904 116.176 8.15704 115.35 8.15704ZM115.945 4.48204H116.477V7.79304H115.945V4.48204ZM117.261 4.48204H117.793V7.79304H117.261V4.48204ZM124.323 3.81704H124.827V4.30004C124.827 5.67904 123.546 6.75004 122.279 7.03704L122.02 6.55404C123.133 6.34404 124.323 5.37804 124.323 4.30004V3.81704ZM124.428 3.81704H124.932V4.30004C124.932 5.38504 126.129 6.34404 127.235 6.55404L126.976 7.03704C125.716 6.75004 124.428 5.68604 124.428 4.30004V3.81704ZM121.789 8.38104H127.522V8.85704H121.789V8.38104ZM132.513 3.38304H133.094V9.71104H132.513V3.38304ZM132.954 5.98004H134.13V6.47004H132.954V5.98004ZM128.194 4.39104H131.925V4.86704H128.194V4.39104ZM130.084 5.39204C130.98 5.39204 131.624 5.99404 131.624 6.84804C131.624 7.70204 130.98 8.30404 130.084 8.30404C129.195 8.30404 128.544 7.70204 128.544 6.84804C128.544 5.99404 129.195 5.39204 130.084 5.39204ZM130.084 5.87504C129.51 5.87504 129.097 6.27404 129.097 6.84804C129.097 7.41504 129.51 7.82104 130.084 7.82104C130.658 7.82104 131.071 7.41504 131.071 6.84804C131.071 6.27404 130.658 5.87504 130.084 5.87504ZM129.783 3.46004H130.364V4.60804H129.783V3.46004ZM139.372 5.90304H140.541V6.39304H139.372V5.90304ZM138.945 3.37604H139.533V9.71104H138.945V3.37604ZM134.913 3.99904H135.494V7.91904H134.913V3.99904ZM134.913 7.61804H135.417C136.355 7.61804 137.314 7.55504 138.357 7.33804L138.427 7.82104C137.349 8.04504 136.376 8.10804 135.417 8.10804H134.913V7.61804ZM141.108 8.45104H146.841V8.93404H141.108V8.45104ZM143.67 7.09304H144.251V8.65404H143.67V7.09304ZM141.801 3.85204H146.134V5.77004H142.396V7.03704H141.822V5.30104H145.56V4.32104H141.801V3.85204ZM141.822 6.79204H146.281V7.26804H141.822V6.79204ZM151.284 9.23464C150.992 9.23464 150.73 9.17664 150.496 9.06064C150.262 8.94463 150.075 8.78554 149.934 8.58336C149.793 8.38118 149.716 8.15083 149.703 7.89231H150.3C150.323 8.12266 150.427 8.31324 150.613 8.46404C150.8 8.61319 151.024 8.68777 151.284 8.68777C151.493 8.68777 151.678 8.63888 151.841 8.5411C152.005 8.44333 152.133 8.3091 152.226 8.13841C152.32 7.96606 152.368 7.77134 152.368 7.55424C152.368 7.33218 152.319 7.13414 152.221 6.96014C152.125 6.78448 151.992 6.6461 151.823 6.54501C151.654 6.44392 151.461 6.39255 151.244 6.39089C151.088 6.38923 150.928 6.41326 150.764 6.46298C150.6 6.51104 150.465 6.57318 150.359 6.64941L149.782 6.57981L150.091 4.07413H152.736V4.621H150.608L150.429 6.12243H150.459C150.563 6.03957 150.694 5.97079 150.851 5.9161C151.009 5.86142 151.173 5.83407 151.344 5.83407C151.655 5.83407 151.933 5.90865 152.176 6.05779C152.422 6.20529 152.614 6.40746 152.753 6.66433C152.894 6.92119 152.964 7.21452 152.964 7.5443C152.964 7.86911 152.891 8.15912 152.746 8.41433C152.601 8.66788 152.403 8.8684 152.149 9.01589C151.895 9.16172 151.607 9.23464 151.284 9.23464ZM154.454 3.68404H158.528V4.15304H154.454V3.68404ZM153.775 6.35104H159.487V6.82004H153.775V6.35104ZM156.12 5.07704H156.694V6.42104H156.12V5.07704ZM158.192 3.68404H158.759V4.13204C158.759 4.60804 158.759 5.17504 158.598 5.91004L158.031 5.84704C158.192 5.11904 158.192 4.60104 158.192 4.13204V3.68404ZM156.316 7.31704H156.813V7.59704C156.813 8.72404 155.7 9.47304 154.405 9.69004L154.181 9.22804C155.343 9.06704 156.316 8.43004 156.316 7.59704V7.31704ZM156.4 7.31704H156.897V7.59704C156.897 8.43004 157.877 9.06704 159.032 9.22804L158.815 9.69004C157.506 9.47304 156.4 8.72404 156.4 7.59704V7.31704ZM162.265 3.83804C163.252 3.83804 163.959 4.44704 163.959 5.32904C163.959 6.21804 163.252 6.82704 162.265 6.82704C161.278 6.82704 160.564 6.21804 160.564 5.32904C160.564 4.44704 161.278 3.83804 162.265 3.83804ZM162.265 4.34204C161.607 4.34204 161.131 4.74104 161.131 5.32904C161.131 5.91704 161.607 6.32304 162.265 6.32304C162.916 6.32304 163.392 5.91704 163.392 5.32904C163.392 4.74104 162.916 4.34204 162.265 4.34204ZM164.785 3.37604H165.366V9.71804H164.785V3.37604ZM160.326 8.33204L160.242 7.84904C161.397 7.84904 162.993 7.84204 164.372 7.62504L164.421 8.05204C163 8.32504 161.453 8.33204 160.326 8.33204ZM173.221 3.39004H173.809V8.01004H173.221V3.39004ZM169.742 9.09504H173.998V9.57104H169.742V9.09504ZM169.742 7.53404H170.316V9.25604H169.742V7.53404ZM170.414 3.82404C171.359 3.82404 172.059 4.46804 172.059 5.38504C172.059 6.29504 171.359 6.94604 170.414 6.94604C169.469 6.94604 168.762 6.29504 168.762 5.38504C168.762 4.46804 169.469 3.82404 170.414 3.82404ZM170.414 4.32804C169.798 4.32804 169.329 4.76204 169.329 5.38504C169.329 6.00104 169.798 6.43504 170.414 6.43504C171.03 6.43504 171.499 6.00104 171.499 5.38504C171.499 4.76204 171.03 4.32804 170.414 4.32804ZM179.668 3.38304H180.249V9.71104H179.668V3.38304ZM177.813 4.06204H178.387C178.387 5.89604 177.561 7.49904 175.447 8.53504L175.139 8.06604C176.966 7.18404 177.813 5.84004 177.813 4.16004V4.06204ZM175.426 4.06204H178.065V4.53804H175.426V4.06204ZM183.806 3.87304H186.606V4.34904H183.806V3.87304ZM184.758 5.28704H185.332V6.86904H184.758V5.28704ZM186.375 3.87304H186.949V4.20904C186.949 4.62204 186.949 5.25204 186.781 6.08504L186.214 6.02204C186.375 5.18904 186.375 4.61504 186.375 4.20904V3.87304ZM187.81 3.38304H188.391V8.15004H187.81V3.38304ZM188.125 5.44104H189.294V5.92404H188.125V5.44104ZM184.394 9.09504H188.594V9.57104H184.394V9.09504ZM184.394 7.70904H184.968V9.24204H184.394V7.70904ZM183.484 7.14204L183.421 6.66604C184.548 6.66604 186.102 6.63804 187.383 6.46304L187.425 6.88304C186.109 7.11404 184.597 7.14204 183.484 7.14204ZM190.246 3.77504H193.046V4.25104H190.246V3.77504ZM191.198 5.14704H191.772V6.65904H191.198V5.14704ZM192.815 3.77504H193.382V4.11804C193.382 4.51704 193.382 5.08404 193.221 5.83304L192.654 5.78404C192.815 5.04204 192.815 4.51704 192.815 4.11804V3.77504ZM194.25 3.38304H194.831V7.33104H194.25V3.38304ZM194.565 5.10504H195.734V5.59504H194.565V5.10504ZM189.931 6.89704L189.861 6.41404C191.009 6.41404 192.542 6.39304 193.823 6.22504L193.865 6.65204C192.556 6.86904 191.058 6.89704 189.931 6.89704ZM192.787 7.40804C194.089 7.40804 194.894 7.82804 194.894 8.54904C194.894 9.27704 194.089 9.69704 192.787 9.69704C191.485 9.69704 190.694 9.27704 190.694 8.54904C190.694 7.82804 191.485 7.40804 192.787 7.40804ZM192.787 7.86304C191.849 7.86304 191.275 8.11504 191.275 8.54904C191.275 8.98304 191.849 9.23504 192.787 9.23504C193.732 9.23504 194.299 8.98304 194.299 8.54904C194.299 8.11504 193.732 7.86304 192.787 7.86304ZM198.022 4.28604H198.491V5.31504C198.491 6.65204 197.686 7.99604 196.678 8.49304L196.342 8.03104C197.259 7.59704 198.022 6.40704 198.022 5.31504V4.28604ZM198.134 4.28604H198.603V5.31504C198.603 6.38604 199.366 7.47804 200.297 7.87704L199.968 8.33904C198.946 7.86304 198.134 6.63104 198.134 5.31504V4.28604ZM196.552 4.02704H200.087V4.51704H196.552V4.02704ZM200.941 3.38304H201.522V9.71104H200.941V3.38304ZM202.781 6.32304H208.521V6.76404H202.781V6.32304ZM203.46 7.27504H207.8V8.62604H204.055V9.36804H203.481V8.22704H207.233V7.68804H203.46V7.27504ZM203.481 9.21404H208.003V9.63404H203.481V9.21404ZM203.509 3.56504H207.779V4.88104H204.097V5.56704H203.523V4.48904H207.212V3.97804H203.509V3.56504ZM203.523 5.42704H207.898V5.84704H203.523V5.42704ZM215.523 3.39004H216.104V8.13604H215.523V3.39004ZM215.922 5.46204H217.042V5.95204H215.922V5.46204ZM211.211 4.15304H214.949V4.62204H211.211V4.15304ZM213.08 4.97204C213.976 4.97204 214.592 5.44104 214.592 6.15504C214.592 6.86204 213.976 7.33104 213.08 7.33104C212.177 7.33104 211.561 6.86204 211.561 6.15504C211.561 5.44104 212.177 4.97204 213.08 4.97204ZM213.08 5.42704C212.506 5.42704 212.114 5.71404 212.114 6.15504C212.114 6.58904 212.506 6.87604 213.08 6.87604C213.647 6.87604 214.039 6.58904 214.039 6.15504C214.039 5.71404 213.647 5.42704 213.08 5.42704ZM212.786 3.38304H213.367V4.39804H212.786V3.38304ZM212.163 9.09504H216.391V9.57104H212.163V9.09504ZM212.163 7.75804H212.744V9.29804H212.163V7.75804ZM220.618 5.16804H222.438V5.64404H220.618V5.16804ZM222.256 3.39004H222.837V8.07304H222.256V3.39004ZM218.77 9.09504H222.991V9.57104H218.77V9.09504ZM218.77 7.61804H219.351V9.34004H218.77V7.61804ZM217.944 3.80304H218.518V4.92304H220.233V3.80304H220.8V6.99504H217.944V3.80304ZM218.518 5.37804V6.51904H220.233V5.37804H218.518ZM226.638 5.84004H227.835V6.32304H226.638V5.84004ZM228.892 3.38304H229.452V9.71104H228.892V3.38304ZM227.639 3.51604H228.192V9.39604H227.639V3.51604ZM225.497 3.90804C226.316 3.90804 226.848 4.75504 226.848 6.11304C226.848 7.47104 226.316 8.31804 225.497 8.31804C224.678 8.31804 224.153 7.47104 224.153 6.11304C224.153 4.75504 224.678 3.90804 225.497 3.90804ZM225.497 4.44704C225 4.44704 224.685 5.09104 224.685 6.11304C224.685 7.13504 225 7.77904 225.497 7.77904C226.001 7.77904 226.316 7.13504 226.316 6.11304C226.316 5.09104 226.001 4.44704 225.497 4.44704Z" fill="white"/>
<path d="M127.659 37.7218H128.198V42.0183H127.659V37.7218ZM128.029 39.5028H129.069V39.9513H128.029V39.5028ZM126.053 38.1768H126.625C126.625 39.6978 125.559 40.8093 123.876 41.3488L123.642 40.9068C125.124 40.4518 126.053 39.5418 126.053 38.4108V38.1768ZM123.882 38.1768H126.326V38.6188H123.882V38.1768ZM124.532 43.0258H128.458V43.4678H124.532V43.0258ZM124.532 41.5828H125.072V43.2013H124.532V41.5828ZM133.911 37.7218H134.451V42.0963H133.911V37.7218ZM129.79 38.1963H132.884V38.6383H129.79V38.1963ZM129.693 41.2123L129.634 40.7508C130.596 40.7508 131.968 40.7378 133.066 40.6078L133.099 41.0108C131.968 41.1928 130.648 41.2123 129.693 41.2123ZM130.375 38.5733H130.895V40.8288H130.375V38.5733ZM131.779 38.5733H132.299V40.8288H131.779V38.5733ZM132.936 38.8333H134.197V39.2753H132.936V38.8333ZM132.936 39.9578H134.197V40.3998H132.936V39.9578ZM130.694 43.0258H134.607V43.4678H130.694V43.0258ZM130.694 41.7388H131.233V43.3053H130.694V41.7388ZM139.618 37.7283H140.157V42.1353H139.618V37.7283ZM139.988 39.6523H141.028V40.1073H139.988V39.6523ZM135.614 38.4368H139.085V38.8723H135.614V38.4368ZM137.349 39.1973C138.181 39.1973 138.753 39.6328 138.753 40.2958C138.753 40.9523 138.181 41.3878 137.349 41.3878C136.511 41.3878 135.939 40.9523 135.939 40.2958C135.939 39.6328 136.511 39.1973 137.349 39.1973ZM137.349 39.6198C136.816 39.6198 136.452 39.8863 136.452 40.2958C136.452 40.6988 136.816 40.9653 137.349 40.9653C137.876 40.9653 138.24 40.6988 138.24 40.2958C138.24 39.8863 137.876 39.6198 137.349 39.6198ZM137.076 37.7218H137.616V38.6643H137.076V37.7218ZM136.498 43.0258H140.424V43.4678H136.498V43.0258ZM136.498 41.7843H137.037V43.2143H136.498V41.7843ZM144.845 38.2288H145.287V39.2818C145.287 40.5818 144.585 41.8493 143.655 42.3433L143.324 41.9143C144.175 41.4853 144.845 40.3543 144.845 39.2818V38.2288ZM144.942 38.2288H145.378V39.2818C145.378 40.3153 146.034 41.3878 146.866 41.8038L146.535 42.2328C145.625 41.7453 144.942 40.5428 144.942 39.2818V38.2288ZM147.38 37.7218H147.926V43.5978H147.38V37.7218ZM147.796 40.1008H148.888V40.5558H147.796V40.1008ZM150.694 39.7108H151.227V40.8223H150.694V39.7108ZM152.852 39.7108H153.385V40.8223H152.852V39.7108ZM149.381 40.6273H154.692V41.0628H149.381V40.6273ZM152.033 41.5048C153.294 41.5048 154.048 41.8753 154.048 42.5448C154.048 43.2143 153.294 43.5913 152.033 43.5913C150.772 43.5913 150.018 43.2143 150.018 42.5448C150.018 41.8753 150.772 41.5048 152.033 41.5048ZM152.033 41.9208C151.117 41.9208 150.564 42.1483 150.564 42.5448C150.564 42.9478 151.117 43.1688 152.033 43.1688C152.956 43.1688 153.502 42.9478 153.502 42.5448C153.502 42.1483 152.956 41.9208 152.033 41.9208ZM152.04 37.8258C153.314 37.8258 154.107 38.2353 154.107 38.9243C154.107 39.6068 153.314 40.0098 152.04 40.0098C150.759 40.0098 149.973 39.6068 149.973 38.9243C149.973 38.2353 150.759 37.8258 152.04 37.8258ZM152.04 38.2483C151.104 38.2483 150.525 38.4953 150.525 38.9243C150.525 39.3468 151.104 39.5938 152.04 39.5938C152.976 39.5938 153.554 39.3468 153.554 38.9243C153.554 38.4953 152.976 38.2483 152.04 38.2483Z" fill="white"/>
<path d="M118.585 38.5703H115.585V44.0803H121.185V40.8972" stroke="white"/>
<path d="M116.504 40.1602L118.341 42.3022L122.228 37.5894" stroke="white"/>
</g>
</g>
<defs>
<clipPath id="clip0_12163_18303">
<rect width="345" height="47" fill="white"/>
</clipPath>
</defs>
</svg>
