<svg width="800" height="109" viewBox="0 0 800 109" fill="none" xmlns="http://www.w3.org/2000/svg">
<g clip-path="url(#clip0_12137_18734)">
<mask id="mask0_12137_18734" style="mask-type:luminance" maskUnits="userSpaceOnUse" x="0" y="0" width="800" height="109">
<path d="M800 0H0V109H800V0Z" fill="white"/>
</mask>
<g mask="url(#mask0_12137_18734)">
<path d="M221.358 46.252H245.83V50.28H221.358V46.252ZM221.358 36.79H226.412V48.076H221.358V36.79ZM217.558 54.156H249.364V58.222H217.558V54.156ZM224.778 55.6H229.832V70.382H224.778V55.6ZM237.052 55.6H242.106V70.382H237.052V55.6ZM259.621 47.088H264.675V53.586H259.621V47.088ZM272.009 47.088H277.025V53.586H272.009V47.088ZM268.399 35.802C276.151 35.802 281.129 38.424 281.129 42.68C281.129 46.974 276.151 49.596 268.399 49.596C260.647 49.596 255.669 46.974 255.669 42.68C255.669 38.424 260.647 35.802 268.399 35.802ZM268.399 39.716C263.573 39.716 260.875 40.666 260.875 42.68C260.875 44.694 263.573 45.682 268.399 45.682C273.187 45.682 275.923 44.694 275.923 42.68C275.923 40.666 273.187 39.716 268.399 39.716ZM252.477 52.484H284.283V56.474H252.477V52.484ZM256.011 58.868H280.445V70.382H275.391V62.858H256.011V58.868ZM295.58 62.7244L295.412 64.4041C295.28 65.7479 295.025 67.0865 294.648 68.4201C294.282 69.7638 293.895 70.9804 293.488 72.0696C293.091 73.1589 292.77 74.014 292.526 74.6349H288.311C288.464 74.0343 288.673 73.1945 288.938 72.1154C289.202 71.0465 289.452 69.8453 289.686 68.5117C289.92 67.1781 290.067 65.8191 290.129 64.4347L290.205 62.7244H295.58ZM315.068 56.25H342.244V70.827H336.482V60.765H315.068V56.25ZM336.482 31.009H342.244V54.358H336.482V31.009ZM320.572 33.159C326.721 33.159 331.365 37.244 331.365 42.92C331.365 48.596 326.721 52.638 320.572 52.638C314.38 52.638 309.736 48.596 309.736 42.92C309.736 37.244 314.38 33.159 320.572 33.159ZM320.572 38.018C317.562 38.018 315.326 39.781 315.326 42.92C315.326 46.059 317.562 47.865 320.572 47.865C323.582 47.865 325.775 46.059 325.775 42.92C325.775 39.781 323.582 38.018 320.572 38.018ZM363.483 33.288H368.471V36.169C368.471 44.812 362.322 52.466 352.002 54.487L349.551 49.757C358.538 48.209 363.483 41.888 363.483 36.169V33.288ZM364.644 33.288H369.589V36.169C369.589 42.017 374.491 48.209 383.521 49.757L381.07 54.487C370.75 52.466 364.644 44.941 364.644 36.169V33.288ZM348.734 61.324H384.768V65.968H348.734V61.324ZM391.386 32.084H421.056V36.341H391.386V32.084ZM391.687 41.415H420.755V45.672H391.687V41.415ZM396.46 33.761H402.179V44.167H396.46V33.761ZM410.263 33.761H415.982V44.167H410.263V33.761ZM388.247 47.736H424.238V52.208H388.247V47.736ZM392.375 54.401H419.895V64.291H398.051V67.989H392.418V60.464H414.262V58.486H392.375V54.401ZM392.418 66.398H420.927V70.569H392.418V66.398ZM427.847 61.797H463.881V66.441H427.847V61.797ZM442.94 54.272H448.659V63.689H442.94V54.272ZM431.889 33.589H459.839V46.833H437.651V53.541H431.975V42.361H454.163V38.104H431.889V33.589ZM431.975 51.262H460.742V55.863H431.975V51.262ZM494.967 30.966H500.686V70.913H494.967V30.966ZM488.732 45.328H496.128V49.929H488.732V45.328ZM468.737 56.981H472.005C478.455 56.981 483.572 56.852 489.334 55.863L489.85 60.507C483.959 61.496 478.627 61.711 472.005 61.711H468.737V56.981ZM468.651 34.363H486.582V49.327H474.413V58.4H468.737V44.812H480.949V38.921H468.651V34.363ZM535.684 31.009H541.145V70.827H535.684V31.009ZM530.911 46.274H537.49V50.918H530.911V46.274ZM527.299 31.697H532.631V68.935H527.299V31.697ZM507.218 35.481H525.407V40.039H507.218V35.481ZM507.132 61.797L506.53 57.153C511.475 57.153 519.774 57.024 525.708 56.207L526.095 60.335C519.989 61.668 511.991 61.797 507.132 61.797ZM509.712 38.405H514.829V58.357H509.712V38.405ZM517.796 38.405H522.913V58.357H517.796V38.405ZM561.266 33.288H566.254V36.169C566.254 44.812 560.105 52.466 549.785 54.487L547.334 49.757C556.321 48.209 561.266 41.888 561.266 36.169V33.288ZM562.427 33.288H567.372V36.169C567.372 42.017 572.274 48.209 581.304 49.757L578.853 54.487C568.533 52.466 562.427 44.941 562.427 36.169V33.288ZM546.517 61.324H582.551V65.968H546.517V61.324Z" fill="white"/>
<path d="M221.688 3.4505H235.964V4.9125H221.688V3.4505ZM221.774 9.105H235.878V10.5455H221.774V9.105ZM224.633 4.117H226.418V9.922H224.633V4.117ZM231.255 4.117H233.018V9.922H231.255V4.117ZM220.054 12.889H237.619V14.3295H220.054V12.889ZM227.966 10.1155H229.729V13.4695H227.966V10.1155ZM222.01 16.2645H235.448V22.177H233.663V17.705H222.01V16.2645ZM247.018 3.7085H248.803V11.6205H247.018V3.7085ZM247.018 10.6315H248.523C251.619 10.6315 254.221 10.4595 257.123 9.879L257.36 11.3625C254.35 11.943 251.684 12.115 248.523 12.115H247.018V10.6315ZM254.586 5.966H260.52V7.428H254.586V5.966ZM260.09 2.741H261.875V13.061H260.09V2.741ZM255.661 13.8135H257.295V16.3505H260.241V13.8135H261.875V21.962H255.661V13.8135ZM257.295 17.7265V20.5645H260.241V17.7265H257.295ZM248.222 14.0285H254.479V18.5005H249.985V21.1665H248.265V17.189H252.759V15.4045H248.222V14.0285ZM248.265 20.586H249.297C251.813 20.586 253.146 20.543 254.887 20.2205L255.081 21.5965C253.253 21.9405 251.877 21.962 249.297 21.962H248.265V20.586ZM265.657 12.9535H283.223V14.4155H265.657V12.9535ZM267.936 20.285H281.288V21.747H267.936V20.285ZM267.936 16.114H269.721V20.7365H267.936V16.114ZM274.451 3.386C278.6 3.386 281.288 4.848 281.288 7.2775C281.288 9.6855 278.6 11.1475 274.451 11.1475C270.28 11.1475 267.614 9.6855 267.614 7.2775C267.614 4.848 270.28 3.386 274.451 3.386ZM274.451 4.848C271.398 4.848 269.441 5.751 269.441 7.2775C269.441 8.804 271.398 9.707 274.451 9.707C277.504 9.707 279.46 8.804 279.46 7.2775C279.46 5.751 277.504 4.848 274.451 4.848ZM305.629 2.741H307.435V13.1685H305.629V2.741ZM294.901 14.136H296.664V16.501H305.672V14.136H307.435V21.919H294.901V14.136ZM296.664 17.92V20.4785H305.672V17.92H296.664ZM297.008 3.6655C299.953 3.6655 302.06 5.493 302.06 8.1375C302.06 10.8035 299.953 12.631 297.008 12.631C294.062 12.631 291.934 10.8035 291.934 8.1375C291.934 5.493 294.062 3.6655 297.008 3.6655ZM297.008 5.149C295.073 5.149 293.675 6.3745 293.675 8.1375C293.675 9.9005 295.073 11.126 297.008 11.126C298.943 11.126 300.34 9.9005 300.34 8.1375C300.34 6.3745 298.943 5.149 297.008 5.149ZM316.055 4.8265H317.517V6.396C317.517 9.965 315.367 12.9535 312.099 14.136L311.196 12.717C314.12 11.685 316.055 9.1695 316.055 6.396V4.8265ZM316.378 4.8265H317.84V6.3745C317.84 8.9115 319.689 11.1905 322.548 12.1365L321.688 13.534C318.442 12.459 316.378 9.6855 316.378 6.3745V4.8265ZM311.734 4.1815H322.118V5.6435H311.734V4.1815ZM324.569 2.741H326.354V14.4585H324.569V2.741ZM325.859 7.6645H329.235V9.1695H325.859V7.6645ZM320.162 14.9745C324.118 14.9745 326.547 16.286 326.547 18.5435C326.547 20.8225 324.118 22.134 320.162 22.134C316.206 22.134 313.776 20.8225 313.776 18.5435C313.776 16.286 316.206 14.9745 320.162 14.9745ZM320.162 16.415C317.281 16.415 315.518 17.189 315.518 18.5435C315.518 19.9195 317.281 20.7365 320.162 20.7365C323.043 20.7365 324.806 19.9195 324.806 18.5435C324.806 17.189 323.043 16.415 320.162 16.415ZM336.199 5.5145H337.639V8.675C337.639 12.7815 335.167 16.9095 332.071 18.436L331.039 17.017C333.855 15.684 336.199 12.029 336.199 8.675V5.5145ZM336.543 5.5145H337.983V8.675C337.983 11.9645 340.327 15.3185 343.186 16.544L342.176 17.963C339.037 16.501 336.543 12.717 336.543 8.675V5.5145ZM331.684 4.719H342.541V6.224H331.684V4.719ZM345.164 2.741H346.949V22.177H345.164V2.741ZM354.1 18.3622L353.978 19.1868C353.892 19.767 353.759 20.388 353.581 21.0497C353.408 21.7114 353.227 22.3349 353.039 22.9203C352.851 23.5056 352.695 23.9714 352.573 24.3175H351.199C351.265 23.9917 351.352 23.5616 351.459 23.0272C351.566 22.4927 351.672 21.8946 351.779 21.233C351.891 20.5763 351.983 19.9045 352.054 19.2173L352.146 18.3622H354.1ZM364.997 3.515H377.51V4.9555H364.997V3.515ZM362.911 10.481H380.455V11.9215H362.911V10.481ZM370.114 7.127H371.877V11.1475H370.114V7.127ZM376.478 3.515H378.241V4.7835C378.241 6.0305 378.241 7.4925 377.854 9.3845L376.091 9.234C376.478 7.3635 376.478 5.9875 376.478 4.7835V3.515ZM364.975 13.6845H378.305V18.3715H366.803V21.016H365.018V17.06H376.542V15.125H364.975V13.6845ZM365.018 20.5215H378.8V21.962H365.018V20.5215ZM395.848 2.7195H397.632V22.1985H395.848V2.7195ZM397.202 10.4595H400.814V11.9645H397.202V10.4595ZM383.464 16.028H385.012C388.667 16.028 391.204 15.899 394.149 15.34L394.343 16.8235C391.311 17.361 388.731 17.5115 385.012 17.5115H383.464V16.028ZM383.421 4.547H392.214V11.513H385.227V16.63H383.464V10.051H390.451V6.009H383.421V4.547ZM408.515 18.221H426.123V19.7045H408.515V18.221ZM416.384 13.577H418.168V18.651H416.384V13.577ZM410.579 4.117H412.342V7.5785H422.253V4.117H424.016V14.05H410.579V4.117ZM412.342 9.019V12.588H422.253V9.019H412.342ZM430.658 8.5675H443.859V10.0295H430.658V8.5675ZM428.272 12.631H445.902V14.093H428.272V12.631ZM430.658 3.4505H432.421V9.2985H430.658V3.4505ZM430.529 20.242H443.967V21.704H430.529V20.242ZM430.529 16.028H432.292V20.629H430.529V16.028ZM468.975 2.741H470.673V22.177H468.975V2.741ZM465.9 10.567H469.641V12.072H465.9V10.567ZM464.739 3.1495H466.416V21.2095H464.739V3.1495ZM458.117 5.751H459.515V7.987C459.515 12.6525 457.988 16.3935 455 18.178L453.903 16.802C456.698 15.254 458.117 11.943 458.117 7.987V5.751ZM458.44 5.751H459.837V7.987C459.837 11.556 461.278 14.7165 464.008 16.114L462.955 17.49C459.988 15.856 458.44 12.2655 458.44 7.987V5.751ZM454.355 5.02H463.385V6.5035H454.355V5.02ZM474.993 4.633H483.937V17.2965H474.993V4.633ZM482.196 6.0735H476.735V15.856H482.196V6.0735ZM488.001 2.7195H489.785V22.1985H488.001V2.7195ZM496.631 4.86364L496.479 16.1023H494.707L494.555 4.86364H496.631ZM495.593 20.6222C495.216 20.6222 494.893 20.4873 494.623 20.2175C494.354 19.9477 494.219 19.6245 494.219 19.2479C494.219 18.8712 494.354 18.548 494.623 18.2782C494.893 18.0085 495.216 17.8736 495.593 17.8736C495.97 17.8736 496.293 18.0085 496.563 18.2782C496.832 18.548 496.967 18.8712 496.967 19.2479C496.967 19.4973 496.904 19.7263 496.776 19.935C496.654 20.1437 496.489 20.3117 496.28 20.4389C496.077 20.5611 495.847 20.6222 495.593 20.6222Z" fill="white"/>
<path d="M245.04 105.179C244.162 105.179 243.387 105.023 242.714 104.712C242.045 104.397 241.523 103.964 241.148 103.415C240.773 102.861 240.587 102.23 240.591 101.523C240.587 100.969 240.696 100.457 240.917 99.9886C241.139 99.5156 241.442 99.1214 241.825 98.8061C242.213 98.4865 242.645 98.2841 243.123 98.1989V98.1222C242.496 97.9602 241.998 97.6087 241.627 97.0675C241.256 96.522 241.073 95.902 241.077 95.2074C241.073 94.5426 241.241 93.9482 241.582 93.424C241.923 92.8999 242.392 92.4865 242.988 92.1839C243.589 91.8814 244.273 91.7301 245.04 91.7301C245.799 91.7301 246.476 91.8814 247.073 92.1839C247.67 92.4865 248.138 92.8999 248.479 93.424C248.824 93.9482 248.999 94.5426 249.003 95.2074C248.999 95.902 248.809 96.522 248.434 97.0675C248.064 97.6087 247.572 97.9602 246.958 98.1222V98.1989C247.431 98.2841 247.857 98.4865 248.236 98.8061C248.616 99.1214 248.918 99.5156 249.144 99.9886C249.37 100.457 249.485 100.969 249.489 101.523C249.485 102.23 249.293 102.861 248.914 103.415C248.539 103.964 248.017 104.397 247.348 104.712C246.683 105.023 245.914 105.179 245.04 105.179ZM245.04 103.773C245.633 103.773 246.144 103.677 246.574 103.485C247.005 103.293 247.337 103.023 247.572 102.673C247.806 102.324 247.925 101.915 247.93 101.446C247.925 100.952 247.797 100.515 247.546 100.136C247.295 99.7564 246.952 99.4581 246.517 99.2408C246.086 99.0234 245.594 98.9148 245.04 98.9148C244.482 98.9148 243.983 99.0234 243.545 99.2408C243.11 99.4581 242.767 99.7564 242.515 100.136C242.268 100.515 242.147 100.952 242.151 101.446C242.147 101.915 242.26 102.324 242.49 102.673C242.724 103.023 243.059 103.293 243.493 103.485C243.928 103.677 244.444 103.773 245.04 103.773ZM245.04 97.5597C245.509 97.5597 245.925 97.4659 246.287 97.2784C246.653 97.0909 246.941 96.8288 247.15 96.4922C247.358 96.1555 247.465 95.7614 247.469 95.3097C247.465 94.8665 247.361 94.4808 247.156 94.1527C246.952 93.8203 246.668 93.5646 246.306 93.3857C245.944 93.2024 245.522 93.1108 245.04 93.1108C244.55 93.1108 244.122 93.2024 243.755 93.3857C243.389 93.5646 243.106 93.8203 242.905 94.1527C242.705 94.4808 242.607 94.8665 242.611 95.3097C242.607 95.7614 242.707 96.1555 242.912 96.4922C243.121 96.8288 243.408 97.0909 243.775 97.2784C244.141 97.4659 244.563 97.5597 245.04 97.5597ZM256.209 105.179C255.246 105.179 254.425 104.917 253.748 104.393C253.07 103.864 252.553 103.099 252.195 102.098C251.837 101.092 251.658 99.8778 251.658 98.4545C251.658 97.0398 251.837 95.8317 252.195 94.8303C252.557 93.8246 253.077 93.0575 253.754 92.5291C254.436 91.9964 255.254 91.7301 256.209 91.7301C257.163 91.7301 257.979 91.9964 258.657 92.5291C259.339 93.0575 259.859 93.8246 260.217 94.8303C260.579 95.8317 260.76 97.0398 260.76 98.4545C260.76 99.8778 260.581 101.092 260.223 102.098C259.865 103.099 259.347 103.864 258.67 104.393C257.992 104.917 257.172 105.179 256.209 105.179ZM256.209 103.773C257.163 103.773 257.905 103.312 258.433 102.392C258.962 101.472 259.226 100.159 259.226 98.4545C259.226 97.321 259.104 96.3558 258.862 95.5589C258.623 94.7621 258.278 94.1548 257.826 93.7372C257.379 93.3196 256.839 93.1108 256.209 93.1108C255.263 93.1108 254.523 93.5774 253.991 94.5107C253.458 95.4396 253.192 96.7543 253.192 98.4545C253.192 99.5881 253.311 100.551 253.55 101.344C253.788 102.136 254.131 102.739 254.579 103.153C255.031 103.566 255.574 103.773 256.209 103.773ZM270.06 93.75H274.974V94.992H270.06V93.75ZM270.06 98.898H274.974V100.14H270.06V98.898ZM267.072 91.374C269.43 91.374 271.122 93.588 271.122 97.044C271.122 100.518 269.43 102.732 267.072 102.732C264.696 102.732 263.022 100.518 263.022 97.044C263.022 93.588 264.696 91.374 267.072 91.374ZM267.072 92.724C265.506 92.724 264.426 94.416 264.426 97.044C264.426 99.69 265.506 101.418 267.072 101.418C268.638 101.418 269.718 99.69 269.718 97.044C269.718 94.416 268.638 92.724 267.072 92.724ZM274.65 90.114H276.126V106.422H274.65V90.114ZM281.038 90.906H291.514V92.112H281.038V90.906ZM279.292 97.764H293.98V98.97H279.292V97.764ZM285.322 94.488H286.798V97.944H285.322V94.488ZM290.65 90.906H292.108V92.058C292.108 93.282 292.108 94.74 291.694 96.63L290.236 96.468C290.65 94.596 290.65 93.264 290.65 92.058V90.906ZM285.826 100.248H287.104V100.968C287.104 103.866 284.242 105.792 280.912 106.35L280.336 105.162C283.324 104.748 285.826 103.11 285.826 100.968V100.248ZM286.042 100.248H287.32V100.968C287.32 103.11 289.84 104.748 292.81 105.162L292.252 106.35C288.886 105.792 286.042 103.866 286.042 100.968V100.248ZM301.125 91.302C303.663 91.302 305.481 92.868 305.481 95.136C305.481 97.422 303.663 98.988 301.125 98.988C298.587 98.988 296.751 97.422 296.751 95.136C296.751 92.868 298.587 91.302 301.125 91.302ZM301.125 92.598C299.433 92.598 298.209 93.624 298.209 95.136C298.209 96.648 299.433 97.692 301.125 97.692C302.799 97.692 304.023 96.648 304.023 95.136C304.023 93.624 302.799 92.598 301.125 92.598ZM307.605 90.114H309.099V106.422H307.605V90.114ZM296.139 102.858L295.923 101.616C298.893 101.616 302.997 101.598 306.543 101.04L306.669 102.138C303.015 102.84 299.037 102.858 296.139 102.858ZM329.298 90.132H330.81V98.862H329.298V90.132ZM320.316 99.672H321.792V101.652H329.334V99.672H330.81V106.188H320.316V99.672ZM321.792 102.84V104.982H329.334V102.84H321.792ZM322.08 90.906C324.546 90.906 326.31 92.436 326.31 94.65C326.31 96.882 324.546 98.412 322.08 98.412C319.614 98.412 317.832 96.882 317.832 94.65C317.832 92.436 319.614 90.906 322.08 90.906ZM322.08 92.148C320.46 92.148 319.29 93.174 319.29 94.65C319.29 96.126 320.46 97.152 322.08 97.152C323.7 97.152 324.87 96.126 324.87 94.65C324.87 93.174 323.7 92.148 322.08 92.148ZM338.027 91.878H339.251V93.192C339.251 96.18 337.451 98.682 334.715 99.672L333.959 98.484C336.407 97.62 338.027 95.514 338.027 93.192V91.878ZM338.297 91.878H339.521V93.174C339.521 95.298 341.069 97.206 343.463 97.998L342.743 99.168C340.025 98.268 338.297 95.946 338.297 93.174V91.878ZM334.409 91.338H343.103V92.562H334.409V91.338ZM345.155 90.132H346.649V99.942H345.155V90.132ZM346.235 94.254H349.061V95.514H346.235V94.254ZM341.465 100.374C344.777 100.374 346.811 101.472 346.811 103.362C346.811 105.27 344.777 106.368 341.465 106.368C338.153 106.368 336.119 105.27 336.119 103.362C336.119 101.472 338.153 100.374 341.465 100.374ZM341.465 101.58C339.053 101.58 337.577 102.228 337.577 103.362C337.577 104.514 339.053 105.198 341.465 105.198C343.877 105.198 345.353 104.514 345.353 103.362C345.353 102.228 343.877 101.58 341.465 101.58ZM354.891 92.454H356.097V95.1C356.097 98.538 354.027 101.994 351.435 103.272L350.571 102.084C352.929 100.968 354.891 97.908 354.891 95.1V92.454ZM355.179 92.454H356.385V95.1C356.385 97.854 358.347 100.662 360.741 101.688L359.895 102.876C357.267 101.652 355.179 98.484 355.179 95.1V92.454ZM351.111 91.788H360.201V93.048H351.111V91.788ZM362.397 90.132H363.891V106.404H362.397V90.132ZM372.256 91.2955L368.038 106.969H366.657L370.876 91.2955H372.256ZM373.546 99.978H388.288V101.22H373.546V99.978ZM380.17 100.338H381.646V106.422H380.17V100.338ZM375.508 97.098H386.65V98.322H375.508V97.098ZM375.508 90.888H386.47V92.094H376.984V97.458H375.508V90.888ZM376.552 93.966H386.074V95.136H376.552V93.966ZM394.46 91.374C396.818 91.374 398.51 93.588 398.51 97.044C398.51 100.518 396.818 102.732 394.46 102.732C392.084 102.732 390.41 100.518 390.41 97.044C390.41 93.588 392.084 91.374 394.46 91.374ZM394.46 92.724C392.894 92.724 391.832 94.416 391.832 97.044C391.832 99.69 392.894 101.418 394.46 101.418C396.026 101.418 397.088 99.69 397.088 97.044C397.088 94.416 396.026 92.724 394.46 92.724ZM402.038 90.114H403.514V106.422H402.038V90.114ZM398.024 96.324H402.686V97.548H398.024V96.324ZM420.078 93.966H424.182V95.208H420.078V93.966ZM415.812 91.122H417.018V93.12C417.018 96.27 415.254 98.898 412.536 99.996L411.762 98.808C414.174 97.908 415.812 95.604 415.812 93.12V91.122ZM416.1 91.122H417.306V93.174C417.306 95.442 418.89 97.584 421.248 98.448L420.438 99.6C417.846 98.592 416.1 96.072 416.1 93.174V91.122ZM423.624 90.15H425.118V102.318H423.624V90.15ZM414.66 104.82H425.514V106.044H414.66V104.82ZM414.66 100.968H416.154V105.396H414.66V100.968ZM428.986 97.908H430.03C432.586 97.908 434.098 97.854 435.916 97.494L436.06 98.718C434.188 99.078 432.64 99.15 430.03 99.15H428.986V97.908ZM428.986 91.32H435.286V92.544H430.426V98.574H428.986V91.32ZM429.976 94.56H435.088V95.73H429.976V94.56ZM440.578 90.132H442V99.996H440.578V90.132ZM437.95 94.38H441.028V95.604H437.95V94.38ZM436.996 90.438H438.4V99.906H436.996V90.438ZM431.092 100.86H442V106.404H440.524V102.084H431.092V100.86ZM460.921 90.114H462.433V106.404H460.921V90.114ZM462.019 96.72H465.025V97.962H462.019V96.72ZM456.763 91.878H458.221C458.221 96.504 456.097 100.68 450.841 103.326L450.013 102.174C454.513 99.888 456.763 96.414 456.763 92.112V91.878ZM450.769 91.878H457.537V93.102H450.769V91.878ZM468.48 94.65H479.514V95.874H468.48V94.65ZM468.48 90.456H469.956V95.19H468.48V90.456ZM466.482 97.764H481.188V98.97H466.482V97.764ZM473.808 100.428C477.282 100.428 479.388 101.49 479.388 103.398C479.388 105.27 477.282 106.35 473.808 106.35C470.334 106.35 468.228 105.27 468.228 103.398C468.228 101.49 470.334 100.428 473.808 100.428ZM473.808 101.598C471.27 101.598 469.74 102.246 469.74 103.398C469.74 104.514 471.27 105.162 473.808 105.162C476.364 105.162 477.876 104.514 477.876 103.398C477.876 102.246 476.364 101.598 473.808 101.598Z" fill="white"/>
<path d="M227.562 92.792H220V106.681H234.12V98.656" stroke="white" stroke-width="1.8"/>
<path d="M222.315 96.8022L226.944 102.202L236.744 90.3193" stroke="white" stroke-width="1.8"/>
</g>
</g>
<defs>
<clipPath id="clip0_12137_18734">
<rect width="800" height="109" fill="white"/>
</clipPath>
</defs>
</svg>
