<svg width="345" height="47" viewBox="0 0 345 47" fill="none" xmlns="http://www.w3.org/2000/svg">
<g clip-path="url(#clip0_12137_18721)">
<mask id="mask0_12137_18721" style="mask-type:luminance" maskUnits="userSpaceOnUse" x="0" y="0" width="345" height="47">
<path d="M345 0H0V47H345V0Z" fill="white"/>
</mask>
<g mask="url(#mask0_12137_18721)">
<path d="M119.551 22.159H126.635V23.325H119.551V22.159ZM119.551 19.42H121.014V22.687H119.551V19.42ZM118.451 24.447H127.658V25.624H118.451V24.447ZM120.541 24.865H122.004V29.144H120.541V24.865ZM124.094 24.865H125.557V29.144H124.094V24.865ZM130.627 22.401H132.09V24.282H130.627V22.401ZM134.213 22.401H135.665V24.282H134.213V22.401ZM133.168 19.134C135.412 19.134 136.853 19.893 136.853 21.125C136.853 22.368 135.412 23.127 133.168 23.127C130.924 23.127 129.483 22.368 129.483 21.125C129.483 19.893 130.924 19.134 133.168 19.134ZM133.168 20.267C131.771 20.267 130.99 20.542 130.99 21.125C130.99 21.708 131.771 21.994 133.168 21.994C134.554 21.994 135.346 21.708 135.346 21.125C135.346 20.542 134.554 20.267 133.168 20.267ZM128.559 23.963H137.766V25.118H128.559V23.963ZM129.582 25.811H136.655V29.144H135.192V26.966H129.582V25.811ZM140.711 27.0713L140.668 27.501C140.634 27.8447 140.569 28.1872 140.473 28.5283C140.379 28.8721 140.28 29.1833 140.176 29.4619C140.074 29.7406 139.992 29.9593 139.93 30.1182H138.852C138.891 29.9645 138.944 29.7497 139.012 29.4736C139.079 29.2002 139.143 28.8929 139.203 28.5518C139.263 28.2106 139.301 27.863 139.316 27.5088L139.336 27.0713H140.711ZM143.882 24.915H152.098V29.322H150.356V26.28H143.882V24.915ZM150.356 17.284H152.098V24.343H150.356V17.284ZM145.546 17.934C147.405 17.934 148.809 19.169 148.809 20.885C148.809 22.601 147.405 23.823 145.546 23.823C143.674 23.823 142.27 22.601 142.27 20.885C142.27 19.169 143.674 17.934 145.546 17.934ZM145.546 19.403C144.636 19.403 143.96 19.936 143.96 20.885C143.96 21.834 144.636 22.38 145.546 22.38C146.456 22.38 147.119 21.834 147.119 20.885C147.119 19.936 146.456 19.403 145.546 19.403ZM158.519 17.973H160.027V18.844C160.027 21.457 158.168 23.771 155.048 24.382L154.307 22.952C157.024 22.484 158.519 20.573 158.519 18.844V17.973ZM158.87 17.973H160.365V18.844C160.365 20.612 161.847 22.484 164.577 22.952L163.836 24.382C160.716 23.771 158.87 21.496 158.87 18.844V17.973ZM154.06 26.449H164.954V27.853H154.06V26.449ZM166.955 17.609H175.925V18.896H166.955V17.609ZM167.046 20.43H175.834V21.717H167.046V20.43ZM168.489 18.116H170.218V21.262H168.489V18.116ZM172.662 18.116H174.391V21.262H172.662V18.116ZM166.006 22.341H176.887V23.693H166.006V22.341ZM167.254 24.356H175.574V27.346H168.97V28.464H167.267V26.189H173.871V25.591H167.254V24.356ZM167.267 27.983H175.886V29.244H167.267V27.983ZM177.978 26.592H188.872V27.996H177.978V26.592ZM182.541 24.317H184.27V27.164H182.541V24.317ZM179.2 18.064H187.65V22.068H180.942V24.096H179.226V20.716H185.934V19.429H179.2V18.064ZM179.226 23.407H187.923V24.798H179.226V23.407ZM198.27 17.271H199.999V29.348H198.27V17.271ZM196.385 21.613H198.621V23.004H196.385V21.613ZM190.34 25.136H191.328C193.278 25.136 194.825 25.097 196.567 24.798L196.723 26.202C194.942 26.501 193.33 26.566 191.328 26.566H190.34V25.136ZM190.314 18.298H195.735V22.822H192.056V25.565H190.34V21.457H194.032V19.676H190.314V18.298ZM210.58 17.284H212.231V29.322H210.58V17.284ZM209.137 21.899H211.126V23.303H209.137V21.899ZM208.045 17.492H209.657V28.75H208.045V17.492ZM201.974 18.636H207.473V20.014H201.974V18.636ZM201.948 26.592L201.766 25.188C203.261 25.188 205.77 25.149 207.564 24.902L207.681 26.15C205.835 26.553 203.417 26.592 201.948 26.592ZM202.728 19.52H204.275V25.552H202.728V19.52ZM205.172 19.52H206.719V25.552H205.172V19.52ZM218.314 17.973H219.822V18.844C219.822 21.457 217.963 23.771 214.843 24.382L214.102 22.952C216.819 22.484 218.314 20.573 218.314 18.844V17.973ZM218.665 17.973H220.16V18.844C220.16 20.612 221.642 22.484 224.372 22.952L223.631 24.382C220.511 23.771 218.665 21.496 218.665 18.844V17.973ZM213.855 26.449H224.749V27.853H213.855V26.449Z" fill="white"/>
<path d="M119.875 3.61404H124.523V4.09004H119.875V3.61404ZM119.903 5.45504H124.495V5.92404H119.903V5.45504ZM120.834 3.83104H121.415V5.72104H120.834V3.83104ZM122.99 3.83104H123.564V5.72104H122.99V3.83104ZM119.343 6.68704H125.062V7.15604H119.343V6.68704ZM121.919 5.78404H122.493V6.87604H121.919V5.78404ZM119.98 7.78604H124.355V9.71104H123.774V8.25504H119.98V7.78604ZM128.122 3.69804H128.703V6.27404H128.122V3.69804ZM128.122 5.95204H128.612C129.62 5.95204 130.467 5.89604 131.412 5.70704L131.489 6.19004C130.509 6.37904 129.641 6.43504 128.612 6.43504H128.122V5.95204ZM130.586 4.43304H132.518V4.90904H130.586V4.43304ZM132.378 3.38304H132.959V6.74304H132.378V3.38304ZM130.936 6.98804H131.468V7.81404H132.427V6.98804H132.959V9.64104H130.936V6.98804ZM131.468 8.26204V9.18604H132.427V8.26204H131.468ZM128.514 7.05804H130.551V8.51404H129.088V9.38204H128.528V8.08704H129.991V7.50604H128.514V7.05804ZM128.528 9.19304H128.864C129.683 9.19304 130.117 9.17904 130.684 9.07404L130.747 9.52204C130.152 9.63404 129.704 9.64104 128.864 9.64104H128.528V9.19304ZM134.191 6.70804H139.91V7.18404H134.191V6.70804ZM134.933 9.09504H139.28V9.57104H134.933V9.09504ZM134.933 7.73704H135.514V9.24204H134.933V7.73704ZM137.054 3.59304C138.405 3.59304 139.28 4.06904 139.28 4.86004C139.28 5.64404 138.405 6.12004 137.054 6.12004C135.696 6.12004 134.828 5.64404 134.828 4.86004C134.828 4.06904 135.696 3.59304 137.054 3.59304ZM137.054 4.06904C136.06 4.06904 135.423 4.36304 135.423 4.86004C135.423 5.35704 136.06 5.65104 137.054 5.65104C138.048 5.65104 138.685 5.35704 138.685 4.86004C138.685 4.36304 138.048 4.06904 137.054 4.06904ZM147.205 3.38304H147.793V6.77804H147.205V3.38304ZM143.712 7.09304H144.286V7.86304H147.219V7.09304H147.793V9.62704H143.712V7.09304ZM144.286 8.32504V9.15804H147.219V8.32504H144.286ZM144.398 3.68404C145.357 3.68404 146.043 4.27904 146.043 5.14004C146.043 6.00804 145.357 6.60304 144.398 6.60304C143.439 6.60304 142.746 6.00804 142.746 5.14004C142.746 4.27904 143.439 3.68404 144.398 3.68404ZM144.398 4.16704C143.768 4.16704 143.313 4.56604 143.313 5.14004C143.313 5.71404 143.768 6.11304 144.398 6.11304C145.028 6.11304 145.483 5.71404 145.483 5.14004C145.483 4.56604 145.028 4.16704 144.398 4.16704ZM150.599 4.06204H151.075V4.57304C151.075 5.73504 150.375 6.70804 149.311 7.09304L149.017 6.63104C149.969 6.29504 150.599 5.47604 150.599 4.57304V4.06204ZM150.704 4.06204H151.18V4.56604C151.18 5.39204 151.782 6.13404 152.713 6.44204L152.433 6.89704C151.376 6.54704 150.704 5.64404 150.704 4.56604V4.06204ZM149.192 3.85204H152.573V4.32804H149.192V3.85204ZM153.371 3.38304H153.952V7.19804H153.371V3.38304ZM153.791 4.98604H154.89V5.47604H153.791V4.98604ZM151.936 7.36604C153.224 7.36604 154.015 7.79304 154.015 8.52804C154.015 9.27004 153.224 9.69704 151.936 9.69704C150.648 9.69704 149.857 9.27004 149.857 8.52804C149.857 7.79304 150.648 7.36604 151.936 7.36604ZM151.936 7.83504C150.998 7.83504 150.424 8.08704 150.424 8.52804C150.424 8.97604 150.998 9.24204 151.936 9.24204C152.874 9.24204 153.448 8.97604 153.448 8.52804C153.448 8.08704 152.874 7.83504 151.936 7.83504ZM157.158 4.28604H157.627V5.31504C157.627 6.65204 156.822 7.99604 155.814 8.49304L155.478 8.03104C156.395 7.59704 157.158 6.40704 157.158 5.31504V4.28604ZM157.27 4.28604H157.739V5.31504C157.739 6.38604 158.502 7.47804 159.433 7.87704L159.104 8.33904C158.082 7.86304 157.27 6.63104 157.27 5.31504V4.28604ZM155.688 4.02704H159.223V4.51704H155.688V4.02704ZM160.077 3.38304H160.658V9.71104H160.077V3.38304ZM162.986 8.46902L162.946 8.73748C162.918 8.9264 162.875 9.12858 162.817 9.34402C162.761 9.55945 162.702 9.76246 162.641 9.95304C162.579 10.1436 162.529 10.2952 162.489 10.4079H162.042C162.063 10.3019 162.091 10.1618 162.126 9.98784C162.161 9.81383 162.196 9.61911 162.23 9.40368C162.267 9.1899 162.297 8.97115 162.32 8.74743L162.35 8.46902H162.986ZM166.534 3.63504H170.608V4.10404H166.534V3.63504ZM165.855 5.90304H171.567V6.37204H165.855V5.90304ZM168.2 4.81104H168.774V6.12004H168.2V4.81104ZM170.272 3.63504H170.846V4.04804C170.846 4.45404 170.846 4.93004 170.72 5.54604L170.146 5.49704C170.272 4.88804 170.272 4.44004 170.272 4.04804V3.63504ZM166.527 6.94604H170.867V8.47204H167.122V9.33304H166.541V8.04504H170.293V7.41504H166.527V6.94604ZM166.541 9.17204H171.028V9.64104H166.541V9.17204ZM176.578 3.37604H177.159V9.71804H176.578V3.37604ZM177.019 5.89604H178.195V6.38604H177.019V5.89604ZM172.546 7.70904H173.05C174.24 7.70904 175.066 7.66704 176.025 7.48504L176.088 7.96804C175.101 8.14304 174.261 8.19204 173.05 8.19204H172.546V7.70904ZM172.532 3.97104H175.395V6.23904H173.12V7.90504H172.546V5.76304H174.821V4.44704H172.532V3.97104ZM180.703 8.42304H186.436V8.90604H180.703V8.42304ZM183.265 6.91104H183.846V8.56304H183.265V6.91104ZM181.375 3.83104H181.949V4.95804H185.176V3.83104H185.75V7.06504H181.375V3.83104ZM181.949 5.42704V6.58904H185.176V5.42704H181.949ZM187.912 5.28004H192.21V5.75604H187.912V5.28004ZM187.135 6.60304H192.875V7.07904H187.135V6.60304ZM187.912 3.61404H188.486V5.51804H187.912V3.61404ZM187.87 9.08104H192.245V9.55704H187.87V9.08104ZM187.87 7.70904H188.444V9.20704H187.87V7.70904ZM200.387 3.38304H200.94V9.71104H200.387V3.38304ZM199.386 5.93104H200.604V6.42104H199.386V5.93104ZM199.008 3.51604H199.554V9.39604H199.008V3.51604ZM196.852 4.36304H197.307V5.09104C197.307 6.61004 196.81 7.82804 195.837 8.40904L195.48 7.96104C196.39 7.45704 196.852 6.37904 196.852 5.09104V4.36304ZM196.957 4.36304H197.412V5.09104C197.412 6.25304 197.881 7.28204 198.77 7.73704L198.427 8.18504C197.461 7.65304 196.957 6.48404 196.957 5.09104V4.36304ZM195.627 4.12504H198.567V4.60804H195.627V4.12504ZM202.347 3.99904H205.259V8.12204H202.347V3.99904ZM204.692 4.46804H202.914V7.65304H204.692V4.46804ZM206.582 3.37604H207.163V9.71804H206.582V3.37604ZM209.392 4.07413L209.342 7.73322H208.765L208.715 4.07413H209.392ZM209.054 9.20481C208.931 9.20481 208.826 9.1609 208.738 9.07306C208.65 8.98523 208.606 8.88 208.606 8.75737C208.606 8.63474 208.65 8.5295 208.738 8.44167C208.826 8.35384 208.931 8.30993 209.054 8.30993C209.176 8.30993 209.281 8.35384 209.369 8.44167C209.457 8.5295 209.501 8.63474 209.501 8.75737C209.501 8.83857 209.48 8.91315 209.439 8.98109C209.399 9.04904 209.345 9.10372 209.277 9.14515C209.211 9.18493 209.136 9.20481 209.054 9.20481Z" fill="white"/>
<path d="M129.321 43.1555C129.004 43.1555 128.723 43.0993 128.48 42.9869C128.239 42.8731 128.05 42.7169 127.915 42.5184C127.779 42.3183 127.712 42.0906 127.714 41.8351C127.712 41.6351 127.752 41.4504 127.832 41.2812C127.912 41.1104 128.021 40.968 128.16 40.8541C128.3 40.7387 128.456 40.6656 128.628 40.6349V40.6072C128.402 40.5487 128.222 40.4217 128.088 40.2263C127.954 40.0293 127.888 39.8054 127.889 39.5546C127.888 39.3145 127.949 39.0999 128.072 38.9106C128.195 38.7213 128.364 38.5721 128.58 38.4628C128.797 38.3535 129.044 38.2989 129.321 38.2989C129.594 38.2989 129.839 38.3535 130.055 38.4628C130.27 38.5721 130.439 38.7213 130.562 38.9106C130.687 39.0999 130.75 39.3145 130.752 39.5546C130.75 39.8054 130.682 40.0293 130.546 40.2263C130.412 40.4217 130.235 40.5487 130.013 40.6072V40.6349C130.184 40.6656 130.338 40.7387 130.475 40.8541C130.612 40.968 130.721 41.1104 130.802 41.2812C130.884 41.4504 130.926 41.6351 130.927 41.8351C130.926 42.0906 130.856 42.3183 130.719 42.5184C130.584 42.7169 130.395 42.8731 130.154 42.9869C129.914 43.0993 129.636 43.1555 129.321 43.1555ZM129.321 42.6476C129.534 42.6476 129.719 42.613 129.875 42.5438C130.03 42.4745 130.15 42.3768 130.235 42.2506C130.319 42.1244 130.362 41.9767 130.364 41.8074C130.362 41.6289 130.316 41.4712 130.225 41.3343C130.135 41.1973 130.011 41.0896 129.854 41.0111C129.698 40.9326 129.521 40.8934 129.321 40.8934C129.119 40.8934 128.939 40.9326 128.78 41.0111C128.623 41.0896 128.5 41.1973 128.409 41.3343C128.32 41.4712 128.276 41.6289 128.277 41.8074C128.276 41.9767 128.316 42.1244 128.4 42.2506C128.484 42.3768 128.605 42.4745 128.762 42.5438C128.919 42.613 129.105 42.6476 129.321 42.6476ZM129.321 40.404C129.49 40.404 129.64 40.3702 129.771 40.3025C129.903 40.2348 130.007 40.1401 130.082 40.0186C130.158 39.897 130.196 39.7546 130.198 39.5915C130.196 39.4315 130.158 39.2922 130.085 39.1737C130.011 39.0537 129.908 38.9614 129.778 38.8968C129.647 38.8306 129.494 38.7975 129.321 38.7975C129.144 38.7975 128.989 38.8306 128.857 38.8968C128.724 38.9614 128.622 39.0537 128.55 39.1737C128.477 39.2922 128.442 39.4315 128.443 39.5915C128.442 39.7546 128.478 39.897 128.552 40.0186C128.627 40.1401 128.731 40.2348 128.864 40.3025C128.996 40.3702 129.148 40.404 129.321 40.404ZM133.354 43.1555C133.006 43.1555 132.71 43.0608 132.465 42.8715C132.22 42.6807 132.033 42.4045 131.904 42.0429C131.775 41.6797 131.71 41.2412 131.71 40.7272C131.71 40.2163 131.775 39.78 131.904 39.4184C132.035 39.0552 132.223 38.7783 132.467 38.5874C132.713 38.3951 133.009 38.2989 133.354 38.2989C133.698 38.2989 133.993 38.3951 134.238 38.5874C134.484 38.7783 134.672 39.0552 134.801 39.4184C134.932 39.78 134.997 40.2163 134.997 40.7272C134.997 41.2412 134.932 41.6797 134.803 42.0429C134.674 42.4045 134.487 42.6807 134.242 42.8715C133.998 43.0608 133.701 43.1555 133.354 43.1555ZM133.354 42.6476C133.698 42.6476 133.966 42.4814 134.157 42.1491C134.348 41.8167 134.443 41.3427 134.443 40.7272C134.443 40.3179 134.399 39.9693 134.312 39.6816C134.225 39.3938 134.101 39.1745 133.938 39.0237C133.776 38.8729 133.581 38.7975 133.354 38.7975C133.012 38.7975 132.745 38.966 132.553 39.303C132.36 39.6385 132.264 40.1132 132.264 40.7272C132.264 41.1365 132.307 41.4843 132.393 41.7705C132.48 42.0567 132.603 42.2745 132.765 42.4237C132.928 42.573 133.124 42.6476 133.354 42.6476ZM138.355 39.0283H140.13V39.4768H138.355V39.0283ZM138.355 40.8873H140.13V41.3358H138.355V40.8873ZM137.276 38.1703C138.128 38.1703 138.739 38.9698 138.739 40.2178C138.739 41.4723 138.128 42.2718 137.276 42.2718C136.418 42.2718 135.814 41.4723 135.814 40.2178C135.814 38.9698 136.418 38.1703 137.276 38.1703ZM137.276 38.6578C136.711 38.6578 136.321 39.2688 136.321 40.2178C136.321 41.1733 136.711 41.7973 137.276 41.7973C137.842 41.7973 138.232 41.1733 138.232 40.2178C138.232 39.2688 137.842 38.6578 137.276 38.6578ZM140.013 37.7153H140.546V43.6043H140.013V37.7153ZM142.32 38.0013H146.103V38.4368H142.32V38.0013ZM141.689 40.4778H146.993V40.9133H141.689V40.4778ZM143.867 39.2948H144.4V40.5428H143.867V39.2948ZM145.791 38.0013H146.317V38.4173C146.317 38.8593 146.317 39.3858 146.168 40.0683L145.641 40.0098C145.791 39.3338 145.791 38.8528 145.791 38.4173V38.0013ZM144.049 41.3748H144.51V41.6348C144.51 42.6813 143.477 43.3768 142.274 43.5783L142.066 43.1493C143.145 42.9998 144.049 42.4083 144.049 41.6348V41.3748ZM144.127 41.3748H144.588V41.6348C144.588 42.4083 145.498 42.9998 146.571 43.1493L146.369 43.5783C145.154 43.3768 144.127 42.6813 144.127 41.6348V41.3748ZM149.573 38.1443C150.49 38.1443 151.146 38.7098 151.146 39.5288C151.146 40.3543 150.49 40.9198 149.573 40.9198C148.657 40.9198 147.994 40.3543 147.994 39.5288C147.994 38.7098 148.657 38.1443 149.573 38.1443ZM149.573 38.6123C148.962 38.6123 148.52 38.9828 148.52 39.5288C148.52 40.0748 148.962 40.4518 149.573 40.4518C150.178 40.4518 150.62 40.0748 150.62 39.5288C150.62 38.9828 150.178 38.6123 149.573 38.6123ZM151.913 37.7153H152.453V43.6043H151.913V37.7153ZM147.773 42.3173L147.695 41.8688C148.767 41.8688 150.249 41.8623 151.53 41.6608L151.575 42.0573C150.256 42.3108 148.819 42.3173 147.773 42.3173ZM159.747 37.7218H160.293V40.8743H159.747V37.7218ZM156.503 41.1668H157.036V41.8818H159.76V41.1668H160.293V43.5198H156.503V41.1668ZM157.036 42.3108V43.0843H159.76V42.3108H157.036ZM157.14 38.0013C158.031 38.0013 158.668 38.5538 158.668 39.3533C158.668 40.1593 158.031 40.7118 157.14 40.7118C156.25 40.7118 155.606 40.1593 155.606 39.3533C155.606 38.5538 156.25 38.0013 157.14 38.0013ZM157.14 38.4498C156.555 38.4498 156.133 38.8203 156.133 39.3533C156.133 39.8863 156.555 40.2568 157.14 40.2568C157.725 40.2568 158.148 39.8863 158.148 39.3533C158.148 38.8203 157.725 38.4498 157.14 38.4498ZM162.899 38.3523H163.341V38.8268C163.341 39.9058 162.691 40.8093 161.703 41.1668L161.43 40.7378C162.314 40.4258 162.899 39.6653 162.899 38.8268V38.3523ZM162.996 38.3523H163.438V38.8203C163.438 39.5873 163.997 40.2763 164.862 40.5623L164.602 40.9848C163.62 40.6598 162.996 39.8213 162.996 38.8203V38.3523ZM161.592 38.1573H164.732V38.5993H161.592V38.1573ZM165.473 37.7218H166.012V41.2643H165.473V37.7218ZM165.863 39.2103H166.883V39.6653H165.863V39.2103ZM164.14 41.4203C165.336 41.4203 166.071 41.8168 166.071 42.4993C166.071 43.1883 165.336 43.5848 164.14 43.5848C162.944 43.5848 162.21 43.1883 162.21 42.4993C162.21 41.8168 162.944 41.4203 164.14 41.4203ZM164.14 41.8558C163.269 41.8558 162.736 42.0898 162.736 42.4993C162.736 42.9153 163.269 43.1623 164.14 43.1623C165.011 43.1623 165.544 42.9153 165.544 42.4993C165.544 42.0898 165.011 41.8558 164.14 41.8558ZM168.989 38.5603H169.424V39.5158C169.424 40.7573 168.677 42.0053 167.741 42.4668L167.429 42.0378C168.28 41.6348 168.989 40.5298 168.989 39.5158V38.5603ZM169.093 38.5603H169.528V39.5158C169.528 40.5103 170.237 41.5243 171.101 41.8948L170.796 42.3238C169.847 41.8818 169.093 40.7378 169.093 39.5158V38.5603ZM167.624 38.3198H170.906V38.7748H167.624V38.3198ZM171.699 37.7218H172.239V43.5978H171.699V37.7218ZM175.26 38.142L173.736 43.8018H173.238L174.761 38.142H175.26ZM175.725 41.2773H181.049V41.7258H175.725V41.2773ZM178.117 41.4073H178.65V43.6043H178.117V41.4073ZM176.434 40.2373H180.457V40.6793H176.434V40.2373ZM176.434 37.9948H180.392V38.4303H176.967V40.3673H176.434V37.9948ZM176.811 39.1063H180.249V39.5288H176.811V39.1063ZM183.278 38.1703C184.129 38.1703 184.74 38.9698 184.74 40.2178C184.74 41.4723 184.129 42.2718 183.278 42.2718C182.42 42.2718 181.815 41.4723 181.815 40.2178C181.815 38.9698 182.42 38.1703 183.278 38.1703ZM183.278 38.6578C182.712 38.6578 182.329 39.2688 182.329 40.2178C182.329 41.1733 182.712 41.7973 183.278 41.7973C183.843 41.7973 184.227 41.1733 184.227 40.2178C184.227 39.2688 183.843 38.6578 183.278 38.6578ZM186.014 37.7153H186.547V43.6043H186.014V37.7153ZM184.565 39.9578H186.248V40.3998H184.565V39.9578ZM192.528 39.1063H194.01V39.5548H192.528V39.1063ZM190.988 38.0793H191.423V38.8008C191.423 39.9383 190.786 40.8873 189.805 41.2838L189.525 40.8548C190.396 40.5298 190.988 39.6978 190.988 38.8008V38.0793ZM191.092 38.0793H191.527V38.8203C191.527 39.6393 192.099 40.4128 192.951 40.7248L192.658 41.1408C191.722 40.7768 191.092 39.8668 191.092 38.8203V38.0793ZM193.809 37.7283H194.348V42.1223H193.809V37.7283ZM190.572 43.0258H194.491V43.4678H190.572V43.0258ZM190.572 41.6348H191.111V43.2338H190.572V41.6348ZM195.745 40.5298H196.122C197.045 40.5298 197.591 40.5103 198.248 40.3803L198.3 40.8223C197.624 40.9523 197.065 40.9783 196.122 40.9783H195.745V40.5298ZM195.745 38.1508H198.02V38.5928H196.265V40.7703H195.745V38.1508ZM196.103 39.3208H197.949V39.7433H196.103V39.3208ZM199.931 37.7218H200.445V41.2838H199.931V37.7218ZM198.982 39.2558H200.094V39.6978H198.982V39.2558ZM198.638 37.8323H199.145V41.2513H198.638V37.8323ZM196.506 41.5958H200.445V43.5978H199.912V42.0378H196.506V41.5958ZM207.278 37.7153H207.824V43.5978H207.278V37.7153ZM207.674 40.1008H208.76V40.5493H207.674V40.1008ZM205.776 38.3523H206.303C206.303 40.0228 205.536 41.5308 203.638 42.4863L203.339 42.0703C204.964 41.2448 205.776 39.9903 205.776 38.4368V38.3523ZM203.612 38.3523H206.056V38.7943H203.612V38.3523ZM210.007 39.3533H213.992V39.7953H210.007V39.3533ZM210.007 37.8388H210.54V39.5483H210.007V37.8388ZM209.286 40.4778H214.596V40.9133H209.286V40.4778ZM211.931 41.4398C213.186 41.4398 213.946 41.8233 213.946 42.5123C213.946 43.1883 213.186 43.5783 211.931 43.5783C210.677 43.5783 209.916 43.1883 209.916 42.5123C209.916 41.8233 210.677 41.4398 211.931 41.4398ZM211.931 41.8623C211.015 41.8623 210.462 42.0963 210.462 42.5123C210.462 42.9153 211.015 43.1493 211.931 43.1493C212.854 43.1493 213.4 42.9153 213.4 42.5123C213.4 42.0963 212.854 41.8623 211.931 41.8623Z" fill="white"/>
<path d="M122.585 38.5703H119.585V44.0803H125.185V40.8972" stroke="white"/>
<path d="M120.504 40.1602L122.341 42.3022L126.228 37.5894" stroke="white"/>
</g>
</g>
<defs>
<clipPath id="clip0_12137_18721">
<rect width="345" height="47" fill="white"/>
</clipPath>
</defs>
</svg>
