<svg width="801" height="110" viewBox="0 0 801 110" fill="none" xmlns="http://www.w3.org/2000/svg">
<mask id="mask0_46_2" style="mask-type:luminance" maskUnits="userSpaceOnUse" x="0" y="0" width="801" height="110">
<path d="M800.5 0.5H0.5V109.5H800.5V0.5Z" fill="white"/>
</mask>
<g mask="url(#mask0_46_2)">
<mask id="mask1_46_2" style="mask-type:luminance" maskUnits="userSpaceOnUse" x="0" y="0" width="801" height="110">
<path d="M800.5 0.5H0.5V109.5H800.5V0.5Z" fill="white"/>
</mask>
<g mask="url(#mask1_46_2)">
<path d="M167.3 46.825H194.992V51.383H167.3V46.825ZM167.3 36.118H173.019V48.889H167.3V36.118ZM163 55.769H198.991V60.37H163V55.769ZM171.17 57.403H176.889V74.13H171.17V57.403ZM185.059 57.403H190.778V74.13H185.059V57.403ZM210.598 47.771H216.317V55.124H210.598V47.771ZM224.616 47.771H230.292V55.124H224.616V47.771ZM220.531 35C229.303 35 234.936 37.967 234.936 42.783C234.936 47.642 229.303 50.609 220.531 50.609C211.759 50.609 206.126 47.642 206.126 42.783C206.126 37.967 211.759 35 220.531 35ZM220.531 39.429C215.07 39.429 212.017 40.504 212.017 42.783C212.017 45.062 215.07 46.18 220.531 46.18C225.949 46.18 229.045 45.062 229.045 42.783C229.045 40.504 225.949 39.429 220.531 39.429ZM202.514 53.877H238.505V58.392H202.514V53.877ZM206.513 61.101H234.162V74.13H228.443V65.616H206.513V61.101ZM266.397 45.679H275.973V49.745H266.397V45.679ZM266.397 56.585H275.973V60.651H266.397V56.585ZM260.317 40.929C265.561 40.929 269.399 45.793 269.399 53.469C269.399 61.221 265.561 66.085 260.317 66.085C255.035 66.085 251.235 61.221 251.235 53.469C251.235 45.793 255.035 40.929 260.317 40.929ZM260.317 45.527C257.771 45.527 256.023 48.301 256.023 53.469C256.023 58.713 257.771 61.525 260.317 61.525C262.901 61.525 264.611 58.713 264.611 53.469C264.611 48.301 262.901 45.527 260.317 45.527ZM275.175 38.459H280.191V73.761H275.175V38.459ZM310.816 38.497H315.604V60.537H310.816V38.497ZM306.522 47.161H312.146V51.265H306.522V47.161ZM303.52 39.181H308.232V59.397H303.52V39.181ZM285.47 42.107H302.532V45.983H285.47V42.107ZM294.058 47.123C298.466 47.123 301.658 49.631 301.658 53.279C301.658 56.927 298.466 59.397 294.058 59.397C289.65 59.397 286.458 56.927 286.458 53.279C286.458 49.631 289.65 47.123 294.058 47.123ZM294.058 50.733C292.196 50.733 290.942 51.645 290.942 53.279C290.942 54.913 292.196 55.825 294.058 55.825C295.882 55.825 297.136 54.913 297.136 53.279C297.136 51.645 295.882 50.733 294.058 50.733ZM291.512 38.839H296.49V44.767H291.512V38.839ZM303.71 60.917C311.234 60.917 315.794 63.197 315.794 67.301C315.794 71.367 311.234 73.685 303.71 73.685C296.148 73.685 291.588 71.367 291.588 67.301C291.588 63.197 296.148 60.917 303.71 60.917ZM303.71 64.679C298.998 64.679 296.642 65.477 296.642 67.301C296.642 69.087 298.998 69.923 303.71 69.923C308.384 69.923 310.74 69.087 310.74 67.301C310.74 65.477 308.384 64.679 303.71 64.679ZM331.903 40.815C337.451 40.815 341.593 44.425 341.593 49.479C341.593 54.571 337.451 58.181 331.903 58.181C326.393 58.181 322.175 54.571 322.175 49.479C322.175 44.425 326.393 40.815 331.903 40.815ZM331.903 45.147C329.205 45.147 327.153 46.743 327.153 49.479C327.153 52.253 329.205 53.849 331.903 53.849C334.601 53.849 336.653 52.253 336.653 49.479C336.653 46.743 334.601 45.147 331.903 45.147ZM344.899 38.459H349.953V73.761H344.899V38.459ZM321.339 66.617L320.731 62.551C326.925 62.551 335.551 62.475 342.961 61.373L343.341 65.021C335.703 66.541 327.419 66.617 321.339 66.617ZM372.919 41.195H377.023V46.325C377.023 55.369 373.907 63.539 366.915 66.769L363.913 62.589C370.031 59.929 372.919 53.165 372.919 46.325V41.195ZM373.907 41.195H378.011V46.325C378.011 52.823 380.785 59.283 386.789 61.867L383.825 65.933C377.023 62.817 373.907 54.989 373.907 46.325V41.195ZM388.461 38.459H393.553V73.761H388.461V38.459ZM407.116 42.107H411.258V44.311C411.258 50.961 408.104 56.927 401.378 59.093L398.756 55.179C404.646 53.279 407.116 48.719 407.116 44.311V42.107ZM408.142 42.107H412.246V44.311C412.246 48.453 414.64 52.747 420.34 54.571L417.756 58.485C411.182 56.357 408.142 50.619 408.142 44.311V42.107ZM400.124 40.549H419.124V44.577H400.124V40.549ZM421.936 38.497H426.99V59.701H421.936V38.497ZM425.584 47.009H431.664V51.151H425.584V47.009ZM403.506 61.221H426.99V73.685H421.936V65.287H403.506V61.221ZM447.903 70.303L442.262 49.5757H448.078L451.29 63.5019H451.479L454.826 49.5757H460.534L463.934 63.4209H464.11L467.267 49.5757H473.07L467.443 70.303H461.357L457.794 57.2675H457.538L453.975 70.303H447.903ZM476.137 70.303V49.5757H481.885V70.303H476.137ZM479.024 46.9039C478.17 46.9039 477.436 46.6205 476.825 46.0537C476.222 45.478 475.921 44.7897 475.921 43.9891C475.921 43.1974 476.222 42.5182 476.825 41.9514C477.436 41.3757 478.17 41.0878 479.024 41.0878C479.879 41.0878 480.608 41.3757 481.21 41.9514C481.822 42.5182 482.128 43.1974 482.128 43.9891C482.128 44.7897 481.822 45.478 481.21 46.0537C480.608 46.6205 479.879 46.9039 479.024 46.9039ZM497.515 49.5757V53.8939H485.033V49.5757H497.515ZM487.866 44.6098H493.615V63.9337C493.615 64.4645 493.696 64.8783 493.858 65.1752C494.02 65.463 494.245 65.6655 494.533 65.7824C494.83 65.8994 495.171 65.9578 495.558 65.9578C495.828 65.9578 496.098 65.9353 496.368 65.8904C496.638 65.8364 496.845 65.7959 496.989 65.7689L497.893 70.0466C497.605 70.1366 497.2 70.24 496.678 70.357C496.156 70.4829 495.522 70.5594 494.776 70.5864C493.39 70.6404 492.176 70.4559 491.132 70.0331C490.097 69.6103 489.292 68.9536 488.717 68.0629C488.141 67.1723 487.857 66.0478 487.866 64.6894V44.6098ZM507.453 58.32V70.303H501.705V42.6666H507.292V53.2327H507.534C508.002 52.0092 508.758 51.0511 509.801 50.3584C510.845 49.6567 512.154 49.3058 513.728 49.3058C515.168 49.3058 516.423 49.6207 517.493 50.2504C518.573 50.8712 519.409 51.7663 520.003 52.9358C520.606 54.0963 520.903 55.4862 520.894 57.1056V70.303H515.145V58.1311C515.154 56.8537 514.83 55.8596 514.174 55.1489C513.526 54.4382 512.617 54.0828 511.448 54.0828C510.665 54.0828 509.972 54.2493 509.37 54.5821C508.776 54.915 508.308 55.4008 507.966 56.0395C507.633 56.6692 507.462 57.4294 507.453 58.32ZM528.778 70.6539C527.887 70.6539 527.123 70.339 526.484 69.7092C525.854 69.0705 525.539 68.3058 525.539 67.4152C525.539 66.5336 525.854 65.7779 526.484 65.1482C527.123 64.5184 527.887 64.2036 528.778 64.2036C529.641 64.2036 530.397 64.5184 531.045 65.1482C531.693 65.7779 532.016 66.5336 532.016 67.4152C532.016 68.009 531.864 68.5532 531.558 69.048C531.261 69.5338 530.869 69.9252 530.384 70.222C529.898 70.5099 529.363 70.6539 528.778 70.6539ZM537.33 61.639H540.294C546.222 61.639 550.744 61.563 555.988 60.727L556.444 64.755C551.124 65.591 546.336 65.743 540.294 65.743H537.33V61.639ZM537.33 41.423H553.86V45.527H542.422V62.969H537.33V41.423ZM541.206 51.189H553.366V55.141H541.206V51.189ZM558.458 38.497H563.55V73.685H558.458V38.497ZM562.41 51.835H568.642V56.015H562.41V51.835ZM572.667 41.651H589.577V65.325H572.667V41.651ZM584.637 45.603H577.645V61.335H584.637V45.603ZM595.049 38.459H600.141V73.761H595.049V38.459ZM618.948 40.511H623.356V43.057C623.356 50.695 617.922 57.459 608.802 59.245L606.636 55.065C614.578 53.697 618.948 48.111 618.948 43.057V40.511ZM619.974 40.511H624.344V43.057C624.344 48.225 628.676 53.697 636.656 55.065L634.49 59.245C625.37 57.459 619.974 50.809 619.974 43.057V40.511ZM605.914 65.287H637.758V69.391H605.914V65.287Z" fill="white"/>
</g>
</g>
</svg>
