<svg width="801" height="110" viewBox="0 0 801 110" fill="none" xmlns="http://www.w3.org/2000/svg">
<g clip-path="url(#clip0_25_33)">
<mask id="mask0_25_33" style="mask-type:luminance" maskUnits="userSpaceOnUse" x="0" y="0" width="801" height="110">
<path d="M800.5 0.5H0.5V109.5H800.5V0.5Z" fill="white"/>
</mask>
<g mask="url(#mask0_25_33)">
<path d="M167.063 17.022H194.755V21.58H167.063V17.022ZM167.063 6.315H172.782V19.086H167.063V6.315ZM162.763 25.966H198.754V30.567H162.763V25.966ZM170.933 27.6H176.652V44.327H170.933V27.6ZM184.822 27.6H190.541V44.327H184.822V27.6ZM210.361 17.968H216.08V25.321H210.361V17.968ZM224.379 17.968H230.055V25.321H224.379V17.968ZM220.294 5.197C229.066 5.197 234.699 8.164 234.699 12.98C234.699 17.839 229.066 20.806 220.294 20.806C211.522 20.806 205.889 17.839 205.889 12.98C205.889 8.164 211.522 5.197 220.294 5.197ZM220.294 9.626C214.833 9.626 211.78 10.701 211.78 12.98C211.78 15.259 214.833 16.377 220.294 16.377C225.712 16.377 228.808 15.259 228.808 12.98C228.808 10.701 225.712 9.626 220.294 9.626ZM202.277 24.074H238.268V28.589H202.277V24.074ZM206.276 31.298H233.925V44.327H228.206V35.813H206.276V31.298ZM266.16 15.876H275.736V19.942H266.16V15.876ZM266.16 26.782H275.736V30.848H266.16V26.782ZM260.08 11.126C265.324 11.126 269.162 15.99 269.162 23.666C269.162 31.418 265.324 36.282 260.08 36.282C254.798 36.282 250.998 31.418 250.998 23.666C250.998 15.99 254.798 11.126 260.08 11.126ZM260.08 15.724C257.534 15.724 255.786 18.498 255.786 23.666C255.786 28.91 257.534 31.722 260.08 31.722C262.664 31.722 264.374 28.91 264.374 23.666C264.374 18.498 262.664 15.724 260.08 15.724ZM274.938 8.656H279.954V43.958H274.938V8.656ZM310.579 8.694H315.367V30.734H310.579V8.694ZM306.285 17.358H311.909V21.462H306.285V17.358ZM303.283 9.378H307.995V29.594H303.283V9.378ZM285.233 12.304H302.295V16.18H285.233V12.304ZM293.821 17.32C298.229 17.32 301.421 19.828 301.421 23.476C301.421 27.124 298.229 29.594 293.821 29.594C289.413 29.594 286.221 27.124 286.221 23.476C286.221 19.828 289.413 17.32 293.821 17.32ZM293.821 20.93C291.959 20.93 290.705 21.842 290.705 23.476C290.705 25.11 291.959 26.022 293.821 26.022C295.645 26.022 296.899 25.11 296.899 23.476C296.899 21.842 295.645 20.93 293.821 20.93ZM291.275 9.036H296.253V14.964H291.275V9.036ZM303.473 31.114C310.997 31.114 315.557 33.394 315.557 37.498C315.557 41.564 310.997 43.882 303.473 43.882C295.911 43.882 291.351 41.564 291.351 37.498C291.351 33.394 295.911 31.114 303.473 31.114ZM303.473 34.876C298.761 34.876 296.405 35.674 296.405 37.498C296.405 39.284 298.761 40.12 303.473 40.12C308.147 40.12 310.503 39.284 310.503 37.498C310.503 35.674 308.147 34.876 303.473 34.876ZM331.666 11.012C337.214 11.012 341.356 14.622 341.356 19.676C341.356 24.768 337.214 28.378 331.666 28.378C326.156 28.378 321.938 24.768 321.938 19.676C321.938 14.622 326.156 11.012 331.666 11.012ZM331.666 15.344C328.968 15.344 326.916 16.94 326.916 19.676C326.916 22.45 328.968 24.046 331.666 24.046C334.364 24.046 336.416 22.45 336.416 19.676C336.416 16.94 334.364 15.344 331.666 15.344ZM344.662 8.656H349.716V43.958H344.662V8.656ZM321.102 36.814L320.494 32.748C326.688 32.748 335.314 32.672 342.724 31.57L343.104 35.218C335.466 36.738 327.182 36.814 321.102 36.814ZM372.682 11.392H376.786V16.522C376.786 25.566 373.67 33.736 366.678 36.966L363.676 32.786C369.794 30.126 372.682 23.362 372.682 16.522V11.392ZM373.67 11.392H377.774V16.522C377.774 23.02 380.548 29.48 386.552 32.064L383.588 36.13C376.786 33.014 373.67 25.186 373.67 16.522V11.392ZM388.224 8.656H393.316V43.958H388.224V8.656ZM406.879 12.304H411.021V14.508C411.021 21.158 407.867 27.124 401.141 29.29L398.519 25.376C404.409 23.476 406.879 18.916 406.879 14.508V12.304ZM407.905 12.304H412.009V14.508C412.009 18.65 414.403 22.944 420.103 24.768L417.519 28.682C410.945 26.554 407.905 20.816 407.905 14.508V12.304ZM399.887 10.746H418.887V14.774H399.887V10.746ZM421.699 8.694H426.753V29.898H421.699V8.694ZM425.347 17.206H431.427V21.348H425.347V17.206ZM403.269 31.418H426.753V43.882H421.699V35.484H403.269V31.418ZM447.666 40.5L442.025 19.7727H447.841L451.053 33.6989H451.242L454.589 19.7727H460.297L463.697 33.6179H463.873L467.03 19.7727H472.833L467.206 40.5H461.12L457.557 27.4645H457.301L453.738 40.5H447.666ZM475.9 40.5V19.7727H481.648V40.5H475.9ZM478.787 17.1009C477.933 17.1009 477.199 16.8175 476.588 16.2507C475.985 15.675 475.684 14.9867 475.684 14.1861C475.684 13.3944 475.985 12.7152 476.588 12.1484C477.199 11.5727 477.933 11.2848 478.787 11.2848C479.642 11.2848 480.371 11.5727 480.973 12.1484C481.585 12.7152 481.891 13.3944 481.891 14.1861C481.891 14.9867 481.585 15.675 480.973 16.2507C480.371 16.8175 479.642 17.1009 478.787 17.1009ZM497.278 19.7727V24.0909H484.796V19.7727H497.278ZM487.629 14.8068H493.378V34.1307C493.378 34.6615 493.459 35.0753 493.621 35.3722C493.783 35.66 494.008 35.8625 494.296 35.9794C494.593 36.0964 494.934 36.1548 495.321 36.1548C495.591 36.1548 495.861 36.1323 496.131 36.0874C496.401 36.0334 496.608 35.9929 496.752 35.9659L497.656 40.2436C497.368 40.3336 496.963 40.437 496.441 40.554C495.919 40.6799 495.285 40.7564 494.539 40.7834C493.153 40.8374 491.939 40.6529 490.895 40.2301C489.86 39.8073 489.055 39.1506 488.48 38.2599C487.904 37.3693 487.62 36.2448 487.629 34.8864V14.8068ZM507.216 28.517V40.5H501.468V12.8636H507.055V23.4297H507.297C507.765 22.2062 508.521 21.2481 509.564 20.5554C510.608 19.8537 511.917 19.5028 513.491 19.5028C514.931 19.5028 516.186 19.8177 517.256 20.4474C518.336 21.0682 519.172 21.9633 519.766 23.1328C520.369 24.2933 520.666 25.6832 520.657 27.3026V40.5H514.908V28.3281C514.917 27.0507 514.593 26.0566 513.937 25.3459C513.289 24.6352 512.38 24.2798 511.211 24.2798C510.428 24.2798 509.735 24.4463 509.133 24.7791C508.539 25.112 508.071 25.5978 507.729 26.2365C507.396 26.8662 507.225 27.6264 507.216 28.517ZM528.541 40.8509C527.65 40.8509 526.886 40.536 526.247 39.9062C525.617 39.2675 525.302 38.5028 525.302 37.6122C525.302 36.7306 525.617 35.9749 526.247 35.3452C526.886 34.7154 527.65 34.4006 528.541 34.4006C529.404 34.4006 530.16 34.7154 530.808 35.3452C531.456 35.9749 531.779 36.7306 531.779 37.6122C531.779 38.206 531.627 38.7502 531.321 39.245C531.024 39.7308 530.632 40.1222 530.147 40.419C529.661 40.7069 529.126 40.8509 528.541 40.8509ZM537.093 31.836H540.057C545.985 31.836 550.507 31.76 555.751 30.924L556.207 34.952C550.887 35.788 546.099 35.94 540.057 35.94H537.093V31.836ZM537.093 11.62H553.623V15.724H542.185V33.166H537.093V11.62ZM540.969 21.386H553.129V25.338H540.969V21.386ZM558.221 8.694H563.313V43.882H558.221V8.694ZM562.173 22.032H568.405V26.212H562.173V22.032ZM572.43 11.848H589.34V35.522H572.43V11.848ZM584.4 15.8H577.408V31.532H584.4V15.8ZM594.812 8.656H599.904V43.958H594.812V8.656ZM618.711 10.708H623.119V13.254C623.119 20.892 617.685 27.656 608.565 29.442L606.399 25.262C614.341 23.894 618.711 18.308 618.711 13.254V10.708ZM619.737 10.708H624.107V13.254C624.107 18.422 628.439 23.894 636.419 25.262L634.253 29.442C625.133 27.656 619.737 21.006 619.737 13.254V10.708ZM605.677 35.484H637.521V39.588H605.677V35.484Z" fill="white"/>
<path d="M360.746 89.122H362.204V91.642H366.884V89.122H368.36V96.808H360.746V89.122ZM362.204 92.83V95.62H366.884V92.83H362.204ZM362.366 98.878H373.238V104.404H371.726V100.084H362.366V98.878ZM371.726 88.132H373.238V97.978H371.726V88.132ZM380.113 89.482C382.219 89.482 383.587 91.66 383.587 95.152C383.587 98.644 382.219 100.822 380.113 100.822C378.007 100.822 376.657 98.644 376.657 95.152C376.657 91.66 378.007 89.482 380.113 89.482ZM380.113 90.868C378.835 90.868 378.025 92.524 378.025 95.152C378.025 97.78 378.835 99.436 380.113 99.436C381.391 99.436 382.201 97.78 382.201 95.152C382.201 92.524 381.391 90.868 380.113 90.868ZM388.843 88.132H390.283V104.404H388.843V88.132ZM386.269 94.576H389.383V95.8H386.269V94.576ZM385.243 88.474H386.665V103.594H385.243V88.474ZM394.367 88.618H406.319V89.788H394.367V88.618ZM394.439 92.884H406.247V94.036H394.439V92.884ZM396.833 89.068H398.327V93.64H396.833V89.068ZM402.377 89.068H403.853V93.64H402.377V89.068ZM392.999 95.386H407.705V96.592H392.999V95.386ZM394.781 98.014H405.833V101.578H396.293V103.54H394.817V100.516H404.357V99.13H394.781V98.014ZM394.817 103.09H406.319V104.224H394.817V103.09ZM421.96 88.132H423.4V104.404H421.96V88.132ZM419.386 94.666H422.5V95.908H419.386V94.666ZM418.432 88.492H419.836V103.576H418.432V88.492ZM409.72 90.166H417.244V91.39H409.72V90.166ZM409.576 100.408L409.396 99.148C411.538 99.148 415.066 99.076 417.55 98.752L417.658 99.85C415.084 100.336 411.7 100.408 409.576 100.408ZM411.106 90.958H412.474V99.472H411.106V90.958ZM414.49 90.958H415.858V99.472H414.49V90.958ZM432.65 89.248H433.946V90.49C433.946 94.036 430.652 96.79 427.394 97.528L426.728 96.286C429.59 95.746 432.65 93.262 432.65 90.49V89.248ZM432.92 89.248H434.216V90.49C434.216 93.28 437.294 95.746 440.138 96.286L439.472 97.528C436.232 96.79 432.92 94.054 432.92 90.49V89.248ZM426.134 100.984H440.876V102.208H426.134V100.984Z" fill="white"/>
<path d="M448 84H353C348.029 84 344 88.0294 344 93V99C344 103.971 348.029 108 353 108H448C452.971 108 457 103.971 457 99V93C457 88.0294 452.971 84 448 84Z" stroke="white" stroke-width="2"/>
</g>
</g>
<defs>
<clipPath id="clip0_25_33">
<rect width="800" height="109" fill="white" transform="translate(0.5 0.5)"/>
</clipPath>
</defs>
</svg>
