<svg width="346" height="47" viewBox="0 0 346 47" fill="none" xmlns="http://www.w3.org/2000/svg">
<mask id="mask0_46_25" style="mask-type:luminance" maskUnits="userSpaceOnUse" x="0" y="0" width="346" height="47">
<path d="M345.5 0H0.5V47H345.5V0Z" fill="white"/>
</mask>
<g mask="url(#mask0_46_25)">
<mask id="mask1_46_25" style="mask-type:luminance" maskUnits="userSpaceOnUse" x="0" y="0" width="346" height="47">
<path d="M345.5 0H0.5V47H345.5V0Z" fill="white"/>
</mask>
<g mask="url(#mask1_46_25)">
<path d="M104.833 21.575H113.205V22.953H104.833V21.575ZM104.833 18.338H106.562V22.199H104.833V18.338ZM103.533 24.279H114.414V25.67H103.533V24.279ZM106.003 24.773H107.732V29.83H106.003V24.773ZM110.202 24.773H111.931V29.83H110.202V24.773ZM117.923 21.861H119.652V24.084H117.923V21.861ZM122.161 21.861H123.877V24.084H122.161V21.861ZM120.926 18C123.578 18 125.281 18.897 125.281 20.353C125.281 21.822 123.578 22.719 120.926 22.719C118.274 22.719 116.571 21.822 116.571 20.353C116.571 18.897 118.274 18 120.926 18ZM120.926 19.339C119.275 19.339 118.352 19.664 118.352 20.353C118.352 21.042 119.275 21.38 120.926 21.38C122.564 21.38 123.5 21.042 123.5 20.353C123.5 19.664 122.564 19.339 120.926 19.339ZM115.479 23.707H126.36V25.072H115.479V23.707ZM116.688 25.891H125.047V29.83H123.318V27.256H116.688V25.891ZM134.921 21.545H137.693V22.722H134.921V21.545ZM134.921 24.702H137.693V25.879H134.921V24.702ZM133.161 20.17C134.679 20.17 135.79 21.578 135.79 23.8C135.79 26.044 134.679 27.452 133.161 27.452C131.632 27.452 130.532 26.044 130.532 23.8C130.532 21.578 131.632 20.17 133.161 20.17ZM133.161 21.501C132.424 21.501 131.918 22.304 131.918 23.8C131.918 25.318 132.424 26.132 133.161 26.132C133.909 26.132 134.404 25.318 134.404 23.8C134.404 22.304 133.909 21.501 133.161 21.501ZM137.462 19.455H138.914V29.674H137.462V19.455ZM147.779 19.466H149.165V25.846H147.779V19.466ZM146.536 21.974H148.164V23.162H146.536V21.974ZM145.667 19.664H147.031V25.516H145.667V19.664ZM140.442 20.511H145.381V21.633H140.442V20.511ZM142.928 21.963C144.204 21.963 145.128 22.689 145.128 23.745C145.128 24.801 144.204 25.516 142.928 25.516C141.652 25.516 140.728 24.801 140.728 23.745C140.728 22.689 141.652 21.963 142.928 21.963ZM142.928 23.008C142.389 23.008 142.026 23.272 142.026 23.745C142.026 24.218 142.389 24.482 142.928 24.482C143.456 24.482 143.819 24.218 143.819 23.745C143.819 23.272 143.456 23.008 142.928 23.008ZM142.191 19.565H143.632V21.281H142.191V19.565ZM145.722 25.956C147.9 25.956 149.22 26.616 149.22 27.804C149.22 28.981 147.9 29.652 145.722 29.652C143.533 29.652 142.213 28.981 142.213 27.804C142.213 26.616 143.533 25.956 145.722 25.956ZM145.722 27.045C144.358 27.045 143.676 27.276 143.676 27.804C143.676 28.321 144.358 28.563 145.722 28.563C147.075 28.563 147.757 28.321 147.757 27.804C147.757 27.276 147.075 27.045 145.722 27.045ZM153.883 20.137C155.489 20.137 156.688 21.182 156.688 22.645C156.688 24.119 155.489 25.164 153.883 25.164C152.288 25.164 151.067 24.119 151.067 22.645C151.067 21.182 152.288 20.137 153.883 20.137ZM153.883 21.391C153.102 21.391 152.508 21.853 152.508 22.645C152.508 23.448 153.102 23.91 153.883 23.91C154.664 23.91 155.258 23.448 155.258 22.645C155.258 21.853 154.664 21.391 153.883 21.391ZM157.645 19.455H159.108V29.674H157.645V19.455ZM150.825 27.606L150.649 26.429C152.442 26.429 154.939 26.407 157.084 26.088L157.194 27.144C154.983 27.584 152.585 27.606 150.825 27.606ZM165.756 20.247H166.944V21.732C166.944 24.35 166.042 26.715 164.018 27.65L163.149 26.44C164.92 25.67 165.756 23.712 165.756 21.732V20.247ZM166.042 20.247H167.23V21.732C167.23 23.613 168.033 25.483 169.771 26.231L168.913 27.408C166.944 26.506 166.042 24.24 166.042 21.732V20.247ZM170.255 19.455H171.729V29.674H170.255V19.455ZM175.655 20.511H176.854V21.149C176.854 23.074 175.941 24.801 173.994 25.428L173.235 24.295C174.94 23.745 175.655 22.425 175.655 21.149V20.511ZM175.952 20.511H177.14V21.149C177.14 22.348 177.833 23.591 179.483 24.119L178.735 25.252C176.832 24.636 175.952 22.975 175.952 21.149V20.511ZM173.631 20.06H179.131V21.226H173.631V20.06ZM179.945 19.466H181.408V25.604H179.945V19.466ZM181.001 21.93H182.761V23.129H181.001V21.93ZM174.61 26.044H181.408V29.652H179.945V27.221H174.61V26.044ZM187.462 28.673L185.829 22.673H187.513L188.442 26.7042H188.497L189.466 22.673H191.118L192.103 26.6808H192.153L193.067 22.673H194.747L193.118 28.673H191.356L190.325 24.8996H190.251L189.22 28.673H187.462ZM195.635 28.673V22.673H197.299V28.673H195.635ZM196.471 21.8996C196.223 21.8996 196.011 21.8175 195.834 21.6535C195.66 21.4868 195.572 21.2876 195.572 21.0558C195.572 20.8266 195.66 20.63 195.834 20.466C196.011 20.2993 196.223 20.216 196.471 20.216C196.718 20.216 196.929 20.2993 197.104 20.466C197.281 20.63 197.369 20.8266 197.369 21.0558C197.369 21.2876 197.281 21.4868 197.104 21.6535C196.929 21.8175 196.718 21.8996 196.471 21.8996ZM201.823 22.673V23.923H198.21V22.673H201.823ZM199.03 21.2355H200.694V26.8292C200.694 26.9829 200.718 27.1027 200.765 27.1886C200.812 27.272 200.877 27.3306 200.96 27.3644C201.046 27.3983 201.145 27.4152 201.257 27.4152C201.335 27.4152 201.413 27.4087 201.491 27.3957C201.569 27.38 201.629 27.3683 201.671 27.3605L201.933 28.5988C201.849 28.6248 201.732 28.6548 201.581 28.6886C201.43 28.7251 201.246 28.7472 201.03 28.755C200.629 28.7707 200.278 28.7173 199.976 28.5949C199.676 28.4725 199.443 28.2824 199.276 28.0246C199.11 27.7667 199.028 27.4412 199.03 27.048V21.2355ZM204.7 25.2042V28.673H203.036V20.673H204.653V23.7316H204.724C204.859 23.3774 205.078 23.1001 205.38 22.8996C205.682 22.6964 206.061 22.5949 206.517 22.5949C206.933 22.5949 207.297 22.686 207.606 22.8683C207.919 23.048 208.161 23.3071 208.333 23.6457C208.507 23.9816 208.593 24.3839 208.591 24.8527V28.673H206.927V25.1496C206.929 24.7798 206.836 24.492 206.646 24.2863C206.458 24.0806 206.195 23.9777 205.856 23.9777C205.63 23.9777 205.429 24.0259 205.255 24.1222C205.083 24.2186 204.948 24.3592 204.849 24.5441C204.752 24.7264 204.703 24.9464 204.7 25.2042ZM210.873 28.7746C210.615 28.7746 210.394 28.6834 210.209 28.5011C210.027 28.3162 209.936 28.0949 209.936 27.8371C209.936 27.5819 210.027 27.3631 210.209 27.1808C210.394 26.9985 210.615 26.9074 210.873 26.9074C211.123 26.9074 211.342 26.9985 211.529 27.1808C211.717 27.3631 211.811 27.5819 211.811 27.8371C211.811 28.0089 211.766 28.1665 211.678 28.3097C211.592 28.4503 211.479 28.5636 211.338 28.6496C211.197 28.7329 211.042 28.7746 210.873 28.7746ZM213.349 26.165H214.207C215.923 26.165 217.232 26.143 218.75 25.901L218.882 27.067C217.342 27.309 215.956 27.353 214.207 27.353H213.349V26.165ZM213.349 20.313H218.134V21.501H214.823V26.55H213.349V20.313ZM214.471 23.14H217.991V24.284H214.471V23.14ZM219.465 19.466H220.939V29.652H219.465V19.466ZM220.609 23.327H222.413V24.537H220.609V23.327ZM223.578 20.379H228.473V27.232H223.578V20.379ZM227.043 21.523H225.019V26.077H227.043V21.523ZM230.057 19.455H231.531V29.674H230.057V19.455ZM236.975 20.049H238.251V20.786C238.251 22.997 236.678 24.955 234.038 25.472L233.411 24.262C235.71 23.866 236.975 22.249 236.975 20.786V20.049ZM237.272 20.049H238.537V20.786C238.537 22.282 239.791 23.866 242.101 24.262L241.474 25.472C238.834 24.955 237.272 23.03 237.272 20.786V20.049ZM233.202 27.221H242.42V28.409H233.202V27.221Z" fill="white"/>
</g>
</g>
</svg>
