<svg width="345" height="47" viewBox="0 0 345 47" fill="none" xmlns="http://www.w3.org/2000/svg">
<g clip-path="url(#clip0_12135_18527)">
<mask id="mask0_12135_18527" style="mask-type:luminance" maskUnits="userSpaceOnUse" x="0" y="0" width="345" height="47">
<path d="M345 0H0V47H345V0Z" fill="white"/>
</mask>
<g mask="url(#mask0_12135_18527)">
<path d="M77.254 21.387H79.63V22.553H77.254V21.387ZM79.201 21.387H80.62V21.97C80.62 22.751 80.62 23.884 80.114 25.402L78.695 25.215C79.201 23.708 79.201 22.718 79.201 21.97V21.387ZM81.225 21.387H83.843V22.553H81.225V21.387ZM83.172 21.387H84.58V22.036C84.58 22.861 84.58 23.961 84.151 25.468L82.732 25.281C83.172 23.807 83.172 22.828 83.172 22.036V21.387ZM76.44 24.83H85.658V25.996H76.44V24.83ZM80.301 25.699H81.753V27.778H80.301V25.699ZM77.562 27.294H84.503V31.034H77.562V27.294ZM83.062 28.438H78.992V29.879H83.062V28.438ZM86.5591 25.688H95.7661V26.876H86.5591V25.688ZM90.3871 26.7H91.8501V31.133H90.3871V26.7ZM87.2851 21.574H89.6611V22.729H87.2851V21.574ZM89.1881 21.574H90.6291V22.223C90.6291 23.125 90.6291 24.39 90.1231 26.183L88.6931 25.952C89.1881 24.258 89.1881 23.103 89.1881 22.223V21.574ZM91.3221 21.574H93.9841V22.729H91.3221V21.574ZM93.3241 21.574H94.7651V22.289C94.7651 23.213 94.7651 24.456 94.3691 26.172L92.9391 25.963C93.3241 24.335 93.3241 23.191 93.3241 22.289V21.574ZM97.2833 25.864H98.0973C99.9123 25.864 101.056 25.809 102.354 25.567L102.475 26.733C101.155 26.975 99.9563 27.03 98.0973 27.03H97.2833V25.864ZM97.2833 21.651H101.903V22.817H98.7353V26.161H97.2833V21.651ZM103.74 20.958H105.203V28.372H103.74V20.958ZM101.32 23.609H104.015V24.764H101.32V23.609ZM98.4713 29.824H105.434V30.99H98.4713V29.824ZM98.4713 27.767H99.9453V30.583H98.4713V27.767ZM110.454 24.159H117.538V25.325H110.454V24.159ZM110.454 21.42H111.917V24.687H110.454V21.42ZM109.354 26.447H118.561V27.624H109.354V26.447ZM111.444 26.865H112.907V31.144H111.444V26.865ZM114.997 26.865H116.46V31.144H114.997V26.865ZM121.53 24.401H122.993V26.282H121.53V24.401ZM125.116 24.401H126.568V26.282H125.116V24.401ZM124.071 21.134C126.315 21.134 127.756 21.893 127.756 23.125C127.756 24.368 126.315 25.127 124.071 25.127C121.827 25.127 120.386 24.368 120.386 23.125C120.386 21.893 121.827 21.134 124.071 21.134ZM124.071 22.267C122.674 22.267 121.893 22.542 121.893 23.125C121.893 23.708 122.674 23.994 124.071 23.994C125.457 23.994 126.249 23.708 126.249 23.125C126.249 22.542 125.457 22.267 124.071 22.267ZM119.462 25.963H128.669V27.118H119.462V25.963ZM120.485 27.811H127.558V31.144H126.095V28.966H120.485V27.811ZM137.584 23.587H139.96V24.764H137.584V23.587ZM139.19 20.969H140.653V28.394H139.19V20.969ZM133.932 29.802H140.884V30.968H133.932V29.802ZM133.932 27.767H135.395V30.495H133.932V27.767ZM134.482 22.3H135.67V22.938C135.67 24.852 134.768 26.623 132.81 27.272L132.073 26.106C133.756 25.556 134.482 24.225 134.482 22.938V22.3ZM134.79 22.3H135.967V22.938C135.967 24.126 136.66 25.391 138.266 25.93L137.551 27.074C135.659 26.447 134.79 24.753 134.79 22.938V22.3ZM132.469 21.651H137.947V22.806H132.469V21.651ZM147.153 22.564H149.54V23.73H147.153V22.564ZM147.076 24.676H149.463V25.842H147.076V24.676ZM149.309 20.958H150.772V26.821H149.309V20.958ZM145.987 21.651H147.549C147.549 24.423 145.987 26.205 142.896 27.052L142.324 25.897C144.909 25.226 145.987 23.95 145.987 22.355V21.651ZM142.885 21.651H147.01V22.817H142.885V21.651ZM147.395 26.953C149.463 26.953 150.838 27.745 150.838 29.021C150.838 30.297 149.463 31.1 147.395 31.1C145.327 31.1 143.952 30.297 143.952 29.021C143.952 27.745 145.327 26.953 147.395 26.953ZM147.395 28.075C146.152 28.075 145.404 28.394 145.404 29.021C145.404 29.648 146.152 29.956 147.395 29.956C148.649 29.956 149.397 29.648 149.397 29.021C149.397 28.394 148.649 28.075 147.395 28.075ZM155.522 28.5741L155.46 29.1991C155.411 29.6991 155.316 30.1972 155.176 30.6934C155.039 31.1934 154.895 31.6461 154.744 32.0514C154.596 32.4567 154.477 32.7749 154.386 33.0059H152.818C152.875 32.7825 152.952 32.47 153.051 32.0684C153.149 31.6707 153.242 31.2238 153.329 30.7275C153.416 30.2313 153.471 29.7256 153.494 29.2105L153.522 28.5741H155.522ZM160.888 24.341H161.889C164.229 24.341 165.607 24.302 167.18 24.016L167.362 25.368C165.75 25.654 164.294 25.706 161.889 25.706H160.888V24.341ZM160.888 19.882H166.543V21.247H162.617V24.965H160.888V19.882ZM162.084 22.118H166.283V23.457H162.084V22.118ZM168.194 19.284H169.923V25.953H168.194V19.284ZM169.442 21.871H171.522V23.288H169.442V21.871ZM162.058 26.447H163.774V27.474H168.207V26.447H169.923V31.192H162.058V26.447ZM163.774 28.8V29.814H168.207V28.8H163.774ZM179.99 26.057H181.719V28.8H179.99V26.057ZM180.861 19.895C183.435 19.895 185.359 21.208 185.359 23.21C185.359 25.238 183.435 26.538 180.861 26.538C178.287 26.538 176.363 25.238 176.363 23.21C176.363 21.208 178.287 19.895 180.861 19.895ZM180.861 21.26C179.21 21.26 178.066 21.988 178.066 23.21C178.066 24.458 179.21 25.173 180.861 25.173C182.512 25.173 183.656 24.458 183.656 23.21C183.656 21.988 182.512 21.26 180.861 21.26ZM175.427 28.527H186.321V29.931H175.427V28.527ZM187.386 28.475H198.28V29.892H187.386V28.475ZM188.53 20.064H190.246V22.014H195.381V20.064H197.097V26.486H188.53V20.064ZM190.246 23.353V25.121H195.381V23.353H190.246ZM202.912 27.032H203.887C206.019 27.032 207.41 26.98 208.97 26.694L209.139 28.085C207.527 28.384 206.084 28.449 203.887 28.449H202.912V27.032ZM202.912 20.35H208.359V21.728H204.641V27.565H202.912V20.35ZM210.725 19.284H212.454V31.361H210.725V19.284ZM207.774 23.431H211.453V24.835H207.774V23.431ZM217.737 24.783H218.751C221.117 24.783 222.573 24.731 224.237 24.419L224.393 25.797C222.703 26.122 221.182 26.187 218.751 26.187H217.737V24.783ZM217.724 19.947H223.223V23.652H219.453V25.446H217.737V22.365H221.52V21.325H217.724V19.947ZM225.056 19.297H226.785V26.603H225.056V19.297ZM226.291 22.157H228.384V23.574H226.291V22.157ZM218.751 27.149H226.785V31.322H225.056V28.527H218.751V27.149ZM238.724 22.391H241.532V23.782H238.724V22.391ZM240.622 19.297H242.351V28.072H240.622V19.297ZM234.408 29.736H242.624V31.114H234.408V29.736ZM234.408 27.331H236.137V30.555H234.408V27.331ZM235.058 20.87H236.462V21.624C236.462 23.886 235.396 25.979 233.082 26.746L232.211 25.368C234.2 24.718 235.058 23.145 235.058 21.624V20.87ZM235.422 20.87H236.813V21.624C236.813 23.028 237.632 24.523 239.53 25.16L238.685 26.512C236.449 25.771 235.422 23.769 235.422 21.624V20.87ZM232.679 20.103H239.153V21.468H232.679V20.103ZM244.586 20.142H250.319V25.537H244.586V20.142ZM248.616 21.507H246.289V24.172H248.616V21.507ZM251.983 19.284H253.712V26.265H251.983V19.284ZM253.231 21.975H255.311V23.392H253.231V21.975ZM249.786 26.577C252.269 26.577 253.855 27.474 253.855 28.956C253.855 30.451 252.269 31.335 249.786 31.335C247.29 31.335 245.704 30.451 245.704 28.956C245.704 27.474 247.29 26.577 249.786 26.577ZM249.786 27.942C248.252 27.942 247.42 28.267 247.42 28.956C247.42 29.658 248.252 29.983 249.786 29.983C251.32 29.983 252.139 29.658 252.139 28.956C252.139 28.267 251.32 27.942 249.786 27.942ZM264.891 19.284H266.529V31.322H264.891V19.284ZM263.279 23.912H265.281V25.303H263.279V23.912ZM262.2 19.492H263.799V30.75H262.2V19.492ZM256.532 27.188H257.377C258.859 27.188 260.094 27.136 261.524 26.876L261.654 28.28C260.198 28.566 258.924 28.605 257.377 28.605H256.532V27.188ZM256.532 20.675H260.978V22.066H258.248V27.864H256.532V20.675Z" fill="white"/>
<path d="M77.616 7.70904H78.113C79.282 7.70904 80.087 7.68104 81.039 7.51304L81.102 7.98904C80.122 8.15704 79.296 8.19204 78.113 8.19204H77.616V7.70904ZM77.616 3.95704H80.563V4.44004H78.197V7.87704H77.616V3.95704ZM78.05 5.72804H80.423V6.19704H78.05V5.72804ZM81.627 3.38304H82.215V9.71104H81.627V3.38304ZM82.075 5.92404H83.251V6.41404H82.075V5.92404ZM84.1465 3.99904H87.0585V8.12204H84.1465V3.99904ZM86.4915 4.46804H84.7135V7.65304H86.4915V4.46804ZM88.3815 3.37604H88.9625V9.71804H88.3815V3.37604ZM92.7629 3.81704H93.2669V4.30004C93.2669 5.67904 91.9859 6.75004 90.7189 7.03704L90.4599 6.55404C91.5729 6.34404 92.7629 5.37804 92.7629 4.30004V3.81704ZM92.8679 3.81704H93.3719V4.30004C93.3719 5.38504 94.5689 6.34404 95.6749 6.55404L95.4159 7.03704C94.1559 6.75004 92.8679 5.68604 92.8679 4.30004V3.81704ZM90.2289 8.38104H95.9619V8.85704H90.2289V8.38104ZM96.6684 8.45104H102.401V8.93404H96.6684V8.45104ZM99.2304 7.09304H99.8114V8.65404H99.2304V7.09304ZM97.3614 3.85204H101.694V5.77004H97.9564V7.03704H97.3824V5.30104H101.12V4.32104H97.3614V3.85204ZM97.3824 6.79204H101.841V7.26804H97.3824V6.79204ZM106.974 6.32304H107.548V7.51304H106.974V6.32304ZM106.064 7.33104H106.645V8.01004H109.648V7.33104H110.222V9.62704H106.064V7.33104ZM106.645 8.46504V9.15804H109.648V8.46504H106.645ZM109.641 3.38304H110.222V7.01604H109.641V3.38304ZM105.161 6.63104L105.084 6.15504C106.267 6.15504 107.842 6.14804 109.221 5.96604L109.263 6.38604C107.849 6.62404 106.316 6.63104 105.161 6.63104ZM106.897 3.53704H107.366V3.85204C107.366 4.76904 106.673 5.49004 105.616 5.75604L105.357 5.31504C106.281 5.09104 106.897 4.51704 106.897 3.85204V3.53704ZM107.023 3.53704H107.499V3.85204C107.499 4.49604 108.122 5.02804 109.025 5.21704L108.78 5.66504C107.73 5.42004 107.023 4.74104 107.023 3.85204V3.53704ZM112.118 4.01304H116.192V4.49604H112.118V4.01304ZM111.516 8.34604H117.235V8.82904H111.516V8.34604ZM113.735 6.08504H114.316V8.58404H113.735V6.08504ZM115.975 4.01304H116.549V4.64304C116.549 5.42704 116.549 6.29504 116.318 7.57604L115.737 7.49904C115.975 6.28804 115.975 5.39904 115.975 4.64304V4.01304ZM124.383 3.38304H124.957V9.71104H124.383V3.38304ZM124.628 5.85404H125.797V6.33704H124.628V5.85404ZM120.036 3.97104H120.533V5.59504H121.303V3.97104H121.786V8.17804H120.036V3.97104ZM120.533 6.05704V7.70204H121.303V6.05704H120.533ZM122.122 3.97104H122.612V5.59504H123.361V3.97104H123.851V8.17804H122.122V3.97104ZM122.612 6.05704V7.70204H123.361V6.05704H122.612ZM126.364 8.43004H132.097V8.92004H126.364V8.43004ZM127.057 3.86604H131.39V5.78404H127.652V7.05104H127.078V5.32204H130.816V4.34204H127.057V3.86604ZM127.078 6.80604H131.537V7.28204H127.078V6.80604ZM137.619 3.38304H138.179V9.71104H137.619V3.38304ZM134.875 5.96604H136.471V6.43504H134.875V5.96604ZM136.303 3.54404H136.849V9.38904H136.303V3.54404ZM134.952 4.18104H135.512C135.512 5.84004 134.847 7.33104 133.139 8.34604L132.796 7.93304C134.287 7.03704 134.952 5.77704 134.952 4.28604V4.18104ZM133.076 4.18104H135.169V4.65704H133.076V4.18104Z" fill="white"/>
<path d="M85.8894 43.0908V38.3635H88.7424V38.8714H86.4619V40.4687H88.5947V40.9765H86.4619V42.583H88.7794V43.0908H85.8894ZM91.7316 40.4733V40.9811H89.6634V40.4733H91.7316ZM92.887 41.7388H93.355C94.4535 41.7388 95.2205 41.7063 96.124 41.5568L96.176 41.9923C95.253 42.1548 94.473 42.1873 93.355 42.1873H92.887V41.7388ZM92.887 38.2548H95.734V38.7033H93.42V41.8948H92.887V38.2548ZM93.29 39.8993H95.5195V40.3348H93.29V39.8993ZM96.7935 37.7218H97.333V43.5978H96.7935V37.7218ZM100.635 39.4443H101.928V39.8798H100.635V39.4443ZM102.955 37.7218H103.469V41.7128H102.955V37.7218ZM101.792 37.8258H102.305V41.1863H101.792V37.8258ZM101.233 41.3683H101.694V41.5568C101.694 42.6098 100.622 43.3703 99.4385 43.5783L99.2305 43.1493C100.271 42.9868 101.233 42.3368 101.233 41.5568V41.3683ZM101.304 41.3683H101.772V41.5568C101.772 42.3368 102.741 42.9868 103.774 43.1493L103.566 43.5783C102.383 43.3703 101.304 42.6098 101.304 41.5568V41.3683ZM100.57 38.2158H101.096C101.096 39.6588 100.466 40.8158 98.808 41.5373L98.5415 41.1408C100.011 40.5168 100.57 39.5548 100.57 38.3588V38.2158ZM98.8145 38.2158H100.758V38.6578H98.8145V38.2158ZM100.518 39.3208V39.6978L98.626 39.8993L98.5415 39.4508L100.518 39.3208ZM107.127 38.0923C108.349 38.0923 109.259 38.7423 109.259 39.7173C109.259 40.6988 108.349 41.3423 107.127 41.3423C105.905 41.3423 104.989 40.6988 104.989 39.7173C104.989 38.7423 105.905 38.0923 107.127 38.0923ZM107.127 38.5343C106.198 38.5343 105.509 39.0088 105.509 39.7173C105.509 40.4193 106.198 40.9003 107.127 40.9003C108.057 40.9003 108.746 40.4193 108.746 39.7173C108.746 39.0088 108.057 38.5343 107.127 38.5343ZM104.475 42.3693H109.799V42.8243H104.475V42.3693ZM110.455 42.4278H115.778V42.8763H110.455V42.4278ZM112.834 41.1668H113.373V42.6163H112.834V41.1668ZM111.098 38.1573H115.122V39.9383H111.651V41.1148H111.118V39.5028H114.589V38.5928H111.098V38.1573ZM111.118 40.8873H115.258V41.3293H111.118V40.8873ZM118.926 38.1053H122.598V38.5408H118.926V38.1053ZM118.263 40.6273H123.573V41.0693H118.263V40.6273ZM120.635 40.9198H121.175V43.6043H120.635V40.9198ZM122.345 38.1053H122.871V38.6123C122.871 39.2233 122.871 39.9123 122.65 40.9068L122.117 40.8353C122.345 39.8863 122.345 39.2038 122.345 38.6123V38.1053ZM128.714 37.7218H129.234V43.5978H128.714V37.7218ZM127.785 40.0488H128.909V40.4908H127.785V40.0488ZM127.414 37.8453H127.928V43.3053H127.414V37.8453ZM124.45 38.3978H126.693V42.0248H124.45V38.3978ZM126.186 38.8268H124.957V41.5958H126.186V38.8268ZM132.601 40.4843H133.14V41.3878H132.601V40.4843ZM130.215 40.1723H135.526V40.6078H130.215V40.1723ZM130.859 41.1863H134.85V42.5383H131.405V43.2273H130.872V42.1483H134.317V41.5958H130.859V41.1863ZM130.872 43.1168H135.025V43.5328H130.872V43.1168ZM132.562 38.0858H133.036V38.2678C133.036 39.1713 131.931 39.7628 130.677 39.8863L130.501 39.4703C131.587 39.3793 132.562 38.8983 132.562 38.2678V38.0858ZM132.718 38.0858H133.186V38.2678C133.186 38.8983 134.161 39.3793 135.246 39.4703L135.071 39.8863C133.823 39.7628 132.718 39.1713 132.718 38.2678V38.0858ZM130.703 37.9168H135.051V38.3523H130.703V37.9168ZM138.699 41.1668H139.206V41.9013H140.233V41.1668H140.733V43.5198H138.699V41.1668ZM139.206 42.3043V43.0973H140.233V42.3043H139.206ZM141.871 41.1343H142.287V41.6218C142.287 42.4213 141.884 43.2273 141.071 43.5718L140.798 43.1623C141.507 42.8633 141.871 42.2198 141.871 41.6218V41.1343ZM141.981 41.1343H142.397V41.6218C142.397 42.2523 142.761 42.8893 143.47 43.1623L143.197 43.5718C142.378 43.2338 141.981 42.4538 141.981 41.6218V41.1343ZM140.98 39.0998H142.56V39.5483H140.98V39.0998ZM139.628 37.9818C140.506 37.9818 141.143 38.5278 141.143 39.3338C141.143 40.1333 140.506 40.6858 139.628 40.6858C138.751 40.6858 138.114 40.1333 138.114 39.3338C138.114 38.5278 138.751 37.9818 139.628 37.9818ZM139.628 38.4303C139.05 38.4303 138.634 38.8008 138.634 39.3338C138.634 39.8603 139.05 40.2373 139.628 40.2373C140.207 40.2373 140.623 39.8603 140.623 39.3338C140.623 38.8008 140.207 38.4303 139.628 38.4303ZM142.319 37.7218H142.859V40.8353H142.319V37.7218ZM148.273 37.7153H148.812V43.6043H148.273V37.7153ZM145.712 38.1703C146.583 38.1703 147.207 38.9698 147.207 40.2178C147.207 41.4723 146.583 42.2718 145.712 42.2718C144.847 42.2718 144.223 41.4723 144.223 40.2178C144.223 38.9698 144.847 38.1703 145.712 38.1703ZM145.712 38.6578C145.14 38.6578 144.737 39.2688 144.737 40.2178C144.737 41.1733 145.14 41.7973 145.712 41.7973C146.29 41.7973 146.687 41.1733 146.687 40.2178C146.687 39.2688 146.29 38.6578 145.712 38.6578ZM155.788 37.7218H156.334V43.5978H155.788V37.7218ZM156.204 40.0293H157.296V40.4908H156.204V40.0293ZM152.044 38.2158H152.577V39.7693H154.254V38.2158H154.787V42.1873H152.044V38.2158ZM152.577 40.1983V41.7453H154.254V40.1983H152.577ZM157.796 42.4278H163.119V42.8763H157.796V42.4278ZM160.175 41.1668H160.714V42.6163H160.175V41.1668ZM158.439 38.1573H162.463V39.9383H158.992V41.1148H158.459V39.5028H161.93V38.5928H158.439V38.1573ZM158.459 40.8873H162.599V41.3293H158.459V40.8873ZM169.874 37.7218H170.42V40.8743H169.874V37.7218ZM166.63 41.1668H167.163V41.8818H169.887V41.1668H170.42V43.5198H166.63V41.1668ZM167.163 42.3108V43.0843H169.887V42.3108H167.163ZM167.267 38.0013C168.158 38.0013 168.795 38.5538 168.795 39.3533C168.795 40.1593 168.158 40.7118 167.267 40.7118C166.377 40.7118 165.733 40.1593 165.733 39.3533C165.733 38.5538 166.377 38.0013 167.267 38.0013ZM167.267 38.4498C166.682 38.4498 166.26 38.8203 166.26 39.3533C166.26 39.8863 166.682 40.2568 167.267 40.2568C167.852 40.2568 168.275 39.8863 168.275 39.3533C168.275 38.8203 167.852 38.4498 167.267 38.4498ZM173.026 38.3523H173.468V38.8268C173.468 39.9058 172.818 40.8093 171.83 41.1668L171.557 40.7378C172.441 40.4258 173.026 39.6653 173.026 38.8268V38.3523ZM173.123 38.3523H173.565V38.8203C173.565 39.5873 174.124 40.2763 174.989 40.5623L174.729 40.9848C173.747 40.6598 173.123 39.8213 173.123 38.8203V38.3523ZM171.719 38.1573H174.859V38.5993H171.719V38.1573ZM175.6 37.7218H176.139V41.2643H175.6V37.7218ZM175.99 39.2103H177.01V39.6653H175.99V39.2103ZM174.267 41.4203C175.463 41.4203 176.198 41.8168 176.198 42.4993C176.198 43.1883 175.463 43.5848 174.267 43.5848C173.071 43.5848 172.337 43.1883 172.337 42.4993C172.337 41.8168 173.071 41.4203 174.267 41.4203ZM174.267 41.8558C173.396 41.8558 172.863 42.0898 172.863 42.4993C172.863 42.9153 173.396 43.1623 174.267 43.1623C175.138 43.1623 175.671 42.9153 175.671 42.4993C175.671 42.0898 175.138 41.8558 174.267 41.8558ZM178.456 38.3635L178.41 41.7613H177.874L177.828 38.3635H178.456ZM178.142 43.1278C178.028 43.1278 177.931 43.087 177.849 43.0054C177.768 42.9239 177.727 42.8261 177.727 42.7123C177.727 42.5984 177.768 42.5007 177.849 42.4191C177.931 42.3376 178.028 42.2968 178.142 42.2968C178.256 42.2968 178.354 42.3376 178.435 42.4191C178.517 42.5007 178.558 42.5984 178.558 42.7123C178.558 42.7877 178.538 42.8569 178.5 42.92C178.463 42.9831 178.413 43.0339 178.35 43.0724C178.288 43.1093 178.219 43.1278 178.142 43.1278Z" fill="white"/>
<path d="M80.5848 38.5693H77.5848V44.0793H83.1849V40.8962" stroke="white"/>
<path d="M78.5042 40.1597L80.3412 42.3018L84.2279 37.5889" stroke="white"/>
</g>
</g>
<defs>
<clipPath id="clip0_12135_18527">
<rect width="345" height="47" fill="white"/>
</clipPath>
</defs>
</svg>
