<svg width="800" height="109" viewBox="0 0 800 109" fill="none" xmlns="http://www.w3.org/2000/svg">
<g clip-path="url(#clip0_12135_18514)">
<mask id="mask0_12135_18514" style="mask-type:luminance" maskUnits="userSpaceOnUse" x="0" y="0" width="800" height="109">
<path d="M800 0H0V109H800V0Z" fill="white"/>
</mask>
<g mask="url(#mask0_12135_18514)">
<path d="M85.332 38.676H93.54V42.704H85.332V38.676ZM92.058 38.676H96.96V40.69C96.96 43.388 96.96 47.302 95.212 52.546L90.31 51.9C92.058 46.694 92.058 43.274 92.058 40.69V38.676ZM99.05 38.676H108.094V42.704H99.05V38.676ZM105.776 38.676H110.64V40.918C110.64 43.768 110.64 47.568 109.158 52.774L104.256 52.128C105.776 47.036 105.776 43.654 105.776 40.918V38.676ZM82.52 50.57H114.364V54.598H82.52V50.57ZM95.858 53.572H100.874V60.754H95.858V53.572ZM86.396 59.082H110.374V72.002H86.396V59.082ZM105.396 63.034H91.336V68.012H105.396V63.034ZM117.477 53.534H149.283V57.638H117.477V53.534ZM130.701 57.03H135.755V72.344H130.701V57.03ZM119.985 39.322H128.193V43.312H119.985V39.322ZM126.559 39.322H131.537V41.564C131.537 44.68 131.537 49.05 129.789 55.244L124.849 54.446C126.559 48.594 126.559 44.604 126.559 41.564V39.322ZM133.931 39.322H143.127V43.312H133.931V39.322ZM140.847 39.322H145.825V41.792C145.825 44.984 145.825 49.278 144.457 55.206L139.517 54.484C140.847 48.86 140.847 44.908 140.847 41.792V39.322ZM154.524 54.142H157.336C163.606 54.142 167.558 53.952 172.042 53.116L172.46 57.144C167.9 57.98 163.758 58.17 157.336 58.17H154.524V54.142ZM154.524 39.588H170.484V43.616H159.54V55.168H154.524V39.588ZM176.83 37.194H181.884V62.806H176.83V37.194ZM168.47 46.352H177.78V50.342H168.47V46.352ZM158.628 67.822H182.682V71.85H158.628V67.822ZM158.628 60.716H163.72V70.444H158.628V60.716ZM200.024 48.252H224.496V52.28H200.024V48.252ZM200.024 38.79H205.078V50.076H200.024V38.79ZM196.224 56.156H228.03V60.222H196.224V56.156ZM203.444 57.6H208.498V72.382H203.444V57.6ZM215.718 57.6H220.772V72.382H215.718V57.6ZM238.287 49.088H243.341V55.586H238.287V49.088ZM250.675 49.088H255.691V55.586H250.675V49.088ZM247.065 37.802C254.817 37.802 259.795 40.424 259.795 44.68C259.795 48.974 254.817 51.596 247.065 51.596C239.313 51.596 234.335 48.974 234.335 44.68C234.335 40.424 239.313 37.802 247.065 37.802ZM247.065 41.716C242.239 41.716 239.541 42.666 239.541 44.68C239.541 46.694 242.239 47.682 247.065 47.682C251.853 47.682 254.589 46.694 254.589 44.68C254.589 42.666 251.853 41.716 247.065 41.716ZM231.143 54.484H262.949V58.474H231.143V54.484ZM234.677 60.868H259.111V72.382H254.057V64.858H234.677V60.868ZM293.743 46.276H301.951V50.342H293.743V46.276ZM299.291 37.232H304.345V62.882H299.291V37.232ZM281.127 67.746H305.143V71.774H281.127V67.746ZM281.127 60.716H286.181V70.14H281.127V60.716ZM283.027 41.83H287.131V44.034C287.131 50.646 284.015 56.764 277.251 59.006L274.705 54.978C280.519 53.078 283.027 48.48 283.027 44.034V41.83ZM284.091 41.83H288.157V44.034C288.157 48.138 290.551 52.508 296.099 54.37L293.629 58.322C287.093 56.156 284.091 50.304 284.091 44.034V41.83ZM276.073 39.588H294.997V43.578H276.073V39.588ZM326.8 42.742H335.046V46.77H326.8V42.742ZM326.534 50.038H334.78V54.066H326.534V50.038ZM334.248 37.194H339.302V57.448H334.248V37.194ZM322.772 39.588H328.168C328.168 49.164 322.772 55.32 312.094 58.246L310.118 54.256C319.048 51.938 322.772 47.53 322.772 42.02V39.588ZM312.056 39.588H326.306V43.616H312.056V39.588ZM327.636 57.904C334.78 57.904 339.53 60.64 339.53 65.048C339.53 69.456 334.78 72.23 327.636 72.23C320.492 72.23 315.742 69.456 315.742 65.048C315.742 60.64 320.492 57.904 327.636 57.904ZM327.636 61.78C323.342 61.78 320.758 62.882 320.758 65.048C320.758 67.214 323.342 68.278 327.636 68.278C331.968 68.278 334.552 67.214 334.552 65.048C334.552 62.882 331.968 61.78 327.636 61.78ZM351.831 65.2216L351.683 66.706C351.566 67.8935 351.341 69.0765 351.008 70.255C350.684 71.4425 350.342 72.5175 349.982 73.4801C349.631 74.4427 349.348 75.1984 349.132 75.7472H345.408C345.543 75.2164 345.727 74.4742 345.961 73.5206C346.195 72.576 346.415 71.5144 346.622 70.3359C346.829 69.1574 346.96 67.9564 347.013 66.733L347.081 65.2216H351.831ZM365.471 49.736H368.782C376.522 49.736 381.08 49.607 386.283 48.661L386.885 53.133C381.553 54.079 376.737 54.251 368.782 54.251H365.471V49.736ZM365.471 34.987H384.176V39.502H371.19V51.8H365.471V34.987ZM369.427 42.383H383.316V46.812H369.427V42.383ZM389.637 33.009H395.356V55.068H389.637V33.009ZM393.765 41.566H400.645V46.253H393.765V41.566ZM369.341 56.702H375.017V60.099H389.68V56.702H395.356V72.397H369.341V56.702ZM375.017 64.485V67.839H389.68V64.485H375.017ZM428.654 55.412H434.373V64.485H428.654V55.412ZM431.535 35.03C440.049 35.03 446.413 39.373 446.413 45.995C446.413 52.703 440.049 57.003 431.535 57.003C423.021 57.003 416.657 52.703 416.657 45.995C416.657 39.373 423.021 35.03 431.535 35.03ZM431.535 39.545C426.074 39.545 422.29 41.953 422.29 45.995C422.29 50.123 426.074 52.488 431.535 52.488C436.996 52.488 440.78 50.123 440.78 45.995C440.78 41.953 436.996 39.545 431.535 39.545ZM413.561 63.582H449.595V68.226H413.561V63.582ZM453.117 63.41H489.151V68.097H453.117V63.41ZM456.901 35.589H462.577V42.039H479.562V35.589H485.238V56.831H456.901V35.589ZM462.577 46.468V52.316H479.562V46.468H462.577ZM504.475 58.637H507.7C514.752 58.637 519.353 58.465 524.513 57.519L525.072 62.12C519.74 63.109 514.967 63.324 507.7 63.324H504.475V58.637ZM504.475 36.535H522.492V41.093H510.194V60.4H504.475V36.535ZM530.318 33.009H536.037V72.956H530.318V33.009ZM520.557 46.726H532.726V51.37H520.557V46.726ZM553.511 51.198H556.865C564.691 51.198 569.507 51.026 575.011 49.994L575.527 54.552C569.937 55.627 564.906 55.842 556.865 55.842H553.511V51.198ZM553.468 35.202H571.657V47.457H559.187V53.391H553.511V43.2H566.024V39.76H553.468V35.202ZM577.72 33.052H583.439V57.218H577.72V33.052ZM581.805 42.512H588.728V47.199H581.805V42.512ZM556.865 59.024H583.439V72.827H577.72V63.582H556.865V59.024ZM622.929 43.286H632.217V47.887H622.929V43.286ZM629.207 33.052H634.926V62.077H629.207V33.052ZM608.653 67.581H635.829V72.139H608.653V67.581ZM608.653 59.626H614.372V70.29H608.653V59.626ZM610.803 38.255H615.447V40.749C615.447 48.231 611.921 55.154 604.267 57.691L601.386 53.133C607.965 50.983 610.803 45.78 610.803 40.749V38.255ZM612.007 38.255H616.608V40.749C616.608 45.393 619.317 50.338 625.595 52.445L622.8 56.917C615.404 54.466 612.007 47.844 612.007 40.749V38.255ZM602.934 35.718H624.348V40.233H602.934V35.718ZM642.319 35.847H661.282V53.692H642.319V35.847ZM655.649 40.362H647.952V49.177H655.649V40.362ZM666.786 33.009H672.505V56.1H666.786V33.009ZM670.914 41.91H677.794V46.597H670.914V41.91ZM659.519 57.132C667.732 57.132 672.978 60.099 672.978 65.001C672.978 69.946 667.732 72.87 659.519 72.87C651.263 72.87 646.017 69.946 646.017 65.001C646.017 60.099 651.263 57.132 659.519 57.132ZM659.519 61.647C654.445 61.647 651.693 62.722 651.693 65.001C651.693 67.323 654.445 68.398 659.519 68.398C664.593 68.398 667.302 67.323 667.302 65.001C667.302 62.722 664.593 61.647 659.519 61.647ZM709.481 33.009H714.899V72.827H709.481V33.009ZM704.149 48.317H710.771V52.918H704.149V48.317ZM700.58 33.697H705.869V70.935H700.58V33.697ZM681.832 59.153H684.627C689.529 59.153 693.614 58.981 698.344 58.121L698.774 62.765C693.958 63.711 689.744 63.84 684.627 63.84H681.832V59.153ZM681.832 37.61H696.538V42.211H687.508V61.389H681.832V37.61Z" fill="white"/>
<path d="M82.892 16.028H84.4185C88.009 16.028 90.4815 15.942 93.4055 15.426L93.599 16.888C90.589 17.404 88.052 17.5115 84.4185 17.5115H82.892V16.028ZM82.892 4.504H91.9435V5.9875H84.6765V16.544H82.892V4.504ZM84.225 9.9435H91.5135V11.384H84.225V9.9435ZM95.2115 2.741H97.0175V22.177H95.2115V2.741ZM96.5875 10.5455H100.2V12.0505H96.5875V10.5455ZM102.95 4.633H111.894V17.2965H102.95V4.633ZM110.152 6.0735H104.691V15.856H110.152V6.0735ZM115.957 2.7195H117.742V22.1985H115.957V2.7195ZM129.415 4.074H130.963V5.5575C130.963 9.793 127.028 13.0825 123.137 13.964L122.341 12.4805C125.76 11.8355 129.415 8.8685 129.415 5.5575V4.074ZM129.737 4.074H131.285V5.5575C131.285 8.89 134.962 11.8355 138.359 12.4805L137.563 13.964C133.693 13.0825 129.737 9.8145 129.737 5.5575V4.074ZM121.632 18.092H139.24V19.554H121.632V18.092ZM141.41 18.307H159.018V19.7905H141.41V18.307ZM149.279 14.136H151.063V18.9305H149.279V14.136ZM143.538 4.1815H156.847V10.0725H145.366V13.964H143.603V8.632H155.084V5.622H143.538V4.1815ZM143.603 13.2115H157.298V14.6735H143.603V13.2115ZM173.062 11.771H174.825V15.426H173.062V11.771ZM170.267 14.867H172.051V16.9525H181.275V14.867H183.038V21.919H170.267V14.867ZM172.051 18.35V20.4785H181.275V18.35H172.051ZM181.253 2.741H183.038V13.8995H181.253V2.741ZM167.493 12.717L167.257 11.255C170.89 11.255 175.728 11.2335 179.963 10.6745L180.092 11.9645C175.749 12.6955 171.041 12.717 167.493 12.717ZM172.825 3.214H174.266V4.1815C174.266 6.998 172.137 9.2125 168.891 10.0295L168.095 8.675C170.933 7.987 172.825 6.224 172.825 4.1815V3.214ZM173.212 3.214H174.674V4.1815C174.674 6.1595 176.588 7.7935 179.361 8.374L178.609 9.75C175.384 8.9975 173.212 6.912 173.212 4.1815V3.214ZM188.862 4.676H201.375V6.1595H188.862V4.676ZM187.013 17.9845H204.579V19.468H187.013V17.9845ZM193.829 11.04H195.613V18.7155H193.829V11.04ZM200.709 4.676H202.472V6.611C202.472 9.019 202.472 11.685 201.762 15.6195L199.978 15.383C200.709 11.6635 200.709 8.933 200.709 6.611V4.676ZM226.534 2.741H228.297V22.177H226.534V2.741ZM227.287 10.3305H230.877V11.814H227.287V10.3305ZM213.183 4.547H214.709V9.535H217.074V4.547H218.558V17.4685H213.183V4.547ZM214.709 10.954V16.0065H217.074V10.954H214.709ZM219.59 4.547H221.095V9.535H223.395V4.547H224.9V17.4685H219.59V4.547ZM221.095 10.954V16.0065H223.395V10.954H221.095ZM232.617 18.2425H250.225V19.7475H232.617V18.2425ZM234.745 4.2245H248.054V10.1155H236.573V14.007H234.81V8.6965H246.291V5.6865H234.745V4.2245ZM234.81 13.2545H248.505V14.7165H234.81V13.2545ZM267.187 2.741H268.907V22.177H267.187V2.741ZM258.759 10.6745H263.661V12.115H258.759V10.6745ZM263.145 3.2355H264.822V21.188H263.145V3.2355ZM258.996 5.192H260.716C260.716 10.2875 258.673 14.867 253.427 17.9845L252.374 16.716C256.953 13.964 258.996 10.094 258.996 5.5145V5.192ZM253.234 5.192H259.662V6.654H253.234V5.192Z" fill="white"/>
<path d="M103.077 104V90.9091H110.978V92.3153H104.662V96.7386H110.569V98.1449H104.662V102.594H111.08V104H103.077ZM119.255 96.7514V98.1577H113.528V96.7514H119.255ZM122.455 100.256H123.751C126.793 100.256 128.917 100.166 131.419 99.752L131.563 100.958C129.007 101.408 126.847 101.498 123.751 101.498H122.455V100.256ZM122.455 90.608H130.339V91.85H123.931V100.688H122.455V90.608ZM123.571 95.162H129.745V96.368H123.571V95.162ZM133.273 89.132H134.767V105.404H133.273V89.132ZM143.91 93.902H147.492V95.108H143.91V93.902ZM150.336 89.132H151.758V100.184H150.336V89.132ZM147.114 89.42H148.536V98.726H147.114V89.42ZM145.566 99.23H146.844V99.752C146.844 102.668 143.874 104.774 140.598 105.35L140.022 104.162C142.902 103.712 145.566 101.912 145.566 99.752V99.23ZM145.764 99.23H147.06V99.752C147.06 101.912 149.742 103.712 152.604 104.162L152.028 105.35C148.752 104.774 145.764 102.668 145.764 99.752V99.23ZM143.73 90.5H145.188C145.188 94.496 143.442 97.7 138.852 99.698L138.114 98.6C142.182 96.872 143.73 94.208 143.73 90.896V90.5ZM138.87 90.5H144.252V91.724H138.87V90.5ZM143.586 93.56V94.604L138.348 95.162L138.114 93.92L143.586 93.56ZM161.89 90.158C165.274 90.158 167.794 91.958 167.794 94.658C167.794 97.376 165.274 99.158 161.89 99.158C158.506 99.158 155.968 97.376 155.968 94.658C155.968 91.958 158.506 90.158 161.89 90.158ZM161.89 91.382C159.316 91.382 157.408 92.696 157.408 94.658C157.408 96.602 159.316 97.934 161.89 97.934C164.464 97.934 166.372 96.602 166.372 94.658C166.372 92.696 164.464 91.382 161.89 91.382ZM154.546 102.002H169.288V103.262H154.546V102.002ZM171.105 102.164H185.847V103.406H171.105V102.164ZM177.693 98.672H179.187V102.686H177.693V98.672ZM172.887 90.338H184.029V95.27H174.417V98.528H172.941V94.064H182.553V91.544H172.887V90.338ZM172.941 97.898H184.407V99.122H172.941V97.898ZM194.562 90.194H204.732V91.4H194.562V90.194ZM192.726 97.178H207.432V98.402H192.726V97.178ZM199.296 97.988H200.79V105.422H199.296V97.988ZM204.03 90.194H205.488V91.598C205.488 93.29 205.488 95.198 204.876 97.952L203.4 97.754C204.03 95.126 204.03 93.236 204.03 91.598V90.194ZM221.669 89.132H223.109V105.404H221.669V89.132ZM219.095 95.576H222.209V96.8H219.095V95.576ZM218.069 89.474H219.491V104.594H218.069V89.474ZM209.861 91.004H216.071V101.048H209.861V91.004ZM214.667 92.192H211.265V99.86H214.667V92.192ZM232.431 96.782H233.925V99.284H232.431V96.782ZM225.825 95.918H240.531V97.124H225.825V95.918ZM227.607 98.726H238.659V102.47H229.119V104.378H227.643V101.39H237.183V99.86H227.607V98.726ZM227.643 104.072H239.145V105.224H227.643V104.072ZM232.323 90.14H233.637V90.644C233.637 93.146 230.577 94.784 227.103 95.126L226.617 93.974C229.623 93.722 232.323 92.39 232.323 90.644V90.14ZM232.755 90.14H234.051V90.644C234.051 92.39 236.751 93.722 239.757 93.974L239.271 95.126C235.815 94.784 232.755 93.146 232.755 90.644V90.14ZM227.175 89.672H239.217V90.878H227.175V89.672ZM249.318 98.672H250.722V100.706H253.566V98.672H254.952V105.188H249.318V98.672ZM250.722 101.822V104.018H253.566V101.822H250.722ZM258.102 98.582H259.254V99.932C259.254 102.146 258.138 104.378 255.888 105.332L255.132 104.198C257.094 103.37 258.102 101.588 258.102 99.932V98.582ZM258.408 98.582H259.56V99.932C259.56 101.678 260.568 103.442 262.53 104.198L261.774 105.332C259.506 104.396 258.408 102.236 258.408 99.932V98.582ZM255.636 92.948H260.01V94.19H255.636V92.948ZM251.892 89.852C254.322 89.852 256.086 91.364 256.086 93.596C256.086 95.81 254.322 97.34 251.892 97.34C249.462 97.34 247.698 95.81 247.698 93.596C247.698 91.364 249.462 89.852 251.892 89.852ZM251.892 91.094C250.29 91.094 249.138 92.12 249.138 93.596C249.138 95.054 250.29 96.098 251.892 96.098C253.494 96.098 254.646 95.054 254.646 93.596C254.646 92.12 253.494 91.094 251.892 91.094ZM259.344 89.132H260.838V97.754H259.344V89.132ZM275.831 89.114H277.325V105.422H275.831V89.114ZM268.739 90.374C271.151 90.374 272.879 92.588 272.879 96.044C272.879 99.518 271.151 101.732 268.739 101.732C266.345 101.732 264.617 99.518 264.617 96.044C264.617 92.588 266.345 90.374 268.739 90.374ZM268.739 91.724C267.155 91.724 266.039 93.416 266.039 96.044C266.039 98.69 267.155 100.418 268.739 100.418C270.341 100.418 271.439 98.69 271.439 96.044C271.439 93.416 270.341 91.724 268.739 91.724ZM296.642 89.132H298.154V105.404H296.642V89.132ZM297.794 95.522H300.818V96.8H297.794V95.522ZM286.274 90.5H287.75V94.802H292.394V90.5H293.87V101.498H286.274V90.5ZM287.75 95.99V100.274H292.394V95.99H287.75ZM302.203 102.164H316.945V103.406H302.203V102.164ZM308.791 98.672H310.285V102.686H308.791V98.672ZM303.985 90.338H315.127V95.27H305.515V98.528H304.039V94.064H313.651V91.544H303.985V90.338ZM304.039 97.898H315.505V99.122H304.039V97.898ZM335.65 89.132H337.162V97.862H335.65V89.132ZM326.668 98.672H328.144V100.652H335.686V98.672H337.162V105.188H326.668V98.672ZM328.144 101.84V103.982H335.686V101.84H328.144ZM328.432 89.906C330.898 89.906 332.662 91.436 332.662 93.65C332.662 95.882 330.898 97.412 328.432 97.412C325.966 97.412 324.184 95.882 324.184 93.65C324.184 91.436 325.966 89.906 328.432 89.906ZM328.432 91.148C326.812 91.148 325.642 92.174 325.642 93.65C325.642 95.126 326.812 96.152 328.432 96.152C330.052 96.152 331.222 95.126 331.222 93.65C331.222 92.174 330.052 91.148 328.432 91.148ZM344.378 90.878H345.602V92.192C345.602 95.18 343.802 97.682 341.066 98.672L340.31 97.484C342.758 96.62 344.378 94.514 344.378 92.192V90.878ZM344.648 90.878H345.872V92.174C345.872 94.298 347.42 96.206 349.814 96.998L349.094 98.168C346.376 97.268 344.648 94.946 344.648 92.174V90.878ZM340.76 90.338H349.454V91.562H340.76V90.338ZM351.506 89.132H353V98.942H351.506V89.132ZM352.586 93.254H355.412V94.514H352.586V93.254ZM347.816 99.374C351.128 99.374 353.162 100.472 353.162 102.362C353.162 104.27 351.128 105.368 347.816 105.368C344.504 105.368 342.47 104.27 342.47 102.362C342.47 100.472 344.504 99.374 347.816 99.374ZM347.816 100.58C345.404 100.58 343.928 101.228 343.928 102.362C343.928 103.514 345.404 104.198 347.816 104.198C350.228 104.198 351.704 103.514 351.704 102.362C351.704 101.228 350.228 100.58 347.816 100.58ZM359.416 90.9091L359.288 100.318H357.805L357.677 90.9091H359.416ZM358.547 104.102C358.231 104.102 357.961 103.989 357.735 103.763C357.509 103.538 357.396 103.267 357.396 102.952C357.396 102.636 357.509 102.366 357.735 102.14C357.961 101.914 358.231 101.801 358.547 101.801C358.862 101.801 359.132 101.914 359.358 102.14C359.584 102.366 359.697 102.636 359.697 102.952C359.697 103.161 359.644 103.352 359.537 103.527C359.435 103.702 359.297 103.842 359.122 103.949C358.951 104.051 358.76 104.102 358.547 104.102Z" fill="white"/>
<path d="M89.562 91.792H82V105.681H96.1201V97.656" stroke="white" stroke-width="1.8"/>
<path d="M84.3154 95.8022L88.9443 101.202L98.7441 89.3193" stroke="white" stroke-width="1.8"/>
</g>
</g>
<defs>
<clipPath id="clip0_12135_18514">
<rect width="800" height="109" fill="white"/>
</clipPath>
</defs>
</svg>
