<svg width="345" height="47" viewBox="0 0 345 47" fill="none" xmlns="http://www.w3.org/2000/svg">
<g clip-path="url(#clip0_12137_18916)">
<mask id="mask0_12137_18916" style="mask-type:luminance" maskUnits="userSpaceOnUse" x="0" y="0" width="345" height="47">
<path d="M345 0H0V47H345V0Z" fill="white"/>
</mask>
<g mask="url(#mask0_12137_18916)">
<path d="M104.277 19.475H105.432V20.685C105.432 22.522 104.75 24.326 103.122 25.107L102.297 23.985C103.727 23.292 104.277 21.928 104.277 20.685V19.475ZM104.541 19.475H105.685V20.685C105.685 21.873 106.213 23.061 107.566 23.677L106.774 24.777C105.179 24.084 104.541 22.456 104.541 20.685V19.475ZM109.733 18.804H111.119V26.427H109.733V18.804ZM108.523 21.719H110.14V22.896H108.523V21.719ZM107.577 18.98H108.941V26.13H107.577V18.98ZM104.266 27.637H111.383V28.803H104.266V27.637ZM104.266 25.525H105.729V28.363H104.266V25.525ZM112.57 26.603H121.788V27.802H112.57V26.603ZM113.274 19.673H121.029V20.839H113.274V19.673ZM113.318 23.886H120.996V25.063H113.318V23.886ZM114.66 20.751H116.123V23.996H114.66V20.751ZM118.191 20.751H119.643V23.996H118.191V20.751ZM129.234 18.804H130.697V26.306H129.234V18.804ZM130.279 21.719H132.05V22.929H130.279V21.719ZM124.163 27.637H131.071V28.803H124.163V27.637ZM124.163 25.701H125.637V28.022H124.163V25.701ZM123.041 23.677H123.899C125.901 23.677 127.133 23.622 128.541 23.358L128.673 24.535C127.243 24.799 125.956 24.843 123.899 24.843H123.041V23.677ZM123.03 19.409H127.683V22.621H124.493V24.095H123.041V21.543H126.242V20.575H123.03V19.409ZM135.283 19.574H136.471V21.059C136.471 23.677 135.569 26.042 133.545 26.977L132.676 25.767C134.447 24.997 135.283 23.039 135.283 21.059V19.574ZM135.569 19.574H136.757V21.059C136.757 22.94 137.56 24.81 139.298 25.558L138.44 26.735C136.471 25.833 135.569 23.567 135.569 21.059V19.574ZM139.782 18.782H141.256V29.001H139.782V18.782ZM146.701 19.376H147.977V20.113C147.977 22.324 146.404 24.282 143.764 24.799L143.137 23.589C145.436 23.193 146.701 21.576 146.701 20.113V19.376ZM146.998 19.376H148.263V20.113C148.263 21.609 149.517 23.193 151.827 23.589L151.2 24.799C148.56 24.282 146.998 22.357 146.998 20.113V19.376ZM142.928 26.548H152.146V27.736H142.928V26.548ZM154.081 19.64H160.494V20.806H154.081V19.64ZM153.036 26.636H162.243V27.813H153.036V26.636ZM159.911 19.64H161.352V20.531C161.352 21.763 161.363 23.204 160.89 25.415L159.449 25.261C159.911 23.193 159.911 21.708 159.911 20.531V19.64ZM160.175 22.093V23.193L153.96 23.534L153.762 22.291L160.175 22.093ZM156.303 24.194H157.766V27.065H156.303V24.194ZM170.318 17.47H171.839V18.029C171.839 20.343 170.019 22.306 166.86 22.774L166.184 21.383C168.953 21.019 170.318 19.446 170.318 18.029V17.47ZM170.643 17.47H172.151V18.029C172.151 19.433 173.529 21.019 176.285 21.383L175.622 22.774C172.463 22.306 170.643 20.343 170.643 18.029V17.47ZM170.331 24.75H172.047V29.157H170.331V24.75ZM165.794 23.658H176.675V25.062H165.794V23.658ZM181.991 18.224H183.525V18.523C183.525 20.356 181.9 21.864 178.806 22.163L178.195 20.824C180.834 20.564 181.991 19.485 181.991 18.523V18.224ZM182.836 18.224H184.37V18.523C184.37 19.498 185.527 20.577 188.166 20.824L187.555 22.163C184.474 21.864 182.836 20.369 182.836 18.523V18.224ZM178.728 17.561H187.646V18.926H178.728V17.561ZM177.74 22.969H188.634V24.347H177.74V22.969ZM182.303 21.422H184.019V23.58H182.303V21.422ZM178.949 25.218H187.308V29.157H185.579V26.583H178.949V25.218ZM190.232 17.99H195.38V19.381H190.232V17.99ZM191.714 20.798H193.43V23.814H191.714V20.798ZM194.704 17.99H196.407V18.744C196.407 19.589 196.407 20.785 196.121 22.28L194.444 22.098C194.704 20.616 194.704 19.576 194.704 18.744V17.99ZM197.577 17.119H199.319V26.128H197.577V17.119ZM198.63 20.785H200.749V22.202H198.63V20.785ZM191.285 27.571H199.696V28.949H191.285V27.571ZM191.285 25.322H193.014V28H191.285V25.322ZM189.686 24.516L189.53 23.151C191.61 23.151 194.509 23.112 196.927 22.774L197.031 23.996C194.548 24.464 191.753 24.516 189.686 24.516ZM204.06 26.7074L204.009 27.2152C203.969 27.6214 203.892 28.0262 203.778 28.4293C203.668 28.8356 203.551 29.2034 203.427 29.5327C203.307 29.862 203.21 30.1205 203.137 30.3082H201.862C201.909 30.1267 201.972 29.8728 202.052 29.5465C202.132 29.2234 202.207 28.8602 202.278 28.457C202.349 28.0539 202.393 27.643 202.412 27.2244L202.435 26.7074H204.06ZM215.906 17.119H217.635V24.334H215.906V17.119ZM217.154 20.044H219.234V21.461H217.154V20.044ZM209.601 24.867H217.635V29.157H215.906V26.245H209.601V24.867ZM208.509 17.873H210.225V19.459H212.578V17.873H214.294V23.723H208.509V17.873ZM210.225 20.785V22.371H212.578V20.785H210.225ZM224.68 22.904H226.409V24.581H224.68V22.904ZM220.117 21.89H230.998V23.242H220.117V21.89ZM221.456 17.47H229.62V21.253H221.456V17.47ZM227.917 18.809H223.159V19.927H227.917V18.809ZM221.365 23.996H229.685V27.09H223.081V28.156H221.378V25.894H227.982V25.283H221.365V23.996ZM221.378 27.779H229.997V29.079H221.378V27.779ZM232.609 17.99H237.757V19.381H232.609V17.99ZM234.091 20.798H235.807V23.814H234.091V20.798ZM237.081 17.99H238.784V18.744C238.784 19.589 238.784 20.785 238.498 22.28L236.821 22.098C237.081 20.616 237.081 19.576 237.081 18.744V17.99ZM239.954 17.119H241.696V26.128H239.954V17.119ZM241.007 20.785H243.126V22.202H241.007V20.785ZM233.662 27.571H242.073V28.949H233.662V27.571ZM233.662 25.322H235.391V28H233.662V25.322ZM232.063 24.516L231.907 23.151C233.987 23.151 236.886 23.112 239.304 22.774L239.408 23.996C236.925 24.464 234.13 24.516 232.063 24.516Z" fill="white"/>
<path d="M105.03 3.701C105.961 3.701 106.619 4.562 106.619 5.906C106.619 7.257 105.961 8.118 105.03 8.118C104.099 8.118 103.441 7.257 103.441 5.906C103.441 4.562 104.099 3.701 105.03 3.701ZM105.03 4.226C104.414 4.226 103.994 4.884 103.994 5.906C103.994 6.935 104.414 7.607 105.03 7.607C105.639 7.607 106.066 6.935 106.066 5.906C106.066 4.884 105.639 4.226 105.03 4.226ZM107.627 3.218H108.215V9.546H107.627V3.218ZM108.075 5.745H109.251V6.235H108.075V5.745ZM114.381 3.211H114.962V9.553H114.381V3.211ZM111.623 3.701C112.561 3.701 113.233 4.562 113.233 5.906C113.233 7.257 112.561 8.118 111.623 8.118C110.692 8.118 110.02 7.257 110.02 5.906C110.02 4.562 110.692 3.701 111.623 3.701ZM111.623 4.226C111.007 4.226 110.573 4.884 110.573 5.906C110.573 6.935 111.007 7.607 111.623 7.607C112.246 7.607 112.673 6.935 112.673 5.906C112.673 4.884 112.246 4.226 111.623 4.226ZM117.825 6.41H118.406V7.922H117.825V6.41ZM118.112 3.624C119.085 3.624 119.785 4.233 119.785 5.115C119.785 5.997 119.085 6.606 118.112 6.606C117.139 6.606 116.439 5.997 116.439 5.115C116.439 4.233 117.139 3.624 118.112 3.624ZM118.112 4.121C117.468 4.121 117.006 4.527 117.006 5.115C117.006 5.703 117.468 6.109 118.112 6.109C118.756 6.109 119.218 5.703 119.218 5.115C119.218 4.527 118.756 4.121 118.112 4.121ZM120.506 3.218H121.087V9.546H120.506V3.218ZM120.919 5.822H122.088V6.312H120.919V5.822ZM116.236 8.181L116.152 7.698C117.293 7.691 118.819 7.684 120.107 7.509L120.156 7.943C118.819 8.167 117.342 8.181 116.236 8.181ZM128.963 3.218H129.544V7.026H128.963V3.218ZM129.383 4.898H130.482V5.381H129.383V4.898ZM125.568 7.383H129.544V9.462H125.568V7.383ZM128.977 7.852H126.135V8.993H128.977V7.852ZM124.651 3.883H128.389V4.359H124.651V3.883ZM126.52 4.667C127.423 4.667 128.032 5.115 128.032 5.801C128.032 6.487 127.423 6.921 126.52 6.921C125.61 6.921 125.001 6.487 125.001 5.801C125.001 5.115 125.61 4.667 126.52 4.667ZM126.52 5.115C125.939 5.115 125.554 5.381 125.554 5.801C125.554 6.214 125.939 6.48 126.52 6.48C127.087 6.48 127.479 6.214 127.479 5.801C127.479 5.381 127.087 5.115 126.52 5.115ZM126.226 3.162H126.807V4.128H126.226V3.162ZM132.134 3.974H132.624C132.624 5.332 132.442 6.823 131.539 8.055L131.084 7.789C131.952 6.662 132.134 5.339 132.134 4.016V3.974ZM131.217 3.974H132.421V4.457H131.217V3.974ZM133.527 3.974H134.024C134.024 5.311 133.94 7.089 132.946 8.461L132.484 8.195C133.45 6.935 133.527 5.29 133.527 4.023V3.974ZM132.834 3.974H133.835V4.457H132.834V3.974ZM135.914 3.218H136.474V9.546H135.914V3.218ZM133.73 5.703H134.864V6.179H133.73V5.703ZM134.745 3.379H135.291V9.224H134.745V3.379ZM141.8 3.211H142.381V9.553H141.8V3.211ZM142.241 5.731H143.417V6.221H142.241V5.731ZM137.768 7.544H138.272C139.462 7.544 140.288 7.502 141.247 7.32L141.31 7.803C140.323 7.978 139.483 8.027 138.272 8.027H137.768V7.544ZM137.754 3.806H140.617V6.074H138.342V7.74H137.768V5.598H140.043V4.282H137.754V3.806ZM146.986 4.331H148.757V4.807H146.986V4.331ZM146.986 5.682H148.771V6.165H146.986V5.682ZM144.242 3.764H147.133V6.732H144.242V3.764ZM146.559 4.233H144.809V6.263H146.559V4.233ZM148.575 3.225H149.156V7.845H148.575V3.225ZM145.089 8.93H149.31V9.406H145.089V8.93ZM145.089 7.425H145.67V9.147H145.089V7.425ZM152.679 7.502H153.162C154.338 7.502 155.094 7.474 155.976 7.306L156.039 7.782C155.129 7.95 154.366 7.992 153.162 7.992H152.679V7.502ZM152.679 3.82H155.556V4.296H153.253V7.684H152.679V3.82ZM156.998 3.218H157.579V9.56H156.998V3.218ZM155.185 5.507H157.236V5.99H155.185V5.507ZM161.365 6.578H161.939V7.67H161.365V6.578ZM158.796 6.291H164.515V6.767H158.796V6.291ZM159.433 7.509H163.808V9.546H163.227V7.978H159.433V7.509ZM161.659 3.365C163.024 3.365 163.885 3.82 163.885 4.583C163.885 5.346 163.024 5.801 161.659 5.801C160.287 5.801 159.433 5.346 159.433 4.583C159.433 3.82 160.287 3.365 161.659 3.365ZM161.659 3.827C160.651 3.827 160.028 4.107 160.028 4.583C160.028 5.066 160.651 5.339 161.659 5.339C162.66 5.339 163.29 5.066 163.29 4.583C163.29 4.107 162.66 3.827 161.659 3.827ZM169.773 5.094H170.347V6.06H169.773V5.094ZM169.689 3.603H170.2V3.799C170.2 4.751 169.024 5.36 167.694 5.486L167.505 5.045C168.646 4.954 169.689 4.464 169.689 3.799V3.603ZM169.941 3.603H170.445V3.799C170.445 4.457 171.488 4.954 172.629 5.045L172.44 5.486C171.117 5.36 169.941 4.751 169.941 3.799V3.603ZM167.729 3.414H172.412V3.869H167.729V3.414ZM167.736 7.145H172.398V7.607H167.736V7.145ZM167.204 5.843H172.944V6.312H167.204V5.843ZM170.067 7.915C171.285 7.915 171.964 8.202 171.964 8.748C171.964 9.301 171.285 9.581 170.067 9.581C168.849 9.581 168.163 9.301 168.163 8.748C168.163 8.202 168.849 7.915 170.067 7.915ZM170.067 8.314C169.227 8.314 168.758 8.461 168.758 8.748C168.758 9.035 169.227 9.182 170.067 9.182C170.9 9.182 171.376 9.035 171.376 8.748C171.376 8.461 170.9 8.314 170.067 8.314ZM169.78 6.564H170.354V7.439H169.78V6.564ZM173.644 6.543H179.363V7.019H173.644V6.543ZM174.386 8.93H178.733V9.406H174.386V8.93ZM174.386 7.572H174.967V9.077H174.386V7.572ZM176.507 3.428C177.858 3.428 178.733 3.904 178.733 4.695C178.733 5.479 177.858 5.955 176.507 5.955C175.149 5.955 174.281 5.479 174.281 4.695C174.281 3.904 175.149 3.428 176.507 3.428ZM176.507 3.904C175.513 3.904 174.876 4.198 174.876 4.695C174.876 5.192 175.513 5.486 176.507 5.486C177.501 5.486 178.138 5.192 178.138 4.695C178.138 4.198 177.501 3.904 176.507 3.904Z" fill="white"/>
<path d="M111.889 42.9258V38.1985H114.742V38.7063H112.462V40.3036H114.595V40.8114H112.462V42.418H114.779V42.9258H111.889ZM117.732 40.3082V40.8161H115.663V40.3082H117.732ZM122.488 37.5568H123.034V43.4328H122.488V37.5568ZM122.904 39.8643H123.996V40.3258H122.904V39.8643ZM118.744 38.0508H119.277V39.6043H120.954V38.0508H121.487V42.0223H118.744V38.0508ZM119.277 40.0333V41.5803H120.954V40.0333H119.277ZM124.49 40.9238H129.82V41.3658H124.49V40.9238ZM126.869 41.1968H127.402V43.4328H126.869V41.1968ZM127.142 37.7908C128.37 37.7908 129.196 38.2913 129.196 39.0778C129.196 39.8643 128.37 40.3648 127.142 40.3648C125.92 40.3648 125.088 39.8643 125.088 39.0778C125.088 38.2913 125.92 37.7908 127.142 37.7908ZM127.142 38.2263C126.245 38.2263 125.634 38.5578 125.634 39.0778C125.634 39.5978 126.245 39.9293 127.142 39.9293C128.039 39.9293 128.643 39.5978 128.643 39.0778C128.643 38.5578 128.039 38.2263 127.142 38.2263ZM134.772 37.5503H135.305V43.4393H134.772V37.5503ZM133.505 39.9098H134.928V40.3583H133.505V39.9098ZM131.971 38.9543H132.4V39.4548C132.4 40.6963 131.717 41.8403 130.788 42.3018L130.482 41.8858C131.347 41.4698 131.971 40.4688 131.971 39.4548V38.9543ZM132.075 38.9543H132.497V39.4548C132.497 40.4233 133.141 41.3788 134.005 41.7753L133.706 42.1913C132.764 41.7558 132.075 40.6573 132.075 39.4548V38.9543ZM130.645 38.5773H133.804V39.0128H130.645V38.5773ZM131.964 37.6608H132.504V38.8178H131.964V37.6608ZM136.455 42.2628H141.779V42.7113H136.455V42.2628ZM138.834 41.0018H139.374V42.4513H138.834V41.0018ZM137.099 37.9923H141.122V39.7733H137.651V40.9498H137.118V39.3378H140.589V38.4278H137.099V37.9923ZM137.118 40.7223H141.259V41.1643H137.118V40.7223ZM144.263 42.2433H149.586V42.6918H144.263V42.2433ZM146.648 40.9173H147.188V42.4838H146.648V40.9173ZM146.648 38.7853H147.123V38.9153C147.123 40.1178 146.031 40.8978 144.757 41.1188L144.549 40.6898C145.699 40.5078 146.648 39.8253 146.648 38.9153V38.7853ZM146.72 38.7853H147.188V38.9153C147.188 39.8253 148.137 40.5078 149.287 40.6898L149.079 41.1188C147.805 40.8978 146.72 40.1178 146.72 38.9153V38.7853ZM144.75 38.4798H149.079V38.9283H144.75V38.4798ZM146.648 37.6803H147.188V38.6423H146.648V37.6803ZM150.801 38.1418H154.584V38.5903H150.801V38.1418ZM150.242 42.1653H155.553V42.6138H150.242V42.1653ZM152.303 40.0658H152.842V42.3863H152.303V40.0658ZM154.383 38.1418H154.916V38.7268C154.916 39.4548 154.916 40.2608 154.701 41.4503L154.162 41.3788C154.383 40.2543 154.383 39.4288 154.383 38.7268V38.1418ZM156.215 40.5013H161.545V40.9433H156.215V40.5013ZM158.601 39.6108H159.134V40.7028H158.601V39.6108ZM158.594 37.6478H159.062V37.9078C159.062 38.9673 157.938 39.7213 156.742 39.9163L156.534 39.4873C157.587 39.3443 158.594 38.6943 158.594 37.9078V37.6478ZM158.679 37.6478H159.14V37.9078C159.14 38.6943 160.154 39.3443 161.201 39.4873L160.999 39.9163C159.81 39.7148 158.679 38.9673 158.679 37.9078V37.6478ZM156.807 41.5153H160.869V43.4328H160.33V41.9508H156.807V41.5153ZM168.3 37.5568H168.846V40.7093H168.3V37.5568ZM165.056 41.0018H165.589V41.7168H168.313V41.0018H168.846V43.3548H165.056V41.0018ZM165.589 42.1458V42.9193H168.313V42.1458H165.589ZM165.693 37.8363C166.584 37.8363 167.221 38.3888 167.221 39.1883C167.221 39.9943 166.584 40.5468 165.693 40.5468C164.803 40.5468 164.159 39.9943 164.159 39.1883C164.159 38.3888 164.803 37.8363 165.693 37.8363ZM165.693 38.2848C165.108 38.2848 164.686 38.6553 164.686 39.1883C164.686 39.7213 165.108 40.0918 165.693 40.0918C166.278 40.0918 166.701 39.7213 166.701 39.1883C166.701 38.6553 166.278 38.2848 165.693 38.2848ZM171.452 38.1873H171.894V38.6618C171.894 39.7408 171.244 40.6443 170.256 41.0018L169.983 40.5728C170.867 40.2608 171.452 39.5003 171.452 38.6618V38.1873ZM171.549 38.1873H171.991V38.6553C171.991 39.4223 172.55 40.1113 173.415 40.3973L173.155 40.8198C172.173 40.4948 171.549 39.6563 171.549 38.6553V38.1873ZM170.145 37.9923H173.285V38.4343H170.145V37.9923ZM174.026 37.5568H174.565V41.0993H174.026V37.5568ZM174.416 39.0453H175.436V39.5003H174.416V39.0453ZM172.693 41.2553C173.889 41.2553 174.624 41.6518 174.624 42.3343C174.624 43.0233 173.889 43.4198 172.693 43.4198C171.497 43.4198 170.763 43.0233 170.763 42.3343C170.763 41.6518 171.497 41.2553 172.693 41.2553ZM172.693 41.6908C171.822 41.6908 171.289 41.9248 171.289 42.3343C171.289 42.7503 171.822 42.9973 172.693 42.9973C173.564 42.9973 174.097 42.7503 174.097 42.3343C174.097 41.9248 173.564 41.6908 172.693 41.6908ZM176.882 38.1985L176.836 41.5962H176.3L176.254 38.1985H176.882ZM176.568 42.9627C176.454 42.9627 176.356 42.9219 176.275 42.8404C176.193 42.7588 176.153 42.6611 176.153 42.5472C176.153 42.4334 176.193 42.3356 176.275 42.2541C176.356 42.1725 176.454 42.1317 176.568 42.1317C176.682 42.1317 176.78 42.1725 176.861 42.2541C176.943 42.3356 176.984 42.4334 176.984 42.5472C176.984 42.6226 176.964 42.6919 176.926 42.755C176.889 42.8181 176.839 42.8688 176.776 42.9073C176.714 42.9442 176.645 42.9627 176.568 42.9627Z" fill="white"/>
<path d="M106.585 38.4043H103.585V43.9143H109.185V40.7312" stroke="white"/>
<path d="M104.504 39.9946L106.341 42.1367L110.228 37.4238" stroke="white"/>
</g>
</g>
<defs>
<clipPath id="clip0_12137_18916">
<rect width="345" height="47" fill="white"/>
</clipPath>
</defs>
</svg>
