<svg width="800" height="109" viewBox="0 0 800 109" fill="none" xmlns="http://www.w3.org/2000/svg">
<g clip-path="url(#clip0_12137_18903)">
<mask id="mask0_12137_18903" style="mask-type:luminance" maskUnits="userSpaceOnUse" x="0" y="0" width="800" height="109">
<path d="M800 0H0V109H800V0Z" fill="white"/>
</mask>
<g mask="url(#mask0_12137_18903)">
<path d="M168.866 39.55H172.856V43.73C172.856 50.076 170.5 56.308 164.876 59.006L162.026 55.13C166.966 52.736 168.866 48.024 168.866 43.73V39.55ZM169.778 39.55H173.73V43.73C173.73 47.834 175.554 51.938 180.228 54.066L177.492 57.866C171.982 55.472 169.778 49.848 169.778 43.73V39.55ZM187.714 37.232H192.502V63.566H187.714V37.232ZM183.534 47.302H189.12V51.368H183.534V47.302ZM180.266 37.84H184.978V62.54H180.266V37.84ZM168.828 67.746H193.414V71.774H168.828V67.746ZM168.828 60.45H173.882V70.254H168.828V60.45ZM197.515 64.174H229.359V68.316H197.515V64.174ZM199.947 40.234H226.737V44.262H199.947V40.234ZM200.099 54.788H226.623V58.854H200.099V54.788ZM204.735 43.958H209.789V55.168H204.735V43.958ZM216.933 43.958H221.949V55.168H216.933V43.958ZM255.082 37.232H260.136V63.148H255.082V37.232ZM258.692 47.302H264.81V51.482H258.692V47.302ZM237.564 67.746H261.428V71.774H237.564V67.746ZM237.564 61.058H242.656V69.076H237.564V61.058ZM233.688 54.066H236.652C243.568 54.066 247.824 53.876 252.688 52.964L253.144 57.03C248.204 57.942 243.758 58.094 236.652 58.094H233.688V54.066ZM233.65 39.322H249.724V50.418H238.704V55.51H233.688V46.694H244.746V43.35H233.65V39.322ZM275.979 39.892H280.083V45.022C280.083 54.066 276.967 62.236 269.975 65.466L266.973 61.286C273.091 58.626 275.979 51.862 275.979 45.022V39.892ZM276.967 39.892H281.071V45.022C281.071 51.52 283.845 57.98 289.849 60.564L286.885 64.63C280.083 61.514 276.967 53.686 276.967 45.022V39.892ZM291.521 37.156H296.613V72.458H291.521V37.156ZM315.42 39.208H319.828V41.754C319.828 49.392 314.394 56.156 305.274 57.942L303.108 53.762C311.05 52.394 315.42 46.808 315.42 41.754V39.208ZM316.446 39.208H320.816V41.754C320.816 46.922 325.148 52.394 333.128 53.762L330.962 57.942C321.842 56.156 316.446 49.506 316.446 41.754V39.208ZM302.386 63.984H334.23V68.088H302.386V63.984ZM340.915 40.12H363.069V44.148H340.915V40.12ZM337.305 64.288H369.111V68.354H337.305V64.288ZM361.055 40.12H366.033V43.198C366.033 47.454 366.071 52.432 364.437 60.07L359.459 59.538C361.055 52.394 361.055 47.264 361.055 43.198V40.12ZM361.967 48.594V52.394L340.497 53.572L339.813 49.278L361.967 48.594ZM348.591 55.852H353.645V65.77H348.591V55.852ZM396.264 34.17H401.295V36.019C401.295 43.673 395.275 50.166 384.826 51.714L382.59 47.113C391.749 45.909 396.264 40.706 396.264 36.019V34.17ZM397.339 34.17H402.327V36.019C402.327 40.663 406.885 45.909 416.001 47.113L413.808 51.714C403.359 50.166 397.339 43.673 397.339 36.019V34.17ZM396.307 58.25H401.983V72.827H396.307V58.25ZM381.3 54.638H417.291V59.282H381.3V54.638ZM434.875 36.664H439.949V37.653C439.949 43.716 434.574 48.704 424.34 49.693L422.319 45.264C431.048 44.404 434.875 40.835 434.875 37.653V36.664ZM437.67 36.664H442.744V37.653C442.744 40.878 446.571 44.447 455.3 45.264L453.279 49.693C443.088 48.704 437.67 43.759 437.67 37.653V36.664ZM424.082 34.471H453.58V38.986H424.082V34.471ZM420.814 52.359H456.848V56.917H420.814V52.359ZM435.907 47.242H441.583V54.38H435.907V47.242ZM424.813 59.798H452.462V72.827H446.743V64.313H424.813V59.798ZM462.133 35.89H479.161V40.491H462.133V35.89ZM467.035 45.178H472.711V55.154H467.035V45.178ZM476.925 35.89H482.558V38.384C482.558 41.179 482.558 45.135 481.612 50.08L476.065 49.478C476.925 44.576 476.925 41.136 476.925 38.384V35.89ZM486.428 33.009H492.19V62.808H486.428V33.009ZM489.911 45.135H496.92V49.822H489.911V45.135ZM465.616 67.581H493.437V72.139H465.616V67.581ZM465.616 60.142H471.335V69H465.616V60.142ZM460.327 57.476L459.811 52.961C466.691 52.961 476.28 52.832 484.278 51.714L484.622 55.756C476.409 57.304 467.164 57.476 460.327 57.476ZM507.873 64.7244L507.705 66.4041C507.573 67.7479 507.318 69.0865 506.941 70.4201C506.575 71.7638 506.188 72.9804 505.781 74.0696C505.384 75.1589 505.063 76.014 504.819 76.6349H500.604C500.757 76.0343 500.966 75.1945 501.23 74.1154C501.495 73.0465 501.745 71.8453 501.979 70.5117C502.213 69.1781 502.36 67.8191 502.422 66.4347L502.498 64.7244H507.873ZM547.055 33.009H552.774V56.874H547.055V33.009ZM551.183 42.684H558.063V47.371H551.183V42.684ZM526.2 58.637H552.774V72.827H547.055V63.195H526.2V58.637ZM522.588 35.503H528.264V40.749H536.047V35.503H541.723V54.853H522.588V35.503ZM528.264 45.135V50.381H536.047V45.135H528.264ZM576.077 52.144H581.796V57.691H576.077V52.144ZM560.984 48.79H596.975V53.262H560.984V48.79ZM565.413 34.17H592.417V46.683H565.413V34.17ZM586.784 38.599H571.046V42.297H586.784V38.599ZM565.112 55.756H592.632V65.99H570.788V69.516H565.155V62.034H586.999V60.013H565.112V55.756ZM565.155 68.269H593.664V72.569H565.155V68.269ZM602.303 35.89H619.331V40.491H602.303V35.89ZM607.205 45.178H612.881V55.154H607.205V45.178ZM617.095 35.89H622.728V38.384C622.728 41.179 622.728 45.135 621.782 50.08L616.235 49.478C617.095 44.576 617.095 41.136 617.095 38.384V35.89ZM626.598 33.009H632.36V62.808H626.598V33.009ZM630.081 45.135H637.09V49.822H630.081V45.135ZM605.786 67.581H633.607V72.139H605.786V67.581ZM605.786 60.142H611.505V69H605.786V60.142ZM600.497 57.476L599.981 52.961C606.861 52.961 616.45 52.832 624.448 51.714L624.792 55.756C616.579 57.304 607.334 57.476 600.497 57.476Z" fill="white"/>
<path d="M167.235 4.2245C170.095 4.2245 172.116 6.869 172.116 10.997C172.116 15.1465 170.095 17.791 167.235 17.791C164.376 17.791 162.355 15.1465 162.355 10.997C162.355 6.869 164.376 4.2245 167.235 4.2245ZM167.235 5.837C165.343 5.837 164.053 7.858 164.053 10.997C164.053 14.1575 165.343 16.2215 167.235 16.2215C169.106 16.2215 170.417 14.1575 170.417 10.997C170.417 7.858 169.106 5.837 167.235 5.837ZM175.212 2.741H177.018V22.177H175.212V2.741ZM176.588 10.5025H180.2V12.0075H176.588V10.5025ZM195.957 2.7195H197.742V22.1985H195.957V2.7195ZM187.486 4.2245C190.367 4.2245 192.431 6.869 192.431 10.997C192.431 15.1465 190.367 17.791 187.486 17.791C184.627 17.791 182.563 15.1465 182.563 10.997C182.563 6.869 184.627 4.2245 187.486 4.2245ZM187.486 5.837C185.594 5.837 184.261 7.858 184.261 10.997C184.261 14.1575 185.594 16.2215 187.486 16.2215C189.4 16.2215 190.711 14.1575 190.711 10.997C190.711 7.858 189.4 5.837 187.486 5.837ZM206.534 12.545H208.318V17.189H206.534V12.545ZM207.415 3.988C210.404 3.988 212.554 5.8585 212.554 8.5675C212.554 11.2765 210.404 13.147 207.415 13.147C204.427 13.147 202.277 11.2765 202.277 8.5675C202.277 5.8585 204.427 3.988 207.415 3.988ZM207.415 5.5145C205.437 5.5145 204.018 6.7615 204.018 8.5675C204.018 10.3735 205.437 11.6205 207.415 11.6205C209.393 11.6205 210.812 10.3735 210.812 8.5675C210.812 6.7615 209.393 5.5145 207.415 5.5145ZM214.768 2.741H216.553V22.177H214.768V2.741ZM216.037 10.739H219.627V12.244H216.037V10.739ZM201.653 17.9845L201.395 16.501C204.9 16.4795 209.587 16.458 213.543 15.9205L213.693 17.2535C209.587 17.9415 205.05 17.9845 201.653 17.9845ZM240.744 2.741H242.528V14.437H240.744V2.741ZM242.034 7.901H245.409V9.3845H242.034V7.901ZM230.316 15.5335H242.528V21.919H230.316V15.5335ZM240.787 16.974H232.058V20.4785H240.787V16.974ZM227.5 4.7835H238.981V6.2455H227.5V4.7835ZM233.24 7.1915C236.014 7.1915 237.884 8.5675 237.884 10.6745C237.884 12.7815 236.014 14.1145 233.24 14.1145C230.445 14.1145 228.575 12.7815 228.575 10.6745C228.575 8.5675 230.445 7.1915 233.24 7.1915ZM233.24 8.5675C231.456 8.5675 230.273 9.3845 230.273 10.6745C230.273 11.943 231.456 12.76 233.24 12.76C234.982 12.76 236.186 11.943 236.186 10.6745C236.186 9.3845 234.982 8.5675 233.24 8.5675ZM232.337 2.569H234.122V5.536H232.337V2.569ZM250.482 5.063H251.987C251.987 9.234 251.428 13.8135 248.654 17.5975L247.257 16.7805C249.923 13.319 250.482 9.2555 250.482 5.192V5.063ZM247.665 5.063H251.363V6.5465H247.665V5.063ZM254.76 5.063H256.287C256.287 9.1695 256.029 14.6305 252.976 18.8445L251.557 18.0275C254.524 14.1575 254.76 9.105 254.76 5.2135V5.063ZM252.632 5.063H255.706V6.5465H252.632V5.063ZM262.092 2.741H263.812V22.177H262.092V2.741ZM255.384 10.3735H258.867V11.8355H255.384V10.3735ZM258.501 3.2355H260.178V21.188H258.501V3.2355ZM280.171 2.7195H281.956V22.1985H280.171V2.7195ZM281.526 10.4595H285.138V11.9645H281.526V10.4595ZM267.787 16.028H269.335C272.99 16.028 275.527 15.899 278.473 15.34L278.666 16.8235C275.635 17.361 273.055 17.5115 269.335 17.5115H267.787V16.028ZM267.744 4.547H276.538V11.513H269.55V16.63H267.787V10.051H274.775V6.009H267.744V4.547ZM296.101 6.1595H301.541V7.6215H296.101V6.1595ZM296.101 10.309H301.584V11.7925H296.101V10.309ZM287.673 4.418H296.553V13.534H287.673V4.418ZM294.79 5.8585H289.415V12.0935H294.79V5.8585ZM300.982 2.7625H302.766V16.9525H300.982V2.7625ZM290.275 20.285H303.239V21.747H290.275V20.285ZM290.275 15.6625H292.059V20.9515H290.275V15.6625ZM313.584 15.899H315.068C318.68 15.899 321.002 15.813 323.711 15.297L323.904 16.759C321.109 17.275 318.766 17.404 315.068 17.404H313.584V15.899ZM313.584 4.59H322.421V6.052H315.347V16.458H313.584V4.59ZM326.85 2.741H328.634V22.22H326.85V2.741ZM321.281 9.7715H327.581V11.255H321.281V9.7715ZM340.264 13.061H342.027V16.415H340.264V13.061ZM332.374 12.1795H349.939V13.6415H332.374V12.1795ZM334.33 15.9205H347.768V22.177H345.983V17.361H334.33V15.9205ZM341.167 3.1925C345.36 3.1925 348.004 4.59 348.004 6.9335C348.004 9.277 345.36 10.6745 341.167 10.6745C336.953 10.6745 334.33 9.277 334.33 6.9335C334.33 4.59 336.953 3.1925 341.167 3.1925ZM341.167 4.6115C338.071 4.6115 336.158 5.4715 336.158 6.9335C336.158 8.417 338.071 9.2555 341.167 9.2555C344.242 9.2555 346.177 8.417 346.177 6.9335C346.177 5.4715 344.242 4.6115 341.167 4.6115ZM366.09 8.503H367.853V11.47H366.09V8.503ZM365.832 3.9235H367.401V4.5255C367.401 7.4495 363.789 9.32 359.704 9.707L359.124 8.3525C362.628 8.073 365.832 6.568 365.832 4.5255V3.9235ZM366.606 3.9235H368.154V4.5255C368.154 6.5465 371.357 8.073 374.862 8.3525L374.281 9.707C370.218 9.32 366.606 7.4495 366.606 4.5255V3.9235ZM359.812 3.343H374.195V4.7405H359.812V3.343ZM359.833 14.8025H374.152V16.2215H359.833V14.8025ZM358.199 10.8035H375.829V12.244H358.199V10.8035ZM366.993 17.1675C370.734 17.1675 372.819 18.049 372.819 19.726C372.819 21.4245 370.734 22.2845 366.993 22.2845C363.252 22.2845 361.145 21.4245 361.145 19.726C361.145 18.049 363.252 17.1675 366.993 17.1675ZM366.993 18.393C364.413 18.393 362.972 18.8445 362.972 19.726C362.972 20.6075 364.413 21.059 366.993 21.059C369.551 21.059 371.013 20.6075 371.013 19.726C371.013 18.8445 369.551 18.393 366.993 18.393ZM366.111 13.018H367.874V15.7055H366.111V13.018ZM377.977 12.9535H395.543V14.4155H377.977V12.9535ZM380.256 20.285H393.608V21.747H380.256V20.285ZM380.256 16.114H382.041V20.7365H380.256V16.114ZM386.771 3.386C390.92 3.386 393.608 4.848 393.608 7.2775C393.608 9.6855 390.92 11.1475 386.771 11.1475C382.6 11.1475 379.934 9.6855 379.934 7.2775C379.934 4.848 382.6 3.386 386.771 3.386ZM386.771 4.848C383.718 4.848 381.761 5.751 381.761 7.2775C381.761 8.804 383.718 9.707 386.771 9.707C389.824 9.707 391.78 8.804 391.78 7.2775C391.78 5.751 389.824 4.848 386.771 4.848Z" fill="white"/>
<path d="M183.077 104V90.9091H190.978V92.3153H184.662V96.7386H190.569V98.1449H184.662V102.594H191.08V104H183.077ZM199.255 96.7514V98.1577H193.528V96.7514H199.255ZM212.427 89.132H213.939V105.404H212.427V89.132ZM213.579 95.522H216.603V96.8H213.579V95.522ZM202.059 90.5H203.535V94.802H208.179V90.5H209.655V101.498H202.059V90.5ZM203.535 95.99V100.274H208.179V95.99H203.535ZM217.97 98.456H232.73V99.68H217.97V98.456ZM224.558 99.212H226.034V105.404H224.558V99.212ZM225.314 89.78C228.716 89.78 231.002 91.166 231.002 93.344C231.002 95.522 228.716 96.908 225.314 96.908C221.93 96.908 219.626 95.522 219.626 93.344C219.626 91.166 221.93 89.78 225.314 89.78ZM225.314 90.986C222.83 90.986 221.138 91.904 221.138 93.344C221.138 94.784 222.83 95.702 225.314 95.702C227.798 95.702 229.472 94.784 229.472 93.344C229.472 91.904 227.798 90.986 225.314 90.986ZM246.444 89.114H247.92V105.422H246.444V89.114ZM242.934 95.648H246.876V96.89H242.934V95.648ZM238.686 93.002H239.874V94.388C239.874 97.826 237.984 100.994 235.41 102.272L234.564 101.12C236.958 99.968 238.686 97.196 238.686 94.388V93.002ZM238.974 93.002H240.144V94.388C240.144 97.07 241.926 99.716 244.32 100.814L243.492 101.966C240.882 100.76 238.974 97.718 238.974 94.388V93.002ZM235.014 91.958H243.762V93.164H235.014V91.958ZM238.668 89.42H240.162V92.624H238.668V89.42ZM251.105 102.164H265.847V103.406H251.105V102.164ZM257.693 98.672H259.187V102.686H257.693V98.672ZM252.887 90.338H264.029V95.27H254.417V98.528H252.941V94.064H262.553V91.544H252.887V90.338ZM252.941 97.898H264.407V99.122H252.941V97.898ZM272.726 102.11H287.468V103.352H272.726V102.11ZM279.332 98.438H280.826V102.776H279.332V98.438ZM279.332 92.534H280.646V92.894C280.646 96.224 277.622 98.384 274.094 98.996L273.518 97.808C276.704 97.304 279.332 95.414 279.332 92.894V92.534ZM279.53 92.534H280.826V92.894C280.826 95.414 283.454 97.304 286.64 97.808L286.064 98.996C282.536 98.384 279.53 96.224 279.53 92.894V92.534ZM274.076 91.688H286.064V92.93H274.076V91.688ZM279.332 89.474H280.826V92.138H279.332V89.474ZM290.833 90.752H301.309V91.994H290.833V90.752ZM289.285 101.894H303.991V103.136H289.285V101.894ZM294.991 96.08H296.485V102.506H294.991V96.08ZM300.751 90.752H302.227V92.372C302.227 94.388 302.227 96.62 301.633 99.914L300.139 99.716C300.751 96.602 300.751 94.316 300.751 92.372V90.752ZM305.825 97.286H320.585V98.51H305.825V97.286ZM312.431 94.82H313.907V97.844H312.431V94.82ZM312.413 89.384H313.709V90.104C313.709 93.038 310.595 95.126 307.283 95.666L306.707 94.478C309.623 94.082 312.413 92.282 312.413 90.104V89.384ZM312.647 89.384H313.925V90.104C313.925 92.282 316.733 94.082 319.631 94.478L319.073 95.666C315.779 95.108 312.647 93.038 312.647 90.104V89.384ZM307.463 100.094H318.713V105.404H317.219V101.3H307.463V100.094ZM339.29 89.132H340.802V97.862H339.29V89.132ZM330.308 98.672H331.784V100.652H339.326V98.672H340.802V105.188H330.308V98.672ZM331.784 101.84V103.982H339.326V101.84H331.784ZM332.072 89.906C334.538 89.906 336.302 91.436 336.302 93.65C336.302 95.882 334.538 97.412 332.072 97.412C329.606 97.412 327.824 95.882 327.824 93.65C327.824 91.436 329.606 89.906 332.072 89.906ZM332.072 91.148C330.452 91.148 329.282 92.174 329.282 93.65C329.282 95.126 330.452 96.152 332.072 96.152C333.692 96.152 334.862 95.126 334.862 93.65C334.862 92.174 333.692 91.148 332.072 91.148ZM348.019 90.878H349.243V92.192C349.243 95.18 347.443 97.682 344.707 98.672L343.951 97.484C346.399 96.62 348.019 94.514 348.019 92.192V90.878ZM348.289 90.878H349.513V92.174C349.513 94.298 351.061 96.206 353.455 96.998L352.735 98.168C350.017 97.268 348.289 94.946 348.289 92.174V90.878ZM344.401 90.338H353.095V91.562H344.401V90.338ZM355.147 89.132H356.641V98.942H355.147V89.132ZM356.227 93.254H359.053V94.514H356.227V93.254ZM351.457 99.374C354.769 99.374 356.803 100.472 356.803 102.362C356.803 104.27 354.769 105.368 351.457 105.368C348.145 105.368 346.111 104.27 346.111 102.362C346.111 100.472 348.145 99.374 351.457 99.374ZM351.457 100.58C349.045 100.58 347.569 101.228 347.569 102.362C347.569 103.514 349.045 104.198 351.457 104.198C353.869 104.198 355.345 103.514 355.345 102.362C355.345 101.228 353.869 100.58 351.457 100.58ZM363.056 90.9091L362.929 100.318H361.446L361.318 90.9091H363.056ZM362.187 104.102C361.872 104.102 361.601 103.989 361.375 103.763C361.149 103.538 361.037 103.267 361.037 102.952C361.037 102.636 361.149 102.366 361.375 102.14C361.601 101.914 361.872 101.801 362.187 101.801C362.502 101.801 362.773 101.914 362.999 102.14C363.225 102.366 363.338 102.636 363.338 102.952C363.338 103.161 363.284 103.352 363.178 103.527C363.076 103.702 362.937 103.842 362.762 103.949C362.592 104.051 362.4 104.102 362.187 104.102Z" fill="white"/>
<path d="M169.562 91.792H162V105.681H176.12V97.656" stroke="white" stroke-width="1.8"/>
<path d="M164.315 95.8022L168.944 101.202L178.744 89.3193" stroke="white" stroke-width="1.8"/>
</g>
</g>
<defs>
<clipPath id="clip0_12137_18903">
<rect width="800" height="109" fill="white"/>
</clipPath>
</defs>
</svg>
