<svg width="800" height="109" viewBox="0 0 800 109" fill="none" xmlns="http://www.w3.org/2000/svg">
<g clip-path="url(#clip0_25_13)">
<mask id="mask0_25_13" style="mask-type:luminance" maskUnits="userSpaceOnUse" x="0" y="0" width="800" height="109">
<path d="M800 0H0V109H800V0Z" fill="white"/>
</mask>
<g mask="url(#mask0_25_13)">
<path d="M149.901 6.675H154.416V11.405C154.416 18.586 151.75 25.638 145.386 28.691L142.161 24.305C147.751 21.596 149.901 16.264 149.901 11.405V6.675ZM150.933 6.675H155.405V11.405C155.405 16.049 157.469 20.693 162.758 23.101L159.662 27.401C153.427 24.692 150.933 18.328 150.933 11.405V6.675ZM171.229 4.052H176.647V33.851H171.229V4.052ZM166.499 15.447H172.82V20.048H166.499V15.447ZM162.801 4.74H168.133V32.69H162.801V4.74ZM149.858 38.581H177.679V43.139H149.858V38.581ZM149.858 30.325H155.577V41.419H149.858V30.325ZM182.32 34.539H218.354V39.226H182.32V34.539ZM185.072 7.449H215.387V12.007H185.072V7.449ZM185.244 23.918H215.258V28.519H185.244V23.918ZM190.49 11.663H196.209V24.348H190.49V11.663ZM204.293 11.663H209.969V24.348H204.293V11.663ZM247.461 4.052H253.18V33.378H247.461V4.052ZM251.546 15.447H258.469V20.177H251.546V15.447ZM227.638 38.581H254.642V43.139H227.638V38.581ZM227.638 31.013H233.4V40.086H227.638V31.013ZM223.252 23.101H226.606C234.432 23.101 239.248 22.886 244.752 21.854L245.268 26.455C239.678 27.487 234.647 27.659 226.606 27.659H223.252V23.101ZM223.209 6.417H241.398V18.973H228.928V24.735H223.252V14.759H235.765V10.975H223.209V6.417ZM285.717 15.376H295.293V19.442H285.717V15.376ZM285.717 26.282H295.293V30.348H285.717V26.282ZM279.637 10.626C284.881 10.626 288.719 15.49 288.719 23.166C288.719 30.918 284.881 35.782 279.637 35.782C274.355 35.782 270.555 30.918 270.555 23.166C270.555 15.49 274.355 10.626 279.637 10.626ZM279.637 15.224C277.091 15.224 275.343 17.998 275.343 23.166C275.343 28.41 277.091 31.222 279.637 31.222C282.221 31.222 283.931 28.41 283.931 23.166C283.931 17.998 282.221 15.224 279.637 15.224ZM294.495 8.156H299.511V43.458H294.495V8.156ZM330.136 8.194H334.924V30.234H330.136V8.194ZM325.842 16.858H331.466V20.962H325.842V16.858ZM322.84 8.878H327.552V29.094H322.84V8.878ZM304.79 11.804H321.852V15.68H304.79V11.804ZM313.378 16.82C317.786 16.82 320.978 19.328 320.978 22.976C320.978 26.624 317.786 29.094 313.378 29.094C308.97 29.094 305.778 26.624 305.778 22.976C305.778 19.328 308.97 16.82 313.378 16.82ZM313.378 20.43C311.516 20.43 310.262 21.342 310.262 22.976C310.262 24.61 311.516 25.522 313.378 25.522C315.202 25.522 316.456 24.61 316.456 22.976C316.456 21.342 315.202 20.43 313.378 20.43ZM310.832 8.536H315.81V14.464H310.832V8.536ZM323.03 30.614C330.554 30.614 335.114 32.894 335.114 36.998C335.114 41.064 330.554 43.382 323.03 43.382C315.468 43.382 310.908 41.064 310.908 36.998C310.908 32.894 315.468 30.614 323.03 30.614ZM323.03 34.376C318.318 34.376 315.962 35.174 315.962 36.998C315.962 38.784 318.318 39.62 323.03 39.62C327.704 39.62 330.06 38.784 330.06 36.998C330.06 35.174 327.704 34.376 323.03 34.376ZM351.223 10.512C356.771 10.512 360.913 14.122 360.913 19.176C360.913 24.268 356.771 27.878 351.223 27.878C345.713 27.878 341.495 24.268 341.495 19.176C341.495 14.122 345.713 10.512 351.223 10.512ZM351.223 14.844C348.525 14.844 346.473 16.44 346.473 19.176C346.473 21.95 348.525 23.546 351.223 23.546C353.921 23.546 355.973 21.95 355.973 19.176C355.973 16.44 353.921 14.844 351.223 14.844ZM364.219 8.156H369.273V43.458H364.219V8.156ZM340.659 36.314L340.051 32.248C346.245 32.248 354.871 32.172 362.281 31.07L362.661 34.718C355.023 36.238 346.739 36.314 340.659 36.314ZM392.239 10.892H396.343V16.022C396.343 25.066 393.227 33.236 386.235 36.466L383.233 32.286C389.351 29.626 392.239 22.862 392.239 16.022V10.892ZM393.227 10.892H397.331V16.022C397.331 22.52 400.105 28.98 406.109 31.564L403.145 35.63C396.343 32.514 393.227 24.686 393.227 16.022V10.892ZM407.781 8.156H412.873V43.458H407.781V8.156ZM426.436 11.804H430.578V14.008C430.578 20.658 427.424 26.624 420.698 28.79L418.076 24.876C423.966 22.976 426.436 18.416 426.436 14.008V11.804ZM427.462 11.804H431.566V14.008C431.566 18.15 433.96 22.444 439.66 24.268L437.076 28.182C430.502 26.054 427.462 20.316 427.462 14.008V11.804ZM419.444 10.246H438.444V14.274H419.444V10.246ZM441.256 8.194H446.31V29.398H441.256V8.194ZM444.904 16.706H450.984V20.848H444.904V16.706ZM422.826 30.918H446.31V43.382H441.256V34.984H422.826V30.918ZM467.223 40L461.582 19.2727H467.398L470.61 33.1989H470.799L474.145 19.2727H479.853L483.254 33.1179H483.429L486.587 19.2727H492.39L486.762 40H480.676L477.114 26.9645H476.858L473.295 40H467.223ZM495.456 40V19.2727H501.205V40H495.456ZM498.344 16.6009C497.489 16.6009 496.756 16.3175 496.144 15.7507C495.542 15.175 495.24 14.4867 495.24 13.6861C495.24 12.8944 495.542 12.2152 496.144 11.6484C496.756 11.0727 497.489 10.7848 498.344 10.7848C499.199 10.7848 499.927 11.0727 500.53 11.6484C501.142 12.2152 501.448 12.8944 501.448 13.6861C501.448 14.4867 501.142 15.175 500.53 15.7507C499.927 16.3175 499.199 16.6009 498.344 16.6009ZM516.835 19.2727V23.5909H504.352V19.2727H516.835ZM507.186 14.3068H512.935V33.6307C512.935 34.1615 513.016 34.5753 513.178 34.8722C513.339 35.16 513.564 35.3625 513.852 35.4794C514.149 35.5964 514.491 35.6548 514.878 35.6548C515.148 35.6548 515.418 35.6323 515.688 35.5874C515.957 35.5334 516.164 35.4929 516.308 35.4659L517.212 39.7436C516.924 39.8336 516.52 39.937 515.998 40.054C515.476 40.1799 514.842 40.2564 514.095 40.2834C512.71 40.3374 511.495 40.1529 510.452 39.7301C509.417 39.3073 508.612 38.6506 508.036 37.7599C507.46 36.8693 507.177 35.7448 507.186 34.3864V14.3068ZM526.773 28.017V40H521.025V12.3636H526.611V22.9297H526.854C527.322 21.7062 528.078 20.7481 529.121 20.0554C530.165 19.3537 531.474 19.0028 533.048 19.0028C534.487 19.0028 535.742 19.3177 536.813 19.9474C537.892 20.5682 538.729 21.4633 539.323 22.6328C539.926 23.7933 540.222 25.1832 540.213 26.8026V40H534.465V27.8281C534.474 26.5507 534.15 25.5566 533.493 24.8459C532.846 24.1352 531.937 23.7798 530.767 23.7798C529.985 23.7798 529.292 23.9463 528.689 24.2791C528.096 24.612 527.628 25.0978 527.286 25.7365C526.953 26.3662 526.782 27.1264 526.773 28.017ZM548.097 40.3509C547.207 40.3509 546.442 40.036 545.803 39.4062C545.174 38.7675 544.859 38.0028 544.859 37.1122C544.859 36.2306 545.174 35.4749 545.803 34.8452C546.442 34.2154 547.207 33.9006 548.097 33.9006C548.961 33.9006 549.717 34.2154 550.365 34.8452C551.012 35.4749 551.336 36.2306 551.336 37.1122C551.336 37.706 551.183 38.2502 550.877 38.745C550.58 39.2308 550.189 39.6222 549.703 39.919C549.218 40.2069 548.682 40.3509 548.097 40.3509ZM556.65 31.336H559.614C565.542 31.336 570.064 31.26 575.308 30.424L575.764 34.452C570.444 35.288 565.656 35.44 559.614 35.44H556.65V31.336ZM556.65 11.12H573.18V15.224H561.742V32.666H556.65V11.12ZM560.526 20.886H572.686V24.838H560.526V20.886ZM577.778 8.194H582.87V43.382H577.778V8.194ZM581.73 21.532H587.962V25.712H581.73V21.532ZM591.987 11.348H608.897V35.022H591.987V11.348ZM603.957 15.3H596.965V31.032H603.957V15.3ZM614.369 8.156H619.461V43.458H614.369V8.156ZM638.268 10.208H642.676V12.754C642.676 20.392 637.242 27.156 628.122 28.942L625.956 24.762C633.898 23.394 638.268 17.808 638.268 12.754V10.208ZM639.294 10.208H643.664V12.754C643.664 17.922 647.996 23.394 655.976 24.762L653.81 28.942C644.69 27.156 639.294 20.506 639.294 12.754V10.208ZM625.234 34.984H657.078V39.088H625.234V34.984Z" fill="white"/>
<path d="M359.746 89.122H361.204V91.642H365.884V89.122H367.36V96.808H359.746V89.122ZM361.204 92.83V95.62H365.884V92.83H361.204ZM361.366 98.878H372.238V104.404H370.726V100.084H361.366V98.878ZM370.726 88.132H372.238V97.978H370.726V88.132ZM379.113 89.482C381.219 89.482 382.587 91.66 382.587 95.152C382.587 98.644 381.219 100.822 379.113 100.822C377.007 100.822 375.657 98.644 375.657 95.152C375.657 91.66 377.007 89.482 379.113 89.482ZM379.113 90.868C377.835 90.868 377.025 92.524 377.025 95.152C377.025 97.78 377.835 99.436 379.113 99.436C380.391 99.436 381.201 97.78 381.201 95.152C381.201 92.524 380.391 90.868 379.113 90.868ZM387.843 88.132H389.283V104.404H387.843V88.132ZM385.269 94.576H388.383V95.8H385.269V94.576ZM384.243 88.474H385.665V103.594H384.243V88.474ZM393.367 88.618H405.319V89.788H393.367V88.618ZM393.439 92.884H405.247V94.036H393.439V92.884ZM395.833 89.068H397.327V93.64H395.833V89.068ZM401.377 89.068H402.853V93.64H401.377V89.068ZM391.999 95.386H406.705V96.592H391.999V95.386ZM393.781 98.014H404.833V101.578H395.293V103.54H393.817V100.516H403.357V99.13H393.781V98.014ZM393.817 103.09H405.319V104.224H393.817V103.09ZM420.96 88.132H422.4V104.404H420.96V88.132ZM418.386 94.666H421.5V95.908H418.386V94.666ZM417.432 88.492H418.836V103.576H417.432V88.492ZM408.72 90.166H416.244V91.39H408.72V90.166ZM408.576 100.408L408.396 99.148C410.538 99.148 414.066 99.076 416.55 98.752L416.658 99.85C414.084 100.336 410.7 100.408 408.576 100.408ZM410.106 90.958H411.474V99.472H410.106V90.958ZM413.49 90.958H414.858V99.472H413.49V90.958ZM431.65 89.248H432.946V90.49C432.946 94.036 429.652 96.79 426.394 97.528L425.728 96.286C428.59 95.746 431.65 93.262 431.65 90.49V89.248ZM431.92 89.248H433.216V90.49C433.216 93.28 436.294 95.746 439.138 96.286L438.472 97.528C435.232 96.79 431.92 94.054 431.92 90.49V89.248ZM425.134 100.984H439.876V102.208H425.134V100.984Z" fill="white"/>
<path d="M447 84H352C347.029 84 343 88.0294 343 93V99C343 103.971 347.029 108 352 108H447C451.971 108 456 103.971 456 99V93C456 88.0294 451.971 84 447 84Z" stroke="white" stroke-width="2"/>
</g>
</g>
<defs>
<clipPath id="clip0_25_13">
<rect width="800" height="109" fill="white"/>
</clipPath>
</defs>
</svg>
