<svg width="346" height="48" viewBox="0 0 346 48" fill="none" xmlns="http://www.w3.org/2000/svg">
<g clip-path="url(#clip0_46_38)">
<mask id="mask0_46_38" style="mask-type:luminance" maskUnits="userSpaceOnUse" x="0" y="0" width="346" height="47">
<path d="M345.5 0H0.5V47H345.5V0Z" fill="white"/>
</mask>
<g mask="url(#mask0_46_38)">
<mask id="mask1_46_38" style="mask-type:luminance" maskUnits="userSpaceOnUse" x="0" y="0" width="346" height="47">
<path d="M345.5 0H0.5V47H345.5V0Z" fill="white"/>
</mask>
<g mask="url(#mask1_46_38)">
<path d="M99.191 18.793H100.556V20.223C100.556 22.394 99.75 24.526 97.826 25.449L96.851 24.123C98.541 23.304 99.191 21.692 99.191 20.223V18.793ZM99.503 18.793H100.855V20.223C100.855 21.627 101.479 23.031 103.078 23.759L102.142 25.059C100.257 24.24 99.503 22.316 99.503 20.223V18.793ZM105.639 18H107.277V27.009H105.639V18ZM104.209 21.445H106.12V22.836H104.209V21.445ZM103.091 18.208H104.703V26.658H103.091V18.208ZM99.178 28.439H107.589V29.817H99.178V28.439ZM99.178 25.943H100.907V29.297H99.178V25.943ZM108.992 27.217H119.886V28.634H108.992V27.217ZM109.824 19.027H118.989V20.405H109.824V19.027ZM109.876 24.006H118.95V25.397H109.876V24.006ZM111.462 20.301H113.191V24.136H111.462V20.301ZM115.635 20.301H117.351V24.136H115.635V20.301ZM128.686 18H130.415V26.866H128.686V18ZM129.921 21.445H132.014V22.875H129.921V21.445ZM122.693 28.439H130.857V29.817H122.693V28.439ZM122.693 26.151H124.435V28.894H122.693V26.151ZM121.367 23.759H122.381C124.747 23.759 126.203 23.694 127.867 23.382L128.023 24.773C126.333 25.085 124.812 25.137 122.381 25.137H121.367V23.759ZM121.354 18.715H126.853V22.511H123.083V24.253H121.367V21.237H125.15V20.093H121.354V18.715ZM140.38 21.74H143.152V22.917H140.38V21.74ZM140.38 24.897H143.152V26.074H140.38V24.897ZM138.62 20.365C140.138 20.365 141.249 21.773 141.249 23.995C141.249 26.239 140.138 27.647 138.62 27.647C137.091 27.647 135.991 26.239 135.991 23.995C135.991 21.773 137.091 20.365 138.62 20.365ZM138.62 21.696C137.883 21.696 137.377 22.499 137.377 23.995C137.377 25.513 137.883 26.327 138.62 26.327C139.368 26.327 139.863 25.513 139.863 23.995C139.863 22.499 139.368 21.696 138.62 21.696ZM142.921 19.65H144.373V29.869H142.921V19.65ZM153.238 19.661H154.624V26.041H153.238V19.661ZM151.995 22.169H153.623V23.357H151.995V22.169ZM151.126 19.859H152.49V25.711H151.126V19.859ZM145.901 20.706H150.84V21.828H145.901V20.706ZM148.387 22.158C149.663 22.158 150.587 22.884 150.587 23.94C150.587 24.996 149.663 25.711 148.387 25.711C147.111 25.711 146.187 24.996 146.187 23.94C146.187 22.884 147.111 22.158 148.387 22.158ZM148.387 23.203C147.848 23.203 147.485 23.467 147.485 23.94C147.485 24.413 147.848 24.677 148.387 24.677C148.915 24.677 149.278 24.413 149.278 23.94C149.278 23.467 148.915 23.203 148.387 23.203ZM147.65 19.76H149.091V21.476H147.65V19.76ZM151.181 26.151C153.359 26.151 154.679 26.811 154.679 27.999C154.679 29.176 153.359 29.847 151.181 29.847C148.992 29.847 147.672 29.176 147.672 27.999C147.672 26.811 148.992 26.151 151.181 26.151ZM151.181 27.24C149.817 27.24 149.135 27.471 149.135 27.999C149.135 28.516 149.817 28.758 151.181 28.758C152.534 28.758 153.216 28.516 153.216 27.999C153.216 27.471 152.534 27.24 151.181 27.24ZM159.342 20.332C160.948 20.332 162.147 21.377 162.147 22.84C162.147 24.314 160.948 25.359 159.342 25.359C157.747 25.359 156.526 24.314 156.526 22.84C156.526 21.377 157.747 20.332 159.342 20.332ZM159.342 21.586C158.561 21.586 157.967 22.048 157.967 22.84C157.967 23.643 158.561 24.105 159.342 24.105C160.123 24.105 160.717 23.643 160.717 22.84C160.717 22.048 160.123 21.586 159.342 21.586ZM163.104 19.65H164.567V29.869H163.104V19.65ZM156.284 27.801L156.108 26.624C157.901 26.624 160.398 26.602 162.543 26.283L162.653 27.339C160.442 27.779 158.044 27.801 156.284 27.801ZM171.215 20.442H172.403V21.927C172.403 24.545 171.501 26.91 169.477 27.845L168.608 26.635C170.379 25.865 171.215 23.907 171.215 21.927V20.442ZM171.501 20.442H172.689V21.927C172.689 23.808 173.492 25.678 175.23 26.426L174.372 27.603C172.403 26.701 171.501 24.435 171.501 21.927V20.442ZM175.714 19.65H177.188V29.869H175.714V19.65ZM181.114 20.706H182.313V21.344C182.313 23.269 181.4 24.996 179.453 25.623L178.694 24.49C180.399 23.94 181.114 22.62 181.114 21.344V20.706ZM181.411 20.706H182.599V21.344C182.599 22.543 183.292 23.786 184.942 24.314L184.194 25.447C182.291 24.831 181.411 23.17 181.411 21.344V20.706ZM179.09 20.255H184.59V21.421H179.09V20.255ZM185.404 19.661H186.867V25.799H185.404V19.661ZM186.46 22.125H188.22V23.324H186.46V22.125ZM180.069 26.239H186.867V29.847H185.404V27.416H180.069V26.239ZM192.921 28.868L191.288 22.868H192.972L193.901 26.8992H193.956L194.925 22.868H196.577L197.562 26.8758H197.612L198.526 22.868H200.206L198.577 28.868H196.815L195.784 25.0946H195.71L194.679 28.868H192.921ZM201.094 28.868V22.868H202.758V28.868H201.094ZM201.93 22.0946C201.682 22.0946 201.47 22.0125 201.293 21.8485C201.118 21.6818 201.031 21.4826 201.031 21.2508C201.031 21.0217 201.118 20.825 201.293 20.661C201.47 20.4943 201.682 20.411 201.93 20.411C202.177 20.411 202.388 20.4943 202.563 20.661C202.74 20.825 202.828 21.0217 202.828 21.2508C202.828 21.4826 202.74 21.6818 202.563 21.8485C202.388 22.0125 202.177 22.0946 201.93 22.0946ZM207.282 22.868V24.118H203.669V22.868H207.282ZM204.489 21.4305H206.153V27.0242C206.153 27.1779 206.177 27.2977 206.224 27.3836C206.271 27.467 206.336 27.5256 206.419 27.5594C206.505 27.5933 206.604 27.6102 206.716 27.6102C206.794 27.6102 206.872 27.6037 206.95 27.5907C207.028 27.575 207.088 27.5633 207.13 27.5555L207.392 28.7938C207.308 28.8198 207.191 28.8498 207.04 28.8836C206.889 28.9201 206.705 28.9422 206.489 28.95C206.088 28.9657 205.737 28.9123 205.435 28.7899C205.135 28.6675 204.902 28.4774 204.735 28.2196C204.569 27.9617 204.487 27.6362 204.489 27.243V21.4305ZM210.159 25.3993V28.868H208.495V20.868H210.112V23.9266H210.183C210.318 23.5724 210.537 23.2951 210.839 23.0946C211.141 22.8914 211.52 22.7899 211.976 22.7899C212.392 22.7899 212.756 22.881 213.065 23.0633C213.378 23.243 213.62 23.5021 213.792 23.8407C213.966 24.1766 214.052 24.5789 214.05 25.0477V28.868H212.386V25.3446C212.388 24.9748 212.295 24.687 212.104 24.4813C211.917 24.2755 211.654 24.1727 211.315 24.1727C211.089 24.1727 210.888 24.2209 210.714 24.3172C210.542 24.4136 210.407 24.5542 210.308 24.7391C210.211 24.9214 210.162 25.1414 210.159 25.3993ZM216.332 28.9696C216.074 28.9696 215.853 28.8784 215.668 28.6961C215.486 28.5112 215.395 28.2899 215.395 28.0321C215.395 27.7769 215.486 27.5581 215.668 27.3758C215.853 27.1935 216.074 27.1024 216.332 27.1024C216.582 27.1024 216.801 27.1935 216.988 27.3758C217.176 27.5581 217.27 27.7769 217.27 28.0321C217.27 28.2039 217.225 28.3615 217.137 28.5047C217.051 28.6453 216.938 28.7586 216.797 28.8446C216.656 28.9279 216.501 28.9696 216.332 28.9696ZM218.808 26.36H219.666C221.382 26.36 222.691 26.338 224.209 26.096L224.341 27.262C222.801 27.504 221.415 27.548 219.666 27.548H218.808V26.36ZM218.808 20.508H223.593V21.696H220.282V26.745H218.808V20.508ZM219.93 23.335H223.45V24.479H219.93V23.335ZM224.924 19.661H226.398V29.847H224.924V19.661ZM226.068 23.522H227.872V24.732H226.068V23.522ZM229.037 20.574H233.932V27.427H229.037V20.574ZM232.502 21.718H230.478V26.272H232.502V21.718ZM235.516 19.65H236.99V29.869H235.516V19.65ZM242.434 20.244H243.71V20.981C243.71 23.192 242.137 25.15 239.497 25.667L238.87 24.457C241.169 24.061 242.434 22.444 242.434 20.981V20.244ZM242.731 20.244H243.996V20.981C243.996 22.477 245.25 24.061 247.56 24.457L246.933 25.667C244.293 25.15 242.731 23.225 242.731 20.981V20.244ZM238.661 27.416H247.879V28.604H238.661V27.416Z" fill="white"/>
</g>
</g>
</g>
<defs>
<clipPath id="clip0_46_38">
<rect width="345" height="47" fill="white" transform="translate(0.5 0.5)"/>
</clipPath>
</defs>
</svg>
