<svg width="801" height="110" viewBox="0 0 801 110" fill="none" xmlns="http://www.w3.org/2000/svg">
<mask id="mask0_46_37" style="mask-type:luminance" maskUnits="userSpaceOnUse" x="0" y="0" width="801" height="110">
<path d="M800.5 0.5H0.5V109.5H800.5V0.5Z" fill="white"/>
</mask>
<g mask="url(#mask0_46_37)">
<mask id="mask1_46_37" style="mask-type:luminance" maskUnits="userSpaceOnUse" x="0" y="0" width="801" height="110">
<path d="M800.5 0.5H0.5V109.5H800.5V0.5Z" fill="white"/>
</mask>
<g mask="url(#mask1_46_37)">
<path d="M150.401 37.623H154.916V42.353C154.916 49.534 152.25 56.586 145.886 59.639L142.661 55.253C148.251 52.544 150.401 47.212 150.401 42.353V37.623ZM151.433 37.623H155.905V42.353C155.905 46.997 157.969 51.641 163.258 54.049L160.162 58.349C153.927 55.64 151.433 49.276 151.433 42.353V37.623ZM171.729 35H177.147V64.799H171.729V35ZM166.999 46.395H173.32V50.996H166.999V46.395ZM163.301 35.688H168.633V63.638H163.301V35.688ZM150.358 69.529H178.179V74.087H150.358V69.529ZM150.358 61.273H156.077V72.367H150.358V61.273ZM182.82 65.487H218.854V70.174H182.82V65.487ZM185.572 38.397H215.887V42.955H185.572V38.397ZM185.744 54.866H215.758V59.467H185.744V54.866ZM190.99 42.611H196.709V55.296H190.99V42.611ZM204.793 42.611H210.469V55.296H204.793V42.611ZM247.961 35H253.68V64.326H247.961V35ZM252.046 46.395H258.969V51.125H252.046V46.395ZM228.138 69.529H255.142V74.087H228.138V69.529ZM228.138 61.961H233.9V71.034H228.138V61.961ZM223.752 54.049H227.106C234.932 54.049 239.748 53.834 245.252 52.802L245.768 57.403C240.178 58.435 235.147 58.607 227.106 58.607H223.752V54.049ZM223.709 37.365H241.898V49.921H229.428V55.683H223.752V45.707H236.265V41.923H223.709V37.365ZM286.217 46.324H295.793V50.39H286.217V46.324ZM286.217 57.23H295.793V61.296H286.217V57.23ZM280.137 41.574C285.381 41.574 289.219 46.438 289.219 54.114C289.219 61.866 285.381 66.73 280.137 66.73C274.855 66.73 271.055 61.866 271.055 54.114C271.055 46.438 274.855 41.574 280.137 41.574ZM280.137 46.172C277.591 46.172 275.843 48.946 275.843 54.114C275.843 59.358 277.591 62.17 280.137 62.17C282.721 62.17 284.431 59.358 284.431 54.114C284.431 48.946 282.721 46.172 280.137 46.172ZM294.995 39.104H300.011V74.406H294.995V39.104ZM330.636 39.142H335.424V61.182H330.636V39.142ZM326.342 47.806H331.966V51.91H326.342V47.806ZM323.34 39.826H328.052V60.042H323.34V39.826ZM305.29 42.752H322.352V46.628H305.29V42.752ZM313.878 47.768C318.286 47.768 321.478 50.276 321.478 53.924C321.478 57.572 318.286 60.042 313.878 60.042C309.47 60.042 306.278 57.572 306.278 53.924C306.278 50.276 309.47 47.768 313.878 47.768ZM313.878 51.378C312.016 51.378 310.762 52.29 310.762 53.924C310.762 55.558 312.016 56.47 313.878 56.47C315.702 56.47 316.956 55.558 316.956 53.924C316.956 52.29 315.702 51.378 313.878 51.378ZM311.332 39.484H316.31V45.412H311.332V39.484ZM323.53 61.562C331.054 61.562 335.614 63.842 335.614 67.946C335.614 72.012 331.054 74.33 323.53 74.33C315.968 74.33 311.408 72.012 311.408 67.946C311.408 63.842 315.968 61.562 323.53 61.562ZM323.53 65.324C318.818 65.324 316.462 66.122 316.462 67.946C316.462 69.732 318.818 70.568 323.53 70.568C328.204 70.568 330.56 69.732 330.56 67.946C330.56 66.122 328.204 65.324 323.53 65.324ZM351.723 41.46C357.271 41.46 361.413 45.07 361.413 50.124C361.413 55.216 357.271 58.826 351.723 58.826C346.213 58.826 341.995 55.216 341.995 50.124C341.995 45.07 346.213 41.46 351.723 41.46ZM351.723 45.792C349.025 45.792 346.973 47.388 346.973 50.124C346.973 52.898 349.025 54.494 351.723 54.494C354.421 54.494 356.473 52.898 356.473 50.124C356.473 47.388 354.421 45.792 351.723 45.792ZM364.719 39.104H369.773V74.406H364.719V39.104ZM341.159 67.262L340.551 63.196C346.745 63.196 355.371 63.12 362.781 62.018L363.161 65.666C355.523 67.186 347.239 67.262 341.159 67.262ZM392.739 41.84H396.843V46.97C396.843 56.014 393.727 64.184 386.735 67.414L383.733 63.234C389.851 60.574 392.739 53.81 392.739 46.97V41.84ZM393.727 41.84H397.831V46.97C397.831 53.468 400.605 59.928 406.609 62.512L403.645 66.578C396.843 63.462 393.727 55.634 393.727 46.97V41.84ZM408.281 39.104H413.373V74.406H408.281V39.104ZM426.936 42.752H431.078V44.956C431.078 51.606 427.924 57.572 421.198 59.738L418.576 55.824C424.466 53.924 426.936 49.364 426.936 44.956V42.752ZM427.962 42.752H432.066V44.956C432.066 49.098 434.46 53.392 440.16 55.216L437.576 59.13C431.002 57.002 427.962 51.264 427.962 44.956V42.752ZM419.944 41.194H438.944V45.222H419.944V41.194ZM441.756 39.142H446.81V60.346H441.756V39.142ZM445.404 47.654H451.484V51.796H445.404V47.654ZM423.326 61.866H446.81V74.33H441.756V65.932H423.326V61.866ZM467.723 70.948L462.082 50.2207H467.898L471.11 64.1469H471.299L474.645 50.2207H480.353L483.754 64.0659H483.929L487.087 50.2207H492.89L487.262 70.948H481.176L477.614 57.9125H477.358L473.795 70.948H467.723ZM495.956 70.948V50.2207H501.705V70.948H495.956ZM498.844 47.5489C497.989 47.5489 497.256 47.2655 496.644 46.6987C496.042 46.123 495.74 45.4347 495.74 44.6341C495.74 43.8424 496.042 43.1632 496.644 42.5964C497.256 42.0207 497.989 41.7328 498.844 41.7328C499.699 41.7328 500.427 42.0207 501.03 42.5964C501.642 43.1632 501.948 43.8424 501.948 44.6341C501.948 45.4347 501.642 46.123 501.03 46.6987C500.427 47.2655 499.699 47.5489 498.844 47.5489ZM517.335 50.2207V54.5389H504.852V50.2207H517.335ZM507.686 45.2548H513.435V64.5787C513.435 65.1095 513.516 65.5233 513.678 65.8202C513.839 66.108 514.064 66.3105 514.352 66.4274C514.649 66.5444 514.991 66.6028 515.378 66.6028C515.648 66.6028 515.918 66.5803 516.188 66.5354C516.457 66.4814 516.664 66.4409 516.808 66.4139L517.712 70.6916C517.424 70.7816 517.02 70.885 516.498 71.002C515.976 71.1279 515.342 71.2044 514.595 71.2314C513.21 71.2854 511.995 71.1009 510.952 70.6781C509.917 70.2553 509.112 69.5986 508.536 68.7079C507.96 67.8173 507.677 66.6928 507.686 65.3344V45.2548ZM527.273 58.965V70.948H521.525V43.3116H527.111V53.8777H527.354C527.822 52.6542 528.578 51.6961 529.621 51.0034C530.665 50.3017 531.974 49.9508 533.548 49.9508C534.987 49.9508 536.242 50.2657 537.313 50.8954C538.392 51.5162 539.229 52.4113 539.823 53.5808C540.426 54.7413 540.722 56.1312 540.713 57.7506V70.948H534.965V58.7761C534.974 57.4987 534.65 56.5046 533.993 55.7939C533.346 55.0832 532.437 54.7278 531.267 54.7278C530.485 54.7278 529.792 54.8943 529.189 55.2271C528.596 55.56 528.128 56.0458 527.786 56.6845C527.453 57.3142 527.282 58.0744 527.273 58.965ZM548.597 71.2989C547.707 71.2989 546.942 70.984 546.303 70.3542C545.674 69.7155 545.359 68.9508 545.359 68.0602C545.359 67.1786 545.674 66.4229 546.303 65.7932C546.942 65.1634 547.707 64.8486 548.597 64.8486C549.461 64.8486 550.217 65.1634 550.865 65.7932C551.512 66.4229 551.836 67.1786 551.836 68.0602C551.836 68.654 551.683 69.1982 551.377 69.693C551.08 70.1788 550.689 70.5702 550.203 70.867C549.718 71.1549 549.182 71.2989 548.597 71.2989ZM557.15 62.284H560.114C566.042 62.284 570.564 62.208 575.808 61.372L576.264 65.4C570.944 66.236 566.156 66.388 560.114 66.388H557.15V62.284ZM557.15 42.068H573.68V46.172H562.242V63.614H557.15V42.068ZM561.026 51.834H573.186V55.786H561.026V51.834ZM578.278 39.142H583.37V74.33H578.278V39.142ZM582.23 52.48H588.462V56.66H582.23V52.48ZM592.487 42.296H609.397V65.97H592.487V42.296ZM604.457 46.248H597.465V61.98H604.457V46.248ZM614.869 39.104H619.961V74.406H614.869V39.104ZM638.768 41.156H643.176V43.702C643.176 51.34 637.742 58.104 628.622 59.89L626.456 55.71C634.398 54.342 638.768 48.756 638.768 43.702V41.156ZM639.794 41.156H644.164V43.702C644.164 48.87 648.496 54.342 656.476 55.71L654.31 59.89C645.19 58.104 639.794 51.454 639.794 43.702V41.156ZM625.734 65.932H657.578V70.036H625.734V65.932Z" fill="white"/>
</g>
</g>
</svg>
