<svg width="800" height="109" viewBox="0 0 800 109" fill="none" xmlns="http://www.w3.org/2000/svg">
<g clip-path="url(#clip0_12139_18994)">
<mask id="mask0_12139_18994" style="mask-type:luminance" maskUnits="userSpaceOnUse" x="0" y="0" width="800" height="109">
<path d="M800 0H0V109H800V0Z" fill="white"/>
</mask>
<g mask="url(#mask0_12139_18994)">
<path d="M90.888 58.336H93.852C99.78 58.336 104.302 58.26 109.546 57.424L110.002 61.452C104.682 62.288 99.894 62.44 93.852 62.44H90.888V58.336ZM90.888 38.12H107.418V42.224H95.98V59.666H90.888V38.12ZM94.764 47.886H106.924V51.838H94.764V47.886ZM112.016 35.194H117.108V70.382H112.016V35.194ZM115.968 48.532H122.2V52.712H115.968V48.532ZM126.225 38.348H143.135V62.022H126.225V38.348ZM138.195 42.3H131.203V58.032H138.195V42.3ZM148.607 35.156H153.699V70.458H148.607V35.156ZM172.506 37.208H176.914V39.754C176.914 47.392 171.48 54.156 162.36 55.942L160.194 51.762C168.136 50.394 172.506 44.808 172.506 39.754V37.208ZM173.532 37.208H177.902V39.754C177.902 44.922 182.234 50.394 190.214 51.762L188.048 55.942C178.928 54.156 173.532 47.506 173.532 39.754V37.208ZM159.472 61.984H191.316V66.088H159.472V61.984ZM205.715 37.512C211.263 37.512 215.405 41.122 215.405 46.176C215.405 51.268 211.263 54.878 205.715 54.878C200.205 54.878 195.987 51.268 195.987 46.176C195.987 41.122 200.205 37.512 205.715 37.512ZM205.715 41.844C203.017 41.844 200.965 43.44 200.965 46.176C200.965 48.95 203.017 50.546 205.715 50.546C208.413 50.546 210.465 48.95 210.465 46.176C210.465 43.44 208.413 41.844 205.715 41.844ZM218.711 35.156H223.765V70.458H218.711V35.156ZM195.151 63.314L194.543 59.248C200.737 59.248 209.363 59.172 216.773 58.07L217.153 61.718C209.515 63.238 201.231 63.314 195.151 63.314ZM245.933 36.41H250.037V38.652C250.037 45.34 246.921 51.116 240.119 53.244L237.687 49.216C243.501 47.468 245.933 43.174 245.933 38.652V36.41ZM246.959 36.41H251.025V38.538C251.025 42.832 253.381 46.822 259.005 48.456L256.459 52.37C249.923 50.356 246.959 44.96 246.959 38.538V36.41ZM260.791 35.194H265.845V53.244H260.791V35.194ZM263.793 42.034H270.481V46.176H263.793V42.034ZM242.589 54.612H265.845V64.112H247.681V68.406H242.665V60.464H260.867V58.488H242.589V54.612ZM242.665 66.24H266.871V70.154H242.665V66.24ZM282.524 37.626C287.882 37.626 291.758 42.49 291.758 50.166C291.758 57.918 287.882 62.782 282.524 62.782C277.166 62.782 273.29 57.918 273.29 50.166C273.29 42.49 277.166 37.626 282.524 37.626ZM282.524 42.224C279.902 42.224 278.154 44.998 278.154 50.166C278.154 55.41 279.902 58.222 282.524 58.222C285.146 58.222 286.932 55.41 286.932 50.166C286.932 44.998 285.146 42.224 282.524 42.224ZM295.596 35.194H300.688V70.382H295.596V35.194ZM299.548 48.456H305.78V52.636H299.548V48.456ZM315.961 56.55H319.761V57.728C319.761 63.048 317.405 67.912 311.895 69.888L309.425 66.202C314.023 64.644 315.961 61.148 315.961 57.728V56.55ZM317.253 56.55H320.863V57.728C320.863 61.148 322.573 64.72 326.867 66.506L324.853 70.23C319.267 68.14 317.253 62.896 317.253 57.728V56.55ZM328.805 56.55H332.415V57.728C332.415 62.592 330.325 68.064 324.853 70.23L322.763 66.506C327.057 64.568 328.805 60.844 328.805 57.728V56.55ZM329.983 56.55H333.783V57.728C333.783 61.376 335.683 64.758 340.319 66.202L337.849 69.888C332.263 67.988 329.983 63.276 329.983 57.728V56.55ZM332.225 35.232H337.317V55.106H332.225V35.232ZM318.165 37.018C323.637 37.018 327.703 40.514 327.703 45.454C327.703 50.356 323.637 53.852 318.165 53.852C312.693 53.852 308.589 50.356 308.589 45.454C308.589 40.514 312.693 37.018 318.165 37.018ZM318.165 41.198C315.505 41.198 313.529 42.756 313.529 45.454C313.529 48.114 315.505 49.672 318.165 49.672C320.825 49.672 322.763 48.114 322.763 45.454C322.763 42.756 320.825 41.198 318.165 41.198ZM346.966 44.694H371.362V48.684H346.966V44.694ZM343.014 52.332H374.896V56.36H343.014V52.332ZM346.966 36.448H351.982V46.67H346.966V36.448ZM346.624 65.594H371.552V69.622H346.624V65.594ZM346.624 59.172H351.678V66.658H346.624V59.172ZM394.147 33.675H398.662V38.405C398.662 45.586 395.996 52.638 389.632 55.691L386.407 51.305C391.997 48.596 394.147 43.264 394.147 38.405V33.675ZM395.179 33.675H399.651V38.405C399.651 43.049 401.715 47.693 407.004 50.101L403.908 54.401C397.673 51.692 395.179 45.328 395.179 38.405V33.675ZM415.475 31.052H420.893V60.851H415.475V31.052ZM410.745 42.447H417.066V47.048H410.745V42.447ZM407.047 31.74H412.379V59.69H407.047V31.74ZM394.104 65.581H421.925V70.139H394.104V65.581ZM394.104 57.325H399.823V68.419H394.104V57.325ZM426.566 61.539H462.6V66.226H426.566V61.539ZM429.318 34.449H459.633V39.007H429.318V34.449ZM429.49 50.918H459.504V55.519H429.49V50.918ZM434.736 38.663H440.455V51.348H434.736V38.663ZM448.539 38.663H454.215V51.348H448.539V38.663ZM491.707 31.052H497.426V60.378H491.707V31.052ZM495.792 42.447H502.715V47.177H495.792V42.447ZM471.884 65.581H498.888V70.139H471.884V65.581ZM471.884 58.013H477.646V67.086H471.884V58.013ZM467.498 50.101H470.852C478.678 50.101 483.494 49.886 488.998 48.854L489.514 53.455C483.924 54.487 478.893 54.659 470.852 54.659H467.498V50.101ZM467.455 33.417H485.644V45.973H473.174V51.735H467.498V41.759H480.011V37.975H467.455V33.417ZM515.354 34.062H519.998V39.867C519.998 50.101 516.472 59.346 508.56 63.001L505.163 58.271C512.086 55.261 515.354 47.607 515.354 39.867V34.062ZM516.472 34.062H521.116V39.867C521.116 47.22 524.255 54.53 531.049 57.454L527.695 62.055C519.998 58.529 516.472 49.671 516.472 39.867V34.062ZM532.941 30.966H538.703V70.913H532.941V30.966ZM559.985 33.288H564.973V36.169C564.973 44.812 558.824 52.466 548.504 54.487L546.053 49.757C555.04 48.209 559.985 41.888 559.985 36.169V33.288ZM561.146 33.288H566.091V36.169C566.091 42.017 570.993 48.209 580.023 49.757L577.572 54.487C567.252 52.466 561.146 44.941 561.146 36.169V33.288ZM545.236 61.324H581.27V65.968H545.236V61.324ZM588.834 34.32H613.903V38.878H588.834V34.32ZM584.749 61.668H620.74V66.269H584.749V61.668ZM611.624 34.32H617.257V37.803C617.257 42.619 617.3 48.252 615.451 56.895L609.818 56.293C611.624 48.209 611.624 42.404 611.624 37.803V34.32ZM612.656 43.909V48.209L588.361 49.542L587.587 44.683L612.656 43.909ZM597.52 52.122H603.239V63.345H597.52V52.122ZM655.844 40.641H663.412V45.285H655.844V40.641ZM661.864 31.009H667.583V54.659H661.864V31.009ZM654.081 55.519C662.509 55.519 667.712 58.4 667.712 63.216C667.712 68.075 662.509 70.87 654.081 70.87C645.653 70.87 640.45 68.075 640.45 63.216C640.45 58.4 645.653 55.519 654.081 55.519ZM654.081 59.862C648.921 59.862 646.169 60.937 646.169 63.216C646.169 65.452 648.921 66.527 654.081 66.527C659.284 66.527 662.036 65.452 662.036 63.216C662.036 60.937 659.284 59.862 654.081 59.862ZM643.46 35.008H648.104V37.502C648.104 45.113 644.578 52.079 636.967 54.659L634.043 50.144C640.622 47.908 643.46 42.619 643.46 37.502V35.008ZM644.664 35.008H649.265V37.502C649.265 42.189 651.974 47.048 658.252 49.155L655.457 53.67C648.061 51.219 644.664 44.597 644.664 37.502V35.008ZM635.591 33.417H657.005V37.975H635.591V33.417ZM673.858 61.582H709.892V66.226H673.858V61.582ZM688.951 53.068H694.67V62.7H688.951V53.068ZM677.642 33.546H683.318V39.652H700.303V33.546H705.979V54.272H677.642V33.546ZM683.318 44.124V49.714H700.303V44.124H683.318Z" fill="white"/>
<path d="M96.1385 4.117H97.5575V6.8905C97.5575 9.9435 95.9235 13.1685 93.107 14.5445L92.075 13.1685C94.6335 11.943 96.1385 9.234 96.1385 6.8905V4.117ZM96.418 4.117H97.837V6.8905C97.837 9.1695 99.2775 11.513 101.772 12.588L100.783 13.9425C97.966 12.717 96.418 9.9005 96.418 6.8905V4.117ZM106.738 2.7625H108.437V17.404H106.738V2.7625ZM103.642 8.5675H107.297V10.0295H103.642V8.5675ZM102.567 3.1065H104.266V16.7375H102.567V3.1065ZM95.773 20.285H109.039V21.747H95.773V20.285ZM95.773 15.5765H97.5575V21.1235H95.773V15.5765ZM111.853 18.1995H129.462V19.683H111.853V18.1995ZM113.38 4.676H127.806V6.138H113.38V4.676ZM113.423 12.889H127.785V14.351H113.423V12.889ZM116.411 6.0305H118.196V13.0395H116.411V6.0305ZM123.033 6.0305H124.796V13.0395H123.033V6.0305ZM144.919 2.7625H146.703V17.0815H144.919V2.7625ZM146.166 8.6965H149.584V10.2015H146.166V8.6965ZM134.728 20.285H147.585V21.747H134.728V20.285ZM134.728 15.9635H136.512V20.8225H134.728V15.9635ZM132.47 12.588H133.997C137.523 12.588 140.038 12.4805 143.07 11.943L143.22 13.4265C140.146 13.9425 137.587 14.05 133.997 14.05H132.47V12.588ZM132.427 4.0095H141.178V9.578H134.212V13.104H132.47V8.2235H139.415V5.4715H132.427V4.0095ZM166.207 7.0625H172.077V8.546H166.207V7.0625ZM166.207 13.2115H172.077V14.695H166.207V13.2115ZM162.638 4.2245C165.455 4.2245 167.476 6.869 167.476 10.997C167.476 15.1465 165.455 17.791 162.638 17.791C159.8 17.791 157.801 15.1465 157.801 10.997C157.801 6.869 159.8 4.2245 162.638 4.2245ZM162.638 5.837C160.768 5.837 159.478 7.858 159.478 10.997C159.478 14.1575 160.768 16.2215 162.638 16.2215C164.509 16.2215 165.799 14.1575 165.799 10.997C165.799 7.858 164.509 5.837 162.638 5.837ZM171.69 2.7195H173.453V22.1985H171.69V2.7195ZM191.898 2.741H193.597V15.039H191.898V2.741ZM188.738 8.0085H192.414V9.492H188.738V8.0085ZM187.749 3.128H189.426V14.351H187.749V3.128ZM177.128 5.063H186.975V6.482H177.128V5.063ZM182.073 7.471C184.502 7.471 186.201 8.804 186.201 10.8035C186.201 12.8245 184.502 14.136 182.073 14.136C179.622 14.136 177.923 12.8245 177.923 10.8035C177.923 8.804 179.622 7.471 182.073 7.471ZM182.073 8.804C180.546 8.804 179.514 9.5995 179.514 10.8035C179.514 12.029 180.546 12.803 182.073 12.803C183.578 12.803 184.61 12.029 184.61 10.8035C184.61 9.5995 183.578 8.804 182.073 8.804ZM181.191 2.8915H182.933V5.8585H181.191V2.8915ZM187.233 15.383C191.275 15.383 193.704 16.587 193.704 18.7585C193.704 20.9085 191.275 22.134 187.233 22.134C183.148 22.134 180.74 20.9085 180.74 18.7585C180.74 16.587 183.148 15.383 187.233 15.383ZM187.233 16.759C184.244 16.759 182.503 17.4685 182.503 18.7585C182.503 20.0485 184.244 20.7795 187.233 20.7795C190.178 20.7795 191.941 20.0485 191.941 18.7585C191.941 17.4685 190.178 16.759 187.233 16.759ZM205.296 3.5795H217.809V5.02H205.296V3.5795ZM203.06 10.5025H220.669V11.9645H203.06V10.5025ZM210.929 11.5345H212.714V15.555H210.929V11.5345ZM216.648 3.5795H218.39V4.977C218.39 6.568 218.39 8.5245 217.745 11.169L216.003 10.954C216.648 8.374 216.648 6.525 216.648 4.977V3.5795ZM211.811 14.953C216.003 14.953 218.562 16.2645 218.562 18.565C218.562 20.844 216.003 22.1555 211.811 22.1555C207.618 22.1555 205.081 20.844 205.081 18.565C205.081 16.2645 207.618 14.953 211.811 14.953ZM211.811 16.415C208.736 16.415 206.866 17.189 206.866 18.565C206.866 19.9195 208.736 20.715 211.811 20.715C214.907 20.715 216.756 19.9195 216.756 18.565C216.756 17.189 214.907 16.415 211.811 16.415ZM225.075 3.7515H237.588V5.2135H225.075V3.7515ZM222.839 10.911H240.447V12.373H222.839V10.911ZM236.427 3.7515H238.168V5.192C238.168 6.8475 238.168 8.7395 237.523 11.427L235.782 11.341C236.427 8.675 236.427 6.8045 236.427 5.192V3.7515ZM224.989 15.0175H238.233V21.919H224.989V15.0175ZM236.491 16.4365H226.73V20.4785H236.491V16.4365ZM255.904 2.7625H257.688V17.3395H255.904V2.7625ZM257.129 9.1265H260.569V10.6315H257.129V9.1265ZM242.66 5.106H254.141V6.5465H242.66V5.106ZM248.4 7.6215C251.152 7.6215 253.044 9.062 253.044 11.255C253.044 13.4265 251.152 14.867 248.4 14.867C245.627 14.867 243.735 13.4265 243.735 11.255C243.735 9.062 245.627 7.6215 248.4 7.6215ZM248.4 9.019C246.637 9.019 245.433 9.9005 245.433 11.255C245.433 12.588 246.637 13.4695 248.4 13.4695C250.142 13.4695 251.346 12.588 251.346 11.255C251.346 9.9005 250.142 9.019 248.4 9.019ZM247.497 2.741H249.282V5.8585H247.497V2.741ZM245.584 20.285H258.57V21.747H245.584V20.285ZM245.584 16.1785H247.368V20.9085H245.584V16.1785ZM282.632 2.741H284.417V15.899H282.632V2.741ZM278.461 8.2235H282.998V9.6855H278.461V8.2235ZM276.526 4.2675H278.397C278.397 9.2985 275.086 12.8675 269.517 14.6735L268.765 13.2545C273.688 11.7065 276.526 8.7825 276.526 4.977V4.2675ZM269.689 4.2675H277.795V5.7295H269.689V4.2675ZM277.257 14.222H278.784V15.1035C278.784 18.823 275.387 21.3385 271.495 22.134L270.786 20.715C274.226 20.0915 277.257 17.9415 277.257 15.1035V14.222ZM277.515 14.222H279.042V15.1035C279.042 17.8985 282.03 20.0485 285.492 20.672L284.739 22.091C280.869 21.317 277.515 18.8015 277.515 15.1035V14.222ZM302.325 2.7195H304.109V22.1985H302.325V2.7195ZM293.854 4.2245C296.735 4.2245 298.799 6.869 298.799 10.997C298.799 15.1465 296.735 17.791 293.854 17.791C290.994 17.791 288.93 15.1465 288.93 10.997C288.93 6.869 290.994 4.2245 293.854 4.2245ZM293.854 5.837C291.962 5.837 290.629 7.858 290.629 10.997C290.629 14.1575 291.962 16.2215 293.854 16.2215C295.767 16.2215 297.079 14.1575 297.079 10.997C297.079 7.858 295.767 5.837 293.854 5.837ZM328.279 2.741H330.063V22.22H328.279V2.741ZM322.302 9.148H328.859V10.61H322.302V9.148ZM315.099 4.9125H316.862V16.9525H315.099V4.9125ZM315.099 16.0065H316.604C319.614 16.0065 322.302 15.8345 325.29 15.211L325.505 16.716C322.409 17.318 319.679 17.5115 316.604 17.5115H315.099V16.0065ZM333.803 14.0285H351.433V15.4905H333.803V14.0285ZM341.672 14.91H343.435V22.177H341.672V14.91ZM336.039 3.816H349.154V11.4055H336.039V3.816ZM347.412 5.2565H337.802V9.965H347.412V5.2565ZM372.936 2.741H374.721V12.6525H372.936V2.741ZM373.947 7.1055H377.602V8.589H373.947V7.1055ZM360.445 4.0095H369.367V11.943H360.445V4.0095ZM367.626 5.45H362.186V10.524H367.626V5.45ZM361.67 20.199H362.595C363.756 20.199 365.626 20.0915 367.282 19.5325L367.583 20.973C365.712 21.575 363.928 21.661 362.595 21.661H361.67V20.199ZM361.67 14.437H363.412V20.586H361.67V14.437ZM366.873 14.6305H376.634V15.9635H366.873V14.6305ZM371.775 16.673C373.882 16.673 375.366 17.748 375.366 19.4035C375.366 21.102 373.882 22.1555 371.775 22.1555C369.647 22.1555 368.163 21.102 368.163 19.4035C368.163 17.748 369.647 16.673 371.775 16.673ZM371.775 17.9415C370.571 17.9415 369.754 18.522 369.754 19.4035C369.754 20.3065 370.571 20.887 371.775 20.887C372.936 20.887 373.775 20.3065 373.775 19.4035C373.775 18.522 372.936 17.9415 371.775 17.9415ZM370.894 12.932H372.635V15.5765H370.894V12.932ZM388.2 3.0635C392.478 3.0635 395.037 4.2675 395.037 6.439C395.037 8.6105 392.478 9.8145 388.2 9.8145C383.9 9.8145 381.363 8.6105 381.363 6.439C381.363 4.2675 383.9 3.0635 388.2 3.0635ZM388.2 4.418C385.018 4.418 383.19 5.149 383.19 6.439C383.19 7.729 385.018 8.46 388.2 8.46C391.36 8.46 393.188 7.729 393.188 6.439C393.188 5.149 391.36 4.418 388.2 4.418ZM379.406 11.1045H396.972V12.545H379.406V11.1045ZM381.535 14.2005H394.736V18.5865H383.341V20.9515H381.578V17.2965H392.973V15.5765H381.535V14.2005ZM381.578 20.5645H395.316V21.962H381.578V20.5645ZM416.368 3.1495H418.024V21.2095H416.368V3.1495ZM417.336 10.653H420.926V12.115H417.336V10.653ZM405.812 15.641H406.586C407.338 15.641 408.607 15.6195 410.112 15.254L410.262 16.7375C408.65 17.1245 407.403 17.1245 406.586 17.1245H405.812V15.641ZM405.812 5.1705H409.961V6.6325H407.467V16.4795H405.812V5.1705ZM410.8 15.641H411.617C412.649 15.641 414.003 15.598 415.487 15.1895L415.659 16.673C414.068 17.103 412.735 17.1245 411.617 17.1245H410.8V15.641ZM410.8 5.1705H415.078V6.6325H412.434V16.415H410.8V5.1705ZM420.303 2.741H422.001V22.177H420.303V2.741Z" fill="white"/>
<path d="M124.2 90.114H125.694V106.422H124.2V90.114ZM117.108 91.374C119.52 91.374 121.248 93.588 121.248 97.044C121.248 100.518 119.52 102.732 117.108 102.732C114.714 102.732 112.986 100.518 112.986 97.044C112.986 93.588 114.714 91.374 117.108 91.374ZM117.108 92.724C115.524 92.724 114.408 94.416 114.408 97.044C114.408 99.69 115.524 101.418 117.108 101.418C118.71 101.418 119.808 99.69 119.808 97.044C119.808 94.416 118.71 92.724 117.108 92.724ZM141.227 90.132H142.649V102.48H141.227V90.132ZM135.521 94.848H138.599V96.072H135.521V94.848ZM138.131 90.456H139.553V102.012H138.131V90.456ZM129.671 91.428H131.075V94.164H134.549V91.428H135.971V99.402H129.671V91.428ZM131.075 95.352V98.196H134.549V95.352H131.075ZM132.047 104.82H143.153V106.044H132.047V104.82ZM132.047 100.824H133.541V105.486H132.047V100.824ZM147.399 98.898H158.577V100.104H147.399V98.898ZM145.509 103.074H160.251V104.316H145.509V103.074ZM147.399 91.518H158.397V92.742H148.911V99.276H147.399V91.518ZM148.425 95.154H158.055V96.342H148.425V95.154ZM162.068 103.164H176.81V104.406H162.068V103.164ZM168.656 99.672H170.15V103.686H168.656V99.672ZM163.85 91.338H174.992V96.27H165.38V99.528H163.904V95.064H173.516V92.544H163.85V91.338ZM163.904 98.898H175.37V100.122H163.904V98.898ZM184.535 91.122H185.993V93.642H190.673V91.122H192.149V98.808H184.535V91.122ZM185.993 94.83V97.62H190.673V94.83H185.993ZM186.155 100.878H197.027V106.404H195.515V102.084H186.155V100.878ZM195.515 90.132H197.027V99.978H195.515V90.132ZM203.901 91.482C206.007 91.482 207.375 93.66 207.375 97.152C207.375 100.644 206.007 102.822 203.901 102.822C201.795 102.822 200.445 100.644 200.445 97.152C200.445 93.66 201.795 91.482 203.901 91.482ZM203.901 92.868C202.623 92.868 201.813 94.524 201.813 97.152C201.813 99.78 202.623 101.436 203.901 101.436C205.179 101.436 205.989 99.78 205.989 97.152C205.989 94.524 205.179 92.868 203.901 92.868ZM212.631 90.132H214.071V106.404H212.631V90.132ZM210.057 96.576H213.171V97.8H210.057V96.576ZM209.031 90.474H210.453V105.594H209.031V90.474ZM218.156 90.618H230.108V91.788H218.156V90.618ZM218.228 94.884H230.036V96.036H218.228V94.884ZM220.622 91.068H222.116V95.64H220.622V91.068ZM226.166 91.068H227.642V95.64H226.166V91.068ZM216.788 97.386H231.494V98.592H216.788V97.386ZM218.57 100.014H229.622V103.578H220.082V105.54H218.606V102.516H228.146V101.13H218.57V100.014ZM218.606 105.09H230.108V106.224H218.606V105.09ZM245.749 90.132H247.189V106.404H245.749V90.132ZM243.175 96.666H246.289V97.908H243.175V96.666ZM242.221 90.492H243.625V105.576H242.221V90.492ZM233.509 92.166H241.033V93.39H233.509V92.166ZM233.365 102.408L233.185 101.148C235.327 101.148 238.855 101.076 241.339 100.752L241.447 101.85C238.873 102.336 235.489 102.408 233.365 102.408ZM234.895 92.958H236.263V101.472H234.895V92.958ZM238.279 92.958H239.647V101.472H238.279V92.958ZM256.439 91.248H257.735V92.49C257.735 96.036 254.441 98.79 251.183 99.528L250.517 98.286C253.379 97.746 256.439 95.262 256.439 92.49V91.248ZM256.709 91.248H258.005V92.49C258.005 95.28 261.083 97.746 263.927 98.286L263.261 99.528C260.021 98.79 256.709 96.054 256.709 92.49V91.248ZM249.923 102.984H264.665V104.208H249.923V102.984ZM282.668 90.078H284.162V99.06H282.668V90.078ZM283.532 93.984H286.574V95.244H283.532V93.984ZM273.83 99.888H284.162V103.524H275.342V105.504H273.866V102.444H282.704V101.022H273.83V99.888ZM273.866 105.072H284.756V106.224H273.866V105.072ZM271.58 91.59H281.192V92.76H271.58V91.59ZM276.386 93.48C278.726 93.48 280.274 94.506 280.274 96.162C280.274 97.8 278.726 98.808 276.386 98.808C274.01 98.808 272.48 97.8 272.48 96.162C272.48 94.506 274.01 93.48 276.386 93.48ZM276.386 94.578C274.874 94.578 273.902 95.19 273.902 96.162C273.902 97.116 274.874 97.728 276.386 97.728C277.88 97.728 278.852 97.116 278.852 96.162C278.852 95.19 277.88 94.578 276.386 94.578ZM275.63 89.952H277.124V92.4H275.63V89.952ZM299.929 90.15H301.441V102.03H299.929V90.15ZM290.983 104.82H301.927V106.044H290.983V104.82ZM290.983 100.806H292.459V105.234H290.983V100.806ZM292.711 91.266C295.141 91.266 296.941 92.922 296.941 95.28C296.941 97.62 295.141 99.294 292.711 99.294C290.281 99.294 288.463 97.62 288.463 95.28C288.463 92.922 290.281 91.266 292.711 91.266ZM292.711 92.562C291.127 92.562 289.921 93.678 289.921 95.28C289.921 96.864 291.127 97.98 292.711 97.98C294.295 97.98 295.501 96.864 295.501 95.28C295.501 93.678 294.295 92.562 292.711 92.562ZM320.848 90.132H322.342V99.654H320.848V90.132ZM321.928 94.038H324.754V95.298H321.928V94.038ZM310.39 91.032H311.866V93.516H316.456V91.032H317.914V98.628H310.39V91.032ZM311.866 94.704V97.422H316.456V94.704H311.866ZM312.172 100.536H322.468V101.742H313.666V105.828H312.172V100.536ZM312.172 104.964H322.792V106.188H312.172V104.964ZM333.627 91.158C337.011 91.158 339.531 92.958 339.531 95.658C339.531 98.376 337.011 100.158 333.627 100.158C330.243 100.158 327.705 98.376 327.705 95.658C327.705 92.958 330.243 91.158 333.627 91.158ZM333.627 92.382C331.053 92.382 329.145 93.696 329.145 95.658C329.145 97.602 331.053 98.934 333.627 98.934C336.201 98.934 338.109 97.602 338.109 95.658C338.109 93.696 336.201 92.382 333.627 92.382ZM326.283 103.002H341.025V104.262H326.283V103.002ZM349.249 95.946H352.363V97.188H349.249V95.946ZM346.207 91.662H347.377V94.758C347.377 98.16 345.955 101.454 343.579 102.912L342.643 101.778C344.875 100.464 346.207 97.548 346.207 94.758V91.662ZM346.495 91.662H347.647V94.704C347.647 97.314 348.871 100.086 351.013 101.382L350.149 102.552C347.809 101.112 346.495 97.872 346.495 94.704V91.662ZM355.225 90.132H356.665V106.404H355.225V90.132ZM351.931 90.474H353.335V105.594H351.931V90.474ZM363 98.502H364.476V103.38H363V98.502ZM369.012 98.502H370.506V103.38H369.012V98.502ZM359.4 103.092H374.142V104.334H359.4V103.092ZM366.744 91.158C370.182 91.158 372.648 92.796 372.648 95.352C372.648 97.89 370.182 99.528 366.744 99.528C363.288 99.528 360.822 97.89 360.822 95.352C360.822 92.796 363.288 91.158 366.744 91.158ZM366.744 92.346C364.134 92.346 362.262 93.534 362.262 95.352C362.262 97.152 364.134 98.34 366.744 98.34C369.354 98.34 371.208 97.152 371.208 95.352C371.208 93.534 369.354 92.346 366.744 92.346ZM378.433 91.9091L378.306 101.318H376.823L376.695 91.9091H378.433ZM377.564 105.102C377.249 105.102 376.978 104.989 376.752 104.763C376.526 104.538 376.413 104.267 376.413 103.952C376.413 103.636 376.526 103.366 376.752 103.14C376.978 102.914 377.249 102.801 377.564 102.801C377.879 102.801 378.15 102.914 378.376 103.14C378.602 103.366 378.715 103.636 378.715 103.952C378.715 104.161 378.661 104.352 378.555 104.527C378.453 104.702 378.314 104.842 378.139 104.949C377.969 105.051 377.777 105.102 377.564 105.102Z" fill="white"/>
<path d="M99.562 92.792H92V106.681H106.12V98.656" stroke="white" stroke-width="1.8"/>
<path d="M94.3154 96.8022L98.9443 102.202L108.744 90.3193" stroke="white" stroke-width="1.8"/>
</g>
</g>
<defs>
<clipPath id="clip0_12139_18994">
<rect width="800" height="109" fill="white"/>
</clipPath>
</defs>
</svg>
