<svg width="345" height="47" viewBox="0 0 345 47" fill="none" xmlns="http://www.w3.org/2000/svg">
<g clip-path="url(#clip0_12139_18981)">
<mask id="mask0_12139_18981" style="mask-type:luminance" maskUnits="userSpaceOnUse" x="0" y="0" width="345" height="47">
<path d="M345 0H0V47H345V0Z" fill="white"/>
</mask>
<g mask="url(#mask0_12139_18981)">
<path d="M80.836 25.657H81.694C83.41 25.657 84.719 25.635 86.237 25.393L86.369 26.559C84.829 26.801 83.443 26.845 81.694 26.845H80.836V25.657ZM80.836 19.805H85.621V20.993H82.31V26.042H80.836V19.805ZM81.958 22.632H85.478V23.776H81.958V22.632ZM86.952 18.958H88.426V29.144H86.952V18.958ZM88.096 22.819H89.9V24.029H88.096V22.819ZM91.0651 19.871H95.9601V26.724H91.0651V19.871ZM94.5301 21.015H92.5061V25.569H94.5301V21.015ZM97.5441 18.947H99.0181V29.166H97.5441V18.947ZM104.462 19.541H105.738V20.278C105.738 22.489 104.165 24.447 101.525 24.964L100.898 23.754C103.197 23.358 104.462 21.741 104.462 20.278V19.541ZM104.759 19.541H106.024V20.278C106.024 21.774 107.278 23.358 109.588 23.754L108.961 24.964C106.321 24.447 104.759 22.522 104.759 20.278V19.541ZM100.689 26.713H109.907V27.901H100.689V26.713ZM114.075 19.629C115.681 19.629 116.88 20.674 116.88 22.137C116.88 23.611 115.681 24.656 114.075 24.656C112.48 24.656 111.259 23.611 111.259 22.137C111.259 20.674 112.48 19.629 114.075 19.629ZM114.075 20.883C113.294 20.883 112.7 21.345 112.7 22.137C112.7 22.94 113.294 23.402 114.075 23.402C114.856 23.402 115.45 22.94 115.45 22.137C115.45 21.345 114.856 20.883 114.075 20.883ZM117.837 18.947H119.3V29.166H117.837V18.947ZM111.017 27.098L110.841 25.921C112.634 25.921 115.131 25.899 117.276 25.58L117.386 26.636C115.175 27.076 112.777 27.098 111.017 27.098ZM125.717 19.31H126.905V19.959C126.905 21.895 126.003 23.567 124.034 24.183L123.33 23.017C125.013 22.511 125.717 21.268 125.717 19.959V19.31ZM126.014 19.31H127.191V19.926C127.191 21.169 127.873 22.324 129.501 22.797L128.764 23.93C126.872 23.347 126.014 21.785 126.014 19.926V19.31ZM130.018 18.958H131.481V24.183H130.018V18.958ZM130.887 20.938H132.823V22.137H130.887V20.938ZM124.749 24.579H131.481V27.329H126.223V28.572H124.771V26.273H130.04V25.701H124.749V24.579ZM124.771 27.945H131.778V29.078H124.771V27.945ZM136.31 19.662C137.861 19.662 138.983 21.07 138.983 23.292C138.983 25.536 137.861 26.944 136.31 26.944C134.759 26.944 133.637 25.536 133.637 23.292C133.637 21.07 134.759 19.662 136.31 19.662ZM136.31 20.993C135.551 20.993 135.045 21.796 135.045 23.292C135.045 24.81 135.551 25.624 136.31 25.624C137.069 25.624 137.586 24.81 137.586 23.292C137.586 21.796 137.069 20.993 136.31 20.993ZM140.094 18.958H141.568V29.144H140.094V18.958ZM141.238 22.797H143.042V24.007H141.238V22.797ZM145.989 25.14H147.089V25.481C147.089 27.021 146.407 28.429 144.812 29.001L144.097 27.934C145.428 27.483 145.989 26.471 145.989 25.481V25.14ZM146.363 25.14H147.408V25.481C147.408 26.471 147.903 27.505 149.146 28.022L148.563 29.1C146.946 28.495 146.363 26.977 146.363 25.481V25.14ZM149.707 25.14H150.752V25.481C150.752 26.889 150.147 28.473 148.563 29.1L147.958 28.022C149.201 27.461 149.707 26.383 149.707 25.481V25.14ZM150.048 25.14H151.148V25.481C151.148 26.537 151.698 27.516 153.04 27.934L152.325 29.001C150.708 28.451 150.048 27.087 150.048 25.481V25.14ZM150.697 18.969H152.171V24.722H150.697V18.969ZM146.627 19.486C148.211 19.486 149.388 20.498 149.388 21.928C149.388 23.347 148.211 24.359 146.627 24.359C145.043 24.359 143.855 23.347 143.855 21.928C143.855 20.498 145.043 19.486 146.627 19.486ZM146.627 20.696C145.857 20.696 145.285 21.147 145.285 21.928C145.285 22.698 145.857 23.149 146.627 23.149C147.397 23.149 147.958 22.698 147.958 21.928C147.958 21.147 147.397 20.696 146.627 20.696ZM154.964 21.708H162.026V22.863H154.964V21.708ZM153.82 23.919H163.049V25.085H153.82V23.919ZM154.964 19.321H156.416V22.28H154.964V19.321ZM154.865 27.758H162.081V28.924H154.865V27.758ZM154.865 25.899H156.328V28.066H154.865V25.899ZM168.736 18.09H170.101V19.52C170.101 21.691 169.295 23.823 167.371 24.746L166.396 23.42C168.086 22.601 168.736 20.989 168.736 19.52V18.09ZM169.048 18.09H170.4V19.52C170.4 20.924 171.024 22.328 172.623 23.056L171.687 24.356C169.802 23.537 169.048 21.613 169.048 19.52V18.09ZM175.184 17.297H176.822V26.306H175.184V17.297ZM173.754 20.742H175.665V22.133H173.754V20.742ZM172.636 17.505H174.248V25.955H172.636V17.505ZM168.723 27.736H177.134V29.114H168.723V27.736ZM168.723 25.24H170.452V28.594H168.723V25.24ZM178.537 26.514H189.431V27.931H178.537V26.514ZM179.369 18.324H188.534V19.702H179.369V18.324ZM179.421 23.303H188.495V24.694H179.421V23.303ZM181.007 19.598H182.736V23.433H181.007V19.598ZM185.18 19.598H186.896V23.433H185.18V19.598ZM198.231 17.297H199.96V26.163H198.231V17.297ZM199.466 20.742H201.559V22.172H199.466V20.742ZM192.238 27.736H200.402V29.114H192.238V27.736ZM192.238 25.448H193.98V28.191H192.238V25.448ZM190.912 23.056H191.926C194.292 23.056 195.748 22.991 197.412 22.679L197.568 24.07C195.878 24.382 194.357 24.434 191.926 24.434H190.912V23.056ZM190.899 18.012H196.398V21.808H192.628V23.55H190.912V20.534H194.695V19.39H190.899V18.012ZM205.38 18.207H206.784V19.962C206.784 23.056 205.718 25.851 203.326 26.956L202.299 25.526C204.392 24.616 205.38 22.302 205.38 19.962V18.207ZM205.718 18.207H207.122V19.962C207.122 22.185 208.071 24.395 210.125 25.279L209.111 26.67C206.784 25.604 205.718 22.926 205.718 19.962V18.207ZM210.697 17.271H212.439V29.348H210.697V17.271ZM218.873 17.973H220.381V18.844C220.381 21.457 218.522 23.771 215.402 24.382L214.661 22.952C217.378 22.484 218.873 20.573 218.873 18.844V17.973ZM219.224 17.973H220.719V18.844C220.719 20.612 222.201 22.484 224.931 22.952L224.19 24.382C221.07 23.771 219.224 21.496 219.224 18.844V17.973ZM214.414 26.449H225.308V27.853H214.414V26.449ZM227.595 18.285H235.174V19.663H227.595V18.285ZM226.36 26.553H237.241V27.944H226.36V26.553ZM234.485 18.285H236.188V19.338C236.188 20.794 236.201 22.497 235.642 25.11L233.939 24.928C234.485 22.484 234.485 20.729 234.485 19.338V18.285ZM234.797 21.184V22.484L227.452 22.887L227.218 21.418L234.797 21.184ZM230.221 23.667H231.95V27.06H230.221V23.667ZM247.854 20.196H250.142V21.6H247.854V20.196ZM249.674 17.284H251.403V24.434H249.674V17.284ZM247.321 24.694C249.869 24.694 251.442 25.565 251.442 27.021C251.442 28.49 249.869 29.335 247.321 29.335C244.773 29.335 243.2 28.49 243.2 27.021C243.2 25.565 244.773 24.694 247.321 24.694ZM247.321 26.007C245.761 26.007 244.929 26.332 244.929 27.021C244.929 27.697 245.761 28.022 247.321 28.022C248.894 28.022 249.726 27.697 249.726 27.021C249.726 26.332 248.894 26.007 247.321 26.007ZM244.11 18.493H245.514V19.247C245.514 21.548 244.448 23.654 242.147 24.434L241.263 23.069C243.252 22.393 244.11 20.794 244.11 19.247V18.493ZM244.474 18.493H245.865V19.247C245.865 20.664 246.684 22.133 248.582 22.77L247.737 24.135C245.501 23.394 244.474 21.392 244.474 19.247V18.493ZM241.731 18.012H248.205V19.39H241.731V18.012ZM253.3 26.527H264.194V27.931H253.3V26.527ZM257.863 23.953H259.592V26.865H257.863V23.953ZM254.444 18.051H256.16V19.897H261.295V18.051H263.011V24.317H254.444V18.051ZM256.16 21.249V22.939H261.295V21.249H256.16Z" fill="white"/>
<path d="M82.673 3.83104H83.135V4.73404C83.135 5.72804 82.603 6.77804 81.686 7.22604L81.35 6.77804C82.183 6.37904 82.673 5.49704 82.673 4.73404V3.83104ZM82.764 3.83104H83.226V4.73404C83.226 5.47604 83.695 6.23904 84.507 6.58904L84.185 7.03004C83.268 6.63104 82.764 5.71404 82.764 4.73404V3.83104ZM86.124 3.39004H86.677V8.15704H86.124V3.39004ZM85.116 5.28004H86.306V5.75604H85.116V5.28004ZM84.766 3.50204H85.319V7.94004H84.766V3.50204ZM82.554 9.09504H86.873V9.57104H82.554V9.09504ZM82.554 7.56204H83.135V9.36804H82.554V7.56204ZM87.7895 8.41604H93.5225V8.89904H87.7895V8.41604ZM88.2865 4.01304H92.9835V4.48904H88.2865V4.01304ZM88.3005 6.68704H92.9765V7.16304H88.3005V6.68704ZM89.2735 4.45404H89.8545V6.73604H89.2735V4.45404ZM91.4295 4.45404H92.0035V6.73604H91.4295V4.45404ZM98.5549 3.39004H99.1359V8.05204H98.5549V3.39004ZM98.9609 5.32204H100.074V5.81204H98.9609V5.32204ZM95.2369 9.09504H99.4229V9.57104H95.2369V9.09504ZM95.2369 7.68804H95.8179V9.27004H95.2369V7.68804ZM94.5019 6.58904H94.9989C96.1469 6.58904 96.9659 6.55404 97.9529 6.37904L98.0019 6.86204C97.0009 7.03004 96.1679 7.06504 94.9989 7.06504H94.5019V6.58904ZM94.4879 3.79604H97.3369V5.60904H95.0689V6.75704H94.5019V5.16804H96.7629V4.27204H94.4879V3.79604ZM105.486 4.79004H107.397V5.27304H105.486V4.79004ZM105.486 6.79204H107.397V7.27504H105.486V6.79204ZM104.324 3.86604C105.241 3.86604 105.899 4.72704 105.899 6.07104C105.899 7.42204 105.241 8.28304 104.324 8.28304C103.4 8.28304 102.749 7.42204 102.749 6.07104C102.749 4.72704 103.4 3.86604 104.324 3.86604ZM104.324 4.39104C103.715 4.39104 103.295 5.04904 103.295 6.07104C103.295 7.10004 103.715 7.77204 104.324 7.77204C104.933 7.77204 105.353 7.10004 105.353 6.07104C105.353 5.04904 104.933 4.39104 104.324 4.39104ZM107.271 3.37604H107.845V9.71804H107.271V3.37604ZM113.851 3.38304H114.404V7.38704H113.851V3.38304ZM112.822 5.09804H114.019V5.58104H112.822V5.09804ZM112.5 3.50904H113.046V7.16304H112.5V3.50904ZM109.042 4.13904H112.248V4.60104H109.042V4.13904ZM110.652 4.92304C111.443 4.92304 111.996 5.35704 111.996 6.00804C111.996 6.66604 111.443 7.09304 110.652 7.09304C109.854 7.09304 109.301 6.66604 109.301 6.00804C109.301 5.35704 109.854 4.92304 110.652 4.92304ZM110.652 5.35704C110.155 5.35704 109.819 5.61604 109.819 6.00804C109.819 6.40704 110.155 6.65904 110.652 6.65904C111.142 6.65904 111.478 6.40704 111.478 6.00804C111.478 5.61604 111.142 5.35704 110.652 5.35704ZM110.365 3.43204H110.932V4.39804H110.365V3.43204ZM112.332 7.49904C113.648 7.49904 114.439 7.89104 114.439 8.59804C114.439 9.29804 113.648 9.69704 112.332 9.69704C111.002 9.69704 110.218 9.29804 110.218 8.59804C110.218 7.89104 111.002 7.49904 112.332 7.49904ZM112.332 7.94704C111.359 7.94704 110.792 8.17804 110.792 8.59804C110.792 9.01804 111.359 9.25604 112.332 9.25604C113.291 9.25604 113.865 9.01804 113.865 8.59804C113.865 8.17804 113.291 7.94704 112.332 7.94704ZM118.213 3.65604H122.287V4.12504H118.213V3.65604ZM117.485 5.91004H123.218V6.38604H117.485V5.91004ZM120.047 6.24604H120.628V7.55504H120.047V6.24604ZM121.909 3.65604H122.476V4.11104C122.476 4.62904 122.476 5.26604 122.266 6.12704L121.699 6.05704C121.909 5.21704 121.909 4.61504 121.909 4.11104V3.65604ZM120.334 7.35904C121.699 7.35904 122.532 7.78604 122.532 8.53504C122.532 9.27704 121.699 9.70404 120.334 9.70404C118.969 9.70404 118.143 9.27704 118.143 8.53504C118.143 7.78604 118.969 7.35904 120.334 7.35904ZM120.334 7.83504C119.333 7.83504 118.724 8.08704 118.724 8.53504C118.724 8.97604 119.333 9.23504 120.334 9.23504C121.342 9.23504 121.944 8.97604 121.944 8.53504C121.944 8.08704 121.342 7.83504 120.334 7.83504ZM124.652 3.71204H128.726V4.18804H124.652V3.71204ZM123.924 6.04304H129.657V6.51904H123.924V6.04304ZM128.348 3.71204H128.915V4.18104C128.915 4.72004 128.915 5.33604 128.705 6.21104L128.138 6.18304C128.348 5.31504 128.348 4.70604 128.348 4.18104V3.71204ZM124.624 7.38004H128.936V9.62704H124.624V7.38004ZM128.369 7.84204H125.191V9.15804H128.369V7.84204ZM134.69 3.39004H135.271V8.13604H134.69V3.39004ZM135.089 5.46204H136.209V5.95204H135.089V5.46204ZM130.378 4.15304H134.116V4.62204H130.378V4.15304ZM132.247 4.97204C133.143 4.97204 133.759 5.44104 133.759 6.15504C133.759 6.86204 133.143 7.33104 132.247 7.33104C131.344 7.33104 130.728 6.86204 130.728 6.15504C130.728 5.44104 131.344 4.97204 132.247 4.97204ZM132.247 5.42704C131.673 5.42704 131.281 5.71404 131.281 6.15504C131.281 6.58904 131.673 6.87604 132.247 6.87604C132.814 6.87604 133.206 6.58904 133.206 6.15504C133.206 5.71404 132.814 5.42704 132.247 5.42704ZM131.953 3.38304H132.534V4.39804H131.953V3.38304ZM131.33 9.09504H135.558V9.57104H131.33V9.09504ZM131.33 7.75804H131.911V9.29804H131.33V7.75804ZM143.392 3.38304H143.973V7.66704H143.392V3.38304ZM142.034 5.16804H143.511V5.64404H142.034V5.16804ZM141.404 3.88004H142.013C142.013 5.51804 140.935 6.68004 139.122 7.26804L138.877 6.80604C140.48 6.30204 141.404 5.35004 141.404 4.11104V3.88004ZM139.178 3.88004H141.817V4.35604H139.178V3.88004ZM141.642 7.12104H142.139V7.40804C142.139 8.61904 141.033 9.43804 139.766 9.69704L139.535 9.23504C140.655 9.03204 141.642 8.33204 141.642 7.40804V7.12104ZM141.726 7.12104H142.223V7.40804C142.223 8.31804 143.196 9.01804 144.323 9.22104L144.078 9.68304C142.818 9.43104 141.726 8.61204 141.726 7.40804V7.12104ZM149.803 3.37604H150.384V9.71804H149.803V3.37604ZM147.045 3.86604C147.983 3.86604 148.655 4.72704 148.655 6.07104C148.655 7.42204 147.983 8.28304 147.045 8.28304C146.114 8.28304 145.442 7.42204 145.442 6.07104C145.442 4.72704 146.114 3.86604 147.045 3.86604ZM147.045 4.39104C146.429 4.39104 145.995 5.04904 145.995 6.07104C145.995 7.10004 146.429 7.77204 147.045 7.77204C147.668 7.77204 148.095 7.10004 148.095 6.07104C148.095 5.04904 147.668 4.39104 147.045 4.39104ZM158.254 3.38304H158.835V9.72504H158.254V3.38304ZM156.308 5.46904H158.443V5.94504H156.308V5.46904ZM153.963 4.09004H154.537V8.01004H153.963V4.09004ZM153.963 7.70204H154.453C155.433 7.70204 156.308 7.64604 157.281 7.44304L157.351 7.93304C156.343 8.12904 155.454 8.19204 154.453 8.19204H153.963V7.70204ZM160.052 7.05804H165.792V7.53404H160.052V7.05804ZM162.614 7.34504H163.188V9.71104H162.614V7.34504ZM160.78 3.73304H165.05V6.20404H160.78V3.73304ZM164.483 4.20204H161.354V5.73504H164.483V4.20204ZM172.793 3.38304H173.374V6.61004H172.793V3.38304ZM173.122 4.80404H174.312V5.28704H173.122V4.80404ZM168.726 3.79604H171.631V6.37904H168.726V3.79604ZM171.064 4.26504H169.293V5.91704H171.064V4.26504ZM169.125 9.06704H169.426C169.804 9.06704 170.413 9.03204 170.952 8.85004L171.05 9.31904C170.441 9.51504 169.86 9.54304 169.426 9.54304H169.125V9.06704ZM169.125 7.19104H169.692V9.19304H169.125V7.19104ZM170.819 7.25404H173.997V7.68804H170.819V7.25404ZM172.415 7.91904C173.101 7.91904 173.584 8.26904 173.584 8.80804C173.584 9.36104 173.101 9.70404 172.415 9.70404C171.722 9.70404 171.239 9.36104 171.239 8.80804C171.239 8.26904 171.722 7.91904 172.415 7.91904ZM172.415 8.33204C172.023 8.33204 171.757 8.52104 171.757 8.80804C171.757 9.10204 172.023 9.29104 172.415 9.29104C172.793 9.29104 173.066 9.10204 173.066 8.80804C173.066 8.52104 172.793 8.33204 172.415 8.33204ZM172.128 6.70104H172.695V7.56204H172.128V6.70104ZM177.763 3.48804C179.156 3.48804 179.989 3.88004 179.989 4.58704C179.989 5.29404 179.156 5.68604 177.763 5.68604C176.363 5.68604 175.537 5.29404 175.537 4.58704C175.537 3.88004 176.363 3.48804 177.763 3.48804ZM177.763 3.92904C176.727 3.92904 176.132 4.16704 176.132 4.58704C176.132 5.00704 176.727 5.24504 177.763 5.24504C178.792 5.24504 179.387 5.00704 179.387 4.58704C179.387 4.16704 178.792 3.92904 177.763 3.92904ZM174.9 6.10604H180.619V6.57504H174.9V6.10604ZM175.593 7.11404H179.891V8.54204H176.181V9.31204H175.607V8.12204H179.317V7.56204H175.593V7.11404ZM175.607 9.18604H180.08V9.64104H175.607V9.18604ZM186.934 3.51604H187.473V9.39604H186.934V3.51604ZM187.249 5.95904H188.418V6.43504H187.249V5.95904ZM183.497 7.58304H183.749C183.994 7.58304 184.407 7.57604 184.897 7.45704L184.946 7.94004C184.421 8.06604 184.015 8.06604 183.749 8.06604H183.497V7.58304ZM183.497 4.17404H184.848V4.65004H184.036V7.85604H183.497V4.17404ZM185.121 7.58304H185.387C185.723 7.58304 186.164 7.56904 186.647 7.43604L186.703 7.91904C186.185 8.05904 185.751 8.06604 185.387 8.06604H185.121V7.58304ZM185.121 4.17404H186.514V4.65004H185.653V7.83504H185.121V4.17404ZM188.215 3.38304H188.768V9.71104H188.215V3.38304Z" fill="white"/>
<path d="M93.9059 37.7153H94.4454V43.6043H93.9059V37.7153ZM91.3449 38.1703C92.2159 38.1703 92.8399 38.9698 92.8399 40.2178C92.8399 41.4723 92.2159 42.2718 91.3449 42.2718C90.4804 42.2718 89.8564 41.4723 89.8564 40.2178C89.8564 38.9698 90.4804 38.1703 91.3449 38.1703ZM91.3449 38.6578C90.7729 38.6578 90.3699 39.2688 90.3699 40.2178C90.3699 41.1733 90.7729 41.7973 91.3449 41.7973C91.9234 41.7973 92.3199 41.1733 92.3199 40.2178C92.3199 39.2688 91.9234 38.6578 91.3449 38.6578ZM100.054 37.7218H100.568V42.1808H100.054V37.7218ZM97.9939 39.4248H99.1054V39.8668H97.9939V39.4248ZM98.9364 37.8388H99.4499V42.0118H98.9364V37.8388ZM95.8814 38.1898H96.3884V39.1778H97.6429V38.1898H98.1564V41.0693H95.8814V38.1898ZM96.3884 39.6068V40.6338H97.6429V39.6068H96.3884ZM96.7394 43.0258H100.75V43.4678H96.7394V43.0258ZM96.7394 41.5828H97.2789V43.2663H96.7394V41.5828ZM102.283 40.8873H106.32V41.3228H102.283V40.8873ZM101.601 42.3953H106.924V42.8438H101.601V42.3953ZM102.283 38.2223H106.255V38.6643H102.829V41.0238H102.283V38.2223ZM102.654 39.5353H106.131V39.9643H102.654V39.5353ZM107.58 42.4278H112.904V42.8763H107.58V42.4278ZM109.959 41.1668H110.499V42.6163H109.959V41.1668ZM108.224 38.1573H112.247V39.9383H108.776V41.1148H108.243V39.5028H111.714V38.5928H108.224V38.1573ZM108.243 40.8873H112.384V41.3293H108.243V40.8873ZM115.693 38.0793H116.22V38.9893H117.91V38.0793H118.443V40.8548H115.693V38.0793ZM116.22 39.4183V40.4258H117.91V39.4183H116.22ZM116.278 41.6023H120.204V43.5978H119.658V42.0378H116.278V41.6023ZM119.658 37.7218H120.204V41.2773H119.658V37.7218ZM122.687 38.2093C123.447 38.2093 123.941 38.9958 123.941 40.2568C123.941 41.5178 123.447 42.3043 122.687 42.3043C121.926 42.3043 121.439 41.5178 121.439 40.2568C121.439 38.9958 121.926 38.2093 122.687 38.2093ZM122.687 38.7098C122.225 38.7098 121.933 39.3078 121.933 40.2568C121.933 41.2058 122.225 41.8038 122.687 41.8038C123.148 41.8038 123.441 41.2058 123.441 40.2568C123.441 39.3078 123.148 38.7098 122.687 38.7098ZM125.839 37.7218H126.359V43.5978H125.839V37.7218ZM124.91 40.0488H126.034V40.4908H124.91V40.0488ZM124.539 37.8453H125.053V43.3053H124.539V37.8453ZM127.834 37.8973H132.15V38.3198H127.834V37.8973ZM127.86 39.4378H132.124V39.8538H127.86V39.4378ZM128.725 38.0598H129.264V39.7108H128.725V38.0598ZM130.727 38.0598H131.26V39.7108H130.727V38.0598ZM127.34 40.3413H132.651V40.7768H127.34V40.3413ZM127.984 41.2903H131.975V42.5773H128.53V43.2858H127.997V42.1938H131.442V41.6933H127.984V41.2903ZM127.997 43.1233H132.15V43.5328H127.997V43.1233ZM137.798 37.7218H138.318V43.5978H137.798V37.7218ZM136.869 40.0813H137.993V40.5298H136.869V40.0813ZM136.524 37.8518H137.031V43.2988H136.524V37.8518ZM133.378 38.4563H136.095V38.8983H133.378V38.4563ZM133.326 42.1548L133.261 41.6998C134.035 41.6998 135.309 41.6738 136.206 41.5568L136.245 41.9533C135.315 42.1288 134.093 42.1548 133.326 42.1548ZM133.879 38.7423H134.373V41.8168H133.879V38.7423ZM135.101 38.7423H135.595V41.8168H135.101V38.7423ZM141.659 38.1248H142.127V38.5733C142.127 39.8538 140.937 40.8483 139.761 41.1148L139.52 40.6663C140.554 40.4713 141.659 39.5743 141.659 38.5733V38.1248ZM141.756 38.1248H142.224V38.5733C142.224 39.5808 143.336 40.4713 144.363 40.6663L144.122 41.1148C142.952 40.8483 141.756 39.8603 141.756 38.5733V38.1248ZM139.306 42.3628H144.629V42.8048H139.306V42.3628ZM151.131 37.7023H151.67V40.9458H151.131V37.7023ZM151.443 39.1128H152.541V39.5678H151.443V39.1128ZM147.939 41.2448H151.67V42.5578H148.485V43.2728H147.952V42.1678H151.144V41.6543H147.939V41.2448ZM147.952 43.1168H151.885V43.5328H147.952V43.1168ZM147.127 38.2483H150.598V38.6708H147.127V38.2483ZM148.862 38.9308C149.707 38.9308 150.266 39.3013 150.266 39.8993C150.266 40.4908 149.707 40.8548 148.862 40.8548C148.004 40.8548 147.452 40.4908 147.452 39.8993C147.452 39.3013 148.004 38.9308 148.862 38.9308ZM148.862 39.3273C148.316 39.3273 147.965 39.5483 147.965 39.8993C147.965 40.2438 148.316 40.4648 148.862 40.4648C149.402 40.4648 149.753 40.2438 149.753 39.8993C149.753 39.5483 149.402 39.3273 148.862 39.3273ZM148.589 37.6568H149.129V38.5408H148.589V37.6568ZM157.364 37.7283H157.91V42.0183H157.364V37.7283ZM154.133 43.0258H158.085V43.4678H154.133V43.0258ZM154.133 41.5763H154.666V43.1753H154.133V41.5763ZM154.757 38.1313C155.635 38.1313 156.285 38.7293 156.285 39.5808C156.285 40.4258 155.635 41.0303 154.757 41.0303C153.88 41.0303 153.223 40.4258 153.223 39.5808C153.223 38.7293 153.88 38.1313 154.757 38.1313ZM154.757 38.5993C154.185 38.5993 153.75 39.0023 153.75 39.5808C153.75 40.1528 154.185 40.5558 154.757 40.5558C155.329 40.5558 155.765 40.1528 155.765 39.5808C155.765 39.0023 155.329 38.5993 154.757 38.5993ZM164.918 37.7218H165.457V41.1603H164.918V37.7218ZM165.308 39.1323H166.328V39.5873H165.308V39.1323ZM161.141 38.0468H161.674V38.9438H163.332V38.0468H163.858V40.7898H161.141V38.0468ZM161.674 39.3728V40.3543H163.332V39.3728H161.674ZM161.785 41.4788H165.503V41.9143H162.324V43.3898H161.785V41.4788ZM161.785 43.0778H165.62V43.5198H161.785V43.0778ZM169.532 38.0923C170.754 38.0923 171.664 38.7423 171.664 39.7173C171.664 40.6988 170.754 41.3423 169.532 41.3423C168.31 41.3423 167.394 40.6988 167.394 39.7173C167.394 38.7423 168.31 38.0923 169.532 38.0923ZM169.532 38.5343C168.603 38.5343 167.914 39.0088 167.914 39.7173C167.914 40.4193 168.603 40.9003 169.532 40.9003C170.462 40.9003 171.151 40.4193 171.151 39.7173C171.151 39.0088 170.462 38.5343 169.532 38.5343ZM166.88 42.3693H172.204V42.8243H166.88V42.3693ZM175.174 39.8213H176.298V40.2698H175.174V39.8213ZM174.075 38.2743H174.498V39.3923C174.498 40.6208 173.984 41.8103 173.126 42.3368L172.788 41.9273C173.594 41.4528 174.075 40.3998 174.075 39.3923V38.2743ZM174.179 38.2743H174.595V39.3728C174.595 40.3153 175.037 41.3163 175.811 41.7843L175.499 42.2068C174.654 41.6868 174.179 40.5168 174.179 39.3728V38.2743ZM177.332 37.7218H177.852V43.5978H177.332V37.7218ZM176.142 37.8453H176.649V43.3053H176.142V37.8453ZM180.139 40.7443H180.672V42.5058H180.139V40.7443ZM182.31 40.7443H182.85V42.5058H182.31V40.7443ZM178.839 42.4018H184.163V42.8503H178.839V42.4018ZM181.491 38.0923C182.733 38.0923 183.623 38.6838 183.623 39.6068C183.623 40.5233 182.733 41.1148 181.491 41.1148C180.243 41.1148 179.353 40.5233 179.353 39.6068C179.353 38.6838 180.243 38.0923 181.491 38.0923ZM181.491 38.5213C180.549 38.5213 179.873 38.9503 179.873 39.6068C179.873 40.2568 180.549 40.6858 181.491 40.6858C182.434 40.6858 183.103 40.2568 183.103 39.6068C183.103 38.9503 182.434 38.5213 181.491 38.5213ZM185.712 38.3635L185.666 41.7613H185.131L185.085 38.3635H185.712ZM185.398 43.1278C185.285 43.1278 185.187 43.087 185.105 43.0054C185.024 42.9239 184.983 42.8261 184.983 42.7123C184.983 42.5984 185.024 42.5007 185.105 42.4191C185.187 42.3376 185.285 42.2968 185.398 42.2968C185.512 42.2968 185.61 42.3376 185.692 42.4191C185.773 42.5007 185.814 42.5984 185.814 42.7123C185.814 42.7877 185.795 42.8569 185.756 42.92C185.719 42.9831 185.669 43.0339 185.606 43.0724C185.545 43.1093 185.475 43.1278 185.398 43.1278Z" fill="white"/>
<path d="M84.585 38.5693H81.585V44.0793H87.1851V40.8962" stroke="white"/>
<path d="M82.5044 40.1597L84.3413 42.3018L88.228 37.5889" stroke="white"/>
</g>
</g>
<defs>
<clipPath id="clip0_12139_18981">
<rect width="345" height="47" fill="white"/>
</clipPath>
</defs>
</svg>
