<svg width="800" height="109" viewBox="0 0 800 109" fill="none" xmlns="http://www.w3.org/2000/svg">
<g clip-path="url(#clip0_12165_18342)">
<mask id="mask0_12165_18342" style="mask-type:luminance" maskUnits="userSpaceOnUse" x="0" y="0" width="800" height="109">
<path d="M800 0H0V109H800V0Z" fill="white"/>
</mask>
<g mask="url(#mask0_12165_18342)">
<path d="M162.268 38.348H179.178V62.022H162.268V38.348ZM174.238 42.3H167.246V58.032H174.238V42.3ZM184.65 35.156H189.742V70.458H184.65V35.156ZM199.391 36.676H221.697V40.704H199.391V36.676ZM195.515 48.836H227.359V52.864H195.515V48.836ZM208.853 51.686H213.907V59.058H208.853V51.686ZM218.657 36.676H223.635V39.488C223.635 42.528 223.635 46.062 222.533 50.698L217.555 50.204C218.657 45.682 218.657 42.452 218.657 39.488V36.676ZM198.707 57.804H223.673V70.382H218.619V61.794H198.707V57.804ZM254.961 42.376H264.537V46.442H254.961V42.376ZM254.961 53.282H264.537V57.348H254.961V53.282ZM248.881 37.626C254.125 37.626 257.963 42.49 257.963 50.166C257.963 57.918 254.125 62.782 248.881 62.782C243.599 62.782 239.799 57.918 239.799 50.166C239.799 42.49 243.599 37.626 248.881 37.626ZM248.881 42.224C246.335 42.224 244.587 44.998 244.587 50.166C244.587 55.41 246.335 58.222 248.881 58.222C251.465 58.222 253.175 55.41 253.175 50.166C253.175 44.998 251.465 42.224 248.881 42.224ZM263.739 35.156H268.755V70.458H263.739V35.156ZM299.38 35.194H304.168V57.234H299.38V35.194ZM295.086 43.858H300.71V47.962H295.086V43.858ZM292.084 35.878H296.796V56.094H292.084V35.878ZM274.034 38.804H291.096V42.68H274.034V38.804ZM282.622 43.82C287.03 43.82 290.222 46.328 290.222 49.976C290.222 53.624 287.03 56.094 282.622 56.094C278.214 56.094 275.022 53.624 275.022 49.976C275.022 46.328 278.214 43.82 282.622 43.82ZM282.622 47.43C280.76 47.43 279.506 48.342 279.506 49.976C279.506 51.61 280.76 52.522 282.622 52.522C284.446 52.522 285.7 51.61 285.7 49.976C285.7 48.342 284.446 47.43 282.622 47.43ZM280.076 35.536H285.054V41.464H280.076V35.536ZM292.274 57.614C299.798 57.614 304.358 59.894 304.358 63.998C304.358 68.064 299.798 70.382 292.274 70.382C284.712 70.382 280.152 68.064 280.152 63.998C280.152 59.894 284.712 57.614 292.274 57.614ZM292.274 61.376C287.562 61.376 285.206 62.174 285.206 63.998C285.206 65.784 287.562 66.62 292.274 66.62C296.948 66.62 299.304 65.784 299.304 63.998C299.304 62.174 296.948 61.376 292.274 61.376ZM342.182 35.194H347.274V53.206H342.182V35.194ZM323.448 54.612H347.274V64.112H328.502V68.368H323.524V60.502H342.258V58.488H323.448V54.612ZM323.524 66.24H348.224V70.154H323.524V66.24ZM319.458 37.322H338.42V41.198H319.458V37.322ZM319.04 52.598L318.546 48.608C324.702 48.608 332.91 48.494 339.712 47.658L339.978 51.268C333.024 52.408 325.12 52.56 319.04 52.598ZM322.232 39.07H327.058V50.584H322.232V39.07ZM330.744 39.07H335.646V50.584H330.744V39.07ZM366.157 36.22H370.603V37.854C370.603 44.618 365.283 50.356 356.049 51.724L354.073 47.658C362.167 46.594 366.157 41.996 366.157 37.854V36.22ZM367.107 36.22H371.515V37.854C371.515 41.958 375.543 46.594 383.599 47.658L381.661 51.724C372.427 50.356 367.107 44.618 367.107 37.854V36.22ZM366.195 57.5H371.211V70.382H366.195V57.5ZM352.933 54.308H384.739V58.412H352.933V54.308ZM402.71 43.668H408.068V47.696H402.71V43.668ZM389.22 50.85H391.614C396.63 50.85 399.86 50.774 403.698 50.128L404.154 54.042C400.164 54.764 396.82 54.84 391.614 54.84H389.22V50.85ZM389.22 37.284H402.482V41.274H394.084V53.168H389.22V37.284ZM392.64 44.048H401.19V47.886H392.64V44.048ZM413.046 35.194H417.834V56.17H413.046V35.194ZM406.168 35.726H410.88V55.904H406.168V35.726ZM394.008 57.576H417.834V70.002H394.008V57.576ZM412.894 61.528H398.986V66.012H412.894V61.528ZM430.955 62.7244L430.787 64.4041C430.655 65.7479 430.4 67.0865 430.023 68.4201C429.657 69.7638 429.27 70.9804 428.863 72.0696C428.466 73.1589 428.145 74.014 427.901 74.6349H423.686C423.839 74.0343 424.048 73.1945 424.312 72.1154C424.577 71.0465 424.827 69.8453 425.061 68.5117C425.295 67.1781 425.442 65.8191 425.504 64.4347L425.58 62.7244H430.955ZM446.53 33.374H452.163V38.577H460.204V33.374H465.88V52.681H446.53V33.374ZM452.163 42.963V48.209H460.204V42.963H452.163ZM450.443 56.637H477.619V70.827H471.857V61.152H450.443V56.637ZM471.857 31.009H477.619V54.788H471.857V31.009ZM493.01 33.804C498.299 33.804 501.696 39.265 501.696 48.252C501.696 57.282 498.299 62.743 493.01 62.743C487.764 62.743 484.41 57.282 484.41 48.252C484.41 39.265 487.764 33.804 493.01 33.804ZM493.01 39.179C490.86 39.179 489.613 42.189 489.613 48.252C489.613 54.358 490.86 57.325 493.01 57.325C495.203 57.325 496.45 54.358 496.45 48.252C496.45 42.189 495.203 39.179 493.01 39.179ZM512.833 31.009H518.294V70.827H512.833V31.009ZM508.06 46.188H514.639V50.789H508.06V46.188ZM504.104 31.611H509.479V69.021H504.104V31.611ZM526.761 32.084H556.431V36.341H526.761V32.084ZM527.062 41.415H556.13V45.672H527.062V41.415ZM531.835 33.761H537.554V44.167H531.835V33.761ZM545.638 33.761H551.357V44.167H545.638V33.761ZM523.622 47.736H559.613V52.208H523.622V47.736ZM527.75 54.401H555.27V64.291H533.426V67.989H527.793V60.464H549.637V58.486H527.75V54.401ZM527.793 66.398H556.302V70.569H527.793V66.398ZM591.946 31.009H597.407V70.827H591.946V31.009ZM587.173 46.274H593.752V50.918H587.173V46.274ZM583.561 31.697H588.893V68.935H583.561V31.697ZM563.48 35.481H581.669V40.039H563.48V35.481ZM563.394 61.797L562.792 57.153C567.737 57.153 576.036 57.024 581.97 56.207L582.357 60.335C576.251 61.668 568.253 61.797 563.394 61.797ZM565.974 38.405H571.091V58.357H565.974V38.405ZM574.058 38.405H579.175V58.357H574.058V38.405ZM617.528 33.288H622.516V36.169C622.516 44.812 616.367 52.466 606.047 54.487L603.596 49.757C612.583 48.209 617.528 41.888 617.528 36.169V33.288ZM618.689 33.288H623.634V36.169C623.634 42.017 628.536 48.209 637.566 49.757L635.115 54.487C624.795 52.466 618.689 44.941 618.689 36.169V33.288ZM602.779 61.324H638.813V65.968H602.779V61.324Z" fill="white"/>
<path d="M163.892 16.028H165.419C169.009 16.028 171.482 15.942 174.406 15.426L174.599 16.888C171.589 17.404 169.052 17.5115 165.419 17.5115H163.892V16.028ZM163.892 4.504H172.944V5.9875H165.677V16.544H163.892V4.504ZM165.225 9.9435H172.514V11.384H165.225V9.9435ZM176.212 2.741H178.018V22.177H176.212V2.741ZM177.588 10.5455H181.2V12.0505H177.588V10.5455ZM183.95 4.633H192.894V17.2965H183.95V4.633ZM191.152 6.0735H185.691V15.856H191.152V6.0735ZM196.957 2.7195H198.742V22.1985H196.957V2.7195ZM210.415 4.074H211.963V5.5575C211.963 9.793 208.028 13.0825 204.137 13.964L203.341 12.4805C206.76 11.8355 210.415 8.8685 210.415 5.5575V4.074ZM210.737 4.074H212.285V5.5575C212.285 8.89 215.962 11.8355 219.359 12.4805L218.563 13.964C214.693 13.0825 210.737 9.8145 210.737 5.5575V4.074ZM202.632 18.092H220.24V19.554H202.632V18.092ZM229.145 4.6545H230.843V9.3845H234.928V4.6545H236.584V17.2965H229.145V4.6545ZM230.843 10.825V15.8345H234.928V10.825H230.843ZM243.249 2.741H244.969V22.177H243.249V2.741ZM236.283 10.1155H240.024V11.599H236.283V10.1155ZM239.4 3.1495H241.099V21.2095H239.4V3.1495ZM256.018 4.074H257.566V5.5575C257.566 9.793 253.632 13.0825 249.74 13.964L248.945 12.4805C252.363 11.8355 256.018 8.8685 256.018 5.5575V4.074ZM256.341 4.074H257.889V5.5575C257.889 8.89 261.565 11.8355 264.962 12.4805L264.167 13.964C260.297 13.0825 256.341 9.8145 256.341 5.5575V4.074ZM248.235 18.092H265.844V19.554H248.235V18.092ZM270.271 13.2115H283.622V14.652H270.271V13.2115ZM268.013 18.1995H285.622V19.683H268.013V18.1995ZM270.271 4.3965H283.407V5.8585H272.077V13.663H270.271V4.3965ZM271.496 8.7395H282.999V10.1585H271.496V8.7395ZM301.751 6.3745H305.492V7.858H301.751V6.3745ZM297.859 3.558H299.257V5.5145C299.257 8.5245 297.623 11.6205 294.806 12.932L293.839 11.5775C296.376 10.438 297.859 7.8365 297.859 5.5145V3.558ZM298.203 3.558H299.579V5.6005C299.579 7.815 300.977 10.0295 303.363 10.997L302.439 12.373C299.665 11.212 298.203 8.4815 298.203 5.6005V3.558ZM308.502 2.7625H310.2V13.104H308.502V2.7625ZM304.696 3.1065H306.395V12.932H304.696V3.1065ZM297.386 13.9855H310.2V18.522H299.192V21.3815H297.429V17.189H308.48V15.4045H297.386V13.9855ZM297.429 20.543H310.953V21.962H297.429V20.543ZM327.807 2.7195H329.591V22.1985H327.807V2.7195ZM324.109 10.2015H328.237V11.6635H324.109V10.2015ZM314.326 16.0495H315.81C319.25 16.0495 321.679 15.942 324.539 15.426L324.711 16.9095C321.787 17.4255 319.314 17.5545 315.81 17.5545H314.326V16.0495ZM314.283 4.547H322.969V11.3625H316.089V16.501H314.326V9.9005H321.206V6.009H314.283V4.547ZM352.66 4.86364V20.5H350.827L342.307 8.22301H342.154V20.5H340.261V4.86364H342.093L350.644 17.1712H350.797V4.86364H352.66ZM360.969 20.7443C359.91 20.7443 358.981 20.4924 358.182 19.9885C357.388 19.4846 356.767 18.7796 356.319 17.8736C355.876 16.9676 355.655 15.9089 355.655 14.6974C355.655 13.4759 355.876 12.4095 356.319 11.4984C356.767 10.5873 357.388 9.87979 358.182 9.37589C358.981 8.87198 359.91 8.62003 360.969 8.62003C362.027 8.62003 362.954 8.87198 363.748 9.37589C364.547 9.87979 365.168 10.5873 365.611 11.4984C366.058 12.4095 366.282 13.4759 366.282 14.6974C366.282 15.9089 366.058 16.9676 365.611 17.8736C365.168 18.7796 364.547 19.4846 363.748 19.9885C362.954 20.4924 362.027 20.7443 360.969 20.7443ZM360.969 19.1257C361.773 19.1257 362.434 18.9196 362.954 18.5073C363.473 18.095 363.857 17.5529 364.106 16.881C364.356 16.2092 364.481 15.4813 364.481 14.6974C364.481 13.9136 364.356 13.1832 364.106 12.5062C363.857 11.8292 363.473 11.2821 362.954 10.8647C362.434 10.4473 361.773 10.2386 360.969 10.2386C360.164 10.2386 359.503 10.4473 358.983 10.8647C358.464 11.2821 358.08 11.8292 357.831 12.5062C357.581 13.1832 357.456 13.9136 357.456 14.6974C357.456 15.4813 357.581 16.2092 357.831 16.881C358.08 17.5529 358.464 18.095 358.983 18.5073C359.503 18.9196 360.164 19.1257 360.969 19.1257ZM370.346 20.6222C369.969 20.6222 369.646 20.4873 369.377 20.2175C369.107 19.9477 368.972 19.6245 368.972 19.2479C368.972 18.8712 369.107 18.548 369.377 18.2782C369.646 18.0085 369.969 17.8736 370.346 17.8736C370.723 17.8736 371.046 18.0085 371.316 18.2782C371.586 18.548 371.72 18.8712 371.72 19.2479C371.72 19.4973 371.657 19.7263 371.53 19.935C371.407 20.1437 371.242 20.3117 371.033 20.4389C370.83 20.5611 370.601 20.6222 370.346 20.6222ZM378.552 4.86364V20.5H376.658V6.84872H376.567L372.749 9.38352V7.45952L376.658 4.86364H378.552Z" fill="white"/>
<path d="M185.246 95.622H196.37V96.846H185.246V95.622ZM185.246 90.96H186.74V96.198H185.246V90.96ZM183.392 99.168H198.098V100.41H183.392V99.168ZM187.172 99.636H188.666V106.404H187.172V99.636ZM192.806 99.636H194.282V106.404H192.806V99.636ZM203.569 95.766H205.045V98.844H203.569V95.766ZM209.545 95.766H211.021V98.844H209.545V95.766ZM207.295 90.474C210.805 90.474 213.019 91.626 213.019 93.57C213.019 95.532 210.805 96.684 207.295 96.684C203.767 96.684 201.571 95.532 201.571 93.57C201.571 91.626 203.767 90.474 207.295 90.474ZM207.295 91.662C204.703 91.662 203.101 92.364 203.101 93.57C203.101 94.776 204.703 95.496 207.295 95.496C209.869 95.496 211.489 94.776 211.489 93.57C211.489 92.364 209.869 91.662 207.295 91.662ZM199.933 98.412H214.639V99.636H199.933V98.412ZM201.571 101.148H212.821V106.404H211.327V102.372H201.571V101.148ZM226.216 98.736H227.728V102.264H226.216V98.736ZM226.216 93.012H227.422V93.372C227.422 96.216 225.568 98.412 222.832 99.276L222.148 98.106C224.56 97.386 226.216 95.568 226.216 93.372V93.012ZM226.504 93.012H227.71V93.372C227.71 95.478 229.42 97.242 231.814 97.944L231.13 99.096C228.394 98.286 226.504 96.126 226.504 93.372V93.012ZM222.526 92.256H231.472V93.462H222.526V92.256ZM226.216 90.24H227.728V92.778H226.216V90.24ZM233.326 90.114H234.82V106.422H233.326V90.114ZM221.86 103.074L221.644 101.814C224.614 101.814 228.718 101.796 232.264 101.256L232.39 102.354C228.736 103.038 224.758 103.056 221.86 103.074ZM250.496 90.132H251.936V106.404H250.496V90.132ZM247.742 96.648H250.874V97.89H247.742V96.648ZM246.806 90.492H248.21V105.576H246.806V90.492ZM238.706 101.148H239.768C242.144 101.148 243.764 101.058 245.654 100.662L245.798 101.904C243.854 102.318 242.216 102.39 239.768 102.39H238.706V101.148ZM238.706 92.112H244.754V93.336H240.182V101.706H238.706V92.112ZM264.553 105.179C264.016 105.17 263.479 105.068 262.942 104.872C262.406 104.676 261.915 104.346 261.472 103.881C261.029 103.413 260.673 102.78 260.405 101.983C260.136 101.182 260.002 100.176 260.002 98.9659C260.002 97.8068 260.111 96.7798 260.328 95.8849C260.545 94.9858 260.861 94.2294 261.274 93.6158C261.688 92.9979 262.186 92.5291 262.77 92.2095C263.358 91.8899 264.021 91.7301 264.758 91.7301C265.491 91.7301 266.143 91.8771 266.714 92.1712C267.289 92.4609 267.758 92.8658 268.12 93.3857C268.482 93.9055 268.717 94.5043 268.823 95.1818H267.263C267.119 94.5937 266.837 94.1058 266.42 93.718C266.002 93.3303 265.448 93.1364 264.758 93.1364C263.744 93.1364 262.945 93.5774 262.361 94.4595C261.781 95.3416 261.489 96.5795 261.485 98.1733H261.587C261.826 97.8111 262.109 97.5021 262.438 97.2464C262.77 96.9865 263.136 96.7862 263.537 96.6456C263.938 96.505 264.362 96.4347 264.809 96.4347C265.559 96.4347 266.245 96.6222 266.867 96.9972C267.489 97.3679 267.988 97.8814 268.363 98.5376C268.738 99.1896 268.925 99.9375 268.925 100.781C268.925 101.591 268.744 102.332 268.382 103.006C268.02 103.675 267.511 104.207 266.854 104.604C266.202 104.996 265.435 105.188 264.553 105.179ZM264.553 103.773C265.09 103.773 265.572 103.638 265.998 103.37C266.428 103.102 266.767 102.741 267.014 102.29C267.266 101.838 267.391 101.335 267.391 100.781C267.391 100.24 267.27 99.7479 267.027 99.3047C266.788 98.8572 266.458 98.5014 266.036 98.2372C265.619 97.973 265.141 97.8409 264.604 97.8409C264.2 97.8409 263.822 97.9219 263.473 98.0838C263.124 98.2415 262.817 98.4588 262.553 98.7358C262.293 99.0128 262.088 99.3303 261.939 99.6882C261.79 100.042 261.715 100.415 261.715 100.807C261.715 101.327 261.837 101.812 262.08 102.264C262.327 102.716 262.663 103.08 263.089 103.357C263.52 103.634 264.008 103.773 264.553 103.773ZM275.53 105.179C274.78 105.179 274.105 105.03 273.504 104.732C272.903 104.433 272.421 104.024 272.059 103.504C271.697 102.984 271.499 102.392 271.465 101.727H272.999C273.058 102.32 273.327 102.81 273.804 103.197C274.286 103.581 274.861 103.773 275.53 103.773C276.067 103.773 276.544 103.647 276.962 103.396C277.384 103.144 277.714 102.799 277.953 102.36C278.195 101.917 278.317 101.416 278.317 100.858C278.317 100.287 278.191 99.7777 277.94 99.3303C277.693 98.8786 277.352 98.5227 276.917 98.2628C276.482 98.0028 275.986 97.8707 275.428 97.8665C275.027 97.8622 274.616 97.924 274.194 98.0518C273.772 98.1754 273.425 98.3352 273.152 98.5312L271.669 98.3523L272.462 91.9091H279.263V93.3153H273.791L273.331 97.1761H273.408C273.676 96.9631 274.013 96.7862 274.418 96.6456C274.823 96.505 275.244 96.4347 275.683 96.4347C276.485 96.4347 277.198 96.6264 277.825 97.0099C278.455 97.3892 278.95 97.9091 279.308 98.5696C279.67 99.2301 279.851 99.9844 279.851 100.832C279.851 101.668 279.664 102.413 279.289 103.07C278.918 103.722 278.406 104.237 277.754 104.616C277.102 104.991 276.361 105.179 275.53 105.179ZM289.064 102.545V101.855C289.064 101.378 289.162 100.941 289.358 100.545C289.558 100.144 289.848 99.8246 290.227 99.5859C290.61 99.343 291.075 99.2216 291.62 99.2216C292.174 99.2216 292.639 99.343 293.014 99.5859C293.389 99.8246 293.672 100.144 293.864 100.545C294.056 100.941 294.152 101.378 294.152 101.855V102.545C294.152 103.023 294.054 103.462 293.858 103.862C293.666 104.259 293.38 104.578 293.001 104.821C292.626 105.06 292.166 105.179 291.62 105.179C291.066 105.179 290.6 105.06 290.221 104.821C289.841 104.578 289.554 104.259 289.358 103.862C289.162 103.462 289.064 103.023 289.064 102.545ZM290.368 101.855V102.545C290.368 102.942 290.461 103.298 290.649 103.613C290.836 103.924 291.16 104.08 291.62 104.08C292.068 104.08 292.383 103.924 292.566 103.613C292.754 103.298 292.848 102.942 292.848 102.545V101.855C292.848 101.459 292.758 101.105 292.579 100.794C292.4 100.479 292.081 100.321 291.62 100.321C291.173 100.321 290.851 100.479 290.655 100.794C290.463 101.105 290.368 101.459 290.368 101.855ZM282.544 95.054V94.3636C282.544 93.8864 282.642 93.4496 282.838 93.0533C283.038 92.6527 283.328 92.3331 283.707 92.0945C284.091 91.8516 284.555 91.7301 285.1 91.7301C285.654 91.7301 286.119 91.8516 286.494 92.0945C286.869 92.3331 287.152 92.6527 287.344 93.0533C287.536 93.4496 287.632 93.8864 287.632 94.3636V95.054C287.632 95.5312 287.534 95.9702 287.338 96.3707C287.146 96.767 286.86 97.0866 286.481 97.3295C286.106 97.5682 285.646 97.6875 285.1 97.6875C284.547 97.6875 284.08 97.5682 283.701 97.3295C283.321 97.0866 283.034 96.767 282.838 96.3707C282.642 95.9702 282.544 95.5312 282.544 95.054ZM283.848 94.3636V95.054C283.848 95.4503 283.941 95.8061 284.129 96.1214C284.316 96.4325 284.64 96.5881 285.1 96.5881C285.548 96.5881 285.863 96.4325 286.047 96.1214C286.234 95.8061 286.328 95.4503 286.328 95.054V94.3636C286.328 93.9673 286.238 93.6136 286.059 93.3026C285.88 92.9872 285.561 92.8295 285.1 92.8295C284.653 92.8295 284.331 92.9872 284.135 93.3026C283.944 93.6136 283.848 93.9673 283.848 94.3636ZM283.029 105L292.029 91.9091H293.487L284.487 105H283.029ZM299.291 103.21L299.189 103.901C299.116 104.386 299.005 104.906 298.856 105.46C298.711 106.014 298.56 106.536 298.402 107.026C298.245 107.516 298.115 107.906 298.012 108.196H296.862C296.917 107.923 296.99 107.563 297.079 107.116C297.169 106.668 297.258 106.168 297.348 105.614C297.441 105.064 297.518 104.501 297.578 103.926L297.654 103.21H299.291ZM310.07 91.284H311.258V93.606C311.258 96.162 309.89 98.862 307.532 100.014L306.668 98.862C308.81 97.836 310.07 95.568 310.07 93.606V91.284ZM310.304 91.284H311.492V93.606C311.492 95.514 312.698 97.476 314.786 98.376L313.958 99.51C311.6 98.484 310.304 96.126 310.304 93.606V91.284ZM318.944 90.15H320.366V102.408H318.944V90.15ZM316.352 95.01H319.412V96.234H316.352V95.01ZM315.452 90.438H316.874V101.85H315.452V90.438ZM309.764 104.82H320.87V106.044H309.764V104.82ZM309.764 100.878H311.258V105.522H309.764V100.878ZM323.226 103.074H337.968V104.316H323.226V103.074ZM324.504 91.752H336.582V92.976H324.504V91.752ZM324.54 98.628H336.564V99.852H324.54V98.628ZM327.042 92.886H328.536V98.754H327.042V92.886ZM332.586 92.886H334.062V98.754H332.586V92.886ZM350.909 90.15H352.403V102.138H350.909V90.15ZM351.953 95.118H354.815V96.378H351.953V95.118ZM342.377 104.82H353.141V106.044H342.377V104.82ZM342.377 101.202H343.871V105.27H342.377V101.202ZM340.487 98.376H341.765C344.717 98.376 346.823 98.286 349.361 97.836L349.487 99.078C346.913 99.51 344.771 99.6 341.765 99.6H340.487V98.376ZM340.451 91.194H347.777V95.856H341.945V98.808H340.487V94.722H346.301V92.418H340.451V91.194ZM366.05 98.736H367.562V102.264H366.05V98.736ZM366.05 93.012H367.256V93.372C367.256 96.216 365.402 98.412 362.666 99.276L361.982 98.106C364.394 97.386 366.05 95.568 366.05 93.372V93.012ZM366.338 93.012H367.544V93.372C367.544 95.478 369.254 97.242 371.648 97.944L370.964 99.096C368.228 98.286 366.338 96.126 366.338 93.372V93.012ZM362.36 92.256H371.306V93.462H362.36V92.256ZM366.05 90.24H367.562V92.778H366.05V90.24ZM373.16 90.114H374.654V106.422H373.16V90.114ZM361.694 103.074L361.478 101.814C364.448 101.814 368.552 101.796 372.098 101.256L372.224 102.354C368.57 103.038 364.592 103.056 361.694 103.074ZM390.33 90.132H391.77V106.404H390.33V90.132ZM387.576 96.648H390.708V97.89H387.576V96.648ZM386.64 90.492H388.044V105.576H386.64V90.492ZM378.54 101.148H379.602C381.978 101.148 383.598 101.058 385.488 100.662L385.632 101.904C383.688 102.318 382.05 102.39 379.602 102.39H378.54V101.148ZM378.54 92.112H384.588V93.336H380.016V101.706H378.54V92.112ZM399.734 102.315V101.011L405.487 91.9091H406.433V93.929H405.794L401.447 100.807V100.909H409.194V102.315H399.734ZM405.896 105V101.919V101.312V91.9091H407.404V105H405.896ZM415.859 105.179C414.896 105.179 414.076 104.917 413.398 104.393C412.721 103.864 412.203 103.099 411.845 102.098C411.487 101.092 411.308 99.8778 411.308 98.4545C411.308 97.0398 411.487 95.8317 411.845 94.8303C412.207 93.8246 412.727 93.0575 413.405 92.5291C414.087 91.9964 414.905 91.7301 415.859 91.7301C416.814 91.7301 417.63 91.9964 418.308 92.5291C418.989 93.0575 419.509 93.8246 419.867 94.8303C420.229 95.8317 420.411 97.0398 420.411 98.4545C420.411 99.8778 420.232 101.092 419.874 102.098C419.516 103.099 418.998 103.864 418.32 104.393C417.643 104.917 416.822 105.179 415.859 105.179ZM415.859 103.773C416.814 103.773 417.555 103.312 418.084 102.392C418.612 101.472 418.876 100.159 418.876 98.4545C418.876 97.321 418.755 96.3558 418.512 95.5589C418.273 94.7621 417.928 94.1548 417.477 93.7372C417.029 93.3196 416.49 93.1108 415.859 93.1108C414.913 93.1108 414.174 93.5774 413.641 94.5107C413.109 95.4396 412.842 96.7543 412.842 98.4545C412.842 99.5881 412.962 100.551 413.2 101.344C413.439 102.136 413.782 102.739 414.229 103.153C414.681 103.566 415.224 103.773 415.859 103.773ZM429.513 102.545V101.855C429.513 101.378 429.611 100.941 429.807 100.545C430.007 100.144 430.297 99.8246 430.676 99.5859C431.06 99.343 431.524 99.2216 432.07 99.2216C432.624 99.2216 433.088 99.343 433.463 99.5859C433.838 99.8246 434.121 100.144 434.313 100.545C434.505 100.941 434.601 101.378 434.601 101.855V102.545C434.601 103.023 434.503 103.462 434.307 103.862C434.115 104.259 433.83 104.578 433.45 104.821C433.075 105.06 432.615 105.179 432.07 105.179C431.516 105.179 431.049 105.06 430.67 104.821C430.29 104.578 430.003 104.259 429.807 103.862C429.611 103.462 429.513 103.023 429.513 102.545ZM430.817 101.855V102.545C430.817 102.942 430.911 103.298 431.098 103.613C431.286 103.924 431.609 104.08 432.07 104.08C432.517 104.08 432.832 103.924 433.016 103.613C433.203 103.298 433.297 102.942 433.297 102.545V101.855C433.297 101.459 433.207 101.105 433.028 100.794C432.849 100.479 432.53 100.321 432.07 100.321C431.622 100.321 431.3 100.479 431.104 100.794C430.913 101.105 430.817 101.459 430.817 101.855ZM422.993 95.054V94.3636C422.993 93.8864 423.091 93.4496 423.287 93.0533C423.487 92.6527 423.777 92.3331 424.156 92.0945C424.54 91.8516 425.004 91.7301 425.55 91.7301C426.104 91.7301 426.568 91.8516 426.943 92.0945C427.318 92.3331 427.602 92.6527 427.793 93.0533C427.985 93.4496 428.081 93.8864 428.081 94.3636V95.054C428.081 95.5312 427.983 95.9702 427.787 96.3707C427.595 96.767 427.31 97.0866 426.93 97.3295C426.555 97.5682 426.095 97.6875 425.55 97.6875C424.996 97.6875 424.529 97.5682 424.15 97.3295C423.771 97.0866 423.483 96.767 423.287 96.3707C423.091 95.9702 422.993 95.5312 422.993 95.054ZM424.297 94.3636V95.054C424.297 95.4503 424.391 95.8061 424.578 96.1214C424.766 96.4325 425.089 96.5881 425.55 96.5881C425.997 96.5881 426.313 96.4325 426.496 96.1214C426.683 95.8061 426.777 95.4503 426.777 95.054V94.3636C426.777 93.9673 426.688 93.6136 426.509 93.3026C426.33 92.9872 426.01 92.8295 425.55 92.8295C425.102 92.8295 424.781 92.9872 424.585 93.3026C424.393 93.6136 424.297 93.9673 424.297 94.3636ZM423.479 105L432.479 91.9091H433.936L424.936 105H423.479ZM453.196 90.078H454.69V99.06H453.196V90.078ZM454.06 93.984H457.102V95.244H454.06V93.984ZM444.358 99.888H454.69V103.524H445.87V105.504H444.394V102.444H453.232V101.022H444.358V99.888ZM444.394 105.072H455.284V106.224H444.394V105.072ZM442.108 91.59H451.72V92.76H442.108V91.59ZM446.914 93.48C449.254 93.48 450.802 94.506 450.802 96.162C450.802 97.8 449.254 98.808 446.914 98.808C444.538 98.808 443.008 97.8 443.008 96.162C443.008 94.506 444.538 93.48 446.914 93.48ZM446.914 94.578C445.402 94.578 444.43 95.19 444.43 96.162C444.43 97.116 445.402 97.728 446.914 97.728C448.408 97.728 449.38 97.116 449.38 96.162C449.38 95.19 448.408 94.578 446.914 94.578ZM446.158 89.952H447.652V92.4H446.158V89.952ZM470.456 90.15H471.968V102.03H470.456V90.15ZM461.51 104.82H472.454V106.044H461.51V104.82ZM461.51 100.806H462.986V105.234H461.51V100.806ZM463.238 91.266C465.668 91.266 467.468 92.922 467.468 95.28C467.468 97.62 465.668 99.294 463.238 99.294C460.808 99.294 458.99 97.62 458.99 95.28C458.99 92.922 460.808 91.266 463.238 91.266ZM463.238 92.562C461.654 92.562 460.448 93.678 460.448 95.28C460.448 96.864 461.654 97.98 463.238 97.98C464.822 97.98 466.028 96.864 466.028 95.28C466.028 93.678 464.822 92.562 463.238 92.562ZM492.636 90.132H494.076V106.404H492.636V90.132ZM489.648 90.474H491.052V105.594H489.648V90.474ZM487.398 95.64H490.296V96.846H487.398V95.64ZM487.272 99.366H490.188V100.572H487.272V99.366ZM480.216 92.922H488.226V94.128H480.216V92.922ZM484.194 95.244C486.174 95.244 487.614 96.774 487.614 99.006C487.614 101.22 486.174 102.768 484.194 102.768C482.232 102.768 480.792 101.22 480.792 99.006C480.792 96.774 482.232 95.244 484.194 95.244ZM484.194 96.504C482.988 96.504 482.106 97.53 482.106 99.006C482.106 100.464 482.988 101.49 484.194 101.49C485.418 101.49 486.282 100.464 486.282 99.006C486.282 97.53 485.418 96.504 484.194 96.504ZM483.474 90.546H484.95V93.606H483.474V90.546ZM497.494 97.908H498.538C501.094 97.908 502.606 97.854 504.424 97.494L504.568 98.718C502.696 99.078 501.148 99.15 498.538 99.15H497.494V97.908ZM497.494 91.32H503.794V92.544H498.934V98.574H497.494V91.32ZM498.484 94.56H503.596V95.73H498.484V94.56ZM509.086 90.132H510.508V99.996H509.086V90.132ZM506.458 94.38H509.536V95.604H506.458V94.38ZM505.504 90.438H506.908V99.906H505.504V90.438ZM499.6 100.86H510.508V106.404H509.032V102.084H499.6V100.86Z" fill="white"/>
<path d="M170.562 92.792H163V106.681H177.12V98.656" stroke="white" stroke-width="1.8"/>
<path d="M165.315 96.8022L169.944 102.202L179.744 90.3193" stroke="white" stroke-width="1.8"/>
</g>
</g>
<defs>
<clipPath id="clip0_12165_18342">
<rect width="800" height="109" fill="white"/>
</clipPath>
</defs>
</svg>
