<svg width="345" height="47" viewBox="0 0 345 47" fill="none" xmlns="http://www.w3.org/2000/svg">
<g clip-path="url(#clip0_12165_18355)">
<mask id="mask0_12165_18355" style="mask-type:luminance" maskUnits="userSpaceOnUse" x="0" y="0" width="345" height="47">
<path d="M345 0H0V47H345V0Z" fill="white"/>
</mask>
<g mask="url(#mask0_12165_18355)">
<path d="M89.946 23.2802H94.841V30.1332H89.946V23.2802ZM93.411 24.4242H91.387V28.9782H93.411V24.4242ZM96.425 22.3562H97.899V32.5752H96.425V22.3562ZM100.692 22.7962H107.149V23.9622H100.692V22.7962ZM99.5701 26.3162H108.788V27.4822H99.5701V26.3162ZM103.431 27.1412H104.894V29.2752H103.431V27.1412ZM106.269 22.7962H107.71V23.6102C107.71 24.4902 107.71 25.5132 107.391 26.8552L105.95 26.7122C106.269 25.4032 106.269 24.4682 106.269 23.6102V22.7962ZM100.494 28.9122H107.721V32.5532H106.258V30.0672H100.494V28.9122ZM116.778 24.4462H119.55V25.6232H116.778V24.4462ZM116.778 27.6032H119.55V28.7802H116.778V27.6032ZM115.018 23.0712C116.536 23.0712 117.647 24.4792 117.647 26.7012C117.647 28.9452 116.536 30.3532 115.018 30.3532C113.489 30.3532 112.389 28.9452 112.389 26.7012C112.389 24.4792 113.489 23.0712 115.018 23.0712ZM115.018 24.4022C114.281 24.4022 113.775 25.2052 113.775 26.7012C113.775 28.2192 114.281 29.0332 115.018 29.0332C115.766 29.0332 116.261 28.2192 116.261 26.7012C116.261 25.2052 115.766 24.4022 115.018 24.4022ZM119.319 22.3562H120.771V32.5752H119.319V22.3562ZM129.636 22.3672H131.022V28.7472H129.636V22.3672ZM128.393 24.8752H130.021V26.0632H128.393V24.8752ZM127.524 22.5652H128.888V28.4172H127.524V22.5652ZM122.299 23.4122H127.238V24.5342H122.299V23.4122ZM124.785 24.8642C126.061 24.8642 126.985 25.5902 126.985 26.6462C126.985 27.7022 126.061 28.4172 124.785 28.4172C123.509 28.4172 122.585 27.7022 122.585 26.6462C122.585 25.5902 123.509 24.8642 124.785 24.8642ZM124.785 25.9092C124.246 25.9092 123.883 26.1732 123.883 26.6462C123.883 27.1192 124.246 27.3832 124.785 27.3832C125.313 27.3832 125.676 27.1192 125.676 26.6462C125.676 26.1732 125.313 25.9092 124.785 25.9092ZM124.048 22.4662H125.489V24.1822H124.048V22.4662ZM127.579 28.8572C129.757 28.8572 131.077 29.5172 131.077 30.7052C131.077 31.8822 129.757 32.5532 127.579 32.5532C125.39 32.5532 124.07 31.8822 124.07 30.7052C124.07 29.5172 125.39 28.8572 127.579 28.8572ZM127.579 29.9462C126.215 29.9462 125.533 30.1772 125.533 30.7052C125.533 31.2222 126.215 31.4642 127.579 31.4642C128.932 31.4642 129.614 31.2222 129.614 30.7052C129.614 30.1772 128.932 29.9462 127.579 29.9462ZM142.026 22.3672H143.5V27.5812H142.026V22.3672ZM136.603 27.9882H143.5V30.7382H138.066V31.9702H136.625V29.6932H142.048V29.1102H136.603V27.9882ZM136.625 31.3542H143.775V32.4872H136.625V31.3542ZM135.448 22.9832H140.937V24.1052H135.448V22.9832ZM135.327 27.4052L135.184 26.2502C136.966 26.2502 139.342 26.2172 141.311 25.9752L141.388 27.0202C139.375 27.3502 137.087 27.3942 135.327 27.4052ZM136.251 23.4892H137.648V26.8222H136.251V23.4892ZM138.715 23.4892H140.134V26.8222H138.715V23.4892ZM148.967 22.6642H150.254V23.1372C150.254 25.0952 148.714 26.7562 146.041 27.1522L145.469 25.9752C147.812 25.6672 148.967 24.3362 148.967 23.1372V22.6642ZM149.242 22.6642H150.518V23.1372C150.518 24.3252 151.684 25.6672 154.016 25.9752L153.455 27.1522C150.782 26.7562 149.242 25.0952 149.242 23.1372V22.6642ZM148.978 28.8242H150.43V32.5532H148.978V28.8242ZM145.139 27.9002H154.346V29.0882H145.139V27.9002ZM160.521 23.0712C162.072 23.0712 163.194 24.4792 163.194 26.7012C163.194 28.9452 162.072 30.3532 160.521 30.3532C158.97 30.3532 157.848 28.9452 157.848 26.7012C157.848 24.4792 158.97 23.0712 160.521 23.0712ZM160.521 24.4022C159.762 24.4022 159.256 25.2052 159.256 26.7012C159.256 28.2192 159.762 29.0332 160.521 29.0332C161.28 29.0332 161.797 28.2192 161.797 26.7012C161.797 25.2052 161.28 24.4022 160.521 24.4022ZM164.305 22.3672H165.779V32.5532H164.305V22.3672ZM165.449 26.2062H167.253V27.4162H165.449V26.2062ZM174.897 22.3562H176.371V32.5752H174.897V22.3562ZM170.882 23.0712C172.422 23.0712 173.555 24.4792 173.555 26.7012C173.555 28.9452 172.422 30.3532 170.882 30.3532C169.342 30.3532 168.209 28.9452 168.209 26.7012C168.209 24.4792 169.342 23.0712 170.882 23.0712ZM170.882 24.4022C170.123 24.4022 169.606 25.2052 169.606 26.7012C169.606 28.2192 170.123 29.0332 170.882 29.0332C171.641 29.0332 172.147 28.2192 172.147 26.7012C172.147 25.2052 171.641 24.4022 170.882 24.4022ZM182.332 24.8202H183.883V25.9862H182.332V24.8202ZM178.427 26.8992H179.12C180.572 26.8992 181.507 26.8772 182.618 26.6902L182.75 27.8232C181.595 28.0322 180.627 28.0542 179.12 28.0542H178.427V26.8992ZM178.427 22.9722H182.266V24.1272H179.835V27.5702H178.427V22.9722ZM179.417 24.9302H181.892V26.0412H179.417V24.9302ZM185.324 22.3672H186.71V28.4392H185.324V22.3672ZM183.333 22.5212H184.697V28.3622H183.333V22.5212ZM179.813 28.8462H186.71V32.4432H179.813V28.8462ZM185.28 29.9902H181.254V31.2882H185.28V29.9902ZM191.307 29.9833L191.244 30.6083C191.195 31.1083 191.1 31.6064 190.96 32.1026C190.824 32.6026 190.68 33.0553 190.528 33.4606C190.38 33.8659 190.261 34.1841 190.17 34.4151H188.602C188.659 34.1916 188.736 33.8791 188.835 33.4776C188.933 33.0799 189.026 32.6329 189.113 32.1367C189.2 31.6405 189.255 31.1348 189.278 30.6197L189.307 29.9833H191.307ZM196.841 21.4082H198.544V22.9812H200.975V21.4082H202.691V27.2452H196.841V21.4082ZM198.544 24.3072V25.8932H200.975V24.3072H198.544ZM198.024 28.4412H206.24V32.7312H204.498V29.8062H198.024V28.4412ZM204.498 20.6932H206.24V27.8822H204.498V20.6932ZM210.893 21.5382C212.492 21.5382 213.519 23.1892 213.519 25.9062C213.519 28.6362 212.492 30.2872 210.893 30.2872C209.307 30.2872 208.293 28.6362 208.293 25.9062C208.293 23.1892 209.307 21.5382 210.893 21.5382ZM210.893 23.1632C210.243 23.1632 209.866 24.0732 209.866 25.9062C209.866 27.7522 210.243 28.6492 210.893 28.6492C211.556 28.6492 211.933 27.7522 211.933 25.9062C211.933 24.0732 211.556 23.1632 210.893 23.1632ZM216.886 20.6932H218.537V32.7312H216.886V20.6932ZM215.443 25.2822H217.432V26.6732H215.443V25.2822ZM214.247 20.8752H215.872V32.1852H214.247V20.8752ZM221.097 21.0182H230.067V22.3052H221.097V21.0182ZM221.188 23.8392H229.976V25.1262H221.188V23.8392ZM222.631 21.5252H224.36V24.6712H222.631V21.5252ZM226.804 21.5252H228.533V24.6712H226.804V21.5252ZM220.148 25.7502H231.029V27.1022H220.148V25.7502ZM221.396 27.7652H229.716V30.7552H223.112V31.8732H221.409V29.5982H228.013V29.0002H221.396V27.7652ZM221.409 31.3922H230.028V32.6532H221.409V31.3922ZM240.804 20.6932H242.455V32.7312H240.804V20.6932ZM239.361 25.3082H241.35V26.7122H239.361V25.3082ZM238.269 20.9012H239.881V32.1592H238.269V20.9012ZM232.198 22.0452H237.697V23.4232H232.198V22.0452ZM232.172 30.0012L231.99 28.5972C233.485 28.5972 235.994 28.5582 237.788 28.3112L237.905 29.5592C236.059 29.9622 233.641 30.0012 232.172 30.0012ZM232.952 22.9292H234.499V28.9612H232.952V22.9292ZM235.396 22.9292H236.943V28.9612H235.396V22.9292ZM248.538 21.3822H250.046V22.2532C250.046 24.8662 248.187 27.1802 245.067 27.7912L244.326 26.3612C247.043 25.8932 248.538 23.9822 248.538 22.2532V21.3822ZM248.889 21.3822H250.384V22.2532C250.384 24.0212 251.866 25.8932 254.596 26.3612L253.855 27.7912C250.735 27.1802 248.889 24.9052 248.889 22.2532V21.3822ZM244.079 29.8582H254.973V31.2622H244.079V29.8582Z" fill="white"/>
<path d="M90.616 9.11822H91.113C92.282 9.11822 93.087 9.09022 94.039 8.92222L94.102 9.39822C93.122 9.56622 92.296 9.60122 91.113 9.60122H90.616V9.11822ZM90.616 5.36622H93.563V5.84922H91.197V9.28622H90.616V5.36622ZM91.05 7.13722H93.423V7.60622H91.05V7.13722ZM94.627 4.79222H95.215V11.1202H94.627V4.79222ZM95.075 7.33322H96.251V7.82322H95.075V7.33322ZM97.1465 5.40822H100.058V9.53122H97.1465V5.40822ZM99.4915 5.87722H97.7135V9.06222H99.4915V5.87722ZM101.381 4.78522H101.962V11.1272H101.381V4.78522ZM105.763 5.22622H106.267V5.70922C106.267 7.08822 104.986 8.15922 103.719 8.44622L103.46 7.96322C104.573 7.75322 105.763 6.78722 105.763 5.70922V5.22622ZM105.868 5.22622H106.372V5.70922C106.372 6.79422 107.569 7.75322 108.675 7.96322L108.416 8.44622C107.156 8.15922 105.868 7.09522 105.868 5.70922V5.22622ZM103.229 9.79022H108.962V10.2662H103.229V9.79022ZM111.861 5.41522H112.414V6.95522H113.744V5.41522H114.283V9.53122H111.861V5.41522ZM112.414 7.42422V9.05522H113.744V7.42422H112.414ZM116.453 4.79222H117.013V11.1202H116.453V4.79222ZM114.185 7.19322H115.403V7.67622H114.185V7.19322ZM115.2 4.92522H115.753V10.8052H115.2V4.92522ZM120.611 5.22622H121.115V5.70922C121.115 7.08822 119.834 8.15922 118.567 8.44622L118.308 7.96322C119.421 7.75322 120.611 6.78722 120.611 5.70922V5.22622ZM120.716 5.22622H121.22V5.70922C121.22 6.79422 122.417 7.75322 123.523 7.96322L123.264 8.44622C122.004 8.15922 120.716 7.09522 120.716 5.70922V5.22622ZM118.077 9.79022H123.81V10.2662H118.077V9.79022ZM125.251 8.20122H129.598V8.67022H125.251V8.20122ZM124.516 9.82522H130.249V10.3082H124.516V9.82522ZM125.251 5.33122H129.528V5.80722H125.839V8.34822H125.251V5.33122ZM125.65 6.74522H129.395V7.20722H125.65V6.74522ZM135.5 5.97522H136.718V6.45822H135.5V5.97522ZM134.233 5.05822H134.688V5.69522C134.688 6.67522 134.156 7.68322 133.239 8.11022L132.924 7.66922C133.75 7.29822 134.233 6.45122 134.233 5.69522V5.05822ZM134.345 5.05822H134.793V5.72322C134.793 6.44422 135.248 7.16522 136.025 7.48022L135.724 7.92822C134.821 7.55022 134.345 6.66122 134.345 5.72322V5.05822ZM137.698 4.79922H138.251V8.16622H137.698V4.79922ZM136.459 4.91122H137.012V8.11022H136.459V4.91122ZM134.079 8.45322H138.251V9.93022H134.667V10.8612H134.093V9.49622H137.691V8.91522H134.079V8.45322ZM134.093 10.5882H138.496V11.0502H134.093V10.5882ZM143.984 4.78522H144.565V11.1272H143.984V4.78522ZM142.78 7.22122H144.124V7.69722H142.78V7.22122ZM139.595 9.12522H140.078C141.198 9.12522 141.989 9.09022 142.92 8.92222L142.976 9.40522C142.024 9.57322 141.219 9.61522 140.078 9.61522H139.595V9.12522ZM139.581 5.38022H142.409V7.59922H140.169V9.27222H139.595V7.12322H141.835V5.85622H139.581V5.38022ZM152.075 5.48331V10.5742H151.479L148.705 6.57706H148.655V10.5742H148.038V5.48331H148.635L151.419 9.49041H151.469V5.48331H152.075ZM154.78 10.6538C154.436 10.6538 154.133 10.5717 153.873 10.4077C153.615 10.2436 153.412 10.0141 153.267 9.71911C153.122 9.42412 153.05 9.07943 153.05 8.68501C153.05 8.28729 153.122 7.9401 153.267 7.64347C153.412 7.34683 153.615 7.11648 153.873 6.95241C154.133 6.78835 154.436 6.70632 154.78 6.70632C155.125 6.70632 155.427 6.78835 155.685 6.95241C155.945 7.11648 156.148 7.34683 156.292 7.64347C156.438 7.9401 156.511 8.28729 156.511 8.68501C156.511 9.07943 156.438 9.42412 156.292 9.71911C156.148 10.0141 155.945 10.2436 155.685 10.4077C155.427 10.5717 155.125 10.6538 154.78 10.6538ZM154.78 10.1268C155.042 10.1268 155.258 10.0597 155.427 9.92543C155.596 9.79119 155.721 9.6147 155.802 9.39595C155.883 9.1772 155.924 8.94022 155.924 8.68501C155.924 8.42981 155.883 8.192 155.802 7.97159C155.721 7.75118 155.596 7.57303 155.427 7.43714C155.258 7.30125 155.042 7.23331 154.78 7.23331C154.519 7.23331 154.303 7.30125 154.134 7.43714C153.965 7.57303 153.84 7.75118 153.759 7.97159C153.678 8.192 153.637 8.42981 153.637 8.68501C153.637 8.94022 153.678 9.1772 153.759 9.39595C153.84 9.6147 153.965 9.79119 154.134 9.92543C154.303 10.0597 154.519 10.1268 154.78 10.1268ZM157.834 10.614C157.711 10.614 157.606 10.5701 157.518 10.4822C157.43 10.3944 157.386 10.2892 157.386 10.1665C157.386 10.0439 157.43 9.93868 157.518 9.85085C157.606 9.76302 157.711 9.71911 157.834 9.71911C157.956 9.71911 158.061 9.76302 158.149 9.85085C158.237 9.93868 158.281 10.0439 158.281 10.1665C158.281 10.2478 158.26 10.3223 158.219 10.3903C158.179 10.4582 158.125 10.5129 158.057 10.5543C157.991 10.5941 157.916 10.614 157.834 10.614ZM160.505 5.48331V10.5742H159.889V6.12962H159.859L158.616 6.9549V6.32848L159.889 5.48331H160.505Z" fill="white"/>
<path d="M99.3114 41.1135H103.328V41.5555H99.3114V41.1135ZM99.3114 39.43H99.8509V41.3215H99.3114V39.43ZM98.6419 42.394H103.952V42.8425H98.6419V42.394ZM100.007 42.563H100.546V45.007H100.007V42.563ZM102.041 42.563H102.574V45.007H102.041V42.563ZM105.928 41.1655H106.461V42.277H105.928V41.1655ZM108.086 41.1655H108.619V42.277H108.086V41.1655ZM107.273 39.2545C108.541 39.2545 109.34 39.6705 109.34 40.3725C109.34 41.081 108.541 41.497 107.273 41.497C105.999 41.497 105.206 41.081 105.206 40.3725C105.206 39.6705 105.999 39.2545 107.273 39.2545ZM107.273 39.6835C106.337 39.6835 105.759 39.937 105.759 40.3725C105.759 40.808 106.337 41.068 107.273 41.068C108.203 41.068 108.788 40.808 108.788 40.3725C108.788 39.937 108.203 39.6835 107.273 39.6835ZM104.615 42.121H109.925V42.563H104.615V42.121ZM105.206 43.109H109.269V45.007H108.729V43.551H105.206V43.109ZM114.106 42.238H114.652V43.512H114.106V42.238ZM114.106 40.171H114.542V40.301C114.542 41.328 113.872 42.121 112.884 42.433L112.637 42.0105C113.508 41.7505 114.106 41.094 114.106 40.301V40.171ZM114.21 40.171H114.646V40.301C114.646 41.0615 115.263 41.6985 116.128 41.952L115.881 42.368C114.893 42.0755 114.21 41.2955 114.21 40.301V40.171ZM112.774 39.898H116.004V40.3335H112.774V39.898ZM114.106 39.17H114.652V40.0865H114.106V39.17ZM116.674 39.1245H117.213V45.0135H116.674V39.1245ZM112.533 43.8045L112.455 43.3495C113.528 43.3495 115.01 43.343 116.29 43.148L116.336 43.5445C115.016 43.7915 113.58 43.798 112.533 43.8045ZM122.874 39.131H123.394V45.007H122.874V39.131ZM121.879 41.484H123.01V41.9325H121.879V41.484ZM121.541 39.261H122.048V44.708H121.541V39.261ZM118.616 43.109H119C119.858 43.109 120.443 43.0765 121.125 42.9335L121.177 43.382C120.475 43.5315 119.884 43.5575 119 43.5575H118.616V43.109ZM118.616 39.846H120.8V40.288H119.149V43.3105H118.616V39.846ZM127.95 44.5646C127.756 44.5616 127.562 44.5246 127.368 44.4538C127.174 44.383 126.998 44.2638 126.837 44.0961C126.677 43.9268 126.549 43.6983 126.452 43.4105C126.355 43.1212 126.307 42.758 126.307 42.321C126.307 41.9025 126.346 41.5316 126.424 41.2085C126.503 40.8838 126.617 40.6106 126.766 40.389C126.915 40.1659 127.095 39.9966 127.306 39.8812C127.518 39.7658 127.758 39.7081 128.024 39.7081C128.289 39.7081 128.524 39.7612 128.73 39.8674C128.938 39.972 129.107 40.1182 129.238 40.3059C129.369 40.4937 129.453 40.7099 129.492 40.9545H128.929C128.876 40.7422 128.775 40.566 128.624 40.426C128.473 40.2859 128.273 40.2159 128.024 40.2159C127.658 40.2159 127.369 40.3752 127.158 40.6937C126.949 41.0123 126.844 41.4593 126.842 42.0348H126.879C126.965 41.904 127.068 41.7924 127.186 41.7001C127.306 41.6062 127.438 41.5339 127.583 41.4831C127.728 41.4324 127.881 41.407 128.042 41.407C128.313 41.407 128.561 41.4747 128.786 41.6101C129.01 41.744 129.19 41.9294 129.326 42.1664C129.461 42.4018 129.529 42.6719 129.529 42.9766C129.529 43.2689 129.463 43.5367 129.333 43.7798C129.202 44.0214 129.018 44.2138 128.781 44.3569C128.546 44.4985 128.269 44.5677 127.95 44.5646ZM127.95 44.0568C128.144 44.0568 128.318 44.0083 128.472 43.9114C128.627 43.8145 128.749 43.6844 128.839 43.5213C128.93 43.3582 128.975 43.1766 128.975 42.9766C128.975 42.7811 128.931 42.6034 128.843 42.4434C128.757 42.2818 128.638 42.1533 128.486 42.0579C128.335 41.9625 128.162 41.9148 127.969 41.9148C127.822 41.9148 127.686 41.944 127.56 42.0025C127.434 42.0594 127.323 42.1379 127.228 42.2379C127.134 42.3379 127.06 42.4526 127.006 42.5819C126.952 42.7096 126.925 42.8442 126.925 42.9858C126.925 43.1735 126.969 43.349 127.057 43.5121C127.146 43.6752 127.268 43.8068 127.421 43.9068C127.577 44.0068 127.753 44.0568 127.95 44.0568ZM131.914 44.5646C131.643 44.5646 131.399 44.5108 131.182 44.4031C130.965 44.2953 130.791 44.1476 130.661 43.9599C130.53 43.7721 130.458 43.5582 130.446 43.3182H131C131.021 43.5321 131.118 43.709 131.291 43.8491C131.465 43.9876 131.672 44.0568 131.914 44.0568C132.108 44.0568 132.28 44.0114 132.431 43.9206C132.583 43.8298 132.703 43.7052 132.789 43.5467C132.876 43.3867 132.92 43.2058 132.92 43.0043C132.92 42.7981 132.875 42.6142 132.784 42.4526C132.695 42.2895 132.572 42.161 132.415 42.0671C132.258 41.9732 132.079 41.9255 131.877 41.924C131.732 41.9225 131.584 41.9448 131.431 41.9909C131.279 42.0356 131.154 42.0933 131.055 42.1641L130.52 42.0994L130.806 39.7727H133.262V40.2805H131.286L131.12 41.6747H131.148C131.244 41.5978 131.366 41.5339 131.512 41.4831C131.658 41.4324 131.811 41.407 131.969 41.407C132.259 41.407 132.516 41.4762 132.743 41.6147C132.97 41.7517 133.149 41.9394 133.278 42.1779C133.409 42.4164 133.474 42.6888 133.474 42.995C133.474 43.2966 133.407 43.5659 133.271 43.8029C133.137 44.0384 132.953 44.2246 132.717 44.3615C132.482 44.4969 132.214 44.5646 131.914 44.5646ZM136.801 43.6136V43.3643C136.801 43.192 136.836 43.0343 136.907 42.8912C136.98 42.7465 137.084 42.6311 137.221 42.5449C137.36 42.4572 137.527 42.4134 137.724 42.4134C137.924 42.4134 138.092 42.4572 138.227 42.5449C138.363 42.6311 138.465 42.7465 138.534 42.8912C138.604 43.0343 138.638 43.192 138.638 43.3643V43.6136C138.638 43.786 138.603 43.9445 138.532 44.0891C138.463 44.2322 138.36 44.3477 138.223 44.4354C138.087 44.5215 137.921 44.5646 137.724 44.5646C137.524 44.5646 137.356 44.5215 137.219 44.4354C137.082 44.3477 136.978 44.2322 136.907 44.0891C136.836 43.9445 136.801 43.786 136.801 43.6136ZM137.272 43.3643V43.6136C137.272 43.7567 137.306 43.8852 137.373 43.9991C137.441 44.1114 137.558 44.1676 137.724 44.1676C137.886 44.1676 138 44.1114 138.066 43.9991C138.134 43.8852 138.167 43.7567 138.167 43.6136V43.3643C138.167 43.2212 138.135 43.0935 138.071 42.9812C138.006 42.8673 137.89 42.8104 137.724 42.8104C137.563 42.8104 137.447 42.8673 137.376 42.9812C137.307 43.0935 137.272 43.2212 137.272 43.3643ZM134.447 40.9084V40.6591C134.447 40.4867 134.482 40.329 134.553 40.1859C134.625 40.0413 134.73 39.9258 134.867 39.8397C135.005 39.752 135.173 39.7081 135.37 39.7081C135.57 39.7081 135.738 39.752 135.873 39.8397C136.009 39.9258 136.111 40.0413 136.18 40.1859C136.249 40.329 136.284 40.4867 136.284 40.6591V40.9084C136.284 41.0807 136.249 41.2392 136.178 41.3839C136.109 41.527 136.005 41.6424 135.868 41.7301C135.733 41.8163 135.567 41.8594 135.37 41.8594C135.17 41.8594 135.001 41.8163 134.864 41.7301C134.727 41.6424 134.624 41.527 134.553 41.3839C134.482 41.2392 134.447 41.0807 134.447 40.9084ZM134.917 40.6591V40.9084C134.917 41.0515 134.951 41.18 135.019 41.2939C135.087 41.4062 135.204 41.4624 135.37 41.4624C135.531 41.4624 135.645 41.4062 135.712 41.2939C135.779 41.18 135.813 41.0515 135.813 40.9084V40.6591C135.813 40.516 135.781 40.3883 135.716 40.2759C135.652 40.1621 135.536 40.1051 135.37 40.1051C135.208 40.1051 135.092 40.1621 135.021 40.2759C134.952 40.3883 134.917 40.516 134.917 40.6591ZM134.622 44.5L137.872 39.7727H138.398L135.148 44.5H134.622ZM140.494 43.8537L140.457 44.103C140.431 44.2784 140.391 44.4661 140.337 44.6662C140.285 44.8662 140.23 45.0547 140.173 45.2317C140.116 45.4087 140.069 45.5495 140.033 45.6541H139.617C139.637 45.5556 139.663 45.4256 139.696 45.264C139.728 45.1025 139.76 44.9216 139.792 44.7216C139.826 44.5231 139.854 44.32 139.876 44.1122L139.903 43.8537H140.494ZM144.387 39.547H144.816V40.3855C144.816 41.3085 144.322 42.2835 143.47 42.6995L143.158 42.2835C143.932 41.913 144.387 41.094 144.387 40.3855V39.547ZM144.471 39.547H144.9V40.3855C144.9 41.0745 145.336 41.783 146.09 42.108L145.791 42.5175C144.939 42.147 144.471 41.2955 144.471 40.3855V39.547ZM147.591 39.1375H148.105V43.564H147.591V39.1375ZM146.655 40.8925H147.76V41.3345H146.655V40.8925ZM146.33 39.2415H146.844V43.3625H146.33V39.2415ZM144.276 44.435H148.287V44.877H144.276V44.435ZM144.276 43.0115H144.816V44.6885H144.276V43.0115ZM149.138 43.8045H154.461V44.253H149.138V43.8045ZM149.599 39.716H153.961V40.158H149.599V39.716ZM149.612 42.199H153.954V42.641H149.612V42.199ZM150.516 40.1255H151.055V42.2445H150.516V40.1255ZM152.518 40.1255H153.051V42.2445H152.518V40.1255ZM159.134 39.1375H159.673V43.4665H159.134V39.1375ZM159.511 40.9315H160.544V41.3865H159.511V40.9315ZM156.053 44.435H159.94V44.877H156.053V44.435ZM156.053 43.1285H156.592V44.5975H156.053V43.1285ZM155.37 42.108H155.832C156.898 42.108 157.658 42.0755 158.575 41.913L158.62 42.3615C157.691 42.5175 156.917 42.55 155.832 42.55H155.37V42.108ZM155.357 39.5145H158.003V41.198H155.897V42.264H155.37V40.7885H157.47V39.9565H155.357V39.5145ZM164.602 42.238H165.148V43.512H164.602V42.238ZM164.602 40.171H165.037V40.301C165.037 41.328 164.368 42.121 163.38 42.433L163.133 42.0105C164.004 41.7505 164.602 41.094 164.602 40.301V40.171ZM164.706 40.171H165.141V40.301C165.141 41.0615 165.759 41.6985 166.623 41.952L166.376 42.368C165.388 42.0755 164.706 41.2955 164.706 40.301V40.171ZM163.269 39.898H166.5V40.3335H163.269V39.898ZM164.602 39.17H165.148V40.0865H164.602V39.17ZM167.169 39.1245H167.709V45.0135H167.169V39.1245ZM163.029 43.8045L162.951 43.3495C164.023 43.3495 165.505 43.343 166.786 43.148L166.831 43.5445C165.512 43.7915 164.075 43.798 163.029 43.8045ZM173.37 39.131H173.89V45.007H173.37V39.131ZM172.375 41.484H173.506V41.9325H172.375V41.484ZM172.037 39.261H172.544V44.708H172.037V39.261ZM169.112 43.109H169.496C170.354 43.109 170.939 43.0765 171.621 42.9335L171.673 43.382C170.971 43.5315 170.38 43.5575 169.496 43.5575H169.112V43.109ZM169.112 39.846H171.296V40.288H169.645V43.3105H169.112V39.846ZM176.765 43.5305V43.0597L178.843 39.7727H179.184V40.5021H178.953L177.384 42.9858V43.0227H180.181V43.5305H176.765ZM178.99 44.5V43.3874V43.1681V39.7727H179.535V44.5H178.99ZM182.588 44.5646C182.241 44.5646 181.944 44.47 181.7 44.2807C181.455 44.0899 181.268 43.8137 181.139 43.4521C181.01 43.0889 180.945 42.6503 180.945 42.1364C180.945 41.6255 181.01 41.1892 181.139 40.8276C181.27 40.4644 181.457 40.1874 181.702 39.9966C181.948 39.8043 182.244 39.7081 182.588 39.7081C182.933 39.7081 183.228 39.8043 183.472 39.9966C183.719 40.1874 183.906 40.4644 184.036 40.8276C184.166 41.1892 184.232 41.6255 184.232 42.1364C184.232 42.6503 184.167 43.0889 184.038 43.4521C183.909 43.8137 183.722 44.0899 183.477 44.2807C183.232 44.47 182.936 44.5646 182.588 44.5646ZM182.588 44.0568C182.933 44.0568 183.201 43.8906 183.392 43.5582C183.582 43.2259 183.678 42.7519 183.678 42.1364C183.678 41.727 183.634 41.3785 183.546 41.0907C183.46 40.803 183.335 40.5837 183.172 40.4329C183.011 40.2821 182.816 40.2067 182.588 40.2067C182.247 40.2067 181.98 40.3752 181.787 40.7122C181.595 41.0476 181.499 41.5224 181.499 42.1364C181.499 42.5457 181.542 42.8935 181.628 43.1797C181.714 43.4659 181.838 43.6837 182 43.8329C182.163 43.9822 182.359 44.0568 182.588 44.0568ZM187.519 43.6136V43.3643C187.519 43.192 187.554 43.0343 187.625 42.8912C187.697 42.7465 187.802 42.6311 187.939 42.5449C188.077 42.4572 188.245 42.4134 188.442 42.4134C188.642 42.4134 188.81 42.4572 188.945 42.5449C189.081 42.6311 189.183 42.7465 189.252 42.8912C189.322 43.0343 189.356 43.192 189.356 43.3643V43.6136C189.356 43.786 189.321 43.9445 189.25 44.0891C189.181 44.2322 189.078 44.3477 188.941 44.4354C188.805 44.5215 188.639 44.5646 188.442 44.5646C188.242 44.5646 188.074 44.5215 187.937 44.4354C187.8 44.3477 187.696 44.2322 187.625 44.0891C187.554 43.9445 187.519 43.786 187.519 43.6136ZM187.99 43.3643V43.6136C187.99 43.7567 188.024 43.8852 188.091 43.9991C188.159 44.1114 188.276 44.1676 188.442 44.1676C188.604 44.1676 188.718 44.1114 188.784 43.9991C188.851 43.8852 188.885 43.7567 188.885 43.6136V43.3643C188.885 43.2212 188.853 43.0935 188.788 42.9812C188.724 42.8673 188.608 42.8104 188.442 42.8104C188.28 42.8104 188.164 42.8673 188.094 42.9812C188.024 43.0935 187.99 43.2212 187.99 43.3643ZM185.164 40.9084V40.6591C185.164 40.4867 185.2 40.329 185.271 40.1859C185.343 40.0413 185.448 39.9258 185.584 39.8397C185.723 39.752 185.891 39.7081 186.088 39.7081C186.288 39.7081 186.455 39.752 186.591 39.8397C186.726 39.9258 186.829 40.0413 186.898 40.1859C186.967 40.329 187.002 40.4867 187.002 40.6591V40.9084C187.002 41.0807 186.966 41.2392 186.896 41.3839C186.826 41.527 186.723 41.6424 186.586 41.7301C186.451 41.8163 186.285 41.8594 186.088 41.8594C185.888 41.8594 185.719 41.8163 185.582 41.7301C185.445 41.6424 185.341 41.527 185.271 41.3839C185.2 41.2392 185.164 41.0807 185.164 40.9084ZM185.635 40.6591V40.9084C185.635 41.0515 185.669 41.18 185.737 41.2939C185.805 41.4062 185.921 41.4624 186.088 41.4624C186.249 41.4624 186.363 41.4062 186.429 41.2939C186.497 41.18 186.531 41.0515 186.531 40.9084V40.6591C186.531 40.516 186.499 40.3883 186.434 40.2759C186.369 40.1621 186.254 40.1051 186.088 40.1051C185.926 40.1051 185.81 40.1621 185.739 40.2759C185.67 40.3883 185.635 40.516 185.635 40.6591ZM185.34 44.5L188.59 39.7727H189.116L185.866 44.5H185.34ZM196.071 39.1115H196.611V42.355H196.071V39.1115ZM196.383 40.522H197.482V40.977H196.383V40.522ZM192.88 42.654H196.611V43.967H193.426V44.682H192.893V43.577H196.084V43.0635H192.88V42.654ZM192.893 44.526H196.825V44.942H192.893V44.526ZM192.067 39.6575H195.538V40.08H192.067V39.6575ZM193.803 40.34C194.648 40.34 195.207 40.7105 195.207 41.3085C195.207 41.9 194.648 42.264 193.803 42.264C192.945 42.264 192.392 41.9 192.392 41.3085C192.392 40.7105 192.945 40.34 193.803 40.34ZM193.803 40.7365C193.257 40.7365 192.906 40.9575 192.906 41.3085C192.906 41.653 193.257 41.874 193.803 41.874C194.342 41.874 194.693 41.653 194.693 41.3085C194.693 40.9575 194.342 40.7365 193.803 40.7365ZM193.53 39.066H194.069V39.95H193.53V39.066ZM202.304 39.1375H202.85V43.4275H202.304V39.1375ZM199.073 44.435H203.025V44.877H199.073V44.435ZM199.073 42.9855H199.606V44.5845H199.073V42.9855ZM199.697 39.5405C200.575 39.5405 201.225 40.1385 201.225 40.99C201.225 41.835 200.575 42.4395 199.697 42.4395C198.82 42.4395 198.163 41.835 198.163 40.99C198.163 40.1385 198.82 39.5405 199.697 39.5405ZM199.697 40.0085C199.125 40.0085 198.69 40.4115 198.69 40.99C198.69 41.562 199.125 41.965 199.697 41.965C200.269 41.965 200.705 41.562 200.705 40.99C200.705 40.4115 200.269 40.0085 199.697 40.0085ZM210.313 39.131H210.833V45.007H210.313V39.131ZM209.234 39.2545H209.741V44.7145H209.234V39.2545ZM208.422 41.12H209.468V41.5555H208.422V41.12ZM208.376 42.4655H209.429V42.901H208.376V42.4655ZM205.828 40.1385H208.721V40.574H205.828V40.1385ZM207.265 40.977C207.98 40.977 208.5 41.5295 208.5 42.3355C208.5 43.135 207.98 43.694 207.265 43.694C206.556 43.694 206.036 43.135 206.036 42.3355C206.036 41.5295 206.556 40.977 207.265 40.977ZM207.265 41.432C206.829 41.432 206.511 41.8025 206.511 42.3355C206.511 42.862 206.829 43.2325 207.265 43.2325C207.707 43.2325 208.019 42.862 208.019 42.3355C208.019 41.8025 207.707 41.432 207.265 41.432ZM207.005 39.2805H207.538V40.3855H207.005V39.2805ZM212.068 41.939H212.445C213.368 41.939 213.914 41.9195 214.57 41.7895L214.622 42.2315C213.946 42.3615 213.387 42.3875 212.445 42.3875H212.068V41.939ZM212.068 39.56H214.343V40.002H212.588V42.1795H212.068V39.56ZM212.425 40.73H214.271V41.1525H212.425V40.73ZM216.254 39.131H216.767V42.693H216.254V39.131ZM215.305 40.665H216.416V41.107H215.305V40.665ZM214.96 39.2415H215.467V42.6605H214.96V39.2415ZM212.828 43.005H216.767V45.007H216.234V43.447H212.828V43.005Z" fill="white"/>
<path d="M93.585 39.9795H90.585V45.4895H96.1851V42.3064" stroke="white"/>
<path d="M91.5044 41.5693L93.3413 43.7114L97.228 38.9985" stroke="white"/>
</g>
</g>
<defs>
<clipPath id="clip0_12165_18355">
<rect width="345" height="47" fill="white"/>
</clipPath>
</defs>
</svg>
