<svg width="345" height="47" viewBox="0 0 345 47" fill="none" xmlns="http://www.w3.org/2000/svg">
<g clip-path="url(#clip0_12127_18329)">
<mask id="mask0_12127_18329" style="mask-type:luminance" maskUnits="userSpaceOnUse" x="0" y="0" width="345" height="47">
<path d="M345 0H0V47H345V0Z" fill="white"/>
</mask>
<g mask="url(#mask0_12127_18329)">
<path d="M96.799 18.958H98.196V29.144H96.799V18.958ZM92.927 22.676H95.292V23.853H92.927V22.676ZM94.698 19.134H96.062V28.693H94.698V19.134ZM89.737 25.679H90.441C91.882 25.679 92.839 25.646 93.961 25.426L94.071 26.614C92.938 26.845 91.926 26.889 90.441 26.889H89.737V25.679ZM89.737 20.102H93.62V21.268H91.178V26.185H89.737V20.102ZM106.544 18.947H108.018V29.166H106.544V18.947ZM102.529 19.662C104.069 19.662 105.202 21.07 105.202 23.292C105.202 25.536 104.069 26.944 102.529 26.944C100.989 26.944 99.8561 25.536 99.8561 23.292C99.8561 21.07 100.989 19.662 102.529 19.662ZM102.529 20.993C101.77 20.993 101.253 21.796 101.253 23.292C101.253 24.81 101.77 25.624 102.529 25.624C103.288 25.624 103.794 24.81 103.794 23.292C103.794 21.796 103.288 20.993 102.529 20.993ZM116.773 18.947H118.225V29.166H116.773V18.947ZM115.024 22.533H116.938V23.721H115.024V22.533ZM110.14 25.679H110.954C112.637 25.679 113.891 25.657 115.332 25.426L115.464 26.592C113.99 26.823 112.67 26.867 110.954 26.867H110.14V25.679ZM110.14 19.805H114.859V20.993H111.592V26.053H110.14V19.805ZM111.262 22.643H114.507V23.787H111.262V22.643ZM126.083 19.541H127.612C127.612 22.225 125.962 24.073 122.981 24.887L122.409 23.754C124.851 23.094 126.083 21.796 126.083 20.234V19.541ZM122.97 19.541H127.095V20.696H122.97V19.541ZM123.927 25.283H130.868V29.111H129.405V26.438H123.927V25.283ZM129.405 18.958H130.868V24.876H129.405V18.958ZM127.711 21.433H129.669V22.621H127.711V21.433ZM137.984 21.422H139.92V22.61H137.984V21.422ZM139.524 18.958H140.987V25.008H139.524V18.958ZM137.533 25.228C139.689 25.228 141.02 25.965 141.02 27.197C141.02 28.44 139.689 29.155 137.533 29.155C135.377 29.155 134.046 28.44 134.046 27.197C134.046 25.965 135.377 25.228 137.533 25.228ZM137.533 26.339C136.213 26.339 135.509 26.614 135.509 27.197C135.509 27.769 136.213 28.044 137.533 28.044C138.864 28.044 139.568 27.769 139.568 27.197C139.568 26.614 138.864 26.339 137.533 26.339ZM134.816 19.981H136.004V20.619C136.004 22.566 135.102 24.348 133.155 25.008L132.407 23.853C134.09 23.281 134.816 21.928 134.816 20.619V19.981ZM135.124 19.981H136.301V20.619C136.301 21.818 136.994 23.061 138.6 23.6L137.885 24.755C135.993 24.128 135.124 22.434 135.124 20.619V19.981ZM132.803 19.574H138.281V20.74H132.803V19.574ZM143.704 24.92H145.057V25.921H146.069V24.92H147.422V29.034H143.704V24.92ZM145.057 26.977V27.934H146.069V26.977H145.057ZM148.995 24.843H150.106V25.602C150.106 27.098 149.501 28.55 147.994 29.133L147.279 28.044C148.5 27.538 148.995 26.559 148.995 25.602V24.843ZM149.336 24.843H150.447V25.602C150.447 26.658 150.931 27.626 152.174 28.044L151.448 29.133C149.908 28.583 149.336 27.208 149.336 25.602V24.843ZM147.73 21.136H150.282V22.324H147.73V21.136ZM145.398 19.343C146.927 19.343 148.082 20.333 148.082 21.741C148.082 23.149 146.927 24.15 145.398 24.15C143.858 24.15 142.703 23.149 142.703 21.741C142.703 20.333 143.858 19.343 145.398 19.343ZM145.398 20.542C144.65 20.542 144.1 20.993 144.1 21.741C144.1 22.489 144.65 22.951 145.398 22.951C146.146 22.951 146.685 22.489 146.685 21.741C146.685 20.993 146.146 20.542 145.398 20.542ZM149.644 18.958H151.107V24.348H149.644V18.958ZM153.845 21.708H160.907V22.863H153.845V21.708ZM152.701 23.919H161.93V25.085H152.701V23.919ZM153.845 19.321H155.297V22.28H153.845V19.321ZM153.746 27.758H160.962V28.924H153.746V27.758ZM153.746 25.899H155.209V28.066H153.746V25.899ZM164.853 27.0713L164.81 27.501C164.776 27.8447 164.711 28.1872 164.614 28.5283C164.521 28.8721 164.422 29.1833 164.317 29.4619C164.216 29.7406 164.134 29.9593 164.071 30.1182H162.993C163.032 29.9645 163.086 29.7497 163.153 29.4736C163.221 29.2002 163.285 28.8929 163.345 28.5518C163.405 28.2106 163.442 27.863 163.458 27.5088L163.478 27.0713H164.853ZM168.868 25.201H169.882C171.91 25.201 173.457 25.175 175.251 24.889L175.407 26.267C173.587 26.553 171.949 26.605 169.882 26.605H168.868V25.201ZM168.868 18.285H174.523V19.689H170.61V25.656H168.868V18.285ZM170.194 21.626H174.354V22.978H170.194V21.626ZM176.096 17.284H177.838V29.322H176.096V17.284ZM177.448 21.847H179.58V23.277H177.448V21.847ZM180.957 18.363H186.742V26.462H180.957V18.363ZM185.052 19.715H182.66V25.097H185.052V19.715ZM188.614 17.271H190.356V29.348H188.614V17.271ZM196.79 17.973H198.298V18.844C198.298 21.457 196.439 23.771 193.319 24.382L192.578 22.952C195.295 22.484 196.79 20.573 196.79 18.844V17.973ZM197.141 17.973H198.636V18.844C198.636 20.612 200.118 22.484 202.848 22.952L202.107 24.382C198.987 23.771 197.141 21.496 197.141 18.844V17.973ZM192.331 26.449H203.225V27.853H192.331V26.449ZM207.884 18.363H213.669V26.462H207.884V18.363ZM211.979 19.715H209.587V25.097H211.979V19.715ZM215.541 17.271H217.283V29.348H215.541V17.271ZM220.584 17.791H228.215V19.169H220.584V17.791ZM219.258 21.951H230.152V23.329H219.258V21.951ZM223.821 22.926H225.55V25.448H223.821V22.926ZM227.175 17.791H228.878V18.753C228.878 19.793 228.878 21.002 228.501 22.588L226.798 22.419C227.175 20.872 227.175 19.767 227.175 18.753V17.791ZM220.35 25.019H228.891V29.322H227.162V26.384H220.35V25.019ZM233.661 24.889H235.429V29.322H233.661V24.889ZM237.821 24.889H239.589V29.322H237.821V24.889ZM231.204 23.979H242.111V25.37H231.204V23.979ZM236.625 17.687C239.199 17.687 240.98 18.74 240.98 20.391C240.98 22.016 239.199 23.069 236.625 23.069C234.064 23.069 232.283 22.016 232.283 20.391C232.283 18.74 234.064 17.687 236.625 17.687ZM236.625 19.065C235.052 19.065 234.051 19.533 234.051 20.391C234.051 21.236 235.052 21.704 236.625 21.704C238.211 21.704 239.199 21.236 239.199 20.391C239.199 19.533 238.211 19.065 236.625 19.065ZM251.431 17.297H253.173V24.083H251.431V17.297ZM245.165 24.642H253.173V29.192H245.165V24.642ZM251.47 25.994H246.855V27.827H251.47V25.994ZM245.984 17.726H247.414V18.883C247.414 21.119 246.296 23.147 243.943 23.888L243.111 22.523C245.126 21.899 245.984 20.365 245.984 18.883V17.726ZM246.335 17.726H247.752V18.883C247.752 20.339 248.597 21.743 250.547 22.328L249.715 23.667C247.414 22.978 246.335 21.093 246.335 18.883V17.726Z" fill="white"/>
<path d="M93.703 5.12604H95.299V5.60204H93.703V5.12604ZM94.97 3.39004H95.551V8.02404H94.97V3.39004ZM91.512 9.09504H95.726V9.57104H91.512V9.09504ZM91.512 7.61804H92.093V9.34004H91.512V7.61804ZM91.96 4.17404H92.436V4.68504C92.436 5.83304 91.722 6.82704 90.665 7.21904L90.364 6.75704C91.309 6.42104 91.96 5.58104 91.96 4.68504V4.17404ZM92.072 4.17404H92.541V4.67804C92.541 5.49704 93.157 6.29504 94.074 6.61704L93.78 7.07204C92.751 6.70104 92.072 5.74904 92.072 4.67804V4.17404ZM90.546 3.90104H93.927V4.37004H90.546V3.90104ZM97.5175 3.67704H101.591V4.15304H97.5175V3.67704ZM96.7895 5.94504H102.522V6.42104H96.7895V5.94504ZM99.3585 6.26704H99.9325V7.75804H99.3585V6.26704ZM101.213 3.67704H101.78V4.14604C101.78 4.67104 101.78 5.30804 101.57 6.17604L101.003 6.10604C101.213 5.25904 101.213 4.65704 101.213 4.14604V3.67704ZM97.3845 7.56904H101.822V9.71104H101.241V8.04504H97.3845V7.56904ZM105.422 3.97804H105.975V5.52504H107.298V3.97804H107.837V8.12904H105.422V3.97804ZM105.975 5.99404V7.65304H107.298V5.99404H105.975ZM110.014 3.38304H110.574V9.71104H110.014V3.38304ZM108.999 5.88904H110.217V6.36504H108.999V5.88904ZM108.614 3.51604H109.167V9.39604H108.614V3.51604ZM114.199 5.59504H114.773V6.77804H114.199V5.59504ZM114.192 3.48104H114.696V3.76104C114.696 4.90204 113.485 5.71404 112.197 5.92404L111.973 5.46204C113.107 5.30804 114.192 4.60804 114.192 3.76104V3.48104ZM114.283 3.48104H114.78V3.76104C114.78 4.60804 115.872 5.30804 116.999 5.46204L116.782 5.92404C115.501 5.70704 114.283 4.90204 114.283 3.76104V3.48104ZM111.63 6.52604H117.349V6.98804H111.63V6.52604ZM114.486 7.51304C115.844 7.51304 116.656 7.90504 116.656 8.60504C116.656 9.31204 115.844 9.69704 114.486 9.69704C113.128 9.69704 112.316 9.31204 112.316 8.60504C112.316 7.90504 113.128 7.51304 114.486 7.51304ZM114.486 7.96104C113.492 7.96104 112.904 8.19204 112.904 8.60504C112.904 9.01804 113.492 9.24904 114.486 9.24904C115.487 9.24904 116.068 9.01804 116.068 8.60504C116.068 8.19204 115.487 7.96104 114.486 7.96104ZM124.322 3.37604H124.91V9.71104H124.322V3.37604ZM124.749 5.94504H125.918V6.42804H124.749V5.94504ZM122.705 4.06204H123.272C123.272 5.86104 122.446 7.48504 120.402 8.51404L120.08 8.06604C121.83 7.17704 122.705 5.82604 122.705 4.15304V4.06204ZM120.374 4.06204H123.006V4.53804H120.374V4.06204ZM127.262 5.14004H131.553V5.61604H127.262V5.14004ZM127.262 3.50904H127.836V5.35004H127.262V3.50904ZM126.485 6.35104H132.204V6.82004H126.485V6.35104ZM129.334 7.38704C130.685 7.38704 131.504 7.80004 131.504 8.54204C131.504 9.27004 130.685 9.69004 129.334 9.69004C127.983 9.69004 127.164 9.27004 127.164 8.54204C127.164 7.80004 127.983 7.38704 129.334 7.38704ZM129.334 7.84204C128.347 7.84204 127.752 8.09404 127.752 8.54204C127.752 8.97604 128.347 9.22804 129.334 9.22804C130.328 9.22804 130.916 8.97604 130.916 8.54204C130.916 8.09404 130.328 7.84204 129.334 7.84204ZM137.25 3.39004H137.831V8.13604H137.25V3.39004ZM137.649 5.46204H138.769V5.95204H137.649V5.46204ZM132.938 4.15304H136.676V4.62204H132.938V4.15304ZM134.807 4.97204C135.703 4.97204 136.319 5.44104 136.319 6.15504C136.319 6.86204 135.703 7.33104 134.807 7.33104C133.904 7.33104 133.288 6.86204 133.288 6.15504C133.288 5.44104 133.904 4.97204 134.807 4.97204ZM134.807 5.42704C134.233 5.42704 133.841 5.71404 133.841 6.15504C133.841 6.58904 134.233 6.87604 134.807 6.87604C135.374 6.87604 135.766 6.58904 135.766 6.15504C135.766 5.71404 135.374 5.42704 134.807 5.42704ZM134.513 3.38304H135.094V4.39804H134.513V3.38304ZM133.89 9.09504H138.118V9.57104H133.89V9.09504ZM133.89 7.75804H134.471V9.29804H133.89V7.75804ZM142.795 7.29604H143.39V9.71104H142.795V7.29604ZM144.972 7.29604H145.567V9.71104H144.972V7.29604ZM141.325 6.98104H147.065V7.46404H141.325V6.98104ZM144.181 3.63504C145.504 3.63504 146.393 4.16704 146.393 5.01404C146.393 5.85404 145.504 6.39304 144.181 6.39304C142.865 6.39304 141.969 5.85404 141.969 5.01404C141.969 4.16704 142.865 3.63504 144.181 3.63504ZM144.181 4.10404C143.215 4.10404 142.557 4.46104 142.557 5.01404C142.557 5.56704 143.215 5.92404 144.181 5.92404C145.147 5.92404 145.798 5.56704 145.798 5.01404C145.798 4.46104 145.147 4.10404 144.181 4.10404ZM152.371 3.39004H152.959V6.98104H152.371V3.39004ZM148.871 7.34504H152.959V9.62704H148.871V7.34504ZM152.385 7.80704H149.438V9.15804H152.385V7.80704ZM149.417 3.62804H149.9V4.24404C149.9 5.42004 149.172 6.42804 148.101 6.82704L147.814 6.36504C148.766 6.02204 149.417 5.16804 149.417 4.24404V3.62804ZM149.522 3.62804H149.998V4.24404C149.998 5.14004 150.656 5.93104 151.594 6.24604L151.307 6.70104C150.25 6.33704 149.522 5.39204 149.522 4.24404V3.62804ZM154.204 7.12804H159.944V7.60404H154.204V7.12804ZM156.766 7.35204H157.34V9.71104H156.766V7.35204ZM154.925 3.63504H155.506V4.50304H158.635V3.63504H159.209V6.37204H154.925V3.63504ZM155.506 4.97204V5.90304H158.635V4.97204H155.506ZM165.285 3.37604H165.859V9.71804H165.285V3.37604ZM163.969 5.76304H165.369V6.24604H163.969V5.76304ZM160.938 7.71604H161.421C162.611 7.71604 163.36 7.69504 164.249 7.52704L164.305 8.00304C163.395 8.16404 162.625 8.19904 161.421 8.19904H160.938V7.71604ZM160.938 3.95704H163.864V4.44004H161.512V7.88404H160.938V3.95704ZM161.365 5.73504H163.591V6.20404H161.365V5.73504ZM173.679 3.38304H174.26V8.09404H173.679V3.38304ZM169.241 3.89404H172.573V4.37004H169.241V3.89404ZM169.136 7.14204L169.073 6.64504C170.109 6.64504 171.586 6.63104 172.769 6.49104L172.804 6.92504C171.586 7.12104 170.165 7.14204 169.136 7.14204ZM169.871 4.30004H170.431V6.72904H169.871V4.30004ZM171.383 4.30004H171.943V6.72904H171.383V4.30004ZM172.629 4.58004H173.987V5.05604H172.629V4.58004ZM172.629 5.79104H173.987V6.26704H172.629V5.79104ZM170.214 9.09504H174.428V9.57104H170.214V9.09504ZM170.214 7.70904H170.795V9.39604H170.214V7.70904ZM180.104 3.37604H180.685V9.71804H180.104V3.37604ZM175.862 7.70904H176.387C177.444 7.70904 178.389 7.66704 179.509 7.48504L179.572 7.96104C178.424 8.15004 177.472 8.19204 176.387 8.19204H175.862V7.70904ZM175.848 3.97104H178.774V6.23204H176.443V7.89104H175.862V5.75604H178.186V4.44704H175.848V3.97104ZM186.264 3.39004H186.845V8.13604H186.264V3.39004ZM186.663 5.46204H187.783V5.95204H186.663V5.46204ZM181.952 4.15304H185.69V4.62204H181.952V4.15304ZM183.821 4.97204C184.717 4.97204 185.333 5.44104 185.333 6.15504C185.333 6.86204 184.717 7.33104 183.821 7.33104C182.918 7.33104 182.302 6.86204 182.302 6.15504C182.302 5.44104 182.918 4.97204 183.821 4.97204ZM183.821 5.42704C183.247 5.42704 182.855 5.71404 182.855 6.15504C182.855 6.58904 183.247 6.87604 183.821 6.87604C184.388 6.87604 184.78 6.58904 184.78 6.15504C184.78 5.71404 184.388 5.42704 183.821 5.42704ZM183.527 3.38304H184.108V4.39804H183.527V3.38304ZM182.904 9.09504H187.132V9.57104H182.904V9.09504ZM182.904 7.75804H183.485V9.29804H182.904V7.75804ZM192.134 9.24458C191.766 9.24458 191.449 9.16338 191.182 9.00098C190.917 8.83691 190.712 8.60822 190.568 8.3149C190.425 8.01992 190.354 7.67688 190.354 7.28578C190.354 6.89468 190.425 6.54998 190.568 6.25169C190.712 5.95173 190.913 5.71807 191.169 5.55069C191.428 5.38166 191.73 5.29714 192.074 5.29714C192.273 5.29714 192.469 5.33029 192.663 5.39657C192.857 5.46286 193.034 5.57058 193.193 5.71973C193.352 5.86722 193.479 6.06277 193.573 6.30637C193.668 6.54998 193.715 6.84993 193.715 7.20623V7.45481H190.772V6.94771H193.118C193.118 6.73227 193.075 6.54004 192.989 6.371C192.904 6.20197 192.783 6.06857 192.626 5.97079C192.47 5.87302 192.286 5.82413 192.074 5.82413C191.841 5.82413 191.638 5.88213 191.468 5.99814C191.299 6.11248 191.169 6.26163 191.077 6.44558C190.986 6.62953 190.941 6.82673 190.941 7.0372V7.37527C190.941 7.66362 190.99 7.90806 191.09 8.10858C191.191 8.30744 191.331 8.45907 191.51 8.56348C191.689 8.66622 191.897 8.7176 192.134 8.7176C192.288 8.7176 192.427 8.69605 192.551 8.65297C192.677 8.60822 192.786 8.54193 192.877 8.4541C192.968 8.36461 193.039 8.25358 193.088 8.121L193.655 8.2801C193.596 8.47233 193.495 8.64136 193.354 8.7872C193.214 8.93137 193.04 9.04406 192.832 9.12527C192.625 9.20481 192.392 9.24458 192.134 9.24458ZM197.471 5.34686C197.441 5.09496 197.32 4.89941 197.108 4.76021C196.896 4.621 196.636 4.5514 196.327 4.5514C196.102 4.5514 195.905 4.58786 195.736 4.66078C195.568 4.73369 195.438 4.83395 195.343 4.96156C195.25 5.08916 195.204 5.23417 195.204 5.39657C195.204 5.53246 195.236 5.6493 195.301 5.74707C195.367 5.84319 195.452 5.92356 195.554 5.98819C195.657 6.05117 195.765 6.10337 195.877 6.1448C195.99 6.18457 196.094 6.21689 196.188 6.24174L196.705 6.38095C196.838 6.41575 196.985 6.46381 197.148 6.52512C197.312 6.58644 197.468 6.67013 197.618 6.77619C197.768 6.88059 197.893 7.01483 197.99 7.17889C198.088 7.34295 198.137 7.5443 198.137 7.78294C198.137 8.05803 198.065 8.30661 197.921 8.52868C197.778 8.75074 197.569 8.92723 197.294 9.05815C197.021 9.18907 196.689 9.25453 196.298 9.25453C195.933 9.25453 195.617 9.1957 195.35 9.07804C195.085 8.96038 194.877 8.79631 194.724 8.58585C194.573 8.37538 194.488 8.13095 194.468 7.85254H195.104C195.121 8.04477 195.186 8.20386 195.298 8.32981C195.413 8.4541 195.557 8.5469 195.731 8.60822C195.906 8.66788 196.095 8.69771 196.298 8.69771C196.533 8.69771 196.744 8.65959 196.931 8.58336C197.119 8.50547 197.267 8.39776 197.376 8.26021C197.486 8.121 197.54 7.9586 197.54 7.77299C197.54 7.60396 197.493 7.46641 197.399 7.36035C197.304 7.25429 197.18 7.16812 197.026 7.10183C196.872 7.03554 196.705 6.97754 196.526 6.92782L195.9 6.74885C195.502 6.6345 195.187 6.47127 194.955 6.25914C194.723 6.04702 194.607 5.76944 194.607 5.4264C194.607 5.14136 194.684 4.89279 194.838 4.68066C194.994 4.46689 195.203 4.30117 195.465 4.1835C195.728 4.06419 196.022 4.00453 196.347 4.00453C196.675 4.00453 196.967 4.06336 197.222 4.18102C197.478 4.29702 197.68 4.45611 197.829 4.65829C197.98 4.86047 198.059 5.08999 198.067 5.34686H197.471ZM199.767 4.07413V9.16504H199.151V4.07413H199.767ZM201.003 4.07413H201.739L203.469 8.29998H203.529L205.259 4.07413H205.995V9.16504H205.418V5.29714H205.368L203.777 9.16504H203.221L201.63 5.29714H201.58V9.16504H201.003V4.07413ZM211.353 3.38304H211.927V9.71104H211.353V3.38304ZM211.745 5.98704H212.872V6.47704H211.745V5.98704ZM208.322 4.06204H208.854C208.854 5.58804 208.532 7.06504 207.398 8.29004L206.929 7.96104C207.972 6.87604 208.322 5.56004 208.322 4.12504V4.06204ZM207.132 4.06204H208.539V4.54504H207.132V4.06204ZM210.044 4.06204H210.583C210.583 5.59504 210.366 7.33104 209.204 8.71004L208.735 8.38804C209.806 7.14904 210.044 5.58104 210.044 4.11804V4.06204ZM209.057 4.06204H210.282V4.54504H209.057V4.06204ZM215.077 4.28604H215.546V5.31504C215.546 6.65204 214.741 7.99604 213.733 8.49304L213.397 8.03104C214.314 7.59704 215.077 6.40704 215.077 5.31504V4.28604ZM215.189 4.28604H215.658V5.31504C215.658 6.38604 216.421 7.47804 217.352 7.87704L217.023 8.33904C216.001 7.86304 215.189 6.63104 215.189 5.31504V4.28604ZM213.607 4.02704H217.142V4.51704H213.607V4.02704ZM217.996 3.38304H218.577V9.71104H217.996V3.38304Z" fill="white"/>
<path d="M102.659 37.7153H103.199V42.0443H102.659V37.7153ZM103.03 39.5028H104.07V39.9513H103.03V39.5028ZM99.539 43.0258H103.465V43.4678H99.539V43.0258ZM99.539 41.6023H100.079V43.2013H99.539V41.6023ZM100.28 38.1313C101.158 38.1313 101.814 38.7358 101.814 39.5808C101.814 40.4323 101.158 41.0303 100.28 41.0303C99.4025 41.0303 98.746 40.4323 98.746 39.5808C98.746 38.7358 99.4025 38.1313 100.28 38.1313ZM100.28 38.6058C99.708 38.6058 99.2725 39.0088 99.2725 39.5808C99.2725 40.1593 99.708 40.5558 100.28 40.5558C100.852 40.5558 101.288 40.1593 101.288 39.5808C101.288 39.0088 100.852 38.6058 100.28 38.6058ZM107.755 39.2428H109.081V39.6913H107.755V39.2428ZM108.912 37.7218H109.451V41.2253H108.912V37.7218ZM107.521 41.4008C108.73 41.4008 109.477 41.8103 109.477 42.4993C109.477 43.1948 108.73 43.5913 107.521 43.5913C106.305 43.5913 105.558 43.1948 105.558 42.4993C105.558 41.8103 106.305 41.4008 107.521 41.4008ZM107.521 41.8233C106.637 41.8233 106.097 42.0703 106.097 42.4993C106.097 42.9218 106.637 43.1688 107.521 43.1688C108.405 43.1688 108.944 42.9218 108.944 42.4993C108.944 42.0703 108.405 41.8233 107.521 41.8233ZM106.117 38.3133H106.559V38.7878C106.559 39.8733 105.896 40.8028 104.921 41.1668L104.641 40.7378C105.512 40.4193 106.117 39.6328 106.117 38.7878V38.3133ZM106.221 38.3133H106.656V38.7878C106.656 39.5483 107.228 40.2763 108.08 40.5753L107.807 41.0043C106.851 40.6598 106.221 39.7758 106.221 38.7878V38.3133ZM104.804 38.1508H107.943V38.5928H104.804V38.1508ZM112.096 38.3198H112.538V38.7943C112.538 39.8668 111.875 40.7833 110.894 41.1473L110.614 40.7183C111.492 40.4063 112.096 39.6263 112.096 38.7943V38.3198ZM112.2 38.3198H112.636V38.7943C112.636 39.5483 113.208 40.2828 114.059 40.5818L113.786 41.0108C112.831 40.6598 112.2 39.7758 112.2 38.7943V38.3198ZM113.741 39.2493H115.047V39.6978H113.741V39.2493ZM110.783 38.1248H113.923V38.5603H110.783V38.1248ZM111.511 41.5568H115.431V43.5978H114.891V41.9988H111.511V41.5568ZM114.891 37.7218H115.431V41.2383H114.891V37.7218ZM120.851 37.7283H121.397V42.0183H120.851V37.7283ZM117.62 43.0258H121.572V43.4678H117.62V43.0258ZM117.62 41.5763H118.153V43.1753H117.62V41.5763ZM118.244 38.1313C119.122 38.1313 119.772 38.7293 119.772 39.5808C119.772 40.4258 119.122 41.0303 118.244 41.0303C117.367 41.0303 116.71 40.4258 116.71 39.5808C116.71 38.7293 117.367 38.1313 118.244 38.1313ZM118.244 38.5993C117.672 38.5993 117.237 39.0023 117.237 39.5808C117.237 40.1528 117.672 40.5558 118.244 40.5558C118.816 40.5558 119.252 40.1528 119.252 39.5808C119.252 39.0023 118.816 38.5993 118.244 38.5993ZM124.382 40.8353H129.692V41.2708H124.382V40.8353ZM126.767 40.0748H127.3V41.0173H126.767V40.0748ZM125.084 39.8343H129.068V40.2568H125.084V39.8343ZM125.084 37.8908H129.042V38.3133H125.617V40.0618H125.084V37.8908ZM125.461 38.8528H128.886V39.2688H125.461V38.8528ZM127.034 41.7063C128.314 41.7063 129.049 42.0313 129.049 42.6488C129.049 43.2598 128.314 43.5848 127.034 43.5848C125.753 43.5848 125.019 43.2598 125.019 42.6488C125.019 42.0313 125.753 41.7063 127.034 41.7063ZM127.034 42.1158C126.091 42.1158 125.565 42.3043 125.565 42.6488C125.565 42.9998 126.091 43.1818 127.034 43.1818C127.976 43.1818 128.503 42.9998 128.503 42.6488C128.503 42.3043 127.976 42.1158 127.034 42.1158ZM134.638 37.7283H135.184V42.0313H134.638V37.7283ZM131.408 43.0258H135.36V43.4678H131.408V43.0258ZM131.408 41.6348H131.941V43.2338H131.408V41.6348ZM131.895 38.0468H132.344V38.6448C132.344 39.7888 131.694 40.7898 130.706 41.1928L130.426 40.7573C131.31 40.4128 131.895 39.5548 131.895 38.6448V38.0468ZM131.993 38.0468H132.435V38.6448C132.435 39.5288 133.026 40.3283 133.904 40.6468L133.618 41.0823C132.643 40.7053 131.993 39.7628 131.993 38.6448V38.0468ZM136.588 38.1638H139.285V40.6923H136.588V38.1638ZM138.759 38.5993H137.114V40.2633H138.759V38.5993ZM140.364 37.7218H140.904V41.1928H140.364V37.7218ZM140.754 39.1778H141.775V39.6328H140.754V39.1778ZM139.032 41.3943C140.228 41.3943 140.962 41.8038 140.962 42.4928C140.962 43.1883 140.228 43.5913 139.032 43.5913C137.836 43.5913 137.101 43.1883 137.101 42.4928C137.101 41.8038 137.836 41.3943 139.032 41.3943ZM139.032 41.8298C138.161 41.8298 137.628 42.0703 137.628 42.4928C137.628 42.9153 138.161 43.1623 139.032 43.1623C139.903 43.1623 140.436 42.9153 140.436 42.4928C140.436 42.0703 139.903 41.8298 139.032 41.8298ZM142.587 38.3653H145.245V38.8008H142.587V38.3653ZM143.503 40.0423H144.036V42.0313H143.503V40.0423ZM145.024 38.3653H145.551V38.6773C145.551 39.1583 145.551 39.9253 145.382 41.0173L144.849 40.9653C145.024 39.9058 145.024 39.1518 145.024 38.6773V38.3653ZM146.292 37.7218H146.825V43.5978H146.292V37.7218ZM146.682 40.1788H147.767V40.6338H146.682V40.1788ZM142.327 42.3173L142.262 41.8623C143.328 41.8623 144.745 41.8428 145.934 41.6933L145.96 42.0898C144.745 42.2848 143.367 42.3108 142.327 42.3173ZM154.203 37.7153H154.743V43.6043H154.203V37.7153ZM154.502 40.0293H155.588V40.4778H154.502V40.0293ZM150.303 41.6088H150.563C150.895 41.6088 151.337 41.6023 151.844 41.4853L151.896 41.9338C151.356 42.0573 150.921 42.0638 150.563 42.0638H150.303V41.6088ZM150.303 38.3393H151.785V38.7748H150.836V41.8298H150.303V38.3393ZM152.117 41.6088H152.403C152.975 41.6088 153.384 41.5958 153.859 41.4723L153.911 41.9208C153.41 42.0443 153.007 42.0638 152.403 42.0638H152.117V41.6088ZM152.117 38.3393H153.677V38.7748H152.65V41.8363H152.117V38.3393ZM160.092 37.7153H160.631V43.6043H160.092V37.7153ZM160.501 40.0553H161.593V40.5103H160.501V40.0553ZM156.348 41.7388H156.816C157.921 41.7388 158.688 41.6998 159.578 41.5308L159.637 41.9793C158.72 42.1418 157.94 42.1873 156.816 42.1873H156.348V41.7388ZM156.335 38.2678H158.993V40.3738H156.881V41.9208H156.348V39.9318H158.46V38.7098H156.335V38.2678ZM164.472 39.6653H165.005V40.4583H164.472V39.6653ZM164.745 37.7933C166.039 37.7933 166.812 38.1508 166.812 38.8073C166.812 39.4638 166.039 39.8278 164.745 39.8278C163.445 39.8278 162.678 39.4638 162.678 38.8073C162.678 38.1508 163.445 37.7933 164.745 37.7933ZM164.745 38.2028C163.783 38.2028 163.231 38.4238 163.231 38.8073C163.231 39.1973 163.783 39.4183 164.745 39.4183C165.701 39.4183 166.253 39.1973 166.253 38.8073C166.253 38.4238 165.701 38.2028 164.745 38.2028ZM162.087 40.2633H167.397V40.7053H162.087V40.2633ZM162.73 41.1863H166.721V42.5188H163.276V43.2338H162.743V42.1223H166.188V41.6088H162.73V41.1863ZM162.743 43.1103H166.897V43.5328H162.743V43.1103ZM172.273 37.9298H172.748V38.2548C172.748 39.3793 171.604 40.1853 170.382 40.3933L170.167 39.9578C171.24 39.7953 172.273 39.0933 172.273 38.2548V37.9298ZM172.371 37.9298H172.839V38.2548C172.839 39.0738 173.885 39.7953 174.945 39.9578L174.73 40.3933C173.521 40.1853 172.371 39.3663 172.371 38.2548V37.9298ZM172.273 41.3618H172.806V43.5978H172.273V41.3618ZM169.901 41.0303H175.211V41.4788H169.901V41.0303ZM178.378 41.1668H178.885V41.9013H179.912V41.1668H180.412V43.5198H178.378V41.1668ZM178.885 42.3043V43.0973H179.912V42.3043H178.885ZM181.55 41.1343H181.966V41.6218C181.966 42.4213 181.563 43.2273 180.75 43.5718L180.477 43.1623C181.186 42.8633 181.55 42.2198 181.55 41.6218V41.1343ZM181.66 41.1343H182.076V41.6218C182.076 42.2523 182.44 42.8893 183.149 43.1623L182.876 43.5718C182.057 43.2338 181.66 42.4538 181.66 41.6218V41.1343ZM180.659 39.0998H182.239V39.5483H180.659V39.0998ZM179.307 37.9818C180.185 37.9818 180.822 38.5278 180.822 39.3338C180.822 40.1333 180.185 40.6858 179.307 40.6858C178.43 40.6858 177.793 40.1333 177.793 39.3338C177.793 38.5278 178.43 37.9818 179.307 37.9818ZM179.307 38.4303C178.729 38.4303 178.313 38.8008 178.313 39.3338C178.313 39.8603 178.729 40.2373 179.307 40.2373C179.886 40.2373 180.302 39.8603 180.302 39.3338C180.302 38.8008 179.886 38.4303 179.307 38.4303ZM181.998 37.7218H182.538V40.8353H181.998V37.7218ZM184.403 39.4833H188.394V39.9253H184.403V39.4833ZM183.681 40.7118H189.011V41.1538H183.681V40.7118ZM184.403 37.9363H184.936V39.7043H184.403V37.9363ZM184.364 43.0128H188.426V43.4548H184.364V43.0128ZM184.364 41.7388H184.897V43.1298H184.364V41.7388ZM191.937 43.0908H191.337L193.073 38.3635H193.663L195.399 43.0908H194.799L193.386 39.1114H193.35L191.937 43.0908ZM192.158 41.2442H194.577V41.752H192.158V41.2442ZM197.733 38.142L196.209 43.8018H195.711L197.234 38.142H197.733ZM201.038 39.5454C201.01 39.3115 200.898 39.1299 200.701 39.0006C200.504 38.8714 200.262 38.8067 199.976 38.8067C199.767 38.8067 199.583 38.8406 199.427 38.9083C199.271 38.976 199.15 39.0691 199.062 39.1876C198.976 39.3061 198.933 39.4407 198.933 39.5915C198.933 39.7177 198.963 39.8262 199.023 39.917C199.084 40.0062 199.163 40.0809 199.258 40.1409C199.353 40.1994 199.453 40.2478 199.558 40.2863C199.663 40.3232 199.759 40.3532 199.847 40.3763L200.327 40.5056C200.45 40.5379 200.587 40.5825 200.738 40.6395C200.89 40.6964 201.035 40.7741 201.174 40.8726C201.314 40.9695 201.429 41.0942 201.52 41.2465C201.611 41.3989 201.656 41.5858 201.656 41.8074C201.656 42.0629 201.589 42.2937 201.455 42.4999C201.323 42.7061 201.129 42.87 200.874 42.9916C200.62 43.1131 200.311 43.1739 199.948 43.1739C199.61 43.1739 199.316 43.1193 199.069 43.01C198.823 42.9008 198.629 42.7484 198.487 42.553C198.347 42.3576 198.268 42.1306 198.249 41.8721H198.84C198.856 42.0506 198.916 42.1983 199.02 42.3153C199.126 42.4307 199.26 42.5168 199.422 42.5738C199.585 42.6292 199.76 42.6569 199.948 42.6569C200.167 42.6569 200.363 42.6215 200.537 42.5507C200.711 42.4784 200.848 42.3783 200.95 42.2506C201.052 42.1214 201.102 41.9706 201.102 41.7982C201.102 41.6412 201.058 41.5135 200.971 41.415C200.883 41.3166 200.768 41.2365 200.625 41.175C200.481 41.1134 200.327 41.0596 200.161 41.0134L199.579 40.8472C199.21 40.741 198.917 40.5895 198.702 40.3925C198.486 40.1955 198.379 39.9378 198.379 39.6192C198.379 39.3546 198.45 39.1237 198.593 38.9268C198.738 38.7282 198.932 38.5744 199.175 38.4651C199.42 38.3543 199.693 38.2989 199.994 38.2989C200.299 38.2989 200.57 38.3535 200.807 38.4628C201.044 38.5705 201.232 38.7182 201.37 38.906C201.51 39.0937 201.584 39.3068 201.592 39.5454H201.038Z" fill="white"/>
<path d="M93.5848 38.5693H90.5848V44.0793H96.1849V40.8962" stroke="white"/>
<path d="M91.5042 40.1597L93.3412 42.3018L97.2279 37.5889" stroke="white"/>
</g>
</g>
<defs>
<clipPath id="clip0_12127_18329">
<rect width="345" height="47" fill="white"/>
</clipPath>
</defs>
</svg>
