<svg width="800" height="109" viewBox="0 0 800 109" fill="none" xmlns="http://www.w3.org/2000/svg">
<g clip-path="url(#clip0_12127_18316)">
<mask id="mask0_12127_18316" style="mask-type:luminance" maskUnits="userSpaceOnUse" x="0" y="0" width="800" height="109">
<path d="M800 0H0V109H800V0Z" fill="white"/>
</mask>
<g mask="url(#mask0_12127_18316)">
<path d="M146.942 35.194H151.768V70.382H146.942V35.194ZM133.566 48.038H141.736V52.104H133.566V48.038ZM139.684 35.802H144.396V68.824H139.684V35.802ZM122.546 58.412H124.978C129.956 58.412 133.262 58.298 137.138 57.538L137.518 61.642C133.604 62.44 130.108 62.592 124.978 62.592H122.546V58.412ZM122.546 39.146H135.96V43.174H127.524V60.16H122.546V39.146ZM180.607 35.156H185.699V70.458H180.607V35.156ZM166.737 37.626C172.057 37.626 175.971 42.49 175.971 50.166C175.971 57.918 172.057 62.782 166.737 62.782C161.417 62.782 157.503 57.918 157.503 50.166C157.503 42.49 161.417 37.626 166.737 37.626ZM166.737 42.224C164.115 42.224 162.329 44.998 162.329 50.166C162.329 55.41 164.115 58.222 166.737 58.222C169.359 58.222 171.107 55.41 171.107 50.166C171.107 44.998 169.359 42.224 166.737 42.224ZM215.944 35.156H220.96V70.458H215.944V35.156ZM209.902 47.544H216.514V51.648H209.902V47.544ZM193.03 58.412H195.842C201.656 58.412 205.988 58.336 210.966 57.538L211.422 61.566C206.33 62.364 201.77 62.516 195.842 62.516H193.03V58.412ZM193.03 38.12H209.332V42.224H198.046V59.704H193.03V38.12ZM196.906 47.924H208.116V51.876H196.906V47.924ZM248.106 37.208H253.388C253.388 46.48 247.688 52.864 237.39 55.676L235.414 51.762C243.85 49.482 248.106 44.998 248.106 39.602V37.208ZM237.352 37.208H251.602V41.198H237.352V37.208ZM240.658 57.044H264.636V70.268H259.582V61.034H240.658V57.044ZM259.582 35.194H264.636V55.638H259.582V35.194ZM253.73 43.744H260.494V47.848H253.73V43.744ZM289.219 43.706H295.907V47.81H289.219V43.706ZM294.539 35.194H299.593V56.094H294.539V35.194ZM287.661 56.854C295.109 56.854 299.707 59.4 299.707 63.656C299.707 67.95 295.109 70.42 287.661 70.42C280.213 70.42 275.615 67.95 275.615 63.656C275.615 59.4 280.213 56.854 287.661 56.854ZM287.661 60.692C283.101 60.692 280.669 61.642 280.669 63.656C280.669 65.632 283.101 66.582 287.661 66.582C292.259 66.582 294.691 65.632 294.691 63.656C294.691 61.642 292.259 60.692 287.661 60.692ZM278.275 38.728H282.379V40.932C282.379 47.658 279.263 53.814 272.537 56.094L269.953 52.104C275.767 50.128 278.275 45.454 278.275 40.932V38.728ZM279.339 38.728H283.405V40.932C283.405 45.074 285.799 49.368 291.347 51.23L288.877 55.22C282.341 53.054 279.339 47.202 279.339 40.932V38.728ZM271.321 37.322H290.245V41.35H271.321V37.322ZM308.976 55.79H313.65V59.248H317.146V55.79H321.82V70.002H308.976V55.79ZM313.65 62.896V66.202H317.146V62.896H313.65ZM327.254 55.524H331.092V58.146C331.092 63.314 329.002 68.33 323.796 70.344L321.326 66.582C325.544 64.834 327.254 61.452 327.254 58.146V55.524ZM328.432 55.524H332.27V58.146C332.27 61.794 333.942 65.138 338.236 66.582L335.728 70.344C330.408 68.444 328.432 63.694 328.432 58.146V55.524ZM322.884 42.718H331.7V46.822H322.884V42.718ZM314.828 36.524C320.11 36.524 324.1 39.944 324.1 44.808C324.1 49.672 320.11 53.13 314.828 53.13C309.508 53.13 305.518 49.672 305.518 44.808C305.518 39.944 309.508 36.524 314.828 36.524ZM314.828 40.666C312.244 40.666 310.344 42.224 310.344 44.808C310.344 47.392 312.244 48.988 314.828 48.988C317.412 48.988 319.274 47.392 319.274 44.808C319.274 42.224 317.412 40.666 314.828 40.666ZM329.496 35.194H334.55V53.814H329.496V35.194ZM344.009 44.694H368.405V48.684H344.009V44.694ZM340.057 52.332H371.939V56.36H340.057V52.332ZM344.009 36.448H349.025V46.67H344.009V36.448ZM343.667 65.594H368.595V69.622H343.667V65.594ZM343.667 59.172H348.721V66.658H343.667V59.172ZM382.036 63.2216L381.888 64.706C381.771 65.8935 381.546 67.0765 381.213 68.255C380.889 69.4425 380.547 70.5175 380.187 71.4801C379.836 72.4427 379.553 73.1984 379.337 73.7472H375.613C375.748 73.2164 375.932 72.4742 376.166 71.5206C376.4 70.576 376.62 69.5144 376.827 68.3359C377.034 67.1574 377.165 65.9564 377.219 64.733L377.286 63.2216H382.036ZM395.762 57.196H399.116C405.824 57.196 410.941 57.11 416.875 56.164L417.391 60.722C411.371 61.668 405.953 61.84 399.116 61.84H395.762V57.196ZM395.762 34.32H414.467V38.964H401.524V58.701H395.762V34.32ZM400.148 45.371H413.908V49.843H400.148V45.371ZM419.67 31.009H425.432V70.827H419.67V31.009ZM424.142 46.102H431.194V50.832H424.142V46.102ZM435.749 34.578H454.884V61.367H435.749V34.578ZM449.294 39.05H441.382V56.852H449.294V39.05ZM461.076 30.966H466.838V70.913H461.076V30.966ZM488.119 33.288H493.107V36.169C493.107 44.812 486.958 52.466 476.638 54.487L474.187 49.757C483.174 48.209 488.119 41.888 488.119 36.169V33.288ZM489.28 33.288H494.225V36.169C494.225 42.017 499.127 48.209 508.157 49.757L505.706 54.487C495.386 52.466 489.28 44.941 489.28 36.169V33.288ZM473.37 61.324H509.404V65.968H473.37V61.324ZM524.814 34.578H543.949V61.367H524.814V34.578ZM538.359 39.05H530.447V56.852H538.359V39.05ZM550.141 30.966H555.903V70.913H550.141V30.966ZM566.822 32.686H592.063V37.244H566.822V32.686ZM562.436 46.446H598.47V51.004H562.436V46.446ZM577.529 49.671H583.248V58.013H577.529V49.671ZM588.623 32.686H594.256V35.868C594.256 39.308 594.256 43.307 593.009 48.553L587.376 47.994C588.623 42.877 588.623 39.222 588.623 35.868V32.686ZM566.048 56.594H594.299V70.827H588.58V61.109H566.048V56.594ZM610.076 56.164H615.924V70.827H610.076V56.164ZM623.836 56.164H629.684V70.827H623.836V56.164ZM601.949 53.154H638.026V57.755H601.949V53.154ZM619.88 32.342C628.394 32.342 634.285 35.825 634.285 41.286C634.285 46.661 628.394 50.144 619.88 50.144C611.409 50.144 605.518 46.661 605.518 41.286C605.518 35.825 611.409 32.342 619.88 32.342ZM619.88 36.9C614.677 36.9 611.366 38.448 611.366 41.286C611.366 44.081 614.677 45.629 619.88 45.629C625.126 45.629 628.394 44.081 628.394 41.286C628.394 38.448 625.126 36.9 619.88 36.9ZM668.854 31.052H674.616V53.498H668.854V31.052ZM648.128 55.347H674.616V70.397H648.128V55.347ZM668.983 59.819H653.718V65.882H668.983V59.819ZM650.837 32.471H655.567V36.298C655.567 43.694 651.869 50.402 644.086 52.853L641.334 48.338C647.999 46.274 650.837 41.2 650.837 36.298V32.471ZM651.998 32.471H656.685V36.298C656.685 41.114 659.48 45.758 665.93 47.693L663.178 52.122C655.567 49.843 651.998 43.608 651.998 36.298V32.471Z" fill="white"/>
<path d="M134.374 8.0945H139.276V9.5565H134.374V8.0945ZM138.265 2.7625H140.05V16.9955H138.265V2.7625ZM127.644 20.285H140.587V21.747H127.644V20.285ZM127.644 15.7485H129.429V21.0375H127.644V15.7485ZM129.02 5.1705H130.482V6.74C130.482 10.266 128.289 13.319 125.043 14.523L124.118 13.104C127.021 12.072 129.02 9.492 129.02 6.74V5.1705ZM129.364 5.1705H130.805V6.7185C130.805 9.234 132.697 11.685 135.513 12.674L134.61 14.0715C131.45 12.932 129.364 10.008 129.364 6.7185V5.1705ZM124.677 4.332H135.062V5.7725H124.677V4.332ZM146.089 3.644H158.602V5.106H146.089V3.644ZM143.853 10.61H161.462V12.072H143.853V10.61ZM151.744 11.599H153.507V16.1785H151.744V11.599ZM157.441 3.644H159.183V5.0845C159.183 6.697 159.183 8.6535 158.538 11.3195L156.796 11.1045C157.441 8.503 157.441 6.654 157.441 5.0845V3.644ZM145.681 15.598H159.312V22.177H157.527V17.06H145.681V15.598ZM170.367 4.5685H172.065V9.32H176.129V4.5685H177.784V17.318H170.367V4.5685ZM172.065 10.7605V15.856H176.129V10.7605H172.065ZM184.471 2.741H186.191V22.177H184.471V2.741ZM181.353 10.438H185.094V11.9H181.353V10.438ZM180.171 3.1495H181.869V21.2095H180.171V3.1495ZM197.326 9.535H199.089V13.1685H197.326V9.535ZM197.304 3.042H198.852V3.902C198.852 7.4065 195.133 9.9005 191.177 10.5455L190.489 9.1265C193.972 8.6535 197.304 6.5035 197.304 3.902V3.042ZM197.584 3.042H199.11V3.902C199.11 6.5035 202.464 8.6535 205.926 9.1265L205.259 10.5455C201.325 9.879 197.584 7.4065 197.584 3.902V3.042ZM189.435 12.3945H207.001V13.8135H189.435V12.3945ZM198.207 15.426C202.378 15.426 204.872 16.63 204.872 18.78C204.872 20.9515 202.378 22.134 198.207 22.134C194.036 22.134 191.542 20.9515 191.542 18.78C191.542 16.63 194.036 15.426 198.207 15.426ZM198.207 16.802C195.154 16.802 193.348 17.5115 193.348 18.78C193.348 20.0485 195.154 20.758 198.207 20.758C201.282 20.758 203.066 20.0485 203.066 18.78C203.066 17.5115 201.282 16.802 198.207 16.802ZM228.419 2.7195H230.225V22.177H228.419V2.7195ZM229.73 10.61H233.321V12.0935H229.73V10.61ZM223.452 4.8265H225.194C225.194 10.352 222.657 15.34 216.379 18.5005L215.39 17.1245C220.765 14.394 223.452 10.2445 223.452 5.106V4.8265ZM216.293 4.8265H224.377V6.2885H216.293V4.8265ZM237.447 8.1375H250.626V9.5995H237.447V8.1375ZM237.447 3.128H239.21V8.7825H237.447V3.128ZM235.06 11.857H252.626V13.2975H235.06V11.857ZM243.811 15.039C247.96 15.039 250.476 16.3075 250.476 18.5865C250.476 20.8225 247.96 22.1125 243.811 22.1125C239.661 22.1125 237.146 20.8225 237.146 18.5865C237.146 16.3075 239.661 15.039 243.811 15.039ZM243.811 16.4365C240.779 16.4365 238.952 17.2105 238.952 18.5865C238.952 19.9195 240.779 20.6935 243.811 20.6935C246.864 20.6935 248.67 19.9195 248.67 18.5865C248.67 17.2105 246.864 16.4365 243.811 16.4365ZM268.126 2.7625H269.91V17.3395H268.126V2.7625ZM269.351 9.1265H272.791V10.6315H269.351V9.1265ZM254.882 5.106H266.363V6.5465H254.882V5.106ZM260.622 7.6215C263.374 7.6215 265.266 9.062 265.266 11.255C265.266 13.4265 263.374 14.867 260.622 14.867C257.849 14.867 255.957 13.4265 255.957 11.255C255.957 9.062 257.849 7.6215 260.622 7.6215ZM260.622 9.019C258.859 9.019 257.655 9.9005 257.655 11.255C257.655 12.588 258.859 13.4695 260.622 13.4695C262.364 13.4695 263.568 12.588 263.568 11.255C263.568 9.9005 262.364 9.019 260.622 9.019ZM259.719 2.741H261.504V5.8585H259.719V2.741ZM257.806 20.285H270.792V21.747H257.806V20.285ZM257.806 16.1785H259.59V20.9085H257.806V16.1785ZM285.157 14.7595H286.985V22.177H285.157V14.7595ZM291.844 14.7595H293.671V22.177H291.844V14.7595ZM280.642 13.792H298.272V15.2755H280.642V13.792ZM289.414 3.515C293.478 3.515 296.208 5.149 296.208 7.7505C296.208 10.3305 293.478 11.986 289.414 11.986C285.372 11.986 282.62 10.3305 282.62 7.7505C282.62 5.149 285.372 3.515 289.414 3.515ZM289.414 4.9555C286.447 4.9555 284.426 6.052 284.426 7.7505C284.426 9.449 286.447 10.5455 289.414 10.5455C292.381 10.5455 294.381 9.449 294.381 7.7505C294.381 6.052 292.381 4.9555 289.414 4.9555ZM314.568 2.7625H316.374V13.792H314.568V2.7625ZM303.818 14.91H316.374V21.919H303.818V14.91ZM314.611 16.329H305.559V20.4785H314.611V16.329ZM305.495 3.4935H306.978V5.3855C306.978 8.9975 304.742 12.0935 301.453 13.319L300.571 11.9C303.495 10.8465 305.495 8.2235 305.495 5.3855V3.4935ZM305.817 3.4935H307.279V5.3855C307.279 8.1375 309.3 10.567 312.181 11.5345L311.3 12.932C308.053 11.814 305.817 8.9115 305.817 5.3855V3.4935ZM320.199 14.2435H337.829V15.7055H320.199V14.2435ZM328.068 14.9315H329.831V22.177H328.068V14.9315ZM322.414 3.515H324.198V6.181H333.809V3.515H335.572V11.9215H322.414V3.515ZM324.198 7.6215V10.481H333.809V7.6215H324.198ZM354.232 2.7195H355.995V22.1985H354.232V2.7195ZM350.19 10.051H354.49V11.5345H350.19V10.051ZM340.88 16.0495H342.364C346.019 16.0495 348.319 15.985 351.05 15.469L351.222 16.931C348.427 17.4255 346.062 17.533 342.364 17.533H340.88V16.0495ZM340.88 4.504H349.867V5.9875H342.643V16.5655H340.88V4.504ZM342.192 9.965H349.029V11.4055H342.192V9.965ZM380.014 2.741H381.799V17.2105H380.014V2.741ZM366.383 4.3105H376.617V5.7725H366.383V4.3105ZM366.061 14.2865L365.867 12.76C369.049 12.76 373.586 12.717 377.219 12.287L377.327 13.62C373.586 14.222 369.221 14.2865 366.061 14.2865ZM368.318 5.5575H370.038V13.018H368.318V5.5575ZM372.962 5.5575H374.682V13.018H372.962V5.5575ZM376.789 6.4175H380.96V7.8795H376.789V6.4175ZM376.789 10.137H380.96V11.599H376.789V10.137ZM369.372 20.285H382.315V21.747H369.372V20.285ZM369.372 16.028H371.156V21.2095H369.372V16.028ZM399.749 2.7195H401.534V22.1985H399.749V2.7195ZM386.72 16.028H388.333C391.579 16.028 394.482 15.899 397.922 15.34L398.115 16.802C394.589 17.3825 391.665 17.5115 388.333 17.5115H386.72V16.028ZM386.677 4.547H395.664V11.4915H388.505V16.587H386.72V10.0295H393.858V6.009H386.677V4.547ZM418.668 2.7625H420.452V17.3395H418.668V2.7625ZM419.893 9.1265H423.333V10.6315H419.893V9.1265ZM405.424 5.106H416.905V6.5465H405.424V5.106ZM411.164 7.6215C413.916 7.6215 415.808 9.062 415.808 11.255C415.808 13.4265 413.916 14.867 411.164 14.867C408.391 14.867 406.499 13.4265 406.499 11.255C406.499 9.062 408.391 7.6215 411.164 7.6215ZM411.164 9.019C409.401 9.019 408.197 9.9005 408.197 11.255C408.197 12.588 409.401 13.4695 411.164 13.4695C412.906 13.4695 414.11 12.588 414.11 11.255C414.11 9.9005 412.906 9.019 411.164 9.019ZM410.261 2.741H412.046V5.8585H410.261V2.741ZM408.348 20.285H421.334V21.747H408.348V20.285ZM408.348 16.1785H410.132V20.9085H408.348V16.1785ZM436.697 20.7443C435.567 20.7443 434.592 20.4949 433.773 19.9961C432.958 19.4922 432.33 18.7898 431.887 17.8888C431.449 16.9828 431.23 15.9292 431.23 14.728C431.23 13.5268 431.449 12.468 431.887 11.5518C432.33 10.6306 432.946 9.91288 433.735 9.39879C434.529 8.87962 435.455 8.62003 436.514 8.62003C437.124 8.62003 437.728 8.72183 438.323 8.92543C438.919 9.12902 439.461 9.45987 439.949 9.91797C440.438 10.371 440.827 10.9716 441.118 11.7198C441.408 12.468 441.553 13.3893 441.553 14.4837V15.2472H432.513V13.6896H439.72C439.72 13.0279 439.588 12.4375 439.323 11.9183C439.064 11.3991 438.692 10.9894 438.209 10.6891C437.73 10.3888 437.165 10.2386 436.514 10.2386C435.796 10.2386 435.175 10.4168 434.651 10.7731C434.132 11.1243 433.732 11.5824 433.452 12.1474C433.172 12.7124 433.032 13.3181 433.032 13.9645V15.0028C433.032 15.8885 433.185 16.6393 433.49 17.2551C433.801 17.8659 434.231 18.3317 434.781 18.6523C435.33 18.9679 435.969 19.1257 436.697 19.1257C437.17 19.1257 437.598 19.0595 437.98 18.9272C438.366 18.7898 438.7 18.5862 438.98 18.3164C439.26 18.0415 439.476 17.7005 439.629 17.2933L441.369 17.782C441.186 18.3724 440.878 18.8916 440.446 19.3395C440.013 19.7823 439.479 20.1284 438.842 20.3778C438.206 20.6222 437.491 20.7443 436.697 20.7443ZM453.089 8.77273C452.998 7.99905 452.626 7.39844 451.974 6.97088C451.323 6.54332 450.524 6.32954 449.577 6.32954C448.885 6.32954 448.279 6.44152 447.76 6.66548C447.246 6.88944 446.844 7.19738 446.554 7.58931C446.269 7.98124 446.126 8.42661 446.126 8.92543C446.126 9.3428 446.225 9.70164 446.424 10.002C446.627 10.2972 446.887 10.544 447.203 10.7425C447.518 10.936 447.849 11.0963 448.195 11.2235C448.541 11.3457 448.859 11.445 449.15 11.5213L450.738 11.9489C451.145 12.0558 451.598 12.2034 452.097 12.3917C452.6 12.58 453.081 12.8371 453.54 13.1628C454.003 13.4835 454.385 13.8958 454.685 14.3997C454.985 14.9036 455.135 15.522 455.135 16.255C455.135 17.0999 454.914 17.8634 454.471 18.5455C454.033 19.2275 453.392 19.7696 452.547 20.1717C451.707 20.5738 450.687 20.7749 449.485 20.7749C448.366 20.7749 447.396 20.5942 446.577 20.2328C445.762 19.8714 445.121 19.3675 444.653 18.7211C444.189 18.0746 443.927 17.3239 443.866 16.4688H445.821C445.872 17.0592 446.07 17.5478 446.416 17.9347C446.767 18.3164 447.21 18.6014 447.745 18.7898C448.284 18.973 448.864 19.0646 449.485 19.0646C450.208 19.0646 450.857 18.9476 451.432 18.7134C452.008 18.4742 452.463 18.1433 452.799 17.7209C453.135 17.2933 453.303 16.7945 453.303 16.2244C453.303 15.7053 453.158 15.2828 452.868 14.957C452.578 14.6313 452.196 14.3666 451.722 14.163C451.249 13.9594 450.738 13.7812 450.188 13.6286L448.264 13.0788C447.042 12.7276 446.075 12.2263 445.363 11.5748C444.65 10.9232 444.294 10.0707 444.294 9.01704C444.294 8.14157 444.53 7.37808 445.004 6.72656C445.482 6.06996 446.124 5.56096 446.928 5.19957C447.737 4.8331 448.641 4.64986 449.638 4.64986C450.646 4.64986 451.542 4.83055 452.326 5.19194C453.109 5.54824 453.73 6.03687 454.189 6.65785C454.652 7.27882 454.896 7.98378 454.922 8.77273H453.089ZM460.142 4.86364V20.5H458.248V4.86364H460.142ZM463.938 4.86364H466.198L471.512 17.843H471.695L477.009 4.86364H479.269V20.5H477.498V8.62003H477.345L472.459 20.5H470.749L465.862 8.62003H465.71V20.5H463.938V4.86364ZM495.728 2.741H497.491V22.177H495.728V2.741ZM496.932 10.739H500.393V12.244H496.932V10.739ZM486.418 4.8265H488.052C488.052 9.5135 487.063 14.05 483.58 17.8125L482.14 16.802C485.343 13.4695 486.418 9.4275 486.418 5.02V4.8265ZM482.763 4.8265H487.085V6.31H482.763V4.8265ZM491.707 4.8265H493.363C493.363 9.535 492.696 14.867 489.127 19.1025L487.687 18.1135C490.976 14.308 491.707 9.492 491.707 4.9985V4.8265ZM488.676 4.8265H492.438V6.31H488.676V4.8265ZM507.164 5.5145H508.605V8.675C508.605 12.7815 506.132 16.9095 503.036 18.436L502.004 17.017C504.821 15.684 507.164 12.029 507.164 8.675V5.5145ZM507.508 5.5145H508.949V8.675C508.949 11.9645 511.292 15.3185 514.152 16.544L513.141 17.963C510.002 16.501 507.508 12.717 507.508 8.675V5.5145ZM502.649 4.719H513.507V6.224H502.649V4.719ZM516.13 2.741H517.914V22.177H516.13V2.741Z" fill="white"/>
<path d="M155.516 90.114H157.01V102.102H155.516V90.114ZM156.542 95.064H159.422V96.306H156.542V95.064ZM146.876 104.82H157.748V106.044H146.876V104.82ZM146.876 100.878H148.37V105.306H146.876V100.878ZM148.928 91.266C151.358 91.266 153.176 92.94 153.176 95.28C153.176 97.638 151.358 99.294 148.928 99.294C146.498 99.294 144.68 97.638 144.68 95.28C144.68 92.94 146.498 91.266 148.928 91.266ZM148.928 92.58C147.344 92.58 146.138 93.696 146.138 95.28C146.138 96.882 147.344 97.98 148.928 97.98C150.512 97.98 151.718 96.882 151.718 95.28C151.718 93.696 150.512 92.58 148.928 92.58ZM169.627 94.344H173.299V95.586H169.627V94.344ZM172.831 90.132H174.325V99.834H172.831V90.132ZM168.979 100.32C172.327 100.32 174.397 101.454 174.397 103.362C174.397 105.288 172.327 106.386 168.979 106.386C165.613 106.386 163.543 105.288 163.543 103.362C163.543 101.454 165.613 100.32 168.979 100.32ZM168.979 101.49C166.531 101.49 165.037 102.174 165.037 103.362C165.037 104.532 166.531 105.216 168.979 105.216C171.427 105.216 172.921 104.532 172.921 103.362C172.921 102.174 171.427 101.49 168.979 101.49ZM165.091 91.77H166.315V93.084C166.315 96.09 164.479 98.664 161.779 99.672L161.005 98.484C163.417 97.602 165.091 95.424 165.091 93.084V91.77ZM165.379 91.77H166.585V93.084C166.585 95.19 168.169 97.206 170.527 98.034L169.771 99.222C167.125 98.268 165.379 95.82 165.379 93.084V91.77ZM161.455 91.32H170.149V92.544H161.455V91.32ZM181.649 91.788H182.873V93.102C182.873 96.072 181.037 98.61 178.319 99.618L177.545 98.43C179.975 97.566 181.649 95.406 181.649 93.102V91.788ZM181.937 91.788H183.143V93.102C183.143 95.19 184.727 97.224 187.085 98.052L186.329 99.24C183.683 98.268 181.937 95.82 181.937 93.102V91.788ZM186.203 94.362H189.821V95.604H186.203V94.362ZM178.013 91.248H186.707V92.454H178.013V91.248ZM180.029 100.752H190.883V106.404H189.389V101.976H180.029V100.752ZM189.389 90.132H190.883V99.87H189.389V90.132ZM205.894 90.15H207.406V102.03H205.894V90.15ZM196.948 104.82H207.892V106.044H196.948V104.82ZM196.948 100.806H198.424V105.234H196.948V100.806ZM198.676 91.266C201.106 91.266 202.906 92.922 202.906 95.28C202.906 97.62 201.106 99.294 198.676 99.294C196.246 99.294 194.428 97.62 194.428 95.28C194.428 92.922 196.246 91.266 198.676 91.266ZM198.676 92.562C197.092 92.562 195.886 93.678 195.886 95.28C195.886 96.864 197.092 97.98 198.676 97.98C200.26 97.98 201.466 96.864 201.466 95.28C201.466 93.678 200.26 92.562 198.676 92.562ZM215.671 98.754H230.377V99.96H215.671V98.754ZM222.277 96.648H223.753V99.258H222.277V96.648ZM217.615 95.982H228.649V97.152H217.615V95.982ZM217.615 90.6H228.577V91.77H219.091V96.612H217.615V90.6ZM218.659 93.264H228.145V94.416H218.659V93.264ZM223.015 101.166C226.561 101.166 228.595 102.066 228.595 103.776C228.595 105.468 226.561 106.368 223.015 106.368C219.469 106.368 217.435 105.468 217.435 103.776C217.435 102.066 219.469 101.166 223.015 101.166ZM223.015 102.3C220.405 102.3 218.947 102.822 218.947 103.776C218.947 104.748 220.405 105.252 223.015 105.252C225.625 105.252 227.083 104.748 227.083 103.776C227.083 102.822 225.625 102.3 223.015 102.3ZM244.073 90.15H245.585V102.066H244.073V90.15ZM235.127 104.82H246.071V106.044H235.127V104.82ZM235.127 100.968H236.603V105.396H235.127V100.968ZM236.477 91.032H237.719V92.688C237.719 95.856 235.919 98.628 233.183 99.744L232.409 98.538C234.857 97.584 236.477 95.208 236.477 92.688V91.032ZM236.747 91.032H237.971V92.688C237.971 95.136 239.609 97.35 242.039 98.232L241.247 99.438C238.547 98.394 236.747 95.784 236.747 92.688V91.032ZM249.472 91.356H256.942V98.358H249.472V91.356ZM255.484 92.562H250.93V97.17H255.484V92.562ZM259.93 90.132H261.424V99.744H259.93V90.132ZM261.01 94.164H263.836V95.424H261.01V94.164ZM256.24 100.302C259.552 100.302 261.586 101.436 261.586 103.344C261.586 105.27 259.552 106.386 256.24 106.386C252.928 106.386 250.894 105.27 250.894 103.344C250.894 101.436 252.928 100.302 256.24 100.302ZM256.24 101.508C253.828 101.508 252.352 102.174 252.352 103.344C252.352 104.514 253.828 105.198 256.24 105.198C258.652 105.198 260.128 104.514 260.128 103.344C260.128 102.174 258.652 101.508 256.24 101.508ZM266.085 91.914H273.447V93.12H266.085V91.914ZM268.623 96.558H270.099V102.066H268.623V96.558ZM272.835 91.914H274.293V92.778C274.293 94.11 274.293 96.234 273.825 99.258L272.349 99.114C272.835 96.18 272.835 94.092 272.835 92.778V91.914ZM276.345 90.132H277.821V106.404H276.345V90.132ZM277.425 96.936H280.431V98.196H277.425V96.936ZM265.365 102.858L265.185 101.598C268.137 101.598 272.061 101.544 275.355 101.13L275.427 102.228C272.061 102.768 268.245 102.84 265.365 102.858ZM298.254 90.114H299.748V106.422H298.254V90.114ZM299.082 96.522H302.088V97.764H299.082V96.522ZM287.454 100.896H288.174C289.092 100.896 290.316 100.878 291.72 100.554L291.864 101.796C290.37 102.138 289.164 102.156 288.174 102.156H287.454V100.896ZM287.454 91.842H291.558V93.048H288.93V101.508H287.454V91.842ZM292.476 100.896H293.268C294.852 100.896 295.986 100.86 297.3 100.518L297.444 101.76C296.058 102.102 294.942 102.156 293.268 102.156H292.476V100.896ZM292.476 91.842H296.796V93.048H293.952V101.526H292.476V91.842ZM314.56 90.114H316.054V106.422H314.56V90.114ZM315.694 96.594H318.718V97.854H315.694V96.594ZM304.192 101.256H305.488C308.548 101.256 310.672 101.148 313.138 100.68L313.3 101.922C310.762 102.372 308.602 102.498 305.488 102.498H304.192V101.256ZM304.156 91.644H311.518V97.476H305.668V101.76H304.192V96.252H310.042V92.868H304.156V91.644ZM326.691 95.514H328.167V97.71H326.691V95.514ZM327.447 90.33C331.029 90.33 333.171 91.32 333.171 93.138C333.171 94.956 331.029 95.964 327.447 95.964C323.847 95.964 321.723 94.956 321.723 93.138C321.723 91.32 323.847 90.33 327.447 90.33ZM327.447 91.464C324.783 91.464 323.253 92.076 323.253 93.138C323.253 94.218 324.783 94.83 327.447 94.83C330.093 94.83 331.623 94.218 331.623 93.138C331.623 92.076 330.093 91.464 327.447 91.464ZM320.085 97.17H334.791V98.394H320.085V97.17ZM321.867 99.726H332.919V103.416H323.379V105.396H321.903V102.318H331.443V100.896H321.867V99.726ZM321.903 105.054H333.405V106.224H321.903V105.054ZM348.294 90.708H349.608V91.608C349.608 94.722 346.44 96.954 343.056 97.53L342.462 96.324C345.432 95.874 348.294 93.93 348.294 91.608V90.708ZM348.564 90.708H349.86V91.608C349.86 93.876 352.758 95.874 355.692 96.324L355.098 97.53C351.75 96.954 348.564 94.686 348.564 91.608V90.708ZM348.294 100.212H349.77V106.404H348.294V100.212ZM341.724 99.294H356.43V100.536H341.724V99.294ZM365.199 99.672H366.603V101.706H369.447V99.672H370.833V106.188H365.199V99.672ZM366.603 102.822V105.018H369.447V102.822H366.603ZM373.983 99.582H375.135V100.932C375.135 103.146 374.019 105.378 371.769 106.332L371.013 105.198C372.975 104.37 373.983 102.588 373.983 100.932V99.582ZM374.289 99.582H375.441V100.932C375.441 102.678 376.449 104.442 378.411 105.198L377.655 106.332C375.387 105.396 374.289 103.236 374.289 100.932V99.582ZM371.517 93.948H375.891V95.19H371.517V93.948ZM367.773 90.852C370.203 90.852 371.967 92.364 371.967 94.596C371.967 96.81 370.203 98.34 367.773 98.34C365.343 98.34 363.579 96.81 363.579 94.596C363.579 92.364 365.343 90.852 367.773 90.852ZM367.773 92.094C366.171 92.094 365.019 93.12 365.019 94.596C365.019 96.054 366.171 97.098 367.773 97.098C369.375 97.098 370.527 96.054 370.527 94.596C370.527 93.12 369.375 92.094 367.773 92.094ZM375.225 90.132H376.719V98.754H375.225V90.132ZM381.884 95.01H392.936V96.234H381.884V95.01ZM379.886 98.412H394.646V99.636H379.886V98.412ZM381.884 90.726H383.36V95.622H381.884V90.726ZM381.776 104.784H393.026V106.008H381.776V104.784ZM381.776 101.256H383.252V105.108H381.776V101.256ZM402.747 105H401.085L405.892 91.9091H407.528L412.335 105H410.673L406.761 93.9801H406.659L402.747 105ZM403.361 99.8864H410.059V101.293H403.361V99.8864ZM418.797 91.2955L414.579 106.969H413.198L417.417 91.2955H418.797ZM427.949 95.1818C427.873 94.5341 427.561 94.0312 427.016 93.6733C426.471 93.3153 425.801 93.1364 425.009 93.1364C424.429 93.1364 423.922 93.2301 423.488 93.4176C423.057 93.6051 422.721 93.8629 422.478 94.1911C422.239 94.5192 422.12 94.892 422.12 95.3097C422.12 95.6591 422.203 95.9595 422.369 96.2109C422.539 96.4581 422.757 96.6648 423.021 96.831C423.285 96.9929 423.562 97.1271 423.852 97.2337C424.142 97.3359 424.408 97.419 424.651 97.483L425.98 97.8409C426.321 97.9304 426.701 98.054 427.118 98.2116C427.54 98.3693 427.943 98.5845 428.326 98.8572C428.714 99.1257 429.034 99.4709 429.285 99.8928C429.537 100.315 429.662 100.832 429.662 101.446C429.662 102.153 429.477 102.793 429.106 103.364C428.74 103.935 428.203 104.388 427.495 104.725C426.792 105.062 425.938 105.23 424.932 105.23C423.995 105.23 423.183 105.079 422.497 104.776C421.815 104.474 421.278 104.052 420.886 103.511C420.498 102.969 420.279 102.341 420.228 101.625H421.864C421.907 102.119 422.073 102.528 422.363 102.852C422.657 103.172 423.027 103.411 423.475 103.568C423.926 103.722 424.412 103.798 424.932 103.798C425.537 103.798 426.081 103.7 426.562 103.504C427.044 103.304 427.425 103.027 427.706 102.673C427.988 102.315 428.128 101.898 428.128 101.42C428.128 100.986 428.007 100.632 427.764 100.359C427.521 100.087 427.201 99.8651 426.805 99.6946C426.409 99.5241 425.98 99.375 425.52 99.2472L423.909 98.7869C422.887 98.4929 422.077 98.0732 421.48 97.5277C420.884 96.9822 420.586 96.2685 420.586 95.3864C420.586 94.6534 420.784 94.0142 421.18 93.4688C421.581 92.919 422.118 92.4929 422.791 92.1903C423.468 91.8835 424.225 91.7301 425.06 91.7301C425.904 91.7301 426.654 91.8814 427.31 92.1839C427.966 92.4822 428.486 92.8913 428.87 93.4112C429.257 93.9311 429.462 94.5213 429.483 95.1818H427.949Z" fill="white"/>
<path d="M131.562 92.792H124V106.681H138.12V98.656" stroke="white" stroke-width="1.8"/>
<path d="M126.315 96.8022L130.944 102.202L140.744 90.3193" stroke="white" stroke-width="1.8"/>
</g>
</g>
<defs>
<clipPath id="clip0_12127_18316">
<rect width="800" height="109" fill="white"/>
</clipPath>
</defs>
</svg>
