<svg width="800" height="109" viewBox="0 0 800 109" fill="none" xmlns="http://www.w3.org/2000/svg">
<g clip-path="url(#clip0_12127_18407)">
<mask id="mask0_12127_18407" style="mask-type:luminance" maskUnits="userSpaceOnUse" x="0" y="0" width="800" height="109">
<path d="M800 0H0V109H800V0Z" fill="white"/>
</mask>
<g mask="url(#mask0_12127_18407)">
<path d="M165.757 62L156.809 30.7273H164.032L169.208 52.4563H169.468L175.179 30.7273H181.363L187.059 52.5021H187.334L192.51 30.7273H199.733L190.785 62H184.341L178.386 41.5536H178.141L172.201 62H165.757ZM203.272 62V30.7273H209.884V43.6303H223.306V30.7273H229.902V62H223.306V49.0817H209.884V62H203.272ZM233.521 30.7273H240.927L248.058 44.1953H248.364L255.495 30.7273H262.901L251.494 50.9446V62H244.928V50.9446L233.521 30.7273ZM275.273 36.1786V30.7273H300.957V36.1786H291.383V62H284.847V36.1786H275.273ZM306.756 62H299.671L310.466 30.7273H318.987L329.767 62H322.682L314.849 37.8736H314.604L306.756 62ZM306.313 49.7077H323.049V54.869H306.313V49.7077ZM333.532 30.7273H341.686L350.298 51.7386H350.664L359.277 30.7273H367.431V62H361.017V41.6452H360.758L352.665 61.8473H348.297L340.204 41.5689H339.945V62H333.532V30.7273ZM379.49 30.7273V62H372.878V30.7273H379.49ZM412.523 41.6758H405.834C405.712 40.8105 405.463 40.0419 405.086 39.37C404.71 38.688 404.226 38.1077 403.636 37.6293C403.045 37.1508 402.363 36.7843 401.589 36.5298C400.826 36.2753 399.996 36.1481 399.1 36.1481C397.482 36.1481 396.072 36.5502 394.871 37.3544C393.669 38.1484 392.738 39.3089 392.076 40.8359C391.415 42.3527 391.084 44.1953 391.084 46.3636C391.084 48.593 391.415 50.4661 392.076 51.983C392.748 53.4998 393.685 54.645 394.886 55.4187C396.087 56.1924 397.477 56.5792 399.055 56.5792C399.94 56.5792 400.76 56.4621 401.513 56.228C402.277 55.9938 402.954 55.6528 403.544 55.2049C404.134 54.7468 404.623 54.192 405.01 53.5405C405.407 52.889 405.682 52.1458 405.834 51.3111L412.523 51.3416C412.35 52.777 411.917 54.1615 411.225 55.495C410.543 56.8184 409.621 58.0044 408.461 59.0529C407.311 60.0913 405.936 60.9158 404.338 61.5266C402.75 62.1272 400.953 62.4276 398.948 62.4276C396.158 62.4276 393.664 61.7964 391.465 60.5341C389.277 59.2718 387.546 57.4445 386.274 55.0522C385.011 52.6599 384.38 49.7637 384.38 46.3636C384.38 42.9534 385.022 40.0521 386.304 37.6598C387.587 35.2675 389.328 33.4453 391.527 32.1932C393.725 30.9309 396.199 30.2997 398.948 30.2997C400.76 30.2997 402.439 30.5542 403.987 31.0632C405.544 31.5722 406.924 32.3153 408.125 33.2926C409.326 34.2597 410.303 35.4457 411.057 36.8505C411.82 38.2553 412.309 39.8638 412.523 41.6758ZM417.264 62V30.7273H438.336V36.1786H423.876V43.6303H437.252V49.0817H423.876V56.5487H438.397V62H417.264ZM449.06 52.6243V52.1051C449.07 50.3236 449.228 48.9035 449.533 47.8448C449.849 46.7861 450.307 45.931 450.907 45.2795C451.508 44.628 452.231 44.0375 453.076 43.5082C453.707 43.101 454.272 42.6785 454.771 42.2408C455.269 41.803 455.666 41.3195 455.962 40.7901C456.257 40.2506 456.404 39.65 456.404 38.9883C456.404 38.2859 456.237 37.67 455.901 37.1406C455.565 36.6113 455.112 36.2041 454.542 35.919C453.982 35.634 453.361 35.4915 452.679 35.4915C452.017 35.4915 451.391 35.6391 450.8 35.9343C450.21 36.2193 449.726 36.6469 449.35 37.217C448.973 37.7769 448.77 38.4742 448.739 39.3089H442.509C442.56 37.273 443.048 35.5933 443.975 34.2699C444.901 32.9363 446.128 31.9438 447.655 31.2923C449.182 30.6306 450.867 30.2997 452.709 30.2997C454.735 30.2997 456.527 30.6357 458.084 31.3075C459.642 31.9692 460.863 32.9312 461.749 34.1935C462.635 35.4558 463.077 36.9777 463.077 38.7592C463.077 39.9503 462.879 41.009 462.482 41.9354C462.095 42.8516 461.55 43.666 460.848 44.3786C460.146 45.081 459.316 45.7172 458.359 46.2873C457.555 46.7657 456.893 47.2646 456.374 47.7837C455.865 48.3029 455.483 48.9035 455.229 49.5856C454.984 50.2676 454.857 51.1075 454.847 52.1051V52.6243H449.06ZM452.083 62.397C451.065 62.397 450.195 62.0407 449.472 61.3281C448.759 60.6054 448.408 59.7401 448.418 58.7322C448.408 57.7346 448.759 56.8795 449.472 56.1669C450.195 55.4543 451.065 55.098 452.083 55.098C453.05 55.098 453.9 55.4543 454.633 56.1669C455.366 56.8795 455.738 57.7346 455.748 58.7322C455.738 59.4041 455.56 60.02 455.213 60.5799C454.877 61.1296 454.435 61.5724 453.885 61.9084C453.335 62.2341 452.735 62.397 452.083 62.397ZM475.431 30.7273L474.835 52.6243H469.246L468.636 30.7273H475.431ZM472.041 62.397C471.033 62.397 470.168 62.0407 469.445 61.3281C468.722 60.6054 468.366 59.7401 468.376 58.7322C468.366 57.7346 468.722 56.8795 469.445 56.1669C470.168 55.4543 471.033 55.098 472.041 55.098C473.008 55.098 473.858 55.4543 474.591 56.1669C475.324 56.8795 475.695 57.7346 475.706 58.7322C475.695 59.4041 475.517 60.02 475.171 60.5799C474.835 61.1296 474.392 61.5724 473.843 61.9084C473.293 62.2341 472.692 62.397 472.041 62.397Z" fill="white"/>
<path d="M173.362 2.741H175.147V15.254H173.362V2.741ZM174.652 8.1375H178.028V9.621H174.652V8.1375ZM169.041 15.426C172.975 15.426 175.362 16.6515 175.362 18.78C175.362 20.9085 172.975 22.134 169.041 22.134C165.128 22.134 162.72 20.9085 162.72 18.78C162.72 16.6515 165.128 15.426 169.041 15.426ZM169.041 16.802C166.203 16.802 164.483 17.533 164.483 18.78C164.483 20.0485 166.203 20.758 169.041 20.758C171.9 20.758 173.62 20.0485 173.62 18.78C173.62 17.533 171.9 16.802 169.041 16.802ZM160.118 4.934H171.599V6.353H160.118V4.934ZM165.859 7.342C168.632 7.342 170.503 8.675 170.503 10.7605C170.503 12.8675 168.632 14.2005 165.859 14.2005C163.064 14.2005 161.193 12.8675 161.193 10.7605C161.193 8.675 163.064 7.342 165.859 7.342ZM165.859 8.6965C164.074 8.6965 162.892 9.5135 162.892 10.7605C162.892 12.029 164.074 12.846 165.859 12.846C167.6 12.846 168.804 12.029 168.804 10.7605C168.804 9.5135 167.6 8.6965 165.859 8.6965ZM164.956 2.569H166.74V5.7295H164.956V2.569ZM184.562 3.7515H186.045V5.7295C186.045 9.4705 183.938 12.5665 180.692 13.835L179.746 12.3945C182.67 11.3195 184.562 8.6965 184.562 5.7295V3.7515ZM184.884 3.7515H186.346V5.8585C186.346 8.4815 188.281 10.911 191.076 11.8785L190.13 13.276C187.013 12.115 184.884 9.234 184.884 5.8585V3.7515ZM193.14 2.741H194.925V14.523H193.14V2.741ZM194.43 7.7505H197.806V9.2555H194.43V7.7505ZM188.733 15.0605C192.71 15.0605 195.118 16.372 195.118 18.608C195.118 20.844 192.71 22.134 188.733 22.134C184.755 22.134 182.347 20.844 182.347 18.608C182.347 16.372 184.755 15.0605 188.733 15.0605ZM188.733 16.4795C185.852 16.4795 184.089 17.2535 184.089 18.608C184.089 19.9625 185.852 20.7365 188.733 20.7365C191.614 20.7365 193.377 19.9625 193.377 18.608C193.377 17.2535 191.614 16.4795 188.733 16.4795ZM207.528 4.676H220.041V6.1595H207.528V4.676ZM205.679 17.9845H223.244V19.468H205.679V17.9845ZM212.494 11.04H214.279V18.7155H212.494V11.04ZM219.374 4.676H221.137V6.611C221.137 9.019 221.137 11.685 220.428 15.6195L218.643 15.383C219.374 11.6635 219.374 8.933 219.374 6.611V4.676ZM240.12 2.741H241.818V14.2005H240.12V2.741ZM237.024 7.6215H240.7V9.105H237.024V7.6215ZM235.884 3.1065H237.561V14.093H235.884V3.1065ZM228.768 15.125H241.818V22.177H240.055V16.587H228.768V15.125ZM232.1 4.1815H233.906C233.906 8.8255 231.326 12.33 226.424 14.394L225.543 13.0825C229.864 11.3195 232.1 8.417 232.1 4.7835V4.1815ZM226.317 4.1815H232.745V5.6435H226.317V4.1815ZM259.361 2.741H261.145V13.749H259.361V2.741ZM246.439 3.859H248.202V11.771H246.439V3.859ZM246.439 10.782H248.009C251.255 10.782 254.158 10.567 257.254 9.922L257.512 11.384C254.287 12.072 251.363 12.287 248.009 12.287H246.439V10.782ZM248.589 14.695H261.145V21.919H248.589V14.695ZM259.404 16.114H250.331V20.457H259.404V16.114ZM273.785 3.0635C278.064 3.0635 280.622 4.2675 280.622 6.439C280.622 8.6105 278.064 9.8145 273.785 9.8145C269.485 9.8145 266.948 8.6105 266.948 6.439C266.948 4.2675 269.485 3.0635 273.785 3.0635ZM273.785 4.418C270.603 4.418 268.776 5.149 268.776 6.439C268.776 7.729 270.603 8.46 273.785 8.46C276.946 8.46 278.773 7.729 278.773 6.439C278.773 5.149 276.946 4.418 273.785 4.418ZM264.992 11.1045H282.557V12.545H264.992V11.1045ZM267.12 14.2005H280.321V18.5865H268.926V20.9515H267.163V17.2965H278.558V15.5765H267.12V14.2005ZM267.163 20.5645H280.902V21.962H267.163V20.5645ZM303.975 2.741H305.781V22.177H303.975V2.741ZM305.351 10.3735H308.963V11.9H305.351V10.3735ZM291.591 4.375H293.354V9.5135H298.901V4.375H300.664V17.5115H291.591V4.375ZM293.354 10.9325V16.0495H298.901V10.9325H293.354ZM323.775 2.7195H325.559V22.1985H323.775V2.7195ZM325.129 10.4595H328.741V11.9645H325.129V10.4595ZM311.391 16.028H312.939C316.594 16.028 319.131 15.899 322.076 15.34L322.27 16.8235C319.238 17.361 316.658 17.5115 312.939 17.5115H311.391V16.028ZM311.348 4.547H320.141V11.513H313.154V16.63H311.391V10.051H318.378V6.009H311.348V4.547ZM332.717 3.0635H334.48V5.1275H343.876V3.0635H345.66V10.0725H332.717V3.0635ZM334.48 6.525V8.632H343.876V6.525H334.48ZM332.61 14.867H334.373V16.845H343.94V14.867H345.703V21.919H332.61V14.867ZM334.373 18.2425V20.4785H343.94V18.2425H334.373ZM330.374 12.1365H347.939V13.577H330.374V12.1365ZM338.286 9.5995H340.049V12.76H338.286V9.5995ZM364.299 2.741H366.084V22.177H364.299V2.741ZM351.399 4.633H353.162V16.673H351.399V4.633ZM351.399 15.6195H352.99C355.936 15.6195 359.01 15.4045 362.3 14.7165L362.515 16.243C359.139 16.931 356.065 17.1675 352.99 17.1675H351.399V15.6195ZM383.088 2.7195H384.894V22.1985H383.088V2.7195ZM384.464 10.395H388.076V11.9H384.464V10.395ZM370.769 15.856H372.295C375.886 15.856 378.401 15.727 381.304 15.1895L381.497 16.6945C378.509 17.2535 375.95 17.361 372.295 17.361H370.769V15.856ZM370.769 4.6115H379.799V6.0735H372.532V16.5225H370.769V4.6115Z" fill="white"/>
<path d="M180.374 99.582H195.134V100.806H180.374V99.582ZM186.962 100.32H188.438V106.404H186.962V100.32ZM182.246 91.032H193.226V97.386H182.246V91.032ZM191.768 92.238H183.722V96.18H191.768V92.238ZM201.055 99.672H202.531V103.668H201.055V99.672ZM206.257 99.636H207.715V103.65H206.257V99.636ZM196.951 103.164H211.693V104.406H196.951V103.164ZM198.733 91.338H209.875V96.252H200.263V99.528H198.787V95.064H208.399V92.544H198.733V91.338ZM198.787 98.862H210.253V100.086H198.787V98.862ZM222.892 91.662H224.134V92.976C224.134 95.928 222.28 98.394 219.562 99.384L218.788 98.196C221.236 97.368 222.892 95.262 222.892 92.976V91.662ZM223.18 91.662H224.422V92.976C224.422 95.136 226.114 97.098 228.526 97.89L227.77 99.078C225.07 98.16 223.18 95.784 223.18 92.976V91.662ZM219.184 91.266H228.094V92.472H219.184V91.266ZM230.398 90.15H231.91V99.6H230.398V90.15ZM221.398 100.482H231.91V106.188H221.398V100.482ZM230.434 101.67H222.856V104.982H230.434V101.67ZM240.193 103.092H254.935V104.334H240.193V103.092ZM246.781 99.204H248.275V103.452H246.781V99.204ZM241.921 91.284H243.397V94.182H251.695V91.284H253.171V99.6H241.921V91.284ZM243.397 95.388V98.376H251.695V95.388H243.397ZM257.615 91.392H264.815V92.616H257.615V91.392ZM260.063 95.028H261.539V99.096H260.063V95.028ZM264.221 91.392H265.697V92.256C265.697 93.318 265.697 94.938 265.265 97.08L263.807 96.918C264.221 94.776 264.221 93.3 264.221 92.256V91.392ZM267.911 90.132H269.405V102.39H267.911V90.132ZM268.721 95.424H271.727V96.666H268.721V95.424ZM259.127 104.82H269.927V106.044H259.127V104.82ZM259.127 101.256H260.603V105.198H259.127V101.256ZM256.787 99.798L256.625 98.574C259.523 98.574 263.519 98.502 266.813 98.052L266.921 99.132C263.537 99.726 259.649 99.798 256.787 99.798ZM276.041 103.21L275.938 103.901C275.866 104.386 275.755 104.906 275.606 105.46C275.461 106.014 275.31 106.536 275.152 107.026C274.994 107.516 274.865 107.906 274.762 108.196H273.612C273.667 107.923 273.74 107.563 273.829 107.116C273.918 106.668 274.008 106.168 274.097 105.614C274.191 105.064 274.268 104.501 274.328 103.926L274.404 103.21H276.041ZM284.101 101.256H285.379C288.385 101.256 290.455 101.184 292.903 100.752L293.065 101.976C290.545 102.408 288.421 102.498 285.379 102.498H284.101V101.256ZM284.101 91.608H291.679V92.85H285.595V101.688H284.101V91.608ZM285.217 96.162H291.319V97.368H285.217V96.162ZM294.415 90.132H295.927V106.404H294.415V90.132ZM295.567 96.666H298.591V97.926H295.567V96.666ZM300.894 91.716H308.382V102.318H300.894V91.716ZM306.924 92.922H302.352V101.112H306.924V92.922ZM311.784 90.114H313.278V106.422H311.784V90.114ZM323.051 91.248H324.347V92.49C324.347 96.036 321.053 98.79 317.795 99.528L317.129 98.286C319.991 97.746 323.051 95.262 323.051 92.49V91.248ZM323.321 91.248H324.617V92.49C324.617 95.28 327.695 97.746 330.539 98.286L329.873 99.528C326.633 98.79 323.321 96.054 323.321 92.49V91.248ZM316.535 102.984H331.277V104.208H316.535V102.984ZM349.172 90.114H350.666V106.422H349.172V90.114ZM350.306 96.594H353.33V97.854H350.306V96.594ZM338.804 101.256H340.1C343.16 101.256 345.284 101.148 347.75 100.68L347.912 101.922C345.374 102.372 343.214 102.498 340.1 102.498H338.804V101.256ZM338.768 91.644H346.13V97.476H340.28V101.76H338.804V96.252H344.654V92.868H338.768V91.644ZM354.696 98.376H369.456V99.6H354.696V98.376ZM361.428 99.15H362.94V102.894H361.428V99.15ZM356.568 104.802H367.818V106.044H356.568V104.802ZM356.568 101.292H358.062V105.144H356.568V101.292ZM362.058 90.528C365.496 90.528 367.764 91.788 367.764 93.804C367.764 95.82 365.496 97.08 362.058 97.08C358.602 97.08 356.352 95.82 356.352 93.804C356.352 91.788 358.602 90.528 362.058 90.528ZM362.058 91.752C359.574 91.752 357.936 92.544 357.936 93.804C357.936 95.082 359.574 95.856 362.058 95.856C364.542 95.856 366.18 95.082 366.18 93.804C366.18 92.544 364.542 91.752 362.058 91.752ZM375.575 92.454H376.781V95.1C376.781 98.538 374.711 101.994 372.119 103.272L371.255 102.084C373.613 100.968 375.575 97.908 375.575 95.1V92.454ZM375.863 92.454H377.069V95.1C377.069 97.854 379.031 100.662 381.425 101.688L380.579 102.876C377.951 101.652 375.863 98.484 375.863 95.1V92.454ZM371.795 91.788H380.885V93.048H371.795V91.788ZM383.081 90.132H384.575V106.404H383.081V90.132ZM392.894 97.872H407.6V99.114H392.894V97.872ZM394.748 95.118H405.89V96.324H394.748V95.118ZM394.748 90.78H405.764V92.004H396.224V95.694H394.748V90.78ZM400.22 100.518C403.694 100.518 405.8 101.58 405.8 103.452C405.8 105.324 403.694 106.368 400.22 106.368C396.746 106.368 394.64 105.324 394.64 103.452C394.64 101.58 396.746 100.518 400.22 100.518ZM400.22 101.67C397.682 101.67 396.152 102.318 396.152 103.452C396.152 104.568 397.682 105.198 400.22 105.198C402.776 105.198 404.288 104.568 404.288 103.452C404.288 102.318 402.776 101.67 400.22 101.67ZM425.639 90.132H427.133V98.412H425.639V90.132ZM426.485 93.624H429.527V94.866H426.485V93.624ZM416.801 99.186H427.133V103.182H418.313V105.612H416.837V102.048H425.675V100.374H416.801V99.186ZM416.837 104.982H427.727V106.188H416.837V104.982ZM418.997 90.708C421.445 90.708 423.209 92.202 423.209 94.326C423.209 96.468 421.445 97.962 418.997 97.962C416.585 97.962 414.803 96.468 414.803 94.326C414.803 92.202 416.585 90.708 418.997 90.708ZM418.997 91.932C417.431 91.932 416.261 92.922 416.261 94.326C416.261 95.748 417.431 96.738 418.997 96.738C420.599 96.738 421.769 95.748 421.769 94.326C421.769 92.922 420.599 91.932 418.997 91.932ZM435.394 91.374C437.788 91.374 439.48 93.588 439.48 97.044C439.48 100.518 437.788 102.732 435.394 102.732C433 102.732 431.308 100.518 431.308 97.044C431.308 93.588 433 91.374 435.394 91.374ZM435.394 92.724C433.81 92.724 432.73 94.416 432.73 97.044C432.73 99.69 433.81 101.418 435.394 101.418C436.96 101.418 438.058 99.69 438.058 97.044C438.058 94.416 436.96 92.724 435.394 92.724ZM442.072 90.132H443.584V106.404H442.072V90.132ZM443.224 96.63H446.248V97.89H443.224V96.63ZM449.648 96.18H460.52V97.404H449.648V96.18ZM447.614 99.51H462.374V100.752H447.614V99.51ZM454.202 100.194H455.678V106.35H454.202V100.194ZM449.648 91.086H460.304V92.31H451.16V96.774H449.648V91.086ZM471.985 92.994H476.539V94.218H471.985V92.994ZM471.985 96.468H476.575V97.71H471.985V96.468ZM464.929 91.536H472.363V99.168H464.929V91.536ZM470.887 92.742H466.387V97.962H470.887V92.742ZM476.071 90.15H477.565V102.03H476.071V90.15ZM467.107 104.82H477.961V106.044H467.107V104.82ZM467.107 100.95H468.601V105.378H467.107V100.95ZM489.286 90.33H490.42V91.212C490.42 93.03 489.25 95.064 486.946 95.91L486.226 94.812C488.188 94.11 489.286 92.472 489.286 91.212V90.33ZM489.628 90.33H490.762V91.212C490.762 92.454 491.806 94.164 493.714 94.92L493.138 96.09C490.744 95.226 489.628 92.958 489.628 91.212V90.33ZM495.532 90.33H496.666V91.212C496.666 93.048 495.55 95.244 493.138 96.09L492.58 94.92C494.488 94.182 495.532 92.526 495.532 91.212V90.33ZM495.874 90.33H497.008V91.212C497.008 92.634 498.088 94.164 500.068 94.812L499.366 95.91C497.044 95.136 495.874 93.174 495.874 91.212V90.33ZM485.794 97.026H500.5V98.232H485.794V97.026ZM487.576 99.564H498.628V103.362H489.088V105.432H487.612V102.264H497.152V100.716H487.576V99.564ZM487.612 105.054H499.114V106.224H487.612V105.054ZM502.371 103.092H517.113V104.334H502.371V103.092ZM508.959 98.88H510.453V103.434H508.959V98.88ZM504.081 91.482H515.313V99.15H504.081V91.482ZM513.873 92.688H505.539V97.944H513.873V92.688ZM522.979 100.14H524.131V101.022C524.131 103.146 522.799 105.288 520.459 106.188L519.703 105.072C521.755 104.334 522.979 102.588 522.979 101.022V100.14ZM523.303 100.14H524.419V101.022C524.419 102.66 525.391 104.406 527.335 105.198L526.705 106.332C524.365 105.414 523.303 103.182 523.303 101.022V100.14ZM528.991 100.14H530.107V101.022C530.107 102.93 529.027 105.342 526.705 106.332L526.075 105.198C528.001 104.316 528.991 102.426 528.991 101.022V100.14ZM529.297 100.14H530.449V101.022C530.449 102.696 531.655 104.37 533.725 105.072L532.969 106.188C530.593 105.324 529.297 103.272 529.297 101.022V100.14ZM530.755 90.15H532.267V99.438H530.755V90.15ZM523.537 91.086C526.003 91.086 527.767 92.634 527.767 94.884C527.767 97.134 526.003 98.664 523.537 98.664C521.071 98.664 519.289 97.134 519.289 94.884C519.289 92.634 521.071 91.086 523.537 91.086ZM523.537 92.328C521.917 92.328 520.747 93.372 520.747 94.884C520.747 96.396 521.917 97.422 523.537 97.422C525.157 97.422 526.327 96.396 526.327 94.884C526.327 93.372 525.157 92.328 523.537 92.328ZM537.468 95.01H548.52V96.234H537.468V95.01ZM535.47 98.412H550.23V99.636H535.47V98.412ZM537.468 90.726H538.944V95.622H537.468V90.726ZM537.36 104.784H548.61V106.008H537.36V104.784ZM537.36 101.256H538.836V105.108H537.36V101.256ZM557.793 101.256H559.071C562.077 101.256 564.147 101.184 566.595 100.752L566.757 101.976C564.237 102.408 562.113 102.498 559.071 102.498H557.793V101.256ZM557.793 91.608H565.371V92.85H559.287V101.688H557.793V91.608ZM558.909 96.162H565.011V97.368H558.909V96.162ZM568.107 90.132H569.619V106.404H568.107V90.132ZM569.259 96.666H572.283V97.926H569.259V96.666ZM574.585 91.716H582.073V102.318H574.585V91.716ZM580.615 92.922H576.043V101.112H580.615V92.922ZM585.475 90.114H586.969V106.422H585.475V90.114ZM596.742 91.248H598.038V92.49C598.038 96.036 594.744 98.79 591.486 99.528L590.82 98.286C593.682 97.746 596.742 95.262 596.742 92.49V91.248ZM597.012 91.248H598.308V92.49C598.308 95.28 601.386 97.746 604.23 98.286L603.564 99.528C600.324 98.79 597.012 96.054 597.012 92.49V91.248ZM590.226 102.984H604.968V104.208H590.226V102.984ZM624.231 90.132H625.671V106.404H624.231V90.132ZM621.243 90.474H622.647V105.594H621.243V90.474ZM618.993 95.64H621.891V96.846H618.993V95.64ZM618.867 99.366H621.783V100.572H618.867V99.366ZM611.811 92.922H619.821V94.128H611.811V92.922ZM615.789 95.244C617.769 95.244 619.209 96.774 619.209 99.006C619.209 101.22 617.769 102.768 615.789 102.768C613.827 102.768 612.387 101.22 612.387 99.006C612.387 96.774 613.827 95.244 615.789 95.244ZM615.789 96.504C614.583 96.504 613.701 97.53 613.701 99.006C613.701 100.464 614.583 101.49 615.789 101.49C617.013 101.49 617.877 100.464 617.877 99.006C617.877 97.53 617.013 96.504 615.789 96.504ZM615.069 90.546H616.545V93.606H615.069V90.546ZM629.09 97.908H630.134C632.69 97.908 634.202 97.854 636.02 97.494L636.164 98.718C634.292 99.078 632.744 99.15 630.134 99.15H629.09V97.908ZM629.09 91.32H635.39V92.544H630.53V98.574H629.09V91.32ZM630.08 94.56H635.192V95.73H630.08V94.56ZM640.682 90.132H642.104V99.996H640.682V90.132ZM638.054 94.38H641.132V95.604H638.054V94.38ZM637.1 90.438H638.504V99.906H637.1V90.438ZM631.196 100.86H642.104V106.404H640.628V102.084H631.196V100.86Z" fill="white"/>
<path d="M167.562 92.792H160V106.681H174.12V98.656" stroke="white" stroke-width="1.8"/>
<path d="M162.315 96.8022L166.944 102.202L176.744 90.3193" stroke="white" stroke-width="1.8"/>
</g>
</g>
<defs>
<clipPath id="clip0_12127_18407">
<rect width="800" height="109" fill="white"/>
</clipPath>
</defs>
</svg>
