<svg width="345" height="47" viewBox="0 0 345 47" fill="none" xmlns="http://www.w3.org/2000/svg">
<g clip-path="url(#clip0_12127_18355)">
<mask id="mask0_12127_18355" style="mask-type:luminance" maskUnits="userSpaceOnUse" x="0" y="0" width="345" height="47">
<path d="M345 0H0V47H345V0Z" fill="white"/>
</mask>
<g mask="url(#mask0_12127_18355)">
<path d="M86.9499 26.165L84.2447 16.7105H86.4283L87.9933 23.2797H88.0717L89.7983 16.7105H91.668L93.3899 23.2936H93.473L95.038 16.7105H97.2216L94.5163 26.165H92.5682L90.7678 19.9836H90.6939L88.8981 26.165H86.9499ZM98.2915 26.165V16.7105H100.29V20.6114H104.348V16.7105H106.343V26.165H104.348V22.2595H100.29V26.165H98.2915ZM107.437 16.7105H109.676L111.832 20.7822H111.924L114.08 16.7105H116.319L112.87 22.8227V26.165H110.885V22.8227L107.437 16.7105ZM120.059 18.3586V16.7105H127.824V18.3586H124.93V26.165H122.954V18.3586H120.059ZM129.577 26.165H127.435L130.699 16.7105H133.275L136.534 26.165H134.392L132.024 18.871H131.95L129.577 26.165ZM129.443 22.4488H134.503V24.0091H129.443V22.4488ZM137.672 16.7105H140.138L142.741 23.0628H142.852L145.456 16.7105H147.921V26.165H145.982V20.0113H145.903L143.457 26.1189H142.136L139.69 19.9882H139.611V26.165H137.672V16.7105ZM151.567 16.7105V26.165H149.568V16.7105H151.567ZM161.553 20.0205H159.531C159.494 19.7589 159.419 19.5265 159.305 19.3234C159.191 19.1172 159.045 18.9418 158.867 18.7971C158.688 18.6525 158.482 18.5417 158.248 18.4648C158.017 18.3878 157.766 18.3493 157.495 18.3493C157.006 18.3493 156.58 18.4709 156.217 18.714C155.854 18.9541 155.572 19.305 155.372 19.7666C155.172 20.2252 155.072 20.7822 155.072 21.4378C155.072 22.1118 155.172 22.6781 155.372 23.1366C155.575 23.5952 155.858 23.9414 156.221 24.1753C156.584 24.4092 157.005 24.5262 157.482 24.5262C157.749 24.5262 157.997 24.4908 158.225 24.42C158.456 24.3492 158.66 24.2461 158.839 24.1107C159.017 23.9722 159.165 23.8045 159.282 23.6075C159.402 23.4105 159.485 23.1859 159.531 22.9335L161.553 22.9427C161.501 23.3767 161.37 23.7952 161.161 24.1984C160.955 24.5985 160.676 24.9571 160.325 25.2741C159.978 25.588 159.562 25.8373 159.079 26.0219C158.599 26.2035 158.056 26.2943 157.449 26.2943C156.606 26.2943 155.852 26.1035 155.187 25.7219C154.526 25.3402 154.002 24.7878 153.618 24.0645C153.236 23.3413 153.045 22.4657 153.045 21.4378C153.045 20.4068 153.239 19.5296 153.627 18.8064C154.015 18.0831 154.541 17.5322 155.206 17.1537C155.87 16.772 156.618 16.5812 157.449 16.5812C157.997 16.5812 158.505 16.6582 158.973 16.8121C159.444 16.9659 159.861 17.1906 160.224 17.4861C160.587 17.7784 160.882 18.137 161.11 18.5617C161.341 18.9864 161.489 19.4727 161.553 20.0205ZM162.987 26.165V16.7105H169.358V18.3586H164.986V20.6114H169.03V22.2595H164.986V24.517H169.376V26.165H162.987ZM172.599 23.3305V23.1736C172.603 22.635 172.65 22.2056 172.743 21.8856C172.838 21.5655 172.976 21.307 173.158 21.11C173.34 20.913 173.558 20.7345 173.814 20.5745C174.004 20.4514 174.175 20.3237 174.326 20.1913C174.477 20.059 174.597 19.9128 174.686 19.7528C174.775 19.5896 174.82 19.4081 174.82 19.208C174.82 18.9956 174.769 18.8095 174.668 18.6494C174.566 18.4894 174.429 18.3663 174.257 18.2801C174.087 18.1939 173.9 18.1508 173.694 18.1508C173.493 18.1508 173.304 18.1955 173.126 18.2847C172.947 18.3709 172.801 18.5001 172.687 18.6725C172.573 18.8418 172.512 19.0526 172.502 19.305H170.619C170.634 18.6894 170.782 18.1816 171.062 17.7815C171.342 17.3783 171.713 17.0783 172.175 16.8813C172.636 16.6813 173.146 16.5812 173.703 16.5812C174.315 16.5812 174.857 16.6828 175.328 16.8859C175.799 17.086 176.168 17.3768 176.436 17.7584C176.703 18.1401 176.837 18.6002 176.837 19.1388C176.837 19.4988 176.777 19.8189 176.657 20.099C176.54 20.376 176.376 20.6222 176.163 20.8376C175.951 21.05 175.7 21.2423 175.411 21.4147C175.168 21.5593 174.968 21.7101 174.811 21.8671C174.657 22.0241 174.541 22.2056 174.464 22.4118C174.391 22.618 174.352 22.872 174.349 23.1736V23.3305H172.599ZM173.513 26.2851C173.206 26.2851 172.943 26.1773 172.724 25.9619C172.509 25.7434 172.402 25.4818 172.406 25.1771C172.402 24.8755 172.509 24.617 172.724 24.4015C172.943 24.1861 173.206 24.0784 173.513 24.0784C173.806 24.0784 174.063 24.1861 174.284 24.4015C174.506 24.617 174.618 24.8755 174.621 25.1771C174.618 25.3802 174.565 25.5664 174.46 25.7357C174.358 25.9019 174.224 26.0358 174.058 26.1373C173.892 26.2358 173.71 26.2851 173.513 26.2851ZM180.572 16.7105L180.392 23.3305H178.702L178.518 16.7105H180.572ZM179.547 26.2851C179.243 26.2851 178.981 26.1773 178.762 25.9619C178.544 25.7434 178.436 25.4818 178.439 25.1771C178.436 24.8755 178.544 24.617 178.762 24.4015C178.981 24.1861 179.243 24.0784 179.547 24.0784C179.84 24.0784 180.097 24.1861 180.318 24.4015C180.54 24.617 180.652 24.8755 180.655 25.1771C180.652 25.3802 180.598 25.5664 180.494 25.7357C180.392 25.9019 180.258 26.0358 180.092 26.1373C179.926 26.2358 179.744 26.2851 179.547 26.2851Z" fill="white"/>
<path d="M89.676 3.38304H90.257V7.45704H89.676V3.38304ZM90.096 5.14004H91.195V5.62304H90.096V5.14004ZM88.269 7.51304C89.55 7.51304 90.327 7.91204 90.327 8.60504C90.327 9.29804 89.55 9.69704 88.269 9.69704C86.995 9.69704 86.211 9.29804 86.211 8.60504C86.211 7.91204 86.995 7.51304 88.269 7.51304ZM88.269 7.96104C87.345 7.96104 86.785 8.19904 86.785 8.60504C86.785 9.01804 87.345 9.24904 88.269 9.24904C89.2 9.24904 89.76 9.01804 89.76 8.60504C89.76 8.19904 89.2 7.96104 88.269 7.96104ZM85.364 4.09704H89.102V4.55904H85.364V4.09704ZM87.233 4.88104C88.136 4.88104 88.745 5.31504 88.745 5.99404C88.745 6.68004 88.136 7.11404 87.233 7.11404C86.323 7.11404 85.714 6.68004 85.714 5.99404C85.714 5.31504 86.323 4.88104 87.233 4.88104ZM87.233 5.32204C86.652 5.32204 86.267 5.58804 86.267 5.99404C86.267 6.40704 86.652 6.67304 87.233 6.67304C87.8 6.67304 88.192 6.40704 88.192 5.99404C88.192 5.58804 87.8 5.32204 87.233 5.32204ZM86.939 3.32704H87.52V4.35604H86.939V3.32704ZM93.3225 3.71204H93.8055V4.35604C93.8055 5.57404 93.1195 6.58204 92.0625 6.99504L91.7545 6.52604C92.7065 6.17604 93.3225 5.32204 93.3225 4.35604V3.71204ZM93.4275 3.71204H93.9035V4.39804C93.9035 5.25204 94.5335 6.04304 95.4435 6.35804L95.1355 6.81304C94.1205 6.43504 93.4275 5.49704 93.4275 4.39804V3.71204ZM96.1155 3.38304H96.6965V7.21904H96.1155V3.38304ZM96.5355 5.01404H97.6345V5.50404H96.5355V5.01404ZM94.6805 7.39404C95.9755 7.39404 96.7595 7.82104 96.7595 8.54904C96.7595 9.27704 95.9755 9.69704 94.6805 9.69704C93.3855 9.69704 92.6015 9.27704 92.6015 8.54904C92.6015 7.82104 93.3855 7.39404 94.6805 7.39404ZM94.6805 7.85604C93.7425 7.85604 93.1685 8.10804 93.1685 8.54904C93.1685 8.99004 93.7425 9.24204 94.6805 9.24204C95.6185 9.24204 96.1925 8.99004 96.1925 8.54904C96.1925 8.10804 95.6185 7.85604 94.6805 7.85604ZM100.8 4.01304H104.874V4.49604H100.8V4.01304ZM100.198 8.34604H105.917V8.82904H100.198V8.34604ZM102.417 6.08504H102.998V8.58404H102.417V6.08504ZM104.657 4.01304H105.231V4.64304C105.231 5.42704 105.231 6.29504 105 7.57604L104.419 7.49904C104.657 6.28804 104.657 5.39904 104.657 4.64304V4.01304ZM111.411 3.38304H111.964V7.11404H111.411V3.38304ZM110.403 4.97204H111.6V5.45504H110.403V4.97204ZM110.032 3.50204H110.578V7.07904H110.032V3.50204ZM107.715 7.41504H111.964V9.71104H111.39V7.89104H107.715V7.41504ZM108.8 3.85204H109.388C109.388 5.36404 108.548 6.50504 106.952 7.17704L106.665 6.75004C108.072 6.17604 108.8 5.23104 108.8 4.04804V3.85204ZM106.917 3.85204H109.01V4.32804H106.917V3.85204ZM117.676 3.38304H118.257V6.96704H117.676V3.38304ZM113.469 3.74704H114.043V6.32304H113.469V3.74704ZM113.469 6.00104H113.98C115.037 6.00104 115.982 5.93104 116.99 5.72104L117.074 6.19704C116.024 6.42104 115.072 6.49104 113.98 6.49104H113.469V6.00104ZM114.169 7.27504H118.257V9.62704H114.169V7.27504ZM117.69 7.73704H114.736V9.15104H117.69V7.73704ZM122.372 3.48804C123.765 3.48804 124.598 3.88004 124.598 4.58704C124.598 5.29404 123.765 5.68604 122.372 5.68604C120.972 5.68604 120.146 5.29404 120.146 4.58704C120.146 3.88004 120.972 3.48804 122.372 3.48804ZM122.372 3.92904C121.336 3.92904 120.741 4.16704 120.741 4.58704C120.741 5.00704 121.336 5.24504 122.372 5.24504C123.401 5.24504 123.996 5.00704 123.996 4.58704C123.996 4.16704 123.401 3.92904 122.372 3.92904ZM119.509 6.10604H125.228V6.57504H119.509V6.10604ZM120.202 7.11404H124.5V8.54204H120.79V9.31204H120.216V8.12204H123.926V7.56204H120.202V7.11404ZM120.216 9.18604H124.689V9.64104H120.216V9.18604ZM132.201 3.38304H132.789V9.71104H132.201V3.38304ZM132.649 5.86804H133.825V6.36504H132.649V5.86804ZM128.169 3.91504H128.743V5.58804H130.549V3.91504H131.123V8.19204H128.169V3.91504ZM128.743 6.05004V7.71604H130.549V6.05004H128.743ZM138.648 3.37604H139.229V9.71804H138.648V3.37604ZM139.089 5.89604H140.265V6.38604H139.089V5.89604ZM134.616 7.70904H135.12C136.31 7.70904 137.136 7.66704 138.095 7.48504L138.158 7.96804C137.171 8.14304 136.331 8.19204 135.12 8.19204H134.616V7.70904ZM134.602 3.97104H137.465V6.23904H135.19V7.90504H134.616V5.76304H136.891V4.44704H134.602V3.97104ZM141.559 3.48804H142.133V4.16004H145.192V3.48804H145.773V5.77004H141.559V3.48804ZM142.133 4.61504V5.30104H145.192V4.61504H142.133ZM141.524 7.33104H142.098V7.97504H145.213V7.33104H145.787V9.62704H141.524V7.33104ZM142.098 8.43004V9.15804H145.213V8.43004H142.098ZM140.796 6.44204H146.515V6.91104H140.796V6.44204ZM143.372 5.61604H143.946V6.64504H143.372V5.61604ZM151.842 3.38304H152.423V9.71104H151.842V3.38304ZM147.642 3.99904H148.216V7.91904H147.642V3.99904ZM147.642 7.57604H148.16C149.119 7.57604 150.12 7.50604 151.191 7.28204L151.261 7.77904C150.162 8.00304 149.161 8.08004 148.16 8.08004H147.642V7.57604ZM157.959 3.37604H158.547V9.71804H157.959V3.37604ZM158.407 5.87504H159.583V6.36504H158.407V5.87504ZM153.948 7.65304H154.445C155.614 7.65304 156.433 7.61104 157.378 7.43604L157.441 7.92604C156.468 8.10804 155.635 8.14304 154.445 8.14304H153.948V7.65304ZM153.948 3.99204H156.888V4.46804H154.522V7.87004H153.948V3.99204Z" fill="white"/>
<path d="M93.6355 41.1343H98.9655V41.5763H93.6355V41.1343ZM96.0145 41.4008H96.5475V43.5978H96.0145V41.4008ZM94.3115 38.0468H98.2765V40.3413H94.3115V38.0468ZM97.75 38.4823H94.8445V39.9058H97.75V38.4823ZM101.104 41.1668H101.637V42.6098H101.104V41.1668ZM102.982 41.1538H103.509V42.6033H102.982V41.1538ZM99.6215 42.4278H104.945V42.8763H99.6215V42.4278ZM100.265 38.1573H104.289V39.9318H100.818V41.1148H100.285V39.5028H103.756V38.5928H100.265V38.1573ZM100.285 40.8743H104.425V41.3163H100.285V40.8743ZM108.989 38.2743H109.438V38.7488C109.438 39.8148 108.768 40.7053 107.787 41.0628L107.507 40.6338C108.391 40.3348 108.989 39.5743 108.989 38.7488V38.2743ZM109.093 38.2743H109.542V38.7488C109.542 39.5288 110.153 40.2373 111.024 40.5233L110.751 40.9523C109.776 40.6208 109.093 39.7628 109.093 38.7488V38.2743ZM107.65 38.1313H110.868V38.5668H107.65V38.1313ZM111.7 37.7283H112.246V41.1408H111.7V37.7283ZM108.45 41.4593H112.246V43.5198H108.45V41.4593ZM111.713 41.8883H108.976V43.0843H111.713V41.8883ZM115.237 42.4018H120.56V42.8503H115.237V42.4018ZM117.616 40.9978H118.155V42.5318H117.616V40.9978ZM115.861 38.1378H116.394V39.1843H119.39V38.1378H119.923V41.1408H115.861V38.1378ZM116.394 39.6198V40.6988H119.39V39.6198H116.394ZM121.528 38.1768H124.128V38.6188H121.528V38.1768ZM122.412 39.4898H122.945V40.9588H122.412V39.4898ZM123.914 38.1768H124.447V38.4888C124.447 38.8723 124.447 39.4573 124.291 40.2308L123.764 40.1723C123.914 39.3988 123.914 38.8658 123.914 38.4888V38.1768ZM125.246 37.7218H125.786V42.1483H125.246V37.7218ZM125.539 39.6328H126.624V40.0813H125.539V39.6328ZM122.074 43.0258H125.974V43.4678H122.074V43.0258ZM122.074 41.7388H122.607V43.1623H122.074V41.7388ZM121.229 41.2123L121.171 40.7703C122.217 40.7703 123.66 40.7443 124.85 40.5818L124.889 40.9718C123.667 41.1863 122.263 41.2123 121.229 41.2123ZM128.182 42.4445L128.145 42.6938C128.119 42.8692 128.079 43.057 128.025 43.257C127.973 43.4571 127.918 43.6456 127.861 43.8225C127.804 43.9995 127.757 44.1403 127.72 44.2449H127.305C127.325 44.1465 127.351 44.0164 127.383 43.8548C127.415 43.6933 127.448 43.5125 127.48 43.3124C127.514 43.1139 127.542 42.9108 127.563 42.703L127.591 42.4445H128.182ZM131.093 41.7388H131.554C132.64 41.7388 133.387 41.7128 134.271 41.5568L134.33 41.9988C133.42 42.1548 132.653 42.1873 131.554 42.1873H131.093V41.7388ZM131.093 38.2548H133.829V38.7033H131.632V41.8948H131.093V38.2548ZM131.496 39.8993H133.699V40.3348H131.496V39.8993ZM134.817 37.7218H135.363V43.5978H134.817V37.7218ZM135.233 40.0813H136.325V40.5363H135.233V40.0813ZM137.157 38.2938H139.861V42.1223H137.157V38.2938ZM139.334 38.7293H137.683V41.6868H139.334V38.7293ZM141.089 37.7153H141.629V43.6043H141.089V37.7153ZM145.158 38.1248H145.626V38.5733C145.626 39.8538 144.436 40.8483 143.26 41.1148L143.019 40.6663C144.053 40.4713 145.158 39.5743 145.158 38.5733V38.1248ZM145.255 38.1248H145.723V38.5733C145.723 39.5808 146.835 40.4713 147.862 40.6663L147.621 41.1148C146.451 40.8483 145.255 39.8603 145.255 38.5733V38.1248ZM142.805 42.3628H148.128V42.8048H142.805V42.3628ZM154.59 37.7153H155.13V43.6043H154.59V37.7153ZM155 40.0553H156.092V40.5103H155V40.0553ZM150.846 41.7388H151.314C152.419 41.7388 153.186 41.6998 154.077 41.5308L154.135 41.9793C153.219 42.1418 152.439 42.1873 151.314 42.1873H150.846V41.7388ZM150.833 38.2678H153.492V40.3738H151.379V41.9208H150.846V39.9318H152.959V38.7098H150.833V38.2678ZM156.585 40.6988H161.915V41.1408H156.585V40.6988ZM159.016 40.9783H159.562V42.3303H159.016V40.9783ZM157.261 43.0193H161.324V43.4678H157.261V43.0193ZM157.261 41.7518H157.801V43.1428H157.261V41.7518ZM159.244 37.8648C160.485 37.8648 161.304 38.3198 161.304 39.0478C161.304 39.7758 160.485 40.2308 159.244 40.2308C157.996 40.2308 157.183 39.7758 157.183 39.0478C157.183 38.3198 157.996 37.8648 159.244 37.8648ZM159.244 38.3068C158.347 38.3068 157.755 38.5928 157.755 39.0478C157.755 39.5093 158.347 39.7888 159.244 39.7888C160.141 39.7888 160.732 39.5093 160.732 39.0478C160.732 38.5928 160.141 38.3068 159.244 38.3068ZM164.125 38.5603H164.56V39.5158C164.56 40.7573 163.813 42.0053 162.877 42.4668L162.565 42.0378C163.416 41.6348 164.125 40.5298 164.125 39.5158V38.5603ZM164.229 38.5603H164.664V39.5158C164.664 40.5103 165.373 41.5243 166.237 41.8948L165.932 42.3238C164.983 41.8818 164.229 40.7378 164.229 39.5158V38.5603ZM162.76 38.3198H166.042V38.7748H162.76V38.3198ZM166.835 37.7218H167.375V43.5978H166.835V37.7218ZM170.379 40.5168H175.689V40.9653H170.379V40.5168ZM171.048 39.5223H175.072V39.9578H171.048V39.5223ZM171.048 37.9558H175.026V38.3978H171.581V39.7303H171.048V37.9558ZM173.024 41.4723C174.279 41.4723 175.039 41.8558 175.039 42.5318C175.039 43.2078 174.279 43.5848 173.024 43.5848C171.77 43.5848 171.009 43.2078 171.009 42.5318C171.009 41.8558 171.77 41.4723 173.024 41.4723ZM173.024 41.8883C172.108 41.8883 171.555 42.1223 171.555 42.5318C171.555 42.9348 172.108 43.1623 173.024 43.1623C173.947 43.1623 174.493 42.9348 174.493 42.5318C174.493 42.1223 173.947 41.8883 173.024 41.8883ZM182.203 37.7218H182.743V40.7118H182.203V37.7218ZM182.509 38.9828H183.607V39.4313H182.509V38.9828ZM179.012 40.9913H182.743V42.4343H179.558V43.3118H179.025V42.0248H182.216V41.4203H179.012V40.9913ZM179.025 43.0843H182.957V43.5198H179.025V43.0843ZM179.805 37.9298C180.689 37.9298 181.326 38.4693 181.326 39.2363C181.326 40.0098 180.689 40.5493 179.805 40.5493C178.934 40.5493 178.29 40.0098 178.29 39.2363C178.29 38.4693 178.934 37.9298 179.805 37.9298ZM179.805 38.3718C179.239 38.3718 178.817 38.7293 178.817 39.2363C178.817 39.7498 179.239 40.1073 179.805 40.1073C180.383 40.1073 180.806 39.7498 180.806 39.2363C180.806 38.7293 180.383 38.3718 179.805 38.3718ZM185.726 38.1703C186.59 38.1703 187.201 38.9698 187.201 40.2178C187.201 41.4723 186.59 42.2718 185.726 42.2718C184.861 42.2718 184.25 41.4723 184.25 40.2178C184.25 38.9698 184.861 38.1703 185.726 38.1703ZM185.726 38.6578C185.154 38.6578 184.764 39.2688 184.764 40.2178C184.764 41.1733 185.154 41.7973 185.726 41.7973C186.291 41.7973 186.688 41.1733 186.688 40.2178C186.688 39.2688 186.291 38.6578 185.726 38.6578ZM188.137 37.7218H188.683V43.5978H188.137V37.7218ZM188.553 40.0683H189.645V40.5233H188.553V40.0683ZM190.873 39.9058H194.799V40.3478H190.873V39.9058ZM190.139 41.1083H195.469V41.5568H190.139V41.1083ZM192.518 41.3553H193.051V43.5783H192.518V41.3553ZM190.873 38.0663H194.721V38.5083H191.419V40.1203H190.873V38.0663ZM198.939 38.7553H200.584V39.1973H198.939V38.7553ZM198.939 40.0098H200.597V40.4583H198.939V40.0098ZM196.391 38.2288H199.076V40.9848H196.391V38.2288ZM198.543 38.6643H196.918V40.5493H198.543V38.6643ZM200.415 37.7283H200.954V42.0183H200.415V37.7283ZM197.178 43.0258H201.097V43.4678H197.178V43.0258ZM197.178 41.6283H197.717V43.2273H197.178V41.6283ZM205.187 37.7933H205.597V38.1118C205.597 38.7683 205.174 39.5028 204.342 39.8083L204.082 39.4118C204.791 39.1583 205.187 38.5668 205.187 38.1118V37.7933ZM205.311 37.7933H205.72V38.1118C205.72 38.5603 206.097 39.1778 206.786 39.4508L206.578 39.8733C205.714 39.5613 205.311 38.7423 205.311 38.1118V37.7933ZM207.443 37.7933H207.852V38.1118C207.852 38.7748 207.449 39.5678 206.578 39.8733L206.377 39.4508C207.066 39.1843 207.443 38.5863 207.443 38.1118V37.7933ZM207.566 37.7933H207.976V38.1118C207.976 38.6253 208.366 39.1778 209.081 39.4118L208.827 39.8083C207.989 39.5288 207.566 38.8203 207.566 38.1118V37.7933ZM203.926 40.2113H209.237V40.6468H203.926V40.2113ZM204.57 41.1278H208.561V42.4993H205.116V43.2468H204.583V42.1028H208.028V41.5438H204.57V41.1278ZM204.583 43.1103H208.736V43.5328H204.583V43.1103ZM209.912 42.4018H215.236V42.8503H209.912V42.4018ZM212.291 40.8808H212.831V42.5253H212.291V40.8808ZM210.53 38.2093H214.586V40.9783H210.53V38.2093ZM214.066 38.6448H211.056V40.5428H214.066V38.6448ZM217.354 41.3358H217.77V41.6543C217.77 42.4213 217.289 43.1948 216.444 43.5198L216.171 43.1168C216.912 42.8503 217.354 42.2198 217.354 41.6543V41.3358ZM217.471 41.3358H217.874V41.6543C217.874 42.2458 218.225 42.8763 218.927 43.1623L218.7 43.5718C217.855 43.2403 217.471 42.4343 217.471 41.6543V41.3358ZM219.525 41.3358H219.928V41.6543C219.928 42.3433 219.538 43.2143 218.7 43.5718L218.472 43.1623C219.168 42.8438 219.525 42.1613 219.525 41.6543V41.3358ZM219.636 41.3358H220.052V41.6543C220.052 42.2588 220.487 42.8633 221.235 43.1168L220.962 43.5198C220.104 43.2078 219.636 42.4668 219.636 41.6543V41.3358ZM220.162 37.7283H220.708V41.0823H220.162V37.7283ZM217.556 38.0663C218.446 38.0663 219.083 38.6253 219.083 39.4378C219.083 40.2503 218.446 40.8028 217.556 40.8028C216.665 40.8028 216.022 40.2503 216.022 39.4378C216.022 38.6253 216.665 38.0663 217.556 38.0663ZM217.556 38.5148C216.971 38.5148 216.548 38.8918 216.548 39.4378C216.548 39.9838 216.971 40.3543 217.556 40.3543C218.141 40.3543 218.563 39.9838 218.563 39.4378C218.563 38.8918 218.141 38.5148 217.556 38.5148ZM222.586 39.4833H226.577V39.9253H222.586V39.4833ZM221.865 40.7118H227.195V41.1538H221.865V40.7118ZM222.586 37.9363H223.119V39.7043H222.586V37.9363ZM222.547 43.0128H226.61V43.4548H222.547V43.0128ZM222.547 41.7388H223.08V43.1298H222.547V41.7388ZM229.926 41.7388H230.387C231.473 41.7388 232.22 41.7128 233.104 41.5568L233.163 41.9988C232.253 42.1548 231.486 42.1873 230.387 42.1873H229.926V41.7388ZM229.926 38.2548H232.662V38.7033H230.465V41.8948H229.926V38.2548ZM230.329 39.8993H232.532V40.3348H230.329V39.8993ZM233.65 37.7218H234.196V43.5978H233.65V37.7218ZM234.066 40.0813H235.158V40.5363H234.066V40.0813ZM235.99 38.2938H238.694V42.1223H235.99V38.2938ZM238.167 38.7293H236.516V41.6868H238.167V38.7293ZM239.922 37.7153H240.462V43.6043H239.922V37.7153ZM243.991 38.1248H244.459V38.5733C244.459 39.8538 243.269 40.8483 242.093 41.1148L241.852 40.6663C242.886 40.4713 243.991 39.5743 243.991 38.5733V38.1248ZM244.088 38.1248H244.556V38.5733C244.556 39.5808 245.668 40.4713 246.695 40.6663L246.454 41.1148C245.284 40.8483 244.088 39.8603 244.088 38.5733V38.1248ZM241.638 42.3628H246.961V42.8048H241.638V42.3628ZM253.917 37.7218H254.437V43.5978H253.917V37.7218ZM252.838 37.8453H253.345V43.3053H252.838V37.8453ZM252.026 39.7108H253.072V40.1463H252.026V39.7108ZM251.98 41.0563H253.033V41.4918H251.98V41.0563ZM249.432 38.7293H252.325V39.1648H249.432V38.7293ZM250.869 39.5678C251.584 39.5678 252.104 40.1203 252.104 40.9263C252.104 41.7258 251.584 42.2848 250.869 42.2848C250.16 42.2848 249.64 41.7258 249.64 40.9263C249.64 40.1203 250.16 39.5678 250.869 39.5678ZM250.869 40.0228C250.433 40.0228 250.115 40.3933 250.115 40.9263C250.115 41.4528 250.433 41.8233 250.869 41.8233C251.311 41.8233 251.623 41.4528 251.623 40.9263C251.623 40.3933 251.311 40.0228 250.869 40.0228ZM250.609 37.8713H251.142V38.9763H250.609V37.8713ZM255.672 40.5298H256.049C256.972 40.5298 257.518 40.5103 258.174 40.3803L258.226 40.8223C257.55 40.9523 256.991 40.9783 256.049 40.9783H255.672V40.5298ZM255.672 38.1508H257.947V38.5928H256.192V40.7703H255.672V38.1508ZM256.029 39.3208H257.875V39.7433H256.029V39.3208ZM259.858 37.7218H260.371V41.2838H259.858V37.7218ZM258.909 39.2558H260.02V39.6978H258.909V39.2558ZM258.564 37.8323H259.071V41.2513H258.564V37.8323ZM256.432 41.5958H260.371V43.5978H259.838V42.0378H256.432V41.5958Z" fill="white"/>
<path d="M88.5848 38.5693H85.5848V44.0793H91.1849V40.8962" stroke="white"/>
<path d="M86.5042 40.1597L88.3412 42.3018L92.2279 37.5889" stroke="white"/>
</g>
</g>
<defs>
<clipPath id="clip0_12127_18355">
<rect width="345" height="47" fill="white"/>
</clipPath>
</defs>
</svg>
