<svg xmlns="http://www.w3.org/2000/svg" xmlns:xlink="http://www.w3.org/1999/xlink" width="345" height="47" viewBox="0 0 345 47">
  <defs>
    <clipPath id="clip-TheMet_banner_f_mobile">
      <rect width="345" height="47"/>
    </clipPath>
  </defs>
  <g id="TheMet_banner_f_mobile" clip-path="url(#clip-TheMet_banner_f_mobile)">
    <g id="Group_46" data-name="Group 46" transform="translate(23)">
      <g id="Group_25" data-name="Group 25">
        <path id="Path_13" data-name="Path 13" d="M3.8-10.558H.971V-6.5h.483a16.578,16.578,0,0,0,2.837-.188L4.231-7.2a15.631,15.631,0,0,1-2.616.188V-8.365H3.681v-.51H1.615v-1.16H3.8Zm.959,5.48H5.4V-8.183h.966V-8.72H5.4v-2.368H4.761Zm5.024-5.433H6.967V-6.56H9.784ZM7.6-7.077v-2.931h1.57v2.931Zm3.374,2.012h.637v-6.023h-.637ZM15.6-10.236v-.456h-.671v.456a2.534,2.534,0,0,1-2.18,2.113l.282.53a3.266,3.266,0,0,0,2.24-1.684A3.213,3.213,0,0,0,17.5-7.593l.3-.53A2.529,2.529,0,0,1,15.6-10.236ZM12.547-5.869h5.5V-6.4h-5.5Zm11.087-5.219h-.61v6.01h.61Zm-5.1,2.6c0,1.3.51,2.123,1.295,2.12.745,0,1.244-.724,1.3-1.9H21.8v2.9h.61v-5.6H21.8v2.187h-.681c-.074-1.127-.567-1.821-1.3-1.818C19.04-10.608,18.53-9.793,18.53-8.492Zm.59,0c0-.959.272-1.519.7-1.516s.718.557.718,1.516-.275,1.519-.718,1.516S19.12-7.536,19.12-8.492Zm7.425-1.067v-1.026H25.9v1.026a3.083,3.083,0,0,1-1.556,2.717l.4.516A3.213,3.213,0,0,0,26.23-8.281,3.067,3.067,0,0,0,27.692-6.44l.389-.51A2.891,2.891,0,0,1,26.545-9.559Zm.872.986h1.342v3.508h.631v-6.023h-.631v2H27.417Zm9.51-2.515H36.3V-8h.631ZM31.97-8.532l.322.5a2.512,2.512,0,0,0,1.526-1.425,2.424,2.424,0,0,0,1.5,1.311l.315-.5a1.969,1.969,0,0,1-1.5-1.824v-.463h-.651v.463A2.1,2.1,0,0,1,31.97-8.532ZM32.983-7.2H36.3v.516H33v1.549h4.132v-.51H33.62V-6.2h3.314v-1.5H32.983Zm7.089-2.354v-1.026h-.644v1.026a3.025,3.025,0,0,1-1.61,2.717l.389.537a3.2,3.2,0,0,0,1.553-1.959A3.1,3.1,0,0,0,41.28-6.44l.382-.5A2.914,2.914,0,0,1,40.073-9.559Zm2.133,4.494h.637v-6.023h-.637Zm6.3-6.023H47.86v4.367H48.5V-8.78h.872v-.53H48.5Zm-4.729,3.2.268.51c1.757-.533,2.831-1.677,2.831-3.253H44.03v.53h2.15C46.055-9.112,45.183-8.311,43.775-7.888Zm.912,2.683h4.065v-.516H45.331V-7.171h-.644Zm7.747-5.52c-1.258,0-2.217.667-2.214,1.677s.956,1.68,2.214,1.677,2.22-.661,2.22-1.677S53.695-10.726,52.434-10.726ZM49.7-5.856h5.5v-.53H49.7Zm1.134-3.193c0-.7.681-1.164,1.6-1.16s1.6.463,1.6,1.16S53.353-7.9,52.434-7.9,50.827-8.348,50.831-9.049ZM61.113-6.332H58.665V-7.385h1.918v-.523H56.914v-.879h3.528v-1.878H56.27v.523h3.542V-9.3H56.284v1.912h1.751v1.053H55.613V-5.8h5.5Zm7.243-4.756h-.61v6.01h.61Zm-5.1,2.6c0,1.3.51,2.123,1.295,2.12a1.219,1.219,0,0,0,1.127-.939h.872v1.938h.6v-5.6h-.6v1.3H65.67a1.21,1.21,0,0,0-1.124-.932C63.762-10.608,63.252-9.793,63.252-8.492Zm.584,0c0-.959.265-1.519.711-1.516s.724.557.724,1.516-.282,1.519-.724,1.516S63.832-7.536,63.835-8.492ZM65.8-9.156h.741v1.321H65.8a4.026,4.026,0,0,0,.05-.657A4.111,4.111,0,0,0,65.8-9.156Zm8.87-1.053h-.852v-.879h-.637v3.562h.637v-.859h.852v-.537h-.852v-.765h.852Zm-5.48.906a1.462,1.462,0,0,0,1.6,1.435,1.474,1.474,0,0,0,1.6-1.435,1.477,1.477,0,0,0-1.6-1.435A1.466,1.466,0,0,0,69.194-9.3Zm.624,0a.891.891,0,0,1,.973-.892.9.9,0,0,1,.979.892.9.9,0,0,1-.979.892A.884.884,0,0,1,69.818-9.3Zm.034,2.562h3.334v1.663h.637v-2.18H69.852ZM79.7-11.088h-.631v6.01H79.7V-8.123h.966v-.53H79.7ZM74.982-9.626h3.562v-.523H77.1v-.859h-.637v.859H74.982Zm.309,1.838a1.4,1.4,0,0,0,1.5,1.4,1.4,1.4,0,0,0,1.5-1.4,1.4,1.4,0,0,0-1.5-1.4A1.4,1.4,0,0,0,75.291-7.788Zm.61,0a.845.845,0,0,1,.885-.872.851.851,0,0,1,.885.872.834.834,0,0,1-.885.865A.829.829,0,0,1,75.9-7.788Zm7.123-1.529v-.637h1.308v-.53H81.039v.53h1.355v.637a3.047,3.047,0,0,1-1.576,2.589l.376.5a3.285,3.285,0,0,0,1.523-1.939A3.074,3.074,0,0,0,84.2-6.379l.362-.5A2.838,2.838,0,0,1,83.024-9.317Zm1.952,4.239h.637V-8.17h.966v-.537h-.966v-2.381h-.637ZM87.954-10.5h-.785l.06,3.454h.664Zm-.865,4.427a.478.478,0,0,0,.476.476.485.485,0,0,0,.476-.476.482.482,0,0,0-.476-.476A.476.476,0,0,0,87.089-6.077Z" transform="translate(67.029 12.088)" fill="#fff"/>
        <path id="Path_12" data-name="Path 12" d="M9.861-19.959H8.327v2.838h-1.8v1.244h1.8v3.937H9.861Zm.266,9.554H4.112v-2.234H2.566v3.466h7.561Zm-5.375-7.4v-.181H6.938v-1.232H.972v1.232h2.21v.169A3.555,3.555,0,0,1,.537-14.415l.785,1.256a4.309,4.309,0,0,0,2.657-2.428,4.153,4.153,0,0,0,2.536,2.2l.761-1.22A3.377,3.377,0,0,1,4.752-17.809Zm9.443.6v-1.824H12.7v1.9a5.448,5.448,0,0,1-2.234,4.807L11.4-11.19a5.028,5.028,0,0,0,2.053-2.887,4.485,4.485,0,0,0,1.9,2.645l.833-1.2A5.214,5.214,0,0,1,14.195-17.2Zm6-2.766H18.724V-8.98H20.2Zm-2.307.157H16.453v3.551H15.028v1.256h1.425v5.52h1.437Zm12.377-.157H28.819V-8.98h1.449Zm-2.295.242H26.512v2.657H25.425a13.62,13.62,0,0,0,.1-1.594H21.21v1.244h2.778A6.211,6.211,0,0,1,20.57-12.35l.906,1.087a7.551,7.551,0,0,0,3.684-4.565h1.353v1.5H24.954v1.244h1.558v3.623h1.461ZM36.641-9.97c1.969,0,3.394-1.075,3.382-2.573a1.993,1.993,0,0,0-1.981-2.029v-.072A1.844,1.844,0,0,0,39.7-16.492c.012-1.389-1.208-2.464-3.032-2.464-1.788,0-3.152,1.039-3.177,2.548h1.739a1.29,1.29,0,0,1,1.437-1.1,1.145,1.145,0,0,1,1.28,1.123c0,.688-.6,1.159-1.461,1.159h-.809v1.341h.809c1.027,0,1.667.507,1.655,1.22.012.7-.616,1.2-1.486,1.2-.845,0-1.474-.435-1.51-1.087H33.307C33.343-11.033,34.72-9.97,36.641-9.97Zm13.187-10H48.366v4.239H47.3V-19.79H45.89V-9.511H47.3V-14.5h1.063v5.52h1.461ZM44.73-18.7H40.636v7.235H41.4a21.162,21.162,0,0,0,3.962-.3l-.109-1.256a16.964,16.964,0,0,1-3.068.254v-4.686H44.73Zm13.752-.278H53.168v7.38h5.314Zm-3.768,1.208h2.271v4.952H54.714Zm7.114-2.2H60.27V-8.956h1.558Zm6.677.29v-.229H66.922v.229c-.012,1.075-1.268,2.15-3.732,2.416l.519,1.159a5.5,5.5,0,0,0,4-1.945,5.446,5.446,0,0,0,4.01,1.945l.507-1.159C69.773-17.531,68.5-18.606,68.5-19.681Zm4.215,4.034H62.7v1.208h4.227v.725H63.855v1.172h6.124v.58H63.867v2.911H71.79v-1.159H65.376v-.664H71.5v-2.838H68.468v-.725H72.72Zm6.206-3.527H73.273v1.256h4.143a14.954,14.954,0,0,1-.254,2.512l1.51.145a16.66,16.66,0,0,0,.254-3.225ZM76.2-16.637H74.662v2.15c-.731.024-1.425.024-2.041.024l.133,1.232a40.071,40.071,0,0,0,6.776-.471l-.085-1.111a31.258,31.258,0,0,1-3.249.278Zm5.423-3.334H80.037v8.225h1.582v-3.587h1.329v-1.292H81.619Zm.338,9.566H75.785v-2.077H74.239v3.309h7.718Zm3.2-.58H83.44l-.6,3.442h1.28Z" transform="translate(66.463 31.971)" fill="#fff"/>
        <path id="Path_11" data-name="Path 11" d="M7.432-24.875H1.708v9.281H7.432v-3.921H8.87v6.878h1.9V-26.156H8.87v5.028H7.432Zm-3.842,1.6H5.55v6.1H3.589Zm10.182-3.083H11.843v14.388h1.929ZM25.953-18.93H17.826v-1.644H25.51v-1.581H17.826v-1.518h8.016V-25.3H15.77v7.969H25.953Zm1.439,3.636H14.221v1.644h13.17Zm12.924.063H34.7V-17.4h4.427v-1.644H30.687v-1.613H38.8v-4.775H28.647v1.613h8.158v1.581H28.663V-17.4h4.032v2.166h-5.55v1.66h13.17ZM52.022-26.013h-10.8v1.486h1.866v1.9H41.318v1.5H45.6v.9H40.069v1.565H53.192v-1.565H47.626v-.9h4.3v-1.5H50.14v-1.9h1.881ZM51.595-17.9H41.587v1.439H49.6v.727h-8v3.668H51.974v-1.486h-8.4v-.822h8.016ZM45.113-22.63v-1.9h3v1.9Zm19.944-3.731H63.049v14.419h2.008ZM60.6-25.16H53.752v1.629h4.791v2.324H53.768v5.9h1.3a39.862,39.862,0,0,0,7.131-.506l-.174-1.629a37.88,37.88,0,0,1-6.166.474v-2.64H60.6Zm12.655-.095h-6.8v7.637h1.2a32.552,32.552,0,0,0,6.593-.443l-.221-1.549a34.429,34.429,0,0,1-5.534.364v-1.439h4.459v-1.6H68.494v-1.391h4.759Zm4.079-1.107H75.308v10.641h2.024v-4.743h1.945v-1.629H77.332Zm.522,12.522H70.012v-2.846H68v4.459h9.85Z" transform="translate(152.72 36.549)" fill="#fff"/>
        <path id="Path_10" data-name="Path 10" d="M1.908-9.265A1.242,1.242,0,0,0,.539-8.053,1.249,1.249,0,0,0,1.908-6.83a1.273,1.273,0,0,0,1.337-1H4.262V-6.7h.553V-9.5H4.262v1.218H3.242A1.269,1.269,0,0,0,1.908-9.265ZM1.069-8.053A.758.758,0,0,1,1.908-8.8a.755.755,0,0,1,.827.752.762.762,0,0,1-.827.757A.766.766,0,0,1,1.069-8.053Zm.344,3.705h3.4v-2.1H4.262v.606h-2.3v-.606H1.413ZM1.961-4.8v-.606h2.3V-4.8ZM9.985-9.5H9.461v5.22h.524Zm-4.5,3.711.315.4A3.839,3.839,0,0,0,7.341-6.964H8.36V-4.54h.524V-9.37H8.36v1.963H7.533a4.415,4.415,0,0,0,.233-1.451H5.727V-8.4H7.215A3.245,3.245,0,0,1,5.482-5.793Zm11.162-.763H11.867V-6.1h1.188v1.818h.571V-6.1h1.247v1.818h.559V-6.1h1.212Zm-4.259-1.6c0,.7.754,1.136,1.858,1.13s1.861-.434,1.858-1.13-.754-1.153-1.858-1.153S12.389-8.857,12.386-8.152Zm.571,0c0-.44.513-.708,1.287-.711s1.29.271,1.293.711-.516.693-1.293.693S12.954-7.724,12.957-8.152Zm5.433-1.177a1.245,1.245,0,0,0-1.375,1.171,1.235,1.235,0,0,0,1.375,1.165,1.235,1.235,0,0,0,1.369-1.165A1.245,1.245,0,0,0,18.389-9.329Zm-.833,1.171a.738.738,0,0,1,.833-.7.741.741,0,0,1,.833.7.749.749,0,0,1-.833.717A.746.746,0,0,1,17.556-8.158Zm.251,1.992H20.69v.46H17.824v1.357h3.589v-.443H18.36v-.5h2.878V-6.609H17.807Zm2.878-.682h.553V-9.5h-.553Zm4.952.623c-1.119,0-1.835.358-1.835.967s.717.964,1.835.961,1.844-.355,1.847-.961S26.767-6.224,25.637-6.224Zm-2.348-.431h4.748V-7.1h-2.3v-.979h-.542V-7.1h-1.9Zm.553-2.15h3.053a4.688,4.688,0,0,1-.14,1.322l.542.058a4.7,4.7,0,0,0,.146-1.387v-.437h-3.6Zm.513,3.548c-.006-.344.492-.545,1.282-.548s1.293.2,1.3.548-.5.533-1.3.536S24.349-4.919,24.355-5.257Zm8.736-1.3H28.314V-6.1H29.5v1.818h.571V-6.1H31.32v1.818h.559V-6.1h1.212Zm-4.259-1.6c0,.7.754,1.136,1.858,1.13s1.861-.434,1.858-1.13-.754-1.153-1.858-1.153S28.835-8.857,28.832-8.152Zm.571,0c0-.44.513-.708,1.287-.711s1.29.271,1.293.711-.516.693-1.293.693S29.4-7.724,29.4-8.152Zm7.207-.023v-.891H36.05v.891a2.627,2.627,0,0,1-1.4,2.359l.338.466a2.781,2.781,0,0,0,1.349-1.7,2.69,2.69,0,0,0,1.32,1.585L37.99-5.9A2.53,2.53,0,0,1,36.609-8.176Zm1.853,3.9h.553V-9.5h-.553ZM42.38-8.764v-.4H41.8v.4A2.2,2.2,0,0,1,39.9-6.929l.245.46a2.837,2.837,0,0,0,1.946-1.462,2.79,2.79,0,0,0,1.94,1.462l.256-.46A2.2,2.2,0,0,1,42.38-8.764ZM39.729-4.972h4.777v-.46H39.729Zm7.256-4.2H45v2.517h.338a9.559,9.559,0,0,0,1.922-.134l-.052-.437a9.251,9.251,0,0,1-1.678.128v-.623h1.253v-.431H45.529v-.565h1.456ZM45.727-4.348h3.49V-6.137h-3.49ZM46.28-4.8v-.9h2.394v.9Zm.74-2.965h.647V-6.41h.524V-9.417h-.524v1.206H47.02ZM48.692-6.37h.524V-9.5h-.524Zm3.487-2.82c-1.092,0-1.925.58-1.922,1.456s.83,1.459,1.922,1.456,1.928-.574,1.928-1.456S53.274-9.189,52.179-9.189ZM49.8-4.96h4.777v-.46H49.8Zm.985-2.773c0-.606.591-1.011,1.392-1.008s1.389.4,1.392,1.008-.594,1-1.392,1S50.784-7.124,50.786-7.733Zm8.829,2.359H57.489v-.915h1.666v-.454H55.968v-.763h3.064V-9.137H55.409v.454h3.076v.734H55.421v1.66h1.52v.915h-2.1v.466h4.777Zm5.7-4.13H64.76v3.082h.559v-1.3h.752v-.454h-.752ZM61.433-6.8h.414A11.552,11.552,0,0,0,64.3-6.97l-.052-.449a10.957,10.957,0,0,1-2.266.169V-8.671h1.783v-.449h-2.33Zm.443,1.491c0,.644.676,1.017,1.754,1.014s1.73-.37,1.73-1.014S64.7-6.32,63.629-6.323,61.876-5.947,61.876-5.309Zm.548,0c0-.361.451-.568,1.206-.565s1.2.2,1.2.565-.46.574-1.2.571S62.421-4.948,62.424-5.309Zm5.3-4.02a1.245,1.245,0,0,0-1.375,1.171,1.235,1.235,0,0,0,1.375,1.165A1.235,1.235,0,0,0,69.1-8.158,1.245,1.245,0,0,0,67.728-9.329Zm-.833,1.171a.738.738,0,0,1,.833-.7.741.741,0,0,1,.833.7.749.749,0,0,1-.833.717A.746.746,0,0,1,66.895-8.158Zm.25,1.992h2.884v.46H67.163v1.357h3.589v-.443H67.7v-.5h2.878V-6.609H67.145Zm2.878-.682h.553V-9.5h-.553ZM77.113-9.5h-.53v5.22h.53ZM72.68-7.249c0,1.133.443,1.844,1.124,1.841a1.059,1.059,0,0,0,.979-.816h.757V-4.54h.524V-9.4H75.54v1.13h-.76a1.051,1.051,0,0,0-.976-.81C73.123-9.087,72.68-8.38,72.68-7.249Zm.507,0c0-.833.23-1.32.618-1.317s.629.484.629,1.317-.245,1.32-.629,1.317S73.184-6.419,73.187-7.249Zm1.71-.577h.644v1.148H74.9a3.5,3.5,0,0,0,.044-.571A3.571,3.571,0,0,0,74.9-7.826Zm7.6-.915h-.74V-9.5h-.553V-6.41h.553v-.746h.74v-.466h-.74v-.664h.74Zm-4.76.786a1.27,1.27,0,0,0,1.387,1.247,1.28,1.28,0,0,0,1.392-1.247A1.283,1.283,0,0,0,79.126-9.2,1.273,1.273,0,0,0,77.74-7.954Zm.542,0a.774.774,0,0,1,.845-.775.784.784,0,0,1,.851.775.777.777,0,0,1-.851.775A.768.768,0,0,1,78.281-7.954Zm.029,2.225h2.9v1.445h.553V-6.177H78.31ZM88.1-9.5h-.553V-4.29H88.1V-6.964h.81v-.46H88.1Zm-4.06,3.822.309.431a3.928,3.928,0,0,0,2.389-3.705H84.3v.46h1.87A3.446,3.446,0,0,1,84.037-5.682Zm9.248-2.412H90.25V-9.411H89.7v1.765h3.583ZM89.068-6.638h4.765v-.454H89.068Zm.565,1.375c0,.612.679.955,1.812.955s1.8-.344,1.8-.955-.676-.952-1.8-.95S89.633-5.872,89.633-5.263Zm.559,0c0-.338.454-.516,1.253-.518s1.247.181,1.247.518-.46.527-1.247.53S90.189-4.928,90.192-5.263Z" transform="translate(74.266 37.054)" fill="#fff"/>
        <path id="Path_9" data-name="Path 9" d="M.867-4.779H3.535v-.553H1.508V-6.62H3.372v-.548H1.508V-8.444h2V-9H.867ZM5.991-7.156H4.121v.536h1.87Zm.134-1.287H7.442v3.664h.641V-8.444H9.393V-9H6.125ZM9.874-4.779H10.5V-7.943H9.874ZM9.792-8.8a.384.384,0,0,0,.4.367.378.378,0,0,0,.39-.367.38.38,0,0,0-.39-.367A.386.386,0,0,0,9.792-8.8Zm2.683,4.084a1.207,1.207,0,0,0,1.3-1.066h-.606a.665.665,0,0,1-.693.536c-.521,0-.856-.425-.856-1.119,0-.673.344-1.1.856-1.1a.678.678,0,0,1,.693.548h.606a1.214,1.214,0,0,0-1.311-1.066A1.475,1.475,0,0,0,11-6.346,1.467,1.467,0,0,0,12.475-4.715Zm1.768-.064h.623V-5.9l.3-.3,1.075,1.421H17L15.639-6.585l1.279-1.357h-.746L14.919-6.609h-.052V-9h-.623Zm4.276.064a1.259,1.259,0,0,0,1.322-.856h-.629a.739.739,0,0,1-.687.344.866.866,0,0,1-.891-.944h2.249v-.221a1.386,1.386,0,0,0-1.4-1.59,1.476,1.476,0,0,0-1.462,1.643A1.46,1.46,0,0,0,18.52-4.715Zm-.883-1.922a.845.845,0,0,1,.848-.833.773.773,0,0,1,.786.833Zm4.224-1.3h-.647V-8.7H20.6v.757H20.13v.5H20.6v1.864a.829.829,0,0,0,.92.845,2.947,2.947,0,0,0,.39-.023V-5.3c-.087.009-.224.017-.315.017-.2,0-.376-.067-.379-.425V-7.447h.647Zm2.677-1.247c-1.092,0-1.925.58-1.922,1.456s.83,1.459,1.922,1.456,1.928-.574,1.928-1.456S25.633-9.189,24.538-9.189ZM22.161-4.96h4.777v-.46H22.161Zm.985-2.773c0-.606.591-1.011,1.392-1.008s1.389.4,1.392,1.008-.594,1-1.392,1S23.142-7.124,23.145-7.733Zm8.829,2.359H29.848v-.915h1.666v-.454H28.327v-.763h3.064V-9.137H27.768v.454h3.076v.734H27.78v1.66H29.3v.915H27.2v.466h4.777ZM38.051-9.5h-.53v2.068h-.676V-9.4h-.507v4.847h.507V-6.981h.676v2.7h.53ZM33.745-5.537h.35a9.2,9.2,0,0,0,1.928-.157l-.041-.454a8.563,8.563,0,0,1-1.684.14V-8.426h1.4v-.449H33.745Zm9.2-3.967h-.559v5.22h.559ZM38.659-5.682l.291.449a3.861,3.861,0,0,0,2.441-3.711H38.91V-8.5h1.922A3.363,3.363,0,0,1,38.659-5.682ZM48.4-7.36h-4.76v.443h2.1v.466H44.214v.414h3.041v.425H44.22v1.276h3.728v-.425H44.762v-.454H47.8V-6.451H46.294v-.466H48.4ZM43.888-8l.175.419a2.591,2.591,0,0,0,1.957-.9,2.6,2.6,0,0,0,1.963.9L48.164-8c-.95-.079-1.7-.446-1.809-.9h1.622v-.437h-3.9V-8.9h1.6C45.572-8.438,44.832-8.074,43.888-8Zm7.241,1.55h-.518v2.1h1.847v-2.1h-.513v.606H51.13ZM50.093-8.077a1.239,1.239,0,0,0,1.369,1.212,1.264,1.264,0,0,0,1.337-.99h1.017v1.119h.553V-9.5h-.553V-8.31H52.8a1.27,1.27,0,0,0-1.334-.973A1.239,1.239,0,0,0,50.093-8.077Zm.53,0a.756.756,0,0,1,.839-.746.752.752,0,0,1,.827.746.765.765,0,0,1-.827.763A.769.769,0,0,1,50.623-8.077Zm.507,3.3V-5.42h.816v.641Zm1.357.052.28.419a1.722,1.722,0,0,0,.926-.935,1.615,1.615,0,0,0,.944.935l.285-.419a1.378,1.378,0,0,1-.95-1.328V-6.48h-.548v.425A1.445,1.445,0,0,1,52.487-4.727ZM59.376-9.5h-.553v5.231h.553Zm-4.142,2.22c0,1.127.562,1.838,1.352,1.835s1.346-.708,1.346-1.835-.571-1.826-1.346-1.829S55.234-8.4,55.234-7.284Zm.536,0c0-.819.329-1.331.816-1.334s.81.516.81,1.334-.332,1.34-.81,1.34S55.767-6.454,55.77-7.284ZM65.493-9.5H64.94v5.22h.553V-7.016h.839v-.466h-.839ZM61.625-5.525H64.1V-9.067h-.548v1.34H62.172v-1.34h-.548Zm.548-.454V-7.29h1.381v1.311Zm9.068.606H69.114v-.915H70.78v-.454H67.593v-.763h3.064V-9.137H67.034v.454H70.11v.734H67.046v1.66h1.52v.915h-2.1v.466H71.24ZM77.165-9.5h-.553v2.8h.553ZM72.941-8.053a1.258,1.258,0,0,0,1.392,1.206A1.253,1.253,0,0,0,75.72-8.053a1.257,1.257,0,0,0-1.387-1.212A1.263,1.263,0,0,0,72.941-8.053Zm.542,0a.764.764,0,0,1,.851-.746.764.764,0,0,1,.845.746.767.767,0,0,1-.845.752A.767.767,0,0,1,73.483-8.053Zm.268,3.705h3.414v-2.1h-.548v.588H74.293v-.588h-.542Zm.542-.454v-.623h2.324V-4.8Zm5.4-3.74v-.14h1.124v-.449H78v.449h1.148v.146a1.8,1.8,0,0,1-1.311,1.666l.285.443a2.147,2.147,0,0,0,1.311-1.241,2.036,2.036,0,0,0,1.258,1.078l.262-.431A1.634,1.634,0,0,1,79.7-8.543ZM78.537-5.275c0,.62.667.982,1.754.979s1.73-.358,1.73-.979-.655-.97-1.73-.967S78.537-5.886,78.537-5.275Zm.553,0c0-.341.446-.533,1.2-.53s1.191.189,1.188.53-.44.545-1.188.542S79.088-4.925,79.09-5.275Zm2.33-1.1h.553V-7.756h.757v-.454h-.757V-9.5h-.553ZM88.313-9.5h-.553V-4.29h.553V-6.964h.81v-.46h-.81Zm-4.06,3.822.309.431a3.928,3.928,0,0,0,2.389-3.705H84.514v.46h1.87A3.446,3.446,0,0,1,84.252-5.682ZM93.5-8.094H90.465V-9.411h-.548v1.765H93.5ZM89.283-6.638h4.765v-.454H89.283Zm.565,1.375c0,.612.679.955,1.812.955s1.8-.344,1.8-.955-.676-.952-1.8-.95S89.848-5.872,89.848-5.263Zm.559,0c0-.338.454-.516,1.253-.518s1.247.181,1.247.518-.46.527-1.247.53S90.4-4.928,90.407-5.263Z" transform="translate(74.101 43.104)" fill="#fff"/>
      </g>
      <g id="Group_9" data-name="Group 9" transform="translate(67.9 27.53)">
        <path id="Path_1" data-name="Path 1" d="M424.776,215.885H421.5v4.959h4.344v-2.705" transform="translate(-421.497 -215.68)" fill="none" stroke="#fff" stroke-width="0.7"/>
        <path id="Path_2" data-name="Path 2" d="M423.668,217.475l1.025,1.352,3.156-3.361" transform="translate(-422.603 -215.467)" fill="none" stroke="#fff" stroke-width="0.7"/>
      </g>
      <g id="Group_24" data-name="Group 24" transform="translate(67.9 33.65)">
        <path id="Path_1-2" data-name="Path 1" d="M424.776,215.885H421.5v4.959h4.344v-2.705" transform="translate(-421.497 -215.68)" fill="none" stroke="#fff" stroke-width="0.7"/>
        <path id="Path_2-2" data-name="Path 2" d="M423.668,217.475l1.025,1.352,3.156-3.361" transform="translate(-422.603 -215.467)" fill="none" stroke="#fff" stroke-width="0.7"/>
      </g>
    </g>
  </g>
</svg>
