<svg width="345" height="47" viewBox="0 0 345 47" fill="none" xmlns="http://www.w3.org/2000/svg">
<g clip-path="url(#clip0_12135_18475)">
<mask id="mask0_12135_18475" style="mask-type:luminance" maskUnits="userSpaceOnUse" x="0" y="0" width="345" height="47">
<path d="M345 0H0V47H345V0Z" fill="white"/>
</mask>
<g mask="url(#mask0_12135_18475)">
<path d="M100.277 17.376H101.421V18.542C101.421 20.28 100.728 22.007 99.067 22.722L98.297 21.589C99.716 20.962 100.277 19.697 100.277 18.542V17.376ZM100.541 17.376H101.685V18.542C101.685 19.675 102.224 20.775 103.566 21.336L102.796 22.447C101.212 21.798 100.541 20.236 100.541 18.542V17.376ZM105.733 16.804H107.119V22.975H105.733V16.804ZM104.512 19.268H106.129V20.456H104.512V19.268ZM103.577 16.958H104.941V22.92H103.577V16.958ZM100.123 23.415H107.119V26.979H105.667V24.581H100.123V23.415ZM115.071 16.782H116.545V27.001H115.071V16.782ZM116.215 20.555H118.019V21.754H116.215V20.555ZM108.955 23.338H109.813C111.529 23.338 112.882 23.283 114.378 23.019L114.521 24.229C112.981 24.504 111.584 24.548 109.813 24.548H108.955V23.338ZM108.955 17.728H113.707V18.905H110.407V23.921H108.955V17.728ZM118.678 22.293H127.907V23.459H118.678V22.293ZM119.833 25.637H127.016V26.803H119.833V25.637ZM119.833 24.02H121.296V26.143H119.833V24.02ZM119.811 17.024H126.785V19.851H121.274V20.907H119.822V18.817H125.344V18.135H119.811V17.024ZM119.822 20.566H126.983V21.666H119.822V20.566ZM132.454 19.994H139.538V21.16H132.454V19.994ZM132.454 17.255H133.917V20.522H132.454V17.255ZM131.354 22.282H140.561V23.459H131.354V22.282ZM133.444 22.7H134.907V26.979H133.444V22.7ZM136.997 22.7H138.46V26.979H136.997V22.7ZM143.53 20.236H144.993V22.117H143.53V20.236ZM147.116 20.236H148.568V22.117H147.116V20.236ZM146.071 16.969C148.315 16.969 149.756 17.728 149.756 18.96C149.756 20.203 148.315 20.962 146.071 20.962C143.827 20.962 142.386 20.203 142.386 18.96C142.386 17.728 143.827 16.969 146.071 16.969ZM146.071 18.102C144.674 18.102 143.893 18.377 143.893 18.96C143.893 19.543 144.674 19.829 146.071 19.829C147.457 19.829 148.249 19.543 148.249 18.96C148.249 18.377 147.457 18.102 146.071 18.102ZM141.462 21.798H150.669V22.953H141.462V21.798ZM142.485 23.646H149.558V26.979H148.095V24.801H142.485V23.646ZM161.223 16.782H162.675V27.001H161.223V16.782ZM158.913 20.368H161.641V21.545H158.913V20.368ZM154.502 17.585H155.954V20.049H157.956V17.585H159.397V24.603H154.502V17.585ZM155.954 21.182V23.426H157.956V21.182H155.954ZM168.031 17.376H169.307V18.113C169.307 20.324 167.734 22.282 165.094 22.799L164.467 21.589C166.766 21.193 168.031 19.576 168.031 18.113V17.376ZM168.328 17.376H169.593V18.113C169.593 19.609 170.847 21.193 173.157 21.589L172.53 22.799C169.89 22.282 168.328 20.357 168.328 18.113V17.376ZM164.258 24.548H173.476V25.736H164.258V24.548ZM176.912 22.832H186.13V24.02H176.912V22.832ZM180.784 23.25H182.236V26.99H180.784V23.25ZM178.056 20.94H185.173V22.095H178.056V20.94ZM178.056 17.2H185.063V18.344H179.497V21.215H178.056V17.2ZM179.09 19.081H184.843V20.192H179.09V19.081ZM189.825 17.497C191.343 17.497 192.454 18.905 192.454 21.127C192.454 23.371 191.343 24.779 189.825 24.779C188.296 24.779 187.196 23.371 187.196 21.127C187.196 18.905 188.296 17.497 189.825 17.497ZM189.825 18.828C189.088 18.828 188.593 19.631 188.593 21.127C188.593 22.645 189.088 23.459 189.825 23.459C190.573 23.459 191.057 22.645 191.057 21.127C191.057 19.631 190.573 18.828 189.825 18.828ZM194.126 16.782H195.578V27.001H194.126V16.782ZM192.025 20.456H194.742V21.633H192.025V20.456ZM199.183 24.9062L199.14 25.3359C199.106 25.6797 199.041 26.0221 198.944 26.3633C198.851 26.707 198.752 27.0182 198.647 27.2969C198.546 27.5755 198.464 27.7943 198.401 27.9531H197.323C197.362 27.7995 197.416 27.5846 197.483 27.3086C197.551 27.0352 197.615 26.7279 197.675 26.3867C197.735 26.0456 197.772 25.6979 197.788 25.3437L197.808 24.9062H199.183ZM203.134 23.349H203.959C205.763 23.349 206.94 23.305 208.26 23.063L208.403 24.24C207.039 24.493 205.818 24.548 203.959 24.548H203.134V23.349ZM203.134 17.695H207.743V18.861H204.597V23.8H203.134V17.695ZM209.745 16.793H211.208V27.012H209.745V16.793ZM207.248 20.302H210.361V21.49H207.248V20.302ZM221.849 16.782H223.301V27.001H221.849V16.782ZM222.971 20.632H224.775V21.842H222.971V20.632ZM215.733 23.437H216.591C218.318 23.437 219.66 23.382 221.156 23.118L221.299 24.295C219.759 24.57 218.362 24.636 216.591 24.636H215.733V23.437ZM215.722 17.651H220.408V21.6H217.185V23.888H215.733V20.434H218.956V18.817H215.722V17.651ZM232.419 16.782H233.893V27.001H232.419V16.782ZM228.404 17.497C229.944 17.497 231.077 18.905 231.077 21.127C231.077 23.371 229.944 24.779 228.404 24.779C226.864 24.779 225.731 23.371 225.731 21.127C225.731 18.905 226.864 17.497 228.404 17.497ZM228.404 18.828C227.645 18.828 227.128 19.631 227.128 21.127C227.128 22.645 227.645 23.459 228.404 23.459C229.163 23.459 229.669 22.645 229.669 21.127C229.669 19.631 229.163 18.828 228.404 18.828ZM236.631 21.49H243.792V22.656H236.631V21.49ZM235.564 24.559H244.782V25.758H235.564V24.559ZM236.631 17.629H243.715V18.817H238.083V21.974H236.631V17.629Z" fill="white"/>
<path d="M103.676 3.225H104.257V7.971H103.676V3.225ZM104.075 5.297H105.195V5.787H104.075V5.297ZM99.364 3.988H103.102V4.457H99.364V3.988ZM101.233 4.807C102.129 4.807 102.745 5.276 102.745 5.99C102.745 6.697 102.129 7.166 101.233 7.166C100.33 7.166 99.714 6.697 99.714 5.99C99.714 5.276 100.33 4.807 101.233 4.807ZM101.233 5.262C100.659 5.262 100.267 5.549 100.267 5.99C100.267 6.424 100.659 6.711 101.233 6.711C101.8 6.711 102.192 6.424 102.192 5.99C102.192 5.549 101.8 5.262 101.233 5.262ZM100.939 3.218H101.52V4.233H100.939V3.218ZM100.316 8.93H104.544V9.406H100.316V8.93ZM100.316 7.593H100.897V9.133H100.316V7.593ZM110.388 3.225H110.976V7.845H110.388V3.225ZM106.909 8.93H111.165V9.406H106.909V8.93ZM106.909 7.369H107.483V9.091H106.909V7.369ZM107.581 3.659C108.526 3.659 109.226 4.303 109.226 5.22C109.226 6.13 108.526 6.781 107.581 6.781C106.636 6.781 105.929 6.13 105.929 5.22C105.929 4.303 106.636 3.659 107.581 3.659ZM107.581 4.163C106.965 4.163 106.496 4.597 106.496 5.22C106.496 5.836 106.965 6.27 107.581 6.27C108.197 6.27 108.666 5.836 108.666 5.22C108.666 4.597 108.197 4.163 107.581 4.163ZM115.407 4.723H117.108V5.206H115.407V4.723ZM113.951 3.505C114.896 3.505 115.582 4.107 115.582 4.975C115.582 5.843 114.896 6.438 113.951 6.438C113.006 6.438 112.32 5.843 112.32 4.975C112.32 4.107 113.006 3.505 113.951 3.505ZM113.951 3.995C113.328 3.995 112.88 4.394 112.88 4.975C112.88 5.549 113.328 5.955 113.951 5.955C114.574 5.955 115.022 5.549 115.022 4.975C115.022 4.394 114.574 3.995 113.951 3.995ZM116.849 3.218H117.43V6.613H116.849V3.218ZM113.377 6.928H113.958V7.726H116.856V6.928H117.43V9.462H113.377V6.928ZM113.958 8.188V8.993H116.856V8.188H113.958ZM121.244 5.717H122.441V6.193H121.244V5.717ZM119.956 4.835H120.404V5.164C120.404 6.424 119.879 7.698 118.955 8.251L118.612 7.81C119.466 7.313 119.956 6.2 119.956 5.164V4.835ZM120.061 4.835H120.509V5.164C120.509 6.172 121.013 7.215 121.867 7.677L121.538 8.111C120.607 7.593 120.061 6.396 120.061 5.164V4.835ZM118.787 4.38H121.678V4.863H118.787V4.38ZM119.956 3.442H120.516V4.751H119.956V3.442ZM123.477 3.218H124.037V9.546H123.477V3.218ZM122.21 3.365H122.756V9.224H122.21V3.365ZM128.54 7.131H129.135V9.546H128.54V7.131ZM130.717 7.131H131.312V9.546H130.717V7.131ZM127.07 6.816H132.81V7.299H127.07V6.816ZM129.926 3.47C131.249 3.47 132.138 4.002 132.138 4.849C132.138 5.689 131.249 6.228 129.926 6.228C128.61 6.228 127.714 5.689 127.714 4.849C127.714 4.002 128.61 3.47 129.926 3.47ZM129.926 3.939C128.96 3.939 128.302 4.296 128.302 4.849C128.302 5.402 128.96 5.759 129.926 5.759C130.892 5.759 131.543 5.402 131.543 4.849C131.543 4.296 130.892 3.939 129.926 3.939ZM135.287 3.449C136.232 3.449 136.925 4.023 136.925 4.856C136.925 5.682 136.232 6.256 135.287 6.256C134.349 6.256 133.656 5.682 133.656 4.856C133.656 4.023 134.349 3.449 135.287 3.449ZM135.287 3.925C134.678 3.925 134.216 4.31 134.216 4.856C134.216 5.402 134.678 5.78 135.287 5.78C135.903 5.78 136.358 5.402 136.358 4.856C136.358 4.31 135.903 3.925 135.287 3.925ZM138.115 3.218H138.703V6.459H138.115V3.218ZM134.608 6.767H138.703V8.307H135.189V9.259H134.622V7.873H138.129V7.236H134.608V6.767ZM134.622 9H138.913V9.462H134.622V9ZM141.924 6.375H147.643V6.837H141.924V6.375ZM144.493 5.283H145.067V6.557H144.493V5.283ZM142.554 7.453H146.943V9.595H146.362V7.929H142.554V7.453ZM142.645 5.143H146.985V5.619H142.645V5.143ZM142.645 3.47H146.929V3.946H143.226V5.388H142.645V3.47ZM151.738 4.8H153.145V5.283H151.738V4.8ZM152.984 3.218H153.565V6.921H152.984V3.218ZM149.463 7.229H153.565V9.462H149.463V7.229ZM152.998 7.691H150.03V8.993H152.998V7.691ZM149.974 3.82H150.45V4.331C150.45 5.486 149.736 6.473 148.679 6.865L148.378 6.403C149.323 6.067 149.974 5.227 149.974 4.331V3.82ZM150.086 3.82H150.555V4.324C150.555 5.143 151.171 5.934 152.088 6.256L151.794 6.718C150.765 6.347 150.086 5.388 150.086 4.324V3.82ZM148.56 3.624H151.941V4.093H148.56V3.624ZM159.222 4.975H160.629V5.444H159.222V4.975ZM159.173 6.564H160.615V7.033H159.173V6.564ZM161.588 3.218H162.148V9.546H161.588V3.218ZM160.321 3.379H160.867V9.224H160.321V3.379ZM158.907 4.016H159.467C159.467 5.675 158.802 7.166 157.101 8.181L156.765 7.768C158.242 6.872 158.907 5.612 158.907 4.121V4.016ZM157.045 4.016H159.138V4.492H157.045V4.016ZM167.943 4.177H169.042V4.667H167.943V4.177ZM167.943 5.535H169.042V6.018H167.943V5.535ZM167.537 3.218H168.118V6.977H167.537V3.218ZM164.009 7.278H168.118V9.546H167.537V7.747H164.009V7.278ZM164.975 3.589C165.927 3.589 166.627 4.205 166.627 5.094C166.627 5.976 165.927 6.585 164.975 6.585C164.023 6.585 163.323 5.976 163.323 5.094C163.323 4.205 164.023 3.589 164.975 3.589ZM164.975 4.086C164.345 4.086 163.89 4.492 163.89 5.094C163.89 5.689 164.345 6.102 164.975 6.102C165.605 6.102 166.06 5.689 166.06 5.094C166.06 4.492 165.605 4.086 164.975 4.086ZM172.507 3.617C173.823 3.617 174.803 4.317 174.803 5.367C174.803 6.424 173.823 7.117 172.507 7.117C171.191 7.117 170.204 6.424 170.204 5.367C170.204 4.317 171.191 3.617 172.507 3.617ZM172.507 4.093C171.506 4.093 170.764 4.604 170.764 5.367C170.764 6.123 171.506 6.641 172.507 6.641C173.508 6.641 174.25 6.123 174.25 5.367C174.25 4.604 173.508 4.093 172.507 4.093ZM169.651 8.223H175.384V8.713H169.651V8.223ZM176.09 8.286H181.823V8.769H176.09V8.286ZM178.652 6.928H179.233V8.489H178.652V6.928ZM176.783 3.687H181.116V5.605H177.378V6.872H176.804V5.136H180.542V4.156H176.783V3.687ZM176.804 6.627H181.263V7.103H176.804V6.627ZM186.366 9.0696C186.157 9.06629 185.948 9.02652 185.739 8.95028C185.531 8.87405 185.34 8.74562 185.168 8.56499C184.995 8.38269 184.857 8.1366 184.752 7.8267C184.648 7.51515 184.596 7.12405 184.596 6.65341C184.596 6.20265 184.638 5.80327 184.723 5.45526C184.807 5.10559 184.93 4.81143 185.091 4.5728C185.251 4.3325 185.445 4.15021 185.672 4.02592C185.901 3.90163 186.159 3.83949 186.445 3.83949C186.73 3.83949 186.984 3.89666 187.206 4.01101C187.43 4.1237 187.612 4.28113 187.753 4.48331C187.894 4.68549 187.985 4.91832 188.026 5.18182H187.42C187.363 4.95312 187.254 4.76338 187.092 4.61257C186.929 4.46177 186.714 4.38636 186.445 4.38636C186.051 4.38636 185.74 4.55788 185.513 4.90092C185.288 5.24396 185.174 5.72538 185.173 6.34517H185.212C185.305 6.20431 185.415 6.08416 185.543 5.98473C185.672 5.88364 185.815 5.80575 185.971 5.75107C186.126 5.69638 186.291 5.66903 186.465 5.66903C186.757 5.66903 187.024 5.74195 187.266 5.88778C187.508 6.03196 187.701 6.23165 187.847 6.48686C187.993 6.74041 188.066 7.03125 188.066 7.35938C188.066 7.67424 187.996 7.96259 187.855 8.22443C187.714 8.48461 187.516 8.69176 187.261 8.84588C187.007 8.99834 186.709 9.07292 186.366 9.0696ZM186.366 8.52273C186.575 8.52273 186.762 8.47053 186.928 8.36612C187.095 8.26172 187.227 8.12169 187.323 7.94602C187.421 7.77036 187.469 7.57481 187.469 7.35938C187.469 7.14891 187.422 6.9575 187.328 6.78516C187.235 6.61115 187.107 6.47277 186.942 6.37003C186.78 6.26728 186.594 6.21591 186.386 6.21591C186.228 6.21591 186.082 6.2474 185.946 6.31037C185.81 6.37169 185.69 6.4562 185.588 6.56392C185.487 6.67164 185.407 6.7951 185.349 6.9343C185.291 7.07185 185.262 7.21686 185.262 7.36932C185.262 7.5715 185.309 7.76042 185.404 7.93608C185.5 8.11174 185.631 8.25343 185.797 8.36115C185.964 8.46887 186.154 8.52273 186.366 8.52273ZM190.634 9.0696C190.343 9.0696 190.08 9.0116 189.847 8.8956C189.613 8.77959 189.426 8.6205 189.285 8.41832C189.144 8.21615 189.067 7.9858 189.054 7.72727H189.65C189.673 7.95762 189.778 8.1482 189.963 8.29901C190.151 8.44815 190.374 8.52273 190.634 8.52273C190.843 8.52273 191.029 8.47384 191.191 8.37607C191.355 8.27829 191.484 8.14406 191.577 7.97337C191.671 7.80102 191.718 7.6063 191.718 7.3892C191.718 7.16714 191.669 6.96911 191.572 6.7951C191.476 6.61944 191.343 6.48106 191.174 6.37997C191.005 6.27888 190.812 6.22751 190.595 6.22585C190.439 6.22419 190.279 6.24822 190.115 6.29794C189.951 6.346 189.816 6.40814 189.71 6.48438L189.133 6.41477L189.441 3.90909H192.086V4.45597H189.958L189.779 5.95739H189.809C189.914 5.87453 190.045 5.80575 190.202 5.75107C190.359 5.69638 190.523 5.66903 190.694 5.66903C191.006 5.66903 191.283 5.74361 191.527 5.89276C191.772 6.04025 191.964 6.24242 192.104 6.49929C192.244 6.75616 192.315 7.04948 192.315 7.37926C192.315 7.70407 192.242 7.99408 192.096 8.24929C191.952 8.50284 191.753 8.70336 191.5 8.85085C191.246 8.99669 190.958 9.0696 190.634 9.0696ZM195.898 8.04545V7.77699C195.898 7.59138 195.936 7.42152 196.012 7.2674C196.09 7.11162 196.202 6.98733 196.35 6.89453C196.499 6.80007 196.68 6.75284 196.892 6.75284C197.107 6.75284 197.288 6.80007 197.434 6.89453C197.58 6.98733 197.69 7.11162 197.764 7.2674C197.839 7.42152 197.876 7.59138 197.876 7.77699V8.04545C197.876 8.23106 197.838 8.40175 197.762 8.55753C197.687 8.71165 197.576 8.83594 197.429 8.9304C197.283 9.0232 197.104 9.0696 196.892 9.0696C196.676 9.0696 196.495 9.0232 196.347 8.9304C196.2 8.83594 196.088 8.71165 196.012 8.55753C195.936 8.40175 195.898 8.23106 195.898 8.04545ZM196.405 7.77699V8.04545C196.405 8.19957 196.441 8.33795 196.514 8.46058C196.587 8.58156 196.713 8.64205 196.892 8.64205C197.066 8.64205 197.189 8.58156 197.26 8.46058C197.333 8.33795 197.369 8.19957 197.369 8.04545V7.77699C197.369 7.62287 197.334 7.48532 197.265 7.36435C197.195 7.24171 197.071 7.1804 196.892 7.1804C196.718 7.1804 196.593 7.24171 196.517 7.36435C196.442 7.48532 196.405 7.62287 196.405 7.77699ZM193.362 5.1321V4.86364C193.362 4.67803 193.4 4.50817 193.476 4.35405C193.554 4.19827 193.667 4.07398 193.814 3.98118C193.964 3.88672 194.144 3.83949 194.356 3.83949C194.572 3.83949 194.752 3.88672 194.898 3.98118C195.044 4.07398 195.154 4.19827 195.229 4.35405C195.303 4.50817 195.341 4.67803 195.341 4.86364V5.1321C195.341 5.31771 195.303 5.4884 195.226 5.64418C195.152 5.7983 195.041 5.92259 194.893 6.01705C194.747 6.10985 194.568 6.15625 194.356 6.15625C194.141 6.15625 193.959 6.10985 193.812 6.01705C193.664 5.92259 193.553 5.7983 193.476 5.64418C193.4 5.4884 193.362 5.31771 193.362 5.1321ZM193.869 4.86364V5.1321C193.869 5.28622 193.906 5.4246 193.979 5.54723C194.051 5.66821 194.177 5.72869 194.356 5.72869C194.53 5.72869 194.653 5.66821 194.724 5.54723C194.797 5.4246 194.834 5.28622 194.834 5.1321V4.86364C194.834 4.70952 194.799 4.57197 194.729 4.45099C194.66 4.32836 194.535 4.26705 194.356 4.26705C194.182 4.26705 194.057 4.32836 193.981 4.45099C193.906 4.57197 193.869 4.70952 193.869 4.86364ZM193.551 9L197.051 3.90909H197.618L194.118 9H193.551ZM205.108 3.197H205.689V6.69H205.108V3.197ZM205.444 4.716H206.627V5.206H205.444V4.716ZM201.671 7.012H205.689V8.426H202.259V9.196H201.685V8.006H205.122V7.453H201.671V7.012ZM201.685 9.028H205.92V9.476H201.685V9.028ZM200.796 3.785H204.534V4.24H200.796V3.785ZM202.665 4.52C203.575 4.52 204.177 4.919 204.177 5.563C204.177 6.2 203.575 6.592 202.665 6.592C201.741 6.592 201.146 6.2 201.146 5.563C201.146 4.919 201.741 4.52 202.665 4.52ZM202.665 4.947C202.077 4.947 201.699 5.185 201.699 5.563C201.699 5.934 202.077 6.172 202.665 6.172C203.246 6.172 203.624 5.934 203.624 5.563C203.624 5.185 203.246 4.947 202.665 4.947ZM202.371 3.148H202.952V4.1H202.371V3.148ZM211.82 3.225H212.408V7.845H211.82V3.225ZM208.341 8.93H212.597V9.406H208.341V8.93ZM208.341 7.369H208.915V9.091H208.341V7.369ZM209.013 3.659C209.958 3.659 210.658 4.303 210.658 5.22C210.658 6.13 209.958 6.781 209.013 6.781C208.068 6.781 207.361 6.13 207.361 5.22C207.361 4.303 208.068 3.659 209.013 3.659ZM209.013 4.163C208.397 4.163 207.928 4.597 207.928 5.22C207.928 5.836 208.397 6.27 209.013 6.27C209.629 6.27 210.098 5.836 210.098 5.22C210.098 4.597 209.629 4.163 209.013 4.163ZM214.623 3.90909L214.573 7.56818H213.997L213.947 3.90909H214.623ZM214.285 9.03977C214.162 9.03977 214.057 8.99586 213.969 8.90803C213.881 8.82019 213.838 8.71496 213.838 8.59233C213.838 8.4697 213.881 8.36446 213.969 8.27663C214.057 8.1888 214.162 8.14489 214.285 8.14489C214.408 8.14489 214.513 8.1888 214.601 8.27663C214.689 8.36446 214.732 8.4697 214.732 8.59233C214.732 8.67353 214.712 8.74811 214.67 8.81605C214.631 8.884 214.577 8.93868 214.509 8.98011C214.442 9.01989 214.368 9.03977 214.285 9.03977Z" fill="white"/>
<path d="M107.935 41.5348H108.383C109.475 41.5348 110.177 41.5088 110.996 41.3528L111.055 41.7948C110.21 41.9508 109.501 41.9898 108.383 41.9898H107.935V41.5348ZM107.935 38.1158H110.606V38.5578H108.468V41.7038H107.935V38.1158ZM111.945 37.5568H112.485V43.4458H111.945V37.5568ZM110.262 39.6823H112.166V40.1308H110.262V39.6823ZM117.6 37.5503H118.139V43.4393H117.6V37.5503ZM118.009 39.8903H119.101V40.3453H118.009V39.8903ZM113.856 41.5738H114.324C115.429 41.5738 116.196 41.5348 117.086 41.3658L117.145 41.8143C116.228 41.9768 115.448 42.0223 114.324 42.0223H113.856V41.5738ZM113.843 38.1028H116.501V40.2088H114.389V41.7558H113.856V39.7668H115.968V38.5448H113.843V38.1028ZM123.865 37.5503H124.405V43.4393H123.865V37.5503ZM121.304 38.0053C122.175 38.0053 122.799 38.8048 122.799 40.0528C122.799 41.3073 122.175 42.1068 121.304 42.1068C120.44 42.1068 119.816 41.3073 119.816 40.0528C119.816 38.8048 120.44 38.0053 121.304 38.0053ZM121.304 38.4928C120.732 38.4928 120.329 39.1038 120.329 40.0528C120.329 41.0083 120.732 41.6323 121.304 41.6323C121.883 41.6323 122.279 41.0083 122.279 40.0528C122.279 39.1038 121.883 38.4928 121.304 38.4928ZM126.25 40.3713H130.286V40.8133H126.25V40.3713ZM125.58 42.1913H130.904V42.6398H125.58V42.1913ZM126.25 38.0963H130.228V38.5448H126.789V40.5663H126.25V38.0963ZM132.275 39.3183H136.266V39.7603H132.275V39.3183ZM131.553 40.5468H136.883V40.9888H131.553V40.5468ZM132.275 37.7713H132.808V39.5393H132.275V37.7713ZM132.236 42.8478H136.298V43.2898H132.236V42.8478ZM132.236 41.5738H132.769V42.9648H132.236V41.5738ZM141.747 40.3323H142.28V41.2358H141.747V40.3323ZM139.361 40.0333H144.672V40.4688H139.361V40.0333ZM140.05 37.7518H143.983V39.5393H140.05V37.7518ZM143.456 38.1808H140.583V39.1103H143.456V38.1808ZM140.005 41.0408H143.996V42.3603H140.551V43.0753H140.018V41.9703H143.463V41.4568H140.005V41.0408ZM140.018 42.9453H144.171V43.3678H140.018V42.9453ZM145.341 40.9108H150.671V41.3528H145.341V40.9108ZM146.043 42.9323H150.112V43.3743H146.043V42.9323ZM146.043 41.7428H146.582V43.0623H146.043V41.7428ZM147.733 40.0658H148.272V41.0993H147.733V40.0658ZM146.017 37.7453H149.982V39.2013H146.563V39.9943H146.03V38.8048H149.455V38.1678H146.017V37.7453ZM146.03 39.8513H150.112V40.2738H146.03V39.8513ZM153.421 40.1828H153.87C155.046 40.1828 155.703 40.1633 156.489 40.0203L156.548 40.4558C155.742 40.5988 155.066 40.6248 153.87 40.6248H153.421V40.1828ZM153.421 37.8753H156.106V38.3173H153.954V40.3973H153.421V37.8753ZM153.785 39.0193H155.995V39.4483H153.785V39.0193ZM157.172 37.5568H157.711V40.8198H157.172V37.5568ZM157.562 38.9348H158.582V39.3833H157.562V38.9348ZM154.006 41.0798H154.539V41.7688H157.178V41.0798H157.711V43.3548H154.006V41.0798ZM154.539 42.1978V42.9128H157.178V42.1978H154.539ZM160.467 41.0603H161.006V43.4328H160.467V41.0603ZM162.566 41.0603H163.112V43.4328H162.566V41.0603ZM159.128 40.9888H164.458V41.4308H159.128V40.9888ZM159.797 37.7843H160.337V38.5708H163.242V37.7843H163.775V40.2998H159.797V37.7843ZM160.337 39.0128V39.8513H163.242V39.0128H160.337ZM166.1 42.2795L166.063 42.5288C166.037 42.7042 165.997 42.8919 165.943 43.092C165.89 43.292 165.836 43.4805 165.779 43.6575C165.722 43.8345 165.675 43.9753 165.638 44.0799H165.223C165.243 43.9814 165.269 43.8514 165.301 43.6898C165.333 43.5282 165.366 43.3474 165.398 43.1474C165.432 42.9489 165.46 42.7457 165.481 42.538L165.509 42.2795H166.1ZM169.069 37.9143H169.596V38.8243H171.286V37.9143H171.819V40.6898H169.069V37.9143ZM169.596 39.2533V40.2608H171.286V39.2533H169.596ZM169.654 41.4373H173.58V43.4328H173.034V41.8728H169.654V41.4373ZM173.034 37.5568H173.58V41.1123H173.034V37.5568ZM179.046 37.5503H179.579V43.4393H179.046V37.5503ZM177.493 39.7343H179.202V40.1763H177.493V39.7343ZM174.977 38.0183H175.51V39.5458H177.142V38.0183H177.675V41.9638H174.977V38.0183ZM175.51 39.9748V41.5153H177.142V39.9748H175.51ZM183.076 37.9598H183.544V38.4083C183.544 39.6888 182.354 40.6833 181.178 40.9498L180.937 40.5013C181.971 40.3063 183.076 39.4093 183.076 38.4083V37.9598ZM183.173 37.9598H183.641V38.4083C183.641 39.4158 184.753 40.3063 185.78 40.5013L185.539 40.9498C184.369 40.6833 183.173 39.6953 183.173 38.4083V37.9598ZM180.723 42.1978H186.046V42.6398H180.723V42.1978ZM187.372 40.2998H191.408V40.7418H187.372V40.2998ZM186.702 42.2433H192.026V42.6983H186.702V42.2433ZM189.081 40.4883H189.621V42.4253H189.081V40.4883ZM187.372 38.0248H191.35V38.4668H187.911V40.4948H187.372V38.0248ZM194.757 41.5738H195.218C196.304 41.5738 197.051 41.5478 197.935 41.3918L197.994 41.8338C197.084 41.9898 196.317 42.0223 195.218 42.0223H194.757V41.5738ZM194.757 38.0898H197.493V38.5383H195.296V41.7298H194.757V38.0898ZM195.16 39.7343H197.363V40.1698H195.16V39.7343ZM198.481 37.5568H199.027V43.4328H198.481V37.5568ZM198.897 39.9163H199.989V40.3713H198.897V39.9163ZM200.821 38.1288H203.525V41.9573H200.821V38.1288ZM202.998 38.5643H201.347V41.5218H202.998V38.5643ZM204.753 37.5503H205.293V43.4393H204.753V37.5503ZM208.822 37.9598H209.29V38.4083C209.29 39.6888 208.1 40.6833 206.924 40.9498L206.683 40.5013C207.717 40.3063 208.822 39.4093 208.822 38.4083V37.9598ZM208.919 37.9598H209.387V38.4083C209.387 39.4158 210.499 40.3063 211.526 40.5013L211.285 40.9498C210.115 40.6833 208.919 39.6953 208.919 38.4083V37.9598ZM206.469 42.1978H211.792V42.6398H206.469V42.1978ZM212.448 42.2628H217.772V42.7113H212.448V42.2628ZM214.827 41.0018H215.367V42.4513H214.827V41.0018ZM213.092 37.9923H217.115V39.7733H213.644V40.9498H213.111V39.3378H216.582V38.4278H213.092V37.9923ZM213.111 40.7223H217.252V41.1643H213.111V40.7223Z" fill="white"/>
<path d="M102.585 38.4043H99.5848V43.9143H105.185V40.7312" stroke="white"/>
<path d="M100.504 39.9946L102.341 42.1367L106.228 37.4238" stroke="white"/>
</g>
</g>
<defs>
<clipPath id="clip0_12135_18475">
<rect width="345" height="47" fill="white"/>
</clipPath>
</defs>
</svg>
