<svg width="194" height="43" viewBox="0 0 194 43" fill="none" xmlns="http://www.w3.org/2000/svg">
<path d="M7.502 16.793H8.965V24.295H7.502V16.793ZM0.693 17.519H6.072V18.685H0.693V17.519ZM0.583 23.085L0.44 21.886C2.079 21.886 4.367 21.864 6.204 21.655L6.281 22.722C4.389 23.041 2.2 23.085 0.583 23.085ZM1.496 18.542H2.904V22.029H1.496V18.542ZM3.861 18.542H5.258V22.029H3.861V18.542ZM6.27 18.575H8.294V19.741H6.27V18.575ZM6.27 20.621H8.294V21.798H6.27V20.621ZM2.233 25.637H9.196V26.803H2.233V25.637ZM2.233 23.745H3.707V26.517H2.233V23.745ZM17.1151 16.793H18.5781V24.196H17.1151V16.793ZM18.1601 19.708H19.9311V20.907H18.1601V19.708ZM12.0111 25.637H18.9411V26.803H12.0111V25.637ZM12.0111 23.426H13.4741V26.154H12.0111V23.426ZM13.3971 17.442C14.9591 17.442 16.1691 18.531 16.1691 20.038C16.1691 21.534 14.9591 22.623 13.3971 22.623C11.8351 22.623 10.6251 21.534 10.6251 20.038C10.6251 18.531 11.8351 17.442 13.3971 17.442ZM13.3971 18.718C12.6491 18.718 12.0551 19.202 12.0551 20.038C12.0551 20.863 12.6491 21.347 13.3971 21.347C14.1561 21.347 14.7391 20.863 14.7391 20.038C14.7391 19.202 14.1561 18.718 13.3971 18.718ZM27.2343 16.804H28.6973V24.416H27.2343V16.804ZM28.2793 19.906H30.0503V21.105H28.2793V19.906ZM20.6783 17.86H26.6733V19.004H20.6783V17.86ZM23.6813 19.367C25.1443 19.367 26.1783 20.17 26.1783 21.336C26.1783 22.502 25.1443 23.294 23.6813 23.294C22.2073 23.294 21.1733 22.502 21.1733 21.336C21.1733 20.17 22.2073 19.367 23.6813 19.367ZM23.6813 20.478C23.0323 20.478 22.5813 20.786 22.5813 21.336C22.5813 21.886 23.0323 22.183 23.6813 22.183C24.3303 22.183 24.7813 21.886 24.7813 21.336C24.7813 20.786 24.3303 20.478 23.6813 20.478ZM22.9443 16.782H24.4073V18.421H22.9443V16.782ZM22.1303 25.637H29.0603V26.803H22.1303V25.637ZM22.1303 23.844H23.5933V26.143H22.1303V23.844ZM37.8973 18.872H40.6693V20.049H37.8973V18.872ZM37.8973 22.029H40.6693V23.206H37.8973V22.029ZM36.1373 17.497C37.6553 17.497 38.7663 18.905 38.7663 21.127C38.7663 23.371 37.6553 24.779 36.1373 24.779C34.6083 24.779 33.5083 23.371 33.5083 21.127C33.5083 18.905 34.6083 17.497 36.1373 17.497ZM36.1373 18.828C35.4003 18.828 34.8943 19.631 34.8943 21.127C34.8943 22.645 35.4003 23.459 36.1373 23.459C36.8853 23.459 37.3803 22.645 37.3803 21.127C37.3803 19.631 36.8853 18.828 36.1373 18.828ZM40.4383 16.782H41.8903V27.001H40.4383V16.782ZM50.7555 16.793H52.1415V23.173H50.7555V16.793ZM49.5125 19.301H51.1405V20.489H49.5125V19.301ZM48.6435 16.991H50.0075V22.843H48.6435V16.991ZM43.4185 17.838H48.3575V18.96H43.4185V17.838ZM45.9045 19.29C47.1805 19.29 48.1045 20.016 48.1045 21.072C48.1045 22.128 47.1805 22.843 45.9045 22.843C44.6285 22.843 43.7045 22.128 43.7045 21.072C43.7045 20.016 44.6285 19.29 45.9045 19.29ZM45.9045 20.335C45.3655 20.335 45.0025 20.599 45.0025 21.072C45.0025 21.545 45.3655 21.809 45.9045 21.809C46.4325 21.809 46.7955 21.545 46.7955 21.072C46.7955 20.599 46.4325 20.335 45.9045 20.335ZM45.1675 16.892H46.6085V18.608H45.1675V16.892ZM48.6985 23.283C50.8765 23.283 52.1965 23.943 52.1965 25.131C52.1965 26.308 50.8765 26.979 48.6985 26.979C46.5095 26.979 45.1895 26.308 45.1895 25.131C45.1895 23.943 46.5095 23.283 48.6985 23.283ZM48.6985 24.372C47.3345 24.372 46.6525 24.603 46.6525 25.131C46.6525 25.648 47.3345 25.89 48.6985 25.89C50.0515 25.89 50.7335 25.648 50.7335 25.131C50.7335 24.603 50.0515 24.372 48.6985 24.372ZM58.6135 17.574H59.8015V19.059C59.8015 21.677 58.8995 24.042 56.8755 24.977L56.0065 23.767C57.7775 22.997 58.6135 21.039 58.6135 19.059V17.574ZM58.8995 17.574H60.0875V19.059C60.0875 20.94 60.8905 22.81 62.6285 23.558L61.7705 24.735C59.8015 23.833 58.8995 21.567 58.8995 19.059V17.574ZM63.1125 16.782H64.5865V27.001H63.1125V16.782ZM68.5126 17.838H69.7116V18.476C69.7116 20.401 68.7986 22.128 66.8516 22.755L66.0926 21.622C67.7976 21.072 68.5126 19.752 68.5126 18.476V17.838ZM68.8096 17.838H69.9976V18.476C69.9976 19.675 70.6906 20.918 72.3406 21.446L71.5926 22.579C69.6896 21.963 68.8096 20.302 68.8096 18.476V17.838ZM66.4886 17.387H71.9886V18.553H66.4886V17.387ZM72.8026 16.793H74.2656V22.931H72.8026V16.793ZM73.8586 19.257H75.6186V20.456H73.8586V19.257ZM67.4676 23.371H74.2656V26.979H72.8026V24.548H67.4676V23.371ZM76.7948 17.805H81.1838V18.96H76.7948V17.805ZM78.1038 20.72H79.5448V24.174H78.1038V20.72ZM80.6008 17.805H82.0418V18.63C82.0418 19.62 82.0418 20.852 81.7668 22.546L80.3368 22.414C80.6008 20.786 80.6008 19.609 80.6008 18.63V17.805ZM82.9108 16.793H84.3738V26.979H82.9108V16.793ZM83.9448 20.885H85.7378V22.095H83.9448V20.885ZM76.4098 24.922L76.2778 23.745C78.0708 23.745 80.4468 23.712 82.4488 23.459L82.5258 24.526C80.4688 24.878 78.1808 24.922 76.4098 24.922ZM89.0308 20.522H98.2488V21.688H89.0308V20.522ZM89.8888 17.134H92.2648V18.289H89.8888V17.134ZM91.8358 17.134H93.2658V17.684C93.2658 18.41 93.2658 19.521 92.7598 20.995L91.3518 20.797C91.8358 19.334 91.8358 18.388 91.8358 17.684V17.134ZM93.8378 17.134H96.4558V18.289H93.8378V17.134ZM95.7738 17.134H97.2038V17.838C97.2038 18.663 97.2038 19.697 96.7748 21.05L95.3558 20.852C95.7738 19.521 95.7738 18.63 95.7738 17.838V17.134ZM90.1528 22.381H97.1708V23.459H91.6158V26.033H90.1528V22.381ZM90.1528 25.78H97.2478V26.869H90.1528V25.78ZM91.0218 24.086H96.9288V25.12H91.0218V24.086ZM101.183 24.9062L101.14 25.3359C101.106 25.6797 101.041 26.0221 100.944 26.3633C100.851 26.707 100.752 27.0182 100.647 27.2969C100.546 27.5755 100.464 27.7943 100.401 27.9531H99.3232C99.3623 27.7995 99.4157 27.5846 99.4834 27.3086C99.5511 27.0352 99.6149 26.7279 99.6748 26.3867C99.7347 26.0456 99.7725 25.6979 99.7881 25.3437L99.8076 24.9062H101.183ZM105.198 23.036H106.212C108.24 23.036 109.787 23.01 111.581 22.724L111.737 24.102C109.917 24.388 108.279 24.44 106.212 24.44H105.198V23.036ZM105.198 16.12H110.853V17.524H106.94V23.491H105.198V16.12ZM106.524 19.461H110.684V20.813H106.524V19.461ZM112.426 15.119H114.168V27.157H112.426V15.119ZM113.778 19.682H115.91V21.112H113.778V19.682ZM117.287 16.198H123.072V24.297H117.287V16.198ZM121.382 17.55H118.99V22.932H121.382V17.55ZM124.944 15.106H126.686V27.183H124.944V15.106ZM133.12 15.808H134.628V16.679C134.628 19.292 132.769 21.606 129.649 22.217L128.908 20.787C131.625 20.319 133.12 18.408 133.12 16.679V15.808ZM133.471 15.808H134.966V16.679C134.966 18.447 136.448 20.319 139.178 20.787L138.437 22.217C135.317 21.606 133.471 19.331 133.471 16.679V15.808ZM128.661 24.284H139.555V25.688H128.661V24.284ZM148.998 22.607C151.598 22.607 153.262 23.465 153.262 24.895C153.262 26.299 151.598 27.157 148.998 27.157C146.398 27.157 144.734 26.299 144.734 24.895C144.734 23.465 146.398 22.607 148.998 22.607ZM148.998 23.907C147.373 23.907 146.45 24.245 146.45 24.895C146.45 25.532 147.373 25.857 148.998 25.857C150.623 25.857 151.546 25.532 151.546 24.895C151.546 24.245 150.623 23.907 148.998 23.907ZM144.864 15.652H152.482V17.017H144.864V15.652ZM143.642 20.488H154.484V21.866H143.642V20.488ZM147.659 18.395H149.375V20.839H147.659V18.395ZM151.481 15.652H153.197V16.64C153.197 17.589 153.197 18.616 152.872 19.864L151.156 19.682C151.481 18.447 151.481 17.576 151.481 16.64V15.652ZM163.323 15.119H165.052V22.75H163.323V15.119ZM164.571 18.187H166.651V19.604H164.571V18.187ZM161.139 22.88C163.622 22.88 165.182 23.673 165.182 25.025C165.182 26.364 163.622 27.157 161.139 27.157C158.656 27.157 157.096 26.364 157.096 25.025C157.096 23.673 158.656 22.88 161.139 22.88ZM161.139 24.18C159.618 24.18 158.812 24.453 158.812 25.025C158.812 25.597 159.618 25.87 161.139 25.87C162.66 25.87 163.466 25.597 163.466 25.025C163.466 24.453 162.66 24.18 161.139 24.18ZM155.575 16.263H162.66V17.602H155.575V16.263ZM159.124 18.005C160.866 18.005 162.075 18.876 162.075 20.163C162.075 21.463 160.866 22.321 159.124 22.321C157.369 22.321 156.16 21.463 156.16 20.163C156.16 18.876 157.369 18.005 159.124 18.005ZM159.124 19.266C158.344 19.266 157.824 19.578 157.824 20.163C157.824 20.748 158.344 21.06 159.124 21.06C159.891 21.06 160.424 20.748 160.424 20.163C160.424 19.578 159.891 19.266 159.124 19.266ZM158.253 15.041H159.982V16.978H158.253V15.041ZM178.888 15.106H180.643V27.183H178.888V15.106ZM176.73 17.511H179.85V18.915H176.73V17.511ZM176.73 20.436H179.85V21.866H176.73V20.436ZM173.337 16.042H174.728V17.784C174.728 20.813 173.701 23.595 171.452 24.726L170.373 23.348C172.427 22.399 173.337 20.072 173.337 17.784V16.042ZM173.701 16.042H175.079V17.784C175.079 20.098 175.95 22.334 177.939 23.231L176.899 24.609C174.65 23.504 173.701 20.813 173.701 17.784V16.042ZM183.84 18.798H192.225V19.968H183.84V18.798ZM183.84 15.366H192.134V16.536H185.556V19.357H183.84V15.366ZM185.075 17.095H191.861V18.213H185.075V17.095ZM182.527 20.501H193.369V21.775H182.527V20.501ZM183.749 22.334H192.069V25.259H185.465V26.468H183.762V24.115H190.366V23.543H183.749V22.334ZM183.762 25.87H192.381V27.079H183.762V25.87Z" fill="white"/>
<path d="M1.343 4.48H7.062V4.956H1.343V4.48ZM3.919 3.535H4.493V4.627H3.919V3.535ZM1.98 5.572H6.355V7.546H5.774V6.048H1.98V5.572ZM2.106 1.365H2.68V2.079H5.739V1.365H6.32V3.731H2.106V1.365ZM2.68 2.534V3.269H5.739V2.534H2.68ZM9.33645 1.806H9.81245V2.317C9.81245 3.451 9.10545 4.389 8.03445 4.76L7.74745 4.298C8.69945 3.976 9.33645 3.199 9.33645 2.317V1.806ZM9.44145 1.806H9.91745V2.31C9.91745 3.122 10.5265 3.864 11.4575 4.165L11.1845 4.62C10.1275 4.277 9.44145 3.374 9.44145 2.31V1.806ZM7.92245 1.631H11.3105V2.107H7.92245V1.631ZM12.1155 1.218H12.6965V4.69H12.1155V1.218ZM12.5355 2.674H13.6345V3.164H12.5355V2.674ZM8.70645 4.991H9.28045V5.747H12.1225V4.991H12.6965V7.462H8.70645V4.991ZM9.28045 6.209V6.993H12.1225V6.209H9.28045ZM18.5549 1.225H19.1359V5.971H18.5549V1.225ZM18.9539 3.297H20.0739V3.787H18.9539V3.297ZM14.2429 1.988H17.9809V2.457H14.2429V1.988ZM16.1119 2.807C17.0079 2.807 17.6239 3.276 17.6239 3.99C17.6239 4.697 17.0079 5.166 16.1119 5.166C15.2089 5.166 14.5929 4.697 14.5929 3.99C14.5929 3.276 15.2089 2.807 16.1119 2.807ZM16.1119 3.262C15.5379 3.262 15.1459 3.549 15.1459 3.99C15.1459 4.424 15.5379 4.711 16.1119 4.711C16.6789 4.711 17.0709 4.424 17.0709 3.99C17.0709 3.549 16.6789 3.262 16.1119 3.262ZM15.8179 1.218H16.3989V2.233H15.8179V1.218ZM15.1949 6.93H19.4229V7.406H15.1949V6.93ZM15.1949 5.593H15.7759V7.133H15.1949V5.593ZM25.4721 5.208C26.8161 5.208 27.6771 5.649 27.6771 6.377C27.6771 7.098 26.8161 7.532 25.4721 7.532C24.1211 7.532 23.2671 7.098 23.2671 6.377C23.2671 5.649 24.1211 5.208 25.4721 5.208ZM25.4721 5.663C24.4781 5.663 23.8411 5.936 23.8411 6.377C23.8411 6.811 24.4781 7.084 25.4721 7.084C26.4661 7.084 27.0961 6.811 27.0961 6.377C27.0961 5.936 26.4661 5.663 25.4721 5.663ZM23.3161 1.533H27.3901V2.009H23.3161V1.533ZM22.6371 4.165H28.3491V4.634H22.6371V4.165ZM24.9821 2.947H25.5561V4.298H24.9821V2.947ZM27.0541 1.533H27.6211V2.072C27.6211 2.583 27.6211 3.094 27.4531 3.752L26.8791 3.682C27.0541 3.031 27.0541 2.569 27.0541 2.072V1.533ZM33.4026 1.218H33.9836V5.292H33.4026V1.218ZM33.8226 2.975H34.9216V3.458H33.8226V2.975ZM31.9956 5.348C33.2766 5.348 34.0536 5.747 34.0536 6.44C34.0536 7.133 33.2766 7.532 31.9956 7.532C30.7216 7.532 29.9376 7.133 29.9376 6.44C29.9376 5.747 30.7216 5.348 31.9956 5.348ZM31.9956 5.796C31.0716 5.796 30.5116 6.034 30.5116 6.44C30.5116 6.853 31.0716 7.084 31.9956 7.084C32.9266 7.084 33.4866 6.853 33.4866 6.44C33.4866 6.034 32.9266 5.796 31.9956 5.796ZM29.0906 1.932H32.8286V2.394H29.0906V1.932ZM30.9596 2.716C31.8626 2.716 32.4716 3.15 32.4716 3.829C32.4716 4.515 31.8626 4.949 30.9596 4.949C30.0496 4.949 29.4406 4.515 29.4406 3.829C29.4406 3.15 30.0496 2.716 30.9596 2.716ZM30.9596 3.157C30.3786 3.157 29.9936 3.423 29.9936 3.829C29.9936 4.242 30.3786 4.508 30.9596 4.508C31.5266 4.508 31.9186 4.242 31.9186 3.829C31.9186 3.423 31.5266 3.157 30.9596 3.157ZM30.6656 1.162H31.2466V2.191H30.6656V1.162ZM38.078 3.675H39.275V4.158H38.078V3.675ZM40.332 1.218H40.892V7.546H40.332V1.218ZM39.079 1.351H39.632V7.231H39.079V1.351ZM36.937 1.743C37.756 1.743 38.288 2.59 38.288 3.948C38.288 5.306 37.756 6.153 36.937 6.153C36.118 6.153 35.593 5.306 35.593 3.948C35.593 2.59 36.118 1.743 36.937 1.743ZM36.937 2.282C36.44 2.282 36.125 2.926 36.125 3.948C36.125 4.97 36.44 5.614 36.937 5.614C37.441 5.614 37.756 4.97 37.756 3.948C37.756 2.926 37.441 2.282 36.937 2.282ZM45.1125 3.36H46.8765V3.836H45.1125V3.36ZM43.5865 1.764H44.0625V2.891C44.0625 4.312 43.3135 5.67 42.3125 6.209L41.9415 5.747C42.8725 5.285 43.5865 4.067 43.5865 2.891V1.764ZM43.6985 1.764H44.1675V2.891C44.1675 4.046 44.8815 5.194 45.7985 5.628L45.4555 6.097C44.4335 5.579 43.6985 4.277 43.6985 2.891V1.764ZM46.5895 1.211H47.1635V7.553H46.5895V1.211ZM50.6437 1.855H53.0867V4.725H50.6437V1.855ZM52.5407 2.303H51.1827V4.263H52.5407V2.303ZM55.1377 1.225H55.6907V5.936H55.1377V1.225ZM54.1227 3.08H55.3127V3.563H54.1227V3.08ZM53.7797 1.337H54.3327V5.712H53.7797V1.337ZM51.5677 6.93H55.8867V7.406H51.5677V6.93ZM51.5677 5.362H52.1487V7.168H51.5677V5.362ZM56.7891 2.296H59.9251V2.772H56.7891V2.296ZM58.3571 3.192C59.1481 3.192 59.7221 3.787 59.7221 4.641C59.7221 5.488 59.1481 6.083 58.3571 6.083C57.5731 6.083 56.9991 5.488 56.9991 4.641C56.9991 3.787 57.5731 3.192 58.3571 3.192ZM58.3571 3.689C57.8741 3.689 57.5241 4.081 57.5241 4.641C57.5241 5.201 57.8741 5.593 58.3571 5.593C58.8471 5.593 59.2041 5.201 59.2041 4.641C59.2041 4.081 58.8471 3.689 58.3571 3.689ZM61.5981 1.218H62.1581V7.546H61.5981V1.218ZM60.5901 3.878H61.7871V4.361H60.5901V3.878ZM60.2471 1.358H60.7931V7.238H60.2471V1.358ZM58.0771 1.4H58.6511V2.59H58.0771V1.4ZM63.2356 4.718H68.9546V5.194H63.2356V4.718ZM63.9706 6.93H68.3596V7.406H63.9706V6.93ZM63.9706 5.656H64.5516V7.112H63.9706V5.656ZM63.9916 3.682H68.2826V4.137H63.9916V3.682ZM63.9916 1.449H68.2546V1.911H64.5656V3.857H63.9916V1.449ZM64.3976 2.562H68.0866V3.003H64.3976V2.562ZM73.3378 1.701C74.2548 1.701 74.9128 2.562 74.9128 3.906C74.9128 5.257 74.2548 6.118 73.3378 6.118C72.4138 6.118 71.7628 5.257 71.7628 3.906C71.7628 2.562 72.4138 1.701 73.3378 1.701ZM73.3378 2.226C72.7288 2.226 72.3158 2.884 72.3158 3.906C72.3158 4.935 72.7288 5.607 73.3378 5.607C73.9468 5.607 74.3598 4.935 74.3598 3.906C74.3598 2.884 73.9468 2.226 73.3378 2.226ZM76.2848 1.211H76.8588V7.553H76.2848V1.211ZM74.7238 3.626H76.5368V4.102H74.7238V3.626ZM78.9582 4.984H83.4662V5.439H78.9582V4.984ZM81.2052 5.733C82.3392 5.733 82.9972 6.055 82.9972 6.643C82.9972 7.224 82.3392 7.539 81.2052 7.539C80.0852 7.539 79.4202 7.224 79.4202 6.643C79.4202 6.055 80.0852 5.733 81.2052 5.733ZM81.2052 6.146C80.4702 6.146 80.0292 6.321 80.0292 6.643C80.0292 6.958 80.4702 7.133 81.2052 7.133C81.9472 7.133 82.3882 6.958 82.3882 6.643C82.3882 6.321 81.9472 6.146 81.2052 6.146ZM80.9252 4.382H81.5062V5.285H80.9252V4.382ZM78.2512 3.668H78.5312C78.9022 3.668 79.3712 3.654 79.9172 3.535L79.9802 4.004C79.3922 4.13 78.9232 4.137 78.5312 4.137H78.2512V3.668ZM78.2512 1.526H79.8332V1.988H78.8252V3.99H78.2512V1.526ZM80.1902 3.668H80.5052C81.1772 3.668 81.6322 3.654 82.1782 3.528L82.2272 3.99C81.6602 4.116 81.1982 4.137 80.5052 4.137H80.1902V3.668ZM80.1902 1.526H81.9402V1.988H80.7642V3.99H80.1902V1.526ZM82.7802 1.218H83.3612V4.578H82.7802V1.218ZM81.6532 2.534H83.0952V2.982H81.6532V2.534ZM89.3457 1.218H89.9057V7.546H89.3457V1.218ZM86.6017 3.801H88.1977V4.27H86.6017V3.801ZM88.0297 1.379H88.5757V7.224H88.0297V1.379ZM86.6787 2.016H87.2387C87.2387 3.675 86.5737 5.166 84.8657 6.181L84.5227 5.768C86.0137 4.872 86.6787 3.612 86.6787 2.121V2.016ZM84.8027 2.016H86.8957V2.492H84.8027V2.016ZM97.2149 1.211H97.8029V7.546H97.2149V1.211ZM97.6419 3.78H98.8109V4.263H97.6419V3.78ZM95.5979 1.897H96.1649C96.1649 3.696 95.3389 5.32 93.2949 6.349L92.9729 5.901C94.7229 5.012 95.5979 3.661 95.5979 1.988V1.897ZM93.2669 1.897H95.8989V2.373H93.2669V1.897ZM101.05 2.121H101.519V3.15C101.519 4.487 100.714 5.831 99.7063 6.328L99.3703 5.866C100.287 5.432 101.05 4.242 101.05 3.15V2.121ZM101.162 2.121H101.631V3.15C101.631 4.221 102.394 5.313 103.325 5.712L102.996 6.174C101.974 5.698 101.162 4.466 101.162 3.15V2.121ZM99.5803 1.862H103.115V2.352H99.5803V1.862ZM103.969 1.218H104.55V7.546H103.969V1.218ZM106.769 5.56818V5.53835C106.773 5.22183 106.806 4.96993 106.869 4.78267C106.932 4.59541 107.021 4.44377 107.137 4.32777C107.253 4.21177 107.392 4.10488 107.555 4.0071C107.653 3.94744 107.74 3.87701 107.818 3.79581C107.896 3.71295 107.958 3.61766 108.002 3.50994C108.049 3.40223 108.072 3.28291 108.072 3.15199C108.072 2.98958 108.034 2.84872 107.958 2.7294C107.881 2.61009 107.779 2.51811 107.652 2.45348C107.524 2.38885 107.383 2.35653 107.227 2.35653C107.091 2.35653 106.96 2.38471 106.834 2.44105C106.708 2.4974 106.603 2.58606 106.518 2.70703C106.434 2.82801 106.385 2.98627 106.372 3.18182H105.745C105.758 2.90009 105.831 2.65897 105.964 2.45845C106.098 2.25793 106.275 2.10464 106.493 1.99858C106.714 1.89252 106.958 1.83949 107.227 1.83949C107.518 1.83949 107.772 1.89749 107.987 2.01349C108.204 2.1295 108.372 2.28859 108.49 2.49077C108.609 2.69294 108.669 2.9233 108.669 3.18182C108.669 3.36411 108.64 3.529 108.584 3.67649C108.529 3.82398 108.45 3.95573 108.345 4.07173C108.243 4.18774 108.118 4.29048 107.972 4.37997C107.827 4.47112 107.71 4.56723 107.622 4.66832C107.534 4.76776 107.47 4.88625 107.431 5.02379C107.391 5.16134 107.369 5.33286 107.366 5.53835V5.56818H106.769ZM107.088 7.03977C106.965 7.03977 106.86 6.99586 106.772 6.90803C106.684 6.82019 106.64 6.71496 106.64 6.59233C106.64 6.4697 106.684 6.36446 106.772 6.27663C106.86 6.1888 106.965 6.14489 107.088 6.14489C107.21 6.14489 107.315 6.1888 107.403 6.27663C107.491 6.36446 107.535 6.4697 107.535 6.59233C107.535 6.67353 107.514 6.74811 107.473 6.81605C107.433 6.884 107.379 6.93868 107.311 6.98011C107.245 7.01989 107.17 7.03977 107.088 7.03977Z" fill="white"/>
<path d="M11.2836 40.9904C11.0128 40.9904 10.7689 40.9366 10.5519 40.8288C10.3349 40.7211 10.1611 40.5734 10.0303 40.3857C9.89946 40.1979 9.82791 39.984 9.8156 39.744H10.3696C10.3911 39.9579 10.4881 40.1348 10.6604 40.2749C10.8343 40.4134 11.042 40.4826 11.2836 40.4826C11.4775 40.4826 11.6499 40.4372 11.8007 40.3464C11.953 40.2556 12.0723 40.131 12.1585 39.9725C12.2462 39.8124 12.29 39.6316 12.29 39.43C12.29 39.2238 12.2446 39.04 12.1538 38.8784C12.0646 38.7153 11.9415 38.5868 11.7845 38.4929C11.6276 38.399 11.4483 38.3513 11.2467 38.3498C11.1021 38.3482 10.9536 38.3706 10.8012 38.4167C10.6489 38.4614 10.5235 38.5191 10.425 38.5898L9.88946 38.5252L10.1757 36.1985H12.6316V36.7063H10.6558L10.4896 38.1005H10.5173C10.6142 38.0236 10.7358 37.9597 10.882 37.9089C11.0282 37.8581 11.1805 37.8327 11.339 37.8327C11.6283 37.8327 11.8861 37.902 12.1123 38.0405C12.34 38.1774 12.5185 38.3652 12.6478 38.6037C12.7786 38.8422 12.844 39.1146 12.844 39.4208C12.844 39.7224 12.7763 39.9917 12.6409 40.2287C12.507 40.4641 12.3223 40.6503 12.0869 40.7873C11.8515 40.9227 11.5837 40.9904 11.2836 40.9904ZM15.3029 40.9904C14.9551 40.9904 14.6589 40.8958 14.4142 40.7065C14.1695 40.5157 13.9825 40.2395 13.8533 39.8778C13.724 39.5147 13.6594 39.0761 13.6594 38.5621C13.6594 38.0513 13.724 37.615 13.8533 37.2534C13.9841 36.8902 14.1718 36.6132 14.4165 36.4224C14.6627 36.2301 14.9582 36.1339 15.3029 36.1339C15.6476 36.1339 15.9422 36.2301 16.1869 36.4224C16.4331 36.6132 16.6209 36.8902 16.7501 37.2534C16.8809 37.615 16.9463 38.0513 16.9463 38.5621C16.9463 39.0761 16.8817 39.5147 16.7524 39.8778C16.6232 40.2395 16.4362 40.5157 16.1915 40.7065C15.9469 40.8958 15.6506 40.9904 15.3029 40.9904ZM15.3029 40.4826C15.6476 40.4826 15.9153 40.3164 16.1061 39.984C16.2969 39.6516 16.3923 39.1777 16.3923 38.5621C16.3923 38.1528 16.3485 37.8043 16.2608 37.5165C16.1746 37.2288 16.05 37.0095 15.8868 36.8587C15.7253 36.7079 15.5306 36.6325 15.3029 36.6325C14.9612 36.6325 14.6943 36.801 14.5019 37.138C14.3095 37.4734 14.2134 37.9482 14.2134 38.5621C14.2134 38.9715 14.2565 39.3192 14.3426 39.6055C14.4288 39.8917 14.5527 40.1094 14.7143 40.2587C14.8774 40.408 15.0736 40.4826 15.3029 40.4826ZM19.3654 40.9904C19.0176 40.9904 18.7214 40.8958 18.4767 40.7065C18.232 40.5157 18.045 40.2395 17.9158 39.8778C17.7865 39.5147 17.7219 39.0761 17.7219 38.5621C17.7219 38.0513 17.7865 37.615 17.9158 37.2534C18.0466 36.8902 18.2343 36.6132 18.479 36.4224C18.7252 36.2301 19.0207 36.1339 19.3654 36.1339C19.7101 36.1339 20.0047 36.2301 20.2494 36.4224C20.4956 36.6132 20.6834 36.8902 20.8126 37.2534C20.9434 37.615 21.0088 38.0513 21.0088 38.5621C21.0088 39.0761 20.9442 39.5147 20.8149 39.8778C20.6857 40.2395 20.4987 40.5157 20.254 40.7065C20.0094 40.8958 19.7131 40.9904 19.3654 40.9904ZM19.3654 40.4826C19.7101 40.4826 19.9778 40.3164 20.1686 39.984C20.3594 39.6516 20.4548 39.1777 20.4548 38.5621C20.4548 38.1528 20.411 37.8043 20.3233 37.5165C20.2371 37.2288 20.1125 37.0095 19.9493 36.8587C19.7878 36.7079 19.5931 36.6325 19.3654 36.6325C19.0237 36.6325 18.7568 36.801 18.5644 37.138C18.372 37.4734 18.2759 37.9482 18.2759 38.5621C18.2759 38.9715 18.319 39.3192 18.4051 39.6055C18.4913 39.8917 18.6152 40.1094 18.7768 40.2587C18.9399 40.408 19.1361 40.4826 19.3654 40.4826ZM21.9621 36.0833H24.6596V38.8068H21.9621V36.0833ZM24.1331 36.5188H22.4886V38.3713H24.1331V36.5188ZM25.7386 35.5503H26.2781V39.8598H25.7386V35.5503ZM26.1091 37.3443H27.1491V37.7928H26.1091V37.3443ZM22.6186 40.8608H26.5446V41.3028H22.6186V40.8608ZM22.6186 39.4503H23.1581V41.0493H22.6186V39.4503ZM30.0801 38.3778H30.6131V39.2748H30.0801V38.3778ZM28.4031 35.6478H28.9361V36.1938H31.7766V35.6478H32.3161V37.5848H28.4031V35.6478ZM28.9361 36.6098V37.1688H31.7766V36.6098H28.9361ZM27.6946 38.0658H33.0051V38.5013H27.6946V38.0658ZM28.3381 39.0733H32.3291V40.3798H28.8841V41.1078H28.3511V39.9898H31.7961V39.4828H28.3381V39.0733ZM28.3511 40.9518H32.5046V41.3678H28.3511V40.9518ZM35.5087 40.2368H40.8322V40.6853H35.5087V40.2368ZM37.8877 38.8328H38.4272V40.3668H37.8877V38.8328ZM36.1327 35.9728H36.6657V37.0193H39.6622V35.9728H40.1952V38.9758H36.1327V35.9728ZM36.6657 37.4548V38.5338H39.6622V37.4548H36.6657ZM45.7782 35.5568H46.3177V39.1123H45.7782V35.5568ZM44.8032 37.3378H46.0187V37.7863H44.8032V37.3378ZM42.5087 39.4243H46.3177V41.3548H42.5087V39.4243ZM45.7912 39.8598H43.0352V40.9193H45.7912V39.8598ZM41.4947 36.1678H44.8942V36.6033H41.4947V36.1678ZM43.1912 36.9023C43.9842 36.9023 44.5497 37.3313 44.5497 37.9553C44.5497 38.5793 43.9842 38.9953 43.1912 38.9953C42.3982 38.9953 41.8327 38.5793 41.8327 37.9553C41.8327 37.3313 42.3982 36.9023 43.1912 36.9023ZM43.1912 37.3183C42.6972 37.3183 42.3462 37.5718 42.3462 37.9553C42.3462 38.3323 42.6972 38.5858 43.1912 38.5858C43.6852 38.5858 44.0362 38.3323 44.0362 37.9553C44.0362 37.5718 43.6852 37.3183 43.1912 37.3183ZM42.9247 35.4983H43.4642V36.4798H42.9247V35.4983ZM50.7258 36.9543H51.1483V37.4548C51.1483 38.6963 50.4723 39.8403 49.5428 40.3018L49.2373 39.8858C50.1018 39.4698 50.7258 38.4688 50.7258 37.4548V36.9543ZM50.8298 36.9543H51.2523V37.4548C51.2523 38.4038 51.8438 39.3593 52.6823 39.7753L52.3833 40.1913C51.4668 39.7363 50.8298 38.6248 50.8298 37.4548V36.9543ZM49.3998 36.5773H52.5523V37.0128H49.3998V36.5773ZM50.7193 35.6608H51.2523V36.8178H50.7193V35.6608ZM53.2673 35.5568H53.8133V41.4328H53.2673V35.5568ZM53.6833 37.9683H54.7753V38.4168H53.6833V37.9683ZM59.6693 36.4733H60.7028V36.9218H59.6693V36.4733ZM59.6693 37.7083H60.7028V38.1568H59.6693V37.7083ZM59.2923 35.5568H59.8318V39.1123H59.2923V35.5568ZM55.5288 38.3258H55.9903C57.0563 38.3258 57.8168 38.2933 58.7333 38.1308L58.7788 38.5793C57.8493 38.7353 57.0758 38.7743 55.9903 38.7743H55.5288V38.3258ZM55.5158 35.9208H58.1613V37.5198H56.0553V38.6118H55.5288V37.0973H57.6283V36.3628H55.5158V35.9208ZM57.9533 39.2878C59.1558 39.2878 59.8838 39.6778 59.8838 40.3538C59.8838 41.0363 59.1558 41.4263 57.9533 41.4263C56.7573 41.4263 56.0228 41.0363 56.0228 40.3538C56.0228 39.6778 56.7573 39.2878 57.9533 39.2878ZM57.9533 39.7103C57.0758 39.7103 56.5493 39.9443 56.5493 40.3538C56.5493 40.7698 57.0758 41.0038 57.9533 41.0038C58.8308 41.0038 59.3638 40.7698 59.3638 40.3538C59.3638 39.9443 58.8308 39.7103 57.9533 39.7103ZM63.9068 35.9273C65.1288 35.9273 66.0388 36.5773 66.0388 37.5523C66.0388 38.5338 65.1288 39.1773 63.9068 39.1773C62.6848 39.1773 61.7683 38.5338 61.7683 37.5523C61.7683 36.5773 62.6848 35.9273 63.9068 35.9273ZM63.9068 36.3693C62.9773 36.3693 62.2883 36.8438 62.2883 37.5523C62.2883 38.2543 62.9773 38.7353 63.9068 38.7353C64.8363 38.7353 65.5253 38.2543 65.5253 37.5523C65.5253 36.8438 64.8363 36.3693 63.9068 36.3693ZM61.2548 40.2043H66.5783V40.6593H61.2548V40.2043ZM67.2343 40.2628H72.5578V40.7113H67.2343V40.2628ZM69.6133 39.0018H70.1528V40.4513H69.6133V39.0018ZM67.8778 35.9923H71.9013V37.7733H68.4303V38.9498H67.8973V37.3378H71.3683V36.4278H67.8778V35.9923ZM67.8973 38.7223H72.0378V39.1643H67.8973V38.7223ZM77.4924 35.9338H78.0579C78.0579 37.4158 77.0179 38.4753 75.3279 38.9498L75.1069 38.5273C76.5954 38.1048 77.4924 37.2533 77.4924 36.1613V35.9338ZM75.4124 35.9338H77.8564V36.3693H75.4124V35.9338ZM75.9519 39.2683H79.8714V41.4198H79.3319V39.7038H75.9519V39.2683ZM79.3319 35.5568H79.8714V39.0083H79.3319V35.5568ZM78.0774 37.0973H79.4489V37.5458H78.0774V37.0973ZM84.1544 37.0778H85.4804V37.5263H84.1544V37.0778ZM85.3114 35.5568H85.8509V39.0603H85.3114V35.5568ZM83.9204 39.2358C85.1294 39.2358 85.8769 39.6453 85.8769 40.3343C85.8769 41.0298 85.1294 41.4263 83.9204 41.4263C82.7049 41.4263 81.9574 41.0298 81.9574 40.3343C81.9574 39.6453 82.7049 39.2358 83.9204 39.2358ZM83.9204 39.6583C83.0364 39.6583 82.4969 39.9053 82.4969 40.3343C82.4969 40.7568 83.0364 41.0038 83.9204 41.0038C84.8044 41.0038 85.3439 40.7568 85.3439 40.3343C85.3439 39.9053 84.8044 39.6583 83.9204 39.6583ZM82.5164 36.1483H82.9584V36.6228C82.9584 37.7083 82.2954 38.6378 81.3204 39.0018L81.0409 38.5728C81.9119 38.2543 82.5164 37.4678 82.5164 36.6228V36.1483ZM82.6204 36.1483H83.0559V36.6228C83.0559 37.3833 83.6279 38.1113 84.4794 38.4103L84.2064 38.8393C83.2509 38.4948 82.6204 37.6108 82.6204 36.6228V36.1483ZM81.2034 35.9858H84.3429V36.4278H81.2034V35.9858ZM87.6704 39.0018H88.1774V39.7363H89.2044V39.0018H89.7049V41.3548H87.6704V39.0018ZM88.1774 40.1393V40.9323H89.2044V40.1393H88.1774ZM90.8424 38.9693H91.2584V39.4568C91.2584 40.2563 90.8554 41.0623 90.0429 41.4068L89.7699 40.9973C90.4784 40.6983 90.8424 40.0548 90.8424 39.4568V38.9693ZM90.9529 38.9693H91.3689V39.4568C91.3689 40.0873 91.7329 40.7243 92.4414 40.9973L92.1684 41.4068C91.3494 41.0688 90.9529 40.2888 90.9529 39.4568V38.9693ZM89.9519 36.9348H91.5314V37.3833H89.9519V36.9348ZM88.5999 35.8168C89.4774 35.8168 90.1144 36.3628 90.1144 37.1688C90.1144 37.9683 89.4774 38.5208 88.5999 38.5208C87.7224 38.5208 87.0854 37.9683 87.0854 37.1688C87.0854 36.3628 87.7224 35.8168 88.5999 35.8168ZM88.5999 36.2653C88.0214 36.2653 87.6054 36.6358 87.6054 37.1688C87.6054 37.6953 88.0214 38.0723 88.5999 38.0723C89.1784 38.0723 89.5944 37.6953 89.5944 37.1688C89.5944 36.6358 89.1784 36.2653 88.5999 36.2653ZM91.2909 35.5568H91.8304V38.6703H91.2909V35.5568ZM97.2444 35.5503H97.7839V41.4393H97.2444V35.5503ZM94.6834 36.0053C95.5544 36.0053 96.1784 36.8048 96.1784 38.0528C96.1784 39.3073 95.5544 40.1068 94.6834 40.1068C93.8189 40.1068 93.1949 39.3073 93.1949 38.0528C93.1949 36.8048 93.8189 36.0053 94.6834 36.0053ZM94.6834 36.4928C94.1114 36.4928 93.7084 37.1038 93.7084 38.0528C93.7084 39.0083 94.1114 39.6323 94.6834 39.6323C95.2619 39.6323 95.6584 39.0083 95.6584 38.0528C95.6584 37.1038 95.2619 36.4928 94.6834 36.4928ZM105.078 35.5568H105.618V39.9313H105.078V35.5568ZM100.957 36.0313H104.051V36.4733H100.957V36.0313ZM100.86 39.0473L100.801 38.5858C101.763 38.5858 103.135 38.5728 104.233 38.4428L104.266 38.8458C103.135 39.0278 101.815 39.0473 100.86 39.0473ZM101.542 36.4083H102.062V38.6638H101.542V36.4083ZM102.946 36.4083H103.466V38.6638H102.946V36.4083ZM104.103 36.6683H105.364V37.1103H104.103V36.6683ZM104.103 37.7928H105.364V38.2348H104.103V37.7928ZM101.861 40.8608H105.774V41.3028H101.861V40.8608ZM101.861 39.5738H102.4V41.1403H101.861V39.5738ZM110.785 35.5503H111.324V39.8793H110.785V35.5503ZM111.155 37.3378H112.195V37.7863H111.155V37.3378ZM107.665 40.8608H111.591V41.3028H107.665V40.8608ZM107.665 39.4373H108.204V41.0363H107.665V39.4373ZM108.406 35.9663C109.283 35.9663 109.94 36.5708 109.94 37.4158C109.94 38.2673 109.283 38.8653 108.406 38.8653C107.528 38.8653 106.872 38.2673 106.872 37.4158C106.872 36.5708 107.528 35.9663 108.406 35.9663ZM108.406 36.4408C107.834 36.4408 107.398 36.8438 107.398 37.4158C107.398 37.9943 107.834 38.3908 108.406 38.3908C108.978 38.3908 109.413 37.9943 109.413 37.4158C109.413 36.8438 108.978 36.4408 108.406 36.4408ZM116.725 35.5568H117.264V41.4328H116.725V35.5568ZM117.134 37.9683H118.226V38.4233H117.134V37.9683ZM112.714 36.4928H116.179V36.9348H112.714V36.4928ZM114.469 37.4223C115.301 37.4223 115.899 37.9813 115.899 38.7743C115.899 39.5673 115.301 40.1263 114.469 40.1263C113.644 40.1263 113.039 39.5673 113.039 38.7743C113.039 37.9813 113.644 37.4223 114.469 37.4223ZM114.469 37.8708C113.936 37.8708 113.553 38.2413 113.553 38.7743C113.553 39.3008 113.936 39.6778 114.469 39.6778C115.002 39.6778 115.386 39.3008 115.386 38.7743C115.386 38.2413 115.002 37.8708 114.469 37.8708ZM114.19 35.6283H114.729V36.6943H114.19V35.6283ZM123.198 35.5568H123.718V41.4328H123.198V35.5568ZM120.65 37.9553H122.132V38.3908H120.65V37.9553ZM121.976 35.7063H122.483V41.1338H121.976V35.7063ZM120.722 36.2978H121.242C121.242 37.8383 120.624 39.2228 119.038 40.1653L118.72 39.7818C120.104 38.9498 120.722 37.7798 120.722 36.3953V36.2978ZM118.98 36.2978H120.923V36.7398H118.98V36.2978ZM125.6 36.1985L125.554 39.5962H125.018L124.972 36.1985H125.6ZM125.286 40.9627C125.172 40.9627 125.074 40.9219 124.993 40.8404C124.911 40.7588 124.87 40.6611 124.87 40.5472C124.87 40.4334 124.911 40.3356 124.993 40.2541C125.074 40.1725 125.172 40.1317 125.286 40.1317C125.4 40.1317 125.497 40.1725 125.579 40.2541C125.661 40.3356 125.701 40.4334 125.701 40.5472C125.701 40.6226 125.682 40.6919 125.644 40.755C125.607 40.8181 125.557 40.8688 125.494 40.9073C125.432 40.9442 125.363 40.9627 125.286 40.9627Z" fill="white"/>
<path d="M4.58484 36.4043H1.58484V41.9143H7.18494V38.7312" stroke="white"/>
<path d="M2.50427 37.9946L4.34119 40.1367L8.22791 35.4238" stroke="white"/>
</svg>
