<svg width="800" height="109" viewBox="0 0 800 109" fill="none" xmlns="http://www.w3.org/2000/svg">
<g clip-path="url(#clip0_12135_18488)">
<mask id="mask0_12135_18488" style="mask-type:luminance" maskUnits="userSpaceOnUse" x="0" y="0" width="800" height="109">
<path d="M800 0H0V109H800V0Z" fill="white"/>
</mask>
<g mask="url(#mask0_12135_18488)">
<path d="M96.916 37.194H101.97V63.11H96.916V37.194ZM73.394 39.702H91.976V43.73H73.394V39.702ZM73.014 58.93L72.52 54.788C78.182 54.788 86.086 54.712 92.432 53.99L92.698 57.676C86.162 58.778 78.6 58.93 73.014 58.93ZM76.168 43.236H81.032V55.282H76.168V43.236ZM84.338 43.236H89.164V55.282H84.338V43.236ZM92.66 43.35H99.652V47.378H92.66V43.35ZM92.66 50.418H99.652V54.484H92.66V50.418ZM78.714 67.746H102.768V71.774H78.714V67.746ZM78.714 61.21H83.806V70.786H78.714V61.21ZM130.125 37.194H135.179V62.768H130.125V37.194ZM133.735 47.264H139.853V51.406H133.735V47.264ZM112.493 67.746H136.433V71.774H112.493V67.746ZM112.493 60.108H117.547V69.532H112.493V60.108ZM117.281 39.436C122.677 39.436 126.857 43.198 126.857 48.404C126.857 53.572 122.677 57.334 117.281 57.334C111.885 57.334 107.705 53.572 107.705 48.404C107.705 43.198 111.885 39.436 117.281 39.436ZM117.281 43.844C114.697 43.844 112.645 45.516 112.645 48.404C112.645 51.254 114.697 52.926 117.281 52.926C119.903 52.926 121.917 51.254 121.917 48.404C121.917 45.516 119.903 43.844 117.281 43.844ZM165.082 37.232H170.136V63.528H165.082V37.232ZM168.692 47.948H174.81V52.09H168.692V47.948ZM142.434 40.88H163.144V44.832H142.434V40.88ZM152.808 46.086C157.862 46.086 161.434 48.86 161.434 52.888C161.434 56.916 157.862 59.652 152.808 59.652C147.716 59.652 144.144 56.916 144.144 52.888C144.144 48.86 147.716 46.086 152.808 46.086ZM152.808 49.924C150.566 49.924 149.008 50.988 149.008 52.888C149.008 54.788 150.566 55.814 152.808 55.814C155.05 55.814 156.608 54.788 156.608 52.888C156.608 50.988 155.05 49.924 152.808 49.924ZM150.262 37.156H155.316V42.818H150.262V37.156ZM147.45 67.746H171.39V71.774H147.45V67.746ZM147.45 61.552H152.504V69.494H147.45V61.552ZM201.918 44.376H211.494V48.442H201.918V44.376ZM201.918 55.282H211.494V59.348H201.918V55.282ZM195.838 39.626C201.082 39.626 204.92 44.49 204.92 52.166C204.92 59.918 201.082 64.782 195.838 64.782C190.556 64.782 186.756 59.918 186.756 52.166C186.756 44.49 190.556 39.626 195.838 39.626ZM195.838 44.224C193.292 44.224 191.544 46.998 191.544 52.166C191.544 57.41 193.292 60.222 195.838 60.222C198.422 60.222 200.132 57.41 200.132 52.166C200.132 46.998 198.422 44.224 195.838 44.224ZM210.696 37.156H215.712V72.458H210.696V37.156ZM246.337 37.194H251.125V59.234H246.337V37.194ZM242.043 45.858H247.667V49.962H242.043V45.858ZM239.041 37.878H243.753V58.094H239.041V37.878ZM220.991 40.804H238.053V44.68H220.991V40.804ZM229.579 45.82C233.987 45.82 237.179 48.328 237.179 51.976C237.179 55.624 233.987 58.094 229.579 58.094C225.171 58.094 221.979 55.624 221.979 51.976C221.979 48.328 225.171 45.82 229.579 45.82ZM229.579 49.43C227.717 49.43 226.463 50.342 226.463 51.976C226.463 53.61 227.717 54.522 229.579 54.522C231.403 54.522 232.657 53.61 232.657 51.976C232.657 50.342 231.403 49.43 229.579 49.43ZM227.033 37.536H232.011V43.464H227.033V37.536ZM239.231 59.614C246.755 59.614 251.315 61.894 251.315 65.998C251.315 70.064 246.755 72.382 239.231 72.382C231.669 72.382 227.109 70.064 227.109 65.998C227.109 61.894 231.669 59.614 239.231 59.614ZM239.231 63.376C234.519 63.376 232.163 64.174 232.163 65.998C232.163 67.784 234.519 68.62 239.231 68.62C243.905 68.62 246.261 67.784 246.261 65.998C246.261 64.174 243.905 63.376 239.231 63.376ZM273.483 39.892H277.587V45.022C277.587 54.066 274.471 62.236 267.479 65.466L264.477 61.286C270.595 58.626 273.483 51.862 273.483 45.022V39.892ZM274.471 39.892H278.575V45.022C278.575 51.52 281.349 57.98 287.353 60.564L284.389 64.63C277.587 61.514 274.471 53.686 274.471 45.022V39.892ZM289.025 37.156H294.117V72.458H289.025V37.156ZM307.68 40.804H311.822V43.008C311.822 49.658 308.668 55.624 301.942 57.79L299.32 53.876C305.21 51.976 307.68 47.416 307.68 43.008V40.804ZM308.706 40.804H312.81V43.008C312.81 47.15 315.204 51.444 320.904 53.268L318.32 57.182C311.746 55.054 308.706 49.316 308.706 43.008V40.804ZM300.688 39.246H319.688V43.274H300.688V39.246ZM322.5 37.194H327.554V58.398H322.5V37.194ZM326.148 45.706H332.228V49.848H326.148V45.706ZM304.07 59.918H327.554V72.382H322.5V63.984H304.07V59.918ZM336.291 40.69H351.453V44.68H336.291V40.69ZM340.813 50.76H345.791V62.692H340.813V50.76ZM349.439 40.69H354.417V43.54C354.417 46.96 354.417 51.216 353.467 57.068L348.527 56.612C349.439 50.988 349.439 46.922 349.439 43.54V40.69ZM357.419 37.194H362.473V72.382H357.419V37.194ZM360.991 51.33H367.185V55.51H360.991V51.33ZM334.961 65.276L334.505 61.21C340.699 61.21 348.907 61.096 355.823 60.222L356.089 63.908C348.983 65.124 341.079 65.276 334.961 65.276ZM378.561 50.076H410.405V54.104H378.561V50.076ZM381.525 38.372H389.733V42.362H381.525V38.372ZM388.251 38.372H393.191V40.272C393.191 42.78 393.191 46.618 391.443 51.71L386.579 51.026C388.251 45.972 388.251 42.704 388.251 40.272V38.372ZM395.167 38.372H404.211V42.362H395.167V38.372ZM401.855 38.372H406.795V40.804C406.795 43.654 406.795 47.226 405.313 51.9L400.411 51.216C401.855 46.618 401.855 43.54 401.855 40.804V38.372ZM382.437 56.498H406.681V60.222H387.491V69.114H382.437V56.498ZM382.437 68.24H406.947V72.002H382.437V68.24ZM385.439 62.388H405.845V65.96H385.439V62.388ZM420.54 65.2216L420.392 66.706C420.275 67.8935 420.05 69.0765 419.717 70.255C419.393 71.4425 419.051 72.5175 418.691 73.4801C418.34 74.4427 418.057 75.1984 417.841 75.7472H414.117C414.252 75.2164 414.436 74.4742 414.67 73.5206C414.904 72.576 415.124 71.5144 415.331 70.3359C415.538 69.1574 415.669 67.9564 415.722 66.733L415.79 65.2216H420.54ZM434.266 59.196H437.62C444.328 59.196 449.445 59.11 455.379 58.164L455.895 62.722C449.875 63.668 444.457 63.84 437.62 63.84H434.266V59.196ZM434.266 36.32H452.971V40.964H440.028V60.701H434.266V36.32ZM438.652 47.371H452.412V51.843H438.652V47.371ZM458.174 33.009H463.936V72.827H458.174V33.009ZM462.646 48.102H469.698V52.832H462.646V48.102ZM474.253 36.578H493.388V63.367H474.253V36.578ZM487.798 41.05H479.886V58.852H487.798V41.05ZM499.58 32.966H505.342V72.913H499.58V32.966ZM526.623 35.288H531.611V38.169C531.611 46.812 525.462 54.466 515.142 56.487L512.691 51.757C521.678 50.209 526.623 43.888 526.623 38.169V35.288ZM527.784 35.288H532.729V38.169C532.729 44.017 537.631 50.209 546.661 51.757L544.21 56.487C533.89 54.466 527.784 46.941 527.784 38.169V35.288ZM511.874 63.324H547.908V67.968H511.874V63.324ZM579.142 57.777C587.742 57.777 593.246 60.615 593.246 65.345C593.246 69.989 587.742 72.827 579.142 72.827C570.542 72.827 565.038 69.989 565.038 65.345C565.038 60.615 570.542 57.777 579.142 57.777ZM579.142 62.077C573.767 62.077 570.714 63.195 570.714 65.345C570.714 67.452 573.767 68.527 579.142 68.527C584.517 68.527 587.57 67.452 587.57 65.345C587.57 63.195 584.517 62.077 579.142 62.077ZM565.468 34.772H590.666V39.287H565.468V34.772ZM561.426 50.768H597.288V55.326H561.426V50.768ZM574.713 43.845H580.389V51.929H574.713V43.845ZM587.355 34.772H593.031V38.04C593.031 41.179 593.031 44.576 591.956 48.704L586.28 48.102C587.355 44.017 587.355 41.136 587.355 38.04V34.772ZM626.525 33.009H632.244V58.25H626.525V33.009ZM630.653 43.157H637.533V47.844H630.653V43.157ZM619.301 58.68C627.514 58.68 632.674 61.303 632.674 65.775C632.674 70.204 627.514 72.827 619.301 72.827C611.088 72.827 605.928 70.204 605.928 65.775C605.928 61.303 611.088 58.68 619.301 58.68ZM619.301 62.98C614.27 62.98 611.604 63.883 611.604 65.775C611.604 67.667 614.27 68.57 619.301 68.57C624.332 68.57 626.998 67.667 626.998 65.775C626.998 63.883 624.332 62.98 619.301 62.98ZM600.897 36.793H624.332V41.222H600.897V36.793ZM612.636 42.555C618.398 42.555 622.397 45.436 622.397 49.693C622.397 53.993 618.398 56.831 612.636 56.831C606.831 56.831 602.832 53.993 602.832 49.693C602.832 45.436 606.831 42.555 612.636 42.555ZM612.636 46.726C610.056 46.726 608.336 47.758 608.336 49.693C608.336 51.628 610.056 52.66 612.636 52.66C615.173 52.66 616.936 51.628 616.936 49.693C616.936 47.758 615.173 46.726 612.636 46.726ZM609.755 32.751H615.474V39.158H609.755V32.751ZM678.012 32.966H683.817V72.913H678.012V32.966ZM670.874 40.921H681.194V45.565H670.874V40.921ZM670.874 50.596H681.194V55.326H670.874V50.596ZM659.651 36.062H664.252V41.824C664.252 51.843 660.855 61.045 653.416 64.786L649.847 60.228C656.641 57.089 659.651 49.392 659.651 41.824V36.062ZM660.855 36.062H665.413V41.824C665.413 49.478 668.294 56.874 674.873 59.841L671.433 64.399C663.994 60.744 660.855 51.843 660.855 41.824V36.062ZM694.391 45.178H722.126V49.048H694.391V45.178ZM694.391 33.826H721.825V37.696H700.067V47.027H694.391V33.826ZM698.476 39.545H720.922V43.243H698.476V39.545ZM690.048 50.811H725.91V55.025H690.048V50.811ZM694.09 56.874H721.61V66.549H699.766V70.548H694.133V62.765H715.977V60.873H694.09V56.874ZM694.133 68.57H722.642V72.569H694.133V68.57Z" fill="white"/>
<path d="M72.0535 12.76H89.619V14.222H72.0535V12.76ZM79.9655 9.8575H81.7285V13.2115H79.9655V9.8575ZM74.01 16.114H87.4475V22.177H85.663V17.576H74.01V16.114ZM74.397 3.1925H76.16V5.3855H85.5555V3.1925H87.34V10.4595H74.397V3.1925ZM76.16 6.783V9.0405H85.5555V6.783H76.16ZM96.6048 4.547H98.0668V6.1165C98.0668 9.5995 95.8953 12.4805 92.6058 13.62L91.7243 12.201C94.6483 11.212 96.6048 8.8255 96.6048 6.1165V4.547ZM96.9273 4.547H98.3893V6.095C98.3893 8.589 100.26 10.868 103.119 11.7925L102.281 13.19C99.0343 12.1365 96.9273 9.363 96.9273 6.095V4.547ZM92.2618 4.0095H102.668V5.4715H92.2618V4.0095ZM105.14 2.741H106.925V13.405H105.14V2.741ZM106.43 7.213H109.806V8.718H106.43V7.213ZM94.6698 14.3295H96.4328V16.6515H105.162V14.3295H106.925V21.919H94.6698V14.3295ZM96.4328 18.0705V20.4785H105.162V18.0705H96.4328ZM124.919 2.7625H126.703V17.3395H124.919V2.7625ZM126.144 9.1265H129.584V10.6315H126.144V9.1265ZM111.675 5.106H123.156V6.5465H111.675V5.106ZM117.415 7.6215C120.167 7.6215 122.059 9.062 122.059 11.255C122.059 13.4265 120.167 14.867 117.415 14.867C114.642 14.867 112.75 13.4265 112.75 11.255C112.75 9.062 114.642 7.6215 117.415 7.6215ZM117.415 9.019C115.652 9.019 114.448 9.9005 114.448 11.255C114.448 12.588 115.652 13.4695 117.415 13.4695C119.157 13.4695 120.361 12.588 120.361 11.255C120.361 9.9005 119.157 9.019 117.415 9.019ZM116.512 2.741H118.297V5.8585H116.512V2.741ZM114.599 20.285H127.585V21.747H114.599V20.285ZM114.599 16.1785H116.383V20.9085H114.599V16.1785ZM146.164 14.996C150.292 14.996 152.937 16.3505 152.937 18.5865C152.937 20.801 150.292 22.134 146.164 22.134C142.015 22.134 139.392 20.801 139.392 18.5865C139.392 16.3505 142.015 14.996 146.164 14.996ZM146.164 16.3935C143.111 16.3935 141.155 17.232 141.155 18.5865C141.155 19.9195 143.111 20.758 146.164 20.758C149.217 20.758 151.152 19.9195 151.152 18.5865C151.152 17.232 149.217 16.3935 146.164 16.3935ZM139.542 3.7085H152.055V5.1705H139.542V3.7085ZM137.457 11.7925H155.001V13.233H137.457V11.7925ZM144.659 8.0515H146.422V12.201H144.659V8.0515ZM151.023 3.7085H152.765V5.364C152.765 6.9335 152.765 8.503 152.249 10.524L150.486 10.309C151.023 8.3095 151.023 6.8905 151.023 5.364V3.7085ZM170.522 2.741H172.307V15.254H170.522V2.741ZM171.812 8.1375H175.188V9.621H171.812V8.1375ZM166.201 15.426C170.135 15.426 172.522 16.6515 172.522 18.78C172.522 20.9085 170.135 22.134 166.201 22.134C162.288 22.134 159.88 20.9085 159.88 18.78C159.88 16.6515 162.288 15.426 166.201 15.426ZM166.201 16.802C163.363 16.802 161.643 17.533 161.643 18.78C161.643 20.0485 163.363 20.758 166.201 20.758C169.06 20.758 170.78 20.0485 170.78 18.78C170.78 17.533 169.06 16.802 166.201 16.802ZM157.278 4.934H168.759V6.353H157.278V4.934ZM163.019 7.342C165.792 7.342 167.663 8.675 167.663 10.7605C167.663 12.8675 165.792 14.2005 163.019 14.2005C160.224 14.2005 158.353 12.8675 158.353 10.7605C158.353 8.675 160.224 7.342 163.019 7.342ZM163.019 8.6965C161.234 8.6965 160.052 9.5135 160.052 10.7605C160.052 12.029 161.234 12.846 163.019 12.846C164.76 12.846 165.964 12.029 165.964 10.7605C165.964 9.5135 164.76 8.6965 163.019 8.6965ZM162.116 2.569H163.9V5.7295H162.116V2.569ZM184.882 10.2875H188.559V11.771H184.882V10.2875ZM191.805 2.741H193.525V22.177H191.805V2.741ZM187.957 3.1495H189.655V21.2095H187.957V3.1495ZM181.378 4.3535C183.893 4.3535 185.527 6.955 185.527 11.126C185.527 15.297 183.893 17.8985 181.378 17.8985C178.862 17.8985 177.25 15.297 177.25 11.126C177.25 6.955 178.862 4.3535 181.378 4.3535ZM181.378 6.009C179.851 6.009 178.884 7.987 178.884 11.126C178.884 14.265 179.851 16.243 181.378 16.243C182.926 16.243 183.893 14.265 183.893 11.126C183.893 7.987 182.926 6.009 181.378 6.009ZM206.488 9.32H211.906V10.782H206.488V9.32ZM201.801 4.418H203.263V7.8795C203.263 12.244 200.963 16.415 197.888 18.0705L196.749 16.6515C199.608 15.2325 201.801 11.4915 201.801 7.8795V4.418ZM202.145 4.418H203.586V7.8795C203.586 11.427 205.779 14.953 208.595 16.286L207.542 17.7265C204.403 16.1355 202.145 12.1365 202.145 7.8795V4.418ZM211.025 2.7195H212.788V22.1985H211.025V2.7195ZM223.477 4.6975H230.98V13.5125H223.477V4.6975ZM229.303 6.0735H225.132V12.0935H229.303V6.0735ZM237.28 2.7625H238.978V17.232H237.28V2.7625ZM234.162 8.46H237.817V9.9435H234.162V8.46ZM233.109 3.1065H234.807V16.544H233.109V3.1065ZM226.315 20.285H239.58V21.747H226.315V20.285ZM226.315 15.469H228.099V21.016H226.315V15.469ZM242.352 6.052H251.984V7.514H242.352V6.052ZM247.168 8.804C249.598 8.804 251.361 10.6315 251.361 13.2545C251.361 15.856 249.598 17.6835 247.168 17.6835C244.76 17.6835 242.997 15.856 242.997 13.2545C242.997 10.6315 244.76 8.804 247.168 8.804ZM247.168 10.3305C245.685 10.3305 244.61 11.5345 244.61 13.2545C244.61 14.9745 245.685 16.1785 247.168 16.1785C248.673 16.1785 249.77 14.9745 249.77 13.2545C249.77 11.5345 248.673 10.3305 247.168 10.3305ZM257.123 2.741H258.843V22.177H257.123V2.741ZM254.027 10.911H257.703V12.3945H254.027V10.911ZM252.973 3.171H254.65V21.231H252.973V3.171ZM246.308 3.3H248.071V6.955H246.308V3.3ZM262.152 13.491H279.718V14.953H262.152V13.491ZM264.41 20.285H277.89V21.747H264.41V20.285ZM264.41 16.372H266.194V20.844H264.41V16.372ZM264.474 10.309H277.654V11.7065H264.474V10.309ZM264.474 3.4505H277.568V4.8695H266.237V10.8465H264.474V3.4505ZM265.721 6.869H277.052V8.2235H265.721V6.869ZM293.18 4.2245C295.997 4.2245 298.018 6.869 298.018 10.997C298.018 15.1465 295.997 17.791 293.18 17.791C290.342 17.791 288.343 15.1465 288.343 10.997C288.343 6.869 290.342 4.2245 293.18 4.2245ZM293.18 5.837C291.31 5.837 290.041 7.858 290.041 10.997C290.041 14.1575 291.31 16.2215 293.18 16.2215C295.051 16.2215 296.319 14.1575 296.319 10.997C296.319 7.858 295.051 5.837 293.18 5.837ZM302.232 2.7195H303.995V22.1985H302.232V2.7195ZM297.437 10.137H303.006V11.599H297.437V10.137ZM310.443 14.308H324.289V15.7055H310.443V14.308ZM317.345 16.6085C320.828 16.6085 322.849 17.5975 322.849 19.4035C322.849 21.188 320.828 22.1555 317.345 22.1555C313.905 22.1555 311.862 21.188 311.862 19.4035C311.862 17.5975 313.905 16.6085 317.345 16.6085ZM317.345 17.877C315.087 17.877 313.733 18.4145 313.733 19.4035C313.733 20.371 315.087 20.9085 317.345 20.9085C319.624 20.9085 320.978 20.371 320.978 19.4035C320.978 18.4145 319.624 17.877 317.345 17.877ZM316.485 12.459H318.269V15.2325H316.485V12.459ZM308.272 10.266H309.132C310.271 10.266 311.712 10.223 313.389 9.8575L313.582 11.298C311.776 11.685 310.336 11.7065 309.132 11.7065H308.272V10.266ZM308.272 3.687H313.131V5.106H310.035V11.255H308.272V3.687ZM314.227 10.266H315.195C317.259 10.266 318.656 10.223 320.333 9.836L320.484 11.255C318.742 11.642 317.323 11.7065 315.195 11.7065H314.227V10.266ZM314.227 3.687H319.602V5.106H315.99V11.255H314.227V3.687ZM322.182 2.741H323.967V13.061H322.182V2.741ZM318.721 6.783H323.15V8.159H318.721V6.783ZM342.347 2.741H344.067V22.177H342.347V2.741ZM333.919 10.6745H338.821V12.115H333.919V10.6745ZM338.305 3.2355H339.982V21.188H338.305V3.2355ZM334.156 5.192H335.876C335.876 10.2875 333.833 14.867 328.587 17.9845L327.534 16.716C332.113 13.964 334.156 10.094 334.156 5.5145V5.192ZM328.394 5.192H334.822V6.654H328.394V5.192ZM366.517 2.7195H368.323V22.177H366.517V2.7195ZM367.829 10.61H371.419V12.0935H367.829V10.61ZM361.551 4.8265H363.292C363.292 10.352 360.755 15.34 354.477 18.5005L353.488 17.1245C358.863 14.394 361.551 10.2445 361.551 5.106V4.8265ZM354.391 4.8265H362.475V6.2885H354.391V4.8265ZM378.297 5.5145H379.738V8.675C379.738 12.7815 377.265 16.9095 374.169 18.436L373.137 17.017C375.954 15.684 378.297 12.029 378.297 8.675V5.5145ZM378.641 5.5145H380.082V8.675C380.082 11.9645 382.425 15.3185 385.285 16.544L384.274 17.963C381.135 16.501 378.641 12.717 378.641 8.675V5.5145ZM373.782 4.719H384.64V6.224H373.782V4.719ZM387.263 2.741H389.047V22.177H387.263V2.741ZM395.863 16.1023V16.0107C395.873 15.0385 395.975 14.2648 396.168 13.6896C396.362 13.1145 396.637 12.6487 396.993 12.2924C397.349 11.9361 397.777 11.6078 398.276 11.3075C398.576 11.1243 398.846 10.908 399.085 10.6586C399.324 10.4041 399.513 10.1114 399.65 9.78054C399.792 9.44969 399.864 9.08321 399.864 8.68111C399.864 8.18229 399.747 7.74964 399.513 7.38317C399.278 7.01669 398.965 6.7342 398.573 6.53569C398.181 6.33718 397.746 6.23793 397.268 6.23793C396.85 6.23793 396.448 6.32445 396.062 6.49751C395.675 6.67057 395.351 6.94289 395.092 7.31445C394.832 7.68602 394.682 8.17211 394.641 8.77273H392.717C392.758 7.90743 392.982 7.16684 393.389 6.55096C393.802 5.93507 394.344 5.46425 395.016 5.13849C395.693 4.81274 396.443 4.64986 397.268 4.64986C398.164 4.64986 398.942 4.82801 399.604 5.1843C400.271 5.5406 400.785 6.02924 401.146 6.65021C401.513 7.27119 401.696 7.97869 401.696 8.77273C401.696 9.33262 401.61 9.83907 401.437 10.2921C401.269 10.7451 401.024 11.1497 400.704 11.506C400.388 11.8623 400.006 12.1779 399.558 12.4528C399.11 12.7327 398.752 13.0279 398.482 13.3384C398.212 13.6438 398.016 14.0078 397.894 14.4302C397.772 14.8527 397.706 15.3795 397.695 16.0107V16.1023H395.863ZM396.84 20.6222C396.464 20.6222 396.14 20.4873 395.871 20.2175C395.601 19.9477 395.466 19.6245 395.466 19.2479C395.466 18.8712 395.601 18.548 395.871 18.2782C396.14 18.0085 396.464 17.8736 396.84 17.8736C397.217 17.8736 397.54 18.0085 397.81 18.2782C398.08 18.548 398.215 18.8712 398.215 19.2479C398.215 19.4973 398.151 19.7263 398.024 19.935C397.902 20.1437 397.736 20.3117 397.527 20.4389C397.324 20.5611 397.095 20.6222 396.84 20.6222Z" fill="white"/>
<path d="M96.938 104.179C96.188 104.179 95.5126 104.03 94.9117 103.732C94.3109 103.433 93.8294 103.024 93.4671 102.504C93.1049 101.984 92.9068 101.392 92.8727 100.727H94.4068C94.4664 101.32 94.7349 101.81 95.2122 102.197C95.6937 102.581 96.269 102.773 96.938 102.773C97.475 102.773 97.9522 102.647 98.3698 102.396C98.7917 102.144 99.122 101.799 99.3606 101.36C99.6035 100.917 99.725 100.416 99.725 99.858C99.725 99.2869 99.5992 98.7777 99.3478 98.3303C99.1007 97.8786 98.7598 97.5227 98.3251 97.2628C97.8904 97.0028 97.394 96.8707 96.8358 96.8665C96.4352 96.8622 96.024 96.924 95.6021 97.0518C95.1802 97.1754 94.8329 97.3352 94.5602 97.5312L93.0772 97.3523L93.8698 90.9091H100.671V92.3153H95.1994L94.7392 96.1761H94.8159C95.0843 95.9631 95.421 95.7862 95.8258 95.6456C96.2306 95.505 96.6525 95.4347 97.0914 95.4347C97.8926 95.4347 98.6064 95.6264 99.2328 96.0099C99.8635 96.3892 100.358 96.9091 100.716 97.5696C101.078 98.2301 101.259 98.9844 101.259 99.8324C101.259 100.668 101.072 101.413 100.697 102.07C100.326 102.722 99.8144 103.237 99.1625 103.616C98.5105 103.991 97.769 104.179 96.938 104.179ZM108.068 104.179C107.105 104.179 106.285 103.917 105.607 103.393C104.93 102.864 104.412 102.099 104.054 101.098C103.696 100.092 103.517 98.8778 103.517 97.4545C103.517 96.0398 103.696 94.8317 104.054 93.8303C104.416 92.8246 104.936 92.0575 105.614 91.5291C106.295 90.9964 107.114 90.7301 108.068 90.7301C109.023 90.7301 109.839 90.9964 110.516 91.5291C111.198 92.0575 111.718 92.8246 112.076 93.8303C112.438 94.8317 112.619 96.0398 112.619 97.4545C112.619 98.8778 112.44 100.092 112.082 101.098C111.724 102.099 111.207 102.864 110.529 103.393C109.852 103.917 109.031 104.179 108.068 104.179ZM108.068 102.773C109.023 102.773 109.764 102.312 110.293 101.392C110.821 100.472 111.085 99.1591 111.085 97.4545C111.085 96.321 110.964 95.3558 110.721 94.5589C110.482 93.7621 110.137 93.1548 109.685 92.7372C109.238 92.3196 108.699 92.1108 108.068 92.1108C107.122 92.1108 106.383 92.5774 105.85 93.5107C105.317 94.4396 105.051 95.7543 105.051 97.4545C105.051 98.5881 105.17 99.5511 105.409 100.344C105.648 101.136 105.991 101.739 106.438 102.153C106.89 102.566 107.433 102.773 108.068 102.773ZM119.318 104.179C118.355 104.179 117.535 103.917 116.857 103.393C116.18 102.864 115.662 102.099 115.304 101.098C114.946 100.092 114.767 98.8778 114.767 97.4545C114.767 96.0398 114.946 94.8317 115.304 93.8303C115.666 92.8246 116.186 92.0575 116.864 91.5291C117.545 90.9964 118.364 90.7301 119.318 90.7301C120.273 90.7301 121.089 90.9964 121.766 91.5291C122.448 92.0575 122.968 92.8246 123.326 93.8303C123.688 94.8317 123.869 96.0398 123.869 97.4545C123.869 98.8778 123.69 100.092 123.332 101.098C122.974 102.099 122.457 102.864 121.779 103.393C121.102 103.917 120.281 104.179 119.318 104.179ZM119.318 102.773C120.273 102.773 121.014 102.312 121.543 101.392C122.071 100.472 122.335 99.1591 122.335 97.4545C122.335 96.321 122.214 95.3558 121.971 94.5589C121.732 93.7621 121.387 93.1548 120.935 92.7372C120.488 92.3196 119.949 92.1108 119.318 92.1108C118.372 92.1108 117.633 92.5774 117.1 93.5107C116.567 94.4396 116.301 95.7543 116.301 97.4545C116.301 98.5881 116.42 99.5511 116.659 100.344C116.898 101.136 117.241 101.739 117.688 102.153C118.14 102.566 118.683 102.773 119.318 102.773ZM126.509 90.59H133.979V98.132H126.509V90.59ZM132.521 91.796H127.967V96.926H132.521V91.796ZM136.967 89.114H138.461V101.048H136.967V89.114ZM137.993 94.082H140.873V95.324H137.993V94.082ZM128.327 103.82H139.199V105.044H128.327V103.82ZM128.327 99.914H129.821V104.342H128.327V99.914ZM148.99 96.944H150.466V99.428H148.99V96.944ZM144.346 89.384H145.822V90.896H153.688V89.384H155.182V94.748H144.346V89.384ZM145.822 92.048V93.596H153.688V92.048H145.822ZM142.384 96.08H157.09V97.286H142.384V96.08ZM144.166 98.87H155.218V102.488H145.678V104.504H144.202V101.408H153.742V100.004H144.166V98.87ZM144.202 104.072H155.704V105.224H144.202V104.072ZM164.023 102.092H178.765V103.334H164.023V102.092ZM170.611 98.204H172.105V102.452H170.611V98.204ZM165.751 90.284H167.227V93.182H175.525V90.284H177.001V98.6H165.751V90.284ZM167.227 94.388V97.376H175.525V94.388H167.227ZM192.461 89.132H193.955V98.978H192.461V89.132ZM189.761 94.064H193.127V95.306H189.761V94.064ZM183.407 99.842H193.955V105.188H183.407V99.842ZM192.497 101.048H184.865V103.982H192.497V101.048ZM180.599 90.824H190.013V92.03H180.599V90.824ZM185.297 92.858C187.493 92.858 189.059 94.046 189.059 95.774C189.059 97.502 187.493 98.654 185.297 98.654C183.101 98.654 181.535 97.502 181.535 95.774C181.535 94.046 183.101 92.858 185.297 92.858ZM185.297 94.01C183.929 94.01 182.957 94.712 182.957 95.774C182.957 96.818 183.929 97.52 185.297 97.52C186.665 97.52 187.637 96.818 187.637 95.774C187.637 94.712 186.665 94.01 185.297 94.01ZM184.559 88.97H186.053V91.688H184.559V88.97ZM206.163 93.002H207.333V94.388C207.333 97.826 205.461 100.994 202.887 102.272L202.041 101.12C204.435 99.968 206.163 97.196 206.163 94.388V93.002ZM206.451 93.002H207.621V94.388C207.621 97.016 209.259 99.662 211.581 100.814L210.753 101.966C208.215 100.706 206.451 97.628 206.451 94.388V93.002ZM202.491 91.958H211.221V93.164H202.491V91.958ZM206.145 89.42H207.621V92.624H206.145V89.42ZM213.201 89.132H214.713V105.404H213.201V89.132ZM214.353 95.81H217.377V97.052H214.353V95.81ZM230.929 91.67H233.791V92.912H230.929V91.67ZM230.929 95.09H233.791V96.332H230.929V95.09ZM229.885 89.132H231.379V98.978H229.885V89.132ZM219.463 96.8H220.741C223.693 96.8 225.799 96.71 228.337 96.26L228.463 97.502C225.889 97.934 223.747 98.042 220.741 98.042H219.463V96.8ZM219.427 90.14H226.753V94.568H220.921V97.592H219.463V93.398H225.277V91.364H219.427V90.14ZM226.177 99.464C229.507 99.464 231.523 100.544 231.523 102.416C231.523 104.306 229.507 105.386 226.177 105.386C222.865 105.386 220.831 104.306 220.831 102.416C220.831 100.544 222.865 99.464 226.177 99.464ZM226.177 100.634C223.747 100.634 222.289 101.282 222.289 102.416C222.289 103.568 223.747 104.216 226.177 104.216C228.607 104.216 230.083 103.568 230.083 102.416C230.083 101.282 228.607 100.634 226.177 100.634ZM242.664 90.158C246.048 90.158 248.568 91.958 248.568 94.658C248.568 97.376 246.048 99.158 242.664 99.158C239.28 99.158 236.742 97.376 236.742 94.658C236.742 91.958 239.28 90.158 242.664 90.158ZM242.664 91.382C240.09 91.382 238.182 92.696 238.182 94.658C238.182 96.602 240.09 97.934 242.664 97.934C245.238 97.934 247.146 96.602 247.146 94.658C247.146 92.696 245.238 91.382 242.664 91.382ZM235.32 102.002H250.062V103.262H235.32V102.002ZM251.878 102.164H266.62V103.406H251.878V102.164ZM258.466 98.672H259.96V102.686H258.466V98.672ZM253.66 90.338H264.802V95.27H255.19V98.528H253.714V94.064H263.326V91.544H253.66V90.338ZM253.714 97.898H265.18V99.122H253.714V97.898ZM280.285 90.176H281.851C281.851 94.28 278.971 97.214 274.291 98.528L273.679 97.358C277.801 96.188 280.285 93.83 280.285 90.806V90.176ZM274.525 90.176H281.293V91.382H274.525V90.176ZM276.019 99.41H286.873V105.368H285.379V100.616H276.019V99.41ZM285.379 89.132H286.873V98.69H285.379V89.132ZM281.905 93.398H285.703V94.64H281.905V93.398ZM298.734 93.344H302.406V94.586H298.734V93.344ZM301.938 89.132H303.432V98.834H301.938V89.132ZM298.086 99.32C301.434 99.32 303.504 100.454 303.504 102.362C303.504 104.288 301.434 105.386 298.086 105.386C294.72 105.386 292.65 104.288 292.65 102.362C292.65 100.454 294.72 99.32 298.086 99.32ZM298.086 100.49C295.638 100.49 294.144 101.174 294.144 102.362C294.144 103.532 295.638 104.216 298.086 104.216C300.534 104.216 302.028 103.532 302.028 102.362C302.028 101.174 300.534 100.49 298.086 100.49ZM294.198 90.77H295.422V92.084C295.422 95.09 293.586 97.664 290.886 98.672L290.112 97.484C292.524 96.602 294.198 94.424 294.198 92.084V90.77ZM294.486 90.77H295.692V92.084C295.692 94.19 297.276 96.206 299.634 97.034L298.878 98.222C296.232 97.268 294.486 94.82 294.486 92.084V90.77ZM290.562 90.32H299.256V91.544H290.562V90.32ZM308.471 98.672H309.875V100.706H312.719V98.672H314.105V105.188H308.471V98.672ZM309.875 101.822V104.018H312.719V101.822H309.875ZM317.255 98.582H318.407V99.932C318.407 102.146 317.291 104.378 315.041 105.332L314.285 104.198C316.247 103.37 317.255 101.588 317.255 99.932V98.582ZM317.561 98.582H318.713V99.932C318.713 101.678 319.721 103.442 321.683 104.198L320.927 105.332C318.659 104.396 317.561 102.236 317.561 99.932V98.582ZM314.789 92.948H319.163V94.19H314.789V92.948ZM311.045 89.852C313.475 89.852 315.239 91.364 315.239 93.596C315.239 95.81 313.475 97.34 311.045 97.34C308.615 97.34 306.851 95.81 306.851 93.596C306.851 91.364 308.615 89.852 311.045 89.852ZM311.045 91.094C309.443 91.094 308.291 92.12 308.291 93.596C308.291 95.054 309.443 96.098 311.045 96.098C312.647 96.098 313.799 95.054 313.799 93.596C313.799 92.12 312.647 91.094 311.045 91.094ZM318.497 89.132H319.991V97.754H318.497V89.132ZM334.983 89.114H336.477V105.422H334.983V89.114ZM327.891 90.374C330.303 90.374 332.031 92.588 332.031 96.044C332.031 99.518 330.303 101.732 327.891 101.732C325.497 101.732 323.769 99.518 323.769 96.044C323.769 92.588 325.497 90.374 327.891 90.374ZM327.891 91.724C326.307 91.724 325.191 93.416 325.191 96.044C325.191 98.69 326.307 100.418 327.891 100.418C329.493 100.418 330.591 98.69 330.591 96.044C330.591 93.416 329.493 91.724 327.891 91.724ZM356.676 89.132H358.17V101.246H356.676V89.132ZM345.264 90.446H353.832V91.67H345.264V90.446ZM344.994 98.798L344.832 97.52C347.496 97.52 351.294 97.484 354.336 97.124L354.426 98.24C351.294 98.744 347.64 98.798 344.994 98.798ZM346.884 91.49H348.324V97.736H346.884V91.49ZM350.772 91.49H352.212V97.736H350.772V91.49ZM353.976 92.21H357.468V93.434H353.976V92.21ZM353.976 95.324H357.468V96.548H353.976V95.324ZM347.766 103.82H358.602V105.044H347.766V103.82ZM347.766 100.256H349.26V104.594H347.766V100.256ZM372.479 89.114H373.973V101.102H372.479V89.114ZM373.505 94.064H376.385V95.306H373.505V94.064ZM363.839 103.82H374.711V105.044H363.839V103.82ZM363.839 99.878H365.333V104.306H363.839V99.878ZM365.891 90.266C368.321 90.266 370.139 91.94 370.139 94.28C370.139 96.638 368.321 98.294 365.891 98.294C363.461 98.294 361.643 96.638 361.643 94.28C361.643 91.94 363.461 90.266 365.891 90.266ZM365.891 91.58C364.307 91.58 363.101 92.696 363.101 94.28C363.101 95.882 364.307 96.98 365.891 96.98C367.475 96.98 368.681 95.882 368.681 94.28C368.681 92.696 367.475 91.58 365.891 91.58ZM388.929 89.132H390.423V105.404H388.929V89.132ZM390.063 95.81H393.087V97.07H390.063V95.81ZM377.823 91.724H387.417V92.948H377.823V91.724ZM382.683 94.298C384.987 94.298 386.643 95.846 386.643 98.042C386.643 100.238 384.987 101.786 382.683 101.786C380.397 101.786 378.723 100.238 378.723 98.042C378.723 95.846 380.397 94.298 382.683 94.298ZM382.683 95.54C381.207 95.54 380.145 96.566 380.145 98.042C380.145 99.5 381.207 100.544 382.683 100.544C384.159 100.544 385.221 99.5 385.221 98.042C385.221 96.566 384.159 95.54 382.683 95.54ZM381.909 89.33H383.403V92.282H381.909V89.33ZM406.856 89.132H408.296V105.404H406.856V89.132ZM399.8 95.774H403.904V96.98H399.8V95.774ZM403.472 89.546H404.876V104.576H403.472V89.546ZM399.998 91.184H401.438C401.438 95.45 399.728 99.284 395.336 101.894L394.454 100.832C398.288 98.528 399.998 95.288 399.998 91.454V91.184ZM395.174 91.184H400.556V92.408H395.174V91.184ZM413.506 90.9091L413.378 100.318H411.895L411.767 90.9091H413.506ZM412.636 104.102C412.321 104.102 412.05 103.989 411.825 103.763C411.599 103.538 411.486 103.267 411.486 102.952C411.486 102.636 411.599 102.366 411.825 102.14C412.05 101.914 412.321 101.801 412.636 101.801C412.952 101.801 413.222 101.914 413.448 102.14C413.674 102.366 413.787 102.636 413.787 102.952C413.787 103.161 413.734 103.352 413.627 103.527C413.525 103.702 413.386 103.842 413.212 103.949C413.041 104.051 412.849 104.102 412.636 104.102Z" fill="white"/>
<path d="M79.562 91.792H72V105.681H86.1201V97.656" stroke="white" stroke-width="1.8"/>
<path d="M74.3154 95.8022L78.9443 101.202L88.7441 89.3193" stroke="white" stroke-width="1.8"/>
</g>
</g>
<defs>
<clipPath id="clip0_12135_18488">
<rect width="800" height="109" fill="white"/>
</clipPath>
</defs>
</svg>
