<svg width="345" height="47" viewBox="0 0 345 47" fill="none" xmlns="http://www.w3.org/2000/svg">
<g clip-path="url(#clip0_12133_18358)">
<mask id="mask0_12133_18358" style="mask-type:luminance" maskUnits="userSpaceOnUse" x="0" y="0" width="345" height="47">
<path d="M345 0H0V47H345V0Z" fill="white"/>
</mask>
<g mask="url(#mask0_12133_18358)">
<path d="M83.304 17.771H85.306V19.162H83.304V17.771ZM83.304 21.489H85.306V22.893H83.304V21.489ZM87.217 15.119H88.868V27.157H87.217V15.119ZM84.812 15.301H86.424V26.611H84.812V15.301ZM81.224 15.964C82.823 15.964 83.85 17.615 83.85 20.332C83.85 23.062 82.823 24.713 81.224 24.713C79.638 24.713 78.624 23.062 78.624 20.332C78.624 17.615 79.638 15.964 81.224 15.964ZM81.224 17.589C80.561 17.589 80.171 18.499 80.171 20.332C80.171 22.178 80.561 23.075 81.224 23.075C81.9 23.075 82.29 22.178 82.29 20.332C82.29 18.499 81.9 17.589 81.224 17.589ZM95.042 15.184H96.498V15.405C96.498 17.42 94.691 19.006 91.584 19.344L91.012 18.044C93.729 17.771 95.042 16.575 95.042 15.405V15.184ZM95.341 15.184H96.81V15.405C96.81 16.575 98.123 17.771 100.827 18.044L100.255 19.344C97.148 19.006 95.341 17.42 95.341 15.405V15.184ZM95.042 20.891H96.771V22.568H95.042V20.891ZM90.479 19.838H101.36V21.19H90.479V19.838ZM91.727 21.97H100.047V25.09H93.443V26.13H91.74V23.894H98.344V23.257H91.727V21.97ZM91.74 25.779H100.359V27.079H91.74V25.779ZM110.784 15.119H112.513V27.157H110.784V15.119ZM108.457 19.734H111.616V21.138H108.457V19.734ZM106.832 16.367H108.535C108.535 20.02 107.378 22.997 103.205 25.09L102.295 23.738C105.701 22.048 106.832 19.864 106.832 16.679V16.367ZM102.867 16.367H107.742V17.732H102.867V16.367ZM117.075 16.458H118.492V17.212C118.492 19.513 117.413 21.58 115.086 22.347L114.228 20.982C116.23 20.319 117.075 18.746 117.075 17.212V16.458ZM117.426 16.458H118.83V17.212C118.83 18.616 119.636 19.994 121.573 20.579L120.754 21.931C118.466 21.242 117.426 19.357 117.426 17.212V16.458ZM114.683 15.925H121.183V17.303H114.683V15.925ZM122.145 15.119H123.874V22.256H122.145V15.119ZM123.393 17.888H125.473V19.305H123.393V17.888ZM119.948 22.477C122.444 22.477 124.017 23.348 124.017 24.817C124.017 26.286 122.444 27.157 119.948 27.157C117.439 27.157 115.866 26.286 115.866 24.817C115.866 23.348 117.439 22.477 119.948 22.477ZM119.948 23.829C118.414 23.829 117.582 24.141 117.582 24.817C117.582 25.493 118.414 25.831 119.948 25.831C121.482 25.831 122.301 25.493 122.301 24.817C122.301 24.141 121.482 23.829 119.948 23.829ZM130.23 15.912C132.128 15.912 133.545 17.147 133.545 18.876C133.545 20.618 132.128 21.853 130.23 21.853C128.345 21.853 126.902 20.618 126.902 18.876C126.902 17.147 128.345 15.912 130.23 15.912ZM130.23 17.394C129.307 17.394 128.605 17.94 128.605 18.876C128.605 19.825 129.307 20.371 130.23 20.371C131.153 20.371 131.855 19.825 131.855 18.876C131.855 17.94 131.153 17.394 130.23 17.394ZM134.676 15.106H136.405V27.183H134.676V15.106ZM126.616 24.739L126.408 23.348C128.527 23.348 131.478 23.322 134.013 22.945L134.143 24.193C131.53 24.713 128.696 24.739 126.616 24.739ZM141.688 16.25H147.447V24.232H141.688V16.25ZM145.744 17.602H143.391V22.867H145.744V17.602ZM149.02 15.119H150.762V27.157H149.02V15.119ZM150.372 19.656H152.504V21.086H150.372V19.656ZM157.755 15.808H159.263V16.679C159.263 19.292 157.404 21.606 154.284 22.217L153.543 20.787C156.26 20.319 157.755 18.408 157.755 16.679V15.808ZM158.106 15.808H159.601V16.679C159.601 18.447 161.083 20.319 163.813 20.787L163.072 22.217C159.952 21.606 158.106 19.331 158.106 16.679V15.808ZM153.296 24.284H164.19V25.688H153.296V24.284ZM173.627 15.106H175.343V27.183H173.627V15.106ZM171.56 19.344H173.822V20.748H171.56V19.344ZM165.788 23.062H166.75C168.739 23.062 170.221 23.036 171.924 22.763L172.08 24.141C170.338 24.414 168.778 24.466 166.75 24.466H165.788V23.062ZM165.788 16.12H171.365V17.524H167.504V23.504H165.788V16.12ZM167.114 19.474H170.949V20.826H167.114V19.474ZM185.495 15.119H187.237V27.157H185.495V15.119ZM177.5 16.224H184.26V17.602H177.5V16.224ZM177.344 24.414L177.175 22.997C179.346 22.997 182.245 22.958 184.728 22.659L184.819 23.92C182.284 24.349 179.515 24.401 177.344 24.414ZM178.54 17.303H180.217V23.374H178.54V17.303ZM181.543 17.303H183.22V23.374H181.543V17.303ZM193.632 15.808H195.14V16.679C195.14 19.292 193.281 21.606 190.161 22.217L189.42 20.787C192.137 20.319 193.632 18.408 193.632 16.679V15.808ZM193.983 15.808H195.478V16.679C195.478 18.447 196.96 20.319 199.69 20.787L198.949 22.217C195.829 21.606 193.983 19.331 193.983 16.679V15.808ZM189.173 24.284H200.067V25.688H189.173V24.284ZM201.119 20.514H212.026V21.775H201.119V20.514ZM202.341 22.373H210.726V25.233H204.083V26.26H202.367V24.141H209.023V23.543H202.341V22.373ZM202.367 25.896H211.064V27.066H202.367V25.896ZM202.458 15.327H210.7V18.161H204.187V19.149H202.471V17.082H208.997V16.484H202.458V15.327ZM202.471 18.785H210.921V19.955H202.471V18.785ZM217.464 19.37H225.732V20.748H217.464V19.37ZM216.086 21.931H226.993V23.322H216.086V21.931ZM220.636 22.737H222.352V27.144H220.636V22.737ZM217.464 15.756H225.615V17.134H219.232V20.033H217.464V15.756ZM232.445 18.356H240.765V19.708H232.445V18.356ZM232.445 15.444H234.174V18.876H232.445V15.444ZM231.067 20.761H241.961V22.126H231.067V20.761ZM235.786 21.723H237.515V24.232H235.786V21.723ZM232.341 25.571H240.83V26.949H232.341V25.571ZM232.341 23.322H234.057V26.312H232.341V23.322ZM248.46 15.717C250.995 15.717 252.958 17.108 252.958 19.201C252.958 21.307 250.995 22.685 248.46 22.685C245.925 22.685 243.962 21.307 243.962 19.201C243.962 17.108 245.925 15.717 248.46 15.717ZM248.46 17.121C246.822 17.121 245.652 17.901 245.652 19.201C245.652 20.488 246.822 21.268 248.46 21.268C250.098 21.268 251.268 20.488 251.268 19.201C251.268 17.901 250.098 17.121 248.46 17.121ZM243.026 24.297H253.92V25.714H243.026V24.297ZM254.985 24.427H265.879V25.831H254.985V24.427ZM259.548 22.152H261.277V24.999H259.548V22.152ZM256.207 15.899H264.657V19.903H257.949V21.931H256.233V18.551H262.941V17.264H256.207V15.899ZM256.233 21.242H264.93V22.633H256.233V21.242Z" fill="white"/>
<path d="M80.071 5.353H84.397V5.829H80.071V5.353ZM80.071 3.54H80.652V5.577H80.071V3.54ZM79.35 6.732H85.069V7.215H79.35V6.732ZM80.82 6.914H81.401V9.546H80.82V6.914ZM83.011 6.914H83.585V9.546H83.011V6.914ZM87.1965 5.409H87.7705V6.606H87.1965V5.409ZM89.5205 5.409H90.0945V6.606H89.5205V5.409ZM88.6455 3.351C90.0105 3.351 90.8715 3.799 90.8715 4.555C90.8715 5.318 90.0105 5.766 88.6455 5.766C87.2735 5.766 86.4195 5.318 86.4195 4.555C86.4195 3.799 87.2735 3.351 88.6455 3.351ZM88.6455 3.813C87.6375 3.813 87.0145 4.086 87.0145 4.555C87.0145 5.024 87.6375 5.304 88.6455 5.304C89.6465 5.304 90.2765 5.024 90.2765 4.555C90.2765 4.086 89.6465 3.813 88.6455 3.813ZM85.7825 6.438H91.5015V6.914H85.7825V6.438ZM86.4195 7.502H90.7945V9.546H90.2135V7.978H86.4195V7.502ZM94.5547 3.834H97.4667V7.957H94.5547V3.834ZM96.8997 4.303H95.1217V7.488H96.8997V4.303ZM98.7897 3.211H99.3707V9.553H98.7897V3.211ZM103.199 3.246H103.689V3.477C103.689 4.555 102.457 5.276 101.141 5.444L100.945 4.996C102.093 4.87 103.199 4.261 103.199 3.477V3.246ZM103.297 3.246H103.787V3.477C103.787 4.261 104.893 4.87 106.041 4.996L105.838 5.444C104.529 5.276 103.297 4.555 103.297 3.477V3.246ZM103.199 6.2H103.773V7.166H103.199V6.2ZM100.63 5.857H106.349V6.326H100.63V5.857ZM101.323 6.949H105.621V8.391H101.911V9.154H101.337V7.971H105.047V7.397H101.323V6.949ZM101.337 9.021H105.81V9.476H101.337V9.021ZM107.413 3.708H110.213V4.184H107.413V3.708ZM108.365 5.122H108.939V6.704H108.365V5.122ZM109.982 3.708H110.556V4.044C110.556 4.457 110.556 5.087 110.388 5.92L109.821 5.857C109.982 5.024 109.982 4.45 109.982 4.044V3.708ZM111.417 3.218H111.998V7.985H111.417V3.218ZM111.732 5.276H112.901V5.759H111.732V5.276ZM108.001 8.93H112.201V9.406H108.001V8.93ZM108.001 7.544H108.575V9.077H108.001V7.544ZM107.091 6.977L107.028 6.501C108.155 6.501 109.709 6.473 110.99 6.298L111.032 6.718C109.716 6.949 108.204 6.977 107.091 6.977ZM118.32 7.208C119.664 7.208 120.525 7.649 120.525 8.377C120.525 9.098 119.664 9.532 118.32 9.532C116.969 9.532 116.115 9.098 116.115 8.377C116.115 7.649 116.969 7.208 118.32 7.208ZM118.32 7.663C117.326 7.663 116.689 7.936 116.689 8.377C116.689 8.811 117.326 9.084 118.32 9.084C119.314 9.084 119.944 8.811 119.944 8.377C119.944 7.936 119.314 7.663 118.32 7.663ZM116.164 3.533H120.238V4.009H116.164V3.533ZM115.485 6.165H121.197V6.634H115.485V6.165ZM117.83 4.947H118.404V6.298H117.83V4.947ZM119.902 3.533H120.469V4.072C120.469 4.583 120.469 5.094 120.301 5.752L119.727 5.682C119.902 5.031 119.902 4.569 119.902 4.072V3.533ZM123.569 3.519H124.052V4.135C124.052 5.332 123.338 6.361 122.267 6.767L121.973 6.305C122.932 5.955 123.569 5.08 123.569 4.135V3.519ZM123.674 3.519H124.15V4.135C124.15 5.045 124.801 5.864 125.739 6.193L125.445 6.648C124.388 6.263 123.674 5.297 123.674 4.135V3.519ZM122.883 7.348H127.111V9.546H126.523V7.824H122.883V7.348ZM126.523 3.218H127.111V7.026H126.523V3.218ZM130.409 3.897H133.93V4.373H130.409V3.897ZM130.318 7.985L130.248 7.488C131.389 7.488 132.922 7.474 134.224 7.313L134.259 7.747C132.936 7.964 131.431 7.985 130.318 7.985ZM131.088 4.254H131.655V7.621H131.088V4.254ZM132.684 4.254H133.251V7.621H132.684V4.254ZM134.609 3.218H135.197V9.546H134.609V3.218ZM135.057 5.745H136.233V6.235H135.057V5.745ZM137.507 6.627H141.854V7.096H137.507V6.627ZM136.772 8.251H142.505V8.734H136.772V8.251ZM137.507 3.757H141.784V4.233H138.095V6.774H137.507V3.757ZM137.906 5.171H141.651V5.633H137.906V5.171ZM147.845 3.218H148.426V9.56H147.845V3.218ZM145.899 5.304H148.034V5.78H145.899V5.304ZM143.554 3.925H144.128V7.845H143.554V3.925ZM143.554 7.537H144.044C145.024 7.537 145.899 7.481 146.872 7.278L146.942 7.768C145.934 7.964 145.045 8.027 144.044 8.027H143.554V7.537Z" fill="white"/>
<path d="M87.9735 38.1288H90.6775V41.9573H87.9735V38.1288ZM90.151 38.5643H88.5V41.5218H90.151V38.5643ZM91.906 37.5503H92.4455V43.4393H91.906V37.5503ZM96.0005 37.5828H96.4555V37.7973C96.4555 38.7983 95.3115 39.4678 94.0895 39.6238L93.9075 39.2078C94.9735 39.0908 96.0005 38.5253 96.0005 37.7973V37.5828ZM96.0915 37.5828H96.5465V37.7973C96.5465 38.5253 97.5735 39.0908 98.6395 39.2078L98.451 39.6238C97.2355 39.4678 96.0915 38.7983 96.0915 37.7973V37.5828ZM96.0005 40.3258H96.5335V41.2228H96.0005V40.3258ZM93.615 40.0073H98.9255V40.4428H93.615V40.0073ZM94.2585 41.0213H98.2495V42.3603H94.8045V43.0688H94.2715V41.9703H97.7165V41.4373H94.2585V41.0213ZM94.2715 42.9453H98.425V43.3678H94.2715V42.9453ZM99.913 38.0118H102.513V38.4538H99.913V38.0118ZM100.797 39.3248H101.33V40.7938H100.797V39.3248ZM102.298 38.0118H102.831V38.3238C102.831 38.7073 102.831 39.2923 102.675 40.0658L102.149 40.0073C102.298 39.2338 102.298 38.7008 102.298 38.3238V38.0118ZM103.631 37.5568H104.17V41.9833H103.631V37.5568ZM103.923 39.4678H105.009V39.9163H103.923V39.4678ZM100.459 42.8608H104.359V43.3028H100.459V42.8608ZM100.459 41.5738H100.992V42.9973H100.459V41.5738ZM99.614 41.0473L99.5555 40.6053C100.602 40.6053 102.045 40.5793 103.234 40.4168L103.273 40.8068C102.051 41.0213 100.647 41.0473 99.614 41.0473ZM105.84 38.2003H108.499V38.6358H105.84V38.2003ZM106.757 39.8773H107.29V41.8663H106.757V39.8773ZM108.278 38.2003H108.804V38.5123C108.804 38.9933 108.804 39.7603 108.635 40.8523L108.102 40.8003C108.278 39.7408 108.278 38.9868 108.278 38.5123V38.2003ZM109.545 37.5568H110.078V43.4328H109.545V37.5568ZM109.935 40.0138H111.021V40.4688H109.935V40.0138ZM105.58 42.1523L105.515 41.6973C106.581 41.6973 107.998 41.6778 109.188 41.5283L109.214 41.9248C107.998 42.1198 106.62 42.1458 105.58 42.1523ZM113.464 37.9793C114.381 37.9793 115.037 38.5448 115.037 39.3638C115.037 40.1893 114.381 40.7548 113.464 40.7548C112.548 40.7548 111.885 40.1893 111.885 39.3638C111.885 38.5448 112.548 37.9793 113.464 37.9793ZM113.464 38.4473C112.853 38.4473 112.411 38.8178 112.411 39.3638C112.411 39.9098 112.853 40.2868 113.464 40.2868C114.069 40.2868 114.511 39.9098 114.511 39.3638C114.511 38.8178 114.069 38.4473 113.464 38.4473ZM115.804 37.5503H116.344V43.4393H115.804V37.5503ZM111.664 42.1523L111.586 41.7038C112.658 41.7038 114.14 41.6973 115.421 41.4958L115.466 41.8923C114.147 42.1458 112.71 42.1523 111.664 42.1523ZM120.928 38.1613H121.376V38.6293C121.376 39.7083 120.713 40.6118 119.725 40.9628L119.446 40.5403C120.33 40.2283 120.928 39.4613 120.928 38.6293V38.1613ZM121.032 38.1613H121.48V38.6293C121.48 39.4223 122.091 40.1373 122.962 40.4298L122.683 40.8523C121.708 40.5208 121.032 39.6563 121.032 38.6293V38.1613ZM123.638 37.5568H124.184V41.1123H123.638V37.5568ZM120.258 41.4243H124.184V43.4328H123.638V41.8663H120.258V41.4243ZM119.589 37.9663H122.806V38.4018H119.589V37.9663ZM128.48 38.9803H129.787V39.4223H128.48V38.9803ZM129.637 37.5568H130.177V40.7483H129.637V37.5568ZM126.413 41.0343H126.946V41.7493H129.644V41.0343H130.177V43.3548H126.413V41.0343ZM126.946 42.1848V42.9128H129.644V42.1848H126.946ZM126.842 38.0183H127.284V38.4993C127.284 39.5653 126.621 40.4883 125.64 40.8523L125.36 40.4168C126.238 40.1113 126.842 39.3313 126.842 38.4993V38.0183ZM126.946 38.0183H127.382V38.4928C127.382 39.2533 127.954 39.9878 128.805 40.2868L128.532 40.7093C127.577 40.3648 126.946 39.4808 126.946 38.4928V38.0183ZM125.529 37.9078H128.669V38.3433H125.529V37.9078ZM135.43 39.1883H136.736V39.6238H135.43V39.1883ZM135.384 40.6638H136.723V41.0993H135.384V40.6638ZM137.627 37.5568H138.147V43.4328H137.627V37.5568ZM136.45 37.7063H136.957V43.1338H136.45V37.7063ZM135.137 38.2978H135.657C135.657 39.8383 135.04 41.2228 133.46 42.1653L133.148 41.7818C134.52 40.9498 135.137 39.7798 135.137 38.3953V38.2978ZM133.408 38.2978H135.352V38.7398H133.408V38.2978ZM143.528 38.4473H144.549V38.9023H143.528V38.4473ZM143.528 39.7083H144.549V40.1568H143.528V39.7083ZM143.151 37.5568H143.691V41.0473H143.151V37.5568ZM139.875 41.3268H143.691V43.4328H143.151V41.7623H139.875V41.3268ZM140.772 37.9013C141.656 37.9013 142.306 38.4733 142.306 39.2988C142.306 40.1178 141.656 40.6833 140.772 40.6833C139.888 40.6833 139.238 40.1178 139.238 39.2988C139.238 38.4733 139.888 37.9013 140.772 37.9013ZM140.772 38.3628C140.187 38.3628 139.765 38.7398 139.765 39.2988C139.765 39.8513 140.187 40.2348 140.772 40.2348C141.357 40.2348 141.78 39.8513 141.78 39.2988C141.78 38.7398 141.357 38.3628 140.772 38.3628ZM147.766 37.9273C148.988 37.9273 149.898 38.5773 149.898 39.5523C149.898 40.5338 148.988 41.1773 147.766 41.1773C146.544 41.1773 145.627 40.5338 145.627 39.5523C145.627 38.5773 146.544 37.9273 147.766 37.9273ZM147.766 38.3693C146.836 38.3693 146.147 38.8438 146.147 39.5523C146.147 40.2543 146.836 40.7353 147.766 40.7353C148.695 40.7353 149.384 40.2543 149.384 39.5523C149.384 38.8438 148.695 38.3693 147.766 38.3693ZM145.114 42.2043H150.437V42.6593H145.114V42.2043ZM151.093 42.2628H156.417V42.7113H151.093V42.2628ZM153.472 41.0018H154.012V42.4513H153.472V41.0018ZM151.737 37.9923H155.76V39.7733H152.289V40.9498H151.756V39.3378H155.227V38.4278H151.737V37.9923ZM151.756 40.7223H155.897V41.1643H151.756V40.7223ZM159.206 37.9338H161.943V40.4883H159.206V37.9338ZM161.423 38.3628H159.726V40.0528H161.423V38.3628ZM163.171 37.5633H163.717V40.9173H163.171V37.5633ZM159.921 41.2553H163.756V41.6973H160.461V43.1533H159.921V41.2553ZM159.921 42.9193H163.873V43.3548H159.921V42.9193ZM165.439 38.1418H169.222V38.5903H165.439V38.1418ZM164.88 42.1653H170.191V42.6138H164.88V42.1653ZM166.941 40.0658H167.48V42.3863H166.941V40.0658ZM169.021 38.1418H169.554V38.7268C169.554 39.4548 169.554 40.2608 169.339 41.4503L168.8 41.3788C169.021 40.2543 169.021 39.4288 169.021 38.7268V38.1418ZM174.124 38.0638H174.566V39.1168C174.566 40.4168 173.864 41.6843 172.935 42.1783L172.603 41.7493C173.455 41.3203 174.124 40.1893 174.124 39.1168V38.0638ZM174.222 38.0638H174.657V39.1168C174.657 40.1503 175.314 41.2228 176.146 41.6388L175.814 42.0678C174.904 41.5803 174.222 40.3778 174.222 39.1168V38.0638ZM176.659 37.5568H177.205V43.4328H176.659V37.5568ZM177.075 39.9358H178.167V40.3908H177.075V39.9358ZM179.974 39.5458H180.507V40.6573H179.974V39.5458ZM182.132 39.5458H182.665V40.6573H182.132V39.5458ZM178.661 40.4623H183.971V40.8978H178.661V40.4623ZM181.313 41.3398C182.574 41.3398 183.328 41.7103 183.328 42.3798C183.328 43.0493 182.574 43.4263 181.313 43.4263C180.052 43.4263 179.298 43.0493 179.298 42.3798C179.298 41.7103 180.052 41.3398 181.313 41.3398ZM181.313 41.7558C180.396 41.7558 179.844 41.9833 179.844 42.3798C179.844 42.7828 180.396 43.0038 181.313 43.0038C182.236 43.0038 182.782 42.7828 182.782 42.3798C182.782 41.9833 182.236 41.7558 181.313 41.7558ZM181.319 37.6608C182.593 37.6608 183.386 38.0703 183.386 38.7593C183.386 39.4418 182.593 39.8448 181.319 39.8448C180.039 39.8448 179.252 39.4418 179.252 38.7593C179.252 38.0703 180.039 37.6608 181.319 37.6608ZM181.319 38.0833C180.383 38.0833 179.805 38.3303 179.805 38.7593C179.805 39.1818 180.383 39.4288 181.319 39.4288C182.255 39.4288 182.834 39.1818 182.834 38.7593C182.834 38.3303 182.255 38.0833 181.319 38.0833ZM188.625 37.5568H189.164V43.4328H188.625V37.5568ZM189.034 39.9683H190.126V40.4233H189.034V39.9683ZM184.614 38.4928H188.079V38.9348H184.614V38.4928ZM186.369 39.4223C187.201 39.4223 187.799 39.9813 187.799 40.7743C187.799 41.5673 187.201 42.1263 186.369 42.1263C185.544 42.1263 184.939 41.5673 184.939 40.7743C184.939 39.9813 185.544 39.4223 186.369 39.4223ZM186.369 39.8708C185.836 39.8708 185.453 40.2413 185.453 40.7743C185.453 41.3008 185.836 41.6778 186.369 41.6778C186.902 41.6778 187.286 41.3008 187.286 40.7743C187.286 40.2413 186.902 39.8708 186.369 39.8708ZM186.09 37.6283H186.629V38.6943H186.09V37.6283ZM191.341 39.3183H195.332V39.7603H191.341V39.3183ZM190.62 40.5468H195.95V40.9888H190.62V40.5468ZM191.341 37.7713H191.874V39.5393H191.341V37.7713ZM191.302 42.8478H195.365V43.2898H191.302V42.8478ZM191.302 41.5738H191.835V42.9648H191.302V41.5738ZM198.681 41.5738H199.142C200.228 41.5738 200.975 41.5478 201.859 41.3918L201.918 41.8338C201.008 41.9898 200.241 42.0223 199.142 42.0223H198.681V41.5738ZM198.681 38.0898H201.417V38.5383H199.22V41.7298H198.681V38.0898ZM199.084 39.7343H201.287V40.1698H199.084V39.7343ZM202.405 37.5568H202.951V43.4328H202.405V37.5568ZM202.821 39.9163H203.913V40.3713H202.821V39.9163ZM204.745 38.1288H207.449V41.9573H204.745V38.1288ZM206.922 38.5643H205.271V41.5218H206.922V38.5643ZM208.677 37.5503H209.217V43.4393H208.677V37.5503ZM212.746 37.9598H213.214V38.4083C213.214 39.6888 212.024 40.6833 210.848 40.9498L210.607 40.5013C211.641 40.3063 212.746 39.4093 212.746 38.4083V37.9598ZM212.843 37.9598H213.311V38.4083C213.311 39.4158 214.423 40.3063 215.45 40.5013L215.209 40.9498C214.039 40.6833 212.843 39.6953 212.843 38.4083V37.9598ZM210.393 42.1978H215.716V42.6398H210.393V42.1978Z" fill="white"/>
<path d="M82.5848 38.4043H79.5848V43.9143H85.1849V40.7312" stroke="white"/>
<path d="M80.5042 39.9946L82.3412 42.1367L86.2279 37.4238" stroke="white"/>
</g>
</g>
<defs>
<clipPath id="clip0_12133_18358">
<rect width="345" height="47" fill="white"/>
</clipPath>
</defs>
</svg>
