<svg width="345" height="47" viewBox="0 0 345 47" fill="none" xmlns="http://www.w3.org/2000/svg">
<g clip-path="url(#clip0_12134_18423)">
<mask id="mask0_12134_18423" style="mask-type:luminance" maskUnits="userSpaceOnUse" x="0" y="0" width="345" height="47">
<path d="M345 0H0V47H345V0Z" fill="white"/>
</mask>
<g mask="url(#mask0_12134_18423)">
<path d="M101.551 21.994H108.635V23.16H101.551V21.994ZM101.551 19.255H103.014V22.522H101.551V19.255ZM100.451 24.282H109.658V25.459H100.451V24.282ZM102.541 24.7H104.004V28.979H102.541V24.7ZM106.094 24.7H107.557V28.979H106.094V24.7ZM112.627 22.236H114.09V24.117H112.627V22.236ZM116.213 22.236H117.665V24.117H116.213V22.236ZM115.168 18.969C117.412 18.969 118.853 19.728 118.853 20.96C118.853 22.203 117.412 22.962 115.168 22.962C112.924 22.962 111.483 22.203 111.483 20.96C111.483 19.728 112.924 18.969 115.168 18.969ZM115.168 20.102C113.771 20.102 112.99 20.377 112.99 20.96C112.99 21.543 113.771 21.829 115.168 21.829C116.554 21.829 117.346 21.543 117.346 20.96C117.346 20.377 116.554 20.102 115.168 20.102ZM110.559 23.798H119.766V24.953H110.559V23.798ZM111.582 25.646H118.655V28.979H117.192V26.801H111.582V25.646ZM124.748 22.544H126.42V23.721H124.748V22.544ZM128.037 18.793H129.434V28.979H128.037V18.793ZM125.958 18.947H127.333V28.517H125.958V18.947ZM122.966 19.508C124.319 19.508 125.188 20.905 125.188 23.204C125.188 25.514 124.319 26.911 122.966 26.911C121.624 26.911 120.766 25.514 120.766 23.204C120.766 20.905 121.624 19.508 122.966 19.508ZM122.966 20.883C122.416 20.883 122.097 21.653 122.097 23.204C122.097 24.766 122.416 25.525 122.966 25.525C123.538 25.525 123.857 24.766 123.857 23.204C123.857 21.653 123.538 20.883 122.966 20.883ZM135.934 21.972H138.618V23.149H135.934V21.972ZM133.162 19.574H134.35V21.048C134.35 23.611 133.481 25.976 131.567 26.933L130.654 25.756C132.392 24.953 133.162 22.984 133.162 21.048V19.574ZM133.47 19.574H134.636V21.048C134.636 22.984 135.373 24.843 137.056 25.591L136.187 26.757C134.273 25.833 133.47 23.589 133.47 21.048V19.574ZM137.892 18.782H139.344V29.001H137.892V18.782ZM143.462 22.929H152.669V24.073H143.462V22.929ZM144.518 24.623H151.558V27.241H145.97V28.143H144.529V26.229H150.117V25.701H144.518V24.623ZM144.529 27.824H151.822V28.913H144.529V27.824ZM147.191 19.585H148.467V19.849C148.467 21.301 147.026 22.456 144.32 22.643L143.869 21.543C146.19 21.389 147.191 20.575 147.191 19.849V19.585ZM147.664 19.585H148.94V19.849C148.94 20.586 149.941 21.389 152.273 21.543L151.822 22.643C149.116 22.456 147.664 21.312 147.664 19.849V19.585ZM144.298 19.112H151.844V20.245H144.298V19.112ZM160.578 18.793H162.052V23.908H160.578V18.793ZM157.377 19.167H158.983C158.983 21.961 157.454 23.468 154.242 24.117L153.736 22.94C156.453 22.456 157.377 21.356 157.377 20.003V19.167ZM154.275 19.167H158.411V20.333H154.275V19.167ZM155.254 24.326H162.052V27.087H156.739V28.198H155.276V26.042H160.578V25.448H155.254V24.326ZM155.276 27.747H162.305V28.88H155.276V27.747ZM170.086 19.09H171.373V19.563C171.373 21.521 169.833 23.182 167.16 23.578L166.588 22.401C168.931 22.093 170.086 20.762 170.086 19.563V19.09ZM170.361 19.09H171.637V19.563C171.637 20.751 172.803 22.093 175.135 22.401L174.574 23.578C171.901 23.182 170.361 21.521 170.361 19.563V19.09ZM170.097 25.25H171.549V28.979H170.097V25.25ZM166.258 24.326H175.465V25.514H166.258V24.326ZM181.2 24.975H182.3V25.316C182.3 26.856 181.618 28.264 180.023 28.836L179.308 27.769C180.639 27.318 181.2 26.306 181.2 25.316V24.975ZM181.574 24.975H182.619V25.316C182.619 26.306 183.114 27.34 184.357 27.857L183.774 28.935C182.157 28.33 181.574 26.812 181.574 25.316V24.975ZM184.918 24.975H185.963V25.316C185.963 26.724 185.358 28.308 183.774 28.935L183.169 27.857C184.412 27.296 184.918 26.218 184.918 25.316V24.975ZM185.259 24.975H186.359V25.316C186.359 26.372 186.909 27.351 188.251 27.769L187.536 28.836C185.919 28.286 185.259 26.922 185.259 25.316V24.975ZM185.908 18.804H187.382V24.557H185.908V18.804ZM181.838 19.321C183.422 19.321 184.599 20.333 184.599 21.763C184.599 23.182 183.422 24.194 181.838 24.194C180.254 24.194 179.066 23.182 179.066 21.763C179.066 20.333 180.254 19.321 181.838 19.321ZM181.838 20.531C181.068 20.531 180.496 20.982 180.496 21.763C180.496 22.533 181.068 22.984 181.838 22.984C182.608 22.984 183.169 22.533 183.169 21.763C183.169 20.982 182.608 20.531 181.838 20.531ZM190.175 21.543H197.237V22.698H190.175V21.543ZM189.031 23.754H198.26V24.92H189.031V23.754ZM190.175 19.156H191.627V22.115H190.175V19.156ZM190.076 27.593H197.292V28.759H190.076V27.593ZM190.076 25.734H191.539V27.901H190.076V25.734ZM202.252 26.362H213.146V27.766H202.252V26.362ZM206.815 23.697H208.544V26.687H206.815V23.697ZM203.383 18.003H211.95V23.918H203.383V18.003ZM210.26 19.381H205.086V22.553H210.26V19.381ZM214.211 23.06H225.105V24.438H214.211V23.06ZM215.524 20.707H223.909V22.098H215.524V20.707ZM215.524 17.561H223.805V18.926H217.253V21.214H215.524V17.561ZM215.498 27.558H223.987V28.949H215.498V27.558ZM215.498 25.348H217.214V27.909H215.498V25.348ZM237.512 17.119H239.241V25.101H237.512V17.119ZM235.445 20.304H237.759V21.695H235.445V20.304ZM233.547 18.029H235.367C235.367 21.318 233.664 23.463 230.037 24.607L229.309 23.255C232.325 22.358 233.547 20.811 233.547 18.783V18.029ZM229.933 18.029H234.821V19.407H229.933V18.029ZM234.327 24.217H235.796V24.62C235.796 26.83 234.171 28.624 231.233 29.131L230.57 27.766C233.118 27.376 234.327 25.985 234.327 24.62V24.217ZM234.574 24.217H236.043V24.62C236.043 25.972 237.239 27.363 239.8 27.753L239.111 29.118C236.173 28.624 234.574 26.83 234.574 24.62V24.217ZM243.739 18.5455L243.559 25.1655H241.869L241.685 18.5455H243.739ZM242.714 28.12C242.41 28.12 242.148 28.0123 241.929 27.7969C241.711 27.5784 241.603 27.3168 241.606 27.0121C241.603 26.7105 241.711 26.4519 241.929 26.2365C242.148 26.0211 242.41 25.9134 242.714 25.9134C243.007 25.9134 243.264 26.0211 243.485 26.2365C243.707 26.4519 243.819 26.7105 243.822 27.0121C243.819 27.2152 243.765 27.4014 243.661 27.5707C243.559 27.7369 243.425 27.8707 243.259 27.9723C243.093 28.0708 242.911 28.12 242.714 28.12Z" fill="white"/>
<path d="M103.03 3.701C103.961 3.701 104.619 4.562 104.619 5.906C104.619 7.257 103.961 8.118 103.03 8.118C102.099 8.118 101.441 7.257 101.441 5.906C101.441 4.562 102.099 3.701 103.03 3.701ZM103.03 4.226C102.414 4.226 101.994 4.884 101.994 5.906C101.994 6.935 102.414 7.607 103.03 7.607C103.639 7.607 104.066 6.935 104.066 5.906C104.066 4.884 103.639 4.226 103.03 4.226ZM106.054 4.807H107.216V5.297H106.054V4.807ZM106.054 6.69H107.216V7.18H106.054V6.69ZM105.627 3.218H106.215V9.546H105.627V3.218ZM108.503 3.631H112.458V4.1H108.503V3.631ZM107.789 6.347H113.508V6.823H107.789V6.347ZM110.344 6.662H110.925V9.553H110.344V6.662ZM112.185 3.631H112.752V4.177C112.752 4.835 112.752 5.577 112.514 6.648L111.94 6.571C112.185 5.549 112.185 4.814 112.185 4.177V3.631ZM115.291 8.30398L115.251 8.57244C115.223 8.76136 115.18 8.96354 115.122 9.17898C115.065 9.39441 115.007 9.59742 114.945 9.788C114.884 9.97857 114.833 10.1302 114.794 10.2429H114.346C114.368 10.1368 114.396 9.9968 114.431 9.8228C114.466 9.64879 114.5 9.45407 114.535 9.23864C114.572 9.02486 114.601 8.80611 114.625 8.58239L114.654 8.30398H115.291ZM118.937 4.975H123.228V5.451H118.937V4.975ZM118.937 3.344H119.511V5.185H118.937V3.344ZM118.16 6.284H123.879V6.753H118.16V6.284ZM120.729 5.227H121.31V6.494H120.729V5.227ZM121.009 7.236C122.36 7.236 123.179 7.649 123.179 8.391C123.179 9.119 122.36 9.532 121.009 9.532C119.658 9.532 118.839 9.119 118.839 8.391C118.839 7.649 119.658 7.236 121.009 7.236ZM121.009 7.691C120.022 7.691 119.427 7.943 119.427 8.391C119.427 8.825 120.022 9.077 121.009 9.077C122.003 9.077 122.591 8.825 122.591 8.391C122.591 7.943 122.003 7.691 121.009 7.691ZM125.313 3.631H129.268V4.1H125.313V3.631ZM124.599 6.347H130.318V6.823H124.599V6.347ZM127.154 6.662H127.735V9.553H127.154V6.662ZM128.995 3.631H129.562V4.177C129.562 4.835 129.562 5.577 129.324 6.648L128.75 6.571C128.995 5.549 128.995 4.814 128.995 4.177V3.631ZM132.1 8.30398L132.061 8.57244C132.032 8.76136 131.989 8.96354 131.931 9.17898C131.875 9.39441 131.816 9.59742 131.755 9.788C131.694 9.97857 131.643 10.1302 131.603 10.2429H131.156C131.177 10.1368 131.206 9.9968 131.24 9.8228C131.275 9.64879 131.31 9.45407 131.345 9.23864C131.381 9.02486 131.411 8.80611 131.434 8.58239L131.464 8.30398H132.1ZM139.743 3.225H140.296V6.76H139.743V3.225ZM137.909 4.877H138.91V5.353H137.909V4.877ZM138.609 3.323H139.155V6.711H138.609V3.323ZM136.124 7.04H140.296V8.447H136.712V9.161H136.138V8.027H139.736V7.474H136.124V7.04ZM136.138 9.035H140.527V9.476H136.138V9.035ZM134.934 3.834H138.07V4.289H134.934V3.834ZM136.495 4.541C137.272 4.541 137.811 4.947 137.811 5.584C137.811 6.221 137.272 6.634 136.495 6.634C135.732 6.634 135.186 6.221 135.186 5.584C135.186 4.947 135.732 4.541 136.495 4.541ZM136.495 4.961C136.026 4.961 135.704 5.206 135.704 5.584C135.704 5.962 136.026 6.214 136.495 6.214C136.978 6.214 137.293 5.962 137.293 5.584C137.293 5.206 136.978 4.961 136.495 4.961ZM136.208 3.204H136.789V4.17H136.208V3.204ZM146.015 3.211H146.596V9.553H146.015V3.211ZM141.773 7.544H142.298C143.355 7.544 144.3 7.502 145.42 7.32L145.483 7.796C144.335 7.985 143.383 8.027 142.298 8.027H141.773V7.544ZM141.759 3.806H144.685V6.067H142.354V7.726H141.773V5.591H144.097V4.282H141.759V3.806ZM147.848 6.2H153.56V6.669H147.848V6.2ZM150.172 5.346H150.753V6.501H150.172V5.346ZM148.52 3.407H152.594V3.876H148.52V3.407ZM152.279 3.407H152.853V3.89C152.853 4.408 152.853 5.031 152.692 5.857L152.118 5.815C152.279 4.996 152.279 4.408 152.279 3.89V3.407ZM152.447 4.457V4.891L148.45 5.08L148.366 4.583L152.447 4.457ZM148.569 7.082H149.143V7.768H152.251V7.082H152.825V9.462H148.569V7.082ZM149.143 8.223V8.993H152.251V8.223H149.143ZM158.922 3.211H159.496V9.553H158.922V3.211ZM157.606 5.598H159.006V6.081H157.606V5.598ZM154.575 7.551H155.058C156.248 7.551 156.997 7.53 157.886 7.362L157.942 7.838C157.032 7.999 156.262 8.034 155.058 8.034H154.575V7.551ZM154.575 3.792H157.501V4.275H155.149V7.719H154.575V3.792ZM155.002 5.57H157.228V6.039H155.002V5.57ZM161.789 8.30398L161.749 8.57244C161.721 8.76136 161.678 8.96354 161.62 9.17898C161.564 9.39441 161.505 9.59742 161.443 9.788C161.382 9.97857 161.331 10.1302 161.292 10.2429H160.844C160.866 10.1368 160.894 9.9968 160.929 9.8228C160.964 9.64879 160.998 9.45407 161.033 9.23864C161.07 9.02486 161.099 8.80611 161.123 8.58239L161.153 8.30398H161.789ZM166.219 4.121H166.681V5.15C166.681 6.466 165.876 7.824 164.889 8.328L164.553 7.866C165.456 7.425 166.219 6.221 166.219 5.15V4.121ZM166.324 4.121H166.786V5.15C166.786 6.151 167.5 7.278 168.417 7.712L168.088 8.174C167.087 7.677 166.324 6.403 166.324 5.15V4.121ZM164.777 3.862H168.186V4.352H164.777V3.862ZM168.935 3.218H169.523V9.546H168.935V3.218ZM169.383 5.773H170.559V6.263H169.383V5.773ZM174.45 4.961H176.046V5.437H174.45V4.961ZM175.717 3.225H176.298V7.859H175.717V3.225ZM172.259 8.93H176.473V9.406H172.259V8.93ZM172.259 7.453H172.84V9.175H172.259V7.453ZM172.707 4.009H173.183V4.52C173.183 5.668 172.469 6.662 171.412 7.054L171.111 6.592C172.056 6.256 172.707 5.416 172.707 4.52V4.009ZM172.819 4.009H173.288V4.513C173.288 5.332 173.904 6.13 174.821 6.452L174.527 6.907C173.498 6.536 172.819 5.584 172.819 4.513V4.009ZM171.293 3.736H174.674V4.205H171.293V3.736ZM182.157 3.218H182.738V9.546H182.157V3.218ZM180.68 5.752H182.416V6.235H180.68V5.752ZM180.127 3.897H180.701C180.701 5.703 179.952 7.299 177.852 8.349L177.53 7.894C179.371 6.991 180.127 5.647 180.127 3.995V3.897ZM177.803 3.897H180.435V4.373H177.803V3.897ZM185.038 8.30398L184.998 8.57244C184.97 8.76136 184.927 8.96354 184.869 9.17898C184.813 9.39441 184.754 9.59742 184.692 9.788C184.631 9.97857 184.581 10.1302 184.541 10.2429H184.093C184.115 10.1368 184.143 9.9968 184.178 9.8228C184.213 9.64879 184.247 9.45407 184.282 9.23864C184.319 9.02486 184.349 8.80611 184.372 8.58239L184.402 8.30398H185.038ZM190.441 3.652H190.945V4.135C190.945 5.514 189.664 6.585 188.397 6.872L188.138 6.389C189.251 6.179 190.441 5.213 190.441 4.135V3.652ZM190.546 3.652H191.05V4.135C191.05 5.22 192.247 6.179 193.353 6.389L193.094 6.872C191.834 6.585 190.546 5.521 190.546 4.135V3.652ZM187.907 8.216H193.64V8.692H187.907V8.216ZM196.558 3.967H197.104C197.104 5.605 196.614 7.166 194.703 8.237L194.374 7.817C196.075 6.893 196.558 5.556 196.558 4.058V3.967ZM194.682 3.967H196.775V4.443H194.682V3.967ZM196.488 5.43V5.864L194.458 6.074L194.367 5.57L196.488 5.43ZM196.614 5.717H198.07V6.186H196.614V5.717ZM199.162 3.218H199.722V9.546H199.162V3.218ZM197.853 3.379H198.399V9.224H197.853V3.379ZM205.378 3.211H205.959V9.553H205.378V3.211ZM202.62 3.701C203.558 3.701 204.23 4.562 204.23 5.906C204.23 7.257 203.558 8.118 202.62 8.118C201.689 8.118 201.017 7.257 201.017 5.906C201.017 4.562 201.689 3.701 202.62 3.701ZM202.62 4.226C202.004 4.226 201.57 4.884 201.57 5.906C201.57 6.935 202.004 7.607 202.62 7.607C203.243 7.607 203.67 6.935 203.67 5.906C203.67 4.884 203.243 4.226 202.62 4.226ZM207.96 6.627H212.307V7.096H207.96V6.627ZM207.225 8.251H212.958V8.734H207.225V8.251ZM207.96 3.757H212.237V4.233H208.548V6.774H207.96V3.757ZM208.359 5.171H212.104V5.633H208.359V5.171ZM216.586 7.56818V7.53835C216.589 7.22183 216.622 6.96993 216.685 6.78267C216.748 6.59541 216.838 6.44377 216.954 6.32777C217.07 6.21177 217.209 6.10488 217.371 6.0071C217.469 5.94744 217.557 5.87701 217.635 5.79581C217.713 5.71295 217.774 5.61766 217.819 5.50994C217.865 5.40223 217.888 5.28291 217.888 5.15199C217.888 4.98958 217.85 4.84872 217.774 4.7294C217.698 4.61009 217.596 4.51811 217.468 4.45348C217.341 4.38885 217.199 4.35653 217.043 4.35653C216.907 4.35653 216.776 4.38471 216.65 4.44105C216.524 4.4974 216.419 4.58606 216.335 4.70703C216.25 4.82801 216.201 4.98627 216.188 5.18182H215.562C215.575 4.90009 215.648 4.65897 215.78 4.45845C215.915 4.25793 216.091 4.10464 216.31 3.99858C216.53 3.89252 216.775 3.83949 217.043 3.83949C217.335 3.83949 217.588 3.89749 217.804 4.01349C218.021 4.1295 218.188 4.28859 218.306 4.49077C218.425 4.69294 218.485 4.9233 218.485 5.18182C218.485 5.36411 218.457 5.529 218.4 5.67649C218.346 5.82398 218.266 5.95573 218.162 6.07173C218.059 6.18774 217.935 6.29048 217.789 6.37997C217.643 6.47112 217.526 6.56723 217.438 6.66832C217.351 6.76776 217.287 6.88625 217.247 7.02379C217.207 7.16134 217.186 7.33286 217.182 7.53835V7.56818H216.586ZM216.904 9.03977C216.781 9.03977 216.676 8.99586 216.588 8.90803C216.5 8.82019 216.456 8.71496 216.456 8.59233C216.456 8.4697 216.5 8.36446 216.588 8.27663C216.676 8.1888 216.781 8.14489 216.904 8.14489C217.027 8.14489 217.132 8.1888 217.22 8.27663C217.307 8.36446 217.351 8.4697 217.351 8.59233C217.351 8.67353 217.331 8.74811 217.289 8.81605C217.249 8.884 217.196 8.93868 217.128 8.98011C217.061 9.01989 216.987 9.03977 216.904 9.03977ZM220.144 3.90909L220.094 7.56818H219.517L219.467 3.90909H220.144ZM219.805 9.03977C219.683 9.03977 219.578 8.99586 219.49 8.90803C219.402 8.82019 219.358 8.71496 219.358 8.59233C219.358 8.4697 219.402 8.36446 219.49 8.27663C219.578 8.1888 219.683 8.14489 219.805 8.14489C219.928 8.14489 220.033 8.1888 220.121 8.27663C220.209 8.36446 220.253 8.4697 220.253 8.59233C220.253 8.67353 220.232 8.74811 220.191 8.81605C220.151 8.884 220.097 8.93868 220.029 8.98011C219.963 9.01989 219.888 9.03977 219.805 9.03977Z" fill="white"/>
<path d="M111.982 38.9738H113.126V39.4223H111.982V38.9738ZM111.982 40.7613H113.126V41.2098H111.982V40.7613ZM114.114 37.5568H114.634V43.4328H114.114V37.5568ZM112.964 37.6803H113.471V43.1403H112.964V37.6803ZM110.962 38.0443C111.722 38.0443 112.216 38.8308 112.216 40.0918C112.216 41.3528 111.722 42.1393 110.962 42.1393C110.201 42.1393 109.714 41.3528 109.714 40.0918C109.714 38.8308 110.201 38.0443 110.962 38.0443ZM110.962 38.5448C110.5 38.5448 110.201 39.1428 110.201 40.0918C110.201 41.0408 110.5 41.6388 110.962 41.6388C111.43 41.6388 111.722 41.0408 111.722 40.0918C111.722 39.1428 111.43 38.5448 110.962 38.5448ZM120.016 38.4473H121.036V38.9023H120.016V38.4473ZM120.016 39.7083H121.036V40.1568H120.016V39.7083ZM119.639 37.5568H120.178V41.0473H119.639V37.5568ZM116.363 41.3268H120.178V43.4328H119.639V41.7623H116.363V41.3268ZM117.26 37.9013C118.144 37.9013 118.794 38.4733 118.794 39.2988C118.794 40.1178 118.144 40.6833 117.26 40.6833C116.376 40.6833 115.726 40.1178 115.726 39.2988C115.726 38.4733 116.376 37.9013 117.26 37.9013ZM117.26 38.3628C116.675 38.3628 116.252 38.7398 116.252 39.2988C116.252 39.8513 116.675 40.2348 117.26 40.2348C117.845 40.2348 118.267 39.8513 118.267 39.2988C118.267 38.7398 117.845 38.3628 117.26 38.3628ZM125.88 37.9338H126.445C126.445 39.4158 125.405 40.4753 123.715 40.9498L123.494 40.5273C124.983 40.1048 125.88 39.2533 125.88 38.1613V37.9338ZM123.8 37.9338H126.244V38.3693H123.8V37.9338ZM124.339 41.2683H128.259V43.4198H127.719V41.7038H124.339V41.2683ZM127.719 37.5568H128.259V41.0083H127.719V37.5568ZM126.465 39.0973H127.836V39.5458H126.465V39.0973ZM132.542 39.0778H133.868V39.5263H132.542V39.0778ZM133.699 37.5568H134.238V41.0603H133.699V37.5568ZM132.308 41.2358C133.517 41.2358 134.264 41.6453 134.264 42.3343C134.264 43.0298 133.517 43.4263 132.308 43.4263C131.092 43.4263 130.345 43.0298 130.345 42.3343C130.345 41.6453 131.092 41.2358 132.308 41.2358ZM132.308 41.6583C131.424 41.6583 130.884 41.9053 130.884 42.3343C130.884 42.7568 131.424 43.0038 132.308 43.0038C133.192 43.0038 133.731 42.7568 133.731 42.3343C133.731 41.9053 133.192 41.6583 132.308 41.6583ZM130.904 38.1483H131.346V38.6228C131.346 39.7083 130.683 40.6378 129.708 41.0018L129.428 40.5728C130.299 40.2543 130.904 39.4678 130.904 38.6228V38.1483ZM131.008 38.1483H131.443V38.6228C131.443 39.3833 132.015 40.1113 132.867 40.4103L132.594 40.8393C131.638 40.4948 131.008 39.6108 131.008 38.6228V38.1483ZM129.591 37.9858H132.73V38.4278H129.591V37.9858ZM141.212 38.1985V42.9258H140.658L138.082 39.2141H138.036V42.9258H137.464V38.1985H138.018L140.603 41.9194H140.649V38.1985H141.212ZM146.346 40.5621C146.346 41.0607 146.256 41.4916 146.076 41.8548C145.896 42.2179 145.649 42.498 145.335 42.695C145.021 42.8919 144.663 42.9904 144.26 42.9904C143.857 42.9904 143.498 42.8919 143.184 42.695C142.87 42.498 142.623 42.2179 142.443 41.8548C142.263 41.4916 142.173 41.0607 142.173 40.5621C142.173 40.0636 142.263 39.6327 142.443 39.2695C142.623 38.9064 142.87 38.6263 143.184 38.4293C143.498 38.2324 143.857 38.1339 144.26 38.1339C144.663 38.1339 145.021 38.2324 145.335 38.4293C145.649 38.6263 145.896 38.9064 146.076 39.2695C146.256 39.6327 146.346 40.0636 146.346 40.5621ZM145.792 40.5621C145.792 40.1528 145.724 39.8074 145.587 39.5257C145.452 39.2441 145.268 39.031 145.035 38.8864C144.804 38.7417 144.546 38.6694 144.26 38.6694C143.973 38.6694 143.714 38.7417 143.482 38.8864C143.251 39.031 143.067 39.2441 142.93 39.5257C142.795 39.8074 142.727 40.1528 142.727 40.5621C142.727 40.9715 142.795 41.3169 142.93 41.5985C143.067 41.8801 143.251 42.0933 143.482 42.2379C143.714 42.3826 143.973 42.4549 144.26 42.4549C144.546 42.4549 144.804 42.3826 145.035 42.2379C145.268 42.0933 145.452 41.8801 145.587 41.5985C145.724 41.3169 145.792 40.9715 145.792 40.5621ZM152.886 38.1985V42.9258H152.332L149.756 39.2141H149.709V42.9258H149.137V38.1985H149.691L152.276 41.9194H152.322V38.1985H152.886ZM158.02 40.5621C158.02 41.0607 157.93 41.4916 157.75 41.8548C157.57 42.2179 157.323 42.498 157.009 42.695C156.695 42.8919 156.336 42.9904 155.933 42.9904C155.53 42.9904 155.171 42.8919 154.857 42.695C154.543 42.498 154.297 42.2179 154.116 41.8548C153.936 41.4916 153.846 41.0607 153.846 40.5621C153.846 40.0636 153.936 39.6327 154.116 39.2695C154.297 38.9064 154.543 38.6263 154.857 38.4293C155.171 38.2324 155.53 38.1339 155.933 38.1339C156.336 38.1339 156.695 38.2324 157.009 38.4293C157.323 38.6263 157.57 38.9064 157.75 39.2695C157.93 39.6327 158.02 40.0636 158.02 40.5621ZM157.466 40.5621C157.466 40.1528 157.397 39.8074 157.26 39.5257C157.125 39.2441 156.941 39.031 156.709 38.8864C156.478 38.7417 156.219 38.6694 155.933 38.6694C155.647 38.6694 155.388 38.7417 155.155 38.8864C154.924 39.031 154.74 39.2441 154.604 39.5257C154.468 39.8074 154.4 40.1528 154.4 40.5621C154.4 40.9715 154.468 41.3169 154.604 41.5985C154.74 41.8801 154.924 42.0933 155.155 42.2379C155.388 42.3826 155.647 42.4549 155.933 42.4549C156.219 42.4549 156.478 42.3826 156.709 42.2379C156.941 42.0933 157.125 41.8801 157.26 41.5985C157.397 41.3169 157.466 40.9715 157.466 40.5621ZM159.629 38.1985L159.582 41.5962H159.047L159.001 38.1985H159.629ZM159.315 42.9627C159.201 42.9627 159.103 42.9219 159.021 42.8404C158.94 42.7588 158.899 42.6611 158.899 42.5472C158.899 42.4334 158.94 42.3356 159.021 42.2541C159.103 42.1725 159.201 42.1317 159.315 42.1317C159.428 42.1317 159.526 42.1725 159.608 42.2541C159.689 42.3356 159.73 42.4334 159.73 42.5472C159.73 42.6226 159.711 42.6919 159.672 42.755C159.635 42.8181 159.585 42.8688 159.522 42.9073C159.461 42.9442 159.392 42.9627 159.315 42.9627ZM162.619 41.5738H163.08C164.166 41.5738 164.913 41.5478 165.797 41.3918L165.856 41.8338C164.946 41.9898 164.179 42.0223 163.08 42.0223H162.619V41.5738ZM162.619 38.0898H165.355V38.5383H163.158V41.7298H162.619V38.0898ZM163.022 39.7343H165.225V40.1698H163.022V39.7343ZM166.343 37.5568H166.889V43.4328H166.343V37.5568ZM166.759 39.9163H167.851V40.3713H166.759V39.9163ZM168.683 38.1288H171.387V41.9573H168.683V38.1288ZM170.86 38.5643H169.209V41.5218H170.86V38.5643ZM172.615 37.5503H173.155V43.4393H172.615V37.5503ZM176.684 37.9598H177.152V38.4083C177.152 39.6888 175.962 40.6833 174.786 40.9498L174.545 40.5013C175.579 40.3063 176.684 39.4093 176.684 38.4083V37.9598ZM176.781 37.9598H177.249V38.4083C177.249 39.4158 178.361 40.3063 179.388 40.5013L179.147 40.9498C177.977 40.6833 176.781 39.6953 176.781 38.4083V37.9598ZM174.331 42.1978H179.654V42.6398H174.331V42.1978ZM182.689 39.8383H183.801V40.2868H182.689V39.8383ZM184.782 37.5568H185.302V43.4328H184.782V37.5568ZM183.619 37.6803H184.132V43.1403H183.619V37.6803ZM181.63 38.0443C182.39 38.0443 182.884 38.8308 182.884 40.0918C182.884 41.3528 182.39 42.1393 181.63 42.1393C180.869 42.1393 180.382 41.3528 180.382 40.0918C180.382 38.8308 180.869 38.0443 181.63 38.0443ZM181.63 38.5448C181.168 38.5448 180.876 39.1428 180.876 40.0918C180.876 41.0408 181.168 41.6388 181.63 41.6388C182.098 41.6388 182.39 41.0408 182.39 40.0918C182.39 39.1428 182.098 38.5448 181.63 38.5448ZM189.221 39.5458H190.859V39.9878H189.221V39.5458ZM187.804 38.0638H188.246V39.1103C188.246 40.4298 187.551 41.6908 186.621 42.1913L186.277 41.7623C187.141 41.3333 187.804 40.2023 187.804 39.1103V38.0638ZM187.908 38.0638H188.344V39.1103C188.344 40.1828 189.007 41.2488 189.858 41.6518L189.54 42.0873C188.591 41.6063 187.908 40.3973 187.908 39.1103V38.0638ZM190.593 37.5503H191.126V43.4393H190.593V37.5503ZM198.115 37.5633H198.654V41.9703H198.115V37.5633ZM198.485 39.4873H199.525V39.9423H198.485V39.4873ZM194.111 38.2718H197.582V38.7073H194.111V38.2718ZM195.846 39.0323C196.678 39.0323 197.25 39.4678 197.25 40.1308C197.25 40.7873 196.678 41.2228 195.846 41.2228C195.008 41.2228 194.436 40.7873 194.436 40.1308C194.436 39.4678 195.008 39.0323 195.846 39.0323ZM195.846 39.4548C195.313 39.4548 194.949 39.7213 194.949 40.1308C194.949 40.5338 195.313 40.8003 195.846 40.8003C196.373 40.8003 196.737 40.5338 196.737 40.1308C196.737 39.7213 196.373 39.4548 195.846 39.4548ZM195.573 37.5568H196.113V38.4993H195.573V37.5568ZM194.995 42.8608H198.921V43.3028H194.995V42.8608ZM194.995 41.6193H195.534V43.0493H194.995V41.6193ZM204.674 39.2143H206.364V39.6563H204.674V39.2143ZM206.195 37.5633H206.735V41.9118H206.195V37.5633ZM202.958 42.8608H206.878V43.3028H202.958V42.8608ZM202.958 41.4893H203.498V43.0883H202.958V41.4893ZM202.191 37.9468H202.724V38.9868H204.317V37.9468H204.843V40.9108H202.191V37.9468ZM202.724 39.4093V40.4688H204.317V39.4093H202.724ZM210.264 39.8383H211.375V40.2868H210.264V39.8383ZM212.357 37.5568H212.877V43.4328H212.357V37.5568ZM211.193 37.6803H211.707V43.1403H211.193V37.6803ZM209.204 38.0443C209.965 38.0443 210.459 38.8308 210.459 40.0918C210.459 41.3528 209.965 42.1393 209.204 42.1393C208.444 42.1393 207.956 41.3528 207.956 40.0918C207.956 38.8308 208.444 38.0443 209.204 38.0443ZM209.204 38.5448C208.743 38.5448 208.45 39.1428 208.45 40.0918C208.45 41.0408 208.743 41.6388 209.204 41.6388C209.672 41.6388 209.965 41.0408 209.965 40.0918C209.965 39.1428 209.672 38.5448 209.204 38.5448ZM214.758 38.1985L214.712 41.5962H214.176L214.13 38.1985H214.758ZM214.444 42.9627C214.33 42.9627 214.232 42.9219 214.151 42.8404C214.069 42.7588 214.029 42.6611 214.029 42.5472C214.029 42.4334 214.069 42.3356 214.151 42.2541C214.232 42.1725 214.33 42.1317 214.444 42.1317C214.558 42.1317 214.656 42.1725 214.737 42.2541C214.819 42.3356 214.859 42.4334 214.859 42.5472C214.859 42.6226 214.84 42.6919 214.802 42.755C214.765 42.8181 214.715 42.8688 214.652 42.9073C214.59 42.9442 214.521 42.9627 214.444 42.9627Z" fill="white"/>
<path d="M104.585 38.4043H101.585V43.9143H107.185V40.7312" stroke="white"/>
<path d="M102.504 39.9946L104.341 42.1367L108.228 37.4238" stroke="white"/>
</g>
</g>
<defs>
<clipPath id="clip0_12134_18423">
<rect width="345" height="47" fill="white"/>
</clipPath>
</defs>
</svg>
