<svg width="345" height="47" viewBox="0 0 345 47" fill="none" xmlns="http://www.w3.org/2000/svg">
<g clip-path="url(#clip0_12137_18760)">
<mask id="mask0_12137_18760" style="mask-type:luminance" maskUnits="userSpaceOnUse" x="0" y="0" width="345" height="47">
<path d="M345 0H0V47H345V0Z" fill="white"/>
</mask>
<g mask="url(#mask0_12137_18760)">
<path d="M98.496 19.552H104.887V20.707H98.496V19.552ZM97.451 23.886H106.658V25.063H97.451V23.886ZM101.268 24.711H102.742V29.155H101.268V24.711ZM104.139 19.552H105.58V20.454C105.58 21.554 105.58 22.786 105.184 24.59L103.743 24.425C104.139 22.72 104.139 21.51 104.139 20.454V19.552ZM114.918 18.958H116.315V29.144H114.918V18.958ZM113.697 22.841H115.38V24.018H113.697V22.841ZM112.685 19.112H114.06V28.682H112.685V19.112ZM107.845 20.003H111.871V26.603H107.845V20.003ZM110.507 21.147H109.209V25.459H110.507V21.147ZM124.234 18.969H125.697V26.581H124.234V18.969ZM125.279 22.071H127.05V23.27H125.279V22.071ZM117.678 20.025H123.673V21.169H117.678V20.025ZM120.681 21.532C122.144 21.532 123.178 22.335 123.178 23.501C123.178 24.667 122.144 25.459 120.681 25.459C119.207 25.459 118.173 24.667 118.173 23.501C118.173 22.335 119.207 21.532 120.681 21.532ZM120.681 22.643C120.032 22.643 119.581 22.951 119.581 23.501C119.581 24.051 120.032 24.348 120.681 24.348C121.33 24.348 121.781 24.051 121.781 23.501C121.781 22.951 121.33 22.643 120.681 22.643ZM119.944 18.947H121.407V20.586H119.944V18.947ZM119.13 27.802H126.06V28.968H119.13V27.802ZM119.13 26.009H120.593V28.308H119.13V26.009ZM137.339 18.958H138.813V24.436H137.339V18.958ZM132.037 24.876H133.478V25.822H137.361V24.876H138.813V29.034H132.037V24.876ZM133.478 26.944V27.868H137.361V26.944H133.478ZM133.269 19.376C134.853 19.376 136.03 20.377 136.03 21.785C136.03 23.193 134.853 24.194 133.269 24.194C131.685 24.194 130.497 23.193 130.497 21.785C130.497 20.377 131.685 19.376 133.269 19.376ZM133.269 20.586C132.488 20.586 131.927 21.037 131.927 21.785C131.927 22.544 132.488 22.984 133.269 22.984C134.039 22.984 134.6 22.544 134.6 21.785C134.6 21.037 134.039 20.586 133.269 20.586ZM142.728 20.091H143.927V20.729C143.927 22.676 143.014 24.425 141.045 25.074L140.319 23.919C142.013 23.358 142.728 22.027 142.728 20.729V20.091ZM143.025 20.091H144.213V20.729C144.213 21.917 144.895 23.083 146.534 23.578L145.841 24.722C143.905 24.139 143.025 22.544 143.025 20.729V20.091ZM140.704 19.64H146.204V20.806H140.704V19.64ZM147.018 18.958H148.481V24.997H147.018V18.958ZM148.074 21.301H149.834V22.5H148.074V21.301ZM145.159 25.184C147.271 25.184 148.602 25.921 148.602 27.164C148.602 28.407 147.271 29.144 145.159 29.144C143.036 29.144 141.705 28.407 141.705 27.164C141.705 25.921 143.036 25.184 145.159 25.184ZM145.159 26.328C143.861 26.328 143.157 26.592 143.157 27.164C143.157 27.736 143.861 28.022 145.159 28.022C146.457 28.022 147.15 27.736 147.15 27.164C147.15 26.592 146.457 26.328 145.159 26.328ZM153.035 20.564H154.201V21.708C154.201 24.062 153.244 26.361 151.33 27.23L150.505 26.075C152.21 25.316 153.035 23.435 153.035 21.708V20.564ZM153.365 20.564H154.52V21.708C154.52 23.358 155.334 25.118 157.039 25.822L156.247 26.977C154.311 26.141 153.365 23.974 153.365 21.708V20.564ZM150.912 19.937H156.621V21.136H150.912V19.937ZM157.567 18.958H159.041V29.144H157.567V18.958ZM167.394 22.819H169.011V23.996H167.394V22.819ZM165.029 21.785H166.129V22.049C166.129 24.172 165.513 26.295 163.885 27.23L163.06 26.13C164.512 25.283 165.029 23.611 165.029 22.049V21.785ZM165.315 21.785H166.415V22.049C166.415 23.589 166.943 25.14 168.384 25.91L167.592 26.988C165.942 26.13 165.315 24.139 165.315 22.049V21.785ZM163.445 20.663H167.988V21.84H163.445V20.663ZM165.029 19.299H166.415V21.62H165.029V19.299ZM170.606 18.958H171.992V29.144H170.606V18.958ZM168.549 19.123H169.913V28.682H168.549V19.123ZM174.411 19.849H180.824V21.015H174.411V19.849ZM173.377 26.746H182.584V27.945H173.377V26.746ZM180.208 19.849H181.649V21.026C181.649 22.511 181.649 23.919 181.176 26.141L179.735 26.009C180.208 23.952 180.208 22.467 180.208 21.026V19.849ZM180.516 22.643V23.721L174.29 24.029L174.114 22.852L180.516 22.643ZM185.518 27.0713L185.475 27.501C185.441 27.8447 185.376 28.1872 185.279 28.5283C185.186 28.8721 185.087 29.1833 184.982 29.4619C184.881 29.7406 184.799 29.9593 184.736 30.1182H183.658C183.697 29.9645 183.751 29.7497 183.818 29.4736C183.886 29.2002 183.95 28.8929 184.01 28.5518C184.07 28.2106 184.107 27.863 184.123 27.5088L184.143 27.0713H185.518ZM189.429 18.415H195.188V26.397H189.429V18.415ZM193.485 19.767H191.132V25.032H193.485V19.767ZM196.761 17.284H198.503V29.322H196.761V17.284ZM198.113 21.821H200.245V23.251H198.113V21.821ZM209.279 17.271H211.021V29.348H209.279V17.271ZM204.534 18.116C206.354 18.116 207.693 19.78 207.693 22.406C207.693 25.058 206.354 26.722 204.534 26.722C202.714 26.722 201.375 25.058 201.375 22.406C201.375 19.78 202.714 18.116 204.534 18.116ZM204.534 19.689C203.637 19.689 203.026 20.638 203.026 22.406C203.026 24.2 203.637 25.162 204.534 25.162C205.431 25.162 206.029 24.2 206.029 22.406C206.029 20.638 205.431 19.689 204.534 19.689ZM221.784 17.284H223.435V29.322H221.784V17.284ZM218.261 21.665H219.873V23.186H218.261V21.665ZM219.392 17.518H221.017V28.763H219.392V17.518ZM213.074 18.636H218.547V20.014H213.074V18.636ZM213.048 26.592L212.866 25.188C214.374 25.188 216.909 25.149 218.729 24.902L218.846 26.15C216.974 26.553 214.53 26.592 213.048 26.592ZM213.815 19.52H215.362V25.552H213.815V19.52ZM216.233 19.52H217.793V25.552H216.233V19.52ZM233.197 17.271H234.939V29.348H233.197V17.271ZM228.452 18.116C230.272 18.116 231.611 19.78 231.611 22.406C231.611 25.058 230.272 26.722 228.452 26.722C226.632 26.722 225.293 25.058 225.293 22.406C225.293 19.78 226.632 18.116 228.452 18.116ZM228.452 19.689C227.555 19.689 226.944 20.638 226.944 22.406C226.944 24.2 227.555 25.162 228.452 25.162C229.349 25.162 229.947 24.2 229.947 22.406C229.947 20.638 229.349 19.689 228.452 19.689ZM239.8 19.182H241.178V20.534C241.178 23.316 240.047 26.033 237.785 27.06L236.81 25.695C238.825 24.798 239.8 22.575 239.8 20.534V19.182ZM240.19 19.182H241.555V20.534C241.555 22.484 242.517 24.564 244.532 25.396L243.596 26.761C241.308 25.773 240.19 23.212 240.19 20.534V19.182ZM237.291 18.441H244.038V19.858H237.291V18.441ZM245.156 17.284H246.898V29.322H245.156V17.284Z" fill="white"/>
<path d="M101.199 4.79004H103.11V5.27304H101.199V4.79004ZM101.199 6.79204H103.11V7.27504H101.199V6.79204ZM100.037 3.86604C100.954 3.86604 101.612 4.72704 101.612 6.07104C101.612 7.42204 100.954 8.28304 100.037 8.28304C99.113 8.28304 98.462 7.42204 98.462 6.07104C98.462 4.72704 99.113 3.86604 100.037 3.86604ZM100.037 4.39104C99.428 4.39104 99.008 5.04904 99.008 6.07104C99.008 7.10004 99.428 7.77204 100.037 7.77204C100.646 7.77204 101.066 7.10004 101.066 6.07104C101.066 5.04904 100.646 4.39104 100.037 4.39104ZM102.984 3.37604H103.558V9.71804H102.984V3.37604ZM109.395 3.38304H109.976V9.71104H109.395V3.38304ZM107.54 4.06204H108.114C108.114 5.89604 107.288 7.49904 105.174 8.53504L104.866 8.06604C106.693 7.18404 107.54 5.84004 107.54 4.16004V4.06204ZM105.153 4.06204H107.792V4.53804H105.153V4.06204ZM114.386 5.52504H116.15V6.00104H114.386V5.52504ZM112.86 3.92904H113.336V5.05604C113.336 6.47704 112.587 7.83504 111.586 8.37404L111.215 7.91204C112.146 7.45004 112.86 6.23204 112.86 5.05604V3.92904ZM112.972 3.92904H113.441V5.05604C113.441 6.21104 114.155 7.35904 115.072 7.79304L114.729 8.26204C113.707 7.74404 112.972 6.44204 112.972 5.05604V3.92904ZM115.863 3.37604H116.437V9.71804H115.863V3.37604ZM124.236 3.38304H124.824V6.77804H124.236V3.38304ZM120.743 7.09304H121.317V7.86304H124.25V7.09304H124.824V9.62704H120.743V7.09304ZM121.317 8.32504V9.15804H124.25V8.32504H121.317ZM121.429 3.68404C122.388 3.68404 123.074 4.27904 123.074 5.14004C123.074 6.00804 122.388 6.60304 121.429 6.60304C120.47 6.60304 119.777 6.00804 119.777 5.14004C119.777 4.27904 120.47 3.68404 121.429 3.68404ZM121.429 4.16704C120.799 4.16704 120.344 4.56604 120.344 5.14004C120.344 5.71404 120.799 6.11304 121.429 6.11304C122.059 6.11304 122.514 5.71404 122.514 5.14004C122.514 4.56604 122.059 4.16704 121.429 4.16704ZM127.631 4.06204H128.107V4.57304C128.107 5.73504 127.407 6.70804 126.343 7.09304L126.049 6.63104C127.001 6.29504 127.631 5.47604 127.631 4.57304V4.06204ZM127.736 4.06204H128.212V4.56604C128.212 5.39204 128.814 6.13404 129.745 6.44204L129.465 6.89704C128.408 6.54704 127.736 5.64404 127.736 4.56604V4.06204ZM126.224 3.85204H129.605V4.32804H126.224V3.85204ZM130.403 3.38304H130.984V7.19804H130.403V3.38304ZM130.823 4.98604H131.922V5.47604H130.823V4.98604ZM128.968 7.36604C130.256 7.36604 131.047 7.79304 131.047 8.52804C131.047 9.27004 130.256 9.69704 128.968 9.69704C127.68 9.69704 126.889 9.27004 126.889 8.52804C126.889 7.79304 127.68 7.36604 128.968 7.36604ZM128.968 7.83504C128.03 7.83504 127.456 8.08704 127.456 8.52804C127.456 8.97604 128.03 9.24204 128.968 9.24204C129.906 9.24204 130.48 8.97604 130.48 8.52804C130.48 8.08704 129.906 7.83504 128.968 7.83504ZM134.252 6.22504H134.826V7.75804H134.252V6.22504ZM137.136 3.38304H137.717V8.16404H137.136V3.38304ZM133.398 9.09504H137.871V9.57104H133.398V9.09504ZM133.398 7.64604H133.979V9.24204H133.398V7.64604ZM132.544 6.36504L132.467 5.88204C133.629 5.88204 135.218 5.86104 136.569 5.67204L136.611 6.09204C135.232 6.33004 133.692 6.35804 132.544 6.36504ZM135.764 6.82704H137.283V7.28904H135.764V6.82704ZM133.041 3.76804H135.771V4.23704H133.041V3.76804ZM135.414 3.76804H135.988V4.00604C135.988 4.39104 135.988 5.05604 135.82 5.97304L135.246 5.93104C135.414 5.00704 135.414 4.37704 135.414 4.00604V3.76804ZM141.323 7.70904H141.827C143.01 7.70904 143.836 7.67404 144.809 7.51304L144.865 7.98204C143.871 8.15704 143.031 8.19204 141.827 8.19204H141.323V7.70904ZM141.323 3.95704H144.389V4.44004H141.897V7.87704H141.323V3.95704ZM141.757 5.72804H144.158V6.19704H141.757V5.72804ZM145.53 3.38304H146.111V9.71104H145.53V3.38304ZM149.667 5.23804H151.06V5.70704H149.667V5.23804ZM152.166 3.38304H152.719V7.68104H152.166V3.38304ZM150.913 3.49504H151.466V7.11404H150.913V3.49504ZM150.311 7.31004H150.808V7.51304C150.808 8.64704 149.653 9.46604 148.379 9.69004L148.155 9.22804C149.275 9.05304 150.311 8.35304 150.311 7.51304V7.31004ZM150.388 7.31004H150.892V7.51304C150.892 8.35304 151.935 9.05304 153.048 9.22804L152.824 9.69004C151.55 9.46604 150.388 8.64704 150.388 7.51304V7.31004ZM149.597 3.91504H150.164C150.164 5.46904 149.485 6.71504 147.7 7.49204L147.413 7.06504C148.995 6.39304 149.597 5.35704 149.597 4.06904V3.91504ZM147.707 3.91504H149.8V4.39104H147.707V3.91504ZM149.541 5.10504V5.51104L147.504 5.72804L147.413 5.24504L149.541 5.10504ZM160.098 3.38304H160.679V7.08604H160.098V3.38304ZM160.518 4.90204H161.617V5.39204H160.518V4.90204ZM156.031 3.73304H156.605V4.69904H158.39V3.73304H158.957V6.68704H156.031V3.73304ZM156.605 5.16104V6.21804H158.39V5.16104H156.605ZM156.724 7.42904H160.728V7.89804H157.305V9.48704H156.724V7.42904ZM156.724 9.15104H160.854V9.62704H156.724V9.15104ZM165.067 3.48804C166.46 3.48804 167.293 3.88004 167.293 4.58704C167.293 5.29404 166.46 5.68604 165.067 5.68604C163.667 5.68604 162.841 5.29404 162.841 4.58704C162.841 3.88004 163.667 3.48804 165.067 3.48804ZM165.067 3.92904C164.031 3.92904 163.436 4.16704 163.436 4.58704C163.436 5.00704 164.031 5.24504 165.067 5.24504C166.096 5.24504 166.691 5.00704 166.691 4.58704C166.691 4.16704 166.096 3.92904 165.067 3.92904ZM162.204 6.10604H167.923V6.57504H162.204V6.10604ZM162.897 7.11404H167.195V8.54204H163.485V9.31204H162.911V8.12204H166.621V7.56204H162.897V7.11404ZM162.911 9.18604H167.384V9.64104H162.911V9.18604ZM173.175 3.60704H173.686V3.95704C173.686 5.16804 172.454 6.03604 171.138 6.26004L170.907 5.79104C172.062 5.61604 173.175 4.86004 173.175 3.95704V3.60704ZM173.28 3.60704H173.784V3.95704C173.784 4.83904 174.911 5.61604 176.052 5.79104L175.821 6.26004C174.519 6.03604 173.28 5.15404 173.28 3.95704V3.60704ZM173.175 7.30304H173.749V9.71104H173.175V7.30304ZM170.62 6.94604H176.339V7.42904H170.62V6.94604ZM180.603 7.27504H181.051V7.61804C181.051 8.44404 180.533 9.27704 179.623 9.62704L179.329 9.19304C180.127 8.90604 180.603 8.22704 180.603 7.61804V7.27504ZM180.729 7.27504H181.163V7.61804C181.163 8.25504 181.541 8.93404 182.297 9.24204L182.052 9.68304C181.142 9.32604 180.729 8.45804 180.729 7.61804V7.27504ZM182.941 7.27504H183.375V7.61804C183.375 8.36004 182.955 9.29804 182.052 9.68304L181.807 9.24204C182.556 8.89904 182.941 8.16404 182.941 7.61804V7.27504ZM183.06 7.27504H183.508V7.61804C183.508 8.26904 183.977 8.92004 184.782 9.19304L184.488 9.62704C183.564 9.29104 183.06 8.49304 183.06 7.61804V7.27504ZM183.627 3.39004H184.215V7.00204H183.627V3.39004ZM180.82 3.75404C181.779 3.75404 182.465 4.35604 182.465 5.23104C182.465 6.10604 181.779 6.70104 180.82 6.70104C179.861 6.70104 179.168 6.10604 179.168 5.23104C179.168 4.35604 179.861 3.75404 180.82 3.75404ZM180.82 4.23704C180.19 4.23704 179.735 4.64304 179.735 5.23104C179.735 5.81904 180.19 6.21804 180.82 6.21804C181.45 6.21804 181.905 5.81904 181.905 5.23104C181.905 4.64304 181.45 4.23704 180.82 4.23704ZM186.188 7.17704H186.762V7.91204H189.856V7.17704H190.437V9.62704H186.188V7.17704ZM186.762 8.36004V9.15804H189.856V8.36004H186.762ZM185.46 6.26704H191.179V6.73604H185.46V6.26704ZM188.029 3.45304H188.526V3.73304C188.526 4.83204 187.301 5.62304 185.999 5.81904L185.789 5.36404C186.93 5.21004 188.029 4.53104 188.029 3.73304V3.45304ZM188.12 3.45304H188.617V3.73304C188.617 4.51704 189.73 5.21004 190.857 5.36404L190.64 5.81904C189.352 5.62304 188.12 4.81804 188.12 3.73304V3.45304ZM196.506 3.38304H197.087V9.71104H196.506V3.38304ZM192.306 3.99904H192.88V7.91904H192.306V3.99904ZM192.306 7.57604H192.824C193.783 7.57604 194.784 7.50604 195.855 7.28204L195.925 7.77904C194.826 8.00304 193.825 8.08004 192.824 8.08004H192.306V7.57604ZM202.623 3.37604H203.211V9.71804H202.623V3.37604ZM203.071 5.87504H204.247V6.36504H203.071V5.87504ZM198.612 7.65304H199.109C200.278 7.65304 201.097 7.61104 202.042 7.43604L202.105 7.92604C201.132 8.10804 200.299 8.14304 199.109 8.14304H198.612V7.65304ZM198.612 3.99204H201.552V4.46804H199.186V7.87004H198.612V3.99204ZM205.4 9.20481C205.277 9.20481 205.172 9.1609 205.084 9.07306C204.997 8.98523 204.953 8.88 204.953 8.75737C204.953 8.63474 204.997 8.5295 205.084 8.44167C205.172 8.35384 205.277 8.30993 205.4 8.30993C205.523 8.30993 205.628 8.35384 205.716 8.44167C205.804 8.5295 205.847 8.63474 205.847 8.75737C205.847 8.83857 205.827 8.91315 205.785 8.98109C205.746 9.04904 205.692 9.10372 205.624 9.14515C205.557 9.18493 205.483 9.20481 205.4 9.20481Z" fill="white"/>
<path d="M110.906 37.7153H111.446V43.6043H110.906V37.7153ZM108.345 38.1703C109.216 38.1703 109.84 38.9698 109.84 40.2178C109.84 41.4723 109.216 42.2718 108.345 42.2718C107.481 42.2718 106.857 41.4723 106.857 40.2178C106.857 38.9698 107.481 38.1703 108.345 38.1703ZM108.345 38.6578C107.773 38.6578 107.37 39.2688 107.37 40.2178C107.37 41.1733 107.773 41.7973 108.345 41.7973C108.924 41.7973 109.32 41.1733 109.32 40.2178C109.32 39.2688 108.924 38.6578 108.345 38.6578ZM113.928 39.7108H114.461V40.8223H113.928V39.7108ZM116.086 39.7108H116.619V40.8223H116.086V39.7108ZM112.615 40.6273H117.926V41.0628H112.615V40.6273ZM115.267 41.5048C116.528 41.5048 117.282 41.8753 117.282 42.5448C117.282 43.2143 116.528 43.5913 115.267 43.5913C114.006 43.5913 113.252 43.2143 113.252 42.5448C113.252 41.8753 114.006 41.5048 115.267 41.5048ZM115.267 41.9208C114.351 41.9208 113.798 42.1483 113.798 42.5448C113.798 42.9478 114.351 43.1688 115.267 43.1688C116.19 43.1688 116.736 42.9478 116.736 42.5448C116.736 42.1483 116.19 41.9208 115.267 41.9208ZM115.274 37.8258C116.548 37.8258 117.341 38.2353 117.341 38.9243C117.341 39.6068 116.548 40.0098 115.274 40.0098C113.993 40.0098 113.207 39.6068 113.207 38.9243C113.207 38.2353 113.993 37.8258 115.274 37.8258ZM115.274 38.2483C114.338 38.2483 113.759 38.4953 113.759 38.9243C113.759 39.3468 114.338 39.5938 115.274 39.5938C116.21 39.5938 116.788 39.3468 116.788 38.9243C116.788 38.4953 116.21 38.2483 115.274 38.2483ZM121.286 41.4073C122.482 41.4073 123.216 41.8103 123.216 42.4993C123.216 43.1883 122.482 43.5913 121.286 43.5913C120.09 43.5913 119.355 43.1883 119.355 42.4993C119.355 41.8103 120.09 41.4073 121.286 41.4073ZM121.286 41.8428C120.415 41.8428 119.882 42.0833 119.882 42.4993C119.882 42.9218 120.415 43.1623 121.286 43.1623C122.157 43.1623 122.69 42.9218 122.69 42.4993C122.69 42.0833 122.157 41.8428 121.286 41.8428ZM122.618 37.7218H123.158V41.2513H122.618V37.7218ZM123.008 39.1973H124.029V39.6523H123.008V39.1973ZM118.842 38.0923H119.375V38.9698H121.032V38.0923H121.559V40.8028H118.842V38.0923ZM119.375 39.3988V40.3673H121.032V39.3988H119.375ZM124.866 38.0208H125.399V38.9243H126.992V38.0208H127.518V40.7118H124.866V38.0208ZM125.399 39.3468V40.2698H126.992V39.3468H125.399ZM127.369 39.1648H129.033V39.6068H127.369V39.1648ZM128.87 37.7218H129.41V40.9328H128.87V37.7218ZM125.646 41.2188H126.179V41.9273H128.877V41.2188H129.41V43.5198H125.646V41.2188ZM126.179 42.3563V43.0778H128.877V42.3563H126.179ZM131.546 42.4445L131.509 42.6938C131.483 42.8692 131.443 43.057 131.389 43.257C131.337 43.4571 131.282 43.6456 131.225 43.8225C131.168 43.9995 131.121 44.1403 131.084 44.2449H130.669C130.689 44.1465 130.715 44.0164 130.747 43.8548C130.78 43.6933 130.812 43.5125 130.844 43.3124C130.878 43.1139 130.906 42.9108 130.927 42.703L130.955 42.4445H131.546ZM134.199 38.8714V38.3635H137.744V38.8714H136.258V43.0908H135.685V38.8714H134.199ZM139.2 38.3635V43.0908H138.628V38.3635H139.2ZM140.348 43.0908V38.3635H141.945C142.316 38.3635 142.619 38.4305 142.855 38.5644C143.092 38.6967 143.267 38.876 143.381 39.1022C143.495 39.3284 143.552 39.5808 143.552 39.8593C143.552 40.1378 143.495 40.391 143.381 40.6187C143.269 40.8464 143.095 41.028 142.859 41.1634C142.624 41.2973 142.322 41.3643 141.954 41.3643H140.81V40.8564H141.936C142.19 40.8564 142.394 40.8126 142.548 40.7249C142.702 40.6372 142.813 40.5187 142.882 40.3694C142.953 40.2186 142.989 40.0486 142.989 39.8593C142.989 39.67 142.953 39.5007 142.882 39.3515C142.813 39.2022 142.701 39.0853 142.545 39.0006C142.39 38.9144 142.184 38.8714 141.927 38.8714H140.92V43.0908H140.348ZM144.952 42.4445L144.915 42.6938C144.889 42.8692 144.849 43.057 144.795 43.257C144.743 43.4571 144.688 43.6456 144.631 43.8225C144.575 43.9995 144.528 44.1403 144.491 44.2449H144.075C144.095 44.1465 144.121 44.0164 144.154 43.8548C144.186 43.6933 144.218 43.5125 144.251 43.3124C144.284 43.1139 144.312 42.9108 144.334 42.703L144.361 42.4445H144.952ZM149.287 38.7488H149.729V38.8268C149.729 39.6913 149.092 40.3673 148.097 40.6143L147.876 40.1853C148.715 39.9968 149.287 39.4508 149.287 38.8268V38.7488ZM149.384 38.7488H149.826V38.8268C149.826 39.4183 150.392 39.9188 151.224 40.1073L151.003 40.5298C150.021 40.2958 149.384 39.6523 149.384 38.8268V38.7488ZM148 38.3848H151.113V38.8138H148V38.3848ZM149.28 37.7348H149.826V38.6708H149.28V37.7348ZM149.293 41.0823H149.833V43.4288H149.293V41.0823ZM151.893 37.7218H152.426V43.6043H151.893V37.7218ZM147.675 41.4788L147.603 41.0238C148.715 41.0238 150.19 41.0173 151.477 40.8353L151.516 41.2318C150.197 41.4593 148.767 41.4788 147.675 41.4788ZM153.596 42.3888H158.919V42.8373H153.596V42.3888ZM155.962 40.9653H156.495V42.5383H155.962V40.9653ZM155.949 38.1118H156.417V38.5668C156.417 39.8213 155.214 40.7898 154.031 41.0368L153.804 40.5883C154.837 40.3998 155.949 39.5353 155.949 38.5668V38.1118ZM156.046 38.1118H156.514V38.5668C156.514 39.5418 157.632 40.3998 158.666 40.5883L158.432 41.0368C157.249 40.7898 156.046 39.8213 156.046 38.5668V38.1118ZM161.709 38.0988H164.445V40.5038H161.709V38.0988ZM163.925 38.5343H162.229V40.0748H163.925V38.5343ZM165.674 37.7218H166.213V41.0953H165.674V37.7218ZM164.081 41.7908H164.543V41.9013C164.543 42.7463 163.496 43.4223 162.307 43.5783L162.125 43.1623C163.145 43.0453 164.081 42.4863 164.081 41.9013V41.7908ZM164.159 41.7908H164.627V41.9013C164.627 42.4668 165.537 43.0388 166.558 43.1623L166.376 43.5783C165.18 43.4158 164.159 42.7268 164.159 41.9013V41.7908ZM162.359 41.4918H166.35V41.9143H162.359V41.4918ZM164.081 40.9263H164.627V41.6803H164.081V40.9263ZM173.221 37.7218H173.761V42.3238H173.221V37.7218ZM173.533 39.7693H174.619V40.2178H173.533V39.7693ZM170.043 43.0258H173.969V43.4678H170.043V43.0258ZM170.043 42.0183H170.582V43.1623H170.043V42.0183ZM170.745 40.5948H171.284V41.3943H170.745V40.5948ZM169.243 41.6478L169.172 41.2123C170.212 41.2123 171.661 41.1928 172.87 41.0043L172.916 41.3878C171.674 41.6153 170.264 41.6413 169.243 41.6478ZM169.321 38.2938H172.695V38.7033H169.321V38.2938ZM171.011 38.9438C171.837 38.9438 172.376 39.2883 172.376 39.8473C172.376 40.4128 171.837 40.7573 171.011 40.7573C170.186 40.7573 169.64 40.4128 169.64 39.8473C169.64 39.2883 170.186 38.9438 171.011 38.9438ZM171.011 39.3273C170.485 39.3273 170.147 39.5288 170.147 39.8473C170.147 40.1723 170.485 40.3673 171.011 40.3673C171.531 40.3673 171.869 40.1723 171.869 39.8473C171.869 39.5288 171.531 39.3273 171.011 39.3273ZM170.745 37.6958H171.284V38.4758H170.745V37.6958ZM177.569 40.5428H178.102V41.4398H177.569V40.5428ZM175.892 37.8128H176.425V38.3588H179.266V37.8128H179.805V39.7498H175.892V37.8128ZM176.425 38.7748V39.3338H179.266V38.7748H176.425ZM175.184 40.2308H180.494V40.6663H175.184V40.2308ZM175.827 41.2383H179.818V42.5448H176.373V43.2728H175.84V42.1548H179.285V41.6478H175.827V41.2383ZM175.84 43.1168H179.994V43.5328H175.84V43.1168ZM183.667 38.0988H187.34V38.5408H183.667V38.0988ZM182.998 40.6598H188.308V41.1018H182.998V40.6598ZM184.363 40.9328H184.902V43.5978H184.363V40.9328ZM187.047 38.0988H187.58V38.5343C187.58 39.0868 187.58 39.7953 187.379 40.8028L186.846 40.7508C187.047 39.7758 187.047 39.0738 187.047 38.5343V38.0988ZM186.371 40.9328H186.911V43.5978H186.371V40.9328ZM192.11 39.2428H193.436V39.6913H192.11V39.2428ZM193.267 37.7218H193.807V41.2253H193.267V37.7218ZM191.876 41.4008C193.085 41.4008 193.833 41.8103 193.833 42.4993C193.833 43.1948 193.085 43.5913 191.876 43.5913C190.661 43.5913 189.913 43.1948 189.913 42.4993C189.913 41.8103 190.661 41.4008 191.876 41.4008ZM191.876 41.8233C190.992 41.8233 190.453 42.0703 190.453 42.4993C190.453 42.9218 190.992 43.1688 191.876 43.1688C192.76 43.1688 193.3 42.9218 193.3 42.4993C193.3 42.0703 192.76 41.8233 191.876 41.8233ZM190.472 38.3133H190.914V38.7878C190.914 39.8733 190.251 40.8028 189.276 41.1668L188.997 40.7378C189.868 40.4193 190.472 39.6328 190.472 38.7878V38.3133ZM190.576 38.3133H191.012V38.7878C191.012 39.5483 191.584 40.2763 192.435 40.5753L192.162 41.0043C191.207 40.6598 190.576 39.7758 190.576 38.7878V38.3133ZM189.159 38.1508H192.299V38.5928H189.159V38.1508ZM197.609 37.8193C198.902 37.8193 199.676 38.1833 199.676 38.8398C199.676 39.4963 198.902 39.8603 197.609 39.8603C196.309 39.8603 195.542 39.4963 195.542 38.8398C195.542 38.1833 196.309 37.8193 197.609 37.8193ZM197.609 38.2288C196.647 38.2288 196.094 38.4498 196.094 38.8398C196.094 39.2298 196.647 39.4508 197.609 39.4508C198.564 39.4508 199.117 39.2298 199.117 38.8398C199.117 38.4498 198.564 38.2288 197.609 38.2288ZM194.95 40.2503H200.261V40.6858H194.95V40.2503ZM195.594 41.1863H199.585V42.5123H196.14V43.2273H195.607V42.1223H199.052V41.6023H195.594V41.1863ZM195.607 43.1103H199.76V43.5328H195.607V43.1103ZM205.488 37.9818H207.178V38.4173H205.488V37.9818ZM202.765 40.5168H208.069V40.9588H202.765V40.5168ZM205.261 39.3338H205.794V40.7118H205.261V39.3338ZM206.951 37.9818H207.471V38.2418C207.471 38.6058 207.471 39.2103 207.302 40.0163L206.782 39.9513C206.951 39.1453 206.951 38.5993 206.951 38.2418V37.9818ZM203.343 41.5763H207.399V43.5718H206.86V42.0183H203.343V41.5763ZM203.22 37.9818H204.767V38.4173H203.22V37.9818ZM204.481 37.9818H205.001V38.1833C205.001 38.5213 205.001 39.1648 204.728 40.0228L204.208 39.9448C204.481 39.0803 204.481 38.5148 204.481 38.1833V37.9818ZM212.106 40.4778H212.646V41.2318H212.106V40.4778ZM214.583 37.7283H215.122V41.6673H214.583V37.7283ZM214.895 39.5028H215.98V39.9513H214.895V39.5028ZM210.605 41.4983L210.533 41.0563C211.586 41.0563 213.016 41.0563 214.232 40.8808L214.277 41.2643C213.023 41.4853 211.632 41.4918 210.605 41.4983ZM211.261 41.9598H215.122V43.5978H214.583V42.3888H211.261V41.9598ZM210.683 38.2548H214.056V38.6578H210.683V38.2548ZM212.373 38.8853C213.198 38.8853 213.738 39.2168 213.738 39.7563C213.738 40.2958 213.198 40.6273 212.373 40.6273C211.541 40.6273 211.001 40.2958 211.001 39.7563C211.001 39.2168 211.541 38.8853 212.373 38.8853ZM212.373 39.2558C211.846 39.2558 211.508 39.4443 211.508 39.7563C211.508 40.0553 211.846 40.2503 212.373 40.2503C212.893 40.2503 213.231 40.0553 213.231 39.7563C213.231 39.4443 212.893 39.2558 212.373 39.2558ZM212.106 37.6763H212.646V38.4498H212.106V37.6763ZM220.822 37.7283H221.368V42.0183H220.822V37.7283ZM217.592 43.0258H221.544V43.4678H217.592V43.0258ZM217.592 41.5763H218.125V43.1753H217.592V41.5763ZM218.216 38.1313C219.093 38.1313 219.743 38.7293 219.743 39.5808C219.743 40.4258 219.093 41.0303 218.216 41.0303C217.338 41.0303 216.682 40.4258 216.682 39.5808C216.682 38.7293 217.338 38.1313 218.216 38.1313ZM218.216 38.5993C217.644 38.5993 217.208 39.0023 217.208 39.5808C217.208 40.1528 217.644 40.5558 218.216 40.5558C218.788 40.5558 219.223 40.1528 219.223 39.5808C219.223 39.0023 218.788 38.5993 218.216 38.5993ZM226.509 37.7218H227.049V43.5978H226.509V37.7218ZM226.919 40.1333H228.011V40.5883H226.919V40.1333ZM222.499 38.6578H225.963V39.0998H222.499V38.6578ZM224.254 39.5873C225.086 39.5873 225.684 40.1463 225.684 40.9393C225.684 41.7323 225.086 42.2913 224.254 42.2913C223.428 42.2913 222.824 41.7323 222.824 40.9393C222.824 40.1463 223.428 39.5873 224.254 39.5873ZM224.254 40.0358C223.721 40.0358 223.337 40.4063 223.337 40.9393C223.337 41.4658 223.721 41.8428 224.254 41.8428C224.787 41.8428 225.17 41.4658 225.17 40.9393C225.17 40.4063 224.787 40.0358 224.254 40.0358ZM223.974 37.7933H224.514V38.8593H223.974V37.7933ZM230.825 39.8213H231.949V40.2698H230.825V39.8213ZM229.726 38.2743H230.149V39.3923C230.149 40.6208 229.635 41.8103 228.777 42.3368L228.439 41.9273C229.245 41.4528 229.726 40.3998 229.726 39.3923V38.2743ZM229.83 38.2743H230.246V39.3728C230.246 40.3153 230.688 41.3163 231.462 41.7843L231.15 42.2068C230.305 41.6868 229.83 40.5168 229.83 39.3728V38.2743ZM232.983 37.7218H233.503V43.5978H232.983V37.7218ZM231.793 37.8453H232.3V43.3053H231.793V37.8453ZM235.79 40.7443H236.323V42.5058H235.79V40.7443ZM237.961 40.7443H238.501V42.5058H237.961V40.7443ZM234.49 42.4018H239.814V42.8503H234.49V42.4018ZM237.142 38.0923C238.384 38.0923 239.274 38.6838 239.274 39.6068C239.274 40.5233 238.384 41.1148 237.142 41.1148C235.894 41.1148 235.004 40.5233 235.004 39.6068C235.004 38.6838 235.894 38.0923 237.142 38.0923ZM237.142 38.5213C236.2 38.5213 235.524 38.9503 235.524 39.6068C235.524 40.2568 236.2 40.6858 237.142 40.6858C238.085 40.6858 238.754 40.2568 238.754 39.6068C238.754 38.9503 238.085 38.5213 237.142 38.5213ZM241.363 38.3635L241.317 41.7613H240.782L240.736 38.3635H241.363ZM241.049 43.1278C240.936 43.1278 240.838 43.087 240.756 43.0054C240.675 42.9239 240.634 42.8261 240.634 42.7123C240.634 42.5984 240.675 42.5007 240.756 42.4191C240.838 42.3376 240.936 42.2968 241.049 42.2968C241.163 42.2968 241.261 42.3376 241.343 42.4191C241.424 42.5007 241.465 42.5984 241.465 42.7123C241.465 42.7877 241.446 42.8569 241.407 42.92C241.37 42.9831 241.32 43.0339 241.257 43.0724C241.196 43.1093 241.126 43.1278 241.049 43.1278Z" fill="white"/>
<path d="M101.585 38.5703H98.5848V44.0803H104.185V40.8972" stroke="white"/>
<path d="M99.5043 40.1602L101.341 42.3022L105.228 37.5894" stroke="white"/>
</g>
</g>
<defs>
<clipPath id="clip0_12137_18760">
<rect width="345" height="47" fill="white"/>
</clipPath>
</defs>
</svg>
