<svg width="800" height="109" viewBox="0 0 800 109" fill="none" xmlns="http://www.w3.org/2000/svg">
<g clip-path="url(#clip0_12137_18747)">
<mask id="mask0_12137_18747" style="mask-type:luminance" maskUnits="userSpaceOnUse" x="0" y="0" width="800" height="109">
<path d="M800 0H0V109H800V0Z" fill="white"/>
</mask>
<g mask="url(#mask0_12137_18747)">
<path d="M148.168 37.246H170.246V41.236H148.168V37.246ZM144.558 52.218H176.364V56.284H144.558V52.218ZM157.744 55.068H162.836V70.42H157.744V55.068ZM167.662 37.246H172.64V40.362C172.64 44.162 172.64 48.418 171.272 54.65L166.294 54.08C167.662 48.19 167.662 44.01 167.662 40.362V37.246ZM204.899 35.194H209.725V70.382H204.899V35.194ZM200.681 48.608H206.495V52.674H200.681V48.608ZM197.185 35.726H201.935V68.786H197.185V35.726ZM180.465 38.804H194.373V61.604H180.465V38.804ZM189.661 42.756H185.177V57.652H189.661V42.756ZM237.082 35.232H242.136V61.528H237.082V35.232ZM240.692 45.948H246.81V50.09H240.692V45.948ZM214.434 38.88H235.144V42.832H214.434V38.88ZM224.808 44.086C229.862 44.086 233.434 46.86 233.434 50.888C233.434 54.916 229.862 57.652 224.808 57.652C219.716 57.652 216.144 54.916 216.144 50.888C216.144 46.86 219.716 44.086 224.808 44.086ZM224.808 47.924C222.566 47.924 221.008 48.988 221.008 50.888C221.008 52.788 222.566 53.814 224.808 53.814C227.05 53.814 228.608 52.788 228.608 50.888C228.608 48.988 227.05 47.924 224.808 47.924ZM222.262 35.156H227.316V40.818H222.262V35.156ZM219.45 65.746H243.39V69.774H219.45V65.746ZM219.45 59.552H224.504V67.494H219.45V59.552ZM282.354 35.194H287.446V54.118H282.354V35.194ZM264.038 55.638H269.016V58.906H282.43V55.638H287.446V70.002H264.038V55.638ZM269.016 62.782V65.974H282.43V62.782H269.016ZM268.294 36.638C273.766 36.638 277.832 40.096 277.832 44.96C277.832 49.824 273.766 53.282 268.294 53.282C262.822 53.282 258.718 49.824 258.718 44.96C258.718 40.096 262.822 36.638 268.294 36.638ZM268.294 40.818C265.596 40.818 263.658 42.376 263.658 44.96C263.658 47.582 265.596 49.102 268.294 49.102C270.954 49.102 272.892 47.582 272.892 44.96C272.892 42.376 270.954 40.818 268.294 40.818ZM300.971 39.108H305.113V41.312C305.113 48.038 301.959 54.08 295.157 56.322L292.649 52.332C298.501 50.394 300.971 45.796 300.971 41.312V39.108ZM301.997 39.108H306.101V41.312C306.101 45.416 308.457 49.444 314.119 51.154L311.725 55.106C305.037 53.092 301.997 47.582 301.997 41.312V39.108ZM293.979 37.55H312.979V41.578H293.979V37.55ZM315.791 35.194H320.845V56.056H315.791V35.194ZM319.439 43.288H325.519V47.43H319.439V43.288ZM309.369 56.702C316.665 56.702 321.263 59.248 321.263 63.542C321.263 67.836 316.665 70.382 309.369 70.382C302.035 70.382 297.437 67.836 297.437 63.542C297.437 59.248 302.035 56.702 309.369 56.702ZM309.369 60.654C304.885 60.654 302.453 61.566 302.453 63.542C302.453 65.518 304.885 66.506 309.369 66.506C313.853 66.506 316.247 65.518 316.247 63.542C316.247 61.566 313.853 60.654 309.369 60.654ZM336.574 40.742H340.602V44.694C340.602 52.826 337.296 60.768 330.684 63.77L327.834 59.78C333.724 57.158 336.574 50.66 336.574 44.694V40.742ZM337.714 40.742H341.704V44.694C341.704 50.394 344.516 56.474 350.406 58.906L347.67 62.896C340.982 60.008 337.714 52.522 337.714 44.694V40.742ZM329.24 38.576H348.962V42.718H329.24V38.576ZM352.23 35.194H357.322V70.382H352.23V35.194ZM386.178 48.532H391.764V52.598H386.178V48.532ZM378.008 44.96H381.808V45.872C381.808 53.206 379.68 60.54 374.056 63.77L371.206 59.97C376.222 57.044 378.008 51.268 378.008 45.872V44.96ZM378.996 44.96H382.796V45.872C382.796 51.192 384.62 56.55 389.598 59.21L386.862 62.934C381.162 59.97 378.996 53.092 378.996 45.872V44.96ZM372.536 41.084H388.23V45.15H372.536V41.084ZM378.008 36.372H382.796V44.39H378.008V36.372ZM397.274 35.194H402.062V70.382H397.274V35.194ZM390.168 35.764H394.88V68.786H390.168V35.764ZM410.419 38.272H432.573V42.3H410.419V38.272ZM406.847 62.098H438.653V66.24H406.847V62.098ZM430.445 38.272H435.423V42.338C435.423 47.468 435.423 52.332 433.789 60.008L428.811 59.552C430.445 52.446 430.445 47.316 430.445 42.338V38.272ZM431.509 47.924V51.648L410.001 52.712L409.393 48.646L431.509 47.924ZM448.788 63.2216L448.64 64.706C448.523 65.8935 448.298 67.0765 447.965 68.255C447.641 69.4425 447.299 70.5175 446.939 71.4801C446.588 72.4427 446.305 73.1984 446.089 73.7472H442.365C442.5 73.2164 442.684 72.4742 442.918 71.5206C443.152 70.576 443.372 69.5144 443.579 68.3359C443.786 67.1574 443.917 65.9564 443.971 64.733L444.038 63.2216H448.788ZM462.17 34.75H481.219V61.152H462.17V34.75ZM475.586 39.222H467.803V56.637H475.586V39.222ZM486.422 31.009H492.184V70.827H486.422V31.009ZM490.894 46.016H497.946V50.746H490.894V46.016ZM527.828 30.966H533.59V70.913H527.828V30.966ZM512.133 33.761C518.153 33.761 522.582 39.265 522.582 47.951C522.582 56.723 518.153 62.227 512.133 62.227C506.113 62.227 501.684 56.723 501.684 47.951C501.684 39.265 506.113 33.761 512.133 33.761ZM512.133 38.964C509.166 38.964 507.145 42.103 507.145 47.951C507.145 53.885 509.166 57.067 512.133 57.067C515.1 57.067 517.078 53.885 517.078 47.951C517.078 42.103 515.1 38.964 512.133 38.964ZM569.19 31.009H574.651V70.827H569.19V31.009ZM557.537 45.5H562.869V50.531H557.537V45.5ZM561.278 31.783H566.653V68.978H561.278V31.783ZM540.38 35.481H558.483V40.039H540.38V35.481ZM540.294 61.797L539.692 57.153C544.68 57.153 553.065 57.024 559.085 56.207L559.472 60.335C553.28 61.668 545.196 61.797 540.294 61.797ZM542.831 38.405H547.948V58.357H542.831V38.405ZM550.829 38.405H555.989V58.357H550.829V38.405ZM606.941 30.966H612.703V70.913H606.941V30.966ZM591.246 33.761C597.266 33.761 601.695 39.265 601.695 47.951C601.695 56.723 597.266 62.227 591.246 62.227C585.226 62.227 580.797 56.723 580.797 47.951C580.797 39.265 585.226 33.761 591.246 33.761ZM591.246 38.964C588.279 38.964 586.258 42.103 586.258 47.951C586.258 53.885 588.279 57.067 591.246 57.067C594.213 57.067 596.191 53.885 596.191 47.951C596.191 42.103 594.213 38.964 591.246 38.964ZM628.782 37.287H633.34V41.759C633.34 50.961 629.599 59.948 622.117 63.345L618.892 58.83C625.557 55.863 628.782 48.51 628.782 41.759V37.287ZM630.072 37.287H634.587V41.759C634.587 48.209 637.769 55.089 644.434 57.841L641.338 62.356C633.77 59.088 630.072 50.617 630.072 41.759V37.287ZM620.483 34.836H642.8V39.523H620.483V34.836ZM646.498 31.009H652.26V70.827H646.498V31.009Z" fill="white"/>
<path d="M155.826 7.0625H161.695V8.546H155.826V7.0625ZM155.826 13.2115H161.695V14.695H155.826V13.2115ZM152.257 4.2245C155.073 4.2245 157.094 6.869 157.094 10.997C157.094 15.1465 155.073 17.791 152.257 17.791C149.419 17.791 147.419 15.1465 147.419 10.997C147.419 6.869 149.419 4.2245 152.257 4.2245ZM152.257 5.837C150.386 5.837 149.096 7.858 149.096 10.997C149.096 14.1575 150.386 16.2215 152.257 16.2215C154.127 16.2215 155.417 14.1575 155.417 10.997C155.417 7.858 154.127 5.837 152.257 5.837ZM161.308 2.7195H163.071V22.1985H161.308V2.7195ZM181 2.741H182.785V22.177H181V2.741ZM175.303 4.8265H177.066C177.066 10.4595 174.529 15.383 168.036 18.565L167.09 17.1245C172.701 14.4155 175.303 10.2875 175.303 5.1275V4.8265ZM167.971 4.8265H176.077V6.2885H167.971V4.8265ZM196.328 9.32H201.746V10.782H196.328V9.32ZM191.641 4.418H193.103V7.8795C193.103 12.244 190.803 16.415 187.728 18.0705L186.589 16.6515C189.448 15.2325 191.641 11.4915 191.641 7.8795V4.418ZM191.985 4.418H193.426V7.8795C193.426 11.427 195.619 14.953 198.435 16.286L197.382 17.7265C194.243 16.1355 191.985 12.1365 191.985 7.8795V4.418ZM200.865 2.7195H202.628V22.1985H200.865V2.7195ZM226.582 2.741H228.388V13.1685H226.582V2.741ZM215.854 14.136H217.617V16.501H226.625V14.136H228.388V21.919H215.854V14.136ZM217.617 17.92V20.4785H226.625V17.92H217.617ZM217.961 3.6655C220.906 3.6655 223.013 5.493 223.013 8.1375C223.013 10.8035 220.906 12.631 217.961 12.631C215.015 12.631 212.887 10.8035 212.887 8.1375C212.887 5.493 215.015 3.6655 217.961 3.6655ZM217.961 5.149C216.026 5.149 214.628 6.3745 214.628 8.1375C214.628 9.9005 216.026 11.126 217.961 11.126C219.896 11.126 221.293 9.9005 221.293 8.1375C221.293 6.3745 219.896 5.149 217.961 5.149ZM237.008 4.8265H238.47V6.396C238.47 9.965 236.32 12.9535 233.052 14.136L232.149 12.717C235.073 11.685 237.008 9.1695 237.008 6.396V4.8265ZM237.331 4.8265H238.793V6.3745C238.793 8.9115 240.642 11.1905 243.501 12.1365L242.641 13.534C239.395 12.459 237.331 9.6855 237.331 6.3745V4.8265ZM232.687 4.1815H243.071V5.6435H232.687V4.1815ZM245.522 2.741H247.307V14.4585H245.522V2.741ZM246.812 7.6645H250.188V9.1695H246.812V7.6645ZM241.115 14.9745C245.071 14.9745 247.5 16.286 247.5 18.5435C247.5 20.8225 245.071 22.134 241.115 22.134C237.159 22.134 234.729 20.8225 234.729 18.5435C234.729 16.286 237.159 14.9745 241.115 14.9745ZM241.115 16.415C238.234 16.415 236.471 17.189 236.471 18.5435C236.471 19.9195 238.234 20.7365 241.115 20.7365C243.996 20.7365 245.759 19.9195 245.759 18.5435C245.759 17.189 243.996 16.415 241.115 16.415ZM257.345 11.47H259.108V16.1785H257.345V11.47ZM266.203 2.741H267.988V17.4255H266.203V2.741ZM254.722 20.285H268.461V21.747H254.722V20.285ZM254.722 15.8345H256.507V20.7365H254.722V15.8345ZM252.099 11.9L251.863 10.4165C255.432 10.4165 260.312 10.352 264.462 9.7715L264.591 11.0615C260.355 11.7925 255.625 11.8785 252.099 11.9ZM261.989 13.319H266.655V14.738H261.989V13.319ZM253.626 3.9235H262.011V5.364H253.626V3.9235ZM260.914 3.9235H262.677V4.6545C262.677 5.837 262.677 7.8795 262.161 10.696L260.398 10.567C260.914 7.729 260.914 5.794 260.914 4.6545V3.9235ZM279.064 16.028H280.612C284.246 16.028 286.783 15.9205 289.771 15.426L289.943 16.8665C286.89 17.404 284.31 17.5115 280.612 17.5115H279.064V16.028ZM279.064 4.504H288.481V5.9875H280.827V16.544H279.064V4.504ZM280.397 9.9435H287.772V11.384H280.397V9.9435ZM291.986 2.741H293.77V22.177H291.986V2.741ZM304.69 8.4385H308.969V9.879H304.69V8.4385ZM312.366 2.741H314.064V15.942H312.366V2.741ZM308.517 3.085H310.216V14.2005H308.517V3.085ZM306.668 14.8025H308.195V15.426C308.195 18.909 304.647 21.4245 300.734 22.1125L300.046 20.6935C303.486 20.156 306.668 18.006 306.668 15.426V14.8025ZM306.905 14.8025H308.453V15.426C308.453 18.006 311.656 20.156 315.075 20.6935L314.387 22.1125C310.474 21.4245 306.905 18.909 306.905 15.426V14.8025ZM304.475 4.375H306.217C306.217 9.148 304.131 12.975 298.649 15.3615L297.767 14.05C302.626 11.986 304.475 8.804 304.475 4.848V4.375ZM298.67 4.375H305.099V5.837H298.67V4.375ZM304.303 8.03V9.277L298.047 9.9435L297.767 8.46L304.303 8.03ZM336.729 2.741H338.514V14.1145H336.729V2.741ZM338.019 7.4065H341.395V8.9115H338.019V7.4065ZM324.238 3.816H326.001V6.783H331.483V3.816H333.225V12.889H324.238V3.816ZM326.001 8.202V11.4485H331.483V8.202H326.001ZM326.366 15.168H338.664V16.6085H328.151V21.489H326.366V15.168ZM326.366 20.457H339.051V21.919H326.366V20.457ZM351.993 3.0635C356.271 3.0635 358.83 4.2675 358.83 6.439C358.83 8.6105 356.271 9.8145 351.993 9.8145C347.693 9.8145 345.156 8.6105 345.156 6.439C345.156 4.2675 347.693 3.0635 351.993 3.0635ZM351.993 4.418C348.811 4.418 346.983 5.149 346.983 6.439C346.983 7.729 348.811 8.46 351.993 8.46C355.153 8.46 356.981 7.729 356.981 6.439C356.981 5.149 355.153 4.418 351.993 4.418ZM343.199 11.1045H360.765V12.545H343.199V11.1045ZM345.328 14.2005H358.529V18.5865H347.134V20.9515H345.371V17.2965H356.766V15.5765H345.328V14.2005ZM345.371 20.5645H359.109V21.962H345.371V20.5645ZM376.893 3.429H378.463V4.504C378.463 8.2235 374.679 10.8895 370.637 11.5775L369.927 10.137C373.475 9.5995 376.893 7.2775 376.893 4.504V3.429ZM377.216 3.429H378.764V4.504C378.764 7.213 382.225 9.5995 385.73 10.137L385.02 11.5775C381.021 10.8895 377.216 8.1805 377.216 4.504V3.429ZM376.893 14.781H378.656V22.177H376.893V14.781ZM369.046 13.6845H386.611V15.168H369.046V13.6845ZM399.708 14.695H401.084V15.7485C401.084 18.2855 399.493 20.844 396.698 21.919L395.795 20.586C398.246 19.7045 399.708 17.619 399.708 15.7485V14.695ZM400.095 14.695H401.428V15.7485C401.428 17.705 402.589 19.7905 404.911 20.7365L404.159 22.091C401.364 20.9945 400.095 18.3285 400.095 15.7485V14.695ZM406.889 14.695H408.222V15.7485C408.222 18.0275 406.932 20.9085 404.159 22.091L403.406 20.7365C405.707 19.683 406.889 17.4255 406.889 15.7485V14.695ZM407.255 14.695H408.631V15.7485C408.631 17.748 410.071 19.7475 412.544 20.586L411.641 21.919C408.803 20.887 407.255 18.436 407.255 15.7485V14.695ZM408.996 2.7625H410.802V13.8565H408.996V2.7625ZM400.375 3.8805C403.32 3.8805 405.427 5.7295 405.427 8.417C405.427 11.1045 403.32 12.932 400.375 12.932C397.429 12.932 395.301 11.1045 395.301 8.417C395.301 5.7295 397.429 3.8805 400.375 3.8805ZM400.375 5.364C398.44 5.364 397.042 6.611 397.042 8.417C397.042 10.223 398.44 11.4485 400.375 11.4485C402.31 11.4485 403.707 10.223 403.707 8.417C403.707 6.611 402.31 5.364 400.375 5.364ZM416.864 14.394H418.627V16.6515H428.13V14.394H429.914V21.919H416.864V14.394ZM418.627 18.0275V20.4785H428.13V18.0275H418.627ZM414.628 11.599H432.193V13.0395H414.628V11.599ZM422.518 2.956H424.045V3.816C424.045 7.1915 420.282 9.621 416.283 10.223L415.638 8.8255C419.143 8.3525 422.518 6.267 422.518 3.816V2.956ZM422.798 2.956H424.324V3.816C424.324 6.224 427.743 8.3525 431.204 8.8255L430.538 10.223C426.582 9.621 422.798 7.1485 422.798 3.816V2.956ZM448.553 2.741H450.338V22.177H448.553V2.741ZM435.653 4.633H437.416V16.673H435.653V4.633ZM435.653 15.6195H437.244C440.19 15.6195 443.264 15.4045 446.554 14.7165L446.769 16.243C443.393 16.931 440.319 17.1675 437.244 17.1675H435.653V15.6195ZM467.342 2.7195H469.148V22.1985H467.342V2.7195ZM468.718 10.395H472.33V11.9H468.718V10.395ZM455.023 15.856H456.549C460.14 15.856 462.655 15.727 465.558 15.1895L465.751 16.6945C462.763 17.2535 460.204 17.361 456.549 17.361H455.023V15.856ZM455.023 4.6115H464.053V6.0735H456.786V16.5225H455.023V4.6115ZM475.872 20.6222C475.495 20.6222 475.172 20.4873 474.902 20.2175C474.632 19.9477 474.497 19.6245 474.497 19.2479C474.497 18.8712 474.632 18.548 474.902 18.2782C475.172 18.0085 475.495 17.8736 475.872 17.8736C476.248 17.8736 476.571 18.0085 476.841 18.2782C477.111 18.548 477.246 18.8712 477.246 19.2479C477.246 19.4973 477.182 19.7263 477.055 19.935C476.933 20.1437 476.767 20.3117 476.559 20.4389C476.355 20.5611 476.126 20.6222 475.872 20.6222Z" fill="white"/>
<path d="M179.2 90.114H180.694V106.422H179.2V90.114ZM172.108 91.374C174.52 91.374 176.248 93.588 176.248 97.044C176.248 100.518 174.52 102.732 172.108 102.732C169.714 102.732 167.986 100.518 167.986 97.044C167.986 93.588 169.714 91.374 172.108 91.374ZM172.108 92.724C170.524 92.724 169.408 94.416 169.408 97.044C169.408 99.69 170.524 101.418 172.108 101.418C173.71 101.418 174.808 99.69 174.808 97.044C174.808 94.416 173.71 92.724 172.108 92.724ZM187.569 95.64H189.045V98.718H187.569V95.64ZM193.545 95.64H195.021V98.718H193.545V95.64ZM183.933 98.178H198.639V99.384H183.933V98.178ZM191.277 100.608C194.769 100.608 196.857 101.634 196.857 103.488C196.857 105.342 194.769 106.386 191.277 106.386C187.785 106.386 185.697 105.342 185.697 103.488C185.697 101.634 187.785 100.608 191.277 100.608ZM191.277 101.76C188.739 101.76 187.209 102.39 187.209 103.488C187.209 104.604 188.739 105.216 191.277 105.216C193.833 105.216 195.345 104.604 195.345 103.488C195.345 102.39 193.833 101.76 191.277 101.76ZM191.295 90.42C194.823 90.42 197.019 91.554 197.019 93.462C197.019 95.352 194.823 96.468 191.295 96.468C187.749 96.468 185.571 95.352 185.571 93.462C185.571 91.554 187.749 90.42 191.295 90.42ZM191.295 91.59C188.703 91.59 187.101 92.274 187.101 93.462C187.101 94.632 188.703 95.316 191.295 95.316C193.887 95.316 195.489 94.632 195.489 93.462C195.489 92.274 193.887 91.59 191.295 91.59ZM207.943 100.338C211.255 100.338 213.289 101.454 213.289 103.362C213.289 105.27 211.255 106.386 207.943 106.386C204.631 106.386 202.597 105.27 202.597 103.362C202.597 101.454 204.631 100.338 207.943 100.338ZM207.943 101.544C205.531 101.544 204.055 102.21 204.055 103.362C204.055 104.532 205.531 105.198 207.943 105.198C210.355 105.198 211.831 104.532 211.831 103.362C211.831 102.21 210.355 101.544 207.943 101.544ZM211.633 90.132H213.127V99.906H211.633V90.132ZM212.713 94.218H215.539V95.478H212.713V94.218ZM201.175 91.158H202.651V93.588H207.241V91.158H208.699V98.664H201.175V91.158ZM202.651 94.776V97.458H207.241V94.776H202.651ZM217.86 90.96H219.336V93.462H223.746V90.96H225.204V98.412H217.86V90.96ZM219.336 94.632V97.188H223.746V94.632H219.336ZM224.79 94.128H229.398V95.352H224.79V94.128ZM228.948 90.132H230.442V99.024H228.948V90.132ZM220.02 99.816H221.496V101.778H228.966V99.816H230.442V106.188H220.02V99.816ZM221.496 102.966V104.964H228.966V102.966H221.496ZM236.357 103.21L236.255 103.901C236.182 104.386 236.071 104.906 235.922 105.46C235.777 106.014 235.626 106.536 235.469 107.026C235.311 107.516 235.181 107.906 235.079 108.196H233.928C233.983 107.923 234.056 107.563 234.145 107.116C234.235 106.668 234.324 106.168 234.414 105.614C234.508 105.064 234.584 104.501 234.644 103.926L234.721 103.21H236.357ZM243.703 93.3153V91.9091H253.521V93.3153H249.405V105H247.82V93.3153H243.703ZM257.553 91.9091V105H255.968V91.9091H257.553ZM260.731 105V91.9091H265.155C266.182 91.9091 267.021 92.0945 267.673 92.4652C268.329 92.8317 268.815 93.3281 269.131 93.9545C269.446 94.581 269.604 95.2798 269.604 96.0511C269.604 96.8224 269.446 97.5234 269.131 98.1541C268.82 98.7848 268.338 99.2876 267.686 99.6626C267.034 100.033 266.199 100.219 265.18 100.219H262.01V98.8125H265.129C265.832 98.8125 266.397 98.6911 266.823 98.4482C267.249 98.2053 267.558 97.8771 267.75 97.4638C267.946 97.0462 268.044 96.5753 268.044 96.0511C268.044 95.527 267.946 95.0582 267.75 94.6449C267.558 94.2315 267.247 93.9077 266.817 93.6733C266.386 93.4347 265.815 93.3153 265.104 93.3153H262.317V105H260.731ZM273.482 103.21L273.38 103.901C273.307 104.386 273.196 104.906 273.047 105.46C272.902 106.014 272.751 106.536 272.594 107.026C272.436 107.516 272.306 107.906 272.204 108.196H271.053C271.108 107.923 271.181 107.563 271.27 107.116C271.36 106.668 271.449 106.168 271.539 105.614C271.633 105.064 271.709 104.501 271.769 103.926L271.846 103.21H273.482ZM285.485 92.976H286.709V93.192C286.709 95.586 284.945 97.458 282.191 98.142L281.579 96.954C283.901 96.432 285.485 94.92 285.485 93.192V92.976ZM285.755 92.976H286.979V93.192C286.979 94.83 288.545 96.216 290.849 96.738L290.237 97.908C287.519 97.26 285.755 95.478 285.755 93.192V92.976ZM281.921 91.968H290.543V93.156H281.921V91.968ZM285.467 90.168H286.979V92.76H285.467V90.168ZM285.503 99.438H286.997V105.936H285.503V99.438ZM292.703 90.132H294.179V106.422H292.703V90.132ZM281.021 100.536L280.823 99.276C283.901 99.276 287.987 99.258 291.551 98.754L291.659 99.852C288.005 100.482 284.045 100.536 281.021 100.536ZM297.417 103.056H312.159V104.298H297.417V103.056ZM303.969 99.114H305.445V103.47H303.969V99.114ZM303.933 91.212H305.229V92.472C305.229 95.946 301.899 98.628 298.623 99.312L297.993 98.07C300.855 97.548 303.933 95.154 303.933 92.472V91.212ZM304.203 91.212H305.499V92.472C305.499 95.172 308.595 97.548 311.457 98.07L310.809 99.312C307.533 98.628 304.203 95.946 304.203 92.472V91.212ZM319.884 91.176H327.462V97.836H319.884V91.176ZM326.022 92.382H321.324V96.648H326.022V92.382ZM330.864 90.132H332.358V99.474H330.864V90.132ZM326.454 101.4H327.732V101.706C327.732 104.046 324.834 105.918 321.54 106.35L321.036 105.198C323.862 104.874 326.454 103.326 326.454 101.706V101.4ZM326.67 101.4H327.966V101.706C327.966 103.272 330.486 104.856 333.312 105.198L332.808 106.35C329.496 105.9 326.67 103.992 326.67 101.706V101.4ZM321.684 100.572H332.736V101.742H321.684V100.572ZM326.454 99.006H327.966V101.094H326.454V99.006ZM351.766 90.132H353.26V102.876H351.766V90.132ZM352.63 95.802H355.636V97.044H352.63V95.802ZM342.964 104.82H353.836V106.044H342.964V104.82ZM342.964 102.03H344.458V105.198H342.964V102.03ZM344.908 98.088H346.402V100.302H344.908V98.088ZM340.75 101.004L340.552 99.798C343.432 99.798 347.446 99.744 350.794 99.222L350.92 100.284C347.482 100.914 343.576 100.986 340.75 101.004ZM340.966 91.716H350.308V92.85H340.966V91.716ZM345.646 93.516C347.932 93.516 349.426 94.47 349.426 96.018C349.426 97.584 347.932 98.538 345.646 98.538C343.36 98.538 341.848 97.584 341.848 96.018C341.848 94.47 343.36 93.516 345.646 93.516ZM345.646 94.578C344.188 94.578 343.252 95.136 343.252 96.018C343.252 96.918 344.188 97.458 345.646 97.458C347.086 97.458 348.022 96.918 348.022 96.018C348.022 95.136 347.086 94.578 345.646 94.578ZM344.908 90.06H346.402V92.22H344.908V90.06ZM363.806 97.944H365.282V100.428H363.806V97.944ZM359.162 90.384H360.638V91.896H368.504V90.384H369.998V95.748H359.162V90.384ZM360.638 93.048V94.596H368.504V93.048H360.638ZM357.2 97.08H371.906V98.286H357.2V97.08ZM358.982 99.87H370.034V103.488H360.494V105.504H359.018V102.408H368.558V101.004H358.982V99.87ZM359.018 105.072H370.52V106.224H359.018V105.072ZM380.693 91.176H390.863V92.4H380.693V91.176ZM378.839 98.268H393.545V99.492H378.839V98.268ZM382.619 99.024H384.113V106.404H382.619V99.024ZM390.053 91.176H391.529V92.382C391.529 93.912 391.529 95.874 390.971 98.664L389.495 98.52C390.053 95.82 390.053 93.876 390.053 92.382V91.176ZM388.181 99.024H389.675V106.404H388.181V99.024ZM404.074 94.344H407.746V95.586H404.074V94.344ZM407.278 90.132H408.772V99.834H407.278V90.132ZM403.426 100.32C406.774 100.32 408.844 101.454 408.844 103.362C408.844 105.288 406.774 106.386 403.426 106.386C400.06 106.386 397.99 105.288 397.99 103.362C397.99 101.454 400.06 100.32 403.426 100.32ZM403.426 101.49C400.978 101.49 399.484 102.174 399.484 103.362C399.484 104.532 400.978 105.216 403.426 105.216C405.874 105.216 407.368 104.532 407.368 103.362C407.368 102.174 405.874 101.49 403.426 101.49ZM399.538 91.77H400.762V93.084C400.762 96.09 398.926 98.664 396.226 99.672L395.452 98.484C397.864 97.602 399.538 95.424 399.538 93.084V91.77ZM399.826 91.77H401.032V93.084C401.032 95.19 402.616 97.206 404.974 98.034L404.218 99.222C401.572 98.268 399.826 95.82 399.826 93.084V91.77ZM395.902 91.32H404.596V92.544H395.902V91.32ZM419.3 90.402C422.882 90.402 425.024 91.41 425.024 93.228C425.024 95.046 422.882 96.054 419.3 96.054C415.7 96.054 413.576 95.046 413.576 93.228C413.576 91.41 415.7 90.402 419.3 90.402ZM419.3 91.536C416.636 91.536 415.106 92.148 415.106 93.228C415.106 94.308 416.636 94.92 419.3 94.92C421.946 94.92 423.476 94.308 423.476 93.228C423.476 92.148 421.946 91.536 419.3 91.536ZM411.938 97.134H426.644V98.34H411.938V97.134ZM413.72 99.726H424.772V103.398H415.232V105.378H413.756V102.318H423.296V100.878H413.72V99.726ZM413.756 105.054H425.258V106.224H413.756V105.054ZM441.119 90.852H445.799V92.058H441.119V90.852ZM433.577 97.872H448.265V99.096H433.577V97.872ZM440.489 94.596H441.965V98.412H440.489V94.596ZM445.169 90.852H446.609V91.572C446.609 92.58 446.609 94.254 446.141 96.486L444.701 96.306C445.169 94.074 445.169 92.562 445.169 91.572V90.852ZM435.179 100.806H446.411V106.332H444.917V102.03H435.179V100.806ZM434.837 90.852H439.121V92.058H434.837V90.852ZM438.329 90.852H439.769V91.41C439.769 92.346 439.769 94.128 439.013 96.504L437.573 96.288C438.329 93.894 438.329 92.328 438.329 91.41V90.852ZM459.447 97.764H460.941V99.852H459.447V97.764ZM466.305 90.15H467.799V101.058H466.305V90.15ZM467.169 95.064H470.175V96.306H467.169V95.064ZM455.289 100.59L455.091 99.366C458.007 99.366 461.967 99.366 465.333 98.88L465.459 99.942C461.985 100.554 458.133 100.572 455.289 100.59ZM457.107 101.868H467.799V106.404H466.305V103.056H457.107V101.868ZM455.505 91.608H464.847V92.724H455.505V91.608ZM460.185 93.354C462.471 93.354 463.965 94.272 463.965 95.766C463.965 97.26 462.471 98.178 460.185 98.178C457.881 98.178 456.387 97.26 456.387 95.766C456.387 94.272 457.881 93.354 460.185 93.354ZM460.185 94.38C458.727 94.38 457.791 94.902 457.791 95.766C457.791 96.594 458.727 97.134 460.185 97.134C461.625 97.134 462.561 96.594 462.561 95.766C462.561 94.902 461.625 94.38 460.185 94.38ZM459.447 90.006H460.941V92.148H459.447V90.006ZM483.583 90.15H485.095V102.03H483.583V90.15ZM474.637 104.82H485.581V106.044H474.637V104.82ZM474.637 100.806H476.113V105.234H474.637V100.806ZM476.365 91.266C478.795 91.266 480.595 92.922 480.595 95.28C480.595 97.62 478.795 99.294 476.365 99.294C473.935 99.294 472.117 97.62 472.117 95.28C472.117 92.922 473.935 91.266 476.365 91.266ZM476.365 92.562C474.781 92.562 473.575 93.678 473.575 95.28C473.575 96.864 474.781 97.98 476.365 97.98C477.949 97.98 479.155 96.864 479.155 95.28C479.155 93.678 477.949 92.562 476.365 92.562ZM499.332 90.132H500.826V106.404H499.332V90.132ZM500.466 96.81H503.49V98.07H500.466V96.81ZM488.226 92.724H497.82V93.948H488.226V92.724ZM493.086 95.298C495.39 95.298 497.046 96.846 497.046 99.042C497.046 101.238 495.39 102.786 493.086 102.786C490.8 102.786 489.126 101.238 489.126 99.042C489.126 96.846 490.8 95.298 493.086 95.298ZM493.086 96.54C491.61 96.54 490.548 97.566 490.548 99.042C490.548 100.5 491.61 101.544 493.086 101.544C494.562 101.544 495.624 100.5 495.624 99.042C495.624 97.566 494.562 96.54 493.086 96.54ZM492.312 90.33H493.806V93.282H492.312V90.33ZM511.282 95.946H514.396V97.188H511.282V95.946ZM508.24 91.662H509.41V94.758C509.41 98.16 507.988 101.454 505.612 102.912L504.676 101.778C506.908 100.464 508.24 97.548 508.24 94.758V91.662ZM508.528 91.662H509.68V94.704C509.68 97.314 510.904 100.086 513.046 101.382L512.182 102.552C509.842 101.112 508.528 97.872 508.528 94.704V91.662ZM517.258 90.132H518.698V106.404H517.258V90.132ZM513.964 90.474H515.368V105.594H513.964V90.474ZM525.033 98.502H526.509V103.38H525.033V98.502ZM531.045 98.502H532.539V103.38H531.045V98.502ZM521.433 103.092H536.175V104.334H521.433V103.092ZM528.777 91.158C532.215 91.158 534.681 92.796 534.681 95.352C534.681 97.89 532.215 99.528 528.777 99.528C525.321 99.528 522.855 97.89 522.855 95.352C522.855 92.796 525.321 91.158 528.777 91.158ZM528.777 92.346C526.167 92.346 524.295 93.534 524.295 95.352C524.295 97.152 526.167 98.34 528.777 98.34C531.387 98.34 533.241 97.152 533.241 95.352C533.241 93.534 531.387 92.346 528.777 92.346ZM540.467 91.9091L540.339 101.318H538.856L538.728 91.9091H540.467ZM539.597 105.102C539.282 105.102 539.011 104.989 538.785 104.763C538.56 104.538 538.447 104.267 538.447 103.952C538.447 103.636 538.56 103.366 538.785 103.14C539.011 102.914 539.282 102.801 539.597 102.801C539.913 102.801 540.183 102.914 540.409 103.14C540.635 103.366 540.748 103.636 540.748 103.952C540.748 104.161 540.695 104.352 540.588 104.527C540.486 104.702 540.347 104.842 540.173 104.949C540.002 105.051 539.81 105.102 539.597 105.102Z" fill="white"/>
<path d="M154.562 92.792H147V106.681H161.12V98.656" stroke="white" stroke-width="1.8"/>
<path d="M149.315 96.8022L153.944 102.202L163.744 90.3193" stroke="white" stroke-width="1.8"/>
</g>
</g>
<defs>
<clipPath id="clip0_12137_18747">
<rect width="800" height="109" fill="white"/>
</clipPath>
</defs>
</svg>
