<svg width="800" height="109" viewBox="0 0 800 109" fill="none" xmlns="http://www.w3.org/2000/svg">
<g clip-path="url(#clip0_12137_18851)">
<mask id="mask0_12137_18851" style="mask-type:luminance" maskUnits="userSpaceOnUse" x="0" y="0" width="800" height="109">
<path d="M800 0H0V109H800V0Z" fill="white"/>
</mask>
<g mask="url(#mask0_12137_18851)">
<path d="M114.206 35.194H119.222V55.714H114.206V35.194ZM117.816 43.25H123.896V47.43H117.816V43.25ZM107.67 56.17C114.89 56.17 119.64 58.944 119.64 63.314C119.64 67.722 114.89 70.42 107.67 70.42C100.45 70.42 95.7 67.722 95.7 63.314C95.7 58.944 100.45 56.17 107.67 56.17ZM107.67 60.198C103.262 60.198 100.716 61.224 100.716 63.314C100.716 65.404 103.262 66.468 107.67 66.468C112.078 66.468 114.624 65.404 114.624 63.314C114.624 61.224 112.078 60.198 107.67 60.198ZM92.926 37.17H97.98V51.61H92.926V37.17ZM92.926 49.482H95.89C100.678 49.482 105.884 49.178 111.432 48.114L112.002 52.142C106.264 53.32 100.868 53.624 95.89 53.624H92.926V49.482ZM127.503 38.082H144.261V55.068H127.503V38.082ZM139.283 42.072H132.481V51.078H139.283V42.072ZM149.125 35.194H154.179V60.844H149.125V35.194ZM152.735 45.34H158.853V49.482H152.735V45.34ZM131.493 65.746H155.433V69.774H131.493V65.746ZM131.493 58.336H136.547V67.76H131.493V58.336ZM172.758 37.512C178.306 37.512 182.448 41.122 182.448 46.176C182.448 51.268 178.306 54.878 172.758 54.878C167.248 54.878 163.03 51.268 163.03 46.176C163.03 41.122 167.248 37.512 172.758 37.512ZM172.758 41.844C170.06 41.844 168.008 43.44 168.008 46.176C168.008 48.95 170.06 50.546 172.758 50.546C175.456 50.546 177.508 48.95 177.508 46.176C177.508 43.44 175.456 41.844 172.758 41.844ZM185.754 35.156H190.808V70.458H185.754V35.156ZM162.194 63.314L161.586 59.248C167.78 59.248 176.406 59.172 183.816 58.07L184.196 61.718C176.558 63.238 168.274 63.314 162.194 63.314ZM208.91 50.888H233.648V54.916H208.91V50.888ZM205.224 62.288H237.068V66.43H205.224V62.288ZM218.562 52.712H223.616V63.618H218.562V52.712ZM208.91 37.588H233.382V41.654H213.964V52.636H208.91V37.588ZM248.731 37.892H252.835V43.022C252.835 52.066 249.719 60.236 242.727 63.466L239.725 59.286C245.843 56.626 248.731 49.862 248.731 43.022V37.892ZM249.719 37.892H253.823V43.022C253.823 49.52 256.597 55.98 262.601 58.564L259.637 62.63C252.835 59.514 249.719 51.686 249.719 43.022V37.892ZM264.273 35.156H269.365V70.458H264.273V35.156ZM290.241 37.55H294.231V41.73C294.231 48.076 291.875 54.308 286.251 57.006L283.401 53.13C288.341 50.736 290.241 46.024 290.241 41.73V37.55ZM291.153 37.55H295.105V41.73C295.105 45.834 296.929 49.938 301.603 52.066L298.867 55.866C293.357 53.472 291.153 47.848 291.153 41.73V37.55ZM309.089 35.232H313.877V61.566H309.089V35.232ZM304.909 45.302H310.495V49.368H304.909V45.302ZM301.641 35.84H306.353V60.54H301.641V35.84ZM290.203 65.746H314.789V69.774H290.203V65.746ZM290.203 58.45H295.257V68.254H290.203V58.45ZM318.89 62.174H350.734V66.316H318.89V62.174ZM321.322 38.234H348.112V42.262H321.322V38.234ZM321.474 52.788H347.998V56.854H321.474V52.788ZM326.11 41.958H331.164V53.168H326.11V41.958ZM338.308 41.958H343.324V53.168H338.308V41.958ZM376.457 35.232H381.511V61.148H376.457V35.232ZM380.067 45.302H386.185V49.482H380.067V45.302ZM358.939 65.746H382.803V69.774H358.939V65.746ZM358.939 59.058H364.031V67.076H358.939V59.058ZM355.063 52.066H358.027C364.943 52.066 369.199 51.876 374.063 50.964L374.519 55.03C369.579 55.942 365.133 56.094 358.027 56.094H355.063V52.066ZM355.025 37.322H371.099V48.418H360.079V53.51H355.063V44.694H366.121V41.35H355.025V37.322ZM397.354 37.892H401.458V43.022C401.458 52.066 398.342 60.236 391.35 63.466L388.348 59.286C394.466 56.626 397.354 49.862 397.354 43.022V37.892ZM398.342 37.892H402.446V43.022C402.446 49.52 405.22 55.98 411.224 58.564L408.26 62.63C401.458 59.514 398.342 51.686 398.342 43.022V37.892ZM412.896 35.156H417.988V70.458H412.896V35.156ZM436.795 37.208H441.203V39.754C441.203 47.392 435.769 54.156 426.649 55.942L424.483 51.762C432.425 50.394 436.795 44.808 436.795 39.754V37.208ZM437.821 37.208H442.191V39.754C442.191 44.922 446.523 50.394 454.503 51.762L452.337 55.942C443.217 54.156 437.821 47.506 437.821 39.754V37.208ZM423.761 61.984H455.605V66.088H423.761V61.984ZM462.29 38.12H484.444V42.148H462.29V38.12ZM458.68 62.288H490.486V66.354H458.68V62.288ZM482.43 38.12H487.408V41.198C487.408 45.454 487.446 50.432 485.812 58.07L480.834 57.538C482.43 50.394 482.43 45.264 482.43 41.198V38.12ZM483.342 46.594V50.394L461.872 51.572L461.188 47.278L483.342 46.594ZM469.966 53.852H475.02V63.77H469.966V53.852ZM500.659 63.2216L500.511 64.706C500.394 65.8935 500.169 67.0765 499.836 68.255C499.512 69.4425 499.17 70.5175 498.81 71.4801C498.46 72.4427 498.176 73.1984 497.96 73.7472H494.236C494.371 73.2164 494.555 72.4742 494.789 71.5206C495.023 70.576 495.243 69.5144 495.45 68.3359C495.657 67.1574 495.788 65.9564 495.842 64.733L495.909 63.2216H500.659ZM514.858 33.374H520.491V38.577H528.532V33.374H534.208V52.681H514.858V33.374ZM520.491 42.963V48.209H528.532V42.963H520.491ZM518.771 56.637H545.947V70.827H540.185V61.152H518.771V56.637ZM540.185 31.009H545.947V54.788H540.185V31.009ZM561.338 33.804C566.627 33.804 570.024 39.265 570.024 48.252C570.024 57.282 566.627 62.743 561.338 62.743C556.092 62.743 552.738 57.282 552.738 48.252C552.738 39.265 556.092 33.804 561.338 33.804ZM561.338 39.179C559.188 39.179 557.941 42.189 557.941 48.252C557.941 54.358 559.188 57.325 561.338 57.325C563.531 57.325 564.778 54.358 564.778 48.252C564.778 42.189 563.531 39.179 561.338 39.179ZM581.161 31.009H586.622V70.827H581.161V31.009ZM576.388 46.188H582.967V50.789H576.388V46.188ZM572.432 31.611H577.807V69.021H572.432V31.611ZM595.089 32.084H624.759V36.341H595.089V32.084ZM595.39 41.415H624.458V45.672H595.39V41.415ZM600.163 33.761H605.882V44.167H600.163V33.761ZM613.966 33.761H619.685V44.167H613.966V33.761ZM591.95 47.736H627.941V52.208H591.95V47.736ZM596.078 54.401H623.598V64.291H601.754V67.989H596.121V60.464H617.965V58.486H596.078V54.401ZM596.121 66.398H624.63V70.569H596.121V66.398ZM660.274 31.009H665.735V70.827H660.274V31.009ZM655.501 46.274H662.08V50.918H655.501V46.274ZM651.889 31.697H657.221V68.935H651.889V31.697ZM631.808 35.481H649.997V40.039H631.808V35.481ZM631.722 61.797L631.12 57.153C636.065 57.153 644.364 57.024 650.298 56.207L650.685 60.335C644.579 61.668 636.581 61.797 631.722 61.797ZM634.302 38.405H639.419V58.357H634.302V38.405ZM642.386 38.405H647.503V58.357H642.386V38.405ZM685.856 33.288H690.844V36.169C690.844 44.812 684.695 52.466 674.375 54.487L671.924 49.757C680.911 48.209 685.856 41.888 685.856 36.169V33.288ZM687.017 33.288H691.962V36.169C691.962 42.017 696.864 48.209 705.894 49.757L703.443 54.487C693.123 52.466 687.017 44.941 687.017 36.169V33.288ZM671.107 61.324H707.141V65.968H671.107V61.324Z" fill="white"/>
<path d="M107.362 2.7625H109.147V17.3395H107.362V2.7625ZM108.588 9.1265H112.028V10.6315H108.588V9.1265ZM94.118 5.106H105.599V6.5465H94.118V5.106ZM99.8585 7.6215C102.611 7.6215 104.503 9.062 104.503 11.255C104.503 13.4265 102.611 14.867 99.8585 14.867C97.085 14.867 95.193 13.4265 95.193 11.255C95.193 9.062 97.085 7.6215 99.8585 7.6215ZM99.8585 9.019C98.0955 9.019 96.8915 9.9005 96.8915 11.255C96.8915 12.588 98.0955 13.4695 99.8585 13.4695C101.6 13.4695 102.804 12.588 102.804 11.255C102.804 9.9005 101.6 9.019 99.8585 9.019ZM98.9555 2.741H100.74V5.8585H98.9555V2.741ZM97.042 20.285H110.028V21.747H97.042V20.285ZM97.042 16.1785H98.8265V20.9085H97.042V16.1785ZM134.09 2.741H135.875V17.2105H134.09V2.741ZM120.459 4.3105H130.693V5.7725H120.459V4.3105ZM120.137 14.2865L119.943 12.76C123.125 12.76 127.662 12.717 131.295 12.287L131.403 13.62C127.662 14.222 123.297 14.2865 120.137 14.2865ZM122.394 5.5575H124.114V13.018H122.394V5.5575ZM127.038 5.5575H128.758V13.018H127.038V5.5575ZM130.865 6.4175H135.036V7.8795H130.865V6.4175ZM130.865 10.137H135.036V11.599H130.865V10.137ZM123.448 20.285H136.391V21.747H123.448V20.285ZM123.448 16.028H125.232V21.2095H123.448V16.028ZM145.978 4.1385C149.01 4.1385 151.181 6.009 151.181 8.718C151.181 11.4485 149.01 13.319 145.978 13.319C142.947 13.319 140.754 11.4485 140.754 8.718C140.754 6.009 142.947 4.1385 145.978 4.1385ZM145.978 5.6865C143.957 5.6865 142.495 6.912 142.495 8.718C142.495 10.524 143.957 11.771 145.978 11.771C147.978 11.771 149.44 10.524 149.44 8.718C149.44 6.912 147.978 5.6865 145.978 5.6865ZM153.718 2.7195H155.503V22.1985H153.718V2.7195ZM140.023 17.9415L139.765 16.458C143.312 16.458 148.214 16.4365 152.45 15.77L152.6 17.0815C148.236 17.92 143.484 17.9415 140.023 17.9415ZM174.34 5.536H180.274V6.998H174.34V5.536ZM174.34 10.008H180.274V11.4915H174.34V10.008ZM170.793 3.8805C173.652 3.8805 175.802 5.8155 175.802 8.503C175.802 11.212 173.652 13.1255 170.793 13.1255C167.912 13.1255 165.783 11.212 165.783 8.503C165.783 5.8155 167.912 3.8805 170.793 3.8805ZM170.793 5.407C168.901 5.407 167.503 6.6755 167.503 8.503C167.503 10.3305 168.901 11.599 170.793 11.599C172.685 11.599 174.104 10.3305 174.104 8.503C174.104 6.6755 172.685 5.407 170.793 5.407ZM179.694 2.741H181.478V14.2435H179.694V2.741ZM175.093 14.695C179.092 14.695 181.564 16.071 181.564 18.4145C181.564 20.7795 179.092 22.134 175.093 22.134C171.072 22.134 168.6 20.7795 168.6 18.4145C168.6 16.071 171.072 14.695 175.093 14.695ZM175.093 16.114C172.147 16.114 170.363 16.974 170.363 18.4145C170.363 19.8765 172.147 20.7365 175.093 20.7365C178.017 20.7365 179.801 19.8765 179.801 18.4145C179.801 16.974 178.017 16.114 175.093 16.114ZM190.313 14.3295H192.098V17.49H190.313V14.3295ZM198.483 2.741H200.268V22.177H198.483V2.741ZM199.687 10.997H203.278V12.502H199.687V10.997ZM185.304 18.479L185.046 16.9955C188.529 16.9955 193.28 16.9525 197.301 16.372L197.451 17.705C193.259 18.4575 188.701 18.479 185.304 18.479ZM185.368 5.0845H197V6.525H185.368V5.0845ZM191.195 7.6645C193.904 7.6645 195.774 9.0835 195.774 11.255C195.774 13.448 193.904 14.8455 191.195 14.8455C188.486 14.8455 186.637 13.448 186.637 11.255C186.637 9.0835 188.486 7.6645 191.195 7.6645ZM191.195 9.0405C189.453 9.0405 188.314 9.922 188.314 11.255C188.314 12.588 189.453 13.4695 191.195 13.4695C192.936 13.4695 194.097 12.588 194.097 11.255C194.097 9.922 192.936 9.0405 191.195 9.0405ZM190.313 2.7625H192.098V6.052H190.313V2.7625ZM218.347 2.741H220.132V13.1255H218.347V2.741ZM219.637 7.2345H223.013V8.718H219.637V7.2345ZM212.972 4.0955H214.95C214.95 8.9975 211.532 12.1795 205.834 13.491L205.125 12.0505C210.242 10.911 212.972 8.3095 212.972 5.063V4.0955ZM205.92 4.0955H214.004V5.5575H205.92V4.0955ZM207.898 14.007H220.239V15.3615H209.661V21.2525H207.898V14.007ZM207.898 20.5645H220.669V21.919H207.898V20.5645ZM209.059 17.2535H220.003V18.565H209.059V17.2535ZM224.817 12.9535H242.383V14.4155H224.817V12.9535ZM227.096 20.285H240.448V21.747H227.096V20.285ZM227.096 16.114H228.881V20.7365H227.096V16.114ZM233.611 3.386C237.76 3.386 240.448 4.848 240.448 7.2775C240.448 9.6855 237.76 11.1475 233.611 11.1475C229.44 11.1475 226.774 9.6855 226.774 7.2775C226.774 4.848 229.44 3.386 233.611 3.386ZM233.611 4.848C230.558 4.848 228.601 5.751 228.601 7.2775C228.601 8.804 230.558 9.707 233.611 9.707C236.664 9.707 238.62 8.804 238.62 7.2775C238.62 5.751 236.664 4.848 233.611 4.848ZM259.414 7.0625H265.284V8.546H259.414V7.0625ZM259.414 13.2115H265.284V14.695H259.414V13.2115ZM255.845 4.2245C258.662 4.2245 260.683 6.869 260.683 10.997C260.683 15.1465 258.662 17.791 255.845 17.791C253.007 17.791 251.008 15.1465 251.008 10.997C251.008 6.869 253.007 4.2245 255.845 4.2245ZM255.845 5.837C253.975 5.837 252.685 7.858 252.685 10.997C252.685 14.1575 253.975 16.2215 255.845 16.2215C257.716 16.2215 259.006 14.1575 259.006 10.997C259.006 7.858 257.716 5.837 255.845 5.837ZM264.897 2.7195H266.66V22.1985H264.897V2.7195ZM285.105 2.741H286.804V15.039H285.105V2.741ZM281.945 8.0085H285.621V9.492H281.945V8.0085ZM280.956 3.128H282.633V14.351H280.956V3.128ZM270.335 5.063H280.182V6.482H270.335V5.063ZM275.28 7.471C277.709 7.471 279.408 8.804 279.408 10.8035C279.408 12.8245 277.709 14.136 275.28 14.136C272.829 14.136 271.13 12.8245 271.13 10.8035C271.13 8.804 272.829 7.471 275.28 7.471ZM275.28 8.804C273.753 8.804 272.721 9.5995 272.721 10.8035C272.721 12.029 273.753 12.803 275.28 12.803C276.785 12.803 277.817 12.029 277.817 10.8035C277.817 9.5995 276.785 8.804 275.28 8.804ZM274.398 2.8915H276.14V5.8585H274.398V2.8915ZM280.44 15.383C284.482 15.383 286.911 16.587 286.911 18.7585C286.911 20.9085 284.482 22.134 280.44 22.134C276.355 22.134 273.947 20.9085 273.947 18.7585C273.947 16.587 276.355 15.383 280.44 15.383ZM280.44 16.759C277.451 16.759 275.71 17.4685 275.71 18.7585C275.71 20.0485 277.451 20.7795 280.44 20.7795C283.385 20.7795 285.148 20.0485 285.148 18.7585C285.148 17.4685 283.385 16.759 280.44 16.759Z" fill="white"/>
<path d="M119.036 98.736H120.548V102.264H119.036V98.736ZM119.036 93.012H120.242V93.372C120.242 96.216 118.388 98.412 115.652 99.276L114.968 98.106C117.38 97.386 119.036 95.568 119.036 93.372V93.012ZM119.324 93.012H120.53V93.372C120.53 95.478 122.24 97.242 124.634 97.944L123.95 99.096C121.214 98.286 119.324 96.126 119.324 93.372V93.012ZM115.346 92.256H124.292V93.462H115.346V92.256ZM119.036 90.24H120.548V92.778H119.036V90.24ZM126.146 90.114H127.64V106.422H126.146V90.114ZM114.68 103.074L114.464 101.814C117.434 101.814 121.538 101.796 125.084 101.256L125.21 102.354C121.556 103.038 117.578 103.056 114.68 103.074ZM143.317 90.132H144.757V106.404H143.317V90.132ZM140.563 96.648H143.695V97.89H140.563V96.648ZM139.627 90.492H141.031V105.576H139.627V90.492ZM131.527 101.148H132.589C134.965 101.148 136.585 101.058 138.475 100.662L138.619 101.904C136.675 102.318 135.037 102.39 132.589 102.39H131.527V101.148ZM131.527 92.112H137.575V93.336H133.003V101.706H131.527V92.112ZM152.72 102.315V101.011L158.473 91.9091H159.419V93.929H158.78L154.433 100.807V100.909H162.18V102.315H152.72ZM158.882 105V101.919V101.312V91.9091H160.39V105H158.882ZM168.845 105.179C167.882 105.179 167.062 104.917 166.385 104.393C165.707 103.864 165.189 103.099 164.831 102.098C164.473 101.092 164.294 99.8778 164.294 98.4545C164.294 97.0398 164.473 95.8317 164.831 94.8303C165.193 93.8246 165.713 93.0575 166.391 92.5291C167.073 91.9964 167.891 91.7301 168.845 91.7301C169.8 91.7301 170.616 91.9964 171.294 92.5291C171.975 93.0575 172.495 93.8246 172.853 94.8303C173.215 95.8317 173.397 97.0398 173.397 98.4545C173.397 99.8778 173.218 101.092 172.86 102.098C172.502 103.099 171.984 103.864 171.306 104.393C170.629 104.917 169.809 105.179 168.845 105.179ZM168.845 103.773C169.8 103.773 170.541 103.312 171.07 102.392C171.598 101.472 171.863 100.159 171.863 98.4545C171.863 97.321 171.741 96.3558 171.498 95.5589C171.26 94.7621 170.914 94.1548 170.463 93.7372C170.015 93.3196 169.476 93.1108 168.845 93.1108C167.899 93.1108 167.16 93.5774 166.627 94.5107C166.095 95.4396 165.828 96.7543 165.828 98.4545C165.828 99.5881 165.948 100.551 166.186 101.344C166.425 102.136 166.768 102.739 167.215 103.153C167.667 103.566 168.211 103.773 168.845 103.773ZM182.499 102.545V101.855C182.499 101.378 182.597 100.941 182.793 100.545C182.993 100.144 183.283 99.8246 183.662 99.5859C184.046 99.343 184.51 99.2216 185.056 99.2216C185.61 99.2216 186.074 99.343 186.449 99.5859C186.824 99.8246 187.108 100.144 187.299 100.545C187.491 100.941 187.587 101.378 187.587 101.855V102.545C187.587 103.023 187.489 103.462 187.293 103.862C187.101 104.259 186.816 104.578 186.436 104.821C186.061 105.06 185.601 105.179 185.056 105.179C184.502 105.179 184.035 105.06 183.656 104.821C183.277 104.578 182.989 104.259 182.793 103.862C182.597 103.462 182.499 103.023 182.499 102.545ZM183.803 101.855V102.545C183.803 102.942 183.897 103.298 184.084 103.613C184.272 103.924 184.595 104.08 185.056 104.08C185.503 104.08 185.818 103.924 186.002 103.613C186.189 103.298 186.283 102.942 186.283 102.545V101.855C186.283 101.459 186.193 101.105 186.014 100.794C185.836 100.479 185.516 100.321 185.056 100.321C184.608 100.321 184.287 100.479 184.09 100.794C183.899 101.105 183.803 101.459 183.803 101.855ZM175.979 95.054V94.3636C175.979 93.8864 176.077 93.4496 176.273 93.0533C176.473 92.6527 176.763 92.3331 177.142 92.0945C177.526 91.8516 177.99 91.7301 178.536 91.7301C179.09 91.7301 179.554 91.8516 179.929 92.0945C180.304 92.3331 180.588 92.6527 180.779 93.0533C180.971 93.4496 181.067 93.8864 181.067 94.3636V95.054C181.067 95.5312 180.969 95.9702 180.773 96.3707C180.581 96.767 180.296 97.0866 179.916 97.3295C179.541 97.5682 179.081 97.6875 178.536 97.6875C177.982 97.6875 177.515 97.5682 177.136 97.3295C176.757 97.0866 176.469 96.767 176.273 96.3707C176.077 95.9702 175.979 95.5312 175.979 95.054ZM177.283 94.3636V95.054C177.283 95.4503 177.377 95.8061 177.564 96.1214C177.752 96.4325 178.076 96.5881 178.536 96.5881C178.983 96.5881 179.299 96.4325 179.482 96.1214C179.669 95.8061 179.763 95.4503 179.763 95.054V94.3636C179.763 93.9673 179.674 93.6136 179.495 93.3026C179.316 92.9872 178.996 92.8295 178.536 92.8295C178.088 92.8295 177.767 92.9872 177.571 93.3026C177.379 93.6136 177.283 93.9673 177.283 94.3636ZM176.465 105L185.465 91.9091H186.922L177.922 105H176.465ZM206.182 90.078H207.676V99.06H206.182V90.078ZM207.046 93.984H210.088V95.244H207.046V93.984ZM197.344 99.888H207.676V103.524H198.856V105.504H197.38V102.444H206.218V101.022H197.344V99.888ZM197.38 105.072H208.27V106.224H197.38V105.072ZM195.094 91.59H204.706V92.76H195.094V91.59ZM199.9 93.48C202.24 93.48 203.788 94.506 203.788 96.162C203.788 97.8 202.24 98.808 199.9 98.808C197.524 98.808 195.994 97.8 195.994 96.162C195.994 94.506 197.524 93.48 199.9 93.48ZM199.9 94.578C198.388 94.578 197.416 95.19 197.416 96.162C197.416 97.116 198.388 97.728 199.9 97.728C201.394 97.728 202.366 97.116 202.366 96.162C202.366 95.19 201.394 94.578 199.9 94.578ZM199.144 89.952H200.638V92.4H199.144V89.952ZM223.443 90.15H224.955V102.03H223.443V90.15ZM214.497 104.82H225.441V106.044H214.497V104.82ZM214.497 100.806H215.973V105.234H214.497V100.806ZM216.225 91.266C218.655 91.266 220.455 92.922 220.455 95.28C220.455 97.62 218.655 99.294 216.225 99.294C213.795 99.294 211.977 97.62 211.977 95.28C211.977 92.922 213.795 91.266 216.225 91.266ZM216.225 92.562C214.641 92.562 213.435 93.678 213.435 95.28C213.435 96.864 214.641 97.98 216.225 97.98C217.809 97.98 219.015 96.864 219.015 95.28C219.015 93.678 217.809 92.562 216.225 92.562ZM245.622 90.132H247.062V106.404H245.622V90.132ZM242.634 90.474H244.038V105.594H242.634V90.474ZM240.384 95.64H243.282V96.846H240.384V95.64ZM240.258 99.366H243.174V100.572H240.258V99.366ZM233.202 92.922H241.212V94.128H233.202V92.922ZM237.18 95.244C239.16 95.244 240.6 96.774 240.6 99.006C240.6 101.22 239.16 102.768 237.18 102.768C235.218 102.768 233.778 101.22 233.778 99.006C233.778 96.774 235.218 95.244 237.18 95.244ZM237.18 96.504C235.974 96.504 235.092 97.53 235.092 99.006C235.092 100.464 235.974 101.49 237.18 101.49C238.404 101.49 239.268 100.464 239.268 99.006C239.268 97.53 238.404 96.504 237.18 96.504ZM236.46 90.546H237.936V93.606H236.46V90.546ZM250.48 97.908H251.524C254.08 97.908 255.592 97.854 257.41 97.494L257.554 98.718C255.682 99.078 254.134 99.15 251.524 99.15H250.48V97.908ZM250.48 91.32H256.78V92.544H251.92V98.574H250.48V91.32ZM251.47 94.56H256.582V95.73H251.47V94.56ZM262.072 90.132H263.494V99.996H262.072V90.132ZM259.444 94.38H262.522V95.604H259.444V94.38ZM258.49 90.438H259.894V99.906H258.49V90.438ZM252.586 100.86H263.494V106.404H262.018V102.084H252.586V100.86Z" fill="white"/>
<path d="M101.562 92.792H94V106.681H108.12V98.656" stroke="white" stroke-width="1.8"/>
<path d="M96.3154 96.8022L100.944 102.202L110.744 90.3193" stroke="white" stroke-width="1.8"/>
</g>
</g>
<defs>
<clipPath id="clip0_12137_18851">
<rect width="800" height="109" fill="white"/>
</clipPath>
</defs>
</svg>
