<svg width="800" height="109" viewBox="0 0 800 109" fill="none" xmlns="http://www.w3.org/2000/svg">
<g clip-path="url(#clip0_12134_18384)">
<mask id="mask0_12134_18384" style="mask-type:luminance" maskUnits="userSpaceOnUse" x="0" y="0" width="800" height="109">
<path d="M800 0H0V109H800V0Z" fill="white"/>
</mask>
<g mask="url(#mask0_12134_18384)">
<path d="M134.1 41.792H144.512V45.82H134.1V41.792ZM134.1 49.582H144.512V53.648H134.1V49.582ZM128.248 39.056C133.492 39.056 137.52 42.704 137.52 47.682C137.52 52.66 133.492 56.308 128.248 56.308C122.966 56.308 118.938 52.66 118.938 47.682C118.938 42.704 122.966 39.056 128.248 39.056ZM128.248 43.35C125.664 43.35 123.764 44.908 123.764 47.682C123.764 50.418 125.664 52.052 128.248 52.052C130.832 52.052 132.732 50.418 132.732 47.682C132.732 44.908 130.832 43.35 128.248 43.35ZM142.916 37.194H147.97V57.79H142.916V37.194ZM136.038 58.512C143.448 58.512 148.084 61.096 148.084 65.466C148.084 69.836 143.448 72.382 136.038 72.382C128.628 72.382 123.992 69.836 123.992 65.466C123.992 61.096 128.628 58.512 136.038 58.512ZM136.038 62.426C131.44 62.426 128.97 63.414 128.97 65.466C128.97 67.518 131.44 68.506 136.038 68.506C140.674 68.506 143.106 67.518 143.106 65.466C143.106 63.414 140.674 62.426 136.038 62.426ZM162.635 55.244H167.689V62.958H162.635V55.244ZM178.063 37.194H183.117V63.832H178.063V37.194ZM157.771 67.746H183.877V71.774H157.771V67.746ZM157.771 61.324H162.825V68.81H157.771V61.324ZM153.971 56.764L153.363 52.736C159.785 52.736 168.373 52.66 175.745 51.71L176.049 55.32C168.563 56.574 160.317 56.764 153.971 56.764ZM171.413 57.638H179.165V61.096H171.413V57.638ZM164.687 38.41C169.817 38.41 173.427 40.956 173.427 44.68C173.427 48.442 169.817 50.95 164.687 50.95C159.519 50.95 155.909 48.442 155.909 44.68C155.909 40.956 159.519 38.41 164.687 38.41ZM164.687 42.096C162.331 42.096 160.697 42.97 160.697 44.68C160.697 46.39 162.331 47.264 164.687 47.264C167.005 47.264 168.639 46.39 168.639 44.68C168.639 42.97 167.005 42.096 164.687 42.096ZM211.082 37.232H216.136V63.528H211.082V37.232ZM214.692 47.948H220.81V52.09H214.692V47.948ZM188.434 40.88H209.144V44.832H188.434V40.88ZM198.808 46.086C203.862 46.086 207.434 48.86 207.434 52.888C207.434 56.916 203.862 59.652 198.808 59.652C193.716 59.652 190.144 56.916 190.144 52.888C190.144 48.86 193.716 46.086 198.808 46.086ZM198.808 49.924C196.566 49.924 195.008 50.988 195.008 52.888C195.008 54.788 196.566 55.814 198.808 55.814C201.05 55.814 202.608 54.788 202.608 52.888C202.608 50.988 201.05 49.924 198.808 49.924ZM196.262 37.156H201.316V42.818H196.262V37.156ZM193.45 67.746H217.39V71.774H193.45V67.746ZM193.45 61.552H198.504V69.494H193.45V61.552ZM233.934 40.348H250.844V64.022H233.934V40.348ZM245.904 44.3H238.912V60.032H245.904V44.3ZM256.316 37.156H261.408V72.458H256.316V37.156ZM271.057 38.676H293.363V42.704H271.057V38.676ZM267.181 50.836H299.025V54.864H267.181V50.836ZM280.519 53.686H285.573V61.058H280.519V53.686ZM290.323 38.676H295.301V41.488C295.301 44.528 295.301 48.062 294.199 52.698L289.221 52.204C290.323 47.682 290.323 44.452 290.323 41.488V38.676ZM270.373 59.804H295.339V72.382H290.285V63.794H270.373V59.804ZM313.424 39.512C318.972 39.512 323.114 43.122 323.114 48.176C323.114 53.268 318.972 56.878 313.424 56.878C307.914 56.878 303.696 53.268 303.696 48.176C303.696 43.122 307.914 39.512 313.424 39.512ZM313.424 43.844C310.726 43.844 308.674 45.44 308.674 48.176C308.674 50.95 310.726 52.546 313.424 52.546C316.122 52.546 318.174 50.95 318.174 48.176C318.174 45.44 316.122 43.844 313.424 43.844ZM326.42 37.156H331.474V72.458H326.42V37.156ZM302.86 65.314L302.252 61.248C308.446 61.248 317.072 61.172 324.482 60.07L324.862 63.718C317.224 65.238 308.94 65.314 302.86 65.314ZM353.566 39.094H357.708V42.21C357.708 49.202 354.668 55.358 347.98 57.676L345.282 53.686C351.172 51.71 353.566 46.998 353.566 42.21V39.094ZM354.592 39.094H358.696V42.704C358.696 46.922 361.052 51.026 366.562 52.736L363.94 56.65C357.594 54.522 354.592 49.05 354.592 42.704V39.094ZM368.5 37.194H373.554V57.98H368.5V37.194ZM372.148 45.326H378.228V49.506H372.148V45.326ZM362.078 58.778C369.374 58.778 373.972 61.324 373.972 65.58C373.972 69.874 369.374 72.382 362.078 72.382C354.744 72.382 350.146 69.874 350.146 65.58C350.146 61.324 354.744 58.778 362.078 58.778ZM362.078 62.692C357.594 62.692 355.162 63.642 355.162 65.58C355.162 67.556 357.594 68.468 362.078 68.468C366.562 68.468 368.956 67.556 368.956 65.58C368.956 63.642 366.562 62.692 362.078 62.692ZM404.977 37.232H410.069V58.056H404.977V37.232ZM398.137 58.778C405.547 58.778 410.221 61.324 410.221 65.618C410.221 69.95 405.547 72.458 398.137 72.458C390.727 72.458 386.129 69.95 386.129 65.618C386.129 61.324 390.727 58.778 398.137 58.778ZM398.137 62.692C393.577 62.692 391.183 63.642 391.183 65.618C391.183 67.594 393.577 68.582 398.137 68.582C402.735 68.582 405.167 67.594 405.167 65.618C405.167 63.642 402.735 62.692 398.137 62.692ZM389.359 40.804H393.539V43.008C393.539 49.658 390.309 55.662 383.545 57.866L380.961 53.914C386.851 52.014 389.359 47.454 389.359 43.008V40.804ZM390.385 40.804H394.527V43.008C394.527 47.112 397.035 51.292 402.773 53.04L400.227 56.992C393.615 54.94 390.385 49.278 390.385 43.008V40.804ZM382.291 39.55H401.443V43.54H382.291V39.55ZM423.912 64.7244L423.744 66.4041C423.612 67.7479 423.357 69.0865 422.98 70.4201C422.614 71.7638 422.227 72.9804 421.82 74.0696C421.423 75.1589 421.102 76.014 420.858 76.6349H416.643C416.796 76.0343 417.005 75.1945 417.27 74.1154C417.534 73.0465 417.784 71.8453 418.018 70.5117C418.252 69.1781 418.4 67.8191 418.461 66.4347L418.537 64.7244H423.912ZM446.41 39.287H450.925V43.759C450.925 52.746 447.141 61.905 439.831 65.345L436.606 60.83C443.185 57.734 446.41 50.295 446.41 43.759V39.287ZM447.614 39.287H452.129V43.759C452.129 49.779 455.225 56.831 461.761 59.841L458.622 64.356C451.312 60.959 447.614 52.23 447.614 43.759V39.287ZM438.154 36.836H459.998V41.523H438.154V36.836ZM462.922 33.009H468.684V72.827H462.922V33.009ZM467.394 48.188H474.446V52.918H467.394V48.188ZM485.15 58.164H490.998V72.827H485.15V58.164ZM498.91 58.164H504.758V72.827H498.91V58.164ZM477.023 55.154H513.1V59.755H477.023V55.154ZM494.954 34.342C503.468 34.342 509.359 37.825 509.359 43.286C509.359 48.661 503.468 52.144 494.954 52.144C486.483 52.144 480.592 48.661 480.592 43.286C480.592 37.825 486.483 34.342 494.954 34.342ZM494.954 38.9C489.751 38.9 486.44 40.448 486.44 43.286C486.44 46.081 489.751 47.629 494.954 47.629C500.2 47.629 503.468 46.081 503.468 43.286C503.468 40.448 500.2 38.9 494.954 38.9ZM529.393 35.632C535.671 35.632 540.358 39.717 540.358 45.436C540.358 51.198 535.671 55.283 529.393 55.283C523.158 55.283 518.385 51.198 518.385 45.436C518.385 39.717 523.158 35.632 529.393 35.632ZM529.393 40.534C526.34 40.534 524.018 42.34 524.018 45.436C524.018 48.575 526.34 50.381 529.393 50.381C532.446 50.381 534.768 48.575 534.768 45.436C534.768 42.34 532.446 40.534 529.393 40.534ZM544.099 32.966H549.818V72.913H544.099V32.966ZM517.439 64.829L516.751 60.228C523.76 60.228 533.521 60.142 541.906 58.895L542.336 63.023C533.693 64.743 524.319 64.829 517.439 64.829ZM583.89 41.136H594.726V45.737H583.89V41.136ZM583.89 53.477H594.726V58.078H583.89V53.477ZM577.01 35.761C582.944 35.761 587.287 41.265 587.287 49.951C587.287 58.723 582.944 64.227 577.01 64.227C571.033 64.227 566.733 58.723 566.733 49.951C566.733 41.265 571.033 35.761 577.01 35.761ZM577.01 40.964C574.129 40.964 572.151 44.103 572.151 49.951C572.151 55.885 574.129 59.067 577.01 59.067C579.934 59.067 581.869 55.885 581.869 49.951C581.869 44.103 579.934 40.964 577.01 40.964ZM593.823 32.966H599.499V72.913H593.823V32.966ZM632.993 33.052H638.755V62.077H632.993V33.052ZM612.224 67.581H639.744V72.139H612.224V67.581ZM612.224 59.282H617.943V69.946H612.224V59.282ZM614.976 35.202H619.706V39.072C619.706 46.855 616.137 54.036 608.397 56.745L605.516 52.187C612.181 49.908 614.976 44.361 614.976 39.072V35.202ZM616.137 35.202H620.824V39.072C620.824 44.275 623.533 49.392 630.069 51.499L627.145 56.057C619.62 53.52 616.137 46.769 616.137 39.072V35.202ZM653.93 35.159H658.617V38.685C658.617 46.597 655.177 53.563 647.609 56.186L644.556 51.671C651.221 49.435 653.93 44.103 653.93 38.685V35.159ZM655.091 35.159H659.735V39.244C659.735 44.017 662.401 48.661 668.636 50.596L665.669 55.025C658.488 52.617 655.091 46.425 655.091 39.244V35.159ZM670.829 33.009H676.548V56.53H670.829V33.009ZM674.957 42.211H681.837V46.941H674.957V42.211ZM663.562 57.433C671.818 57.433 677.021 60.314 677.021 65.13C677.021 69.989 671.818 72.827 663.562 72.827C655.263 72.827 650.06 69.989 650.06 65.13C650.06 60.314 655.263 57.433 663.562 57.433ZM663.562 61.862C658.488 61.862 655.736 62.937 655.736 65.13C655.736 67.366 658.488 68.398 663.562 68.398C668.636 68.398 671.345 67.366 671.345 65.13C671.345 62.937 668.636 61.862 663.562 61.862Z" fill="white"/>
<path d="M122.913 6.138H124.375V6.955C124.375 10.352 122.203 13.104 118.957 14.2005L118.097 12.803C120.978 11.9 122.913 9.578 122.913 6.955V6.138ZM123.235 6.138H124.697V6.955C124.697 9.363 126.589 11.5775 129.427 12.4375L128.567 13.835C125.342 12.803 123.235 10.137 123.235 6.955V6.138ZM118.613 5.1275H128.976V6.568H118.613V5.1275ZM122.913 2.655H124.697V5.837H122.913V2.655ZM131.362 2.741H133.147V14.5875H131.362V2.741ZM132.652 7.9225H136.028V9.406H132.652V7.9225ZM120.526 15.6195H133.147V22.1985H131.362V17.0815H120.526V15.6195ZM151.14 2.7625H152.925V17.3395H151.14V2.7625ZM152.366 9.1265H155.806V10.6315H152.366V9.1265ZM137.896 5.106H149.377V6.5465H137.896V5.106ZM143.637 7.6215C146.389 7.6215 148.281 9.062 148.281 11.255C148.281 13.4265 146.389 14.867 143.637 14.867C140.863 14.867 138.971 13.4265 138.971 11.255C138.971 9.062 140.863 7.6215 143.637 7.6215ZM143.637 9.019C141.874 9.019 140.67 9.9005 140.67 11.255C140.67 12.588 141.874 13.4695 143.637 13.4695C145.378 13.4695 146.582 12.588 146.582 11.255C146.582 9.9005 145.378 9.019 143.637 9.019ZM142.734 2.741H144.518V5.8585H142.734V2.741ZM140.82 20.285H153.806V21.747H140.82V20.285ZM140.82 16.1785H142.605V20.9085H140.82V16.1785ZM176.815 2.7195H178.621V22.177H176.815V2.7195ZM178.127 10.61H181.717V12.0935H178.127V10.61ZM171.849 4.8265H173.59C173.59 10.352 171.053 15.34 164.775 18.5005L163.786 17.1245C169.161 14.394 171.849 10.2445 171.849 5.106V4.8265ZM164.689 4.8265H172.773V6.2885H164.689V4.8265ZM191.734 4.0525H193.605C193.605 8.9975 190.1 12.5235 184.446 14.0715L183.736 12.674C188.724 11.298 191.734 8.4385 191.734 4.8265V4.0525ZM184.725 4.0525H192.831V5.493H184.725V4.0525ZM186.467 15.211H199.431V22.134H197.647V16.6515H186.467V15.211ZM197.647 2.741H199.431V14.3295H197.647V2.741ZM192.809 6.2025H198.012V7.6645H192.809V6.2025ZM192.616 10.3305H197.883V11.7925H192.616V10.3305ZM206.497 18.3622L206.375 19.1868C206.288 19.767 206.156 20.388 205.978 21.0497C205.805 21.7114 205.624 22.3349 205.436 22.9203C205.247 23.5056 205.092 23.9714 204.97 24.3175H203.596C203.662 23.9917 203.748 23.5616 203.855 23.0272C203.962 22.4927 204.069 21.8946 204.176 21.233C204.288 20.5763 204.379 19.9045 204.451 19.2173L204.542 18.3622H206.497ZM216.125 16.028H217.651C221.242 16.028 223.714 15.942 226.638 15.426L226.832 16.888C223.822 17.404 221.285 17.5115 217.651 17.5115H216.125V16.028ZM216.125 4.504H225.176V5.9875H217.909V16.544H216.125V4.504ZM217.458 9.9435H224.746V11.384H217.458V9.9435ZM228.444 2.741H230.25V22.177H228.444V2.741ZM229.82 10.5455H233.432V12.0505H229.82V10.5455ZM236.183 4.633H245.127V17.2965H236.183V4.633ZM243.385 6.0735H237.924V15.856H243.385V6.0735ZM249.19 2.7195H250.975V22.1985H249.19V2.7195ZM262.648 4.074H264.196V5.5575C264.196 9.793 260.261 13.0825 256.37 13.964L255.574 12.4805C258.993 11.8355 262.648 8.8685 262.648 5.5575V4.074ZM262.97 4.074H264.518V5.5575C264.518 8.89 268.195 11.8355 271.592 12.4805L270.796 13.964C266.926 13.0825 262.97 9.8145 262.97 5.5575V4.074ZM254.865 18.092H272.473V19.554H254.865V18.092Z" fill="white"/>
<path d="M149.39 89.114H150.902V105.422H149.39V89.114ZM150.542 95.54H153.566V96.8H150.542V95.54ZM139.076 100.112H140.354C143.36 100.112 145.466 100.004 147.896 99.554L148.058 100.814C145.556 101.282 143.414 101.372 140.354 101.372H139.076V100.112ZM139.076 90.698H146.636V91.922H140.552V100.67H139.076V90.698ZM167.119 91.562H169.945V92.804H167.119V91.562ZM167.119 95.018H169.945V96.26H167.119V95.018ZM159.487 90.086C161.935 90.086 163.735 91.67 163.735 93.938C163.735 96.188 161.935 97.754 159.487 97.754C157.039 97.754 155.239 96.188 155.239 93.938C155.239 91.67 157.039 90.086 159.487 90.086ZM159.487 91.346C157.867 91.346 156.697 92.408 156.697 93.938C156.697 95.468 157.867 96.512 159.487 96.512C161.107 96.512 162.277 95.468 162.277 93.938C162.277 92.408 161.107 91.346 159.487 91.346ZM166.075 89.132H167.569V98.762H166.075V89.132ZM162.385 99.284C165.697 99.284 167.731 100.418 167.731 102.326C167.731 104.252 165.697 105.368 162.385 105.368C159.073 105.368 157.039 104.252 157.039 102.326C157.039 100.418 159.073 99.284 162.385 99.284ZM162.385 100.49C159.973 100.49 158.497 101.156 158.497 102.326C158.497 103.496 159.973 104.18 162.385 104.18C164.797 104.18 166.273 103.496 166.273 102.326C166.273 101.156 164.797 100.49 162.385 100.49ZM182.633 89.15H184.127V101.354H182.633V89.15ZM183.659 94.478H186.539V95.738H183.659V94.478ZM171.545 91.112H181.157V92.318H171.545V91.112ZM176.351 93.218C178.655 93.218 180.239 94.424 180.239 96.26C180.239 98.078 178.655 99.284 176.351 99.284C174.029 99.284 172.445 98.078 172.445 96.26C172.445 94.424 174.029 93.218 176.351 93.218ZM176.351 94.388C174.875 94.388 173.867 95.126 173.867 96.26C173.867 97.376 174.875 98.114 176.351 98.114C177.809 98.114 178.817 97.376 178.817 96.26C178.817 95.126 177.809 94.388 176.351 94.388ZM175.595 89.132H177.089V91.742H175.595V89.132ZM173.993 103.82H184.865V105.044H173.993V103.82ZM173.993 100.382H175.487V104.342H173.993V100.382ZM194.876 90.788H205.208V92.012H194.876V90.788ZM193.13 101.894H207.836V103.154H193.13V101.894ZM204.56 90.788H206.018V92.786C206.018 95.18 206.018 97.394 205.334 100.724L203.858 100.58C204.56 97.448 204.56 95.126 204.56 92.786V90.788ZM204.938 95.288V96.404L194.66 96.962L194.444 95.72L204.938 95.288ZM211.435 89.78H222.631V94.028H212.983V96.836H211.471V92.876H221.137V90.986H211.435V89.78ZM211.471 96.098H223.009V97.322H211.471V96.098ZM209.671 98.996H224.431V100.238H209.671V98.996ZM216.277 99.464H217.753V105.422H216.277V99.464ZM226.247 102.002H240.989V103.244H226.247V102.002ZM232.835 91.328H234.095V92.678C234.095 96.008 230.765 98.528 227.561 99.194L226.949 98.006C229.757 97.52 232.835 95.252 232.835 92.678V91.328ZM233.105 91.328H234.365V92.678C234.365 95.252 237.461 97.484 240.305 97.934L239.711 99.14C236.453 98.492 233.105 96.008 233.105 92.678V91.328ZM227.453 90.734H239.747V91.976H227.453V90.734ZM245.537 102.21L245.434 102.901C245.362 103.386 245.251 103.906 245.102 104.46C244.957 105.014 244.806 105.536 244.648 106.026C244.491 106.516 244.361 106.906 244.258 107.196H243.108C243.163 106.923 243.236 106.563 243.325 106.116C243.415 105.668 243.504 105.168 243.594 104.614C243.687 104.064 243.764 103.501 243.824 102.926L243.9 102.21H245.537ZM264.793 89.132H266.287V101.246H264.793V89.132ZM253.381 90.446H261.949V91.67H253.381V90.446ZM253.111 98.798L252.949 97.52C255.613 97.52 259.411 97.484 262.453 97.124L262.543 98.24C259.411 98.744 255.757 98.798 253.111 98.798ZM255.001 91.49H256.441V97.736H255.001V91.49ZM258.889 91.49H260.329V97.736H258.889V91.49ZM262.093 92.21H265.585V93.434H262.093V92.21ZM262.093 95.324H265.585V96.548H262.093V95.324ZM255.883 103.82H266.719V105.044H255.883V103.82ZM255.883 100.256H257.377V104.594H255.883V100.256ZM281.316 89.114H282.81V105.422H281.316V89.114ZM270.408 100.256H271.758C274.476 100.256 276.906 100.148 279.786 99.68L279.948 100.904C276.996 101.39 274.548 101.498 271.758 101.498H270.408V100.256ZM270.372 90.644H277.896V96.458H271.902V100.724H270.408V95.234H276.384V91.868H270.372V90.644ZM297.155 89.15H298.649V101.354H297.155V89.15ZM298.181 94.478H301.061V95.738H298.181V94.478ZM286.067 91.112H295.679V92.318H286.067V91.112ZM290.873 93.218C293.177 93.218 294.761 94.424 294.761 96.26C294.761 98.078 293.177 99.284 290.873 99.284C288.551 99.284 286.967 98.078 286.967 96.26C286.967 94.424 288.551 93.218 290.873 93.218ZM290.873 94.388C289.397 94.388 288.389 95.126 288.389 96.26C288.389 97.376 289.397 98.114 290.873 98.114C292.331 98.114 293.339 97.376 293.339 96.26C293.339 95.126 292.331 94.388 290.873 94.388ZM290.117 89.132H291.611V91.742H290.117V89.132ZM288.515 103.82H299.387V105.044H288.515V103.82ZM288.515 100.382H290.009V104.342H288.515V100.382ZM314.132 93.056H317.3V94.298H314.132V93.056ZM314.132 98.006H317.3V99.248H314.132V98.006ZM320.036 89.132H321.476V105.404H320.036V89.132ZM316.85 89.474H318.254V104.594H316.85V89.474ZM311.306 90.482C313.412 90.482 314.78 92.66 314.78 96.152C314.78 99.644 313.412 101.822 311.306 101.822C309.2 101.822 307.85 99.644 307.85 96.152C307.85 92.66 309.2 90.482 311.306 90.482ZM311.306 91.868C310.028 91.868 309.2 93.524 309.2 96.152C309.2 98.78 310.028 100.436 311.306 100.436C312.602 100.436 313.412 98.78 313.412 96.152C313.412 93.524 312.602 91.868 311.306 91.868ZM336.378 91.598H339.204V92.858H336.378V91.598ZM336.378 95.09H339.204V96.332H336.378V95.09ZM335.334 89.132H336.828V98.798H335.334V89.132ZM326.262 99.572H336.828V105.404H335.334V100.778H326.262V99.572ZM328.746 90.086C331.194 90.086 332.994 91.67 332.994 93.956C332.994 96.224 331.194 97.79 328.746 97.79C326.298 97.79 324.498 96.224 324.498 93.956C324.498 91.67 326.298 90.086 328.746 90.086ZM328.746 91.364C327.126 91.364 325.956 92.408 325.956 93.956C325.956 95.486 327.126 96.548 328.746 96.548C330.366 96.548 331.536 95.486 331.536 93.956C331.536 92.408 330.366 91.364 328.746 91.364ZM343.244 90.9091L343.116 100.318H341.633L341.505 90.9091H343.244ZM342.375 104.102C342.059 104.102 341.789 103.989 341.563 103.763C341.337 103.538 341.224 103.267 341.224 102.952C341.224 102.636 341.337 102.366 341.563 102.14C341.789 101.914 342.059 101.801 342.375 101.801C342.69 101.801 342.961 101.914 343.186 102.14C343.412 102.366 343.525 102.636 343.525 102.952C343.525 103.161 343.472 103.352 343.365 103.527C343.263 103.702 343.125 103.842 342.95 103.949C342.779 104.051 342.588 104.102 342.375 104.102Z" fill="white"/>
<path d="M125.562 91.792H118V105.681H132.12V97.656" stroke="white" stroke-width="1.8"/>
<path d="M120.315 95.8022L124.944 101.202L134.744 89.3193" stroke="white" stroke-width="1.8"/>
</g>
</g>
<defs>
<clipPath id="clip0_12134_18384">
<rect width="800" height="109" fill="white"/>
</clipPath>
</defs>
</svg>
