<svg width="800" height="109" viewBox="0 0 800 109" fill="none" xmlns="http://www.w3.org/2000/svg">
<g clip-path="url(#clip0_12135_18462)">
<mask id="mask0_12135_18462" style="mask-type:luminance" maskUnits="userSpaceOnUse" x="0" y="0" width="800" height="109">
<path d="M800 0H0V109H800V0Z" fill="white"/>
</mask>
<g mask="url(#mask0_12135_18462)">
<path d="M142.866 39.208H146.818V43.236C146.818 49.24 144.424 55.206 138.686 57.676L136.026 53.762C140.928 51.596 142.866 47.226 142.866 43.236V39.208ZM143.778 39.208H147.73V43.236C147.73 47.15 149.592 50.95 154.228 52.888L151.568 56.726C146.096 54.484 143.778 49.088 143.778 43.236V39.208ZM161.714 37.232H166.502V58.55H161.714V37.232ZM157.496 45.744H163.082V49.848H157.496V45.744ZM154.266 37.764H158.978V58.36H154.266V37.764ZM142.334 60.07H166.502V72.382H161.486V64.098H142.334V60.07ZM193.973 37.156H199.065V72.458H193.973V37.156ZM197.925 50.19H204.157V54.332H197.925V50.19ZM172.845 59.804H175.809C181.737 59.804 186.411 59.614 191.579 58.702L192.073 62.882C186.753 63.832 181.927 63.984 175.809 63.984H172.845V59.804ZM172.845 40.424H189.261V44.49H177.861V61.818H172.845V40.424ZM206.434 56.194H238.316V60.222H206.434V56.194ZM210.424 67.746H235.238V71.774H210.424V67.746ZM210.424 62.16H215.478V69.494H210.424V62.16ZM210.348 37.992H234.44V47.758H215.402V51.406H210.386V44.186H229.462V41.83H210.348V37.992ZM210.386 50.228H235.124V54.028H210.386V50.228ZM254.024 48.252H278.496V52.28H254.024V48.252ZM254.024 38.79H259.078V50.076H254.024V38.79ZM250.224 56.156H282.03V60.222H250.224V56.156ZM257.444 57.6H262.498V72.382H257.444V57.6ZM269.718 57.6H274.772V72.382H269.718V57.6ZM292.287 49.088H297.341V55.586H292.287V49.088ZM304.675 49.088H309.691V55.586H304.675V49.088ZM301.065 37.802C308.817 37.802 313.795 40.424 313.795 44.68C313.795 48.974 308.817 51.596 301.065 51.596C293.313 51.596 288.335 48.974 288.335 44.68C288.335 40.424 293.313 37.802 301.065 37.802ZM301.065 41.716C296.239 41.716 293.541 42.666 293.541 44.68C293.541 46.694 296.239 47.682 301.065 47.682C305.853 47.682 308.589 46.694 308.589 44.68C308.589 42.666 305.853 41.716 301.065 41.716ZM285.143 54.484H316.949V58.474H285.143V54.484ZM288.677 60.868H313.111V72.382H308.057V64.858H288.677V60.868ZM353.405 37.156H358.421V72.458H353.405V37.156ZM345.425 49.544H354.849V53.61H345.425V49.544ZM330.187 39.93H335.203V48.442H342.119V39.93H347.097V64.174H330.187V39.93ZM335.203 52.356V60.108H342.119V52.356H335.203ZM376.924 39.208H381.332V41.754C381.332 49.392 375.898 56.156 366.778 57.942L364.612 53.762C372.554 52.394 376.924 46.808 376.924 41.754V39.208ZM377.95 39.208H382.32V41.754C382.32 46.922 386.652 52.394 394.632 53.762L392.466 57.942C383.346 56.156 377.95 49.506 377.95 41.754V39.208ZM363.89 63.984H395.734V68.088H363.89V63.984ZM407.604 58.056H439.448V62.16H407.604V58.056ZM420.98 59.5H425.996V72.42H420.98V59.5ZM411.556 51.52H436.142V55.51H411.556V51.52ZM411.556 38.6H435.762V42.552H416.534V52.47H411.556V38.6ZM415.128 45.098H435.002V48.936H415.128V45.098ZM452.213 39.626C457.457 39.626 461.295 44.49 461.295 52.166C461.295 59.918 457.457 64.782 452.213 64.782C446.931 64.782 443.131 59.918 443.131 52.166C443.131 44.49 446.931 39.626 452.213 39.626ZM452.213 44.224C449.667 44.224 447.957 46.998 447.957 52.166C447.957 57.41 449.667 60.222 452.213 60.222C454.797 60.222 456.469 57.41 456.469 52.166C456.469 46.998 454.797 44.224 452.213 44.224ZM467.071 37.156H472.087V72.458H467.071V37.156ZM459.813 49.848H469.199V53.914H459.813V49.848ZM484.54 65.2216L484.392 66.706C484.275 67.8935 484.05 69.0765 483.717 70.255C483.393 71.4425 483.051 72.5175 482.691 73.4801C482.34 74.4427 482.057 75.1984 481.841 75.7472H478.117C478.252 75.2164 478.436 74.4742 478.67 73.5206C478.904 72.576 479.124 71.5144 479.331 70.3359C479.538 69.1574 479.669 67.9564 479.722 66.733L479.79 65.2216H484.54ZM498.61 58.637H501.835C508.887 58.637 513.488 58.465 518.648 57.519L519.207 62.12C513.875 63.109 509.102 63.324 501.835 63.324H498.61V58.637ZM498.61 36.535H516.627V41.093H504.329V60.4H498.61V36.535ZM524.453 33.009H530.172V72.956H524.453V33.009ZM514.692 46.726H526.861V51.37H514.692V46.726ZM571.769 32.966H577.445V72.913H571.769V32.966ZM576.155 48.016H583.207V52.746H576.155V48.016ZM547.861 58.981H551.215C557.966 58.981 563.212 58.766 569.06 57.734L569.619 62.335C563.599 63.41 558.138 63.668 551.215 63.668H547.861V58.981ZM547.818 36.363H566.136V51.8H553.537V60.744H547.861V47.242H560.46V40.921H547.818V36.363ZM613.088 32.966H618.85V72.913H613.088V32.966ZM597.393 35.761C603.413 35.761 607.842 41.265 607.842 49.951C607.842 58.723 603.413 64.227 597.393 64.227C591.373 64.227 586.944 58.723 586.944 49.951C586.944 41.265 591.373 35.761 597.393 35.761ZM597.393 40.964C594.426 40.964 592.405 44.103 592.405 49.951C592.405 55.885 594.426 59.067 597.393 59.067C600.36 59.067 602.338 55.885 602.338 49.951C602.338 44.103 600.36 40.964 597.393 40.964ZM629.554 51.37H657.547V55.928H629.554V51.37ZM625.383 63.367H661.417V68.054H625.383V63.367ZM629.554 36.277H657.246V40.921H635.23V53.262H629.554V36.277Z" fill="white"/>
<path d="M149.362 2.7625H151.147V17.3395H149.362V2.7625ZM150.588 9.1265H154.028V10.6315H150.588V9.1265ZM136.118 5.106H147.599V6.5465H136.118V5.106ZM141.859 7.6215C144.611 7.6215 146.503 9.062 146.503 11.255C146.503 13.4265 144.611 14.867 141.859 14.867C139.085 14.867 137.193 13.4265 137.193 11.255C137.193 9.062 139.085 7.6215 141.859 7.6215ZM141.859 9.019C140.096 9.019 138.892 9.9005 138.892 11.255C138.892 12.588 140.096 13.4695 141.859 13.4695C143.6 13.4695 144.804 12.588 144.804 11.255C144.804 9.9005 143.6 9.019 141.859 9.019ZM140.956 2.741H142.74V5.8585H140.956V2.741ZM139.042 20.285H152.028V21.747H139.042V20.285ZM139.042 16.1785H140.827V20.9085H139.042V16.1785ZM169.979 2.7625H171.785V16.9525H169.979V2.7625ZM159.293 20.285H172.365V21.747H159.293V20.285ZM159.293 15.4905H161.056V20.7795H159.293V15.4905ZM161.357 4.0955C164.26 4.0955 166.41 6.0735 166.41 8.89C166.41 11.685 164.26 13.6845 161.357 13.6845C158.455 13.6845 156.283 11.685 156.283 8.89C156.283 6.0735 158.455 4.0955 161.357 4.0955ZM161.357 5.6435C159.465 5.6435 158.025 6.9765 158.025 8.89C158.025 10.782 159.465 12.115 161.357 12.115C163.249 12.115 164.69 10.782 164.69 8.89C164.69 6.9765 163.249 5.6435 161.357 5.6435ZM185.393 7.3635H190.617V8.847H185.393V7.3635ZM180.921 3.6225C183.823 3.6225 185.93 5.4715 185.93 8.1375C185.93 10.8035 183.823 12.631 180.921 12.631C178.018 12.631 175.911 10.8035 175.911 8.1375C175.911 5.4715 178.018 3.6225 180.921 3.6225ZM180.921 5.1275C179.007 5.1275 177.631 6.353 177.631 8.1375C177.631 9.9005 179.007 11.1475 180.921 11.1475C182.834 11.1475 184.21 9.9005 184.21 8.1375C184.21 6.353 182.834 5.1275 180.921 5.1275ZM189.822 2.741H191.606V13.1685H189.822V2.741ZM179.158 14.136H180.942V16.587H189.843V14.136H191.606V21.919H179.158V14.136ZM180.942 18.006V20.4785H189.843V18.006H180.942ZM203.322 10.4165H206.998V11.8785H203.322V10.4165ZM199.366 7.7075H200.742V8.718C200.742 12.588 199.129 16.501 196.291 18.1995L195.238 16.845C197.861 15.3185 199.366 11.9 199.366 8.718V7.7075ZM199.688 7.7075H201.064V8.718C201.064 11.814 202.612 15.0175 205.235 16.4365L204.225 17.7695C201.365 16.1785 199.688 12.502 199.688 8.718V7.7075ZM195.775 6.31H204.655V7.7935H195.775V6.31ZM199.366 3.429H201.086V7.4495H199.366V3.429ZM210.18 2.741H211.9V22.177H210.18V2.741ZM206.289 3.1925H207.966V21.188H206.289V3.1925ZM225.729 14.7595H227.556V22.177H225.729V14.7595ZM232.415 14.7595H234.243V22.177H232.415V14.7595ZM221.214 13.792H238.844V15.2755H221.214V13.792ZM229.986 3.515C234.049 3.515 236.78 5.149 236.78 7.7505C236.78 10.3305 234.049 11.986 229.986 11.986C225.944 11.986 223.192 10.3305 223.192 7.7505C223.192 5.149 225.944 3.515 229.986 3.515ZM229.986 4.9555C227.019 4.9555 224.998 6.052 224.998 7.7505C224.998 9.449 227.019 10.5455 229.986 10.5455C232.953 10.5455 234.952 9.449 234.952 7.7505C234.952 6.052 232.953 4.9555 229.986 4.9555ZM246.453 3.4505C249.355 3.4505 251.484 5.2135 251.484 7.772C251.484 10.309 249.355 12.072 246.453 12.072C243.572 12.072 241.443 10.309 241.443 7.772C241.443 5.2135 243.572 3.4505 246.453 3.4505ZM246.453 4.9125C244.582 4.9125 243.163 6.095 243.163 7.772C243.163 9.449 244.582 10.61 246.453 10.61C248.345 10.61 249.742 9.449 249.742 7.772C249.742 6.095 248.345 4.9125 246.453 4.9125ZM255.139 2.741H256.945V12.6955H255.139V2.741ZM244.367 13.6415H256.945V18.3715H246.152V21.2955H244.41V17.0385H255.182V15.082H244.367V13.6415ZM244.41 20.5H257.59V21.919H244.41V20.5ZM266.839 12.4375H284.404V13.8565H266.839V12.4375ZM274.729 9.0835H276.492V12.9965H274.729V9.0835ZM268.774 15.7485H282.254V22.3275H280.47V17.2105H268.774V15.7485ZM269.053 8.6535H282.383V10.1155H269.053V8.6535ZM269.053 3.515H282.211V4.977H270.838V9.406H269.053V3.515ZM296.98 7.6H301.301V9.0835H296.98V7.6ZM300.807 2.741H302.591V14.1145H300.807V2.741ZM289.992 15.0605H302.591V21.919H289.992V15.0605ZM300.85 16.4795H291.734V20.4785H300.85V16.4795ZM291.562 4.59H293.024V6.1595C293.024 9.707 290.831 12.7385 287.584 13.9425L286.66 12.5235C289.562 11.4915 291.562 8.9115 291.562 6.1595V4.59ZM291.906 4.59H293.346V6.138C293.346 8.6535 295.238 11.083 298.055 12.072L297.152 13.491C293.991 12.3515 291.906 9.406 291.906 6.138V4.59ZM287.219 3.988H297.603V5.4285H287.219V3.988ZM319.967 8.1375H324.289V9.578H319.967V8.1375ZM319.817 13.018H324.246V14.4585H319.817V13.018ZM327.234 2.741H328.954V22.177H327.234V2.741ZM323.343 3.2355H325.02V21.188H323.343V3.2355ZM319 5.192H320.72C320.72 10.2875 318.677 14.867 313.453 17.9845L312.421 16.716C316.957 13.964 319 10.094 319 5.5145V5.192ZM313.281 5.192H319.709V6.654H313.281V5.192ZM346.755 5.6865H350.13V7.1915H346.755V5.6865ZM346.755 9.8575H350.13V11.341H346.755V9.8575ZM345.508 2.741H347.292V14.2865H345.508V2.741ZM334.672 15.211H347.292V22.177H345.508V16.6515H334.672V15.211ZM337.639 3.8805C340.563 3.8805 342.713 5.7725 342.713 8.503C342.713 11.212 340.563 13.0825 337.639 13.0825C334.715 13.0825 332.565 11.212 332.565 8.503C332.565 5.7725 334.715 3.8805 337.639 3.8805ZM337.639 5.407C335.704 5.407 334.306 6.654 334.306 8.503C334.306 10.3305 335.704 11.599 337.639 11.599C339.574 11.599 340.971 10.3305 340.971 8.503C340.971 6.654 339.574 5.407 337.639 5.407ZM360.771 3.9665C364.813 3.9665 367.823 6.1165 367.823 9.3415C367.823 12.588 364.813 14.7165 360.771 14.7165C356.729 14.7165 353.697 12.588 353.697 9.3415C353.697 6.1165 356.729 3.9665 360.771 3.9665ZM360.771 5.4285C357.696 5.4285 355.417 6.998 355.417 9.3415C355.417 11.6635 357.696 13.2545 360.771 13.2545C363.845 13.2545 366.124 11.6635 366.124 9.3415C366.124 6.998 363.845 5.4285 360.771 5.4285ZM351.999 18.1135H369.607V19.6185H351.999V18.1135ZM371.777 18.307H389.386V19.7905H371.777V18.307ZM379.646 14.136H381.431V18.9305H379.646V14.136ZM373.906 4.1815H387.214V10.0725H375.733V13.964H373.97V8.632H385.451V5.622H373.906V4.1815ZM373.97 13.2115H387.666V14.6735H373.97V13.2115ZM403.338 20.7138C402.696 20.7036 402.055 20.5814 401.414 20.3473C400.772 20.1132 400.187 19.7187 399.658 19.1639C399.128 18.604 398.703 17.8481 398.383 16.8963C398.062 15.9394 397.902 14.7382 397.902 13.2926C397.902 11.9081 398.031 10.6815 398.291 9.61257C398.551 8.53859 398.927 7.63512 399.421 6.90217C399.915 6.16412 400.51 5.60423 401.208 5.22248C401.91 4.84073 402.701 4.64986 403.582 4.64986C404.458 4.64986 405.236 4.82546 405.918 5.17667C406.605 5.52279 407.165 6.00633 407.598 6.62731C408.031 7.24828 408.311 7.96342 408.438 8.77273H406.575C406.402 8.07031 406.066 7.48751 405.567 7.02433C405.068 6.56114 404.407 6.32954 403.582 6.32954C402.371 6.32954 401.416 6.85636 400.719 7.90998C400.027 8.9636 399.678 10.4422 399.673 12.3459H399.795C400.08 11.9132 400.419 11.5442 400.811 11.2388C401.208 10.9283 401.645 10.6891 402.124 10.5211C402.602 10.3532 403.109 10.2692 403.643 10.2692C404.539 10.2692 405.358 10.4931 406.102 10.9411C406.845 11.3839 407.44 11.9972 407.888 12.7811C408.336 13.5598 408.56 14.4531 408.56 15.4609C408.56 16.428 408.344 17.3137 407.911 18.1179C407.478 18.917 406.87 19.5533 406.086 20.0266C405.308 20.4949 404.391 20.724 403.338 20.7138ZM403.338 19.0341C403.979 19.0341 404.554 18.8738 405.063 18.5531C405.577 18.2324 405.982 17.8023 406.277 17.2628C406.577 16.7232 406.728 16.1226 406.728 15.4609C406.728 14.8145 406.583 14.2266 406.292 13.6973C406.007 13.1628 405.613 12.7378 405.109 12.4222C404.61 12.1067 404.04 11.9489 403.399 11.9489C402.915 11.9489 402.465 12.0456 402.047 12.239C401.63 12.4273 401.264 12.6869 400.948 13.0178C400.637 13.3486 400.393 13.7278 400.215 14.1554C400.037 14.5778 399.948 15.0232 399.948 15.4915C399.948 16.1125 400.093 16.6927 400.383 17.2322C400.678 17.7718 401.08 18.207 401.589 18.5378C402.103 18.8687 402.686 19.0341 403.338 19.0341ZM416.449 20.7138C415.553 20.7138 414.746 20.5356 414.029 20.1793C413.311 19.823 412.736 19.3344 412.303 18.7134C411.87 18.0924 411.634 17.3849 411.593 16.5909H413.425C413.497 17.2984 413.817 17.8838 414.387 18.3469C414.963 18.805 415.65 19.0341 416.449 19.0341C417.09 19.0341 417.66 18.8839 418.159 18.5836C418.663 18.2833 419.057 17.871 419.342 17.3468C419.633 16.8174 419.778 16.2193 419.778 15.5526C419.778 14.8705 419.628 14.2623 419.327 13.7278C419.032 13.1883 418.625 12.7633 418.106 12.4528C417.586 12.1423 416.993 11.9845 416.327 11.9794C415.848 11.9743 415.357 12.0481 414.853 12.2008C414.349 12.3484 413.934 12.5393 413.609 12.7734L411.837 12.5597L412.784 4.86364H420.908V6.54332H414.372L413.822 11.1548H413.914C414.235 10.9003 414.637 10.6891 415.12 10.5211C415.604 10.3532 416.108 10.2692 416.632 10.2692C417.589 10.2692 418.442 10.4982 419.19 10.9563C419.943 11.4093 420.534 12.0303 420.961 12.8192C421.394 13.6082 421.61 14.5091 421.61 15.522C421.61 16.5196 421.386 17.4104 420.938 18.1942C420.495 18.973 419.885 19.5889 419.106 20.0419C418.327 20.4898 417.441 20.7138 416.449 20.7138ZM432.614 17.5682V16.7436C432.614 16.1735 432.731 15.6518 432.965 15.1784C433.204 14.7 433.55 14.3182 434.003 14.0332C434.462 13.7431 435.016 13.598 435.668 13.598C436.33 13.598 436.884 13.7431 437.332 14.0332C437.78 14.3182 438.119 14.7 438.348 15.1784C438.577 15.6518 438.691 16.1735 438.691 16.7436V17.5682C438.691 18.1383 438.574 18.6625 438.34 19.141C438.111 19.6143 437.77 19.9961 437.317 20.2862C436.869 20.5713 436.319 20.7138 435.668 20.7138C435.006 20.7138 434.449 20.5713 433.996 20.2862C433.543 19.9961 433.199 19.6143 432.965 19.141C432.731 18.6625 432.614 18.1383 432.614 17.5682ZM434.171 16.7436V17.5682C434.171 18.0415 434.283 18.4666 434.507 18.8432C434.731 19.2148 435.118 19.4006 435.668 19.4006C436.202 19.4006 436.579 19.2148 436.798 18.8432C437.022 18.4666 437.134 18.0415 437.134 17.5682V16.7436C437.134 16.2702 437.027 15.8478 436.813 15.4762C436.599 15.0996 436.218 14.9112 435.668 14.9112C435.133 14.9112 434.749 15.0996 434.515 15.4762C434.286 15.8478 434.171 16.2702 434.171 16.7436ZM424.826 8.62003V7.79545C424.826 7.22538 424.943 6.70366 425.177 6.23029C425.417 5.75183 425.763 5.37009 426.216 5.08505C426.674 4.79492 427.229 4.64986 427.88 4.64986C428.542 4.64986 429.097 4.79492 429.545 5.08505C429.993 5.37009 430.331 5.75183 430.56 6.23029C430.789 6.70366 430.904 7.22538 430.904 7.79545V8.62003C430.904 9.1901 430.787 9.71437 430.552 10.1928C430.323 10.6662 429.982 11.0479 429.529 11.3381C429.081 11.6231 428.532 11.7656 427.88 11.7656C427.219 11.7656 426.661 11.6231 426.208 11.3381C425.755 11.0479 425.412 10.6662 425.177 10.1928C424.943 9.71437 424.826 9.1901 424.826 8.62003ZM426.384 7.79545V8.62003C426.384 9.09339 426.496 9.51841 426.72 9.89506C426.944 10.2666 427.331 10.4524 427.88 10.4524C428.415 10.4524 428.791 10.2666 429.01 9.89506C429.234 9.51841 429.346 9.09339 429.346 8.62003V7.79545C429.346 7.32209 429.239 6.89962 429.025 6.52805C428.812 6.1514 428.43 5.96307 427.88 5.96307C427.346 5.96307 426.961 6.1514 426.727 6.52805C426.498 6.89962 426.384 7.32209 426.384 7.79545ZM425.407 20.5L436.157 4.86364H437.897L427.147 20.5H425.407ZM460.902 2.6765H462.687V13.405H460.902V2.6765ZM461.934 7.342H465.568V8.847H461.934V7.342ZM450.346 14.394H462.687V18.737H452.152V21.102H450.389V17.447H460.945V15.7485H450.346V14.394ZM450.389 20.586H463.396V21.962H450.389V20.586ZM447.658 4.4825H459.139V5.88H447.658V4.4825ZM453.399 6.74C456.194 6.74 458.043 7.9655 458.043 9.9435C458.043 11.9 456.194 13.104 453.399 13.104C450.561 13.104 448.733 11.9 448.733 9.9435C448.733 7.9655 450.561 6.74 453.399 6.74ZM453.399 8.0515C451.593 8.0515 450.432 8.7825 450.432 9.9435C450.432 11.083 451.593 11.814 453.399 11.814C455.183 11.814 456.344 11.083 456.344 9.9435C456.344 8.7825 455.183 8.0515 453.399 8.0515ZM452.496 2.526H454.28V5.45H452.496V2.526ZM481.519 2.7625H483.325V16.9525H481.519V2.7625ZM470.833 20.285H483.905V21.747H470.833V20.285ZM470.833 15.4905H472.596V20.7795H470.833V15.4905ZM472.897 4.0955C475.8 4.0955 477.95 6.0735 477.95 8.89C477.95 11.685 475.8 13.6845 472.897 13.6845C469.995 13.6845 467.823 11.685 467.823 8.89C467.823 6.0735 469.995 4.0955 472.897 4.0955ZM472.897 5.6435C471.005 5.6435 469.565 6.9765 469.565 8.89C469.565 10.782 471.005 12.115 472.897 12.115C474.789 12.115 476.23 10.782 476.23 8.89C476.23 6.9765 474.789 5.6435 472.897 5.6435ZM490.128 4.86364L489.975 16.1023H488.204L488.051 4.86364H490.128ZM489.09 20.6222C488.713 20.6222 488.39 20.4873 488.12 20.2175C487.85 19.9477 487.715 19.6245 487.715 19.2479C487.715 18.8712 487.85 18.548 488.12 18.2782C488.39 18.0085 488.713 17.8736 489.09 17.8736C489.466 17.8736 489.789 18.0085 490.059 18.2782C490.329 18.548 490.464 18.8712 490.464 19.2479C490.464 19.4973 490.4 19.7263 490.273 19.935C490.151 20.1437 489.985 20.3117 489.777 20.4389C489.573 20.5611 489.344 20.6222 489.09 20.6222Z" fill="white"/>
<path d="M157.202 100.148H158.444C161.468 100.148 163.412 100.076 165.68 99.644L165.842 100.868C163.502 101.3 161.54 101.408 158.444 101.408H157.202V100.148ZM157.202 90.68H164.6V91.904H158.678V100.616H157.202V90.68ZM168.308 89.132H169.802V105.44H168.308V89.132ZM163.646 95.018H168.92V96.26H163.646V95.018ZM183.967 89.114H185.461V105.422H183.967V89.114ZM185.101 95.594H188.125V96.854H185.101V95.594ZM173.599 100.256H174.895C177.955 100.256 180.079 100.148 182.545 99.68L182.707 100.922C180.169 101.372 178.009 101.498 174.895 101.498H173.599V100.256ZM173.563 90.644H180.925V96.476H175.075V100.76H173.599V95.252H179.449V91.868H173.563V90.644ZM201.317 89.114H202.811V105.422H201.317V89.114ZM194.225 90.374C196.637 90.374 198.365 92.588 198.365 96.044C198.365 99.518 196.637 101.732 194.225 101.732C191.831 101.732 190.103 99.518 190.103 96.044C190.103 92.588 191.831 90.374 194.225 90.374ZM194.225 91.724C192.641 91.724 191.525 93.416 191.525 96.044C191.525 98.69 192.641 100.418 194.225 100.418C195.827 100.418 196.925 98.69 196.925 96.044C196.925 93.416 195.827 91.724 194.225 91.724ZM207.922 96.926H219.1V98.15H207.922V96.926ZM206.068 101.966H220.81V103.208H206.068V101.966ZM207.922 90.626H218.938V91.868H209.416V97.466H207.922V90.626ZM224.606 94.01H235.658V95.234H224.606V94.01ZM222.608 97.412H237.368V98.636H222.608V97.412ZM224.606 89.726H226.082V94.622H224.606V89.726ZM224.498 103.784H235.748V105.008H224.498V103.784ZM224.498 100.256H225.974V104.108H224.498V100.256ZM250.835 96.818H252.311V99.32H250.835V96.818ZM244.229 95.99H258.935V97.196H244.229V95.99ZM246.137 89.672H257.027V94.622H246.137V89.672ZM255.569 90.86H247.613V93.434H255.569V90.86ZM246.011 98.78H257.063V102.434H247.523V104.414H246.047V101.354H255.587V99.932H246.011V98.78ZM246.047 104.054H257.549V105.224H246.047V104.054ZM260.788 98.42H275.548V99.644H260.788V98.42ZM262.732 104.018H274V105.242H262.732V104.018ZM262.732 100.724H264.226V104.378H262.732V100.724ZM267.412 96.08H268.906V98.942H267.412V96.08ZM262.66 89.654H273.64V93.686H264.172V95.882H262.696V92.588H272.182V90.824H262.66V89.654ZM262.696 95.486H274V96.656H262.696V95.486ZM283.165 96.404H284.407C287.665 96.404 289.483 96.35 291.661 95.954L291.823 97.16C289.591 97.556 287.719 97.628 284.407 97.628H283.165V96.404ZM283.165 90.014H290.599V91.238H284.641V96.998H283.165V90.014ZM284.173 93.182H290.293V94.37H284.173V93.182ZM293.551 89.132H295.045V98.168H293.551V89.132ZM294.631 92.948H297.457V94.19H294.631V92.948ZM284.785 98.888H286.261V100.796H293.569V98.888H295.045V105.188H284.785V98.888ZM286.261 101.984V103.964H293.569V101.984H286.261ZM302.676 98.834H304.17V105.404H302.676V98.834ZM308.49 98.834H310.002V105.404H308.49V98.834ZM298.968 98.636H313.728V99.86H298.968V98.636ZM300.822 89.762H302.316V91.94H310.362V89.762H311.838V96.728H300.822V89.762ZM302.316 93.164V95.486H310.362V93.164H302.316ZM318.275 102.21L318.173 102.901C318.1 103.386 317.99 103.906 317.84 104.46C317.695 105.014 317.544 105.536 317.387 106.026C317.229 106.516 317.099 106.906 316.997 107.196H315.846C315.901 106.923 315.974 106.563 316.063 106.116C316.153 105.668 316.242 105.168 316.332 104.614C316.426 104.064 316.502 103.501 316.562 102.926L316.639 102.21H318.275ZM326.498 90.122H327.956V92.642H332.636V90.122H334.112V97.808H326.498V90.122ZM327.956 93.83V96.62H332.636V93.83H327.956ZM328.118 99.878H338.99V105.404H337.478V101.084H328.118V99.878ZM337.478 89.132H338.99V98.978H337.478V89.132ZM354.126 89.114H355.602V105.422H354.126V89.114ZM349.824 95.162H354.558V96.386H349.824V95.162ZM342.858 90.41H344.334V94.64H348.852V90.41H350.328V101.336H342.858V90.41ZM344.334 95.828V100.094H348.852V95.828H344.334ZM365.285 90.248H366.581V91.49C366.581 95.036 363.287 97.79 360.029 98.528L359.363 97.286C362.225 96.746 365.285 94.262 365.285 91.49V90.248ZM365.555 90.248H366.851V91.49C366.851 94.28 369.929 96.746 372.773 97.286L372.107 98.528C368.867 97.79 365.555 95.054 365.555 91.49V90.248ZM358.769 101.984H373.511V103.208H358.769V101.984ZM377.182 96.728H388.36V97.952H377.182V96.728ZM375.328 102.11H390.07V103.37H375.328V102.11ZM381.916 97.25H383.41V102.614H381.916V97.25ZM377.182 90.428H388.198V91.652H378.676V97.268H377.182V90.428ZM397.633 100.256H398.911C401.917 100.256 403.987 100.184 406.435 99.752L406.597 100.976C404.077 101.408 401.953 101.498 398.911 101.498H397.633V100.256ZM397.633 90.608H405.211V91.85H399.127V100.688H397.633V90.608ZM398.749 95.162H404.851V96.368H398.749V95.162ZM407.947 89.132H409.459V105.404H407.947V89.132ZM409.099 95.666H412.123V96.926H409.099V95.666ZM414.425 90.716H421.913V101.318H414.425V90.716ZM420.455 91.922H415.883V100.112H420.455V91.922ZM425.315 89.114H426.809V105.422H425.315V89.114ZM436.582 90.248H437.878V91.49C437.878 95.036 434.584 97.79 431.326 98.528L430.66 97.286C433.522 96.746 436.582 94.262 436.582 91.49V90.248ZM436.852 90.248H438.148V91.49C438.148 94.28 441.226 96.746 444.07 97.286L443.404 98.528C440.164 97.79 436.852 95.054 436.852 91.49V90.248ZM430.066 101.984H444.808V103.208H430.066V101.984ZM446.624 102.164H461.366V103.406H446.624V102.164ZM453.212 98.672H454.706V102.686H453.212V98.672ZM448.406 90.338H459.548V95.27H449.936V98.528H448.46V94.064H458.072V91.544H448.406V90.338ZM448.46 97.898H459.926V99.122H448.46V97.898Z" fill="white"/>
<path d="M143.562 91.792H136V105.681H150.12V97.656" stroke="white" stroke-width="1.8"/>
<path d="M138.315 95.8022L142.944 101.202L152.744 89.3193" stroke="white" stroke-width="1.8"/>
</g>
</g>
<defs>
<clipPath id="clip0_12135_18462">
<rect width="800" height="109" fill="white"/>
</clipPath>
</defs>
</svg>
