<svg width="800" height="109" viewBox="0 0 800 109" fill="none" xmlns="http://www.w3.org/2000/svg">
<g clip-path="url(#clip0_12134_18410)">
<mask id="mask0_12134_18410" style="mask-type:luminance" maskUnits="userSpaceOnUse" x="0" y="0" width="800" height="109">
<path d="M800 0H0V109H800V0Z" fill="white"/>
</mask>
<g mask="url(#mask0_12134_18410)">
<path d="M159.358 48.252H183.83V52.28H159.358V48.252ZM159.358 38.79H164.412V50.076H159.358V38.79ZM155.558 56.156H187.364V60.222H155.558V56.156ZM162.778 57.6H167.832V72.382H162.778V57.6ZM175.052 57.6H180.106V72.382H175.052V57.6ZM197.621 49.088H202.675V55.586H197.621V49.088ZM210.009 49.088H215.025V55.586H210.009V49.088ZM206.399 37.802C214.151 37.802 219.129 40.424 219.129 44.68C219.129 48.974 214.151 51.596 206.399 51.596C198.647 51.596 193.669 48.974 193.669 44.68C193.669 40.424 198.647 37.802 206.399 37.802ZM206.399 41.716C201.573 41.716 198.875 42.666 198.875 44.68C198.875 46.694 201.573 47.682 206.399 47.682C211.187 47.682 213.923 46.694 213.923 44.68C213.923 42.666 211.187 41.716 206.399 41.716ZM190.477 54.484H222.283V58.474H190.477V54.484ZM194.011 60.868H218.445V72.382H213.391V64.858H194.011V60.868ZM239.494 50.152H245.27V54.218H239.494V50.152ZM250.856 37.194H255.682V72.382H250.856V37.194ZM243.674 37.726H248.424V70.786H243.674V37.726ZM233.338 39.664C238.012 39.664 241.014 44.49 241.014 52.432C241.014 60.412 238.012 65.238 233.338 65.238C228.702 65.238 225.738 60.412 225.738 52.432C225.738 44.49 228.702 39.664 233.338 39.664ZM233.338 44.414C231.438 44.414 230.336 47.074 230.336 52.432C230.336 57.828 231.438 60.45 233.338 60.45C235.314 60.45 236.416 57.828 236.416 52.432C236.416 47.074 235.314 44.414 233.338 44.414ZM278.137 48.176H287.409V52.242H278.137V48.176ZM268.561 39.892H272.665V44.984C272.665 53.838 269.663 62.008 263.051 65.314L259.897 61.248C265.901 58.474 268.561 51.672 268.561 44.984V39.892ZM269.625 39.892H273.653V44.984C273.653 51.672 276.199 58.094 282.013 60.678L279.011 64.706C272.399 61.514 269.625 53.762 269.625 44.984V39.892ZM284.901 37.156H289.917V72.458H284.901V37.156ZM304.143 51.482H335.949V55.434H304.143V51.482ZM307.791 57.334H332.111V66.378H312.807V69.494H307.829V62.882H327.133V61.058H307.791V57.334ZM307.829 68.392H333.023V72.154H307.829V68.392ZM317.025 39.93H321.433V40.842C321.433 45.858 316.455 49.848 307.107 50.494L305.549 46.694C313.567 46.162 317.025 43.35 317.025 40.842V39.93ZM318.659 39.93H323.067V40.842C323.067 43.388 326.525 46.162 334.581 46.694L333.023 50.494C323.675 49.848 318.659 45.896 318.659 40.842V39.93ZM307.031 38.296H333.099V42.21H307.031V38.296ZM363.268 37.194H368.36V54.864H363.268V37.194ZM352.21 38.486H357.758C357.758 48.138 352.476 53.344 341.38 55.586L339.632 51.52C349.018 49.848 352.21 46.048 352.21 41.374V38.486ZM341.494 38.486H355.782V42.514H341.494V38.486ZM344.876 56.308H368.36V65.846H350.006V69.684H344.952V62.236H363.268V60.184H344.876V56.308ZM344.952 68.126H369.234V72.04H344.952V68.126ZM396.114 38.22H400.56V39.854C400.56 46.618 395.24 52.356 386.006 53.724L384.03 49.658C392.124 48.594 396.114 43.996 396.114 39.854V38.22ZM397.064 38.22H401.472V39.854C401.472 43.958 405.5 48.594 413.556 49.658L411.618 53.724C402.384 52.356 397.064 46.618 397.064 39.854V38.22ZM396.152 59.5H401.168V72.382H396.152V59.5ZM382.89 56.308H414.696V60.412H382.89V56.308ZM434.508 58.55H438.308V59.728C438.308 65.048 435.952 69.912 430.442 71.888L427.972 68.202C432.57 66.644 434.508 63.148 434.508 59.728V58.55ZM435.8 58.55H439.41V59.728C439.41 63.148 441.12 66.72 445.414 68.506L443.4 72.23C437.814 70.14 435.8 64.896 435.8 59.728V58.55ZM447.352 58.55H450.962V59.728C450.962 64.592 448.872 70.064 443.4 72.23L441.31 68.506C445.604 66.568 447.352 62.844 447.352 59.728V58.55ZM448.53 58.55H452.33V59.728C452.33 63.376 454.23 66.758 458.866 68.202L456.396 71.888C450.81 69.988 448.53 65.276 448.53 59.728V58.55ZM450.772 37.232H455.864V57.106H450.772V37.232ZM436.712 39.018C442.184 39.018 446.25 42.514 446.25 47.454C446.25 52.356 442.184 55.852 436.712 55.852C431.24 55.852 427.136 52.356 427.136 47.454C427.136 42.514 431.24 39.018 436.712 39.018ZM436.712 43.198C434.052 43.198 432.076 44.756 432.076 47.454C432.076 50.114 434.052 51.672 436.712 51.672C439.372 51.672 441.31 50.114 441.31 47.454C441.31 44.756 439.372 43.198 436.712 43.198ZM465.513 46.694H489.909V50.684H465.513V46.694ZM461.561 54.332H493.443V58.36H461.561V54.332ZM465.513 38.448H470.529V48.67H465.513V38.448ZM465.171 67.594H490.099V71.622H465.171V67.594ZM465.171 61.172H470.225V68.658H465.171V61.172ZM505.556 63.582H541.59V68.226H505.556V63.582ZM520.649 54.767H526.368V64.657H520.649V54.767ZM509.297 35.933H537.634V55.498H509.297V35.933ZM532.044 40.491H514.93V50.983H532.044V40.491ZM545.113 52.66H581.147V57.218H545.113V52.66ZM549.456 44.877H577.191V49.478H549.456V44.877ZM549.456 34.471H576.847V38.986H555.175V46.554H549.456V34.471ZM549.37 67.538H577.449V72.139H549.37V67.538ZM549.37 60.228H555.046V68.699H549.37V60.228ZM622.184 33.009H627.903V59.411H622.184V33.009ZM615.347 43.544H623.001V48.145H615.347V43.544ZM609.069 36.019H615.089C615.089 46.898 609.456 53.993 597.459 57.777L595.051 53.305C605.027 50.338 609.069 45.221 609.069 38.513V36.019ZM597.115 36.019H613.283V40.577H597.115V36.019ZM611.649 56.487H616.508V57.82C616.508 65.13 611.133 71.064 601.415 72.741L599.222 68.226C607.65 66.936 611.649 62.335 611.649 57.82V56.487ZM612.466 56.487H617.325V57.82C617.325 62.292 621.281 66.893 629.752 68.183L627.473 72.698C617.755 71.064 612.466 65.13 612.466 57.82V56.487ZM642.783 37.7273L642.188 59.6243H636.599L635.988 37.7273H642.783ZM639.393 69.397C638.386 69.397 637.52 69.0407 636.797 68.3281C636.075 67.6054 635.718 66.7401 635.729 65.7322C635.718 64.7346 636.075 63.8795 636.797 63.1669C637.52 62.4543 638.386 62.098 639.393 62.098C640.36 62.098 641.21 62.4543 641.943 63.1669C642.676 63.8795 643.048 64.7346 643.058 65.7322C643.048 66.4041 642.87 67.02 642.524 67.5799C642.188 68.1296 641.745 68.5724 641.195 68.9084C640.646 69.2341 640.045 69.397 639.393 69.397Z" fill="white"/>
<path d="M160.235 4.2245C163.095 4.2245 165.116 6.869 165.116 10.997C165.116 15.1465 163.095 17.791 160.235 17.791C157.376 17.791 155.355 15.1465 155.355 10.997C155.355 6.869 157.376 4.2245 160.235 4.2245ZM160.235 5.837C158.343 5.837 157.053 7.858 157.053 10.997C157.053 14.1575 158.343 16.2215 160.235 16.2215C162.106 16.2215 163.417 14.1575 163.417 10.997C163.417 7.858 162.106 5.837 160.235 5.837ZM169.523 7.6215H173.092V9.1265H169.523V7.6215ZM169.523 13.405H173.092V14.91H169.523V13.405ZM168.212 2.741H170.018V22.177H168.212V2.741ZM177.046 4.0095H189.194V5.45H177.046V4.0095ZM174.853 12.3515H192.419V13.8135H174.853V12.3515ZM182.701 13.319H184.485V22.1985H182.701V13.319ZM188.355 4.0095H190.097V5.6865C190.097 7.7075 190.097 9.9865 189.366 13.276L187.603 13.0395C188.355 9.9005 188.355 7.643 188.355 5.6865V4.0095ZM197.893 18.3622L197.771 19.1868C197.685 19.767 197.552 20.388 197.374 21.0497C197.201 21.7114 197.02 22.3349 196.832 22.9203C196.644 23.5056 196.488 23.9714 196.366 24.3175H194.992C195.058 23.9917 195.145 23.5616 195.252 23.0272C195.358 22.4927 195.465 21.8946 195.572 21.233C195.684 20.5763 195.776 19.9045 195.847 19.2173L195.939 18.3622H197.893ZM209.091 8.1375H222.27V9.5995H209.091V8.1375ZM209.091 3.128H210.854V8.7825H209.091V3.128ZM206.704 12.158H224.27V13.5985H206.704V12.158ZM214.595 8.9115H216.379V12.803H214.595V8.9115ZM215.455 15.082C219.604 15.082 222.12 16.3505 222.12 18.6295C222.12 20.8655 219.604 22.134 215.455 22.134C211.305 22.134 208.79 20.8655 208.79 18.6295C208.79 16.3505 211.305 15.082 215.455 15.082ZM215.455 16.4795C212.423 16.4795 210.596 17.2535 210.596 18.6295C210.596 19.9625 212.423 20.7365 215.455 20.7365C218.508 20.7365 220.314 19.9625 220.314 18.6295C220.314 17.2535 218.508 16.4795 215.455 16.4795ZM228.676 4.0095H240.823V5.45H228.676V4.0095ZM226.483 12.3515H244.048V13.8135H226.483V12.3515ZM234.33 13.319H236.115V22.1985H234.33V13.319ZM239.985 4.0095H241.726V5.6865C241.726 7.7075 241.726 9.9865 240.995 13.276L239.232 13.0395C239.985 9.9005 239.985 7.643 239.985 5.6865V4.0095ZM249.523 18.3622L249.401 19.1868C249.314 19.767 249.182 20.388 249.004 21.0497C248.83 21.7114 248.65 22.3349 248.461 22.9203C248.273 23.5056 248.118 23.9714 247.996 24.3175H246.621C246.688 23.9917 246.774 23.5616 246.881 23.0272C246.988 22.4927 247.095 21.8946 247.202 21.233C247.314 20.5763 247.405 19.9045 247.477 19.2173L247.568 18.3622H249.523ZM272.997 2.7625H274.695V13.62H272.997V2.7625ZM267.364 7.8365H270.438V9.2985H267.364V7.8365ZM269.514 3.0635H271.191V13.4695H269.514V3.0635ZM261.881 14.48H274.695V18.8015H263.687V20.9945H261.924V17.5115H272.975V15.813H261.881V14.48ZM261.924 20.6075H275.405V21.962H261.924V20.6075ZM258.226 4.633H267.858V6.0305H258.226V4.633ZM263.021 6.8045C265.407 6.8045 267.063 8.0515 267.063 10.008C267.063 11.9645 265.407 13.233 263.021 13.233C260.677 13.233 259 11.9645 259 10.008C259 8.0515 260.677 6.8045 263.021 6.8045ZM263.021 8.0945C261.58 8.0945 260.591 8.847 260.591 10.008C260.591 11.169 261.58 11.943 263.021 11.943C264.504 11.943 265.472 11.169 265.472 10.008C265.472 8.847 264.504 8.0945 263.021 8.0945ZM262.139 2.698H263.924V5.665H262.139V2.698ZM292.259 2.7195H294.044V22.1985H292.259V2.7195ZM279.23 16.028H280.843C284.089 16.028 286.992 15.899 290.432 15.34L290.625 16.802C287.099 17.3825 284.175 17.5115 280.843 17.5115H279.23V16.028ZM279.187 4.547H288.174V11.4915H281.015V16.587H279.23V10.0295H286.368V6.009H279.187V4.547ZM297.89 11.9H315.434V13.3405H297.89V11.9ZM305.028 9.277H306.813V12.8245H305.028V9.277ZM299.954 3.3215H312.467V4.762H299.954V3.3215ZM311.5 3.3215H313.263V4.805C313.263 6.396 313.263 8.3095 312.768 10.8465L311.005 10.7175C311.5 8.202 311.5 6.396 311.5 4.805V3.3215ZM312.016 6.5465V7.8795L299.739 8.46L299.481 6.9335L312.016 6.5465ZM300.105 14.609H301.868V16.716H311.414V14.609H313.177V21.919H300.105V14.609ZM301.868 18.1135V20.4785H311.414V18.1135H301.868ZM331.902 2.7195H333.665V22.1985H331.902V2.7195ZM327.86 10.051H332.16V11.5345H327.86V10.051ZM318.55 16.0495H320.034C323.689 16.0495 325.989 15.985 328.72 15.469L328.892 16.931C326.097 17.4255 323.732 17.533 320.034 17.533H318.55V16.0495ZM318.55 4.504H327.537V5.9875H320.313V16.5655H318.55V4.504ZM319.862 9.965H326.699V11.4055H319.862V9.965ZM340.709 18.3622L340.587 19.1868C340.5 19.767 340.368 20.388 340.19 21.0497C340.016 21.7114 339.836 22.3349 339.647 22.9203C339.459 23.5056 339.304 23.9714 339.182 24.3175H337.807C337.874 23.9917 337.96 23.5616 338.067 23.0272C338.174 22.4927 338.281 21.8946 338.388 21.233C338.5 20.5763 338.591 19.9045 338.663 19.2173L338.754 18.3622H340.709ZM354.314 5.5145H355.733V8.675C355.733 12.717 353.261 16.888 350.229 18.436L349.197 17.017C351.971 15.6625 354.314 11.9645 354.314 8.675V5.5145ZM354.637 5.5145H356.056V8.675C356.056 11.7495 358.249 15.211 361.065 16.544L360.055 17.963C356.98 16.4365 354.637 12.5235 354.637 8.675V5.5145ZM349.885 4.719H360.356V6.224H349.885V4.719ZM362.656 2.741H364.462V22.177H362.656V2.741ZM364.032 10.5885H367.644V12.0935H364.032V10.5885ZM379.597 8.0945H384.499V9.5565H379.597V8.0945ZM383.488 2.7625H385.273V16.9955H383.488V2.7625ZM372.867 20.285H385.81V21.747H372.867V20.285ZM372.867 15.7485H374.652V21.0375H372.867V15.7485ZM374.243 5.1705H375.705V6.74C375.705 10.266 373.512 13.319 370.266 14.523L369.341 13.104C372.244 12.072 374.243 9.492 374.243 6.74V5.1705ZM374.587 5.1705H376.028V6.7185C376.028 9.234 377.92 11.685 380.736 12.674L379.833 14.0715C376.673 12.932 374.587 10.008 374.587 6.7185V5.1705ZM369.9 4.332H380.285V5.7725H369.9V4.332ZM403.266 2.741H405.051V22.177H403.266V2.741ZM398.73 10.524H404.062V12.0075H398.73V10.524ZM397.031 4.8265H398.794C398.794 10.3735 396.494 15.2755 390.044 18.5005L389.055 17.103C394.709 14.3295 397.031 10.2015 397.031 5.1275V4.8265ZM389.893 4.8265H397.977V6.2885H389.893V4.8265ZM412.116 18.3622L411.994 19.1868C411.908 19.767 411.775 20.388 411.597 21.0497C411.424 21.7114 411.244 22.3349 411.055 22.9203C410.867 23.5056 410.712 23.9714 410.589 24.3175H409.215C409.281 23.9917 409.368 23.5616 409.475 23.0272C409.582 22.4927 409.689 21.8946 409.795 21.233C409.907 20.5763 409.999 19.9045 410.07 19.2173L410.162 18.3622H412.116ZM428.711 4.074H430.259V5.5575C430.259 9.793 426.324 13.0825 422.433 13.964L421.637 12.4805C425.056 11.8355 428.711 8.8685 428.711 5.5575V4.074ZM429.033 4.074H430.581V5.5575C430.581 8.89 434.258 11.8355 437.655 12.4805L436.859 13.964C432.989 13.0825 429.033 9.8145 429.033 5.5575V4.074ZM420.928 18.092H438.536V19.554H420.928V18.092ZM447.5 5.0415H449.177C449.177 10.0725 447.672 14.867 441.802 18.1565L440.792 16.8665C446.016 14.0285 447.5 9.922 447.5 5.321V5.0415ZM441.738 5.0415H448.166V6.5035H441.738V5.0415ZM447.285 9.535V10.868L441.05 11.513L440.77 9.965L447.285 9.535ZM447.672 10.4165H452.144V11.857H447.672V10.4165ZM455.498 2.741H457.218V22.177H455.498V2.741ZM451.477 3.2355H453.154V21.188H451.477V3.2355ZM474.588 2.7195H476.373V22.1985H474.588V2.7195ZM466.117 4.2245C468.998 4.2245 471.062 6.869 471.062 10.997C471.062 15.1465 468.998 17.791 466.117 17.791C463.258 17.791 461.194 15.1465 461.194 10.997C461.194 6.869 463.258 4.2245 466.117 4.2245ZM466.117 5.837C464.225 5.837 462.892 7.858 462.892 10.997C462.892 14.1575 464.225 16.2215 466.117 16.2215C468.031 16.2215 469.342 14.1575 469.342 10.997C469.342 7.858 468.031 5.837 466.117 5.837ZM482.52 13.2115H495.872V14.652H482.52V13.2115ZM480.263 18.1995H497.871V19.683H480.263V18.1995ZM482.52 4.3965H495.657V5.8585H484.326V13.663H482.52V4.3965ZM483.746 8.7395H495.248V10.1585H483.746V8.7395ZM509.013 16.1023V16.0107C509.024 15.0385 509.125 14.2648 509.319 13.6896C509.512 13.1145 509.787 12.6487 510.143 12.2924C510.5 11.9361 510.927 11.6078 511.426 11.3075C511.726 11.1243 511.996 10.908 512.235 10.6586C512.475 10.4041 512.663 10.1114 512.8 9.78054C512.943 9.44969 513.014 9.08321 513.014 8.68111C513.014 8.18229 512.897 7.74964 512.663 7.38317C512.429 7.01669 512.116 6.7342 511.724 6.53569C511.332 6.33718 510.897 6.23793 510.418 6.23793C510.001 6.23793 509.599 6.32445 509.212 6.49751C508.825 6.67057 508.502 6.94289 508.242 7.31445C507.983 7.68602 507.833 8.17211 507.792 8.77273H505.868C505.909 7.90743 506.132 7.16684 506.54 6.55096C506.952 5.93507 507.494 5.46425 508.166 5.13849C508.843 4.81274 509.594 4.64986 510.418 4.64986C511.314 4.64986 512.093 4.82801 512.755 5.1843C513.421 5.5406 513.935 6.02924 514.297 6.65021C514.663 7.27119 514.847 7.97869 514.847 8.77273C514.847 9.33262 514.76 9.83907 514.587 10.2921C514.419 10.7451 514.175 11.1497 513.854 11.506C513.538 11.8623 513.157 12.1779 512.709 12.4528C512.261 12.7327 511.902 13.0279 511.632 13.3384C511.362 13.6438 511.166 14.0078 511.044 14.4302C510.922 14.8527 510.856 15.3795 510.846 16.0107V16.1023H509.013ZM509.991 20.6222C509.614 20.6222 509.291 20.4873 509.021 20.2175C508.751 19.9477 508.616 19.6245 508.616 19.2479C508.616 18.8712 508.751 18.548 509.021 18.2782C509.291 18.0085 509.614 17.8736 509.991 17.8736C510.367 17.8736 510.691 18.0085 510.96 18.2782C511.23 18.548 511.365 18.8712 511.365 19.2479C511.365 19.4973 511.301 19.7263 511.174 19.935C511.052 20.1437 510.887 20.3117 510.678 20.4389C510.474 20.5611 510.245 20.6222 509.991 20.6222ZM519.941 4.86364L519.788 16.1023H518.017L517.864 4.86364H519.941ZM518.903 20.6222C518.526 20.6222 518.203 20.4873 517.933 20.2175C517.663 19.9477 517.528 19.6245 517.528 19.2479C517.528 18.8712 517.663 18.548 517.933 18.2782C518.203 18.0085 518.526 17.8736 518.903 17.8736C519.279 17.8736 519.602 18.0085 519.872 18.2782C520.142 18.548 520.277 18.8712 520.277 19.2479C520.277 19.4973 520.213 19.7263 520.086 19.935C519.964 20.1437 519.798 20.3117 519.59 20.4389C519.386 20.5611 519.157 20.6222 518.903 20.6222Z" fill="white"/>
<path d="M181.872 93.056H185.04V94.298H181.872V93.056ZM181.872 98.006H185.04V99.248H181.872V98.006ZM187.776 89.132H189.216V105.404H187.776V89.132ZM184.59 89.474H185.994V104.594H184.59V89.474ZM179.046 90.482C181.152 90.482 182.52 92.66 182.52 96.152C182.52 99.644 181.152 101.822 179.046 101.822C176.94 101.822 175.59 99.644 175.59 96.152C175.59 92.66 176.94 90.482 179.046 90.482ZM179.046 91.868C177.768 91.868 176.94 93.524 176.94 96.152C176.94 98.78 177.768 100.436 179.046 100.436C180.342 100.436 181.152 98.78 181.152 96.152C181.152 93.524 180.342 91.868 179.046 91.868ZM204.119 91.598H206.945V92.858H204.119V91.598ZM204.119 95.09H206.945V96.332H204.119V95.09ZM203.075 89.132H204.569V98.798H203.075V89.132ZM194.003 99.572H204.569V105.404H203.075V100.778H194.003V99.572ZM196.487 90.086C198.935 90.086 200.735 91.67 200.735 93.956C200.735 96.224 198.935 97.79 196.487 97.79C194.039 97.79 192.239 96.224 192.239 93.956C192.239 91.67 194.039 90.086 196.487 90.086ZM196.487 91.364C194.867 91.364 193.697 92.408 193.697 93.956C193.697 95.486 194.867 96.548 196.487 96.548C198.107 96.548 199.277 95.486 199.277 93.956C199.277 92.408 198.107 91.364 196.487 91.364ZM220.358 90.176H221.924C221.924 94.28 219.044 97.214 214.364 98.528L213.752 97.358C217.874 96.188 220.358 93.83 220.358 90.806V90.176ZM214.598 90.176H221.366V91.382H214.598V90.176ZM216.092 99.41H226.946V105.368H225.452V100.616H216.092V99.41ZM225.452 89.132H226.946V98.69H225.452V89.132ZM221.978 93.398H225.776V94.64H221.978V93.398ZM238.806 93.344H242.478V94.586H238.806V93.344ZM242.01 89.132H243.504V98.834H242.01V89.132ZM238.158 99.32C241.506 99.32 243.576 100.454 243.576 102.362C243.576 104.288 241.506 105.386 238.158 105.386C234.792 105.386 232.722 104.288 232.722 102.362C232.722 100.454 234.792 99.32 238.158 99.32ZM238.158 100.49C235.71 100.49 234.216 101.174 234.216 102.362C234.216 103.532 235.71 104.216 238.158 104.216C240.606 104.216 242.1 103.532 242.1 102.362C242.1 101.174 240.606 100.49 238.158 100.49ZM234.27 90.77H235.494V92.084C235.494 95.09 233.658 97.664 230.958 98.672L230.184 97.484C232.596 96.602 234.27 94.424 234.27 92.084V90.77ZM234.558 90.77H235.764V92.084C235.764 94.19 237.348 96.206 239.706 97.034L238.95 98.222C236.304 97.268 234.558 94.82 234.558 92.084V90.77ZM230.634 90.32H239.328V91.544H230.634V90.32ZM262.817 90.9091V104H261.283L254.15 93.7216H254.022V104H252.437V90.9091H253.971L261.13 101.213H261.258V90.9091H262.817ZM277.035 97.4545C277.035 98.8352 276.785 100.028 276.287 101.034C275.788 102.04 275.104 102.815 274.235 103.361C273.366 103.906 272.373 104.179 271.256 104.179C270.14 104.179 269.147 103.906 268.278 103.361C267.408 102.815 266.724 102.04 266.226 101.034C265.727 100.028 265.478 98.8352 265.478 97.4545C265.478 96.0739 265.727 94.8807 266.226 93.875C266.724 92.8693 267.408 92.0938 268.278 91.5483C269.147 91.0028 270.14 90.7301 271.256 90.7301C272.373 90.7301 273.366 91.0028 274.235 91.5483C275.104 92.0938 275.788 92.8693 276.287 93.875C276.785 94.8807 277.035 96.0739 277.035 97.4545ZM275.501 97.4545C275.501 96.321 275.311 95.3643 274.932 94.5845C274.557 93.8047 274.048 93.2145 273.404 92.8139C272.765 92.4134 272.049 92.2131 271.256 92.2131C270.464 92.2131 269.746 92.4134 269.102 92.8139C268.463 93.2145 267.954 93.8047 267.575 94.5845C267.2 95.3643 267.012 96.321 267.012 97.4545C267.012 98.5881 267.2 99.5447 267.575 100.325C267.954 101.104 268.463 101.695 269.102 102.095C269.746 102.496 270.464 102.696 271.256 102.696C272.049 102.696 272.765 102.496 273.404 102.095C274.048 101.695 274.557 101.104 274.932 100.325C275.311 99.5447 275.501 98.5881 275.501 97.4545ZM295.143 90.9091V104H293.609L286.476 93.7216H286.348V104H284.763V90.9091H286.297L293.456 101.213H293.584V90.9091H295.143ZM309.361 97.4545C309.361 98.8352 309.112 100.028 308.613 101.034C308.114 102.04 307.431 102.815 306.561 103.361C305.692 103.906 304.699 104.179 303.582 104.179C302.466 104.179 301.473 103.906 300.604 103.361C299.734 102.815 299.051 102.04 298.552 101.034C298.053 100.028 297.804 98.8352 297.804 97.4545C297.804 96.0739 298.053 94.8807 298.552 93.875C299.051 92.8693 299.734 92.0938 300.604 91.5483C301.473 91.0028 302.466 90.7301 303.582 90.7301C304.699 90.7301 305.692 91.0028 306.561 91.5483C307.431 92.0938 308.114 92.8693 308.613 93.875C309.112 94.8807 309.361 96.0739 309.361 97.4545ZM307.827 97.4545C307.827 96.321 307.637 95.3643 307.258 94.5845C306.883 93.8047 306.374 93.2145 305.73 92.8139C305.091 92.4134 304.375 92.2131 303.582 92.2131C302.79 92.2131 302.072 92.4134 301.428 92.8139C300.789 93.2145 300.28 93.8047 299.901 94.5845C299.526 95.3643 299.338 96.321 299.338 97.4545C299.338 98.5881 299.526 99.5447 299.901 100.325C300.28 101.104 300.789 101.695 301.428 102.095C302.072 102.496 302.79 102.696 303.582 102.696C304.375 102.696 305.091 102.496 305.73 102.095C306.374 101.695 306.883 101.104 307.258 100.325C307.637 99.5447 307.827 98.5881 307.827 97.4545ZM313.816 90.9091L313.688 100.318H312.205L312.078 90.9091H313.816ZM312.947 104.102C312.632 104.102 312.361 103.989 312.135 103.763C311.909 103.538 311.796 103.267 311.796 102.952C311.796 102.636 311.909 102.366 312.135 102.14C312.361 101.914 312.632 101.801 312.947 101.801C313.262 101.801 313.533 101.914 313.759 102.14C313.984 102.366 314.097 102.636 314.097 102.952C314.097 103.161 314.044 103.352 313.938 103.527C313.835 103.702 313.697 103.842 313.522 103.949C313.352 104.051 313.16 104.102 312.947 104.102ZM322.097 100.256H323.375C326.381 100.256 328.451 100.184 330.899 99.752L331.061 100.976C328.541 101.408 326.417 101.498 323.375 101.498H322.097V100.256ZM322.097 90.608H329.675V91.85H323.591V100.688H322.097V90.608ZM323.213 95.162H329.315V96.368H323.213V95.162ZM332.411 89.132H333.923V105.404H332.411V89.132ZM333.563 95.666H336.587V96.926H333.563V95.666ZM338.89 90.716H346.378V101.318H338.89V90.716ZM344.92 91.922H340.348V100.112H344.92V91.922ZM349.78 89.114H351.274V105.422H349.78V89.114ZM361.047 90.248H362.343V91.49C362.343 95.036 359.049 97.79 355.791 98.528L355.125 97.286C357.987 96.746 361.047 94.262 361.047 91.49V90.248ZM361.317 90.248H362.613V91.49C362.613 94.28 365.691 96.746 368.535 97.286L367.869 98.528C364.629 97.79 361.317 95.054 361.317 91.49V90.248ZM354.531 101.984H369.273V103.208H354.531V101.984ZM377.677 95.45H380.755V96.692H377.677V95.45ZM383.473 89.132H384.913V105.404H383.473V89.132ZM380.251 89.474H381.673V104.594H380.251V89.474ZM374.743 90.482C376.849 90.482 378.217 92.66 378.217 96.152C378.217 99.644 376.849 101.822 374.743 101.822C372.637 101.822 371.287 99.644 371.287 96.152C371.287 92.66 372.637 90.482 374.743 90.482ZM374.743 91.868C373.465 91.868 372.655 93.524 372.655 96.152C372.655 98.78 373.465 100.436 374.743 100.436C376.039 100.436 376.849 98.78 376.849 96.152C376.849 93.524 376.039 91.868 374.743 91.868ZM395.766 94.64H400.302V95.864H395.766V94.64ZM391.842 90.536H393.066V93.434C393.066 97.088 391.14 100.58 388.566 101.966L387.612 100.778C390.006 99.59 391.842 96.458 391.842 93.434V90.536ZM392.13 90.536H393.336V93.434C393.336 96.404 395.172 99.356 397.53 100.472L396.648 101.678C394.02 100.346 392.13 96.998 392.13 93.434V90.536ZM399.564 89.114H401.04V105.422H399.564V89.114ZM420.393 89.15H421.887V101.354H420.393V89.15ZM421.419 94.478H424.299V95.738H421.419V94.478ZM409.305 91.112H418.917V92.318H409.305V91.112ZM414.111 93.218C416.415 93.218 417.999 94.424 417.999 96.26C417.999 98.078 416.415 99.284 414.111 99.284C411.789 99.284 410.205 98.078 410.205 96.26C410.205 94.424 411.789 93.218 414.111 93.218ZM414.111 94.388C412.635 94.388 411.627 95.126 411.627 96.26C411.627 97.376 412.635 98.114 414.111 98.114C415.569 98.114 416.577 97.376 416.577 96.26C416.577 95.126 415.569 94.388 414.111 94.388ZM413.355 89.132H414.849V91.742H413.355V89.132ZM411.753 103.82H422.625V105.044H411.753V103.82ZM411.753 100.382H413.247V104.342H411.753V100.382ZM438.558 93.722H443.238V94.946H438.558V93.722ZM442.77 89.15H444.264V101.192H442.77V89.15ZM433.806 103.82H444.66V105.044H433.806V103.82ZM433.806 100.022H435.3V104.45H433.806V100.022ZM431.682 90.212H433.158V93.092H437.568V90.212H439.026V98.42H431.682V90.212ZM433.158 94.262V97.196H437.568V94.262H433.158ZM454.037 95.45H457.115V96.692H454.037V95.45ZM459.833 89.132H461.273V105.404H459.833V89.132ZM456.611 89.474H458.033V104.594H456.611V89.474ZM451.103 90.482C453.209 90.482 454.577 92.66 454.577 96.152C454.577 99.644 453.209 101.822 451.103 101.822C448.997 101.822 447.647 99.644 447.647 96.152C447.647 92.66 448.997 90.482 451.103 90.482ZM451.103 91.868C449.825 91.868 449.015 93.524 449.015 96.152C449.015 98.78 449.825 100.436 451.103 100.436C452.399 100.436 453.209 98.78 453.209 96.152C453.209 93.524 452.399 91.868 451.103 91.868ZM466.482 90.9091L466.354 100.318H464.871L464.744 90.9091H466.482ZM465.613 104.102C465.298 104.102 465.027 103.989 464.801 103.763C464.575 103.538 464.462 103.267 464.462 102.952C464.462 102.636 464.575 102.366 464.801 102.14C465.027 101.914 465.298 101.801 465.613 101.801C465.928 101.801 466.199 101.914 466.425 102.14C466.651 102.366 466.763 102.636 466.763 102.952C466.763 103.161 466.71 103.352 466.604 103.527C466.501 103.702 466.363 103.842 466.188 103.949C466.018 104.051 465.826 104.102 465.613 104.102Z" fill="white"/>
<path d="M162.562 91.792H155V105.681H169.12V97.656" stroke="white" stroke-width="1.8"/>
<path d="M157.315 95.8022L161.944 101.202L171.744 89.3193" stroke="white" stroke-width="1.8"/>
</g>
</g>
<defs>
<clipPath id="clip0_12134_18410">
<rect width="800" height="109" fill="white"/>
</clipPath>
</defs>
</svg>
