<svg width="800" height="109" viewBox="0 0 800 109" fill="none" xmlns="http://www.w3.org/2000/svg">
<g clip-path="url(#clip0_12133_18371)">
<mask id="mask0_12133_18371" style="mask-type:luminance" maskUnits="userSpaceOnUse" x="0" y="0" width="800" height="109">
<path d="M800 0H0V109H800V0Z" fill="white"/>
</mask>
<g mask="url(#mask0_12133_18371)">
<path d="M105.544 36.781H112.166V41.382H105.544V36.781ZM105.544 49.079H112.166V53.723H105.544V49.079ZM118.487 28.009H123.948V67.827H118.487V28.009ZM110.532 28.611H115.864V66.021H110.532V28.611ZM98.664 30.804C103.953 30.804 107.35 36.265 107.35 45.252C107.35 54.282 103.953 59.743 98.664 59.743C93.418 59.743 90.064 54.282 90.064 45.252C90.064 36.265 93.418 30.804 98.664 30.804ZM98.664 36.179C96.471 36.179 95.181 39.189 95.181 45.252C95.181 51.358 96.471 54.325 98.664 54.325C100.9 54.325 102.19 51.358 102.19 45.252C102.19 39.189 100.9 36.179 98.664 36.179ZM144.37 28.224H149.186V28.955C149.186 35.62 143.209 40.866 132.932 41.984L131.04 37.684C140.027 36.781 144.37 32.825 144.37 28.955V28.224ZM145.359 28.224H150.218V28.955C150.218 32.825 154.561 36.781 163.505 37.684L161.613 41.984C151.336 40.866 145.359 35.62 145.359 28.955V28.224ZM144.37 47.101H150.089V52.648H144.37V47.101ZM129.277 43.618H165.268V48.09H129.277V43.618ZM133.405 50.67H160.925V60.99H139.081V64.43H133.448V57.034H155.292V54.927H133.405V50.67ZM133.448 63.269H161.957V67.569H133.448V63.269ZM196.439 28.009H202.158V67.827H196.439V28.009ZM188.742 43.274H199.191V47.918H188.742V43.274ZM183.367 32.137H189C189 44.22 185.173 54.067 171.37 60.99L168.36 56.518C179.626 50.928 183.367 43.704 183.367 33.169V32.137ZM170.252 32.137H186.377V36.652H170.252V32.137ZM217.248 32.438H221.935V34.932C221.935 42.543 218.366 49.38 210.669 51.917L207.831 47.402C214.453 45.209 217.248 40.006 217.248 34.932V32.438ZM218.409 32.438H223.053V34.932C223.053 39.576 225.719 44.134 232.126 46.069L229.417 50.541C221.849 48.262 218.409 42.027 218.409 34.932V32.438ZM209.336 30.675H230.836V35.233H209.336V30.675ZM234.018 28.009H239.737V51.616H234.018V28.009ZM238.146 37.168H245.026V41.855H238.146V37.168ZM226.751 52.347C235.007 52.347 240.21 55.228 240.21 60.087C240.21 64.946 235.007 67.827 226.751 67.827C218.452 67.827 213.249 64.946 213.249 60.087C213.249 55.228 218.452 52.347 226.751 52.347ZM226.751 56.819C221.677 56.819 218.925 57.851 218.925 60.087C218.925 62.323 221.677 63.441 226.751 63.441C231.825 63.441 234.534 62.323 234.534 60.087C234.534 57.851 231.825 56.819 226.751 56.819ZM260.761 30.632C267.039 30.632 271.726 34.717 271.726 40.436C271.726 46.198 267.039 50.283 260.761 50.283C254.526 50.283 249.753 46.198 249.753 40.436C249.753 34.717 254.526 30.632 260.761 30.632ZM260.761 35.534C257.708 35.534 255.386 37.34 255.386 40.436C255.386 43.575 257.708 45.381 260.761 45.381C263.814 45.381 266.136 43.575 266.136 40.436C266.136 37.34 263.814 35.534 260.761 35.534ZM275.467 27.966H281.186V67.913H275.467V27.966ZM248.807 59.829L248.119 55.228C255.128 55.228 264.889 55.142 273.274 53.895L273.704 58.023C265.061 59.743 255.687 59.829 248.807 59.829ZM298.659 31.75H317.708V58.152H298.659V31.75ZM312.075 36.222H304.292V53.637H312.075V36.222ZM322.911 28.009H328.673V67.827H322.911V28.009ZM327.383 43.016H334.435V47.746H327.383V43.016ZM351.804 30.288H356.792V33.169C356.792 41.812 350.643 49.466 340.323 51.487L337.872 46.757C346.859 45.209 351.804 38.888 351.804 33.169V30.288ZM352.965 30.288H357.91V33.169C357.91 39.017 362.812 45.209 371.842 46.757L369.391 51.487C359.071 49.466 352.965 41.941 352.965 33.169V30.288ZM337.055 58.324H373.089V62.968H337.055V58.324ZM404.304 27.966H409.98V67.913H404.304V27.966ZM397.467 41.984H404.949V46.628H397.467V41.984ZM378.375 54.282H381.557C388.136 54.282 393.038 54.196 398.671 53.293L399.187 57.851C393.425 58.754 388.265 58.926 381.557 58.926H378.375V54.282ZM378.375 31.32H396.822V35.964H384.051V55.744H378.375V31.32ZM382.761 42.414H395.446V46.886H382.761V42.414ZM443.559 28.009H449.321V67.827H443.559V28.009ZM417.114 31.664H439.474V36.222H417.114V31.664ZM416.598 58.754L416.039 54.067C423.22 54.067 432.809 53.938 441.022 52.949L441.323 57.12C432.938 58.539 423.779 58.711 416.598 58.754ZM420.554 35.233H426.101V55.314H420.554V35.233ZM430.487 35.233H436.034V55.314H430.487V35.233ZM470.474 30.288H475.462V33.169C475.462 41.812 469.313 49.466 458.993 51.487L456.542 46.757C465.529 45.209 470.474 38.888 470.474 33.169V30.288ZM471.635 30.288H476.58V33.169C476.58 39.017 481.482 45.209 490.512 46.757L488.061 51.487C477.741 49.466 471.635 41.941 471.635 33.169V30.288ZM455.725 58.324H491.759V62.968H455.725V58.324ZM495.239 45.854H531.316V50.025H495.239V45.854ZM499.281 52.003H527.016V61.463H505.043V64.86H499.367V57.851H521.383V55.873H499.281V52.003ZM499.367 63.656H528.134V67.526H499.367V63.656ZM499.668 28.697H526.93V38.071H505.387V41.339H499.711V34.502H521.297V32.524H499.668V28.697ZM499.711 40.135H527.661V44.005H499.711V40.135ZM549.305 42.07H576.653V46.628H549.305V42.07ZM544.747 50.541H580.824V55.142H544.747V50.541ZM559.797 53.207H565.473V67.784H559.797V53.207ZM549.305 30.116H576.266V34.674H555.153V44.263H549.305V30.116ZM598.857 38.716H626.377V43.188H598.857V38.716ZM598.857 29.084H604.576V40.436H598.857V29.084ZM594.299 46.671H630.333V51.186H594.299V46.671ZM609.908 49.853H615.627V58.152H609.908V49.853ZM598.513 62.581H626.592V67.139H598.513V62.581ZM598.513 55.142H604.189V65.032H598.513V55.142ZM651.83 29.987C660.215 29.987 666.708 34.588 666.708 41.511C666.708 48.477 660.215 53.035 651.83 53.035C643.445 53.035 636.952 48.477 636.952 41.511C636.952 34.588 643.445 29.987 651.83 29.987ZM651.83 34.631C646.412 34.631 642.542 37.211 642.542 41.511C642.542 45.768 646.412 48.348 651.83 48.348C657.248 48.348 661.118 45.768 661.118 41.511C661.118 37.211 657.248 34.631 651.83 34.631ZM633.856 58.367H669.89V63.054H633.856V58.367ZM673.412 58.797H709.446V63.441H673.412V58.797ZM688.505 51.272H694.224V60.689H688.505V51.272ZM677.454 30.589H705.404V43.833H683.216V50.541H677.54V39.361H699.728V35.104H677.454V30.589ZM677.54 48.262H706.307V52.863H677.54V48.262Z" fill="white"/>
<path d="M91.2895 9.2985H104.577V10.7605H91.2895V9.2985ZM91.2895 3.73H93.074V9.9865H91.2895V3.73ZM89.075 13.534H106.641V15.0175H89.075V13.534ZM93.59 14.093H95.3745V22.177H93.59V14.093ZM100.32 14.093H102.083V22.177H100.32V14.093ZM113.175 9.4705H114.938V13.147H113.175V9.4705ZM120.313 9.4705H122.076V13.147H120.313V9.4705ZM117.625 3.1495C121.818 3.1495 124.462 4.5255 124.462 6.8475C124.462 9.191 121.818 10.567 117.625 10.567C113.411 10.567 110.788 9.191 110.788 6.8475C110.788 4.5255 113.411 3.1495 117.625 3.1495ZM117.625 4.5685C114.529 4.5685 112.616 5.407 112.616 6.8475C112.616 8.288 114.529 9.148 117.625 9.148C120.7 9.148 122.635 8.288 122.635 6.8475C122.635 5.407 120.7 4.5685 117.625 4.5685ZM108.832 12.631H126.397V14.093H108.832V12.631ZM110.788 15.899H124.226V22.177H122.441V17.361H110.788V15.899ZM135.775 4.633H144.719V17.2965H135.775V4.633ZM142.978 6.0735H137.517V15.856H142.978V6.0735ZM148.783 2.7195H150.567V22.1985H148.783V2.7195ZM162.326 2.827H163.831V3.5365C163.831 6.8475 160.047 9.062 156.005 9.578L155.403 8.202C158.929 7.815 162.326 5.9445 162.326 3.5365V2.827ZM162.627 2.827H164.132V3.5365C164.132 5.9445 167.529 7.815 171.055 8.202L170.431 9.578C166.411 9.062 162.627 6.8475 162.627 3.5365V2.827ZM162.326 11.9H164.089V14.867H162.326V11.9ZM154.435 10.8465H172.001V12.287H154.435V10.8465ZM156.564 14.2005H169.765V18.6295H158.37V20.973H156.607V17.3395H168.002V15.5765H156.564V14.2005ZM156.607 20.5645H170.345V21.962H156.607V20.5645ZM175.267 4.246H183.867V5.708H175.267V4.246ZM178.191 8.589H179.954V13.448H178.191V8.589ZM183.158 4.246H184.921V5.278C184.921 6.5465 184.921 8.4815 184.405 11.04L182.663 10.8465C183.158 8.288 183.158 6.525 183.158 5.278V4.246ZM187.565 2.741H189.35V17.3825H187.565V2.741ZM188.533 9.062H192.123V10.5455H188.533V9.062ZM177.073 20.285H189.973V21.747H177.073V20.285ZM177.073 16.028H178.836V20.7365H177.073V16.028ZM174.278 14.2865L174.085 12.8245C177.546 12.8245 182.319 12.7385 186.254 12.201L186.383 13.491C182.341 14.2005 177.697 14.2865 174.278 14.2865ZM208.768 14.996C212.896 14.996 215.54 16.3505 215.54 18.5865C215.54 20.801 212.896 22.134 208.768 22.134C204.618 22.134 201.995 20.801 201.995 18.5865C201.995 16.3505 204.618 14.996 208.768 14.996ZM208.768 16.3935C205.715 16.3935 203.758 17.232 203.758 18.5865C203.758 19.9195 205.715 20.758 208.768 20.758C211.821 20.758 213.756 19.9195 213.756 18.5865C213.756 17.232 211.821 16.3935 208.768 16.3935ZM202.146 3.7085H214.659V5.1705H202.146V3.7085ZM200.06 11.7925H217.604V13.233H200.06V11.7925ZM207.263 8.0515H209.026V12.201H207.263V8.0515ZM213.627 3.7085H215.368V5.364C215.368 6.9335 215.368 8.503 214.852 10.524L213.089 10.309C213.627 8.3095 213.627 6.8905 213.627 5.364V3.7085ZM224.891 3.6655H226.375V5.5575C226.375 9.234 224.182 12.3945 220.892 13.6415L219.989 12.2225C222.935 11.1475 224.891 8.46 224.891 5.5575V3.6655ZM225.214 3.6655H226.676V5.5575C226.676 8.3525 228.675 10.868 231.556 11.8785L230.653 13.276C227.407 12.0935 225.214 9.1265 225.214 5.5575V3.6655ZM222.784 15.426H235.77V22.177H233.964V16.888H222.784V15.426ZM233.964 2.741H235.77V14.437H233.964V2.741ZM245.9 4.8265H256.715V6.2885H245.9V4.8265ZM245.621 17.3825L245.406 15.856C248.91 15.856 253.619 15.813 257.618 15.3185L257.725 16.6515C253.662 17.318 249.039 17.3825 245.621 17.3825ZM247.986 5.923H249.727V16.2645H247.986V5.923ZM252.888 5.923H254.629V16.2645H252.888V5.923ZM258.8 2.741H260.606V22.177H258.8V2.741ZM260.176 10.5025H263.788V12.0075H260.176V10.5025ZM267.7 13.2115H281.051V14.652H267.7V13.2115ZM265.442 18.1995H283.051V19.683H265.442V18.1995ZM267.7 4.3965H280.836V5.8585H269.506V13.663H267.7V4.3965ZM268.925 8.7395H280.428V10.1585H268.925V8.7395ZM299.454 2.741H301.238V22.22H299.454V2.741ZM293.477 9.148H300.034V10.61H293.477V9.148ZM286.274 4.9125H288.037V16.9525H286.274V4.9125ZM286.274 16.0065H287.779C290.789 16.0065 293.477 15.8345 296.465 15.211L296.68 16.716C293.584 17.318 290.854 17.5115 287.779 17.5115H286.274V16.0065Z" fill="white"/>
<path d="M110.31 90.716H117.798V101.318H110.31V90.716ZM116.34 91.922H111.768V100.112H116.34V91.922ZM121.2 89.114H122.694V105.422H121.2V89.114ZM132.539 89.204H133.799V89.798C133.799 92.57 130.631 94.424 127.247 94.856L126.743 93.704C129.695 93.38 132.539 91.814 132.539 89.798V89.204ZM132.791 89.204H134.051V89.798C134.051 91.814 136.895 93.38 139.847 93.704L139.325 94.856C135.959 94.424 132.791 92.57 132.791 89.798V89.204ZM132.539 96.8H134.015V99.284H132.539V96.8ZM125.933 95.918H140.639V97.124H125.933V95.918ZM127.715 98.726H138.767V102.434H129.227V104.396H127.751V101.354H137.291V99.878H127.715V98.726ZM127.751 104.054H139.253V105.224H127.751V104.054ZM143.373 90.392H150.573V91.616H143.373V90.392ZM145.821 94.028H147.297V98.096H145.821V94.028ZM149.979 90.392H151.455V91.256C151.455 92.318 151.455 93.938 151.023 96.08L149.565 95.918C149.979 93.776 149.979 92.3 149.979 91.256V90.392ZM153.669 89.132H155.163V101.39H153.669V89.132ZM154.479 94.424H157.485V95.666H154.479V94.424ZM144.885 103.82H155.685V105.044H144.885V103.82ZM144.885 100.256H146.361V104.198H144.885V100.256ZM142.545 98.798L142.383 97.574C145.281 97.574 149.277 97.502 152.571 97.052L152.679 98.132C149.295 98.726 145.407 98.798 142.545 98.798ZM159.788 90.914H167.15V92.12H159.788V90.914ZM162.326 95.558H163.802V101.066H162.326V95.558ZM166.538 90.914H167.996V91.778C167.996 93.11 167.996 95.234 167.528 98.258L166.052 98.114C166.538 95.18 166.538 93.092 166.538 91.778V90.914ZM170.048 89.132H171.524V105.404H170.048V89.132ZM171.128 95.936H174.134V97.196H171.128V95.936ZM159.068 101.858L158.888 100.598C161.84 100.598 165.764 100.544 169.058 100.13L169.13 101.228C165.764 101.768 161.948 101.84 159.068 101.858ZM180.9 90.302C183.438 90.302 185.256 91.868 185.256 94.136C185.256 96.422 183.438 97.988 180.9 97.988C178.362 97.988 176.526 96.422 176.526 94.136C176.526 91.868 178.362 90.302 180.9 90.302ZM180.9 91.598C179.208 91.598 177.984 92.624 177.984 94.136C177.984 95.648 179.208 96.692 180.9 96.692C182.574 96.692 183.798 95.648 183.798 94.136C183.798 92.624 182.574 91.598 180.9 91.598ZM187.38 89.114H188.874V105.422H187.38V89.114ZM175.914 101.858L175.698 100.616C178.668 100.616 182.772 100.598 186.318 100.04L186.444 101.138C182.79 101.84 178.812 101.858 175.914 101.858ZM201.567 90.806H202.809V92.102C202.809 95.09 200.973 97.592 198.237 98.564L197.463 97.394C199.911 96.53 201.567 94.406 201.567 92.102V90.806ZM201.855 90.806H203.097V92.102C203.097 94.298 204.789 96.278 207.201 97.088L206.427 98.258C203.727 97.34 201.855 94.946 201.855 92.102V90.806ZM209.073 89.132H210.585V98.978H209.073V89.132ZM199.713 99.842H210.585V105.404H209.073V101.066H199.713V99.842ZM197.859 90.266H206.769V91.472H197.859V90.266ZM222.482 93.074H226.1V94.298H222.482V93.074ZM225.686 89.132H227.18V97.97H225.686V89.132ZM216.758 98.762H218.234V100.742H225.704V98.762H227.18V105.188H216.758V98.762ZM218.234 101.948V103.964H225.704V101.948H218.234ZM217.946 90.41H219.17V91.742C219.17 94.694 217.334 97.25 214.616 98.258L213.842 97.052C216.272 96.206 217.946 94.046 217.946 91.742V90.41ZM218.234 90.41H219.44V91.724C219.44 93.83 221.024 95.864 223.382 96.692L222.626 97.862C219.98 96.908 218.234 94.46 218.234 91.724V90.41ZM214.31 90.104H223.004V91.31H214.31V90.104ZM241.727 93.65H245.345V94.856H241.727V93.65ZM241.601 97.736H245.309V98.942H241.601V97.736ZM247.811 89.132H249.251V105.404H247.811V89.132ZM244.553 89.546H245.957V104.576H244.553V89.546ZM240.917 91.184H242.357C242.357 95.45 240.647 99.284 236.273 101.894L235.409 100.832C239.207 98.528 240.917 95.288 240.917 91.454V91.184ZM236.129 91.184H241.511V92.408H236.129V91.184ZM264.154 91.598H266.98V92.858H264.154V91.598ZM264.154 95.09H266.98V96.332H264.154V95.09ZM263.11 89.132H264.604V98.798H263.11V89.132ZM254.038 99.572H264.604V105.404H263.11V100.778H254.038V99.572ZM256.522 90.086C258.97 90.086 260.77 91.67 260.77 93.956C260.77 96.224 258.97 97.79 256.522 97.79C254.074 97.79 252.274 96.224 252.274 93.956C252.274 91.67 254.074 90.086 256.522 90.086ZM256.522 91.364C254.902 91.364 253.732 92.408 253.732 93.956C253.732 95.486 254.902 96.548 256.522 96.548C258.142 96.548 259.312 95.486 259.312 93.956C259.312 92.408 258.142 91.364 256.522 91.364ZM275.888 90.158C279.272 90.158 281.792 91.958 281.792 94.658C281.792 97.376 279.272 99.158 275.888 99.158C272.504 99.158 269.966 97.376 269.966 94.658C269.966 91.958 272.504 90.158 275.888 90.158ZM275.888 91.382C273.314 91.382 271.406 92.696 271.406 94.658C271.406 96.602 273.314 97.934 275.888 97.934C278.462 97.934 280.37 96.602 280.37 94.658C280.37 92.696 278.462 91.382 275.888 91.382ZM268.544 102.002H283.286V103.262H268.544V102.002ZM285.103 102.164H299.845V103.406H285.103V102.164ZM291.691 98.672H293.185V102.686H291.691V98.672ZM286.885 90.338H298.027V95.27H288.415V98.528H286.939V94.064H296.551V91.544H286.885V90.338ZM286.939 97.898H298.405V99.122H286.939V97.898ZM307.57 90.176H315.148V97.25H307.57V90.176ZM313.708 91.364H309.01V96.044H313.708V91.364ZM318.55 89.15H320.062V98.438H318.55V89.15ZM309.55 99.374H320.17V100.598H311.044V104.63H309.55V99.374ZM309.55 103.982H320.494V105.188H309.55V103.982ZM324.831 90.752H335.307V91.994H324.831V90.752ZM323.283 101.894H337.989V103.136H323.283V101.894ZM328.989 96.08H330.483V102.506H328.989V96.08ZM334.749 90.752H336.225V92.372C336.225 94.388 336.225 96.62 335.631 99.914L334.137 99.716C334.749 96.602 334.749 94.316 334.749 92.372V90.752ZM348.882 90.536H350.106V93.452C350.106 97.052 348.162 100.562 345.588 101.93L344.67 100.742C347.028 99.554 348.882 96.422 348.882 93.452V90.536ZM349.152 90.536H350.358V93.452C350.358 96.314 352.176 99.284 354.48 100.436L353.562 101.624C351.042 100.274 349.152 96.944 349.152 93.452V90.536ZM355.902 89.132H357.414V105.404H355.902V89.132ZM357.054 95.72H360.078V96.98H357.054V95.72ZM365.08 94.64H366.556V97.718H365.08V94.64ZM371.056 94.64H372.532V97.718H371.056V94.64ZM361.444 97.178H376.15V98.384H361.444V97.178ZM368.788 99.608C372.28 99.608 374.368 100.634 374.368 102.488C374.368 104.342 372.28 105.386 368.788 105.386C365.296 105.386 363.208 104.342 363.208 102.488C363.208 100.634 365.296 99.608 368.788 99.608ZM368.788 100.76C366.25 100.76 364.72 101.39 364.72 102.488C364.72 103.604 366.25 104.216 368.788 104.216C371.344 104.216 372.856 103.604 372.856 102.488C372.856 101.39 371.344 100.76 368.788 100.76ZM368.806 89.42C372.334 89.42 374.53 90.554 374.53 92.462C374.53 94.352 372.334 95.468 368.806 95.468C365.26 95.468 363.082 94.352 363.082 92.462C363.082 90.554 365.26 89.42 368.806 89.42ZM368.806 90.59C366.214 90.59 364.612 91.274 364.612 92.462C364.612 93.632 366.214 94.316 368.806 94.316C371.398 94.316 373 93.632 373 92.462C373 91.274 371.398 90.59 368.806 90.59ZM389.037 89.132H390.531V105.404H389.037V89.132ZM390.171 95.81H393.195V97.07H390.171V95.81ZM377.931 91.724H387.525V92.948H377.931V91.724ZM382.791 94.298C385.095 94.298 386.751 95.846 386.751 98.042C386.751 100.238 385.095 101.786 382.791 101.786C380.505 101.786 378.831 100.238 378.831 98.042C378.831 95.846 380.505 94.298 382.791 94.298ZM382.791 95.54C381.315 95.54 380.253 96.566 380.253 98.042C380.253 99.5 381.315 100.544 382.791 100.544C384.267 100.544 385.329 99.5 385.329 98.042C385.329 96.566 384.267 95.54 382.791 95.54ZM382.017 89.33H383.511V92.282H382.017V89.33ZM396.56 94.01H407.612V95.234H396.56V94.01ZM394.562 97.412H409.322V98.636H394.562V97.412ZM396.56 89.726H398.036V94.622H396.56V89.726ZM396.452 103.784H407.702V105.008H396.452V103.784ZM396.452 100.256H397.928V104.108H396.452V100.256ZM416.885 100.256H418.163C421.169 100.256 423.239 100.184 425.687 99.752L425.849 100.976C423.329 101.408 421.205 101.498 418.163 101.498H416.885V100.256ZM416.885 90.608H424.463V91.85H418.379V100.688H416.885V90.608ZM418.001 95.162H424.103V96.368H418.001V95.162ZM427.199 89.132H428.711V105.404H427.199V89.132ZM428.351 95.666H431.375V96.926H428.351V95.666ZM433.677 90.716H441.165V101.318H433.677V90.716ZM439.707 91.922H435.135V100.112H439.707V91.922ZM444.567 89.114H446.061V105.422H444.567V89.114ZM455.834 90.248H457.13V91.49C457.13 95.036 453.836 97.79 450.578 98.528L449.912 97.286C452.774 96.746 455.834 94.262 455.834 91.49V90.248ZM456.104 90.248H457.4V91.49C457.4 94.28 460.478 96.746 463.322 97.286L462.656 98.528C459.416 97.79 456.104 95.054 456.104 91.49V90.248ZM449.318 101.984H464.06V103.208H449.318V101.984Z" fill="white"/>
<path d="M96.562 91.792H89V105.681H103.12V97.656" stroke="white" stroke-width="1.8"/>
<path d="M91.3154 95.8022L95.9443 101.202L105.744 89.3193" stroke="white" stroke-width="1.8"/>
</g>
</g>
<defs>
<clipPath id="clip0_12133_18371">
<rect width="800" height="109" fill="white"/>
</clipPath>
</defs>
</svg>
