<svg width="345" height="47" viewBox="0 0 345 47" fill="none" xmlns="http://www.w3.org/2000/svg">
<g clip-path="url(#clip0_12137_18864)">
<mask id="mask0_12137_18864" style="mask-type:luminance" maskUnits="userSpaceOnUse" x="0" y="0" width="345" height="47">
<path d="M345 0H0V47H345V0Z" fill="white"/>
</mask>
<g mask="url(#mask0_12137_18864)">
<path d="M89.007 18.958H90.459V24.898H89.007V18.958ZM90.052 21.29H91.812V22.5H90.052V21.29ZM87.115 25.03C89.205 25.03 90.58 25.833 90.58 27.098C90.58 28.374 89.205 29.155 87.115 29.155C85.025 29.155 83.65 28.374 83.65 27.098C83.65 25.833 85.025 25.03 87.115 25.03ZM87.115 26.196C85.839 26.196 85.102 26.493 85.102 27.098C85.102 27.703 85.839 28.011 87.115 28.011C88.391 28.011 89.128 27.703 89.128 27.098C89.128 26.493 88.391 26.196 87.115 26.196ZM82.847 19.53H84.31V23.71H82.847V19.53ZM82.847 23.094H83.705C85.091 23.094 86.598 23.006 88.204 22.698L88.369 23.864C86.708 24.205 85.146 24.293 83.705 24.293H82.847V23.094ZM92.8561 19.794H97.7071V24.711H92.8561V19.794ZM96.2661 20.949H94.2971V23.556H96.2661V20.949ZM99.1151 18.958H100.578V26.383H99.1151V18.958ZM100.16 21.895H101.931V23.094H100.16V21.895ZM94.0111 27.802H100.941V28.968H94.0111V27.802ZM94.0111 25.657H95.4741V28.385H94.0111V25.657ZM105.956 19.629C107.562 19.629 108.761 20.674 108.761 22.137C108.761 23.611 107.562 24.656 105.956 24.656C104.361 24.656 103.14 23.611 103.14 22.137C103.14 20.674 104.361 19.629 105.956 19.629ZM105.956 20.883C105.175 20.883 104.581 21.345 104.581 22.137C104.581 22.94 105.175 23.402 105.956 23.402C106.737 23.402 107.331 22.94 107.331 22.137C107.331 21.345 106.737 20.883 105.956 20.883ZM109.718 18.947H111.181V29.166H109.718V18.947ZM102.898 27.098L102.722 25.921C104.515 25.921 107.012 25.899 109.157 25.58L109.267 26.636C107.056 27.076 104.658 27.098 102.898 27.098ZM116.421 23.501H123.582V24.667H116.421V23.501ZM115.354 26.801H124.572V28H115.354V26.801ZM119.215 24.029H120.678V27.186H119.215V24.029ZM116.421 19.651H123.505V20.828H117.884V24.007H116.421V19.651ZM127.948 19.739H129.136V21.224C129.136 23.842 128.234 26.207 126.21 27.142L125.341 25.932C127.112 25.162 127.948 23.204 127.948 21.224V19.739ZM128.234 19.739H129.422V21.224C129.422 23.105 130.225 24.975 131.963 25.723L131.105 26.9C129.136 25.998 128.234 23.732 128.234 21.224V19.739ZM132.447 18.947H133.921V29.166H132.447V18.947ZM139.965 19.64H141.12V20.85C141.12 22.687 140.438 24.491 138.81 25.272L137.985 24.15C139.415 23.457 139.965 22.093 139.965 20.85V19.64ZM140.229 19.64H141.373V20.85C141.373 22.038 141.901 23.226 143.254 23.842L142.462 24.942C140.867 24.249 140.229 22.621 140.229 20.85V19.64ZM145.421 18.969H146.807V26.592H145.421V18.969ZM144.211 21.884H145.828V23.061H144.211V21.884ZM143.265 19.145H144.629V26.295H143.265V19.145ZM139.954 27.802H147.071V28.968H139.954V27.802ZM139.954 25.69H141.417V28.528H139.954V25.69ZM148.258 26.768H157.476V27.967H148.258V26.768ZM148.962 19.838H156.717V21.004H148.962V19.838ZM149.006 24.051H156.684V25.228H149.006V24.051ZM150.348 20.916H151.811V24.161H150.348V20.916ZM153.879 20.916H155.331V24.161H153.879V20.916ZM164.922 18.969H166.385V26.471H164.922V18.969ZM165.967 21.884H167.738V23.094H165.967V21.884ZM159.851 27.802H166.759V28.968H159.851V27.802ZM159.851 25.866H161.325V28.187H159.851V25.866ZM158.729 23.842H159.587C161.589 23.842 162.821 23.787 164.229 23.523L164.361 24.7C162.931 24.964 161.644 25.008 159.587 25.008H158.729V23.842ZM158.718 19.574H163.371V22.786H160.181V24.26H158.729V21.708H161.93V20.74H158.718V19.574ZM170.971 19.739H172.159V21.224C172.159 23.842 171.257 26.207 169.233 27.142L168.364 25.932C170.135 25.162 170.971 23.204 170.971 21.224V19.739ZM171.257 19.739H172.445V21.224C172.445 23.105 173.248 24.975 174.986 25.723L174.128 26.9C172.159 25.998 171.257 23.732 171.257 21.224V19.739ZM175.47 18.947H176.944V29.166H175.47V18.947ZM182.388 19.541H183.664V20.278C183.664 22.489 182.091 24.447 179.451 24.964L178.824 23.754C181.123 23.358 182.388 21.741 182.388 20.278V19.541ZM182.685 19.541H183.95V20.278C183.95 21.774 185.204 23.358 187.514 23.754L186.887 24.964C184.247 24.447 182.685 22.522 182.685 20.278V19.541ZM178.615 26.713H187.833V27.901H178.615V26.713ZM189.768 19.805H196.181V20.971H189.768V19.805ZM188.723 26.801H197.93V27.978H188.723V26.801ZM195.598 19.805H197.039V20.696C197.039 21.928 197.05 23.369 196.577 25.58L195.136 25.426C195.598 23.358 195.598 21.873 195.598 20.696V19.805ZM195.862 22.258V23.358L189.647 23.699L189.449 22.456L195.862 22.258ZM191.99 24.359H193.453V27.23H191.99V24.359ZM200.875 27.0713L200.832 27.501C200.798 27.8447 200.733 28.1872 200.637 28.5283C200.543 28.8721 200.444 29.1833 200.34 29.4619C200.238 29.7406 200.156 29.9593 200.094 30.1182H199.016C199.055 29.9645 199.108 29.7497 199.176 29.4736C199.243 29.2002 199.307 28.8929 199.367 28.5518C199.427 28.2106 199.465 27.863 199.48 27.5088L199.5 27.0713H200.875ZM202.863 17.999H204.566V19.572H206.997V17.999H208.713V23.836H202.863V17.999ZM204.566 20.898V22.484H206.997V20.898H204.566ZM204.046 25.032H212.262V29.322H210.52V26.397H204.046V25.032ZM210.52 17.284H212.262V24.473H210.52V17.284ZM216.915 18.129C218.514 18.129 219.541 19.78 219.541 22.497C219.541 25.227 218.514 26.878 216.915 26.878C215.329 26.878 214.315 25.227 214.315 22.497C214.315 19.78 215.329 18.129 216.915 18.129ZM216.915 19.754C216.265 19.754 215.888 20.664 215.888 22.497C215.888 24.343 216.265 25.24 216.915 25.24C217.578 25.24 217.955 24.343 217.955 22.497C217.955 20.664 217.578 19.754 216.915 19.754ZM222.908 17.284H224.559V29.322H222.908V17.284ZM221.465 21.873H223.454V23.264H221.465V21.873ZM220.269 17.466H221.894V28.776H220.269V17.466ZM227.119 17.609H236.089V18.896H227.119V17.609ZM227.21 20.43H235.998V21.717H227.21V20.43ZM228.653 18.116H230.382V21.262H228.653V18.116ZM232.826 18.116H234.555V21.262H232.826V18.116ZM226.17 22.341H237.051V23.693H226.17V22.341ZM227.418 24.356H235.738V27.346H229.134V28.464H227.431V26.189H234.035V25.591H227.418V24.356ZM227.431 27.983H236.05V29.244H227.431V27.983ZM246.826 17.284H248.477V29.322H246.826V17.284ZM245.383 21.899H247.372V23.303H245.383V21.899ZM244.291 17.492H245.903V28.75H244.291V17.492ZM238.22 18.636H243.719V20.014H238.22V18.636ZM238.194 26.592L238.012 25.188C239.507 25.188 242.016 25.149 243.81 24.902L243.927 26.15C242.081 26.553 239.663 26.592 238.194 26.592ZM238.974 19.52H240.521V25.552H238.974V19.52ZM241.418 19.52H242.965V25.552H241.418V19.52ZM254.56 17.973H256.068V18.844C256.068 21.457 254.209 23.771 251.089 24.382L250.348 22.952C253.065 22.484 254.56 20.573 254.56 18.844V17.973ZM254.911 17.973H256.406V18.844C256.406 20.612 257.888 22.484 260.618 22.952L259.877 24.382C256.757 23.771 254.911 21.496 254.911 18.844V17.973ZM250.101 26.449H260.995V27.853H250.101V26.449Z" fill="white"/>
<path d="M87.676 3.39004H88.257V8.13604H87.676V3.39004ZM88.075 5.46204H89.195V5.95204H88.075V5.46204ZM83.364 4.15304H87.102V4.62204H83.364V4.15304ZM85.233 4.97204C86.129 4.97204 86.745 5.44104 86.745 6.15504C86.745 6.86204 86.129 7.33104 85.233 7.33104C84.33 7.33104 83.714 6.86204 83.714 6.15504C83.714 5.44104 84.33 4.97204 85.233 4.97204ZM85.233 5.42704C84.659 5.42704 84.267 5.71404 84.267 6.15504C84.267 6.58904 84.659 6.87604 85.233 6.87604C85.8 6.87604 86.192 6.58904 86.192 6.15504C86.192 5.71404 85.8 5.42704 85.233 5.42704ZM84.939 3.38304H85.52V4.39804H84.939V3.38304ZM84.316 9.09504H88.544V9.57104H84.316V9.09504ZM84.316 7.75804H84.897V9.29804H84.316V7.75804ZM96.3782 3.38304H96.9592V8.09404H96.3782V3.38304ZM91.9402 3.89404H95.2722V4.37004H91.9402V3.89404ZM91.8352 7.14204L91.7722 6.64504C92.8082 6.64504 94.2852 6.63104 95.4682 6.49104L95.5032 6.92504C94.2852 7.12104 92.8642 7.14204 91.8352 7.14204ZM92.5702 4.30004H93.1302V6.72904H92.5702V4.30004ZM94.0822 4.30004H94.6422V6.72904H94.0822V4.30004ZM95.3282 4.58004H96.6862V5.05604H95.3282V4.58004ZM95.3282 5.79104H96.6862V6.26704H95.3282V5.79104ZM92.9132 9.09504H97.1272V9.57104H92.9132V9.09504ZM92.9132 7.70904H93.4942V9.39604H92.9132V7.70904ZM100.249 3.83804C101.236 3.83804 101.943 4.44704 101.943 5.32904C101.943 6.21804 101.236 6.82704 100.249 6.82704C99.2617 6.82704 98.5477 6.21804 98.5477 5.32904C98.5477 4.44704 99.2617 3.83804 100.249 3.83804ZM100.249 4.34204C99.5907 4.34204 99.1147 4.74104 99.1147 5.32904C99.1147 5.91704 99.5907 6.32304 100.249 6.32304C100.9 6.32304 101.376 5.91704 101.376 5.32904C101.376 4.74104 100.9 4.34204 100.249 4.34204ZM102.769 3.37604H103.35V9.71804H102.769V3.37604ZM98.3097 8.33204L98.2257 7.84904C99.3807 7.84904 100.977 7.84204 102.356 7.62504L102.405 8.05204C100.984 8.32504 99.4367 8.33204 98.3097 8.33204ZM109.483 4.29304H111.415V4.76904H109.483V4.29304ZM109.483 5.74904H111.415V6.23204H109.483V5.74904ZM108.328 3.75404C109.259 3.75404 109.959 4.38404 109.959 5.25904C109.959 6.14104 109.259 6.76404 108.328 6.76404C107.39 6.76404 106.697 6.14104 106.697 5.25904C106.697 4.38404 107.39 3.75404 108.328 3.75404ZM108.328 4.25104C107.712 4.25104 107.257 4.66404 107.257 5.25904C107.257 5.85404 107.712 6.26704 108.328 6.26704C108.944 6.26704 109.406 5.85404 109.406 5.25904C109.406 4.66404 108.944 4.25104 108.328 4.25104ZM111.226 3.38304H111.807V7.12804H111.226V3.38304ZM109.728 7.27504C111.03 7.27504 111.835 7.72304 111.835 8.48604C111.835 9.25604 111.03 9.69704 109.728 9.69704C108.419 9.69704 107.614 9.25604 107.614 8.48604C107.614 7.72304 108.419 7.27504 109.728 7.27504ZM109.728 7.73704C108.769 7.73704 108.188 8.01704 108.188 8.48604C108.188 8.96204 108.769 9.24204 109.728 9.24204C110.68 9.24204 111.261 8.96204 111.261 8.48604C111.261 8.01704 110.68 7.73704 109.728 7.73704ZM114.683 7.15604H115.264V8.18504H114.683V7.15604ZM117.343 3.38304H117.924V9.71104H117.343V3.38304ZM117.735 6.07104H118.904V6.56104H117.735V6.07104ZM113.052 8.50704L112.968 8.02404C114.102 8.02404 115.649 8.01004 116.958 7.82104L117.007 8.25504C115.642 8.50004 114.158 8.50704 113.052 8.50704ZM113.073 4.14604H116.86V4.61504H113.073V4.14604ZM114.97 4.98604C115.852 4.98604 116.461 5.44804 116.461 6.15504C116.461 6.86904 115.852 7.32404 114.97 7.32404C114.088 7.32404 113.486 6.86904 113.486 6.15504C113.486 5.44804 114.088 4.98604 114.97 4.98604ZM114.97 5.43404C114.403 5.43404 114.032 5.72104 114.032 6.15504C114.032 6.58904 114.403 6.87604 114.97 6.87604C115.537 6.87604 115.915 6.58904 115.915 6.15504C115.915 5.72104 115.537 5.43404 114.97 5.43404ZM114.683 3.39004H115.264V4.46104H114.683V3.39004ZM123.811 3.38304H124.392V6.76404H123.811V3.38304ZM124.231 4.84604H125.33V5.32904H124.231V4.84604ZM122.061 3.82404H122.705C122.705 5.42004 121.592 6.45604 119.737 6.88304L119.506 6.41404C121.172 6.04304 122.061 5.19604 122.061 4.13904V3.82404ZM119.765 3.82404H122.397V4.30004H119.765V3.82404ZM120.409 7.05104H124.427V7.49204H120.983V9.41004H120.409V7.05104ZM120.409 9.18604H124.567V9.62704H120.409V9.18604ZM120.787 8.10804H124.35V8.53504H120.787V8.10804ZM125.917 6.70804H131.636V7.18404H125.917V6.70804ZM126.659 9.09504H131.006V9.57104H126.659V9.09504ZM126.659 7.73704H127.24V9.24204H126.659V7.73704ZM128.78 3.59304C130.131 3.59304 131.006 4.06904 131.006 4.86004C131.006 5.64404 130.131 6.12004 128.78 6.12004C127.422 6.12004 126.554 5.64404 126.554 4.86004C126.554 4.06904 127.422 3.59304 128.78 3.59304ZM128.78 4.06904C127.786 4.06904 127.149 4.36304 127.149 4.86004C127.149 5.35704 127.786 5.65104 128.78 5.65104C129.774 5.65104 130.411 5.35704 130.411 4.86004C130.411 4.36304 129.774 4.06904 128.78 4.06904ZM137.181 4.79004H139.092V5.27304H137.181V4.79004ZM137.181 6.79204H139.092V7.27504H137.181V6.79204ZM136.019 3.86604C136.936 3.86604 137.594 4.72704 137.594 6.07104C137.594 7.42204 136.936 8.28304 136.019 8.28304C135.095 8.28304 134.444 7.42204 134.444 6.07104C134.444 4.72704 135.095 3.86604 136.019 3.86604ZM136.019 4.39104C135.41 4.39104 134.99 5.04904 134.99 6.07104C134.99 7.10004 135.41 7.77204 136.019 7.77204C136.628 7.77204 137.048 7.10004 137.048 6.07104C137.048 5.04904 136.628 4.39104 136.019 4.39104ZM138.966 3.37604H139.54V9.71804H138.966V3.37604ZM145.546 3.38304H146.099V7.38704H145.546V3.38304ZM144.517 5.09804H145.714V5.58104H144.517V5.09804ZM144.195 3.50904H144.741V7.16304H144.195V3.50904ZM140.737 4.13904H143.943V4.60104H140.737V4.13904ZM142.347 4.92304C143.138 4.92304 143.691 5.35704 143.691 6.00804C143.691 6.66604 143.138 7.09304 142.347 7.09304C141.549 7.09304 140.996 6.66604 140.996 6.00804C140.996 5.35704 141.549 4.92304 142.347 4.92304ZM142.347 5.35704C141.85 5.35704 141.514 5.61604 141.514 6.00804C141.514 6.40704 141.85 6.65904 142.347 6.65904C142.837 6.65904 143.173 6.40704 143.173 6.00804C143.173 5.61604 142.837 5.35704 142.347 5.35704ZM142.06 3.43204H142.627V4.39804H142.06V3.43204ZM144.027 7.49904C145.343 7.49904 146.134 7.89104 146.134 8.59804C146.134 9.29804 145.343 9.69704 144.027 9.69704C142.697 9.69704 141.913 9.29804 141.913 8.59804C141.913 7.89104 142.697 7.49904 144.027 7.49904ZM144.027 7.94704C143.054 7.94704 142.487 8.17804 142.487 8.59804C142.487 9.01804 143.054 9.25604 144.027 9.25604C144.986 9.25604 145.56 9.01804 145.56 8.59804C145.56 8.17804 144.986 7.94704 144.027 7.94704Z" fill="white"/>
<path d="M93.319 40.8288H93.865V42.1028H93.319V40.8288ZM93.319 38.7618H93.7545V38.8918C93.7545 39.9188 93.085 40.7118 92.097 41.0238L91.85 40.6013C92.721 40.3413 93.319 39.6848 93.319 38.8918V38.7618ZM93.423 38.7618H93.8585V38.8918C93.8585 39.6523 94.476 40.2893 95.3405 40.5428L95.0935 40.9588C94.1055 40.6663 93.423 39.8863 93.423 38.8918V38.7618ZM91.9865 38.4888H95.217V38.9243H91.9865V38.4888ZM93.319 37.7608H93.865V38.6773H93.319V37.7608ZM95.8865 37.7153H96.426V43.6043H95.8865V37.7153ZM91.746 42.3953L91.668 41.9403C92.7405 41.9403 94.2225 41.9338 95.503 41.7388L95.5485 42.1353C94.229 42.3823 92.7925 42.3888 91.746 42.3953ZM102.087 37.7218H102.607V43.5978H102.087V37.7218ZM101.093 40.0748H102.224V40.5233H101.093V40.0748ZM100.755 37.8518H101.262V43.2988H100.755V37.8518ZM97.8295 41.6998H98.213C99.071 41.6998 99.656 41.6673 100.339 41.5243L100.391 41.9728C99.6885 42.1223 99.097 42.1483 98.213 42.1483H97.8295V41.6998ZM97.8295 38.4368H100.014V38.8788H98.3625V41.9013H97.8295V38.4368ZM105.483 42.1214V41.6505L107.56 38.3635H107.902V39.093H107.671L106.101 41.5766V41.6135H108.899V42.1214H105.483ZM107.708 43.0908V41.9782V41.759V38.3635H108.253V43.0908H107.708ZM111.306 43.1555C110.958 43.1555 110.662 43.0608 110.417 42.8715C110.172 42.6807 109.985 42.4045 109.856 42.0429C109.727 41.6797 109.662 41.2412 109.662 40.7272C109.662 40.2163 109.727 39.78 109.856 39.4184C109.987 39.0552 110.175 38.7783 110.419 38.5874C110.666 38.3951 110.961 38.2989 111.306 38.2989C111.65 38.2989 111.945 38.3951 112.19 38.5874C112.436 38.7783 112.624 39.0552 112.753 39.4184C112.884 39.78 112.949 40.2163 112.949 40.7272C112.949 41.2412 112.885 41.6797 112.755 42.0429C112.626 42.4045 112.439 42.6807 112.194 42.8715C111.95 43.0608 111.654 43.1555 111.306 43.1555ZM111.306 42.6476C111.65 42.6476 111.918 42.4814 112.109 42.1491C112.3 41.8167 112.395 41.3427 112.395 40.7272C112.395 40.3179 112.351 39.9693 112.264 39.6816C112.178 39.3938 112.053 39.1745 111.89 39.0237C111.728 38.8729 111.534 38.7975 111.306 38.7975C110.964 38.7975 110.697 38.966 110.505 39.303C110.312 39.6385 110.216 40.1132 110.216 40.7272C110.216 41.1365 110.259 41.4843 110.346 41.7705C110.432 42.0567 110.556 42.2745 110.717 42.4237C110.88 42.573 111.077 42.6476 111.306 42.6476ZM116.236 42.2045V41.9552C116.236 41.7828 116.272 41.6251 116.342 41.482C116.415 41.3373 116.519 41.2219 116.656 41.1357C116.795 41.048 116.963 41.0042 117.159 41.0042C117.36 41.0042 117.527 41.048 117.663 41.1357C117.798 41.2219 117.9 41.3373 117.97 41.482C118.039 41.6251 118.074 41.7828 118.074 41.9552V42.2045C118.074 42.3768 118.038 42.5353 117.967 42.68C117.898 42.8231 117.795 42.9385 117.658 43.0262C117.523 43.1124 117.356 43.1555 117.159 43.1555C116.959 43.1555 116.791 43.1124 116.654 43.0262C116.517 42.9385 116.413 42.8231 116.342 42.68C116.272 42.5353 116.236 42.3768 116.236 42.2045ZM116.707 41.9552V42.2045C116.707 42.3476 116.741 42.4761 116.809 42.5899C116.876 42.7023 116.993 42.7584 117.159 42.7584C117.321 42.7584 117.435 42.7023 117.501 42.5899C117.569 42.4761 117.603 42.3476 117.603 42.2045V41.9552C117.603 41.8121 117.57 41.6843 117.506 41.572C117.441 41.4581 117.326 41.4012 117.159 41.4012C116.998 41.4012 116.882 41.4581 116.811 41.572C116.742 41.6843 116.707 41.8121 116.707 41.9552ZM113.882 39.4992V39.2499C113.882 39.0776 113.917 38.9198 113.988 38.7767C114.06 38.6321 114.165 38.5167 114.302 38.4305C114.44 38.3428 114.608 38.2989 114.805 38.2989C115.005 38.2989 115.173 38.3428 115.308 38.4305C115.444 38.5167 115.546 38.6321 115.615 38.7767C115.685 38.9198 115.719 39.0776 115.719 39.2499V39.4992C115.719 39.6715 115.684 39.83 115.613 39.9747C115.544 40.1178 115.441 40.2332 115.304 40.3209C115.168 40.4071 115.002 40.4502 114.805 40.4502C114.605 40.4502 114.437 40.4071 114.3 40.3209C114.163 40.2332 114.059 40.1178 113.988 39.9747C113.917 39.83 113.882 39.6715 113.882 39.4992ZM114.353 39.2499V39.4992C114.353 39.6423 114.387 39.7708 114.454 39.8847C114.522 39.997 114.639 40.0532 114.805 40.0532C114.967 40.0532 115.081 39.997 115.147 39.8847C115.214 39.7708 115.248 39.6423 115.248 39.4992V39.2499C115.248 39.1068 115.216 38.9791 115.151 38.8667C115.087 38.7529 114.971 38.6959 114.805 38.6959C114.643 38.6959 114.527 38.7529 114.457 38.8667C114.387 38.9791 114.353 39.1068 114.353 39.2499ZM114.057 43.0908L117.307 38.3635H117.833L114.583 43.0908H114.057ZM124.788 37.7023H125.328V40.9458H124.788V37.7023ZM125.1 39.1128H126.199V39.5678H125.1V39.1128ZM121.597 41.2448H125.328V42.5578H122.143V43.2728H121.61V42.1678H124.801V41.6543H121.597V41.2448ZM121.61 43.1168H125.542V43.5328H121.61V43.1168ZM120.784 38.2483H124.255V38.6708H120.784V38.2483ZM122.52 38.9308C123.365 38.9308 123.924 39.3013 123.924 39.8993C123.924 40.4908 123.365 40.8548 122.52 40.8548C121.662 40.8548 121.109 40.4908 121.109 39.8993C121.109 39.3013 121.662 38.9308 122.52 38.9308ZM122.52 39.3273C121.974 39.3273 121.623 39.5483 121.623 39.8993C121.623 40.2438 121.974 40.4648 122.52 40.4648C123.059 40.4648 123.41 40.2438 123.41 39.8993C123.41 39.5483 123.059 39.3273 122.52 39.3273ZM122.247 37.6568H122.786V38.5408H122.247V37.6568ZM131.021 37.7283H131.567V42.0183H131.021V37.7283ZM127.791 43.0258H131.743V43.4678H127.791V43.0258ZM127.791 41.5763H128.324V43.1753H127.791V41.5763ZM128.415 38.1313C129.292 38.1313 129.942 38.7293 129.942 39.5808C129.942 40.4258 129.292 41.0303 128.415 41.0303C127.537 41.0303 126.881 40.4258 126.881 39.5808C126.881 38.7293 127.537 38.1313 128.415 38.1313ZM128.415 38.5993C127.843 38.5993 127.407 39.0023 127.407 39.5808C127.407 40.1528 127.843 40.5558 128.415 40.5558C128.987 40.5558 129.422 40.1528 129.422 39.5808C129.422 39.0023 128.987 38.5993 128.415 38.5993ZM139.031 37.7218H139.551V43.5978H139.031V37.7218ZM137.952 37.8453H138.459V43.3053H137.952V37.8453ZM137.139 39.7108H138.186V40.1463H137.139V39.7108ZM137.094 41.0563H138.147V41.4918H137.094V41.0563ZM134.546 38.7293H137.438V39.1648H134.546V38.7293ZM135.982 39.5678C136.697 39.5678 137.217 40.1203 137.217 40.9263C137.217 41.7258 136.697 42.2848 135.982 42.2848C135.274 42.2848 134.754 41.7258 134.754 40.9263C134.754 40.1203 135.274 39.5678 135.982 39.5678ZM135.982 40.0228C135.547 40.0228 135.228 40.3933 135.228 40.9263C135.228 41.4528 135.547 41.8233 135.982 41.8233C136.424 41.8233 136.736 41.4528 136.736 40.9263C136.736 40.3933 136.424 40.0228 135.982 40.0228ZM135.722 37.8713H136.255V38.9763H135.722V37.8713ZM140.785 40.5298H141.162C142.085 40.5298 142.631 40.5103 143.288 40.3803L143.34 40.8223C142.664 40.9523 142.105 40.9783 141.162 40.9783H140.785V40.5298ZM140.785 38.1508H143.06V38.5928H141.305V40.7703H140.785V38.1508ZM141.143 39.3208H142.989V39.7433H141.143V39.3208ZM144.971 37.7218H145.485V41.2838H144.971V37.7218ZM144.022 39.2558H145.134V39.6978H144.022V39.2558ZM143.678 37.8323H144.185V41.2513H143.678V37.8323ZM141.546 41.5958H145.485V43.5978H144.952V42.0378H141.546V41.5958Z" fill="white"/>
<path d="M86.5848 38.5693H83.5848V44.0793H89.1849V40.8962" stroke="white"/>
<path d="M84.5043 40.1597L86.3412 42.3018L90.2279 37.5889" stroke="white"/>
</g>
</g>
<defs>
<clipPath id="clip0_12137_18864">
<rect width="345" height="47" fill="white"/>
</clipPath>
</defs>
</svg>
