<svg width="345" height="47" viewBox="0 0 345 47" fill="none" xmlns="http://www.w3.org/2000/svg">
<g clip-path="url(#clip0_12134_18397)">
<mask id="mask0_12134_18397" style="mask-type:luminance" maskUnits="userSpaceOnUse" x="0" y="0" width="345" height="47">
<path d="M345 0H0V47H345V0Z" fill="white"/>
</mask>
<g mask="url(#mask0_12134_18397)">
<path d="M93.95 20.124H96.964V21.29H93.95V20.124ZM93.95 22.379H96.964V23.556H93.95V22.379ZM92.256 19.332C93.774 19.332 94.94 20.388 94.94 21.829C94.94 23.27 93.774 24.326 92.256 24.326C90.727 24.326 89.561 23.27 89.561 21.829C89.561 20.388 90.727 19.332 92.256 19.332ZM92.256 20.575C91.508 20.575 90.958 21.026 90.958 21.829C90.958 22.621 91.508 23.094 92.256 23.094C93.004 23.094 93.554 22.621 93.554 21.829C93.554 21.026 93.004 20.575 92.256 20.575ZM96.502 18.793H97.965V24.755H96.502V18.793ZM94.511 24.964C96.656 24.964 97.998 25.712 97.998 26.977C97.998 28.242 96.656 28.979 94.511 28.979C92.366 28.979 91.024 28.242 91.024 26.977C91.024 25.712 92.366 24.964 94.511 24.964ZM94.511 26.097C93.18 26.097 92.465 26.383 92.465 26.977C92.465 27.571 93.18 27.857 94.511 27.857C95.853 27.857 96.557 27.571 96.557 26.977C96.557 26.383 95.853 26.097 94.511 26.097ZM102.21 24.018H103.673V26.251H102.21V24.018ZM106.676 18.793H108.139V26.504H106.676V18.793ZM100.802 27.637H108.359V28.803H100.802V27.637ZM100.802 25.778H102.265V27.945H100.802V25.778ZM99.7021 24.458L99.5261 23.292C101.385 23.292 103.871 23.27 106.005 22.995L106.093 24.04C103.926 24.403 101.539 24.458 99.7021 24.458ZM104.751 24.711H106.995V25.712H104.751V24.711ZM102.804 19.145C104.289 19.145 105.334 19.882 105.334 20.96C105.334 22.049 104.289 22.775 102.804 22.775C101.308 22.775 100.263 22.049 100.263 20.96C100.263 19.882 101.308 19.145 102.804 19.145ZM102.804 20.212C102.122 20.212 101.649 20.465 101.649 20.96C101.649 21.455 102.122 21.708 102.804 21.708C103.475 21.708 103.948 21.455 103.948 20.96C103.948 20.465 103.475 20.212 102.804 20.212ZM116.234 18.804H117.697V26.416H116.234V18.804ZM117.279 21.906H119.05V23.105H117.279V21.906ZM109.678 19.86H115.673V21.004H109.678V19.86ZM112.681 21.367C114.144 21.367 115.178 22.17 115.178 23.336C115.178 24.502 114.144 25.294 112.681 25.294C111.207 25.294 110.173 24.502 110.173 23.336C110.173 22.17 111.207 21.367 112.681 21.367ZM112.681 22.478C112.032 22.478 111.581 22.786 111.581 23.336C111.581 23.886 112.032 24.183 112.681 24.183C113.33 24.183 113.781 23.886 113.781 23.336C113.781 22.786 113.33 22.478 112.681 22.478ZM111.944 18.782H113.407V20.421H111.944V18.782ZM111.13 27.637H118.06V28.803H111.13V27.637ZM111.13 25.844H112.593V28.143H111.13V25.844ZM122.849 19.706H127.744V26.559H122.849V19.706ZM126.314 20.85H124.29V25.404H126.314V20.85ZM129.328 18.782H130.802V29.001H129.328V18.782ZM133.595 19.222H140.052V20.388H133.595V19.222ZM132.473 22.742H141.691V23.908H132.473V22.742ZM136.334 23.567H137.797V25.701H136.334V23.567ZM139.172 19.222H140.613V20.036C140.613 20.916 140.613 21.939 140.294 23.281L138.853 23.138C139.172 21.829 139.172 20.894 139.172 20.036V19.222ZM133.397 25.338H140.624V28.979H139.161V26.493H133.397V25.338ZM145.86 19.464C147.466 19.464 148.665 20.509 148.665 21.972C148.665 23.446 147.466 24.491 145.86 24.491C144.265 24.491 143.044 23.446 143.044 21.972C143.044 20.509 144.265 19.464 145.86 19.464ZM145.86 20.718C145.079 20.718 144.485 21.18 144.485 21.972C144.485 22.775 145.079 23.237 145.86 23.237C146.641 23.237 147.235 22.775 147.235 21.972C147.235 21.18 146.641 20.718 145.86 20.718ZM149.622 18.782H151.085V29.001H149.622V18.782ZM142.802 26.933L142.626 25.756C144.419 25.756 146.916 25.734 149.061 25.415L149.171 26.471C146.96 26.911 144.562 26.933 142.802 26.933ZM157.48 19.343H158.679V20.245C158.679 22.269 157.799 24.051 155.863 24.722L155.082 23.567C156.787 22.995 157.48 21.631 157.48 20.245V19.343ZM157.777 19.343H158.965V20.388C158.965 21.609 159.647 22.797 161.242 23.292L160.483 24.425C158.646 23.809 157.777 22.225 157.777 20.388V19.343ZM161.803 18.793H163.266V24.81H161.803V18.793ZM162.859 21.147H164.619V22.357H162.859V21.147ZM159.944 25.041C162.056 25.041 163.387 25.778 163.387 27.01C163.387 28.253 162.056 28.979 159.944 28.979C157.821 28.979 156.49 28.253 156.49 27.01C156.49 25.778 157.821 25.041 159.944 25.041ZM159.944 26.174C158.646 26.174 157.942 26.449 157.942 27.01C157.942 27.582 158.646 27.846 159.944 27.846C161.242 27.846 161.935 27.582 161.935 27.01C161.935 26.449 161.242 26.174 159.944 26.174ZM172.362 18.804H173.836V24.832H172.362V18.804ZM170.382 25.041C172.527 25.041 173.88 25.778 173.88 27.021C173.88 28.275 172.527 29.001 170.382 29.001C168.237 29.001 166.906 28.275 166.906 27.021C166.906 25.778 168.237 25.041 170.382 25.041ZM170.382 26.174C169.062 26.174 168.369 26.449 168.369 27.021C168.369 27.593 169.062 27.879 170.382 27.879C171.713 27.879 172.417 27.593 172.417 27.021C172.417 26.449 171.713 26.174 170.382 26.174ZM167.841 19.838H169.051V20.476C169.051 22.401 168.116 24.139 166.158 24.777L165.41 23.633C167.115 23.083 167.841 21.763 167.841 20.476V19.838ZM168.138 19.838H169.337V20.476C169.337 21.664 170.063 22.874 171.724 23.38L170.987 24.524C169.073 23.93 168.138 22.291 168.138 20.476V19.838ZM165.795 19.475H171.339V20.63H165.795V19.475ZM177.518 26.9062L177.475 27.3359C177.441 27.6797 177.376 28.0221 177.279 28.3633C177.186 28.707 177.087 29.0182 176.982 29.2969C176.881 29.5755 176.799 29.7943 176.736 29.9531H175.658C175.697 29.7995 175.751 29.5846 175.818 29.3086C175.886 29.0352 175.95 28.7279 176.01 28.3867C176.07 28.0456 176.107 27.6979 176.123 27.3437L176.143 26.9062H177.518ZM184.608 19.017H185.973V20.369C185.973 23.086 184.829 25.855 182.619 26.895L181.644 25.53C183.633 24.594 184.608 22.345 184.608 20.369V19.017ZM184.972 19.017H186.337V20.369C186.337 22.189 187.273 24.321 189.249 25.231L188.3 26.596C186.09 25.569 184.972 22.93 184.972 20.369V19.017ZM182.112 18.276H188.716V19.693H182.112V18.276ZM189.6 17.119H191.342V29.157H189.6V17.119ZM190.952 21.708H193.084V23.138H190.952V21.708ZM196.32 24.724H198.088V29.157H196.32V24.724ZM200.48 24.724H202.248V29.157H200.48V24.724ZM193.863 23.814H204.77V25.205H193.863V23.814ZM199.284 17.522C201.858 17.522 203.639 18.575 203.639 20.226C203.639 21.851 201.858 22.904 199.284 22.904C196.723 22.904 194.942 21.851 194.942 20.226C194.942 18.575 196.723 17.522 199.284 17.522ZM199.284 18.9C197.711 18.9 196.71 19.368 196.71 20.226C196.71 21.071 197.711 21.539 199.284 21.539C200.87 21.539 201.858 21.071 201.858 20.226C201.858 19.368 200.87 18.9 199.284 18.9ZM209.696 17.912C211.594 17.912 213.011 19.147 213.011 20.876C213.011 22.618 211.594 23.853 209.696 23.853C207.811 23.853 206.368 22.618 206.368 20.876C206.368 19.147 207.811 17.912 209.696 17.912ZM209.696 19.394C208.773 19.394 208.071 19.94 208.071 20.876C208.071 21.825 208.773 22.371 209.696 22.371C210.619 22.371 211.321 21.825 211.321 20.876C211.321 19.94 210.619 19.394 209.696 19.394ZM214.142 17.106H215.871V29.183H214.142V17.106ZM206.082 26.739L205.874 25.348C207.993 25.348 210.944 25.322 213.479 24.945L213.609 26.193C210.996 26.713 208.162 26.739 206.082 26.739ZM226.172 19.576H229.448V20.967H226.172V19.576ZM226.172 23.307H229.448V24.698H226.172V23.307ZM224.092 17.951C225.886 17.951 227.199 19.615 227.199 22.241C227.199 24.893 225.886 26.557 224.092 26.557C222.285 26.557 220.985 24.893 220.985 22.241C220.985 19.615 222.285 17.951 224.092 17.951ZM224.092 19.524C223.221 19.524 222.623 20.473 222.623 22.241C222.623 24.035 223.221 24.997 224.092 24.997C224.976 24.997 225.561 24.035 225.561 22.241C225.561 20.473 224.976 19.524 224.092 19.524ZM229.175 17.106H230.891V29.183H229.175V17.106ZM241.017 17.132H242.759V25.907H241.017V17.132ZM234.738 27.571H243.058V28.949H234.738V27.571ZM234.738 25.062H236.467V28.286H234.738V25.062ZM235.57 17.782H237V18.952C237 21.305 235.921 23.476 233.581 24.295L232.71 22.917C234.725 22.228 235.57 20.551 235.57 18.952V17.782ZM235.921 17.782H237.338V18.952C237.338 20.525 238.157 22.072 240.133 22.709L239.249 24.087C236.974 23.32 235.921 21.279 235.921 18.952V17.782ZM247.347 17.769H248.764V18.835C248.764 21.227 247.724 23.333 245.436 24.126L244.513 22.761C246.528 22.085 247.347 20.473 247.347 18.835V17.769ZM247.698 17.769H249.102V19.004C249.102 20.447 249.908 21.851 251.793 22.436L250.896 23.775C248.725 23.047 247.698 21.175 247.698 19.004V17.769ZM252.456 17.119H254.185V24.23H252.456V17.119ZM253.704 19.901H255.784V21.331H253.704V19.901ZM250.259 24.503C252.755 24.503 254.328 25.374 254.328 26.83C254.328 28.299 252.755 29.157 250.259 29.157C247.75 29.157 246.177 28.299 246.177 26.83C246.177 25.374 247.75 24.503 250.259 24.503ZM250.259 25.842C248.725 25.842 247.893 26.167 247.893 26.83C247.893 27.506 248.725 27.818 250.259 27.818C251.793 27.818 252.612 27.506 252.612 26.83C252.612 26.167 251.793 25.842 250.259 25.842Z" fill="white"/>
<path d="M91.925 4.324H92.401V4.59C92.401 5.696 91.694 6.592 90.637 6.949L90.357 6.494C91.295 6.2 91.925 5.444 91.925 4.59V4.324ZM92.03 4.324H92.506V4.59C92.506 5.374 93.122 6.095 94.046 6.375L93.766 6.83C92.716 6.494 92.03 5.626 92.03 4.59V4.324ZM90.525 3.995H93.899V4.464H90.525V3.995ZM91.925 3.19H92.506V4.226H91.925V3.19ZM94.676 3.218H95.257V7.075H94.676V3.218ZM95.096 4.905H96.195V5.388H95.096V4.905ZM91.148 7.411H95.257V9.553H94.676V7.887H91.148V7.411ZM101.115 3.225H101.696V7.971H101.115V3.225ZM101.514 5.297H102.634V5.787H101.514V5.297ZM96.8035 3.988H100.541V4.457H96.8035V3.988ZM98.6725 4.807C99.5685 4.807 100.184 5.276 100.184 5.99C100.184 6.697 99.5685 7.166 98.6725 7.166C97.7695 7.166 97.1535 6.697 97.1535 5.99C97.1535 5.276 97.7695 4.807 98.6725 4.807ZM98.6725 5.262C98.0985 5.262 97.7065 5.549 97.7065 5.99C97.7065 6.424 98.0985 6.711 98.6725 6.711C99.2395 6.711 99.6315 6.424 99.6315 5.99C99.6315 5.549 99.2395 5.262 98.6725 5.262ZM98.3785 3.218H98.9595V4.233H98.3785V3.218ZM97.7555 8.93H101.983V9.406H97.7555V8.93ZM97.7555 7.593H98.3365V9.133H97.7555V7.593ZM109.475 3.211H110.063V9.546H109.475V3.211ZM109.902 5.78H111.071V6.263H109.902V5.78ZM107.858 3.897H108.425C108.425 5.696 107.599 7.32 105.555 8.349L105.233 7.901C106.983 7.012 107.858 5.661 107.858 3.988V3.897ZM105.527 3.897H108.159V4.373H105.527V3.897ZM114.332 3.645H114.941C114.941 5.255 113.8 6.403 111.959 6.907L111.728 6.452C113.352 6.004 114.332 5.073 114.332 3.897V3.645ZM112.05 3.645H114.689V4.114H112.05V3.645ZM112.617 7.278H116.838V9.532H116.257V7.747H112.617V7.278ZM116.257 3.218H116.838V6.991H116.257V3.218ZM114.682 4.345H116.376V4.821H114.682V4.345ZM114.619 5.689H116.334V6.165H114.619V5.689ZM119.138 8.30398L119.099 8.57244C119.071 8.76136 119.027 8.96354 118.969 9.17898C118.913 9.39441 118.854 9.59742 118.793 9.788C118.732 9.97857 118.681 10.1302 118.641 10.2429H118.194C118.215 10.1368 118.244 9.9968 118.278 9.8228C118.313 9.64879 118.348 9.45407 118.383 9.23864C118.419 9.02486 118.449 8.80611 118.472 8.58239L118.502 8.30398H119.138ZM122.273 7.544H122.77C123.939 7.544 124.744 7.516 125.696 7.348L125.759 7.824C124.779 7.992 123.953 8.027 122.77 8.027H122.273V7.544ZM122.273 3.792H125.22V4.275H122.854V7.712H122.273V3.792ZM122.707 5.563H125.08V6.032H122.707V5.563ZM126.284 3.218H126.872V9.546H126.284V3.218ZM126.732 5.759H127.908V6.249H126.732V5.759ZM128.804 3.834H131.716V7.957H128.804V3.834ZM131.149 4.303H129.371V7.488H131.149V4.303ZM133.039 3.211H133.62V9.553H133.039V3.211ZM137.42 3.652H137.924V4.135C137.924 5.514 136.643 6.585 135.376 6.872L135.117 6.389C136.23 6.179 137.42 5.213 137.42 4.135V3.652ZM137.525 3.652H138.029V4.135C138.029 5.22 139.226 6.179 140.332 6.389L140.073 6.872C138.813 6.585 137.525 5.521 137.525 4.135V3.652ZM134.886 8.216H140.619V8.692H134.886V8.216Z" fill="white"/>
<path d="M102.613 37.5503H103.159V43.4393H102.613V37.5503ZM103.029 39.8708H104.121V40.3258H103.029V39.8708ZM98.8889 41.5218H99.3504C100.436 41.5218 101.196 41.4828 102.074 41.3203L102.132 41.7753C101.229 41.9443 100.455 41.9768 99.3504 41.9768H98.8889V41.5218ZM98.8889 38.1223H101.619V38.5643H99.4219V41.7233H98.8889V38.1223ZM109.015 38.4343H110.036V38.8828H109.015V38.4343ZM109.015 39.6823H110.036V40.1308H109.015V39.6823ZM106.259 37.9013C107.143 37.9013 107.793 38.4733 107.793 39.2923C107.793 40.1048 107.143 40.6703 106.259 40.6703C105.375 40.6703 104.725 40.1048 104.725 39.2923C104.725 38.4733 105.375 37.9013 106.259 37.9013ZM106.259 38.3563C105.674 38.3563 105.252 38.7398 105.252 39.2923C105.252 39.8448 105.674 40.2218 106.259 40.2218C106.844 40.2218 107.267 39.8448 107.267 39.2923C107.267 38.7398 106.844 38.3563 106.259 38.3563ZM108.638 37.5568H109.178V41.0343H108.638V37.5568ZM107.306 41.2228C108.502 41.2228 109.236 41.6323 109.236 42.3213C109.236 43.0168 108.502 43.4198 107.306 43.4198C106.11 43.4198 105.375 43.0168 105.375 42.3213C105.375 41.6323 106.11 41.2228 107.306 41.2228ZM107.306 41.6583C106.435 41.6583 105.902 41.8988 105.902 42.3213C105.902 42.7438 106.435 42.9908 107.306 42.9908C108.177 42.9908 108.71 42.7438 108.71 42.3213C108.71 41.8988 108.177 41.6583 107.306 41.6583ZM114.618 37.5633H115.157V41.9703H114.618V37.5633ZM114.988 39.4873H116.028V39.9423H114.988V39.4873ZM110.614 38.2718H114.085V38.7073H110.614V38.2718ZM112.349 39.0323C113.181 39.0323 113.753 39.4678 113.753 40.1308C113.753 40.7873 113.181 41.2228 112.349 41.2228C111.511 41.2228 110.939 40.7873 110.939 40.1308C110.939 39.4678 111.511 39.0323 112.349 39.0323ZM112.349 39.4548C111.816 39.4548 111.452 39.7213 111.452 40.1308C111.452 40.5338 111.816 40.8003 112.349 40.8003C112.876 40.8003 113.24 40.5338 113.24 40.1308C113.24 39.7213 112.876 39.4548 112.349 39.4548ZM112.076 37.5568H112.616V38.4993H112.076V37.5568ZM111.498 42.8608H115.424V43.3028H111.498V42.8608ZM111.498 41.6193H112.037V43.0493H111.498V41.6193ZM119.039 38.1548H122.77V38.5968H119.039V38.1548ZM118.408 42.1653H123.719V42.6203H118.408V42.1653ZM122.536 38.1548H123.062V38.8763C123.062 39.7408 123.062 40.5403 122.815 41.7428L122.282 41.6908C122.536 40.5598 122.536 39.7213 122.536 38.8763V38.1548ZM122.672 39.7798V40.1828L118.961 40.3843L118.883 39.9358L122.672 39.7798ZM125.018 37.7908H129.061V39.3248H125.577V40.3388H125.031V38.9088H128.522V38.2263H125.018V37.7908ZM125.031 40.0723H129.198V40.5143H125.031V40.0723ZM124.381 41.1188H129.711V41.5673H124.381V41.1188ZM126.767 41.2878H127.3V43.4393H126.767V41.2878ZM130.367 42.2043H135.691V42.6528H130.367V42.2043ZM132.746 38.3498H133.201V38.8373C133.201 40.0398 131.999 40.9498 130.842 41.1903L130.621 40.7613C131.635 40.5858 132.746 39.7668 132.746 38.8373V38.3498ZM132.844 38.3498H133.299V38.8373C133.299 39.7668 134.417 40.5728 135.444 40.7353L135.229 41.1708C134.053 40.9368 132.844 40.0398 132.844 38.8373V38.3498ZM130.803 38.1353H135.242V38.5838H130.803V38.1353ZM137.333 42.2795L137.296 42.5288C137.27 42.7042 137.23 42.8919 137.176 43.092C137.124 43.292 137.069 43.4805 137.012 43.6575C136.955 43.8345 136.908 43.9753 136.871 44.0799H136.456C136.476 43.9814 136.502 43.8514 136.534 43.6898C136.567 43.5282 136.599 43.3474 136.631 43.1474C136.665 42.9489 136.693 42.7457 136.714 42.538L136.742 42.2795H137.333ZM144.287 37.5568H144.826V41.9313H144.287V37.5568ZM140.166 38.0313H143.26V38.4733H140.166V38.0313ZM140.068 41.0473L140.01 40.5858C140.972 40.5858 142.343 40.5728 143.442 40.4428L143.474 40.8458C142.343 41.0278 141.024 41.0473 140.068 41.0473ZM140.751 38.4083H141.271V40.6638H140.751V38.4083ZM142.155 38.4083H142.675V40.6638H142.155V38.4083ZM143.312 38.6683H144.573V39.1103H143.312V38.6683ZM143.312 39.7928H144.573V40.2348H143.312V39.7928ZM141.069 42.8608H144.982V43.3028H141.069V42.8608ZM141.069 41.5738H141.609V43.1403H141.069V41.5738ZM150.253 37.5503H150.793V43.4393H150.253V37.5503ZM146.314 41.5738H146.802C147.783 41.5738 148.661 41.5348 149.701 41.3658L149.759 41.8078C148.693 41.9833 147.809 42.0223 146.802 42.0223H146.314V41.5738ZM146.301 38.1028H149.018V40.2023H146.854V41.7428H146.314V39.7603H148.472V38.5448H146.301V38.1028ZM155.973 37.5633H156.512V41.9703H155.973V37.5633ZM156.343 39.4873H157.383V39.9423H156.343V39.4873ZM151.969 38.2718H155.44V38.7073H151.969V38.2718ZM153.704 39.0323C154.536 39.0323 155.108 39.4678 155.108 40.1308C155.108 40.7873 154.536 41.2228 153.704 41.2228C152.866 41.2228 152.294 40.7873 152.294 40.1308C152.294 39.4678 152.866 39.0323 153.704 39.0323ZM153.704 39.4548C153.171 39.4548 152.807 39.7213 152.807 40.1308C152.807 40.5338 153.171 40.8003 153.704 40.8003C154.231 40.8003 154.595 40.5338 154.595 40.1308C154.595 39.7213 154.231 39.4548 153.704 39.4548ZM153.431 37.5568H153.971V38.4993H153.431V37.5568ZM152.853 42.8608H156.779V43.3028H152.853V42.8608ZM152.853 41.6193H153.392V43.0493H152.853V41.6193ZM162.103 38.9738H163.247V39.4223H162.103V38.9738ZM162.103 40.7613H163.247V41.2098H162.103V40.7613ZM164.235 37.5568H164.755V43.4328H164.235V37.5568ZM163.085 37.6803H163.592V43.1403H163.085V37.6803ZM161.083 38.0443C161.843 38.0443 162.337 38.8308 162.337 40.0918C162.337 41.3528 161.843 42.1393 161.083 42.1393C160.322 42.1393 159.835 41.3528 159.835 40.0918C159.835 38.8308 160.322 38.0443 161.083 38.0443ZM161.083 38.5448C160.621 38.5448 160.322 39.1428 160.322 40.0918C160.322 41.0408 160.621 41.6388 161.083 41.6388C161.551 41.6388 161.843 41.0408 161.843 40.0918C161.843 39.1428 161.551 38.5448 161.083 38.5448ZM170.137 38.4473H171.157V38.9023H170.137V38.4473ZM170.137 39.7083H171.157V40.1568H170.137V39.7083ZM169.76 37.5568H170.299V41.0473H169.76V37.5568ZM166.484 41.3268H170.299V43.4328H169.76V41.7623H166.484V41.3268ZM167.381 37.9013C168.265 37.9013 168.915 38.4733 168.915 39.2988C168.915 40.1178 168.265 40.6833 167.381 40.6833C166.497 40.6833 165.847 40.1178 165.847 39.2988C165.847 38.4733 166.497 37.9013 167.381 37.9013ZM167.381 38.3628C166.796 38.3628 166.373 38.7398 166.373 39.2988C166.373 39.8513 166.796 40.2348 167.381 40.2348C167.966 40.2348 168.388 39.8513 168.388 39.2988C168.388 38.7398 167.966 38.3628 167.381 38.3628ZM172.616 38.1985L172.57 41.5962H172.035L171.988 38.1985H172.616ZM172.302 42.9627C172.188 42.9627 172.091 42.9219 172.009 42.8404C171.928 42.7588 171.887 42.6611 171.887 42.5472C171.887 42.4334 171.928 42.3356 172.009 42.2541C172.091 42.1725 172.188 42.1317 172.302 42.1317C172.416 42.1317 172.514 42.1725 172.595 42.2541C172.677 42.3356 172.718 42.4334 172.718 42.5472C172.718 42.6226 172.699 42.6919 172.66 42.755C172.623 42.8181 172.573 42.8688 172.51 42.9073C172.448 42.9442 172.379 42.9627 172.302 42.9627Z" fill="white"/>
<path d="M93.585 38.4043H90.585V43.9143H96.1851V40.7312" stroke="white"/>
<path d="M91.5044 39.9946L93.3413 42.1367L97.228 37.4238" stroke="white"/>
</g>
</g>
<defs>
<clipPath id="clip0_12134_18397">
<rect width="345" height="47" fill="white"/>
</clipPath>
</defs>
</svg>
