<svg width="800" height="109" viewBox="0 0 800 109" fill="none" xmlns="http://www.w3.org/2000/svg">
<path d="M221.524 3.90918V17.7666H219.193V10.8169H215.834V8.92725H219.193V3.90918H221.524ZM222.007 20.6011V22.4907H209.073V16.5488H211.404V20.6011H222.007ZM212.601 7.68848C212.601 9.97705 214.133 12.3286 217.073 13.2944L215.897 15.1631C213.776 14.4387 212.275 13.0005 211.446 11.1948C210.606 13.2 209.021 14.7852 206.785 15.562L205.588 13.6724C208.611 12.6855 210.228 10.187 210.228 7.66748V7.16357H206.281V5.27393H216.527V7.16357H212.601V7.68848ZM231.794 8.86426C231.794 11.9297 232.865 15.1211 235.427 16.7378L234.146 18.5225C232.435 17.4937 231.322 15.7195 230.703 13.6304C230.01 15.9294 228.792 17.8716 227.007 18.9634L225.559 17.2207C228.309 15.541 229.548 12.2026 229.548 8.96924V5.56787H231.794V8.86426ZM242.25 3.88818V22.8687H240.004V3.88818H242.25ZM238.303 4.22412V21.9448H236.099V12.3496H233.39V10.418H236.099V4.22412H238.303ZM259.112 3.88818V22.8687H256.886V3.88818H259.112ZM255.186 4.3501V21.9658H252.96V15.625H250V13.7144H252.96V10.9009H250.336C249.443 14.0503 247.459 16.7588 243.911 18.8584L242.546 17.1997C246.483 14.8796 248.288 11.9087 248.635 8.0874H243.554V6.19775H250.944C250.944 7.15308 250.882 8.0874 250.756 8.99023H252.96V4.3501H255.186ZM265.748 5.21094C268.751 5.18994 270.955 7.10059 270.976 9.78809C270.955 12.4966 268.751 14.3862 265.748 14.3862C262.767 14.3862 260.541 12.4966 260.541 9.78809C260.541 7.10059 262.767 5.18994 265.748 5.21094ZM265.748 7.22656C264.09 7.22656 262.851 8.21338 262.851 9.78809C262.851 11.3838 264.09 12.3496 265.748 12.3496C267.428 12.3496 268.688 11.3838 268.688 9.78809C268.688 8.21338 267.428 7.22656 265.748 7.22656ZM275.407 3.88818V22.8896H273.076V3.88818H275.407ZM259.681 17.0107C263.103 17.0107 267.848 16.9688 271.942 16.3809L272.131 18.0815C267.869 18.9004 263.313 18.9214 259.974 18.9214L259.681 17.0107ZM294.705 3.88818V11.4468H297.624V13.3784H294.705V22.8687H292.396V3.88818H294.705ZM290.926 6.80664V8.67529H279.735V6.80664H284.228V4.16113H286.559V6.80664H290.926ZM285.404 9.91406C288.134 9.91406 290.17 11.7617 290.17 14.3862C290.17 17.0107 288.134 18.8374 285.404 18.8374C282.633 18.8374 280.596 17.0107 280.617 14.3862C280.596 11.7617 282.633 9.91406 285.404 9.91406ZM285.404 11.8247C283.913 11.8247 282.843 12.8325 282.843 14.3862C282.843 15.9399 283.913 16.9268 285.404 16.9058C286.853 16.9268 287.924 15.9399 287.945 14.3862C287.924 12.8325 286.853 11.8247 285.404 11.8247ZM314.38 11.2158V13.1265H311.567V22.8267H309.236V3.88818H311.567V11.2158H314.38ZM299.683 5.73584V16.2129C302.213 16.1709 304.911 15.9504 307.767 15.3521L308.019 17.3257C304.827 17.9556 301.783 18.1445 298.969 18.1445H297.374V5.73584H299.683ZM317.217 4.51807V6.57568H319.4V4.51807H321.584V12.2236H315.012V4.51807H317.217ZM317.217 10.355H319.4V8.33936H317.217V10.355ZM325.048 4.51807V6.57568H327.19V4.51807H329.415V12.2236H322.823V4.51807H325.048ZM325.048 10.355H327.19V8.33936H325.048V10.355ZM330.885 13.7773V15.625H323.557V18.9424H321.248V15.625H313.542V13.7773H330.885ZM328.974 20.6851V22.5747H315.642V17.4307H317.951V20.6851H328.974ZM346.235 3.90918V17.6196H343.883V3.90918H346.235ZM346.76 20.6011V22.4907H333.679V16.2339H336.031V20.6011H346.76ZM335.884 5.14795C338.76 5.14795 340.986 7.14258 340.986 9.89307C340.986 12.7065 338.76 14.6592 335.884 14.6592C332.986 14.6592 330.761 12.7065 330.761 9.89307C330.761 7.14258 332.986 5.14795 335.884 5.14795ZM335.884 7.18457C334.267 7.18457 333.028 8.25537 333.049 9.89307C333.028 11.5728 334.267 12.6226 335.884 12.6226C337.458 12.6226 338.697 11.5728 338.697 9.89307C338.697 8.25537 337.458 7.18457 335.884 7.18457ZM367.99 14.5332V16.4229H363.77V22.8687H361.397V16.4229H357.198V22.8687H354.805V16.4229H350.647V14.5332H367.99ZM359.277 4.56006C363.308 4.58105 366.122 6.21875 366.122 8.80127C366.122 11.3418 363.308 12.9585 359.277 12.9585C355.225 12.9585 352.453 11.3418 352.474 8.80127C352.453 6.21875 355.225 4.58105 359.277 4.56006ZM359.277 6.44971C356.589 6.44971 354.847 7.31055 354.868 8.80127C354.847 10.25 356.589 11.1108 359.277 11.1108C361.964 11.1108 363.707 10.25 363.707 8.80127C363.707 7.31055 361.964 6.44971 359.277 6.44971ZM372.002 5.31592C374.238 5.31592 375.949 6.82764 376.306 9.13721H377.818V4.22412H379.981V17.4727H377.818V11.0479H376.285C375.897 13.2734 374.207 14.7432 372.002 14.7432C369.483 14.7432 367.656 12.8115 367.656 10.04C367.656 7.22656 369.483 5.31592 372.002 5.31592ZM372.002 7.31055C370.679 7.31055 369.735 8.38135 369.756 10.04C369.735 11.6987 370.679 12.7275 372.002 12.7275C373.304 12.7275 374.27 11.6987 374.291 10.04C374.27 8.38135 373.304 7.31055 372.002 7.31055ZM383.76 3.88818V18.0396H381.534V3.88818H383.76ZM384.285 20.6011V22.4907H371.057V16.2129H373.388V20.6011H384.285ZM388.948 4.60205V6.65967H397.136V4.60205H399.446V12.3076H394.197V14.0503H401.692V15.9399H384.391V14.0503H391.845V12.3076H386.638V4.60205H388.948ZM388.948 10.439H397.136V8.46533H388.948V10.439ZM399.74 20.6011V22.4907H386.533V17.1577H388.864V20.6011H399.74ZM418.575 14.9321V16.7798H411.016V22.8687H408.707V16.7798H401.232V14.9321H418.575ZM405.641 4.64404V6.97461H414.124V4.64404H416.475V12.9585H403.332V4.64404H405.641ZM405.641 11.0688H414.124V8.82227H405.641V11.0688ZM435.436 12.4966V14.2603H418.094V12.4966H435.436ZM433.337 15.394V19.7192H422.461V21.042H433.904V22.6587H420.13V18.2075H431.027V17.0317H420.109V15.394H433.337ZM433.295 4.30811V8.59131H422.608V9.83008H433.631V11.4258H420.298V7.07959H430.964V5.9248H420.235V4.30811H433.295ZM455.659 11.7197V13.5884H438.358V11.7197H455.659ZM453.496 14.8691V19.5303H442.704V20.916H454.021V22.7007H440.416V17.8716H451.208V16.5908H440.395V14.8691H453.496ZM454.105 4.53906V6.38672H448.457C448.93 7.79346 451.271 9.02173 454.84 9.26318L454.105 11.0688C450.704 10.7959 448.132 9.65161 446.988 7.96143C445.843 9.64111 443.303 10.7959 439.933 11.0688L439.198 9.26318C442.736 9.02173 445.045 7.79346 445.539 6.38672H439.933V4.53906H454.105ZM471.072 3.88818V22.8687H468.72V3.88818H471.072ZM465.403 5.90381C465.403 11.5518 463.219 16.3599 456.563 19.5093L455.346 17.6406C460.311 15.2786 462.621 12.0662 463.03 7.75146H456.311V5.90381H465.403ZM478.884 9.28418C478.884 12.2236 480.627 15.562 483.629 16.9478L482.327 18.7954C480.186 17.7876 478.601 15.751 477.75 13.3784C476.889 15.9819 475.231 18.2075 473.047 19.2573L471.682 17.4307C474.706 16.0029 476.532 12.4336 476.553 9.28418V7.68848H472.417V5.75684H482.852V7.68848H478.884V9.28418ZM486.946 3.88818V11.2788H489.865V13.2314H486.946V22.8687H484.616V3.88818H486.946Z" fill="white"/>
<path d="M223.445 31.1328H228.307V48.6855C228.307 54.4375 223.928 58.4082 217.396 58.4082C210.828 58.4082 206.486 54.4375 206.486 48.6855V31.1328H211.311V48.2773C211.311 51.6543 213.686 54.1035 217.396 54.1035C221.107 54.1035 223.445 51.6543 223.445 48.2773V31.1328ZM252.319 31.1328V58H248.015L235.286 39.6309H235.064V58H230.239V31.1328H234.618L247.272 49.502H247.532V31.1328H252.319ZM266.909 29.0176V32.6543H281.382V29.0176H285.464V42.6367H276.187V45.7168H289.435V49.0566H258.857V45.7168H272.03V42.6367H262.827V29.0176H266.909ZM266.909 39.334H281.382V35.8457H266.909V39.334ZM285.984 57.2949V60.6348H262.642V51.209H266.761V57.2949H285.984ZM319.274 47.2754V50.541H305.914V61.3027H301.832V50.541H288.621V47.2754H319.274ZM296.414 29.0918V33.2109H311.406V29.0918H315.563V43.7871H292.332V29.0918H296.414ZM296.414 40.4473H311.406V36.4766H296.414V40.4473ZM350.897 27.793V38.332H355.573V41.7461H350.897V52.8418H346.778V27.793H350.897ZM344.365 31.5039V34.8066H324.475V31.5039H332.379V27.7559H336.498V31.5039H344.365ZM334.42 36.1797C339.244 36.1797 342.584 38.7402 342.621 42.5996C342.584 46.4219 339.244 48.9453 334.42 48.9453C329.559 48.9453 326.182 46.4219 326.182 42.5996C326.182 38.7402 329.559 36.1797 334.42 36.1797ZM334.42 39.3711C331.86 39.3711 330.19 40.5586 330.19 42.5996C330.19 44.6035 331.86 45.791 334.42 45.7539C336.981 45.791 338.688 44.6035 338.688 42.5996C338.688 40.5586 336.981 39.3711 334.42 39.3711ZM352.233 57.2949V60.6348H329.41V50.875H333.53V57.2949H352.233ZM381.144 29.2773V31.8379C381.144 34.3428 381.144 37.2188 380.439 40.9668H384.892V44.3066H371.57V49.5391H381.218V61.3027H377.099V52.8418H357.357V49.5391H367.45V44.3066H354.24V40.9668H376.283C376.95 37.5342 377.025 34.918 377.025 32.5801H358.025V29.2773H381.144ZM393.207 30.2051C397.753 30.2051 401.112 33.9902 401.705 40.1133H408.088V27.7559H412.17V61.3398H408.088V43.4531H401.742C401.297 49.9287 397.883 53.918 393.207 53.918C388.16 53.918 384.598 49.3535 384.598 42.043C384.598 34.8066 388.16 30.2051 393.207 30.2051ZM393.207 33.916C390.424 33.916 388.532 36.9219 388.569 42.043C388.532 47.2012 390.424 50.207 393.207 50.207C395.991 50.207 397.846 47.2012 397.883 42.043C397.846 36.9219 395.991 33.916 393.207 33.916ZM446.094 27.7559V40.8555H451.067V44.3066H446.094V61.2285H441.975V27.7559H446.094ZM437.225 31.2441C437.225 41.1152 433.143 49.7617 421.973 55.2539L419.635 52.0625C427.799 47.999 432.215 42.2842 433.069 34.6582H421.454V31.2441H437.225ZM477.529 27.7559V61.3398H473.372V27.7559H477.529ZM459.456 30.2051C464.503 30.2051 468.177 34.8066 468.214 42.043C468.177 49.3535 464.503 53.918 459.456 53.918C454.372 53.918 450.699 49.3535 450.699 42.043C450.699 34.8066 454.372 30.2051 459.456 30.2051ZM459.456 33.916C456.599 33.916 454.669 36.9219 454.669 42.043C454.669 47.2012 456.599 50.207 459.456 50.207C462.277 50.207 464.206 47.2012 464.206 42.043C464.206 36.9219 462.277 33.916 459.456 33.916ZM506.663 43.4902V46.793H483.135V30.6875H506.403V34.0273H487.217V43.4902H506.663ZM510.077 53.6211V57.0352H479.424V53.6211H510.077ZM545.819 47.7578V51.1348H532.497V61.3027H528.415V51.1348H515.167V47.7578H545.819ZM542.516 41.709V44.9746H519.1V29.2031H542.145V32.4688H523.182V35.4375H541.403V38.6289H523.182V41.709H542.516ZM554.171 30.2051C558.717 30.2051 562.076 33.9902 562.67 40.1133H569.052V27.7559H573.134V61.3398H569.052V43.4531H562.707C562.261 49.9287 558.847 53.918 554.171 53.918C549.125 53.918 545.562 49.3535 545.562 42.043C545.562 34.8066 549.125 30.2051 554.171 30.2051ZM554.171 33.916C551.388 33.916 549.496 36.9219 549.533 42.043C549.496 47.2012 551.388 50.207 554.171 50.207C556.955 50.207 558.81 47.2012 558.847 42.043C558.81 36.9219 556.955 33.916 554.171 33.916Z" fill="white"/>
<path d="M238.789 94.9473V96.3008H227.873V90.5176H229.561V94.9473H238.789ZM240.441 98.4277V99.7812H236.855V105.494H235.168V99.7812H231.354V105.494H229.684V99.7812H226.08V98.4277H240.441ZM249.635 91.9766C249.635 94.543 252.377 96.9688 255.4 97.5137L254.627 98.9023C252.113 98.3574 249.793 96.7051 248.773 94.4902C247.736 96.6875 245.425 98.3398 242.902 98.9023L242.164 97.5137C245.152 96.9512 247.877 94.543 247.877 91.9766V90.7812H249.635V91.9766ZM256.051 102.031V103.42H241.637V102.031H256.051ZM270.746 89.7441V105.494H269.146V89.7441H270.746ZM267.547 90.043V104.721H265.947V97.127H264.172C264.031 100.203 262.713 102.119 260.762 102.102C258.705 102.119 257.369 99.957 257.369 96.5469C257.369 93.1367 258.705 90.9922 260.762 91.0098C262.678 90.9922 263.979 92.8115 264.172 95.7734H265.947V90.043H267.547ZM260.762 92.5742C259.619 92.5742 258.916 94.0332 258.916 96.5469C258.916 99.0605 259.619 100.52 260.762 100.52C261.922 100.52 262.643 99.0605 262.643 96.5469C262.643 94.0332 261.922 92.5742 260.762 92.5742ZM278.428 93.752C278.428 96.6348 280.045 99.5 282.453 100.59L281.434 101.926C279.641 101.029 278.296 99.2451 277.602 97.0918C276.907 99.3594 275.527 101.275 273.717 102.225L272.662 100.871C275.105 99.7109 276.74 96.6699 276.74 93.752V91.0625H278.428V93.752ZM285.881 89.7441V105.529H284.229V96.3359H280.713V94.9824H284.229V89.7441H285.881ZM296.287 91.1328V98.4805H288.922V91.1328H296.287ZM290.557 92.4863V97.1621H294.652V92.4863H290.557ZM300.682 89.7266V94.4375H302.967V95.8438H300.682V101.275H299.012V89.7266H300.682ZM301.35 103.807V105.16H290.697V100.168H292.367V103.807H301.35ZM322.672 102.154V103.543H308.258V102.154H314.604V98.9199H309.91V90.8164H311.58V93.5234H319.314V90.8164H320.967V98.9199H316.256V102.154H322.672ZM311.58 97.5664H319.314V94.877H311.58V97.5664ZM331.971 90.9746V92.3457H326.398V97.6191C329.035 97.6104 330.802 97.5312 332.814 97.1445L332.99 98.498C330.793 98.8848 328.895 98.9902 325.959 98.9902H324.746V90.9746H331.971ZM336.945 89.7617V101.24H335.275V95.3691H330.986V94.0332H335.275V89.7617H336.945ZM337.35 103.895V105.248H326.68V100.344H328.367V103.895H337.35ZM358.162 98.6387V100.01H354.506V105.494H352.818V100.01H349.057V105.494H347.334V100.01H343.748V98.6387H358.162ZM350.92 90.3418C354.242 90.3418 356.527 91.6953 356.527 93.8223C356.527 95.9141 354.242 97.25 350.92 97.2324C347.58 97.25 345.312 95.9141 345.312 93.8223C345.312 91.6953 347.58 90.3418 350.92 90.3418ZM350.92 91.6777C348.582 91.6953 347.018 92.5039 347.035 93.8223C347.018 95.1055 348.582 95.9141 350.92 95.9141C353.258 95.9141 354.822 95.1055 354.822 93.8223C354.822 92.5039 353.258 91.6953 350.92 91.6777ZM363.066 90.957C364.956 90.957 366.389 92.2314 366.652 94.1738H368.111V90.0254H369.676V101.047H368.111V95.5625H366.635C366.336 97.4346 364.921 98.6914 363.066 98.6738C360.957 98.6914 359.445 97.0918 359.463 94.8242C359.445 92.5215 360.957 90.957 363.066 90.957ZM363.066 92.3809C361.836 92.3809 360.957 93.3652 360.957 94.8242C360.957 96.2832 361.836 97.25 363.066 97.25C364.279 97.25 365.176 96.2832 365.193 94.8242C365.176 93.3652 364.279 92.3809 363.066 92.3809ZM372.752 89.7441V101.521H371.17V89.7441H372.752ZM373.209 103.807V105.16H362.311V99.9922H363.963V103.807H373.209ZM389.24 97.8125V99.166H374.879V97.8125H381.225V96.002H382.877V97.8125H389.24ZM382.877 89.7266V91.2383H387.799V92.5742H382.982C383.158 94.0947 385.338 95.2373 388.467 95.4922L387.957 96.7754C385.232 96.5205 383.026 95.6064 382.051 94.1387C381.066 95.6064 378.86 96.5205 376.162 96.7754L375.635 95.4922C378.746 95.2373 380.926 94.0947 381.119 92.5742H376.32V91.2383H381.225V89.7266H382.877ZM382.051 100.203C385.479 100.203 387.482 101.135 387.482 102.84C387.482 104.545 385.479 105.477 382.051 105.459C378.605 105.477 376.584 104.545 376.584 102.84C376.584 101.135 378.605 100.203 382.051 100.203ZM382.051 101.451C379.625 101.451 378.271 101.943 378.271 102.84C378.271 103.736 379.625 104.211 382.051 104.193C384.441 104.211 385.812 103.736 385.812 102.84C385.812 101.943 384.441 101.451 382.051 101.451ZM403.461 89.7441V105.494H401.791V89.7441H403.461ZM390.523 101.205C391.815 101.196 393.301 101.188 394.848 101.135V99.5703C393.002 99.333 391.807 98.252 391.824 96.7051C391.807 94.9297 393.354 93.752 395.639 93.752C397.941 93.752 399.523 94.9297 399.523 96.7051C399.523 98.2344 398.328 99.3066 396.5 99.5527V101.082C397.959 101.021 399.436 100.906 400.824 100.73L400.947 101.979C397.449 102.559 393.635 102.594 390.752 102.594L390.523 101.205ZM400.473 91.625V92.9609H390.857V91.625H394.848V89.7793H396.518V91.625H400.473ZM395.639 95.0527C394.32 95.0527 393.389 95.7031 393.406 96.7051C393.389 97.707 394.32 98.3223 395.639 98.3223C396.992 98.3223 397.924 97.707 397.924 96.7051C397.924 95.7031 396.992 95.0527 395.639 95.0527ZM411.494 92.6445C411.494 94.6484 412.883 96.4766 415.273 97.2324L414.482 98.5332C412.689 97.9619 411.38 96.7754 410.686 95.2812C410 97.0039 408.62 98.3662 406.73 99.0254L405.869 97.6895C408.33 96.8809 409.807 94.8418 409.824 92.6621V92.2227H406.361V90.8691H414.887V92.2227H411.494V92.6445ZM418.367 89.7441V93.6465H420.652V95.0176H418.367V99.2012H416.697V89.7441H418.367ZM413.287 99.5879C416.539 99.5879 418.508 100.66 418.508 102.506C418.508 104.369 416.539 105.477 413.287 105.459C410 105.477 407.996 104.369 407.996 102.506C407.996 100.66 410 99.5879 413.287 99.5879ZM413.287 100.906C411.002 100.906 409.648 101.486 409.666 102.506C409.648 103.561 411.002 104.141 413.287 104.141C415.555 104.141 416.873 103.561 416.873 102.506C416.873 101.486 415.555 100.906 413.287 100.906ZM424.379 102.787L422.973 107.639H421.479L422.41 102.787H424.379ZM442.924 89.7266V94.4375H445.209V95.8438H442.924V101.311H441.254V89.7266H442.924ZM443.592 103.807V105.16H432.939V100.098H434.609V103.807H443.592ZM434.979 90.8164C437.352 90.8164 439.162 92.4336 439.18 94.7363C439.162 97.0215 437.352 98.6562 434.979 98.6562C432.605 98.6562 430.777 97.0215 430.795 94.7363C430.777 92.4336 432.605 90.8164 434.979 90.8164ZM434.979 92.2754C433.537 92.2754 432.412 93.2773 432.43 94.7363C432.412 96.1953 433.537 97.1973 434.979 97.1973C436.438 97.1973 437.545 96.1953 437.545 94.7363C437.545 93.2773 436.438 92.2754 434.979 92.2754ZM459.236 89.7617V101.293H457.566V95.3691H454.561V94.0156H457.566V89.7617H459.236ZM459.658 103.807V105.16H449.006V100.256H450.676V103.807H459.658ZM451.748 92.9434C451.748 94.9121 453.172 96.8809 455.545 97.6719L454.684 99.0078C452.917 98.3838 451.607 97.1182 450.922 95.5625C450.236 97.2939 448.856 98.6914 446.984 99.3594L446.123 98.0059C448.549 97.1797 450.043 95.1055 450.043 92.9434V92.3281H446.633V90.957H455.123V92.3281H451.748V92.9434ZM476.076 102.154V103.543H461.662V102.154H468.008V98.9199H463.314V90.8164H464.984V93.5234H472.719V90.8164H474.371V98.9199H469.66V102.154H476.076ZM464.984 97.5664H472.719V94.877H464.984V97.5664ZM482.721 92.6445C482.721 94.6484 484.109 96.4766 486.5 97.2324L485.709 98.5332C483.916 97.9619 482.606 96.7754 481.912 95.2812C481.227 97.0039 479.847 98.3662 477.957 99.0254L477.096 97.6895C479.557 96.8809 481.033 94.8418 481.051 92.6621V92.2227H477.588V90.8691H486.113V92.2227H482.721V92.6445ZM489.594 89.7441V93.6465H491.879V95.0176H489.594V99.2012H487.924V89.7441H489.594ZM484.514 99.5879C487.766 99.5879 489.734 100.66 489.734 102.506C489.734 104.369 487.766 105.477 484.514 105.459C481.227 105.477 479.223 104.369 479.223 102.506C479.223 100.66 481.227 99.5879 484.514 99.5879ZM484.514 100.906C482.229 100.906 480.875 101.486 480.893 102.506C480.875 103.561 482.229 104.141 484.514 104.141C486.781 104.141 488.1 103.561 488.1 102.506C488.1 101.486 486.781 100.906 484.514 100.906ZM505.818 89.7441V105.529H504.148V89.7441H505.818ZM497.398 90.9219C499.736 90.9219 501.459 93.0664 501.459 96.4414C501.459 99.834 499.736 101.979 497.398 101.979C495.025 101.979 493.32 99.834 493.32 96.4414C493.32 93.0664 495.025 90.9219 497.398 90.9219ZM497.398 92.416C495.939 92.416 494.938 93.9629 494.938 96.4414C494.938 98.9375 495.939 100.484 497.398 100.484C498.84 100.484 499.842 98.9375 499.842 96.4414C499.842 93.9629 498.84 92.416 497.398 92.416ZM513.799 93.752C513.781 96.5469 515.398 99.3945 517.754 100.537L516.717 101.873C515.003 100.985 513.676 99.2188 512.99 97.1094C512.278 99.3594 510.898 101.24 509.105 102.172L508.068 100.818C510.494 99.6582 512.129 96.6348 512.129 93.752V91.0625H513.799V93.752ZM520.602 89.7441V96.0195H523.133V97.4434H520.602V105.494H518.932V89.7441H520.602ZM536.914 89.7441V105.494H535.244V89.7441H536.914ZM523.977 101.205C525.269 101.196 526.754 101.188 528.301 101.135V99.5703C526.455 99.333 525.26 98.252 525.277 96.7051C525.26 94.9297 526.807 93.752 529.092 93.752C531.395 93.752 532.977 94.9297 532.977 96.7051C532.977 98.2344 531.781 99.3066 529.953 99.5527V101.082C531.412 101.021 532.889 100.906 534.277 100.73L534.4 101.979C530.902 102.559 527.088 102.594 524.205 102.594L523.977 101.205ZM533.926 91.625V92.9609H524.311V91.625H528.301V89.7793H529.971V91.625H533.926ZM529.092 95.0527C527.773 95.0527 526.842 95.7031 526.859 96.7051C526.842 97.707 527.773 98.3223 529.092 98.3223C530.445 98.3223 531.377 97.707 531.377 96.7051C531.377 95.7031 530.445 95.0527 529.092 95.0527ZM552.207 97.0039V98.3398H547.443V102.189H553.859V103.561H539.445V102.189H545.791V98.3398H541.238V90.957H552.066V92.3105H542.908V97.0039H552.207ZM565.232 92.5742C565.232 94.5957 566.744 96.5293 569.17 97.3027L568.309 98.6035C566.498 98.0059 565.127 96.7578 564.424 95.1758C563.712 96.8896 562.314 98.2432 560.434 98.9023L559.572 97.6191C562.016 96.7754 563.527 94.7188 563.545 92.5742V92.1348H560.012V90.7812H568.695V92.1348H565.232V92.5742ZM572.457 89.7441V99.2539H570.787V89.7441H572.457ZM572.457 100.045V105.494H570.787V101.398H561.787V100.045H572.457ZM588.066 89.7441V98.3223H586.414V94.8418H583.461V93.4707H586.414V89.7441H588.066ZM579.471 99.0254V100.836H586.414V99.0254H588.066V105.301H577.818V99.0254H579.471ZM579.471 103.947H586.414V102.137H579.471V103.947ZM580.596 92.2051C580.596 94.1562 582.02 96.125 584.393 96.9336L583.531 98.2344C581.756 97.6104 580.455 96.3535 579.77 94.7891C579.075 96.5381 577.704 97.9268 575.832 98.5859L574.971 97.2676C577.396 96.4238 578.891 94.3496 578.891 92.1875V91.9766H575.48V90.623H583.971V91.9766H580.596V92.2051ZM593.41 91.2734L593.252 100.326H591.512L591.354 91.2734H593.41ZM592.391 104.123C591.705 104.123 591.125 103.561 591.143 102.875C591.125 102.189 591.705 101.627 592.391 101.627C593.059 101.627 593.639 102.189 593.639 102.875C593.639 103.561 593.059 104.123 592.391 104.123Z" fill="white"/>
<path d="M213 91.5H205V105.5H219V98" stroke="white" stroke-width="1.8"/>
<path d="M207.5 96L212 100.5L222 89" stroke="white" stroke-width="1.8"/>
</svg>
