<svg width="345" height="47" viewBox="0 0 345 47" fill="none" xmlns="http://www.w3.org/2000/svg">
<path d="M114.38 2.43555V6.94727H113.621V4.68457H112.527V4.06934H113.621V2.43555H114.38ZM114.537 7.87012V8.48535H110.326V6.55078H111.085V7.87012H114.537ZM111.475 3.66602C111.475 4.41113 111.974 5.17676 112.931 5.49121L112.548 6.09961C111.857 5.86377 111.369 5.39551 111.099 4.80762C110.825 5.46045 110.309 5.97656 109.581 6.22949L109.191 5.61426C110.176 5.29297 110.702 4.47949 110.702 3.65918V3.49512H109.417V2.87988H112.753V3.49512H111.475V3.66602ZM117.724 4.04883C117.724 5.04688 118.072 6.08594 118.906 6.6123L118.489 7.19336C117.932 6.8584 117.57 6.28076 117.368 5.60059C117.143 6.34912 116.746 6.98145 116.165 7.33691L115.693 6.76953C116.589 6.22266 116.992 5.13574 116.992 4.08301V2.97559H117.724V4.04883ZM121.128 2.42871V8.6084H120.397V2.42871H121.128ZM119.843 2.53809V8.30762H119.125V5.18359H118.243V4.55469H119.125V2.53809H119.843ZM126.618 2.42871V8.6084H125.893V2.42871H126.618ZM125.34 2.5791V8.31445H124.615V6.25H123.651V5.62793H124.615V4.71191H123.76C123.47 5.7373 122.824 6.61914 121.669 7.30273L121.224 6.7627C122.506 6.00732 123.094 5.04004 123.207 3.7959H121.552V3.18066H123.959C123.959 3.4917 123.938 3.7959 123.897 4.08984H124.615V2.5791H125.34ZM128.779 2.85938C129.756 2.85254 130.474 3.47461 130.481 4.34961C130.474 5.23145 129.756 5.84668 128.779 5.84668C127.808 5.84668 127.083 5.23145 127.083 4.34961C127.083 3.47461 127.808 2.85254 128.779 2.85938ZM128.779 3.51562C128.239 3.51562 127.835 3.83691 127.835 4.34961C127.835 4.86914 128.239 5.18359 128.779 5.18359C129.325 5.18359 129.736 4.86914 129.736 4.34961C129.736 3.83691 129.325 3.51562 128.779 3.51562ZM131.923 2.42871V8.61523H131.164V2.42871H131.923ZM126.803 6.70117C127.917 6.70117 129.462 6.6875 130.795 6.49609L130.857 7.0498C129.469 7.31641 127.986 7.32324 126.899 7.32324L126.803 6.70117ZM138.206 2.42871V4.88965H139.157V5.51855H138.206V8.6084H137.454V2.42871H138.206ZM136.976 3.37891V3.9873H133.332V3.37891H134.795V2.51758H135.554V3.37891H136.976ZM135.178 4.39062C136.067 4.39062 136.73 4.99219 136.73 5.84668C136.73 6.70117 136.067 7.2959 135.178 7.2959C134.276 7.2959 133.613 6.70117 133.619 5.84668C133.613 4.99219 134.276 4.39062 135.178 4.39062ZM135.178 5.0127C134.693 5.0127 134.344 5.34082 134.344 5.84668C134.344 6.35254 134.693 6.67383 135.178 6.66699C135.65 6.67383 135.998 6.35254 136.005 5.84668C135.998 5.34082 135.65 5.0127 135.178 5.0127ZM144.612 4.81445V5.43652H143.696V8.59473H142.937V2.42871H143.696V4.81445H144.612ZM139.827 3.03027V6.44141C140.651 6.42773 141.529 6.35596 142.459 6.16113L142.541 6.80371C141.502 7.00879 140.511 7.07031 139.595 7.07031H139.075V3.03027H139.827ZM145.536 2.63379V3.30371H146.247V2.63379H146.958V5.14258H144.818V2.63379H145.536ZM145.536 4.53418H146.247V3.87793H145.536V4.53418ZM148.085 2.63379V3.30371H148.783V2.63379H149.507V5.14258H147.361V2.63379H148.085ZM148.085 4.53418H148.783V3.87793H148.085V4.53418ZM149.986 5.64844V6.25H147.6V7.33008H146.848V6.25H144.339V5.64844H149.986ZM149.364 7.89746V8.5127H145.023V6.83789H145.775V7.89746H149.364ZM154.983 2.43555V6.89941H154.218V2.43555H154.983ZM155.154 7.87012V8.48535H150.896V6.44824H151.661V7.87012H155.154ZM151.613 2.83887C152.55 2.83887 153.274 3.48828 153.274 4.38379C153.274 5.2998 152.55 5.93555 151.613 5.93555C150.67 5.93555 149.945 5.2998 149.945 4.38379C149.945 3.48828 150.67 2.83887 151.613 2.83887ZM151.613 3.50195C151.087 3.50195 150.684 3.85059 150.69 4.38379C150.684 4.93066 151.087 5.27246 151.613 5.27246C152.126 5.27246 152.529 4.93066 152.529 4.38379C152.529 3.85059 152.126 3.50195 151.613 3.50195ZM162.067 5.89453V6.50977H160.693V8.6084H159.92V6.50977H158.553V8.6084H157.774V6.50977H156.42V5.89453H162.067ZM159.23 2.64746C160.542 2.6543 161.458 3.1875 161.458 4.02832C161.458 4.85547 160.542 5.38184 159.23 5.38184C157.91 5.38184 157.008 4.85547 157.015 4.02832C157.008 3.1875 157.91 2.6543 159.23 2.64746ZM159.23 3.2627C158.355 3.2627 157.787 3.54297 157.794 4.02832C157.787 4.5 158.355 4.78027 159.23 4.78027C160.105 4.78027 160.672 4.5 160.672 4.02832C160.672 3.54297 160.105 3.2627 159.23 3.2627ZM163.373 2.89355C164.101 2.89355 164.658 3.38574 164.774 4.1377H165.266V2.53809H165.97V6.85156H165.266V4.75977H164.767C164.641 5.48438 164.091 5.96289 163.373 5.96289C162.552 5.96289 161.958 5.33398 161.958 4.43164C161.958 3.51562 162.552 2.89355 163.373 2.89355ZM163.373 3.54297C162.942 3.54297 162.634 3.8916 162.641 4.43164C162.634 4.97168 162.942 5.30664 163.373 5.30664C163.797 5.30664 164.111 4.97168 164.118 4.43164C164.111 3.8916 163.797 3.54297 163.373 3.54297ZM167.201 2.42871V7.03613H166.476V2.42871H167.201ZM167.372 7.87012V8.48535H163.065V6.44141H163.824V7.87012H167.372ZM168.89 2.66113V3.33105H171.556V2.66113H172.308V5.16992H170.599V5.7373H173.039V6.35254H167.407V5.7373H169.833V5.16992H168.138V2.66113H168.89ZM168.89 4.56152H171.556V3.91895H168.89V4.56152ZM172.404 7.87012V8.48535H168.104V6.74902H168.863V7.87012H172.404ZM178.536 6.02441V6.62598H176.075V8.6084H175.323V6.62598H172.889V6.02441H178.536ZM174.325 2.6748V3.43359H177.087V2.6748H177.852V5.38184H173.573V2.6748H174.325ZM174.325 4.7666H177.087V4.03516H174.325V4.7666ZM184.026 5.23145V5.80566H178.379V5.23145H184.026ZM183.342 6.1748V7.58301H179.801V8.01367H183.527V8.54004H179.042V7.09082H182.59V6.70801H179.036V6.1748H183.342ZM183.329 2.56543V3.95996H179.849V4.36328H183.438V4.88281H179.097V3.46777H182.57V3.0918H179.077V2.56543H183.329ZM190.61 4.97852V5.58691H184.977V4.97852H190.61ZM189.906 6.00391V7.52148H186.392V7.97266H190.077V8.55371H185.647V6.98145H189.161V6.56445H185.64V6.00391H189.906ZM190.104 2.64062V3.24219H188.265C188.419 3.7002 189.181 4.1001 190.343 4.17871L190.104 4.7666C188.997 4.67773 188.159 4.30518 187.787 3.75488C187.414 4.30176 186.587 4.67773 185.49 4.7666L185.251 4.17871C186.402 4.1001 187.154 3.7002 187.315 3.24219H185.49V2.64062H190.104ZM195.628 2.42871V8.6084H194.862V2.42871H195.628ZM193.782 3.08496C193.782 4.92383 193.071 6.48926 190.904 7.51465L190.508 6.90625C192.125 6.13721 192.877 5.09131 193.01 3.68652H190.822V3.08496H193.782ZM198.172 4.18555C198.172 5.14258 198.739 6.22949 199.716 6.68066L199.293 7.28223C198.595 6.9541 198.079 6.29102 197.802 5.51855C197.522 6.36621 196.982 7.09082 196.271 7.43262L195.827 6.83789C196.811 6.37305 197.406 5.21094 197.413 4.18555V3.66602H196.066V3.03711H199.464V3.66602H198.172V4.18555ZM200.797 2.42871V4.83496H201.747V5.4707H200.797V8.6084H200.038V2.42871H200.797Z" fill="white"/>
<path d="M115.652 18.8086H117.315V24.8135C117.315 26.7812 115.817 28.1396 113.583 28.1396C111.336 28.1396 109.851 26.7812 109.851 24.8135V18.8086H111.501V24.6738C111.501 25.8291 112.313 26.667 113.583 26.667C114.853 26.667 115.652 25.8291 115.652 24.6738V18.8086ZM125.53 18.8086V28H124.058L119.703 21.7158H119.627V28H117.977V18.8086H119.475L123.804 25.0928H123.893V18.8086H125.53ZM130.522 18.085V19.3291H135.473V18.085H136.869V22.7441H133.695V23.7979H138.228V24.9404H127.767V23.7979H132.274V22.7441H129.125V18.085H130.522ZM130.522 21.6143H135.473V20.4209H130.522V21.6143ZM137.047 27.7588V28.9014H129.062V25.6768H130.471V27.7588H137.047ZM148.436 24.3311V25.4482H143.865V29.1299H142.469V25.4482H137.949V24.3311H148.436ZM140.615 18.1104V19.5195H145.744V18.1104H147.166V23.1377H139.219V18.1104H140.615ZM140.615 21.9951H145.744V20.6367H140.615V21.9951ZM159.254 17.666V21.2715H160.854V22.4395H159.254V26.2354H157.845V17.666H159.254ZM157.02 18.9355V20.0654H150.215V18.9355H152.919V17.6533H154.328V18.9355H157.02ZM153.617 20.5352C155.268 20.5352 156.41 21.4111 156.423 22.7314C156.41 24.0391 155.268 24.9023 153.617 24.9023C151.954 24.9023 150.799 24.0391 150.799 22.7314C150.799 21.4111 151.954 20.5352 153.617 20.5352ZM153.617 21.627C152.741 21.627 152.17 22.0332 152.17 22.7314C152.17 23.417 152.741 23.8232 153.617 23.8105C154.493 23.8232 155.077 23.417 155.077 22.7314C155.077 22.0332 154.493 21.627 153.617 21.627ZM159.711 27.7588V28.9014H151.904V25.5625H153.313V27.7588H159.711ZM169.602 18.1738V19.0498C169.602 19.9067 169.602 20.8906 169.361 22.1729H170.884V23.3154H166.326V25.1055H169.627V29.1299H168.218V26.2354H161.464V25.1055H164.917V23.3154H160.398V22.1729H167.939C168.167 20.9985 168.193 20.1035 168.193 19.3037H161.693V18.1738H169.602ZM173.729 18.4912C175.284 18.4912 176.433 19.7861 176.636 21.8809H178.82V17.6533H180.216V29.1426H178.82V23.0234H176.649C176.496 25.2388 175.328 26.6035 173.729 26.6035C172.002 26.6035 170.784 25.042 170.784 22.541C170.784 20.0654 172.002 18.4912 173.729 18.4912ZM173.729 19.7607C172.777 19.7607 172.129 20.7891 172.142 22.541C172.129 24.3057 172.777 25.334 173.729 25.334C174.681 25.334 175.316 24.3057 175.328 22.541C175.316 20.7891 174.681 19.7607 173.729 19.7607ZM191.822 17.6533V22.1348H193.523V23.3154H191.822V29.1045H190.412V17.6533H191.822ZM188.787 18.8467C188.787 22.2236 187.391 25.1816 183.57 27.0605L182.77 25.9688C185.563 24.5786 187.074 22.6235 187.366 20.0146H183.392V18.8467H188.787ZM202.576 17.6533V29.1426H201.154V17.6533H202.576ZM196.393 18.4912C198.12 18.4912 199.376 20.0654 199.389 22.541C199.376 25.042 198.12 26.6035 196.393 26.6035C194.654 26.6035 193.397 25.042 193.397 22.541C193.397 20.0654 194.654 18.4912 196.393 18.4912ZM196.393 19.7607C195.415 19.7607 194.755 20.7891 194.755 22.541C194.755 24.3057 195.415 25.334 196.393 25.334C197.358 25.334 198.018 24.3057 198.018 22.541C198.018 20.7891 197.358 19.7607 196.393 19.7607ZM212.542 23.0361V24.166H204.494V18.6562H212.454V19.7988H205.89V23.0361H212.542ZM213.71 26.502V27.6699H203.224V26.502H213.71ZM225.938 24.4961V25.6514H221.38V29.1299H219.984V25.6514H215.452V24.4961H225.938ZM224.808 22.4268V23.5439H216.797V18.1484H224.681V19.2656H218.194V20.2812H224.427V21.373H218.194V22.4268H224.808ZM228.796 18.4912C230.351 18.4912 231.5 19.7861 231.703 21.8809H233.886V17.6533H235.283V29.1426H233.886V23.0234H231.715C231.563 25.2388 230.395 26.6035 228.796 26.6035C227.069 26.6035 225.85 25.042 225.85 22.541C225.85 20.0654 227.069 18.4912 228.796 18.4912ZM228.796 19.7607C227.843 19.7607 227.196 20.7891 227.209 22.541C227.196 24.3057 227.843 25.334 228.796 25.334C229.748 25.334 230.382 24.3057 230.395 22.541C230.382 20.7891 229.748 19.7607 228.796 19.7607Z" fill="white"/>
<path d="M121.769 39.3311V39.8198H117.827V37.7314H118.436V39.3311H121.769ZM122.365 40.5879V41.0767H121.071V43.1396H120.461V41.0767H119.084V43.1396H118.481V41.0767H117.179V40.5879H122.365ZM125.165 38.2583C125.165 39.1851 126.156 40.061 127.247 40.2578L126.968 40.7593C126.06 40.5625 125.222 39.9658 124.854 39.166C124.48 39.9595 123.645 40.5562 122.734 40.7593L122.468 40.2578C123.547 40.0547 124.531 39.1851 124.531 38.2583V37.8267H125.165V38.2583ZM127.482 41.8892V42.3906H122.277V41.8892H127.482ZM132.269 37.4521V43.1396H131.691V37.4521H132.269ZM131.114 37.5601V42.8604H130.536V40.1182H129.895C129.844 41.229 129.368 41.9209 128.663 41.9146C127.921 41.9209 127.438 41.1401 127.438 39.9087C127.438 38.6772 127.921 37.9028 128.663 37.9092C129.355 37.9028 129.825 38.5598 129.895 39.6294H130.536V37.5601H131.114ZM128.663 38.4741C128.251 38.4741 127.997 39.001 127.997 39.9087C127.997 40.8164 128.251 41.3433 128.663 41.3433C129.082 41.3433 129.343 40.8164 129.343 39.9087C129.343 39.001 129.082 38.4741 128.663 38.4741ZM134.523 38.8994C134.523 39.9404 135.107 40.9751 135.976 41.3687L135.608 41.8511C134.961 41.5273 134.475 40.8831 134.224 40.1055C133.974 40.9243 133.475 41.6162 132.822 41.959L132.441 41.4702C133.323 41.0513 133.913 39.9531 133.913 38.8994V37.9282H134.523V38.8994ZM137.214 37.4521V43.1523H136.617V39.8325H135.348V39.3438H136.617V37.4521H137.214ZM140.452 37.9536V40.6069H137.792V37.9536H140.452ZM138.383 38.4424V40.1309H139.862V38.4424H138.383ZM142.039 37.4458V39.147H142.864V39.6548H142.039V41.6162H141.436V37.4458H142.039ZM142.28 42.5303V43.019H138.433V41.2163H139.036V42.5303H142.28ZM148.94 41.9336V42.4351H143.735V41.9336H146.026V40.7656H144.331V37.8394H144.934V38.8169H147.727V37.8394H148.324V40.7656H146.623V41.9336H148.94ZM144.934 40.2769H147.727V39.3057H144.934V40.2769ZM151.778 37.8965V38.3916H149.766V40.2959C150.718 40.2927 151.356 40.2642 152.082 40.1245L152.146 40.6133C151.352 40.7529 150.667 40.791 149.607 40.791H149.169V37.8965H151.778ZM153.574 37.4585V41.6035H152.971V39.4834H151.422V39.001H152.971V37.4585H153.574ZM153.72 42.562V43.0508H149.867V41.2798H150.476V42.562H153.72ZM160.196 40.6641V41.1592H158.875V43.1396H158.266V41.1592H156.908V43.1396H156.286V41.1592H154.991V40.6641H160.196ZM157.58 37.668C158.78 37.668 159.605 38.1567 159.605 38.9248C159.605 39.6802 158.78 40.1626 157.58 40.1562C156.374 40.1626 155.556 39.6802 155.556 38.9248C155.556 38.1567 156.374 37.668 157.58 37.668ZM157.58 38.1504C156.736 38.1567 156.171 38.4487 156.178 38.9248C156.171 39.3882 156.736 39.6802 157.58 39.6802C158.425 39.6802 158.99 39.3882 158.99 38.9248C158.99 38.4487 158.425 38.1567 157.58 38.1504ZM161.447 37.8901C162.129 37.8901 162.646 38.3503 162.742 39.0518H163.269V37.5537H163.833V41.5337H163.269V39.5532H162.735C162.627 40.2292 162.116 40.6831 161.447 40.6768C160.685 40.6831 160.139 40.1055 160.145 39.2866C160.139 38.4551 160.685 37.8901 161.447 37.8901ZM161.447 38.4043C161.002 38.4043 160.685 38.7598 160.685 39.2866C160.685 39.8135 161.002 40.1626 161.447 40.1626C161.885 40.1626 162.208 39.8135 162.215 39.2866C162.208 38.7598 161.885 38.4043 161.447 38.4043ZM164.944 37.4521V41.7051H164.373V37.4521H164.944ZM165.109 42.5303V43.019H161.174V41.1528H161.77V42.5303H165.109ZM170.378 40.3657V40.8545H165.192V40.3657H167.484V39.7119H168.081V40.3657H170.378ZM168.081 37.4458V37.9917H169.858V38.4741H168.119C168.182 39.0232 168.969 39.4358 170.099 39.5278L169.915 39.9912C168.931 39.8992 168.134 39.5691 167.782 39.0391C167.427 39.5691 166.63 39.8992 165.656 39.9912L165.465 39.5278C166.589 39.4358 167.376 39.0232 167.446 38.4741H165.713V37.9917H167.484V37.4458H168.081ZM167.782 41.229C169.02 41.229 169.744 41.5654 169.744 42.1812C169.744 42.7969 169.02 43.1333 167.782 43.127C166.538 43.1333 165.808 42.7969 165.808 42.1812C165.808 41.5654 166.538 41.229 167.782 41.229ZM167.782 41.6797C166.906 41.6797 166.417 41.8574 166.417 42.1812C166.417 42.5049 166.906 42.6763 167.782 42.6699C168.645 42.6763 169.141 42.5049 169.141 42.1812C169.141 41.8574 168.645 41.6797 167.782 41.6797ZM174.994 37.4521V43.1396H174.391V37.4521H174.994ZM170.322 41.5908C170.788 41.5876 171.325 41.5845 171.883 41.5654V41.0005C171.217 40.9148 170.785 40.5244 170.791 39.9658C170.785 39.3247 171.344 38.8994 172.169 38.8994C173 38.8994 173.572 39.3247 173.572 39.9658C173.572 40.5181 173.14 40.9053 172.48 40.9941V41.5464C173.007 41.5242 173.54 41.4829 174.041 41.4194L174.086 41.8701C172.823 42.0796 171.445 42.0923 170.404 42.0923L170.322 41.5908ZM173.915 38.1313V38.6138H170.442V38.1313H171.883V37.4648H172.486V38.1313H173.915ZM172.169 39.3691C171.693 39.3691 171.356 39.604 171.363 39.9658C171.356 40.3276 171.693 40.5498 172.169 40.5498C172.658 40.5498 172.994 40.3276 172.994 39.9658C172.994 39.604 172.658 39.3691 172.169 39.3691ZM177.375 38.4995C177.375 39.2231 177.876 39.8833 178.739 40.1562L178.454 40.626C177.806 40.4197 177.333 39.9912 177.083 39.4517C176.835 40.0737 176.337 40.5657 175.654 40.8037L175.343 40.3213C176.232 40.0293 176.765 39.293 176.771 38.5059V38.3472H175.521V37.8584H178.6V38.3472H177.375V38.4995ZM179.856 37.4521V38.8613H180.682V39.3564H179.856V40.8672H179.253V37.4521H179.856ZM178.022 41.0068C179.196 41.0068 179.907 41.394 179.907 42.0605C179.907 42.7334 179.196 43.1333 178.022 43.127C176.835 43.1333 176.111 42.7334 176.111 42.0605C176.111 41.394 176.835 41.0068 178.022 41.0068ZM178.022 41.4829C177.197 41.4829 176.708 41.6924 176.714 42.0605C176.708 42.4414 177.197 42.6509 178.022 42.6509C178.841 42.6509 179.317 42.4414 179.317 42.0605C179.317 41.6924 178.841 41.4829 178.022 41.4829ZM181.507 42.1621L181 43.9141H180.46L180.796 42.1621H181.507ZM187.164 37.4458V39.147H187.989V39.6548H187.164V41.6289H186.561V37.4458H187.164ZM187.405 42.5303V43.019H183.559V41.1909H184.162V42.5303H187.405ZM184.295 37.8394C185.152 37.8394 185.806 38.4233 185.812 39.2549C185.806 40.0801 185.152 40.6704 184.295 40.6704C183.438 40.6704 182.778 40.0801 182.784 39.2549C182.778 38.4233 183.438 37.8394 184.295 37.8394ZM184.295 38.3662C183.774 38.3662 183.368 38.728 183.375 39.2549C183.368 39.7817 183.774 40.1436 184.295 40.1436C184.822 40.1436 185.222 39.7817 185.222 39.2549C185.222 38.728 184.822 38.3662 184.295 38.3662ZM192.535 37.4585V41.6226H191.932V39.4834H190.846V38.9946H191.932V37.4585H192.535ZM192.687 42.5303V43.019H188.84V41.248H189.443V42.5303H192.687ZM189.831 38.6074C189.831 39.3184 190.345 40.0293 191.202 40.3149L190.891 40.7974C190.253 40.572 189.78 40.115 189.532 39.5532C189.285 40.1785 188.786 40.6831 188.11 40.9243L187.799 40.4355C188.675 40.1372 189.215 39.3882 189.215 38.6074V38.3853H187.983V37.8901H191.049V38.3853H189.831V38.6074ZM198.096 41.9336V42.4351H192.891V41.9336H195.182V40.7656H193.487V37.8394H194.09V38.8169H196.883V37.8394H197.48V40.7656H195.779V41.9336H198.096ZM194.09 40.2769H196.883V39.3057H194.09V40.2769ZM199.975 38.4995C199.975 39.2231 200.477 39.8833 201.34 40.1562L201.054 40.626C200.407 40.4197 199.934 39.9912 199.683 39.4517C199.436 40.0737 198.937 40.5657 198.255 40.8037L197.944 40.3213C198.833 40.0293 199.366 39.293 199.372 38.5059V38.3472H198.122V37.8584H201.2V38.3472H199.975V38.4995ZM202.457 37.4521V38.8613H203.282V39.3564H202.457V40.8672H201.854V37.4521H202.457ZM200.623 41.0068C201.797 41.0068 202.508 41.394 202.508 42.0605C202.508 42.7334 201.797 43.1333 200.623 43.127C199.436 43.1333 198.712 42.7334 198.712 42.0605C198.712 41.394 199.436 41.0068 200.623 41.0068ZM200.623 41.4829C199.797 41.4829 199.309 41.6924 199.315 42.0605C199.309 42.4414 199.797 42.6509 200.623 42.6509C201.442 42.6509 201.918 42.4414 201.918 42.0605C201.918 41.6924 201.442 41.4829 200.623 41.4829ZM207.796 37.4521V43.1523H207.193V37.4521H207.796ZM204.756 37.8774C205.6 37.8774 206.222 38.6519 206.222 39.8706C206.222 41.0957 205.6 41.8701 204.756 41.8701C203.899 41.8701 203.283 41.0957 203.283 39.8706C203.283 38.6519 203.899 37.8774 204.756 37.8774ZM204.756 38.417C204.229 38.417 203.867 38.9756 203.867 39.8706C203.867 40.772 204.229 41.3306 204.756 41.3306C205.276 41.3306 205.638 40.772 205.638 39.8706C205.638 38.9756 205.276 38.417 204.756 38.417ZM210.158 38.8994C210.152 39.9087 210.736 40.937 211.586 41.3496L211.212 41.832C210.593 41.5115 210.113 40.8735 209.866 40.1118C209.609 40.9243 209.111 41.6035 208.463 41.9399L208.089 41.4512C208.965 41.0322 209.555 39.9404 209.555 38.8994V37.9282H210.158V38.8994ZM212.614 37.4521V39.7183H213.528V40.2324H212.614V43.1396H212.011V37.4521H212.614ZM217.985 37.4521V43.1396H217.382V37.4521H217.985ZM213.313 41.5908C213.78 41.5876 214.316 41.5845 214.875 41.5654V41.0005C214.208 40.9148 213.777 40.5244 213.783 39.9658C213.777 39.3247 214.335 38.8994 215.16 38.8994C215.992 38.8994 216.563 39.3247 216.563 39.9658C216.563 40.5181 216.132 40.9053 215.471 40.9941V41.5464C215.998 41.5242 216.531 41.4829 217.033 41.4194L217.077 41.8701C215.814 42.0796 214.437 42.0923 213.396 42.0923L213.313 41.5908ZM216.906 38.1313V38.6138H213.434V38.1313H214.875V37.4648H215.478V38.1313H216.906ZM215.16 39.3691C214.684 39.3691 214.348 39.604 214.354 39.9658C214.348 40.3276 214.684 40.5498 215.16 40.5498C215.649 40.5498 215.986 40.3276 215.986 39.9658C215.986 39.604 215.649 39.3691 215.16 39.3691ZM222.988 40.0737V40.5562H221.267V41.9463H223.584V42.4414H218.379V41.9463H220.671V40.5562H219.027V37.8901H222.937V38.3789H219.63V40.0737H222.988ZM226.651 38.4741C226.651 39.2041 227.197 39.9023 228.073 40.1816L227.762 40.6514C227.108 40.4355 226.613 39.9849 226.359 39.4136C226.102 40.0325 225.597 40.5212 224.918 40.7593L224.607 40.2959C225.49 39.9912 226.035 39.2485 226.042 38.4741V38.3154H224.766V37.8267H227.902V38.3154H226.651V38.4741ZM229.26 37.4521V40.8862H228.657V37.4521H229.26ZM229.26 41.1719V43.1396H228.657V41.6606H225.407V41.1719H229.26ZM234.377 37.4521V40.5498H233.78V39.293H232.714V38.7979H233.78V37.4521H234.377ZM231.273 40.8037V41.4575H233.78V40.8037H234.377V43.0698H230.676V40.8037H231.273ZM231.273 42.5811H233.78V41.9272H231.273V42.5811ZM231.679 38.3408C231.679 39.0454 232.193 39.7563 233.05 40.0483L232.739 40.5181C232.098 40.2927 231.628 39.8389 231.381 39.2739C231.13 39.9055 230.635 40.407 229.959 40.645L229.648 40.1689C230.524 39.8643 231.063 39.1152 231.063 38.3345V38.2583H229.832V37.7695H232.898V38.2583H231.679V38.3408ZM235.786 38.0044L235.729 41.2734H235.101L235.044 38.0044H235.786ZM235.418 42.6445C235.171 42.6445 234.961 42.4414 234.968 42.1938C234.961 41.9463 235.171 41.7432 235.418 41.7432C235.659 41.7432 235.869 41.9463 235.869 42.1938C235.869 42.4414 235.659 42.6445 235.418 42.6445Z" fill="white"/>
<path d="M112.2 37.6606H109V43.1706H114.6V40.2189" stroke="white"/>
<path d="M110.42 39.4348L111.972 41L115.42 37" stroke="white"/>
</svg>
