<svg width="347" height="48" viewBox="0 0 347 48" fill="none" xmlns="http://www.w3.org/2000/svg">
<mask id="mask0_47_124" style="mask-type:luminance" maskUnits="userSpaceOnUse" x="1" y="0" width="345" height="48">
<path d="M346 0.5H1V47.5H346V0.5Z" fill="white"/>
</mask>
<g mask="url(#mask0_47_124)">
<mask id="mask1_47_124" style="mask-type:luminance" maskUnits="userSpaceOnUse" x="1" y="0" width="345" height="48">
<path d="M346 0.5H1V47.5H346V0.5Z" fill="white"/>
</mask>
<g mask="url(#mask1_47_124)">
<path d="M79.742 18H81.458V30.077H79.742V18ZM81.068 22.55H83.2V23.98H81.068V22.55ZM72.514 25.865H73.528C75.569 25.865 77.155 25.8 78.923 25.488L79.092 26.879C77.272 27.204 75.621 27.282 73.528 27.282H72.514V25.865ZM72.501 19.027H78.039V23.694H74.23V26.398H72.514V22.316H76.323V20.405H72.501V19.027ZM88.451 18.702H89.959V19.573C89.959 22.186 88.1 24.5 84.98 25.111L84.239 23.681C86.956 23.213 88.451 21.302 88.451 19.573V18.702ZM88.802 18.702H90.297V19.573C90.297 21.341 91.779 23.213 94.509 23.681L93.768 25.111C90.648 24.5 88.802 22.225 88.802 19.573V18.702ZM83.992 27.178H94.886V28.582H83.992V27.178ZM96.276 19.105H97.901V21.874H99.461V19.105H101.047V27.204H96.276V19.105ZM97.901 23.226V25.813H99.461V23.226H97.901ZM104.635 18.013H106.286V30.051H104.635V18.013ZM100.774 22.407H102.776V23.811H100.774V22.407ZM102.178 18.208H103.803V29.518H102.178V18.208ZM115.593 18H117.335V30.038H115.593V18ZM116.88 22.602H118.999V24.019H116.88V22.602ZM112.434 19.248H114.124C114.124 22.862 112.746 25.956 108.742 27.971L107.78 26.658C110.939 25.02 112.434 22.81 112.434 19.547V19.248ZM108.443 19.248H113.318V20.639H108.443V19.248ZM124.328 18.702H125.836V19.573C125.836 22.186 123.977 24.5 120.857 25.111L120.116 23.681C122.833 23.213 124.328 21.302 124.328 19.573V18.702ZM124.679 18.702H126.174V19.573C126.174 21.341 127.656 23.213 130.386 23.681L129.645 25.111C126.525 24.5 124.679 22.225 124.679 19.573V18.702ZM119.869 27.178H130.763V28.582H119.869V27.178ZM143.521 18.013H145.172V30.051H143.521V18.013ZM141.961 22.602H143.95V23.993H141.961V22.602ZM138.555 19.404H140.193C140.193 22.862 139.348 25.657 135.76 27.75L134.798 26.528C137.762 24.812 138.555 22.706 138.555 19.716V19.404ZM135.513 19.404H139.101V20.795H135.513V19.404ZM140.869 18.273H142.481V29.531H140.869V18.273ZM138.581 22.121V23.395L135.084 23.772L134.889 22.316L138.581 22.121ZM155.129 18.013H156.858V26.866H155.129V18.013ZM152.217 19.352H155.714V20.704H152.217V19.352ZM148.902 28.465H157.131V29.843H148.902V28.465ZM148.902 26.073H150.644V29.167H148.902V26.073ZM147.446 18.78H149.162V24.435H147.446V18.78ZM147.446 23.915H148.408C150.15 23.915 151.697 23.837 153.413 23.538L153.569 24.929C151.801 25.254 150.215 25.319 148.408 25.319H147.446V23.915ZM152.217 21.588H155.714V22.953H152.217V21.588ZM166.224 21.766H168.996V22.943H166.224V21.766ZM166.224 24.923H168.996V26.1H166.224V24.923ZM164.464 20.391C165.982 20.391 167.093 21.799 167.093 24.021C167.093 26.265 165.982 27.673 164.464 27.673C162.935 27.673 161.835 26.265 161.835 24.021C161.835 21.799 162.935 20.391 164.464 20.391ZM164.464 21.722C163.727 21.722 163.221 22.525 163.221 24.021C163.221 25.539 163.727 26.353 164.464 26.353C165.212 26.353 165.707 25.539 165.707 24.021C165.707 22.525 165.212 21.722 164.464 21.722ZM168.765 19.676H170.217V29.895H168.765V19.676ZM179.083 19.687H180.469V26.067H179.083V19.687ZM177.84 22.195H179.468V23.383H177.84V22.195ZM176.971 19.885H178.335V25.737H176.971V19.885ZM171.746 20.732H176.685V21.854H171.746V20.732ZM174.232 22.184C175.508 22.184 176.432 22.91 176.432 23.966C176.432 25.022 175.508 25.737 174.232 25.737C172.956 25.737 172.032 25.022 172.032 23.966C172.032 22.91 172.956 22.184 174.232 22.184ZM174.232 23.229C173.693 23.229 173.33 23.493 173.33 23.966C173.33 24.439 173.693 24.703 174.232 24.703C174.76 24.703 175.123 24.439 175.123 23.966C175.123 23.493 174.76 23.229 174.232 23.229ZM173.495 19.786H174.936V21.502H173.495V19.786ZM177.026 26.177C179.204 26.177 180.524 26.837 180.524 28.025C180.524 29.202 179.204 29.873 177.026 29.873C174.837 29.873 173.517 29.202 173.517 28.025C173.517 26.837 174.837 26.177 177.026 26.177ZM177.026 27.266C175.662 27.266 174.98 27.497 174.98 28.025C174.98 28.542 175.662 28.784 177.026 28.784C178.379 28.784 179.061 28.542 179.061 28.025C179.061 27.497 178.379 27.266 177.026 27.266ZM185.187 20.358C186.793 20.358 187.992 21.403 187.992 22.866C187.992 24.34 186.793 25.385 185.187 25.385C183.592 25.385 182.371 24.34 182.371 22.866C182.371 21.403 183.592 20.358 185.187 20.358ZM185.187 21.612C184.406 21.612 183.812 22.074 183.812 22.866C183.812 23.669 184.406 24.131 185.187 24.131C185.968 24.131 186.562 23.669 186.562 22.866C186.562 22.074 185.968 21.612 185.187 21.612ZM188.949 19.676H190.412V29.895H188.949V19.676ZM182.129 27.827L181.953 26.65C183.746 26.65 186.243 26.628 188.388 26.309L188.498 27.365C186.287 27.805 183.889 27.827 182.129 27.827ZM197.06 20.468H198.248V21.953C198.248 24.571 197.346 26.936 195.322 27.871L194.453 26.661C196.224 25.891 197.06 23.933 197.06 21.953V20.468ZM197.346 20.468H198.534V21.953C198.534 23.834 199.337 25.704 201.075 26.452L200.217 27.629C198.248 26.727 197.346 24.461 197.346 21.953V20.468ZM201.559 19.676H203.033V29.895H201.559V19.676ZM206.959 20.732H208.158V21.37C208.158 23.295 207.245 25.022 205.298 25.649L204.539 24.516C206.244 23.966 206.959 22.646 206.959 21.37V20.732ZM207.256 20.732H208.444V21.37C208.444 22.569 209.137 23.812 210.787 24.34L210.039 25.473C208.136 24.857 207.256 23.196 207.256 21.37V20.732ZM204.935 20.281H210.435V21.447H204.935V20.281ZM211.249 19.687H212.712V25.825H211.249V19.687ZM212.305 22.151H214.065V23.35H212.305V22.151ZM205.914 26.265H212.712V29.873H211.249V27.442H205.914V26.265ZM218.766 28.894L217.133 22.894H218.816L219.746 26.9252H219.801L220.77 22.894H222.422L223.406 26.9018H223.457L224.371 22.894H226.051L224.422 28.894H222.66L221.629 25.1206H221.555L220.523 28.894H218.766ZM226.938 28.894V22.894H228.603V28.894H226.938ZM227.774 22.1206C227.527 22.1206 227.315 22.0385 227.138 21.8745C226.963 21.7078 226.876 21.5086 226.876 21.2768C226.876 21.0477 226.963 20.851 227.138 20.687C227.315 20.5203 227.527 20.437 227.774 20.437C228.022 20.437 228.233 20.5203 228.407 20.687C228.584 20.851 228.673 21.0477 228.673 21.2768C228.673 21.5086 228.584 21.7078 228.407 21.8745C228.233 22.0385 228.022 22.1206 227.774 22.1206ZM233.127 22.894V24.144H229.514V22.894H233.127ZM230.334 21.4565H231.998V27.0502C231.998 27.2039 232.021 27.3237 232.068 27.4096C232.115 27.493 232.18 27.5516 232.264 27.5854C232.35 27.6193 232.449 27.6362 232.561 27.6362C232.639 27.6362 232.717 27.6297 232.795 27.6167C232.873 27.601 232.933 27.5893 232.975 27.5815L233.236 28.8198C233.153 28.8458 233.036 28.8758 232.885 28.9096C232.734 28.9461 232.55 28.9682 232.334 28.976C231.933 28.9917 231.581 28.9383 231.279 28.8159C230.98 28.6935 230.747 28.5034 230.58 28.2456C230.413 27.9877 230.331 27.6622 230.334 27.269V21.4565ZM236.004 25.4253V28.894H234.34V20.894H235.957V23.9526H236.027C236.163 23.5984 236.382 23.3211 236.684 23.1206C236.986 22.9174 237.365 22.8159 237.82 22.8159C238.237 22.8159 238.6 22.907 238.91 23.0893C239.223 23.269 239.465 23.5281 239.637 23.8667C239.811 24.2026 239.897 24.6049 239.895 25.0737V28.894H238.23V25.3706C238.233 25.0008 238.139 24.713 237.949 24.5073C237.762 24.3016 237.499 24.1987 237.16 24.1987C236.934 24.1987 236.733 24.2469 236.559 24.3432C236.387 24.4396 236.251 24.5802 236.152 24.7651C236.056 24.9474 236.007 25.1674 236.004 25.4253ZM242.177 28.9956C241.919 28.9956 241.698 28.9044 241.513 28.7221C241.33 28.5372 241.239 28.3159 241.239 28.0581C241.239 27.8029 241.33 27.5841 241.513 27.4018C241.698 27.2195 241.919 27.1284 242.177 27.1284C242.427 27.1284 242.646 27.2195 242.833 27.4018C243.021 27.5841 243.114 27.8029 243.114 28.0581C243.114 28.2299 243.07 28.3875 242.981 28.5307C242.896 28.6713 242.782 28.7846 242.642 28.8706C242.501 28.9539 242.346 28.9956 242.177 28.9956ZM244.652 26.386H245.51C247.226 26.386 248.535 26.364 250.053 26.122L250.185 27.288C248.645 27.53 247.259 27.574 245.51 27.574H244.652V26.386ZM244.652 20.534H249.437V21.722H246.126V26.771H244.652V20.534ZM245.774 23.361H249.294V24.505H245.774V23.361ZM250.768 19.687H252.242V29.873H250.768V19.687ZM251.912 23.548H253.716V24.758H251.912V23.548ZM254.882 20.6H259.777V27.453H254.882V20.6ZM258.347 21.744H256.323V26.298H258.347V21.744ZM261.361 19.676H262.835V29.895H261.361V19.676ZM268.279 20.27H269.555V21.007C269.555 23.218 267.982 25.176 265.342 25.693L264.715 24.483C267.014 24.087 268.279 22.47 268.279 21.007V20.27ZM268.576 20.27H269.841V21.007C269.841 22.503 271.095 24.087 273.405 24.483L272.778 25.693C270.138 25.176 268.576 23.251 268.576 21.007V20.27ZM264.506 27.442H273.724V28.63H264.506V27.442Z" fill="white"/>
<path d="M132.5 25.894C133.052 25.894 133.5 25.4463 133.5 24.894C133.5 24.3418 133.052 23.894 132.5 23.894C131.948 23.894 131.5 24.3418 131.5 24.894C131.5 25.4463 131.948 25.894 132.5 25.894Z" fill="white"/>
</g>
</g>
</svg>
