<svg width="802" height="110" viewBox="0 0 802 110" fill="none" xmlns="http://www.w3.org/2000/svg">
<mask id="mask0_47_137" style="mask-type:luminance" maskUnits="userSpaceOnUse" x="1" y="0" width="800" height="110">
<path d="M801 0.5H1V109.5H801V0.5Z" fill="white"/>
</mask>
<g mask="url(#mask0_47_137)">
<mask id="mask1_47_137" style="mask-type:luminance" maskUnits="userSpaceOnUse" x="1" y="0" width="800" height="110">
<path d="M801 0.5H1V109.5H801V0.5Z" fill="white"/>
</mask>
<g mask="url(#mask1_47_137)">
<path d="M84.762 35H90.438V74.947H84.762V35ZM89.148 50.05H96.2V54.78H89.148V50.05ZM60.854 61.015H64.208C70.959 61.015 76.205 60.8 82.053 59.768L82.612 64.369C76.592 65.444 71.131 65.702 64.208 65.702H60.854V61.015ZM60.811 38.397H79.129V53.834H66.53V62.778H60.854V49.276H73.453V42.955H60.811V38.397ZM113.569 37.322H118.557V40.203C118.557 48.846 112.408 56.5 102.088 58.521L99.6366 53.791C108.624 52.243 113.569 45.922 113.569 40.203V37.322ZM114.73 37.322H119.675V40.203C119.675 46.051 124.577 52.243 133.607 53.791L131.156 58.521C120.836 56.5 114.73 48.975 114.73 40.203V37.322ZM98.8196 65.358H134.854V70.002H98.8196V65.358ZM139.451 38.655H144.826V47.814H149.986V38.655H155.232V65.444H139.451V38.655ZM144.826 52.286V60.843H149.986V52.286H144.826ZM167.1 35.043H172.561V74.861H167.1V35.043ZM154.329 49.577H160.951V54.221H154.329V49.577ZM158.973 35.688H164.348V73.098H158.973V35.688ZM203.346 35H209.108V74.818H203.346V35ZM207.603 50.222H214.612V54.909H207.603V50.222ZM192.897 39.128H198.487C198.487 51.082 193.929 61.316 180.685 67.981L177.503 63.638C187.952 58.22 192.897 50.91 192.897 40.117V39.128ZM179.696 39.128H195.821V43.729H179.696V39.128ZM232.239 37.322H237.227V40.203C237.227 48.846 231.078 56.5 220.758 58.521L218.307 53.791C227.294 52.243 232.239 45.922 232.239 40.203V37.322ZM233.4 37.322H238.345V40.203C238.345 46.051 243.247 52.243 252.277 53.791L249.826 58.521C239.506 56.5 233.4 48.975 233.4 40.203V37.322ZM217.49 65.358H253.524V70.002H217.49V65.358ZM295.722 35.043H301.183V74.861H295.722V35.043ZM290.562 50.222H297.141V54.823H290.562V50.222ZM279.296 39.644H284.714C284.714 51.082 281.919 60.327 270.051 67.25L266.869 63.208C276.673 57.532 279.296 50.566 279.296 40.676V39.644ZM269.234 39.644H281.102V44.245H269.234V39.644ZM286.95 35.903H292.282V73.141H286.95V35.903ZM279.382 48.631V52.845L267.815 54.092L267.17 49.276L279.382 48.631ZM334.118 35.043H339.837V64.326H334.118V35.043ZM324.486 39.472H336.053V43.944H324.486V39.472ZM313.521 69.615H340.74V74.173H313.521V69.615ZM313.521 61.703H319.283V71.937H313.521V61.703ZM308.705 37.58H314.381V56.285H308.705V37.58ZM308.705 54.565H311.887C317.649 54.565 322.766 54.307 328.442 53.318L328.958 57.919C323.11 58.994 317.864 59.209 311.887 59.209H308.705V54.565ZM324.486 46.868H336.053V51.383H324.486V46.868ZM370.396 46.41H379.972V50.476H370.396V46.41ZM370.396 57.316H379.972V61.382H370.396V57.316ZM364.316 41.66C369.56 41.66 373.398 46.524 373.398 54.2C373.398 61.952 369.56 66.816 364.316 66.816C359.034 66.816 355.234 61.952 355.234 54.2C355.234 46.524 359.034 41.66 364.316 41.66ZM364.316 46.258C361.77 46.258 360.022 49.032 360.022 54.2C360.022 59.444 361.77 62.256 364.316 62.256C366.9 62.256 368.61 59.444 368.61 54.2C368.61 49.032 366.9 46.258 364.316 46.258ZM379.174 39.19H384.19V74.492H379.174V39.19ZM414.815 39.228H419.603V61.268H414.815V39.228ZM410.521 47.892H416.145V51.996H410.521V47.892ZM407.519 39.912H412.231V60.128H407.519V39.912ZM389.469 42.838H406.531V46.714H389.469V42.838ZM398.057 47.854C402.465 47.854 405.657 50.362 405.657 54.01C405.657 57.658 402.465 60.128 398.057 60.128C393.649 60.128 390.457 57.658 390.457 54.01C390.457 50.362 393.649 47.854 398.057 47.854ZM398.057 51.464C396.195 51.464 394.941 52.376 394.941 54.01C394.941 55.644 396.195 56.556 398.057 56.556C399.881 56.556 401.135 55.644 401.135 54.01C401.135 52.376 399.881 51.464 398.057 51.464ZM395.511 39.57H400.489V45.498H395.511V39.57ZM407.709 61.648C415.233 61.648 419.793 63.928 419.793 68.032C419.793 72.098 415.233 74.416 407.709 74.416C400.147 74.416 395.587 72.098 395.587 68.032C395.587 63.928 400.147 61.648 407.709 61.648ZM407.709 65.41C402.997 65.41 400.641 66.208 400.641 68.032C400.641 69.818 402.997 70.654 407.709 70.654C412.383 70.654 414.739 69.818 414.739 68.032C414.739 66.208 412.383 65.41 407.709 65.41ZM435.902 41.546C441.45 41.546 445.592 45.156 445.592 50.21C445.592 55.302 441.45 58.912 435.902 58.912C430.392 58.912 426.174 55.302 426.174 50.21C426.174 45.156 430.392 41.546 435.902 41.546ZM435.902 45.878C433.204 45.878 431.152 47.474 431.152 50.21C431.152 52.984 433.204 54.58 435.902 54.58C438.6 54.58 440.652 52.984 440.652 50.21C440.652 47.474 438.6 45.878 435.902 45.878ZM448.898 39.19H453.952V74.492H448.898V39.19ZM425.338 67.348L424.73 63.282C430.924 63.282 439.55 63.206 446.96 62.104L447.34 65.752C439.702 67.272 431.418 67.348 425.338 67.348ZM476.918 41.926H481.022V47.056C481.022 56.1 477.906 64.27 470.914 67.5L467.912 63.32C474.03 60.66 476.918 53.896 476.918 47.056V41.926ZM477.906 41.926H482.01V47.056C482.01 53.554 484.784 60.014 490.788 62.598L487.824 66.664C481.022 63.548 477.906 55.72 477.906 47.056V41.926ZM492.46 39.19H497.552V74.492H492.46V39.19ZM511.115 42.838H515.257V45.042C515.257 51.692 512.103 57.658 505.377 59.824L502.755 55.91C508.645 54.01 511.115 49.45 511.115 45.042V42.838ZM512.141 42.838H516.245V45.042C516.245 49.184 518.639 53.478 524.339 55.302L521.755 59.216C515.181 57.088 512.141 51.35 512.141 45.042V42.838ZM504.123 41.28H523.123V45.308H504.123V41.28ZM525.935 39.228H530.989V60.432H525.935V39.228ZM529.583 47.74H535.663V51.882H529.583V47.74ZM507.505 61.952H530.989V74.416H525.935V66.018H507.505V61.952ZM551.901 71.034L546.261 50.3067H552.077L555.288 64.2329H555.477L558.824 50.3067H564.532L567.933 64.1519H568.108L571.266 50.3067H577.068L571.441 71.034H565.355L561.793 57.9985H561.536L557.974 71.034H551.901ZM580.135 71.034V50.3067H585.883V71.034H580.135ZM583.023 47.6349C582.168 47.6349 581.435 47.3515 580.823 46.7847C580.22 46.209 579.919 45.5207 579.919 44.7201C579.919 43.9284 580.22 43.2492 580.823 42.6824C581.435 42.1067 582.168 41.8188 583.023 41.8188C583.877 41.8188 584.606 42.1067 585.209 42.6824C585.82 43.2492 586.126 43.9284 586.126 44.7201C586.126 45.5207 585.82 46.209 585.209 46.7847C584.606 47.3515 583.877 47.6349 583.023 47.6349ZM601.513 50.3067V54.6249H589.031V50.3067H601.513ZM591.865 45.3408H597.613V64.6647C597.613 65.1955 597.694 65.6093 597.856 65.9062C598.018 66.194 598.243 66.3965 598.531 66.5134C598.828 66.6304 599.17 66.6888 599.557 66.6888C599.826 66.6888 600.096 66.6663 600.366 66.6214C600.636 66.5674 600.843 66.5269 600.987 66.4999L601.891 70.7776C601.603 70.8676 601.198 70.971 600.677 71.088C600.155 71.2139 599.521 71.2904 598.774 71.3174C597.388 71.3714 596.174 71.1869 595.13 70.7641C594.096 70.3413 593.291 69.6846 592.715 68.7939C592.139 67.9033 591.856 66.7788 591.865 65.4204V45.3408ZM611.452 59.051V71.034H605.703V43.3976H611.29V53.9637H611.533C612.001 52.7402 612.756 51.7821 613.8 51.0894C614.843 50.3877 616.152 50.0368 617.727 50.0368C619.166 50.0368 620.421 50.3517 621.492 50.9814C622.571 51.6022 623.408 52.4973 624.002 53.6668C624.604 54.8273 624.901 56.2172 624.892 57.8366V71.034H619.144V58.8621C619.153 57.5847 618.829 56.5906 618.172 55.8799C617.524 55.1692 616.616 54.8138 615.446 54.8138C614.663 54.8138 613.971 54.9803 613.368 55.3131C612.774 55.646 612.306 56.1318 611.965 56.7705C611.632 57.4002 611.461 58.1604 611.452 59.051ZM632.776 71.3849C631.886 71.3849 631.121 71.07 630.482 70.4402C629.852 69.8015 629.538 69.0368 629.538 68.1462C629.538 67.2646 629.852 66.5089 630.482 65.8792C631.121 65.2494 631.886 64.9346 632.776 64.9346C633.64 64.9346 634.396 65.2494 635.043 65.8792C635.691 66.5089 636.015 67.2646 636.015 68.1462C636.015 68.74 635.862 69.2842 635.556 69.779C635.259 70.2648 634.868 70.6562 634.382 70.953C633.896 71.2409 633.361 71.3849 632.776 71.3849ZM641.328 62.37H644.292C650.22 62.37 654.742 62.294 659.986 61.458L660.442 65.486C655.122 66.322 650.334 66.474 644.292 66.474H641.328V62.37ZM641.328 42.154H657.858V46.258H646.42V63.7H641.328V42.154ZM645.204 51.92H657.364V55.872H645.204V51.92ZM662.456 39.228H667.548V74.416H662.456V39.228ZM666.408 52.566H672.64V56.746H666.408V52.566ZM676.665 42.382H693.575V66.056H676.665V42.382ZM688.635 46.334H681.643V62.066H688.635V46.334ZM699.047 39.19H704.139V74.492H699.047V39.19ZM722.946 41.242H727.354V43.788C727.354 51.426 721.92 58.19 712.8 59.976L710.634 55.796C718.576 54.428 722.946 48.842 722.946 43.788V41.242ZM723.972 41.242H728.342V43.788C728.342 48.956 732.674 54.428 740.654 55.796L738.488 59.976C729.368 58.19 723.972 51.54 723.972 43.788V41.242ZM709.912 66.018H741.756V70.122H709.912V66.018Z" fill="white"/>
<path d="M260 61.0341C261.933 61.0341 263.5 59.4671 263.5 57.5341C263.5 55.6011 261.933 54.0341 260 54.0341C258.067 54.0341 256.5 55.6011 256.5 57.5341C256.5 59.4671 258.067 61.0341 260 61.0341Z" fill="white"/>
</g>
</g>
</svg>
