<svg width="800" height="109" viewBox="0 0 800 109" fill="none" xmlns="http://www.w3.org/2000/svg">
<path d="M60.4863 70V43.1328H65.3105V65.918H77.1855V70H60.4863ZM82.458 70H77.2998L86.7627 43.1328H92.7002L102.2 70H97.042L94.8155 63.3574H84.6846L82.458 70ZM85.9834 59.4609H93.5166L89.8428 48.625H89.6202L85.9834 59.4609ZM137.609 65.9922V69.4062H106.956V65.9922H120.167V60.5371H110.593V49.5527H129.89V45.3965H110.519V42.0566H133.972V52.8184H114.712V57.1602H134.751V60.5371H124.249V65.9922H137.609ZM154.274 41.2773C154.236 50.1094 149.635 55.5273 138.985 58.125L137.5 54.9707C142.528 53.8018 145.738 52.0576 147.668 49.8496L138.168 50.5547L137.537 47.4004L149.338 46.9551C149.616 46.1758 149.783 45.3594 149.895 44.5059H139.244V41.2773H154.274ZM164.85 39.7559V56.8633H160.731V50.6289H154.348V47.252H160.731V39.7559H164.85ZM164.85 58.1992V66.9199H146.852V69.6289H165.74V72.8945H142.807V63.9141H160.768V61.4277H142.77V58.1992H164.85ZM177.433 42.0938C182.739 42.0566 186.636 45.4336 186.673 50.1836C186.636 54.9707 182.739 58.3105 177.433 58.3105C172.163 58.3105 168.23 54.9707 168.23 50.1836C168.23 45.4336 172.163 42.0566 177.433 42.0938ZM177.433 45.6562C174.501 45.6562 172.312 47.4004 172.312 50.1836C172.312 53.0039 174.501 54.7109 177.433 54.7109C180.402 54.7109 182.628 53.0039 182.628 50.1836C182.628 47.4004 180.402 45.6562 177.433 45.6562ZM194.503 39.7559V73.3398H190.384V39.7559H194.503ZM166.708 62.9492C172.757 62.9492 181.144 62.875 188.38 61.8359L188.714 64.8418C181.181 66.2891 173.128 66.3262 167.228 66.3262L166.708 62.9492ZM222.267 43.1699V46.4355H202.376V43.1699H210.281V39.5703H214.4V43.1699H222.267ZM212.322 47.7715C217.183 47.7715 220.486 50.2578 220.523 53.8945C220.486 57.5684 217.183 60.0547 212.322 60.0547C207.46 60.0547 204.083 57.5684 204.083 53.8945C204.083 50.2578 207.46 47.7715 212.322 47.7715ZM212.322 50.9258C209.761 50.9258 208.091 52.002 208.091 53.8945C208.091 55.8242 209.761 56.8633 212.322 56.8633C214.882 56.8633 216.589 55.8242 216.589 53.8945C216.589 52.002 214.882 50.9258 212.322 50.9258ZM228.798 39.7559V48.9961H233.474V52.4473H228.798V63.2461H224.679V39.7559H228.798ZM220.3 61.9102C220.263 65.7324 224.419 69.1094 231.21 70L229.689 73.1172C224.401 72.375 220.3 70.167 218.259 66.957C216.218 70.167 212.155 72.375 206.866 73.1172L205.345 70C212.062 69.1094 216.181 65.7324 216.181 61.9102V61.3906H220.3V61.9102ZM259.899 40.7207V43.8379H255.297V48.9219H259.713V52.0391H235.073V48.9219H239.489V43.8379H234.887V40.7207H259.899ZM262.719 54.1543V57.4199H232.141V54.1543H262.719ZM258.897 59.6836V67.6621H239.823V69.9258H259.825V73.0059H235.778V64.8047H254.852V62.6895H235.741V59.6836H258.897ZM243.608 48.9219H251.141V43.8379H243.608V48.9219ZM274.857 43.2441V55.5645H266.915V61.873C270.385 61.8359 273.669 61.6875 277.454 60.9824L277.788 64.3594C273.298 65.1758 269.513 65.2871 265.283 65.2871H262.945V52.2988H270.886V46.5469H262.908V43.2441H274.857ZM290.814 39.7559V73.3027H286.88V39.7559H290.814ZM283.911 40.4609V71.5957H280.015V54.7852H276.341V51.4082H280.015V40.4609H283.911ZM319.651 39.7559V73.3398H315.495V39.7559H319.651ZM301.579 42.2051C306.625 42.2051 310.299 46.8066 310.336 54.043C310.299 61.3535 306.625 65.918 301.579 65.918C296.495 65.918 292.821 61.3535 292.821 54.043C292.821 46.8066 296.495 42.2051 301.579 42.2051ZM301.579 45.916C298.721 45.916 296.791 48.9219 296.791 54.043C296.791 59.2012 298.721 62.207 301.579 62.207C304.399 62.207 306.329 59.2012 306.329 54.043C306.329 48.9219 304.399 45.916 301.579 45.916ZM338.876 44.3574C338.876 49.5527 343.96 54.748 350.974 55.9727L349.119 59.4238C343.497 58.2363 338.895 54.8408 336.724 50.332C334.497 54.8037 329.896 58.2178 324.292 59.4238L322.474 55.9727C329.414 54.7109 334.46 49.5156 334.497 44.3574V41.8711H338.876V44.3574ZM352.199 65.6211V69.0352H321.546V65.6211H352.199ZM371.078 42.4951C371.036 47.4922 374.185 52.2373 380.148 54.1689L377.712 57.8643C373.492 56.4365 370.511 53.5811 368.852 49.9277C367.151 53.959 364.023 57.1084 359.614 58.6621L357.01 54.9668C363.267 52.9512 366.375 47.8281 366.375 42.4531V38.1279H371.078V42.4951ZM387.413 35.7764V46.9883H392.704V50.9355H387.413V63.6592H382.751V35.7764H387.413ZM388.924 69.2021V72.9814H363.099V60.9297H367.886V69.2021H388.924ZM410.68 39.0518V42.873H397.494V49.6338H410.008V53.3291H397.494V61.1396C403.331 61.0977 407.887 60.8877 413.199 60.0059L413.619 63.7852C407.782 64.709 402.701 64.9189 395.898 64.9189H392.749V39.0518H410.68ZM420.926 35.7764V50.4736H426.763V54.3789H420.926V73.7373H416.265V35.7764H420.926ZM451.419 39.5137C451.419 50.9775 448.269 60.8037 434.286 67.7744L431.724 64.2471C438.296 60.9927 442.202 57.2134 444.406 52.6992L432.606 53.833L432.018 49.8018L445.834 48.9199C446.317 47.1562 446.611 45.2876 446.758 43.293H433.992V39.5137H451.419ZM461.413 35.7764V50.6416H467.04V54.4629H461.413V73.6533H456.752V35.7764H461.413ZM484.722 37.4141V41.1514H471.62V44.0908H483.966V47.6182H471.62V50.8096C478.381 50.7886 482.37 50.6626 487.116 49.9697L487.535 53.5811C482.328 54.4209 477.877 54.5469 469.983 54.5469H466.959V37.4141H484.722ZM495.346 35.7764V43.5449H500.637V47.3242H495.346V55.3867H490.685V35.7764H495.346ZM495.346 57.0244V66.7666H475.19V69.79H496.522V73.4014H470.571V63.3652H490.685V60.6777H470.529V57.0244H495.346ZM530.749 35.7764V73.7793H526.13V35.7764H530.749ZM519.075 39.0938V53.3291H506.015V60.9717C511.999 60.9297 517.164 60.6357 523.064 59.6279L523.484 63.4492C517.017 64.583 511.348 64.793 504.546 64.793H501.228V49.6338H514.33V42.873H501.186V39.0938H519.075ZM568.209 50.4316V54.2529H562.582V73.6533H557.921V35.7764H562.582V50.4316H568.209ZM538.815 39.4717V60.4258C543.875 60.3418 549.271 59.9009 554.982 58.7041L555.486 62.6514C549.103 63.9111 543.014 64.2891 537.387 64.2891H534.195V39.4717H538.815ZM583.727 70L578.012 49.8496H582.837L586.399 64.0254H586.585L590.184 49.8496H594.971L598.608 63.9512H598.794L602.319 49.8496H607.143L601.428 70H596.493L592.708 56.3438H592.448L588.663 70H583.727ZM607.109 70V49.8496H611.859V70H607.109ZM609.521 46.9922C608.037 46.9922 606.775 45.8418 606.775 44.3945C606.775 42.9844 608.037 41.834 609.521 41.834C611.043 41.834 612.267 42.9844 612.267 44.3945C612.267 45.8418 611.043 46.9922 609.521 46.9922ZM623.403 49.8496V53.4863H619.432V63.9512C619.432 65.8809 620.397 66.2891 621.585 66.2891C622.141 66.2891 623.069 66.252 623.663 66.2148V70.0742C623.106 70.1855 622.178 70.2598 620.991 70.2598C617.428 70.2598 614.682 68.5156 614.719 64.7305V53.4863H611.825V49.8496H614.719V45.0254H619.432V49.8496H623.403ZM629.195 58.1992V70H624.445V43.1328H629.084V53.2637H629.344C630.271 51 632.201 49.5898 635.318 49.5898C639.512 49.5898 642.258 52.2988 642.258 57.1602V70H637.545V57.9023C637.545 55.1562 636.06 53.5977 633.574 53.5977C631.013 53.5977 629.195 55.2676 629.195 58.1992ZM646.639 70.2969C645.044 70.2969 643.745 68.998 643.745 67.4023C643.745 65.8438 645.044 64.5449 646.639 64.5449C648.161 64.5449 649.497 65.8438 649.497 67.4023C649.497 68.998 648.161 70.2969 646.639 70.2969ZM667.09 42.6504V46.0273H655.437V52.002H666.496V55.2676H655.437V62.1699C660.596 62.1328 664.622 61.9473 669.316 61.168L669.687 64.5078C664.529 65.3242 660.039 65.5098 654.027 65.5098H651.244V42.6504H667.09ZM676.144 39.7559V52.7441H681.303V56.1953H676.144V73.3027H672.025V39.7559H676.144ZM697.411 42.9102V65.1387H681.454V42.9102H697.411ZM685.536 46.1387V61.8359H693.403V46.1387H685.536ZM707.579 39.7559V73.3398H703.423V39.7559H707.579ZM726.805 44.3574C726.805 49.5527 731.889 54.748 738.902 55.9727L737.047 59.4238C731.425 58.2363 726.823 54.8408 724.652 50.332C722.426 54.8037 717.824 58.2178 712.221 59.4238L710.402 55.9727C717.342 54.7109 722.389 49.5156 722.426 44.3574V41.8711H726.805V44.3574ZM740.127 65.6211V69.0352H709.475V65.6211H740.127Z" fill="white"/>
</svg>
