<svg width="345" height="47" viewBox="0 0 345 47" fill="none" xmlns="http://www.w3.org/2000/svg">
<path d="M73.7197 29V21.2227H75.1162V27.8184H78.5537V29H73.7197ZM80.08 29H78.5868L81.3261 21.2227H83.0448L85.7948 29H84.3016L83.6571 27.0771H80.7245L80.08 29ZM81.1005 25.9492H83.2811L82.2177 22.8125H82.1532L81.1005 25.9492ZM96.0446 27.8398V28.8281H87.1715V27.8398H90.9957V26.2607H88.2243V23.0811H93.8102V21.8779H88.2028V20.9111H94.9918V24.0264H89.4166V25.2832H95.2174V26.2607H92.1774V27.8398H96.0446ZM100.869 20.6855C100.858 23.2422 99.5259 24.8105 96.4429 25.5625L96.0132 24.6494C97.4688 24.311 98.398 23.8062 98.9566 23.167L96.2066 23.3711L96.0239 22.458L99.44 22.3291C99.5205 22.1035 99.5689 21.8672 99.6011 21.6201H96.5181V20.6855H100.869ZM103.93 20.2451V25.1973H102.738V23.3926H100.89V22.415H102.738V20.2451H103.93ZM103.93 25.584V28.1084H98.7202V28.8926H104.188V29.8379H97.5493V27.2383H102.749V26.5186H97.5386V25.584H103.93ZM107.573 20.9219C109.109 20.9111 110.237 21.8887 110.247 23.2637C110.237 24.6494 109.109 25.6162 107.573 25.6162C106.047 25.6162 104.909 24.6494 104.909 23.2637C104.909 21.8887 106.047 20.9111 107.573 20.9219ZM107.573 21.9531C106.724 21.9531 106.09 22.458 106.09 23.2637C106.09 24.0801 106.724 24.5742 107.573 24.5742C108.432 24.5742 109.077 24.0801 109.077 23.2637C109.077 22.458 108.432 21.9531 107.573 21.9531ZM112.514 20.2451V29.9668H111.322V20.2451H112.514ZM104.468 26.959C106.219 26.959 108.647 26.9375 110.742 26.6367L110.838 27.5068C108.658 27.9258 106.327 27.9365 104.619 27.9365L104.468 26.959ZM120.551 21.2334V22.1787H114.793V21.2334H117.081V20.1914H118.274V21.2334H120.551ZM117.672 22.5654C119.079 22.5654 120.035 23.2852 120.046 24.3379C120.035 25.4014 119.079 26.1211 117.672 26.1211C116.265 26.1211 115.287 25.4014 115.287 24.3379C115.287 23.2852 116.265 22.5654 117.672 22.5654ZM117.672 23.4785C116.931 23.4785 116.447 23.79 116.447 24.3379C116.447 24.8965 116.931 25.1973 117.672 25.1973C118.413 25.1973 118.907 24.8965 118.907 24.3379C118.907 23.79 118.413 23.4785 117.672 23.4785ZM122.442 20.2451V22.9199H123.795V23.9189H122.442V27.0449H121.249V20.2451H122.442ZM119.982 26.6582C119.971 27.7646 121.174 28.7422 123.14 29L122.699 29.9023C121.169 29.6875 119.982 29.0483 119.391 28.1191C118.8 29.0483 117.624 29.6875 116.093 29.9023L115.653 29C117.597 28.7422 118.789 27.7646 118.789 26.6582V26.5078H119.982V26.6582ZM131.444 20.5244V21.4268H130.112V22.8984H131.391V23.8008H124.258V22.8984H125.536V21.4268H124.204V20.5244H131.444ZM132.261 24.4131V25.3584H123.409V24.4131H132.261ZM131.154 26.0137V28.3232H125.633V28.9785H131.423V29.8701H124.462V27.4961H129.983V26.8838H124.451V26.0137H131.154ZM126.729 22.8984H128.909V21.4268H126.729V22.8984ZM135.774 21.2549V24.8213H133.476V26.6475C134.48 26.6367 135.431 26.5938 136.526 26.3896L136.623 27.3672C135.323 27.6035 134.227 27.6357 133.003 27.6357H132.326V23.876H134.625V22.2109H132.315V21.2549H135.774ZM140.393 20.2451V29.9561H139.255V20.2451H140.393ZM138.395 20.4492V29.4619H137.268V24.5957H136.204V23.6182H137.268V20.4492H138.395ZM148.741 20.2451V29.9668H147.538V20.2451H148.741ZM143.51 20.9541C144.971 20.9541 146.034 22.2861 146.045 24.3809C146.034 26.4971 144.971 27.8184 143.51 27.8184C142.038 27.8184 140.974 26.4971 140.974 24.3809C140.974 22.2861 142.038 20.9541 143.51 20.9541ZM143.51 22.0283C142.682 22.0283 142.124 22.8984 142.124 24.3809C142.124 25.874 142.682 26.7441 143.51 26.7441C144.326 26.7441 144.885 25.874 144.885 24.3809C144.885 22.8984 144.326 22.0283 143.51 22.0283ZM154.306 21.5771C154.306 23.0811 155.778 24.585 157.808 24.9395L157.271 25.9385C155.644 25.5947 154.312 24.6118 153.683 23.3066C153.039 24.6011 151.707 25.5894 150.085 25.9385L149.558 24.9395C151.567 24.5742 153.028 23.0703 153.039 21.5771V20.8574H154.306V21.5771ZM158.163 27.7324V28.7207H149.29V27.7324H158.163ZM163.819 20.6846C163.806 22.1953 164.758 23.6299 166.561 24.2139L165.825 25.3311C164.549 24.8994 163.647 24.0361 163.146 22.9316C162.632 24.1504 161.686 25.1025 160.353 25.5723L159.566 24.4551C161.457 23.8457 162.397 22.2969 162.397 20.6719V19.3643H163.819V20.6846ZM168.757 18.6533V22.043H170.357V23.2363H168.757V27.083H167.348V18.6533H168.757ZM169.214 28.7588V29.9014H161.407V26.2578H162.854V28.7588H169.214ZM175.791 19.6436V20.7988H171.805V22.8428H175.588V23.96H171.805V26.3213C173.57 26.3086 174.947 26.2451 176.553 25.9785L176.68 27.1211C174.916 27.4004 173.379 27.4639 171.323 27.4639H170.371V19.6436H175.791ZM178.889 18.6533V23.0967H180.654V24.2773H178.889V30.1299H177.48V18.6533H178.889ZM188.108 19.7832C188.108 23.249 187.156 26.2197 182.928 28.3271L182.154 27.2607C184.141 26.2769 185.321 25.1343 185.988 23.7695L182.42 24.1123L182.243 22.8936L186.419 22.627C186.565 22.0938 186.654 21.5288 186.699 20.9258H182.839V19.7832H188.108ZM191.129 18.6533V23.1475H192.831V24.3027H191.129V30.1045H189.72V18.6533H191.129ZM198.176 19.1484V20.2783H194.215V21.167H197.948V22.2334H194.215V23.1982C196.259 23.1919 197.465 23.1538 198.9 22.9443L199.027 24.0361C197.453 24.29 196.107 24.3281 193.72 24.3281H192.806V19.1484H198.176ZM201.388 18.6533V21.002H202.988V22.1445H201.388V24.582H199.979V18.6533H201.388ZM201.388 25.0771V28.0225H195.295V28.9365H201.744V30.0283H193.898V26.9941H199.979V26.1816H193.885V25.0771H201.388ZM212.091 18.6533V30.1426H210.695V18.6533H212.091ZM208.562 19.6562V23.96H204.614V26.2705C206.423 26.2578 207.985 26.1689 209.768 25.8643L209.895 27.0195C207.94 27.3623 206.226 27.4258 204.17 27.4258H203.167V22.8428H207.128V20.7988H203.154V19.6562H208.562ZM223.417 23.084V24.2393H221.716V30.1045H220.306V18.6533H221.716V23.084H223.417ZM214.53 19.7705V26.1055C216.06 26.0801 217.691 25.9468 219.418 25.585L219.57 26.7783C217.64 27.1592 215.799 27.2734 214.098 27.2734H213.133V19.7705H214.53ZM226.141 29L224.487 23.167H225.883L226.915 27.2705H226.968L228.01 23.167H229.396L230.449 27.249H230.503L231.523 23.167H232.92L231.265 29H229.837L228.741 25.0469H228.666L227.57 29H226.141ZM232.91 29V23.167H234.285V29H232.91ZM233.608 22.3398C233.178 22.3398 232.813 22.0068 232.813 21.5879C232.813 21.1797 233.178 20.8467 233.608 20.8467C234.048 20.8467 234.403 21.1797 234.403 21.5879C234.403 22.0068 234.048 22.3398 233.608 22.3398ZM237.626 23.167V24.2197H236.477V27.249C236.477 27.8076 236.756 27.9258 237.1 27.9258C237.261 27.9258 237.53 27.915 237.702 27.9043V29.0215C237.54 29.0537 237.272 29.0752 236.928 29.0752C235.897 29.0752 235.102 28.5703 235.113 27.4746V24.2197H234.275V23.167H235.113V21.7705H236.477V23.167H237.626ZM239.303 25.584V29H237.928V21.2227H239.271V24.1553H239.346C239.614 23.5 240.173 23.0918 241.075 23.0918C242.289 23.0918 243.084 23.876 243.084 25.2832V29H241.72V25.498C241.72 24.7031 241.29 24.252 240.571 24.252C239.829 24.252 239.303 24.7354 239.303 25.584ZM244.353 29.0859C243.891 29.0859 243.515 28.71 243.515 28.248C243.515 27.7969 243.891 27.4209 244.353 27.4209C244.793 27.4209 245.18 27.7969 245.18 28.248C245.18 28.71 244.793 29.0859 244.353 29.0859ZM250.272 21.083V22.0605H246.899V23.79H250.101V24.7354H246.899V26.7334C248.393 26.7227 249.558 26.6689 250.917 26.4434L251.024 27.4102C249.531 27.6465 248.231 27.7002 246.491 27.7002H245.686V21.083H250.272ZM252.894 20.2451V24.0049H254.387V25.0039H252.894V29.9561H251.701V20.2451H252.894ZM259.05 21.1582V27.5928H254.431V21.1582H259.05ZM255.612 22.0928V26.6367H257.89V22.0928H255.612ZM261.993 20.2451V29.9668H260.79V20.2451H261.993ZM267.558 21.5771C267.558 23.0811 269.03 24.585 271.06 24.9395L270.523 25.9385C268.896 25.5947 267.564 24.6118 266.935 23.3066C266.291 24.6011 264.959 25.5894 263.337 25.9385L262.81 24.9395C264.819 24.5742 266.28 23.0703 266.291 21.5771V20.8574H267.558V21.5771ZM271.415 27.7324V28.7207H262.542V27.7324H271.415Z" fill="white"/>
</svg>
