<svg width="345" height="47" viewBox="0 0 345 47" fill="none" xmlns="http://www.w3.org/2000/svg">
<path d="M106.961 20.9131C106.961 22.2715 107.659 23.6045 109.183 24.2773L108.421 25.3438C107.412 24.9121 106.713 24.1504 106.313 23.2109C105.888 24.29 105.152 25.2041 104.079 25.7119L103.279 24.6201C104.866 23.8711 105.59 22.3096 105.603 20.9131V19.4404H106.961V20.9131ZM113.194 18.666V27.2734H111.849V23.1602H110.706V26.918H109.386V18.8818H110.706V22.0049H111.849V18.666H113.194ZM113.512 28.7588V29.9014H105.514V26.2324H106.923V28.7588H113.512ZM123.123 18.6533V30.1426H121.701V18.6533H123.123ZM119.822 19.6943V20.8496H115.709V26.1816C117.823 26.1753 119.149 26.1118 120.673 25.8389L120.813 27.0068C119.175 27.3115 117.689 27.375 115.265 27.375H114.287V19.6943H119.822ZM133.674 18.6533V30.1299H132.316V18.6533H133.674ZM131.313 18.8564V29.5713H129.967V24.1123H128.875C128.742 26.3467 127.783 27.7305 126.361 27.7178C124.863 27.7305 123.886 26.1436 123.886 23.6172C123.886 21.0908 124.863 19.5293 126.361 19.5293C127.752 19.5293 128.697 20.8242 128.862 22.9697H129.967V18.8564H131.313ZM126.361 20.8623C125.638 20.8496 125.181 21.8271 125.193 23.6172C125.181 25.4072 125.638 26.3848 126.361 26.3721C127.123 26.3848 127.58 25.4072 127.58 23.6172C127.58 21.8271 127.123 20.8496 126.361 20.8623ZM143.336 19.707V20.8115C143.323 22.2334 143.323 23.833 142.879 26.2324L141.457 26.0801C141.901 23.8457 141.901 22.2144 141.914 20.8369H135.059V19.707H143.336ZM144.428 27.4893V28.6445H133.967V27.4893H137.826V23.5029H139.223V27.4893H144.428ZM148.802 20.9541C149.683 20.9541 150.408 21.4429 150.843 22.2969H153.11V20.2451H154.291V29.9668H153.11V26.293H150.929C150.51 27.2598 149.742 27.8184 148.802 27.8184C147.341 27.8184 146.31 26.4971 146.31 24.3809C146.31 22.2861 147.341 20.9541 148.802 20.9541ZM148.802 22.0283C147.996 22.0283 147.448 22.8984 147.459 24.3809C147.448 25.874 147.996 26.7441 148.802 26.7441C149.608 26.7441 150.145 25.874 150.155 24.3809C150.145 22.8984 149.608 22.0283 148.802 22.0283ZM151.176 23.2744C151.246 23.6128 151.283 23.9834 151.283 24.3809C151.283 24.7192 151.257 25.0308 151.208 25.3262H153.11V23.2744H151.176ZM163.079 20.2451V26.3467H161.941V23.7041H160.995V26.0244H159.878V20.4385H160.995V22.7373H161.941V20.2451H163.079ZM159.556 21.2979V22.2324H154.722V21.2979H156.559V20.3311H157.74V21.2979H159.556ZM157.149 22.6299C158.385 22.6299 159.255 23.2959 159.266 24.3057C159.255 25.3154 158.385 25.9814 157.149 25.9814C155.936 25.9814 155.055 25.3154 155.066 24.3057C155.055 23.2959 155.936 22.6299 157.149 22.6299ZM157.149 23.4893C156.548 23.4893 156.129 23.8008 156.129 24.3057C156.129 24.8105 156.537 25.1221 157.149 25.1221C157.762 25.1221 158.181 24.8105 158.181 24.3057C158.181 23.8008 157.762 23.4893 157.149 23.4893ZM159.803 26.4648C161.876 26.4648 163.122 27.0986 163.133 28.2158C163.122 29.3115 161.876 29.9453 159.803 29.9453C157.73 29.9453 156.473 29.3115 156.473 28.2158C156.473 27.0986 157.73 26.4648 159.803 26.4648ZM159.803 27.3779C158.417 27.3672 157.665 27.6465 157.665 28.2158C157.665 28.7529 158.417 29.0322 159.803 29.0322C161.178 29.0322 161.93 28.7529 161.93 28.2158C161.93 27.6465 161.178 27.3672 159.803 27.3779ZM166.55 20.9219C168.086 20.9111 169.214 21.8887 169.225 23.2637C169.214 24.6494 168.086 25.6162 166.55 25.6162C165.024 25.6162 163.886 24.6494 163.886 23.2637C163.886 21.8887 165.024 20.9111 166.55 20.9219ZM166.55 21.9531C165.701 21.9531 165.067 22.458 165.067 23.2637C165.067 24.0801 165.701 24.5742 166.55 24.5742C167.409 24.5742 168.054 24.0801 168.054 23.2637C168.054 22.458 167.409 21.9531 166.55 21.9531ZM171.491 20.2451V29.9668H170.299V20.2451H171.491ZM163.445 26.959C165.196 26.959 167.624 26.9375 169.719 26.6367L169.815 27.5068C167.635 27.9258 165.304 27.9365 163.596 27.9365L163.445 26.959ZM177.433 22.5762C177.423 24.3594 178.357 26.1426 179.936 26.8193L179.227 27.7754C178.11 27.2598 177.288 26.2285 176.842 24.9609C176.397 26.3306 175.564 27.4478 174.383 28.001L173.652 27.002C175.274 26.3037 176.219 24.4453 176.219 22.5762V21.0293H177.433V22.5762ZM181.838 20.2451V29.9668H180.634V20.2451H181.838ZM185.867 21.9316C185.867 23.124 186.64 24.3057 188.166 24.8105L187.564 25.7344C186.479 25.3745 185.706 24.644 185.287 23.7363C184.852 24.73 184.046 25.5195 182.913 25.9062L182.279 24.9824C183.847 24.4668 184.664 23.21 184.664 21.9316V21.8135H182.612V20.8574H187.886V21.8135H185.867V21.9316ZM190.046 20.2451V22.6729H191.399V23.6719H190.046V26.0996H188.853V20.2451H190.046ZM190.046 26.5508V29.9561H188.853V27.5068H183.579V26.5508H190.046ZM194.605 29L192.951 23.167H194.347L195.378 27.2705H195.432L196.474 23.167H197.86L198.913 27.249H198.966L199.987 23.167H201.383L199.729 29H198.3L197.205 25.0469H197.129L196.034 29H194.605ZM201.373 29V23.167H202.748V29H201.373ZM202.072 22.3398C201.642 22.3398 201.277 22.0068 201.277 21.5879C201.277 21.1797 201.642 20.8467 202.072 20.8467C202.512 20.8467 202.867 21.1797 202.867 21.5879C202.867 22.0068 202.512 22.3398 202.072 22.3398ZM206.09 23.167V24.2197H204.941V27.249C204.941 27.8076 205.22 27.9258 205.564 27.9258C205.725 27.9258 205.993 27.915 206.165 27.9043V29.0215C206.004 29.0537 205.736 29.0752 205.392 29.0752C204.361 29.0752 203.566 28.5703 203.576 27.4746V24.2197H202.739V23.167H203.576V21.7705H204.941V23.167H206.09ZM207.767 25.584V29H206.392V21.2227H207.735V24.1553H207.81C208.078 23.5 208.637 23.0918 209.539 23.0918C210.753 23.0918 211.548 23.876 211.548 25.2832V29H210.184V25.498C210.184 24.7031 209.754 24.252 209.034 24.252C208.293 24.252 207.767 24.7354 207.767 25.584ZM212.816 29.0859C212.355 29.0859 211.979 28.71 211.979 28.248C211.979 27.7969 212.355 27.4209 212.816 27.4209C213.257 27.4209 213.644 27.7969 213.644 28.248C213.644 28.71 213.257 29.0859 212.816 29.0859ZM218.736 21.083V22.0605H215.363V23.79H218.564V24.7354H215.363V26.7334C216.856 26.7227 218.022 26.6689 219.381 26.4434L219.488 27.4102C217.995 27.6465 216.695 27.7002 214.955 27.7002H214.149V21.083H218.736ZM221.357 20.2451V24.0049H222.851V25.0039H221.357V29.9561H220.165V20.2451H221.357ZM227.513 21.1582V27.5928H222.894V21.1582H227.513ZM224.076 22.0928V26.6367H226.353V22.0928H224.076ZM230.457 20.2451V29.9668H229.254V20.2451H230.457ZM236.022 21.5771C236.022 23.0811 237.494 24.585 239.524 24.9395L238.987 25.9385C237.36 25.5947 236.028 24.6118 235.399 23.3066C234.755 24.6011 233.423 25.5894 231.8 25.9385L231.274 24.9395C233.283 24.5742 234.744 23.0703 234.755 21.5771V20.8574H236.022V21.5771ZM239.879 27.7324V28.7207H231.006V27.7324H239.879Z" fill="white"/>
</svg>
