<svg width="800" height="109" viewBox="0 0 800 109" fill="none" xmlns="http://www.w3.org/2000/svg">
<path d="M179.102 43.251C179.102 47.7441 181.411 52.1533 186.45 54.3789L183.931 57.9062C180.592 56.4785 178.283 53.959 176.96 50.8516C175.553 54.4209 173.118 57.4443 169.569 59.124L166.924 55.5127C172.173 53.0352 174.566 47.8701 174.608 43.251V38.3799H179.102V43.251ZM199.72 35.8184V64.2891H195.269V50.6836H191.489V63.1133H187.122V36.5322H191.489V46.8623H195.269V35.8184H199.72ZM200.77 69.2021V72.9814H174.314V60.8457H178.976V69.2021H200.77ZM232.561 35.7764V73.7793H227.858V35.7764H232.561ZM221.643 39.2197V43.041H208.038V60.6777C215.029 60.6567 219.417 60.4468 224.456 59.5439L224.918 63.4072C219.501 64.415 214.588 64.625 206.568 64.625H203.334V39.2197H221.643ZM267.46 35.7764V73.7373H262.967V35.7764H267.46ZM259.649 36.4482V71.8896H255.198V53.833H251.587C251.146 61.2236 247.975 65.8008 243.272 65.7588C238.317 65.8008 235.084 60.5518 235.084 52.1953C235.084 43.8389 238.317 38.6738 243.272 38.6738C247.87 38.6738 250.999 42.957 251.545 50.0537H255.198V36.4482H259.649ZM243.272 43.083C240.879 43.041 239.367 46.2744 239.409 52.1953C239.367 58.1162 240.879 61.3496 243.272 61.3076C245.792 61.3496 247.304 58.1162 247.304 52.1953C247.304 46.2744 245.792 43.041 243.272 43.083ZM299.419 39.2617V42.915C299.377 47.6182 299.377 52.9092 297.908 60.8457L293.204 60.3418C294.674 52.9512 294.674 47.5552 294.716 42.999H272.04V39.2617H299.419ZM303.031 65.0029V68.8242H268.429V65.0029H281.195V51.8174H285.814V65.0029H303.031ZM317.936 42.2051C320.979 42.2051 323.484 43.8936 324.987 46.8438H332.817V39.7559H336.899V73.3398H332.817V60.6484H325.283C323.836 63.9883 321.183 65.918 317.936 65.918C312.889 65.918 309.326 61.3535 309.326 54.043C309.326 46.8066 312.889 42.2051 317.936 42.2051ZM317.936 45.916C315.153 45.916 313.26 48.9219 313.297 54.043C313.26 59.2012 315.153 62.207 317.936 62.207C320.719 62.207 322.574 59.2012 322.612 54.043C322.574 48.9219 320.719 45.916 317.936 45.916ZM326.137 50.2207C326.378 51.3896 326.508 52.6699 326.508 54.043C326.508 55.2119 326.415 56.2881 326.248 57.3086H332.817V50.2207H326.137ZM367.257 39.7559V60.834H363.323V51.7051H360.058V59.7207H356.198V40.4238H360.058V48.3652H363.323V39.7559H367.257ZM355.085 43.3926V46.6211H338.386V43.3926H344.732V40.0527H348.814V43.3926H355.085ZM346.773 47.9941C351.04 47.9941 354.046 50.2949 354.083 53.7832C354.046 57.2715 351.04 59.5723 346.773 59.5723C342.579 59.5723 339.536 57.2715 339.573 53.7832C339.536 50.2949 342.579 47.9941 346.773 47.9941ZM346.773 50.9629C344.695 50.9629 343.247 52.0391 343.247 53.7832C343.247 55.5273 344.657 56.6035 346.773 56.6035C348.888 56.6035 350.335 55.5273 350.335 53.7832C350.335 52.0391 348.888 50.9629 346.773 50.9629ZM355.939 61.2422C363.101 61.2422 367.406 63.4316 367.443 67.291C367.406 71.0762 363.101 73.2656 355.939 73.2656C348.777 73.2656 344.435 71.0762 344.435 67.291C344.435 63.4316 348.777 61.2422 355.939 61.2422ZM355.939 64.3965C351.152 64.3594 348.554 65.3242 348.554 67.291C348.554 69.1465 351.152 70.1113 355.939 70.1113C360.689 70.1113 363.286 69.1465 363.286 67.291C363.286 65.3242 360.689 64.3594 355.939 64.3965ZM379.246 42.0938C384.553 42.0566 388.449 45.4336 388.487 50.1836C388.449 54.9707 384.553 58.3105 379.246 58.3105C373.977 58.3105 370.043 54.9707 370.043 50.1836C370.043 45.4336 373.977 42.0566 379.246 42.0938ZM379.246 45.6562C376.315 45.6562 374.125 47.4004 374.125 50.1836C374.125 53.0039 376.315 54.7109 379.246 54.7109C382.215 54.7109 384.442 53.0039 384.442 50.1836C384.442 47.4004 382.215 45.6562 379.246 45.6562ZM396.317 39.7559V73.3398H392.198V39.7559H396.317ZM368.522 62.9492C374.571 62.9492 382.957 62.875 390.194 61.8359L390.528 64.8418C382.994 66.2891 374.942 66.3262 369.041 66.3262L368.522 62.9492ZM416.844 47.8086C416.807 53.9688 420.036 60.1289 425.491 62.4668L423.041 65.7695C419.182 63.9883 416.343 60.4258 414.803 56.0469C413.263 60.7783 410.387 64.6377 406.305 66.5488L403.782 63.0977C409.385 60.6855 412.651 54.2656 412.651 47.8086V42.4648H416.844V47.8086ZM432.059 39.7559V73.3398H427.903V39.7559H432.059ZM445.978 45.582C445.978 49.7012 448.65 53.7832 453.919 55.5273L451.841 58.7188C448.093 57.4756 445.421 54.9521 443.974 51.8164C442.471 55.249 439.688 57.9766 435.773 59.3125L433.583 56.1211C439.001 54.3398 441.822 49.998 441.822 45.582V45.1738H434.734V41.8711H452.954V45.1738H445.978V45.582ZM460.413 39.7559V48.1426H465.089V51.5938H460.413V59.9805H456.294V39.7559H460.413ZM460.413 61.5391V73.3027H456.294V64.8418H438.074V61.5391H460.413ZM475.078 70L469.363 49.8496H474.187L477.749 64.0254H477.935L481.535 49.8496H486.322L489.958 63.9512H490.144L493.669 49.8496H498.494L492.779 70H487.843L484.058 56.3438H483.798L480.013 70H475.078ZM498.46 70V49.8496H503.21V70H498.46ZM500.872 46.9922C499.387 46.9922 498.126 45.8418 498.126 44.3945C498.126 42.9844 499.387 41.834 500.872 41.834C502.393 41.834 503.618 42.9844 503.618 44.3945C503.618 45.8418 502.393 46.9922 500.872 46.9922ZM514.753 49.8496V53.4863H510.783V63.9512C510.783 65.8809 511.748 66.2891 512.935 66.2891C513.492 66.2891 514.419 66.252 515.013 66.2148V70.0742C514.457 70.1855 513.529 70.2598 512.341 70.2598C508.779 70.2598 506.033 68.5156 506.07 64.7305V53.4863H503.175V49.8496H506.07V45.0254H510.783V49.8496H514.753ZM520.546 58.1992V70H515.796V43.1328H520.434V53.2637H520.694C521.622 51 523.551 49.5898 526.669 49.5898C530.862 49.5898 533.608 52.2988 533.608 57.1602V70H528.895V57.9023C528.895 55.1562 527.411 53.5977 524.924 53.5977C522.364 53.5977 520.546 55.2676 520.546 58.1992ZM537.99 70.2969C536.394 70.2969 535.095 68.998 535.095 67.4023C535.095 65.8438 536.394 64.5449 537.99 64.5449C539.511 64.5449 540.847 65.8438 540.847 67.4023C540.847 68.998 539.511 70.2969 537.99 70.2969ZM558.44 42.6504V46.0273H546.788V52.002H557.846V55.2676H546.788V62.1699C551.946 62.1328 555.972 61.9473 560.667 61.168L561.038 64.5078C555.88 65.3242 551.389 65.5098 545.378 65.5098H542.594V42.6504H558.44ZM567.495 39.7559V52.7441H572.653V56.1953H567.495V73.3027H563.376V39.7559H567.495ZM588.761 42.9102V65.1387H572.804V42.9102H588.761ZM576.886 46.1387V61.8359H584.754V46.1387H576.886ZM598.929 39.7559V73.3398H594.773V39.7559H598.929ZM618.155 44.3574C618.155 49.5527 623.239 54.748 630.253 55.9727L628.397 59.4238C622.775 58.2363 618.174 54.8408 616.003 50.332C613.776 54.8037 609.175 58.2178 603.571 59.4238L601.753 55.9727C608.692 54.7109 613.739 49.5156 613.776 44.3574V41.8711H618.155V44.3574ZM631.477 65.6211V69.0352H600.825V65.6211H631.477Z" fill="white"/>
</svg>
