<svg width="340" height="50" viewBox="0 0 340 50" fill="none" xmlns="http://www.w3.org/2000/svg">
<g clip-path="url(#clip0_36_10)">
<mask id="mask0_36_10" style="mask-type:luminance" maskUnits="userSpaceOnUse" x="0" y="0" width="340" height="50">
<path d="M340 0H0V50H340V0Z" fill="white"/>
</mask>
<g mask="url(#mask0_36_10)">
<path d="M74.92 4.32H77.1V5.48C77.1 9.02 75.44 12.2 71.86 13.38L70.54 11.28C73.62 10.26 74.92 7.84 74.92 5.48V4.32ZM75.46 4.32H77.62V5.48C77.62 7.64 78.86 9.76 81.84 10.66L80.58 12.74C77.06 11.68 75.46 8.78 75.46 5.48V4.32ZM71.24 3.5H81.24V5.62H71.24V3.5ZM82.72 2.26H85.38V13.24H82.72V2.26ZM84.64 6.52H87.84V8.7H84.64V6.52ZM79.34 13.58C83.18 13.58 85.6 14.92 85.6 17.18C85.6 19.44 83.18 20.78 79.34 20.78C75.48 20.78 73.06 19.44 73.06 17.18C73.06 14.92 75.48 13.58 79.34 13.58ZM79.34 15.66C76.98 15.66 75.7 16.14 75.7 17.18C75.7 18.22 76.98 18.74 79.34 18.74C81.7 18.74 82.96 18.22 82.96 17.18C82.96 16.14 81.7 15.66 79.34 15.66ZM101.038 2.26H103.718V20.78H101.038V2.26ZM103.118 9.16H106.398V11.36H103.118V9.16ZM89.7584 3.72H92.3984V8.22H96.1184V3.72H98.7584V16.5H89.7584V3.72ZM92.3984 10.28V14.36H96.1184V10.28H92.3984ZM109.517 3.34H121.137V5.44H109.517V3.34ZM107.617 11.22H124.357V13.36H107.617V11.22ZM114.557 12.72H117.237V20.8H114.557V12.72ZM119.777 3.34H122.397V4.98C122.397 6.98 122.397 9.22 121.677 12.5L119.057 12.2C119.777 9.1 119.777 6.9 119.777 4.98V3.34ZM138.815 2.26H141.475V20.78H138.815V2.26ZM126.975 4.02H129.615V15.52H126.975V4.02ZM126.975 13.96H128.615C131.315 13.96 134.315 13.76 137.375 13.16L137.675 15.36C134.495 16.02 131.435 16.22 128.615 16.22H126.975V13.96ZM156.234 2.24H158.914V20.76H156.234V2.24ZM158.214 9.32H161.474V11.5H158.214V9.32ZM151.374 4.16H153.974C153.974 9.72 151.854 14.48 145.694 17.58L144.214 15.56C149.074 13.04 151.374 9.64 151.374 4.62V4.16ZM145.234 4.16H152.734V6.3H145.234V4.16ZM180.121 2.24H182.801V20.82H180.121V2.24ZM168.341 3.72H170.981V8.22H174.801V3.72H177.441V16.5H168.341V3.72ZM170.981 10.28V14.36H174.801V10.28H170.981ZM190.2 13.34H192.22V14.04C192.22 16.88 190.98 19.48 188.08 20.54L186.78 18.6C189.2 17.76 190.2 15.88 190.2 14.04V13.34ZM190.88 13.34H192.8V14.04C192.8 15.88 193.68 17.82 195.98 18.78L194.88 20.72C191.94 19.62 190.88 16.8 190.88 14.04V13.34ZM196.96 13.34H198.86V14.04C198.86 16.62 197.78 19.56 194.88 20.72L193.78 18.78C196.06 17.72 196.96 15.7 196.96 14.04V13.34ZM197.58 13.34H199.58V14.04C199.58 16 200.56 17.82 203.04 18.6L201.7 20.54C198.78 19.52 197.58 17 197.58 14.04V13.34ZM194.84 6.54H199.22V8.7H194.84V6.54ZM190.94 3.2C193.7 3.2 195.82 5.06 195.82 7.64C195.82 10.22 193.7 12.08 190.94 12.08C188.16 12.08 186.06 10.22 186.06 7.64C186.06 5.06 188.16 3.2 190.94 3.2ZM190.94 5.4C189.58 5.4 188.6 6.24 188.6 7.64C188.6 9.04 189.58 9.88 190.94 9.88C192.28 9.88 193.28 9.04 193.28 7.64C193.28 6.24 192.28 5.4 190.94 5.4ZM198.66 2.26H201.32V12.62H198.66V2.26ZM206.178 13.36H208.798V14.92H216.218V13.36H218.858V20.58H206.178V13.36ZM208.798 16.9V18.5H216.218V16.9H208.798ZM204.218 10.34H220.958V12.44H204.218V10.34ZM211.238 2.46H213.518V3.02C213.518 6.24 210.758 8.9 205.978 9.52L205.038 7.46C209.218 6.96 211.238 4.9 211.238 3.02V2.46ZM211.678 2.46H213.958V3.02C213.958 4.88 215.978 6.96 220.138 7.46L219.198 9.52C214.418 8.9 211.678 6.22 211.678 3.02V2.46ZM235.436 2.26H238.096V20.78H235.436V2.26ZM223.596 4.02H226.236V15.52H223.596V4.02ZM223.596 13.96H225.236C227.936 13.96 230.936 13.76 233.996 13.16L234.296 15.36C231.116 16.02 228.056 16.22 225.236 16.22H223.596V13.96ZM252.855 2.24H255.535V20.82H252.855V2.24ZM254.935 9.1H258.215V11.28H254.935V9.1ZM241.735 14.16H243.295C246.415 14.16 248.875 14.06 251.595 13.58L251.855 15.78C249.055 16.28 246.515 16.36 243.295 16.36H241.735V14.16ZM241.735 3.96H250.375V6.1H244.375V15.22H241.735V3.96ZM261.589 19.1847C261.12 19.1847 260.718 19.0189 260.382 18.6875C260.05 18.3513 259.885 17.9489 259.885 17.4801C259.885 17.0161 260.05 16.6184 260.382 16.2869C260.718 15.9555 261.12 15.7898 261.589 15.7898C262.044 15.7898 262.441 15.9555 262.782 16.2869C263.123 16.6184 263.294 17.0161 263.294 17.4801C263.294 17.7926 263.213 18.0791 263.052 18.3395C262.896 18.5952 262.69 18.8011 262.434 18.9574C262.179 19.1089 261.897 19.1847 261.589 19.1847Z" fill="#4979D1"/>
<path d="M6.62 35.76H9.28V39.82H6.62V35.76ZM14.74 26.26H17.4V40.28H14.74V26.26ZM4.06 42.34H17.8V44.46H4.06V42.34ZM4.06 38.96H6.72V42.9H4.06V38.96ZM2.06 36.56L1.74 34.44C5.12 34.44 9.64 34.4 13.52 33.9L13.68 35.8C9.74 36.46 5.4 36.56 2.06 36.56ZM11.24 37.02H15.32V38.84H11.24V37.02ZM7.7 26.9C10.4 26.9 12.3 28.24 12.3 30.2C12.3 32.18 10.4 33.5 7.7 33.5C4.98 33.5 3.08 32.18 3.08 30.2C3.08 28.24 4.98 26.9 7.7 26.9ZM7.7 28.84C6.46 28.84 5.6 29.3 5.6 30.2C5.6 31.1 6.46 31.56 7.7 31.56C8.92 31.56 9.78 31.1 9.78 30.2C9.78 29.3 8.92 28.84 7.7 28.84ZM32.0784 26.26H34.7184V44.78H32.0784V26.26ZM34.1184 33.48H37.3984V35.7H34.1184V33.48ZM20.1184 29H30.8984V31.12H20.1184V29ZM25.5384 32.16C28.2384 32.16 30.2384 34 30.2384 36.58C30.2384 39.16 28.2384 41 25.5384 41C22.8384 41 20.8384 39.16 20.8384 36.58C20.8384 34 22.8384 32.16 25.5384 32.16ZM25.5384 34.32C24.2784 34.32 23.3784 35.16 23.3784 36.58C23.3784 38 24.2784 38.84 25.5384 38.84C26.7984 38.84 27.6984 38 27.6984 36.58C27.6984 35.16 26.7984 34.32 25.5384 34.32ZM24.1984 26.56H26.8584V29.8H24.1984V26.56ZM43.1169 27.68H45.2769V30.38C45.2769 35.14 43.6369 39.44 39.9569 41.14L38.3769 38.94C41.5969 37.54 43.1169 33.98 43.1169 30.38V27.68ZM43.6369 27.68H45.7969V30.38C45.7969 33.8 47.2569 37.2 50.4169 38.56L48.8569 40.7C45.2769 39.06 43.6369 34.94 43.6369 30.38V27.68ZM51.2969 26.24H53.9769V44.82H51.2969V26.24ZM59.0753 31.26H71.9153V33.36H59.0753V31.26ZM56.9953 35.28H73.7753V37.4H56.9953V35.28ZM59.0753 26.92H61.7153V32.3H59.0753V26.92ZM58.8953 42.26H72.0153V44.38H58.8953V42.26ZM58.8953 38.88H61.5553V42.82H58.8953V38.88ZM84.0827 27.26H86.2627V28.9C86.2627 32.58 84.6627 35.82 81.1427 37.04L79.7227 34.94C82.8227 33.9 84.0827 31.42 84.0827 28.9V27.26ZM84.6227 27.26H86.7827V29.16C86.7827 31.38 88.0227 33.54 90.9227 34.44L89.5427 36.5C86.2027 35.38 84.6227 32.5 84.6227 29.16V27.26ZM91.9427 26.26H94.6027V37.2H91.9427V26.26ZM93.8627 30.54H97.0627V32.74H93.8627V30.54ZM88.5627 37.62C92.4027 37.62 94.8227 38.96 94.8227 41.2C94.8227 43.46 92.4027 44.78 88.5627 44.78C84.7027 44.78 82.2827 43.46 82.2827 41.2C82.2827 38.96 84.7027 37.62 88.5627 37.62ZM88.5627 39.68C86.2027 39.68 84.9227 40.18 84.9227 41.2C84.9227 42.24 86.2027 42.72 88.5627 42.72C90.9227 42.72 92.1827 42.24 92.1827 41.2C92.1827 40.18 90.9227 39.68 88.5627 39.68ZM105.461 36.44H108.121V39.26H105.461V36.44ZM98.4211 34.92H115.161V37.02H98.4211V34.92ZM99.8811 26.76H113.681V28.88H99.8811V26.76ZM100.021 31.66H113.541V33.78H100.021V31.66ZM102.241 27.54H104.901V33.04H102.241V27.54ZM108.661 27.54H111.321V33.04H108.661V27.54ZM100.361 38.56H113.161V44.58H100.361V38.56ZM110.561 40.62H102.981V42.48H110.561V40.62ZM125.2 26.52C129.42 26.52 131.9 27.64 131.9 29.68C131.9 31.72 129.42 32.84 125.2 32.84C120.96 32.84 118.5 31.72 118.5 29.68C118.5 27.64 120.96 26.52 125.2 26.52ZM125.2 28.46C122.52 28.46 121.26 28.86 121.26 29.68C121.26 30.54 122.52 30.9 125.2 30.9C127.88 30.9 129.14 30.54 129.14 29.68C129.14 28.86 127.88 28.46 125.2 28.46ZM116.82 33.7H133.56V35.8H116.82V33.7ZM118.74 36.84H131.54V41.6H121.38V43.24H118.76V39.76H128.92V38.82H118.74V36.84ZM118.76 42.66H132.02V44.66H118.76V42.66ZM143.967 28.32H146.147V29.48C146.147 33.02 144.487 36.2 140.907 37.38L139.587 35.28C142.667 34.26 143.967 31.84 143.967 29.48V28.32ZM144.507 28.32H146.667V29.48C146.667 31.64 147.907 33.76 150.887 34.66L149.627 36.74C146.107 35.68 144.507 32.78 144.507 29.48V28.32ZM140.287 27.5H150.287V29.62H140.287V27.5ZM151.767 26.26H154.427V37.24H151.767V26.26ZM153.687 30.52H156.887V32.7H153.687V30.52ZM148.387 37.58C152.227 37.58 154.647 38.92 154.647 41.18C154.647 43.44 152.227 44.78 148.387 44.78C144.527 44.78 142.107 43.44 142.107 41.18C142.107 38.92 144.527 37.58 148.387 37.58ZM148.387 39.66C146.027 39.66 144.747 40.14 144.747 41.18C144.747 42.22 146.027 42.74 148.387 42.74C150.747 42.74 152.007 42.22 152.007 41.18C152.007 40.14 150.747 39.66 148.387 39.66ZM170.085 26.26H172.765V44.78H170.085V26.26ZM172.165 33.16H175.445V35.36H172.165V33.16ZM158.805 27.72H161.445V32.22H165.165V27.72H167.805V40.5H158.805V27.72ZM161.445 34.28V38.36H165.165V34.28H161.445ZM178.564 27.34H190.184V29.44H178.564V27.34ZM176.664 35.22H193.404V37.36H176.664V35.22ZM183.604 36.72H186.284V44.8H183.604V36.72ZM188.824 27.34H191.444V28.98C191.444 30.98 191.444 33.22 190.724 36.5L188.104 36.2C188.824 33.1 188.824 30.9 188.824 28.98V27.34ZM207.862 26.26H210.522V44.78H207.862V26.26ZM196.022 28.02H198.662V39.52H196.022V28.02ZM196.022 37.96H197.662C200.362 37.96 203.362 37.76 206.422 37.16L206.722 39.36C203.542 40.02 200.482 40.22 197.662 40.22H196.022V37.96ZM220.841 33.08H223.881V35.22H220.841V33.08ZM226.821 26.26H229.361V44.78H226.821V26.26ZM223.041 26.54H225.541V43.94H223.041V26.54ZM217.601 27.56C220.061 27.56 221.641 30.1 221.641 34.28C221.641 38.48 220.061 41.02 217.601 41.02C215.161 41.02 213.601 38.48 213.601 34.28C213.601 30.1 215.161 27.56 217.601 27.56ZM217.601 30.06C216.601 30.06 216.021 31.46 216.021 34.28C216.021 37.12 216.601 38.5 217.601 38.5C218.641 38.5 219.221 37.12 219.221 34.28C219.221 31.46 218.641 30.06 217.601 30.06ZM248.388 26.26H251.048V36.64H248.388V26.26ZM250.308 30.42H253.508V32.58H250.308V30.42ZM237.168 33.86H238.708C242.728 33.86 244.728 33.76 246.948 33.3L247.208 35.4C244.948 35.9 242.828 36 238.708 36H237.168V33.86ZM237.168 27.4H245.388V29.52H239.808V35.1H237.168V27.4ZM239.008 37.44H251.048V44.58H239.008V37.44ZM248.448 39.54H241.628V42.48H248.448V39.54ZM259.826 27.54C262.646 27.54 264.686 30.1 264.686 34.14C264.686 38.22 262.646 40.78 259.826 40.78C257.006 40.78 254.966 38.22 254.966 34.14C254.966 30.1 257.006 27.54 259.826 27.54ZM259.826 29.96C258.446 29.96 257.526 31.42 257.526 34.14C257.526 36.9 258.446 38.38 259.826 38.38C261.206 38.38 262.146 36.9 262.146 34.14C262.146 31.42 261.206 29.96 259.826 29.96ZM266.706 26.26H269.386V44.78H266.706V26.26ZM268.786 33.24H272.066V35.44H268.786V33.24ZM280.125 28.32H282.425V28.86C282.425 32.12 279.765 34.78 275.065 35.42L274.085 33.34C278.165 32.84 280.125 30.76 280.125 28.86V28.32ZM280.885 28.32H283.185V28.86C283.185 30.76 285.145 32.84 289.225 33.34L288.265 35.42C283.545 34.78 280.885 32.12 280.885 28.86V28.32ZM280.265 38H282.905V44.8H280.265V38ZM273.285 36.48H290.025V38.6H273.285V36.48ZM274.765 27.2H288.505V29.3H274.765V27.2ZM298.963 32.48H302.023V34.64H298.963V32.48ZM295.003 27.86H297.043V30.98C297.043 35.18 295.883 39.28 292.923 41.1L291.323 39.1C294.043 37.42 295.003 34.12 295.003 30.98V27.86ZM295.583 27.86H297.583V30.86C297.583 33.88 298.363 36.96 300.883 38.6L299.443 40.68C296.503 38.86 295.583 34.86 295.583 30.86V27.86ZM305.043 26.26H307.583V44.78H305.043V26.26ZM301.283 26.54H303.763V43.94H301.283V26.54ZM313.762 35.66H316.402V40.86H313.762V35.66ZM320.482 35.66H323.142V40.86H320.482V35.66ZM310.082 40.48H326.842V42.64H310.082V40.48ZM318.442 27.16C322.422 27.16 325.362 29.12 325.362 32.14C325.362 35.16 322.422 37.1 318.442 37.1C314.442 37.1 311.522 35.16 311.522 32.14C311.522 29.12 314.442 27.16 318.442 27.16ZM318.442 29.24C315.862 29.24 314.142 30.3 314.142 32.14C314.142 33.96 315.862 35.04 318.442 35.04C321.022 35.04 322.742 33.96 322.742 32.14C322.742 30.3 321.022 29.24 318.442 29.24ZM330.636 43.1847C330.167 43.1847 329.765 43.0189 329.429 42.6875C329.097 42.3513 328.931 41.9489 328.931 41.4801C328.931 41.0161 329.097 40.6184 329.429 40.2869C329.765 39.9555 330.167 39.7898 330.636 39.7898C331.091 39.7898 331.488 39.9555 331.829 40.2869C332.17 40.6184 332.341 41.0161 332.341 41.4801C332.341 41.7926 332.26 42.0791 332.099 42.3395C331.943 42.5952 331.737 42.8011 331.481 42.9574C331.225 43.1089 330.944 43.1847 330.636 43.1847Z" fill="#4979D1"/>
</g>
</g>
<defs>
<clipPath id="clip0_36_10">
<rect width="340" height="50" fill="white"/>
</clipPath>
</defs>
</svg>
