<svg width="345" height="47" viewBox="0 0 345 47" fill="none" xmlns="http://www.w3.org/2000/svg">
<g clip-path="url(#clip0_12166_18381)">
<mask id="mask0_12166_18381" style="mask-type:luminance" maskUnits="userSpaceOnUse" x="0" y="0" width="345" height="47">
<path d="M345 0H0V47H345V0Z" fill="white"/>
</mask>
<g mask="url(#mask0_12166_18381)">
<path d="M83.502 18.793H84.965V26.295H83.502V18.793ZM76.693 19.519H82.072V20.685H76.693V19.519ZM76.583 25.085L76.44 23.886C78.079 23.886 80.367 23.864 82.204 23.655L82.281 24.722C80.389 25.041 78.2 25.085 76.583 25.085ZM77.496 20.542H78.904V24.029H77.496V20.542ZM79.861 20.542H81.258V24.029H79.861V20.542ZM82.27 20.575H84.294V21.741H82.27V20.575ZM82.27 22.621H84.294V23.798H82.27V22.621ZM78.233 27.637H85.196V28.803H78.233V27.637ZM78.233 25.745H79.707V28.517H78.233V25.745ZM93.1151 18.793H94.5781V26.196H93.1151V18.793ZM94.1601 21.708H95.9311V22.907H94.1601V21.708ZM88.0111 27.637H94.9411V28.803H88.0111V27.637ZM88.0111 25.426H89.4741V28.154H88.0111V25.426ZM89.3971 19.442C90.9591 19.442 92.1691 20.531 92.1691 22.038C92.1691 23.534 90.9591 24.623 89.3971 24.623C87.8351 24.623 86.6251 23.534 86.6251 22.038C86.6251 20.531 87.8351 19.442 89.3971 19.442ZM89.3971 20.718C88.6491 20.718 88.0551 21.202 88.0551 22.038C88.0551 22.863 88.6491 23.347 89.3971 23.347C90.1561 23.347 90.7391 22.863 90.7391 22.038C90.7391 21.202 90.1561 20.718 89.3971 20.718ZM103.234 18.804H104.697V26.416H103.234V18.804ZM104.279 21.906H106.05V23.105H104.279V21.906ZM96.6783 19.86H102.673V21.004H96.6783V19.86ZM99.6813 21.367C101.144 21.367 102.178 22.17 102.178 23.336C102.178 24.502 101.144 25.294 99.6813 25.294C98.2073 25.294 97.1733 24.502 97.1733 23.336C97.1733 22.17 98.2073 21.367 99.6813 21.367ZM99.6813 22.478C99.0323 22.478 98.5813 22.786 98.5813 23.336C98.5813 23.886 99.0323 24.183 99.6813 24.183C100.33 24.183 100.781 23.886 100.781 23.336C100.781 22.786 100.33 22.478 99.6813 22.478ZM98.9443 18.782H100.407V20.421H98.9443V18.782ZM98.1303 27.637H105.06V28.803H98.1303V27.637ZM98.1303 25.844H99.5933V28.143H98.1303V25.844ZM113.897 20.872H116.669V22.049H113.897V20.872ZM113.897 24.029H116.669V25.206H113.897V24.029ZM112.137 19.497C113.655 19.497 114.766 20.905 114.766 23.127C114.766 25.371 113.655 26.779 112.137 26.779C110.608 26.779 109.508 25.371 109.508 23.127C109.508 20.905 110.608 19.497 112.137 19.497ZM112.137 20.828C111.4 20.828 110.894 21.631 110.894 23.127C110.894 24.645 111.4 25.459 112.137 25.459C112.885 25.459 113.38 24.645 113.38 23.127C113.38 21.631 112.885 20.828 112.137 20.828ZM116.438 18.782H117.89V29.001H116.438V18.782ZM126.755 18.793H128.141V25.173H126.755V18.793ZM125.512 21.301H127.14V22.489H125.512V21.301ZM124.643 18.991H126.007V24.843H124.643V18.991ZM119.418 19.838H124.357V20.96H119.418V19.838ZM121.904 21.29C123.18 21.29 124.104 22.016 124.104 23.072C124.104 24.128 123.18 24.843 121.904 24.843C120.628 24.843 119.704 24.128 119.704 23.072C119.704 22.016 120.628 21.29 121.904 21.29ZM121.904 22.335C121.365 22.335 121.002 22.599 121.002 23.072C121.002 23.545 121.365 23.809 121.904 23.809C122.432 23.809 122.795 23.545 122.795 23.072C122.795 22.599 122.432 22.335 121.904 22.335ZM121.167 18.892H122.608V20.608H121.167V18.892ZM124.698 25.283C126.876 25.283 128.196 25.943 128.196 27.131C128.196 28.308 126.876 28.979 124.698 28.979C122.509 28.979 121.189 28.308 121.189 27.131C121.189 25.943 122.509 25.283 124.698 25.283ZM124.698 26.372C123.334 26.372 122.652 26.603 122.652 27.131C122.652 27.648 123.334 27.89 124.698 27.89C126.051 27.89 126.733 27.648 126.733 27.131C126.733 26.603 126.051 26.372 124.698 26.372ZM134.614 19.574H135.802V21.059C135.802 23.677 134.9 26.042 132.876 26.977L132.007 25.767C133.778 24.997 134.614 23.039 134.614 21.059V19.574ZM134.9 19.574H136.088V21.059C136.088 22.94 136.891 24.81 138.629 25.558L137.771 26.735C135.802 25.833 134.9 23.567 134.9 21.059V19.574ZM139.113 18.782H140.587V29.001H139.113V18.782ZM144.513 19.838H145.712V20.476C145.712 22.401 144.799 24.128 142.852 24.755L142.093 23.622C143.798 23.072 144.513 21.752 144.513 20.476V19.838ZM144.81 19.838H145.998V20.476C145.998 21.675 146.691 22.918 148.341 23.446L147.593 24.579C145.69 23.963 144.81 22.302 144.81 20.476V19.838ZM142.489 19.387H147.989V20.553H142.489V19.387ZM148.803 18.793H150.266V24.931H148.803V18.793ZM149.859 21.257H151.619V22.456H149.859V21.257ZM143.468 25.371H150.266V28.979H148.803V26.548H143.468V25.371ZM152.795 19.805H157.184V20.96H152.795V19.805ZM154.104 22.72H155.545V26.174H154.104V22.72ZM156.601 19.805H158.042V20.63C158.042 21.62 158.042 22.852 157.767 24.546L156.337 24.414C156.601 22.786 156.601 21.609 156.601 20.63V19.805ZM158.911 18.793H160.374V28.979H158.911V18.793ZM159.945 22.885H161.738V24.095H159.945V22.885ZM152.41 26.922L152.278 25.745C154.071 25.745 156.447 25.712 158.449 25.459L158.526 26.526C156.469 26.878 154.181 26.922 152.41 26.922ZM165.031 22.522H174.249V23.688H165.031V22.522ZM165.889 19.134H168.265V20.289H165.889V19.134ZM167.836 19.134H169.266V19.684C169.266 20.41 169.266 21.521 168.76 22.995L167.352 22.797C167.836 21.334 167.836 20.388 167.836 19.684V19.134ZM169.838 19.134H172.456V20.289H169.838V19.134ZM171.774 19.134H173.204V19.838C173.204 20.663 173.204 21.697 172.775 23.05L171.356 22.852C171.774 21.521 171.774 20.63 171.774 19.838V19.134ZM166.153 24.381H173.171V25.459H167.616V28.033H166.153V24.381ZM166.153 27.78H173.248V28.869H166.153V27.78ZM167.022 26.086H172.929V27.12H167.022V26.086ZM177.183 26.9062L177.14 27.3359C177.106 27.6797 177.041 28.0221 176.944 28.3633C176.851 28.707 176.752 29.0182 176.647 29.2969C176.546 29.5755 176.464 29.7943 176.401 29.9531H175.323C175.362 29.7995 175.416 29.5846 175.483 29.3086C175.551 29.0352 175.615 28.7279 175.675 28.3867C175.735 28.0456 175.772 27.6979 175.788 27.3437L175.808 26.9062H177.183ZM181.198 25.036H182.212C184.24 25.036 185.787 25.01 187.581 24.724L187.737 26.102C185.917 26.388 184.279 26.44 182.212 26.44H181.198V25.036ZM181.198 18.12H186.853V19.524H182.94V25.491H181.198V18.12ZM182.524 21.461H186.684V22.813H182.524V21.461ZM188.426 17.119H190.168V29.157H188.426V17.119ZM189.778 21.682H191.91V23.112H189.778V21.682ZM193.287 18.198H199.072V26.297H193.287V18.198ZM197.382 19.55H194.99V24.932H197.382V19.55ZM200.944 17.106H202.686V29.183H200.944V17.106ZM209.12 17.808H210.628V18.679C210.628 21.292 208.769 23.606 205.649 24.217L204.908 22.787C207.625 22.319 209.12 20.408 209.12 18.679V17.808ZM209.471 17.808H210.966V18.679C210.966 20.447 212.448 22.319 215.178 22.787L214.437 24.217C211.317 23.606 209.471 21.331 209.471 18.679V17.808ZM204.661 26.284H215.555V27.688H204.661V26.284ZM224.998 24.607C227.598 24.607 229.262 25.465 229.262 26.895C229.262 28.299 227.598 29.157 224.998 29.157C222.398 29.157 220.734 28.299 220.734 26.895C220.734 25.465 222.398 24.607 224.998 24.607ZM224.998 25.907C223.373 25.907 222.45 26.245 222.45 26.895C222.45 27.532 223.373 27.857 224.998 27.857C226.623 27.857 227.546 27.532 227.546 26.895C227.546 26.245 226.623 25.907 224.998 25.907ZM220.864 17.652H228.482V19.017H220.864V17.652ZM219.642 22.488H230.484V23.866H219.642V22.488ZM223.659 20.395H225.375V22.839H223.659V20.395ZM227.481 17.652H229.197V18.64C229.197 19.589 229.197 20.616 228.872 21.864L227.156 21.682C227.481 20.447 227.481 19.576 227.481 18.64V17.652ZM239.323 17.119H241.052V24.75H239.323V17.119ZM240.571 20.187H242.651V21.604H240.571V20.187ZM237.139 24.88C239.622 24.88 241.182 25.673 241.182 27.025C241.182 28.364 239.622 29.157 237.139 29.157C234.656 29.157 233.096 28.364 233.096 27.025C233.096 25.673 234.656 24.88 237.139 24.88ZM237.139 26.18C235.618 26.18 234.812 26.453 234.812 27.025C234.812 27.597 235.618 27.87 237.139 27.87C238.66 27.87 239.466 27.597 239.466 27.025C239.466 26.453 238.66 26.18 237.139 26.18ZM231.575 18.263H238.66V19.602H231.575V18.263ZM235.124 20.005C236.866 20.005 238.075 20.876 238.075 22.163C238.075 23.463 236.866 24.321 235.124 24.321C233.369 24.321 232.16 23.463 232.16 22.163C232.16 20.876 233.369 20.005 235.124 20.005ZM235.124 21.266C234.344 21.266 233.824 21.578 233.824 22.163C233.824 22.748 234.344 23.06 235.124 23.06C235.891 23.06 236.424 22.748 236.424 22.163C236.424 21.578 235.891 21.266 235.124 21.266ZM234.253 17.041H235.982V18.978H234.253V17.041ZM254.888 17.106H256.643V29.183H254.888V17.106ZM252.73 19.511H255.85V20.915H252.73V19.511ZM252.73 22.436H255.85V23.866H252.73V22.436ZM249.337 18.042H250.728V19.784C250.728 22.813 249.701 25.595 247.452 26.726L246.373 25.348C248.427 24.399 249.337 22.072 249.337 19.784V18.042ZM249.701 18.042H251.079V19.784C251.079 22.098 251.95 24.334 253.939 25.231L252.899 26.609C250.65 25.504 249.701 22.813 249.701 19.784V18.042ZM259.84 20.798H268.225V21.968H259.84V20.798ZM259.84 17.366H268.134V18.536H261.556V21.357H259.84V17.366ZM261.075 19.095H267.861V20.213H261.075V19.095ZM258.527 22.501H269.369V23.775H258.527V22.501ZM259.749 24.334H268.069V27.259H261.465V28.468H259.762V26.115H266.366V25.543H259.749V24.334ZM259.762 27.87H268.381V29.079H259.762V27.87Z" fill="white"/>
<path d="M77.343 6.48H83.062V6.956H77.343V6.48ZM79.919 5.535H80.493V6.627H79.919V5.535ZM77.98 7.572H82.355V9.546H81.774V8.048H77.98V7.572ZM78.106 3.365H78.68V4.079H81.739V3.365H82.32V5.731H78.106V3.365ZM78.68 4.534V5.269H81.739V4.534H78.68ZM85.3365 3.806H85.8125V4.317C85.8125 5.451 85.1055 6.389 84.0345 6.76L83.7475 6.298C84.6995 5.976 85.3365 5.199 85.3365 4.317V3.806ZM85.4415 3.806H85.9175V4.31C85.9175 5.122 86.5265 5.864 87.4575 6.165L87.1845 6.62C86.1275 6.277 85.4415 5.374 85.4415 4.31V3.806ZM83.9225 3.631H87.3105V4.107H83.9225V3.631ZM88.1155 3.218H88.6965V6.69H88.1155V3.218ZM88.5355 4.674H89.6345V5.164H88.5355V4.674ZM84.7065 6.991H85.2805V7.747H88.1225V6.991H88.6965V9.462H84.7065V6.991ZM85.2805 8.209V8.993H88.1225V8.209H85.2805ZM94.5549 3.225H95.1359V7.971H94.5549V3.225ZM94.9539 5.297H96.0739V5.787H94.9539V5.297ZM90.2429 3.988H93.9809V4.457H90.2429V3.988ZM92.1119 4.807C93.0079 4.807 93.6239 5.276 93.6239 5.99C93.6239 6.697 93.0079 7.166 92.1119 7.166C91.2089 7.166 90.5929 6.697 90.5929 5.99C90.5929 5.276 91.2089 4.807 92.1119 4.807ZM92.1119 5.262C91.5379 5.262 91.1459 5.549 91.1459 5.99C91.1459 6.424 91.5379 6.711 92.1119 6.711C92.6789 6.711 93.0709 6.424 93.0709 5.99C93.0709 5.549 92.6789 5.262 92.1119 5.262ZM91.8179 3.218H92.3989V4.233H91.8179V3.218ZM91.1949 8.93H95.4229V9.406H91.1949V8.93ZM91.1949 7.593H91.7759V9.133H91.1949V7.593ZM101.472 7.208C102.816 7.208 103.677 7.649 103.677 8.377C103.677 9.098 102.816 9.532 101.472 9.532C100.121 9.532 99.2671 9.098 99.2671 8.377C99.2671 7.649 100.121 7.208 101.472 7.208ZM101.472 7.663C100.478 7.663 99.8411 7.936 99.8411 8.377C99.8411 8.811 100.478 9.084 101.472 9.084C102.466 9.084 103.096 8.811 103.096 8.377C103.096 7.936 102.466 7.663 101.472 7.663ZM99.3161 3.533H103.39V4.009H99.3161V3.533ZM98.6371 6.165H104.349V6.634H98.6371V6.165ZM100.982 4.947H101.556V6.298H100.982V4.947ZM103.054 3.533H103.621V4.072C103.621 4.583 103.621 5.094 103.453 5.752L102.879 5.682C103.054 5.031 103.054 4.569 103.054 4.072V3.533ZM109.403 3.218H109.984V7.292H109.403V3.218ZM109.823 4.975H110.922V5.458H109.823V4.975ZM107.996 7.348C109.277 7.348 110.054 7.747 110.054 8.44C110.054 9.133 109.277 9.532 107.996 9.532C106.722 9.532 105.938 9.133 105.938 8.44C105.938 7.747 106.722 7.348 107.996 7.348ZM107.996 7.796C107.072 7.796 106.512 8.034 106.512 8.44C106.512 8.853 107.072 9.084 107.996 9.084C108.927 9.084 109.487 8.853 109.487 8.44C109.487 8.034 108.927 7.796 107.996 7.796ZM105.091 3.932H108.829V4.394H105.091V3.932ZM106.96 4.716C107.863 4.716 108.472 5.15 108.472 5.829C108.472 6.515 107.863 6.949 106.96 6.949C106.05 6.949 105.441 6.515 105.441 5.829C105.441 5.15 106.05 4.716 106.96 4.716ZM106.96 5.157C106.379 5.157 105.994 5.423 105.994 5.829C105.994 6.242 106.379 6.508 106.96 6.508C107.527 6.508 107.919 6.242 107.919 5.829C107.919 5.423 107.527 5.157 106.96 5.157ZM106.666 3.162H107.247V4.191H106.666V3.162ZM114.078 5.675H115.275V6.158H114.078V5.675ZM116.332 3.218H116.892V9.546H116.332V3.218ZM115.079 3.351H115.632V9.231H115.079V3.351ZM112.937 3.743C113.756 3.743 114.288 4.59 114.288 5.948C114.288 7.306 113.756 8.153 112.937 8.153C112.118 8.153 111.593 7.306 111.593 5.948C111.593 4.59 112.118 3.743 112.937 3.743ZM112.937 4.282C112.44 4.282 112.125 4.926 112.125 5.948C112.125 6.97 112.44 7.614 112.937 7.614C113.441 7.614 113.756 6.97 113.756 5.948C113.756 4.926 113.441 4.282 112.937 4.282ZM121.112 5.36H122.876V5.836H121.112V5.36ZM119.586 3.764H120.062V4.891C120.062 6.312 119.313 7.67 118.312 8.209L117.941 7.747C118.872 7.285 119.586 6.067 119.586 4.891V3.764ZM119.698 3.764H120.167V4.891C120.167 6.046 120.881 7.194 121.798 7.628L121.455 8.097C120.433 7.579 119.698 6.277 119.698 4.891V3.764ZM122.589 3.211H123.163V9.553H122.589V3.211ZM126.644 3.855H129.087V6.725H126.644V3.855ZM128.541 4.303H127.183V6.263H128.541V4.303ZM131.138 3.225H131.691V7.936H131.138V3.225ZM130.123 5.08H131.313V5.563H130.123V5.08ZM129.78 3.337H130.333V7.712H129.78V3.337ZM127.568 8.93H131.887V9.406H127.568V8.93ZM127.568 7.362H128.149V9.168H127.568V7.362ZM132.789 4.296H135.925V4.772H132.789V4.296ZM134.357 5.192C135.148 5.192 135.722 5.787 135.722 6.641C135.722 7.488 135.148 8.083 134.357 8.083C133.573 8.083 132.999 7.488 132.999 6.641C132.999 5.787 133.573 5.192 134.357 5.192ZM134.357 5.689C133.874 5.689 133.524 6.081 133.524 6.641C133.524 7.201 133.874 7.593 134.357 7.593C134.847 7.593 135.204 7.201 135.204 6.641C135.204 6.081 134.847 5.689 134.357 5.689ZM137.598 3.218H138.158V9.546H137.598V3.218ZM136.59 5.878H137.787V6.361H136.59V5.878ZM136.247 3.358H136.793V9.238H136.247V3.358ZM134.077 3.4H134.651V4.59H134.077V3.4ZM139.236 6.718H144.955V7.194H139.236V6.718ZM139.971 8.93H144.36V9.406H139.971V8.93ZM139.971 7.656H140.552V9.112H139.971V7.656ZM139.992 5.682H144.283V6.137H139.992V5.682ZM139.992 3.449H144.255V3.911H140.566V5.857H139.992V3.449ZM140.398 4.562H144.087V5.003H140.398V4.562ZM149.338 3.701C150.255 3.701 150.913 4.562 150.913 5.906C150.913 7.257 150.255 8.118 149.338 8.118C148.414 8.118 147.763 7.257 147.763 5.906C147.763 4.562 148.414 3.701 149.338 3.701ZM149.338 4.226C148.729 4.226 148.316 4.884 148.316 5.906C148.316 6.935 148.729 7.607 149.338 7.607C149.947 7.607 150.36 6.935 150.36 5.906C150.36 4.884 149.947 4.226 149.338 4.226ZM152.285 3.211H152.859V9.553H152.285V3.211ZM150.724 5.626H152.537V6.102H150.724V5.626ZM154.958 6.984H159.466V7.439H154.958V6.984ZM157.205 7.733C158.339 7.733 158.997 8.055 158.997 8.643C158.997 9.224 158.339 9.539 157.205 9.539C156.085 9.539 155.42 9.224 155.42 8.643C155.42 8.055 156.085 7.733 157.205 7.733ZM157.205 8.146C156.47 8.146 156.029 8.321 156.029 8.643C156.029 8.958 156.47 9.133 157.205 9.133C157.947 9.133 158.388 8.958 158.388 8.643C158.388 8.321 157.947 8.146 157.205 8.146ZM156.925 6.382H157.506V7.285H156.925V6.382ZM154.251 5.668H154.531C154.902 5.668 155.371 5.654 155.917 5.535L155.98 6.004C155.392 6.13 154.923 6.137 154.531 6.137H154.251V5.668ZM154.251 3.526H155.833V3.988H154.825V5.99H154.251V3.526ZM156.19 5.668H156.505C157.177 5.668 157.632 5.654 158.178 5.528L158.227 5.99C157.66 6.116 157.198 6.137 156.505 6.137H156.19V5.668ZM156.19 3.526H157.94V3.988H156.764V5.99H156.19V3.526ZM158.78 3.218H159.361V6.578H158.78V3.218ZM157.653 4.534H159.095V4.982H157.653V4.534ZM165.346 3.218H165.906V9.546H165.346V3.218ZM162.602 5.801H164.198V6.27H162.602V5.801ZM164.03 3.379H164.576V9.224H164.03V3.379ZM162.679 4.016H163.239C163.239 5.675 162.574 7.166 160.866 8.181L160.523 7.768C162.014 6.872 162.679 5.612 162.679 4.121V4.016ZM160.803 4.016H162.896V4.492H160.803V4.016ZM173.215 3.211H173.803V9.546H173.215V3.211ZM173.642 5.78H174.811V6.263H173.642V5.78ZM171.598 3.897H172.165C172.165 5.696 171.339 7.32 169.295 8.349L168.973 7.901C170.723 7.012 171.598 5.661 171.598 3.988V3.897ZM169.267 3.897H171.899V4.373H169.267V3.897ZM177.05 4.121H177.519V5.15C177.519 6.487 176.714 7.831 175.706 8.328L175.37 7.866C176.287 7.432 177.05 6.242 177.05 5.15V4.121ZM177.162 4.121H177.631V5.15C177.631 6.221 178.394 7.313 179.325 7.712L178.996 8.174C177.974 7.698 177.162 6.466 177.162 5.15V4.121ZM175.58 3.862H179.115V4.352H175.58V3.862ZM179.969 3.218H180.55V9.546H179.969V3.218ZM182.769 7.56818V7.53835C182.773 7.22183 182.806 6.96993 182.869 6.78267C182.932 6.59541 183.021 6.44377 183.137 6.32777C183.253 6.21177 183.392 6.10488 183.555 6.0071C183.653 5.94744 183.74 5.87701 183.818 5.79581C183.896 5.71295 183.958 5.61766 184.002 5.50994C184.049 5.40223 184.072 5.28291 184.072 5.15199C184.072 4.98958 184.034 4.84872 183.958 4.7294C183.881 4.61009 183.779 4.51811 183.652 4.45348C183.524 4.38885 183.383 4.35653 183.227 4.35653C183.091 4.35653 182.96 4.38471 182.834 4.44105C182.708 4.4974 182.603 4.58606 182.518 4.70703C182.434 4.82801 182.385 4.98627 182.372 5.18182H181.745C181.758 4.90009 181.831 4.65897 181.964 4.45845C182.098 4.25793 182.275 4.10464 182.493 3.99858C182.714 3.89252 182.958 3.83949 183.227 3.83949C183.518 3.83949 183.772 3.89749 183.987 4.01349C184.204 4.1295 184.372 4.28859 184.49 4.49077C184.609 4.69294 184.669 4.9233 184.669 5.18182C184.669 5.36411 184.64 5.529 184.584 5.67649C184.529 5.82398 184.45 5.95573 184.345 6.07173C184.243 6.18774 184.118 6.29048 183.972 6.37997C183.827 6.47112 183.71 6.56723 183.622 6.66832C183.534 6.76776 183.47 6.88625 183.431 7.02379C183.391 7.16134 183.369 7.33286 183.366 7.53835V7.56818H182.769ZM183.088 9.03977C182.965 9.03977 182.86 8.99586 182.772 8.90803C182.684 8.82019 182.64 8.71496 182.64 8.59233C182.64 8.4697 182.684 8.36446 182.772 8.27663C182.86 8.1888 182.965 8.14489 183.088 8.14489C183.21 8.14489 183.315 8.1888 183.403 8.27663C183.491 8.36446 183.535 8.4697 183.535 8.59233C183.535 8.67353 183.514 8.74811 183.473 8.81605C183.433 8.884 183.379 8.93868 183.311 8.98011C183.245 9.01989 183.17 9.03977 183.088 9.03977Z" fill="white"/>
<path d="M87.2835 42.9904C87.0127 42.9904 86.7688 42.9366 86.5518 42.8288C86.3348 42.7211 86.1609 42.5734 86.0301 42.3857C85.8993 42.1979 85.8278 41.984 85.8155 41.744H86.3695C86.391 41.9579 86.4879 42.1348 86.6603 42.2749C86.8342 42.4134 87.0419 42.4826 87.2835 42.4826C87.4774 42.4826 87.6498 42.4372 87.8006 42.3464C87.9529 42.2556 88.0722 42.131 88.1583 41.9725C88.246 41.8124 88.2899 41.6316 88.2899 41.43C88.2899 41.2238 88.2445 41.04 88.1537 40.8784C88.0645 40.7153 87.9414 40.5868 87.7844 40.4929C87.6274 40.399 87.4482 40.3513 87.2466 40.3498C87.1019 40.3482 86.9534 40.3706 86.8011 40.4167C86.6487 40.4614 86.5233 40.5191 86.4248 40.5898L85.8893 40.5252L86.1756 38.1985H88.6315V38.7063H86.6557L86.4895 40.1005H86.5172C86.6141 40.0236 86.7357 39.9597 86.8819 39.9089C87.0281 39.8581 87.1804 39.8327 87.3389 39.8327C87.6282 39.8327 87.886 39.902 88.1122 40.0405C88.3399 40.1774 88.5184 40.3652 88.6477 40.6037C88.7785 40.8422 88.8439 41.1146 88.8439 41.4208C88.8439 41.7224 88.7762 41.9917 88.6408 42.2287C88.5069 42.4641 88.3222 42.6503 88.0868 42.7873C87.8513 42.9227 87.5836 42.9904 87.2835 42.9904ZM91.3027 42.9904C90.955 42.9904 90.6587 42.8958 90.4141 42.7065C90.1694 42.5157 89.9824 42.2395 89.8532 41.8778C89.7239 41.5147 89.6593 41.0761 89.6593 40.5621C89.6593 40.0513 89.7239 39.615 89.8532 39.2534C89.984 38.8902 90.1717 38.6132 90.4164 38.4224C90.6626 38.2301 90.958 38.1339 91.3027 38.1339C91.6474 38.1339 91.9421 38.2301 92.1868 38.4224C92.433 38.6132 92.6207 38.8902 92.75 39.2534C92.8808 39.615 92.9462 40.0513 92.9462 40.5621C92.9462 41.0761 92.8816 41.5147 92.7523 41.8778C92.623 42.2395 92.4361 42.5157 92.1914 42.7065C91.9467 42.8958 91.6505 42.9904 91.3027 42.9904ZM91.3027 42.4826C91.6474 42.4826 91.9152 42.3164 92.106 41.984C92.2968 41.6516 92.3922 41.1777 92.3922 40.5621C92.3922 40.1528 92.3484 39.8043 92.2607 39.5165C92.1745 39.2288 92.0498 39.0095 91.8867 38.8587C91.7251 38.7079 91.5305 38.6325 91.3027 38.6325C90.9611 38.6325 90.6941 38.801 90.5018 39.138C90.3094 39.4734 90.2132 39.9482 90.2132 40.5621C90.2132 40.9715 90.2563 41.3192 90.3425 41.6055C90.4287 41.8917 90.5526 42.1094 90.7141 42.2587C90.8772 42.408 91.0734 42.4826 91.3027 42.4826ZM95.3652 42.9904C95.0175 42.9904 94.7212 42.8958 94.4766 42.7065C94.2319 42.5157 94.0449 42.2395 93.9157 41.8778C93.7864 41.5147 93.7218 41.0761 93.7218 40.5621C93.7218 40.0513 93.7864 39.615 93.9157 39.2534C94.0465 38.8902 94.2342 38.6132 94.4789 38.4224C94.7251 38.2301 95.0205 38.1339 95.3652 38.1339C95.7099 38.1339 96.0046 38.2301 96.2493 38.4224C96.4955 38.6132 96.6832 38.8902 96.8125 39.2534C96.9433 39.615 97.0087 40.0513 97.0087 40.5621C97.0087 41.0761 96.9441 41.5147 96.8148 41.8778C96.6855 42.2395 96.4986 42.5157 96.2539 42.7065C96.0092 42.8958 95.713 42.9904 95.3652 42.9904ZM95.3652 42.4826C95.7099 42.4826 95.9777 42.3164 96.1685 41.984C96.3593 41.6516 96.4547 41.1777 96.4547 40.5621C96.4547 40.1528 96.4109 39.8043 96.3232 39.5165C96.237 39.2288 96.1123 39.0095 95.9492 38.8587C95.7876 38.7079 95.593 38.6325 95.3652 38.6325C95.0236 38.6325 94.7566 38.801 94.5643 39.138C94.3719 39.4734 94.2757 39.9482 94.2757 40.5621C94.2757 40.9715 94.3188 41.3192 94.405 41.6055C94.4912 41.8917 94.6151 42.1094 94.7766 42.2587C94.9397 42.408 95.1359 42.4826 95.3652 42.4826ZM97.962 38.0833H100.659V40.8068H97.962V38.0833ZM100.133 38.5188H98.4885V40.3713H100.133V38.5188ZM101.738 37.5503H102.278V41.8598H101.738V37.5503ZM102.109 39.3443H103.149V39.7928H102.109V39.3443ZM98.6185 42.8608H102.544V43.3028H98.6185V42.8608ZM98.6185 41.4503H99.158V43.0493H98.6185V41.4503ZM106.08 40.3778H106.613V41.2748H106.08V40.3778ZM104.403 37.6478H104.936V38.1938H107.776V37.6478H108.316V39.5848H104.403V37.6478ZM104.936 38.6098V39.1688H107.776V38.6098H104.936ZM103.694 40.0658H109.005V40.5013H103.694V40.0658ZM104.338 41.0733H108.329V42.3798H104.884V43.1078H104.351V41.9898H107.796V41.4828H104.338V41.0733ZM104.351 42.9518H108.504V43.3678H104.351V42.9518ZM111.509 42.2368H116.832V42.6853H111.509V42.2368ZM113.888 40.8328H114.427V42.3668H113.888V40.8328ZM112.133 37.9728H112.666V39.0193H115.662V37.9728H116.195V40.9758H112.133V37.9728ZM112.666 39.4548V40.5338H115.662V39.4548H112.666ZM121.778 37.5568H122.318V41.1123H121.778V37.5568ZM120.803 39.3378H122.019V39.7863H120.803V39.3378ZM118.509 41.4243H122.318V43.3548H118.509V41.4243ZM121.791 41.8598H119.035V42.9193H121.791V41.8598ZM117.495 38.1678H120.894V38.6033H117.495V38.1678ZM119.191 38.9023C119.984 38.9023 120.55 39.3313 120.55 39.9553C120.55 40.5793 119.984 40.9953 119.191 40.9953C118.398 40.9953 117.833 40.5793 117.833 39.9553C117.833 39.3313 118.398 38.9023 119.191 38.9023ZM119.191 39.3183C118.697 39.3183 118.346 39.5718 118.346 39.9553C118.346 40.3323 118.697 40.5858 119.191 40.5858C119.685 40.5858 120.036 40.3323 120.036 39.9553C120.036 39.5718 119.685 39.3183 119.191 39.3183ZM118.925 37.4983H119.464V38.4798H118.925V37.4983ZM126.726 38.9543H127.148V39.4548C127.148 40.6963 126.472 41.8403 125.543 42.3018L125.237 41.8858C126.102 41.4698 126.726 40.4688 126.726 39.4548V38.9543ZM126.83 38.9543H127.252V39.4548C127.252 40.4038 127.844 41.3593 128.682 41.7753L128.383 42.1913C127.467 41.7363 126.83 40.6248 126.83 39.4548V38.9543ZM125.4 38.5773H128.552V39.0128H125.4V38.5773ZM126.719 37.6608H127.252V38.8178H126.719V37.6608ZM129.267 37.5568H129.813V43.4328H129.267V37.5568ZM129.683 39.9683H130.775V40.4168H129.683V39.9683ZM135.669 38.4733H136.703V38.9218H135.669V38.4733ZM135.669 39.7083H136.703V40.1568H135.669V39.7083ZM135.292 37.5568H135.832V41.1123H135.292V37.5568ZM131.529 40.3258H131.99C133.056 40.3258 133.817 40.2933 134.733 40.1308L134.779 40.5793C133.849 40.7353 133.076 40.7743 131.99 40.7743H131.529V40.3258ZM131.516 37.9208H134.161V39.5198H132.055V40.6118H131.529V39.0973H133.628V38.3628H131.516V37.9208ZM133.953 41.2878C135.156 41.2878 135.884 41.6778 135.884 42.3538C135.884 43.0363 135.156 43.4263 133.953 43.4263C132.757 43.4263 132.023 43.0363 132.023 42.3538C132.023 41.6778 132.757 41.2878 133.953 41.2878ZM133.953 41.7103C133.076 41.7103 132.549 41.9443 132.549 42.3538C132.549 42.7698 133.076 43.0038 133.953 43.0038C134.831 43.0038 135.364 42.7698 135.364 42.3538C135.364 41.9443 134.831 41.7103 133.953 41.7103ZM139.907 37.9273C141.129 37.9273 142.039 38.5773 142.039 39.5523C142.039 40.5338 141.129 41.1773 139.907 41.1773C138.685 41.1773 137.768 40.5338 137.768 39.5523C137.768 38.5773 138.685 37.9273 139.907 37.9273ZM139.907 38.3693C138.977 38.3693 138.288 38.8438 138.288 39.5523C138.288 40.2543 138.977 40.7353 139.907 40.7353C140.836 40.7353 141.525 40.2543 141.525 39.5523C141.525 38.8438 140.836 38.3693 139.907 38.3693ZM137.255 42.2043H142.578V42.6593H137.255V42.2043ZM143.234 42.2628H148.558V42.7113H143.234V42.2628ZM145.613 41.0018H146.153V42.4513H145.613V41.0018ZM143.878 37.9923H147.901V39.7733H144.43V40.9498H143.897V39.3378H147.368V38.4278H143.878V37.9923ZM143.897 40.7223H148.038V41.1643H143.897V40.7223ZM153.492 37.9338H154.058C154.058 39.4158 153.018 40.4753 151.328 40.9498L151.107 40.5273C152.595 40.1048 153.492 39.2533 153.492 38.1613V37.9338ZM151.412 37.9338H153.856V38.3693H151.412V37.9338ZM151.952 41.2683H155.871V43.4198H155.332V41.7038H151.952V41.2683ZM155.332 37.5568H155.871V41.0083H155.332V37.5568ZM154.077 39.0973H155.449V39.5458H154.077V39.0973ZM160.154 39.0778H161.48V39.5263H160.154V39.0778ZM161.311 37.5568H161.851V41.0603H161.311V37.5568ZM159.92 41.2358C161.129 41.2358 161.877 41.6453 161.877 42.3343C161.877 43.0298 161.129 43.4263 159.92 43.4263C158.705 43.4263 157.957 43.0298 157.957 42.3343C157.957 41.6453 158.705 41.2358 159.92 41.2358ZM159.92 41.6583C159.036 41.6583 158.497 41.9053 158.497 42.3343C158.497 42.7568 159.036 43.0038 159.92 43.0038C160.804 43.0038 161.344 42.7568 161.344 42.3343C161.344 41.9053 160.804 41.6583 159.92 41.6583ZM158.516 38.1483H158.958V38.6228C158.958 39.7083 158.295 40.6378 157.32 41.0018L157.041 40.5728C157.912 40.2543 158.516 39.4678 158.516 38.6228V38.1483ZM158.62 38.1483H159.056V38.6228C159.056 39.3833 159.628 40.1113 160.479 40.4103L160.206 40.8393C159.251 40.4948 158.62 39.6108 158.62 38.6228V38.1483ZM157.203 37.9858H160.343V38.4278H157.203V37.9858ZM163.67 41.0018H164.177V41.7363H165.204V41.0018H165.705V43.3548H163.67V41.0018ZM164.177 42.1393V42.9323H165.204V42.1393H164.177ZM166.842 40.9693H167.258V41.4568C167.258 42.2563 166.855 43.0623 166.043 43.4068L165.77 42.9973C166.478 42.6983 166.842 42.0548 166.842 41.4568V40.9693ZM166.953 40.9693H167.369V41.4568C167.369 42.0873 167.733 42.7243 168.441 42.9973L168.168 43.4068C167.349 43.0688 166.953 42.2888 166.953 41.4568V40.9693ZM165.952 38.9348H167.531V39.3833H165.952V38.9348ZM164.6 37.8168C165.477 37.8168 166.114 38.3628 166.114 39.1688C166.114 39.9683 165.477 40.5208 164.6 40.5208C163.722 40.5208 163.085 39.9683 163.085 39.1688C163.085 38.3628 163.722 37.8168 164.6 37.8168ZM164.6 38.2653C164.021 38.2653 163.605 38.6358 163.605 39.1688C163.605 39.6953 164.021 40.0723 164.6 40.0723C165.178 40.0723 165.594 39.6953 165.594 39.1688C165.594 38.6358 165.178 38.2653 164.6 38.2653ZM167.291 37.5568H167.83V40.6703H167.291V37.5568ZM173.244 37.5503H173.784V43.4393H173.244V37.5503ZM170.683 38.0053C171.554 38.0053 172.178 38.8048 172.178 40.0528C172.178 41.3073 171.554 42.1068 170.683 42.1068C169.819 42.1068 169.195 41.3073 169.195 40.0528C169.195 38.8048 169.819 38.0053 170.683 38.0053ZM170.683 38.4928C170.111 38.4928 169.708 39.1038 169.708 40.0528C169.708 41.0083 170.111 41.6323 170.683 41.6323C171.262 41.6323 171.658 41.0083 171.658 40.0528C171.658 39.1038 171.262 38.4928 170.683 38.4928ZM181.078 37.5568H181.617V41.9313H181.078V37.5568ZM176.957 38.0313H180.051V38.4733H176.957V38.0313ZM176.859 41.0473L176.801 40.5858C177.763 40.5858 179.134 40.5728 180.233 40.4428L180.265 40.8458C179.134 41.0278 177.815 41.0473 176.859 41.0473ZM177.542 38.4083H178.062V40.6638H177.542V38.4083ZM178.946 38.4083H179.466V40.6638H178.946V38.4083ZM180.103 38.6683H181.364V39.1103H180.103V38.6683ZM180.103 39.7928H181.364V40.2348H180.103V39.7928ZM177.86 42.8608H181.773V43.3028H177.86V42.8608ZM177.86 41.5738H178.4V43.1403H177.86V41.5738ZM186.784 37.5503H187.324V41.8793H186.784V37.5503ZM187.155 39.3378H188.195V39.7863H187.155V39.3378ZM183.664 42.8608H187.59V43.3028H183.664V42.8608ZM183.664 41.4373H184.204V43.0363H183.664V41.4373ZM184.405 37.9663C185.283 37.9663 185.939 38.5708 185.939 39.4158C185.939 40.2673 185.283 40.8653 184.405 40.8653C183.528 40.8653 182.871 40.2673 182.871 39.4158C182.871 38.5708 183.528 37.9663 184.405 37.9663ZM184.405 38.4408C183.833 38.4408 183.398 38.8438 183.398 39.4158C183.398 39.9943 183.833 40.3908 184.405 40.3908C184.977 40.3908 185.413 39.9943 185.413 39.4158C185.413 38.8438 184.977 38.4408 184.405 38.4408ZM192.725 37.5568H193.264V43.4328H192.725V37.5568ZM193.134 39.9683H194.226V40.4233H193.134V39.9683ZM188.714 38.4928H192.179V38.9348H188.714V38.4928ZM190.469 39.4223C191.301 39.4223 191.899 39.9813 191.899 40.7743C191.899 41.5673 191.301 42.1263 190.469 42.1263C189.644 42.1263 189.039 41.5673 189.039 40.7743C189.039 39.9813 189.644 39.4223 190.469 39.4223ZM190.469 39.8708C189.936 39.8708 189.553 40.2413 189.553 40.7743C189.553 41.3008 189.936 41.6778 190.469 41.6778C191.002 41.6778 191.386 41.3008 191.386 40.7743C191.386 40.2413 191.002 39.8708 190.469 39.8708ZM190.19 37.6283H190.729V38.6943H190.19V37.6283ZM199.198 37.5568H199.718V43.4328H199.198V37.5568ZM196.65 39.9553H198.132V40.3908H196.65V39.9553ZM197.976 37.7063H198.483V43.1338H197.976V37.7063ZM196.722 38.2978H197.242C197.242 39.8383 196.624 41.2228 195.038 42.1653L194.72 41.7818C196.104 40.9498 196.722 39.7798 196.722 38.3953V38.2978ZM194.98 38.2978H196.923V38.7398H194.98V38.2978ZM201.6 38.1985L201.553 41.5962H201.018L200.972 38.1985H201.6ZM201.286 42.9627C201.172 42.9627 201.074 42.9219 200.993 42.8404C200.911 42.7588 200.87 42.6611 200.87 42.5472C200.87 42.4334 200.911 42.3356 200.993 42.2541C201.074 42.1725 201.172 42.1317 201.286 42.1317C201.4 42.1317 201.497 42.1725 201.579 42.2541C201.66 42.3356 201.701 42.4334 201.701 42.5472C201.701 42.6226 201.682 42.6919 201.643 42.755C201.607 42.8181 201.557 42.8688 201.493 42.9073C201.432 42.9442 201.363 42.9627 201.286 42.9627Z" fill="white"/>
<path d="M80.585 38.4053H77.585V43.9153H83.1851V40.7322" stroke="white"/>
<path d="M78.5044 39.9951L80.3413 42.1372L84.228 37.4243" stroke="white"/>
</g>
</g>
<defs>
<clipPath id="clip0_12166_18381">
<rect width="345" height="47" fill="white"/>
</clipPath>
</defs>
</svg>
