<svg width="42" height="44" viewBox="0 0 42 44" fill="none" xmlns="http://www.w3.org/2000/svg">
<path d="M33.5 1.16663V5.33329M8.5 1.16663V5.33329" stroke="#2A353D" stroke-width="1.5" stroke-linecap="round" stroke-linejoin="round"/>
<path d="M1.20801 22.5068C1.20801 13.429 1.20801 8.89017 3.81659 6.07009C6.42517 3.25 10.6236 3.25 19.0205 3.25H22.9788C31.3757 3.25 35.5742 3.25 38.1828 6.07009C40.7913 8.89017 40.7913 13.429 40.7913 22.5068V23.5766C40.7913 32.6543 40.7913 37.1932 38.1828 40.0132C35.5742 42.8333 31.3757 42.8333 22.9788 42.8333H19.0205C10.6236 42.8333 6.42517 42.8333 3.81659 40.0132C1.20801 37.1932 1.20801 32.6543 1.20801 23.5766V22.5068Z" stroke="#2A353D" stroke-width="1.5" stroke-linecap="round" stroke-linejoin="round"/>
<path d="M2.25 13.6666H39.75" stroke="#2A353D" stroke-width="1.5" stroke-linecap="round" stroke-linejoin="round"/>
</svg>
