<svg width="15" height="17" viewBox="0 0 15 17" fill="none" xmlns="http://www.w3.org/2000/svg">
<path d="M11.25 1.74536V3.09789M3.75 1.74536V3.09789" stroke="#5D5D5F" stroke-width="1.5" stroke-linecap="round" stroke-linejoin="round"/>
<path d="M1.5625 8.67249C1.5625 5.72581 1.5625 4.25247 2.34507 3.33705C3.12765 2.42163 4.38718 2.42163 6.90625 2.42163H8.09375C10.6128 2.42163 11.8724 2.42163 12.6549 3.33705C13.4375 4.25247 13.4375 5.72581 13.4375 8.67249V9.01976C13.4375 11.9664 13.4375 13.4398 12.6549 14.3552C11.8724 15.2706 10.6128 15.2706 8.09375 15.2706H6.90625C4.38718 15.2706 3.12765 15.2706 2.34507 14.3552C1.5625 13.4398 1.5625 11.9664 1.5625 9.01976V8.67249Z" stroke="#5D5D5F" stroke-width="1.5" stroke-linecap="round" stroke-linejoin="round"/>
<path d="M1.875 5.80298H13.125" stroke="#5D5D5F" stroke-width="1.5" stroke-linecap="round" stroke-linejoin="round"/>
</svg>
