<?xml version="1.0" encoding="UTF-8"?>
<svg id="_레이어_1" data-name="레이어 1" xmlns="http://www.w3.org/2000/svg" xmlns:xlink="http://www.w3.org/1999/xlink" viewBox="0 0 512 512">
  <defs>
    <style>
      .cls-1 {
        clip-path: url(#clippath-7);
      }

      .cls-2 {
        clip-path: url(#clippath-4);
      }

      .cls-3 {
        clip-path: url(#clippath-10);
      }

      .cls-4 {
        fill: #fff;
      }

      .cls-5 {
        clip-path: url(#clippath-1);
      }

      .cls-6 {
        fill: #371d1e;
      }
    </style>
    <clipPath id="clippath-1">
      <path class="cls-4" d="M77.4,185.9h26.3s.2,72.4,0,89.2c0,12.3,27.4,12.5,27.4.2v-88.5c.1,0,8.9,0,26.3,0,16.4,0,16.4-25.8,0-25.8-18.5,0-80.1-.5-80.1-.5-15.5,0-15.4,25.3,0,25.3"/>
    </clipPath>
    <clipPath id="clippath-4">
      <path class="cls-4" d="M203.5,190.6l14.7,45.9h-30.6l15.9-45.9ZM187.1,169.1c-6.5,14.3-29.9,81.7-37.7,99.6-5.6,12.9,18.6,23.5,24.2,10.5l5.3-18.4h48.2s-1.7.8,4.7,17.7c5.2,13.7,30.2,4.2,25-9.5-7.4-19.5-33-89.9-37.7-99.9-2.2-4.6-9.9-7.9-17.4-7.9s-12.2,2.3-14.8,7.9"/>
    </clipPath>
    <clipPath id="clippath-7">
      <path class="cls-4" d="M266.1,173.3c0,22.9.1,96.8.1,96.8,0,0-2.1,14.7,10.5,14.7s40.5-.1,52.9-.1,12.3-26.3,0-26.3-35-.1-35-.1c0,0,.1-68.3,0-84.9,0-8-7.1-12-14.2-12s-14.3,4-14.3,12.1"/>
    </clipPath>
    <clipPath id="clippath-10">
      <path class="cls-4" d="M345.3,169.7c.3,10-.3,100.9-.3,107.7,0,10.6,27.1,10.6,27.1,0,0-12.3,0-35.8,0-35.8l7.9-6.4,34.7,47.4c7,9.3,29.1-7.5,22.1-16.7l-36.9-48.6s25-27.1,34.9-36.9c5.8-5.7-12.1-23.7-17.8-17.9-5.6,5.5-44.8,44.8-44.8,44.8,0,0,.4-24.7,0-38.3-.1-5.2-6.5-7.7-13-7.7s-14.1,2.9-13.9,8.4"/>
    </clipPath>
  </defs>
  <path class="cls-6" d="M256,20.8C114.6,20.8,0,111.4,0,223.2s48.6,136.5,121.4,172.2c-5.4,20-19.4,72.4-22.2,83.6-3.5,13.9,5.1,13.7,10.7,10,4.4-2.9,70.1-47.7,98.5-66.9,15.4,2.3,31.3,3.5,47.5,3.5,141.4,0,256-90.6,256-202.4S397.4,20.8,256,20.8"/>
  <g>
    <g>
      <path class="cls-4" d="M77.4,185.9h26.3s.2,72.4,0,89.2c0,12.3,27.4,12.5,27.4.2v-88.5c.1,0,8.9,0,26.3,0,16.4,0,16.4-25.8,0-25.8-18.5,0-80.1-.5-80.1-.5-15.5,0-15.4,25.3,0,25.3"/>
      <g class="cls-5">
        <rect class="cls-4" x="61.9" y="160.7" width="112" height="127"/>
      </g>
    </g>
    <g>
      <path class="cls-4" d="M203.5,190.6l14.7,45.9h-30.6l15.9-45.9ZM187.1,169.1c-6.5,14.3-29.9,81.7-37.7,99.6-5.6,12.9,18.6,23.5,24.2,10.5l5.3-18.4h48.2s-1.7.8,4.7,17.7c5.2,13.7,30.2,4.2,25-9.5-7.4-19.5-33-89.9-37.7-99.9-2.2-4.6-9.9-7.9-17.4-7.9s-12.2,2.3-14.8,7.9"/>
      <g class="cls-2">
        <rect class="cls-4" x="143.8" y="161.2" width="118.3" height="131"/>
      </g>
    </g>
    <g>
      <path class="cls-4" d="M266.1,173.3c0,22.9.1,96.8.1,96.8,0,0-2.1,14.7,10.5,14.7s40.5-.1,52.9-.1,12.3-26.3,0-26.3-35-.1-35-.1c0,0,.1-68.3,0-84.9,0-8-7.1-12-14.2-12s-14.3,4-14.3,12.1"/>
      <g class="cls-1">
        <rect class="cls-4" x="264.2" y="161.2" width="77.9" height="123.6"/>
      </g>
    </g>
    <g>
      <path class="cls-4" d="M345.3,169.7c.3,10-.3,100.9-.3,107.7,0,10.6,27.1,10.6,27.1,0,0-12.3,0-35.8,0-35.8l7.9-6.4,34.7,47.4c7,9.3,29.1-7.5,22.1-16.7l-36.9-48.6s25-27.1,34.9-36.9c5.8-5.7-12.1-23.7-17.8-17.9-5.6,5.5-44.8,44.8-44.8,44.8,0,0,.4-24.7,0-38.3-.1-5.2-6.5-7.7-13-7.7s-14.1,2.9-13.9,8.4"/>
      <g class="cls-3">
        <rect class="cls-4" x="345" y="156.7" width="98.9" height="135.2"/>
      </g>
    </g>
  </g>
</svg>