<svg width="380" height="512" viewBox="0 0 380 512" fill="none" xmlns="http://www.w3.org/2000/svg">
    <path fill-rule="evenodd" clip-rule="evenodd"
        d="M0 106.667C0 96.0629 8.59613 87.4667 19.2 87.4667H360.533C371.137 87.4667 379.733 96.0629 379.733 106.667C379.733 117.271 371.137 125.867 360.533 125.867H19.2C8.59613 125.867 0 117.271 0 106.667Z"
        fill="#4979D1" />
    <path fill-rule="evenodd" clip-rule="evenodd"
        d="M0 256C0 245.396 8.59613 236.8 19.2 236.8H360.533C371.137 236.8 379.733 245.396 379.733 256C379.733 266.604 371.137 275.2 360.533 275.2H19.2C8.59613 275.2 0 266.604 0 256Z"
        fill="#4979D1" />
    <path fill-rule="evenodd" clip-rule="evenodd"
        d="M0 405.332C0 394.729 8.59613 386.132 19.2 386.132H360.533C371.137 386.132 379.733 394.729 379.733 405.332C379.733 415.936 371.137 424.532 360.533 424.532H19.2C8.59613 424.532 0 415.936 0 405.332Z"
        fill="#4979D1" />
</svg>