<svg width="96" height="96" viewBox="0 0 96 96" fill="none" xmlns="http://www.w3.org/2000/svg">
<path d="M48 8C39.2031 8 30.75 11.2188 24.75 17.625C19.1563 23.625 16 31.5938 16 40V41.625C12 44.8281 12 50.0313 12 51.625C12 56.8281 15.9531 61.1563 20.75 62.75C24.75 78.3438 37.5938 87.625 48 87.625C58.4063 87.625 71.25 78.3438 75.25 62.75C80.0469 61.5469 84 57.2031 84 52C84 50 84 45.2031 80 42V40.375C80 31.9688 76.8438 24 71.25 18C65.25 11.2031 56.7969 8 48 8ZM36 28C50 46 62.4063 23.5781 72 46.375C72 46.375 76.7969 47.5938 76 52C75.2031 57.5938 68.75 56.375 68.75 56.375L68 59.25C65.2031 72.8438 54.4063 80 48 80C41.5938 80 30.7969 72.8438 28 59.25L27.625 56.375C27.625 56.375 20.375 56.7969 20.375 52C20.375 46.7969 24.375 46.375 24.375 46.375L28 48C28 39.5938 31.2031 30 36 28ZM38 44C34.6875 44 32 46.6875 32 50C32 53.3125 34.6875 56 38 56C41.3125 56 44 53.3125 44 50C44 46.6875 41.3125 44 38 44ZM58 44C54.6875 44 52 46.6875 52 50C52 53.3125 54.6875 56 58 56C61.3125 56 64 53.3125 64 50C64 46.6875 61.3125 44 58 44Z" fill="#666666"/>
</svg>
