<svg width="96" height="96" viewBox="0 0 96 96" fill="none" xmlns="http://www.w3.org/2000/svg">
<g clip-path="url(#clip0_11700_18109)">
<rect width="96" height="96" fill="white"/>
<path d="M48 16C30.3742 16 16 30.3742 16 48V52V55.6094C13.7052 57.7976 12 60.6126 12 64C12 68.9679 15.4302 72.6516 19.7734 74.4531C24.9776 86.8924 35.4009 96 48 96C60.5991 96 71.0224 86.8924 76.2266 74.4531C80.5698 72.6516 84 68.9679 84 64C84 60.6126 82.2948 57.7976 80 55.6094V52V48C80 30.3742 65.6258 16 48 16ZM48 24C58.6224 24 67.5625 30.8295 70.7422 40.3516C69.8568 40.1401 68.946 40 68 40H28C27.054 40 26.1432 40.1401 25.2578 40.3516C28.4375 30.8295 37.3776 24 48 24ZM28 48H68C70.2601 48 72 49.7399 72 52V56V59.4062L74.0078 60.5547C75.2224 61.2519 76 62.46 76 64C76 66.0605 74.5247 67.6508 72.5547 67.9219L70.2109 68.25L69.3594 70.4531C65.2362 81.198 57.0338 88 48 88C38.9662 88 30.7638 81.198 26.6406 70.4531L25.7891 68.25L23.4453 67.9219C21.4753 67.6508 20 66.0605 20 64C20 62.46 20.7776 61.2519 21.9922 60.5547L24 59.4062V56V52C24 49.7399 25.7399 48 28 48Z" fill="#666666"/>
<line x1="34.837" y1="6.3043" x2="46.837" y2="19.3043" stroke="#666666" stroke-width="5"/>
<line y1="-2.5" x2="25" y2="-2.5" transform="matrix(-0.67828 0.734803 0.734803 0.67828 63 2)" stroke="#666666" stroke-width="5"/>
<circle cx="38" cy="60" r="5" fill="#5D5D5F"/>
<circle cx="58" cy="60" r="5" fill="#5D5D5F"/>
</g>
<defs>
<clipPath id="clip0_11700_18109">
<rect width="96" height="96" fill="white"/>
</clipPath>
</defs>
</svg>
