<svg xmlns="http://www.w3.org/2000/svg" xmlns:xlink="http://www.w3.org/1999/xlink" width="700" height="700" viewBox="0 0 700 700">
  <defs>
    <clipPath id="clip-실시간_상담">
      <rect width="700" height="700"/>
    </clipPath>
  </defs>
  <g id="실시간_상담" data-name="실시간 상담" clip-path="url(#clip-실시간_상담)">
    <rect width="700" height="700" fill="#fff"/>
    <path id="Path_13" data-name="Path 13" d="M272.4,253.16c1.018-10.113-6.349-17.422-34.764-45.825-24.408-24.4-36.834-36.588-47.655-36.176-9.1.347-21.264,12.632-45.6,37.2-4.283,4.324-11.477,12.115-15.244,24.261a53.207,53.207,0,0,0-1.921,8.783c-3.126,22.673,6.926,51.388,6.926,51.389,2.143,6.118,11.968,33.529,34.952,69.973,2.532,4.017,10.756,16.914,22.944,33.019a485.138,485.138,0,0,0,35.218,41.627c46.539,48.363,105.1,72.338,126.258,80.163,13.3,4.92,49.92,20.91,69.123,7.9.571-.387,2.595-1.89,6.642-4.9,15.657-11.632,23.485-17.448,31-24.1,16.206-14.342,20.027-21.951,21.226-29.248a28.221,28.221,0,0,0,.337-2.839c.879-14.132-12.208-23.462-32.618-43.733-.65-.645-34.505-34.274-46.621-35.214a23.149,23.149,0,0,0-4.125.088,23.645,23.645,0,0,0-11.96,5.543,170.244,170.244,0,0,0-24.574,24.84c-1.494,1.929-3.593,4.731-7.406,6.283-5.041,2.05-10,.663-11.875.136-24.416-6.837-73.071-54-73.071-54s-39.864-38.641-40.494-57.222a19.816,19.816,0,0,1,1.312-7.561,17.545,17.545,0,0,1,4.282-5.983c7.251-6.845,19.787-16.76,25.133-22.153C262.4,272.82,271.323,263.816,272.4,253.16Z" transform="translate(33.39 8.619)" fill="none" stroke="#2777ff" stroke-linecap="round" stroke-linejoin="round" stroke-width="15"/>
    <path id="Path_14" data-name="Path 14" d="M325,153.333c18.513,2.845,64.257,12.438,105.871,50.214,50.752,46.071,61.654,103.464,64.26,120.619" transform="translate(43.992 7.667)" fill="none" stroke="#2777ff" stroke-linecap="round" stroke-linejoin="round" stroke-width="15"/>
    <path id="Path_15" data-name="Path 15" d="M321.5,220.5a116.222,116.222,0,0,1,65.84,32.657c27.261,27.307,31.9,59.564,32.92,69" transform="translate(43.805 11.256)" fill="none" stroke="#2777ff" stroke-linecap="round" stroke-linejoin="round" stroke-width="15"/>
  </g>
</svg>
