<svg xmlns="http://www.w3.org/2000/svg" xmlns:xlink="http://www.w3.org/1999/xlink" width="700" height="700" viewBox="0 0 700 700">
  <defs>
    <clipPath id="clip-정직">
      <rect width="700" height="700"/>
    </clipPath>
  </defs>
  <g id="정직" clip-path="url(#clip-정직)">
    <rect width="700" height="700" fill="#fff"/>
    <g id="Group_1" data-name="Group 1" transform="translate(30 29.667)">
      <path id="Path_1" data-name="Path 1" d="M481.5,176.5,565,284l-50.5,46-92-118Z" fill="none" stroke="#2777ff" stroke-linecap="round" stroke-linejoin="round" stroke-width="15"/>
      <path id="Path_2" data-name="Path 2" d="M422.5,212,353,210l-80.5,22.5L229,305c-6.531,13.794-1.372,29.836,10.5,36.5,9.842,5.525,22.916,3.828,32-4.5L303,281.5l55,4,126,127a23.026,23.026,0,0,1,1.334,3.727c1.99,7.557,1.058,19.848-8.334,27.273a25.548,25.548,0,0,1-26.179,2.944l-2.916-2.853L375.5,372.75" fill="none" stroke="#2777ff" stroke-linecap="round" stroke-linejoin="round" stroke-width="15"/>
      <path id="Path_3" data-name="Path 3" d="M517.3,323.977q-19.423,40.931-38.849,81.861" fill="none" stroke="#2777ff" stroke-linecap="round" stroke-linejoin="round" stroke-width="15"/>
      <path id="Path_4" data-name="Path 4" d="M293.256,226l-64.978-16" fill="none" stroke="#2777ff" stroke-linecap="round" stroke-linejoin="round" stroke-width="15"/>
      <path id="Path_5" data-name="Path 5" d="M169,172.5l-94,118,50.5,44L228.278,210Z" fill="none" stroke="#2777ff" stroke-linecap="round" stroke-linejoin="round" stroke-width="15"/>
      <path id="Path_6" data-name="Path 6" d="M169.172,393.154l-44.6-60.58" fill="none" stroke="#2777ff" stroke-linecap="round" stroke-linejoin="round" stroke-width="15"/>
      <rect id="Rectangle_1" data-name="Rectangle 1" width="52.712" height="73.605" rx="26.356" transform="translate(198.82 373.227) rotate(45)" fill="none" stroke="#2777ff" stroke-linecap="round" stroke-linejoin="round" stroke-width="15"/>
      <rect id="Rectangle_2" data-name="Rectangle 2" width="52.712" height="94.625" rx="26.356" transform="translate(243.097 402.641) rotate(45)" fill="none" stroke="#2777ff" stroke-linecap="round" stroke-linejoin="round" stroke-width="15"/>
      <rect id="Rectangle_3" data-name="Rectangle 3" width="52.712" height="93.605" rx="26.356" transform="translate(281.916 437.798) rotate(45)" fill="none" stroke="#2777ff" stroke-linecap="round" stroke-linejoin="round" stroke-width="15"/>
      <rect id="Rectangle_4" data-name="Rectangle 4" width="52.712" height="73.605" rx="26.356" transform="translate(310.69 485.097) rotate(45)" fill="none" stroke="#2777ff" stroke-linecap="round" stroke-linejoin="round" stroke-width="15"/>
      <path id="Path_7" data-name="Path 7" d="M327.5,542.833c.5,1.1,6.512,13.8,20.5,16.167,11.99,2.03,23.2-4.656,28.333-13.667.7-1.235,5.277-9.545,2.733-18.945a25.4,25.4,0,0,0-6.733-11.055c-8.217-8.7-17.457-18.468-28-29.333" fill="none" stroke="#2777ff" stroke-linecap="round" stroke-linejoin="round" stroke-width="15"/>
      <path id="Path_8" data-name="Path 8" d="M374.041,517.212c8.512,5.527,19.173,6.146,27.626,1.455,10.384-5.764,15.024-18.2,12.892-27.366A20.149,20.149,0,0,0,410,482.667c-14.606-16.911-47.161-48.021-51.333-52" fill="none" stroke="#2777ff" stroke-linecap="round" stroke-linejoin="round" stroke-width="15"/>
      <path id="Path_9" data-name="Path 9" d="M410,482.667c11.253,6.513,25.331,4.713,34-4,9.731-9.781,10.582-26.2,1.3-37.625" fill="none" stroke="#2777ff" stroke-linecap="round" stroke-linejoin="round" stroke-width="15"/>
    </g>
    <path id="Path_10" data-name="Path 10" d="M192,99.333l77.333,78.334" transform="translate(30 29.667)" fill="none" stroke="#2777ff" stroke-linecap="round" stroke-linejoin="round" stroke-width="15"/>
    <path id="Path_11" data-name="Path 11" d="M447.7,99.333l-77.333,78.334" transform="translate(30 29.667)" fill="none" stroke="#2777ff" stroke-linecap="round" stroke-linejoin="round" stroke-width="15"/>
    <path id="Path_12" data-name="Path 12" d="M319.583,106.333v73.674" transform="translate(30.917 29.667)" fill="none" stroke="#2777ff" stroke-linecap="round" stroke-linejoin="round" stroke-width="15"/>
    <circle id="Ellipse_1" data-name="Ellipse 1" cx="9.5" cy="9.5" r="9.5" transform="translate(341 94)" fill="#2777ff"/>
  </g>
</svg>
